<svg width="55" height="55" viewBox="0 0 55 55" fill="none" xmlns="http://www.w3.org/2000/svg">
<path d="M41.2904 50.9812C40.8456 50.926 40.4408 51.2421 40.3856 51.6869C40.2666 52.6501 39.4439 53.3764 38.4709 53.3764H6.66083C5.59692 53.3764 4.731 52.5117 4.731 51.4466V18.5834L9.14593 33.1388C9.25195 33.4894 9.57454 33.7156 9.92194 33.7156C9.99982 33.7156 10.08 33.7037 10.1578 33.68C10.5875 33.5501 10.83 33.0966 10.699 32.668L6.64891 19.314C7.20095 20.6875 8.54737 21.6605 10.1178 21.6605C12.1786 21.6605 13.8562 19.9829 13.8562 17.9222C13.8562 16.48 13.8562 9.71276 13.8562 8.59772C19.2652 6.9561 25.7611 4.98673 31.7798 3.1611C32.2084 3.03015 32.4509 2.57769 32.321 2.148C32.1901 1.71939 31.7365 1.47694 31.3079 1.60681L16.2903 6.16236C15.4233 4.46305 13.6559 3.29742 11.6201 3.29742C8.7302 3.29742 6.37938 5.64824 6.37938 8.5381V9.1691L5.65418 9.38877C4.14544 9.84564 3.13234 11.2116 3.13234 12.7875L3.10742 13.7486V51.4467C3.10742 53.4068 4.70167 55 6.66072 55H38.4708C40.2621 55 41.7774 53.6611 41.997 51.886C42.0526 51.4412 41.7354 51.0354 41.2904 50.9812ZM8.00307 8.53821C8.00307 6.54349 9.62546 4.92099 11.6203 4.92099C12.9213 4.92099 14.0642 5.6115 14.7006 6.64522L13.3 7.06954C12.0128 5.58883 9.56745 6.32467 9.32457 8.27524C9.296 8.49911 9.30599 16.3132 9.3062 16.6126C9.3062 17.0606 9.66982 17.4244 10.118 17.4244C10.5662 17.4244 10.9298 17.0607 10.9298 16.6126C10.9298 16.0148 10.9298 8.91376 10.9298 8.55883C10.9298 8.19951 11.222 7.90721 11.5814 7.90721C11.9408 7.90721 12.233 8.1994 12.233 8.55883C12.233 9.6714 12.233 16.6843 12.233 17.9222C12.233 19.0878 11.2838 20.0371 10.1181 20.0371C8.95235 20.0371 8.00317 19.0879 8.00317 17.9222C8.00307 15.9185 8.00307 10.5658 8.00307 8.53821ZM5.32096 11.4291C5.32203 11.427 5.32311 11.4259 5.32418 11.427C5.39819 11.3764 5.75473 11.0058 6.37949 10.9172C6.40581 18.2121 6.32009 18.0195 6.45737 18.683L4.83938 13.3492C4.62529 12.6357 4.8382 11.9149 5.32096 11.4291Z" fill="#FB5100"/>
<path d="M40.5256 2.52354C39.9392 0.590807 37.9255 -0.405639 36.0945 0.155426L34.4147 0.664176C33.9861 0.795123 33.7437 1.24758 33.8735 1.67727C34.0034 2.10588 34.4569 2.34834 34.8856 2.21846C36.4774 1.75837 36.6522 1.62539 37.1271 1.62539C37.9681 1.62539 38.7279 2.18817 38.9725 2.99566L41.305 10.6869L42.0236 13.0551L50.1823 39.9535C50.5011 40.9959 49.8835 42.0612 48.8965 42.3606C16.3798 52.2237 18.3303 51.6774 17.8949 51.6774C17.0528 51.6774 16.294 51.1146 16.0494 50.3072L11.6411 35.7745C11.5112 35.3459 11.0577 35.1034 10.629 35.2333C10.1994 35.3642 9.95798 35.8178 10.0879 36.2464L14.4952 50.7791C14.953 52.2878 16.3189 53.3009 17.8949 53.3009C18.2433 53.3009 18.5908 53.2489 18.9274 53.1472L40.4001 46.6336V48.5407C40.4001 48.9888 40.7626 49.3525 41.2118 49.3525C41.6599 49.3525 42.0236 48.9889 42.0236 48.5407V46.1411L49.3673 43.9136C50.8761 43.4558 51.8902 42.0899 51.8902 40.515C51.8902 39.5272 52.2906 41.4925 40.5256 2.52354Z" fill="#FB5100"/>
<path d="M27.7174 19.7422C27.0312 17.4798 25.2162 17.3717 24.1319 17.3074C23.1528 17.2356 22.4723 17.2806 22.2506 16.5497C22.0378 15.8482 22.532 15.4854 23.2351 15.2721C24.2634 14.9601 24.621 15.3666 25.1152 15.2166C25.6963 15.0403 25.8381 14.3505 25.7138 13.9411C25.4494 13.0695 24.1203 13.1593 23.4083 13.2753L23.3094 12.9489C23.1465 12.4119 22.5772 12.1076 22.0402 12.2705C21.5032 12.4333 21.1989 13.0027 21.3618 13.5398L21.4978 13.9879C20.3643 14.7333 19.9635 15.8652 20.3689 17.2019C20.953 19.1273 22.4876 19.2271 23.7207 19.3072C24.9507 19.3872 25.5543 19.4667 25.8357 20.3945C26.0778 21.1924 25.7755 21.69 24.8845 21.9601C23.4489 22.3955 23.2333 21.3363 22.4504 21.5738C21.935 21.7301 21.6986 22.3899 21.8391 22.8532C22.0696 23.6134 23.2442 24.094 24.5307 23.9872L24.6289 24.3107C24.7917 24.8477 25.361 25.1521 25.8982 24.9891C26.4352 24.8263 26.7395 24.2569 26.5765 23.7198L26.4719 23.3748C27.7378 22.6148 28.1917 21.3058 27.7174 19.7422Z" fill="#FB5100"/>
<path d="M40.1903 24.0024C40.0602 23.5734 39.6066 23.3313 39.1779 23.4613L16.0373 30.4805C15.6083 30.6107 15.366 31.064 15.4961 31.493C15.6256 31.92 16.0773 32.1648 16.5085 32.0342L39.6491 25.0149C40.0782 24.8846 40.3205 24.4314 40.1903 24.0024Z" fill="#FB5100"/>
<path d="M41.5423 28.4566C41.4113 28.028 40.9577 27.7855 40.5292 27.9154L40.4004 27.9544L17.3887 34.9345C16.9601 35.0654 16.7177 35.5179 16.8475 35.9476C16.9782 36.378 17.4338 36.6174 17.8606 36.4887C17.8733 36.485 40.9544 29.4839 41.0011 29.4697C41.4297 29.3386 41.6722 28.8852 41.5423 28.4566Z" fill="#FB5100"/>
<path d="M42.893 32.9104C42.7652 32.4902 42.3212 32.2391 41.881 32.3692L40.4004 32.8183L18.7394 39.3892C17.8499 39.6588 18.0467 40.9781 18.9753 40.9781C19.0532 40.9781 19.1322 40.9662 19.2112 40.9424C24.3624 39.38 36.883 35.5822 42.3517 33.9234C42.7804 33.7936 43.0229 33.3401 42.893 32.9104Z" fill="#FB5100"/>
<path d="M44.2441 37.3654C44.1142 36.9368 43.6607 36.6943 43.2321 36.8242L42.0242 37.1912C21.5645 43.3966 20.1622 43.8218 20.0937 43.8426C20.0935 43.8426 20.0934 43.8427 20.0932 43.8427C20.0933 43.8427 20.0934 43.8426 20.0935 43.8426C20.0928 43.8428 20.0921 43.8431 20.0917 43.8432C20.0918 43.8432 20.0919 43.8431 20.092 43.8431C20.0918 43.8431 20.0917 43.8432 20.0916 43.8432C19.2003 44.1127 19.3996 45.4322 20.3264 45.4322C20.5093 45.4322 19.1492 45.8297 43.7029 38.3774C44.1326 38.2475 44.3751 37.7939 44.2441 37.3654Z" fill="#FB5100"/>
<path d="M20.0938 43.8427H20.094C20.0955 43.8421 20.0964 43.8419 20.0965 43.8419C20.0961 43.842 20.095 43.8424 20.0938 43.8427Z" fill="#FB5100"/>
</svg>
