<svg width="55" height="55" viewBox="0 0 55 55" fill="none" xmlns="http://www.w3.org/2000/svg">
<g clip-path="url(#clip0_204_155)">
<path d="M17.4167 44C21.5524 44.0018 25.5536 42.5312 28.7038 39.8517C31.854 37.1722 33.9474 33.4587 34.6091 29.3764C35.2709 25.294 34.4577 21.1094 32.3153 17.572C30.1729 14.0345 26.8412 11.3753 22.9167 10.0705V9.16667C22.9157 8.32046 22.6223 7.50061 22.0863 6.84582C21.5503 6.19103 20.8045 5.74152 19.9752 5.57333C20.0998 5.25806 20.1648 4.92236 20.1667 4.58333V2.75C20.1667 2.02065 19.877 1.32118 19.3613 0.805456C18.8456 0.289731 18.1461 0 17.4167 0C16.6874 0 15.9879 0.289731 15.4722 0.805456C14.9565 1.32118 14.6667 2.02065 14.6667 2.75V4.58333C14.6687 4.92236 14.7336 5.25806 14.8583 5.57333C14.029 5.74152 13.2832 6.19103 12.7472 6.84582C12.2112 7.50061 11.9178 8.32046 11.9167 9.16667V10.0705C7.99233 11.3753 4.66058 14.0345 2.51817 17.572C0.375749 21.1094 -0.437395 25.294 0.224357 29.3764C0.886109 33.4587 2.97953 37.1722 6.12972 39.8517C9.27992 42.5312 13.2811 44.0018 17.4167 44V44ZM16.5001 2.75C16.5001 2.50689 16.5967 2.27373 16.7686 2.10182C16.9405 1.92991 17.1736 1.83333 17.4167 1.83333C17.6599 1.83333 17.893 1.92991 18.0649 2.10182C18.2368 2.27373 18.3334 2.50689 18.3334 2.75V4.58333C18.3334 4.82645 18.2368 5.05961 18.0649 5.23151C17.893 5.40342 17.6599 5.5 17.4167 5.5C17.1736 5.5 16.9405 5.40342 16.7686 5.23151C16.5967 5.05961 16.5001 4.82645 16.5001 4.58333V2.75ZM13.7501 9.16667C13.7501 8.68044 13.9432 8.21412 14.2871 7.87031C14.6309 7.52649 15.0972 7.33333 15.5834 7.33333H19.2501C19.7363 7.33333 20.2026 7.52649 20.5464 7.87031C20.8903 8.21412 21.0834 8.68044 21.0834 9.16667V9.56267C18.6675 9.03468 16.166 9.03468 13.7501 9.56267V9.16667ZM17.4167 11C20.4988 11 23.5117 11.9139 26.0744 13.6263C28.6371 15.3386 30.6344 17.7724 31.8139 20.6199C32.9933 23.4673 33.3019 26.6006 32.7007 29.6235C32.0994 32.6464 30.6152 35.4231 28.4358 37.6024C26.2565 39.7818 23.4798 41.266 20.4569 41.8672C17.434 42.4685 14.3007 42.1599 11.4533 40.9805C8.60578 39.801 6.172 37.8036 4.45968 35.241C2.74736 32.6783 1.83341 29.6654 1.83341 26.5833C1.83802 22.4518 3.48131 18.4908 6.40276 15.5693C9.3242 12.6479 13.2852 11.0046 17.4167 11V11Z" fill="white"/>
<path d="M49.5007 35.9462V33.9167C49.4981 33.3139 49.2975 32.7287 48.9298 32.251C48.5622 31.7733 48.0477 31.4297 47.4657 31.273C47.5979 30.9481 47.6663 30.6008 47.6673 30.25V29.3333C47.6673 28.604 47.3776 27.9045 46.8619 27.3888C46.3461 26.8731 45.6467 26.5833 44.9173 26.5833C44.188 26.5833 43.4885 26.8731 42.9728 27.3888C42.4571 27.9045 42.1673 28.604 42.1673 29.3333V30.25C42.1683 30.6008 42.2368 30.9481 42.369 31.273C41.7869 31.4297 41.2725 31.7733 40.9048 32.251C40.5371 32.7287 40.3366 33.3139 40.334 33.9167V35.9462C38.3171 36.9754 36.7053 38.6536 35.7582 40.7104C34.8112 42.7672 34.584 45.083 35.1133 47.2846C35.6426 49.4862 36.8976 51.4456 38.676 52.8472C40.4545 54.2488 42.653 55.011 44.9173 55.011C47.1817 55.011 49.3802 54.2488 51.1586 52.8472C52.9371 51.4456 54.192 49.4862 54.7213 47.2846C55.2506 45.083 55.0234 42.7672 54.0764 40.7104C53.1294 38.6536 51.5176 36.9754 49.5007 35.9462V35.9462ZM44.0007 29.3333C44.0007 29.0902 44.0972 28.8571 44.2691 28.6852C44.4411 28.5133 44.6742 28.4167 44.9173 28.4167C45.1604 28.4167 45.3936 28.5133 45.5655 28.6852C45.7374 28.8571 45.834 29.0902 45.834 29.3333V30.25C45.834 30.4931 45.7374 30.7263 45.5655 30.8982C45.3936 31.0701 45.1604 31.1667 44.9173 31.1667C44.6742 31.1667 44.4411 31.0701 44.2691 30.8982C44.0972 30.7263 44.0007 30.4931 44.0007 30.25V29.3333ZM42.1673 33.9167C42.1673 33.6736 42.2639 33.4404 42.4358 33.2685C42.6077 33.0966 42.8409 33 43.084 33H46.7507C46.9938 33 47.2269 33.0966 47.3988 33.2685C47.5708 33.4404 47.6673 33.6736 47.6673 33.9167V35.2238C45.871 34.7032 43.9637 34.7032 42.1673 35.2238V33.9167ZM44.9173 53.1667C43.2856 53.1667 41.6906 52.6828 40.3339 51.7763C38.9772 50.8698 37.9197 49.5813 37.2953 48.0738C36.6709 46.5663 36.5075 44.9075 36.8258 43.3072C37.1442 41.7068 37.9299 40.2368 39.0837 39.083C40.2375 37.9293 41.7075 37.1435 43.3078 36.8252C44.9082 36.5069 46.567 36.6702 48.0745 37.2947C49.582 37.9191 50.8704 38.9765 51.777 40.3332C52.6835 41.6899 53.1673 43.285 53.1673 44.9167C53.1649 47.104 52.2949 49.201 50.7483 50.7476C49.2016 52.2943 47.1046 53.1643 44.9173 53.1667Z" fill="white"/>
<path d="M18.3327 18.3333C18.3327 18.0902 18.2361 17.857 18.0642 17.6851C17.8923 17.5132 17.6592 17.4167 17.4161 17.4167C17.1729 17.4167 16.9398 17.5132 16.7679 17.6851C16.596 17.857 16.4994 18.0902 16.4994 18.3333V18.425C15.4633 18.6354 14.5318 19.1975 13.8627 20.0161C13.1936 20.8347 12.8281 21.8594 12.8281 22.9167C12.8281 23.9739 13.1936 24.9986 13.8627 25.8172C14.5318 26.6358 15.4633 27.1979 16.4994 27.4083V32.8322C15.9649 32.6433 15.5019 32.2938 15.1737 31.8315C14.8455 31.3693 14.6682 30.8169 14.6661 30.25C14.6661 30.0069 14.5695 29.7737 14.3976 29.6018C14.2257 29.4299 13.9925 29.3333 13.7494 29.3333C13.5063 29.3333 13.2731 29.4299 13.1012 29.6018C12.9293 29.7737 12.8327 30.0069 12.8327 30.25C12.8341 31.3062 13.1995 32.3296 13.8674 33.1478C14.5353 33.966 15.4648 34.5289 16.4994 34.7417V34.8333C16.4994 35.0764 16.596 35.3096 16.7679 35.4815C16.9398 35.6534 17.1729 35.75 17.4161 35.75C17.6592 35.75 17.8923 35.6534 18.0642 35.4815C18.2361 35.3096 18.3327 35.0764 18.3327 34.8333V34.7417C19.3688 34.5313 20.3003 33.9692 20.9694 33.1506C21.6385 32.332 22.004 31.3072 22.004 30.25C22.004 29.1927 21.6385 28.168 20.9694 27.3494C20.3003 26.5308 19.3688 25.9687 18.3327 25.7583V20.3353C18.8671 20.5242 19.33 20.8736 19.6581 21.3357C19.9863 21.7977 20.1637 22.3499 20.1661 22.9167C20.1661 23.1598 20.2626 23.3929 20.4345 23.5648C20.6064 23.7367 20.8396 23.8333 21.0827 23.8333C21.3258 23.8333 21.559 23.7367 21.7309 23.5648C21.9028 23.3929 21.9994 23.1598 21.9994 22.9167C21.9981 21.8605 21.6326 20.837 20.9647 20.0188C20.2968 19.2007 19.3673 18.6377 18.3327 18.425V18.3333ZM14.6661 22.9167C14.6684 22.3499 14.8458 21.7977 15.174 21.3357C15.5021 20.8736 15.9651 20.5242 16.4994 20.3353V25.498C15.9651 25.3091 15.5021 24.9597 15.174 24.4976C14.8458 24.0356 14.6684 23.4834 14.6661 22.9167V22.9167ZM20.1661 30.25C20.1637 30.8167 19.9863 31.3689 19.6581 31.831C19.33 32.293 18.8671 32.6424 18.3327 32.8313V27.6687C18.8671 27.8576 19.33 28.207 19.6581 28.669C19.9863 29.1311 20.1637 29.6833 20.1661 30.25Z" fill="white"/>
<path d="M20.2043 39.1417C20.2607 39.3308 20.3766 39.4966 20.5349 39.6145C20.6931 39.7324 20.8851 39.7961 21.0824 39.7962C21.1712 39.7959 21.2595 39.7829 21.3446 39.7577C23.5342 39.1075 25.5269 37.921 27.142 36.3059C28.7571 34.6908 29.9436 32.6981 30.5938 30.5085C30.6311 30.3924 30.6449 30.2699 30.6343 30.1484C30.6237 30.0269 30.589 29.9087 30.5321 29.8007C30.4753 29.6928 30.3975 29.5973 30.3032 29.5198C30.209 29.4423 30.1002 29.3845 29.9833 29.3496C29.8664 29.3147 29.7437 29.3034 29.6224 29.3166C29.5012 29.3297 29.3837 29.3669 29.277 29.426C29.1703 29.4851 29.0764 29.5649 29.0009 29.6608C28.9255 29.7566 28.8699 29.8666 28.8374 29.9842C28.2737 31.882 27.2452 33.6092 25.8453 35.0092C24.4453 36.4091 22.7181 37.4376 20.8203 38.0013C20.5874 38.0709 20.3917 38.2301 20.2762 38.444C20.1607 38.6578 20.1348 38.9088 20.2043 39.1417V39.1417Z" fill="white"/>
<path d="M7.09805 20.625C8.14781 18.8173 9.6527 17.3161 11.4629 16.2707C13.2732 15.2253 15.3257 14.6723 17.4161 14.6667C17.6592 14.6667 17.8923 14.5701 18.0642 14.3982C18.2361 14.2263 18.3327 13.9931 18.3327 13.75C18.3327 13.5069 18.2361 13.2737 18.0642 13.1018C17.8923 12.9299 17.6592 12.8333 17.4161 12.8333C15.0042 12.8397 12.6362 13.4777 10.5476 14.6839C8.4591 15.8902 6.72301 17.6225 5.51222 19.7083C5.44589 19.8127 5.40136 19.9293 5.38129 20.0513C5.36123 20.1733 5.36605 20.2981 5.39546 20.4182C5.42487 20.5383 5.47827 20.6512 5.55245 20.7501C5.62662 20.849 5.72003 20.9319 5.82707 20.9937C5.9341 21.0556 6.05255 21.0952 6.17527 21.1101C6.298 21.125 6.42248 21.1149 6.54121 21.0805C6.65994 21.046 6.77048 20.9879 6.86618 20.9097C6.96187 20.8314 7.04075 20.7346 7.09805 20.625Z" fill="white"/>
<path d="M5.07714 22.9377C4.95953 22.912 4.83799 22.9096 4.71947 22.9308C4.60094 22.952 4.48776 22.9963 4.38637 23.0613C4.28499 23.1262 4.1974 23.2105 4.1286 23.3093C4.05979 23.4081 4.01113 23.5195 3.98539 23.6372C3.91389 23.9604 3.85278 24.2883 3.80205 24.6207C3.78511 24.7402 3.79191 24.8618 3.82207 24.9786C3.85222 25.0954 3.90514 25.2051 3.97778 25.3014C4.05042 25.3978 4.14136 25.4788 4.24539 25.5399C4.34941 25.601 4.46447 25.6409 4.58397 25.6575C4.62708 25.6637 4.67058 25.6668 4.71414 25.6667C4.9347 25.6664 5.14779 25.5867 5.31431 25.4421C5.48083 25.2974 5.58962 25.0976 5.62072 24.8792C5.66105 24.5926 5.71208 24.3094 5.7738 24.0295C5.82595 23.7923 5.78188 23.5442 5.65127 23.3395C5.52066 23.1348 5.31417 22.9903 5.07714 22.9377V22.9377Z" fill="white"/>
<path d="M44.9168 44C44.7559 43.9998 44.5979 43.9573 44.4586 43.8768C44.3194 43.7962 44.2038 43.6805 44.1235 43.5411C44.0431 43.4017 44.0009 43.2436 44.001 43.0828C44.0011 42.9219 44.0435 42.7639 44.124 42.6246C44.2045 42.4853 44.3203 42.3697 44.4596 42.2893C44.599 42.2089 44.757 42.1666 44.9179 42.1667C45.0787 42.1667 45.2368 42.2091 45.3761 42.2895C45.5154 42.37 45.6311 42.4857 45.7115 42.625C45.8369 42.8277 46.0363 42.9735 46.2674 43.0317C46.4985 43.0898 46.7432 43.0557 46.9496 42.9365C47.156 42.8172 47.3078 42.6223 47.3729 42.3931C47.438 42.1638 47.4112 41.9182 47.2983 41.7083C46.9664 41.1503 46.4473 40.728 45.8334 40.5167V40.3333C45.8334 40.0902 45.7368 39.857 45.5649 39.6851C45.393 39.5132 45.1599 39.4167 44.9168 39.4167C44.6736 39.4167 44.4405 39.5132 44.2686 39.6851C44.0967 39.857 44.0001 40.0902 44.0001 40.3333V40.502C43.389 40.7172 42.8737 41.1418 42.5457 41.7006C42.2176 42.2593 42.0979 42.9161 42.2077 43.5547C42.3174 44.1932 42.6497 44.7723 43.1455 45.1894C43.6414 45.6064 44.2688 45.8346 44.9168 45.8333C45.0776 45.8335 45.2356 45.876 45.3749 45.9565C45.5141 46.0371 45.6297 46.1529 45.7101 46.2922C45.7904 46.4316 45.8326 46.5897 45.8325 46.7505C45.8324 46.9114 45.79 47.0694 45.7095 47.2087C45.629 47.348 45.5133 47.4636 45.3739 47.544C45.2346 47.6244 45.0765 47.6667 44.9156 47.6667C44.7548 47.6666 44.5967 47.6242 44.4574 47.5438C44.3181 47.4633 44.2024 47.3476 44.122 47.2083C43.9966 47.0056 43.7972 46.8598 43.5661 46.8016C43.335 46.7435 43.0903 46.7776 42.8839 46.8969C42.6776 47.0161 42.5257 47.211 42.4606 47.4402C42.3956 47.6695 42.4223 47.9151 42.5353 48.125C42.8676 48.6834 43.3873 49.1057 44.0019 49.3167V49.5C44.0019 49.7431 44.0985 49.9763 44.2704 50.1482C44.4423 50.3201 44.6755 50.4167 44.9186 50.4167C45.1617 50.4167 45.3949 50.3201 45.5668 50.1482C45.7387 49.9763 45.8353 49.7431 45.8353 49.5V49.3313C46.4465 49.116 46.9619 48.6913 47.2899 48.1324C47.618 47.5734 47.7376 46.9164 47.6276 46.2778C47.5175 45.6391 47.1849 45.06 46.6888 44.6431C46.1926 44.2261 45.5648 43.9983 44.9168 44Z" fill="white"/>
<path d="M40.871 20.1667H39.4171C39.174 20.1667 38.9408 20.2632 38.7689 20.4351C38.597 20.6071 38.5005 20.8402 38.5005 21.0833C38.5005 21.3264 38.597 21.5596 38.7689 21.7315C38.9408 21.9034 39.174 22 39.4171 22H43.0838C43.3269 22 43.5601 21.9034 43.732 21.7315C43.9039 21.5596 44.0005 21.3264 44.0005 21.0833V17.4167C44.0005 17.1735 43.9039 16.9404 43.732 16.7685C43.5601 16.5966 43.3269 16.5 43.0838 16.5C42.8407 16.5 42.6075 16.5966 42.4356 16.7685C42.2637 16.9404 42.1671 17.1735 42.1671 17.4167V18.8705L26.3152 3.01858C26.1423 2.8516 25.9108 2.75921 25.6704 2.7613C25.4301 2.76338 25.2002 2.85979 25.0302 3.02975C24.8602 3.1997 24.7638 3.42962 24.7618 3.66996C24.7597 3.91031 24.8521 4.14186 25.019 4.31475L40.871 20.1667Z" fill="white"/>
<path d="M4.59378 46.6162C4.55835 46.8566 4.61986 47.1012 4.76476 47.2963C4.90967 47.4914 5.12612 47.621 5.36653 47.6566L27.9367 51.007L26.767 51.8833C26.6707 51.9556 26.5896 52.046 26.5283 52.1496C26.4669 52.2532 26.4266 52.3679 26.4096 52.487C26.3926 52.6062 26.3992 52.7275 26.429 52.8442C26.4589 52.9608 26.5115 53.0704 26.5837 53.1667C26.6559 53.263 26.7464 53.3441 26.85 53.4054C26.9536 53.4668 27.0682 53.5071 27.1874 53.5241C27.3066 53.5411 27.4279 53.5345 27.5445 53.5046C27.6611 53.4748 27.7707 53.4222 27.867 53.35L30.8004 51.15C30.9949 51.0041 31.1234 50.787 31.1578 50.5463C31.1922 50.3056 31.1296 50.0612 30.9837 49.8667L28.7837 46.9333C28.6378 46.7388 28.4207 46.6103 28.18 46.5759C27.9393 46.5415 27.6949 46.6041 27.5004 46.75C27.3059 46.8959 27.1773 47.113 27.1429 47.3537C27.1085 47.5944 27.1712 47.8388 27.317 48.0333L28.1851 49.1892L5.63511 45.8425C5.39463 45.8083 5.15038 45.8704 4.9554 46.0153C4.76043 46.1601 4.63048 46.376 4.59378 46.6162Z" fill="white"/>
</g>
<defs>
<clipPath id="clip0_204_155">
<rect width="55" height="55" fill="white"/>
</clipPath>
</defs>
</svg>
