<svg width="55" height="55" viewBox="0 0 55 55" fill="none" xmlns="http://www.w3.org/2000/svg">
<g clip-path="url(#clip0_204_170)">
<path d="M29.1761 11.1632H31.3473C31.9227 11.1632 32.4465 11.3978 32.8241 11.7754C33.2047 12.156 33.4392 12.6798 33.4392 13.2552V14.9543H35.1414C35.717 14.9543 36.2407 15.1918 36.6183 15.5694C36.9989 15.947 37.2334 16.4708 37.2334 17.0494V19.2205C37.2334 19.7959 36.9989 20.3197 36.6183 20.6973C36.2407 21.0749 35.717 21.3124 35.1414 21.3124H33.4392V23.0115C33.4392 23.5869 33.2047 24.1107 32.8241 24.4913C32.4465 24.8689 31.9227 25.1034 31.3473 25.1034H29.1761C28.6006 25.1034 28.0768 24.8689 27.6962 24.4913C27.3186 24.1107 27.0842 23.5869 27.0842 23.0115V21.3124H25.382C24.8065 21.3124 24.2827 21.0749 23.9051 20.6973C23.5245 20.3197 23.29 19.7959 23.29 19.2205V17.0494C23.29 16.4708 23.5245 15.947 23.9051 15.5694C24.2827 15.1918 24.8065 14.9543 25.382 14.9543H27.0842V13.2552C27.0842 12.6798 27.3188 12.156 27.6962 11.7754C28.0769 11.3978 28.6006 11.1632 29.1761 11.1632V11.1632ZM18.3815 28.45C17.9368 28.45 17.5775 28.0907 17.5775 27.6492C17.5775 27.2047 17.9368 26.8454 18.3815 26.8454H42.142C42.5866 26.8454 42.9459 27.2047 42.9459 27.6492C42.9459 28.0907 42.5866 28.45 42.142 28.45H18.3815ZM18.3815 50.8434C17.9368 50.8434 17.5775 50.4841 17.5775 50.0426C17.5775 49.598 17.9368 49.2388 18.3815 49.2388H31.1951C31.6366 49.2388 31.9959 49.5981 31.9959 50.0426C31.9959 50.4841 31.6366 50.8434 31.1951 50.8434H18.3815ZM18.3815 47.6461C17.9368 47.6461 17.5775 47.2868 17.5775 46.8423C17.5775 46.4008 17.9368 46.0414 18.3815 46.0414H31.1951C31.6366 46.0414 31.9959 46.4008 31.9959 46.8423C31.9959 47.2869 31.6366 47.6461 31.1951 47.6461H18.3815ZM18.3815 44.4458C17.9368 44.4458 17.5775 44.0865 17.5775 43.645C17.5775 43.2004 17.9368 42.841 18.3815 42.841H31.1951C31.6366 42.841 31.9959 43.2004 31.9959 43.645C31.9959 44.0865 31.6366 44.4458 31.1951 44.4458H18.3815ZM18.3815 41.2485C17.9368 41.2485 17.5775 40.8892 17.5775 40.4447C17.5775 40 17.9368 39.6408 18.3815 39.6408H31.1951C31.6366 39.6408 31.9959 40.0001 31.9959 40.4447C31.9959 40.8893 31.6366 41.2485 31.1951 41.2485H18.3815ZM18.3815 38.0481C17.9368 38.0481 17.5775 37.6887 17.5775 37.2442C17.5775 36.8027 17.9368 36.4433 18.3815 36.4433H31.1951C31.6366 36.4433 31.9959 36.8026 31.9959 37.2442C31.9959 37.6887 31.6366 38.0481 31.1951 38.0481H18.3815ZM18.3815 34.8478C17.9368 34.8478 17.5775 34.4884 17.5775 34.0468C17.5775 33.6022 17.9368 33.243 18.3815 33.243H42.142C42.5866 33.243 42.9459 33.6023 42.9459 34.0468C42.9459 34.4884 42.5866 34.8478 42.142 34.8478H18.3815ZM18.3815 31.6505C17.9368 31.6505 17.5775 31.2911 17.5775 30.8466C17.5775 30.4051 17.9368 30.0458 18.3815 30.0458H42.142C42.5866 30.0458 42.9459 30.4051 42.9459 30.8466C42.9459 31.2911 42.5866 31.6505 42.142 31.6505H18.3815ZM15.1993 14.8781H18.5823C19.4655 14.8781 20.2723 14.5158 20.857 13.9312C21.4416 13.3465 21.804 12.5396 21.804 11.6536V8.27353L15.1993 14.8781ZM22.681 5.52686H40.9423V4.12006C40.9423 3.43191 40.6592 2.80457 40.2054 2.34792C39.7486 1.89406 39.1244 1.6109 38.4332 1.6109H11.0458C10.3577 1.6109 9.73035 1.89406 9.27359 2.34792C8.81995 2.80468 8.53679 3.43191 8.53679 4.12006V38.0603C8.53679 38.5049 8.17746 38.8673 7.73295 38.8673C7.28833 38.8673 6.92589 38.5049 6.92589 38.0603V4.12006C6.92589 2.98429 7.38877 1.95497 8.13481 1.20893C8.88086 0.462881 9.91007 0 11.0458 0H38.4332C39.569 0 40.5982 0.462881 41.3443 1.20893C42.0903 1.95497 42.5532 2.98418 42.5532 4.12006V5.52686H43.9569C45.0897 5.52686 46.1189 5.98662 46.8649 6.73267C47.611 7.47871 48.0738 8.50792 48.0738 9.64068V13.2917C48.0738 13.7364 47.7144 14.0956 47.2699 14.0956C46.8253 14.0956 46.4629 13.7363 46.4629 13.2917V9.64068C46.4629 8.95254 46.1829 8.3252 45.7261 7.87155C45.2571 7.39954 44.6238 7.13163 43.9569 7.13163C37.1085 7.13163 30.2633 7.13163 23.4149 7.13163V11.6536C23.4149 12.9842 22.8699 14.1931 21.9959 15.0701C21.1189 15.944 19.9101 16.489 18.5823 16.489H14.0574V50.8831C14.0574 51.5712 14.3406 52.1985 14.7973 52.6523C15.2511 53.106 15.8783 53.3892 16.5666 53.3892H43.9569C44.645 53.3892 45.2724 53.106 45.7261 52.6523C46.1829 52.1985 46.4629 51.5713 46.4629 50.8831V16.9397C46.4629 16.4951 46.8254 16.1358 47.2699 16.1358C47.7144 16.1358 48.0738 16.4952 48.0738 16.9397V50.883C48.0738 52.0157 47.611 53.0449 46.8649 53.791C46.1189 54.5371 45.0897 55 43.9569 55H16.5666C15.4338 55 14.4045 54.5371 13.6586 53.7911C12.8851 53.0176 12.4526 51.9762 12.4526 50.8831V49.4793H11.0458C9.91007 49.4793 8.88086 49.0164 8.13471 48.2704C7.38866 47.5244 6.92578 46.4952 6.92578 45.3593V41.7113C6.92578 41.2667 7.28822 40.9043 7.73284 40.9043C8.17735 40.9043 8.53668 41.2667 8.53668 41.7113V45.3593C8.53668 46.0475 8.81984 46.6748 9.27349 47.1316C9.73024 47.5853 10.3576 47.8685 11.0457 47.8685H12.4525V15.7521C12.4313 15.5238 12.5104 15.2892 12.6839 15.1126C15.8021 11.9976 18.9142 8.87326 22.0353 5.76125C22.2091 5.58766 22.4253 5.52686 22.681 5.52686V5.52686ZM42.949 40.5968C42.949 41.0414 42.5865 41.4006 42.142 41.4006C41.6975 41.4006 41.3382 41.0413 41.3382 40.5968C41.3382 40.3684 41.2438 40.1583 41.0915 40.0061C40.9392 39.8537 40.7292 39.7594 40.5008 39.7594H36.0002C35.7718 39.7594 35.5617 39.8537 35.4094 40.0061C35.2572 40.1583 35.1628 40.3684 35.1628 40.5968V42.0523C35.1628 42.2807 35.2572 42.4908 35.4094 42.643C35.5617 42.7953 35.7718 42.8897 36.0002 42.8897H40.5008C41.1738 42.8897 41.7858 43.1638 42.2304 43.6083C42.675 44.05 42.9491 44.662 42.9491 45.3349V46.7935C42.9491 47.4664 42.675 48.0785 42.2304 48.5231C41.7858 48.9646 41.1738 49.2418 40.5008 49.2418H39.0574V50.0426C39.0574 50.4872 38.695 50.8464 38.2504 50.8464C37.8058 50.8464 37.4435 50.4871 37.4435 50.0426V49.2418H36.0002C35.3273 49.2418 34.7152 48.9646 34.2706 48.5231C33.8289 48.0785 33.5519 47.4664 33.5519 46.7935C33.5519 46.3489 33.9142 45.9866 34.3589 45.9866C34.8035 45.9866 35.1627 46.349 35.1627 46.7935C35.1627 47.0219 35.2571 47.232 35.4093 47.3842C35.5616 47.5334 35.7717 47.6279 36 47.6279H40.5007C40.7291 47.6279 40.9392 47.5334 41.0914 47.3842C41.2436 47.232 41.3381 47.0219 41.3381 46.7935V45.3349C41.3381 45.1066 41.2437 44.8994 41.0914 44.7472C40.9391 44.5949 40.7291 44.5006 40.5007 44.5006H36.0002C35.3273 44.5006 34.7152 44.2266 34.2706 43.7819C33.8289 43.3403 33.5519 42.7283 33.5519 42.0523V40.5968C33.5519 39.9238 33.8289 39.3118 34.2706 38.8672C34.7152 38.4257 35.3272 38.1485 36.0002 38.1485H37.4436V37.2442C37.4436 36.7996 37.8059 36.4403 38.2505 36.4403C38.6952 36.4403 39.0575 36.7996 39.0575 37.2442V38.1485H40.5009C41.1739 38.1485 41.7859 38.4257 42.2305 38.8672C42.6749 39.3118 42.949 39.9239 42.949 40.5968ZM31.3473 12.7741H29.1761C29.0451 12.7741 28.9234 12.8289 28.8381 12.9173C28.7498 13.0025 28.695 13.1243 28.695 13.2552V15.7613C28.695 16.2059 28.3357 16.5682 27.8881 16.5682H25.382C25.2511 16.5682 25.1323 16.6199 25.044 16.7083C24.9557 16.7966 24.9008 16.9154 24.9008 17.0494V19.2205C24.9008 19.3514 24.9556 19.4702 25.044 19.5584C25.1323 19.6467 25.2511 19.7015 25.382 19.7015H27.8881C28.3357 19.7015 28.695 20.0608 28.695 20.5053V23.0115C28.695 23.1424 28.7498 23.2642 28.8381 23.3525C28.9234 23.4378 29.0452 23.4926 29.1761 23.4926H31.3473C31.4782 23.4926 31.5999 23.4377 31.6852 23.3525C31.7735 23.2642 31.8283 23.1424 31.8283 23.0115V20.5053C31.8283 20.0607 32.1876 19.7015 32.6353 19.7015H35.1414C35.2724 19.7015 35.3912 19.6467 35.4794 19.5584C35.5677 19.4701 35.6226 19.3513 35.6226 19.2205V17.0494C35.6226 16.9154 35.5678 16.7966 35.4794 16.7083C35.3911 16.62 35.2724 16.5682 35.1414 16.5682H32.6353C32.1876 16.5682 31.8283 16.2059 31.8283 15.7613V13.2552C31.8283 13.1243 31.7735 13.0025 31.6852 12.9173C31.6 12.8289 31.4782 12.7741 31.3473 12.7741V12.7741Z" fill="white"/>
</g>
<defs>
<clipPath id="clip0_204_170">
<rect width="55" height="55" fill="white"/>
</clipPath>
</defs>
</svg>
