<svg width="55" height="55" viewBox="0 0 55 55" fill="none" xmlns="http://www.w3.org/2000/svg">
<path d="M31.7969 53.2812H22.3438V33.5156C22.3438 33.2877 22.4343 33.0691 22.5955 32.908C22.7566 32.7468 22.9752 32.6562 23.2031 32.6562H28.3594C28.5873 32.6562 28.8059 32.5657 28.967 32.4045C29.1282 32.2434 29.2188 32.0248 29.2188 31.7969C29.2188 31.569 29.1282 31.3504 28.967 31.1892C28.8059 31.028 28.5873 30.9375 28.3594 30.9375H23.2031C22.5194 30.9375 21.8636 31.2091 21.3801 31.6926C20.8966 32.1761 20.625 32.8319 20.625 33.5156V53.2812H14.9909C15.3002 52.761 15.4652 52.1677 15.4688 51.5625C15.4688 50.6508 15.1066 49.7765 14.4619 49.1318C13.8173 48.4872 12.9429 48.125 12.0312 48.125C11.7624 48.125 11.4946 48.1579 11.2337 48.223C10.8389 47.6618 10.3148 47.2038 9.70577 46.8876C9.09673 46.5714 8.42058 46.4064 7.73438 46.4064C7.04817 46.4064 6.37202 46.5714 5.76298 46.8876C5.15395 47.2038 4.62988 47.6618 4.235 48.223C3.97415 48.1579 3.70633 48.125 3.4375 48.125C2.52582 48.125 1.65148 48.4872 1.00682 49.1318C0.362164 49.7765 0 50.6508 0 51.5625C0 52.4742 0.362164 53.3485 1.00682 53.9932C1.65148 54.6378 2.52582 55 3.4375 55H31.7969C32.0248 55 32.2434 54.9095 32.4045 54.7483C32.5657 54.5871 32.6562 54.3685 32.6562 54.1406C32.6562 53.9127 32.5657 53.6941 32.4045 53.533C32.2434 53.3718 32.0248 53.2812 31.7969 53.2812ZM12.0312 53.2812H3.4375C3.17556 53.2847 2.91629 53.2283 2.6795 53.1162C2.44271 53.0042 2.23467 52.8395 2.07127 52.6347C1.90787 52.4299 1.79344 52.1905 1.73672 51.9348C1.68 51.679 1.68249 51.4137 1.74401 51.1591C1.80552 50.9044 1.92443 50.6672 2.09165 50.4656C2.25886 50.2639 2.46996 50.1031 2.70881 49.9955C2.94767 49.888 3.20795 49.8364 3.46978 49.8448C3.73161 49.8532 3.98806 49.9213 4.21953 50.044C4.32294 50.0973 4.43609 50.129 4.55212 50.1373C4.66816 50.1456 4.78467 50.1302 4.89459 50.0921C5.00451 50.054 5.10555 49.994 5.1916 49.9157C5.27764 49.8374 5.34689 49.7425 5.39516 49.6366C5.59824 49.1863 5.92699 48.8042 6.34194 48.5361C6.75688 48.2681 7.24038 48.1255 7.73438 48.1255C8.22837 48.1255 8.71187 48.2681 9.12681 48.5361C9.54176 48.8042 9.87051 49.1863 10.0736 49.6366C10.1219 49.7425 10.1911 49.8374 10.2772 49.9157C10.3632 49.994 10.4642 50.054 10.5742 50.0921C10.6841 50.1302 10.8006 50.1456 10.9166 50.1373C11.0327 50.129 11.1458 50.0973 11.2492 50.044C11.48 49.9246 11.735 49.8593 11.9948 49.8529C12.2545 49.8465 12.5124 49.8993 12.7488 50.0072C12.9852 50.1151 13.194 50.2753 13.3593 50.4758C13.5247 50.6762 13.6423 50.9116 13.7034 51.1642C13.7644 51.4168 13.7672 51.68 13.7116 51.9338C13.6559 52.1877 13.5433 52.4255 13.3823 52.6295C13.2212 52.8334 13.0159 52.998 12.7818 53.1109C12.5478 53.2239 12.2911 53.2821 12.0312 53.2812Z" fill="#FE5600"/>
<path d="M18.0469 42.9688C18.2748 42.9688 18.4934 42.8782 18.6545 42.717C18.8157 42.5559 18.9062 42.3373 18.9062 42.1094V31.7969C18.9062 31.569 18.8157 31.3504 18.6545 31.1892C18.4934 31.028 18.2748 30.9375 18.0469 30.9375H7.73438C7.50645 30.9375 7.28787 31.028 7.12671 31.1892C6.96554 31.3504 6.875 31.569 6.875 31.7969V42.1094C6.875 42.3373 6.96554 42.5559 7.12671 42.717C7.28787 42.8782 7.50645 42.9688 7.73438 42.9688H18.0469ZM13.75 32.6562H17.1875V36.0938H13.75V32.6562ZM13.75 37.8125H17.1875V41.25H13.75V37.8125ZM8.59375 32.6562H12.0312V36.0938H8.59375V32.6562ZM8.59375 37.8125H12.0312V41.25H8.59375V37.8125Z" fill="#FE5600"/>
<path d="M30.9375 44.6875C31.4121 44.6875 31.7969 44.3027 31.7969 43.8281C31.7969 43.3535 31.4121 42.9688 30.9375 42.9688C30.4629 42.9688 30.0781 43.3535 30.0781 43.8281C30.0781 44.3027 30.4629 44.6875 30.9375 44.6875Z" fill="#FE5600"/>
<path d="M53.6624 39.423L54.2563 38.83C54.7321 38.3541 54.9995 37.7086 54.9995 37.0356C54.9995 36.3626 54.7321 35.7172 54.2563 35.2412L53.6624 34.6474C53.5013 34.4863 53.2827 34.3958 53.0549 34.3958C52.827 34.3958 52.6084 34.4863 52.4473 34.6474L51.2605 35.8359C51.1844 35.9121 51.094 35.9724 50.9945 36.0136C50.8951 36.0548 50.7885 36.076 50.6808 36.076C50.5732 36.076 50.4666 36.0548 50.3671 36.0136C50.2677 35.9724 50.1773 35.9121 50.1012 35.8359C50.0251 35.7598 49.9647 35.6694 49.9235 35.57C49.8823 35.4705 49.8611 35.3639 49.8611 35.2563C49.8611 35.1486 49.8823 35.042 49.9235 34.9426C49.9647 34.8431 50.0251 34.7528 50.1012 34.6766L51.288 33.489C51.4491 33.3278 51.5396 33.1093 51.5396 32.8814C51.5396 32.6535 51.4491 32.435 51.288 32.2738L50.6941 31.68C50.2178 31.205 49.5725 30.9382 48.8998 30.9382C48.227 30.9382 47.5818 31.205 47.1054 31.68L46.5124 32.273C45.9364 32.8513 45.5408 33.5846 45.3739 34.3836C45.207 35.1826 45.2759 36.0129 45.5723 36.7735L43.0337 39.313L42.1382 38.4175C42.4416 38.0016 42.7458 37.5882 43.0156 37.1422C43.3238 36.636 43.4533 36.0411 43.3834 35.4526C43.3134 34.8641 43.0481 34.3161 42.6298 33.8963L40.7589 32.0255C40.3391 31.6072 39.7911 31.3418 39.2026 31.2719C38.6142 31.2019 38.0192 31.3314 37.5131 31.6396C37.067 31.9094 36.6537 32.2137 36.2377 32.517L35.4282 31.7075C34.9267 31.2293 34.2602 30.9625 33.5672 30.9625C32.8742 30.9625 32.2078 31.2293 31.7063 31.7075C31.2134 32.2014 30.9367 32.8707 30.9367 33.5685C30.9367 34.2662 31.2134 34.9355 31.7063 35.4294L32.5158 36.239C32.2124 36.6541 31.9082 37.0683 31.6384 37.5143C31.3302 38.0205 31.2007 38.6154 31.2706 39.2039C31.3406 39.7923 31.6059 40.3403 32.0242 40.7601L33.8951 42.631C34.1397 42.8762 34.4302 43.0707 34.75 43.2034C35.0699 43.3361 35.4128 43.4044 35.7591 43.4044C36.2462 43.4039 36.724 43.2705 37.1409 43.0186C37.587 42.7487 38.0003 42.4445 38.4163 42.1412L39.3117 43.0358L36.7723 45.5752C36.0119 45.2784 35.1816 45.2092 34.3826 45.3762C33.5836 45.5431 32.8505 45.9389 32.2726 46.5154L31.6788 47.1084C31.2029 47.5843 30.9355 48.2297 30.9355 48.9027C30.9355 49.5757 31.2029 50.2212 31.6788 50.6971L32.2726 51.2909C32.4337 51.452 32.6523 51.5425 32.8802 51.5425C33.108 51.5425 33.3266 51.452 33.4877 51.2909L34.6763 50.1016C34.7524 50.0254 34.8427 49.9651 34.9422 49.9239C35.0417 49.8827 35.1483 49.8615 35.2559 49.8615C35.3636 49.8615 35.4702 49.8827 35.5696 49.9239C35.6691 49.9651 35.7594 50.0254 35.8356 50.1016C35.9117 50.1777 35.9721 50.268 36.0133 50.3675C36.0544 50.467 36.0757 50.5736 36.0757 50.6812C36.0757 50.7889 36.0544 50.8955 36.0133 50.9949C35.9721 51.0944 35.9117 51.1847 35.8356 51.2609L34.6488 52.4485C34.4877 52.6097 34.3971 52.8282 34.3971 53.0561C34.3971 53.284 34.4877 53.5025 34.6488 53.6637L35.2426 54.2575C35.7188 54.7327 36.3642 54.9996 37.037 54.9996C37.7098 54.9996 38.3551 54.7327 38.8313 54.2575L39.4243 53.6645C40.0004 53.0862 40.3959 52.3529 40.5628 51.5539C40.7297 50.7549 40.6608 49.9246 40.3645 49.164L42.9039 46.6245L50.5085 54.23C51.0062 54.703 51.6691 54.9628 52.3557 54.9538C53.0423 54.9449 53.6981 54.6679 54.1833 54.1821C54.6685 53.6962 54.9446 53.0399 54.9526 52.3533C54.9606 51.6667 54.6999 51.0042 54.2262 50.5072L46.6207 42.9017L49.1602 40.3631C49.9208 40.6609 50.7517 40.7306 51.5513 40.5637C52.3509 40.3967 53.0846 40.0003 53.6624 39.423ZM32.924 32.9235C33.0977 32.7579 33.3285 32.6655 33.5685 32.6655C33.8085 32.6655 34.0393 32.7579 34.2131 32.9235L34.9006 33.611C34.4481 34.0173 34.0178 34.4476 33.6115 34.9001L32.924 34.2126C32.7535 34.0414 32.6578 33.8096 32.6578 33.568C32.6578 33.3265 32.7535 33.0947 32.924 32.9235ZM36.2541 41.5456C36.0768 41.6551 35.8678 41.7019 35.6607 41.6785C35.4537 41.6552 35.2604 41.563 35.112 41.4167L33.2411 39.5459C33.0949 39.3974 33.0027 39.2042 32.9793 38.9971C32.9559 38.79 33.0027 38.5811 33.1122 38.4037C34.4142 36.2322 36.2312 34.4149 38.4025 33.1126C38.5516 33.0224 38.7224 32.9745 38.8966 32.9742C39.0171 32.9739 39.1364 32.9973 39.2477 33.0432C39.359 33.0891 39.4602 33.1564 39.5455 33.2415L41.4163 35.1123C41.5627 35.2609 41.6549 35.4543 41.6783 35.6616C41.7016 35.8688 41.6548 36.0779 41.5452 36.2553C40.2427 38.4264 38.4254 40.2434 36.2541 41.5456ZM38.717 48.3828C38.5823 48.5173 38.496 48.6927 38.4717 48.8815C38.4475 49.0704 38.4866 49.2619 38.583 49.4261C38.8644 49.9009 38.9802 50.4558 38.9123 51.0036C38.8443 51.5514 38.5964 52.0611 38.2074 52.4528L37.6145 53.0458C37.463 53.1967 37.2587 53.2826 37.0449 53.2852C36.8311 53.2877 36.6248 53.2068 36.4698 53.0595L37.049 52.4812C37.2916 52.2472 37.4852 51.9671 37.6184 51.6575C37.7516 51.3478 37.8218 51.0147 37.8249 50.6777C37.828 50.3406 37.7638 50.0063 37.6363 49.6943C37.5087 49.3822 37.3203 49.0987 37.0819 48.8604C36.8436 48.622 36.5602 48.4334 36.2482 48.3058C35.9362 48.1782 35.6019 48.114 35.2648 48.117C34.9277 48.1199 34.5946 48.1901 34.2849 48.3232C33.9752 48.4563 33.6952 48.6498 33.4611 48.8924L32.8819 49.4708C32.7345 49.316 32.6534 49.1098 32.656 48.8961C32.6585 48.6824 32.7445 48.4781 32.8956 48.3269L33.4895 47.734C33.881 47.3451 34.3905 47.0971 34.9381 47.029C35.4857 46.9609 36.0405 47.0765 36.5153 47.3576C36.6794 47.454 36.8709 47.4933 37.0597 47.4692C37.2485 47.4451 37.424 47.359 37.5586 47.2244L40.5286 44.2544L41.687 45.4128L38.717 48.3828ZM53.0127 51.7266C53.1836 51.8976 53.2796 52.1294 53.2796 52.3712C53.2796 52.6129 53.1836 52.8447 53.0127 53.0157C52.839 53.1813 52.6082 53.2737 52.3682 53.2737C52.1282 53.2737 51.8974 53.1813 51.7237 53.0157L39.756 41.0472C40.2083 40.6407 40.6386 40.2104 41.0451 39.7581L53.0127 51.7266ZM48.3824 38.7174L45.4124 41.6866L44.2549 40.529L47.224 37.559C47.3587 37.4245 47.445 37.2491 47.4693 37.0602C47.4935 36.8714 47.4544 36.6799 47.3581 36.5157C47.0766 36.0408 46.9608 35.486 47.0288 34.9382C47.0967 34.3904 47.3446 33.8807 47.7336 33.489L48.3266 32.896C48.4781 32.7453 48.6824 32.6595 48.8961 32.6569C49.1098 32.6544 49.3162 32.7352 49.4713 32.8823L48.892 33.4606C48.6561 33.6961 48.4689 33.9758 48.3412 34.2837C48.2135 34.5916 48.1478 34.9217 48.1478 35.255C48.1478 35.5883 48.2135 35.9184 48.3412 36.2263C48.4689 36.5342 48.6561 36.8139 48.892 37.0494C49.3752 37.511 50.0177 37.7685 50.686 37.7685C51.3542 37.7685 51.9967 37.511 52.4799 37.0494L53.0591 36.471C53.2066 36.6258 53.2876 36.832 53.2851 37.0457C53.2825 37.2594 53.1965 37.4637 53.0454 37.6148L52.4516 38.2078C52.0601 38.5967 51.5505 38.8446 51.0029 38.9128C50.4553 38.9809 49.9006 38.8653 49.4257 38.5842C49.2616 38.4877 49.0701 38.4485 48.8813 38.4726C48.6925 38.4967 48.517 38.5828 48.3824 38.7174Z" fill="#FE5600"/>
<path d="M52.4219 17.1875H50.9876L28.0156 0.171875C27.8669 0.0603091 27.6859 0 27.5 0C27.3141 0 27.1331 0.0603091 26.9844 0.171875L4.01242 17.1875H2.57812C1.89436 17.1875 1.23861 17.4591 0.755115 17.9426C0.271623 18.4261 0 19.0819 0 19.7656L0 21.4844C0 22.1681 0.271623 22.8239 0.755115 23.3074C1.23861 23.7909 1.89436 24.0625 2.57812 24.0625H3.4375V45.5469C3.4375 45.7748 3.52804 45.9934 3.68921 46.1545C3.85037 46.3157 4.06895 46.4062 4.29688 46.4062C4.5248 46.4062 4.74338 46.3157 4.90454 46.1545C5.06571 45.9934 5.15625 45.7748 5.15625 45.5469V24.0625H40.3906C40.6185 24.0625 40.8371 23.972 40.9983 23.8108C41.1595 23.6496 41.25 23.431 41.25 23.2031C41.25 22.9752 41.1595 22.7566 40.9983 22.5955C40.8371 22.4343 40.6185 22.3438 40.3906 22.3438H2.57812C2.3502 22.3438 2.13162 22.2532 1.97046 22.092C1.80929 21.9309 1.71875 21.7123 1.71875 21.4844V19.7656C1.71875 19.5377 1.80929 19.3191 1.97046 19.158C2.13162 18.9968 2.3502 18.9062 2.57812 18.9062H52.4219C52.6498 18.9062 52.8684 18.9968 53.0295 19.158C53.1907 19.3191 53.2812 19.5377 53.2812 19.7656V21.4844C53.2812 21.7123 53.1907 21.9309 53.0295 22.092C52.8684 22.2532 52.6498 22.3438 52.4219 22.3438H43.8281C43.6002 22.3438 43.3816 22.4343 43.2205 22.5955C43.0593 22.7566 42.9688 22.9752 42.9688 23.2031C42.9688 23.431 43.0593 23.6496 43.2205 23.8108C43.3816 23.972 43.6002 24.0625 43.8281 24.0625H49.8438V28.3594C49.8438 28.5873 49.9343 28.8059 50.0955 28.967C50.2566 29.1282 50.4752 29.2188 50.7031 29.2188C50.931 29.2188 51.1496 29.1282 51.3108 28.967C51.472 28.8059 51.5625 28.5873 51.5625 28.3594V24.0625H52.4219C53.1056 24.0625 53.7614 23.7909 54.2449 23.3074C54.7284 22.8239 55 22.1681 55 21.4844V19.7656C55 19.0819 54.7284 18.4261 54.2449 17.9426C53.7614 17.4591 53.1056 17.1875 52.4219 17.1875ZM6.90078 17.1875L27.5 1.9293L48.0992 17.1875H6.90078Z" fill="#FE5600"/>
</svg>
