<svg width="40" height="55" viewBox="0 0 40 55" fill="none" xmlns="http://www.w3.org/2000/svg">
<path d="M19.9184 55C30.9014 55 39.8368 46.0647 39.8368 35.0817C39.8368 25.8992 33.6793 18.3487 25.4988 15.9586C25.5011 15.9219 25.5044 15.8854 25.5044 15.8481V14.6217C25.5044 14.3587 25.4418 14.1108 25.3337 13.889L26.8838 12.0729C27.1725 11.7344 27.1323 11.2259 26.794 10.937C26.4554 10.6481 25.9469 10.6884 25.6582 11.0267L24.0133 12.9536C23.9717 12.9487 23.8844 12.9431 23.8259 12.9431H22.5861L24.1649 6.96033H29.1288L28.0989 8.1669C27.8102 8.50528 27.8504 9.01382 28.1887 9.30268C28.5273 9.59165 29.0359 9.55126 29.3246 9.21288L30.5577 7.76794C31.2995 6.89921 31.4048 5.54225 30.5477 4.64248V4.64237L26.9256 0.840689C26.4166 0.306584 25.7012 0 24.9629 0H14.8738C14.1355 0 13.4202 0.306584 12.9111 0.841011L9.28882 4.6428C8.44051 5.53344 8.52892 6.88976 9.27873 7.76815L14.503 13.8891C14.3947 14.1108 14.3323 14.3588 14.3323 14.6218V15.8483C14.3323 15.8855 14.3355 15.9219 14.3379 15.9587C6.17464 18.3439 0 25.8809 0 35.0818C0.000107423 46.0647 8.9354 55 19.9184 55ZM23.8259 14.5547C23.8566 14.5547 23.893 14.5819 23.893 14.6218V15.8483C23.893 15.8884 23.8568 15.9154 23.8259 15.9154H16.0109C15.9801 15.9154 15.9438 15.8889 15.9438 15.8483V14.6218C15.9438 14.5823 15.9795 14.5547 16.0109 14.5547H23.8259ZM17.3384 6.96044H22.4982L20.9196 12.9432H18.9171L17.3384 6.96044ZM28.9953 5.3491H24.9526L26.4955 2.72552L28.9953 5.3491ZM24.9629 1.61134C25.0631 1.61134 25.1618 1.62638 25.2571 1.65302L23.4959 4.64763L21.4378 1.61134H24.9629ZM22.0247 5.3491H17.812L19.9183 2.24159L22.0247 5.3491ZM14.8738 1.61134H18.399L16.3409 4.64763L14.5797 1.65291C14.6751 1.62638 14.7737 1.61134 14.8738 1.61134ZM13.3412 2.72552L14.8841 5.3491H10.8415L13.3412 2.72552ZM10.708 6.96044H15.672L17.2507 12.9432H16.0109C15.9522 12.9432 15.8651 12.9488 15.8234 12.9538L10.708 6.96044ZM15.2934 17.3651C15.5022 17.4641 15.7627 17.5266 16.0109 17.5266H23.8259C24.0678 17.5266 24.3294 17.4665 24.5434 17.3651C32.6168 19.4621 38.2254 26.6993 38.2254 35.0817C38.2254 45.1762 30.013 53.3887 19.9184 53.3887C9.82389 53.3887 1.61144 45.1762 1.61144 35.0817C1.61144 26.6992 7.22008 19.4619 15.2934 17.3651Z" fill="#FB5100"/>
<path d="M7.62309 2.2452L6.11564 0.737749C5.80089 0.42311 5.29085 0.42311 4.97621 0.737749C4.66157 1.05239 4.66157 1.56253 4.97621 1.87707L6.48367 3.38452C6.79841 3.69916 7.30845 3.69916 7.62309 3.38452C7.93773 3.06999 7.93773 2.55984 7.62309 2.2452Z" fill="#FB5100"/>
<path d="M32.1237 10.2327L33.6311 11.7401C33.9459 12.0547 34.4559 12.0547 34.7705 11.7401C35.0852 11.4255 35.0852 10.9153 34.7705 10.6008L33.2632 9.09334C32.9484 8.7787 32.4384 8.7787 32.1238 9.09334C31.809 9.40798 31.809 9.91812 32.1237 10.2327Z" fill="#FB5100"/>
<path d="M2.69727 6.23901C2.69727 6.68396 3.05788 7.04468 3.50293 7.04468H5.63482C6.07987 7.04468 6.44049 6.68396 6.44049 6.23901C6.44049 5.79407 6.07987 5.43335 5.63482 5.43335H3.50293C3.05788 5.43335 2.69727 5.79407 2.69727 6.23901Z" fill="#FB5100"/>
<path d="M33.3066 6.23901C33.3066 6.68396 33.6673 7.04468 34.1123 7.04468H36.2443C36.6894 7.04468 37.05 6.68396 37.05 6.23901C37.05 5.79407 36.6894 5.43335 36.2443 5.43335H34.1123C33.6673 5.43335 33.3066 5.79407 33.3066 6.23901Z" fill="#FB5100"/>
<path d="M6.48367 9.09334L4.97621 10.6008C4.66157 10.9154 4.66157 11.4256 4.97621 11.7401C5.29096 12.0547 5.801 12.0547 6.11564 11.7401L7.62309 10.2327C7.93773 9.91802 7.93773 9.40787 7.62309 9.09334C7.30845 8.7787 6.79841 8.7787 6.48367 9.09334Z" fill="#FB5100"/>
<path d="M33.6311 0.737749L32.1237 2.2452C31.809 2.55984 31.809 3.06999 32.1237 3.38452C32.4384 3.69916 32.9485 3.69916 33.2631 3.38452L34.7705 1.87707C35.0852 1.56243 35.0852 1.05228 34.7705 0.737749C34.4559 0.42311 33.9459 0.42311 33.6311 0.737749Z" fill="#FB5100"/>
<path d="M19.9171 50.9265C28.1793 50.9265 34.9887 44.5954 35.6997 36.4814C35.7385 36.0382 35.4107 35.6474 34.9674 35.6086C34.5239 35.5695 34.1333 35.8976 34.0945 36.3409C33.4572 43.6163 27.2298 49.3153 19.9171 49.3153C12.0687 49.3153 5.6836 42.9302 5.6836 35.0818C5.6836 27.2334 12.0687 20.8484 19.9171 20.8484C26.9331 20.8484 32.841 25.8666 33.9645 32.7807C34.0359 33.2199 34.4501 33.5184 34.889 33.4468C35.3282 33.3753 35.6263 32.9615 35.555 32.5223C34.3264 24.962 27.7639 19.2371 19.9171 19.2371C11.1802 19.2371 4.07227 26.3451 4.07227 35.0819C4.07227 43.8186 11.1802 50.9265 19.9171 50.9265Z" fill="#FB5100"/>
</svg>
