<svg width="55" height="55" viewBox="0 0 55 55" fill="none" xmlns="http://www.w3.org/2000/svg">
<path d="M15.5547 36.2656L10.9141 35.2344C9.625 34.9766 8.50781 35.9219 8.50781 37.211V39.1875C8.50781 40.7344 9.71094 40.9922 11.1719 41.0781H16.5C17.4453 41.0781 18.2188 40.7344 18.2188 39.7891V39.5313C18.1328 37.8985 17.1016 36.6094 15.5547 36.2656ZM10.1406 39.2735C10.1406 37.8125 10.1406 37.0391 10.1406 37.125C10.1406 36.8672 10.3125 36.6953 10.5703 36.7813L15.2969 37.8125C15.9844 37.9844 16.5 38.586 16.5859 39.2735C16.4141 39.3594 10.2266 39.3594 10.1406 39.2735V39.2735Z" fill="white"/>
<path d="M44.0866 35.2344L39.3601 36.2656C37.8132 36.6094 36.7819 37.8985 36.7819 39.4453C36.7819 39.5313 36.6101 40.6484 37.8132 40.9063C38.4147 41.0781 42.2819 40.9922 43.9147 40.9922C45.3757 40.9922 46.4929 40.6485 46.4929 39.1016V37.125C46.5788 35.9219 45.3757 34.9766 44.0866 35.2344V35.2344ZM44.8601 39.2735C44.6022 39.3594 38.5866 39.3594 38.5007 39.3594C38.5866 38.6719 39.0163 38.0703 39.7038 37.8984L44.4304 36.8672C44.6882 36.7813 44.8601 36.9531 44.8601 37.211V39.2735Z" fill="white"/>
<path d="M33.2578 40.2188H21.7422C21.3125 40.2188 20.8828 40.5625 20.8828 41.0781C20.8828 41.5938 21.2266 41.9375 21.7422 41.9375H33.2578C33.6875 41.9375 34.1172 41.5938 34.1172 41.0781C34.1172 40.5625 33.7734 40.2188 33.2578 40.2188Z" fill="white"/>
<path d="M33.2578 43.7422H21.7422C21.3125 43.7422 20.8828 44.0859 20.8828 44.6016C20.8828 45.1172 21.2266 45.4609 21.7422 45.4609H33.2578C33.6875 45.4609 34.1172 45.1172 34.1172 44.6016C34.1172 44.0859 33.7734 43.7422 33.2578 43.7422Z" fill="white"/>
<path d="M51.5625 25.9531H50.0156C48.5547 25.9531 47.1797 26.6406 46.4062 27.9297L44.8594 24.8359C49.3281 22.7734 52.4219 18.3047 52.4219 13.0625C52.3359 5.84375 46.4922 0 39.3594 0C32.2266 0 26.3828 5.84375 26.3828 12.9766C26.3828 14.5234 26.6406 15.9844 27.1562 17.3594H16.7578C14.7812 17.3594 12.9766 18.5625 12.2891 20.3672L8.67969 27.8438C7.90625 26.6406 6.53125 25.8672 5.07031 25.8672H3.4375C2.14844 25.8672 1.03125 26.9844 1.03125 28.2734V29.3047C1.03125 30.5937 2.0625 31.7109 3.4375 31.7109H5.92969C4.89844 33 4.38281 34.6328 4.38281 36.3516V41.8516C4.38281 43.9141 5.15625 45.9766 6.61719 47.6953V51.8203C6.61719 53.625 8.07812 55 9.79687 55H13.2344C15.0391 55 16.4141 53.5391 16.4141 51.8203V50.1875H38.5V51.8203C38.5 53.625 39.9609 55 41.6797 55H45.1172C46.9219 55 48.2969 53.5391 48.2969 51.8203V47.6953C49.7578 46.0625 50.5312 44.0859 50.5312 41.9375V36.4375C50.5312 35.4063 50.2734 34.2891 49.8437 33.3437C49.5859 32.8281 49.3281 32.3125 48.8984 31.7969H51.5625C52.8516 31.7969 53.9687 30.7656 53.9687 29.3906V28.3594C53.8828 26.9844 52.8516 25.9531 51.5625 25.9531V25.9531ZM39.3594 1.71875C45.6328 1.71875 50.7031 6.78906 50.7031 12.9766C50.7031 19.1641 45.6328 24.2344 39.4453 24.2344C33.2578 24.2344 28.1875 19.1641 28.1875 12.9766C28.1875 6.78906 33.1719 1.71875 39.3594 1.71875ZM13.8359 21.0547C14.2656 19.8516 15.4687 19.0781 16.7578 19.0781H27.9297C30.0781 23.2031 34.375 25.9531 39.3594 25.9531C40.7344 25.9531 42.0234 25.7812 43.2266 25.3516C43.3125 25.4375 45.375 29.8203 45.7188 30.4219H9.19531C9.53906 29.9063 9.02344 31.1094 13.8359 21.0547V21.0547ZM2.75 29.3047V28.2734C2.75 27.8438 3.09375 27.5 3.4375 27.5H4.98438C6.875 27.5 7.5625 29.2187 7.73438 29.4766C7.64844 29.6484 7.47656 29.8203 7.39063 29.9922H3.4375C3.09375 29.9922 2.75 29.7344 2.75 29.3047V29.3047ZM14.7812 51.7344C14.7812 52.5938 14.0937 53.2812 13.2344 53.2812H9.79687C8.9375 53.2812 8.25 52.5938 8.25 51.7344V48.9844C9.36719 49.6719 10.6562 50.0156 11.9453 50.0156H14.7812V51.7344ZM45.2031 53.2812H41.7656C40.9062 53.2812 40.2187 52.5938 40.2187 51.7344V50.1016H43.0547C44.3437 50.1016 45.6328 49.7578 46.75 49.0703V51.8203C46.75 52.5937 46.0625 53.2812 45.2031 53.2812V53.2812ZM48.9844 41.7656C48.9844 45.2031 46.4922 48.3828 43.0547 48.3828C32.4844 48.3828 23.6328 48.3828 11.9453 48.3828C8.50781 48.3828 6.01563 45.1172 6.01563 41.7656V36.2656C6.01563 34.7188 6.61719 33.1719 7.82031 32.0547H47.2656C47.7812 32.5703 48.2109 33.1719 48.5547 33.8594C48.8984 34.6328 49.0703 35.4922 49.0703 36.2656V41.7656H48.9844ZM52.25 29.3047C52.25 29.7344 51.9062 29.9922 51.5625 29.9922H47.6094C47.4375 29.8203 47.3516 29.6484 47.2656 29.4766C47.5234 29.2187 48.125 27.5 50.0156 27.5H51.5625C51.9922 27.5 52.25 27.8437 52.25 28.1875V29.3047Z" fill="white"/>
<path d="M36.7812 16.4141C36.7812 15.9844 36.4375 15.5547 35.9219 15.5547C35.4062 15.5547 35.0625 15.8984 35.0625 16.4141C35.0625 18.4766 36.5234 20.1953 38.5 20.5391V21.6563C38.5 22.0859 38.8437 22.5156 39.3594 22.5156C39.875 22.5156 40.2188 22.1719 40.2188 21.6563V20.5391C42.1953 20.1094 43.6562 18.4766 43.6562 16.4141C43.6562 14.3516 42.1953 12.6328 40.2188 12.2891V7.13281C41.25 7.47656 41.9375 8.42188 41.9375 9.53906C41.9375 9.96875 42.2812 10.3984 42.7969 10.3984C43.3125 10.3984 43.6562 10.0547 43.6562 9.53906C43.6562 7.47656 42.1953 5.75781 40.2188 5.41406V4.29688C40.2188 3.86719 39.875 3.4375 39.3594 3.4375C38.8437 3.4375 38.5 3.78125 38.5 4.29688V5.41406C36.5234 5.84375 35.0625 7.47656 35.0625 9.53906C35.0625 11.6016 36.5234 13.3203 38.5 13.6641V18.7344C37.5547 18.4766 36.7812 17.5313 36.7812 16.4141V16.4141ZM41.9375 16.4141C41.9375 17.5313 41.1641 18.4766 40.2188 18.8203V14.0078C41.25 14.2656 41.9375 15.2969 41.9375 16.4141V16.4141ZM36.7812 9.53906C36.7812 8.42188 37.5547 7.47656 38.5 7.13281V12.0312C37.5547 11.6016 36.7812 10.6563 36.7812 9.53906V9.53906Z" fill="white"/>
</svg>
