<svg width="13" height="24" viewBox="0 0 13 24" fill="none" xmlns="http://www.w3.org/2000/svg">
<path d="M0.28938 0.282425C0.103861 0.467065 0 0.714929 0 0.973033C0 1.23114 0.103861 1.479 0.28938 1.66364L10.6541 12L0.28938 22.3343C0.103861 22.5189 0 22.7668 0 23.0249C0 23.283 0.103861 23.5309 0.28938 23.7155C0.379555 23.8055 0.48737 23.8771 0.606461 23.926C0.725552 23.9748 0.853505 24 0.982769 24C1.11203 24 1.23999 23.9748 1.35908 23.926C1.47817 23.8771 1.58598 23.8055 1.67616 23.7155L12.6981 12.7216C12.8917 12.5286 13 12.2696 13 12C13 11.7304 12.8917 11.4714 12.6981 11.2784L1.67616 0.284493C1.58598 0.194459 1.47817 0.122899 1.35908 0.0740364C1.23999 0.0251741 1.11203 0 0.982769 0C0.853505 0 0.725552 0.0251741 0.606461 0.0740364C0.48737 0.122899 0.379555 0.194459 0.28938 0.284493V0.282425Z" fill="white"/>
</svg>
