<svg width="13" height="24" viewBox="0 0 13 24" fill="none" xmlns="http://www.w3.org/2000/svg">
<path d="M12.7106 0.282425C12.8961 0.467065 13 0.714929 13 0.973033C13 1.23114 12.8961 1.479 12.7106 1.66364L2.34593 12L12.7106 22.3343C12.8961 22.5189 13 22.7668 13 23.0249C13 23.283 12.8961 23.5309 12.7106 23.7155C12.6204 23.8055 12.5126 23.8771 12.3935 23.926C12.2744 23.9748 12.1465 24 12.0172 24C11.888 24 11.76 23.9748 11.6409 23.926C11.5218 23.8771 11.414 23.8055 11.3238 23.7155L0.301925 12.7216C0.108342 12.5286 -9.53674e-07 12.2696 -9.53674e-07 12C-9.53674e-07 11.7304 0.108342 11.4714 0.301925 11.2784L11.3238 0.284493C11.414 0.194459 11.5218 0.122899 11.6409 0.0740364C11.76 0.0251741 11.888 0 12.0172 0C12.1465 0 12.2744 0.0251741 12.3935 0.0740364C12.5126 0.122899 12.6204 0.194459 12.7106 0.284493V0.282425Z" fill="white"/>
</svg>
