<svg width="16" height="16" viewBox="0 0 16 16" fill="none" xmlns="http://www.w3.org/2000/svg">
<path d="M3.33301 7C3.33301 4 5.33301 2 8.33301 2C11.333 2 13.333 4.5 13.333 7C13.333 8.55504 11.8821 10.6904 8.98033 13.4062C8.60994 13.7528 8.03868 13.7672 7.65131 13.4397C4.77244 11.0052 3.33301 8.85867 3.33301 7ZM8.33301 8C9.25348 8 9.99967 7.25381 9.99967 6.33333C9.99967 5.41286 9.25348 4.66667 8.33301 4.66667C7.41253 4.66667 6.66634 5.41286 6.66634 6.33333C6.66634 7.25381 7.41253 8 8.33301 8Z" fill="#D2D4D7"/>
</svg>
