<svg width="279" height="220" viewBox="0 0 279 220" fill="none" xmlns="http://www.w3.org/2000/svg">
<mask id="mask0" mask-type="alpha" maskUnits="userSpaceOnUse" x="0" y="0" width="279" height="220">
<path d="M276.231 76.9222C259.153 6.01955 204.556 -11.3119 161.579 7.07255C118.602 25.457 135.73 67.4888 61.1853 70.3595C-13.3598 73.2303 -37.9049 181.261 95.3175 213.485C228.54 245.709 293.309 147.825 276.231 76.9222Z" fill="white"/>
</mask>
<g mask="url(#mask0)">
<path d="M276.231 76.9222C259.153 6.01955 204.556 -11.3119 161.579 7.07255C118.602 25.457 135.73 67.4888 61.1853 70.3595C-13.3598 73.2303 -37.9049 181.261 95.3175 213.485C228.54 245.709 293.309 147.825 276.231 76.9222Z" fill="#EDFCFF"/>
<path d="M206.648 39.4452C199.788 39.4452 194.227 33.8842 194.227 27.0244C194.227 20.1645 199.788 14.6035 206.648 14.6035C213.508 14.6035 219.069 20.1645 219.069 27.0244C219.069 33.8842 213.508 39.4452 206.648 39.4452Z" fill="#FFE29E"/>
<path fill-rule="evenodd" clip-rule="evenodd" d="M273.839 46.3744C259.687 42.5715 250.486 43.0178 246.236 47.7133C239.86 54.7567 244.993 64.8797 251.424 66.4669C244.749 66.7693 241.11 70.1793 240.508 76.6967C236.349 66.8352 228.966 62.1848 218.359 62.7457C202.448 63.587 197.199 76.509 197.199 83.3522C193.926 75.2853 188.69 72.7058 181.492 75.6138C170.695 79.9757 175.328 92.4396 179.847 95.2495C175.101 96.188 173.297 98.8997 174.433 103.385C166.062 95.5731 156.322 95.3035 145.215 102.576C144.733 96.1029 142.386 93.0826 138.173 93.5149C141.3 89.8883 141.993 86.4355 140.255 83.1564C137.647 78.2377 127.762 74.6451 122.793 83.1564C116.753 80.505 111.754 81.7138 107.796 86.7829C104.432 79.162 98.8462 75.7999 91.0381 76.6967C79.326 78.042 76.7197 90.4523 76.7197 90.4523C72.5743 86.119 67.5394 85.4643 61.6151 88.4881C65.3078 79.4213 64.6982 73.0653 59.7861 69.4201C52.4179 63.9522 25.0545 62.9292 30.7042 81.646C34.4707 94.1238 50.569 109.617 78.9991 128.125L145.215 141.413H286.151L282.677 47.7133L273.839 46.3744Z" fill="white"/>
<path fill-rule="evenodd" clip-rule="evenodd" d="M-12.4425 67.9327C32.6583 63.672 55.7235 72.5511 56.7532 94.57C70.5484 90.2728 82.5385 89.6224 92.7235 92.6188C108.394 97.229 119.777 104.324 122.873 121.683C154.23 109.987 178.5 114.394 195.68 134.904C223.345 102.417 252.305 91.3264 282.56 101.631C312.815 111.935 305.227 132.14 259.798 162.244H-17.8459L-12.4425 67.9327Z" fill="#CFE3E7"/>
<path d="M-12.44 163.458H291.325V247.432H-12.44V163.458Z" fill="#AED9E0"/>
<path fill-rule="evenodd" clip-rule="evenodd" d="M-16.6809 162.36C24.2675 118.686 61.0271 102.79 93.5979 114.673C142.454 132.497 272.206 162.36 282.251 162.36C288.948 162.36 189.304 162.36 -16.6809 162.36Z" fill="#ADD9E1"/>
<path fill-rule="evenodd" clip-rule="evenodd" d="M344.636 162.36C303.688 118.686 266.928 102.79 234.357 114.673C185.501 132.497 55.7492 162.36 45.7038 162.36C39.0068 162.36 138.651 162.36 344.636 162.36Z" fill="#D7F2F7"/>
<path fill-rule="evenodd" clip-rule="evenodd" d="M222.436 201.71L51.8778 163.458H-0.724487C34.1701 222.161 78.7256 247.081 132.942 238.219C187.158 229.356 216.99 217.187 222.436 201.71Z" fill="#F4DDAA"/>
<path fill-rule="evenodd" clip-rule="evenodd" d="M242.412 87.2901C247.12 100.329 252.131 96.6571 252.131 106.041C252.131 115.424 255.542 113.669 255.542 119.875C255.542 126.08 251.437 129.431 249.381 134.062C247.325 138.693 245.474 148.02 241.485 146.006C237.495 143.993 227.506 131.869 233.311 121.908C239.115 111.948 237.813 108.628 234.325 100.695C230.836 92.7615 237.705 74.2507 242.412 87.2901Z" fill="#ABD6C8"/>
<path d="M241.142 98.8638C244.342 106.695 245.142 115.145 243.542 124.212C241.942 133.28 241.942 145.881 243.542 162.018" stroke="#32353F" stroke-width="0.9"/>
<path d="M243.118 127.075L249.017 121.646" stroke="#32353F" stroke-width="0.9"/>
<path d="M244.342 113.461L240.607 110.103" stroke="#32353F" stroke-width="0.9"/>
<path d="M242.391 137.398L237.777 132.668" stroke="#32353F" stroke-width="0.9"/>
<path fill-rule="evenodd" clip-rule="evenodd" d="M216.302 115.469C219.211 115.673 223.361 119.353 223.361 125.49C223.361 131.627 225.754 134.522 226.046 136.543C226.338 138.565 225.543 140.405 222.684 143.326C219.825 146.248 221.108 150.22 218.452 151.031C217.495 151.324 215.895 149.679 215.895 146.774C215.895 143.87 209.283 137.151 211.21 134.075C212.194 132.502 214.443 130.955 214.924 129.265C215.588 126.935 212.976 123.421 212.545 119.353C212.112 115.261 214.759 115.361 216.302 115.469Z" fill="#EDFCFF"/>
<path d="M217.485 119.353C219.476 124.225 219.974 129.483 218.979 135.125C217.983 140.767 217.983 148.608 218.979 158.648" stroke="#32353F" stroke-width="0.8"/>
<path d="M218.729 136.905L222.4 133.527" stroke="#32353F" stroke-width="0.8"/>
<path d="M219.476 128.427L217.152 126.337" stroke="#32353F" stroke-width="0.8"/>
<path d="M218.283 143.325L215.412 140.383" stroke="#32353F" stroke-width="0.8"/>
<path fill-rule="evenodd" clip-rule="evenodd" d="M48.55 88.3828C53.2574 101.422 58.2692 97.7499 58.2692 107.133C58.2692 116.517 61.6794 114.762 61.6794 120.967C61.6794 127.173 57.5744 130.524 55.5185 135.155C53.4627 139.786 51.612 149.112 47.6222 147.099C43.6325 145.086 33.6438 132.962 39.4482 123.001C45.2526 113.041 43.9511 109.72 40.4625 101.787C36.9739 93.8543 43.8426 75.3435 48.55 88.3828Z" fill="#EDFCFF"/>
<path d="M47.2802 99.9614C50.48 107.793 51.2799 116.242 49.68 125.31C48.0801 134.377 48.0801 146.979 49.68 163.115" stroke="#32353F" stroke-width="0.9"/>
<path d="M49.2558 128.171L55.155 122.742" stroke="#32353F" stroke-width="0.9"/>
<path d="M50.48 114.551L46.7448 111.192" stroke="#32353F" stroke-width="0.9"/>
<path d="M48.5298 138.485L43.9165 133.756" stroke="#32353F" stroke-width="0.9"/>
<path fill-rule="evenodd" clip-rule="evenodd" d="M22.434 120.214C25.3436 120.418 29.4931 124.098 29.4931 130.235C29.4931 136.373 31.8864 139.267 32.1785 141.289C32.4705 143.311 31.6749 145.15 28.8159 148.072C25.9569 150.994 27.2404 154.966 24.5843 155.777C23.627 156.069 22.0269 154.424 22.0269 151.52C22.0269 148.616 15.4158 141.897 17.342 138.82C18.3265 137.248 20.5757 135.701 21.0567 134.011C21.7198 131.68 19.1087 128.167 18.6777 124.098C18.2442 120.007 20.8912 120.106 22.434 120.214Z" fill="#EDFCFF"/>
<path d="M23.6179 124.094C25.6089 128.967 26.1066 134.224 25.1111 139.867C24.1156 145.509 24.1156 153.35 25.1111 163.39" stroke="#32353F" stroke-width="0.8"/>
<path d="M24.8482 141.653L28.5188 138.274" stroke="#32353F" stroke-width="0.8"/>
<path d="M25.6089 133.176L23.2848 131.086" stroke="#32353F" stroke-width="0.8"/>
<path d="M24.4087 148.071L21.5382 145.128" stroke="#32353F" stroke-width="0.8"/>
<path opacity="0.365746" fill-rule="evenodd" clip-rule="evenodd" d="M259.836 163.456H52.633C172.426 185.213 241.494 189.901 259.836 177.52C278.179 165.14 278.179 160.451 259.836 163.456Z" fill="#9FCDD6"/>
<path fill-rule="evenodd" clip-rule="evenodd" d="M3.4231 148.188C7.29966 146.883 9.92488 147.563 11.2987 150.227C12.1149 153.502 13.3105 155.062 14.8856 154.909C18.0145 153.63 20.4104 154.092 22.0733 156.293C21.8091 152.149 23.3539 149.829 26.7079 149.335C31.7388 148.593 33.2033 152.347 33.2033 155.729C33.1048 152.58 34.3457 151.043 36.9259 151.119C36.2481 147.58 37.16 145.708 39.6618 145.503C43.4144 145.196 44.0131 146.935 44.0131 151.626C47.2266 151.438 49.0982 152.867 49.6278 155.913C52.4324 154.611 55.2866 155.425 58.1905 158.356C61.1359 156.324 64.0319 156.417 66.8786 158.636C71.618 157.851 75.5079 159.077 78.5483 162.314L8.28464 162.449L3.4231 148.751" fill="#7EC4D2"/>
<path fill-rule="evenodd" clip-rule="evenodd" d="M268.406 148.188C264.529 146.883 261.904 147.563 260.53 150.227C259.714 153.502 258.518 155.062 256.943 154.909C253.814 153.63 251.418 154.092 249.755 156.293C250.02 152.149 248.475 149.829 245.121 149.335C240.09 148.593 238.625 152.347 238.625 155.729C238.724 152.58 237.483 151.043 234.903 151.119C235.581 147.58 234.669 145.708 232.167 145.503C228.414 145.196 227.815 146.935 227.815 151.626C224.602 151.438 222.73 152.867 222.201 155.913C219.396 154.611 216.542 155.425 213.638 158.356C210.693 156.324 207.797 156.417 204.95 158.636C200.211 157.851 196.321 159.077 193.28 162.314L263.544 162.449L268.406 148.751" fill="#7EC4D2"/>
</g>
<path fill-rule="evenodd" clip-rule="evenodd" d="M147.354 173.879C142.758 173.879 139.032 177.683 139.032 182.378C139.032 187.069 142.758 190.877 147.354 190.877C151.949 190.877 155.675 187.069 155.675 182.378C155.675 177.683 151.949 173.879 147.354 173.879Z" fill="#5F6260"/>
<path fill-rule="evenodd" clip-rule="evenodd" d="M165.464 159.231C162.894 157.732 142.049 152.985 142.049 152.985C142.049 152.985 121.653 135.155 104.52 134.155C88.0329 133.192 66.9775 134.504 59.634 135.833L59.7687 135.714L50.3985 136.951C50.3985 136.951 49.7519 137.776 49.9942 138.601C50.2369 139.426 51.6909 140.663 50.075 144.129L50.2152 144.006C48.1294 147.453 46.4859 151.204 45.2898 153.568C44.7873 154.559 38.4364 159.647 35.9891 173.147C34.2851 182.546 41.4962 187.602 41.4962 187.602L174.071 187.642L176.355 178.227C176.355 178.227 172.562 166.353 171.827 165.231C171.093 164.105 168.034 160.73 165.464 159.231Z" fill="#FAFAFA"/>
<path fill-rule="evenodd" clip-rule="evenodd" d="M36.8928 181.805C38.5891 185.588 41.4104 187.567 41.4104 187.567L173.985 187.607L175.366 181.916H37.8311C37.4936 181.916 37.1825 181.876 36.8928 181.805Z" fill="#644E77"/>
<path fill-rule="evenodd" clip-rule="evenodd" d="M166.598 181.179C166.598 182.801 167.886 184.114 169.474 184.114H174.797L176.266 178.241H169.474C167.886 178.241 166.598 179.557 166.598 181.179Z" fill="#FB7333"/>
<path fill-rule="evenodd" clip-rule="evenodd" d="M170.897 163.949C168.374 161.09 165.524 160.396 165.524 160.396C161.364 161.146 168.706 167.392 170.175 167.768C171.643 168.141 172.531 167.344 172.531 167.344L172.225 166.368C171.946 165.48 171.509 164.639 170.897 163.949Z" fill="#FB7333"/>
<path fill-rule="evenodd" clip-rule="evenodd" d="M54.4914 170.312C48.2065 170.312 43.1045 175.52 43.1045 181.94C43.1045 188.369 48.2065 193.576 54.4914 193.576C60.786 193.576 65.8845 188.369 65.8845 181.94C65.8845 175.52 60.786 170.312 54.4914 170.312Z" fill="#3F2355"/>
<path fill-rule="evenodd" clip-rule="evenodd" d="M54.445 173.879C49.8987 173.879 46.2075 177.647 46.2075 182.291C46.2075 186.939 49.8987 190.706 54.445 190.706C58.9987 190.706 62.6871 186.939 62.6871 182.291C62.6871 177.647 58.9987 173.879 54.445 173.879Z" fill="#897999"/>
<path fill-rule="evenodd" clip-rule="evenodd" d="M62.3642 180.953L57.0544 181.85C57.0894 182.016 57.1115 182.183 57.1115 182.357C57.1115 182.48 57.0894 182.611 57.073 182.73L62.3327 183.626C62.1187 184.868 61.6349 186.014 60.9429 186.997L56.661 183.876C56.4964 184.126 56.2839 184.34 56.049 184.527L59.1006 188.893C58.1367 189.607 57.0171 190.11 55.8004 190.34L54.936 185.046C54.7682 185.086 54.5966 185.102 54.416 185.102C54.2832 185.102 54.1593 185.086 54.0354 185.066L53.164 190.384C51.9202 190.198 50.7641 189.73 49.7687 189.032L52.8689 184.594C52.6215 184.42 52.3994 184.193 52.2219 183.936L47.8414 187.132C47.1071 186.129 46.589 184.955 46.3607 183.674L51.7652 182.754C51.7528 182.619 51.7303 182.492 51.7303 182.357C51.7303 182.179 51.7528 181.996 51.7842 181.83L46.3292 180.906C46.528 179.605 47.0212 178.403 47.7428 177.372L52.298 180.688C52.4724 180.45 52.6848 180.236 52.9291 180.073L49.6752 175.413C50.6837 174.684 51.8596 174.192 53.131 173.998L54.0549 179.649C54.1752 179.629 54.2956 179.609 54.416 179.609C54.5873 179.609 54.7492 179.629 54.9139 179.665L55.8338 174.041C57.0777 174.279 58.2186 174.807 59.1945 175.552L55.9954 180.136C56.2202 180.307 56.4265 180.513 56.5915 180.751L61.0415 177.507C61.7207 178.518 62.1789 179.688 62.3642 180.953ZM54.3399 173.089C49.4313 173.089 45.436 177.17 45.436 182.183C45.436 187.207 49.4313 191.288 54.3399 191.288C59.2551 191.288 63.2535 187.207 63.2535 182.183C63.2535 177.17 59.2551 173.089 54.3399 173.089Z" fill="#AFA5BB"/>
<path fill-rule="evenodd" clip-rule="evenodd" d="M54.531 178.634C52.7241 178.634 51.2593 180.129 51.2593 181.977C51.2593 183.821 52.7241 185.316 54.531 185.316C56.338 185.316 57.8028 183.821 57.8028 181.977C57.8028 180.129 56.338 178.634 54.531 178.634Z" fill="#D4D0DD"/>
<path fill-rule="evenodd" clip-rule="evenodd" d="M49.289 152.861C46.9197 152.762 46.2075 156.53 46.2075 156.53L144.855 160.242L150.232 158.913C149.138 157.588 140.074 156.732 140.074 156.732L49.289 152.861Z" fill="white"/>
<path fill-rule="evenodd" clip-rule="evenodd" d="M131.603 163.039C131.584 163.757 131.572 164.534 131.559 165.347C131.461 171.45 131.312 180.671 128.216 182.098C127.221 182.554 116.2 182.578 78.6656 181.848C77.548 181.848 76.6591 180.889 76.7232 179.751L78.2548 152.502L129.558 155.048C130.004 155.512 131.738 157.681 131.603 163.039ZM130.056 154.167L129.932 154.072L77.3837 151.272L77.2894 152.391L75.7333 180.004C75.6506 181.48 76.7748 182.725 78.2179 182.764C89.1885 183.05 103.368 183.8 109.997 183.8C121.216 183.8 127.457 183.534 128.616 182.998C132.271 181.313 132.414 172.469 132.528 165.363C132.542 164.554 132.554 163.78 132.572 163.067C132.739 156.396 130.165 154.259 130.056 154.167Z" fill="#644E77"/>
<path fill-rule="evenodd" clip-rule="evenodd" d="M147.502 170.508C141.217 170.508 136.115 175.715 136.115 182.135C136.115 188.564 141.217 193.771 147.502 193.771C153.796 193.771 158.895 188.564 158.895 182.135C158.895 175.715 153.796 170.508 147.502 170.508Z" fill="#3F2355"/>
<path fill-rule="evenodd" clip-rule="evenodd" d="M147.352 173.089C142.538 173.089 138.63 177.079 138.63 181.996C138.63 186.918 142.538 190.907 147.352 190.907C152.173 190.907 156.079 186.918 156.079 181.996C156.079 177.079 152.173 173.089 147.352 173.089Z" fill="#897999"/>
<path fill-rule="evenodd" clip-rule="evenodd" d="M155.558 180.953L150.248 181.85C150.283 182.016 150.306 182.183 150.306 182.357C150.306 182.48 150.283 182.611 150.267 182.73L155.527 183.626C155.312 184.868 154.829 186.014 154.137 186.997L149.855 183.876C149.69 184.126 149.478 184.34 149.243 184.527L152.295 188.893C151.331 189.607 150.211 190.11 148.995 190.34L148.13 185.046C147.962 185.086 147.791 185.102 147.61 185.102C147.477 185.102 147.353 185.086 147.23 185.066L146.358 190.384C145.114 190.198 143.958 189.73 142.963 189.032L146.063 184.594C145.816 184.42 145.593 184.193 145.416 183.936L141.036 187.132C140.301 186.129 139.783 184.955 139.554 183.674L144.959 182.754C144.947 182.619 144.924 182.492 144.924 182.357C144.924 182.179 144.947 181.996 144.978 181.83L139.523 180.906C139.722 179.605 140.215 178.403 140.937 177.372L145.492 180.688C145.666 180.45 145.879 180.236 146.123 180.073L142.869 175.413C143.877 174.684 145.053 174.192 146.325 173.998L147.249 179.649C147.369 179.629 147.49 179.609 147.61 179.609C147.781 179.609 147.943 179.629 148.108 179.665L149.028 174.041C150.271 174.279 151.413 174.807 152.389 175.552L149.189 180.136C149.414 180.307 149.621 180.513 149.786 180.751L154.236 177.507C154.915 178.518 155.373 179.688 155.558 180.953ZM147.534 173.089C142.625 173.089 138.63 177.17 138.63 182.183C138.63 187.207 142.625 191.288 147.534 191.288C152.449 191.288 156.448 187.207 156.448 182.183C156.448 177.17 152.449 173.089 147.534 173.089Z" fill="#AFA5BB"/>
<path fill-rule="evenodd" clip-rule="evenodd" d="M147.342 178.634C145.535 178.634 144.07 180.129 144.07 181.977C144.07 183.821 145.535 185.316 147.342 185.316C149.149 185.316 150.613 183.821 150.613 181.977C150.613 180.129 149.149 178.634 147.342 178.634Z" fill="#D4D0DD"/>
<path fill-rule="evenodd" clip-rule="evenodd" d="M42.151 159.999H40.2618L39.2925 161.792L38.4443 163.802L42.1852 163.731C42.8652 163.719 43.4819 163.322 43.786 162.7C44.3937 161.458 43.5098 159.999 42.151 159.999Z" fill="#FB7333"/>
<path fill-rule="evenodd" clip-rule="evenodd" d="M40.5991 164.758L38.1852 164.802L37.4986 166.575L36.8928 168.565L40.6333 168.494C41.3137 168.478 41.93 168.082 42.2344 167.459C42.8422 166.218 41.9583 164.758 40.5991 164.758Z" fill="#ED6C0D"/>
<path fill-rule="evenodd" clip-rule="evenodd" d="M90.298 158.05C90.2847 158.383 90.0203 158.641 89.6968 158.641V158.938L89.6719 158.641L82.3203 158.331C82.1603 158.324 82.0119 158.256 81.9028 158.133C81.7941 158.014 81.7382 157.856 81.7448 157.693L81.7797 156.817C81.7929 156.487 82.0562 156.23 82.4038 156.23H82.4045L89.7574 156.535C89.9174 156.543 90.0661 156.614 90.1737 156.733C90.2828 156.856 90.3395 157.011 90.3329 157.173L90.298 158.05ZM89.7811 155.944L82.3801 155.635C81.7428 155.635 81.224 156.142 81.1987 156.793L81.1634 157.669C81.1502 157.99 81.2613 158.3 81.4749 158.538C81.5494 158.617 81.6434 158.673 81.7343 158.728L81.5836 158.72C85.5986 161.044 90.1333 159.156 90.1333 159.156H90.0933C90.5348 158.994 90.8583 158.581 90.8793 158.078L90.9142 157.197C90.9263 156.876 90.8156 156.567 90.6016 156.333C90.3877 156.095 90.0964 155.956 89.7811 155.944Z" fill="#897999"/>
<path fill-rule="evenodd" clip-rule="evenodd" d="M63.1853 138.086C63.1853 138.086 59.3916 138.209 54.3743 150.209L136.672 153.457C136.672 153.457 119.601 139.835 112.87 138.209C106.14 136.587 90.4755 134.711 63.1853 138.086Z" fill="#E3F0F5"/>
<path fill-rule="evenodd" clip-rule="evenodd" d="M62.9092 138.578C62.9336 138.567 62.958 138.556 62.9824 138.556C62.958 138.556 62.934 138.567 62.9092 138.578ZM62.9909 138.545C63.4094 138.426 63.8254 138.306 64.2391 138.187C63.8254 138.306 63.4094 138.426 62.9909 138.545Z" fill="#DAE8E6"/>
<path fill-rule="evenodd" clip-rule="evenodd" d="M54.8121 149.841C59.4302 139.11 62.8837 138.689 62.9486 138.685C73.0303 137.436 82.3777 136.806 90.7297 136.806C102.451 136.806 109.377 138.055 112.462 138.8C117.981 140.133 130.845 149.885 134.859 152.998L54.8121 149.841ZM112.688 137.829C109.561 137.071 102.551 135.806 90.7297 135.806C82.3384 135.806 72.9519 136.441 62.874 137.69C62.4539 137.702 58.6244 138.17 53.628 150.115C53.5651 150.265 53.5791 150.44 53.6653 150.579C53.7511 150.717 53.8987 150.805 54.0595 150.813L136.358 154.061H136.377C136.581 154.061 136.766 153.93 136.837 153.731C136.91 153.529 136.845 153.299 136.678 153.164C135.978 152.605 119.445 139.459 112.688 137.829Z" fill="#644E77"/>
<path fill-rule="evenodd" clip-rule="evenodd" d="M127.76 153.204L135.837 153.33L128.372 147.707L127.76 153.204Z" fill="#3F2355"/>
<path fill-rule="evenodd" clip-rule="evenodd" d="M126.161 153.176L126.937 149.675C126.937 149.675 126.039 148.175 123.918 147.842C121.796 147.509 119.512 147.676 119.267 149.675C119.023 151.677 119.757 153.343 120.818 153.343C121.878 153.343 122.286 153.676 122.286 153.676L124.081 157.34C124.081 157.34 128.895 159.422 128.486 156.674L126.161 153.176Z" fill="#3F2355"/>
<path fill-rule="evenodd" clip-rule="evenodd" d="M79.5993 136.58L77.2739 151.075L84.5351 151.535L84.2493 136.203L79.5993 136.58Z" fill="#644E77"/>
<path fill-rule="evenodd" clip-rule="evenodd" d="M172.46 138.143L172.422 138.08L172.46 138.143L174.437 137.394L175.012 137.977L174.437 137.394L172.46 138.143Z" fill="#82939C"/>
</svg>
