<svg width="18" height="24" viewBox="0 0 18 24" fill="none" xmlns="http://www.w3.org/2000/svg">
<path fill-rule="evenodd" clip-rule="evenodd" d="M9.567 22.8169C11.5055 21.2796 17.75 15.8358 17.75 9.5C17.75 4.66751 13.8325 0.75 9 0.75C4.16751 0.75 0.25 4.66751 0.25 9.5C0.25 15.8358 6.49446 21.2796 8.433 22.8169C8.76779 23.0824 9.23221 23.0824 9.567 22.8169ZM9 13.25C11.0711 13.25 12.75 11.5711 12.75 9.5C12.75 7.42893 11.0711 5.75 9 5.75C6.92893 5.75 5.25 7.42893 5.25 9.5C5.25 11.5711 6.92893 13.25 9 13.25Z" fill="#3F2355"/>
</svg>
