<svg width="19" height="15" viewBox="0 0 19 15" fill="none" xmlns="http://www.w3.org/2000/svg">
<path d="M7.06972 14.3044C6.91419 14.3039 6.76043 14.2714 6.61799 14.209C6.47554 14.1465 6.34746 14.0555 6.24171 13.9414L0.729208 8.07733C0.523143 7.85772 0.412755 7.56526 0.422327 7.26427C0.4319 6.96328 0.560648 6.67841 0.78025 6.47235C0.999851 6.26628 1.29232 6.1559 1.59331 6.16547C1.8943 6.17504 2.17916 6.30379 2.38523 6.52339L7.05837 11.5028L16.5975 1.0676C16.6943 0.947058 16.8147 0.847574 16.9514 0.775264C17.088 0.702953 17.238 0.659343 17.3921 0.647111C17.5463 0.634878 17.7013 0.654283 17.8476 0.704132C17.9939 0.753981 18.1286 0.833222 18.2432 0.936989C18.3578 1.04076 18.45 1.16686 18.5141 1.30755C18.5782 1.44824 18.6128 1.60055 18.6159 1.75512C18.619 1.9097 18.5905 2.06327 18.532 2.20641C18.4736 2.34955 18.3866 2.47924 18.2762 2.58751L7.90907 13.9301C7.80431 14.0462 7.67668 14.1394 7.53418 14.2038C7.39169 14.2682 7.23742 14.3025 7.08106 14.3044H7.06972Z" fill="white"/>
</svg>
