<svg width="160" height="44" viewBox="0 0 160 44" fill="none" xmlns="http://www.w3.org/2000/svg">
<path d="M45.3334 28.1749H42.085V14.9263H50.5698V17.7462H45.3334V20.2743H49.4789V23.0456H45.3334V28.1749Z" fill="#3F2355"/>
<path d="M51.8545 16.2395C51.8545 15.7533 52.0484 15.34 52.4121 14.9997C52.7757 14.6594 53.2121 14.4892 53.6969 14.4892C54.206 14.4892 54.6424 14.6594 54.9818 14.9997C55.3212 15.34 55.5151 15.7533 55.5151 16.2395C55.5151 16.7257 55.3454 17.1389 54.9818 17.4793C54.6424 17.8196 54.206 17.9897 53.6969 17.9897C53.1878 17.9897 52.7757 17.8196 52.4121 17.4793C52.0484 17.1389 51.8545 16.7257 51.8545 16.2395ZM52.1939 19.2295V28.1754H55.2484V19.2295H52.1939Z" fill="#3F2355"/>
<path d="M60.5819 23.4589V28.1749H57.5273V19.229H60.5819V20.639C60.7273 20.1285 61.0667 19.7152 61.5758 19.4478C62.1092 19.1561 62.6183 19.0103 63.0789 19.0103C64.2425 19.0103 65.1395 19.3992 65.7455 20.1528C66.3516 20.9064 66.6425 22.0003 66.6425 23.4346V28.1992H63.5879V23.5075C63.5879 22.9727 63.4425 22.5837 63.1516 22.3163C62.8607 22.0732 62.5213 21.9517 62.1334 21.9517C61.7213 21.9517 61.3576 22.0732 61.0425 22.3163C60.7273 22.5594 60.5819 22.9484 60.5819 23.4589Z" fill="#3F2355"/>
<path d="M75.2241 20.1776V19.2052H78.2786V28.1511H75.2241V27.1301C74.6665 27.9323 73.8422 28.3213 72.7513 28.3213C71.5877 28.3213 70.5695 27.8837 69.6968 27.0329C68.8241 26.182 68.3877 25.0395 68.3877 23.6539C68.3877 22.2682 68.8241 21.1257 69.6968 20.2748C70.5695 19.3997 71.5877 18.9865 72.7513 18.9865C73.2119 18.9865 73.6968 19.0837 74.1332 19.3025C74.5938 19.4969 74.9574 19.7887 75.2241 20.1776ZM72.0483 22.3898C71.6847 22.7544 71.4907 23.192 71.4907 23.7025C71.4907 24.213 71.6847 24.6505 72.0483 25.0152C72.4119 25.3798 72.8483 25.5743 73.3574 25.5743C73.8665 25.5743 74.3029 25.3798 74.6665 25.0152C75.0301 24.6505 75.2241 24.213 75.2241 23.7025C75.2241 23.192 75.0301 22.7544 74.6665 22.3898C74.3029 22.0251 73.8665 21.8306 73.3574 21.8306C72.8483 21.8306 72.4119 22.0251 72.0483 22.3898Z" fill="#3F2355"/>
<path d="M83.6122 23.4589V28.1749H80.5576V19.229H83.6122V20.639C83.7576 20.1285 84.097 19.7152 84.6061 19.4478C85.1152 19.1804 85.6485 19.0103 86.1091 19.0103C87.2728 19.0103 88.1698 19.3992 88.7758 20.1528C89.3819 20.9064 89.6728 22.0003 89.6728 23.4346V28.1992H86.6182V23.5075C86.6182 22.9727 86.4728 22.5837 86.1819 22.3163C85.891 22.0732 85.5516 21.9517 85.1637 21.9517C84.7516 21.9517 84.3879 22.0732 84.0728 22.3163C83.7576 22.5594 83.6122 22.9484 83.6122 23.4589Z" fill="#3F2355"/>
<path d="M97.7937 24.7235L100.339 26.1334C99.3453 27.6163 98.0362 28.3456 96.3877 28.3456C95.0059 28.3456 93.8422 27.908 92.8725 27.0572C91.9028 26.182 91.418 25.0638 91.418 23.6782C91.418 22.2925 91.9028 21.1743 92.8725 20.2992C93.8422 19.424 95.0059 18.9865 96.3877 18.9865C98.0119 18.9865 99.321 19.7157 100.315 21.1986L97.818 22.7058C97.4543 22.1224 96.9453 21.8307 96.2422 21.8307C95.7331 21.8307 95.2968 22.0251 94.9331 22.3898C94.5695 22.7544 94.3755 23.192 94.3755 23.7025C94.3755 24.213 94.5695 24.6505 94.9331 25.0152C95.2968 25.3798 95.7331 25.5743 96.2422 25.5743C96.8968 25.5257 97.4059 25.2583 97.7937 24.7235Z" fill="#3F2355"/>
<path d="M110.763 23.5566C110.763 23.7025 110.739 24.0428 110.715 24.529H104.315C104.363 24.9422 104.582 25.2583 104.994 25.5257C105.406 25.7688 105.842 25.8903 106.351 25.8903C107.054 25.8903 107.636 25.6472 108.048 25.1367C108.194 25.2583 108.557 25.5257 109.139 25.9146C109.721 26.3279 110.06 26.571 110.157 26.6439C109.309 27.7621 107.976 28.3213 106.109 28.3213C104.8 28.3213 103.685 27.8837 102.739 27.0085C101.818 26.1334 101.357 24.9909 101.357 23.6295C101.357 22.2682 101.818 21.15 102.739 20.2748C103.66 19.3997 104.776 18.9865 106.109 18.9865C107.418 18.9865 108.533 19.3997 109.406 20.2505C110.303 21.0771 110.763 22.1953 110.763 23.5566ZM104.291 22.8273H107.854C107.733 22.3168 107.491 21.9765 107.127 21.782C106.763 21.5876 106.424 21.4903 106.085 21.4903C105.891 21.4903 105.673 21.5146 105.454 21.5632C105.236 21.6119 105.018 21.7577 104.776 21.9765C104.533 22.1953 104.363 22.487 104.291 22.8273Z" fill="#3F2355"/>
<path d="M111.709 14.9263H121.503V16.6279H117.503V28.1749H115.709V16.6279H111.709V14.9263Z" fill="#FE5600"/>
<path d="M125.261 23.3373V28.1749H123.516V14.3185H125.261V20.5417C125.504 20.0312 125.916 19.6666 126.497 19.3992C127.079 19.1318 127.661 19.0103 128.219 19.0103C129.334 19.0103 130.231 19.3506 130.885 20.0556C131.54 20.7605 131.855 21.7329 131.855 22.9727V28.1506H130.11V23.0942C130.11 22.3649 129.916 21.7815 129.528 21.3683C129.14 20.9307 128.631 20.7362 128 20.7362C127.273 20.7362 126.643 20.955 126.11 21.3683C125.552 21.7815 125.261 22.4379 125.261 23.3373Z" fill="#FE5600"/>
<path d="M141.77 28.1749V26.7893C141.479 27.2998 141.042 27.6644 140.461 27.9561C139.879 28.2478 139.273 28.3694 138.618 28.3694C137.358 28.3694 136.291 27.9318 135.394 27.0567C134.521 26.1815 134.061 25.0633 134.061 23.6777C134.061 22.292 134.497 21.1495 135.394 20.2987C136.267 19.4478 137.358 19.0103 138.618 19.0103C139.273 19.0103 139.879 19.1561 140.461 19.4235C141.042 19.6909 141.479 20.0799 141.745 20.5661V19.2047H143.467V28.1749H141.77ZM141.745 23.6534C141.745 22.7539 141.454 22.0246 140.848 21.5141C140.242 20.9793 139.564 20.7362 138.788 20.7362C137.964 20.7362 137.261 21.0036 136.703 21.5627C136.145 22.0975 135.879 22.8025 135.879 23.6777C135.879 24.5528 136.17 25.2578 136.727 25.8169C137.285 26.376 137.988 26.6677 138.788 26.6677C139.612 26.6677 140.315 26.4003 140.897 25.8655C141.454 25.3064 141.745 24.5771 141.745 23.6534Z" fill="#FE5600"/>
<path d="M148.727 19.2049H150.618V20.6878H148.727V28.1751H146.982V20.6878H145.382V19.2049H146.982V15.8259H148.727V19.2049Z" fill="#FE5600"/>
<path d="M20.3874 41.059C30.6164 41.059 38.9086 32.7439 38.9086 22.4866C38.9086 12.2294 30.6164 3.91425 20.3874 3.91425C10.1584 3.91425 1.86621 12.2294 1.86621 22.4866C1.86621 32.7439 10.1584 41.059 20.3874 41.059Z" fill="url(#paint0_linear)"/>
<path d="M11.1514 23.1911L29.6241 13.832L25.018 29.4873L11.1514 23.1911L29.6241 13.832L11.1514 23.1911Z" fill="white"/>
<path d="M18.4972 26.4976L19.8305 27.1297L17.9639 29.828L18.4972 26.4976Z" fill="#A97C57"/>
<path d="M16.2178 25.4768L29.5026 13.9542L18.4966 26.4978L17.9632 29.8282L16.2178 25.4768Z" fill="#E9DDD4"/>
<defs>
<linearGradient id="paint0_linear" x1="8.35273" y1="33.263" x2="36.0426" y2="8.59529" gradientUnits="userSpaceOnUse">
<stop stop-color="#E32738"/>
<stop offset="0.0549275" stop-color="#E72D30"/>
<stop offset="0.23" stop-color="#F03E1B"/>
<stop offset="0.425" stop-color="#F6490C"/>
<stop offset="0.654" stop-color="#FA5003"/>
<stop offset="1" stop-color="#FB5200"/>
</linearGradient>
</defs>
</svg>
