<svg width="26" height="26" viewBox="0 0 26 26" fill="none" xmlns="http://www.w3.org/2000/svg">
<path d="M13 6C12.1347 6 11.2888 6.25659 10.5694 6.73732C9.84992 7.21805 9.28916 7.90133 8.95803 8.70076C8.6269 9.50019 8.54026 10.3799 8.70907 11.2285C8.87788 12.0772 9.29456 12.8567 9.90641 13.4686C10.5183 14.0804 11.2978 14.4971 12.1465 14.6659C12.9951 14.8347 13.8748 14.7481 14.6742 14.417C15.4737 14.0858 16.157 13.5251 16.6377 12.8056C17.1184 12.0862 17.375 11.2403 17.375 10.375C17.375 9.21468 16.9141 8.10188 16.0936 7.28141C15.2731 6.46094 14.1603 6 13 6Z" fill="#3F2355"/>
<path d="M13 0.75C10.5772 0.75 8.20877 1.46845 6.19427 2.8145C4.17977 4.16054 2.60965 6.07373 1.68248 8.31213C0.755308 10.5505 0.512717 13.0136 0.985386 15.3899C1.45805 17.7661 2.62475 19.9489 4.33795 21.6621C6.05114 23.3752 8.23388 24.542 10.6101 25.0146C12.9864 25.4873 15.4495 25.2447 17.6879 24.3175C19.9263 23.3904 21.8395 21.8202 23.1855 19.8057C24.5316 17.7912 25.25 15.4228 25.25 13C25.2463 9.75224 23.9545 6.63855 21.658 4.34203C19.3615 2.04552 16.2478 0.753705 13 0.75ZM19.993 20.8103C19.9756 19.6625 19.508 18.5676 18.6909 17.7614C17.8739 16.9552 16.7728 16.5022 15.625 16.5H10.375C9.22717 16.5022 8.12611 16.9552 7.30908 17.7614C6.49205 18.5676 6.02444 19.6625 6.00701 20.8103C4.42025 19.3934 3.30127 17.528 2.79824 15.4611C2.2952 13.3941 2.43184 11.2232 3.19006 9.23563C3.94829 7.24808 5.29232 5.53771 7.04421 4.331C8.79609 3.12428 10.8732 2.47815 13.0004 2.47815C15.1277 2.47815 17.2048 3.12428 18.9567 4.331C20.7086 5.53771 22.0526 7.24808 22.8108 9.23563C23.569 11.2232 23.7057 13.3941 23.2027 15.4611C22.6996 17.528 21.5806 19.3934 19.9939 20.8103H19.993Z" fill="#3F2355"/>
</svg>
