<svg width="26" height="26" viewBox="0 0 26 26" fill="none" xmlns="http://www.w3.org/2000/svg">
<path d="M12.999 3.09863C7.53941 3.09863 3.09766 7.54039 3.09766 13C3.09766 18.4596 7.53941 22.9014 12.999 22.9014C18.4587 22.9014 22.9004 18.4596 22.9004 13C22.9004 7.54039 18.4587 3.09863 12.999 3.09863ZM12.999 4.62192C17.0986 4.62192 20.5195 7.58182 21.2379 11.4767C20.7597 11.403 17.93 11.9278 15.7765 9.63298C14.5581 8.33443 12.9529 8.42029 12.9987 8.43009C11.9356 8.43009 10.9493 8.85737 10.2216 9.63293C9.12206 10.8046 7.53088 11.4767 5.85613 11.4767H4.76012C5.47856 7.58182 8.89946 4.62192 12.999 4.62192ZM5.23026 16.1355C8.18245 15.5141 11.0123 17.9887 10.696 21.0561C8.20849 20.344 6.1913 18.5081 5.23026 16.1355ZM12.1967 21.3395C12.7136 17.1511 8.85488 13.7427 4.78912 14.6743C4.67898 14.1331 4.62094 13.5732 4.62094 13C5.12551 12.9197 8.65314 13.5304 11.3325 10.6753C12.2329 9.71554 13.7582 9.70808 14.6657 10.6754C17.3476 13.5332 20.8605 12.9178 21.3772 13C21.3772 13.5732 21.3191 14.1331 21.209 14.6743C17.135 13.7409 13.2857 17.16 13.8015 21.3395C13.2827 21.389 12.7561 21.3929 12.1967 21.3395ZM15.3021 21.0561C14.9855 17.9853 17.8191 15.5148 20.7679 16.1355C19.8068 18.5081 17.7896 20.344 15.3021 21.0561Z" fill="#644E77"/>
<path d="M15.2842 13.7615C15.2842 12.5016 14.2593 11.4766 12.9993 11.4766C11.7393 11.4766 10.7144 12.5016 10.7144 13.7615C10.7144 15.0214 11.7393 16.0464 12.9993 16.0464C14.2593 16.0464 15.2842 15.0215 15.2842 13.7615ZM12.9993 14.5231C12.5793 14.5231 12.2376 14.1815 12.2376 13.7615C12.2376 13.3415 12.5793 12.9999 12.9993 12.9999C13.4193 12.9999 13.7609 13.3415 13.7609 13.7615C13.7609 14.1815 13.4193 14.5231 12.9993 14.5231Z" fill="#644E77"/>
<path d="M22.1797 3.81923C19.7178 1.35729 16.4573 0.00146484 12.9987 0.00146484C5.8413 0.00146484 0 5.84323 0 13.0002C0 20.1577 5.84176 25.9989 12.9987 25.9989C16.4573 25.9989 19.7178 24.6431 22.1797 22.1812C27.2726 17.0883 27.2743 8.91387 22.1797 3.81923ZM12.9987 24.4756C6.67114 24.4756 1.52329 19.3278 1.52329 13.0002C1.52329 6.67261 6.67114 1.52475 12.9987 1.52475C19.3263 1.52475 24.4742 6.67261 24.4742 13.0002C24.4742 19.3278 19.3263 24.4756 12.9987 24.4756Z" fill="#644E77"/>
</svg>
