<svg width="259" height="122" viewBox="0 0 259 122" fill="none" xmlns="http://www.w3.org/2000/svg">
<g filter="url(#filter0_d)">
<rect x="22.9961" width="220.87" height="83.8006" rx="10" fill="#3F2355"/>
</g>
<path d="M93.678 52.3206C92.7871 54.3031 92.361 55.1874 91.2118 56.9399C89.6107 59.3855 87.351 62.4337 84.5555 62.4596C82.0699 62.4823 81.4308 60.8367 78.0575 60.8562C74.6842 60.8756 73.9804 62.4888 71.4948 62.4661C68.6994 62.4402 66.5592 59.69 64.958 57.2411C60.4775 50.3997 60.0127 42.3695 62.7727 38.1033C64.7353 35.0681 67.831 33.293 70.7427 33.293C73.7061 33.293 75.5719 34.9256 78.022 34.9256C80.401 34.9256 81.8504 33.293 85.2754 33.293C87.8675 33.293 90.6114 34.7085 92.5676 37.1575C86.1599 40.6786 87.2026 49.8652 93.678 52.3206Z" fill="white"/>
<path d="M82.6745 30.5588C83.9205 28.9554 84.8663 26.6879 84.5209 24.375C82.4872 24.5143 80.1082 25.8132 78.7169 27.5074C77.4547 29.0461 76.4153 31.3233 76.8188 33.539C79.0429 33.607 81.3413 32.2757 82.6745 30.5588Z" fill="white"/>
<path d="M107.316 38L100.898 56.9499H103.836L105.75 51.1321H111.961L113.93 56.9499H116.948L110.505 38H107.316ZM108.836 41.1162C109.053 41.9617 109.288 42.8395 109.588 43.7886L111.319 48.8128H106.399L108.103 43.7562C108.362 42.9367 108.607 42.0524 108.836 41.1162Z" fill="white"/>
<path d="M125.25 42.9141C123.304 42.9141 121.744 43.6688 120.708 45.1006L120.595 43.2153H117.98L117.997 43.455C118.074 44.6309 118.106 45.9234 118.106 47.7763V62.3823H120.963V55.5668C121.851 56.6325 123.265 57.2512 124.869 57.2512C126.538 57.2512 128.078 56.5936 129.198 55.4048C130.45 54.0767 131.109 52.1687 131.109 49.8883C131.109 47.8734 130.534 46.1307 129.45 44.8512C128.384 43.6008 126.893 42.9141 125.25 42.9141ZM124.537 45.2852C127.084 45.2852 128.223 47.6532 128.223 49.9984C128.223 53.0239 126.767 54.9059 124.427 54.9059C122.829 54.9059 121.447 53.8143 121.06 52.2465C120.992 52.0035 120.96 51.6828 120.96 51.3168V49.0104C120.96 48.8031 121.005 48.5472 121.05 48.3043C121.063 48.2265 121.079 48.1488 121.092 48.071C121.518 46.4319 122.932 45.2852 124.537 45.2852Z" fill="white"/>
<path d="M139.973 42.9141C138.027 42.9141 136.468 43.6688 135.432 45.1006L135.319 43.2153H132.707L132.72 43.455C132.797 44.6309 132.83 45.9234 132.83 47.7763V62.3823H135.687V55.5668C136.574 56.6325 137.988 57.2512 139.592 57.2512C141.261 57.2512 142.801 56.5936 143.925 55.4048C145.174 54.0767 145.836 52.1687 145.836 49.8883C145.836 47.8734 145.261 46.1307 144.173 44.8512C143.108 43.6008 141.616 42.9141 139.973 42.9141ZM139.26 45.2852C141.807 45.2852 142.946 47.6532 142.946 49.9984C142.946 53.0239 141.491 54.9059 139.15 54.9059C137.552 54.9059 136.168 53.8143 135.783 52.2465C135.716 52.0035 135.683 51.6828 135.683 51.3168V49.0104C135.683 48.7999 135.728 48.5472 135.774 48.301C135.787 48.2233 135.803 48.1455 135.816 48.071C136.242 46.4319 137.656 45.2852 139.26 45.2852Z" fill="white"/>
<path d="M158.399 46.0287C155.733 44.9922 154.877 44.1791 154.877 42.6728C154.877 41.4063 155.881 40.1267 158.125 40.1267C159.974 40.1267 161.159 40.7714 161.479 40.9722L161.721 41.1212L162.528 38.7274L162.37 38.6334C161.892 38.3516 160.526 37.6973 158.209 37.6973C154.564 37.6973 152.021 39.8546 152.021 42.9449C152.021 45.436 153.615 47.1787 157.037 48.4258C159.461 49.3361 160.365 50.2657 160.365 51.8627C160.365 53.6703 158.974 54.7911 156.733 54.7911C155.274 54.7911 153.773 54.3635 152.614 53.6184L152.366 53.4597L151.598 55.9086L151.74 56.0025C152.818 56.7249 154.848 57.2497 156.569 57.2497C161.479 57.2497 163.222 54.2436 163.222 51.6716C163.219 49.0219 161.821 47.3828 158.399 46.0287Z" fill="white"/>
<path d="M168.367 39.9492L165.565 40.8335V43.2144H163.512V45.5046H165.565V52.5242C165.565 54.2216 165.888 55.4104 166.553 56.1619C167.192 56.8648 168.173 57.2503 169.316 57.2503C170.397 57.2503 171.162 57.0365 171.524 56.907L171.685 56.8486L171.55 54.552L171.275 54.6362C170.914 54.7463 170.542 54.7917 169.945 54.7917C168.838 54.7917 168.367 54.0888 168.367 52.44V45.5014H171.814V43.2112H168.367V39.9492Z" fill="white"/>
<path d="M178.894 42.9141C174.898 42.9141 172.105 45.9072 172.105 50.1928C172.105 54.3488 174.807 57.2544 178.678 57.2544H178.704C181.974 57.2544 185.492 54.9675 185.492 49.9466C185.492 47.9058 184.863 46.1534 183.672 44.8738C182.471 43.5911 180.818 42.9141 178.894 42.9141ZM178.81 45.1751C181.38 45.1751 182.551 47.6888 182.551 50.0276C182.551 52.9008 180.954 54.9869 178.755 54.9869H178.726C176.56 54.9869 174.985 52.9365 174.985 50.1085C174.988 47.6564 176.17 45.1751 178.81 45.1751Z" fill="white"/>
<path d="M194.24 43.0469L194.069 43.0048C193.817 42.9432 193.611 42.9141 193.359 42.9141C191.864 42.9141 190.522 43.7984 189.776 45.2237L189.692 43.2186H187.129L187.145 43.4583C187.223 44.592 187.252 45.8683 187.252 47.5884L187.226 56.9564H190.083V49.6486C190.083 49.2501 190.108 48.8744 190.16 48.5375C190.483 46.7818 191.661 45.648 193.165 45.648C193.459 45.648 193.688 45.6707 193.934 45.6966L194.24 45.729V43.0469Z" fill="white"/>
<path d="M200.666 42.8828C196.864 42.8828 194.207 45.931 194.207 50.3008C194.207 54.5054 196.851 57.2232 200.941 57.2232C203.091 57.2232 204.588 56.7503 205.463 56.3518L205.634 56.2741L205.086 54.1361L204.847 54.2333C204.069 54.5508 203.033 54.8747 201.267 54.8747C200.024 54.8747 197.164 54.4633 196.986 50.7187L206.209 50.7478L206.248 50.5632C206.306 50.2717 206.335 49.8797 206.335 49.3679C206.335 46.378 204.853 42.8828 200.666 42.8828ZM200.476 45.0661C201.347 45.0661 202.051 45.335 202.574 45.8694C203.397 46.7084 203.539 47.9458 203.559 48.5386H197.041C197.309 46.8801 198.339 45.0661 200.476 45.0661Z" fill="white"/>
<path d="M100.902 25.0538C101.699 24.9469 102.625 24.8691 103.642 24.8691C105.486 24.8691 106.796 25.2417 107.664 25.9737C108.562 26.7058 109.078 27.7554 109.078 29.2066C109.078 30.6707 108.562 31.866 107.648 32.692C106.706 33.531 105.172 33.9845 103.242 33.9845C102.312 33.9845 101.563 33.9586 100.898 33.8776V25.0538H100.902ZM102.199 32.9965C102.522 33.0484 102.993 33.0484 103.497 33.0484C106.238 33.0613 107.726 31.6652 107.726 29.2422C107.742 27.101 106.415 25.7826 103.704 25.7826C103.042 25.7826 102.538 25.8377 102.199 25.9025V32.9965Z" fill="white"/>
<path d="M113.672 34.049C111.755 34.049 110.254 32.7727 110.254 30.7352C110.254 28.5778 111.829 27.3145 113.789 27.3145C115.838 27.3145 117.223 28.6588 117.223 30.6153C117.223 33.0091 115.38 34.049 113.689 34.049H113.672ZM113.718 33.1679C114.954 33.1679 115.884 32.1151 115.884 30.6542C115.884 29.5625 115.28 28.1923 113.747 28.1923C112.229 28.1923 111.564 29.4686 111.564 30.693C111.564 32.1021 112.449 33.1679 113.701 33.1679H113.718Z" fill="white"/>
<path d="M119.281 27.459L120.239 30.721C120.43 31.4401 120.623 32.1171 120.756 32.7844H120.801C120.962 32.1333 121.198 31.4401 121.434 30.7339L122.599 27.459H123.69L124.794 30.6788C125.059 31.4368 125.265 32.1301 125.427 32.7812H125.472C125.591 32.1301 125.782 31.4498 126.017 30.6918L127.034 27.459H128.316L126.017 33.8987H124.839L123.748 30.8246C123.496 30.0925 123.29 29.4544 123.115 28.6964H123.086C122.909 29.4674 122.689 30.1476 122.438 30.8376L121.288 33.8987H120.11L117.957 27.459H119.281Z" fill="white"/>
<path d="M129.609 29.203C129.609 28.5227 129.593 27.9915 129.551 27.4602H130.7L130.774 28.513H130.803C131.158 27.9137 131.982 27.3145 133.16 27.3145C134.148 27.3145 135.681 27.8457 135.681 30.0549V33.9H134.386V30.1877C134.386 29.1511 133.957 28.2733 132.737 28.2733C131.898 28.2733 131.233 28.8175 130.997 29.4718C130.939 29.6176 130.91 29.8314 130.91 30.016V33.9032H129.612V29.203H129.609Z" fill="white"/>
<path d="M137.789 24.4531H139.087V33.9022H137.789V24.4531Z" fill="white"/>
<path d="M144.141 34.049C142.227 34.049 140.723 32.7727 140.723 30.7352C140.723 28.5778 142.298 27.3145 144.261 27.3145C146.307 27.3145 147.692 28.6588 147.692 30.6153C147.692 33.0091 145.849 34.049 144.154 34.049H144.141ZM144.186 33.1679C145.423 33.1679 146.352 32.1151 146.352 30.6542C146.352 29.5625 145.749 28.1923 144.215 28.1923C142.698 28.1923 142.033 29.4686 142.033 30.693C142.033 32.1021 142.918 33.1679 144.17 33.1679H144.186Z" fill="white"/>
<path d="M154.349 32.3568C154.349 32.9139 154.379 33.4614 154.453 33.8987H153.287L153.168 33.0888H153.126C152.742 33.5942 151.961 34.0477 150.944 34.0477C149.501 34.0477 148.762 33.131 148.762 32.198C148.762 30.6399 150.295 29.788 153.049 29.8042V29.6714C153.049 29.1401 152.887 28.1683 151.428 28.1813C150.75 28.1813 150.056 28.353 149.556 28.6607L149.262 27.8768C149.853 27.5432 150.721 27.3164 151.619 27.3164C153.814 27.3164 154.343 28.6607 154.343 29.95V32.3568H154.349ZM153.081 30.614C151.667 30.5881 150.059 30.8149 150.059 32.0652C150.059 32.8362 150.618 33.1828 151.267 33.1828C152.209 33.1828 152.813 32.6515 153.02 32.1041C153.065 31.9842 153.078 31.8514 153.078 31.7316V30.614H153.081Z" fill="white"/>
<path d="M162.589 24.4531V32.2372C162.589 32.8105 162.605 33.4616 162.647 33.9022H161.482L161.424 32.7846H161.395C160.998 33.5037 160.142 34.0479 158.977 34.0479C157.253 34.0479 155.91 32.7295 155.91 30.773C155.894 28.6156 157.386 27.3134 159.109 27.3134C160.217 27.3134 160.952 27.7799 161.262 28.2852H161.291V24.4531H162.589ZM161.295 30.0798C161.295 29.9211 161.282 29.7332 161.237 29.5745C161.046 28.8424 160.339 28.2301 159.364 28.2301C158.025 28.2301 157.227 29.2959 157.227 30.705C157.227 32.0234 157.95 33.0988 159.335 33.0988C160.204 33.0988 161.001 32.5676 161.237 31.7027C161.282 31.544 161.295 31.382 161.295 31.1973V30.0798Z" fill="white"/>
<path d="M170.766 34.049C168.852 34.049 167.348 32.7727 167.348 30.7352C167.348 28.5778 168.926 27.3145 170.886 27.3145C172.935 27.3145 174.32 28.6588 174.32 30.6153C174.32 33.0091 172.477 34.049 170.786 34.049H170.766ZM170.811 33.1679C172.048 33.1679 172.977 32.1151 172.977 30.6542C172.977 29.5625 172.374 28.1923 170.84 28.1923C169.323 28.1923 168.658 29.4686 168.658 30.693C168.658 32.1021 169.543 33.1679 170.795 33.1679H170.811Z" fill="white"/>
<path d="M175.957 29.203C175.957 28.5227 175.94 27.9915 175.898 27.4602H177.048L177.122 28.513H177.151C177.506 27.9137 178.329 27.3145 179.507 27.3145C180.495 27.3145 182.029 27.8457 182.029 30.0549V33.9H180.731V30.1877C180.731 29.1511 180.305 28.2733 179.081 28.2733C178.242 28.2733 177.577 28.8175 177.341 29.4718C177.283 29.6176 177.254 29.8314 177.254 30.016V33.9032H175.957V29.203Z" fill="white"/>
<path d="M188.818 25.918V27.4599H190.674V28.3507H188.818V31.8232C188.818 32.6201 189.07 33.0736 189.79 33.0736C190.141 33.0736 190.348 33.0477 190.542 32.9926L190.6 33.8834C190.348 33.9644 189.951 34.0421 189.451 34.0421C188.847 34.0421 188.36 33.8543 188.05 33.5498C187.695 33.1902 187.549 32.6168 187.549 31.8588V28.3442H186.445V27.4534H187.549V26.2678L188.818 25.918Z" fill="white"/>
<path d="M192.136 24.4531H193.434V28.4731H193.463C193.669 28.1394 193.992 27.835 194.392 27.6471C194.777 27.4333 195.232 27.3134 195.719 27.3134C196.675 27.3134 198.208 27.8447 198.208 30.0668V33.8989H196.91V30.1996C196.91 29.1469 196.484 28.282 195.261 28.282C194.422 28.282 193.773 28.8132 193.521 29.4546C193.447 29.6133 193.43 29.7883 193.43 30.015V33.9022H192.133V24.4531H192.136Z" fill="white"/>
<path d="M201.049 30.8802C201.078 32.4642 202.185 33.1153 203.479 33.1153C204.409 33.1153 204.984 32.9696 205.455 32.7946L205.691 33.6207C205.232 33.8085 204.438 34.032 203.302 34.032C201.12 34.032 199.793 32.7137 199.793 30.7863C199.793 28.8297 201.075 27.3008 203.153 27.3008C205.481 27.3008 206.084 29.1504 206.084 30.336C206.084 30.5757 206.072 30.7604 206.042 30.8932L201.049 30.8802ZM204.838 30.0412C204.851 29.3091 204.499 28.1365 203.053 28.1365C201.727 28.1365 201.168 29.2282 201.065 30.0412H204.838Z" fill="white"/>
<defs>
<filter id="filter0_d" x="0.673829" y="0" width="257.817" height="121.518" filterUnits="userSpaceOnUse" color-interpolation-filters="sRGB">
<feFlood flood-opacity="0" result="BackgroundImageFix"/>
<feColorMatrix in="SourceAlpha" type="matrix" values="0 0 0 0 0 0 0 0 0 0 0 0 0 0 0 0 0 0 127 0"/>
<feOffset dx="-3.84867" dy="19.2433"/>
<feGaussianBlur stdDeviation="9.2368"/>
<feColorMatrix type="matrix" values="0 0 0 0 0 0 0 0 0 0 0 0 0 0 0 0 0 0 0.04 0"/>
<feBlend mode="normal" in2="BackgroundImageFix" result="effect1_dropShadow"/>
<feBlend mode="normal" in="SourceGraphic" in2="effect1_dropShadow" result="shape"/>
</filter>
</defs>
</svg>
