<svg width="449" height="371" viewBox="0 0 449 371" fill="none" xmlns="http://www.w3.org/2000/svg">
<path d="M370.124 68.8148C366.774 56.8087 370.56 44.615 379.236 40.7493C390.277 35.8249 407.623 52.943 410.376 77.3436C412.125 92.8 426.912 116.477 415.328 121.093C404.95 125.227 378.298 98.0661 370.124 68.8148Z" fill="url(#paint0_linear)"/>
<path d="M237.417 341.502C277.127 346.333 289.26 369.199 339.689 361.387C388.873 353.77 423.43 289.686 432.328 251.249C435.236 238.674 443.181 204.364 428.066 170.282C417.983 147.543 400.075 135.966 378.234 107.572C350.918 72.0632 364.217 64.372 346.369 41.1103C326.725 15.5104 309.962 11.6244 299.518 7.64472C229.806 -18.9334 132.994 27.0675 81.4792 95.0034C46.3655 141.306 13.1752 227.083 50.6405 284.875C71.2959 316.74 103.166 333.416 115.005 337.1C167.558 353.435 184.857 335.111 237.417 341.502Z" fill="url(#paint1_linear)"/>
<path d="M276.423 181.217C284.543 171.268 364.618 203.681 363.118 240.758C362.548 254.888 350.121 269.929 338.088 270.767C321.606 271.912 307.966 246.252 283.592 200.399C275.465 185.117 275.244 182.651 276.423 181.217Z" fill="url(#paint2_radial)"/>
<path opacity="0.7" d="M343.291 241.644C343.291 241.644 334.106 215.836 300.795 198.383" stroke="white" stroke-width="1.089" stroke-miterlimit="10"/>
<path d="M276.423 181.21C275.244 182.651 275.465 185.11 283.585 200.392C288.663 209.946 293.273 218.622 297.54 226.36C313.761 255.772 325.03 271.671 338.081 270.766C350.12 269.929 362.542 254.881 363.111 240.758C363.6 228.772 355.554 217.275 344.178 207.54C320.367 187.153 281.917 174.484 276.423 181.21Z" fill="url(#paint3_linear)"/>
<path d="M171.009 276.038C162.072 286.811 46.8218 230.553 34.8626 163.026C33.2748 154.062 29.7033 133.909 42.1114 120.1C48.5901 112.891 60.5027 106.205 73.0246 107.92C76.5822 108.409 83.1343 109.984 90.484 116.409C111.535 134.806 111.22 168.56 118.985 196.384C134.12 250.586 176.362 269.586 171.009 276.038Z" fill="url(#paint4_radial)"/>
<path opacity="0.7" d="M137.84 250.552C122.752 238.921 101.742 219.612 84.4695 190.461C75.1434 174.717 69.0868 159.79 65.0669 147.234" stroke="white" stroke-width="1.1048" stroke-miterlimit="10"/>
<path d="M34.8631 163.02C46.8222 230.54 162.072 286.812 171.01 276.032C175.445 270.685 147.138 256.696 128.72 221.141C124.928 213.831 121.558 205.617 118.985 196.378C111.642 170.075 111.522 138.472 93.7336 119.552C92.7152 118.453 91.6236 117.414 90.4779 116.403C83.1282 109.977 76.5755 108.403 73.0179 107.914C60.496 106.192 48.584 112.885 42.1053 120.094C29.704 133.909 33.2752 154.055 34.8631 163.02Z" fill="url(#paint5_linear)"/>
<path d="M280.615 150.295C288.648 158.033 374.935 103.269 378.426 48.7326C378.888 41.4901 379.933 25.2165 368.878 15.3812C363.11 10.2492 353.087 6.00145 343.318 8.47367C340.545 9.17715 335.493 10.9994 330.241 16.7411C315.2 33.1757 318.436 59.8742 314.751 82.5999C307.582 126.872 275.811 145.658 280.615 150.295Z" fill="url(#paint6_radial)"/>
<path opacity="0.7" d="M304.63 127.177C315.551 116.632 330.477 99.4803 341.572 74.8653C347.569 61.5729 351.04 49.2116 353.11 38.9141" stroke="white" stroke-width="0.8804" stroke-miterlimit="10"/>
<path d="M378.429 48.7378C374.938 103.274 288.652 158.038 280.619 150.3C276.632 146.454 297.81 132.874 309.246 103.087C311.598 96.963 313.541 90.1627 314.767 82.612C318.258 61.1325 315.551 36.0887 327.959 19.5335C328.67 18.5754 329.44 17.6506 330.257 16.7528C335.51 11.0111 340.555 9.18217 343.336 8.48539C353.104 6.01316 363.126 10.2609 368.895 15.3929C379.936 25.2215 378.898 41.4953 378.429 48.7378Z" fill="url(#paint7_linear)"/>
<path d="M142.959 306.805C148.42 303.904 140.654 255.183 108.133 237.181C103.658 234.702 80.5703 224.84 64.4506 234.507C55.1044 240.115 48.6866 252.838 52.2575 262.158C58.4214 278.237 98.2108 266.714 130.725 292.93C140.734 300.996 140.775 307.964 142.959 306.805Z" fill="url(#paint8_radial)"/>
<path opacity="0.7" d="M140.906 290.912C140.906 290.912 120.66 249.454 78.7192 250.553" stroke="white" stroke-width="1.0195" stroke-miterlimit="10"/>
<path d="M142.959 306.805C148.42 303.904 140.654 255.183 108.133 237.181C103.658 234.702 80.5703 224.84 64.4506 234.507C55.1044 240.115 48.6866 252.838 52.2575 262.158C58.4214 278.237 98.2108 266.714 130.725 292.93C140.734 300.996 140.775 307.964 142.959 306.805Z" fill="url(#paint9_linear)"/>
<path d="M289.836 122.761C300.971 109.348 322.303 95.4394 319.704 66.8916C319.436 63.937 316.702 37.8479 298.351 28.2739C296.355 27.2287 287.29 22.7934 278.279 25.8887C270.581 28.5285 264.075 36.2669 263.761 45.0034C263.144 62.0209 286.473 70.1275 293.977 96.7659C296.215 104.719 291.92 117.589 289.836 122.761Z" fill="url(#paint10_linear)"/>
<path opacity="0.7" d="M289.836 122.76C289.836 122.76 309.52 101.89 308.207 79.5059C306.927 57.678 291.062 45.002 291.062 45.002" stroke="white" stroke-width="0.9208" stroke-miterlimit="10"/>
<path d="M289.836 122.761C300.971 109.348 322.303 95.4394 319.704 66.8916C319.436 63.937 316.702 37.8479 298.351 28.2739C296.355 27.2287 287.29 22.7934 278.279 25.8887C270.581 28.5285 264.075 36.2669 263.761 45.0034C263.144 62.0209 286.473 70.1275 293.977 96.7659C296.215 104.719 291.92 117.589 289.836 122.761Z" fill="url(#paint11_linear)"/>
<path d="M80.377 80.4751V95.228H120.582V80.4751C120.582 69.3735 111.584 60.3691 100.483 60.3691C94.9287 60.3691 89.9041 62.6203 86.2661 66.2583C82.6281 69.8963 80.377 74.9209 80.377 80.4751Z" fill="url(#paint12_linear)"/>
<path d="M120.61 60.3691H285.01H288.111C299.22 60.3691 308.218 69.3735 308.218 80.4751V82.5187C308.231 82.8805 308.244 83.242 308.244 83.6038V294.868C308.244 305.97 317.242 314.975 328.344 314.975H308.218H143.818H140.716C129.608 314.975 120.61 305.97 120.61 294.868V292.825C120.59 292.463 120.583 292.101 120.583 291.74V80.4751C120.583 69.3735 111.585 60.3691 100.484 60.3691H120.61Z" fill="url(#paint13_linear)"/>
<path d="M136.653 314.514C138.033 314.822 139.46 314.976 140.928 314.976C142.395 314.976 143.828 314.815 145.209 314.514H136.653Z" fill="#DFD4C1"/>
<path d="M145.209 314.514C149.042 313.69 152.472 311.76 155.145 309.087C158.783 305.449 161.034 300.424 161.034 294.87V280.117H347.979V294.87C347.979 300.424 345.728 305.449 342.09 309.087C338.452 312.725 333.427 314.976 327.873 314.976C326.399 314.976 324.972 314.816 323.591 314.514H145.209Z" fill="url(#paint14_linear)"/>
<path opacity="0.8" d="M151.218 99.1897H282.453C284.222 99.1897 285.669 97.7423 285.669 95.9736C285.669 94.2048 284.222 92.7578 282.453 92.7578H151.218C149.449 92.7578 148.001 94.2048 148.001 95.9736C148.001 97.7423 149.449 99.1897 151.218 99.1897Z" fill="url(#paint15_linear)"/>
<path opacity="0.8" d="M179.653 113.861H283.051C284.492 113.861 285.671 112.681 285.671 111.241V110.055C285.671 108.614 284.492 107.436 283.051 107.436H179.653C178.213 107.436 177.034 108.614 177.034 110.055V111.241C177.027 112.681 178.213 113.861 179.653 113.861Z" fill="url(#paint16_linear)"/>
<path opacity="0.8" d="M151.218 206.848H282.453C284.222 206.848 285.669 205.401 285.669 203.632C285.669 201.863 284.222 200.416 282.453 200.416H151.218C149.449 200.416 148.001 201.863 148.001 203.632C148.001 205.401 149.449 206.848 151.218 206.848Z" fill="url(#paint17_linear)"/>
<path opacity="0.8" d="M179.653 221.527H283.051C284.492 221.527 285.671 220.348 285.671 218.907V217.721C285.671 216.281 284.492 215.102 283.051 215.102H179.653C178.213 215.102 177.034 216.281 177.034 217.721V218.907C177.027 220.341 178.213 221.527 179.653 221.527Z" fill="url(#paint18_linear)"/>
<path d="M137.996 131.62V197.305C137.996 203.221 142.632 208.011 148.367 208.011H308.244V120.914H148.367C142.632 120.914 137.996 125.704 137.996 131.62Z" fill="url(#paint19_radial)"/>
<path d="M167.097 182.982H329.366C333.292 182.982 336.481 179.8 336.481 175.867V139.668C336.481 135.742 333.299 132.553 329.366 132.553H167.097C163.171 132.553 159.982 135.735 159.982 139.668V175.867C159.982 179.793 163.164 182.982 167.097 182.982Z" fill="white"/>
<path opacity="0.8" d="M185.596 153.642H265.772C267.541 153.642 268.988 152.195 268.988 150.427C268.988 148.658 267.541 147.211 265.772 147.211H185.596C183.827 147.211 182.38 148.658 182.38 150.427C182.38 152.195 183.827 153.642 185.596 153.642Z" fill="url(#paint20_linear)"/>
<path opacity="0.8" d="M214.029 168.321H266.361C267.801 168.321 268.98 167.142 268.98 165.702V164.516C268.98 163.075 267.801 161.896 266.361 161.896H214.029C212.588 161.896 211.409 163.075 211.409 164.516V165.702C211.409 167.142 212.588 168.321 214.029 168.321Z" fill="url(#paint21_linear)"/>
<path d="M310.412 150.308C310.412 147.481 308.656 146.074 306.975 146.074C302.814 146.074 303.92 153.095 300.027 153.095C298.426 153.095 297.167 152.104 297.167 150.388C297.167 147.219 301.401 143.789 306.747 143.789C311.973 143.789 316.254 145.966 316.254 150.965C316.254 157.49 307.893 158.1 307.893 162.796C307.893 164.056 304.308 164.17 303.886 162.796C302.667 157.175 310.412 155.956 310.412 150.308ZM302.553 168.739C302.553 166.642 304.12 165.65 305.95 165.65C307.745 165.65 309.307 166.642 309.307 168.739C309.307 170.763 307.738 171.754 305.95 171.754C304.114 171.754 302.553 170.763 302.553 168.739Z" fill="url(#paint22_linear)"/>
<path d="M0 53.0528V73.0514H54.5091V53.0528C54.5091 37.9983 42.3088 25.791 27.2611 25.791C19.7305 25.791 12.9171 28.8464 7.9861 33.7774C3.05505 38.7085 0 45.5222 0 53.0528Z" fill="url(#paint23_linear)"/>
<path d="M54.5493 25.791H277.444H281.652C296.713 25.791 308.913 37.9983 308.913 53.0528V55.8262C308.933 56.3153 308.954 56.8045 308.954 57.3003V343.736C308.954 358.791 321.154 370.998 336.202 370.998H308.913H86.0181H81.8104C66.7493 370.998 54.5493 358.791 54.5493 343.736V340.963C54.5292 340.474 54.5087 339.985 54.5087 339.489V53.0528C54.5087 37.9983 42.3085 25.791 27.2607 25.791H54.5493Z" fill="url(#paint24_linear)"/>
<path d="M76.3037 370.363C78.173 370.779 80.1095 370.993 82.0993 370.993C84.0891 370.993 86.0315 370.772 87.9008 370.363H76.3037Z" fill="#DFD4C1"/>
<path d="M87.8994 370.361C93.0918 369.242 97.7483 366.629 101.373 363.005C106.304 358.074 109.359 351.26 109.359 343.729V323.73H362.819L362.826 343.729C362.826 351.26 359.771 358.074 354.84 363.005C349.909 367.936 343.095 370.991 335.564 370.991C333.568 370.991 331.631 370.77 329.755 370.361H87.8994Z" fill="url(#paint25_linear)"/>
<path opacity="0.8" d="M96.0474 78.4204H273.974C276.373 78.4204 278.335 76.4572 278.335 74.0587C278.335 71.6601 276.373 69.6973 273.974 69.6973H96.0474C93.6489 69.6973 91.686 71.6601 91.686 74.0587C91.6927 76.4572 93.6556 78.4204 96.0474 78.4204Z" fill="url(#paint26_linear)"/>
<path opacity="0.8" d="M134.599 98.3247H274.786C276.742 98.3247 278.343 96.7234 278.343 94.7671V93.1592C278.343 91.2029 276.742 89.6016 274.786 89.6016H134.599C132.643 89.6016 131.042 91.2029 131.042 93.1592V94.7671C131.049 96.7234 132.65 98.3247 134.599 98.3247Z" fill="url(#paint27_linear)"/>
<path opacity="0.8" d="M96.0484 224.389H273.975C276.374 224.389 278.336 222.426 278.336 220.027C278.336 217.629 276.374 215.666 273.975 215.666H96.0484C93.6499 215.666 91.687 217.629 91.687 220.027C91.6937 222.426 93.6566 224.389 96.0484 224.389Z" fill="url(#paint28_linear)"/>
<path opacity="0.8" d="M134.599 244.284H274.786C276.742 244.284 278.343 242.682 278.343 240.726V239.118C278.343 237.162 276.742 235.561 274.786 235.561H134.599C132.643 235.561 131.042 237.162 131.042 239.118V240.726C131.049 242.689 132.65 244.284 134.599 244.284Z" fill="url(#paint29_linear)"/>
<path d="M78.1187 122.405V211.459C78.1187 219.478 84.4094 225.977 92.1745 225.977H308.933V107.887H92.1745C84.4094 107.887 78.1187 114.385 78.1187 122.405Z" fill="url(#paint30_radial)"/>
<path d="M117.58 192.033H337.58C342.907 192.033 347.222 187.718 347.222 182.392V133.309C347.222 127.983 342.907 123.668 337.58 123.668H117.58C112.254 123.668 107.938 127.983 107.938 133.309V182.392C107.932 187.711 112.254 192.033 117.58 192.033Z" fill="white"/>
<path opacity="0.8" d="M142.664 152.254H251.368C253.767 152.254 255.73 150.291 255.73 147.893C255.73 145.494 253.767 143.531 251.368 143.531H142.664C140.266 143.531 138.303 145.494 138.303 147.893C138.303 150.291 140.266 152.254 142.664 152.254Z" fill="url(#paint31_linear)"/>
<path opacity="0.8" d="M181.215 172.157H252.173C254.129 172.157 255.73 170.555 255.73 168.599V166.991C255.73 165.035 254.129 163.434 252.173 163.434H181.215C179.259 163.434 177.658 165.035 177.658 166.991V168.599C177.658 170.555 179.259 172.157 181.215 172.157Z" fill="url(#paint32_linear)"/>
<path d="M412.264 242.995L398.268 256.998L362.21 220.939C360.267 219.003 360.267 215.854 362.21 213.918L369.185 206.937C371.121 205 374.27 205 376.206 206.937L395.561 226.292L412.264 242.995Z" fill="url(#paint33_linear)"/>
<path d="M413.254 243.984L399.259 257.986L382.556 241.284L396.552 227.281L413.254 243.984Z" fill="url(#paint34_linear)"/>
<path d="M446.601 276.977L432.243 291.335C430.132 293.446 426.709 293.446 424.599 291.335L384.487 251.224C382.377 249.113 382.377 245.689 384.487 243.579L398.845 229.221C400.955 227.111 404.379 227.111 406.489 229.221L446.601 269.333C448.711 271.443 448.711 274.867 446.601 276.977Z" fill="url(#paint35_linear)"/>
<path d="M316.575 81.9043H307.551V82.4405C269.878 86.9025 240.653 118.947 240.653 157.82C240.653 196.692 269.871 228.737 307.551 233.199V233.735H316.575C358.502 233.735 392.49 199.747 392.49 157.82C392.497 115.892 358.502 81.9043 316.575 81.9043ZM316.575 216.028C284.436 216.028 258.374 189.972 258.374 157.827C258.374 125.681 284.436 99.6254 316.575 99.6254C348.721 99.6254 374.776 125.681 374.776 157.827C374.783 189.965 348.721 216.028 316.575 216.028Z" fill="url(#paint36_linear)"/>
<path d="M258.375 157.829C258.375 127.847 281.054 103.152 310.191 99.976C308.094 99.7415 305.964 99.6211 303.8 99.6211C271.661 99.6211 245.599 125.683 245.599 157.829C245.599 189.974 271.661 216.03 303.8 216.03C305.964 216.03 308.094 215.909 310.191 215.675C281.054 212.499 258.375 187.81 258.375 157.829Z" fill="url(#paint37_linear)"/>
<path d="M307.559 81.9043C265.632 81.9043 231.644 115.892 231.644 157.82C231.644 199.747 265.632 233.735 307.559 233.735C349.486 233.735 383.474 199.747 383.474 157.82C383.474 115.892 349.486 81.9043 307.559 81.9043ZM307.559 216.028C275.42 216.028 249.358 189.972 249.358 157.827C249.358 125.681 275.42 99.6254 307.559 99.6254C339.705 99.6254 365.76 125.681 365.76 157.827C365.76 189.965 339.705 216.028 307.559 216.028Z" fill="url(#paint38_linear)"/>
<path d="M307.557 86.6543C268.256 86.6543 236.392 118.518 236.392 157.826C236.392 197.127 268.256 228.998 307.557 228.998C346.865 228.998 378.729 197.134 378.729 157.826C378.723 118.518 346.865 86.6543 307.557 86.6543ZM307.557 216.027C275.418 216.027 249.356 189.972 249.356 157.826C249.356 125.681 275.418 99.625 307.557 99.625C339.703 99.625 365.758 125.681 365.758 157.826C365.758 189.965 339.703 216.027 307.557 216.027Z" fill="url(#paint39_linear)"/>
<path opacity="0.6" d="M357.021 106.656C369.576 119.486 377.314 137.047 377.314 156.416C377.314 195.717 345.457 227.588 306.149 227.588C286.774 227.588 269.22 219.849 256.39 207.287C269.327 220.673 287.47 228.994 307.556 228.994C346.864 228.994 378.728 197.13 378.728 157.829C378.728 137.743 370.407 119.594 357.021 106.656Z" fill="white"/>
<path d="M306.152 85.248C266.844 85.248 234.986 117.112 234.986 156.413C234.986 176.345 243.18 194.368 256.392 207.285C244.011 194.475 236.394 177.042 236.394 157.827C236.394 118.519 268.258 86.6551 307.559 86.6551C326.78 86.6551 344.213 94.2728 357.023 106.654C344.113 93.4487 326.091 85.248 306.152 85.248Z" fill="url(#paint40_linear)"/>
<path d="M307.558 95.1621C272.954 95.1621 244.902 123.214 244.902 157.819C244.902 192.423 272.954 220.475 307.558 220.475C342.163 220.475 370.215 192.423 370.215 157.819C370.215 123.214 342.163 95.1621 307.558 95.1621ZM307.558 216.027C275.42 216.027 249.357 189.971 249.357 157.825C249.357 125.68 275.42 99.6243 307.558 99.6243C339.704 99.6243 365.76 125.68 365.76 157.825C365.76 189.964 339.704 216.027 307.558 216.027Z" fill="url(#paint41_linear)"/>
<path d="M307.558 216.025C275.419 216.025 249.357 189.97 249.357 157.824C249.357 125.679 275.419 99.623 307.558 99.623C339.704 99.623 365.759 125.679 365.759 157.824C365.759 189.963 339.704 216.025 307.558 216.025Z" fill="url(#paint42_radial)"/>
<path d="M312.155 148.263C312.155 144.431 309.776 142.522 307.499 142.522C301.857 142.522 303.358 152.042 298.079 152.042C295.908 152.042 294.2 150.696 294.2 148.371C294.2 144.076 299.941 139.42 307.19 139.42C314.279 139.42 320.074 142.368 320.074 149.148C320.074 157.998 308.738 158.822 308.738 165.187C308.738 166.896 303.874 167.05 303.305 165.187C301.656 157.583 312.155 155.921 312.155 148.263ZM301.496 173.26C301.496 170.413 303.619 169.067 306.098 169.067C308.53 169.067 310.654 170.413 310.654 173.26C310.654 176.001 308.53 177.347 306.098 177.347C303.619 177.347 301.496 176.001 301.496 173.26Z" fill="#FB5100"/>
<defs>
<linearGradient id="paint0_linear" x1="339.568" y1="402.14" x2="438.934" y2="-175.135" gradientUnits="userSpaceOnUse">
<stop stop-color="#99C4DE"/>
<stop offset="0.6519" stop-color="#D4E6F0"/>
<stop offset="1" stop-color="#EEF5F8"/>
</linearGradient>
<linearGradient id="paint1_linear" x1="23.3709" y1="-10.9109" x2="437.574" y2="403.292" gradientUnits="userSpaceOnUse">
<stop stop-color="#99C4DE"/>
<stop offset="0.6519" stop-color="#D4E6F0"/>
<stop offset="1" stop-color="#EEF5F8"/>
</linearGradient>
<radialGradient id="paint2_radial" cx="0" cy="0" r="1" gradientUnits="userSpaceOnUse" gradientTransform="translate(316.059 228.166) rotate(-66.7217) scale(55.8669)">
<stop stop-color="#9BC091"/>
<stop offset="0.273" stop-color="#A7C999"/>
<stop offset="0.7694" stop-color="#C8E2AE"/>
<stop offset="0.9301" stop-color="#D4EBB6"/>
</radialGradient>
<linearGradient id="paint3_linear" x1="294.384" y1="208.876" x2="342.871" y2="242.079" gradientUnits="userSpaceOnUse">
<stop stop-color="#9BC091"/>
<stop offset="0.2729" stop-color="#A7C999" stop-opacity="0.7065"/>
<stop offset="0.7691" stop-color="#C8E2AE" stop-opacity="0.1728"/>
<stop offset="0.9298" stop-color="#D4EBB6" stop-opacity="0"/>
</linearGradient>
<radialGradient id="paint4_radial" cx="0" cy="0" r="1" gradientUnits="userSpaceOnUse" gradientTransform="translate(102.88 182.084) rotate(119.12) scale(89.3383 90.5448)">
<stop stop-color="#9BC091"/>
<stop offset="0.273" stop-color="#A7C999"/>
<stop offset="0.7694" stop-color="#C8E2AE"/>
<stop offset="0.9301" stop-color="#D4EBB6"/>
</radialGradient>
<linearGradient id="paint5_linear" x1="115.615" y1="252.689" x2="87.3332" y2="181.807" gradientUnits="userSpaceOnUse">
<stop stop-color="#9BC091"/>
<stop offset="0.2729" stop-color="#A7C999" stop-opacity="0.7065"/>
<stop offset="0.7691" stop-color="#C8E2AE" stop-opacity="0.1728"/>
<stop offset="0.9298" stop-color="#D4EBB6" stop-opacity="0"/>
</linearGradient>
<radialGradient id="paint6_radial" cx="0" cy="0" r="1" gradientUnits="userSpaceOnUse" gradientTransform="translate(326.516 70.2779) rotate(54.4979) scale(71.1979 72.1524)">
<stop stop-color="#9BC091"/>
<stop offset="0.273" stop-color="#A7C999"/>
<stop offset="0.7694" stop-color="#C8E2AE"/>
<stop offset="0.9301" stop-color="#D4EBB6"/>
</radialGradient>
<linearGradient id="paint7_linear" x1="322.504" y1="126.622" x2="338.621" y2="67.9806" gradientUnits="userSpaceOnUse">
<stop stop-color="#9BC091"/>
<stop offset="0.2729" stop-color="#A7C999" stop-opacity="0.7065"/>
<stop offset="0.7691" stop-color="#C8E2AE" stop-opacity="0.1728"/>
<stop offset="0.9298" stop-color="#D4EBB6" stop-opacity="0"/>
</linearGradient>
<radialGradient id="paint8_radial" cx="0" cy="0" r="1" gradientUnits="userSpaceOnUse" gradientTransform="translate(113.586 279.593) rotate(175.021) scale(55.7303 53.8064)">
<stop stop-color="#9BC091"/>
<stop offset="0.273" stop-color="#A7C999"/>
<stop offset="0.7694" stop-color="#C8E2AE"/>
<stop offset="0.9301" stop-color="#D4EBB6"/>
</radialGradient>
<linearGradient id="paint9_linear" x1="136.804" y1="279.478" x2="82.5194" y2="251.864" gradientUnits="userSpaceOnUse">
<stop stop-color="#9BC091"/>
<stop offset="0.2729" stop-color="#A7C999" stop-opacity="0.7065"/>
<stop offset="0.7691" stop-color="#C8E2AE" stop-opacity="0.1728"/>
<stop offset="0.9298" stop-color="#D4EBB6" stop-opacity="0"/>
</linearGradient>
<linearGradient id="paint10_linear" x1="308.71" y1="127.34" x2="297.523" y2="42.7003" gradientUnits="userSpaceOnUse">
<stop stop-color="#9BC091"/>
<stop offset="0.3313" stop-color="#A7C999"/>
<stop offset="0.9339" stop-color="#C8E2AE"/>
<stop offset="1" stop-color="#CCE5B1"/>
</linearGradient>
<linearGradient id="paint11_linear" x1="365.272" y1="143.718" x2="248.828" y2="31.7011" gradientUnits="userSpaceOnUse">
<stop stop-color="#9BC091"/>
<stop offset="0.2729" stop-color="#A7C999" stop-opacity="0.7065"/>
<stop offset="0.7691" stop-color="#C8E2AE" stop-opacity="0.1728"/>
<stop offset="0.9298" stop-color="#D4EBB6" stop-opacity="0"/>
</linearGradient>
<linearGradient id="paint12_linear" x1="111.36" y1="64.3897" x2="95.7204" y2="94.5773" gradientUnits="userSpaceOnUse">
<stop offset="0.1151" stop-color="#D3CDC6"/>
<stop offset="0.2777" stop-color="#D8D1CD"/>
<stop offset="1" stop-color="#F0F0EA"/>
</linearGradient>
<linearGradient id="paint13_linear" x1="138.101" y1="320.919" x2="246.314" y2="131.967" gradientUnits="userSpaceOnUse">
<stop offset="0.0088347" stop-color="#DED6CB"/>
<stop offset="0.8282" stop-color="#FAF7F6"/>
<stop offset="1" stop-color="white"/>
</linearGradient>
<linearGradient id="paint14_linear" x1="246.593" y1="325.662" x2="246.593" y2="287.628" gradientUnits="userSpaceOnUse">
<stop stop-color="#E8E1DB"/>
<stop offset="1" stop-color="white"/>
</linearGradient>
<linearGradient id="paint15_linear" x1="243.76" y1="49.1226" x2="109.377" y2="282.927" gradientUnits="userSpaceOnUse">
<stop offset="0.00713712" stop-color="#E4E4E4"/>
<stop offset="0.999" stop-color="#D3D7D0"/>
</linearGradient>
<linearGradient id="paint16_linear" x1="267.305" y1="48.093" x2="112.279" y2="317.818" gradientUnits="userSpaceOnUse">
<stop offset="0.00713712" stop-color="#E4E4E4"/>
<stop offset="0.999" stop-color="#D3D7D0"/>
</linearGradient>
<linearGradient id="paint17_linear" x1="315.792" y1="31.4578" x2="181.408" y2="265.261" gradientUnits="userSpaceOnUse">
<stop offset="0.00713712" stop-color="#E4E4E4"/>
<stop offset="0.999" stop-color="#D3D7D0"/>
</linearGradient>
<linearGradient id="paint18_linear" x1="350.404" y1="11.1665" x2="195.366" y2="280.898" gradientUnits="userSpaceOnUse">
<stop offset="0.00713712" stop-color="#E4E4E4"/>
<stop offset="0.999" stop-color="#D3D7D0"/>
</linearGradient>
<radialGradient id="paint19_radial" cx="0" cy="0" r="1" gradientUnits="userSpaceOnUse" gradientTransform="translate(258.426 164.426) rotate(180) scale(118.871 42.6144)">
<stop offset="0.00850613" stop-color="#CBC7C3"/>
<stop offset="0.4076" stop-color="#DED6CB"/>
<stop offset="1" stop-color="#E8E1DB" stop-opacity="0"/>
</radialGradient>
<linearGradient id="paint20_linear" x1="266.329" y1="79.7147" x2="179.559" y2="230.686" gradientUnits="userSpaceOnUse">
<stop offset="0.00713712" stop-color="#E4E4E4"/>
<stop offset="0.999" stop-color="#D3D7D0"/>
</linearGradient>
<linearGradient id="paint21_linear" x1="283.58" y1="89.6287" x2="196.807" y2="240.601" gradientUnits="userSpaceOnUse">
<stop offset="0.00713712" stop-color="#E4E4E4"/>
<stop offset="0.999" stop-color="#D3D7D0"/>
</linearGradient>
<linearGradient id="paint22_linear" x1="291.841" y1="170.871" x2="322.107" y2="140.084" gradientUnits="userSpaceOnUse">
<stop offset="0.00976562" stop-color="#CC1E13"/>
<stop offset="0.1505" stop-color="#D02519"/>
<stop offset="0.36" stop-color="#DC3A28"/>
<stop offset="0.6115" stop-color="#EF5B42"/>
<stop offset="0.6418" stop-color="#F25F45"/>
<stop offset="1" stop-color="#F89574"/>
</linearGradient>
<linearGradient id="paint23_linear" x1="42.0098" y1="31.2449" x2="20.8058" y2="72.1737" gradientUnits="userSpaceOnUse">
<stop offset="0.1151" stop-color="#D3CDC6"/>
<stop offset="0.2777" stop-color="#D8D1CD"/>
<stop offset="1" stop-color="#F0F0EA"/>
</linearGradient>
<linearGradient id="paint24_linear" x1="78.2635" y1="379.049" x2="224.979" y2="122.866" gradientUnits="userSpaceOnUse">
<stop offset="0.0088347" stop-color="#DED6CB"/>
<stop offset="0.8282" stop-color="#FAF7F6"/>
<stop offset="1" stop-color="white"/>
</linearGradient>
<linearGradient id="paint25_linear" x1="225.361" y1="385.478" x2="225.361" y2="333.91" gradientUnits="userSpaceOnUse">
<stop stop-color="#E8E1DB"/>
<stop offset="1" stop-color="white"/>
</linearGradient>
<linearGradient id="paint26_linear" x1="221.523" y1="10.5463" x2="39.3264" y2="327.537" gradientUnits="userSpaceOnUse">
<stop offset="0.00713712" stop-color="#E4E4E4"/>
<stop offset="0.999" stop-color="#D3D7D0"/>
</linearGradient>
<linearGradient id="paint27_linear" x1="253.443" y1="9.14958" x2="43.2515" y2="374.846" gradientUnits="userSpaceOnUse">
<stop offset="0.00713712" stop-color="#E4E4E4"/>
<stop offset="0.999" stop-color="#D3D7D0"/>
</linearGradient>
<linearGradient id="paint28_linear" x1="319.184" y1="-13.4014" x2="136.988" y2="303.59" gradientUnits="userSpaceOnUse">
<stop offset="0.00713712" stop-color="#E4E4E4"/>
<stop offset="0.999" stop-color="#D3D7D0"/>
</linearGradient>
<linearGradient id="paint29_linear" x1="366.109" y1="-40.9085" x2="155.918" y2="324.788" gradientUnits="userSpaceOnUse">
<stop offset="0.00713712" stop-color="#E4E4E4"/>
<stop offset="0.999" stop-color="#D3D7D0"/>
</linearGradient>
<radialGradient id="paint30_radial" cx="0" cy="0" r="1" gradientUnits="userSpaceOnUse" gradientTransform="translate(241.252 166.818) rotate(180) scale(161.166 57.7769)">
<stop offset="0.00850613" stop-color="#CBC7C3"/>
<stop offset="0.4076" stop-color="#DED6CB"/>
<stop offset="1" stop-color="#E8E1DB" stop-opacity="0"/>
</radialGradient>
<linearGradient id="paint31_linear" x1="252.119" y1="52.0181" x2="134.469" y2="256.711" gradientUnits="userSpaceOnUse">
<stop offset="0.00713712" stop-color="#E4E4E4"/>
<stop offset="0.999" stop-color="#D3D7D0"/>
</linearGradient>
<linearGradient id="paint32_linear" x1="275.509" y1="65.4658" x2="157.858" y2="270.158" gradientUnits="userSpaceOnUse">
<stop offset="0.00713712" stop-color="#E4E4E4"/>
<stop offset="0.999" stop-color="#D3D7D0"/>
</linearGradient>
<linearGradient id="paint33_linear" x1="376.514" y1="239.174" x2="391.991" y2="223.697" gradientUnits="userSpaceOnUse">
<stop stop-color="#ADE3FA"/>
<stop offset="0.7062" stop-color="#CFF1FF"/>
<stop offset="1" stop-color="#B8E7FC"/>
</linearGradient>
<linearGradient id="paint34_linear" x1="405.826" y1="234.711" x2="390.498" y2="250.038" gradientUnits="userSpaceOnUse">
<stop stop-color="#ADE3FA"/>
<stop offset="0.7062" stop-color="#CFF1FF"/>
<stop offset="1" stop-color="#B8E7FC"/>
</linearGradient>
<linearGradient id="paint35_linear" x1="427.991" y1="247.83" x2="403.907" y2="271.914" gradientUnits="userSpaceOnUse">
<stop stop-color="#3191C6"/>
<stop offset="0.3292" stop-color="#47B9E1"/>
<stop offset="0.4751" stop-color="#44B1DD"/>
<stop offset="0.7044" stop-color="#3A9AD1"/>
<stop offset="0.987" stop-color="#2B76BF"/>
<stop offset="1" stop-color="#2A74BE"/>
</linearGradient>
<linearGradient id="paint36_linear" x1="316.577" y1="68.936" x2="316.577" y2="225.505" gradientUnits="userSpaceOnUse">
<stop offset="0.0104" stop-color="#47B9E1"/>
<stop offset="0.2703" stop-color="#43B1DC"/>
<stop offset="0.6777" stop-color="#369ACD"/>
<stop offset="1" stop-color="#2A84BE"/>
</linearGradient>
<linearGradient id="paint37_linear" x1="277.892" y1="89.6753" x2="277.892" y2="209.715" gradientUnits="userSpaceOnUse">
<stop offset="1.82535e-05" stop-color="#2A84BE"/>
<stop offset="0.3223" stop-color="#369ACD"/>
<stop offset="0.7297" stop-color="#43B1DC"/>
<stop offset="0.9896" stop-color="#47B9E1"/>
</linearGradient>
<linearGradient id="paint38_linear" x1="241.051" y1="35.6582" x2="339.414" y2="216.333" gradientUnits="userSpaceOnUse">
<stop offset="0.0104" stop-color="#A5E0F4"/>
<stop offset="1" stop-color="#77BCDD"/>
</linearGradient>
<linearGradient id="paint39_linear" x1="264.467" y1="114.73" x2="357.727" y2="207.99" gradientUnits="userSpaceOnUse">
<stop stop-color="#ADE3FA"/>
<stop offset="0.9997" stop-color="#CFF1FF"/>
</linearGradient>
<linearGradient id="paint40_linear" x1="259.483" y1="109.745" x2="306.627" y2="156.889" gradientUnits="userSpaceOnUse">
<stop offset="0.0104" stop-color="#A5E0F4"/>
<stop offset="1" stop-color="#77BCDD"/>
</linearGradient>
<linearGradient id="paint41_linear" x1="241.051" y1="35.6572" x2="339.413" y2="216.332" gradientUnits="userSpaceOnUse">
<stop offset="1.82535e-05" stop-color="#77BCDD"/>
<stop offset="0.9896" stop-color="#A5E0F4"/>
</linearGradient>
<radialGradient id="paint42_radial" cx="0" cy="0" r="1" gradientUnits="userSpaceOnUse" gradientTransform="translate(307.557 157.819) scale(58.2035)">
<stop stop-color="#DCF3FF"/>
<stop offset="0.9833" stop-color="white" stop-opacity="0"/>
</radialGradient>
</defs>
</svg>
