<svg width="67" height="47" viewBox="0 0 67 47" fill="none" xmlns="http://www.w3.org/2000/svg">
<path d="M66.7384 19.1574V26.7498C66.7382 29.0268 65.8396 31.2119 64.2379 32.8304C62.6361 34.4489 60.4605 35.3701 58.1835 35.3939C58.7299 34.2379 59.0129 32.9751 59.0122 31.6965V24.1036C59.0119 23.8248 58.901 23.5574 58.7038 23.3602C58.5066 23.163 58.2393 23.0521 57.9604 23.0518H45.6113L48.1548 19.8262C48.5765 19.291 49.1138 18.858 49.7265 18.56C50.3392 18.2619 51.0114 18.1063 51.6928 18.105H65.6853C65.9645 18.105 66.2323 18.2159 66.4297 18.4132C66.6272 18.6106 66.7382 18.8783 66.7384 19.1574Z" fill="#FB7333"/>
<path d="M26.4209 7.22463V3.07531C26.4209 1.92786 27.6589 1.00033 29.1869 1.00033C29.887 0.990392 30.5722 1.2029 31.1439 1.60722C31.3835 1.77187 31.5814 1.99011 31.722 2.24462C31.8625 2.49913 31.9418 2.78286 31.9535 3.07336V7.22268" stroke="#FB7333" stroke-miterlimit="10" stroke-linecap="round"/>
<path d="M14.8034 3.97559H8.42871" stroke="#DBDAE1" stroke-miterlimit="10" stroke-linecap="round"/>
<path d="M11.6133 7.16324L11.6375 1.03076" stroke="#DBDAE1" stroke-miterlimit="10" stroke-linecap="round"/>
<path d="M61.6579 42.811H55.2832" stroke="#DBDAE1" stroke-miterlimit="10" stroke-linecap="round"/>
<path d="M58.4688 46.0002L58.493 39.8677" stroke="#DBDAE1" stroke-miterlimit="10" stroke-linecap="round"/>
<path d="M49.2465 34.0227C50.7741 34.0227 52.0124 32.7843 52.0124 31.2567C52.0124 29.7291 50.7741 28.4907 49.2465 28.4907C47.7188 28.4907 46.4805 29.7291 46.4805 31.2567C46.4805 32.7843 47.7188 34.0227 49.2465 34.0227Z" stroke="#FB7333" stroke-miterlimit="10" stroke-linecap="round"/>
<path d="M49.9319 39.8999H12.5761C10.2157 39.8995 7.90329 39.2336 5.90431 37.9785C3.90533 36.7234 2.30082 34.93 1.27494 32.8042V32.8042C1.07142 32.3826 0.978296 31.9161 1.00426 31.4486C1.03021 30.9811 1.17442 30.5278 1.42337 30.1312C1.67233 29.7347 2.01787 29.4079 2.42763 29.1813C2.8374 28.9548 3.29797 28.836 3.76619 28.836H35.161C35.5614 28.8361 35.9566 28.7453 36.3168 28.5705C36.677 28.3957 36.9928 28.1415 37.2404 27.8269L39.9943 24.3304C40.4156 23.7943 40.9531 23.3608 41.5663 23.0626C42.1795 22.7645 42.8524 22.6094 43.5342 22.6091H57.5235C57.8023 22.6091 58.0697 22.7199 58.2668 22.9171C58.4639 23.1142 58.5747 23.3816 58.5747 23.6604V31.2533C58.5751 32.3884 58.3519 33.5126 57.9179 34.5615C57.4839 35.6104 56.8475 36.5636 56.0452 37.3665C55.2428 38.1695 54.2901 38.8066 53.2415 39.2414C52.1929 39.6762 51.0689 39.9001 49.9338 39.9005L49.9319 39.8999Z" stroke="#3F2355" stroke-miterlimit="10" stroke-linecap="round"/>
<path d="M8.44434 27.9711L12.2328 20.3297C12.7121 19.5021 13.3998 18.8145 14.2274 18.3352C15.055 17.856 15.9938 17.6019 16.9501 17.5981H41.8638C42.794 17.6025 43.7052 17.8623 44.4979 18.349C45.2906 18.8357 45.9344 19.5308 46.3592 20.3584L47.0828 21.7475" stroke="#3F2355" stroke-miterlimit="10" stroke-linecap="round"/>
<path d="M32.7069 17.6012H16.6279L19.3053 9.95978C19.8994 8.26474 20.9698 7.22827 22.1242 7.22827H37.0194C38.1439 7.22827 39.1772 8.28901 39.707 9.98787L40.1392 11.3775L42.2141 17.6012H32.7069Z" stroke="#3F2355" stroke-miterlimit="10" stroke-linecap="round"/>
<path d="M20.7107 24.4673C21.4521 24.4673 22.0532 23.8662 22.0532 23.1247C22.0532 22.3833 21.4521 21.7822 20.7107 21.7822C19.9692 21.7822 19.3682 22.3833 19.3682 23.1247C19.3682 23.8662 19.9692 24.4673 20.7107 24.4673Z" fill="#3F2355"/>
<path d="M25.6072 24.4685C26.3486 24.4685 26.9497 23.8674 26.9497 23.126C26.9497 22.3845 26.3486 21.7834 25.6072 21.7834C24.8657 21.7834 24.2646 22.3845 24.2646 23.126C24.2646 23.8674 24.8657 24.4685 25.6072 24.4685Z" fill="#3F2355"/>
<path d="M26.9363 14.0947C27.6777 14.0947 28.2788 13.4936 28.2788 12.7522C28.2788 12.0107 27.6777 11.4097 26.9363 11.4097C26.1948 11.4097 25.5938 12.0107 25.5938 12.7522C25.5938 13.4936 26.1948 14.0947 26.9363 14.0947Z" fill="#3F2355"/>
<path d="M31.8318 14.0947C32.5732 14.0947 33.1743 13.4936 33.1743 12.7522C33.1743 12.0107 32.5732 11.4097 31.8318 11.4097C31.0903 11.4097 30.4893 12.0107 30.4893 12.7522C30.4893 13.4936 31.0903 14.0947 31.8318 14.0947Z" fill="#3F2355"/>
<path d="M30.4968 24.4673C31.2383 24.4673 31.8393 23.8662 31.8393 23.1247C31.8393 22.3833 31.2383 21.7822 30.4968 21.7822C29.7554 21.7822 29.1543 22.3833 29.1543 23.1247C29.1543 23.8662 29.7554 24.4673 30.4968 24.4673Z" fill="#3F2355"/>
</svg>
