<svg width="202" height="161" viewBox="0 0 202 161" fill="none" xmlns="http://www.w3.org/2000/svg">
<path d="M86.2598 141.295C90.9255 144.273 94.0483 152.393 92.2149 155.993C89.0392 162.23 79.7077 161.652 68.4088 152.089C60.3608 145.277 47.7671 141.429 50.9985 136.936C54.389 132.223 72.9517 132.806 86.2598 141.295Z" fill="#EBFCF5"/>
<path d="M82.716 133.046C100.868 141.156 102.462 153.95 124.019 157.522C141.993 160.502 165.003 159.565 179.003 143.05C187.688 132.806 189.638 117.813 188.494 110.035C184.25 81.1673 175.379 84.6416 171.796 60.788C168.584 39.4041 172.85 35.7541 165.38 21.4135C164.175 19.1001 157.96 7.73139 145.662 2.6554C128.609 -4.37956 115.268 3.57623 88.4281 14.6798C62.37 25.4597 47.2341 4.48037 16.2871 23.3361C-5.50427 36.6134 -0.581684 68.0963 3.73807 82.5011C5.46542 88.2608 11.5739 99.2165 19.753 107.103C39.5631 126.207 60.5479 123.143 82.716 133.046Z" fill="#EBFCF5"/>
<path d="M182.143 59.3198C178.554 63.2405 177.647 60.8798 177.262 62.0853C174.731 69.9937 172.136 86.3294 177.552 90.0297C179.138 91.1124 180.187 91.2436 181.35 92.3598C185.168 96.0294 181.54 103.092 185.053 107.602C186.605 109.594 188.458 110.811 190.517 110.973C197.184 111.495 203.29 102.127 201.763 97.1372C200.742 93.797 195.825 90.5487 195.66 87.5182C195.607 86.5052 195.747 85.7631 195.747 85.7631C196.096 84.072 197.94 82.5539 197.843 79.8415C197.625 73.8195 193.406 68.5258 192.245 66.645C192.245 66.645 192.242 66.645 192.242 66.6394C192.111 66.4776 188.304 60.1235 182.143 59.3198Z" fill="url(#paint0_linear_13965_13013)"/>
<path opacity="0.7" d="M192.337 101.264C192.041 98.2505 191.578 95.0329 190.883 91.6452C189.052 82.7071 186.128 75.1002 183.173 68.9917C183.985 70.7107 185.64 74.8741 184.437 79.7157C184.027 81.3705 183.374 82.7295 182.737 83.7816" stroke="white" stroke-width="0.697" stroke-miterlimit="10"/>
<path d="M182.143 59.3198C178.554 63.2405 177.647 60.8798 177.262 62.0853C174.731 69.9937 172.136 86.3294 177.552 90.0297C179.138 91.1124 180.187 91.2436 181.35 92.3598C185.168 96.0294 181.54 103.092 185.053 107.602C186.605 109.594 188.458 110.811 190.517 110.973C197.184 111.495 203.29 102.127 201.763 97.1372C200.742 93.797 195.825 90.5487 195.66 87.5182C195.607 86.5052 195.747 85.7631 195.747 85.7631C196.096 84.072 197.94 82.5539 197.843 79.8415C197.625 73.8195 193.406 68.5258 192.245 66.645C192.245 66.645 192.242 66.645 192.242 66.6394C192.111 66.4776 188.304 60.1235 182.143 59.3198Z" fill="url(#paint1_linear_13965_13013)"/>
<path d="M174.738 60.6199C173.572 61.5464 171.78 61.2422 168.194 60.6338C163.668 59.8664 146.64 50.9674 143.978 43.8599C142.443 39.7606 145.281 38.1309 143.445 35.1478C140.688 30.6718 136.432 31.8354 131.552 26.2655C130.818 25.4283 129.277 22.8443 129.66 20.1375C130.413 14.7992 140.64 9.94642 146.727 12.7314C152.383 15.321 152.04 23.2071 157.434 23.6089C158.997 23.7261 160.007 23.5923 161.394 23.6732C169.324 24.1309 180.269 56.2248 174.738 60.6199Z" fill="url(#paint2_linear_13965_13013)"/>
<path opacity="0.7" d="M139.277 19.4678C144.356 22.3783 150.744 26.7093 157.173 33.0103C164.819 40.5029 172.387 56.7662 175.49 62.445" stroke="white" stroke-width="0.9921" stroke-miterlimit="10"/>
<path d="M168.19 60.6338C163.664 59.8664 146.636 50.9674 143.974 43.8599C142.439 39.7606 145.277 38.1309 143.441 35.1478C140.684 30.6718 136.428 31.8354 131.548 26.2655C130.814 25.4283 129.273 22.8443 129.656 20.1375C130.409 14.7992 140.637 9.94642 146.723 12.7314C152.379 15.321 152.036 23.2071 157.43 23.6089C158.993 23.7261 160.003 23.5923 161.39 23.6732C169.323 24.1336 180.265 56.2276 174.734 60.6227C174.673 60.6729 174.606 60.7176 174.542 60.7595C174.876 61.3399 175.192 61.9036 175.49 62.4506L174.064 60.9967C172.892 61.4292 171.157 61.1361 168.19 60.6338Z" fill="url(#paint3_linear_13965_13013)"/>
<path d="M183.072 60.3353C183.596 60.0004 185.488 52.0111 186.298 48.1629C188.226 39.0155 188.759 34.4418 186.234 31.9666C184.009 29.7872 182.483 31.2021 180.918 29.0813C178.713 26.0954 182.134 21.9653 179.695 17.2995C179.383 16.7024 177.639 14.5955 175.688 13.9844C171.036 12.5305 164.146 19.0855 164.305 24.5355C164.453 29.5975 170.76 32.0392 169.669 36.158C169.13 38.1951 167.769 38.2621 167.322 40.0899C165.988 45.5537 178.646 63.1593 183.072 60.3353Z" fill="url(#paint4_linear_13965_13013)"/>
<path opacity="0.7" d="M172.498 23.8184C172.585 24.2872 172.727 25.0351 172.925 25.9476C175.127 36.055 178.361 39.6436 179.634 46.4581C180.052 48.7017 180.409 52.0922 179.781 56.4594" stroke="white" stroke-width="1.088" stroke-miterlimit="10"/>
<path d="M167.326 40.0945C167.772 38.2667 169.134 38.1997 169.673 36.1626C170.761 32.0438 164.457 29.602 164.309 24.5399C164.15 19.09 171.037 12.5378 175.692 13.9889C177.642 14.5972 179.384 16.7042 179.699 17.3041C182.138 21.9699 178.717 26.0998 180.921 29.0857C182.487 31.2065 184.01 29.7918 186.237 31.9712C188.763 34.4464 188.23 39.02 186.301 48.1674C185.489 52.0184 183.6 60.0049 183.076 60.3398C178.647 63.161 165.989 45.5555 167.326 40.0945Z" fill="url(#paint5_linear_13965_13013)"/>
<path d="M96.5568 88.7626L87.9954 113.9L84.8867 114.235L31.1576 120.031C29.7763 120.178 28.4508 119.857 27.3486 119.191C25.7608 118.239 24.6223 116.579 24.4102 114.597L16.6162 42.3308C16.4013 40.3467 17.1604 38.4826 18.5082 37.2101C19.1584 36.599 19.9424 36.1273 20.8215 35.8455C20.9052 35.8176 20.9918 35.7925 21.0783 35.7674C21.3908 35.6809 21.7173 35.6195 22.0494 35.5832L31.6433 34.5479L95.834 27.6274L84.2477 53.7246L96.5568 88.7626Z" fill="url(#paint6_linear_13965_13013)"/>
<path opacity="0.8" d="M93.4202 89.1811L84.8867 114.234L31.1576 120.03C29.7763 120.178 28.4508 119.857 27.3486 119.19C25.7608 118.239 24.6223 116.578 24.4102 114.597L16.6162 42.3307C16.4013 40.3466 17.1604 38.4825 18.5082 37.21C19.1584 36.5989 19.9424 36.1272 20.8215 35.8454C20.9052 35.8175 20.9918 35.7924 21.0783 35.7673L28.5066 34.9664L92.6975 28.0459L81.1112 54.143L93.4202 89.1811Z" fill="url(#paint7_linear_13965_13013)"/>
<path d="M185.749 62.0511L173.049 133.617C172.458 136.946 169.279 139.168 165.947 138.579L45.0611 117.125C41.732 116.534 39.5107 113.355 40.0995 110.023L52.7993 38.4571C53.3909 35.128 56.5692 32.9039 59.9011 33.4955L180.787 54.9491C184.119 55.5407 186.341 58.722 185.749 62.0511Z" fill="url(#paint8_linear_13965_13013)"/>
<path d="M182.746 61.522L170.046 133.088C169.454 136.417 166.276 138.641 162.944 138.05L42.0579 116.596C38.726 116.005 36.5048 112.826 37.0964 109.494L49.7961 37.9279C50.3877 34.5988 53.5633 32.3748 56.898 32.9664L177.784 54.42C181.113 55.0116 183.335 58.1901 182.746 61.522Z" fill="url(#paint9_linear_13965_13013)"/>
<path opacity="0.7" d="M182.746 61.5207L171.263 126.233C164.585 125.96 160.695 123.881 158.292 121.461C151.305 114.421 157.078 104.668 149.134 95.4703C141.094 86.1611 134.316 92.4426 124.842 82.6841C116.443 74.0307 122.565 66.672 114.126 60.1254C105.626 53.5286 100.213 58.9673 94.3582 53.1742C91.9834 50.8217 89.9937 46.7057 90.51 38.9341L177.784 54.4216C181.113 55.0104 183.335 58.1888 182.746 61.5207Z" fill="url(#paint10_linear_13965_13013)"/>
<path opacity="0.7" d="M182.746 61.5207L176.3 97.8508C173.596 96.9606 171.667 95.6545 170.255 94.2314C163.265 87.1908 169.039 77.438 161.097 68.2404C153.057 58.9311 143.528 64.727 134.054 54.9657C130.92 51.7398 129.581 48.6507 128.69 45.7095L177.784 54.4216C181.113 55.0104 183.335 58.1888 182.746 61.5207Z" fill="url(#paint11_linear_13965_13013)"/>
<path d="M182.746 61.5209L170.046 133.087C169.7 135.032 168.472 136.6 166.845 137.449C167.811 136.572 168.506 135.378 168.751 133.991L181.451 62.4249C182.043 59.0958 179.822 55.9147 176.49 55.3231L55.6033 33.8693C54.2192 33.6237 52.8574 33.8638 51.7021 34.4694C53.0584 33.2332 54.9504 32.6192 56.8982 32.9653L177.784 54.4189C181.113 55.0105 183.335 58.189 182.746 61.5209Z" fill="url(#paint12_linear_13965_13013)"/>
<path d="M72.0738 90.9469L53.3772 87.629C51.8201 87.3528 50.7708 85.8514 51.0471 84.2943L51.0835 84.0906C51.3597 82.5335 52.861 81.4842 54.4181 81.7605L73.1147 85.0785C74.6718 85.3547 75.7211 86.8561 75.4448 88.4132L75.4086 88.6169C75.1323 90.174 73.631 91.2232 72.0738 90.9469Z" fill="url(#paint13_linear_13965_13013)"/>
<path d="M102.141 96.2826L83.4446 92.9646C81.8875 92.6883 80.8382 91.1871 81.1145 89.63L81.1508 89.4263C81.4271 87.8692 82.9283 86.8199 84.4855 87.0962L103.182 90.4141C104.739 90.6904 105.788 92.1916 105.512 93.7488L105.476 93.9525C105.2 95.5096 103.701 96.5589 102.141 96.2826Z" fill="url(#paint14_linear_13965_13013)"/>
<path d="M132.213 101.618L113.516 98.3001C111.959 98.0238 110.909 96.5226 111.186 94.9654L111.222 94.7617C111.498 93.2046 113 92.1553 114.557 92.4316L133.253 95.7495C134.81 96.0257 135.86 97.5271 135.583 99.0842L135.547 99.2879C135.271 100.845 133.77 101.894 132.213 101.618Z" fill="url(#paint15_linear_13965_13013)"/>
<path d="M162.284 106.954L143.587 103.636C142.03 103.359 140.981 101.858 141.257 100.301L141.293 100.097C141.57 98.5401 143.071 97.4908 144.628 97.7671L163.325 101.085C164.882 101.361 165.931 102.863 165.655 104.42L165.619 104.624C165.339 106.183 163.841 107.23 162.284 106.954Z" fill="url(#paint16_linear_13965_13013)"/>
<path d="M72.2691 89.8475L53.5725 86.5297C52.0154 86.2534 50.9661 84.7521 51.2424 83.1949L51.2786 82.9912C51.5549 81.4341 53.0563 80.3848 54.6134 80.6611L73.31 83.9791C74.8671 84.2554 75.9164 85.7566 75.6401 87.3137L75.6038 87.5174C75.3275 89.0745 73.8263 90.1238 72.2691 89.8475Z" fill="url(#paint17_linear_13965_13013)"/>
<path d="M102.338 95.183L83.6409 91.865C82.0838 91.5887 81.0345 90.0875 81.3108 88.5304L81.347 88.3267C81.6233 86.7696 83.1246 85.7203 84.6818 85.9965L103.378 89.3145C104.935 89.5908 105.985 91.092 105.709 92.6492L105.672 92.8529C105.396 94.41 103.895 95.4593 102.338 95.183Z" fill="url(#paint18_linear_13965_13013)"/>
<path d="M132.409 100.519L113.712 97.2007C112.155 96.9244 111.106 95.4231 111.382 93.8659L111.418 93.6622C111.695 92.1051 113.196 91.056 114.753 91.3322L133.45 94.6501C135.007 94.9264 136.056 96.4277 135.78 97.9849L135.744 98.1886C135.467 99.7485 133.966 100.795 132.409 100.519Z" fill="url(#paint19_linear_13965_13013)"/>
<path d="M162.476 105.854L143.78 102.536C142.222 102.26 141.173 100.758 141.449 99.2013L141.486 98.9976C141.762 97.4405 143.263 96.3912 144.82 96.6674L163.517 99.9854C165.074 100.262 166.123 101.763 165.847 103.32L165.811 103.524C165.535 105.084 164.036 106.13 162.476 105.854Z" fill="url(#paint20_linear_13965_13013)"/>
<path d="M79.7555 49.3791L78.0085 59.2242C77.9555 59.5256 77.8634 59.8102 77.7407 60.0753C77.0933 61.4594 75.5724 62.305 73.9985 62.0259L58.9799 59.3609C57.4088 59.0818 56.2702 57.7647 56.139 56.2439C56.1139 55.9509 56.128 55.655 56.181 55.3508L57.9278 45.5059C57.978 45.224 58.0618 44.9534 58.1762 44.7022C58.8069 43.2874 60.3472 42.4196 61.935 42.7014L76.9538 45.3663C78.5472 45.6482 79.6913 46.9933 79.7973 48.5392C79.8196 48.8155 79.8057 49.0973 79.7555 49.3791Z" fill="url(#paint21_linear_13965_13013)"/>
<path d="M79.2616 48.9549L77.5594 58.5404C77.5063 58.8334 77.4198 59.1098 77.2998 59.3693C76.6691 60.7171 75.1846 61.5403 73.6526 61.2668L59.0134 58.6688C57.4842 58.3981 56.3736 57.1145 56.2453 55.6327C56.2229 55.3481 56.2341 55.0579 56.2871 54.7649L57.9893 45.1794C58.0368 44.9059 58.1177 44.6407 58.2293 44.3979C58.846 43.0194 60.3445 42.1739 61.8932 42.4501L76.5324 45.0481C78.0839 45.3244 79.2001 46.6332 79.3062 48.1401C79.3257 48.4052 79.3119 48.6786 79.2616 48.9549Z" fill="url(#paint22_linear_13965_13013)"/>
<path d="M78.5363 53.1462L73.4771 52.2477C74.1747 50.0962 76.3708 48.7261 78.6618 49.1307C78.8516 49.1642 79.0358 49.2088 79.2172 49.2647L79.2731 48.9521C79.3205 48.6786 79.3372 48.4023 79.3149 48.1344C79.167 48.0898 79.0135 48.059 78.8572 48.0311C75.9578 47.5177 73.1785 49.2898 72.3665 52.0496L68.4931 51.3631L69.8271 43.8538L68.6243 43.6416L67.2904 51.151L63.4171 50.4645C63.6041 47.5931 61.6032 44.9727 58.7039 44.4593C58.5476 44.4314 58.3914 44.4091 58.2379 44.4007C58.1263 44.6435 58.0454 44.9085 57.9979 45.182L57.9421 45.4946C58.1318 45.5029 58.3189 45.5252 58.5086 45.5587C60.7996 45.9662 62.3903 48.006 62.3038 50.2691L57.2444 49.3707L57.0295 50.5734L62.0972 51.4719C61.4163 53.6513 59.2034 55.0439 56.8956 54.6364C56.7058 54.603 56.5217 54.5583 56.3404 54.5025L56.2929 54.7704C56.2399 55.0634 56.2288 55.3536 56.2511 55.6382C56.3962 55.6773 56.5468 55.7107 56.6975 55.7386C59.6136 56.2549 62.4098 54.4606 63.2051 51.6729L67.0728 52.3593L65.7389 59.8687L66.9416 60.0836L68.2755 52.5742L72.1432 53.2607C71.9283 56.1517 73.9374 58.7999 76.8536 59.3162C77.0042 59.3441 77.1578 59.3635 77.3085 59.3775C77.4285 59.118 77.5177 58.8418 77.568 58.5488L77.6154 58.2808C77.4256 58.2724 77.2387 58.2501 77.049 58.2166C74.7412 57.8064 73.1422 55.7387 73.2538 53.456L78.3215 54.3545L78.5363 53.1462Z" fill="url(#paint23_linear_13965_13013)"/>
<path d="M62.4099 104.3C61.6872 108.372 57.8948 111.103 53.935 110.4C49.9781 109.697 47.355 105.829 48.0778 101.755C48.8005 97.681 52.5928 94.9519 56.5525 95.6551C60.5095 96.3583 63.1327 100.229 62.4099 104.3Z" fill="url(#paint24_linear_13965_13013)"/>
<path d="M73.6355 106.292C72.9128 110.364 69.1204 113.093 65.1606 112.392C63.6732 112.127 62.3756 111.416 61.371 110.417C61.0417 110.087 61.0334 109.549 61.3571 109.211C62.5459 107.972 63.3998 106.37 63.7235 104.534C64.1002 102.416 63.7095 100.348 62.7607 98.6183C64.2202 97.7169 65.981 97.3291 67.7781 97.6472C71.7351 98.3504 74.3583 102.221 73.6355 106.292Z" fill="url(#paint25_linear_13965_13013)"/>
<path d="M55.0929 109.8C59.0614 109.8 62.2785 106.583 62.2785 102.614C62.2785 98.6456 59.0614 95.4285 55.0929 95.4285C51.1243 95.4285 47.9072 98.6456 47.9072 102.614C47.9072 106.583 51.1243 109.8 55.0929 109.8Z" fill="url(#paint26_linear_13965_13013)"/>
<path d="M73.2533 105.837C72.5584 109.744 68.8303 112.347 64.9208 111.655C63.146 111.34 61.6419 110.4 60.5898 109.102C62.0493 107.863 63.1041 106.133 63.464 104.099C63.824 102.067 63.4306 100.077 62.4846 98.4115C63.919 97.552 65.6546 97.1865 67.4294 97.5019C71.3417 98.1995 73.9481 101.928 73.2533 105.837Z" fill="url(#paint27_linear_13965_13013)"/>
<path d="M158.084 130.014L124.703 124.09C123.09 123.803 122.005 122.248 122.289 120.635C122.577 119.022 124.131 117.937 125.744 118.222L159.125 124.146C160.738 124.433 161.823 125.988 161.538 127.601C161.251 129.216 159.697 130.302 158.084 130.014Z" fill="url(#paint28_linear_13965_13013)"/>
<path d="M111.805 121.802L94.2941 118.693C92.6812 118.406 91.5957 116.852 91.8803 115.239C92.1677 113.626 93.722 112.54 95.335 112.825L112.846 115.933C114.459 116.221 115.544 117.775 115.26 119.388C114.972 121.004 113.418 122.089 111.805 121.802Z" fill="url(#paint29_linear_13965_13013)"/>
<path d="M158.278 128.918L124.898 122.994C123.285 122.706 122.199 121.152 122.484 119.539C122.771 117.926 124.326 116.84 125.939 117.125L159.319 123.049C160.932 123.337 162.018 124.891 161.733 126.504C161.445 128.117 159.891 129.202 158.278 128.918Z" fill="url(#paint30_linear_13965_13013)"/>
<path d="M112 120.705L94.4894 117.597C92.8765 117.309 91.791 115.755 92.0756 114.142C92.363 112.529 93.9173 111.444 95.5303 111.728L113.041 114.837C114.654 115.124 115.739 116.679 115.455 118.292C115.167 119.904 113.613 120.99 112 120.705Z" fill="url(#paint31_linear_13965_13013)"/>
<path d="M160.084 118.752L156.364 118.091C154.751 117.803 153.666 116.249 153.951 114.636C154.238 113.023 155.792 111.937 157.405 112.222L161.125 112.883C162.738 113.171 163.824 114.725 163.539 116.338C163.251 117.951 161.697 119.037 160.084 118.752Z" fill="url(#paint32_linear_13965_13013)"/>
<path d="M145.037 116.081L141.318 115.42C139.705 115.132 138.619 113.578 138.904 111.965C139.191 110.352 140.745 109.267 142.358 109.551L146.078 110.213C147.691 110.5 148.777 112.055 148.492 113.667C148.205 115.28 146.65 116.366 145.037 116.081Z" fill="url(#paint33_linear_13965_13013)"/>
<path d="M160.28 117.652L156.56 116.991C154.947 116.704 153.861 115.149 154.146 113.536C154.433 111.923 155.988 110.838 157.601 111.122L161.32 111.784C162.933 112.071 164.019 113.626 163.734 115.239C163.447 116.851 161.892 117.937 160.28 117.652Z" fill="url(#paint34_linear_13965_13013)"/>
<path d="M145.233 114.982L141.513 114.32C139.9 114.033 138.814 112.479 139.099 110.866C139.386 109.253 140.941 108.167 142.554 108.452L146.274 109.113C147.886 109.401 148.972 110.955 148.687 112.568C148.4 114.181 146.846 115.269 145.233 114.982Z" fill="url(#paint35_linear_13965_13013)"/>
<path d="M153.897 27.524L161.691 99.7906C162.054 103.153 159.621 106.175 156.258 106.538L34.1916 119.704C30.829 120.067 27.8067 117.633 27.444 114.271L19.6501 42.0042C19.2873 38.6416 21.7206 35.6193 25.0832 35.2566L147.15 22.0908C150.515 21.728 153.535 24.1614 153.897 27.524Z" fill="url(#paint36_linear_13965_13013)"/>
<path d="M150.867 27.8533L158.661 100.12C159.024 103.482 156.59 106.505 153.228 106.867L31.1613 120.033C27.7959 120.396 24.7765 117.963 24.4137 114.6L16.6198 42.3334C16.2571 38.9708 18.6876 35.9487 22.053 35.5859L144.12 22.4201C147.482 22.0573 150.504 24.4907 150.867 27.8533Z" fill="url(#paint37_linear_13965_13013)"/>
<path opacity="0.7" d="M150.867 27.8533L157.913 93.1965C151.425 94.8011 147.108 93.8914 144.128 92.2366C135.452 87.4257 138.27 76.4506 128.074 69.8398C117.754 63.1481 112.999 71.0732 101.176 64.348C90.6943 58.3846 94.5173 49.6084 84.583 45.6793C74.5789 41.7195 70.8982 48.4531 63.6595 44.5268C60.7239 42.9334 57.6626 39.5344 55.9883 31.9274L144.116 22.4228C147.482 22.0573 150.504 24.4907 150.867 27.8533Z" fill="url(#paint38_linear_13965_13013)"/>
<path opacity="0.7" d="M150.867 27.8533L154.824 64.5378C151.978 64.4373 149.762 63.7229 148.01 62.749C139.331 57.9409 142.15 46.9656 131.956 40.352C121.636 33.6603 114.105 41.8841 102.281 35.1589C98.3717 32.9376 96.223 30.3452 94.5459 27.7695L144.12 22.4228C147.482 22.0573 150.504 24.4907 150.867 27.8533Z" fill="url(#paint39_linear_13965_13013)"/>
<path d="M150.867 27.8533L158.661 100.12C158.873 102.084 158.13 103.932 156.805 105.201C157.489 104.088 157.821 102.749 157.67 101.351L149.876 29.0839C149.513 25.7213 146.491 23.288 143.128 23.6508L21.0619 36.8165C19.6639 36.9671 18.4248 37.5783 17.4844 38.4825C18.4415 36.917 20.0852 35.798 22.0525 35.5859L144.119 22.4201C147.482 22.0573 150.504 24.4907 150.867 27.8533Z" fill="url(#paint40_linear_13965_13013)"/>
<path d="M52.8157 87.0186L33.9349 89.0556C32.361 89.2258 30.9378 88.0761 30.7676 86.505L30.7452 86.2986C30.575 84.7247 31.7247 83.3015 33.2958 83.1313L52.1767 81.0941C53.7505 80.9239 55.1737 82.0736 55.344 83.6447L55.3662 83.8513C55.5364 85.4223 54.3896 86.8483 52.8157 87.0186Z" fill="url(#paint41_linear_13965_13013)"/>
<path d="M83.18 83.745L64.2991 85.7822C62.7253 85.9524 61.3021 84.8026 61.1318 83.2316L61.1095 83.0251C60.9393 81.4513 62.089 80.0281 63.6601 79.8578L82.5409 77.8207C84.1148 77.6504 85.5378 78.8002 85.7081 80.3713L85.7304 80.5778C85.9006 82.1489 84.7538 83.5748 83.18 83.745Z" fill="url(#paint42_linear_13965_13013)"/>
<path d="M113.543 80.4689L94.6624 82.5059C93.0885 82.6761 91.6653 81.5265 91.4951 79.9554L91.4728 79.7489C91.3025 78.175 92.4523 76.7518 94.0234 76.5816L112.904 74.5445C114.478 74.3743 115.901 75.5241 116.071 77.0951L116.094 77.3016C116.264 78.8726 115.114 80.2986 113.543 80.4689Z" fill="url(#paint43_linear_13965_13013)"/>
<path d="M143.907 77.1957L125.027 79.2327C123.453 79.4029 122.03 78.2533 121.859 76.6822L121.837 76.4757C121.667 74.9018 122.817 73.4786 124.388 73.3084L143.268 71.2714C144.842 71.1011 146.265 72.2509 146.436 73.8219L146.458 74.0284C146.628 75.5994 145.478 77.0254 143.907 77.1957Z" fill="url(#paint44_linear_13965_13013)"/>
<path d="M52.6964 85.9078L33.8156 87.945C32.2417 88.1152 30.8187 86.9655 30.6484 85.3944L30.6261 85.188C30.4559 83.6141 31.6055 82.1909 33.1765 82.0207L52.0574 79.9835C53.6313 79.8133 55.0545 80.963 55.2247 82.5341L55.247 82.7407C55.4172 84.3145 54.2703 85.7404 52.6964 85.9078Z" fill="url(#paint45_linear_13965_13013)"/>
<path d="M83.0607 82.6344L64.1798 84.6716C62.606 84.8418 61.1828 83.692 61.0126 82.121L60.9903 81.9145C60.8201 80.3407 61.9697 78.9175 63.5408 78.7472L82.4216 76.7101C83.9955 76.5398 85.4187 77.6896 85.5889 79.2607L85.6113 79.4672C85.7815 81.0383 84.6346 82.4642 83.0607 82.6344Z" fill="url(#paint46_linear_13965_13013)"/>
<path d="M113.424 79.3583L94.5433 81.3953C92.9694 81.5655 91.5462 80.4159 91.376 78.8448L91.3536 78.6383C91.1834 77.0644 92.3331 75.6412 93.9042 75.471L112.785 73.4339C114.359 73.2637 115.782 74.4135 115.952 75.9845L115.975 76.191C116.145 77.7648 114.998 79.1908 113.424 79.3583Z" fill="url(#paint47_linear_13965_13013)"/>
<path d="M143.788 76.0851L124.908 78.1221C123.334 78.2923 121.91 77.1427 121.74 75.5717L121.718 75.3651C121.548 73.7912 122.697 72.368 124.268 72.1978L143.149 70.1608C144.723 69.9905 146.146 71.1403 146.317 72.7113L146.339 72.9178C146.509 74.4889 145.359 75.9148 143.788 76.0851Z" fill="url(#paint48_linear_13965_13013)"/>
<path d="M48.5828 44.963L49.6545 54.903C49.688 55.2072 49.6795 55.5058 49.6349 55.796C49.4005 57.3057 48.1754 58.5418 46.5876 58.712L31.4239 60.3474C29.8388 60.5176 28.3766 59.5715 27.8268 58.1484C27.7236 57.8749 27.651 57.5847 27.6175 57.2805L26.546 47.3406C26.5153 47.056 26.518 46.7742 26.5599 46.5007C26.772 44.9659 28.0055 43.7018 29.61 43.5288L44.7738 41.8935C46.3811 41.7204 47.8573 42.6916 48.3903 44.1455C48.488 44.4022 48.5521 44.6756 48.5828 44.963Z" fill="url(#paint49_linear_13965_13013)"/>
<path d="M47.9914 44.6886L49.035 54.3691C49.0657 54.6649 49.0602 54.955 49.0155 55.2396C48.7867 56.7103 47.5924 57.913 46.0436 58.0805L31.2621 59.6739C29.7161 59.8413 28.293 58.9204 27.7544 57.5307C27.6512 57.2628 27.5842 56.981 27.5507 56.6852L26.507 47.0048C26.4763 46.7286 26.4819 46.4523 26.521 46.1872C26.7275 44.6914 27.9301 43.4608 29.4956 43.2933L44.2772 41.6999C45.8455 41.5297 47.2826 42.4758 47.8045 43.8934C47.8993 44.1446 47.9635 44.4123 47.9914 44.6886Z" fill="url(#paint50_linear_13965_13013)"/>
<path d="M48.4651 48.9192L43.3556 49.469C43.4254 47.2058 45.1528 45.2775 47.4633 45.0292C47.6559 45.0096 47.8457 44.9985 48.0326 45.0041L47.9991 44.6887C47.9684 44.4124 47.907 44.1418 47.8122 43.8935C47.6587 43.8935 47.5024 43.9045 47.3433 43.9213C44.416 44.2366 42.2422 46.7147 42.2338 49.5917L38.3216 50.013L37.5039 42.4312L36.29 42.5624L37.1077 50.1442L33.1953 50.5656C32.573 47.7555 29.9192 45.7994 26.9947 46.1147C26.8356 46.1315 26.6822 46.1537 26.5316 46.1872C26.4925 46.4523 26.4896 46.7286 26.5175 47.0049L26.551 47.3202C26.7352 47.2755 26.9221 47.2448 27.1119 47.2225C29.4252 46.9741 31.5238 48.4894 32.0735 50.6856L26.964 51.2353L27.0951 52.4492L32.2102 51.8966C32.1655 54.1793 30.4298 56.1356 28.0997 56.3867C27.9072 56.4062 27.7174 56.4174 27.5305 56.4118L27.5584 56.6797C27.5891 56.9755 27.6588 57.2572 27.7621 57.5251C27.9128 57.5224 28.0663 57.5112 28.2198 57.4945C31.1638 57.1764 33.3487 54.6732 33.332 51.7739L37.236 51.3526L38.0536 58.9344L39.2675 58.8032L38.4499 51.2214L42.3538 50.8C42.9566 53.6352 45.6244 55.6164 48.5684 55.2983C48.7219 55.2816 48.8726 55.2592 49.0205 55.2285C49.0623 54.9467 49.0707 54.6565 49.04 54.3607L49.012 54.0928C48.8279 54.1375 48.641 54.1682 48.4512 54.1905C46.1211 54.4417 44.0087 52.9013 43.4785 50.68L48.5935 50.1275L48.4651 48.9192Z" fill="url(#paint51_linear_13965_13013)"/>
<path d="M47.2678 102.539C47.7115 106.65 44.8317 110.333 40.8356 110.763C36.8396 111.193 33.2398 108.21 32.7961 104.099C32.3524 99.989 35.2323 96.3054 39.2284 95.8756C43.2244 95.4459 46.8241 98.429 47.2678 102.539Z" fill="url(#paint52_linear_13965_13013)"/>
<path d="M58.6027 101.317C59.0464 105.43 56.1666 109.108 52.1677 109.541C50.6636 109.703 49.2209 109.382 47.9763 108.701C47.5661 108.478 47.4099 107.961 47.6248 107.548C48.4201 106.027 48.7912 104.25 48.593 102.397C48.3614 100.259 47.4099 98.3813 46.0146 96.9861C47.1644 95.7136 48.7466 94.8486 50.5605 94.6532C54.5621 94.2207 58.159 97.2065 58.6027 101.317Z" fill="url(#paint53_linear_13965_13013)"/>
<path d="M39.7726 110.149C43.7411 110.149 46.9582 106.932 46.9582 102.963C46.9582 98.995 43.7411 95.7778 39.7726 95.7778C35.804 95.7778 32.5869 98.995 32.5869 102.963C32.5869 106.932 35.804 110.149 39.7726 110.149Z" fill="url(#paint54_linear_13965_13013)"/>
<path d="M58.1097 100.988C58.5338 104.934 55.6819 108.475 51.7361 108.902C49.9446 109.095 48.2368 108.612 46.8638 107.66C47.9214 106.064 48.4489 104.108 48.2284 102.054C48.008 100.003 47.0731 98.2029 45.7002 96.8663C46.8387 95.6412 48.4013 94.807 50.1929 94.6116C54.1415 94.1875 57.6855 97.0393 58.1097 100.988Z" fill="url(#paint55_linear_13965_13013)"/>
<path d="M146.316 100.511L112.611 104.147C110.982 104.323 109.506 103.134 109.33 101.504C109.154 99.8744 110.343 98.3983 111.972 98.2225L145.677 94.5863C147.306 94.4105 148.782 95.5994 148.958 97.229C149.134 98.8587 147.945 100.335 146.316 100.511Z" fill="url(#paint56_linear_13965_13013)"/>
<path d="M99.5851 105.55L81.9015 107.456C80.2719 107.632 78.7956 106.443 78.6198 104.814C78.444 103.184 79.6328 101.708 81.2625 101.532L98.9462 99.6261C100.576 99.4503 102.052 100.639 102.228 102.269C102.404 103.899 101.215 105.375 99.5851 105.55Z" fill="url(#paint57_linear_13965_13013)"/>
<path d="M146.198 99.4001L112.494 103.036C110.865 103.212 109.388 102.023 109.213 100.393C109.037 98.7638 110.226 97.2877 111.855 97.1119L145.559 93.4757C147.189 93.2999 148.665 94.4888 148.841 96.1184C149.017 97.7481 147.825 99.2242 146.198 99.4001Z" fill="url(#paint58_linear_13965_13013)"/>
<path d="M99.465 104.443L81.7813 106.348C80.1516 106.524 78.6755 105.335 78.4997 103.706C78.3239 102.076 79.5126 100.6 81.1422 100.424L98.8231 98.5182C100.453 98.3424 101.929 99.5311 102.105 101.161C102.283 102.788 101.095 104.267 99.465 104.443Z" fill="url(#paint59_linear_13965_13013)"/>
<path d="M145.09 89.1364L141.334 89.5409C139.704 89.7167 138.228 88.528 138.052 86.8984C137.877 85.2687 139.065 83.7924 140.695 83.6166L144.451 83.2121C146.081 83.0363 147.557 84.225 147.733 85.8546C147.909 87.4843 146.72 88.9606 145.09 89.1364Z" fill="url(#paint60_linear_13965_13013)"/>
<path d="M129.899 90.7746L126.143 91.1791C124.513 91.3549 123.037 90.1662 122.861 88.5365C122.685 86.9069 123.874 85.4306 125.504 85.2548L129.26 84.8503C130.889 84.6744 132.366 85.8631 132.541 87.4928C132.717 89.1225 131.528 90.5988 129.899 90.7746Z" fill="url(#paint61_linear_13965_13013)"/>
<path d="M144.971 88.0258L141.215 88.4303C139.585 88.6061 138.109 87.4174 137.933 85.7878C137.757 84.1581 138.946 82.6818 140.576 82.506L144.332 82.1015C145.962 81.9257 147.438 83.1144 147.614 84.744C147.789 86.3737 146.601 87.85 144.971 88.0258Z" fill="url(#paint62_linear_13965_13013)"/>
<path d="M129.779 89.664L126.023 90.0685C124.393 90.2443 122.917 89.0556 122.741 87.4259C122.565 85.7963 123.754 84.32 125.384 84.1442L129.14 83.7397C130.769 83.5639 132.246 84.7525 132.421 86.3822C132.597 88.0119 131.408 89.4882 129.779 89.664Z" fill="url(#paint63_linear_13965_13013)"/>
<defs>
<linearGradient id="paint0_linear_13965_13013" x1="207.152" y1="119.045" x2="176.702" y2="66.1451" gradientUnits="userSpaceOnUse">
<stop stop-color="#C4DFCC"/>
<stop offset="0.1682" stop-color="#BBDAC6"/>
<stop offset="0.6814" stop-color="#A3CCB6"/>
<stop offset="0.9991" stop-color="#9AC7B0"/>
</linearGradient>
<linearGradient id="paint1_linear_13965_13013" x1="177.475" y1="79.1023" x2="199.863" y2="94.011" gradientUnits="userSpaceOnUse">
<stop offset="0.176" stop-color="#9AC7B0"/>
<stop offset="0.5317" stop-color="#ADD2BD" stop-opacity="0.4913"/>
<stop offset="0.8752" stop-color="#C4DFCC" stop-opacity="0"/>
</linearGradient>
<linearGradient id="paint2_linear_13965_13013" x1="152.622" y1="46.2912" x2="153.644" y2="15.6279" gradientUnits="userSpaceOnUse">
<stop offset="0.000857915" stop-color="#9AC7B0"/>
<stop offset="0.3186" stop-color="#A3CCB6"/>
<stop offset="0.8318" stop-color="#BBDAC6"/>
<stop offset="1" stop-color="#C4DFCC"/>
</linearGradient>
<linearGradient id="paint3_linear_13965_13013" x1="168.646" y1="51.3206" x2="140.471" y2="19.4461" gradientUnits="userSpaceOnUse">
<stop stop-color="#9AC7B0"/>
<stop offset="0.1829" stop-color="#A3CCB6" stop-opacity="0.791"/>
<stop offset="0.8752" stop-color="#C4DFCC" stop-opacity="0"/>
</linearGradient>
<linearGradient id="paint4_linear_13965_13013" x1="164.843" y1="39.5014" x2="184.511" y2="35.8826" gradientUnits="userSpaceOnUse">
<stop stop-color="#C4DFCC"/>
<stop offset="0.1682" stop-color="#BBDAC6"/>
<stop offset="0.6814" stop-color="#A3CCB6"/>
<stop offset="0.9991" stop-color="#9AC7B0"/>
</linearGradient>
<linearGradient id="paint5_linear_13965_13013" x1="181.771" y1="55.0277" x2="174.973" y2="28.766" gradientUnits="userSpaceOnUse">
<stop stop-color="#9AC7B0"/>
<stop offset="0.1829" stop-color="#A3CCB6" stop-opacity="0.791"/>
<stop offset="0.8752" stop-color="#C4DFCC" stop-opacity="0"/>
</linearGradient>
<linearGradient id="paint6_linear_13965_13013" x1="18.0623" y1="36.4218" x2="91.5606" y2="98.9661" gradientUnits="userSpaceOnUse">
<stop offset="0.0104" stop-color="#47B9E1"/>
<stop offset="0.2703" stop-color="#43B1DC"/>
<stop offset="0.6777" stop-color="#369ACD"/>
<stop offset="1" stop-color="#2A84BE"/>
</linearGradient>
<linearGradient id="paint7_linear_13965_13013" x1="55.0013" y1="43.0398" x2="55.0013" y2="104.98" gradientUnits="userSpaceOnUse">
<stop stop-color="#ADE3FA"/>
<stop offset="0.9997" stop-color="#CFF1FF"/>
</linearGradient>
<linearGradient id="paint8_linear_13965_13013" x1="97.3933" y1="58.1019" x2="146.119" y2="145.444" gradientUnits="userSpaceOnUse">
<stop offset="0.0104" stop-color="#47B9E1"/>
<stop offset="0.2703" stop-color="#43B1DC"/>
<stop offset="0.6777" stop-color="#369ACD"/>
<stop offset="1" stop-color="#2A84BE"/>
</linearGradient>
<linearGradient id="paint9_linear_13965_13013" x1="60.5006" y1="25.5557" x2="151.986" y2="136.371" gradientUnits="userSpaceOnUse">
<stop offset="0.0104" stop-color="#A5E0F4"/>
<stop offset="1" stop-color="#77BCDD"/>
</linearGradient>
<linearGradient id="paint10_linear_13965_13013" x1="84.2182" y1="74.3633" x2="177.523" y2="90.9186" gradientUnits="userSpaceOnUse">
<stop stop-color="#ADE3FA"/>
<stop offset="0.9997" stop-color="#CFF1FF"/>
</linearGradient>
<linearGradient id="paint11_linear_13965_13013" x1="124.941" y1="66.8078" x2="180.066" y2="76.5886" gradientUnits="userSpaceOnUse">
<stop stop-color="#ADE3FA"/>
<stop offset="0.9997" stop-color="#CFF1FF"/>
</linearGradient>
<linearGradient id="paint12_linear_13965_13013" x1="84.0912" y1="6.08029" x2="175.576" y2="116.895" gradientUnits="userSpaceOnUse">
<stop stop-color="#ADE3FA"/>
<stop offset="0.9997" stop-color="#CFF1FF"/>
</linearGradient>
<linearGradient id="paint13_linear_13965_13013" x1="115.634" y1="145.037" x2="89.6917" y2="115.932" gradientUnits="userSpaceOnUse">
<stop offset="0.0104" stop-color="#A5E0F4"/>
<stop offset="1" stop-color="#77BCDD"/>
</linearGradient>
<linearGradient id="paint14_linear_13965_13013" x1="129.74" y1="132.464" x2="103.797" y2="103.359" gradientUnits="userSpaceOnUse">
<stop offset="0.0104" stop-color="#A5E0F4"/>
<stop offset="1" stop-color="#77BCDD"/>
</linearGradient>
<linearGradient id="paint15_linear_13965_13013" x1="143.846" y1="119.891" x2="117.904" y2="90.7857" gradientUnits="userSpaceOnUse">
<stop offset="0.0104" stop-color="#A5E0F4"/>
<stop offset="1" stop-color="#77BCDD"/>
</linearGradient>
<linearGradient id="paint16_linear_13965_13013" x1="157.953" y1="107.317" x2="132.01" y2="78.2122" gradientUnits="userSpaceOnUse">
<stop offset="0.0104" stop-color="#A5E0F4"/>
<stop offset="1" stop-color="#77BCDD"/>
</linearGradient>
<linearGradient id="paint17_linear_13965_13013" x1="115.829" y1="143.938" x2="89.8867" y2="114.833" gradientUnits="userSpaceOnUse">
<stop stop-color="#ADE3FA"/>
<stop offset="0.9997" stop-color="#CFF1FF"/>
</linearGradient>
<linearGradient id="paint18_linear_13965_13013" x1="129.936" y1="131.365" x2="103.993" y2="102.26" gradientUnits="userSpaceOnUse">
<stop stop-color="#ADE3FA"/>
<stop offset="0.9997" stop-color="#CFF1FF"/>
</linearGradient>
<linearGradient id="paint19_linear_13965_13013" x1="144.042" y1="118.792" x2="118.1" y2="89.6866" gradientUnits="userSpaceOnUse">
<stop stop-color="#ADE3FA"/>
<stop offset="0.9997" stop-color="#CFF1FF"/>
</linearGradient>
<linearGradient id="paint20_linear_13965_13013" x1="158.148" y1="106.218" x2="132.205" y2="77.113" gradientUnits="userSpaceOnUse">
<stop stop-color="#ADE3FA"/>
<stop offset="0.9997" stop-color="#CFF1FF"/>
</linearGradient>
<linearGradient id="paint21_linear_13965_13013" x1="69.1045" y1="53.502" x2="76.5752" y2="61.5689" gradientUnits="userSpaceOnUse">
<stop stop-color="#F3A401"/>
<stop offset="0.4878" stop-color="#F39805"/>
<stop offset="1" stop-color="#F39007"/>
</linearGradient>
<linearGradient id="paint22_linear_13965_13013" x1="62.1957" y1="42.7472" x2="72.7071" y2="59.7371" gradientUnits="userSpaceOnUse">
<stop stop-color="#F9DE5B"/>
<stop offset="1" stop-color="#F3A401"/>
</linearGradient>
<linearGradient id="paint23_linear_13965_13013" x1="75.7555" y1="61.3954" x2="62.9334" y2="45.9575" gradientUnits="userSpaceOnUse">
<stop stop-color="#F9DE5B" stop-opacity="0.4"/>
<stop offset="1" stop-color="#FFE361"/>
</linearGradient>
<linearGradient id="paint24_linear_13965_13013" x1="60.7709" y1="110.845" x2="49.1314" y2="94.1837" gradientUnits="userSpaceOnUse">
<stop offset="0.0104" stop-color="#A5E0F4"/>
<stop offset="1" stop-color="#77BCDD"/>
</linearGradient>
<linearGradient id="paint25_linear_13965_13013" x1="56.5554" y1="90.6452" x2="73.3596" y2="114.699" gradientUnits="userSpaceOnUse">
<stop offset="0.0104" stop-color="#A5E0F4"/>
<stop offset="1" stop-color="#77BCDD"/>
</linearGradient>
<linearGradient id="paint26_linear_13965_13013" x1="45.3748" y1="94.5855" x2="73.0069" y2="117.162" gradientUnits="userSpaceOnUse">
<stop offset="0.1011" stop-color="#228DF5"/>
<stop offset="0.1702" stop-color="#2083E6"/>
<stop offset="0.4512" stop-color="#1A5BAF"/>
<stop offset="0.693" stop-color="#163F86"/>
<stop offset="0.8836" stop-color="#132D6D"/>
<stop offset="0.9993" stop-color="#122764"/>
</linearGradient>
<linearGradient id="paint27_linear_13965_13013" x1="48.8487" y1="90.3336" x2="76.4805" y2="112.91" gradientUnits="userSpaceOnUse">
<stop offset="0.1011" stop-color="#228DF5"/>
<stop offset="0.1702" stop-color="#2083E6"/>
<stop offset="0.4512" stop-color="#1A5BAF"/>
<stop offset="0.693" stop-color="#163F86"/>
<stop offset="0.8836" stop-color="#132D6D"/>
<stop offset="0.9993" stop-color="#122764"/>
</linearGradient>
<linearGradient id="paint28_linear_13965_13013" x1="224.012" y1="216.132" x2="183.354" y2="170.518" gradientUnits="userSpaceOnUse">
<stop offset="0.0104" stop-color="#A5E0F4"/>
<stop offset="1" stop-color="#77BCDD"/>
</linearGradient>
<linearGradient id="paint29_linear_13965_13013" x1="153.772" y1="173.547" x2="128.912" y2="145.656" gradientUnits="userSpaceOnUse">
<stop offset="0.0104" stop-color="#A5E0F4"/>
<stop offset="1" stop-color="#77BCDD"/>
</linearGradient>
<linearGradient id="paint30_linear_13965_13013" x1="224.206" y1="215.034" x2="183.548" y2="169.42" gradientUnits="userSpaceOnUse">
<stop stop-color="#ADE3FA"/>
<stop offset="0.9997" stop-color="#CFF1FF"/>
</linearGradient>
<linearGradient id="paint31_linear_13965_13013" x1="153.967" y1="172.448" x2="129.107" y2="144.557" gradientUnits="userSpaceOnUse">
<stop stop-color="#ADE3FA"/>
<stop offset="0.9997" stop-color="#CFF1FF"/>
</linearGradient>
<linearGradient id="paint32_linear_13965_13013" x1="160.68" y1="117.567" x2="149.548" y2="105.079" gradientUnits="userSpaceOnUse">
<stop offset="0.0104" stop-color="#A5E0F4"/>
<stop offset="1" stop-color="#77BCDD"/>
</linearGradient>
<linearGradient id="paint33_linear_13965_13013" x1="145.634" y1="114.898" x2="134.503" y2="102.41" gradientUnits="userSpaceOnUse">
<stop offset="0.0104" stop-color="#A5E0F4"/>
<stop offset="1" stop-color="#77BCDD"/>
</linearGradient>
<linearGradient id="paint34_linear_13965_13013" x1="146.177" y1="102.911" x2="176.434" y2="129.911" gradientUnits="userSpaceOnUse">
<stop stop-color="#ADE3FA"/>
<stop offset="0.9997" stop-color="#CFF1FF"/>
</linearGradient>
<linearGradient id="paint35_linear_13965_13013" x1="140.833" y1="108.898" x2="171.091" y2="135.898" gradientUnits="userSpaceOnUse">
<stop stop-color="#ADE3FA"/>
<stop offset="0.9997" stop-color="#CFF1FF"/>
</linearGradient>
<linearGradient id="paint36_linear_13965_13013" x1="67.875" y1="48.4981" x2="139.052" y2="118.757" gradientUnits="userSpaceOnUse">
<stop offset="0.0104" stop-color="#47B9E1"/>
<stop offset="0.2703" stop-color="#43B1DC"/>
<stop offset="0.6777" stop-color="#369ACD"/>
<stop offset="1" stop-color="#2A84BE"/>
</linearGradient>
<linearGradient id="paint37_linear_13965_13013" x1="23.3625" y1="27.5484" x2="142.152" y2="108.406" gradientUnits="userSpaceOnUse">
<stop offset="0.0104" stop-color="#A5E0F4"/>
<stop offset="1" stop-color="#77BCDD"/>
</linearGradient>
<linearGradient id="paint38_linear_13965_13013" x1="59.7656" y1="67.7915" x2="153.98" y2="57.6328" gradientUnits="userSpaceOnUse">
<stop stop-color="#ADE3FA"/>
<stop offset="0.9997" stop-color="#CFF1FF"/>
</linearGradient>
<linearGradient id="paint39_linear_13965_13013" x1="96.7586" y1="49.165" x2="152.42" y2="43.1632" gradientUnits="userSpaceOnUse">
<stop stop-color="#ADE3FA"/>
<stop offset="0.9997" stop-color="#CFF1FF"/>
</linearGradient>
<linearGradient id="paint40_linear_13965_13013" x1="40.5755" y1="2.26135" x2="159.364" y2="83.1187" gradientUnits="userSpaceOnUse">
<stop stop-color="#ADE3FA"/>
<stop offset="0.9997" stop-color="#CFF1FF"/>
</linearGradient>
<linearGradient id="paint41_linear_13965_13013" x1="109.666" y1="126.881" x2="76.6285" y2="106.179" gradientUnits="userSpaceOnUse">
<stop offset="0.0104" stop-color="#A5E0F4"/>
<stop offset="1" stop-color="#77BCDD"/>
</linearGradient>
<linearGradient id="paint42_linear_13965_13013" x1="119.7" y1="110.869" x2="86.6624" y2="90.1664" gradientUnits="userSpaceOnUse">
<stop offset="0.0104" stop-color="#A5E0F4"/>
<stop offset="1" stop-color="#77BCDD"/>
</linearGradient>
<linearGradient id="paint43_linear_13965_13013" x1="129.733" y1="94.8559" x2="96.6958" y2="74.1536" gradientUnits="userSpaceOnUse">
<stop offset="0.0104" stop-color="#A5E0F4"/>
<stop offset="1" stop-color="#77BCDD"/>
</linearGradient>
<linearGradient id="paint44_linear_13965_13013" x1="139.767" y1="78.8439" x2="106.73" y2="58.1416" gradientUnits="userSpaceOnUse">
<stop offset="0.0104" stop-color="#A5E0F4"/>
<stop offset="1" stop-color="#77BCDD"/>
</linearGradient>
<linearGradient id="paint45_linear_13965_13013" x1="109.547" y1="125.771" x2="76.5097" y2="105.069" gradientUnits="userSpaceOnUse">
<stop stop-color="#ADE3FA"/>
<stop offset="0.9997" stop-color="#CFF1FF"/>
</linearGradient>
<linearGradient id="paint46_linear_13965_13013" x1="119.581" y1="109.759" x2="86.5436" y2="89.0567" gradientUnits="userSpaceOnUse">
<stop stop-color="#ADE3FA"/>
<stop offset="0.9997" stop-color="#CFF1FF"/>
</linearGradient>
<linearGradient id="paint47_linear_13965_13013" x1="129.615" y1="93.7462" x2="96.577" y2="73.0439" gradientUnits="userSpaceOnUse">
<stop stop-color="#ADE3FA"/>
<stop offset="0.9997" stop-color="#CFF1FF"/>
</linearGradient>
<linearGradient id="paint48_linear_13965_13013" x1="139.649" y1="77.7342" x2="106.611" y2="57.0319" gradientUnits="userSpaceOnUse">
<stop stop-color="#ADE3FA"/>
<stop offset="0.9997" stop-color="#CFF1FF"/>
</linearGradient>
<linearGradient id="paint49_linear_13965_13013" x1="39.4284" y1="51.9819" x2="48.8546" y2="57.6415" gradientUnits="userSpaceOnUse">
<stop stop-color="#F3A401"/>
<stop offset="0.4878" stop-color="#F39805"/>
<stop offset="1" stop-color="#F39007"/>
</linearGradient>
<linearGradient id="paint50_linear_13965_13013" x1="29.7914" y1="43.5835" x2="44.6289" y2="56.9619" gradientUnits="userSpaceOnUse">
<stop stop-color="#F9DE5B"/>
<stop offset="1" stop-color="#F3A401"/>
</linearGradient>
<linearGradient id="paint51_linear_13965_13013" x1="48.0181" y1="57.7032" x2="31.3953" y2="46.4602" gradientUnits="userSpaceOnUse">
<stop stop-color="#F9DE5B" stop-opacity="0.4"/>
<stop offset="1" stop-color="#FFE361"/>
</linearGradient>
<linearGradient id="paint52_linear_13965_13013" x1="47.4379" y1="109.369" x2="31.609" y2="96.621" gradientUnits="userSpaceOnUse">
<stop offset="0.0104" stop-color="#A5E0F4"/>
<stop offset="1" stop-color="#77BCDD"/>
</linearGradient>
<linearGradient id="paint53_linear_13965_13013" x1="37.7502" y1="91.1501" x2="60.6028" y2="109.554" gradientUnits="userSpaceOnUse">
<stop offset="0.0104" stop-color="#A5E0F4"/>
<stop offset="1" stop-color="#77BCDD"/>
</linearGradient>
<linearGradient id="paint54_linear_13965_13013" x1="28.115" y1="98.0561" x2="60.9517" y2="112.018" gradientUnits="userSpaceOnUse">
<stop offset="0.1011" stop-color="#228DF5"/>
<stop offset="0.1702" stop-color="#2083E6"/>
<stop offset="0.4512" stop-color="#1A5BAF"/>
<stop offset="0.693" stop-color="#163F86"/>
<stop offset="0.8836" stop-color="#132D6D"/>
<stop offset="0.9993" stop-color="#122764"/>
</linearGradient>
<linearGradient id="paint55_linear_13965_13013" x1="30.264" y1="93.0033" x2="63.1006" y2="106.965" gradientUnits="userSpaceOnUse">
<stop offset="0.1011" stop-color="#228DF5"/>
<stop offset="0.1702" stop-color="#2083E6"/>
<stop offset="0.4512" stop-color="#1A5BAF"/>
<stop offset="0.693" stop-color="#163F86"/>
<stop offset="0.8836" stop-color="#132D6D"/>
<stop offset="0.9993" stop-color="#122764"/>
</linearGradient>
<linearGradient id="paint56_linear_13965_13013" x1="233.584" y1="164.882" x2="181.807" y2="132.438" gradientUnits="userSpaceOnUse">
<stop offset="0.0104" stop-color="#A5E0F4"/>
<stop offset="1" stop-color="#77BCDD"/>
</linearGradient>
<linearGradient id="paint57_linear_13965_13013" x1="154.249" y1="143.605" x2="122.589" y2="123.767" gradientUnits="userSpaceOnUse">
<stop offset="0.0104" stop-color="#A5E0F4"/>
<stop offset="1" stop-color="#77BCDD"/>
</linearGradient>
<linearGradient id="paint58_linear_13965_13013" x1="233.464" y1="163.772" x2="181.687" y2="131.328" gradientUnits="userSpaceOnUse">
<stop stop-color="#ADE3FA"/>
<stop offset="0.9997" stop-color="#CFF1FF"/>
</linearGradient>
<linearGradient id="paint59_linear_13965_13013" x1="154.129" y1="142.495" x2="122.469" y2="122.656" gradientUnits="userSpaceOnUse">
<stop stop-color="#ADE3FA"/>
<stop offset="0.9997" stop-color="#CFF1FF"/>
</linearGradient>
<linearGradient id="paint60_linear_13965_13013" x1="145.248" y1="87.9246" x2="131.072" y2="79.0417" gradientUnits="userSpaceOnUse">
<stop offset="0.0104" stop-color="#A5E0F4"/>
<stop offset="1" stop-color="#77BCDD"/>
</linearGradient>
<linearGradient id="paint61_linear_13965_13013" x1="130.057" y1="89.5627" x2="115.881" y2="80.6799" gradientUnits="userSpaceOnUse">
<stop offset="0.0104" stop-color="#A5E0F4"/>
<stop offset="1" stop-color="#77BCDD"/>
</linearGradient>
<linearGradient id="paint62_linear_13965_13013" x1="127.231" y1="77.9014" x2="163.823" y2="95.3774" gradientUnits="userSpaceOnUse">
<stop stop-color="#ADE3FA"/>
<stop offset="0.9997" stop-color="#CFF1FF"/>
</linearGradient>
<linearGradient id="paint63_linear_13965_13013" x1="123.771" y1="85.143" x2="160.364" y2="102.619" gradientUnits="userSpaceOnUse">
<stop stop-color="#ADE3FA"/>
<stop offset="0.9997" stop-color="#CFF1FF"/>
</linearGradient>
</defs>
</svg>
