<svg width="385" height="385" viewBox="0 0 385 385" fill="none" xmlns="http://www.w3.org/2000/svg">
<path d="M197.593 171.69H187.406L169.874 0H215.126L197.593 171.69Z" fill="url(#paint0_linear)"/>
<path d="M187.407 213.309H197.594L215.127 384.999H169.875L187.407 213.309Z" fill="url(#paint1_linear)"/>
<path d="M213.31 197.595V187.407L385 169.875V215.127L213.31 197.595Z" fill="url(#paint2_linear)"/>
<path d="M171.69 187.407V197.595L0 215.127V169.875L171.69 187.407Z" fill="url(#paint3_linear)"/>
<path d="M210.782 181.405L203.595 174.14L312.58 40.3574L344.643 72.421L210.782 181.405Z" fill="url(#paint4_linear)"/>
<path d="M174.139 203.596L181.405 210.782L72.4205 344.644L40.3569 312.58L174.139 203.596Z" fill="url(#paint5_linear)"/>
<path d="M203.596 210.782L210.782 203.596L344.644 312.58L312.58 344.644L203.596 210.782Z" fill="url(#paint6_linear)"/>
<path d="M181.404 174.138L174.138 181.403L40.356 72.419L72.4195 40.3555L181.404 174.138Z" fill="url(#paint7_linear)"/>
<path d="M208.807 117.594C208.807 117.594 212.598 110.802 217.337 113.724C225.076 118.463 222.628 129.124 222.628 129.124L220.89 124.386C220.89 124.386 223.26 131.888 219.469 137.022L219.864 132.125C219.864 132.125 216.863 139.233 211.572 140.023C206.28 140.812 205.412 140.812 204.859 143.971C204.306 147.13 208.57 149.263 207.228 149.026C202.41 148.236 202.884 142.076 202.884 142.076L202.095 146.499C202.095 146.499 195.935 134.652 196.408 129.124C196.882 123.596 199.409 119.805 199.409 119.805L196.25 120.99C196.172 120.99 205.648 105.985 208.807 117.594Z" fill="#333333"/>
<path d="M213.466 134.1C215.993 129.52 219.863 124.386 210.86 119.648C209.438 118.858 205.964 119.49 204.621 119.411C203.673 119.332 203.594 120.359 202.726 120.517C196.487 121.464 193.012 126.361 193.012 126.361C193.012 126.361 198.698 135.048 181.718 146.183C179.744 147.447 193.881 169.639 195.302 161.425C199.962 133.468 211.966 136.785 213.466 134.1Z" fill="#EABFA5"/>
<path d="M198.698 122.412C198.698 122.412 201.462 121.623 204.542 125.65C204.858 126.045 204.7 126.677 204.226 126.756C202.883 127.151 200.435 127.625 198.224 126.835C194.196 125.492 198.698 122.412 198.698 122.412Z" fill="#D84744"/>
<path d="M204.226 126.757C203.752 126.362 203.041 126.125 202.251 126.125C201.225 126.125 200.277 126.599 199.724 127.231C201.541 127.389 203.199 127.073 204.226 126.757Z" fill="#822A2A"/>
<path d="M203.989 126.282C203.989 126.282 201.304 123.675 198.382 123.36C198.382 123.36 200.988 124.149 198.224 124.228C198.224 124.228 197.434 123.833 197.829 123.202C197.829 123.123 198.303 122.807 198.619 122.57C198.777 122.412 199.013 122.333 199.25 122.412C200.277 122.491 203.041 123.044 203.989 126.282Z" fill="#EEF9F9"/>
<path d="M196.882 126.124C197.119 126.44 197.593 126.677 198.145 126.914C198.619 127.072 199.172 127.23 199.725 127.23C199.725 127.23 200.199 126.835 199.646 126.361C199.093 125.808 197.435 125.65 196.882 126.124Z" fill="#EEF9F9"/>
<path d="M198.225 126.915C199.488 127.31 200.831 127.388 201.937 127.231C201.305 126.915 200.436 126.678 199.488 126.678C199.015 126.678 198.541 126.757 198.067 126.836C198.067 126.836 198.146 126.836 198.225 126.915Z" fill="#FFABAB"/>
<path d="M192.538 135.203C193.17 141.679 189.537 155.974 188.668 159.212C188.747 159.369 188.905 159.448 188.984 159.606L196.329 155.816C199.646 141.995 205.016 137.967 208.886 136.23C207.385 135.519 205.885 134.809 204.384 134.098C195.302 129.596 192.854 126.279 192.854 126.279C192.854 126.279 195.223 129.833 192.538 135.203Z" fill="#D8A98F"/>
<path d="M213.545 132.754C213.545 132.754 215.44 133.228 214.019 135.203C212.597 137.177 208.096 137.256 209.201 134.729C210.307 132.202 213.545 132.754 213.545 132.754Z" fill="#EABFA5"/>
<path d="M207.622 122.961C207.622 122.961 211.413 121.224 212.44 125.962C212.44 125.962 211.492 122.803 207.622 122.961Z" fill="#822A2A"/>
<path d="M209.201 121.776C209.201 121.776 214.492 120.354 213.94 125.251C213.94 125.33 213.071 121.618 209.201 121.776Z" fill="#333333"/>
<path d="M204.068 119.33C204.068 119.33 207.069 119.488 207.227 121.067C207.148 121.146 207.622 117.671 204.068 119.33Z" fill="#333333"/>
<path d="M205.728 121.62C205.728 121.62 206.123 119.488 202.411 120.752C202.411 120.831 204.859 120.357 205.728 121.62Z" fill="#822A2A"/>
<path d="M203.515 121.7L202.883 121.147C202.883 121.147 203.199 120.437 204.858 121.068C206.516 121.7 207.701 121.305 207.701 121.305L204.621 123.517L203.515 121.7Z" fill="#F7CAB2"/>
<path d="M201.938 121.937L202.885 121.147C203.28 120.831 203.833 120.989 203.991 121.463L204.544 123.516C204.623 123.516 203.833 122.489 201.938 121.937Z" fill="#D8A98F"/>
<path d="M213.15 133.625C213.15 133.625 213.466 135.441 210.86 135.441C210.86 135.441 212.123 134.889 211.808 134.415C211.492 133.941 210.86 133.941 210.86 133.941C210.86 133.941 212.123 133.862 212.281 134.099C212.439 134.336 212.36 134.81 212.36 134.81L213.15 133.625Z" fill="#D8A98F"/>
<path d="M209.913 132.282C209.913 132.282 213.862 131.808 214.257 129.044C214.257 129.044 215.757 128.649 217.021 127.385C218.284 126.201 214.888 133.782 214.888 133.782C214.888 133.782 214.099 132.361 210.545 133.94L209.913 132.282Z" fill="#333333"/>
<path d="M216.074 40.2793C217.1 42.2537 219.864 41.8588 221.839 40.4373C223.734 39.0158 224.208 36.8045 223.892 34.9091C223.102 29.9337 217.258 27.7224 211.888 30.3286C204.938 33.5665 203.28 40.2004 203.043 46.1234C202.964 49.0455 204.227 54.3368 199.805 55.6793C197.041 56.548 195.619 54.2578 194.987 52.3624C194.593 51.0988 194.672 49.2034 196.646 48.7296C198.541 48.2557 199.884 50.388 197.515 50.388C197.594 51.0988 197.752 51.7306 197.831 52.4414C197.988 52.3624 198.067 52.2834 198.225 52.2045C199.805 51.4147 198.383 49.5983 196.883 50.388C196.725 50.467 196.646 50.546 196.488 50.625C195.54 51.0988 195.698 52.6783 196.804 52.6783C198.699 52.6783 201.147 52.2045 201.7 50.3091C202.253 48.4927 200.437 46.8342 198.62 46.4393C196.409 46.0445 194.04 47.1501 192.855 48.8875C191.355 51.0988 192.302 53.547 193.487 55.4424C194.751 57.4167 196.567 58.6014 199.41 58.1275C202.016 57.7326 204.148 56.0742 205.096 53.9419C206.202 51.3357 205.649 48.4927 205.728 45.8865C205.807 42.3327 206.281 38.384 209.045 35.304C211.572 32.4609 216.468 30.0127 219.706 32.6188C220.812 33.4876 221.365 34.9091 221.365 36.2517C221.365 36.8835 221.286 37.5942 220.891 38.147C220.733 38.384 218.917 39.7265 218.759 39.4896C217.969 38.147 215.363 39.0158 216.074 40.2793Z" fill="#E5A920"/>
<path d="M238.582 67.5275L234.08 54.1808L232.658 49.9162L228.236 36.5696C227.999 35.7798 226.972 35.385 226.025 35.7008C225.077 36.0167 224.524 36.8855 224.761 37.6752L224.84 37.8332C221.602 38.9388 218.759 40.9921 217.022 43.5983C215.837 45.3357 214.81 47.547 214.415 50.0742C213.863 53.47 211.178 56.55 207.308 57.8136L207.071 57.8926C204.544 58.7613 201.938 58.6823 199.647 57.8136L197.12 56.787C196.014 56.3921 194.672 56.3131 193.487 56.787L195.383 62.3941L196.804 66.6587L198.7 72.2659C199.884 71.871 200.99 71.0813 201.543 70.0546L202.964 67.6854C204.228 65.6321 206.36 63.9736 208.887 63.1839L209.124 63.1049C212.915 61.8413 216.943 62.6311 219.47 65.0793C221.286 66.8167 223.497 67.9223 225.472 68.6331C228.473 69.6598 231.948 69.5808 235.186 68.5541L235.265 68.7121C235.502 69.5018 236.528 69.8967 237.476 69.5808C238.266 69.2649 238.818 68.3172 238.582 67.5275Z" fill="#E5A920"/>
<path d="M214.415 56.153C215.758 54.8104 217.969 51.8094 219.233 50.3089C220.97 48.3345 223.418 46.6761 226.261 45.5704C226.577 45.4125 234.87 68.7888 235.185 68.7099L227.288 45.1755L227.209 45.0176C226.972 44.3858 227.604 43.675 228.552 43.3591C229.499 43.0432 230.447 43.2802 230.605 43.833L228.078 36.4094C227.841 35.6197 226.814 35.2248 225.866 35.5407C224.919 35.8566 224.366 36.7253 224.603 37.515L224.682 37.673C221.444 38.7786 218.601 40.832 216.863 43.4381C215.679 45.1755 214.652 47.3868 214.257 49.914C213.704 53.3099 211.019 56.3899 207.15 57.6535L206.913 57.7324C204.385 58.6012 201.779 58.5222 199.489 57.6535L196.962 56.6268C195.856 56.2319 194.514 56.153 193.329 56.6268L195.146 62.155C196.33 61.7601 198.62 61.5232 200.832 61.2073C200.99 61.4442 212.283 58.3642 214.415 56.153Z" fill="#C68D1A"/>
<path d="M226.656 71.9514C226.261 69.8191 228.788 68.3976 231.158 68.3976C233.527 68.3976 235.264 69.8981 236.133 71.6355C238.502 76.0581 235.185 81.3494 229.262 82.534C221.76 84.1135 216.389 79.8489 212.678 75.2684C210.861 72.9781 208.65 68.0027 204.306 69.5822C201.542 70.6089 201.858 73.294 202.49 75.1104C202.885 76.374 204.069 77.7955 205.965 77.0058C207.781 76.216 207.544 73.6889 205.649 75.1894C205.333 74.5576 205.017 73.9258 204.701 73.373C204.859 73.373 205.017 73.294 205.175 73.294C206.912 72.9781 206.912 75.2683 205.175 75.5842C205.017 75.5842 204.859 75.6632 204.701 75.6632C203.596 75.8212 202.885 74.4786 203.753 73.8468C205.175 72.6622 207.465 71.6355 209.045 72.8201C210.545 73.9258 210.15 76.374 208.887 77.7955C207.386 79.454 204.859 80.0068 202.806 79.375C200.279 78.5063 199.568 75.9791 199.331 73.7678C199.173 71.4776 199.884 69.3453 202.411 68.0027C204.78 66.7391 207.465 66.7391 209.519 67.9237C211.967 69.3453 213.23 71.8725 214.889 73.9258C217.1 76.6899 219.864 79.6119 223.892 80.4017C227.604 81.1124 233.053 80.1648 234.001 76.1371C234.317 74.7945 233.922 73.294 233.132 72.2673C232.737 71.7935 232.263 71.2407 231.631 71.0037C231.315 70.9248 229.025 70.9248 229.104 71.2407C229.499 72.5043 226.893 73.373 226.656 71.9514Z" fill="#E5A920"/>
<path d="M226.498 52.2057C226.893 52.2057 227.209 51.9688 227.446 51.6529C227.525 51.495 227.683 51.258 227.762 50.9421C227.762 50.8632 227.762 50.7052 227.683 50.6262C227.446 50.3103 226.261 49.0467 225.156 49.0467C225.156 48.8888 225.077 48.7309 224.998 48.6519C224.84 48.4939 223.418 47.7042 222.471 48.0991C222.392 48.0201 222.392 47.9411 222.313 47.8621C222.313 47.8621 222.234 47.8621 222.234 47.7832C221.997 47.6252 220.575 47.5462 219.786 48.178C219.707 48.0991 219.628 48.0991 219.549 48.0991C219.549 48.0991 219.549 48.0991 219.47 48.0991C218.996 48.0991 217.89 48.5729 217.416 49.4416C217.337 49.4416 217.258 49.4416 217.258 49.4416H217.179H217.1C216.548 49.6785 215.758 50.7052 215.6 51.6529H215.521H215.442C215.363 51.6529 215.363 51.7319 215.284 51.7319C214.81 52.2057 214.336 53.8642 214.573 54.7329C214.573 54.8119 214.652 54.8908 214.652 54.9698C214.889 55.6806 215.363 56.0755 216.074 56.1544C216.153 56.2334 216.232 56.2334 216.39 56.3124C216.942 56.5493 217.574 56.4703 217.969 56.0755C218.364 55.6806 218.68 55.0488 218.838 54.496V54.417C218.917 54.338 218.917 54.1801 218.917 54.1011V54.0221C219.312 53.7852 219.628 53.3903 219.786 53.1534C219.864 53.0744 219.943 52.9165 219.943 52.8375C220.417 52.7585 220.812 52.5216 220.97 52.4426C221.049 52.3637 221.207 52.3637 221.207 52.2057C221.681 52.2847 222.076 52.2847 222.313 52.2847C222.471 52.2847 222.55 52.2847 222.629 52.2057C223.023 52.5216 223.497 52.6796 223.734 52.7585C223.892 52.8375 223.971 52.8375 224.129 52.7585C224.445 53.2324 224.919 53.5483 225.156 53.7852L225.235 53.8642C225.393 54.0221 225.551 54.1011 225.788 54.0221C225.945 54.0221 226.024 53.9432 226.103 53.7852C226.498 53.3903 226.656 52.8375 226.498 52.2057ZM222.076 64.0519C222.155 64.0519 222.155 63.9729 222.234 63.8939C223.102 64.2888 224.366 63.9729 224.682 63.736C224.761 63.657 224.761 63.578 224.84 63.499C225.867 63.578 226.893 62.5513 227.051 62.3144V62.2354C227.051 62.1565 227.051 62.0775 227.051 61.9985C228.078 61.6826 228.71 60.1821 228.71 60.0242C228.71 59.9452 228.71 59.7872 228.631 59.6293C229.42 58.9975 229.657 57.2601 229.657 56.8652C229.657 56.7862 229.578 56.6283 229.499 56.5493C229.341 56.3914 229.025 56.2334 228.868 56.1544C228.473 55.9965 228.078 56.0755 227.762 56.3124C227.525 55.7596 227.051 55.3647 226.34 55.2857C226.182 55.2857 226.103 55.2857 225.945 55.2857C225.788 55.3647 225.63 55.5226 225.63 55.7596V55.8385C225.551 56.0755 225.393 56.7072 225.393 57.2601C225.235 57.339 225.156 57.418 225.077 57.576C224.919 57.7339 224.682 58.1288 224.524 58.6026C224.287 58.6026 224.05 58.7606 223.971 58.9975C224.05 58.8396 224.129 58.7606 224.129 58.6816C223.971 58.7606 223.576 58.9975 223.26 59.3924C223.102 59.3134 223.023 59.3134 222.866 59.3924C222.629 59.3924 222.234 59.4713 221.839 59.7083C221.76 59.6293 221.602 59.5503 221.444 59.5503C221.207 59.4713 220.733 59.3924 220.259 59.3924V59.3134C220.18 59.2344 220.101 59.0765 220.022 59.0765H219.943C219.47 58.7606 218.917 58.4447 218.285 58.3657C217.732 58.2867 217.258 58.6026 216.942 59.1555C216.864 59.3134 216.785 59.3924 216.785 59.4714C216.311 59.9452 216.153 60.577 216.39 61.2878C216.39 61.3667 216.469 61.4457 216.469 61.5247C216.864 62.3934 218.206 63.4201 218.917 63.499C218.996 63.499 218.996 63.499 219.075 63.499H219.154C219.154 63.499 219.233 63.499 219.233 63.4201C219.943 64.1308 221.207 64.3678 221.76 64.2888C221.918 64.1308 221.997 64.1308 222.076 64.0519C221.997 64.0519 222.076 64.0519 222.076 64.0519ZM222.629 59.6293C222.629 59.6293 222.629 59.5503 222.708 59.5503C222.629 59.5503 222.629 59.5503 222.629 59.6293Z" fill="#C68D1A"/>
<path d="M220.024 50.231C220.024 50.231 219.471 49.3623 219.945 48.7305C220.419 48.0197 221.92 48.2567 221.841 48.2567C221.13 48.8095 220.498 49.4413 220.024 50.231Z" fill="#EFB135"/>
<path d="M221.683 49.6754C221.13 50.0703 220.104 50.2283 220.104 50.2283C220.577 49.4385 221.209 48.8067 221.999 48.2539C221.92 48.2539 222.236 49.2016 221.683 49.6754Z" fill="#FCC34F"/>
<path d="M220.104 50.3887C220.104 50.3887 220.261 51.3364 220.814 51.6523C221.367 51.9682 222.157 51.8102 222.157 51.8102C221.604 51.2574 220.893 50.7046 220.104 50.3887Z" fill="#FCC34F"/>
<path d="M221.762 50.3891C221.13 49.8363 220.104 50.3101 220.104 50.3101C220.893 50.626 221.604 51.1788 222.236 51.8106C222.157 51.8106 222.315 50.8629 221.762 50.3891Z" fill="#EFB135"/>
<path d="M222.157 49.9925C222.157 49.9925 221.841 49.0448 222.473 48.6499C223.184 48.255 224.605 48.9658 224.526 49.0448C223.658 49.1237 222.789 49.5186 222.157 49.9925Z" fill="#EFB135"/>
<path d="M223.975 50.1486C223.343 50.3066 222.238 49.9907 222.159 49.9907C222.79 49.5168 223.659 49.1219 224.607 49.043C224.607 49.043 224.607 49.9907 223.975 50.1486Z" fill="#FCC34F"/>
<path d="M222.159 50.1484C222.159 50.1484 222.08 51.0172 222.554 51.57C223.027 52.0438 223.896 52.2807 223.896 52.2807C223.501 51.491 222.87 50.7802 222.159 50.1484Z" fill="#FCC34F"/>
<path d="M223.817 50.8592C223.343 50.1484 222.159 50.1484 222.159 50.1484C222.869 50.7802 223.501 51.491 223.896 52.2807C223.896 52.2807 224.291 51.491 223.817 50.8592Z" fill="#EFB135"/>
<path d="M224.365 50.6238C224.365 50.6238 224.286 49.5971 225.076 49.5971C225.866 49.5181 227.209 50.8607 227.13 50.9397C226.103 50.5448 225.155 50.4658 224.365 50.6238Z" fill="#EFB135"/>
<path d="M226.183 51.5716C225.472 51.4136 224.366 50.6239 224.366 50.6239C225.156 50.4659 226.104 50.5449 227.209 50.8608C227.209 50.9398 226.972 51.7295 226.183 51.5716Z" fill="#FCC34F"/>
<path d="M224.367 50.7812C224.367 50.7812 224.051 51.571 224.367 52.2028C224.683 52.8346 225.552 53.4664 225.552 53.4664C225.315 52.5977 224.92 51.65 224.367 50.7812Z" fill="#FCC34F"/>
<path d="M225.867 52.1227C225.551 51.254 224.288 50.7012 224.367 50.7012C224.92 51.5699 225.314 52.5176 225.551 53.4653C225.551 53.4653 226.183 52.9914 225.867 52.1227Z" fill="#EFB135"/>
<path d="M216.075 55.601C216.075 55.601 215.285 55.601 215.048 54.5744C214.811 53.4688 215.601 52.0472 215.601 52.1262C215.522 53.3898 215.68 54.5744 216.075 55.601Z" fill="#EFB135"/>
<path d="M216.391 53.3886C216.47 54.2573 216.076 55.5999 216.076 55.5999C215.76 54.4942 215.523 53.3096 215.602 52.125C215.523 52.125 216.313 52.5199 216.391 53.3886Z" fill="#FCC34F"/>
<path d="M216.155 55.6766C216.155 55.6766 216.866 56.1504 217.339 55.7555C217.813 55.3607 218.05 54.334 218.05 54.334C217.418 54.4919 216.708 54.9658 216.155 55.6766Z" fill="#FCC34F"/>
<path d="M216.945 53.8636C216.313 54.1795 216.155 55.6801 216.155 55.6801C216.708 54.9693 217.418 54.4954 218.05 54.3375C218.05 54.3375 217.497 53.5478 216.945 53.8636Z" fill="#EFB135"/>
<path d="M216.785 53.0711C216.785 53.0711 215.995 52.7552 215.995 51.8075C215.995 50.7808 217.101 49.9121 217.18 49.9121C216.864 50.9388 216.785 52.0444 216.785 53.0711Z" fill="#EFB135"/>
<path d="M217.654 51.3336C217.496 52.1234 216.785 52.9921 216.785 53.0711C216.706 52.0444 216.864 50.9388 217.18 49.9121C217.18 49.9121 217.811 50.5439 217.654 51.3336Z" fill="#FCC34F"/>
<path d="M216.942 53.1491C216.942 53.1491 217.495 53.8598 218.126 53.7019C218.679 53.5439 219.153 52.8332 219.232 52.8332C218.442 52.7542 217.653 52.8332 216.942 53.1491Z" fill="#FCC34F"/>
<path d="M218.127 51.9648C217.416 51.9648 216.863 53.1495 216.942 53.2284C217.732 52.9125 218.443 52.8336 219.153 52.9125C219.153 52.9125 218.759 51.9648 218.127 51.9648Z" fill="#EFB135"/>
<path d="M218.206 51.2606C218.206 51.2606 217.496 50.6288 217.811 49.839C218.127 48.9703 219.391 48.5754 219.391 48.6544C218.838 49.4441 218.443 50.3129 218.206 51.2606Z" fill="#EFB135"/>
<path d="M219.47 50.0728C219.076 50.7046 218.128 51.2574 218.128 51.2574C218.365 50.3097 218.76 49.441 219.313 48.5723C219.392 48.5723 219.865 49.441 219.47 50.0728Z" fill="#FCC34F"/>
<path d="M218.286 51.4141C218.286 51.4141 218.681 52.2828 219.313 52.4407C219.866 52.5197 220.576 52.0459 220.576 52.1248C219.866 51.651 219.076 51.4141 218.286 51.4141Z" fill="#FCC34F"/>
<path d="M219.787 50.7844C219.076 50.5475 218.286 51.3372 218.286 51.4162C219.076 51.4162 219.866 51.6531 220.576 52.048C220.576 52.048 220.418 51.0213 219.787 50.7844Z" fill="#EFB135"/>
<path d="M223.813 61.6055C223.813 61.6055 223.892 62.6321 224.682 62.7901C225.472 63.027 226.499 62.0003 226.499 62.0003C225.551 62.0793 224.682 61.9214 223.813 61.6055Z" fill="#EFB135"/>
<path d="M225.471 61.0508C224.76 61.0508 223.892 61.6036 223.892 61.6036C224.681 61.9195 225.629 62.0774 226.577 61.9985C226.498 61.9985 226.182 61.0508 225.471 61.0508Z" fill="#FCC34F"/>
<path d="M223.814 61.4474C223.814 61.4474 223.34 60.5786 223.656 60.0258C223.893 59.473 224.604 59.0781 224.683 59.0781C224.525 59.8679 224.209 60.6576 223.814 61.4474Z" fill="#FCC34F"/>
<path d="M225.077 60.4196C224.919 61.2093 223.813 61.5252 223.813 61.4462C224.287 60.6565 224.524 59.8668 224.603 58.998C224.603 58.998 225.235 59.6298 225.077 60.4196Z" fill="#EFB135"/>
<path d="M225.71 60.4979C225.71 60.4979 226.026 61.4456 226.816 61.3666C227.605 61.2876 228.316 59.7871 228.237 59.7871C227.368 60.261 226.5 60.4979 225.71 60.4979Z" fill="#EFB135"/>
<path d="M226.972 59.3109C226.341 59.5478 225.63 60.4955 225.63 60.4955C226.42 60.4955 227.367 60.2586 228.157 59.7848C228.236 59.7848 227.683 58.995 226.972 59.3109Z" fill="#FCC34F"/>
<path d="M225.63 60.3383C225.63 60.3383 224.999 59.7065 225.078 58.9958C225.157 58.285 225.709 57.6532 225.709 57.5742C225.788 58.4429 225.788 59.4696 225.63 60.3383Z" fill="#FCC34F"/>
<path d="M226.499 58.8371C226.578 59.7058 225.63 60.4165 225.63 60.4165C225.788 59.4689 225.867 58.5212 225.709 57.6524C225.63 57.5735 226.42 57.9683 226.499 58.8371Z" fill="#EFB135"/>
<path d="M227.055 58.6024C227.055 58.6024 227.608 59.4711 228.239 58.9973C228.95 58.6024 229.187 56.707 229.108 56.707C228.555 57.6547 227.765 58.2865 227.055 58.6024Z" fill="#EFB135"/>
<path d="M227.923 56.7853C227.45 57.4171 227.055 58.6017 227.055 58.6017C227.844 58.2068 228.555 57.654 229.108 56.7063C229.108 56.7063 228.397 56.1535 227.923 56.7853Z" fill="#FCC34F"/>
<path d="M226.975 58.5236C226.975 58.5236 226.264 58.1287 226.106 57.339C226.027 56.6282 226.343 55.6016 226.343 55.6016C226.659 56.5492 226.896 57.4969 226.975 58.5236Z" fill="#FCC34F"/>
<path d="M227.368 56.5484C227.605 57.4171 226.973 58.6017 226.973 58.6017C226.894 57.5751 226.657 56.5484 226.341 55.6797C226.262 55.6797 227.052 55.6797 227.368 56.5484Z" fill="#EFB135"/>
<path d="M217.418 59.709C217.418 59.709 216.786 60.1828 217.181 61.1305C217.655 62.1572 219.077 62.789 219.077 62.789C218.366 61.7623 217.813 60.7357 217.418 59.709Z" fill="#EFB135"/>
<path d="M218.998 61.2885C218.524 60.5777 217.418 59.788 217.418 59.709C217.813 60.8146 218.366 61.8413 219.077 62.789C219.077 62.789 219.472 61.9992 218.998 61.2885Z" fill="#FCC34F"/>
<path d="M217.497 59.5515C217.497 59.5515 217.734 58.7617 218.444 58.7617C219.076 58.8407 219.866 59.4725 219.866 59.4725C219.155 59.7094 218.365 59.7884 217.497 59.5515Z" fill="#FCC34F"/>
<path d="M219.156 60.5763C218.445 60.7343 217.418 59.5497 217.418 59.5497C218.287 59.7866 219.077 59.7076 219.788 59.4707C219.788 59.4707 219.867 60.4974 219.156 60.5763Z" fill="#EFB135"/>
<path d="M219.552 61.209C219.552 61.209 219.078 61.9987 219.71 62.7095C220.342 63.4992 221.763 63.5782 221.763 63.4992C220.894 62.8674 220.105 62.0777 219.552 61.209Z" fill="#EFB135"/>
<path d="M221.29 62.0777C220.658 61.5249 219.553 61.288 219.553 61.209C220.106 62.0777 220.895 62.8674 221.764 63.4992C221.764 63.4992 221.922 62.6305 221.29 62.0777Z" fill="#FCC34F"/>
<path d="M219.553 61.1301C219.553 61.1301 219.553 60.1825 220.106 59.9455C220.658 59.7086 221.448 60.0245 221.527 60.0245C221.053 60.4984 220.342 60.8932 219.553 61.1301Z" fill="#FCC34F"/>
<path d="M221.29 61.366C220.737 61.7609 219.553 61.1291 219.553 61.1291C220.342 60.9711 220.974 60.5763 221.527 60.0234C221.527 60.0234 221.764 60.9711 221.29 61.366Z" fill="#EFB135"/>
<path d="M221.763 61.8379C221.763 61.8379 221.606 62.7856 222.316 63.2594C223.027 63.8123 224.37 63.2594 224.37 63.2594C223.343 62.9435 222.474 62.4697 221.763 61.8379Z" fill="#EFB135"/>
<path d="M223.5 61.9963C222.868 61.6804 221.762 61.8383 221.762 61.8383C222.473 62.4701 223.342 62.944 224.289 63.2598C224.289 63.2598 224.21 62.3122 223.5 61.9963Z" fill="#FCC34F"/>
<path d="M221.76 61.6805C221.76 61.6805 221.524 60.7329 221.918 60.259C222.313 59.7852 223.182 59.7852 223.182 59.7852C222.866 60.4959 222.392 61.2067 221.76 61.6805Z" fill="#FCC34F"/>
<path d="M223.262 61.2857C222.867 61.9175 221.682 61.7595 221.682 61.6806C222.314 61.1277 222.788 60.4959 223.104 59.7852C223.183 59.7852 223.656 60.6539 223.262 61.2857Z" fill="#EFB135"/>
<path d="M202.046 79.6039L191.806 49.0547L186.715 50.7614L196.955 81.3105L202.046 79.6039Z" fill="#846C5D"/>
<path d="M176.585 49.833L189.385 88.0195L200.616 84.2548L187.816 46.0683L176.585 49.833Z" fill="#846C5D"/>
<path d="M181.817 55.2298L190.351 80.6875L196.49 78.6295L187.957 53.1718L181.817 55.2298Z" fill="#FCC34F"/>
<path d="M229.577 177.93C226.734 177.298 224.839 175.797 223.575 174.139L218.442 181.325L213.703 161.345C212.282 155.738 206.122 151.236 200.199 148.156C186.852 152.105 187.326 140.022 187.563 137.653C184.957 122.016 196.408 108.748 206.438 96.2701L195.223 92.4004C152.656 131.256 148.708 195.857 148.708 195.857L200.357 203.517C192.301 193.882 201.383 188.67 196.803 188.117C195.855 188.038 198.224 186.143 198.382 185.195C198.54 184.326 197.593 183.695 197.829 182.905C199.725 176.982 203.516 173.981 203.516 173.981C203.832 198.937 219.547 204.544 219.547 204.544L229.577 177.93Z" fill="#3AC1B0"/>
<path d="M190.879 154.87C190.326 154.712 189.773 154.87 189.615 155.344C189.457 155.738 189.852 156.212 190.405 156.37C190.958 156.528 191.511 156.37 191.669 155.896C191.748 155.502 191.432 155.028 190.879 154.87ZM188.431 161.504C188.589 161.109 188.194 160.635 187.641 160.477C187.088 160.319 186.535 160.477 186.377 160.951C186.219 161.346 186.614 161.82 187.167 161.977C187.799 162.056 188.352 161.898 188.431 161.504ZM187.957 168.374C187.404 168.374 186.93 168.69 186.93 169.164C186.93 169.638 187.404 169.954 187.957 169.954C188.51 169.954 188.983 169.638 188.983 169.164C188.983 168.69 188.51 168.374 187.957 168.374ZM187.167 174.692C186.772 174.85 186.614 175.403 186.851 175.956C187.088 176.509 187.562 176.825 187.957 176.667C188.352 176.509 188.51 175.956 188.273 175.403C188.036 174.85 187.562 174.534 187.167 174.692ZM182.35 179.984C181.876 179.668 181.244 179.747 181.007 180.142C180.77 180.536 181.007 181.089 181.56 181.326C182.034 181.642 182.665 181.563 182.902 181.168C183.06 180.773 182.823 180.22 182.35 179.984Z" fill="#4ADDC7"/>
<path d="M181.719 187.565L181.561 186.775C183.219 186.38 183.377 182.826 183.219 181.484V181.326L185.351 178.562L185.43 178.483C185.509 178.483 190.169 176.351 191.274 175.561C191.511 175.245 190.801 173.192 190.248 171.77C189.3 169.243 188.194 166.084 188.273 163.478C188.431 159.292 191.353 156.923 192.301 156.212L191.116 153.527L191.511 153.369C191.511 153.369 193.644 152.579 194.591 151.869C194.749 151.79 194.749 151.711 194.749 151.632C194.749 151.237 194.117 150.605 193.802 150.368L194.275 149.736C194.433 149.815 195.539 150.684 195.539 151.632C195.539 151.948 195.381 152.264 195.065 152.5C194.275 153.132 192.854 153.685 192.222 154.001L193.407 156.528L193.091 156.686C193.091 156.686 189.3 158.976 189.142 163.478C189.063 165.926 190.169 169.006 191.037 171.454C191.985 174.06 192.538 175.64 191.748 176.193C190.643 176.903 186.536 178.799 185.825 179.115L184.009 181.484C184.088 182.432 184.167 186.933 181.719 187.565Z" fill="#39AA99"/>
<path d="M224.605 177.695L214.338 197.044C203.676 182.67 204.229 169.008 204.229 169.008C199.491 192.068 219.076 203.599 219.076 203.599L227.606 180.301L224.605 177.695Z" fill="#39AA99"/>
<path d="M152.58 194.045C152.817 197.204 155.975 192.702 155.975 192.702C155.975 192.702 156.528 179.829 156.212 178.25C156.054 176.67 152.58 194.045 152.58 194.045Z" fill="#39AA99"/>
<path d="M196.015 187.724C195.699 184.881 142.075 159.136 197.199 107.566C197.199 107.566 184.485 111.672 184.722 108.592C185.116 103.301 187.723 99.8262 187.723 99.8262C178.798 109.619 161.424 137.813 166.399 161.268C171.849 187.409 187.802 187.803 187.802 187.803C187.802 187.803 175.561 183.697 173.744 169.245C173.665 169.245 178.956 181.88 196.015 187.724Z" fill="#39AA99"/>
<path d="M191.12 151.791C191.91 152.028 188.514 149.106 188.04 147.527C187.645 146.184 187.882 145.079 188.277 144.289C187.487 142.314 187.329 140.103 187.408 138.682C185.513 140.735 179.59 147.764 179.59 153.608C179.59 153.608 183.065 143.815 186.619 143.025C186.619 143.025 185.039 149.738 191.12 151.791Z" fill="#39AA99"/>
<path d="M201.86 169.007C195.937 177.3 187.013 171.377 187.013 171.377L196.648 182.828C196.648 182.828 199.175 175.088 203.124 171.614L206.125 163.716C206.204 163.637 203.124 167.27 201.86 169.007Z" fill="#39AA99"/>
<path d="M212.363 182.195L217.891 179.668L210.388 181.405L211.968 188.75L212.363 182.195Z" fill="#39AA99"/>
<path d="M194.275 147.761L194.749 146.814L197.434 145.629L200.751 146.892L202.884 150.051C202.884 150.051 196.882 150.209 195.302 149.42C193.644 148.551 194.275 147.761 194.275 147.761Z" fill="#39AA99"/>
<path d="M192.617 148.314L197.119 145.945L198.698 152.184L204.542 150.446L204.226 145.866L197.198 145.076L192.617 148.314Z" fill="#4ADDC7"/>
<path d="M195.854 148.236C195.854 148.236 208.885 163.557 223.574 154.633C223.574 154.633 217.572 162.61 210.543 161.109C203.514 159.609 196.328 152.817 195.222 149.105L195.854 148.236Z" fill="#DB7631"/>
<path d="M194.353 147.129C194.353 147.129 204.066 176.586 230.128 152.657C230.128 152.657 231.944 149.814 231.628 141.522C231.628 141.048 231.155 140.811 230.76 141.048L222.783 145.786C222.783 145.786 219.466 164.109 206.751 159.212C197.748 155.816 194.353 147.129 194.353 147.129Z" fill="#B64E00"/>
<path d="M191.194 147.368C191.194 147.368 193.564 145.552 194.906 146.342C196.249 147.131 197.196 148.632 197.196 148.632L195.617 150.132C195.617 150.132 192.853 149.974 191.194 147.368Z" fill="#B64E00"/>
<path d="M190.012 143.576C190.012 143.576 190.012 146.182 192.618 147.683C192.618 147.683 194.672 148.789 193.566 149.025C192.46 149.183 190.644 147.92 189.854 145.787C189.065 143.655 190.012 143.576 190.012 143.576Z" fill="#DB7631"/>
<path d="M191.117 147.84L193.565 143.338L188.274 136.941L187.484 137.336C187.484 137.415 186.773 145.787 191.117 147.84Z" fill="#4ADDC7"/>
<path d="M195.142 92.3998L206.356 96.2695C210.937 90.5044 215.359 85.9239 217.965 83.3178L222.783 82.607L224.599 80.4747H225.942C225.942 80.4747 226.732 79.8429 226.574 79.2901C225.942 77.5526 224.757 78.1844 224.283 77.2367C223.415 75.4993 222.467 73.5249 222.072 72.7352C221.598 71.4716 221.598 69.7342 219.861 69.9711C209.752 71.1557 213.938 77.8685 211.49 80.1588C204.698 84.3444 198.617 89.0829 193.167 94.2952C193.799 93.5844 194.431 93.0316 195.142 92.3998Z" fill="#EABFA5"/>
<path d="M233.049 157.949H222.15L219.386 161.503C219.386 161.503 219.544 163.714 221.361 164.03C222.15 164.188 222.624 163.635 222.861 163.004C223.177 165.452 225.941 168.453 226.81 169.4L223.493 174.06C224.756 175.718 226.731 177.219 229.495 177.851L232.417 170.19C234.47 165.61 233.049 157.949 233.049 157.949Z" fill="#EABFA5"/>
<path d="M148.391 192.461C148.391 192.461 163.396 177.693 199.646 191.04L198.145 195.067C198.145 195.067 232.657 210.862 241.423 237.95L192.696 257.773L197.276 271.909C197.276 271.909 195.302 274.673 191.511 270.567C187.72 266.46 180.929 251.218 180.929 251.218L218.125 229.816C218.125 229.816 198.461 212.205 176.901 216.864C176.901 216.864 153.761 251.85 163.08 297.971C163.08 297.971 164.028 320.478 157.552 319.373C151.155 318.267 154.946 298.129 154.946 298.129C154.946 298.129 134.492 253.587 148.391 192.461Z" fill="#333333"/>
<path d="M197.591 87.9003C197.591 87.9003 203.672 80.5557 209.437 93.6655L204.461 101.01C204.461 101.01 198.933 91.7701 190.799 94.4552L197.591 87.9003Z" fill="#4ADDC7"/>
<path d="M222.39 173.111C222.39 173.111 226.654 178.008 231.472 177.455L227.444 188.511C227.444 188.511 220.494 188.669 217.651 178.64L222.39 173.111Z" fill="#4ADDC7"/>
<path opacity="0.2" d="M178.007 338.01C175.322 331.297 173.111 324.348 171.216 317.398C169.32 310.369 167.82 303.34 166.556 296.154L165.766 290.784L165.135 285.413C164.898 283.597 164.74 281.78 164.661 279.964C164.503 278.148 164.345 276.331 164.345 274.515C164.029 267.249 164.345 259.984 165.214 252.797L164.898 258.246C164.819 259.115 164.74 260.062 164.74 260.931V263.616V266.301C164.74 267.17 164.74 268.118 164.74 268.987L164.977 274.436C165.45 281.622 166.161 288.809 167.504 295.917C168.688 303.025 170.189 310.132 172.005 317.082C172.874 320.557 173.822 324.111 174.927 327.507C175.717 331.139 176.823 334.614 178.007 338.01Z" fill="#333333"/>
<path opacity="0.2" d="M180.297 323.954C179.033 321.19 177.927 318.347 176.98 315.504C175.953 312.661 175.163 309.739 174.373 306.817C173.584 303.895 172.952 300.894 172.399 297.972C171.846 294.971 171.53 291.97 171.293 288.969C171.609 290.469 171.767 291.97 172.083 293.47L172.478 295.682L172.952 297.893C173.584 300.815 174.294 303.816 175.084 306.659C175.795 309.581 176.664 312.503 177.532 315.346C177.927 316.768 178.401 318.268 178.875 319.69C179.27 321.032 179.744 322.454 180.297 323.954Z" fill="#333333"/>
<path opacity="0.3" d="M192.46 353.173C207.377 353.173 219.469 351.935 219.469 350.409C219.469 348.882 207.377 347.645 192.46 347.645C177.543 347.645 165.451 348.882 165.451 350.409C165.451 351.935 177.543 353.173 192.46 353.173Z" fill="#3AC1B0"/>
<g opacity="0.3">
<path opacity="0.3" d="M243.24 226.498C244.898 229.104 246.399 231.789 247.899 234.474C249.4 237.16 250.9 239.845 252.322 242.53L252.716 243.241L252.006 243.556C249.873 244.504 247.82 245.452 245.688 246.4C243.555 247.347 241.423 248.216 239.37 249.085C235.105 250.822 230.841 252.56 226.497 254.06C230.525 251.849 234.71 249.795 238.817 247.821C240.87 246.873 243.003 245.847 245.056 244.899C247.188 243.951 249.242 243.004 251.374 242.135L250.979 243.162C249.636 240.398 248.294 237.633 246.951 234.869C245.688 232.105 244.424 229.341 243.24 226.498Z" fill="#333333"/>
</g>
<path d="M121.462 31.8283C119.566 29.933 118.145 28.3535 118.066 25.5894C117.987 23.2202 118.619 20.8509 118.619 18.4027C118.619 16.9022 116.25 16.9022 116.25 18.4027C116.171 21.4827 115.223 24.7207 115.934 27.8007C116.486 30.1699 118.066 31.8283 119.803 33.4868C120.83 34.5924 122.568 32.934 121.462 31.8283Z" fill="#3AC1B0"/>
<path d="M128.411 73.4458C128.095 74.2356 126.989 74.8674 126.278 75.3412C125.409 75.894 124.541 76.4468 123.672 76.9207C122.408 77.7104 123.593 79.7638 124.857 78.974C126.91 77.7104 129.753 76.4468 130.701 74.0776C131.254 72.6561 128.963 72.0243 128.411 73.4458Z" fill="#3AC1B0"/>
<path d="M83.2381 63.1813C82.3694 64.2869 81.6587 65.7085 82.4484 67.13C83.2381 68.6305 84.4228 68.4726 85.7653 68.5515C85.6074 69.8151 84.7386 71.0787 84.5807 72.2633C84.4228 73.448 84.7387 74.3167 85.5284 75.1854C86.5551 76.291 88.2135 74.6326 87.1869 73.5269C86.3181 72.5792 87.5027 70.7628 87.8186 69.8151C88.0556 68.9464 88.1345 68.1567 87.9766 67.288C87.8976 66.8931 87.5028 66.5772 87.1869 66.4982C86.0812 66.2613 84.1858 66.7351 84.8966 64.9977C85.3704 63.971 87.5817 62.1546 88.6874 63.1023C89.793 64.129 91.4515 62.4705 90.3458 61.4439C87.9766 59.0746 84.9756 60.97 83.2381 63.1813Z" fill="#3AC1B0"/>
<path d="M270.88 34.197C271.038 34.276 271.196 34.276 271.354 34.355C271.591 34.434 271.828 34.434 272.065 34.355C272.144 34.355 272.144 34.434 272.223 34.434C272.302 34.5129 272.381 34.5129 272.302 34.434C272.381 34.5129 272.381 34.5129 272.46 34.5919C272.934 35.0658 273.724 35.0658 274.118 34.5919C274.592 34.1181 274.592 33.4073 274.118 32.9335C273.329 32.0647 272.065 31.5909 270.88 31.9068C269.775 32.3017 269.775 33.8811 270.88 34.197Z" fill="#3AC1B0"/>
<path d="M274.514 65.314C273.013 65.8668 270.881 66.9725 268.986 67.2884C270.486 65.7878 272.697 64.2084 274.198 63.8925C275.698 63.4976 275.067 61.2073 273.566 61.6022C271.671 62.0761 270.328 63.3396 268.828 64.5243C267.485 65.4719 266.379 66.3407 265.669 67.8412C265.353 68.473 265.59 69.3417 266.379 69.5786C268.275 70.0525 270.407 69.4996 272.381 68.7099C271.671 69.4207 270.96 70.1314 270.644 70.6843C269.854 72.0268 269.064 73.6853 269.064 75.3437C269.143 76.8442 271.513 76.8442 271.434 75.3437C271.276 71.553 276.172 69.8945 276.093 66.4196C276.014 65.7089 275.224 64.9981 274.514 65.314Z" fill="#3AC1B0"/>
<path d="M292.362 109.539V103.774C292.362 102.273 289.993 102.273 289.993 103.774V109.539C289.993 111.118 292.362 111.118 292.362 109.539Z" fill="#3AC1B0"/>
<path d="M300.179 128.889C299.469 128.889 298.758 129.205 298.284 129.757C297.889 130.231 297.81 130.942 298.284 131.416C298.679 131.811 299.548 131.89 299.942 131.416C300.021 131.337 300.021 131.337 300.1 131.258C300.1 131.258 300.1 131.258 300.179 131.258C300.811 131.258 301.364 130.705 301.364 130.073C301.285 129.441 300.811 128.889 300.179 128.889Z" fill="#3AC1B0"/>
<path d="M79.3684 146.42C79.1315 145.867 78.7366 145.473 78.0258 145.157C77.394 144.841 76.6833 144.841 75.9725 144.683C75.0248 144.525 74.1561 144.209 73.2084 144.209C71.7079 144.209 71.7079 146.578 73.2084 146.578C74.1561 146.578 75.1038 146.894 75.9725 147.052C76.6043 147.131 77.394 147.131 77.2361 147.921C77.0781 148.947 78.3417 150.132 79.2104 149.105C79.4474 148.79 79.7633 148.474 79.9212 148.079C80.553 147.368 80.0792 146.657 79.3684 146.42Z" fill="#3AC1B0"/>
<path d="M120.829 118.7L119.803 119.727C119.329 120.201 119.329 120.912 119.803 121.386C120.276 121.859 120.987 121.859 121.461 121.386C121.777 121.07 122.172 120.675 122.488 120.359C122.962 119.885 122.962 119.174 122.488 118.7C122.093 118.306 121.303 118.306 120.829 118.7Z" fill="#3AC1B0"/>
<path d="M331.455 29.4603C328.849 30.408 325.927 32.0665 325.058 34.9095C324.189 37.6736 327.111 39.1741 329.402 39.648C330.902 39.9639 331.534 37.6736 330.033 37.3577C329.323 37.1998 328.612 37.0418 327.98 36.647C327.111 36.0152 327.348 35.4624 327.901 34.6726C328.928 33.2511 330.507 32.3824 332.166 31.8295C333.508 31.1978 332.876 28.9075 331.455 29.4603Z" fill="#3AC1B0"/>
<path d="M337.613 57.9676C337.06 57.6517 336.27 57.8097 335.955 58.3625C335.797 58.6784 335.639 59.0733 335.402 59.3892C335.086 59.942 335.244 60.6528 335.797 61.0477C336.349 61.3636 337.139 61.2056 337.455 60.6528C337.613 60.3369 337.771 59.942 338.008 59.6261C338.324 59.0733 338.166 58.3625 337.613 57.9676Z" fill="#3AC1B0"/>
<path d="M327.504 128.889C326.003 128.889 326.003 131.258 327.504 131.258C329.083 131.258 329.083 128.889 327.504 128.889Z" fill="#3AC1B0"/>
<path d="M315.897 178.245C315.739 179.192 315.66 180.219 315.502 181.246C315.344 182.114 315.265 183.457 314.633 184.089C313.528 185.115 315.186 186.774 316.292 185.747C318.108 184.168 317.792 181.088 318.187 178.876C318.424 177.376 316.134 176.744 315.897 178.245Z" fill="#3AC1B0"/>
<path d="M271.356 166.637C270.961 166.558 270.645 166.4 270.25 166.321C270.171 166.321 270.092 166.242 270.092 166.242C270.25 166.4 269.539 166.4 270.092 166.242C270.013 166.163 269.934 166.163 269.855 166.084C269.934 166.163 270.013 166.163 270.092 166.163C270.408 166.005 270.803 165.61 271.119 165.373C271.514 165.137 271.908 164.979 272.303 164.742C273.725 164.11 272.461 162.136 271.119 162.688C269.539 163.399 266.538 165.058 267.802 167.19C268.355 168.059 269.381 168.453 270.329 168.69C271.198 168.927 272.224 168.927 272.066 170.033C271.908 171.533 274.278 171.533 274.436 170.033C274.751 167.98 273.093 167.111 271.356 166.637Z" fill="#3AC1B0"/>
<path d="M105.035 205.098C104.403 205.651 102.982 205.256 102.192 205.256C100.691 205.256 100.691 207.626 102.192 207.626C103.771 207.626 105.43 207.941 106.693 206.757C107.878 205.73 106.141 204.072 105.035 205.098Z" fill="#3AC1B0"/>
<path d="M160.869 102.668C160.238 102.826 159.843 103.537 160.08 104.09C160.238 104.722 160.869 104.959 161.422 104.959C161.422 104.959 161.501 104.959 161.501 105.038C161.738 105.117 161.817 105.275 161.975 105.354C162.291 105.67 162.607 105.985 163.002 106.222C163.476 106.617 164.186 106.696 164.66 106.222C165.055 105.827 165.134 104.959 164.66 104.564C163.476 103.616 162.449 102.274 160.869 102.668Z" fill="#3AC1B0"/>
<path d="M174.848 17.218C174.769 16.6652 174.216 16.3493 173.742 16.3493C172.637 16.2703 171.452 16.8232 170.584 17.5339C170.11 17.9288 169.794 18.5606 170.189 19.1924C170.505 19.6662 171.294 19.9821 171.847 19.5873C172.163 19.3503 172.558 19.1134 172.953 18.9555C173.032 18.9555 173.032 18.9555 173.111 18.8765C173.427 19.1134 173.9 19.2714 174.216 19.1134C174.848 18.9555 175.164 18.3237 175.006 17.6919C174.927 17.455 174.927 17.297 174.848 17.218Z" fill="#3AC1B0"/>
<path d="M42.1713 29.9339C40.6708 29.8549 39.3283 30.4867 37.8278 30.4867C36.1693 30.4867 34.5108 30.5657 32.9314 29.7759C31.7467 29.1442 30.4832 30.7236 31.5098 31.6713C31.5888 31.7503 31.7467 31.9082 31.8257 31.9872C32.1416 32.2241 32.4575 32.3031 32.7734 32.3031C33.958 32.777 35.1426 32.8559 36.5642 32.8559C37.5119 32.8559 38.5385 32.9349 39.4862 32.777C40.4339 32.619 41.2236 32.2241 42.1713 32.3031C43.6719 32.3821 43.6719 30.0129 42.1713 29.9339Z" fill="#3AC1B0"/>
<path d="M37.3533 108.038C35.4579 109.302 33.0097 110.17 32.0621 112.461C31.8251 113.092 32.299 113.724 32.8518 113.882C33.5626 114.04 34.0364 113.645 34.2733 113.092C34.5892 112.382 35.6159 111.908 36.1687 111.513C36.9584 111.039 37.7482 110.644 38.459 110.091C39.8015 109.223 38.6169 107.169 37.3533 108.038Z" fill="#3AC1B0"/>
<path d="M51.4117 193.173C49.8322 192.936 48.4897 191.909 46.9102 192.067C46.2784 192.146 45.7256 192.541 45.7256 193.252C45.7256 193.805 46.2784 194.515 46.9102 194.436C48.2528 194.278 49.5163 195.305 50.7799 195.463C51.4117 195.542 52.0435 195.305 52.2015 194.673C52.4384 194.121 52.0435 193.252 51.4117 193.173Z" fill="#3AC1B0"/>
<path d="M294.337 225.79C292.599 226.026 291.73 227.369 290.546 228.554C289.44 229.659 288.571 230.765 288.019 232.265C286.755 232.66 287.387 234.793 288.808 234.477C288.966 234.477 289.124 234.398 289.203 234.398C289.598 234.319 289.914 233.924 289.993 233.608C290.309 232.344 291.02 231.476 291.888 230.528C292.441 229.975 293.389 228.396 294.179 228.238C295.837 228.001 295.837 225.553 294.337 225.79Z" fill="#3AC1B0"/>
<path d="M300.259 264.881C299.549 264.565 298.838 264.17 298.127 263.854C297.574 263.538 296.863 263.696 296.469 264.249C296.153 264.802 296.311 265.592 296.863 265.908C297.574 266.224 298.285 266.618 298.996 266.934C299.549 267.25 300.259 267.092 300.654 266.539C300.97 265.987 300.812 265.197 300.259 264.881Z" fill="#3AC1B0"/>
<path d="M329.636 218.997C328.688 220.656 327.346 221.998 326.161 223.499C325.213 224.683 326.872 226.342 327.819 225.157C329.162 223.578 330.583 221.998 331.689 220.182C332.479 218.918 330.426 217.734 329.636 218.997Z" fill="#3AC1B0"/>
<path d="M356.173 116.646C354.91 117.909 355.305 119.568 355.305 121.147C355.305 122.648 357.674 122.648 357.674 121.147C357.674 120.358 357.279 118.857 357.832 118.304C358.937 117.199 357.279 115.54 356.173 116.646Z" fill="#3AC1B0"/>
<path d="M49.5172 259.984H44.7787C43.2782 259.984 43.2782 262.354 44.7787 262.354H49.5172C51.0966 262.354 51.0966 259.984 49.5172 259.984Z" fill="#3AC1B0"/>
<path d="M84.6592 256.43C84.6592 260.537 85.449 264.802 83.2377 268.435C82.4479 269.777 84.5013 270.962 85.291 269.619C87.7392 265.512 87.0285 260.932 87.0285 256.351C87.0285 254.93 84.6592 254.93 84.6592 256.43Z" fill="#3AC1B0"/>
<path d="M81.1054 296.312C79.6049 296.312 79.6049 298.682 81.1054 298.682C82.6848 298.682 82.6848 296.312 81.1054 296.312Z" fill="#3AC1B0"/>
<defs>
<linearGradient id="paint0_linear" x1="192.49" y1="208.927" x2="192.49" y2="34.2107" gradientUnits="userSpaceOnUse">
<stop stop-color="white"/>
<stop offset="0.9952" stop-color="#3AC1B0" stop-opacity="0"/>
</linearGradient>
<linearGradient id="paint1_linear" x1="192.491" y1="176.053" x2="192.491" y2="350.769" gradientUnits="userSpaceOnUse">
<stop stop-color="white"/>
<stop offset="0.9952" stop-color="#3AC1B0" stop-opacity="0"/>
</linearGradient>
<linearGradient id="paint2_linear" x1="176.054" y1="192.491" x2="350.77" y2="192.491" gradientUnits="userSpaceOnUse">
<stop stop-color="white"/>
<stop offset="0.9952" stop-color="#3AC1B0" stop-opacity="0"/>
</linearGradient>
<linearGradient id="paint3_linear" x1="208.927" y1="192.491" x2="34.2107" y2="192.491" gradientUnits="userSpaceOnUse">
<stop stop-color="white"/>
<stop offset="0.9952" stop-color="#3AC1B0" stop-opacity="0"/>
</linearGradient>
<linearGradient id="paint4_linear" x1="180.867" y1="204.114" x2="304.41" y2="80.5711" gradientUnits="userSpaceOnUse">
<stop stop-color="white"/>
<stop offset="0.9952" stop-color="#3AC1B0" stop-opacity="0"/>
</linearGradient>
<linearGradient id="paint5_linear" x1="204.114" y1="180.868" x2="80.5708" y2="304.411" gradientUnits="userSpaceOnUse">
<stop stop-color="white"/>
<stop offset="0.9952" stop-color="#3AC1B0" stop-opacity="0"/>
</linearGradient>
<linearGradient id="paint6_linear" x1="180.868" y1="180.868" x2="304.411" y2="304.411" gradientUnits="userSpaceOnUse">
<stop stop-color="white"/>
<stop offset="0.9952" stop-color="#3AC1B0" stop-opacity="0"/>
</linearGradient>
<linearGradient id="paint7_linear" x1="204.113" y1="204.112" x2="80.5698" y2="80.5692" gradientUnits="userSpaceOnUse">
<stop stop-color="white"/>
<stop offset="0.9952" stop-color="#3AC1B0" stop-opacity="0"/>
</linearGradient>
</defs>
</svg>
