<svg width="53" height="60" viewBox="0 0 53 60" fill="none" xmlns="http://www.w3.org/2000/svg">
<path d="M41.6745 13.0912C45.2895 13.0912 48.2201 10.1606 48.2201 6.54558C48.2201 2.93055 45.2895 0 41.6745 0C38.0595 0 35.1289 2.93055 35.1289 6.54558C35.1289 10.1606 38.0595 13.0912 41.6745 13.0912Z" fill="#FB7333"/>
<path d="M10.5846 31.1716L9.11906 25.2473C8.99698 24.8257 8.97158 24.3821 9.04471 23.9493C9.11785 23.5166 9.28768 23.1056 9.54151 22.7475C9.79534 22.3894 10.1266 22.0933 10.5108 21.881C10.8949 21.6687 11.322 21.5457 11.7603 21.5212H42.4786C42.9168 21.5457 43.3439 21.6687 43.728 21.881C44.1122 22.0933 44.4435 22.3894 44.6973 22.7475C44.9512 23.1056 45.121 23.5166 45.1941 23.9493C45.2673 24.3821 45.2418 24.8257 45.1197 25.2473L43.6543 31.1716C43.5233 31.7803 43.1919 32.3276 42.713 32.7256C42.2341 33.1235 41.6355 33.3491 41.013 33.3664H13.2258C12.6033 33.3492 12.0046 33.1235 11.5257 32.7256C11.0468 32.3276 10.7154 31.7804 10.5846 31.1716V31.1716Z" stroke="#3F2355" stroke-miterlimit="10" stroke-linecap="round"/>
<path d="M16.8164 21.5183L17.3359 19.6319C17.4947 19.0541 17.8389 18.5445 18.3157 18.1814C18.7924 17.8183 19.3751 17.6219 19.9744 17.6223H34.2672C34.8646 17.6222 35.4454 17.8179 35.9208 18.1797C36.3962 18.5415 36.7398 19.0491 36.8988 19.6249L37.4251 21.5183" stroke="#3F2355" stroke-miterlimit="10" stroke-linecap="round"/>
<path d="M14.4075 33.6911V48.0865C14.4075 48.8116 14.1194 49.5072 13.6067 50.0199C13.0939 50.5327 12.3985 50.8206 11.6734 50.8206H8.57693C7.85179 50.8206 7.1563 50.5327 6.64355 50.0199C6.13079 49.5072 5.84277 48.8116 5.84277 48.0865V31.3194C5.84277 30.5942 6.13079 29.8986 6.64355 29.3859C7.1563 28.8731 7.85179 28.5852 8.57693 28.5852H9.73208" stroke="#3F2355" stroke-miterlimit="10" stroke-linecap="round"/>
<path d="M44.9215 28.5867H45.6597C46.3849 28.5867 47.0803 28.8746 47.593 29.3874C48.1058 29.9001 48.3939 30.5957 48.3939 31.3208V48.0879C48.3939 48.8131 48.1058 49.5086 47.593 50.0214C47.0803 50.5341 46.3849 50.8221 45.6597 50.8221H42.5633C41.8381 50.8221 41.1427 50.5341 40.63 50.0214C40.1172 49.5086 39.8291 48.8131 39.8291 48.0879V33.6925" stroke="#3F2355" stroke-miterlimit="10" stroke-linecap="round"/>
<path d="M10.3594 8.06348H17.0389C17.5724 8.06332 18.0944 8.21955 18.5404 8.51238C18.9864 8.80522 19.3369 9.22195 19.5489 9.71158L22.4335 16.3781" stroke="#3F2355" stroke-miterlimit="10" stroke-linecap="round"/>
<path d="M43.8758 8.06348H37.1956C36.6621 8.06346 36.1403 8.21956 35.6945 8.51238C35.2486 8.80521 34.8982 9.22206 34.6863 9.71158L31.8018 16.3781" stroke="#3F2355" stroke-miterlimit="10" stroke-linecap="round"/>
<path d="M33.8495 11.6218H20.3633" stroke="#3F2355" stroke-miterlimit="10" stroke-linecap="round"/>
<path d="M18.9938 38.7937L14.3936 41.0904" stroke="#3F2355" stroke-miterlimit="10" stroke-linecap="round"/>
<path d="M39.819 41.0919L35.2256 38.7952" stroke="#3F2355" stroke-miterlimit="10" stroke-linecap="round"/>
<path d="M29.1628 40.6301H25.082" stroke="#3F2355" stroke-miterlimit="10" stroke-linecap="round"/>
<path d="M34.7356 29.9803C36.1381 29.9803 37.275 28.8434 37.275 27.441C37.275 26.0385 36.1381 24.9016 34.7356 24.9016C33.3332 24.9016 32.1963 26.0385 32.1963 27.441C32.1963 28.8434 33.3332 29.9803 34.7356 29.9803Z" stroke="#FB7333" stroke-miterlimit="10" stroke-linecap="round"/>
<path d="M19.4954 29.9803C20.8978 29.9803 22.0348 28.8434 22.0348 27.441C22.0348 26.0385 20.8978 24.9016 19.4954 24.9016C18.093 24.9016 16.9561 26.0385 16.9561 27.441C16.9561 28.8434 18.093 29.9803 19.4954 29.9803Z" stroke="#FB7333" stroke-miterlimit="10" stroke-linecap="round"/>
<path d="M5.9082 45.0281H9.09076" stroke="#3F2355" stroke-miterlimit="10" stroke-linecap="round"/>
<path d="M10.417 38.5193H13.5996" stroke="#3F2355" stroke-miterlimit="10" stroke-linecap="round"/>
<path d="M47.7871 45.0281H44.6045" stroke="#3F2355" stroke-miterlimit="10" stroke-linecap="round"/>
<path d="M43.2578 38.5193H40.0752" stroke="#3F2355" stroke-miterlimit="10" stroke-linecap="round"/>
<path d="M25.0786 33.3638V41.7578C25.0786 42.5636 24.7585 43.3364 24.1887 43.9062C23.6189 44.476 22.8462 44.796 22.0403 44.796C21.2345 44.796 20.4617 44.476 19.8919 43.9062C19.3221 43.3364 19.002 42.5636 19.002 41.7578V33.3638" stroke="#3F2355" stroke-miterlimit="10" stroke-linecap="round"/>
<path d="M35.2437 33.3623V41.7564C35.2437 42.5622 34.9235 43.335 34.3537 43.9048C33.7839 44.4746 33.0111 44.7946 32.2053 44.7946C31.3995 44.7946 30.6267 44.4746 30.0569 43.9048C29.4871 43.335 29.167 42.5622 29.167 41.7564V33.3623" stroke="#3F2355" stroke-miterlimit="10" stroke-linecap="round"/>
<path d="M7.47039 15.2112H1" stroke="#DBDAE1" stroke-miterlimit="10" stroke-linecap="round"/>
<path d="M4.22559 18.4403L4.25019 12.2153" stroke="#DBDAE1" stroke-miterlimit="10" stroke-linecap="round"/>
<path d="M51.9997 55.6602H45.5293" stroke="#DBDAE1" stroke-miterlimit="10" stroke-linecap="round"/>
<path d="M48.7695 58.8993L48.7941 52.6743" stroke="#DBDAE1" stroke-miterlimit="10" stroke-linecap="round"/>
</svg>
