<svg width="59" height="53" viewBox="0 0 59 53" fill="none" xmlns="http://www.w3.org/2000/svg">
<path d="M56.4465 18.0525H57.8022V15.2018C57.8006 13.7475 57.5125 12.3078 56.9545 10.9649C56.3965 9.62197 55.5794 8.4021 54.55 7.37498C53.5205 6.34785 52.2987 5.53354 50.9546 4.9786C49.6104 4.42367 48.1701 4.13888 46.7158 4.14063V9.19599C47.7405 9.52731 48.7098 10.0099 49.5919 10.6277L56.4465 18.0525Z" fill="#FB5100"/>
<path d="M15.6618 40.163C15.3655 41.802 14.5242 43.2927 13.2744 44.3936C12.0245 45.4946 10.4395 46.141 8.77617 46.2281C7.11288 46.3152 5.46891 45.8378 4.11095 44.8734C2.75299 43.909 1.7607 42.5142 1.29489 40.9151C0.82909 39.316 0.917112 37.6064 1.54475 36.0636C2.1724 34.5208 3.30279 33.2353 4.75265 32.4155C6.20251 31.5957 7.88678 31.2899 9.53232 31.5474C11.1779 31.8049 12.6882 32.6107 13.8183 33.8342" stroke="#FB5100" stroke-miterlimit="10" stroke-linecap="round"/>
<path d="M49.0852 31.5788C49.5264 31.5 49.9736 31.4597 50.4219 31.4585C52.1464 31.4588 53.8165 32.0626 55.1425 33.1652C56.4686 34.2678 57.3669 35.7998 57.6818 37.4954C57.9967 39.1909 57.7083 40.9433 56.8666 42.4485C56.0249 43.9537 54.683 45.1168 53.0736 45.7363C51.4641 46.3558 49.6886 46.3925 48.0549 45.8401C46.4212 45.2877 45.0323 44.181 44.1291 42.7119C43.2259 41.2428 42.8653 39.5039 43.1098 37.7968C43.3543 36.0897 44.1885 34.5219 45.4678 33.3654" stroke="#FB5100" stroke-miterlimit="10" stroke-linecap="round"/>
<path d="M21.3316 40.1636C21.3379 40.0559 21.3379 39.9419 21.3379 39.8342C21.3379 30.9068 12.0007 25.0621 5.3286 22.025C5.04639 21.8956 4.81677 21.6739 4.67769 21.3963C4.53862 21.1188 4.49842 20.802 4.56371 20.4985C4.62899 20.195 4.79585 19.9227 5.03675 19.7269C5.27765 19.531 5.57818 19.4234 5.88864 19.4214C7.51231 19.4069 9.25254 19.3961 10.9275 19.3961L17.8587 19.436C18.6431 19.4406 19.4183 19.6036 20.138 19.9154C20.8577 20.2272 21.507 20.6813 22.0468 21.2503V21.2503C22.5853 21.8179 23.2328 22.271 23.9504 22.5826C24.6681 22.8942 25.4412 23.0581 26.2235 23.0641V23.0641C26.8127 23.0687 27.3908 22.9034 27.8885 22.588C28.3862 22.2726 28.7825 21.8205 29.0299 21.2857L29.4296 20.4223C30.1336 18.9012 31.2608 17.615 32.6763 16.7174C34.0918 15.8198 35.7358 15.3487 37.4119 15.3606L43.1812 15.4025V9.43799C56.3581 9.43799 57.8412 21.2459 57.8823 26.1936C57.8842 26.4179 57.8304 26.6391 57.726 26.8376C57.6215 27.0361 57.4695 27.2057 57.2836 27.3311C57.0976 27.4566 56.8835 27.534 56.6603 27.5566C56.4372 27.5792 56.2119 27.5462 56.0046 27.4606C52.8794 26.2282 49.4038 26.2222 46.2744 27.444C43.145 28.6658 40.5928 31.025 39.1293 34.049C38.7708 34.8907 38.4743 35.7575 38.2424 36.6425C38.0532 37.3494 37.7231 38.0108 37.2718 38.5868C37.2154 38.6565 37.1584 38.7236 37.1008 38.7857C36.6967 39.2221 36.2067 39.5701 35.6615 39.8077C35.1164 40.0454 34.528 40.1676 33.9332 40.1667H9.51861C9.2405 40.1667 8.96512 40.112 8.70817 40.0056C8.45123 39.8991 8.21773 39.7432 8.02107 39.5465C7.82442 39.3499 7.66846 39.1164 7.56203 38.8595C7.4556 38.6025 7.40079 38.327 7.40079 38.0489V38.0489C7.40083 37.6384 7.52022 37.2367 7.74438 36.8928C7.96854 36.5488 8.28782 36.2775 8.6634 36.1117L18.4504 31.7918" stroke="#3F2355" stroke-miterlimit="10" stroke-linecap="round"/>
<path d="M50.4995 11.731C49.9736 12.16 49.5933 12.7412 49.4109 13.395C49.2286 14.0488 49.253 14.743 49.481 15.3823C49.7089 16.0216 50.1292 16.5747 50.684 16.9656C51.2389 17.3565 51.9012 17.5661 52.5799 17.5655C53.13 17.565 53.6715 17.4278 54.1555 17.1663" stroke="#3F2355" stroke-miterlimit="10" stroke-linecap="round"/>
<path d="M30.3366 3.77344H24.3398" stroke="#DBDAE1" stroke-miterlimit="10" stroke-linecap="round"/>
<path d="M27.3389 6.76934L27.3617 1" stroke="#DBDAE1" stroke-miterlimit="10" stroke-linecap="round"/>
<path d="M30.5729 49.002H24.5762" stroke="#DBDAE1" stroke-miterlimit="10" stroke-linecap="round"/>
<path d="M27.5752 52L27.598 46.2307" stroke="#DBDAE1" stroke-miterlimit="10" stroke-linecap="round"/>
<path d="M35.2736 31.5967H33.373" stroke="#3F2355" stroke-miterlimit="10" stroke-linecap="round"/>
<path d="M34.0088 35.3979H29.5742" stroke="#3F2355" stroke-miterlimit="10" stroke-linecap="round"/>
<path d="M47.0459 27.3862L50.1539 33.7815L52.3294 38.2591C52.4478 38.4977 52.5178 38.7574 52.5355 39.0232C52.5531 39.289 52.5178 39.5555 52.4319 39.8076C52.346 40.0598 52.211 40.2923 52.0347 40.492C51.8585 40.6917 51.6444 40.8546 51.4049 40.9712C51.1654 41.0878 50.9053 41.1559 50.6393 41.1715C50.3734 41.187 50.1071 41.1497 49.8557 41.0618C49.6042 40.9739 49.3726 40.8372 49.1743 40.6594C48.9759 40.4816 48.8147 40.2663 48.7 40.0259L46.4694 35.4374L43.3545 29.022" stroke="#3F2355" stroke-miterlimit="10" stroke-linecap="round"/>
<path d="M28.0156 23.0746C28.84 23.7971 29.7412 24.427 30.703 24.953C31.8699 25.4735 33.1338 25.7414 34.4115 25.7392C39.2452 25.7392 43.1602 22.0079 43.1602 17.4023C43.1602 16.8638 43.1666 16.1732 43.1729 15.4003C43.1792 15.2926 43.1792 15.1786 43.1792 15.0645C43.1792 14.7605 43.1856 14.4501 43.1856 14.1333" stroke="#3F2355" stroke-miterlimit="10" stroke-linecap="round"/>
</svg>
