<svg width="69" height="69" viewBox="0 0 69 69" fill="none" xmlns="http://www.w3.org/2000/svg">
<g clip-path="url(#clip0_13991_10304)">
<path d="M59.0514 45.2577C57.8439 45.2424 56.8525 46.2089 56.8371 47.4164C56.8217 48.6239 57.7882 49.6152 58.9957 49.6307C60.2032 49.646 61.1946 48.6795 61.21 47.472C61.2102 47.4628 61.2102 47.4535 61.2102 47.4443C61.2103 46.2476 60.2482 45.273 59.0514 45.2577ZM59.0514 48.5182C58.4585 48.5335 57.9655 48.0654 57.9502 47.4726C57.9349 46.8797 58.4029 46.3867 58.9957 46.3714C59.5886 46.3561 60.0817 46.8241 60.097 47.4169C60.0972 47.4261 60.0974 47.4353 60.0974 47.4443C60.0977 48.0267 59.6336 48.5031 59.0514 48.5182Z" fill="#FB5100"/>
<path d="M13.9683 45.2578C12.7606 45.2517 11.7767 46.2257 11.7705 47.4333C11.7644 48.6409 12.7384 49.6249 13.946 49.631C15.1536 49.6371 16.1376 48.6632 16.1437 47.4556C16.1437 47.4518 16.1437 47.4482 16.1437 47.4444C16.1437 46.2411 15.1716 45.264 13.9683 45.2578ZM13.9683 48.5183C13.3753 48.5244 12.8896 48.0487 12.8833 47.4556C12.8772 46.8626 13.3529 46.3769 13.946 46.3706C14.5391 46.3644 15.0247 46.8402 15.031 47.4333C15.031 47.4369 15.031 47.4407 15.031 47.4444C15.031 48.0332 14.5571 48.5121 13.9683 48.5183Z" fill="#FB5100"/>
<path d="M68.4437 43.1155H67.5034V40.4726C67.5034 40.4726 67.5034 40.4281 67.5034 40.4059C67.5034 40.4059 67.5034 40.3669 67.5034 40.3502C67.4579 38.727 66.429 37.2948 64.9051 36.7337L58.0559 34.23L54.1056 28.4269L58.8404 24.9383C58.853 24.9286 58.8641 24.9175 58.8738 24.9049L61.4332 22.3845C62.4286 21.3852 62.4255 19.7682 61.4264 18.7729C61.3221 18.669 61.209 18.5742 61.0882 18.4898L55.5244 14.6897C55.4313 14.6247 55.3207 14.5898 55.2072 14.5895H24.7785C24.683 14.5911 24.5894 14.6158 24.5058 14.6619L21.8853 16.1474C20.8623 16.7114 19.7469 17.0884 18.5914 17.2602V13.8829C18.5914 13.5757 18.3423 13.3265 18.0351 13.3265C17.7278 13.3265 17.4787 13.5757 17.4787 13.8829V14.9289H6.7571V13.8162C6.7571 13.5089 6.50798 13.2598 6.20072 13.2598C5.89345 13.2598 5.64433 13.5089 5.64433 13.8162V17.2769L2.47293 17.2602C2.32507 17.2593 2.18291 17.3174 2.07789 17.4215C1.97176 17.5256 1.91154 17.6679 1.91098 17.8166V24.4376L0.00813715 35.276C-0.00271238 35.3386 -0.00271238 35.4026 0.00813715 35.4651L1.92211 46.8878C1.9662 47.1598 2.2028 47.3586 2.47849 47.3551H9.65588C9.65588 47.3551 9.65588 47.4163 9.65588 47.4441C9.65741 48.6639 10.1748 49.826 11.0802 50.6434H6.07275C5.76549 50.6434 5.51636 50.8925 5.51636 51.1998C5.51636 51.507 5.76549 51.7561 6.07275 51.7561H14.068C16.4192 51.6988 18.2968 49.7793 18.3021 47.4275C18.3021 47.4275 18.3021 47.3663 18.3021 47.3384H54.7287C54.7287 47.3384 54.7287 47.3996 54.7287 47.4275C54.7292 48.6569 55.2556 49.8274 56.1754 50.6434H42.2935C41.9862 50.6434 41.7371 50.8925 41.7371 51.1998C41.7371 51.507 41.9862 51.7561 42.2935 51.7561H59.3746C59.417 51.762 59.4601 51.762 59.5025 51.7561C61.7113 51.5284 63.3918 49.6701 63.3972 47.4497C63.3972 47.4497 63.3972 47.3885 63.3972 47.3607H68.4437C68.7509 47.3607 69.0001 47.1116 69.0001 46.8043V43.6718C69.0001 43.3646 68.7509 43.1155 68.4437 43.1155ZM6.7571 16.0417H17.4787V17.3715H16.9724L6.7571 17.288V16.0417ZM3.02375 18.373L16.9612 18.4954C17.3118 18.4954 17.6678 18.4954 18.0184 18.4509H18.0796C19.6124 18.3051 21.0971 17.8367 22.4361 17.0766L24.9231 15.6634H55.0904L60.504 19.3689C61.1624 19.8159 61.3337 20.7121 60.8866 21.3706C60.8317 21.4514 60.7687 21.5264 60.6988 21.5944L58.2841 23.9368H3.02375V18.373ZM26.0359 27.2362C26.5433 28.8166 27.8882 29.9835 29.5244 30.2629V32.4885C27.7803 32.4205 26.1264 31.6949 24.8953 30.4577C23.2261 28.6661 22.8478 26.1568 22.7755 25.0718H29.5244V29.1279C28.3991 28.8682 27.4879 28.0455 27.1153 26.9524C27.037 26.6544 26.7318 26.4763 26.4337 26.5546C26.1356 26.6329 25.9576 26.9381 26.0359 27.2362ZM20.255 31.2589C21.1497 30.3088 21.8158 29.167 22.2024 27.9205C22.5834 29.1285 23.2255 30.2378 24.083 31.1698C24.5709 31.6912 25.1334 32.1374 25.7521 32.494H18.6193C19.2211 32.1631 19.7721 31.7471 20.255 31.2589ZM14.5521 32.4885V25.0496H21.6293C21.557 26.1624 21.1953 28.6995 19.4538 30.4911C18.1415 31.7682 16.3834 32.4847 14.5521 32.4885ZM2.93473 25.0496H13.4393V25.9788H2.79007L2.93473 25.0496ZM2.57864 27.0915H13.4393V29.2447H2.2003L2.57864 27.0915ZM2.00556 30.3575H13.4393V32.5107H1.62722L2.00556 30.3575ZM13.9679 50.6434C12.1917 50.6403 10.7545 49.198 10.7575 47.4219C10.7606 45.6458 12.2029 44.2085 13.979 44.2115C15.7529 44.2146 17.1894 45.6536 17.1894 47.4275C17.1863 49.2044 15.745 50.6434 13.9679 50.6434ZM31.5107 43.6718V46.2424H18.1575C17.6158 44.3815 15.9059 43.1053 13.9679 43.1155V43.0988C12.0415 43.1017 10.3483 44.3755 9.81167 46.2257H2.94029L2.55639 43.9667H8.40957C8.71684 43.9667 8.96596 43.7176 8.96596 43.4103C8.96596 43.1031 8.71684 42.854 8.40957 42.854H2.37278L1.12091 35.3761L1.42692 33.6235H32.8349V43.1155H32.0671C31.7599 43.1155 31.5107 43.3646 31.5107 43.6718ZM42.6051 46.2424H32.6235V44.2282H33.3913H42.6051V46.2424ZM35.1773 35.7155H33.9477V27.6479H41.2753V43.1155H33.9477V36.8283H35.1773C35.4846 36.8283 35.7337 36.5792 35.7337 36.2719C35.7337 35.9646 35.4846 35.7155 35.1773 35.7155ZM45.8488 30.3853V46.2424H43.7179V43.6718C43.7179 43.3646 43.4687 43.1155 43.1615 43.1155H42.3881V27.0915C42.3881 26.7843 42.139 26.5351 41.8317 26.5351H33.3913C33.0841 26.5351 32.8349 26.7843 32.8349 27.0915V32.5052H30.665V25.0496H56.8486L53.1597 27.7425H44.8139C44.5067 27.7425 44.2576 27.9916 44.2576 28.2989C44.2576 28.6062 44.5067 28.8553 44.8139 28.8553H53.0485L57.238 34.9755C57.3009 35.0739 57.3949 35.1483 57.5051 35.187L64.549 37.7964C65.4475 38.1304 66.1185 38.8933 66.335 39.8272H64.2708C63.9635 39.8272 63.7144 40.0763 63.7144 40.3836C63.7144 40.6909 63.9635 40.94 64.2708 40.94H66.3906V43.1155H59.0185C58.6037 43.1163 58.1913 43.1782 57.7944 43.2991V37.546C57.7921 37.4217 57.7513 37.3012 57.6776 37.2011L56.1531 35.276L52.3808 30.0571C52.2758 29.9132 52.1082 29.8285 51.9301 29.829H46.4052C46.0979 29.829 45.8488 30.0781 45.8488 30.3853ZM54.6175 35.0646H46.9616V30.964H51.6519L54.6175 35.0646ZM46.9616 46.2257V36.1773H55.4409L56.6817 37.7519V43.8221C55.8155 44.3899 55.1801 45.2481 54.8901 46.2424L46.9616 46.2257ZM59.0519 50.6434C57.2757 50.6446 55.835 49.2058 55.8337 47.4297C55.8325 45.6536 57.2713 44.2128 59.0474 44.2115C59.049 44.2115 59.0503 44.2115 59.0519 44.2115C60.828 44.2128 62.2668 45.6536 62.2656 47.4297C62.2644 49.204 60.8263 50.6421 59.0519 50.6434ZM67.8873 46.2424H63.2081C62.9829 45.4651 62.5432 44.7671 61.9395 44.2282H67.8873V46.2424Z" fill="#3F2355"/>
<path d="M51.3012 16.6372H42.5994C42.2921 16.6372 42.043 16.8863 42.043 17.1936V21.3609C42.043 21.6682 42.2921 21.9173 42.5994 21.9173H51.3012C51.6085 21.9173 51.8576 21.6682 51.8576 21.3609V17.1936C51.8576 16.8863 51.6085 16.6372 51.3012 16.6372ZM50.7449 20.8045H43.1557V17.75H50.7449V20.8045Z" fill="#FB5100"/>
<path d="M18.6809 26.0002C18.3905 25.8997 18.0736 26.0539 17.9733 26.3443C17.9637 26.3721 17.9563 26.4006 17.9512 26.4296C17.3948 28.5271 15.9148 28.822 15.8369 28.8332C15.5297 28.8578 15.3004 29.1268 15.3251 29.434C15.3497 29.7413 15.6187 29.9705 15.926 29.9459V29.9348H16.015C16.104 29.9348 18.2906 29.5509 19.025 26.7078C19.1255 26.4173 18.9713 26.1005 18.6809 26.0002Z" fill="black"/>
<path d="M37.5753 28.5718C36.0665 28.5687 34.841 29.7893 34.8379 31.2981C34.8348 32.8069 36.0554 34.0324 37.5642 34.0355C39.073 34.0386 40.2985 32.818 40.3016 31.3092C40.3016 31.3054 40.3016 31.3018 40.3016 31.2981C40.2985 29.7936 39.0798 28.5748 37.5753 28.5718ZM37.5753 32.9172C36.6811 32.9202 35.9537 32.1979 35.9507 31.3036C35.9476 30.4094 36.6699 29.6821 37.5642 29.679C38.4584 29.6759 39.1858 30.3983 39.1888 31.2925C39.1888 31.2943 39.1888 31.2963 39.1888 31.2981C39.1888 32.1901 38.4673 32.9141 37.5753 32.9172Z" fill="black"/>
<path d="M28.3841 42.8542H18.9255C18.6183 42.8542 18.3691 43.1034 18.3691 43.4106C18.3691 43.7179 18.6183 43.967 18.9255 43.967H28.3841C28.6914 43.967 28.9405 43.7179 28.9405 43.4106C28.9405 43.1034 28.6914 42.8542 28.3841 42.8542Z" fill="black"/>
<path d="M38.6767 50.6436H35.8113C35.504 50.6436 35.2549 50.8927 35.2549 51.1999C35.2549 51.5072 35.504 51.7563 35.8113 51.7563H38.6767C38.9839 51.7563 39.2331 51.5072 39.2331 51.1999C39.2331 50.8927 38.9839 50.6436 38.6767 50.6436Z" fill="#FB5100"/>
<path d="M54.5953 54.6272H41.281C40.9737 54.6272 40.7246 54.8763 40.7246 55.1836C40.7246 55.4908 40.9737 55.74 41.281 55.74H54.5953C54.9026 55.74 55.1517 55.4908 55.1517 55.1836C55.1517 54.8763 54.9026 54.6272 54.5953 54.6272Z" fill="#FB5100"/>
<path d="M23.1423 54.6272H16.8718C16.5646 54.6272 16.3154 54.8763 16.3154 55.1836C16.3154 55.4908 16.5646 55.74 16.8718 55.74H23.1423C23.4496 55.74 23.6987 55.4908 23.6987 55.1836C23.6987 54.8763 23.4496 54.6272 23.1423 54.6272Z" fill="#FB5100"/>
<path d="M67.9184 26.709H61.4531" stroke="#DBDAE1" stroke-miterlimit="10" stroke-linecap="round"/>
<path d="M64.6865 29.9388L64.7111 23.7188" stroke="#DBDAE1" stroke-miterlimit="10" stroke-linecap="round"/>
<path d="M67.9184 26.709H61.4531" stroke="#DBDAE1" stroke-miterlimit="10" stroke-linecap="round"/>
<path d="M64.6865 29.9388L64.7111 23.7188" stroke="#DBDAE1" stroke-miterlimit="10" stroke-linecap="round"/>
</g>
<defs>
<clipPath id="clip0_13991_10304">
<rect width="69" height="69" fill="white"/>
</clipPath>
</defs>
</svg>
