<svg width="22" height="22" viewBox="0 0 22 22" fill="none" xmlns="http://www.w3.org/2000/svg">
<path d="M13.1873 1.49915C13.2171 1.38728 13.2687 1.28238 13.3391 1.19046C13.4095 1.09853 13.4973 1.02138 13.5975 0.963422C13.6977 0.905462 13.8084 0.867826 13.9232 0.852668C14.038 0.83751 14.1546 0.845127 14.2664 0.875083C15.9103 1.3171 17.4092 2.18335 18.6129 3.38705C19.8166 4.59075 20.6829 6.08963 21.1249 7.73353C21.156 7.84576 21.1646 7.96305 21.1502 8.07863C21.1358 8.1942 21.0986 8.30577 21.0407 8.40688C20.9829 8.508 20.9056 8.59665 20.8134 8.66771C20.7211 8.73878 20.6156 8.79085 20.5031 8.82092C20.3906 8.85098 20.2732 8.85845 20.1578 8.84288C20.0423 8.82732 19.9311 8.78903 19.8306 8.73023C19.73 8.67143 19.6422 8.59329 19.572 8.50032C19.5018 8.40735 19.4508 8.30139 19.4218 8.18858C19.0602 6.84381 18.3516 5.61768 17.367 4.63301C16.3823 3.64835 15.1562 2.93973 13.8114 2.57815C13.5856 2.51781 13.393 2.37024 13.2759 2.16789C13.1589 1.96554 13.127 1.72499 13.1873 1.49915ZM12.8987 5.98462C13.6457 6.18553 14.3268 6.57921 14.8738 7.12623C15.4207 7.67324 15.8144 8.35439 16.0152 9.10143C16.0771 9.32563 16.225 9.51631 16.4268 9.63193C16.6286 9.74755 16.8679 9.77873 17.0926 9.71868C17.3172 9.65863 17.5091 9.51222 17.6263 9.31135C17.7435 9.11047 17.7766 8.87142 17.7183 8.64627C17.437 7.6001 16.8858 6.64621 16.1198 5.88018C15.3537 5.11414 14.3999 4.56286 13.3537 4.28155C13.1287 4.22378 12.89 4.25715 12.6895 4.37441C12.489 4.49168 12.3429 4.68335 12.2829 4.90777C12.2229 5.13218 12.254 5.3712 12.3693 5.57285C12.4846 5.7745 12.6748 5.92248 12.8987 5.98462ZM21.9873 16.6098C21.7959 18.0986 21.0691 19.4667 19.9426 20.4586C18.8161 21.4506 17.367 21.9985 15.8661 22C7.11747 22 0 14.8825 0 6.13392C0.00150588 4.63296 0.549398 3.18389 1.54132 2.05741C2.53325 0.930927 3.90135 0.204095 5.39005 0.012695C5.76887 -0.0329525 6.15228 0.0452249 6.48299 0.235541C6.81369 0.425858 7.07393 0.718092 7.22478 1.06856L9.43854 6.23363C9.55337 6.50081 9.60019 6.79229 9.57481 7.08199C9.54943 7.37169 9.45264 7.65059 9.2931 7.89373L7.46024 10.6943L7.46002 10.6945C8.28766 12.3773 9.65256 13.7362 11.3389 14.5564L14.0982 12.717C14.342 12.5539 14.6228 12.4543 14.9149 12.4275C15.207 12.4007 15.5012 12.4474 15.7706 12.5634L20.9313 14.7751C21.2818 14.9259 21.5741 15.1861 21.7645 15.5168C21.9548 15.8475 22.033 16.231 21.9873 16.6098ZM20.2384 16.3889L15.0763 14.1839L12.3179 16.0232C12.0643 16.1925 11.7712 16.2931 11.4671 16.3152C11.163 16.3372 10.8584 16.2799 10.5831 16.1488C8.53287 15.1553 6.87416 13.5042 5.87132 11.4585C5.73962 11.1849 5.68088 10.8818 5.7008 10.5788C5.72072 10.2757 5.81863 9.98297 5.98503 9.72891L7.818 6.9281L5.60446 1.76314C4.54259 1.90097 3.56716 2.42052 2.86026 3.22481C2.15336 4.02909 1.7633 5.06313 1.76289 6.13392C1.76712 9.87302 3.25435 13.4578 5.89828 16.1017C8.54222 18.7456 12.127 20.2329 15.8661 20.2371C16.9379 20.2363 17.9728 19.8452 18.7775 19.1371C19.5821 18.4289 20.1014 17.452 20.2384 16.3889Z" fill="#FB5100"/>
</svg>
