<svg width="294" height="158" viewBox="0 0 294 158" fill="none" xmlns="http://www.w3.org/2000/svg">
<path d="M271.391 157.629L78.2467 157.289C78.2467 157.289 78.2467 157.289 78.2454 157.289L68.0185 157.272H68.0173L66.877 157.271C66.877 157.271 66.877 157.271 66.8758 157.271L57.0763 157.253L53.1389 157.247L52.2614 157.245L41.8572 157.228H41.856L40.0532 157.224L36.3572 157.218L35.1353 157.215L28.2599 157.204C28.2599 157.204 25.997 155.083 23.1182 150.766C22.0031 149.098 20.7962 147.098 19.5931 144.768C19.3505 144.299 19.1079 143.817 18.8665 143.32C17.2259 139.947 15.6256 135.946 14.3106 131.311C14.2515 131.101 14.1924 130.889 14.1346 130.677V130.676C14.0504 130.37 13.9661 130.061 13.8857 129.75C13.4029 127.907 13.2244 126.064 13.3162 124.234C14.039 109.845 31.6039 96.2888 52.0401 90.6958C85.9052 81.4281 74.5607 61.5563 91.9873 35.6854C103.221 19.0081 120.702 13.4502 143.011 18.152C188.276 27.6925 155.477 79.1765 206.682 87.4083C301.288 102.617 271.391 157.629 271.391 157.629Z" fill="#D5E5FB"/>
<g opacity="0.5">
<path opacity="0.5" d="M86.2286 146.435C85.8024 151.299 83.0493 152.8 81.8399 152.672C80.6293 152.544 73.5503 149.846 73.3982 150.835C73.2435 151.825 77.504 155.058 80.4872 155.21C80.4872 155.21 79.5783 156.21 78.2482 157.291C78.2482 157.291 78.2482 157.291 78.247 157.291L68.0201 157.273H68.0188C66.8295 155.925 66.157 154.589 64.7138 153.932C62.3792 152.868 60.3879 152.871 61.3509 153.955C62.1353 154.839 65.0909 155.704 66.8773 157.272L57.0778 157.254C56.5096 156.592 56.1463 155.889 56.0847 155.165C56.0721 155.024 56.0608 154.891 56.0495 154.761V154.758C55.8069 151.926 55.8069 151.926 55.8069 151.926C55.8069 151.926 52.9971 148.655 53.2775 145.304C53.3328 144.632 53.5126 143.959 53.862 143.306C54.2128 142.656 54.7307 142.029 55.4662 141.449C55.4662 141.449 59.2389 139.17 62.3151 139.355C62.3151 139.355 59.9303 143.344 59.2602 145.714C59.1986 145.93 59.1521 146.132 59.1232 146.317C59.0377 146.846 59.0956 147.232 59.3671 147.372C59.7128 147.55 60.1491 147.125 60.6104 146.385C60.6821 146.268 60.755 146.145 60.8279 146.013C62.1756 143.597 63.6364 138.896 63.6364 138.896C63.6364 138.896 64.0035 138.86 64.6107 138.816C65.2895 138.767 66.2663 138.705 67.3676 138.67H67.3689C67.7297 138.658 68.1056 138.65 68.4865 138.645C69.6443 138.63 70.8663 138.652 71.9738 138.749C73.1958 138.855 74.2782 139.053 74.9847 139.391C74.9847 139.391 74.8288 139.517 74.5711 139.733C74.4416 139.843 74.2882 139.971 74.1122 140.122C74.1122 140.122 74.1122 140.122 74.111 140.122C73.7652 140.415 73.3391 140.779 72.884 141.183C72.1196 141.857 71.2685 142.635 70.557 143.358C69.7285 144.197 69.0886 144.959 68.9893 145.389C68.9466 145.575 69.0044 145.699 69.1905 145.741C69.9913 145.927 72.5031 144.438 74.7408 142.959C76.8226 141.584 78.6643 140.216 78.6643 140.216C78.6643 140.216 86.6548 141.571 86.2286 146.435Z" fill="#6980E2"/>
<g opacity="0.5">
<path opacity="0.5" d="M56.0495 154.76C56.0432 155.016 56.0834 155.164 56.0834 155.164C55.4348 155.28 54.2216 156.262 53.1392 157.247L52.2617 157.245C54.9168 154.583 55.8069 151.925 55.8069 151.925C60.6004 145.732 82.3026 146.567 82.3026 146.567C57.9214 147.363 56.0872 153.158 56.0495 154.756C56.0483 154.758 56.0483 154.759 56.0495 154.76Z" fill="#6980E2"/>
</g>
</g>
<path d="M32.1149 143.867C32.1149 143.867 40.8709 138.974 36.7852 132.335C36.7852 132.335 33.5166 128.258 30.0142 127.21C30.0142 127.21 31.8823 137.111 30.0142 137.344C28.146 137.576 28.7294 126.161 28.7294 126.161C28.7294 126.161 19.5069 121.735 15.8876 122.084C15.8876 122.084 21.6076 131.753 19.7407 131.519C17.8726 131.287 11.4524 121.501 11.4524 121.501C11.4524 121.501 1.99608 119.753 0.4787 125.345C-1.03868 130.937 1.41276 133.732 2.81323 134.082C4.21369 134.432 13.2036 134.315 12.9697 135.48C12.7359 136.646 6.66513 138.509 3.27963 137.46C3.27963 137.46 7.01588 146.663 11.9188 146.198C16.8216 145.731 18.3403 142.703 21.375 142.47C24.4111 142.238 26.6287 143.052 25.1113 143.868C23.5939 144.684 18.4572 144.136 16.0045 146.215C13.5531 148.295 11.568 149.577 16.1214 150.508C20.6748 151.44 28.8463 150.858 30.4818 147.363C32.1149 143.867 32.1149 143.867 32.1149 143.867Z" fill="#6980E2"/>
<path d="M4.79688 127.093C4.79688 127.093 29.3138 135.014 32.116 143.867C32.116 143.867 31.9991 147.827 34.4505 152.37V154.118C34.4505 154.118 31.8822 148.176 30.4817 147.362C30.4804 147.362 35.9679 139.673 4.79688 127.093Z" fill="#6980E2"/>
<path d="M36.3563 157.217L35.1343 157.214C34.9885 156.029 34.7433 154.873 34.3511 153.892C34.3511 153.89 34.3511 153.89 34.3511 153.89C34.3473 153.88 34.3436 153.871 34.3385 153.86C34.2568 153.653 34.1663 153.455 34.0708 153.268C34.0695 153.266 34.0682 153.263 34.0682 153.26C34.0645 153.252 34.0594 153.243 34.0557 153.235C33.7703 152.681 33.5792 152.269 33.456 151.972L33.4548 151.971C33.4522 151.964 33.4497 151.958 33.4472 151.953C32.7495 150.233 34.4517 152.37 34.4517 152.37C34.4517 152.37 35.7051 154.271 36.3563 157.217Z" fill="#6980E2"/>
<path d="M46.0461 137.12C46.0461 137.12 34.5042 130.67 39.8899 121.918C39.8899 121.918 44.1994 116.544 48.8156 115.162C48.8156 115.162 46.3529 128.214 48.8156 128.521C51.2784 128.828 50.5077 113.779 50.5077 113.779C50.5077 113.779 62.6656 107.945 67.4365 108.405C67.4365 108.405 59.8961 121.15 62.3576 120.843C64.8204 120.537 73.2848 107.638 73.2848 107.638C73.2848 107.638 85.7507 105.335 87.7508 112.706C89.7509 120.076 86.52 123.761 84.6733 124.223C82.8265 124.684 70.9766 124.529 71.2846 126.066C71.5926 127.601 79.5944 130.058 84.0585 128.675C84.0585 128.675 79.1343 140.806 72.67 140.192C66.207 139.577 64.2056 135.586 60.2041 135.278C56.2026 134.971 53.2785 136.046 55.2799 137.121C57.28 138.196 64.0523 137.473 67.2831 140.215C70.5153 142.957 73.1314 144.645 67.1298 145.873C61.1281 147.101 50.3556 146.335 48.2009 141.727C46.0461 137.12 46.0461 137.12 46.0461 137.12Z" fill="#6980E2"/>
<path d="M82.0573 115.008C82.0573 115.008 49.7398 125.45 46.0462 137.12C46.0462 137.12 46.1996 142.341 42.9688 148.33V150.633C42.9688 150.633 46.3543 142.802 48.201 141.727C48.201 141.726 40.9674 131.592 82.0573 115.008Z" fill="#6980E2"/>
<path d="M44.285 147.793C44.2837 147.796 44.2837 147.797 44.2825 147.799C44.2812 147.802 44.2812 147.802 44.2812 147.803C44.1165 148.204 43.8576 148.757 43.4729 149.508C43.4729 149.51 43.4716 149.51 43.4704 149.513C43.4678 149.518 43.4653 149.524 43.4628 149.529C43.3384 149.772 43.2227 150.028 43.1171 150.293C43.1121 150.306 43.107 150.317 43.102 150.33C43.1008 150.33 43.1008 150.331 43.1008 150.332C42.3062 152.317 41.9693 154.846 41.8587 157.227H41.8574L40.0547 157.223C40.5814 151.948 42.9688 148.329 42.9688 148.329C42.9688 148.329 42.9688 148.329 42.97 148.327C43.0178 148.266 45.2115 145.524 44.285 147.793Z" fill="#6980E2"/>
<path d="M130.967 45.818C130.967 45.818 122.617 45.0046 117.743 53.9744C112.87 62.9441 105.045 58.8282 99.7864 67.6056C94.5277 76.3818 111.073 81.8856 101.71 85.2133C92.3466 88.541 91.0969 105.066 108.331 107.298C125.567 109.529 152.886 105.946 154.426 103.002C155.965 100.059 160.622 96.603 154.702 90.2042C148.783 83.8053 158.719 87.3768 153.687 73.0554C148.654 58.7327 130.967 45.818 130.967 45.818Z" fill="#2C3A64"/>
<path d="M150.6 77.346L149.84 77.4994C146.512 78.1707 143.237 75.9971 142.563 72.6694L141.775 68.776C141.1 65.4433 143.275 62.166 146.609 61.4934L147.37 61.34C150.697 60.6687 153.972 62.8423 154.646 66.17L155.434 70.0621C156.109 73.3973 153.934 76.6747 150.6 77.346Z" fill="#ED7D2B"/>
<path d="M198.407 156.812H167.121C164.789 156.812 162.639 155.561 161.486 153.538C156.401 144.612 152.169 133.631 151.091 124.863C150.511 120.177 150.834 116.124 152.405 113.355C157.289 104.748 149.542 94.6445 149.542 94.6445C149.542 94.6445 160.573 98.0677 164.433 106.33C168.255 114.51 171.331 128.226 172.917 136.226C173.697 140.153 176.53 143.359 180.34 144.615L197.95 150.422C199.169 153.467 198.407 156.812 198.407 156.812Z" fill="#F99746"/>
<path d="M198.407 156.812H166.465C164.557 156.812 162.793 155.796 161.838 154.148C156.597 145.116 152.196 133.832 151.092 124.863L156.278 123.279C156.278 123.279 163.727 145.044 167.704 149.459C171.446 153.614 198.407 156.812 198.407 156.812Z" fill="#ED7D2B"/>
<path d="M154.704 108.789C152.024 111.129 148.565 113.201 144.106 114.771C127.394 120.662 119.178 106.932 115.584 97.2756C117.773 95.6752 119.941 95.1334 121.196 94.838C122.42 94.5526 123.713 94.3087 124.788 94.1327C126.548 92.4431 128.736 86.092 128.313 76.6621L129.145 76.7866L143.088 78.9551C143.088 78.9551 142.955 83.315 143.109 87.4032C143.234 90.6026 143.711 93.1446 143.711 93.1446C144.793 93.254 145.958 94.4998 145.958 94.4998C145.958 94.4998 145.959 94.5048 145.967 94.5111C146.179 94.7902 150.832 100.787 154.704 108.789Z" fill="#FFB27D"/>
<path d="M143.087 78.9591C143.087 78.9591 142.95 83.3151 143.108 87.4071C135.359 87.5052 130.979 80.6273 129.143 76.7905L143.087 78.9591Z" fill="#ED985F"/>
<path d="M161.35 123.277C161.311 123.576 157.586 135.665 157.547 135.968C156.253 146.088 153.912 156.886 153.912 156.886L148.793 156.877L115.008 156.81C115.008 156.81 119.084 144.539 108.333 125.726C107.981 125.11 107.613 124.487 107.228 123.857C105.697 121.348 115.358 94.5187 115.358 94.5187C115.358 94.5187 119.735 93.4174 125.669 92.9397C126.23 93.4514 130.236 103.128 137.71 103.128C148.142 103.128 143.71 93.1446 143.71 93.1446C147.677 93.9391 149.106 94.2295 154.199 96.6634C154.198 96.6646 161.556 121.627 161.35 123.277Z" fill="#F99746"/>
<path d="M145.636 82.9442C145.636 82.9442 127.321 83.7111 127.019 72.3226C126.716 60.9353 124.148 53.3648 135.829 52.3942C147.509 51.4237 149.897 55.7081 150.926 59.4846C151.952 63.2623 150.391 82.4514 145.636 82.9442Z" fill="#FFB27D"/>
<path d="M141.651 76.8408C141.651 76.8408 141.853 78.1948 144.865 78.225C144.865 78.225 147.394 78.2514 147.409 76.7818C147.409 76.7818 145.032 75.5485 141.651 76.8408Z" fill="white"/>
<path d="M142.925 81.3752C132.328 78.7377 129.174 69.0777 129.143 68.9797L130.234 68.6377L129.688 68.8087L130.234 68.6365C130.263 68.7282 133.245 77.7885 143.203 80.2664C143.269 80.2827 143.336 80.299 143.402 80.3154L143.137 81.4255C143.067 81.4104 142.996 81.3928 142.925 81.3752Z" fill="#122544"/>
<path d="M144.15 82.0717L143.151 81.8228C142.642 81.6958 142.33 81.1766 142.457 80.67C142.584 80.1621 143.104 79.8503 143.612 79.9773L144.612 80.2262C145.121 80.3532 145.433 80.8724 145.306 81.379C145.179 81.8869 144.658 82.1987 144.15 82.0717Z" fill="#ED7D2B"/>
<path d="M135.257 45.3102C135.257 45.3102 147.049 43.4735 151.928 53.2692C155.642 60.7254 152.545 65.3818 151.089 66.8087C151.089 66.8087 149.163 56.099 145.559 55.1851C145.559 55.1851 143.236 54.4773 141.651 56.3153C140.067 58.1532 137.775 66.3486 135.142 67.6045C135.142 67.6045 126.971 69.6172 126.57 66.7722C126.169 63.9273 127.953 56.094 128.452 53.6426C129.8 47.0325 135.257 45.3102 135.257 45.3102Z" fill="#2C3A64"/>
<path d="M131.535 77.346L130.774 77.4994C127.447 78.1707 124.172 75.9971 123.498 72.6694L122.71 68.776C122.035 65.4433 124.211 62.166 127.544 61.4934L128.304 61.34C131.632 60.6687 134.905 62.8423 135.58 66.17L136.369 70.0621C137.044 73.3973 134.868 76.6747 131.535 77.346Z" fill="#ED7D2B"/>
<path d="M125.706 63.2824C125.206 62.4703 124.469 55.9369 126.472 50.7335C127.44 48.2192 129.005 46.7848 130.967 45.8168C131.678 45.4673 132.473 45.28 133.283 45.28L135.257 45.3089C128.759 47.7767 127.253 60.9768 127.759 62.3848C127.744 62.3408 127.723 62.3094 127.709 62.2867L125.706 63.2824Z" fill="#ED7D2B"/>
<path d="M129.773 73.523L129.393 73.5997C127.735 73.9341 126.103 72.8504 125.768 71.1935L125.375 69.2537C125.04 67.593 126.123 65.96 127.784 65.6256L128.163 65.5489C129.821 65.2145 131.453 66.2981 131.788 67.9551L132.18 69.8949C132.517 71.5555 131.434 73.1873 129.773 73.523Z" fill="#F99746"/>
<path d="M115.008 156.812C115.008 156.812 114.665 147.965 108.333 125.727L116.648 122.176C116.648 122.176 119.427 140.773 128.288 146.616C137.131 152.446 147.536 151.229 148.792 156.878L115.008 156.812Z" fill="#ED7D2B"/>
<path d="M115.358 94.52C115.358 94.52 108.068 95.1536 103.185 103.759C98.3036 112.364 81.84 152.671 89.0346 156.811H128.053C128.053 156.811 128.816 153.465 127.595 150.42L106.201 144.465C106.201 144.465 117.984 124.237 118.136 114.951C118.289 105.667 115.358 94.52 115.358 94.52Z" fill="#F99746"/>
<path d="M128.288 152.857C128.288 152.857 135.89 152.115 137.15 152.457C138.408 152.799 142.012 154.284 142.813 154.798C143.614 155.312 145.159 156.812 145.159 156.812C145.159 156.812 144.186 156.995 143.614 156.867C143.042 156.739 141.326 156.624 140.868 156.587C140.411 156.549 138.77 156.887 138.77 156.887H126.984L128.288 152.857Z" fill="#FFB27D"/>
<path d="M204.773 156.886H159.66C159.66 154.905 161.267 153.298 163.248 153.298H204.772V156.886H204.773Z" fill="#233862"/>
<path d="M274.389 107.862L257.66 156.886H187.461L204.644 107.862H274.389Z" fill="#233862"/>
<path d="M276.868 107.862L260.294 156.432L260.14 156.886H190.967L208.15 107.862H276.868Z" fill="#2B478B"/>
<path d="M240.483 133.234C240.122 134.794 238.562 136.058 236.999 136.058C235.437 136.058 234.461 134.793 234.822 133.234C235.183 131.674 236.743 130.41 238.306 130.41C239.868 130.41 240.844 131.675 240.483 133.234Z" fill="#EBF3FA"/>
<path opacity="0.5" d="M276.869 107.862L260.295 156.432H228.513L267.264 107.862H276.869Z" fill="#233862"/>
<path d="M294.001 55.9319C294.001 58.905 293.355 61.8216 292.147 64.6251C291.074 67.1155 285.867 69.5191 283.969 71.7921C272.691 85.3001 257.679 78.9478 229.422 80.225C213.613 80.9403 199.256 80.9768 192.236 71.5218C190.603 69.323 189.181 67.0124 187.959 64.6251C183.856 56.6133 182.008 47.7566 182.008 39.4934C182.008 36.4938 182.699 33.6301 183.96 30.936C191.649 14.4937 220.527 4.37116 242.864 8.28467C259.405 11.1824 275.061 20.5834 284.589 32.3779C285.699 33.7495 286.723 35.1537 287.657 36.5831C288.011 37.1237 288.35 37.6668 288.677 38.2136C292.06 43.8896 294.001 49.924 294.001 55.9319Z" fill="#EBF3FA"/>
<path d="M294 55.9319C294 58.905 293.353 61.8216 292.145 64.6251C291.073 67.1155 289.557 69.5166 287.659 71.7896L242.175 71.821L232.642 71.7632L213.783 71.65L192.232 71.5205C190.599 69.3218 189.177 67.0111 187.955 64.6238C183.852 56.612 182.004 47.7554 182.004 39.4921C182.004 36.4926 182.695 33.6288 183.956 30.9347H185.834V30.936H186.453V30.3552H186.559V30.936H187.304V36.7641H192.065V38.9088H194.711V37.6617H197.165V32.7174H198.388V30.4105H198.573V32.7174H201.507V28.3965H201.795V32.7199H203.736V32.6595H203.734V32.1102H203.736V31.591H203.734V30.7286H203.736V30.1754H203.734V29.3118H203.736V28.7599H203.734V27.8962H203.736V27.3003H203.734V26.4367H203.736V25.6773H203.734V24.8137H203.736V24.2404H204.315V23.5942H204.406V24.2404H208.691V23.5942H208.782V24.2404H209.563V28.7611L210.114 28.7636V28.7611H210.11V27.8975H210.114V27.3016H210.11V26.4379H210.114V25.8433H210.11V24.9796H210.114V24.9771H215.308V24.9796H216.201C216.249 25.0035 216.293 25.0261 216.34 25.0488V29.9806H220.137V36.4586H223.204V24.4805H223.872V23.642H223.991V24.4805H226.415V23.642H226.536V24.4805H229.965V23.642H230.086V24.4805H232.245V23.642H232.364V24.4805H233.252V35.6616H236.641V33.8538L240.64 33.8689V30.936H241.444V30.3564H241.551V30.936H244.639V30.9373H245.256V30.3564H245.364V30.9373H246.108V36.7654H250.871V38.9101H253.517V37.663H255.971V32.7186H257.194V30.4118H257.379V32.7186H260.312V28.3965H260.601V32.7199H262.542V32.6595H262.538V32.1102H262.542V31.591H262.538V30.7286H262.542V30.1754H262.538V29.3118H262.542V28.7599H262.538V27.8962H262.542V27.3003H262.538V26.4367H262.542V25.6773H262.538V24.8137H262.542V24.2404H263.12V23.5942H263.213V24.2404H267.496V23.5942H267.588V24.2404H268.37V28.7611L268.913 28.7636H268.921V28.7611H268.917V27.8975H268.921V27.3016H268.917V26.4379H268.921V25.8433H268.917V24.9796H268.921V24.9771H274.115V24.9796H275.008C275.054 25.0035 275.1 25.0261 275.146 25.0488V29.9806H281.52V36.4586H284.587V32.3805C285.697 33.752 286.722 35.1562 287.656 36.5856C288.009 37.1262 288.349 37.6693 288.676 38.2161C292.059 43.8897 294 49.924 294 55.9319Z" fill="#ABB9FF"/>
<g opacity="0.5">
<path opacity="0.5" d="M233.251 24.478H225.588V26.3738H233.251V24.478Z" fill="#E2EEFD"/>
<path opacity="0.5" d="M233.251 27.3958H225.588V29.2915H233.251V27.3958Z" fill="#E2EEFD"/>
<path opacity="0.5" d="M233.251 30.374H225.588V32.2698H233.251V30.374Z" fill="#E2EEFD"/>
<path opacity="0.5" d="M233.251 33.3987H225.588V35.2945H233.251V33.3987Z" fill="#E2EEFD"/>
<path opacity="0.5" d="M233.251 36.3191H225.588V38.2149H233.251V36.3191Z" fill="#E2EEFD"/>
<g opacity="0.5">
<path opacity="0.5" d="M266.127 24.2402H262.551V25.3918H266.127V24.2402Z" fill="#E2EEFD"/>
<path opacity="0.5" d="M266.126 26.0129H262.55V27.1645H266.126V26.0129Z" fill="#E2EEFD"/>
<path opacity="0.5" d="M266.126 27.8208H262.55V28.9724H266.126V27.8208Z" fill="#E2EEFD"/>
<path opacity="0.5" d="M266.126 29.6587H262.55V30.8102H266.126V29.6587Z" fill="#E2EEFD"/>
<path opacity="0.5" d="M266.126 31.4312H262.55V32.5827H266.126V31.4312Z" fill="#E2EEFD"/>
</g>
<g opacity="0.5">
<path opacity="0.5" d="M266.127 33.3823H262.551V34.5339H266.127V33.3823Z" fill="#E2EEFD"/>
<path opacity="0.5" d="M266.126 35.155H262.55V36.3066H266.126V35.155Z" fill="#E2EEFD"/>
<path opacity="0.5" d="M266.126 36.9639H262.55V38.1154H266.126V36.9639Z" fill="#E2EEFD"/>
<path opacity="0.5" d="M266.126 38.8008H262.55V39.9523H266.126V38.8008Z" fill="#E2EEFD"/>
<path opacity="0.5" d="M266.126 40.5732H262.55V41.7248H266.126V40.5732Z" fill="#E2EEFD"/>
</g>
<g opacity="0.5">
<path opacity="0.5" d="M272.743 24.9958H268.911V26.1474H272.743V24.9958Z" fill="#E2EEFD"/>
<path opacity="0.5" d="M272.742 26.7673H268.91V27.9189H272.742V26.7673Z" fill="#E2EEFD"/>
<path opacity="0.5" d="M272.742 28.5762H268.91V29.7277H272.742V28.5762Z" fill="#E2EEFD"/>
<path opacity="0.5" d="M272.742 30.4128H268.91V31.5644H272.742V30.4128Z" fill="#E2EEFD"/>
<path opacity="0.5" d="M272.742 32.1868H268.91V33.3383H272.742V32.1868Z" fill="#E2EEFD"/>
</g>
<g opacity="0.5">
<path opacity="0.5" d="M272.743 34.0349H268.911V35.1865H272.743V34.0349Z" fill="#E2EEFD"/>
<path opacity="0.5" d="M272.742 35.8062H268.91V36.9577H272.742V35.8062Z" fill="#E2EEFD"/>
<path opacity="0.5" d="M272.742 37.6152H268.91V38.7668H272.742V37.6152Z" fill="#E2EEFD"/>
<path opacity="0.5" d="M272.742 39.4531H268.91V40.6047H272.742V39.4531Z" fill="#E2EEFD"/>
<path opacity="0.5" d="M272.742 41.2258H268.91V42.3774H272.742V41.2258Z" fill="#E2EEFD"/>
</g>
<g opacity="0.5">
<path opacity="0.5" d="M272.743 43.2585H268.911V44.4101H272.743V43.2585Z" fill="#E2EEFD"/>
<path opacity="0.5" d="M272.742 45.031H268.91V46.1826H272.742V45.031Z" fill="#E2EEFD"/>
<path opacity="0.5" d="M272.742 46.8389H268.91V47.9904H272.742V46.8389Z" fill="#E2EEFD"/>
<path opacity="0.5" d="M272.742 48.6768H268.91V49.8283H272.742V48.6768Z" fill="#E2EEFD"/>
<path opacity="0.5" d="M272.742 50.4495H268.91V51.601H272.742V50.4495Z" fill="#E2EEFD"/>
</g>
<path opacity="0.5" d="M288.674 38.2148H287.654V36.5842C288.006 37.1235 288.346 37.6679 288.674 38.2148Z" fill="#E2EEFD"/>
<g opacity="0.5">
<path opacity="0.5" d="M207.531 24.2405H203.699V25.392H207.531V24.2405Z" fill="#E2EEFD"/>
<path opacity="0.5" d="M207.531 26.0129H203.699V27.1645H207.531V26.0129Z" fill="#E2EEFD"/>
<path opacity="0.5" d="M207.531 27.8208H203.699V28.9724H207.531V27.8208Z" fill="#E2EEFD"/>
<path opacity="0.5" d="M207.531 29.6587H203.699V30.8102H207.531V29.6587Z" fill="#E2EEFD"/>
<path opacity="0.5" d="M207.531 31.4312H203.699V32.5827H207.531V31.4312Z" fill="#E2EEFD"/>
</g>
<g opacity="0.5">
<path opacity="0.5" d="M207.531 33.3823H203.699V34.5339H207.531V33.3823Z" fill="#E2EEFD"/>
<path opacity="0.5" d="M207.531 35.155H203.699V36.3066H207.531V35.155Z" fill="#E2EEFD"/>
<path opacity="0.5" d="M207.531 36.9639H203.699V38.1154H207.531V36.9639Z" fill="#E2EEFD"/>
<path opacity="0.5" d="M207.531 38.8008H203.699V39.9523H207.531V38.8008Z" fill="#E2EEFD"/>
<path opacity="0.5" d="M207.531 40.5732H203.699V41.7248H207.531V40.5732Z" fill="#E2EEFD"/>
</g>
<g opacity="0.5">
<path opacity="0.5" d="M214.544 24.9958H210.189V26.1474H214.544V24.9958Z" fill="#E2EEFD"/>
<path opacity="0.5" d="M214.544 26.7673H210.189V27.9189H214.544V26.7673Z" fill="#E2EEFD"/>
<path opacity="0.5" d="M214.544 28.5762H210.189V29.7277H214.544V28.5762Z" fill="#E2EEFD"/>
<path opacity="0.5" d="M214.544 30.4128H210.189V31.5644H214.544V30.4128Z" fill="#E2EEFD"/>
<path opacity="0.5" d="M214.544 32.1868H210.189V33.3383H214.544V32.1868Z" fill="#E2EEFD"/>
</g>
<g opacity="0.5">
<path opacity="0.5" d="M214.544 34.0349H210.189V35.1865H214.544V34.0349Z" fill="#E2EEFD"/>
<path opacity="0.5" d="M214.544 35.8062H210.189V36.9577H214.544V35.8062Z" fill="#E2EEFD"/>
<path opacity="0.5" d="M214.544 37.6152H210.189V38.7668H214.544V37.6152Z" fill="#E2EEFD"/>
<path opacity="0.5" d="M214.544 39.4531H210.189V40.6047H214.544V39.4531Z" fill="#E2EEFD"/>
<path opacity="0.5" d="M214.544 41.2258H210.189V42.3774H214.544V41.2258Z" fill="#E2EEFD"/>
</g>
<g opacity="0.5">
<path opacity="0.5" d="M214.544 43.2585H210.189V44.4101H214.544V43.2585Z" fill="#E2EEFD"/>
<path opacity="0.5" d="M214.544 45.031H210.189V46.1826H214.544V45.031Z" fill="#E2EEFD"/>
<path opacity="0.5" d="M214.544 46.8389H210.189V47.9904H214.544V46.8389Z" fill="#E2EEFD"/>
<path opacity="0.5" d="M214.544 48.6768H210.189V49.8283H214.544V48.6768Z" fill="#E2EEFD"/>
<path opacity="0.5" d="M214.544 50.4495H210.189V51.601H214.544V50.4495Z" fill="#E2EEFD"/>
</g>
</g>
<path d="M292.145 64.625C284.698 81.9108 255.431 84.0316 224.06 83.3213C204.559 82.8801 194.433 77.2744 187.957 64.625H292.145Z" fill="#6980E2"/>
<path d="M199.555 66.9054H258.951L279.01 65.1027C279.01 65.1027 275.421 56.1794 274.442 56.0449C273.464 55.9104 201.435 56.0449 201.435 56.0449L199.555 66.9054Z" fill="#1D2949"/>
<path d="M287.581 66.0268C286.102 66.6302 277.168 66.7648 277.168 66.7648C277.168 66.7648 277.369 55.8389 268.165 57.1124C258.962 58.3859 260.571 67.4549 260.571 67.4549L216.323 68.2432C216.323 68.2432 217.042 56.7252 207.273 57.9358C199.156 58.9428 201.241 68.1992 201.241 68.1992C193.15 68.6165 192.312 65.876 192.312 65.876V64.7445H192.82V61.7651H192.312V59.5462L194.015 55.6579C196.882 50.7424 219.365 49.4023 219.365 49.4023C222.78 47.4436 225.611 45.9879 227.826 44.9306C231.358 43.2435 235.386 41.5991 239.283 41.2145C249.837 40.1735 258.514 41.3527 260.642 41.6972C263.128 42.0995 275.624 47.5291 276.564 47.998C277.504 48.4669 285.176 49.1043 286.161 49.2225C287.147 49.3419 287.117 50.325 287.117 50.325L287.252 51.1975L287.768 54.5201L287.894 55.331C288.61 55.688 288.611 56.7126 288.611 56.7126C288.611 56.7126 289.058 65.4234 287.581 66.0268Z" fill="#F99746"/>
<path d="M201.766 65.1029C201.766 61.3478 204.817 58.3042 208.579 58.3042C212.342 58.3042 215.393 61.3478 215.393 65.1029C215.393 68.858 212.342 71.9015 208.579 71.9015C204.817 71.9015 201.766 68.8567 201.766 65.1029Z" fill="#2C3A64"/>
<path d="M208.58 70.4193C205.642 70.4193 203.251 68.0345 203.251 65.1029C203.251 62.1712 205.641 59.7864 208.58 59.7864C211.519 59.7864 213.909 62.1712 213.909 65.1029C213.909 68.0345 211.519 70.4193 208.58 70.4193ZM208.58 60.2767C205.914 60.2767 203.744 62.4415 203.744 65.1016C203.744 67.7617 205.914 69.9265 208.58 69.9265C211.246 69.9265 213.416 67.7617 213.416 65.1016C213.416 62.4415 211.246 60.2767 208.58 60.2767Z" fill="#AFCDFB"/>
<path d="M209.49 70.1792H207.58L208.193 64.9582L207.493 59.9988L209.674 60.1333L208.948 64.9582L209.49 70.1792Z" fill="#AFCDFB"/>
<path d="M204.618 68.4153L203.664 66.7659L208.503 64.6854L212.457 61.6016L213.431 63.5539L208.88 65.3378L204.618 68.4153Z" fill="#AFCDFB"/>
<path d="M203.854 63.1353L204.902 61.5425L208.937 64.9229L213.474 67.0626L212.163 68.8075L208.523 65.5515L203.854 63.1353Z" fill="#AFCDFB"/>
<path d="M206.791 65.0927C206.791 64.1134 207.587 63.3188 208.569 63.3188C209.55 63.3188 210.346 64.1134 210.346 65.0927C210.346 66.072 209.55 66.8665 208.569 66.8665C207.587 66.8665 206.791 66.072 206.791 65.0927Z" fill="#AFCDFB"/>
<path d="M268.996 71.9015C272.759 71.9015 275.81 68.8577 275.81 65.1029C275.81 61.3481 272.759 58.3042 268.996 58.3042C265.233 58.3042 262.183 61.3481 262.183 65.1029C262.183 68.8577 265.233 71.9015 268.996 71.9015Z" fill="#2C3A64"/>
<path d="M268.996 70.4193C266.058 70.4193 263.667 68.0345 263.667 65.1029C263.667 62.1712 266.057 59.7864 268.996 59.7864C271.935 59.7864 274.325 62.1712 274.325 65.1029C274.325 68.0345 271.934 70.4193 268.996 70.4193ZM268.996 60.2767C266.33 60.2767 264.16 62.4415 264.16 65.1016C264.16 67.7617 266.33 69.9265 268.996 69.9265C271.662 69.9265 273.832 67.7617 273.832 65.1016C273.832 62.4415 271.662 60.2767 268.996 60.2767Z" fill="#AFCDFB"/>
<path d="M269.908 70.1792H267.998L268.61 64.9582L267.91 59.9988L270.093 60.1333L269.365 64.9582L269.908 70.1792Z" fill="#AFCDFB"/>
<path d="M265.036 68.4153L264.082 66.7659L268.92 64.6854L272.875 61.6016L273.848 63.5539L269.297 65.3378L265.036 68.4153Z" fill="#AFCDFB"/>
<path d="M264.271 63.1353L265.319 61.5425L269.354 64.9229L273.893 67.0626L272.582 68.8075L268.941 65.5515L264.271 63.1353Z" fill="#AFCDFB"/>
<path d="M267.208 65.0927C267.208 64.1134 268.004 63.3188 268.986 63.3188C269.967 63.3188 270.763 64.1134 270.763 65.0927C270.763 66.072 269.967 66.8665 268.986 66.8665C268.005 66.8665 267.208 66.072 267.208 65.0927Z" fill="#AFCDFB"/>
<path d="M201.714 55.6326H197.256C195.781 55.6326 194.421 56.4283 193.702 57.7131L193.548 57.9859C193.394 58.2613 193.594 58.6007 193.911 58.6007H199.275C199.646 58.6007 199.999 58.4461 200.249 58.1745L201.999 56.2825C202.229 56.0349 202.052 55.6326 201.714 55.6326Z" fill="#F9DDBF"/>
<path d="M196.3 65.1028H194.779C194.276 65.1028 193.811 65.3743 193.566 65.8131L193.513 65.9061C193.461 66.0004 193.528 66.116 193.637 66.116H195.467C195.594 66.116 195.713 66.0632 195.8 65.9702L196.397 65.3253C196.476 65.2398 196.416 65.1028 196.3 65.1028Z" fill="#1D2949"/>
<path d="M269.975 48.7548L247.23 49.2941C246.784 49.3054 246.417 48.9472 246.417 48.5021V43.2736C246.417 42.8626 246.754 42.5307 247.166 42.537C256.865 42.6715 260.189 42.9418 262.183 43.6269C263.94 44.2316 268.053 46.7207 270.177 47.9842C270.537 48.1966 270.392 48.7448 269.975 48.7548Z" fill="#AFCDFB"/>
<path d="M244.439 42.5017C244.808 42.5055 245.17 42.5105 245.523 42.5143V49.3343L223.581 49.8535C223.295 49.8598 223.177 49.4902 223.413 49.3306C225.977 47.6083 234.563 42.3911 244.439 42.5017Z" fill="#AFCDFB"/>
<path d="M269.897 48.7572H269.885V47.8093C269.963 47.8558 270.038 47.9011 270.111 47.9438C270.489 48.1689 270.337 48.7472 269.897 48.7572Z" fill="#AFCDFB"/>
<path d="M246.417 49.6097L243.729 49.3972L243.909 42.1045H246.417V49.6097Z" fill="#F99746"/>
<path d="M263.437 49.6096H262.183V43.0598L263.437 43.8116V49.6096Z" fill="#F99746"/>
<path d="M226.316 47.563L226.985 49.7743L223.325 49.8611C223.112 49.8661 223.02 49.5933 223.193 49.4688C224.019 48.8742 225.551 47.8182 226.316 47.563Z" fill="#2C3A64"/>
<path d="M223.168 50.0423C223.018 50.0423 222.887 49.948 222.841 49.8059C222.793 49.6613 222.846 49.5042 222.971 49.4175L223.048 49.3647C223.127 49.3093 223.217 49.249 223.313 49.1836C223.394 49.1296 223.479 49.073 223.571 49.0114L223.709 48.9209C223.814 48.8517 223.926 48.7801 224.044 48.7059C224.128 48.6531 224.215 48.5978 224.305 48.5412L224.32 48.5324C224.333 48.5249 224.347 48.5161 224.359 48.5085C224.435 48.4608 224.515 48.4117 224.598 48.3614L224.616 48.3501C224.643 48.3338 224.67 48.3162 224.699 48.2998C224.739 48.2747 224.783 48.2483 224.826 48.2219C224.886 48.1854 224.946 48.149 225.009 48.1113C225.185 48.0057 225.374 47.895 225.571 47.7806C225.632 47.7454 225.693 47.7102 225.757 47.6738C225.882 47.6021 226.009 47.5305 226.139 47.4576L226.231 47.406C226.495 47.2589 226.763 47.1144 227.027 46.9736L227.114 46.9283C227.154 46.9069 227.194 46.8856 227.234 46.8642C227.737 46.6014 228.255 46.3437 228.772 46.0973L228.933 46.0219C229.094 45.9452 229.258 45.8698 229.424 45.7943C229.48 45.7692 229.535 45.7441 229.592 45.7189C229.702 45.6686 229.815 45.6183 229.93 45.5681L230.102 45.4926C230.273 45.4172 230.455 45.3393 230.658 45.2538C230.763 45.2098 230.869 45.1658 230.976 45.1218C231.694 44.8263 232.424 44.5498 233.149 44.2983L233.308 44.243C233.367 44.2229 233.427 44.2028 233.487 44.1814L233.714 44.106C233.775 44.0859 233.836 44.0658 233.897 44.0457L233.905 44.0431C233.969 44.0218 234.033 44.0017 234.097 43.9803C234.214 43.9438 234.331 43.9061 234.449 43.8697C234.53 43.8445 234.61 43.8194 234.692 43.7955C234.816 43.7578 234.941 43.7213 235.066 43.6848L235.275 43.6245C235.406 43.5868 235.538 43.5503 235.67 43.5139C235.931 43.4422 236.199 43.3718 236.463 43.3065L236.479 43.3027C236.503 43.2964 236.526 43.2914 236.55 43.2851C236.662 43.2574 236.777 43.2298 236.893 43.2021C236.961 43.1858 237.03 43.1694 237.101 43.1531L237.153 43.1418C237.205 43.1305 237.256 43.1179 237.309 43.1066C237.378 43.0915 237.447 43.0751 237.517 43.06C237.587 43.045 237.656 43.0299 237.727 43.0148C237.797 42.9997 237.867 42.9859 237.938 42.9708C238.007 42.9557 238.079 42.9419 238.149 42.928L238.16 42.9255C238.227 42.913 238.294 42.8991 238.361 42.8866C238.428 42.874 238.495 42.8614 238.561 42.8488C238.637 42.835 238.712 42.8212 238.788 42.8074C238.835 42.7986 238.884 42.7898 238.933 42.7822L239.001 42.7709C239.145 42.7458 239.287 42.7231 239.43 42.7005C239.502 42.6892 239.573 42.6779 239.646 42.6666L239.658 42.6653C239.785 42.6464 239.911 42.6276 240.038 42.61C240.275 42.5773 240.514 42.5471 240.746 42.5207L240.761 42.5195C240.827 42.5119 240.892 42.5044 240.957 42.4981C241.003 42.4931 241.052 42.488 241.098 42.483C241.145 42.478 241.195 42.473 241.247 42.4679C241.299 42.4629 241.356 42.4566 241.413 42.4516C241.485 42.444 241.561 42.4378 241.635 42.4315C241.705 42.4252 241.778 42.4189 241.85 42.4139C241.908 42.4088 241.962 42.4051 242.017 42.4013L242.335 42.3799C242.398 42.3762 242.461 42.3724 242.524 42.3686L242.552 42.3674C242.621 42.3636 242.691 42.3598 242.761 42.356C242.817 42.3535 242.873 42.351 242.93 42.3485H242.935C242.985 42.346 243.036 42.3447 243.086 42.3422L243.21 42.3372C243.259 42.3359 243.31 42.3334 243.359 42.3322C243.555 42.3259 243.737 42.3988 243.877 42.5333C244.016 42.6691 244.093 42.8501 244.093 43.0437V48.6959C244.093 49.166 243.709 49.557 243.239 49.5683L223.18 50.0435C223.173 50.0423 223.17 50.0423 223.168 50.0423ZM226.48 47.6763L226.356 47.7454C226.211 47.8259 226.07 47.9051 225.933 47.983C225.87 48.0195 225.809 48.0534 225.748 48.0886C225.554 48.2018 225.366 48.3112 225.192 48.4168C225.129 48.4545 225.068 48.4909 225.008 48.5261C224.965 48.5513 224.924 48.5777 224.882 48.6028C224.855 48.6192 224.828 48.6355 224.802 48.6518L224.783 48.6632C224.701 48.7135 224.622 48.7625 224.544 48.8102L224.493 48.8417C224.403 48.897 224.317 48.9523 224.234 49.0051C224.117 49.0793 224.007 49.1497 223.904 49.2176L223.766 49.3081C223.675 49.3684 223.59 49.425 223.511 49.4778C223.415 49.5419 223.327 49.6023 223.249 49.6563L223.213 49.6815L226.98 49.5922L243.225 49.2075C243.503 49.2012 243.729 48.9699 243.729 48.6933V43.0412C243.729 42.9444 243.692 42.8551 243.621 42.7872C243.552 42.7194 243.46 42.6842 243.364 42.6867C243.315 42.6879 243.266 42.6892 243.217 42.6917L243.092 42.6967C243.043 42.698 242.994 42.7005 242.945 42.703H242.939C242.882 42.7055 242.827 42.708 242.773 42.7106C242.704 42.7131 242.634 42.7168 242.565 42.7206L242.538 42.7219C242.476 42.7256 242.414 42.7294 242.353 42.7332L242.037 42.7546C241.983 42.7583 241.93 42.7634 241.876 42.7671C241.802 42.7722 241.732 42.7784 241.661 42.7847C241.587 42.791 241.514 42.7973 241.441 42.8048C241.386 42.8099 241.332 42.8149 241.278 42.8212C241.228 42.8262 241.18 42.83 241.133 42.8363C241.084 42.8413 241.038 42.8463 240.993 42.8514C240.926 42.8577 240.862 42.8652 240.799 42.8727L240.784 42.874C240.554 42.9004 240.319 42.9306 240.084 42.9632C239.958 42.9808 239.832 42.9984 239.708 43.0173L239.698 43.0186C239.626 43.0299 239.554 43.0399 239.483 43.0525C239.341 43.0751 239.199 43.099 239.058 43.1229L238.99 43.1342C238.942 43.143 238.894 43.1506 238.847 43.1594C238.771 43.1732 238.697 43.1858 238.623 43.1996C238.556 43.2122 238.491 43.2247 238.424 43.2373C238.358 43.2499 238.291 43.2624 238.226 43.2763L238.214 43.2788C238.145 43.2926 238.076 43.3065 238.007 43.3203C237.936 43.3354 237.867 43.3492 237.797 43.363C237.728 43.3781 237.659 43.3919 237.59 43.407C237.52 43.4221 237.453 43.4372 237.383 43.4523C237.332 43.4636 237.282 43.4749 237.23 43.4875L237.177 43.5001C237.109 43.5151 237.041 43.5315 236.974 43.5478C236.858 43.5742 236.745 43.6019 236.633 43.6308C236.609 43.6371 236.588 43.6421 236.566 43.6471L236.55 43.6509C236.288 43.7163 236.023 43.7854 235.764 43.8571C235.633 43.8923 235.503 43.9287 235.373 43.9665L235.166 44.0255C235.043 44.062 234.919 44.0985 234.796 44.1362C234.716 44.1601 234.636 44.1852 234.556 44.2103C234.439 44.2468 234.322 44.2833 234.207 44.321C234.144 44.3411 234.081 44.3612 234.018 44.3826L234.01 44.3851C233.95 44.4052 233.89 44.4241 233.829 44.4442L233.604 44.5196C233.545 44.5397 233.486 44.5598 233.427 44.5799L233.269 44.6353C232.55 44.8854 231.825 45.1595 231.114 45.4524C231.008 45.4964 230.903 45.5404 230.798 45.5831C230.597 45.6674 230.416 45.7453 230.248 45.8195L230.077 45.8949C229.964 45.9452 229.852 45.9942 229.741 46.0445C229.685 46.0697 229.631 46.0948 229.575 46.12C229.409 46.1954 229.247 46.2708 229.087 46.3462L228.928 46.4217C228.415 46.6656 227.902 46.922 227.404 47.1822C227.364 47.2036 227.324 47.225 227.283 47.2464L227.198 47.2916C226.958 47.4161 226.718 47.5456 226.48 47.6763Z" fill="#1D2949"/>
<path d="M263.812 49.0881C263.679 49.0881 263.551 49.0353 263.453 48.9397C263.342 48.8329 263.279 48.6795 263.279 48.5211V44.7056C263.279 44.4882 263.312 44.2116 263.488 44.1022C263.648 44.0029 263.915 44.0758 264.084 44.1575C264.271 44.2493 264.402 44.3147 264.472 44.3524C264.48 44.3561 264.49 44.3624 264.5 44.3675L264.577 44.4089C265.53 44.9281 266.887 45.7466 268.61 46.839C268.683 46.8855 268.757 46.932 268.828 46.9773C269.002 47.0879 269.172 47.196 269.334 47.3004L269.938 47.6901C270.044 47.758 270.145 47.8234 270.24 47.8862C270.253 47.895 270.268 47.9038 270.283 47.9139L270.297 47.9227C270.498 48.0534 270.587 48.3023 270.519 48.5437C270.454 48.7713 270.268 48.9234 270.043 48.9284L269.977 48.9297L263.827 49.0893C263.821 49.0868 263.816 49.0881 263.812 49.0881ZM263.846 44.4165C263.795 44.4165 263.753 44.4354 263.728 44.4517C263.645 44.5032 263.596 44.5975 263.596 44.7044V48.5198C263.596 48.594 263.625 48.6644 263.674 48.7122C263.714 48.7511 263.765 48.7713 263.817 48.7713L270.033 48.6103C270.16 48.6066 270.202 48.4909 270.212 48.4557C270.235 48.374 270.226 48.2546 270.122 48.1867L270.109 48.1779C270.096 48.1691 270.082 48.1603 270.068 48.1515C269.97 48.0874 269.871 48.022 269.765 47.9554L269.162 47.5669C268.999 47.4626 268.831 47.3544 268.656 47.2438C268.584 47.1986 268.512 47.152 268.439 47.1055C266.72 46.0156 265.37 45.2022 264.423 44.6855L264.347 44.644C264.339 44.6403 264.332 44.6352 264.323 44.6315C264.254 44.595 264.124 44.5284 263.943 44.4404C263.908 44.4228 263.875 44.4165 263.846 44.4165Z" fill="#1D2949"/>
<path d="M226.316 47.563L226.985 49.7743L223.325 49.8611C223.112 49.8661 223.02 49.5933 223.193 49.4688C224.019 48.8742 225.551 47.8182 226.316 47.563Z" fill="#2C3A64"/>
<path d="M247.21 49.4727C246.955 49.4727 246.715 49.3746 246.531 49.1973C246.343 49.0125 246.238 48.7661 246.238 48.5021V43.2737C246.238 43.0273 246.335 42.7947 246.511 42.6212C246.687 42.4477 246.921 42.3559 247.169 42.3572C257.179 42.4967 260.279 42.723 262.246 43.4597L262.361 43.5037V49.1156L247.233 49.4739C247.226 49.4727 247.219 49.4727 247.21 49.4727ZM247.157 42.7155C247.009 42.7155 246.869 42.7721 246.764 42.8764C246.656 42.982 246.597 43.1228 246.597 43.2737V48.5021C246.597 48.6693 246.662 48.824 246.781 48.9409C246.901 49.0578 247.059 49.1194 247.225 49.1144L262.004 48.7649V43.7514C260.091 43.0738 256.811 42.8487 247.165 42.7142C247.162 42.7155 247.16 42.7155 247.157 42.7155Z" fill="#1D2949"/>
<path d="M287.766 54.5177H283.484C282.847 54.5177 282.244 54.226 281.851 53.7269L280.232 51.674C280.08 51.4804 280.217 51.1963 280.464 51.1963H287.252L287.766 54.5177Z" fill="#A9453D"/>
<path d="M245.327 42.4522L245.062 65.3489L245.241 65.351L245.507 42.4543L245.327 42.4522Z" fill="#1D2949"/>
<path d="M260.504 65.0042L216.234 65.8853L216.238 66.0637L260.507 65.1826L260.504 65.0042Z" fill="#1D2949"/>
<path d="M242.703 54.0789C242.703 54.3215 241.62 54.5176 240.284 54.5176C238.949 54.5176 237.865 54.3215 237.865 54.0789C237.865 53.8363 238.948 53.6401 240.284 53.6401C241.62 53.6401 242.703 53.8363 242.703 54.0789Z" fill="#ED823A"/>
<path d="M265.229 54.0789C265.229 54.3215 264.147 54.5176 262.81 54.5176C261.475 54.5176 260.392 54.3215 260.392 54.0789C260.392 53.8363 261.474 53.6401 262.81 53.6401C264.145 53.6401 265.229 53.8363 265.229 54.0789Z" fill="#ED823A"/>
<path d="M258.779 65.1066L258.601 65.0966C258.724 62.8199 259.4 60.9015 260.611 59.3941C261.579 58.1885 262.887 57.2419 264.502 56.5844C266.956 55.5825 269.387 55.5561 269.887 55.5636V48.7549H270.066V55.7484L269.973 55.7446C269.946 55.7434 267.269 55.6466 264.563 56.7529C262.979 57.4003 261.696 58.3281 260.748 59.5098C259.562 60.9869 258.901 62.8702 258.779 65.1066Z" fill="#1D2949"/>
<path d="M221.63 65.8672C221.561 59.9611 221.891 55.8754 222.18 53.4868C222.493 50.8958 222.828 49.6852 222.831 49.6726L223.003 49.7204C222.991 49.7682 221.677 54.5893 221.809 65.8634L221.63 65.8672Z" fill="#1D2949"/>
<path d="M247.168 42.4465H243.663V42.625H247.168V42.4465Z" fill="#1D2949"/>
<path d="M249.158 41.4068L248.655 38.8862C248.581 38.5141 248.254 38.2476 247.875 38.2476H246.292C245.925 38.2476 245.606 38.4977 245.519 38.8522L244.892 41.4068H249.158Z" fill="#F99746"/>
<path d="M196.798 20.2301C195.735 2.88768 183.544 -0.00376777 172.341 3.68146e-06C161.139 0.00377513 150.185 5.80175 150.717 18.8447C150.947 24.4729 152.522 29.3595 156.258 32.8229L152.046 43.339L160.623 35.7294C164.069 37.3524 168.57 38.2626 174.358 38.2601C191.521 38.2551 197.48 31.3873 196.798 20.2301Z" fill="#F77D48"/>
<path d="M182.853 28.2004L182.82 25.9363C181.553 25.9313 180.238 25.5466 179.465 24.9972L179.968 23.4886C180.761 24.0154 181.904 24.4252 183.126 24.4076C184.676 24.3862 185.712 23.4522 185.693 22.1736C185.675 20.9404 184.813 20.1911 183.187 19.5412C180.947 18.6763 179.557 17.6642 179.529 15.7144C179.503 13.8538 180.771 12.4232 182.775 12.0586L182.742 9.79449L184.096 9.77563L184.128 11.9492C185.439 11.9756 186.339 12.3214 186.978 12.6935L186.453 14.1807C185.991 13.9179 185.088 13.4377 183.691 13.4578C182.009 13.4817 181.391 14.5214 181.405 15.4177C181.421 16.5831 182.238 17.1551 184.149 17.9345C186.412 18.8435 187.563 19.9937 187.592 21.9888C187.617 23.7589 186.44 25.4347 184.197 25.8483L184.229 28.179L182.853 28.2004Z" fill="white"/>
<path d="M170.785 15.4402H159.953V16.9085H170.785V15.4402Z" fill="white"/>
<path d="M177.255 18.988H159.953V20.4564H177.255V18.988Z" fill="white"/>
<path d="M173.455 22.5369H159.953V24.0052H173.455V22.5369Z" fill="white"/>
</svg>
