<svg width="265" height="162" viewBox="0 0 265 162" fill="none" xmlns="http://www.w3.org/2000/svg">
<path d="M264.502 91.9869C264.504 93.3022 264.48 94.691 264.435 96.1411C264.425 96.4119 264.417 96.688 264.406 96.9642C264.365 98.0541 264.311 99.1787 264.244 100.329C264.228 100.59 264.213 100.852 264.196 101.116C264.177 101.433 264.156 101.755 264.133 102.075C264.041 103.43 263.931 104.818 263.803 106.226C263.778 106.512 263.751 106.796 263.723 107.082C263.594 108.446 263.448 109.835 263.283 111.236C263.251 111.521 263.215 111.813 263.179 112.1C263.013 113.476 262.831 114.862 262.632 116.252C262.591 116.544 262.547 116.836 262.504 117.126C262.343 118.222 262.169 119.32 261.989 120.415C261.891 120.993 261.792 121.568 261.692 122.143C261.447 123.537 261.183 124.922 260.906 126.295C260.848 126.581 260.789 126.865 260.729 127.152C260.436 128.553 260.126 129.938 259.798 131.301C259.729 131.589 259.659 131.879 259.587 132.167C259.298 133.33 258.995 134.476 258.681 135.599C258.508 136.216 258.332 136.823 258.153 137.424C257.725 138.852 257.271 140.239 256.797 141.573C256.693 141.864 256.589 142.152 256.484 142.438C255.945 143.892 255.379 145.279 254.783 146.584C254.658 146.861 254.53 147.134 254.399 147.403C253.677 148.915 252.913 150.305 252.106 151.544C251.847 151.946 251.583 152.331 251.315 152.699C250.02 154.482 248.625 155.889 247.127 156.831C247.018 156.9 246.907 156.967 246.797 157.031C246.769 157.047 246.742 157.063 246.714 157.079C246.496 157.203 246.278 157.315 246.057 157.419L234.417 157.443L201.511 157.513L160.67 157.163L144.704 157.026L113.115 156.756L17.6976 155.94C17.6976 155.94 0 141.001 0 115.071C0 114.714 0.00280517 114.357 0.00935258 113.997C0.270313 100.138 2.87431 73.7238 25.2608 60.0111C26.8687 59.0279 28.5794 58.1074 30.3996 57.2617C32.0262 56.5066 33.7397 55.8115 35.5459 55.1832C37.8412 54.3841 40.2824 53.6931 42.8818 53.1234C43.1362 53.0661 43.3934 53.0114 43.6515 52.958C44.8937 52.6992 46.0834 52.3951 47.2246 52.0442C77.3426 42.8179 73.7238 2.93264 113.449 0.153823C117.086 -0.102314 121.087 -0.0449508 125.511 0.37394C132.303 1.01962 137.9 3.38088 142.902 6.15703C148.193 9.08926 152.819 12.4844 157.492 14.7883L157.812 14.9457C162.396 17.1589 167.04 18.2928 172.417 16.8894C172.677 16.8241 172.942 16.748 173.208 16.668C179.161 14.8643 184.722 13.5356 189.914 12.6392C190.022 12.6218 190.128 12.6018 190.236 12.5845C202.716 10.4713 213.068 10.8782 221.675 13.2328C221.782 13.2622 221.89 13.2902 221.995 13.3222C225.713 14.3627 229.101 15.7702 232.193 17.4951C233.057 17.9767 233.896 18.4809 234.712 19.0119C234.737 19.0279 234.763 19.0426 234.787 19.0599C234.924 19.1493 235.059 19.24 235.194 19.3294C235.324 19.4161 235.454 19.5042 235.584 19.5909C235.595 19.5989 235.607 19.6082 235.62 19.6162C236.626 20.3046 237.598 21.0303 238.537 21.7907C239.649 22.6939 240.716 23.645 241.734 24.6429C242.024 24.9271 242.312 25.2139 242.594 25.506C243.877 26.8227 245.084 28.2181 246.222 29.6776C246.447 29.9644 246.667 30.2552 246.886 30.5474C247.886 31.8854 248.83 33.2755 249.724 34.7163C249.953 35.0845 250.176 35.4553 250.399 35.8289C251.199 37.1789 251.955 38.5677 252.67 39.9938C252.815 40.2819 252.957 40.5727 253.098 40.8636C253.759 42.2203 254.382 43.6104 254.973 45.0271C255.101 45.3339 255.227 45.6448 255.353 45.9543C255.89 47.2857 256.398 48.6384 256.879 50.0124C257.058 50.5261 257.233 51.0383 257.406 51.5573C257.705 52.4538 257.992 53.3596 258.268 54.272C258.5 55.0351 258.724 55.8022 258.942 56.5733C259.329 57.9473 259.694 59.3334 260.038 60.7328C260.109 61.021 260.18 61.3118 260.248 61.6C260.48 62.5685 260.704 63.5423 260.917 64.5215C261.007 64.9324 261.095 65.346 261.182 65.7595C261.242 66.0477 261.303 66.3438 261.364 66.6347C261.415 66.8881 261.465 67.1416 261.516 67.3937C261.717 68.4103 261.912 69.4322 262.097 70.4567C262.118 70.5674 262.137 70.6795 262.158 70.7929C262.21 71.081 262.26 71.3705 262.311 71.6587C262.551 73.0394 262.778 74.4255 262.991 75.8156C263.034 76.1011 263.077 76.3879 263.121 76.6734C263.326 78.0581 263.52 79.4442 263.701 80.8316C263.74 81.1197 263.777 81.4092 263.815 81.6974C263.924 82.5512 264.029 83.4023 264.13 84.2521C264.172 84.6043 264.21 84.9751 264.245 85.3607C264.259 85.5207 264.273 85.6862 264.286 85.8542C264.315 86.2118 264.341 86.584 264.364 86.9655C264.44 88.2289 264.485 89.6216 264.499 91.1197C264.5 91.4066 264.502 91.6961 264.502 91.9869Z" fill="#EBF3FA"/>
<path d="M263.759 85.9042V100.831C263.743 101.091 263.728 101.352 263.712 101.616C263.692 101.932 263.671 102.253 263.649 102.572C263.557 103.924 263.446 105.308 263.319 106.713C263.294 106.997 263.267 107.281 263.239 107.566C263.11 108.927 262.965 110.312 262.8 111.709C262.768 111.993 262.732 112.285 262.697 112.571C262.531 113.942 262.349 115.325 262.151 116.711C262.109 117.003 262.066 117.294 262.023 117.583C261.862 118.676 261.688 119.771 261.508 120.864C261.411 121.44 261.312 122.013 261.212 122.586C260.968 123.977 260.704 125.358 260.427 126.727C260.369 127.013 260.31 127.296 260.251 127.582C259.958 128.979 259.649 130.36 259.322 131.72C259.253 132.008 259.183 132.296 259.111 132.584C258.822 133.744 258.52 134.887 258.207 136.007C258.034 136.622 257.858 137.227 257.679 137.827C257.252 139.251 256.799 140.634 256.326 141.965C256.222 142.255 256.118 142.542 256.014 142.827C255.475 144.277 254.91 145.661 254.316 146.962C254.19 147.239 254.063 147.51 253.933 147.779C253.212 149.286 252.449 150.673 251.643 151.909C251.385 152.309 251.122 152.694 250.854 153.061C249.561 154.838 248.169 156.242 246.674 157.181C246.565 157.25 246.454 157.317 246.344 157.381C246.316 157.397 246.289 157.413 246.261 157.429L160.375 157.513L144.439 157.375L112.907 157.107L17.6652 156.292C17.6652 156.292 0 141.394 0 115.534C0 115.177 0.00280003 114.822 0.00933542 114.463C0.269818 100.64 2.86904 74.2972 25.2145 60.6214V73.0666H30.3438V57.878C31.9674 57.1249 33.6778 56.4317 35.4807 55.8051C37.7718 55.0081 40.2085 54.319 42.8031 53.7509C43.057 53.6936 43.3138 53.6391 43.5715 53.5859C44.8113 53.3278 45.9989 53.0244 47.1379 52.6745V71.1613H52.8069V66.8426L59.4936 66.8812V59.883H60.8399V58.498H61.0172V59.883H66.1793V59.8843H67.2128V58.498H67.3902V59.8843H68.6356V73.801H76.5957V78.9219H81.0193V75.947H85.1226V64.1391H87.1681V58.631H87.4781V64.1391H92.3834V53.816H92.8642V64.1391H96.1086V63.9968H96.103V62.6863H96.1086V61.4449H96.103V59.3827H96.1086V58.0629H96.103V56.0007H96.1086V54.6822H96.103V52.6186H96.1086V51.195H96.103V49.1368H96.1086V47.3247H96.103V45.2612H96.1086V43.8934H97.0749V42.3501H97.2299V43.8934H104.392V42.3501H104.546V43.8934H105.853V54.6862L106.773 54.6942V54.6862H106.766V52.6226H106.773V51.199H106.766V49.1368H106.773V47.7185H106.766V45.655H106.773V45.6483H115.458V45.655H116.951C117.028 45.7109 117.105 45.7641 117.182 45.82V57.5986H123.531V73.0652H128.66V44.4615H129.776V42.4605H129.976V44.4615H134.026V42.4605H134.227V44.4615H139.962V42.4605H140.163V44.4615H143.771V42.4605H143.971V44.4615H145.455V71.1613H151.123V66.8426L157.809 66.8812V59.883H159.156V58.498H159.333V59.883H164.495V59.8843H165.527V58.498H165.705V59.8843H166.95V73.801H174.911V78.9219H179.335V75.947H183.438V64.1391H185.484V58.631H185.794V64.1391H190.699V53.816H191.18V64.1391H194.424V63.9968H194.419V62.6863H194.424V61.4449H194.419V59.3827H194.424V58.0629H194.419V56.0007H194.424V54.6822H194.419V52.6186H194.424V51.195H194.419V49.1368H194.424V47.3247H194.419V45.2612H194.424V43.8934H195.391V42.3501H195.546V43.8934H202.706V42.3501H202.861V43.8934H204.168V54.6862L205.076 54.6942H205.089V54.6862H205.082V52.6226H205.089V51.199H205.082V49.1368H205.089V47.7185H205.082V45.655H205.089V45.6483H213.774V45.655H215.266C215.343 45.7109 215.42 45.7641 215.498 45.82V57.5986H226.155V73.0666H231.284V44.4615H232.4V42.4605H232.6V44.4615H236.65V42.4605H236.85V44.4615H242.586V42.4605H242.786V44.4615H248.078V71.1627H253.747V66.8426L260.434 66.8812V65.1184C260.523 65.5281 260.611 65.9406 260.698 66.353C260.758 66.6404 260.819 66.9358 260.88 67.2258C260.931 67.4786 260.981 67.7314 261.032 67.9829C261.233 68.9967 261.427 70.0158 261.612 71.0376C261.632 71.148 261.652 71.2598 261.673 71.3729C261.724 71.6603 261.774 71.949 261.826 72.2363C262.065 73.6134 262.292 74.9957 262.503 76.3821C262.547 76.6668 262.589 76.9529 262.633 77.2376C262.839 78.6186 263.032 80.0009 263.213 81.3846C263.251 81.672 263.289 81.9607 263.326 82.2481C263.435 83.0996 263.54 83.9484 263.641 84.7959C263.685 85.1498 263.724 85.5197 263.759 85.9042Z" fill="#D5E5FB"/>
<path d="M145.6 43.8862H132.773V48.4328H145.6V43.8862Z" fill="#E2EEFD"/>
<path d="M145.6 50.8843H132.773V55.4309H145.6V50.8843Z" fill="#E2EEFD"/>
<path d="M145.6 58.0273H132.773V62.5739H145.6V58.0273Z" fill="#E2EEFD"/>
<path d="M145.6 65.2842H132.773V69.8308H145.6V65.2842Z" fill="#E2EEFD"/>
<path d="M145.6 72.2874H132.773V76.8339H145.6V72.2874Z" fill="#E2EEFD"/>
<path d="M200.619 43.3171H194.634V46.0782H200.619V43.3171Z" fill="#E2EEFD"/>
<path d="M200.618 47.5671H194.633V50.3282H200.618V47.5671Z" fill="#E2EEFD"/>
<path d="M200.618 51.905H194.633V54.6661H200.618V51.905Z" fill="#E2EEFD"/>
<path d="M200.618 56.3127H194.633V59.0738H200.618V56.3127Z" fill="#E2EEFD"/>
<path d="M200.618 60.5649H194.633V63.326H200.618V60.5649Z" fill="#E2EEFD"/>
<path d="M200.619 65.2456H194.634V68.0067H200.619V65.2456Z" fill="#E2EEFD"/>
<path d="M200.618 69.4956H194.633V72.2567H200.618V69.4956Z" fill="#E2EEFD"/>
<path d="M200.618 73.8335H194.633V76.5946H200.618V73.8335Z" fill="#E2EEFD"/>
<path d="M200.618 78.2412H194.633V81.0023H200.618V78.2412Z" fill="#E2EEFD"/>
<path d="M200.618 82.4939H194.633V85.255H200.618V82.4939Z" fill="#E2EEFD"/>
<path d="M211.692 45.1279H205.278V47.889H211.692V45.1279Z" fill="#E2EEFD"/>
<path d="M211.691 49.3765H205.277V52.1376H211.691V49.3765Z" fill="#E2EEFD"/>
<path d="M211.691 53.7161H205.277V56.4772H211.691V53.7161Z" fill="#E2EEFD"/>
<path d="M211.691 58.1235H205.277V60.8846H211.691V58.1235Z" fill="#E2EEFD"/>
<path d="M211.691 62.3762H205.277V65.1373H211.691V62.3762Z" fill="#E2EEFD"/>
<path d="M211.692 66.8093H205.278V69.5704H211.692V66.8093Z" fill="#E2EEFD"/>
<path d="M211.691 71.0593H205.277V73.8204H211.691V71.0593Z" fill="#E2EEFD"/>
<path d="M211.691 75.3972H205.277V78.1583H211.691V75.3972Z" fill="#E2EEFD"/>
<path d="M211.691 79.8049H205.277V82.566H211.691V79.8049Z" fill="#E2EEFD"/>
<path d="M211.691 84.0576H205.277V86.8187H211.691V84.0576Z" fill="#E2EEFD"/>
<path d="M211.692 88.9351H205.278V91.6962H211.692V88.9351Z" fill="#E2EEFD"/>
<path d="M211.691 93.1853H205.277V95.9464H211.691V93.1853Z" fill="#E2EEFD"/>
<path d="M211.691 97.5232H205.277V100.284H211.691V97.5232Z" fill="#E2EEFD"/>
<path d="M211.691 101.931H205.277V104.692H211.691V101.931Z" fill="#E2EEFD"/>
<path d="M211.691 106.184H205.277V108.945H211.691V106.184Z" fill="#E2EEFD"/>
<path d="M248.323 43.8862H236.645V48.4328H248.323V43.8862Z" fill="#E2EEFD"/>
<path d="M248.323 50.8843H236.645V55.4309H248.323V50.8843Z" fill="#E2EEFD"/>
<path d="M248.323 58.0273H236.645V62.5739H248.323V58.0273Z" fill="#E2EEFD"/>
<path d="M248.323 65.2842H236.645V69.8308H248.323V65.2842Z" fill="#E2EEFD"/>
<path d="M248.323 72.2874H236.645V76.8339H248.323V72.2874Z" fill="#E2EEFD"/>
<path d="M102.556 43.3174H96.1426V46.0785H102.556V43.3174Z" fill="#E2EEFD"/>
<path d="M102.555 47.5671H96.1416V50.3282H102.555V47.5671Z" fill="#E2EEFD"/>
<path d="M102.555 51.9053H96.1416V54.6664H102.555V51.9053Z" fill="#E2EEFD"/>
<path d="M102.555 56.3127H96.1416V59.0738H102.555V56.3127Z" fill="#E2EEFD"/>
<path d="M102.555 60.5654H96.1416V63.3265H102.555V60.5654Z" fill="#E2EEFD"/>
<path d="M102.556 65.2456H96.1426V68.0067H102.556V65.2456Z" fill="#E2EEFD"/>
<path d="M102.555 69.4956H96.1416V72.2567H102.555V69.4956Z" fill="#E2EEFD"/>
<path d="M102.555 73.8335H96.1416V76.5946H102.555V73.8335Z" fill="#E2EEFD"/>
<path d="M102.555 78.2412H96.1416V81.0023H102.555V78.2412Z" fill="#E2EEFD"/>
<path d="M102.555 82.4939H96.1416V85.255H102.555V82.4939Z" fill="#E2EEFD"/>
<path d="M114.292 45.1282H107.003V47.8893H114.292V45.1282Z" fill="#E2EEFD"/>
<path d="M114.292 49.3767H107.003V52.1378H114.292V49.3767Z" fill="#E2EEFD"/>
<path d="M114.292 53.7163H107.003V56.4774H114.292V53.7163Z" fill="#E2EEFD"/>
<path d="M114.292 58.1238H107.003V60.8849H114.292V58.1238Z" fill="#E2EEFD"/>
<path d="M114.292 62.3765H107.003V65.1376H114.292V62.3765Z" fill="#E2EEFD"/>
<path d="M114.292 66.8093H107.003V69.5704H114.292V66.8093Z" fill="#E2EEFD"/>
<path d="M114.292 71.0593H107.003V73.8204H114.292V71.0593Z" fill="#E2EEFD"/>
<path d="M114.292 75.3972H107.003V78.1583H114.292V75.3972Z" fill="#E2EEFD"/>
<path d="M114.292 79.8049H107.003V82.566H114.292V79.8049Z" fill="#E2EEFD"/>
<path d="M114.292 84.0576H107.003V86.8187H114.292V84.0576Z" fill="#E2EEFD"/>
<path d="M114.292 88.9351H107.003V91.6962H114.292V88.9351Z" fill="#E2EEFD"/>
<path d="M114.292 93.1853H107.003V95.9464H114.292V93.1853Z" fill="#E2EEFD"/>
<path d="M114.292 97.5232H107.003V100.284H114.292V97.5232Z" fill="#E2EEFD"/>
<path d="M114.292 101.931H107.003V104.692H114.292V101.931Z" fill="#E2EEFD"/>
<path d="M114.292 106.184H107.003V108.945H114.292V106.184Z" fill="#E2EEFD"/>
<path d="M52.752 25.5805C52.752 25.5805 55.5122 21.0225 62.1114 21.5288C62.1114 21.5288 71.6933 13.9329 81.9101 20.5162C81.9101 20.5162 92.7713 18.8847 100.815 21.9287C106.177 23.9576 107.948 26.0868 107.948 26.0868L52.752 25.5805Z" fill="#F8FCFF"/>
<path d="M104.018 40.9334C104.018 40.9334 105.806 37.8331 110.082 38.178C110.082 38.178 116.29 33.011 122.911 37.4895C122.911 37.4895 129.948 36.3802 135.161 38.4507C138.635 39.8315 139.783 41.2795 139.783 41.2795L104.018 40.9334Z" fill="#F8FCFF"/>
<path d="M161.971 28.1598C161.971 28.1598 163.598 25.144 167.494 25.4791C167.494 25.4791 173.147 20.4527 179.175 24.8089C179.175 24.8089 185.584 23.729 190.33 25.7432C193.494 27.0861 194.54 28.4949 194.54 28.4949L161.971 28.1598Z" fill="#F8FCFF"/>
<path d="M46.0001 66.0752H44.0449V155.105H46.0001V66.0752Z" fill="#AEC3FF"/>
<path d="M47.7949 156.555C47.7949 156.555 47.063 157.203 45.0229 157.203C43.1055 157.203 42.251 156.555 42.251 156.555V135.641C42.251 134.195 43.4231 133.023 44.8684 133.023H45.048C46.5658 133.023 47.7959 134.253 47.7959 135.771V156.555H47.7949Z" fill="#9DB0F4"/>
<path d="M48.386 85.2675H41.6594C40.9159 85.2675 40.3125 84.6641 40.3125 83.9207V58.9924C40.3125 58.2489 40.915 57.6455 41.6594 57.6455H48.386C49.1295 57.6455 49.7329 58.248 49.7329 58.9924V83.9207C49.7329 84.6641 49.1304 85.2675 48.386 85.2675Z" fill="#AEC3FF"/>
<path d="M45.9184 74.7247C47.8585 74.2543 49.05 72.3003 48.5796 70.3602C48.1093 68.42 46.1552 67.2286 44.215 67.6989C42.2749 68.1693 41.0835 70.1233 41.5538 72.0634C42.0242 74.0035 43.9783 75.195 45.9184 74.7247Z" fill="#9DB0F4"/>
<path d="M48.6351 80.0159C48.9799 78.0494 47.6652 76.1757 45.6988 75.831C43.7323 75.4862 41.8587 76.8008 41.5139 78.7673C41.1691 80.7337 42.4838 82.6074 44.4503 82.9522C46.4167 83.297 48.2904 81.9824 48.6351 80.0159Z" fill="#9DB0F4"/>
<path d="M48.635 63.5236C48.9594 61.5537 47.6255 59.6938 45.6556 59.3694C43.6858 59.045 41.8259 60.3789 41.5015 62.3488C41.1771 64.3186 42.511 66.1785 44.4808 66.5029C46.4507 66.8274 48.3106 65.4935 48.635 63.5236Z" fill="#F99746"/>
<path d="M80.1221 147.656H183.084L217.857 144.524C217.857 144.524 211.634 129.02 209.938 128.788C208.242 128.556 83.3837 128.788 83.3837 128.788L80.1221 147.656Z" fill="#1D2949"/>
<path d="M232.713 146.129C230.151 147.177 214.662 147.411 214.662 147.411C214.662 147.411 215.012 128.428 199.057 130.64C183.103 132.852 185.892 148.608 185.892 148.608L109.188 149.978C109.188 149.978 110.434 129.966 93.4987 132.071C79.4284 133.82 83.0435 149.902 83.0435 149.902C75.7839 150.276 71.8924 149.181 69.8293 148.039C69.828 148.039 69.828 148.038 69.828 148.038C68.2822 145.859 69.1835 144.584 69.2728 144.359C69.3608 144.135 69.049 140.426 69.005 139.89C68.9793 139.588 69.6324 138.82 70.2096 138.205C70.6853 137.698 70.7171 136.919 70.2793 136.378L69.5125 135.431C68.6369 134.352 68.4375 132.874 68.994 131.6L70.5178 128.11C70.5178 128.11 70.5178 128.11 70.519 128.108C75.4892 119.57 114.463 117.239 114.463 117.239C120.382 113.836 125.29 111.307 129.129 109.47C135.252 106.54 142.234 103.683 148.991 103.015C167.284 101.207 182.327 103.255 186.014 103.853C190.323 104.551 211.984 113.985 213.615 114.8C215.244 115.616 228.542 116.72 230.25 116.928C231.959 117.135 231.907 118.843 231.907 118.843L232.142 120.358L233.035 126.13L233.253 127.538C234.495 128.16 234.496 129.938 234.496 129.938C234.496 129.938 235.274 145.081 232.713 146.129Z" fill="#739AF0"/>
<path d="M104.114 152.876C108.727 148.263 108.727 140.785 104.114 136.172C99.5017 131.559 92.0231 131.559 87.4105 136.172C82.7979 140.785 82.7979 148.263 87.4105 152.876C92.0231 157.488 99.5017 157.488 104.114 152.876Z" fill="#2C3A64"/>
<path d="M95.7654 153.76C90.6718 153.76 86.5283 149.617 86.5283 144.523C86.5283 139.43 90.6718 135.286 95.7654 135.286C100.859 135.286 105.003 139.43 105.003 144.523C105.003 149.617 100.859 153.76 95.7654 153.76ZM95.7654 136.141C91.1426 136.141 87.382 139.902 87.382 144.524C87.382 149.147 91.1426 152.908 95.7654 152.908C100.388 152.908 104.149 149.147 104.149 144.524C104.149 139.902 100.388 136.141 95.7654 136.141Z" fill="#AFCDFB"/>
<path d="M97.3429 153.343H94.0335L95.0963 144.272L93.8818 135.656L97.6645 135.89L96.4036 144.272L97.3429 153.343Z" fill="#AFCDFB"/>
<path d="M88.8988 150.281L87.2441 147.414L95.6313 143.8L102.486 138.441L104.175 141.834L96.2843 144.932L88.8988 150.281Z" fill="#AFCDFB"/>
<path d="M87.5732 141.105L89.3918 138.34L96.3872 144.211L104.252 147.93L101.98 150.962L95.6681 145.303L87.5732 141.105Z" fill="#AFCDFB"/>
<path d="M92.666 144.507C92.666 142.805 94.0455 141.425 95.7479 141.425C97.4503 141.425 98.8298 142.805 98.8298 144.507C98.8298 146.21 97.4503 147.589 95.7479 147.589C94.0467 147.589 92.666 146.21 92.666 144.507Z" fill="#AFCDFB"/>
<path d="M212.002 147.263C213.501 140.915 209.57 134.553 203.221 133.054C196.873 131.555 190.511 135.486 189.012 141.834C187.513 148.183 191.444 154.545 197.793 156.044C204.141 157.543 210.503 153.611 212.002 147.263Z" fill="#2C3A64"/>
<path d="M200.499 153.76C195.405 153.76 191.262 149.617 191.262 144.523C191.262 139.43 195.405 135.286 200.499 135.286C205.593 135.286 209.736 139.43 209.736 144.523C209.736 149.617 205.593 153.76 200.499 153.76ZM200.499 136.141C195.876 136.141 192.115 139.902 192.115 144.524C192.115 149.147 195.876 152.908 200.499 152.908C205.122 152.908 208.882 149.147 208.882 144.524C208.882 139.902 205.122 136.141 200.499 136.141Z" fill="#AFCDFB"/>
<path d="M202.076 153.343H198.767L199.83 144.273L198.615 135.657L202.398 135.89L201.137 144.273L202.076 153.343Z" fill="#AFCDFB"/>
<path d="M193.633 150.281L191.979 147.414L200.366 143.8L207.22 138.441L208.908 141.834L201.019 144.932L193.633 150.281Z" fill="#AFCDFB"/>
<path d="M192.307 141.105L194.125 138.34L201.121 144.211L208.986 147.93L206.713 150.962L200.401 145.303L192.307 141.105Z" fill="#AFCDFB"/>
<path d="M197.4 144.507C197.4 142.805 198.78 141.425 200.482 141.425C202.185 141.425 203.564 142.805 203.564 144.507C203.564 146.21 202.185 147.589 200.482 147.589C198.78 147.589 197.4 146.21 197.4 144.507Z" fill="#AFCDFB"/>
<path d="M84.3577 129.203L81.326 132.489C80.8906 132.961 80.2779 133.229 79.6358 133.229H70.3364C69.7885 133.229 69.4424 132.639 69.709 132.16L69.9743 131.685C70.3033 131.098 70.7081 130.569 71.1741 130.109C71.1753 130.108 71.1765 130.108 71.1765 130.108C72.479 128.822 74.2523 128.073 76.1357 128.073H83.8624C84.4507 128.073 84.7564 128.771 84.3577 129.203Z" fill="#AFCDFB"/>
<path d="M74.4793 144.523H71.8426C70.9694 144.523 70.1659 144.995 69.7403 145.757L69.6498 145.918C69.5581 146.082 69.6767 146.283 69.8638 146.283H73.0374C73.2564 146.283 73.4655 146.191 73.6147 146.03L74.6493 144.908C74.7839 144.761 74.6799 144.523 74.4793 144.523Z" fill="#1D2949"/>
<path d="M202.194 116.123L162.766 117.06C161.993 117.078 161.357 116.457 161.357 115.684V106.6C161.357 105.885 161.942 105.308 162.657 105.319C179.471 105.553 185.232 106.021 188.688 107.214C191.736 108.266 198.864 112.589 202.547 114.783C203.167 115.152 202.918 116.106 202.194 116.123Z" fill="#AFCDFB"/>
<path d="M157.926 105.26C158.565 105.267 159.191 105.274 159.804 105.282V117.13L121.767 118.032C121.272 118.045 121.066 117.403 121.477 117.125C125.922 114.13 140.808 105.065 157.926 105.26Z" fill="#AFCDFB"/>
<path d="M202.059 116.126L202.038 116.127V114.48C202.173 114.56 202.303 114.638 202.431 114.713C203.086 115.103 202.822 116.109 202.059 116.126Z" fill="#AFCDFB"/>
<path d="M161.358 117.608L156.699 117.239L157.01 104.567H161.358V117.608Z" fill="#739AF0"/>
<path d="M190.861 117.608H188.687V106.229L190.861 107.534V117.608Z" fill="#739AF0"/>
<path d="M126.514 114.05L127.673 117.891L121.328 118.042C120.958 118.05 120.799 117.576 121.098 117.361C122.532 116.331 125.187 114.495 126.514 114.05Z" fill="#2C3A64"/>
<path d="M121.053 118.36C120.794 118.36 120.567 118.196 120.485 117.949C120.402 117.697 120.494 117.426 120.712 117.274L120.844 117.183C120.981 117.087 121.135 116.982 121.304 116.868C121.443 116.774 121.592 116.675 121.751 116.57L121.991 116.412C122.173 116.292 122.366 116.169 122.571 116.038C122.716 115.945 122.867 115.849 123.023 115.75L123.049 115.735C123.071 115.721 123.094 115.706 123.116 115.693C123.248 115.611 123.386 115.524 123.529 115.436L123.561 115.417C123.608 115.387 123.657 115.358 123.704 115.328C123.775 115.284 123.85 115.239 123.924 115.194C124.03 115.13 124.135 115.067 124.244 115.002C124.548 114.819 124.876 114.625 125.217 114.428C125.322 114.367 125.43 114.305 125.539 114.242C125.754 114.119 125.975 113.993 126.202 113.867L126.362 113.778C126.82 113.523 127.284 113.27 127.743 113.027L127.893 112.947C127.963 112.911 128.032 112.874 128.102 112.836C128.974 112.379 129.87 111.931 130.767 111.503L131.046 111.371C131.326 111.239 131.61 111.107 131.898 110.975C131.994 110.931 132.091 110.887 132.189 110.843C132.381 110.755 132.577 110.668 132.775 110.58L133.072 110.449C133.368 110.318 133.684 110.182 134.037 110.034C134.219 109.958 134.404 109.881 134.587 109.806C135.831 109.293 137.098 108.811 138.354 108.373L138.629 108.278C138.733 108.243 138.837 108.207 138.941 108.172L139.333 108.041C139.439 108.005 139.544 107.971 139.651 107.937L139.663 107.933C139.773 107.896 139.884 107.861 139.997 107.826C140.198 107.761 140.402 107.696 140.606 107.634C140.744 107.59 140.886 107.547 141.026 107.504C141.242 107.439 141.458 107.374 141.675 107.311L142.035 107.207C142.263 107.142 142.49 107.078 142.72 107.016C143.174 106.891 143.637 106.77 144.095 106.655L144.122 106.648C144.162 106.638 144.203 106.627 144.244 106.617C144.439 106.568 144.638 106.521 144.838 106.473C144.956 106.445 145.077 106.417 145.198 106.389L145.289 106.368C145.378 106.347 145.468 106.326 145.558 106.307C145.677 106.28 145.797 106.253 145.918 106.226C146.039 106.199 146.16 106.173 146.282 106.148C146.404 106.122 146.526 106.096 146.647 106.072C146.767 106.046 146.891 106.022 147.014 105.997L147.034 105.994C147.15 105.97 147.266 105.948 147.381 105.926C147.496 105.904 147.612 105.882 147.728 105.86C147.859 105.836 147.99 105.813 148.121 105.789C148.204 105.775 148.288 105.759 148.373 105.744L148.491 105.723C148.74 105.68 148.987 105.639 149.235 105.601C149.359 105.581 149.485 105.562 149.609 105.542L149.629 105.54C149.849 105.507 150.069 105.475 150.289 105.444C150.7 105.388 151.112 105.336 151.517 105.288L151.544 105.284C151.658 105.271 151.77 105.259 151.884 105.246C151.962 105.238 152.047 105.228 152.129 105.221C152.209 105.211 152.297 105.202 152.385 105.194C152.478 105.184 152.575 105.174 152.673 105.166C152.8 105.153 152.93 105.141 153.059 105.13C153.182 105.119 153.306 105.109 153.431 105.1C153.53 105.091 153.624 105.084 153.72 105.078L154.271 105.04C154.38 105.032 154.489 105.026 154.598 105.02L154.645 105.018C154.764 105.01 154.888 105.004 155.009 104.999C155.105 104.994 155.203 104.989 155.301 104.986H155.311C155.399 104.982 155.486 104.978 155.572 104.975L155.789 104.967C155.875 104.965 155.961 104.963 156.047 104.96C156.387 104.949 156.703 105.075 156.945 105.311C157.186 105.546 157.319 105.86 157.319 106.198V116.017C157.319 116.833 156.655 117.513 155.839 117.532L121.068 118.358C121.063 118.36 121.058 118.36 121.053 118.36ZM126.795 114.25L126.579 114.37C126.329 114.509 126.085 114.647 125.848 114.783C125.739 114.845 125.633 114.907 125.529 114.968C125.19 115.163 124.866 115.354 124.563 115.536C124.454 115.601 124.349 115.665 124.246 115.727C124.173 115.771 124.099 115.816 124.027 115.86C123.978 115.89 123.933 115.918 123.888 115.946L123.855 115.967C123.713 116.054 123.575 116.139 123.441 116.222L123.353 116.278C123.199 116.374 123.049 116.47 122.904 116.562C122.703 116.691 122.512 116.814 122.332 116.932L122.094 117.088C121.936 117.192 121.789 117.29 121.651 117.383C121.485 117.496 121.333 117.598 121.197 117.694L121.134 117.738L127.665 117.582L155.824 116.913C156.306 116.902 156.698 116.501 156.698 116.019V106.2C156.698 106.033 156.632 105.876 156.512 105.759C156.392 105.641 156.233 105.58 156.064 105.584C155.98 105.586 155.894 105.589 155.81 105.591L155.593 105.599C155.508 105.601 155.423 105.605 155.338 105.608H155.328C155.231 105.612 155.135 105.617 155.039 105.622C154.919 105.627 154.8 105.633 154.681 105.64L154.633 105.643C154.527 105.649 154.42 105.655 154.313 105.662L153.765 105.699C153.672 105.706 153.579 105.713 153.485 105.721C153.356 105.731 153.234 105.74 153.113 105.751C152.985 105.762 152.857 105.773 152.73 105.786C152.634 105.794 152.541 105.803 152.447 105.814C152.36 105.822 152.277 105.83 152.196 105.839C152.11 105.848 152.031 105.857 151.951 105.865C151.836 105.877 151.726 105.89 151.615 105.903L151.589 105.905C151.191 105.952 150.782 106.003 150.376 106.06C150.158 106.09 149.941 106.121 149.724 106.154L149.706 106.156C149.582 106.176 149.458 106.194 149.334 106.214C149.087 106.253 148.842 106.293 148.599 106.335L148.48 106.356C148.397 106.37 148.315 106.385 148.232 106.4C148.101 106.423 147.972 106.446 147.843 106.471C147.728 106.493 147.615 106.513 147.5 106.537C147.383 106.559 147.27 106.582 147.155 106.604L147.135 106.607C147.014 106.631 146.894 106.655 146.776 106.681C146.653 106.707 146.532 106.731 146.412 106.757C146.293 106.782 146.174 106.808 146.054 106.834C145.934 106.859 145.816 106.886 145.696 106.913C145.606 106.933 145.518 106.954 145.43 106.973L145.339 106.994C145.22 107.021 145.103 107.049 144.985 107.077C144.786 107.124 144.589 107.171 144.395 107.22C144.354 107.23 144.316 107.24 144.28 107.25L144.25 107.257C143.796 107.371 143.338 107.49 142.888 107.614C142.66 107.676 142.434 107.739 142.21 107.804L141.852 107.906C141.638 107.969 141.424 108.033 141.21 108.097C141.07 108.139 140.932 108.181 140.794 108.224C140.591 108.288 140.389 108.351 140.189 108.415C140.079 108.449 139.97 108.485 139.861 108.521L139.847 108.526C139.742 108.561 139.638 108.595 139.533 108.629L139.143 108.76C139.04 108.794 138.938 108.83 138.836 108.864L138.562 108.959C137.316 109.393 136.06 109.87 134.827 110.379C134.644 110.455 134.462 110.531 134.281 110.607C133.932 110.753 133.619 110.888 133.325 111.018L133.029 111.148C132.834 111.235 132.639 111.321 132.449 111.409C132.351 111.453 132.255 111.496 132.161 111.54C131.874 111.671 131.592 111.801 131.315 111.934L131.037 112.066C130.149 112.49 129.26 112.934 128.396 113.386C128.326 113.423 128.256 113.461 128.185 113.498L128.036 113.576C127.624 113.796 127.207 114.021 126.795 114.25Z" fill="#1D2949"/>
<path d="M191.511 116.7C191.278 116.7 191.058 116.608 190.887 116.442C190.696 116.256 190.586 115.991 190.586 115.714V109.085C190.586 108.708 190.642 108.226 190.947 108.035C191.223 107.863 191.688 107.989 191.98 108.132C192.304 108.291 192.53 108.406 192.653 108.472C192.666 108.478 192.683 108.488 192.702 108.498L192.834 108.57C194.486 109.472 196.838 110.892 199.825 112.792C199.953 112.872 200.08 112.953 200.205 113.032C200.505 113.224 200.799 113.413 201.08 113.594L202.128 114.27C202.311 114.387 202.485 114.501 202.652 114.61C202.675 114.625 202.701 114.642 202.726 114.658L202.75 114.672C203.098 114.9 203.253 115.333 203.135 115.751C203.022 116.147 202.698 116.41 202.308 116.42L202.194 116.423L191.534 116.699C191.526 116.7 191.518 116.7 191.511 116.7ZM191.569 108.584C191.48 108.584 191.408 108.619 191.365 108.646C191.222 108.735 191.136 108.899 191.136 109.085V115.714C191.136 115.843 191.185 115.965 191.271 116.048C191.34 116.117 191.429 116.152 191.52 116.15L202.295 115.87C202.515 115.864 202.588 115.663 202.605 115.601C202.646 115.458 202.629 115.25 202.45 115.133L202.427 115.119C202.402 115.103 202.379 115.088 202.355 115.072C202.186 114.962 202.011 114.849 201.83 114.731L200.784 114.056C200.503 113.875 200.21 113.687 199.91 113.496C199.785 113.416 199.659 113.336 199.532 113.256C196.554 111.363 194.212 109.949 192.571 109.052L192.438 108.98C192.424 108.972 192.411 108.965 192.397 108.957C192.279 108.893 192.052 108.779 191.739 108.625C191.677 108.595 191.621 108.584 191.569 108.584Z" fill="#1D2949"/>
<path d="M126.514 114.05L127.673 117.891L121.328 118.042C120.958 118.05 120.799 117.576 121.098 117.361C122.532 116.331 125.187 114.495 126.514 114.05Z" fill="#2C3A64"/>
<path d="M162.731 117.37C162.29 117.37 161.873 117.201 161.555 116.89C161.227 116.57 161.046 116.142 161.046 115.683V106.599C161.046 106.17 161.215 105.767 161.52 105.466C161.826 105.164 162.232 105.004 162.661 105.008C180.015 105.249 185.389 105.643 188.798 106.922L188.999 106.998V116.747L162.774 117.37C162.759 117.37 162.746 117.37 162.731 117.37ZM162.638 105.629C162.381 105.629 162.139 105.728 161.956 105.909C161.77 106.093 161.667 106.338 161.667 106.6V115.684C161.667 115.974 161.781 116.245 161.989 116.446C162.195 116.648 162.472 116.757 162.758 116.748L188.377 116.141V107.431C185.06 106.254 179.373 105.862 162.652 105.629C162.648 105.629 162.643 105.629 162.638 105.629Z" fill="#1D2949"/>
<path d="M233.035 126.133H225.611C224.507 126.133 223.464 125.627 222.78 124.758L219.972 121.191C219.708 120.855 219.946 120.362 220.374 120.362H232.141L233.035 126.133Z" fill="#A9453D"/>
<path d="M159.472 105.168L159.015 144.946L159.325 144.949L159.783 105.171L159.472 105.168Z" fill="#1D2949"/>
<path d="M185.774 144.358L109.033 145.893L109.039 146.204L185.78 144.669L185.774 144.358Z" fill="#1D2949"/>
<path d="M154.92 125.371C154.92 125.792 153.043 126.133 150.727 126.133C148.412 126.133 146.535 125.792 146.535 125.371C146.535 124.951 148.412 124.609 150.727 124.609C153.043 124.609 154.92 124.951 154.92 125.371Z" fill="#2C3A64"/>
<path d="M193.967 125.371C193.967 125.792 192.089 126.133 189.774 126.133C187.459 126.133 185.582 125.792 185.582 125.371C185.582 124.951 187.459 124.609 189.774 124.609C192.089 124.609 193.967 124.951 193.967 125.371Z" fill="#2C3A64"/>
<path d="M182.785 144.532L182.475 144.515C182.689 140.559 183.861 137.227 185.959 134.609C187.637 132.514 189.905 130.871 192.702 129.726C196.957 127.985 201.17 127.94 202.038 127.953V116.125H202.349V128.274L202.188 128.266C202.141 128.264 197.5 128.096 192.811 130.017C190.066 131.143 187.841 132.754 186.197 134.808C184.145 137.374 182.997 140.645 182.785 144.532Z" fill="#1D2949"/>
<path d="M118.39 145.851C118.27 135.591 118.841 128.492 119.342 124.343C119.885 119.841 120.466 117.738 120.472 117.717L120.771 117.8C120.748 117.882 118.472 126.259 118.702 145.846L118.39 145.851Z" fill="#1D2949"/>
<path d="M162.657 105.163H156.582V105.473H162.657V105.163Z" fill="#1D2949"/>
<path d="M75.7529 133.23H70.3364C69.7885 133.23 69.4424 132.641 69.709 132.161L69.9743 131.687C70.3033 131.1 70.7081 130.57 71.1741 130.11C71.1753 130.109 71.1765 130.109 71.1765 130.109L74.4553 130.652L73.1602 132.071L74.7085 132.383L75.7529 133.23Z" fill="#2C3A64"/>
<path d="M74.0097 124.471C73.8837 124.471 73.7602 124.412 73.6819 124.302C73.5535 124.121 73.5951 123.871 73.7761 123.741C73.8018 123.723 74.4377 123.271 76.4825 122.026C78.6276 120.72 80.6749 120.45 82.0287 120.36C82.8615 120.303 83.6834 119.097 84.1738 118.376C84.3536 118.112 84.4954 117.904 84.6202 117.769C84.8146 117.559 85.0164 117.341 99.8486 117.058C107.097 116.919 116.047 116.837 114.457 116.837C114.456 116.837 116.112 116.837 116.113 116.837C116.333 116.837 116.342 117.363 116.381 117.581C116.871 120.257 113.965 118.925 113.744 118.927C102.672 119.049 86.6564 118.058 85.1534 118.382C85.0702 118.488 84.9565 118.655 84.8379 118.828C84.2276 119.725 83.3055 121.08 82.08 121.162C80.8106 121.246 78.893 121.499 76.8983 122.713C74.8878 123.936 74.2469 124.39 74.2408 124.395C74.1723 124.447 74.0904 124.471 74.0097 124.471Z" fill="#739AF0"/>
<path d="M132.176 119.533H127.249C126.364 119.533 125.64 118.809 125.64 117.923V116.583C125.64 115.698 126.364 114.974 127.249 114.974H132.176C133.062 114.974 133.786 115.698 133.786 116.583V117.923C133.786 118.809 133.062 119.533 132.176 119.533Z" fill="#6390E0"/>
<path d="M106.388 102.32C106.687 103.126 107.206 104.06 107.751 104.293C108.369 104.557 108.627 104.928 108.627 104.928L109.126 104.639L109.722 104.293C109.722 104.293 109.707 104.226 109.679 104.119C109.651 104.011 109.605 103.862 109.545 103.697C109.545 103.697 109.363 103.462 109.474 103.167C109.587 102.873 109.564 102.416 109.373 102.139C109.182 101.861 108.998 101.178 108.883 101.197C108.604 101.245 109.02 102.185 108.901 102.36C108.793 102.518 108.659 102.464 108.633 102.452C108.632 102.451 108.629 102.451 108.628 102.449C107.847 102.106 106.899 100.253 106.479 100.503C106.32 100.595 106.259 101.976 106.388 102.32Z" fill="#FFB27D"/>
<path d="M109.09 103.441L108.111 104.13C108.041 104.179 107.945 104.162 107.897 104.092L105.388 100.523C105.339 100.454 105.356 100.358 105.426 100.309L106.406 99.6207C106.475 99.5718 106.571 99.5889 106.62 99.6586L109.128 103.227C109.177 103.296 109.16 103.392 109.09 103.441Z" fill="#2B478B"/>
<path d="M108.194 104.071L107.62 104.475C107.568 104.511 107.494 104.499 107.458 104.446L104.908 100.818C104.871 100.765 104.883 100.692 104.936 100.655L105.51 100.252C105.562 100.215 105.636 100.227 105.672 100.28L108.222 103.908C108.26 103.961 108.248 104.034 108.194 104.071Z" fill="#233862"/>
<path d="M123.137 98.3193C123.137 98.3193 118.155 107.009 116.347 108.608L109.72 103.667C109.72 103.667 108.759 103.962 108.337 104.928C108.337 104.928 112.362 113.128 116.324 113.476C120.287 113.823 125.849 103.648 125.849 103.648L123.137 98.3193Z" fill="#233862"/>
<path d="M134.413 157.423H137.292C137.654 157.226 137.977 156.776 138.08 156.104C138.22 155.177 139.26 154.67 139.485 153.912C139.71 153.154 138.558 152.086 138.558 152.086L138.365 151.838L138.164 151.58L136.254 152.03C136.254 152.03 136.206 152.485 136.178 153.065C136.157 153.483 136.146 153.966 136.17 154.39C136.226 155.402 135.887 156.491 134.988 156.688C134.323 156.834 134.352 157.228 134.413 157.423Z" fill="#233862"/>
<path d="M117.707 157.423H124.29C124.607 157.037 124.491 155.611 124.442 155.146C124.432 155.052 124.425 154.998 124.425 154.998C124.425 154.998 122.177 153.2 121.868 154.577C121.858 154.62 121.847 154.663 121.835 154.705C121.446 155.992 119.7 156.578 118.693 156.741C118.038 156.846 117.796 157.186 117.707 157.423Z" fill="#233862"/>
<path d="M118.96 120.676C118.96 120.676 119.301 124.935 119.702 130.054C120.248 137.008 120.903 145.55 120.968 147.168C121.081 149.979 121.531 154.473 121.531 154.473C121.531 154.473 122.597 155.541 124.734 155.091C124.734 155.091 126.637 148.674 127.181 141.885C127.189 141.774 127.198 141.661 127.206 141.55C127.712 134.639 128.498 120.086 128.498 120.086L118.96 120.676Z" fill="#FFA25C"/>
<path d="M118.96 120.677C118.96 120.677 119.301 124.935 119.702 130.055L127.18 141.887C127.188 141.776 127.197 141.663 127.205 141.552C127.71 134.641 128.497 120.087 128.497 120.087L118.96 120.677Z" fill="#EF8C48"/>
<path d="M120.52 121.183C120.52 121.183 126.672 136.607 130.718 143.856C134.764 151.104 136.028 153.127 136.028 153.127C136.028 153.127 138.346 152.2 138.557 151.568C138.557 151.568 137.01 137.574 134.301 134.162C132.77 132.235 130.972 126.45 130.888 124.427C130.804 122.405 130.34 118.401 130.34 118.401L120.52 121.183Z" fill="#FFA25C"/>
<path d="M122.051 98.6972C124.455 99.4554 128.616 97.4082 128.616 97.4082C128.616 97.4082 126.398 95.7449 126.515 92.2852L124.656 93.7833L123.392 94.8008C123.392 94.8008 123.397 95.4013 123.535 96.4518C123.572 96.7282 123.617 97.0364 123.675 97.3739C122.643 97.9402 122.051 98.6972 122.051 98.6972Z" fill="#FFB27D"/>
<path d="M123.393 94.8007C123.393 94.8007 123.397 95.4011 123.536 96.4517C124.935 96.212 126.522 93.9495 126.522 93.9495C125.809 93.744 125.185 93.7073 124.655 93.7819L123.393 94.8007Z" fill="#ED975D"/>
<path d="M122.657 94.7444C122.657 94.7444 126.628 95.4036 127.001 92.9246C127.374 90.4457 128.137 88.8607 125.618 88.3348C123.098 87.8089 122.461 88.6809 122.136 89.4783C121.81 90.2744 121.633 94.5084 122.657 94.7444Z" fill="#FFB27D"/>
<path d="M118.694 121.031C118.766 121.091 118.851 121.128 118.947 121.128C119.85 121.115 122.483 121.617 124.711 121.388C126.59 121.208 128.252 120.652 130.037 119.851C130.274 119.744 130.82 119.453 130.808 119.188C130.799 118.898 130.771 118.477 130.734 117.947C130.608 116.104 130.388 112.935 130.602 109.278C130.641 108.597 130.661 107.922 130.663 107.257C130.682 102.301 129.7 97.9425 127.725 96.4676C127.556 96.3466 126.52 96.8529 125.57 97.3225C124.69 97.7566 123.811 97.8043 122.981 97.6356L122.15 98.3694C121.139 99.3086 120.031 100.585 119.549 102.523C119.139 104.172 118.898 107.147 118.766 110.229C118.706 111.625 118.658 113.034 118.645 114.371V114.418C118.634 114.55 118.634 114.696 118.634 114.828C118.585 118.262 118.634 120.983 118.694 121.031Z" fill="#2B478B"/>
<path d="M130.734 117.948C130.608 116.105 130.388 112.936 130.602 109.279C130.641 108.598 130.661 107.923 130.663 107.258C129.84 105.262 129.169 103.815 129.169 103.815H127.096C127.096 103.816 125.576 114.198 130.734 117.948Z" fill="#233862"/>
<path d="M134.63 118.305C134.63 118.305 135.095 118.924 135.113 119.171C135.238 120.846 134.472 121.077 136.455 122.008C136.455 122.008 137.301 122.331 137.316 121.674C137.33 121.017 136.729 121.006 136.839 120.087C136.966 119.026 136.952 119.017 136.256 118.463L135.795 117.701L134.63 118.305Z" fill="#FFB27D"/>
<path d="M135.811 118.779C135.065 118.924 134.255 118.865 134.255 118.865C134.255 118.865 132.039 112.019 131.753 111.393C131.468 110.768 125.17 103.365 125.17 103.365L127.793 96.7993C127.793 96.7993 134.605 108.178 135.297 109.776C136.441 112.418 136.837 118.342 136.837 118.342C136.837 118.342 136.397 118.665 135.811 118.779Z" fill="#2B478B"/>
<path d="M127.005 92.6863C127.005 92.6863 126.598 92.6179 126.664 92.0565C126.73 91.4952 126.728 90.7614 126.272 90.8984C125.816 91.0353 125.793 91.401 125.606 91.187C125.419 90.973 125.415 90.0741 124.056 90.0117C122.699 89.9493 122.146 90.4214 121.515 90.1438C120.884 89.8662 120.85 88.9098 120.85 88.9098C120.85 88.9098 121.029 89.251 121.301 89.3599C121.301 89.3599 120.248 87.9192 121.467 86.931C122.686 85.9429 123.93 86.5898 124.637 86.6326C126.193 86.7268 127.197 86.8197 127.706 87.8422C128.213 88.8646 128.003 91.7019 127.005 92.6863Z" fill="#2B478B"/>
<path d="M135.363 119.041C135.363 119.041 134.915 119.507 134.887 119.702C134.796 120.324 134.589 120.593 134.692 120.66C134.909 120.801 135.196 120.34 135.332 119.927C135.47 119.513 135.363 119.041 135.363 119.041Z" fill="#FFB27D"/>
</svg>
