<svg width="58" height="58" viewBox="0 0 58 58" fill="none" xmlns="http://www.w3.org/2000/svg">
<g clip-path="url(#clip0_13965_13648)">
<path d="M6.91602 29.449C7.22884 29.449 7.48243 29.1954 7.48243 28.8826C7.48243 28.5698 7.22884 28.3162 6.91602 28.3162C6.6032 28.3162 6.34961 28.5698 6.34961 28.8826C6.34961 29.1954 6.6032 29.449 6.91602 29.449Z" fill="#644E77"/>
<path d="M3.83721 39.5693C8.26665 37.7749 9.96374 39.7015 13.3763 39.7015C14.8777 39.7015 15.4054 39.3665 17.0103 39.3666C19.6048 39.3666 20.9989 40.4205 23.2507 40.4205C25.5413 40.4205 26.5619 39.4382 28.9541 39.4382C31.9952 39.4383 33.4658 41.2368 37.6104 39.9294C41.1663 38.8074 42.117 39.6876 44.5115 39.6876C47.0326 39.6876 48.4233 38.8107 50.6032 38.8108C51.6162 38.8108 52.7654 39.0037 54.162 39.5694C54.8572 39.8506 55.2815 38.8006 54.5872 38.5194C52.2897 37.5887 50.7167 37.6671 50.2519 37.6851C52.3259 35.2727 54.4888 32.2854 54.9315 29.9053C54.9511 29.7991 54.9399 29.6895 54.8992 29.5895C54.7647 29.2576 50.48 19.0756 36.3898 12.4956L36.3889 12.4975C34.9235 11.7588 33.1007 12.173 32.588 13.5637C32.0917 14.9101 33.1195 16.3261 34.5706 16.784C36.8622 18.0685 37.6685 18.8804 37.7892 20.2096C37.9265 21.7205 36.9634 22.5108 36.4019 23.1266C32.0731 22.9508 26.2531 22.5462 22.0927 22.2344C21.5146 22.1911 16.5136 21.9552 13.7662 26.4161C13.0562 25.9861 12.3963 25.6558 11.7767 25.4979C10.9518 25.2876 9.42699 25.5807 8.02922 26.7216C7.44794 27.196 8.1656 28.0725 8.74542 27.5992C9.8435 26.7029 11.0151 26.4726 11.4968 26.5956C13.3863 27.0772 16.3331 29.9028 19.4096 31.1953C18.1498 31.894 15.7687 33.9788 6.27104 32.8022C6.32985 32.2347 6.4341 31.6728 6.58279 31.122C6.78201 30.3998 5.6904 30.098 5.49069 30.8208C5.32783 31.421 5.21277 32.0332 5.14659 32.6517C4.68417 32.5854 4.20772 32.5117 3.71724 32.4308C3.62221 32.4151 3.52475 32.4239 3.43407 32.4564C3.34339 32.4889 3.26248 32.5439 3.19898 32.6163C3.13549 32.6888 3.0915 32.7762 3.07117 32.8703C3.05084 32.9645 3.05484 33.0623 3.0828 33.1544C3.61149 34.8086 4.26309 36.4209 5.03214 37.9779C4.48075 38.1226 3.93951 38.3034 3.41197 38.5194C2.71777 38.8005 3.14231 39.851 3.83721 39.5693ZM33.651 13.9556C33.7127 13.8082 33.8075 13.6768 33.9279 13.5716C34.0483 13.4664 34.1912 13.3902 34.3456 13.3488C34.7712 13.2186 35.2286 13.2377 35.6418 13.4032C36.5741 13.7469 37.0051 14.5525 36.7975 15.1158C36.5876 15.6851 35.7299 16.0086 34.8067 15.6681C33.8752 15.3247 33.443 14.519 33.651 13.9556ZM36.6227 16.7351C37.6316 16.3281 38.0803 15.4223 37.9674 14.5462C46.6944 19.1653 51.473 25.3332 53.4783 29.2353H32.3649L36.6647 24.5195C38.2699 25.1897 44.8469 27.8891 45.9512 25.5023C46.7943 23.6801 43.388 20.4073 37.6621 17.5297C37.5666 17.4395 37.3777 17.259 36.6227 16.7351ZM38.7897 19.4092C43.7009 22.163 45.1826 24.4657 44.9231 25.0266C44.7515 25.3975 43.0071 25.8862 37.4763 23.6294C37.6695 23.4175 39.4602 21.8553 38.7897 19.4092ZM14.7206 27.027C17.1183 23.1194 21.5023 23.3261 22.008 23.3639C25.8806 23.6541 31.1894 24.0247 35.4073 24.2174L30.8321 29.2353H26.9545C24.8487 29.2364 22.7652 29.6661 20.8309 30.4983C18.7516 29.9114 16.6118 28.288 14.7206 27.027ZM4.45876 33.6955C20.7424 36.1714 18.16 30.3681 26.9544 30.3681H53.6466C52.853 32.8581 50.2522 36.0166 48.5582 37.8933C47.3852 38.1253 46.201 38.5392 44.5235 38.5392C42.1455 38.5392 41.0068 37.6702 37.2696 38.849C33.4573 40.0522 32.0812 38.2902 28.9668 38.2902C26.418 38.2902 25.3987 39.2757 23.2663 39.2757C21.1384 39.2757 19.7608 38.2271 17.0529 38.2271C15.3293 38.2271 14.8153 38.562 13.4226 38.562C10.8547 38.562 9.11987 37.3531 6.18547 37.7499C5.52407 36.4366 4.94732 35.0824 4.45876 33.6955Z" fill="#3F2355"/>
<path d="M26.0168 45.4034C21.1353 46.9689 20.1564 44.1031 15.0729 45.0072C10.4173 45.8356 8.94231 42.9613 3.83724 45.0294C3.14259 45.311 2.71759 44.2607 3.412 43.9795C8.85647 41.7741 10.6328 44.6467 14.8745 43.892C20.2812 42.9294 21.224 45.751 25.6709 44.3248C31.4835 42.4609 32.3385 45.8653 37.2696 44.3091C42.22 42.7476 42.6125 44.7792 47.361 43.6248C49.2211 43.1725 51.3296 42.6599 54.5872 43.9795C55.2817 44.2607 54.8569 45.3107 54.162 45.0294C51.2424 43.8469 49.4053 44.2935 47.6286 44.7255C42.4623 45.9817 42.3799 43.8845 37.6104 45.3895C32.3317 47.0548 31.3892 43.6807 26.0168 45.4034Z" fill="#FB5100"/>
<path d="M26.0168 42.671C21.1353 44.2366 20.1564 41.3707 15.0729 42.2748C10.4173 43.1032 8.94231 40.2289 3.83724 42.297C3.14259 42.5785 2.71759 41.5283 3.412 41.247C8.85647 39.0417 10.6328 41.9143 14.8745 41.1595C20.2812 40.1969 21.224 43.0186 25.6709 41.5924C31.4835 39.7284 32.3385 43.1329 37.2696 41.5767C42.22 40.0152 42.6125 42.0468 47.361 40.8924C49.2211 40.4401 51.3296 39.9275 54.5872 41.247C55.2817 41.5283 54.8569 42.5782 54.162 42.297C51.2424 41.1144 49.4053 41.561 47.6286 41.9931C42.4623 43.2493 42.3799 41.152 37.6104 42.6571C32.3317 44.3223 31.3892 40.9482 26.0168 42.671Z" fill="#FB5100"/>
<path d="M12.9968 14.7734H7" stroke="#DBDAE1" stroke-miterlimit="10" stroke-linecap="round"/>
<path d="M9.99902 17.7693L10.0218 12" stroke="#DBDAE1" stroke-miterlimit="10" stroke-linecap="round"/>
<path d="M54.9968 54.7734H49" stroke="#DBDAE1" stroke-miterlimit="10" stroke-linecap="round"/>
<path d="M51.999 57.7693L52.0218 52" stroke="#DBDAE1" stroke-miterlimit="10" stroke-linecap="round"/>
</g>
<defs>
<clipPath id="clip0_13965_13648">
<rect width="58" height="58" fill="white"/>
</clipPath>
</defs>
</svg>
