<svg width="40" height="24" viewBox="0 0 40 24" fill="none" xmlns="http://www.w3.org/2000/svg">
<rect x="1.25" y="1.25" width="37.5001" height="21.0097" rx="4.00162" stroke="#FB5100" stroke-width="1.5"/>
<path d="M10.3613 7.57422C10.9157 7.57422 11.4474 7.79445 11.8394 8.18646C12.2314 8.57847 12.4516 9.11016 12.4516 9.66455C12.4516 10.2189 12.2314 10.7506 11.8394 11.1426C11.4474 11.5346 10.9157 11.7549 10.3613 11.7549C9.80693 11.7549 9.27525 11.5346 8.88324 11.1426C8.49122 10.7506 8.27099 10.2189 8.27099 9.66455C8.27099 9.11016 8.49122 8.57847 8.88324 8.18646C9.27525 7.79445 9.80693 7.57422 10.3613 7.57422ZM10.3613 12.8C12.6711 12.8 14.542 13.7355 14.542 14.8904V15.9355H6.18066V14.8904C6.18066 13.7355 8.05151 12.8 10.3613 12.8Z" fill="#FB5100"/>
<path d="M19.5926 9.6658C19.5926 9.17806 20.1291 8.9537 20.7339 8.9537C21.5435 8.9537 22.0801 9.38291 22.3434 10.1633L23.3579 9.57801C22.9287 8.39767 22.0508 7.82213 20.7631 7.82213C19.3389 7.82213 18.3635 8.5635 18.3635 9.69507C18.3635 10.8461 19.2609 11.5095 20.4998 11.7436C21.6021 11.968 22.1874 12.2411 22.1874 12.8752C22.1874 13.4214 21.6996 13.7921 20.9192 13.7921C19.8755 13.7921 19.378 13.1776 19.1926 12.1631L18.0611 12.7386C18.3244 13.9872 19.2316 14.9237 20.929 14.9237C22.519 14.9237 23.475 13.9482 23.475 12.8264C23.475 11.6656 22.7336 11.0412 21.2411 10.7291C20.0998 10.495 19.5926 10.2023 19.5926 9.6658ZM24.5741 14.7871H25.8617V7.9587H24.5741V14.7871ZM27.1938 14.7871H28.4424V9.88041C28.4717 9.95845 28.54 10.0853 28.6083 10.2023C28.6473 10.2706 28.6863 10.3486 28.7351 10.4169L31.5835 14.7871H32.8907V7.9587H31.642V12.8361C31.6128 12.7679 31.5445 12.6313 31.4762 12.5142C31.4372 12.4459 31.3982 12.3679 31.3494 12.2996L28.501 7.9587H27.1938V14.7871Z" fill="#FB5100"/>
</svg>
