<svg width="385" height="385" viewBox="0 0 385 385" fill="none" xmlns="http://www.w3.org/2000/svg">
<path d="M197.593 171.69H187.406L169.874 0H215.126L197.593 171.69Z" fill="url(#paint0_linear)"/>
<path d="M187.407 213.309H197.594L215.127 384.999H169.875L187.407 213.309Z" fill="url(#paint1_linear)"/>
<path d="M213.31 197.594V187.406L385 169.874V215.126L213.31 197.594Z" fill="url(#paint2_linear)"/>
<path d="M171.69 187.406V197.594L0 215.126V169.874L171.69 187.406Z" fill="url(#paint3_linear)"/>
<path d="M210.782 181.406L203.595 174.14L312.58 40.3577L344.643 72.4212L210.782 181.406Z" fill="url(#paint4_linear)"/>
<path d="M174.139 203.596L181.405 210.783L72.4205 344.644L40.3569 312.58L174.139 203.596Z" fill="url(#paint5_linear)"/>
<path d="M203.596 210.783L210.782 203.596L344.644 312.58L312.58 344.644L203.596 210.783Z" fill="url(#paint6_linear)"/>
<path d="M181.404 174.139L174.138 181.404L40.356 72.4197L72.4195 40.3562L181.404 174.139Z" fill="url(#paint7_linear)"/>
<path d="M208.807 117.595C208.807 117.595 212.598 110.804 217.337 113.726C225.076 118.464 222.628 129.126 222.628 129.126L220.89 124.387C220.89 124.387 223.26 131.89 219.469 137.023L219.864 132.127C219.864 132.127 216.863 139.234 211.572 140.024C206.28 140.814 205.412 140.814 204.859 143.973C204.306 147.132 208.57 149.264 207.228 149.027C202.41 148.238 202.884 142.078 202.884 142.078L202.095 146.5C202.095 146.5 195.935 134.654 196.408 129.126C196.882 123.598 199.409 119.807 199.409 119.807L196.25 120.991C196.172 120.991 205.648 105.986 208.807 117.595Z" fill="#333333"/>
<path d="M213.466 134.101C215.993 129.521 219.863 124.388 210.86 119.649C209.438 118.859 205.964 119.491 204.621 119.412C203.673 119.333 203.594 120.36 202.726 120.518C196.487 121.466 193.012 126.362 193.012 126.362C193.012 126.362 198.698 135.049 181.718 146.185C179.744 147.448 193.881 169.64 195.302 161.427C199.962 133.47 211.966 136.787 213.466 134.101Z" fill="#EABFA5"/>
<path d="M198.698 122.413C198.698 122.413 201.462 121.624 204.542 125.651C204.858 126.046 204.7 126.678 204.226 126.757C202.883 127.152 200.435 127.626 198.224 126.836C194.196 125.494 198.698 122.413 198.698 122.413Z" fill="#D84744"/>
<path d="M204.226 126.758C203.752 126.363 203.042 126.126 202.252 126.126C201.225 126.126 200.277 126.6 199.725 127.232C201.541 127.39 203.199 127.074 204.226 126.758Z" fill="#822A2A"/>
<path d="M203.989 126.284C203.989 126.284 201.304 123.678 198.382 123.362C198.382 123.362 200.988 124.151 198.224 124.23C198.224 124.23 197.434 123.836 197.829 123.204C197.829 123.125 198.303 122.809 198.619 122.572C198.777 122.414 199.013 122.335 199.25 122.414C200.277 122.493 203.041 123.046 203.989 126.284Z" fill="#EEF9F9"/>
<path d="M196.882 126.126C197.119 126.441 197.593 126.678 198.145 126.915C198.619 127.073 199.172 127.231 199.725 127.231C199.725 127.231 200.199 126.836 199.646 126.362C199.093 125.81 197.435 125.652 196.882 126.126Z" fill="#EEF9F9"/>
<path d="M198.225 126.917C199.488 127.311 200.831 127.39 201.937 127.232C201.305 126.917 200.436 126.68 199.488 126.68C199.015 126.68 198.541 126.759 198.067 126.838C198.067 126.838 198.146 126.838 198.225 126.917Z" fill="#FFABAB"/>
<path d="M192.538 135.205C193.17 141.68 189.537 155.975 188.668 159.213C188.747 159.371 188.905 159.45 188.984 159.608L196.329 155.817C199.646 141.996 205.016 137.969 208.886 136.231C207.385 135.521 205.885 134.81 204.384 134.099C195.302 129.597 192.854 126.281 192.854 126.281C192.854 126.281 195.223 129.834 192.538 135.205Z" fill="#D8A98F"/>
<path d="M213.545 132.756C213.545 132.756 215.44 133.23 214.019 135.204C212.597 137.179 208.096 137.258 209.201 134.731C210.307 132.203 213.545 132.756 213.545 132.756Z" fill="#EABFA5"/>
<path d="M207.622 122.964C207.622 122.964 211.413 121.227 212.44 125.965C212.44 125.965 211.492 122.806 207.622 122.964Z" fill="#822A2A"/>
<path d="M209.201 121.779C209.201 121.779 214.492 120.357 213.94 125.254C213.94 125.333 213.071 121.621 209.201 121.779Z" fill="#333333"/>
<path d="M204.068 119.332C204.068 119.332 207.069 119.49 207.227 121.069C207.148 121.148 207.622 117.673 204.068 119.332Z" fill="#333333"/>
<path d="M205.728 121.622C205.728 121.622 206.123 119.49 202.411 120.754C202.411 120.833 204.859 120.359 205.728 121.622Z" fill="#822A2A"/>
<path d="M203.515 121.701L202.883 121.149C202.883 121.149 203.199 120.438 204.858 121.07C206.516 121.701 207.701 121.306 207.701 121.306L204.621 123.518L203.515 121.701Z" fill="#F7CAB2"/>
<path d="M201.938 121.938L202.885 121.148C203.28 120.832 203.833 120.99 203.991 121.464L204.544 123.517C204.623 123.517 203.833 122.491 201.938 121.938Z" fill="#D8A98F"/>
<path d="M213.15 133.627C213.15 133.627 213.466 135.444 210.86 135.444C210.86 135.444 212.123 134.891 211.808 134.417C211.492 133.943 210.86 133.943 210.86 133.943C210.86 133.943 212.123 133.864 212.281 134.101C212.439 134.338 212.36 134.812 212.36 134.812L213.15 133.627Z" fill="#D8A98F"/>
<path d="M209.913 132.284C209.913 132.284 213.862 131.81 214.257 129.046C214.257 129.046 215.757 128.651 217.021 127.387C218.284 126.203 214.888 133.784 214.888 133.784C214.888 133.784 214.099 132.363 210.545 133.942L209.913 132.284Z" fill="#333333"/>
<path d="M216.074 40.2798C217.1 42.2542 219.864 41.8593 221.839 40.4378C223.734 39.0162 224.208 36.805 223.892 34.9096C223.102 29.9342 217.258 27.7229 211.888 30.3291C204.938 33.567 203.28 40.2009 203.043 46.1239C202.964 49.046 204.227 54.3372 199.805 55.6798C197.041 56.5485 195.619 54.2583 194.987 52.3629C194.593 51.0993 194.672 49.2039 196.646 48.7301C198.541 48.2562 199.884 50.3885 197.515 50.3885C197.594 51.0993 197.752 51.7311 197.831 52.4419C197.988 52.3629 198.067 52.2839 198.225 52.2049C199.805 51.4152 198.383 49.5988 196.883 50.3885C196.725 50.4675 196.646 50.5465 196.488 50.6255C195.54 51.0993 195.698 52.6788 196.804 52.6788C198.699 52.6788 201.147 52.2049 201.7 50.3096C202.253 48.4932 200.437 46.8347 198.62 46.4398C196.409 46.045 194.04 47.1506 192.855 48.888C191.355 51.0993 192.302 53.5475 193.487 55.4429C194.751 57.4172 196.567 58.6019 199.41 58.128C202.016 57.7331 204.148 56.0747 205.096 53.9424C206.202 51.3362 205.649 48.4932 205.728 45.887C205.807 42.3332 206.281 38.3845 209.045 35.3045C211.572 32.4614 216.468 30.0132 219.706 32.6193C220.812 33.4881 221.365 34.9096 221.365 36.2522C221.365 36.8839 221.286 37.5947 220.891 38.1475C220.733 38.3845 218.917 39.727 218.759 39.4901C217.969 38.1475 215.363 39.0162 216.074 40.2798Z" fill="#E5A920"/>
<path d="M238.582 67.5279L234.08 54.1813L232.658 49.9167L228.236 36.5701C227.999 35.7803 226.972 35.3854 226.025 35.7013C225.077 36.0172 224.524 36.8859 224.761 37.6757L224.84 37.8336C221.602 38.9393 218.759 40.9926 217.022 43.5988C215.837 45.3362 214.81 47.5475 214.415 50.0746C213.863 53.4705 211.178 56.5505 207.308 57.8141L207.071 57.8931C204.544 58.7618 201.938 58.6828 199.647 57.8141L197.12 56.7875C196.014 56.3926 194.672 56.3136 193.487 56.7875L195.383 62.3946L196.804 66.6592L198.7 72.2664C199.884 71.8715 200.99 71.0818 201.543 70.0551L202.964 67.6859C204.228 65.6326 206.36 63.9741 208.887 63.1844L209.124 63.1054C212.915 61.8418 216.943 62.6315 219.47 65.0797C221.286 66.8172 223.497 67.9228 225.472 68.6336C228.473 69.6603 231.948 69.5813 235.186 68.5546L235.265 68.7126C235.502 69.5023 236.528 69.8972 237.476 69.5813C238.266 69.2654 238.818 68.3177 238.582 67.5279Z" fill="#E5A920"/>
<path d="M214.415 56.1542C215.758 54.8116 217.969 51.8106 219.233 50.3101C220.97 48.3357 223.418 46.6773 226.261 45.5716C226.577 45.4137 234.87 68.7901 235.185 68.7111L227.288 45.1768L227.209 45.0188C226.972 44.387 227.604 43.6763 228.552 43.3604C229.499 43.0445 230.447 43.2814 230.605 43.8342L228.078 36.4106C227.841 35.6209 226.814 35.226 225.866 35.5419C224.919 35.8578 224.366 36.7265 224.603 37.5163L224.682 37.6742C221.444 38.7799 218.601 40.8332 216.863 43.4393C215.679 45.1768 214.652 47.388 214.257 49.9152C213.704 53.3111 211.019 56.3911 207.15 57.6547L206.913 57.7337C204.385 58.6024 201.779 58.5234 199.489 57.6547L196.962 56.628C195.856 56.2332 194.514 56.1542 193.329 56.628L195.146 62.1562C196.33 61.7613 198.62 61.5244 200.832 61.2085C200.99 61.4455 212.283 58.3655 214.415 56.1542Z" fill="#C68D1A"/>
<path d="M226.657 71.9514C226.262 69.8191 228.789 68.3976 231.158 68.3976C233.527 68.3976 235.265 69.8981 236.133 71.6355C238.503 76.0581 235.186 81.3494 229.263 82.534C221.76 84.1135 216.39 79.8489 212.678 75.2684C210.862 72.9781 208.65 68.0027 204.307 69.5822C201.543 70.6089 201.859 73.294 202.49 75.1104C202.885 76.374 204.07 77.7955 205.965 77.0058C207.782 76.216 207.545 73.6889 205.649 75.1894C205.333 74.5576 205.018 73.9258 204.702 73.373C204.86 73.373 205.018 73.294 205.176 73.294C206.913 72.9781 206.913 75.2683 205.176 75.5842C205.018 75.5842 204.86 75.6632 204.702 75.6632C203.596 75.8212 202.885 74.4786 203.754 73.8468C205.176 72.6622 207.466 71.6355 209.045 72.8201C210.546 73.9258 210.151 76.374 208.887 77.7955C207.387 79.454 204.86 80.0068 202.806 79.375C200.279 78.5063 199.568 75.9791 199.331 73.7678C199.173 71.4776 199.884 69.3453 202.411 68.0027C204.781 66.7391 207.466 66.7391 209.519 67.9237C211.967 69.3453 213.231 71.8725 214.889 73.9258C217.101 76.6899 219.865 79.6119 223.892 80.4017C227.604 81.1124 233.053 80.1648 234.001 76.1371C234.317 74.7945 233.922 73.294 233.132 72.2673C232.738 71.7935 232.264 71.2407 231.632 71.0037C231.316 70.9248 229.026 70.9248 229.105 71.2407C229.5 72.5043 226.893 73.373 226.657 71.9514Z" fill="#E5A920"/>
<path d="M226.498 52.2055C226.893 52.2055 227.209 51.9686 227.446 51.6527C227.525 51.4947 227.683 51.2578 227.762 50.9419C227.762 50.8629 227.762 50.705 227.683 50.626C227.446 50.3101 226.261 49.0465 225.156 49.0465C225.156 48.8886 225.077 48.7306 224.998 48.6516C224.84 48.4937 223.418 47.7039 222.471 48.0988C222.392 48.0198 222.392 47.9409 222.313 47.8619C222.313 47.8619 222.234 47.8619 222.234 47.7829C221.997 47.625 220.575 47.546 219.786 48.1778C219.707 48.0988 219.628 48.0988 219.549 48.0988C219.549 48.0988 219.549 48.0988 219.47 48.0988C218.996 48.0988 217.89 48.5727 217.416 49.4414C217.337 49.4414 217.258 49.4414 217.258 49.4414H217.179H217.1C216.548 49.6783 215.758 50.705 215.6 51.6527H215.521H215.442C215.363 51.6527 215.363 51.7316 215.284 51.7316C214.81 52.2055 214.336 53.8639 214.573 54.7327C214.573 54.8116 214.652 54.8906 214.652 54.9696C214.889 55.6803 215.363 56.0752 216.074 56.1542C216.153 56.2332 216.232 56.2332 216.39 56.3121C216.942 56.5491 217.574 56.4701 217.969 56.0752C218.364 55.6803 218.68 55.0485 218.838 54.4957V54.4168C218.917 54.3378 218.917 54.1798 218.917 54.1009V54.0219C219.312 53.785 219.628 53.3901 219.786 53.1532C219.864 53.0742 219.943 52.9162 219.943 52.8373C220.417 52.7583 220.812 52.5214 220.97 52.4424C221.049 52.3634 221.207 52.3634 221.207 52.2055C221.681 52.2844 222.076 52.2844 222.313 52.2844C222.471 52.2844 222.55 52.2844 222.629 52.2055C223.023 52.5214 223.497 52.6793 223.734 52.7583C223.892 52.8373 223.971 52.8373 224.129 52.7583C224.445 53.2321 224.919 53.548 225.156 53.785L225.235 53.8639C225.393 54.0219 225.551 54.1009 225.788 54.0219C225.945 54.0219 226.024 53.9429 226.103 53.785C226.498 53.3901 226.656 52.8373 226.498 52.2055ZM222.076 64.0516C222.155 64.0516 222.155 63.9726 222.234 63.8937C223.102 64.2885 224.366 63.9726 224.682 63.7357C224.761 63.6567 224.761 63.5778 224.84 63.4988C225.867 63.5778 226.893 62.5511 227.051 62.3142V62.2352C227.051 62.1562 227.051 62.0773 227.051 61.9983C228.078 61.6824 228.71 60.1819 228.71 60.0239C228.71 59.9449 228.71 59.787 228.631 59.6291C229.42 58.9973 229.657 57.2598 229.657 56.865C229.657 56.786 229.578 56.628 229.499 56.5491C229.341 56.3911 229.025 56.2332 228.868 56.1542C228.473 55.9962 228.078 56.0752 227.762 56.3121C227.525 55.7593 227.051 55.3644 226.34 55.2855C226.182 55.2855 226.103 55.2855 225.945 55.2855C225.788 55.3644 225.63 55.5224 225.63 55.7593V55.8383C225.551 56.0752 225.393 56.707 225.393 57.2598C225.235 57.3388 225.156 57.4178 225.077 57.5757C224.919 57.7337 224.682 58.1285 224.524 58.6024C224.287 58.6024 224.05 58.7603 223.971 58.9973C224.05 58.8393 224.129 58.7603 224.129 58.6814C223.971 58.7603 223.576 58.9973 223.26 59.3921C223.102 59.3132 223.023 59.3132 222.866 59.3921C222.629 59.3921 222.234 59.4711 221.839 59.708C221.76 59.6291 221.602 59.5501 221.444 59.5501C221.207 59.4711 220.733 59.3921 220.259 59.3921V59.3132C220.18 59.2342 220.101 59.0762 220.022 59.0762H219.943C219.47 58.7603 218.917 58.4444 218.285 58.3655C217.732 58.2865 217.258 58.6024 216.942 59.1552C216.864 59.3132 216.785 59.3921 216.785 59.4711C216.311 59.945 216.153 60.5767 216.39 61.2875C216.39 61.3665 216.469 61.4455 216.469 61.5244C216.864 62.3932 218.206 63.4198 218.917 63.4988C218.996 63.4988 218.996 63.4988 219.075 63.4988H219.154C219.154 63.4988 219.233 63.4988 219.233 63.4198C219.943 64.1306 221.207 64.3675 221.76 64.2885C221.918 64.1306 221.997 64.1306 222.076 64.0516C221.997 64.0516 222.076 64.0516 222.076 64.0516ZM222.629 59.6291C222.629 59.6291 222.629 59.5501 222.708 59.5501C222.629 59.5501 222.629 59.5501 222.629 59.6291Z" fill="#C68D1A"/>
<path d="M220.024 50.2322C220.024 50.2322 219.471 49.3635 219.945 48.7317C220.419 48.021 221.92 48.2579 221.841 48.2579C221.13 48.8107 220.498 49.4425 220.024 50.2322Z" fill="#EFB135"/>
<path d="M221.683 49.6772C221.13 50.072 220.104 50.23 220.104 50.23C220.577 49.4402 221.209 48.8084 221.999 48.2556C221.92 48.2556 222.236 49.2033 221.683 49.6772Z" fill="#FCC34F"/>
<path d="M220.104 50.3896C220.104 50.3896 220.261 51.3373 220.814 51.6532C221.367 51.9691 222.157 51.8112 222.157 51.8112C221.604 51.2584 220.893 50.7055 220.104 50.3896Z" fill="#FCC34F"/>
<path d="M221.762 50.3898C221.13 49.837 220.104 50.3108 220.104 50.3108C220.893 50.6267 221.604 51.1796 222.236 51.8113C222.157 51.8113 222.315 50.8637 221.762 50.3898Z" fill="#EFB135"/>
<path d="M222.157 49.9939C222.157 49.9939 221.841 49.0462 222.473 48.6514C223.184 48.2565 224.605 48.9673 224.526 49.0462C223.658 49.1252 222.789 49.5201 222.157 49.9939Z" fill="#EFB135"/>
<path d="M223.975 50.1511C223.343 50.309 222.238 49.9931 222.159 49.9931C222.79 49.5193 223.659 49.1244 224.607 49.0454C224.607 49.0454 224.607 49.9931 223.975 50.1511Z" fill="#FCC34F"/>
<path d="M222.159 50.1506C222.159 50.1506 222.08 51.0194 222.554 51.5722C223.028 52.046 223.897 52.2829 223.897 52.2829C223.502 51.4932 222.87 50.7824 222.159 50.1506Z" fill="#FCC34F"/>
<path d="M223.817 50.8614C223.343 50.1506 222.159 50.1506 222.159 50.1506C222.869 50.7824 223.501 51.4932 223.896 52.2829C223.896 52.2829 224.291 51.4932 223.817 50.8614Z" fill="#EFB135"/>
<path d="M224.365 50.6255C224.365 50.6255 224.286 49.5988 225.076 49.5988C225.866 49.5198 227.209 50.8624 227.13 50.9414C226.103 50.5465 225.155 50.4675 224.365 50.6255Z" fill="#EFB135"/>
<path d="M226.183 51.5726C225.472 51.4146 224.366 50.6249 224.366 50.6249C225.156 50.4669 226.104 50.5459 227.209 50.8618C227.209 50.9408 226.972 51.7305 226.183 51.5726Z" fill="#FCC34F"/>
<path d="M224.367 50.7834C224.367 50.7834 224.051 51.5732 224.367 52.205C224.683 52.8368 225.552 53.4686 225.552 53.4686C225.315 52.5998 224.92 51.6522 224.367 50.7834Z" fill="#FCC34F"/>
<path d="M225.867 52.1254C225.551 51.2567 224.288 50.7039 224.367 50.7039C224.92 51.5726 225.314 52.5203 225.551 53.4679C225.551 53.4679 226.183 52.9941 225.867 52.1254Z" fill="#EFB135"/>
<path d="M216.075 55.602C216.075 55.602 215.285 55.602 215.048 54.5754C214.811 53.4697 215.601 52.0482 215.601 52.1272C215.522 53.3908 215.68 54.5754 216.075 55.602Z" fill="#EFB135"/>
<path d="M216.391 53.3898C216.47 54.2585 216.076 55.6011 216.076 55.6011C215.76 54.4955 215.523 53.3108 215.602 52.1262C215.523 52.1262 216.313 52.5211 216.391 53.3898Z" fill="#FCC34F"/>
<path d="M216.155 55.678C216.155 55.678 216.866 56.1519 217.339 55.757C217.813 55.3621 218.05 54.3354 218.05 54.3354C217.418 54.4934 216.708 54.9672 216.155 55.678Z" fill="#FCC34F"/>
<path d="M216.945 53.8641C216.313 54.18 216.155 55.6805 216.155 55.6805C216.708 54.9698 217.418 54.4959 218.05 54.338C218.05 54.338 217.497 53.5482 216.945 53.8641Z" fill="#EFB135"/>
<path d="M216.785 53.0738C216.785 53.0738 215.995 52.7579 215.995 51.8102C215.995 50.7835 217.101 49.9148 217.18 49.9148C216.864 50.9415 216.785 52.0471 216.785 53.0738Z" fill="#EFB135"/>
<path d="M217.654 51.3354C217.496 52.1251 216.785 52.9938 216.785 53.0728C216.706 52.0461 216.864 50.9405 217.18 49.9138C217.18 49.9138 217.811 50.5456 217.654 51.3354Z" fill="#FCC34F"/>
<path d="M216.942 53.1518C216.942 53.1518 217.495 53.8625 218.126 53.7046C218.679 53.5466 219.153 52.8359 219.232 52.8359C218.442 52.7569 217.653 52.8359 216.942 53.1518Z" fill="#FCC34F"/>
<path d="M218.127 51.9666C217.416 51.9666 216.863 53.1512 216.942 53.2301C217.732 52.9142 218.443 52.8353 219.153 52.9142C219.153 52.9142 218.759 51.9666 218.127 51.9666Z" fill="#EFB135"/>
<path d="M218.206 51.2601C218.206 51.2601 217.496 50.6283 217.811 49.8385C218.127 48.9698 219.391 48.5749 219.391 48.6539C218.838 49.4437 218.443 50.3124 218.206 51.2601Z" fill="#EFB135"/>
<path d="M219.47 50.0733C219.076 50.7051 218.128 51.2579 218.128 51.2579C218.365 50.3102 218.76 49.4415 219.313 48.5728C219.392 48.5728 219.865 49.4415 219.47 50.0733Z" fill="#FCC34F"/>
<path d="M218.286 51.415C218.286 51.415 218.681 52.2838 219.313 52.4417C219.866 52.5207 220.576 52.0468 220.576 52.1258C219.866 51.652 219.076 51.415 218.286 51.415Z" fill="#FCC34F"/>
<path d="M219.787 50.7856C219.076 50.5487 218.286 51.3384 218.286 51.4174C219.076 51.4174 219.866 51.6543 220.576 52.0492C220.576 52.0492 220.418 51.0225 219.787 50.7856Z" fill="#EFB135"/>
<path d="M223.813 61.6062C223.813 61.6062 223.892 62.6329 224.682 62.7908C225.472 63.0277 226.499 62.0011 226.499 62.0011C225.551 62.08 224.682 61.9221 223.813 61.6062Z" fill="#EFB135"/>
<path d="M225.471 61.0513C224.76 61.0513 223.892 61.6041 223.892 61.6041C224.681 61.92 225.629 62.0779 226.577 61.9989C226.498 61.9989 226.182 61.0513 225.471 61.0513Z" fill="#FCC34F"/>
<path d="M223.814 61.4474C223.814 61.4474 223.34 60.5786 223.656 60.0258C223.893 59.473 224.604 59.0781 224.683 59.0781C224.525 59.8679 224.209 60.6576 223.814 61.4474Z" fill="#FCC34F"/>
<path d="M225.077 60.4201C224.919 61.2098 223.813 61.5257 223.813 61.4467C224.287 60.657 224.524 59.8672 224.603 58.9985C224.603 58.9985 225.235 59.6303 225.077 60.4201Z" fill="#EFB135"/>
<path d="M225.71 60.4979C225.71 60.4979 226.026 61.4456 226.816 61.3666C227.605 61.2876 228.316 59.7871 228.237 59.7871C227.368 60.261 226.5 60.4979 225.71 60.4979Z" fill="#EFB135"/>
<path d="M226.972 59.3114C226.341 59.5483 225.63 60.496 225.63 60.496C226.42 60.496 227.367 60.2591 228.157 59.7852C228.236 59.7852 227.683 58.9955 226.972 59.3114Z" fill="#FCC34F"/>
<path d="M225.63 60.3393C225.63 60.3393 224.999 59.7075 225.078 58.9967C225.157 58.286 225.709 57.6542 225.709 57.5752C225.788 58.4439 225.788 59.4706 225.63 60.3393Z" fill="#FCC34F"/>
<path d="M226.499 58.8385C226.578 59.7072 225.63 60.418 225.63 60.418C225.788 59.4703 225.867 58.5226 225.709 57.6539C225.63 57.5749 226.42 57.9698 226.499 58.8385Z" fill="#EFB135"/>
<path d="M227.055 58.6036C227.055 58.6036 227.608 59.4723 228.239 58.9985C228.95 58.6036 229.187 56.7083 229.108 56.7083C228.555 57.6559 227.765 58.2877 227.055 58.6036Z" fill="#EFB135"/>
<path d="M227.923 56.7855C227.45 57.4173 227.055 58.6019 227.055 58.6019C227.844 58.207 228.555 57.6542 229.108 56.7065C229.108 56.7065 228.397 56.1537 227.923 56.7855Z" fill="#FCC34F"/>
<path d="M226.975 58.5241C226.975 58.5241 226.264 58.1292 226.106 57.3395C226.027 56.6287 226.343 55.6021 226.343 55.6021C226.659 56.5497 226.896 57.4974 226.975 58.5241Z" fill="#FCC34F"/>
<path d="M227.368 56.5499C227.605 57.4186 226.973 58.6032 226.973 58.6032C226.894 57.5765 226.657 56.5499 226.341 55.6812C226.262 55.6812 227.052 55.6812 227.368 56.5499Z" fill="#EFB135"/>
<path d="M217.418 59.71C217.418 59.71 216.786 60.1838 217.181 61.1315C217.655 62.1582 219.077 62.79 219.077 62.79C218.366 61.7633 217.813 60.7366 217.418 59.71Z" fill="#EFB135"/>
<path d="M218.997 61.2895C218.524 60.5787 217.418 59.7889 217.418 59.71C217.813 60.8156 218.366 61.8423 219.076 62.79C219.076 62.79 219.471 62.0002 218.997 61.2895Z" fill="#FCC34F"/>
<path d="M217.497 59.5522C217.497 59.5522 217.734 58.7625 218.444 58.7625C219.076 58.8414 219.866 59.4732 219.866 59.4732C219.155 59.7101 218.365 59.7891 217.497 59.5522Z" fill="#FCC34F"/>
<path d="M219.155 60.5778C218.445 60.7357 217.418 59.5511 217.418 59.5511C218.287 59.7881 219.076 59.7091 219.787 59.4722C219.787 59.4722 219.866 60.4988 219.155 60.5778Z" fill="#EFB135"/>
<path d="M219.552 61.2097C219.552 61.2097 219.078 61.9995 219.71 62.7102C220.342 63.5 221.763 63.5789 221.763 63.5C220.894 62.8682 220.105 62.0784 219.552 61.2097Z" fill="#EFB135"/>
<path d="M221.29 62.0784C220.658 61.5256 219.553 61.2887 219.553 61.2097C220.106 62.0784 220.895 62.8682 221.764 63.5C221.764 63.5 221.922 62.6312 221.29 62.0784Z" fill="#FCC34F"/>
<path d="M219.553 61.1304C219.553 61.1304 219.553 60.1827 220.106 59.9458C220.658 59.7089 221.448 60.0248 221.527 60.0248C221.053 60.4986 220.342 60.8935 219.553 61.1304Z" fill="#FCC34F"/>
<path d="M221.29 61.3672C220.737 61.7621 219.553 61.1303 219.553 61.1303C220.342 60.9723 220.974 60.5775 221.527 60.0247C221.527 60.0247 221.764 60.9723 221.29 61.3672Z" fill="#EFB135"/>
<path d="M221.764 61.8384C221.764 61.8384 221.606 62.7861 222.317 63.2599C223.028 63.8127 224.37 63.2599 224.37 63.2599C223.343 62.944 222.475 62.4702 221.764 61.8384Z" fill="#EFB135"/>
<path d="M223.5 61.9965C222.868 61.6806 221.763 61.8386 221.763 61.8386C222.473 62.4704 223.342 62.9442 224.29 63.2601C224.29 63.2601 224.211 62.3124 223.5 61.9965Z" fill="#FCC34F"/>
<path d="M221.761 61.6815C221.761 61.6815 221.524 60.7338 221.919 60.26C222.314 59.7861 223.182 59.7861 223.182 59.7861C222.867 60.4969 222.393 61.2077 221.761 61.6815Z" fill="#FCC34F"/>
<path d="M223.262 61.2864C222.867 61.9182 221.683 61.7603 221.683 61.6813C222.314 61.1285 222.788 60.4967 223.104 59.7859C223.183 59.7859 223.657 60.6546 223.262 61.2864Z" fill="#EFB135"/>
<path d="M202.046 79.6036L191.806 49.0544L186.715 50.7611L196.955 81.3103L202.046 79.6036Z" fill="#846C5D"/>
<path d="M176.585 49.8343L189.385 88.0208L200.616 84.2561L187.816 46.0696L176.585 49.8343Z" fill="#846C5D"/>
<path d="M181.817 55.2301L190.351 80.6877L196.49 78.6297L187.957 53.1721L181.817 55.2301Z" fill="#FCC34F"/>
<path d="M229.577 177.93C226.734 177.298 224.839 175.798 223.575 174.139L218.442 181.326L213.703 161.345C212.282 155.738 206.122 151.237 200.199 148.157C186.852 152.105 187.326 140.022 187.563 137.653C184.957 122.016 196.408 108.749 206.438 96.2706L195.223 92.4009C152.656 131.256 148.708 195.857 148.708 195.857L200.357 203.518C192.301 193.883 201.383 188.671 196.803 188.118C195.855 188.039 198.224 186.143 198.382 185.196C198.54 184.327 197.593 183.695 197.829 182.905C199.725 176.982 203.516 173.981 203.516 173.981C203.832 198.937 219.547 204.544 219.547 204.544L229.577 177.93Z" fill="#3AC1B0"/>
<path d="M190.878 154.871C190.326 154.713 189.773 154.871 189.615 155.344C189.457 155.739 189.852 156.213 190.404 156.371C190.957 156.529 191.51 156.371 191.668 155.897C191.747 155.502 191.431 155.028 190.878 154.871ZM188.43 161.504C188.588 161.109 188.193 160.636 187.64 160.478C187.088 160.32 186.535 160.478 186.377 160.952C186.219 161.346 186.614 161.82 187.167 161.978C187.798 162.057 188.351 161.899 188.43 161.504ZM187.956 168.375C187.403 168.375 186.93 168.691 186.93 169.165C186.93 169.639 187.403 169.955 187.956 169.955C188.509 169.955 188.983 169.639 188.983 169.165C188.983 168.691 188.509 168.375 187.956 168.375ZM187.167 174.693C186.772 174.851 186.614 175.404 186.851 175.957C187.088 176.509 187.561 176.825 187.956 176.667C188.351 176.509 188.509 175.957 188.272 175.404C188.035 174.851 187.561 174.535 187.167 174.693ZM182.349 179.984C181.875 179.668 181.243 179.747 181.007 180.142C180.77 180.537 181.007 181.09 181.559 181.327C182.033 181.643 182.665 181.564 182.902 181.169C183.06 180.774 182.823 180.221 182.349 179.984Z" fill="#4ADDC7"/>
<path d="M181.719 187.566L181.561 186.776C183.219 186.381 183.377 182.827 183.219 181.485V181.327L185.351 178.563L185.43 178.484C185.509 178.484 190.169 176.352 191.274 175.562C191.511 175.246 190.801 173.193 190.248 171.771C189.3 169.244 188.194 166.085 188.273 163.479C188.431 159.293 191.353 156.924 192.301 156.213L191.116 153.528L191.511 153.37C191.511 153.37 193.644 152.58 194.591 151.87C194.749 151.791 194.749 151.712 194.749 151.633C194.749 151.238 194.117 150.606 193.802 150.369L194.275 149.737C194.433 149.816 195.539 150.685 195.539 151.633C195.539 151.949 195.381 152.264 195.065 152.501C194.275 153.133 192.854 153.686 192.222 154.002L193.407 156.529L193.091 156.687C193.091 156.687 189.3 158.977 189.142 163.479C189.063 165.927 190.169 169.007 191.037 171.455C191.985 174.061 192.538 175.641 191.748 176.194C190.643 176.904 186.536 178.8 185.825 179.116L184.009 181.485C184.088 182.433 184.167 186.934 181.719 187.566Z" fill="#39AA99"/>
<path d="M224.605 177.695L214.338 197.043C203.676 182.67 204.229 169.007 204.229 169.007C199.491 192.068 219.076 203.598 219.076 203.598L227.606 180.301L224.605 177.695Z" fill="#39AA99"/>
<path d="M152.58 194.044C152.817 197.203 155.975 192.702 155.975 192.702C155.975 192.702 156.528 179.829 156.212 178.249C156.054 176.67 152.58 194.044 152.58 194.044Z" fill="#39AA99"/>
<path d="M196.015 187.724C195.699 184.881 142.075 159.136 197.199 107.566C197.199 107.566 184.485 111.672 184.722 108.592C185.116 103.301 187.723 99.8262 187.723 99.8262C178.798 109.619 161.424 137.813 166.399 161.268C171.849 187.409 187.802 187.803 187.802 187.803C187.802 187.803 175.561 183.697 173.744 169.245C173.665 169.245 178.956 181.88 196.015 187.724Z" fill="#39AA99"/>
<path d="M191.12 151.791C191.91 152.028 188.514 149.106 188.04 147.526C187.645 146.184 187.882 145.078 188.277 144.288C187.487 142.314 187.329 140.103 187.408 138.681C185.513 140.734 179.59 147.763 179.59 153.607C179.59 153.607 183.065 143.814 186.619 143.025C186.619 143.025 185.039 149.738 191.12 151.791Z" fill="#39AA99"/>
<path d="M201.86 169.008C195.937 177.3 187.013 171.377 187.013 171.377L196.648 182.828C196.648 182.828 199.175 175.089 203.124 171.614L206.125 163.716C206.204 163.637 203.124 167.27 201.86 169.008Z" fill="#39AA99"/>
<path d="M212.363 182.196L217.891 179.668L210.388 181.406L211.968 188.75L212.363 182.196Z" fill="#39AA99"/>
<path d="M194.275 147.762L194.749 146.814L197.434 145.63L200.751 146.893L202.884 150.052C202.884 150.052 196.882 150.21 195.302 149.421C193.644 148.552 194.275 147.762 194.275 147.762Z" fill="#39AA99"/>
<path d="M192.617 148.315L197.119 145.945L198.698 152.184L204.542 150.447L204.226 145.866L197.198 145.077L192.617 148.315Z" fill="#4ADDC7"/>
<path d="M195.853 148.238C195.853 148.238 208.884 163.559 223.573 154.635C223.573 154.635 217.571 162.611 210.543 161.111C203.514 159.61 196.327 152.818 195.222 149.107L195.853 148.238Z" fill="#DB7631"/>
<path d="M194.353 147.13C194.353 147.13 204.066 176.587 230.128 152.658C230.128 152.658 231.944 149.815 231.628 141.523C231.628 141.049 231.155 140.812 230.76 141.049L222.783 145.787C222.783 145.787 219.466 164.109 206.751 159.213C197.748 155.817 194.353 147.13 194.353 147.13Z" fill="#B64E00"/>
<path d="M191.194 147.368C191.194 147.368 193.564 145.552 194.906 146.342C196.249 147.132 197.196 148.632 197.196 148.632L195.617 150.133C195.617 150.133 192.853 149.975 191.194 147.368Z" fill="#B64E00"/>
<path d="M190.012 143.577C190.012 143.577 190.012 146.183 192.618 147.684C192.618 147.684 194.672 148.789 193.566 149.026C192.46 149.184 190.644 147.921 189.854 145.788C189.065 143.656 190.012 143.577 190.012 143.577Z" fill="#DB7631"/>
<path d="M191.117 147.84L193.565 143.339L188.274 136.942L187.484 137.337C187.484 137.416 186.773 145.787 191.117 147.84Z" fill="#4ADDC7"/>
<path d="M195.142 92.401L206.356 96.2708C210.937 90.5056 215.359 85.9251 217.965 83.319L222.783 82.6082L224.599 80.4759H225.942C225.942 80.4759 226.732 79.8441 226.574 79.2913C225.942 77.5539 224.757 78.1856 224.283 77.238C223.415 75.5005 222.467 73.5262 222.072 72.7364C221.598 71.4728 221.598 69.7354 219.861 69.9723C209.752 71.1569 213.938 77.8697 211.49 80.16C204.698 84.3456 198.617 89.0841 193.167 94.2964C193.799 93.5856 194.431 93.0328 195.142 92.401Z" fill="#EABFA5"/>
<path d="M233.049 157.95H222.15L219.386 161.504C219.386 161.504 219.544 163.716 221.361 164.031C222.15 164.189 222.624 163.637 222.861 163.005C223.177 165.453 225.941 168.454 226.81 169.402L223.493 174.061C224.756 175.72 226.731 177.22 229.495 177.852L232.417 170.191C234.47 165.611 233.049 157.95 233.049 157.95Z" fill="#EABFA5"/>
<path d="M148.391 192.461C148.391 192.461 163.396 177.693 199.646 191.039L198.145 195.067C198.145 195.067 232.657 210.862 241.423 237.95L192.696 257.773L197.276 271.909C197.276 271.909 195.302 274.673 191.511 270.566C187.72 266.46 180.929 251.218 180.929 251.218L218.125 229.816C218.125 229.816 198.461 212.204 176.901 216.864C176.901 216.864 153.761 251.849 163.08 297.97C163.08 297.97 164.028 320.478 157.552 319.372C151.155 318.267 154.946 298.128 154.946 298.128C154.946 298.128 134.492 253.587 148.391 192.461Z" fill="#333333"/>
<path d="M197.591 87.9006C197.591 87.9006 203.672 80.556 209.437 93.6657L204.461 101.01C204.461 101.01 198.933 91.7703 190.799 94.4554L197.591 87.9006Z" fill="#4ADDC7"/>
<path d="M222.39 173.112C222.39 173.112 226.654 178.009 231.472 177.456L227.444 188.512C227.444 188.512 220.494 188.67 217.651 178.64L222.39 173.112Z" fill="#4ADDC7"/>
<path opacity="0.2" d="M178.007 338.012C175.322 331.299 173.111 324.349 171.216 317.399C169.32 310.371 167.82 303.342 166.556 296.155L165.766 290.785L165.135 285.415C164.898 283.598 164.74 281.782 164.661 279.965C164.503 278.149 164.345 276.333 164.345 274.516C164.029 267.251 164.345 259.985 165.214 252.798L164.898 258.248C164.819 259.116 164.74 260.064 164.74 260.933V263.618V266.303C164.74 267.172 164.74 268.119 164.74 268.988L164.977 274.437C165.45 281.624 166.161 288.811 167.504 295.918C168.688 303.026 170.189 310.134 172.005 317.083C172.874 320.558 173.822 324.112 174.927 327.508C175.717 331.141 176.823 334.616 178.007 338.012Z" fill="#333333"/>
<path opacity="0.2" d="M180.297 323.954C179.033 321.19 177.927 318.347 176.98 315.504C175.953 312.661 175.163 309.739 174.373 306.817C173.584 303.895 172.952 300.894 172.399 297.972C171.846 294.971 171.53 291.97 171.293 288.969C171.609 290.469 171.767 291.97 172.083 293.47L172.478 295.682L172.952 297.893C173.584 300.815 174.294 303.816 175.084 306.659C175.795 309.581 176.664 312.503 177.532 315.346C177.927 316.768 178.401 318.268 178.875 319.69C179.27 321.032 179.744 322.454 180.297 323.954Z" fill="#333333"/>
<path opacity="0.3" d="M192.46 353.173C207.377 353.173 219.469 351.936 219.469 350.409C219.469 348.883 207.377 347.645 192.46 347.645C177.543 347.645 165.451 348.883 165.451 350.409C165.451 351.936 177.543 353.173 192.46 353.173Z" fill="#3AC1B0"/>
<g opacity="0.3">
<path opacity="0.3" d="M243.24 226.5C244.898 229.106 246.399 231.791 247.899 234.476C249.4 237.161 250.9 239.846 252.322 242.531L252.716 243.242L252.006 243.558C249.873 244.506 247.82 245.453 245.688 246.401C243.555 247.349 241.423 248.217 239.37 249.086C235.105 250.824 230.841 252.561 226.497 254.062C230.525 251.85 234.71 249.797 238.817 247.823C240.87 246.875 243.003 245.848 245.056 244.901C247.188 243.953 249.242 243.005 251.374 242.136L250.979 243.163C249.636 240.399 248.294 237.635 246.951 234.871C245.688 232.107 244.424 229.343 243.24 226.5Z" fill="#333333"/>
</g>
<path d="M121.462 31.8274C119.566 29.932 118.145 28.3525 118.066 25.5884C117.987 23.2192 118.619 20.85 118.619 18.4018C118.619 16.9012 116.25 16.9012 116.25 18.4018C116.171 21.4817 115.223 24.7197 115.934 27.7997C116.486 30.1689 118.066 31.8274 119.803 33.4858C120.83 34.5915 122.568 32.933 121.462 31.8274Z" fill="#3AC1B0"/>
<path d="M128.411 73.4456C128.095 74.2353 126.989 74.8671 126.278 75.341C125.409 75.8938 124.541 76.4466 123.672 76.9204C122.408 77.7102 123.593 79.7635 124.857 78.9738C126.91 77.7102 129.753 76.4466 130.701 74.0774C131.254 72.6558 128.963 72.024 128.411 73.4456Z" fill="#3AC1B0"/>
<path d="M83.2381 63.1801C82.3694 64.2857 81.6587 65.7073 82.4484 67.1288C83.2381 68.6293 84.4228 68.4714 85.7653 68.5503C85.6074 69.8139 84.7386 71.0775 84.5807 72.2621C84.4228 73.4467 84.7387 74.3154 85.5284 75.1842C86.5551 76.2898 88.2135 74.6313 87.1869 73.5257C86.3181 72.578 87.5027 70.7616 87.8186 69.8139C88.0556 68.9452 88.1345 68.1555 87.9766 67.2867C87.8976 66.8919 87.5028 66.576 87.1869 66.497C86.0812 66.2601 84.1858 66.7339 84.8966 64.9965C85.3704 63.9698 87.5817 62.1534 88.6874 63.1011C89.793 64.1278 91.4515 62.4693 90.3458 61.4426C87.9766 59.0734 84.9756 60.9688 83.2381 63.1801Z" fill="#3AC1B0"/>
<path d="M270.88 34.1956C271.038 34.2745 271.196 34.2745 271.354 34.3535C271.591 34.4325 271.828 34.4325 272.065 34.3535C272.144 34.3535 272.144 34.4325 272.223 34.4325C272.302 34.5115 272.381 34.5115 272.302 34.4325C272.381 34.5115 272.381 34.5115 272.46 34.5904C272.934 35.0643 273.724 35.0643 274.118 34.5904C274.592 34.1166 274.592 33.4058 274.118 32.932C273.329 32.0633 272.065 31.5894 270.88 31.9053C269.775 32.3002 269.775 33.8797 270.88 34.1956Z" fill="#3AC1B0"/>
<path d="M274.514 65.3133C273.013 65.8661 270.881 66.9717 268.986 67.2876C270.486 65.7871 272.697 64.2076 274.198 63.8917C275.698 63.4969 275.067 61.2066 273.566 61.6015C271.671 62.0753 270.328 63.3389 268.828 64.5235C267.485 65.4712 266.379 66.3399 265.669 67.8404C265.353 68.4722 265.59 69.341 266.379 69.5779C268.275 70.0517 270.407 69.4989 272.381 68.7092C271.671 69.4199 270.96 70.1307 270.644 70.6835C269.854 72.0261 269.064 73.6845 269.064 75.343C269.143 76.8435 271.513 76.8435 271.434 75.343C271.276 71.5522 276.172 69.8938 276.093 66.4189C276.014 65.7081 275.224 64.9974 274.514 65.3133Z" fill="#3AC1B0"/>
<path d="M292.362 109.538V103.773C292.362 102.272 289.993 102.272 289.993 103.773V109.538C289.993 111.117 292.362 111.117 292.362 109.538Z" fill="#3AC1B0"/>
<path d="M300.179 128.887C299.469 128.887 298.758 129.203 298.284 129.756C297.889 130.23 297.81 130.941 298.284 131.414C298.679 131.809 299.548 131.888 299.942 131.414C300.021 131.335 300.021 131.335 300.1 131.256C300.1 131.256 300.1 131.256 300.179 131.256C300.811 131.256 301.364 130.704 301.364 130.072C301.285 129.44 300.811 128.887 300.179 128.887Z" fill="#3AC1B0"/>
<path d="M79.3684 146.419C79.1315 145.866 78.7366 145.471 78.0258 145.155C77.394 144.839 76.6833 144.839 75.9725 144.681C75.0248 144.523 74.1561 144.208 73.2084 144.208C71.7079 144.208 71.7079 146.577 73.2084 146.577C74.1561 146.577 75.1038 146.893 75.9725 147.051C76.6043 147.13 77.394 147.13 77.2361 147.919C77.0781 148.946 78.3417 150.131 79.2104 149.104C79.4474 148.788 79.7633 148.472 79.9212 148.077C80.553 147.366 80.0792 146.656 79.3684 146.419Z" fill="#3AC1B0"/>
<path d="M120.829 118.7L119.803 119.726C119.329 120.2 119.329 120.911 119.803 121.385C120.276 121.859 120.987 121.859 121.461 121.385C121.777 121.069 122.172 120.674 122.488 120.358C122.962 119.884 122.962 119.174 122.488 118.7C122.093 118.305 121.303 118.305 120.829 118.7Z" fill="#3AC1B0"/>
<path d="M331.455 29.4596C328.849 30.4073 325.927 32.0657 325.058 34.9088C324.189 37.6729 327.111 39.1734 329.402 39.6473C330.902 39.9632 331.534 37.6729 330.033 37.357C329.323 37.1991 328.612 37.0411 327.98 36.6462C327.111 36.0144 327.348 35.4616 327.901 34.6719C328.928 33.2504 330.507 32.3816 332.166 31.8288C333.508 31.197 332.876 28.9068 331.455 29.4596Z" fill="#3AC1B0"/>
<path d="M337.613 57.9676C337.061 57.6517 336.271 57.8097 335.955 58.3625C335.797 58.6784 335.639 59.0733 335.402 59.3892C335.086 59.942 335.244 60.6528 335.797 61.0477C336.35 61.3636 337.14 61.2056 337.456 60.6528C337.613 60.3369 337.771 59.942 338.008 59.6261C338.324 59.0733 338.166 58.3625 337.613 57.9676Z" fill="#3AC1B0"/>
<path d="M327.504 128.887C326.003 128.887 326.003 131.256 327.504 131.256C329.083 131.256 329.083 128.887 327.504 128.887Z" fill="#3AC1B0"/>
<path d="M315.897 178.244C315.739 179.192 315.66 180.218 315.502 181.245C315.344 182.114 315.265 183.456 314.633 184.088C313.528 185.115 315.186 186.773 316.292 185.747C318.108 184.167 317.792 181.087 318.187 178.876C318.424 177.375 316.134 176.743 315.897 178.244Z" fill="#3AC1B0"/>
<path d="M271.356 166.637C270.961 166.558 270.645 166.4 270.25 166.321C270.171 166.321 270.092 166.242 270.092 166.242C270.25 166.4 269.539 166.4 270.092 166.242C270.013 166.163 269.934 166.163 269.855 166.084C269.934 166.163 270.013 166.163 270.092 166.163C270.408 166.005 270.803 165.61 271.119 165.373C271.514 165.136 271.908 164.978 272.303 164.741C273.725 164.109 272.461 162.135 271.119 162.688C269.539 163.399 266.538 165.057 267.802 167.189C268.355 168.058 269.381 168.453 270.329 168.69C271.198 168.927 272.224 168.927 272.066 170.032C271.908 171.533 274.278 171.533 274.436 170.032C274.751 167.979 273.093 167.11 271.356 166.637Z" fill="#3AC1B0"/>
<path d="M105.035 205.097C104.403 205.65 102.982 205.255 102.192 205.255C100.691 205.255 100.691 207.625 102.192 207.625C103.771 207.625 105.43 207.941 106.693 206.756C107.878 205.729 106.141 204.071 105.035 205.097Z" fill="#3AC1B0"/>
<path d="M160.87 102.668C160.238 102.826 159.843 103.537 160.08 104.09C160.238 104.722 160.87 104.958 161.423 104.958C161.423 104.958 161.502 104.959 161.502 105.037C161.739 105.116 161.818 105.274 161.976 105.353C162.292 105.669 162.607 105.985 163.002 106.222C163.476 106.617 164.187 106.696 164.661 106.222C165.056 105.827 165.135 104.958 164.661 104.564C163.476 103.616 162.449 102.273 160.87 102.668Z" fill="#3AC1B0"/>
<path d="M174.848 17.2173C174.769 16.6645 174.216 16.3486 173.742 16.3486C172.637 16.2696 171.452 16.8224 170.584 17.5332C170.11 17.9281 169.794 18.5599 170.189 19.1917C170.505 19.6655 171.294 19.9814 171.847 19.5865C172.163 19.3496 172.558 19.1127 172.953 18.9547C173.032 18.9547 173.032 18.9547 173.111 18.8758C173.427 19.1127 173.9 19.2706 174.216 19.1127C174.848 18.9547 175.164 18.3229 175.006 17.6911C174.927 17.4542 174.927 17.2963 174.848 17.2173Z" fill="#3AC1B0"/>
<path d="M42.1713 29.9341C40.6708 29.8552 39.3283 30.487 37.8278 30.487C36.1693 30.487 34.5108 30.5659 32.9314 29.7762C31.7467 29.1444 30.4832 30.7239 31.5098 31.6716C31.5888 31.7505 31.7467 31.9085 31.8257 31.9875C32.1416 32.2244 32.4575 32.3034 32.7734 32.3034C33.958 32.7772 35.1426 32.8562 36.5642 32.8562C37.5119 32.8562 38.5385 32.9352 39.4862 32.7772C40.4339 32.6193 41.2236 32.2244 42.1713 32.3034C43.6719 32.3823 43.6719 30.0131 42.1713 29.9341Z" fill="#3AC1B0"/>
<path d="M37.3533 108.038C35.4579 109.302 33.0097 110.17 32.0621 112.461C31.8251 113.092 32.299 113.724 32.8518 113.882C33.5626 114.04 34.0364 113.645 34.2733 113.092C34.5892 112.382 35.6159 111.908 36.1687 111.513C36.9584 111.039 37.7482 110.644 38.459 110.091C39.8015 109.223 38.6169 107.169 37.3533 108.038Z" fill="#3AC1B0"/>
<path d="M51.4117 193.172C49.8322 192.935 48.4897 191.908 46.9102 192.066C46.2784 192.145 45.7256 192.54 45.7256 193.251C45.7256 193.804 46.2784 194.514 46.9102 194.435C48.2528 194.278 49.5163 195.304 50.7799 195.462C51.4117 195.541 52.0435 195.304 52.2015 194.672C52.4384 194.12 52.0435 193.251 51.4117 193.172Z" fill="#3AC1B0"/>
<path d="M294.337 225.79C292.6 226.026 291.731 227.369 290.546 228.554C289.441 229.659 288.572 230.765 288.019 232.265C286.756 232.66 287.387 234.793 288.809 234.477C288.967 234.477 289.125 234.398 289.204 234.398C289.599 234.319 289.914 233.924 289.993 233.608C290.309 232.344 291.02 231.476 291.889 230.528C292.442 229.975 293.389 228.396 294.179 228.238C295.838 228.001 295.838 225.553 294.337 225.79Z" fill="#3AC1B0"/>
<path d="M300.259 264.881C299.549 264.565 298.838 264.17 298.127 263.854C297.574 263.538 296.863 263.696 296.469 264.249C296.153 264.802 296.311 265.591 296.863 265.907C297.574 266.223 298.285 266.618 298.996 266.934C299.549 267.25 300.259 267.092 300.654 266.539C300.97 265.986 300.812 265.196 300.259 264.881Z" fill="#3AC1B0"/>
<path d="M329.636 218.997C328.688 220.655 327.346 221.998 326.161 223.498C325.213 224.683 326.872 226.341 327.819 225.157C329.162 223.577 330.583 221.998 331.689 220.181C332.479 218.918 330.426 217.733 329.636 218.997Z" fill="#3AC1B0"/>
<path d="M356.173 116.645C354.91 117.908 355.305 119.567 355.305 121.146C355.305 122.647 357.674 122.647 357.674 121.146C357.674 120.356 357.279 118.856 357.832 118.303C358.937 117.197 357.279 115.539 356.173 116.645Z" fill="#3AC1B0"/>
<path d="M49.5172 259.984H44.7787C43.2782 259.984 43.2782 262.353 44.7787 262.353H49.5172C51.0966 262.353 51.0966 259.984 49.5172 259.984Z" fill="#3AC1B0"/>
<path d="M84.6592 256.429C84.6592 260.536 85.449 264.8 83.2377 268.433C82.4479 269.776 84.5013 270.96 85.291 269.618C87.7392 265.511 87.0285 260.93 87.0285 256.35C87.0285 254.928 84.6592 254.928 84.6592 256.429Z" fill="#3AC1B0"/>
<path d="M81.1054 296.311C79.6049 296.311 79.6049 298.68 81.1054 298.68C82.6848 298.68 82.6848 296.311 81.1054 296.311Z" fill="#3AC1B0"/>
<defs>
<linearGradient id="paint0_linear" x1="192.49" y1="208.927" x2="192.49" y2="34.2107" gradientUnits="userSpaceOnUse">
<stop stop-color="white"/>
<stop offset="0.9952" stop-color="#3AC1B0" stop-opacity="0"/>
</linearGradient>
<linearGradient id="paint1_linear" x1="192.491" y1="176.053" x2="192.491" y2="350.769" gradientUnits="userSpaceOnUse">
<stop stop-color="white"/>
<stop offset="0.9952" stop-color="#3AC1B0" stop-opacity="0"/>
</linearGradient>
<linearGradient id="paint2_linear" x1="176.054" y1="192.49" x2="350.77" y2="192.49" gradientUnits="userSpaceOnUse">
<stop stop-color="white"/>
<stop offset="0.9952" stop-color="#3AC1B0" stop-opacity="0"/>
</linearGradient>
<linearGradient id="paint3_linear" x1="208.927" y1="192.49" x2="34.2107" y2="192.49" gradientUnits="userSpaceOnUse">
<stop stop-color="white"/>
<stop offset="0.9952" stop-color="#3AC1B0" stop-opacity="0"/>
</linearGradient>
<linearGradient id="paint4_linear" x1="180.867" y1="204.114" x2="304.41" y2="80.5714" gradientUnits="userSpaceOnUse">
<stop stop-color="white"/>
<stop offset="0.9952" stop-color="#3AC1B0" stop-opacity="0"/>
</linearGradient>
<linearGradient id="paint5_linear" x1="204.114" y1="180.868" x2="80.5708" y2="304.411" gradientUnits="userSpaceOnUse">
<stop stop-color="white"/>
<stop offset="0.9952" stop-color="#3AC1B0" stop-opacity="0"/>
</linearGradient>
<linearGradient id="paint6_linear" x1="180.868" y1="180.868" x2="304.411" y2="304.411" gradientUnits="userSpaceOnUse">
<stop stop-color="white"/>
<stop offset="0.9952" stop-color="#3AC1B0" stop-opacity="0"/>
</linearGradient>
<linearGradient id="paint7_linear" x1="204.113" y1="204.113" x2="80.5698" y2="80.5699" gradientUnits="userSpaceOnUse">
<stop stop-color="white"/>
<stop offset="0.9952" stop-color="#3AC1B0" stop-opacity="0"/>
</linearGradient>
</defs>
</svg>
