<svg width="64" height="40" viewBox="0 0 64 40" fill="none" xmlns="http://www.w3.org/2000/svg">
<path d="M55.928 18.7267L54.9263 17.8652L50.948 22H29.0582L26.7539 26.4064H50.948L56.0156 21.1393C56.6313 20.4991 56.5879 19.2936 55.928 18.7267Z" fill="#FB5100"/>
<path d="M34.1942 11.2361H13.4781C13.1365 11.2361 12.8338 10.9781 12.707 10.5785L12.1521 8.83213C11.8264 7.80674 11.0496 7.14429 10.1723 7.14429C9.50137 7.14429 8.88352 7.52952 8.47682 8.20141C8.07012 8.8733 7.93876 9.7261 8.11661 10.5408L9.3856 16.3547C9.47707 16.7736 9.7791 17.0489 10.1081 17.0489C10.1738 17.0489 10.2407 17.038 10.3073 17.0149C10.7065 16.8767 10.9413 16.357 10.8315 15.8543L9.56285 10.0407C9.51006 9.79899 9.54905 9.54595 9.66962 9.34653C9.79019 9.1475 9.97345 9.03306 10.1726 9.03306C10.4329 9.03306 10.6633 9.22945 10.7599 9.53386L11.3147 11.2802C11.6707 12.4004 12.5198 13.1245 13.4781 13.1245H19.5633L17.4563 17.1218C17.2271 17.5561 17.3213 18.1423 17.6662 18.4308C17.794 18.5374 17.938 18.5883 18.0801 18.5883C18.3231 18.5883 18.5612 18.4399 18.7058 18.1661L21.2362 13.3654C21.3205 13.2147 21.4579 13.1245 21.6046 13.1245H34.1945C34.6087 13.1245 34.9443 12.7018 34.9443 12.1803C34.944 11.6587 34.6084 11.2361 34.1942 11.2361Z" fill="#3F2355"/>
<path d="M28.905 32.5858C28.6624 32.5858 28.4245 32.4377 28.2799 32.1643C28.0505 31.7304 28.1441 31.1442 28.489 30.8553L34.7377 25.62C35.0826 25.3314 35.5478 25.4489 35.7772 25.8832C36.007 26.3172 35.9131 26.9033 35.5685 27.1922L29.3201 32.4275C29.192 32.5344 29.0478 32.5858 28.905 32.5858Z" fill="#3F2355"/>
<path d="M55.7687 39.0364H47.6098C46.3693 39.0364 45.3604 37.7659 45.3604 36.2038C45.3604 34.6417 46.3693 33.3712 47.6098 33.3712H55.7687C57.2638 33.3712 58.725 32.7152 59.8836 31.524C60.8437 30.5371 62.2642 30.7165 63.0488 31.9258C63.8334 33.1359 63.6903 34.9239 62.7296 35.9119C60.7699 37.9268 58.2979 39.0364 55.7687 39.0364ZM47.6098 35.2596C47.1962 35.2596 46.86 35.6834 46.86 36.2038C46.86 36.7243 47.1962 37.148 47.6098 37.148H55.7687C57.9533 37.148 60.0885 36.1895 61.781 34.4495C62.101 34.1202 62.149 33.5242 61.8874 33.1208C61.6262 32.7182 61.1526 32.6578 60.832 32.9871C59.4068 34.4525 57.6087 35.26 55.7687 35.26H47.6098V35.2596Z" fill="#3F2355"/>
<path d="M56.3514 17.9468L49.618 12.158C48.843 11.4918 48.0056 10.9789 47.1302 10.6144L45.7001 6.60418C44.1969 2.59242 40.9493 0 37.4267 0C37.1711 0 36.9333 0.163915 36.7953 0.435092C36.6576 0.706269 36.6391 1.04694 36.7458 1.33927L39.9052 9.97727H36.5245C35.2243 9.97727 34.0216 10.7934 33.3069 12.1607L29.8868 18.7006L5.11778 14.4853C4.48464 14.3777 3.84699 14.6194 3.36651 15.1481C2.88603 15.6769 2.6104 16.4413 2.6104 17.245C2.6104 18.0714 2.90373 18.826 3.37551 19.3427L1.69143 23.5316C1.50428 23.9969 1.65214 24.5649 2.02165 24.8006C2.13022 24.8697 2.24599 24.9026 2.35996 24.9026C2.6335 24.9026 2.89743 24.713 3.0294 24.3848L4.75187 20.1011L26.564 27.3201C26.6278 27.3413 26.692 27.3515 26.755 27.3515C26.7556 27.3515 26.7562 27.3511 26.7568 27.3511H50.9488C51.1231 27.3511 51.2916 27.2748 51.4263 27.1351L56.4935 21.8679C56.9704 21.372 57.2277 20.6412 57.1998 19.8631C57.1717 19.0844 56.8624 18.386 56.3514 17.9468ZM49.6708 14.4898L53.4277 17.7194H49.6954C48.1694 17.7194 46.7238 16.8832 45.7292 15.4257C45.5597 15.1768 45.6254 14.9193 45.6617 14.8199C45.6977 14.7206 45.8102 14.4898 46.0705 14.4898H49.6708ZM38.6429 2.0123C41.1013 2.51575 43.2617 4.52163 44.3381 7.39392L45.2991 10.0887C44.8735 10.0192 44.4437 9.97689 44.0094 9.97689H41.556L38.6429 2.0123ZM4.35357 16.5701C4.51043 16.3975 4.71078 16.3208 4.91713 16.3567L28.9718 20.4504L26.4245 25.321L4.6409 18.1114C4.32837 18.0083 4.11003 17.6518 4.11003 17.245C4.11003 16.9822 4.19641 16.7427 4.35357 16.5701ZM55.5386 20.4112L50.6792 25.4623H28.1461L34.5594 13.1989C34.9958 12.3639 35.7303 11.8657 36.5245 11.8657H44.0094C45.0775 11.8657 46.1224 12.1168 47.1002 12.6018H46.0708C45.3 12.6018 44.621 13.1498 44.2992 14.0321C43.9773 14.9144 44.0895 15.9197 44.5919 16.6566C45.8717 18.5326 47.7318 19.6086 49.6957 19.6086H55.5704C55.5779 19.6086 55.5851 19.6059 55.5926 19.6059C55.6777 19.7291 55.6993 19.8669 55.7023 19.9493C55.7053 20.0542 55.6894 20.2544 55.5386 20.4112Z" fill="#3F2355"/>
<path d="M38.6694 28.2092L32.0521 34.5029C30.2919 36.1772 28.1075 37.0992 25.9019 37.0992H3.68787C2.37659 37.0992 1.71556 35.9196 1.5476 34.9093C1.37994 33.8994 1.61028 32.485 2.81178 31.8233L13.1964 26.1044C13.5758 25.8955 13.7489 25.3388 13.583 24.861C13.4169 24.3829 12.9742 24.165 12.5957 24.3742L2.21073 30.0931C0.315203 31.137 -0.225263 33.4586 0.0797613 35.2961C0.385086 37.1335 1.61898 38.9876 3.68787 38.9876H25.9019C28.432 38.9876 30.937 37.9301 32.9561 36.0099L39.5734 29.7162C39.9039 29.4016 39.9693 28.8097 39.7197 28.3935C39.4699 27.9777 39.0002 27.8953 38.6694 28.2092Z" fill="#3F2355"/>
<path d="M29.5378 30.697H3.71483C2.19001 30.697 0.949219 32.2595 0.949219 34.1796C0.949219 36.0997 2.18971 37.6622 3.71483 37.6622C5.23965 37.6622 6.48044 36.1001 6.48044 34.1796C6.48044 33.6048 6.36737 33.0636 6.17092 32.5854H17.4793C17.2826 33.0636 17.1698 33.6048 17.1698 34.1796C17.1698 36.0997 18.4103 37.6622 19.9354 37.6622C21.4605 37.6622 22.701 36.1001 22.701 34.1796C22.701 33.6048 22.5879 33.0636 22.3915 32.5854H27.0823C26.8859 33.0636 26.7728 33.6048 26.7728 34.1796C26.7728 36.0997 28.0133 37.6622 29.5384 37.6622C31.0635 37.6622 32.304 36.1001 32.304 34.1796C32.3034 32.2595 31.0629 30.697 29.5378 30.697ZM4.98082 34.18C4.98082 35.0588 4.41276 35.7741 3.71483 35.7741C3.0169 35.7741 2.44885 35.0592 2.44885 34.18C2.44885 33.3007 3.0169 32.5858 3.71483 32.5858C4.41276 32.5854 4.98082 33.3007 4.98082 34.18ZM21.2011 34.18C21.2011 35.0588 20.633 35.7741 19.9351 35.7741C19.2372 35.7741 18.6691 35.0592 18.6691 34.18C18.6691 33.3007 19.2372 32.5858 19.9351 32.5858C20.6333 32.5854 21.2011 33.3007 21.2011 34.18ZM29.5378 35.7738C28.8399 35.7738 28.2718 35.0588 28.2718 34.1796C28.2718 33.3004 28.8399 32.5854 29.5378 32.5854C30.2357 32.5854 30.8038 33.3007 30.8038 34.1796C30.8038 35.0588 30.2357 35.7738 29.5378 35.7738Z" fill="#FB5100"/>
<path d="M53.3357 32.481C53.0784 32.481 52.8279 32.314 52.6882 32.0138L49.0444 24.1821C48.835 23.7322 48.955 23.1536 49.3122 22.89C49.6694 22.6268 50.1286 22.7775 50.3383 23.2277L53.982 31.0594C54.1914 31.5092 54.0714 32.0878 53.7142 32.3514C53.5948 32.439 53.4647 32.481 53.3357 32.481Z" fill="#3F2355"/>
</svg>
