<svg width="12" height="7" viewBox="0 0 12 7" fill="none" xmlns="http://www.w3.org/2000/svg">
<path d="M0.710022 6.68998C0.802536 6.78268 0.912424 6.85623 1.0334 6.90641C1.15437 6.95659 1.28405 6.98242 1.41502 6.98242C1.54599 6.98242 1.67567 6.95659 1.79665 6.90641C1.91762 6.85623 2.02751 6.78268 2.12002 6.68998L6.00002 2.80998L9.88002 6.68998C10.067 6.87696 10.3206 6.982 10.585 6.982C10.8494 6.982 11.103 6.87696 11.29 6.68998C11.477 6.503 11.582 6.2494 11.582 5.98498C11.582 5.72055 11.477 5.46696 11.29 5.27998L6.70002 0.689979C6.60751 0.597275 6.49762 0.523727 6.37665 0.473546C6.25567 0.423364 6.12599 0.397535 5.99502 0.397535C5.86405 0.397535 5.73437 0.423364 5.6134 0.473546C5.49242 0.523727 5.38254 0.597275 5.29002 0.689979L0.700022 5.27998C0.320022 5.65998 0.320022 6.29998 0.710022 6.68998Z" fill="#3F2355"/>
</svg>
