<svg width="24" height="23" viewBox="0 0 24 23" fill="none" xmlns="http://www.w3.org/2000/svg">
<path d="M7 11.5L7 11.5863C7.00458 11.6782 7.02485 11.7689 7.06 11.8546C7.08674 11.9203 7.12384 11.9817 7.17 12.0367C7.19652 12.0804 7.22662 12.1221 7.26 12.1613L10.12 15.0363C10.2106 15.1275 10.3191 15.2007 10.4392 15.2518C10.5594 15.3029 10.6889 15.3308 10.8203 15.3339C11.0856 15.3402 11.3427 15.2452 11.535 15.0698C11.7273 14.8944 11.839 14.653 11.8456 14.3987C11.8521 14.1444 11.753 13.898 11.57 13.7138L10.34 12.4583L16 12.4583C16.2652 12.4583 16.5196 12.3574 16.7071 12.1777C16.8946 11.9979 17 11.7542 17 11.5C17 11.2458 16.8946 11.0021 16.7071 10.8224C16.5196 10.6426 16.2652 10.5417 16 10.5417L10.41 10.5417L11.71 9.30542C11.8037 9.21633 11.8781 9.11034 11.9289 8.99356C11.9797 8.87678 12.0058 8.75152 12.0058 8.62501C12.0058 8.4985 11.9797 8.37324 11.9289 8.25645C11.8781 8.13967 11.8037 8.03368 11.71 7.94459C11.617 7.85477 11.5064 7.78347 11.3846 7.73482C11.2627 7.68617 11.132 7.66112 11 7.66112C10.868 7.66112 10.7373 7.68617 10.6154 7.73482C10.4936 7.78347 10.383 7.85477 10.29 7.94459L7.29 10.8196C7.20005 10.9079 7.12874 11.012 7.08 11.1263C7.02746 11.2444 7.00026 11.3715 7 11.5Z" fill="white"/>
<path d="M12 21.0833C13.9778 21.0833 15.9112 20.5213 17.5557 19.4682C19.2002 18.4152 20.4819 16.9185 21.2388 15.1674C21.9957 13.4162 22.1937 11.4893 21.8078 9.63036C21.422 7.77138 20.4696 6.06379 19.0711 4.72354C17.6725 3.38329 15.8907 2.47056 13.9509 2.10079C12.0111 1.73101 10.0004 1.92079 8.17316 2.64613C6.3459 3.37147 4.78411 4.59979 3.6853 6.17576C2.58649 7.75174 2 9.60458 2 11.5C2 12.7585 2.25865 14.0047 2.7612 15.1674C3.26375 16.3301 4.00034 17.3865 4.92893 18.2764C5.85751 19.1663 6.9599 19.8722 8.17316 20.3538C9.38642 20.8354 10.6868 21.0833 12 21.0833ZM12 3.83331C13.5822 3.83331 15.129 4.28295 16.4446 5.12538C17.7601 5.9678 18.7855 7.16517 19.391 8.56607C19.9965 9.96697 20.155 11.5085 19.8463 12.9957C19.5376 14.4829 18.7757 15.8489 17.6568 16.9211C16.538 17.9933 15.1126 18.7235 13.5607 19.0193C12.0089 19.3152 10.4003 19.1633 8.93853 18.5831C7.47672 18.0028 6.22729 17.0201 5.34824 15.7594C4.46919 14.4986 4 13.0163 4 11.5C4 9.46665 4.84285 7.51661 6.34314 6.07883C7.84343 4.64105 9.87826 3.83331 12 3.83331Z" fill="white"/>
</svg>
