<svg width="20" height="15" viewBox="0 0 20 15" fill="none" xmlns="http://www.w3.org/2000/svg">
<path d="M15.8333 13.3333H4.16667V14.1667C4.16667 14.3877 4.07887 14.5996 3.92259 14.7559C3.76631 14.9122 3.55435 15 3.33333 15H2.5C2.27899 15 2.06702 14.9122 1.91074 14.7559C1.75446 14.5996 1.66667 14.3877 1.66667 14.1667V7.91667L0.630833 7.65833C0.450628 7.61319 0.290674 7.50913 0.176379 7.36267C0.0620851 7.21622 4.88369e-06 7.03577 0 6.85L0 6.25C0 6.13949 0.0438987 6.03351 0.122039 5.95537C0.200179 5.87723 0.30616 5.83333 0.416667 5.83333H1.66667L3.73333 1.01C3.86194 0.710001 4.0758 0.454366 4.34838 0.274817C4.62096 0.0952685 4.94026 -0.00028964 5.26667 6.59471e-07H14.7333C15.0595 3.66767e-05 15.3784 0.0957475 15.6507 0.275276C15.9229 0.454804 16.1365 0.710262 16.265 1.01L18.3333 5.83333H19.5833C19.6938 5.83333 19.7998 5.87723 19.878 5.95537C19.9561 6.03351 20 6.13949 20 6.25V6.85C20 7.03577 19.9379 7.21622 19.8236 7.36267C19.7093 7.50913 19.5494 7.61319 19.3692 7.65833L18.3333 7.91667V14.1667C18.3333 14.3877 18.2455 14.5996 18.0893 14.7559C17.933 14.9122 17.721 15 17.5 15H16.6667C16.4457 15 16.2337 14.9122 16.0774 14.7559C15.9211 14.5996 15.8333 14.3877 15.8333 14.1667V13.3333ZM16.6667 11.6667V7.5H3.33333V11.6667H16.6667ZM4.56417 5.83333H15.4358C15.5719 5.83325 15.706 5.79982 15.8262 5.73598C15.9464 5.67214 16.0491 5.57983 16.1254 5.46712C16.2017 5.3544 16.2492 5.22472 16.2638 5.08939C16.2784 4.95407 16.2597 4.81723 16.2092 4.69083L15 1.66667H5L3.79083 4.69083C3.74034 4.81723 3.72157 4.95407 3.73617 5.08939C3.75077 5.22472 3.79829 5.3544 3.87459 5.46712C3.95088 5.57983 4.05362 5.67214 4.17383 5.73598C4.29404 5.79982 4.42806 5.83325 4.56417 5.83333Z" fill="#BDBCBD"/>
<path d="M8.0715 10.22C7.399 8.96248 6.09734 8.33331 4.1665 8.33331V9.99998C4.1665 10.221 4.2543 10.433 4.41058 10.5892C4.56686 10.7455 4.77882 10.8333 4.99984 10.8333H7.704C7.77603 10.8333 7.84683 10.8147 7.9095 10.7792C7.97217 10.7437 8.02457 10.6926 8.06159 10.6308C8.09861 10.569 8.11898 10.4987 8.12072 10.4267C8.12245 10.3547 8.1055 10.2835 8.0715 10.22Z" fill="#FE5600"/>
<path d="M15.8332 9.99998V8.33331C13.9015 8.33331 12.5998 8.96165 11.929 10.22C11.895 10.2834 11.8781 10.3546 11.8798 10.4265C11.8815 10.4984 11.9018 10.5687 11.9387 10.6304C11.9756 10.6922 12.0279 10.7434 12.0905 10.7789C12.153 10.8145 12.2237 10.8332 12.2957 10.8333H14.9998C15.2209 10.8333 15.4328 10.7455 15.5891 10.5892C15.7454 10.433 15.8332 10.221 15.8332 9.99998Z" fill="#FE5600"/>
</svg>
