<svg width="22" height="16" viewBox="0 0 22 16" fill="none" xmlns="http://www.w3.org/2000/svg">
<path fill-rule="evenodd" clip-rule="evenodd" d="M0.250098 2.99998C0.250098 1.48119 1.48131 0.249976 3.0001 0.249976H19.0001C20.5189 0.249976 21.7501 1.48119 21.7501 2.99998V4.99998V13C21.7501 14.5188 20.5189 15.75 19.0001 15.75H3.0001C1.48132 15.75 0.250098 14.5188 0.250098 13V4.99998V2.99998ZM3.0001 1.74998C2.30974 1.74998 1.7501 2.30962 1.7501 2.99998V4.24998H20.2501V2.99998C20.2501 2.30962 19.6905 1.74998 19.0001 1.74998H3.0001ZM20.2501 5.74998H1.7501V13C1.7501 13.6903 2.30974 14.25 3.0001 14.25H19.0001C19.6905 14.25 20.2501 13.6903 20.2501 13V5.74998ZM12.2501 11C12.2501 10.5858 12.5859 10.25 13.0001 10.25H17.0001C17.4143 10.25 17.7501 10.5858 17.7501 11C17.7501 11.4142 17.4143 11.75 17.0001 11.75H13.0001C12.5859 11.75 12.2501 11.4142 12.2501 11Z" fill="#D1D3D6"/>
</svg>
