<svg width="69" height="42" viewBox="0 0 69 42" fill="none" xmlns="http://www.w3.org/2000/svg">
<path d="M34.4923 41.4973C50.438 41.4973 63.3645 40.6653 63.3645 39.639C63.3645 38.6127 50.438 37.7808 34.4923 37.7808C18.5466 37.7808 5.62012 38.6127 5.62012 39.639C5.62012 40.6653 18.5466 41.4973 34.4923 41.4973Z" fill="#DEDFE0"/>
<path d="M54.7547 34.7301C56.6337 34.7301 58.1569 33.2069 58.1569 31.3279C58.1569 29.449 56.6337 27.9258 54.7547 27.9258C52.8757 27.9258 51.3525 29.449 51.3525 31.3279C51.3525 33.2069 52.8757 34.7301 54.7547 34.7301Z" fill="white"/>
<path d="M12.3875 34.7301C14.2665 34.7301 15.7897 33.2069 15.7897 31.3279C15.7897 29.449 14.2665 27.9258 12.3875 27.9258C10.5086 27.9258 8.98535 29.449 8.98535 31.3279C8.98535 33.2069 10.5086 34.7301 12.3875 34.7301Z" fill="white"/>
<path d="M8.37819 12.0615L6.91131 17.1432C6.84345 17.3813 6.71667 17.5984 6.5427 17.7745C6.36872 17.9507 6.15316 18.0801 5.91593 18.1509L1.17016 19.5931H1.14551L1.52147 16.6286C1.64412 15.6563 2.0726 14.7481 2.74506 14.0352C3.41751 13.3223 4.29913 12.8416 5.26262 12.6624L8.37819 12.0615Z" fill="white"/>
<path d="M26.2095 26.4744V26.5668C24.2588 26.6254 20.8597 26.7702 18.9152 26.875C18.1189 25.6579 16.9982 24.6876 15.6796 24.0738C14.361 23.4601 12.897 23.2272 11.453 23.4016C10.0091 23.5759 8.64261 24.1506 7.50801 25.0606C6.37341 25.9706 5.51587 27.1798 5.03222 28.5514L4.90896 28.5083C4.60079 28.5514 3.42051 28.4528 3.12775 28.5083C2.97439 28.5331 2.81719 28.5039 2.6829 28.4258C2.54861 28.3477 2.44554 28.2255 2.39123 28.0799L0.65625 23.4297L1.14624 19.5745H1.17089C1.54069 14.3357 4.23715 12.234 8.37892 12.0429L15.6886 10.6439C15.8348 10.6174 15.9705 10.5501 16.08 10.4497C21.3404 14.7024 24.5639 20.1107 26.2095 26.4744Z" fill="white"/>
<path d="M18.9304 26.8749C19.5944 27.8915 20.0119 29.0491 20.1497 30.2555C20.2874 31.4619 20.1416 32.6839 19.7238 33.824C19.306 34.9641 18.6278 35.9909 17.7432 36.8227C16.8585 37.6545 15.7919 38.2682 14.6283 38.6151C13.4646 38.9619 12.236 39.0323 11.0404 38.8206C9.8447 38.6089 8.71499 38.1209 7.74118 37.3956C6.76736 36.6702 5.97635 35.7276 5.43111 34.6426C4.88588 33.5576 4.60149 32.3604 4.60059 31.1461C4.59954 30.262 4.7507 29.3842 5.04743 28.5514C5.53107 27.1797 6.38862 25.9705 7.52322 25.0605C8.65782 24.1505 10.0243 23.5758 11.4682 23.4015C12.9122 23.2271 14.3762 23.46 15.6948 24.0737C17.0134 24.6875 18.1341 25.6578 18.9304 26.8749ZM12.5451 34.7332C13.4479 34.7332 14.3136 34.3746 14.9519 33.7363C15.5902 33.0979 15.9488 32.2322 15.9488 31.3295C15.9488 30.4268 15.5902 29.561 14.9519 28.9227C14.3136 28.2844 13.4479 27.9258 12.5451 27.9258H12.4034C11.5007 27.9258 10.6349 28.2844 9.9966 28.9227C9.35828 29.561 8.99968 30.4268 8.99968 31.3295C8.99968 32.2322 9.35828 33.0979 9.9966 33.7363C10.6349 34.3746 11.5007 34.7332 12.4034 34.7332H12.5451Z" fill="#DEDFE0"/>
<path d="M54.7518 23.3467C56.7334 23.3462 58.6408 24.0999 60.0868 25.4548C61.5328 26.8096 62.4089 28.6641 62.5372 30.6415C62.6655 32.6189 62.0363 34.571 60.7775 36.1013C59.5187 37.6316 57.7246 38.6255 55.7596 38.881C53.7946 39.1365 51.806 38.6345 50.1976 37.477C48.5893 36.3195 47.4819 34.5932 47.1002 32.6488C46.7185 30.7043 47.0912 28.6875 48.1426 27.0079C49.194 25.3283 50.8453 24.1118 52.7611 23.6055C53.4105 23.4328 54.0798 23.3458 54.7518 23.3467ZM58.1571 31.3282C58.154 30.6591 57.953 30.0058 57.5794 29.4507C57.2057 28.8957 56.6762 28.4636 56.0574 28.2089C55.4386 27.9543 54.7583 27.8884 54.1022 28.0197C53.4461 28.151 52.8435 28.4735 52.3703 28.9467C51.8972 29.4198 51.5746 30.0224 51.4433 30.6785C51.3121 31.3347 51.3779 32.015 51.6325 32.6338C51.8872 33.2525 52.3193 33.7821 52.8744 34.1558C53.4295 34.5294 54.0827 34.7304 54.7518 34.7335C55.1996 34.7355 55.6433 34.6488 56.0574 34.4784C56.4714 34.308 56.8477 34.0572 57.1643 33.7406C57.4809 33.424 57.7316 33.0478 57.902 32.6338C58.0724 32.2197 58.1591 31.776 58.1571 31.3282Z" fill="#DEDFE0"/>
<path d="M68.0121 17.5559C68.0419 17.6371 68.0517 17.7244 68.0405 17.8101C68.0293 17.8959 67.9975 17.9777 67.9479 18.0486C67.8982 18.1194 67.8322 18.1772 67.7553 18.217C67.6785 18.2568 67.5932 18.2774 67.5067 18.277H56.0151L53.7532 21.7809L52.7147 23.4573L52.7547 23.6052C50.8562 24.1077 49.2168 25.3071 48.163 26.9643C46.3972 26.7917 43.1399 26.7116 41.0752 26.6222V26.4527C42.0552 23.5733 43.2586 20.7748 44.6746 18.0829C45.5066 16.5092 46.4327 14.9872 47.4481 13.5251C51.8826 11.4665 57.3957 9.99351 63.331 9.25391C63.4634 9.301 63.5813 9.38171 63.6731 9.48811C65.4635 11.5621 66.8349 14.3356 68.0121 17.5559Z" fill="white"/>
<path d="M63.1154 9.21108C63.1882 9.21351 63.2601 9.22809 63.328 9.25422C57.3927 9.99382 51.8796 11.4669 47.4451 13.5254C46.4298 14.9875 45.5036 16.5095 44.6716 18.0832L44.6007 18.0462C44.6007 18.0462 37.4728 18.2034 35.6639 17.6703C32.4343 16.4006 30.0244 8.46223 25.3711 6.17871C30.6901 6.84743 33.1061 11.5254 36.8257 11.9815C43.8919 12.3174 47.2479 8.43141 63.1154 9.21108Z" fill="#DEDFE0"/>
<path d="M26.231 26.5672H26.2125V26.4747C24.5669 20.1111 21.3434 14.7028 16.083 10.4685C16.129 10.4246 16.1703 10.3761 16.2063 10.3237C17.3833 8.57558 19.0964 7.25721 21.0876 6.56714C21.9396 6.28409 22.8282 6.1263 23.7256 6.09873C24.2773 6.07992 24.8297 6.10568 25.3773 6.17577C30.0368 8.45929 32.4405 16.3977 35.6886 17.6673C37.4914 18.2004 44.6254 18.0433 44.6254 18.0433L44.6963 18.0803C43.2804 20.7722 42.0769 23.5707 41.0969 26.4501V26.6196H41.0476C40.6655 27.7598 40.3327 28.8784 40.0646 29.9447H26.9428C26.7518 28.7839 26.5145 27.6581 26.231 26.5672Z" fill="white"/>
<path d="M4.79459 29.3432C4.6251 29.3432 4.40938 29.3432 4.14436 29.3432C3.87934 29.3432 3.47564 29.3185 3.37086 29.3432C3.07171 29.3889 2.76592 29.3307 2.50455 29.1781C2.24319 29.0256 2.04208 28.7879 1.9348 28.505L0.193658 23.8362C0.156286 23.7381 0.144617 23.632 0.15976 23.5281L1.02571 16.7207C1.16424 15.6126 1.65198 14.5774 2.41826 13.7652C3.18454 12.9529 4.18955 12.4057 5.28766 12.2029L15.713 10.2091C15.7515 10.2015 15.7857 10.1794 15.8085 10.1475C16.4834 9.12742 19.0566 5.79305 23.8424 5.63589C27.8763 5.49721 30.431 7.45099 32.6837 9.16748C34.1999 10.3231 35.5096 11.3247 37.0227 11.5126C39.7469 11.6421 41.8702 11.1274 44.5543 10.4803C48.619 9.49722 53.6761 8.2738 63.2878 8.74529C63.4814 8.75658 63.6708 8.8069 63.8445 8.89322C64.0182 8.97954 64.1726 9.10008 64.2986 9.24761C65.9873 11.2045 67.445 13.9102 68.7608 17.5126C68.8264 17.6911 68.8478 17.8828 68.8233 18.0714C68.7988 18.2599 68.7292 18.4398 68.6202 18.5956C68.5113 18.7515 68.3663 18.8787 68.1976 18.9665C68.029 19.0542 67.8416 19.0999 67.6514 19.0997H56.5081L54.8224 21.7191C54.7205 21.8368 54.5795 21.9135 54.4254 21.9352C54.2713 21.9569 54.1145 21.9221 53.9841 21.8371C53.8537 21.7522 53.7585 21.6229 53.716 21.4732C53.6735 21.3235 53.6867 21.1634 53.7531 21.0227L55.6298 18.1074C55.687 18.0145 55.7666 17.9375 55.8614 17.8837C55.9563 17.8298 56.0632 17.8007 56.1722 17.7992H67.5128C66.2647 14.4094 64.8995 11.8886 63.3371 10.0766C63.326 10.0611 63.3117 10.0482 63.2952 10.0387C63.2788 10.0291 63.2605 10.0231 63.2416 10.0211C53.8117 9.55886 48.8563 10.7576 44.8748 11.7191C42.1907 12.3693 39.8733 12.9302 36.9518 12.7884H36.9056C35.035 12.5604 33.5158 11.4048 31.9164 10.1844C29.7346 8.51725 27.4695 6.7946 23.904 6.91478C19.7345 7.05037 17.4911 9.96255 16.9025 10.8501C16.7977 11.0097 16.6618 11.1465 16.503 11.2524C16.3441 11.3583 16.1656 11.4311 15.978 11.4664L5.5496 13.4603C4.71937 13.6134 3.95943 14.0268 3.37989 14.6407C2.80034 15.2546 2.43128 16.0371 2.32618 16.8747L1.47872 23.525L3.16131 28.015C3.16401 28.0215 3.16884 28.0268 3.175 28.0302C3.18117 28.0336 3.1883 28.0347 3.19521 28.0335C3.53368 28.0071 3.87369 28.0071 4.21216 28.0335C4.47718 28.0335 4.88088 28.0581 4.98566 28.0335C5.15469 28.0115 5.32555 28.0571 5.46114 28.1604C5.59674 28.2637 5.68611 28.4163 5.70985 28.5851C5.73458 28.7522 5.69201 28.9223 5.59149 29.0581C5.49096 29.1938 5.34069 29.2842 5.17364 29.3093C5.04844 29.331 4.92166 29.3423 4.79459 29.3432Z" fill="#644E77"/>
<path d="M4.79472 29.4973C4.62215 29.4973 4.40643 29.4973 4.13832 29.4973C3.87022 29.4973 3.48193 29.4726 3.39256 29.4973C3.0582 29.5479 2.71661 29.4821 2.42492 29.311C2.13323 29.14 1.90913 28.8739 1.79009 28.5574L0.048948 23.8886C0.00536687 23.7663 -0.00939928 23.6355 0.00580247 23.5065L0.874836 16.6991C1.0173 15.5588 1.51909 14.4934 2.30751 13.6574C3.09593 12.8213 4.13005 12.2579 5.26005 12.0489L15.6823 10.055C16.3664 9.02575 18.9766 5.63899 23.8364 5.47874C27.9196 5.3339 30.4928 7.30001 32.7732 9.03191C34.2863 10.1845 35.5806 11.1706 37.0506 11.3586C39.744 11.4849 41.8518 10.9734 44.5267 10.3262C48.6038 9.34008 53.6731 8.11665 63.3064 8.58815C63.5205 8.60104 63.7298 8.65678 63.922 8.75206C64.1141 8.84735 64.2852 8.98023 64.4251 9.14285C66.1261 11.1151 67.593 13.8362 68.9151 17.4634C68.9912 17.6664 69.0167 17.8848 68.9894 18.0999C68.9621 18.315 68.8828 18.5202 68.7584 18.6977C68.6339 18.8752 68.4681 19.0198 68.2753 19.1188C68.0824 19.2179 67.8684 19.2684 67.6516 19.2661H56.5914L54.952 21.8147C54.8959 21.9035 54.8225 21.98 54.7362 22.0399C54.6499 22.0997 54.5525 22.1415 54.4497 22.1629C54.2955 22.1965 54.1348 22.1835 53.9879 22.1258C53.841 22.068 53.7146 21.968 53.6245 21.8383C53.5345 21.7087 53.4849 21.5553 53.482 21.3975C53.4792 21.2397 53.5231 21.0846 53.6084 20.9518L55.4851 18.0366C55.5576 17.9242 55.6571 17.8318 55.7744 17.7678C55.8918 17.7037 56.0233 17.6701 56.1569 17.6698H67.2756C66.0429 14.4094 64.724 11.9626 63.2078 10.2029C53.8149 9.71296 48.8688 10.921 44.8934 11.8701C42.1939 12.5234 39.8672 13.0843 36.9304 12.9426H36.8688C34.955 12.7176 33.4296 11.562 31.8086 10.3293C29.6515 8.68368 27.4111 6.97952 23.8888 7.09354C19.7932 7.22913 17.5898 10.0858 17.0135 10.958C16.8962 11.1348 16.7447 11.2864 16.5679 11.4039C16.3912 11.5214 16.1928 11.6024 15.9843 11.6421L5.55589 13.6359C4.76094 13.7863 4.03423 14.1851 3.48043 14.7749C2.92662 15.3647 2.5743 16.1151 2.47422 16.9179L1.62984 23.5312L3.2508 27.8948C3.5659 27.8765 3.88179 27.8765 4.19688 27.8948C4.44033 27.8948 4.85327 27.9195 4.94264 27.8948C5.15228 27.8642 5.36551 27.9181 5.53542 28.0446C5.70533 28.1712 5.818 28.3601 5.84865 28.5697C5.8793 28.7793 5.82542 28.9926 5.69885 29.1625C5.57229 29.3324 5.38341 29.4451 5.17377 29.4757C5.04799 29.4908 4.9214 29.498 4.79472 29.4973ZM3.52199 29.1552C3.67299 29.1552 3.88871 29.1552 4.13832 29.1737C4.46663 29.1968 4.79615 29.1968 5.12446 29.1737C5.18771 29.1647 5.24854 29.1432 5.30345 29.1105C5.35835 29.0778 5.40624 29.0346 5.44434 28.9833C5.48245 28.932 5.51002 28.8737 5.52547 28.8117C5.54091 28.7497 5.54392 28.6853 5.53432 28.6221C5.51522 28.4935 5.44639 28.3775 5.34265 28.2991C5.23891 28.2208 5.10856 28.1862 4.97962 28.203C4.87485 28.203 4.56668 28.203 4.20304 28.203C3.86656 28.1785 3.52873 28.1785 3.19225 28.203C3.15086 28.2097 3.10843 28.2017 3.07238 28.1802C3.03632 28.1588 3.00894 28.1254 2.99503 28.0859L1.29702 23.562L2.15065 16.8748C2.25878 16.0045 2.64157 15.1913 3.24341 14.5535C3.84526 13.9156 4.6348 13.4862 5.49734 13.3278L15.9226 11.3339C16.0907 11.3022 16.2507 11.2371 16.3932 11.1423C16.5356 11.0476 16.6575 10.9251 16.7516 10.7823C17.3525 9.87937 19.633 6.91788 23.8764 6.77613C27.5097 6.65594 29.7871 8.394 31.9936 10.0766C33.5775 11.2846 35.0752 12.4279 36.9057 12.6498H36.9396C39.8364 12.7915 42.1415 12.2338 44.8071 11.5866C48.8133 10.619 53.781 9.42945 63.2294 9.88245C63.2699 9.88619 63.3093 9.89792 63.3452 9.91696C63.3812 9.936 63.413 9.96198 63.4389 9.99339C65.0106 11.8177 66.385 14.3601 67.6392 17.7623L67.7132 17.9688H56.1569C56.0748 17.9686 55.9939 17.9892 55.9217 18.0285C55.8496 18.0678 55.7884 18.1246 55.744 18.1937L53.8673 21.1151C53.8324 21.1694 53.8087 21.2299 53.7973 21.2933C53.7859 21.3568 53.7871 21.4218 53.8008 21.4848C53.8145 21.5477 53.8405 21.6073 53.8773 21.6603C53.9141 21.7132 53.9609 21.7583 54.0152 21.7931C54.0694 21.8279 54.13 21.8517 54.1934 21.8631C54.2568 21.8745 54.3218 21.8733 54.3848 21.8596C54.4477 21.8458 54.5074 21.8198 54.5603 21.783C54.6132 21.7463 54.6583 21.6994 54.6931 21.6452L56.425 18.9549H67.6516C67.8166 18.9549 67.9792 18.9152 68.1256 18.839C68.272 18.7629 68.3979 18.6525 68.4926 18.5173C68.5872 18.3821 68.6479 18.2261 68.6694 18.0625C68.6909 17.8988 68.6726 17.7324 68.6161 17.5774C67.3064 13.9903 65.8426 11.3 64.1847 9.35857C64.0727 9.22613 63.9348 9.11793 63.7796 9.04057C63.6243 8.96321 63.4549 8.91832 63.2818 8.90864C53.6916 8.43715 48.65 9.65749 44.5945 10.6375C41.8919 11.2908 39.7624 11.8054 37.0167 11.676C35.4512 11.4788 34.1261 10.468 32.5914 9.30002C30.3479 7.58969 27.8179 5.66672 23.8487 5.79924C19.1337 5.95332 16.6006 9.23838 15.938 10.2399C15.8928 10.3068 15.8231 10.3533 15.7439 10.3694L5.31861 12.3632C4.25375 12.5592 3.27883 13.0888 2.53484 13.8755C1.79084 14.6621 1.31633 15.665 1.17992 16.7392L0.31089 23.5497C0.301535 23.6288 0.311037 23.7091 0.338624 23.7839L2.07977 28.4218C2.17467 28.672 2.35243 28.8822 2.58344 29.0173C2.81445 29.1525 3.08478 29.2044 3.34942 29.1645C3.40667 29.1576 3.46432 29.1545 3.52199 29.1552Z" fill="#644E77"/>
<path d="M54.8962 39.7717C53.2253 39.7723 51.5918 39.2773 50.2023 38.3494C48.8127 37.4215 47.7296 36.1023 47.0899 34.5587C46.4502 33.0151 46.2826 31.3165 46.6084 29.6777C46.9343 28.0388 47.7388 26.5335 48.9203 25.352C50.1018 24.1705 51.6072 23.3659 53.246 23.0401C54.8848 22.7143 56.5835 22.8818 58.127 23.5215C59.6706 24.1612 60.9898 25.2443 61.9177 26.6339C62.8457 28.0234 63.3406 29.657 63.34 31.3279C63.3368 33.5663 62.4461 35.7121 60.8633 37.2949C59.2805 38.8777 57.1347 39.7684 54.8962 39.7717ZM54.8962 24.1722C53.481 24.1722 52.0975 24.5919 50.9208 25.3782C49.744 26.1645 48.8269 27.282 48.2853 28.5895C47.7437 29.8971 47.602 31.3358 47.8781 32.7239C48.1542 34.1119 48.8357 35.3869 49.8364 36.3877C50.8372 37.3884 52.1122 38.0699 53.5002 38.346C54.8883 38.6221 56.3271 38.4804 57.6346 37.9388C58.9421 37.3972 60.0597 36.4801 60.8459 35.3033C61.6322 34.1266 62.0519 32.7431 62.0519 31.3279C62.0502 29.4306 61.2958 27.6115 59.9542 26.2699C58.6126 24.9283 56.7935 24.1739 54.8962 24.1722Z" fill="#644E77"/>
<path d="M54.897 39.9138C53.1956 39.9144 51.5323 39.4104 50.1174 38.4656C48.7025 37.5207 47.5996 36.1775 46.9483 34.6057C46.2969 33.034 46.1263 31.3044 46.4581 29.6357C46.7899 27.9669 47.6091 26.4341 48.8121 25.2311C50.0152 24.028 51.548 23.2088 53.2167 22.877C54.8854 22.5453 56.615 22.7159 58.1868 23.3672C59.7585 24.0186 61.1018 25.1215 62.0466 26.5364C62.9915 27.9512 63.4955 29.6146 63.4949 31.3159C63.4916 33.5952 62.5847 35.7802 60.973 37.3919C59.3613 39.0037 57.1763 39.9105 54.897 39.9138ZM54.897 23.0232C53.2567 23.0226 51.6531 23.5084 50.2889 24.4193C48.9248 25.3301 47.8614 26.625 47.2333 28.1403C46.6051 29.6556 46.4405 31.3231 46.7601 32.9319C47.0797 34.5407 47.8693 36.0187 49.029 37.1787C50.1886 38.3388 51.6662 39.1289 53.2749 39.4492C54.8837 39.7694 56.5512 39.6053 58.0667 38.9778C59.5822 38.3502 60.8775 37.2873 61.7889 35.9235C62.7003 34.5597 63.1867 32.9562 63.1867 31.3159C63.181 29.12 62.3055 27.0157 60.7518 25.4638C59.1982 23.9119 57.093 23.0387 54.897 23.0355V23.0232ZM54.897 38.6226C53.4511 38.6226 52.0378 38.1938 50.8356 37.3905C49.6335 36.5871 48.6966 35.4453 48.1434 34.1095C47.5902 32.7736 47.4457 31.3037 47.728 29.8857C48.0103 28.4676 48.7067 27.1652 49.7293 26.143C50.7519 25.1209 52.0547 24.4249 53.4728 24.1432C54.891 23.8615 56.3608 24.0067 57.6964 24.5604C59.0321 25.1142 60.1735 26.0516 60.9763 27.254C61.7791 28.4565 62.2073 29.8701 62.2067 31.3159C62.2075 33.2557 61.438 35.1164 60.0672 36.4889C58.6965 37.8614 56.8368 38.6333 54.897 38.6349V38.6226ZM54.897 24.3144C53.5122 24.3144 52.1585 24.725 51.0071 25.4944C49.8557 26.2637 48.9583 27.3572 48.4284 28.6366C47.8985 29.9159 47.7598 31.3237 48.03 32.6819C48.3001 34.04 48.967 35.2876 49.9462 36.2668C50.9253 37.246 52.1729 37.9128 53.5311 38.183C54.8892 38.4531 56.297 38.3145 57.5764 37.7845C58.8557 37.2546 59.9492 36.3572 60.7186 35.2058C61.4879 34.0544 61.8986 32.7007 61.8986 31.3159C61.8937 29.4617 61.154 27.6849 59.8417 26.3749C58.5294 25.0648 56.7513 24.3283 54.897 24.3267V24.3144Z" fill="#644E77"/>
<path d="M12.533 39.7717C10.8621 39.7723 9.22852 39.2773 7.83897 38.3494C6.44942 37.4215 5.36628 36.1023 4.72658 34.5587C4.08688 33.0151 3.91934 31.3165 4.24517 29.6777C4.57099 28.0388 5.37554 26.5335 6.55704 25.352C7.73854 24.1705 9.24391 23.3659 10.8827 23.0401C12.5215 22.7143 14.2202 22.8818 15.7638 23.5215C17.3074 24.1612 18.6265 25.2443 19.5545 26.6339C20.4824 28.0234 20.9773 29.657 20.9767 31.3279C20.9735 33.5663 20.0828 35.7121 18.5 37.2949C16.9172 38.8777 14.7714 39.7684 12.533 39.7717ZM12.533 24.1722C11.1177 24.1722 9.73423 24.5919 8.55749 25.3782C7.38075 26.1645 6.4636 27.282 5.922 28.5895C5.38041 29.8971 5.2387 31.3358 5.51481 32.7239C5.79091 34.1119 6.47242 35.3869 7.47315 36.3877C8.47389 37.3884 9.7489 38.0699 11.137 38.346C12.525 38.6221 13.9638 38.4804 15.2713 37.9388C16.5788 37.3972 17.6964 36.4801 18.4826 35.3033C19.2689 34.1266 19.6886 32.7431 19.6886 31.3279C19.687 29.4306 18.9325 27.6115 17.591 26.2699C16.2494 24.9283 14.4302 24.1739 12.533 24.1722Z" fill="#644E77"/>
<path d="M12.5327 39.9138C10.8314 39.9144 9.16804 39.4104 7.75315 38.4656C6.33826 37.5207 5.23538 36.1775 4.58401 34.6057C3.93264 33.034 3.76206 31.3044 4.09383 29.6357C4.4256 27.9669 5.24482 26.4341 6.44787 25.2311C7.65092 24.028 9.18374 23.2088 10.8525 22.877C12.5212 22.5453 14.2508 22.7159 15.8225 23.3672C17.3943 24.0186 18.7375 25.1215 19.6824 26.5364C20.6272 27.9512 21.1312 29.6146 21.1306 31.3159C21.1282 33.5955 20.2215 35.781 18.6096 37.3928C16.9978 39.0047 14.8123 39.9114 12.5327 39.9138ZM12.5327 23.0232C10.8925 23.0226 9.28883 23.5084 7.92468 24.4193C6.56054 25.3301 5.49715 26.625 4.86902 28.1403C4.24088 29.6556 4.07622 31.3231 4.39585 32.9319C4.71548 34.5407 5.50505 36.0187 6.66469 37.1787C7.82433 38.3388 9.30196 39.1289 10.9107 39.4492C12.5194 39.7694 14.187 39.6053 15.7025 38.9778C17.2179 38.3502 18.5133 37.2873 19.4246 35.9235C20.336 34.5597 20.8224 32.9562 20.8224 31.3159C20.8175 29.1197 19.9423 27.015 18.3885 25.4629C16.8347 23.9108 14.729 23.0379 12.5327 23.0355V23.0232ZM12.5327 38.6226C11.0869 38.6201 9.67423 38.189 8.47344 37.3836C7.27266 36.5782 6.33768 35.4349 5.78677 34.0981C5.23586 32.7613 5.09377 31.2911 5.37846 29.8736C5.66315 28.456 6.36183 27.1548 7.38615 26.1343C8.41046 25.1139 9.71438 24.4201 11.133 24.1408C12.5516 23.8615 14.0212 24.0092 15.3559 24.5652C16.6906 25.1212 17.8304 26.0605 18.6312 27.2643C19.432 28.4681 19.8578 29.8824 19.8548 31.3283C19.8523 33.268 19.0796 35.1274 17.7066 36.4976C16.3335 37.8678 14.4725 38.6365 12.5327 38.6349V38.6226ZM12.5327 24.3144C11.149 24.3168 9.79704 24.7292 8.64753 25.4995C7.49802 26.2698 6.60253 27.3634 6.07412 28.6423C5.54572 29.9211 5.40811 31.3279 5.67866 32.6849C5.94921 34.0419 6.61579 35.2883 7.59423 36.2668C8.57267 37.2452 9.8191 37.9118 11.1761 38.1824C12.5331 38.4529 13.9399 38.3153 15.2188 37.7869C16.4976 37.2585 17.5912 36.363 18.3615 35.2135C19.1318 34.064 19.5442 32.712 19.5466 31.3283C19.5458 30.408 19.3638 29.4969 19.0108 28.647C18.6579 27.7971 18.1411 27.025 17.4898 26.3749C16.8385 25.7247 16.0655 25.2092 15.2149 24.8578C14.3644 24.5064 13.453 24.3259 12.5327 24.3267V24.3144Z" fill="#644E77"/>
<path d="M41.7811 25.3989C41.743 25.3992 41.7053 25.3919 41.6701 25.3773C41.6293 25.3644 41.5917 25.3431 41.5595 25.3148C41.5274 25.2865 41.5015 25.2518 41.4836 25.213C41.4656 25.1741 41.4559 25.132 41.4551 25.0892C41.4544 25.0464 41.4625 25.0039 41.4791 24.9644C43.06 20.7209 45.1339 16.6439 47.3342 13.5222C47.3646 13.4744 47.4086 13.4368 47.4606 13.4143C51.9444 11.3342 57.5099 9.84265 63.5623 9.09996C63.6473 9.08975 63.7329 9.11371 63.8002 9.1666C63.8675 9.21948 63.9111 9.29694 63.9213 9.38194C63.9315 9.46694 63.9076 9.55252 63.8547 9.61984C63.8018 9.68717 63.7244 9.73073 63.6394 9.74095C57.6886 10.4713 52.2187 11.932 47.8119 13.9628C45.458 17.4608 43.5374 21.2316 42.0923 25.1924C42.0702 25.2562 42.0278 25.3109 41.9715 25.3482C41.9153 25.3855 41.8484 25.4033 41.7811 25.3989Z" fill="#644E77"/>
<path d="M40.1941 30.7701H27.0816C26.9281 30.7706 26.7795 30.7162 26.6625 30.6167C26.5455 30.5173 26.4679 30.3793 26.4437 30.2277C26.2865 29.2693 26.0955 28.3233 25.8767 27.408C23.9075 27.4727 20.8813 27.6022 19.0539 27.7162C18.883 27.7252 18.7156 27.6659 18.5885 27.5515C18.4614 27.4371 18.3849 27.2768 18.3759 27.106C18.3669 26.9352 18.4261 26.7678 18.5406 26.6407C18.655 26.5135 18.8152 26.437 18.9861 26.428C20.9891 26.3202 24.4345 26.1753 26.3574 26.1199C26.5037 26.1158 26.6469 26.1615 26.7639 26.2494C26.8809 26.3372 26.9646 26.4621 27.0015 26.6037C27.2388 27.5282 27.4483 28.5082 27.6178 29.4943H39.6826C39.9322 28.5698 40.2249 27.596 40.5547 26.6099C40.5987 26.4771 40.6848 26.3623 40.7999 26.2828C40.915 26.2033 41.0528 26.1634 41.1926 26.1692L43.0662 26.2431C43.9507 26.277 44.8998 26.3109 45.7874 26.351C45.8719 26.3548 45.9549 26.3753 46.0316 26.4112C46.1083 26.4471 46.1771 26.4978 46.2342 26.5603C46.2913 26.6229 46.3355 26.696 46.3643 26.7756C46.3931 26.8553 46.406 26.9398 46.4022 27.0243C46.3983 27.1089 46.3778 27.1919 46.3419 27.2686C46.306 27.3453 46.2553 27.4141 46.1928 27.4712C46.1303 27.5283 46.0571 27.5725 45.9775 27.6013C45.8979 27.6301 45.8134 27.643 45.7288 27.6391C44.8444 27.5991 43.9014 27.5621 43.0169 27.5313L41.624 27.4789C41.3159 28.4465 41.0354 29.3926 40.8074 30.2986C40.7696 30.4328 40.6894 30.5511 40.579 30.6361C40.4685 30.721 40.3335 30.768 40.1941 30.7701Z" fill="#644E77"/>
<path d="M40.1942 30.9244H27.0817C26.892 30.9254 26.7083 30.8585 26.5636 30.7359C26.419 30.6132 26.3229 30.4429 26.2928 30.2557C26.1418 29.3312 25.963 28.4375 25.7566 27.5654C23.7411 27.6332 20.8259 27.7595 19.0632 27.8551C18.8515 27.8665 18.6439 27.7934 18.4862 27.6518C18.3284 27.5102 18.2333 27.3117 18.2219 27.1001C18.2104 26.8884 18.2835 26.6808 18.4251 26.523C18.5667 26.3653 18.7652 26.2702 18.9769 26.2588C20.983 26.1509 24.4314 26.0061 26.3513 25.9506C26.5325 25.9448 26.7102 26.0009 26.8553 26.1095C27.0003 26.2182 27.1041 26.373 27.1495 26.5484C27.3806 27.4452 27.5809 28.379 27.7658 29.322H39.5779C39.8182 28.4283 40.1017 27.4914 40.4222 26.5484C40.4762 26.3835 40.5831 26.241 40.7262 26.1429C40.8694 26.0449 41.0409 25.9968 41.2142 26.0061L43.0848 26.077C43.9692 26.1108 44.9184 26.1447 45.809 26.1848C46.0205 26.1952 46.2192 26.2889 46.3619 26.4453C46.5045 26.6018 46.5794 26.8084 46.5702 27.0199C46.5574 27.2306 46.4631 27.4279 46.3071 27.5701C46.1512 27.7122 45.9459 27.7879 45.735 27.7811C44.8506 27.7411 43.9076 27.7072 43.0262 27.6733H42.8537L41.7473 27.6301C41.4392 28.5546 41.1865 29.4791 40.9677 30.3297C40.9227 30.5004 40.8224 30.6514 40.6824 30.759C40.5424 30.8666 40.3707 30.9248 40.1942 30.9244ZM26.0185 27.2511L26.0462 27.3713C26.2681 28.2958 26.4592 29.2418 26.6194 30.2033C26.6365 30.319 26.695 30.4245 26.7839 30.5005C26.8729 30.5764 26.9863 30.6175 27.1032 30.6163H40.1942C40.3031 30.6162 40.409 30.5797 40.4949 30.5128C40.5809 30.4458 40.642 30.3521 40.6688 30.2465C40.8999 29.3404 41.1742 28.3974 41.4916 27.4175L41.5286 27.3035H41.6457L42.8783 27.3497H43.0478C43.9323 27.3836 44.8752 27.4175 45.7597 27.4575C45.8893 27.461 46.0153 27.4142 46.1113 27.3269C46.2072 27.2396 46.2656 27.1185 46.2743 26.9891C46.2773 26.9249 46.2674 26.8607 46.2452 26.8004C46.223 26.74 46.1889 26.6847 46.1449 26.6378C46.1024 26.5893 46.0503 26.5501 45.992 26.5225C45.9337 26.495 45.8704 26.4797 45.8059 26.4776C44.9184 26.4375 43.9569 26.4036 43.0848 26.3697L41.2111 26.2957C41.1047 26.2902 40.9993 26.3201 40.9118 26.3809C40.8242 26.4417 40.7593 26.5299 40.7273 26.6316C40.3945 27.6147 40.111 28.5823 39.8583 29.5068L39.8275 29.6209H27.5008L27.4792 29.4945C27.3036 28.5115 27.094 27.5438 26.8629 26.6132C26.8365 26.5046 26.7732 26.4087 26.6838 26.3418C26.5944 26.2748 26.4844 26.2411 26.3729 26.2464C24.453 26.3019 21.0108 26.4467 19.0046 26.5546C18.8747 26.562 18.753 26.6206 18.6663 26.7177C18.5796 26.8148 18.535 26.9424 18.5424 27.0723C18.5497 27.2023 18.6084 27.324 18.7055 27.4107C18.8026 27.4974 18.9301 27.5419 19.0601 27.5346C20.8659 27.436 23.8644 27.3096 25.8829 27.2264L26.0185 27.2511Z" fill="#644E77"/>
<path d="M25.9226 25.51C25.8425 25.5096 25.7647 25.4837 25.7004 25.4361C25.6361 25.3884 25.5887 25.3214 25.5651 25.245C23.7592 19.3528 20.6344 14.6748 15.9873 10.9399C15.9476 10.9093 15.9145 10.8712 15.8898 10.8276C15.8651 10.7841 15.8493 10.7361 15.8434 10.6864C15.8375 10.6367 15.8416 10.5863 15.8555 10.5382C15.8693 10.4901 15.8926 10.4453 15.924 10.4063C15.9553 10.3673 15.9942 10.335 16.0382 10.3112C16.0823 10.2874 16.1306 10.2727 16.1804 10.2679C16.2303 10.263 16.2805 10.2682 16.3283 10.283C16.3761 10.2979 16.4205 10.3221 16.4588 10.3543C21.1502 14.13 24.5777 19.2476 26.2831 25.0231C26.2978 25.0702 26.303 25.1198 26.2984 25.169C26.2938 25.2181 26.2795 25.2659 26.2562 25.3095C26.233 25.3531 26.2014 25.3916 26.1631 25.4228C26.1249 25.4541 26.0808 25.4774 26.0335 25.4915C25.9978 25.5036 25.9603 25.5099 25.9226 25.51Z" fill="#644E77"/>
<path d="M42.4436 18.6223C40.1724 18.6223 36.8966 18.5575 35.7194 18.2093H35.6886C34.0615 17.5745 32.7394 15.5437 31.2048 13.1923C29.5838 10.7024 27.7441 7.88263 25.3496 6.72084C25.3033 6.69918 25.2616 6.66862 25.2271 6.63088C25.1926 6.59315 25.1658 6.54898 25.1484 6.50091C25.1309 6.45283 25.1231 6.40179 25.1254 6.3507C25.1277 6.2996 25.14 6.24945 25.1616 6.20311C25.1833 6.15678 25.2138 6.11516 25.2516 6.08064C25.2893 6.04611 25.3335 6.01936 25.3815 6.0019C25.4296 5.98444 25.4807 5.97663 25.5318 5.9789C25.5829 5.98117 25.633 5.99348 25.6793 6.01513C28.2618 7.27862 30.1601 10.1939 31.8427 12.764C33.2418 14.9212 34.5607 16.9304 35.9567 17.4851C37.7102 17.9905 44.6871 17.8426 44.758 17.8426C44.8073 17.8414 44.8565 17.8499 44.9026 17.8676C44.9486 17.8854 44.9908 17.9121 45.0266 17.9461C45.0623 17.9802 45.091 18.021 45.111 18.0661C45.1311 18.1113 45.142 18.1599 45.1432 18.2093C45.1448 18.3093 45.1069 18.4059 45.0376 18.4781C44.9683 18.5502 44.8734 18.5921 44.7734 18.5945C44.6594 18.6007 43.7071 18.6223 42.4436 18.6223Z" fill="#644E77"/>
<path d="M21.2385 7.18646C21.0628 7.18646 20.8686 7.55317 20.7176 7.44223C20.6263 7.3757 20.5491 7.29182 20.4902 7.19539C20.4313 7.09896 20.392 6.99188 20.3746 6.88027C20.3571 6.76865 20.3618 6.65469 20.3884 6.54489C20.4151 6.4351 20.463 6.33162 20.5297 6.24038L24.8194 0.35439C24.8989 0.244926 25.0031 0.155778 25.1236 0.094198C25.2441 0.0326175 25.3774 0.000344648 25.5127 0H31.4172C31.6452 0 31.8639 0.0905835 32.0252 0.251825C32.1864 0.413066 32.277 0.631755 32.277 0.859784C32.277 1.08781 32.1864 1.3065 32.0252 1.46775C31.8639 1.62899 31.6452 1.71957 31.4172 1.71957H25.9503L21.9442 6.83515C21.8636 6.94631 21.7573 7.03632 21.6345 7.0975C21.5116 7.15867 21.3757 7.1892 21.2385 7.18646Z" fill="#644E77"/>
<path d="M54.8963 35.2908C53.8942 35.2892 52.9337 34.8902 52.2255 34.1813C51.5172 33.4725 51.119 32.5116 51.1182 31.5096C51.1183 31.2064 51.1545 30.9044 51.226 30.6097C51.2375 30.5615 51.2583 30.516 51.2875 30.4758C51.3166 30.4357 51.3534 30.4017 51.3957 30.3758C51.438 30.3499 51.485 30.3327 51.534 30.325C51.583 30.3174 51.633 30.3195 51.6812 30.3313C51.7294 30.3431 51.7747 30.3643 51.8147 30.3937C51.8546 30.4231 51.8884 30.4601 51.9139 30.5026C51.9395 30.5451 51.9564 30.5923 51.9637 30.6413C51.971 30.6904 51.9685 30.7404 51.9564 30.7885C51.8983 31.0244 51.8693 31.2666 51.8701 31.5096C51.8701 32.1081 52.0476 32.6932 52.3801 33.1909C52.7126 33.6885 53.1852 34.0764 53.7382 34.3054C54.2912 34.5345 54.8996 34.5944 55.4867 34.4776C56.0737 34.3609 56.6129 34.0727 57.0361 33.6494C57.4594 33.2262 57.7476 32.687 57.8643 32.1C57.9811 31.5129 57.9212 30.9045 57.6921 30.3515C57.4631 29.7985 57.0752 29.3259 56.5776 28.9934C56.0799 28.6609 55.4948 28.4834 54.8963 28.4834C54.6893 28.4833 54.4828 28.504 54.28 28.545C54.183 28.5634 54.0826 28.5428 54.0007 28.4878C53.9187 28.4328 53.8616 28.3478 53.8418 28.2511C53.822 28.1544 53.841 28.0538 53.8947 27.971C53.9484 27.8882 54.0326 27.8298 54.129 27.8085C54.3793 27.7566 54.6344 27.7308 54.8901 27.7315C55.8739 27.7596 56.8079 28.1701 57.4938 28.8758C58.1797 29.5816 58.5634 30.527 58.5634 31.5111C58.5634 32.4953 58.1797 33.4406 57.4938 34.1464C56.8079 34.8522 55.8739 35.2627 54.8901 35.2908H54.8963Z" fill="#644E77"/>
<path d="M12.5333 35.2911C11.7502 35.293 10.9861 35.0494 10.3484 34.5947C10.2667 34.537 10.2112 34.4493 10.1942 34.3508C10.1771 34.2522 10.1999 34.151 10.2575 34.0692C10.3152 33.9875 10.4029 33.932 10.5014 33.915C10.6 33.8979 10.7012 33.9207 10.783 33.9783C11.3368 34.37 12.0061 34.5642 12.6836 34.5299C13.361 34.4955 14.0073 34.2345 14.5186 33.7888C15.03 33.3431 15.3768 32.7386 15.5033 32.0722C15.6299 31.4058 15.5289 30.7162 15.2165 30.114C14.9042 29.5119 14.3986 29.0322 13.7809 28.7519C13.1632 28.4715 12.4693 28.4068 11.8104 28.5682C11.1516 28.7295 10.566 29.1076 10.1478 29.6416C9.72955 30.1756 9.50284 30.8347 9.50407 31.513C9.50643 31.9653 9.61182 32.4111 9.81223 32.8165C9.85446 32.9065 9.85936 33.0095 9.82586 33.103C9.79237 33.1966 9.72321 33.2731 9.63349 33.3158C9.54348 33.3583 9.44033 33.3638 9.34633 33.3309C9.25234 33.298 9.17505 33.2295 9.13118 33.1401C8.77921 32.4001 8.67719 31.5657 8.84048 30.7626C9.00377 29.9596 9.42354 29.2313 10.0366 28.6875C10.6496 28.1436 11.4228 27.8137 12.2396 27.7473C13.0564 27.6809 13.8726 27.8817 14.5654 28.3194C15.2583 28.7571 15.7901 29.408 16.0809 30.1742C16.3718 30.9403 16.4058 31.7802 16.178 32.5674C15.9501 33.3546 15.4727 34.0464 14.8176 34.5388C14.1625 35.0311 13.3652 35.2973 12.5457 35.2973L12.5333 35.2911Z" fill="#644E77"/>
<path d="M66.2799 16.0709L60.6836 16.0278C60.5839 16.0278 60.4882 15.9882 60.4177 15.9177C60.3472 15.8472 60.3076 15.7516 60.3076 15.6518C60.3076 15.5521 60.3472 15.4565 60.4177 15.386C60.4882 15.3155 60.5839 15.2759 60.6836 15.2759L66.283 15.319C66.3827 15.319 66.4783 15.3586 66.5488 15.4291C66.6193 15.4996 66.6589 15.5953 66.6589 15.695C66.6589 15.7947 66.6193 15.8903 66.5488 15.9608C66.4783 16.0313 66.3827 16.0709 66.283 16.0709H66.2799Z" fill="#644E77"/>
<path d="M5.63336 17.3864H5.59946C5.49469 17.3864 3.03551 17.2878 1.76895 16.3048C1.74223 16.2858 1.71952 16.2617 1.70212 16.2339C1.68471 16.2061 1.67295 16.1751 1.66752 16.1428C1.66208 16.1104 1.66307 16.0774 1.67043 16.0454C1.67778 16.0134 1.69136 15.9832 1.71039 15.9565C2.08719 15.3922 2.58224 14.9166 3.16121 14.5628C3.74018 14.2089 4.3892 13.9852 5.06325 13.9072H5.11872C5.73506 13.9072 8.81673 13.9904 9.43306 14.2154C9.4791 14.2302 9.5207 14.2563 9.55407 14.2912C9.58744 14.3262 9.61153 14.369 9.62413 14.4157C9.63304 14.462 9.62945 14.5098 9.61374 14.5542C9.59803 14.5986 9.57077 14.638 9.53476 14.6684C9.43306 14.7547 7.06942 16.8009 5.76279 17.371C5.72071 17.3828 5.67704 17.388 5.63336 17.3864ZM2.40685 16.0305C3.43305 16.6653 5.1557 16.804 5.55324 16.8256C6.47774 16.4034 7.92304 15.2323 8.63491 14.6314C7.77512 14.5421 6.16957 14.4804 5.10331 14.4619C4.57122 14.5277 4.05797 14.7006 3.59453 14.9702C3.13109 15.2398 2.72707 15.6005 2.40685 16.0305Z" fill="#644E77"/>
<path d="M5.61136 17.6024H5.58979C5.48501 17.6024 2.95496 17.4976 1.636 16.4745C1.53891 16.4019 1.47396 16.2944 1.45497 16.1747C1.43598 16.0549 1.46444 15.9325 1.53431 15.8335C1.92651 15.2466 2.4411 14.7516 3.04274 14.3824C3.64438 14.0132 4.3188 13.7787 5.01968 13.6948H5.10905C5.97808 13.7133 8.86252 13.7842 9.49735 14.003C9.57794 14.03 9.6504 14.077 9.70804 14.1395C9.76568 14.2019 9.80662 14.278 9.82709 14.3605C9.8439 14.4445 9.83823 14.5315 9.81063 14.6127C9.78303 14.6939 9.73449 14.7663 9.66992 14.8227C9.41414 15.0415 7.16144 16.9799 5.84248 17.5592C5.7792 17.5837 5.71282 17.5993 5.64526 17.6055H5.61136V17.6024ZM5.0998 14.1201H5.07823C4.4366 14.1973 3.81919 14.4121 3.26819 14.7498C2.71719 15.0875 2.2456 15.5402 1.88562 16.077C1.88562 16.077 1.86713 16.1078 1.88562 16.1355C3.09672 17.06 5.49118 17.1679 5.58363 17.1709C5.5999 17.1742 5.61666 17.1742 5.63293 17.1709C6.91491 16.6162 9.25081 14.5885 9.34943 14.5022C9.35617 14.498 9.3617 14.492 9.36548 14.485C9.36926 14.478 9.37116 14.4701 9.371 14.4622C9.36632 14.451 9.35918 14.441 9.35011 14.433C9.34103 14.425 9.33027 14.4192 9.31861 14.4159C8.85944 14.2557 6.74233 14.1602 5.0659 14.1293L5.0998 14.1201ZM5.59287 17.0446H5.54048C5.04433 17.0169 3.34633 16.8689 2.29548 16.2187L2.09209 16.0924L2.23693 15.9044C2.57362 15.4499 2.99957 15.069 3.48867 14.785C3.97778 14.501 4.51973 14.3198 5.08131 14.2526H5.11521C6.28316 14.2742 7.83324 14.3389 8.66838 14.4252L9.17377 14.4776L8.7824 14.8042C8.00582 15.4514 6.5636 16.6008 5.64218 17.0292L5.59287 17.0446ZM2.73616 15.9691C3.69148 16.456 5.10597 16.5854 5.50966 16.6101C6.42788 16.0889 7.29553 15.4833 8.10135 14.8011C7.24465 14.7395 6.03663 14.6933 5.12446 14.6748C4.19403 14.7909 3.34139 15.253 2.73616 15.9691Z" fill="#644E77"/>
<path d="M6.89013 14.2432C6.78766 14.9682 6.91369 15.7071 7.25069 16.3572C7.25069 16.3572 8.88089 14.7979 9.05655 14.4496L6.89013 14.2432Z" fill="#644E77"/>
<path d="M37.9014 27.3252H29.1279V27.7289H37.9014V27.3252Z" fill="#644E77"/>
<path d="M37.9008 27.8367H29.1273C29.0992 27.8359 29.0726 27.8242 29.053 27.8041C29.0334 27.7839 29.0225 27.757 29.0225 27.7289V27.3252C29.0221 27.3112 29.0245 27.2972 29.0296 27.2841C29.0347 27.2711 29.0423 27.2592 29.0521 27.2491C29.0619 27.239 29.0735 27.231 29.0865 27.2256C29.0994 27.2201 29.1133 27.2173 29.1273 27.2173H37.9008C37.9151 27.2169 37.9293 27.2194 37.9426 27.2247C37.9559 27.2299 37.9679 27.2379 37.978 27.248C37.9881 27.2581 37.996 27.2701 38.0013 27.2834C38.0066 27.2967 38.0091 27.3109 38.0087 27.3252V27.7289C38.0087 27.7575 37.9973 27.7849 37.9771 27.8052C37.9568 27.8254 37.9294 27.8367 37.9008 27.8367ZM29.2351 27.621H37.7929V27.43H29.2351V27.621Z" fill="#644E77"/>
<path d="M29.1272 27.8339C29.0572 27.8361 28.9885 27.8144 28.9325 27.7724C28.8765 27.7304 28.8365 27.6705 28.819 27.6027C27.8031 23.5209 26.2037 19.6069 24.0701 15.9818C24.0418 15.913 24.0393 15.8363 24.063 15.7658C24.0868 15.6953 24.1353 15.6358 24.1995 15.5983C24.2637 15.5608 24.3393 15.5477 24.4124 15.5615C24.4855 15.5754 24.5511 15.6152 24.5971 15.6736C26.7626 19.3488 28.3849 23.3181 29.4137 27.4579C29.4344 27.5368 29.423 27.6206 29.382 27.6911C29.341 27.7615 29.2737 27.8129 29.1949 27.8339C29.1724 27.836 29.1497 27.836 29.1272 27.8339Z" fill="#644E77"/>
</svg>
