<svg width="62" height="70" viewBox="0 0 62 70" fill="none" xmlns="http://www.w3.org/2000/svg">
<path d="M52.7304 15.9379C56.9173 15.9379 60.3114 12.5437 60.3114 8.35688C60.3114 4.17001 56.9173 0.775879 52.7304 0.775879C48.5435 0.775879 45.1494 4.17001 45.1494 8.35688C45.1494 12.5437 48.5435 15.9379 52.7304 15.9379Z" fill="#FB7333"/>
<path d="M16.7321 36.8756L15.0347 30.0142C14.8933 29.5259 14.8639 29.0122 14.9486 28.5109C15.0333 28.0097 15.23 27.5337 15.524 27.1189C15.818 26.7042 16.2017 26.3613 16.6466 26.1154C17.0915 25.8695 17.5862 25.727 18.0937 25.6987H53.6713C54.1789 25.727 54.6734 25.8695 55.1184 26.1154C55.5633 26.3613 55.947 26.7042 56.241 27.1189C56.535 27.5337 56.7317 28.0097 56.8164 28.5109C56.9011 29.0122 56.8716 29.5259 56.7302 30.0142L55.0329 36.8756C54.8813 37.5806 54.4974 38.2145 53.9428 38.6754C53.3881 39.1363 52.6948 39.3976 51.9739 39.4176H19.7911C19.0702 39.3977 18.3768 39.1363 17.8221 38.6754C17.2674 38.2145 16.8836 37.5807 16.7321 36.8756V36.8756Z" stroke="#3F2355" stroke-width="2" stroke-miterlimit="10" stroke-linecap="round"/>
<path d="M23.9414 25.7007L24.5431 23.5159C24.727 22.8467 25.1257 22.2565 25.6778 21.836C26.2299 21.4154 26.9049 21.188 27.5989 21.1885H44.1527C44.8446 21.1883 45.5173 21.415 46.0679 21.834C46.6184 22.253 47.0164 22.8409 47.2006 23.5078L47.8102 25.7007" stroke="#3F2355" stroke-width="2" stroke-miterlimit="10" stroke-linecap="round"/>
<path d="M21.1501 39.7983V56.4708C21.1501 57.3107 20.8164 58.1163 20.2225 58.7102C19.6287 59.304 18.8233 59.6375 17.9834 59.6375H14.3971C13.5573 59.6375 12.7518 59.304 12.1579 58.7102C11.564 58.1163 11.2305 57.3107 11.2305 56.4708V37.0514C11.2305 36.2116 11.564 35.406 12.1579 34.8121C12.7518 34.2182 13.5573 33.8848 14.3971 33.8848H15.735" stroke="#3F2355" stroke-width="2" stroke-miterlimit="10" stroke-linecap="round"/>
<path d="M56.4976 33.8862H57.3525C58.1924 33.8862 58.9978 34.2197 59.5917 34.8136C60.1855 35.4074 60.5192 36.213 60.5192 37.0529V56.4723C60.5192 57.3122 60.1855 58.1178 59.5917 58.7116C58.9978 59.3055 58.1924 59.639 57.3525 59.639H53.7663C52.9264 59.639 52.121 59.3055 51.5272 58.7116C50.9333 58.1178 50.5996 57.3122 50.5996 56.4723V39.7998" stroke="#3F2355" stroke-width="2" stroke-miterlimit="10" stroke-linecap="round"/>
<path d="M16.4688 10.1133H24.2049C24.8228 10.1131 25.4274 10.294 25.9439 10.6332C26.4605 10.9724 26.8664 11.455 27.1119 12.0221L30.4528 19.7432" stroke="#3F2355" stroke-width="2" stroke-miterlimit="10" stroke-linecap="round"/>
<path d="M55.2818 10.1133H47.5449C46.9271 10.1133 46.3227 10.2941 45.8064 10.6332C45.29 10.9723 44.8841 11.4551 44.6387 12.0221L41.2979 19.7432" stroke="#3F2355" stroke-width="2" stroke-miterlimit="10" stroke-linecap="round"/>
<path d="M43.6821 14.2305H28.0625" stroke="#3F2355" stroke-width="2" stroke-miterlimit="10" stroke-linecap="round"/>
<path d="M26.4734 45.7031L21.1455 48.3631" stroke="#3F2355" stroke-width="2" stroke-miterlimit="10" stroke-linecap="round"/>
<path d="M50.5915 48.3631L45.2715 45.7031" stroke="#3F2355" stroke-width="2" stroke-miterlimit="10" stroke-linecap="round"/>
<path d="M38.2409 47.8345H33.5146" stroke="#3F2355" stroke-width="2" stroke-miterlimit="10" stroke-linecap="round"/>
<path d="M44.6998 35.5007C46.3241 35.5007 47.6409 34.184 47.6409 32.5597C47.6409 30.9354 46.3241 29.6187 44.6998 29.6187C43.0755 29.6187 41.7588 30.9354 41.7588 32.5597C41.7588 34.184 43.0755 35.5007 44.6998 35.5007Z" stroke="#FB7333" stroke-width="2" stroke-miterlimit="10" stroke-linecap="round"/>
<path d="M27.0504 35.4993C28.6747 35.4993 29.9915 34.1825 29.9915 32.5582C29.9915 30.9339 28.6747 29.6172 27.0504 29.6172C25.4261 29.6172 24.1094 30.9339 24.1094 32.5582C24.1094 34.1825 25.4261 35.4993 27.0504 35.4993Z" stroke="#FB7333" stroke-width="2" stroke-miterlimit="10" stroke-linecap="round"/>
<path d="M11.3047 52.9292H14.9907" stroke="#3F2355" stroke-width="2" stroke-miterlimit="10" stroke-linecap="round"/>
<path d="M16.5342 45.3901H20.2202" stroke="#3F2355" stroke-width="2" stroke-miterlimit="10" stroke-linecap="round"/>
<path d="M59.8139 52.9292H56.1279" stroke="#3F2355" stroke-width="2" stroke-miterlimit="10" stroke-linecap="round"/>
<path d="M54.5737 45.3887H50.8877" stroke="#3F2355" stroke-width="2" stroke-miterlimit="10" stroke-linecap="round"/>
<path d="M33.5116 39.4199V49.1418C33.5116 50.0751 33.1408 50.9701 32.4809 51.6301C31.821 52.29 30.9259 52.6606 29.9926 52.6606C29.0594 52.6606 28.1643 52.29 27.5044 51.6301C26.8445 50.9701 26.4736 50.0751 26.4736 49.1418V39.4199" stroke="#3F2355" stroke-width="2" stroke-miterlimit="10" stroke-linecap="round"/>
<path d="M45.284 39.4189V49.1408C45.284 50.0741 44.9132 50.9692 44.2533 51.6291C43.5933 52.289 42.6983 52.6596 41.765 52.6596C40.8317 52.6596 39.9367 52.289 39.2767 51.6291C38.6168 50.9692 38.2461 50.0741 38.2461 49.1408V39.4189" stroke="#3F2355" stroke-width="2" stroke-miterlimit="10" stroke-linecap="round"/>
<path d="M8.80349 18.3906H1.30957" stroke="#DBDAE1" stroke-width="2" stroke-miterlimit="10" stroke-linecap="round"/>
<path d="M5.05469 22.1374L5.08319 14.9277" stroke="#DBDAE1" stroke-width="2" stroke-miterlimit="10" stroke-linecap="round"/>
<path d="M47.4314 65.2412H39.9375" stroke="#DBDAE1" stroke-width="2" stroke-miterlimit="10" stroke-linecap="round"/>
<path d="M43.6846 68.9905L43.7131 61.7808" stroke="#DBDAE1" stroke-width="2" stroke-miterlimit="10" stroke-linecap="round"/>
</svg>
