<?xml version="1.0" encoding="utf-8"?>
<!-- Generator: Adobe Illustrator 24.2.0, SVG Export Plug-In . SVG Version: 6.00 Build 0)  -->
<svg version="1.1" id="Layer_1" xmlns="http://www.w3.org/2000/svg" xmlns:xlink="http://www.w3.org/1999/xlink" x="0px" y="0px"
	 viewBox="0 0 131.9 131.7" style="enable-background:new 0 0 131.9 131.7;" xml:space="preserve">
<style type="text/css">
	.st0{fill:#FFF9EB;}
	.st1{fill:#FB7333;}
	.st2{fill:none;stroke:#3F2355;stroke-width:2;stroke-linecap:round;stroke-miterlimit:10;}
	.st3{fill:none;stroke:#FB7333;stroke-width:4;stroke-linecap:round;stroke-miterlimit:10;}
	.st4{fill:none;stroke:#FFFFFF;stroke-width:2;stroke-linecap:round;stroke-miterlimit:10;}
</style>
<g>
	<circle class="st0" cx="66" cy="65.6" r="65"/>
	<g>
		<path class="st1" d="M81.6,54.1l-1.4-7.6h7.4c0.4,0,0.9,0,1.3,0.1c6.2,0.7,11,6.2,11,13v2.1h-3.1l-4.6-5.5L81.6,54.1z"/>
		<path class="st2" d="M64.2,62.2h3"/>
		<path class="st2" d="M73.9,69.7H55.6"/>
		<path class="st2" d="M36.6,69.7h-4.3v-5.4c0-1.4,0.3-2.7,0.8-4c0.6-1.3,1.4-2.4,2.4-3.3l0,0c1.8-1.6,4.1-2.5,6.5-2.5h44.2
			c0.4,0,0.9,0,1.3,0.1c6.2,0.7,11,6.2,11,13v2.1h-7.3"/>
		<path class="st2" d="M46.3,77.6c4.4,0,8-3.6,8-8s-3.6-8-8-8s-8,3.6-8,8S41.9,77.6,46.3,77.6z"/>
		<path class="st3" d="M46.3,72.9c1.8,0,3.3-1.5,3.3-3.3c0-1.8-1.5-3.3-3.3-3.3S43,67.8,43,69.6C43,71.4,44.5,72.9,46.3,72.9z"/>
		<path class="st2" d="M82.6,77.6c4.4,0,8-3.6,8-8s-3.6-8-8-8s-8,3.6-8,8S78.2,77.6,82.6,77.6z"/>
		<path class="st3" d="M82.6,72.9c1.8,0,3.3-1.5,3.3-3.3c0-1.8-1.5-3.3-3.3-3.3c-1.8,0-3.3,1.5-3.3,3.3
			C79.3,71.4,80.7,72.9,82.6,72.9z"/>
		<path class="st2" d="M64.2,54.5l0-14.7"/>
		<path class="st2" d="M45.7,54.5c0.7-4.4,2.9-8.4,6.3-11.2c3.4-2.9,7.6-4.5,12.1-4.5s8.7,1.6,12.1,4.5c3.4,2.9,5.6,6.9,6.3,11.2"/>
		<path class="st4" d="M100.9,35.5h-6.6"/>
		<path class="st4" d="M97.5,38.8l0-6.4"/>
		<path class="st4" d="M37.8,95.5h-6.6"/>
		<path class="st4" d="M34.5,98.8l0-6.4"/>
	</g>
</g>
</svg>
