<svg width="95" height="31" viewBox="0 0 95 31" fill="none" xmlns="http://www.w3.org/2000/svg">
<path d="M2.71757 17.7719C2.96655 18.6099 3.37645 19.7 3.34912 20.5623C3.0212 20.8203 2.74186 21.0147 2.52325 21.1695C2.40787 20.3588 2.17711 18.7405 1.9585 17.3984C2.22077 17.5032 2.47455 17.628 2.71757 17.7719Z" fill="white"/>
<path d="M91.763 7.4668C91.9512 9.01227 92.1911 9.89584 92.437 10.4424C91.8996 10.2815 91.4715 10.157 91.1709 10.0719C91.0727 10.0442 90.9849 9.98774 90.919 9.90986C90.853 9.83197 90.8117 9.73617 90.8005 9.63472C90.7537 9.22517 90.6215 8.83001 90.4122 8.47485C90.203 8.11969 89.9215 7.81246 89.5859 7.57307C90.3132 7.58974 91.0408 7.55423 91.763 7.4668Z" fill="white"/>
<path d="M88.4536 18.9159C89.5545 18.9123 90.6529 18.8107 91.7359 18.6123C91.4358 19.3366 91.2316 20.0971 91.1286 20.8743C90.5213 20.9837 89.738 21.1051 88.7572 21.2326C88.6841 21.241 88.6131 21.2626 88.5477 21.2964C88.6303 20.5025 88.5986 19.7008 88.4536 18.9159Z" fill="white"/>
<path d="M30.2082 21.7642C30.0677 21.7645 29.9309 21.8094 29.8174 21.8923C29.704 21.9752 29.6197 22.0919 29.5767 22.2257L29.103 22.1194C29.2794 21.2803 29.3245 20.4189 29.2366 19.5659H71.7934C71.7641 19.8534 71.7499 20.1423 71.7509 20.4313C71.754 21.3318 71.9026 22.2259 72.1912 23.0789L72.1426 23.0941L71.335 22.0405C71.3245 22.024 71.3123 22.0088 71.2985 21.995C71.2167 21.8832 71.1008 21.8012 70.9682 21.7612C70.8356 21.7212 70.6937 21.7255 70.5637 21.7733L30.2082 21.7642Z" fill="white"/>
<path d="M93.685 12.2646V15.9354C93.0514 16.4676 92.5214 17.1119 92.1213 17.8362C91.7205 17.9728 90.7003 18.2096 88.3138 18.2582C87.8276 16.4032 86.7225 14.7698 85.1814 13.6284C83.6403 12.4871 81.7557 11.9062 79.8395 11.982C77.9233 12.0578 76.0904 12.7857 74.6443 14.0452C73.1982 15.3047 72.2255 17.0203 71.8874 18.908H58.3516C59.2989 17.2927 60.5772 14.9152 60.6379 13.7675C60.729 11.9943 59.4234 7.99855 59.3627 7.83155L59.3262 7.73439L58.388 7.22429C58.4994 7.19695 58.6089 7.16246 58.7159 7.12106C58.8677 7.05951 59.0036 6.96446 59.1135 6.84301C59.2234 6.72155 59.3044 6.57684 59.3505 6.41967L60.6622 6.22231C60.7587 6.20939 60.8478 6.16374 60.9147 6.093C60.9815 6.02227 61.0221 5.93072 61.0296 5.83367L61.3059 2.79736L77.2495 6.34073C77.3484 6.36736 77.4508 6.37863 77.5531 6.37413H77.5744C80.7898 6.30733 84.8858 6.45307 87.1479 7.02693L88.083 7.43987C89.7621 8.17769 90.09 9.15842 90.1356 9.67762C90.1574 9.91292 90.2501 10.1361 90.4013 10.3177C90.5525 10.4992 90.7552 10.6307 90.9827 10.6948C91.4169 10.8193 92.1244 11.0257 93.0292 11.302L93.1476 11.3385C93.3586 11.6275 93.5388 11.9379 93.685 12.2646Z" fill="white"/>
<path d="M58.8947 8.09212C59.0981 8.72367 60.1942 12.2124 60.1092 13.7396C60.0515 14.8388 58.67 17.3377 57.7409 18.9014H33.2167C32.5244 13.1324 33.5719 10.4938 33.7602 10.0779C33.912 9.98373 34.2915 9.74387 34.7743 9.39469C34.9679 9.55037 35.209 9.63503 35.4575 9.63456C35.8249 9.63456 36.335 9.61634 36.9544 9.58294C37.0357 9.66173 37.1448 9.70535 37.258 9.7044H40.7862C40.8726 9.70464 40.9571 9.67928 41.0291 9.63152C41.2043 9.51536 41.3707 9.38648 41.527 9.24591C47.1685 8.7601 54.7532 7.92512 57.6194 7.3877L58.8947 8.09212ZM57.249 9.70743C57.2482 9.62018 57.213 9.53678 57.151 9.47537C57.089 9.41396 57.0053 9.37951 56.918 9.37951H53.405C53.3231 9.38738 53.2471 9.42549 53.1917 9.4864C53.1364 9.54731 53.1058 9.62666 53.1058 9.70895C53.1058 9.79124 53.1364 9.87058 53.1917 9.93149C53.2471 9.99241 53.3231 10.0305 53.405 10.0384H56.918C57.0053 10.0368 57.0886 10.0015 57.1503 9.93973C57.2121 9.878 57.2474 9.79472 57.249 9.70743Z" fill="white"/>
<path d="M12.4486 20.4315C12.4504 21.0363 12.5186 21.6391 12.6521 22.229L12.3666 22.2928C12.3354 22.1441 12.2542 22.0106 12.1366 21.9144C12.0189 21.8183 11.8719 21.7654 11.7199 21.7645H3.17272C3.84393 21.3087 4.47112 20.7913 5.04612 20.219C5.09612 20.1694 5.13331 20.1084 5.15447 20.0412C5.17563 19.974 5.18012 19.9027 5.16757 19.8334C4.7516 17.5106 2.55939 16.6392 1.79424 16.4024C1.74566 16.1352 1.70012 15.8953 1.66064 15.6979C2.90249 14.3043 10.891 9.3217 23.2396 9.01807C23.3543 9.09141 23.4894 9.12649 23.6253 9.11826C27.0869 8.95793 30.5552 9.01675 34.0094 9.29437C33.6602 9.5312 33.4325 9.66784 33.4264 9.67087L33.3627 9.71034L33.3293 9.77411C33.2594 9.89859 31.9204 12.5068 32.6917 18.9043H29.1483L29.121 18.7616C28.7412 16.8367 27.7009 15.105 26.1799 13.8657C24.6589 12.6265 22.7528 11.9575 20.7909 11.9744C18.829 11.9913 16.9347 12.6931 15.4353 13.9584C13.9359 15.2238 12.9257 16.9732 12.5792 18.9043H8.45285C8.40693 18.8999 8.3606 18.9051 8.31682 18.9196C8.27304 18.9342 8.23279 18.9577 8.19864 18.9887C8.1645 19.0198 8.13722 19.0576 8.11855 19.0998C8.09988 19.142 8.09023 19.1876 8.09023 19.2337C8.09023 19.2798 8.09988 19.3255 8.11855 19.3676C8.13722 19.4098 8.1645 19.4476 8.19864 19.4787C8.23279 19.5097 8.27304 19.5332 8.31682 19.5478C8.3606 19.5623 8.40693 19.5676 8.45285 19.5631H12.4881C12.4608 19.8516 12.4486 20.1431 12.4486 20.4315Z" fill="white"/>
<path d="M91.7358 18.6129C91.8494 18.3472 91.9771 18.0877 92.1184 17.8356C92.1987 17.8105 92.2753 17.7748 92.3461 17.7294C92.3775 17.7003 92.4143 17.6778 92.4544 17.6631C92.4945 17.6485 92.5372 17.6419 92.5798 17.6439C92.6225 17.6459 92.6644 17.6563 92.703 17.6747C92.7416 17.693 92.7761 17.7188 92.8046 17.7506C92.8634 17.8168 92.8941 17.9033 92.8901 17.9918C92.8862 18.0802 92.8479 18.1636 92.7834 18.2243C92.7287 18.2789 92.4949 18.452 91.7358 18.6129Z" fill="#644E77"/>
<path d="M94.6327 11.802L93.3271 10.7301C93.0386 10.4963 92.6986 8.51971 92.5619 6.81938L92.5225 6.37305L92.5771 6.41252C92.7122 6.5159 92.825 6.64563 92.9085 6.79385C92.992 6.94207 93.0445 7.1057 93.0629 7.27483C93.3666 9.7312 93.7491 10.1047 93.7643 10.1198C94.32 10.5085 94.8088 11.556 94.9424 11.8657L95.0001 11.9932V16.6054L94.7238 16.8027C94.1165 17.2491 92.6409 18.5972 92.3706 21.4969L92.3281 21.9796L91.8545 22.0829C91.1956 22.2256 90.2058 22.3865 88.9153 22.5505H88.8273C88.7377 22.5503 88.6491 22.5316 88.567 22.4956C88.485 22.4595 88.4113 22.4069 88.3506 22.341C88.4356 21.9985 88.4964 21.6505 88.5328 21.2995C88.5982 21.2657 88.6691 21.2441 88.7423 21.2357C89.723 21.1082 90.5155 20.9868 91.1136 20.8775C91.2166 20.1002 91.4208 19.3398 91.7209 18.6154C92.4799 18.4545 92.7138 18.2814 92.7714 18.2268C92.8359 18.1661 92.8743 18.0827 92.8782 17.9943C92.8822 17.9058 92.8515 17.8193 92.7927 17.7531C92.7642 17.7213 92.7296 17.6955 92.691 17.6772C92.6524 17.6588 92.6106 17.6484 92.5679 17.6464C92.5252 17.6444 92.4826 17.651 92.4425 17.6656C92.4023 17.6803 92.3655 17.7028 92.3342 17.7319C92.2634 17.7773 92.1868 17.813 92.1065 17.8381C92.5065 17.1139 93.0366 16.4695 93.6702 15.9374V12.2635C93.5259 11.9425 93.3489 11.6372 93.1419 11.3526L94.6327 11.802Z" fill="#644E77"/>
<path d="M89.5225 7.51819C90.3387 7.5333 91.154 7.4528 91.9515 7.27832C92.0302 8.3532 92.2133 9.41787 92.498 10.4573H92.4495C92.2035 9.9199 91.9637 9.02723 91.7754 7.48175C91.0532 7.56919 90.3257 7.6047 89.5984 7.58802C89.565 7.55159 89.5407 7.53641 89.5225 7.51819Z" fill="#644E77"/>
<path d="M92.1065 6.55547C92.1065 6.55547 91.1956 6.91376 89.0702 6.8591C89.1084 6.76076 89.1085 6.65166 89.0702 6.5533C89.032 6.45495 88.9583 6.37448 88.8637 6.32775C88.8151 6.30043 88.7635 6.27613 88.7119 6.25184L88.7301 6.21844V6.20023L88.7726 6.22148C89.7249 6.29241 90.6819 6.27003 91.6298 6.15468C91.942 6.11174 92.2588 6.18878 92.5164 6.37026L92.1065 6.55547Z" fill="#644E77"/>
<path d="M88.6567 7.5329C88.9755 7.55415 89.2852 7.5663 89.5858 7.57237C89.9213 7.81176 90.2029 8.11899 90.4121 8.47415C90.6213 8.82931 90.7536 9.22447 90.8003 9.63402C90.8116 9.73548 90.8528 9.83127 90.9188 9.90916C90.9848 9.98704 91.0725 10.0435 91.1707 10.0712C91.4744 10.1563 91.8994 10.2808 92.4369 10.4417C92.5548 10.7368 92.7511 10.994 93.0047 11.1856C93.0631 11.2336 93.1142 11.2899 93.1565 11.3526L93.0381 11.3161C92.1272 11.0368 91.4258 10.8303 90.9916 10.7089C90.7641 10.6448 90.5614 10.5133 90.4102 10.3317C90.259 10.1502 90.1663 9.92701 90.1445 9.69171C90.0989 9.1725 89.771 8.19177 88.0919 7.45395L87.1567 7.04102C87.5305 7.13008 87.8938 7.25832 88.2407 7.42359C88.3714 7.48544 88.5124 7.5225 88.6567 7.5329Z" fill="#644E77"/>
<path d="M88.4962 7.10496L88.3292 7.02298C88.2418 6.97723 88.1723 6.90345 88.1318 6.81348H88.2442C88.5478 6.83169 88.815 6.84384 89.0731 6.84688C89.0762 6.85985 89.0762 6.87337 89.0731 6.88635C89.0255 6.98861 88.9397 7.06815 88.8341 7.10788C88.7285 7.14761 88.6116 7.14439 88.5083 7.09889L88.4962 7.10496Z" fill="#644E77"/>
<path d="M91.736 18.6127C90.6531 18.8111 89.5547 18.9127 88.4537 18.9164L88.4264 18.7646C88.4264 18.7038 88.4021 18.6461 88.39 18.5885C88.3657 18.4791 88.3384 18.3668 88.311 18.2575C90.6976 18.2089 91.7178 17.9721 92.1186 17.8354C91.9772 18.0875 91.8495 18.347 91.736 18.6127Z" fill="#644E77"/>
<path d="M88.538 21.2964C88.5017 21.6474 88.4409 21.9954 88.3559 22.3378C88.2584 22.2393 88.1965 22.1111 88.1798 21.9735C88.1605 21.8373 88.1848 21.6985 88.2491 21.5769C88.3135 21.4553 88.4146 21.3571 88.538 21.2964Z" fill="#644E77"/>
<path d="M88.2412 7.42085C87.8943 7.25557 87.531 7.12734 87.1572 7.03827L86.3921 6.70124L88.1319 6.81359C88.1724 6.90356 88.2419 6.97734 88.3293 7.02309L88.4962 7.10507C88.5995 7.15057 88.7164 7.1538 88.822 7.11406C88.9276 7.07433 89.0134 6.9948 89.061 6.89253C89.0641 6.87956 89.0641 6.86603 89.061 6.85306C91.1864 6.90164 92.0973 6.54943 92.0973 6.54943L92.5133 6.37939L92.5527 6.82573C92.6894 8.52606 93.0294 10.5027 93.3179 10.7365L94.6235 11.8083L93.1661 11.3529C93.1238 11.2902 93.0727 11.2339 93.0143 11.1859C92.7607 10.9943 92.5644 10.7371 92.4465 10.442H92.4951C92.2103 9.40251 92.0273 8.33784 91.9485 7.26296C91.151 7.43743 90.3357 7.51794 89.5195 7.50283C89.5407 7.52105 89.565 7.53623 89.5863 7.55748C89.2826 7.55748 88.979 7.53926 88.6572 7.51801C88.5137 7.51144 88.3727 7.47851 88.2412 7.42085Z" fill="#644E77"/>
<path d="M88.1804 21.9738C88.1971 22.1115 88.2591 22.2396 88.3565 22.3382C88.2552 22.7815 88.116 23.2152 87.9406 23.6347C87.2984 25.1732 86.2142 26.4867 84.8253 27.4088C84.6249 27.5424 84.4215 27.6639 84.2181 27.7793C83.5055 27.7428 82.7566 27.7074 81.9712 27.673C83.5941 27.2648 85.034 26.3259 86.0622 25.0056C87.0904 23.6853 87.6479 22.0593 87.646 20.3859C87.6472 19.8238 87.584 19.2635 87.4578 18.7159L87.7007 18.6582C87.7172 18.7313 87.758 18.7966 87.8165 18.8435C87.8749 18.8904 87.9476 18.9161 88.0225 18.9163H88.4567C88.5986 19.7016 88.6273 20.5033 88.5417 21.2968C88.4177 21.357 88.316 21.455 88.2511 21.5766C88.1862 21.6982 88.1614 21.8373 88.1804 21.9738Z" fill="#644E77"/>
<path d="M88.1437 6.44606C88.1941 6.34497 88.2819 6.26749 88.3885 6.23008C88.4951 6.19266 88.6121 6.19825 88.7146 6.24566C88.7662 6.26995 88.8178 6.29424 88.8664 6.32157C88.961 6.36829 89.0347 6.44876 89.0729 6.54712C89.1111 6.64547 89.1111 6.75458 89.0729 6.85292C88.8148 6.85292 88.5385 6.85292 88.244 6.81952H88.1316C88.1057 6.76029 88.0933 6.69603 88.0954 6.63142C88.0975 6.56681 88.114 6.50348 88.1437 6.44606Z" fill="#644E77"/>
<path d="M88.4263 18.765L88.4536 18.9168H88.0194C87.9444 18.9166 87.8718 18.8909 87.8133 18.844C87.7549 18.7972 87.714 18.7318 87.6975 18.6587C87.6946 18.6365 87.6946 18.6141 87.6975 18.5919C87.6967 18.5484 87.7045 18.5053 87.7204 18.4648C87.7363 18.4243 87.76 18.3874 87.7902 18.3561C87.8203 18.3248 87.8564 18.2998 87.8962 18.2824C87.9361 18.265 87.979 18.2557 88.0224 18.2549H88.3261C88.3534 18.3642 88.3807 18.4765 88.405 18.5858C88.402 18.6466 88.4171 18.7012 88.4263 18.765Z" fill="#644E77"/>
<path d="M86.2552 17.8445C86.8161 19.1496 86.9418 20.6007 86.6138 21.9828C86.2857 23.3649 85.5214 24.6047 84.4338 25.5185C83.3463 26.4324 81.9934 26.9717 80.5754 27.0568C79.1574 27.1418 77.7497 26.768 76.5608 25.9907C75.3718 25.2134 74.4647 24.0739 73.9738 22.7409C73.4829 21.4079 73.4343 19.9522 73.8352 18.5894C74.236 17.2267 75.0651 16.0292 76.1995 15.1742C77.334 14.3193 78.7136 13.8524 80.1341 13.8427V13.8062C81.44 13.7992 82.7187 14.1798 83.8083 14.8997C84.8979 15.6196 85.7495 16.6466 86.2552 17.8506V17.8445ZM84.5063 22.2563C84.8985 21.3178 84.9779 20.2781 84.7329 19.291C84.4879 18.3039 83.9315 17.4219 83.1461 16.7758C82.4553 16.1992 81.615 15.8307 80.723 15.7133C79.831 15.5958 78.9239 15.7342 78.1075 16.1123C77.291 16.4904 76.5988 17.0927 76.1114 17.8489C75.624 18.6052 75.3615 19.4844 75.3544 20.3841C75.3474 21.2838 75.596 22.167 76.0715 22.9309C76.5469 23.6947 77.2296 24.3078 78.04 24.6986C78.8504 25.0895 79.7551 25.2421 80.6489 25.1387C81.5427 25.0353 82.3887 24.6801 83.0884 24.1145C83.1755 24.0361 83.2297 23.9276 83.2402 23.8109C83.2527 23.6976 83.2247 23.5836 83.1612 23.489L83.14 23.4647C83.4329 23.1809 83.6825 22.8555 83.8809 22.4992C83.9371 22.529 83.9994 22.5456 84.063 22.5478C84.1264 22.55 84.1895 22.5386 84.2481 22.5146C84.3067 22.4905 84.3596 22.4542 84.4031 22.4081C84.4475 22.3651 84.4827 22.3134 84.5063 22.2563Z" fill="#DEDEDF"/>
<path d="M84.2119 27.7792C89.8017 28.0616 93.1356 28.4229 93.1356 28.8116C93.1356 29.7225 74.441 30.4815 51.3773 30.4815C28.3135 30.4815 9.62207 29.7346 9.62207 28.8116C9.62207 28.4594 12.3547 28.1314 16.9881 27.8642C18.174 28.4832 19.4913 28.8081 20.8291 28.8116C22.4408 28.8203 24.0212 28.3672 25.3835 27.506C32.5188 27.2782 41.5579 27.1416 51.3894 27.1416C60.4164 27.1416 68.7723 27.257 75.6009 27.4452C76.8746 28.2737 78.3489 28.7417 79.8672 28.7994C81.3855 28.8571 82.8911 28.5025 84.224 27.7732L84.2119 27.7792Z" fill="#DEDFE0"/>
<path d="M83.8779 22.505C83.6795 22.8613 83.4299 23.1866 83.1371 23.4705C83.1156 23.4406 83.0888 23.4149 83.0581 23.3946L83.7807 22.4473C83.8102 22.4711 83.8429 22.4905 83.8779 22.505Z" fill="white"/>
<path d="M82.8426 23.3102C82.7803 23.3011 82.7168 23.3074 82.6574 23.3284C82.5985 23.3478 82.5446 23.3799 82.4995 23.4225C81.776 24.0088 80.8633 24.3109 79.9329 24.272C79.0024 24.233 78.1182 23.8558 77.4462 23.211C76.7742 22.5663 76.3607 21.6984 76.2833 20.7704C76.2058 19.8423 76.4699 18.9179 77.0258 18.1708C77.5816 17.4236 78.3912 16.9051 79.3023 16.7125C80.2135 16.5199 81.1636 16.6666 81.9742 17.125C82.7849 17.5833 83.4003 18.3219 83.705 19.2019C84.0097 20.0819 83.9827 21.0429 83.629 21.9044C83.6051 21.961 83.5927 22.022 83.5926 22.0835C83.5929 22.1457 83.6042 22.2074 83.626 22.2657C83.651 22.323 83.686 22.3754 83.7292 22.4205L83.7778 22.46L83.0552 23.4073C83.0438 23.3973 83.0316 23.3881 83.0187 23.38C82.9657 23.3444 82.9057 23.3206 82.8426 23.3102Z" fill="white"/>
<path d="M77.769 27.5059C79.2568 27.5544 80.6596 27.6061 81.9652 27.6607C80.5803 28.0102 79.1244 27.9565 77.769 27.5059Z" fill="#644E77"/>
<path d="M77.6565 26.4917C78.5591 26.8638 79.5329 27.0308 80.5078 26.9809C81.4828 26.9309 82.4344 26.6651 83.2942 26.2027C84.1539 25.7403 84.9002 25.0928 85.4794 24.3069C86.0585 23.521 86.4559 22.6163 86.6429 21.6582C86.8299 20.7001 86.802 19.7124 86.5609 18.7664C86.3199 17.8205 85.8719 16.9398 85.2492 16.188C84.6265 15.4362 83.8447 14.832 82.9601 14.419C82.0756 14.006 81.1104 13.7946 80.1342 13.7999V13.8424C78.6129 13.8464 77.1401 14.3779 75.9669 15.3463C74.7937 16.3147 73.9926 17.6601 73.7003 19.153C73.4081 20.6459 73.6426 22.194 74.364 23.5334C75.0855 24.8727 76.2491 25.9204 77.6565 26.4977V26.4917ZM81.9651 27.6728C80.6594 27.6181 79.2567 27.5665 77.7689 27.5179C76.2719 27.0218 74.9695 26.0665 74.0466 24.7877C73.1238 23.5089 72.6275 21.9718 72.6284 20.3948C72.6281 20.0698 72.6494 19.7452 72.6922 19.4232C72.7329 19.3689 72.7542 19.3027 72.7529 19.2349C72.7533 19.2006 72.7471 19.1666 72.7347 19.1347C73.0261 17.423 73.902 15.8653 75.213 14.7269C76.5241 13.5885 78.1893 12.9399 79.925 12.8916C81.6607 12.8432 83.3594 13.3982 84.7318 14.4618C86.1042 15.5254 87.0654 17.032 87.4517 18.7248C87.5779 19.2725 87.641 19.8328 87.6399 20.3948C87.6397 22.0666 87.0813 23.6906 86.0532 25.009C85.0252 26.3275 83.5864 27.265 81.9651 27.6728Z" fill="#644E77"/>
<path d="M83.1457 23.4707C82.4354 24.1683 81.5049 24.5976 80.5132 24.6852C81.3502 24.6053 82.1452 24.2811 82.7995 23.7531L83.0667 23.4009C83.0969 23.4194 83.1236 23.443 83.1457 23.4707Z" fill="#644E77"/>
<path d="M82.8426 17.0824C82.1766 16.5308 81.3596 16.1932 80.4985 16.1138C81.5706 16.2058 82.569 16.6967 83.2966 17.4894C84.0241 18.2821 84.4277 19.319 84.4275 20.395C84.4291 21.1347 84.2376 21.8621 83.8719 22.5052C83.8369 22.4908 83.8041 22.4713 83.7747 22.4475L84.0601 22.071C84.4217 21.2195 84.4988 20.2741 84.28 19.3753C84.0612 18.4765 83.5581 17.6723 82.8456 17.0824H82.8426Z" fill="#644E77"/>
<path d="M80.5042 16.1136H80.3281C80.3868 16.1106 80.4456 16.1106 80.5042 16.1136Z" fill="#644E77"/>
<path d="M79.8643 16.1049H79.7246C79.7711 16.1018 79.8178 16.1018 79.8643 16.1049Z" fill="#644E77"/>
<path d="M80.1345 28.8119C78.5165 28.8104 76.9339 28.3377 75.5801 27.4517L77.7602 27.5185C79.1155 27.9691 80.5714 28.0228 81.9563 27.6733C82.7397 27.7057 83.4886 27.7411 84.2032 27.7796C82.9559 28.4618 81.5562 28.8169 80.1345 28.8119Z" fill="#644E77"/>
<path d="M79.4751 24.6465L79.6876 24.6738C79.6178 24.6677 79.5449 24.6586 79.4751 24.6465Z" fill="#644E77"/>
<path d="M79.0557 16.2292C79.2426 16.1784 79.4336 16.1439 79.6265 16.126C79.4342 16.1478 79.2435 16.1823 79.0557 16.2292Z" fill="#644E77"/>
<path d="M76.2714 20.7864C76.3321 21.4791 76.5804 22.1423 76.9896 22.7046C77.3988 23.267 77.9534 23.7072 78.5939 23.9782C79.2344 24.2491 79.9366 24.3405 80.6251 24.2425C81.3136 24.1444 81.9624 23.8608 82.5019 23.4219C82.5469 23.3793 82.6008 23.3471 82.6598 23.3277C82.7191 23.3068 82.7827 23.3005 82.845 23.3095C82.9071 23.3162 82.9671 23.3359 83.0211 23.3672C83.0339 23.3753 83.0461 23.3845 83.0575 23.3945L82.7903 23.7468C82.136 24.2748 81.341 24.5989 80.504 24.6789H80.3522H80.1305H80.1093H79.9149C79.8421 24.6789 79.7662 24.6789 79.6933 24.6637L79.4807 24.6364C78.5025 24.4846 77.6064 24.0001 76.9438 23.2646C76.2812 22.5291 75.8924 21.5875 75.8432 20.5987C75.794 19.61 76.0873 18.6345 76.6736 17.8368C77.2599 17.0391 78.1034 16.4679 79.0617 16.2198C79.2495 16.1728 79.4402 16.1383 79.6326 16.1165H79.7297H79.8694C79.927 16.1135 79.9848 16.1135 80.0425 16.1165H80.1093H80.3339H80.5101C81.1819 16.1808 81.8292 16.4024 82.3995 16.7635C82.9697 17.1246 83.4469 17.6149 83.7923 18.1948C84.1376 18.7747 84.3416 19.4278 84.3875 20.1012C84.4334 20.7746 84.32 21.4493 84.0565 22.0707L83.771 22.4472L83.7225 22.4077C83.6792 22.3626 83.6443 22.3102 83.6192 22.2529C83.5974 22.1946 83.5861 22.1329 83.5858 22.0707C83.5859 22.0092 83.5983 21.9483 83.6223 21.8916C83.8384 21.3556 83.9303 20.7776 83.891 20.201C83.8518 19.6244 83.6824 19.0642 83.3957 18.5625C83.1089 18.0607 82.7122 17.6304 82.2353 17.304C81.7584 16.9775 81.2138 16.7633 80.6423 16.6775C80.0707 16.5917 79.4872 16.6365 78.9355 16.8085C78.3837 16.9805 77.8781 17.2752 77.4567 17.6706C77.0352 18.066 76.7087 18.5518 76.5019 19.0914C76.295 19.631 76.2131 20.2105 76.2623 20.7864H76.2714Z" fill="#644E77"/>
<path d="M75.9957 21.6523C75.7248 20.7683 75.7463 19.8205 76.057 18.9496C76.3677 18.0788 76.951 17.3314 77.7203 16.8185C78.1279 16.5458 78.5801 16.3465 79.0563 16.2295C78.0979 16.4777 77.2545 17.0488 76.6681 17.8465C76.0818 18.6442 75.7886 19.6197 75.8378 20.6085C75.887 21.5972 76.2757 22.5388 76.9384 23.2743C77.601 24.0098 78.497 24.4944 79.4753 24.6461C78.6712 24.5282 77.9172 24.1842 77.3011 23.6541C76.685 23.1241 76.2323 22.4298 75.9957 21.6523Z" fill="#644E77"/>
<path d="M75.6739 18.8349C75.8923 18.2464 76.2255 17.7072 76.6541 17.2486C77.0827 16.7899 77.5982 16.4211 78.1706 16.1634C78.743 15.9058 79.3609 15.7645 79.9884 15.7478C80.6159 15.731 81.2405 15.8392 81.8258 16.066C82.4111 16.2927 82.9455 16.6336 83.398 17.0687C83.8504 17.5038 84.2119 18.0245 84.4613 18.6006C84.7107 19.1766 84.8432 19.7965 84.8509 20.4242C84.8587 21.0519 84.7416 21.6748 84.5065 22.2568C84.4861 22.3178 84.453 22.3737 84.4093 22.4208C84.3658 22.4669 84.313 22.5032 84.2544 22.5273C84.1957 22.5513 84.1326 22.5627 84.0693 22.5605C84.0057 22.5583 83.9433 22.5417 83.8871 22.5119C84.2528 21.8688 84.4443 21.1414 84.4427 20.4017C84.4429 19.3257 84.0393 18.2888 83.3118 17.4961C82.5843 16.7034 81.5858 16.2125 80.5138 16.1205C80.4551 16.1175 80.3963 16.1175 80.3377 16.1205H80.113H80.0462C79.9885 16.1174 79.9308 16.1174 79.8731 16.1205C79.8266 16.1174 79.7799 16.1174 79.7334 16.1205H79.6363C79.4434 16.1384 79.2524 16.1729 79.0655 16.2237C78.5892 16.3407 78.1371 16.5401 77.7295 16.8127C77.0061 17.2941 76.4456 17.9834 76.1221 18.7898C75.7985 19.5962 75.7271 20.4818 75.9172 21.3296C76.1073 22.1774 76.55 22.9477 77.1868 23.5388C77.8237 24.1299 78.6248 24.5139 79.4845 24.6403C79.5543 24.6403 79.6272 24.6616 79.697 24.6677C79.7668 24.6737 79.8458 24.6677 79.9187 24.6828C79.9915 24.698 80.0492 24.6828 80.113 24.6828H80.1403H80.3619H80.5138C81.5055 24.5952 82.436 24.1659 83.1462 23.4683L83.1675 23.4926C83.231 23.5872 83.2589 23.7012 83.2464 23.8145C83.2359 23.9312 83.1817 24.0397 83.0946 24.1181C82.2922 24.7659 81.2998 25.1334 80.269 25.1644C79.2382 25.1955 78.2255 24.8884 77.3856 24.29C76.5456 23.6916 75.9245 22.8348 75.6171 21.8504C75.3097 20.866 75.3329 19.808 75.683 18.838L75.6739 18.8349Z" fill="#644E77"/>
<path d="M80.1341 12.8889C78.3619 12.8889 76.6468 13.5159 75.2925 14.659C73.9382 15.8021 73.0321 17.3875 72.7346 19.1346C72.7143 19.0696 72.674 19.0127 72.6195 18.9718C72.565 18.9309 72.4991 18.9082 72.431 18.9069H71.8936C72.2345 17.0214 73.2083 15.3086 74.6542 14.0514C76.1001 12.7941 77.9315 12.0677 79.8461 11.9919C81.7606 11.9162 83.6437 12.4957 85.1844 13.6348C86.7251 14.7739 87.8312 16.4045 88.32 18.2571H88.0163C87.9729 18.2579 87.93 18.2672 87.8901 18.2846C87.8503 18.302 87.8142 18.327 87.7841 18.3583C87.7539 18.3896 87.7302 18.4266 87.7143 18.467C87.6984 18.5075 87.6906 18.5507 87.6914 18.5941C87.6885 18.6163 87.6885 18.6388 87.6914 18.6609L87.4485 18.7186C87.0691 17.0625 86.1391 15.5841 84.8104 14.5251C83.4817 13.4662 81.8331 12.8893 80.1341 12.8889Z" fill="#644E77"/>
<path d="M72.7344 19.1348C72.7468 19.1667 72.753 19.2007 72.7526 19.235C72.754 19.3027 72.7326 19.369 72.6919 19.4232C72.704 19.3261 72.7162 19.2289 72.7344 19.1348Z" fill="#644E77"/>
<path d="M72.6285 20.3949C72.6302 21.9698 73.1276 23.5043 74.0503 24.7806C74.9729 26.057 76.274 27.0105 77.769 27.5059L75.5889 27.4391C75.0941 27.1209 74.635 26.7504 74.2195 26.3339C72.6486 24.7652 71.7613 22.6392 71.751 20.4192C71.75 20.1302 71.7642 19.8413 71.7935 19.5538H72.4221C72.4753 19.5538 72.5277 19.5408 72.5748 19.5159C72.6219 19.491 72.6622 19.4551 72.6923 19.4111C72.649 19.7372 72.6276 20.0659 72.6285 20.3949Z" fill="#644E77"/>
<path d="M71.3345 22.041L72.1422 23.1037H70.8001H30.2078C30.0325 23.1029 29.8646 23.0329 29.7407 22.909C29.6167 22.785 29.5467 22.6171 29.5459 22.4418C29.5468 22.3749 29.5571 22.3085 29.5763 22.2444C29.6193 22.1107 29.7035 21.9939 29.817 21.911C29.9305 21.8281 30.0673 21.7832 30.2078 21.7829H70.5633C70.6932 21.7351 70.8352 21.7308 70.9678 21.7708C71.1003 21.8108 71.2163 21.8929 71.2981 22.0046C71.3114 22.0155 71.3236 22.0277 71.3345 22.041Z" fill="#644E77"/>
<path d="M72.422 19.5666H71.7935C71.7935 19.4543 71.8177 19.3449 71.8329 19.2356C71.8481 19.1263 71.8663 19.017 71.8846 18.9077H72.422C72.4901 18.9091 72.556 18.9318 72.6105 18.9726C72.665 19.0135 72.7052 19.0704 72.7256 19.1354C72.7074 19.2296 72.6952 19.3267 72.6831 19.4239C72.6539 19.4666 72.615 19.5018 72.5697 19.5266C72.5243 19.5514 72.4737 19.5651 72.422 19.5666Z" fill="#644E77"/>
<path d="M58.3515 18.9077H71.8844C71.8661 19.017 71.8479 19.1263 71.8327 19.2356C71.8175 19.3449 71.8024 19.4543 71.7933 19.5666H58.1572V19.2356L58.3515 18.9077Z" fill="#644E77"/>
<path d="M61.0536 1.41535L58.6245 0.87793L77.5285 5.08017C79.572 5.03766 86.2397 5.00123 88.7295 6.20664V6.22486L88.7112 6.25826C88.6312 6.22214 88.5421 6.21096 88.4556 6.22618C88.3691 6.24139 88.2892 6.2823 88.2263 6.34357C88.1634 6.40484 88.1204 6.48364 88.1029 6.56969C88.0854 6.65575 88.0943 6.74508 88.1283 6.82605L86.3885 6.7137L87.1536 7.05073C84.8916 6.47687 80.7956 6.33113 77.5802 6.39793H77.5589C77.4566 6.40243 77.3542 6.39116 77.2553 6.36453L61.3116 2.82116L61.3511 2.3809L61.3967 1.88902C61.4081 1.78163 61.3793 1.67383 61.316 1.58637C61.2526 1.49892 61.1591 1.438 61.0536 1.41535Z" fill="#644E77"/>
<path d="M61.0538 1.41535C61.1566 1.43911 61.2473 1.49922 61.3092 1.58459C61.3712 1.66996 61.4001 1.77485 61.3908 1.87991L61.3453 2.37179L61.3058 2.81205L61.0204 2.74829L61.1145 1.73113L58.6855 1.1937C58.66 1.15884 58.6326 1.12539 58.6035 1.09351L58.6248 0.87793L61.0538 1.41535Z" fill="#644E77"/>
<path d="M60.4922 2.18015L60.4527 2.61738L59.5873 2.42609C59.4589 2.51857 59.3019 2.56267 59.144 2.55058C58.9787 2.53656 58.8247 2.46066 58.7129 2.33804L58.7493 1.7915L60.4922 2.18015Z" fill="#DEDFE0"/>
<path d="M61.0202 2.74813L60.753 5.6812L59.4292 5.87856L59.4505 5.70245C59.4581 5.644 59.4581 5.5848 59.4505 5.52635L60.2004 5.41704L60.4555 2.62061L61.0202 2.74813Z" fill="#644E77"/>
<path d="M61.3059 2.81198L61.0296 5.84828C61.0196 5.94041 60.9798 6.02677 60.9163 6.09419C60.8527 6.1616 60.7688 6.2064 60.6774 6.22175L59.3657 6.41911C59.384 6.36183 59.3962 6.30281 59.4022 6.243C59.4022 6.14584 59.4265 6.0426 59.4386 5.93937V5.88775L60.7624 5.69039L61.0296 2.75732L61.3059 2.81198Z" fill="#644E77"/>
<path d="M59.4627 5.52637C59.4703 5.58482 59.4703 5.64402 59.4627 5.70247L59.4415 5.87858L58.4941 6.02128V5.83607V5.66604L59.4627 5.52637Z" fill="#644E77"/>
<path d="M58.8708 4.97075C58.7606 4.95706 58.6488 4.97169 58.5459 5.01325L58.6309 3.68335V3.66514L58.7129 2.34131C58.8247 2.46392 58.9787 2.53983 59.1441 2.55385C59.3019 2.56594 59.4589 2.52184 59.5874 2.42936L60.4527 2.62065L60.1976 5.41708L59.4477 5.52639C59.4254 5.38346 59.357 5.25175 59.2528 5.15141C59.1486 5.05106 59.0144 4.9876 58.8708 4.97075Z" fill="#DEDFE0"/>
<path d="M58.5517 5.01331C58.6546 4.97175 58.7664 4.95712 58.8766 4.9708C59.0202 4.98766 59.1544 5.05111 59.2586 5.15146C59.3628 5.2518 59.4312 5.38351 59.4535 5.52644L58.5122 5.66611L58.5517 5.01331Z" fill="#DEDFE0"/>
<path d="M58.4666 6.28545L58.4818 6.0304L59.4291 5.8877V5.93931C59.4291 6.05166 59.4048 6.15489 59.3926 6.24294C59.3866 6.30275 59.3744 6.36177 59.3562 6.41905L58.4453 6.55568V6.28545H58.4666Z" fill="#644E77"/>
<path d="M58.7494 1.79504L58.7797 1.30619C58.755 1.26694 58.7276 1.22941 58.6978 1.19385L61.1268 1.73127L61.0327 2.74844L60.4649 2.62091L60.5044 2.18368L58.7494 1.79504Z" fill="#644E77"/>
<path d="M58.7493 1.79486L58.7129 2.3414C58.687 2.31207 58.6636 2.28058 58.6431 2.24727C58.6431 2.0742 58.6765 1.91631 58.6886 1.78271L58.7493 1.79486Z" fill="#644E77"/>
<path d="M58.6975 1.19346L58.6064 1.1722V1.09326C58.6387 1.12491 58.6691 1.15836 58.6975 1.19346Z" fill="#644E77"/>
<path d="M58.3875 4.59761C58.4209 4.29398 58.4573 3.95999 58.4907 3.64421C58.512 3.43471 58.5363 3.2252 58.5545 3.03695C58.5545 2.93979 58.5757 2.8487 58.5849 2.75458C58.5939 2.69928 58.6 2.64353 58.6031 2.58758C58.6031 2.54507 58.6031 2.50864 58.6183 2.46613C58.6334 2.42362 58.6334 2.32646 58.6425 2.2627C58.6631 2.296 58.6865 2.32749 58.7124 2.35682L58.6304 3.68065V3.69887L58.5454 5.02877C58.4608 5.06307 58.385 5.116 58.3237 5.18362C58.3419 4.98626 58.3662 4.79497 58.3875 4.59761Z" fill="#644E77"/>
<path d="M58.7792 1.30553L58.7488 1.79438H58.6881C58.6881 1.92798 58.6577 2.09801 58.6426 2.25893C58.5629 2.13793 58.5275 1.99313 58.5424 1.84903C58.5424 1.79742 58.5424 1.7458 58.5576 1.69722L58.6061 1.18408L58.6972 1.20534C58.7266 1.23699 58.754 1.27045 58.7792 1.30553Z" fill="#644E77"/>
<path d="M58.3239 5.16804C58.3852 5.10042 58.461 5.04749 58.5456 5.01318L58.5061 5.66599L58.2632 5.70243C58.2814 5.55061 58.2996 5.3988 58.3178 5.21358C58.3209 5.1984 58.3209 5.18322 58.3239 5.16804Z" fill="#644E77"/>
<path d="M58.4058 0.826462L58.6366 0.878081L58.6153 1.09366C58.5731 1.04688 58.5285 1.00229 58.4817 0.96006C58.4246 0.906341 58.3614 0.859468 58.2935 0.820391C58.331 0.817856 58.3687 0.819894 58.4058 0.826462Z" fill="#644E77"/>
<path d="M57.7475 18.9077H58.3548L58.1605 19.2356H57.5532L57.7475 18.9077Z" fill="#644E77"/>
<path d="M58.3241 5.16817C58.2202 5.26938 58.1547 5.40354 58.1389 5.5477L58.0933 5.93635H58.0508L57.9385 5.96368C58.1207 4.37569 58.4638 1.12988 58.4638 1.12988L58.6065 1.16025L58.5518 1.69767C58.5518 1.74625 58.5518 1.79787 58.5366 1.84949C58.5218 1.99358 58.5572 2.13838 58.6368 2.25939C58.6368 2.32315 58.6186 2.39298 58.6125 2.46282C58.6065 2.53265 58.6125 2.54176 58.5974 2.58427C58.5943 2.64022 58.5882 2.69597 58.5791 2.75127C58.5791 2.84539 58.5609 2.93648 58.5488 3.03365C58.5306 3.22797 58.5063 3.43747 58.485 3.64091C58.4516 3.94454 58.4152 4.27853 58.3818 4.5943C58.3666 4.7947 58.3423 4.98599 58.3241 5.16817Z" fill="#644E77"/>
<path d="M58.1383 5.54702C58.1542 5.40286 58.2197 5.26869 58.3236 5.16748C58.3236 5.16748 58.3236 5.19784 58.3236 5.21303C58.3053 5.38609 58.2871 5.55006 58.2689 5.70187L58.5118 5.66543V5.83547V6.02068L58.1049 6.08444L57.9531 6.1057C57.9531 6.06319 57.9531 6.02068 57.9531 5.97514L58.0655 5.94781H58.108L58.1383 5.54702Z" fill="#644E77"/>
<path d="M57.3369 6.10008C57.5707 6.05757 57.7711 6.01506 57.929 5.97559C57.929 6.02113 57.929 6.06364 57.929 6.10615L58.0808 6.08489L58.4877 6.02113L58.4725 6.27618V6.54641L57.9047 6.63143H57.8592H57.7954C57.6827 6.62964 57.5746 6.58641 57.4918 6.50998C57.4446 6.46266 57.4086 6.40536 57.3866 6.3423C57.3645 6.27924 57.3569 6.21203 57.3642 6.14562L57.3369 6.10008Z" fill="#644E77"/>
<path d="M58.8948 8.09202L57.6074 7.39367C57.9323 7.33294 58.1934 7.27525 58.3878 7.22363L59.326 7.73373L59.3624 7.83089C59.4171 7.99789 60.7287 11.9937 60.6377 13.7669C60.5769 14.9146 59.2986 17.292 58.3513 18.9073H57.7441C58.6732 17.3376 60.0547 14.8387 60.1124 13.7456C60.1944 12.2123 59.0982 8.72357 58.8948 8.09202Z" fill="#644E77"/>
<path d="M57.9836 7.00502L57.519 6.753H58.0716H58.433V6.56779L59.3439 6.43115C59.2978 6.58832 59.2167 6.73303 59.1069 6.85449C58.997 6.97594 58.8611 7.07099 58.7093 7.13254C58.6023 7.17395 58.4928 7.20843 58.3814 7.23577L57.9836 7.00502Z" fill="#644E77"/>
<path d="M57.3369 6.10072C57.4978 4.7192 57.7924 1.9258 57.8531 1.32461C57.8531 1.25174 57.8683 1.21227 57.8683 1.20923C57.8754 1.14896 57.895 1.09084 57.9259 1.03857C57.9567 0.986291 57.9981 0.941009 58.0474 0.905605C58.1158 0.854556 58.1989 0.826877 58.2842 0.82666C58.3522 0.865738 58.4154 0.912611 58.4725 0.96633C58.5193 1.00856 58.5639 1.05315 58.6061 1.09993V1.17887L58.4634 1.14851C58.4634 1.14851 58.1203 4.39432 57.9381 5.9823C57.7802 6.0157 57.5798 6.05821 57.3369 6.10072Z" fill="#644E77"/>
<path d="M56.6055 6.25195L57.5012 6.73776H57.5194C57.3281 6.73776 57.1399 6.73776 56.9607 6.72258C56.7512 6.72258 56.5508 6.70133 56.3687 6.68614L56.6055 6.25195Z" fill="#644E77"/>
<path d="M56.9609 6.73767C57.1401 6.73767 57.3283 6.73767 57.5196 6.75285L57.9842 7.00487L58.388 7.22348C58.1937 7.27509 57.9326 7.33279 57.6077 7.39351L56.8729 6.99272L56.6816 6.88949L56.3628 6.71338C56.545 6.71338 56.7454 6.74071 56.9549 6.74982L56.9609 6.73767Z" fill="#644E77"/>
<path d="M57.6075 7.39368C54.7473 7.9311 47.1627 8.76608 41.5151 9.25189C41.7438 9.05447 41.9316 8.81411 42.0677 8.54444C42.1681 8.34895 42.2212 8.13263 42.2226 7.91289C42.2241 7.89571 42.2241 7.87844 42.2226 7.86127C46.5281 7.47869 51.7536 6.91698 55.0753 6.4585C55.4754 6.60601 55.8969 6.68703 56.3232 6.69836H56.3627L56.6815 6.87447L56.8728 6.9777L57.6075 7.39368Z" fill="#644E77"/>
<path d="M57.3376 6.16685C57.3303 6.23326 57.3379 6.30047 57.36 6.36353C57.382 6.42659 57.418 6.48389 57.4651 6.53121C57.548 6.60764 57.6561 6.65087 57.7688 6.65266H57.8325H57.8781L58.4459 6.56764V6.75286H58.0846H57.5198H57.5016L56.6059 6.26705L56.366 6.71338H56.3265C55.9003 6.70205 55.4787 6.62103 55.0786 6.47352C55.9895 6.34296 56.7789 6.22454 57.3467 6.11523L57.3376 6.16685Z" fill="#644E77"/>
<path d="M56.7304 3.03935C56.8246 2.28027 56.9126 1.6305 57.359 1.1204C57.6079 0.841064 57.8357 0.710504 58.0482 0.734794C58.1324 0.74565 58.2132 0.774657 58.285 0.81981C58.1997 0.820027 58.1166 0.847706 58.0482 0.898755C57.9989 0.934159 57.9575 0.979439 57.9267 1.03171C57.8958 1.08399 57.8762 1.14211 57.8691 1.20239C57.8691 1.20239 57.8691 1.24489 57.8539 1.31776C57.7932 1.92502 57.4986 4.71235 57.3377 6.09387C56.7699 6.20318 55.9926 6.32159 55.0696 6.45215H55.0483C55.1042 6.38184 55.1684 6.31862 55.2396 6.2639C56.4511 5.27407 56.606 4.08687 56.7304 3.03935Z" fill="#644E77"/>
<path d="M53.3901 9.39453H56.9031C56.9904 9.39453 57.0741 9.42898 57.1361 9.49039C57.1981 9.5518 57.2333 9.6352 57.2341 9.72245C57.2333 9.81027 57.1983 9.89431 57.1365 9.9567C57.0746 10.0191 56.9909 10.0549 56.9031 10.0564H53.3901C53.3082 10.0486 53.2322 10.0105 53.1768 9.94955C53.1215 9.88864 53.0908 9.8093 53.0908 9.72701C53.0908 9.64471 53.1215 9.56537 53.1768 9.50446C53.2322 9.44355 53.3082 9.40544 53.3901 9.39757V9.39453Z" fill="#644E77"/>
<path d="M43.5593 0.938477C43.5896 1.19353 43.6169 1.43643 43.6352 1.6763C42.3022 2.15603 39.1688 3.77135 36.1294 5.31986C34.256 6.2854 32.4676 7.20844 31.2531 7.78837C29.8109 7.72157 28.0741 7.67603 26.2463 7.69729L25.7271 7.61834C32.9626 4.32395 39.8094 1.75828 43.5593 0.938477Z" fill="#DEDFE0"/>
<path d="M42.229 7.91252C42.2275 8.13226 42.1745 8.34859 42.0741 8.54407C41.9379 8.81375 41.7502 9.0541 41.5215 9.25153L40.7837 9.31529V9.28796C41.4679 8.8305 41.8059 8.37201 41.7978 7.91252L42.229 7.87305C42.2298 7.88619 42.2298 7.89938 42.229 7.91252Z" fill="#644E77"/>
<path d="M41.5219 9.25146C41.3656 9.39203 41.1991 9.52091 41.0239 9.63708C40.9519 9.68483 40.8674 9.71019 40.781 9.70995H37.2528C37.1396 9.71091 37.0306 9.66728 36.9492 9.58849C37.9694 9.53384 39.2902 9.43972 40.778 9.31523L41.5219 9.25146Z" fill="#644E77"/>
<path d="M41.3576 7.93739C39.8242 8.07099 38.4427 8.17726 37.3527 8.24102L37.1037 7.53356C37.081 7.47135 37.0739 7.40453 37.0829 7.33892C37.0919 7.2733 37.1167 7.21088 37.1553 7.15706C37.1933 7.10285 37.2437 7.05855 37.3024 7.02791C37.361 6.99726 37.4262 6.98116 37.4924 6.98096H40.638C40.9872 7.23297 41.3545 7.58822 41.3545 7.91006C41.3574 7.91886 41.3585 7.92817 41.3576 7.93739Z" fill="#EBECE6"/>
<path d="M37.353 8.24357C38.4431 8.17677 39.8246 8.0705 41.3579 7.93994C41.3005 8.22621 41.1353 8.47948 40.8964 8.6474C40.8144 8.71724 40.7294 8.78403 40.6444 8.84476H37.5625L37.353 8.24357Z" fill="#EBECE6"/>
<path d="M40.7808 9.28821H37.2556L36.9004 8.28016L37.3528 8.25587L37.5623 8.86313H40.6381C40.7231 8.8024 40.8081 8.7356 40.8901 8.66577C41.1289 8.49785 41.2942 8.24458 41.3516 7.95831L41.7888 7.92188C41.799 8.3672 41.4629 8.82264 40.7808 9.28821Z" fill="#644E77"/>
<path d="M37.255 9.28833H40.7802V9.3278C39.2924 9.45229 37.9716 9.54641 36.9514 9.60106C36.9018 9.55526 36.8642 9.49789 36.8421 9.43407L36.6751 8.95433L36.4443 8.30153C36.587 8.30153 36.748 8.30153 36.8967 8.28027L37.255 9.28833Z" fill="#644E77"/>
<path d="M37.4923 6.9839C37.4261 6.9841 37.361 7.0002 37.3023 7.03085C37.2437 7.0615 37.1932 7.10579 37.1553 7.16001C37.1167 7.21382 37.0918 7.27625 37.0828 7.34186C37.0738 7.40747 37.081 7.47429 37.1037 7.53651L37.3526 8.24396L36.9002 8.26826L36.6938 7.68225C36.6479 7.55449 36.6334 7.41754 36.6517 7.28303C36.6701 7.14851 36.7205 7.02039 36.7989 6.90954C36.8773 6.79869 36.9812 6.70838 37.1019 6.64627C37.2226 6.58416 37.3566 6.55207 37.4923 6.55274H40.7806C41.4486 7.00212 41.7867 7.45149 41.7948 7.90086L41.3575 7.9373C41.359 7.92927 41.359 7.92104 41.3575 7.91301C41.3575 7.57902 40.9901 7.23591 40.641 6.9839H37.4923Z" fill="#644E77"/>
<path d="M36.2841 7.82811C36.2154 7.63427 36.1943 7.42674 36.2227 7.22306C36.2511 7.01937 36.3281 6.82551 36.4472 6.65786C36.5664 6.4902 36.7241 6.35369 36.9071 6.25984C37.0901 6.16599 37.293 6.11757 37.4986 6.11867H40.7869C40.8728 6.11889 40.9569 6.14308 41.0298 6.18851C41.8041 6.71379 42.211 7.27247 42.2444 7.86151L41.8132 7.90098C41.8132 7.45161 41.4752 7.00223 40.7991 6.55286H37.4925C37.3568 6.55219 37.2229 6.58427 37.1022 6.64639C36.9815 6.7085 36.8775 6.79881 36.7991 6.90966C36.7208 7.02051 36.6703 7.14863 36.652 7.28315C36.6337 7.41766 36.6481 7.55461 36.694 7.68237L36.9005 8.26837C36.7426 8.26837 36.5968 8.28659 36.4481 8.28963L36.2841 7.82811Z" fill="#644E77"/>
<path d="M35.5214 8.25315C35.4921 8.22531 35.4607 8.19992 35.4272 8.17725C35.4619 8.19819 35.4936 8.22373 35.5214 8.25315Z" fill="#644E77"/>
<path d="M35.2791 8.10464C35.2587 8.09579 35.2373 8.08966 35.2153 8.08643C35.2373 8.08966 35.2587 8.09579 35.2791 8.10464Z" fill="#644E77"/>
<path d="M35.3517 8.96615C35.1664 9.10885 34.9903 9.24245 34.8233 9.3639H34.7231C34.611 9.26191 34.521 9.13787 34.459 8.99955C34.5804 8.91149 34.708 8.81737 34.8385 8.71717C34.9691 8.61697 35.1422 8.48641 35.294 8.35889L35.6249 8.75968L35.3517 8.96615Z" fill="#644E77"/>
<path d="M34.8234 9.36444C34.9904 9.24299 35.1665 9.10939 35.3517 8.96669L35.622 8.74503L35.291 8.34424C35.1362 8.47177 34.9874 8.59322 34.8356 8.70253C34.6837 8.81183 34.5775 8.89685 34.456 8.9849C34.3875 8.82573 34.3845 8.64597 34.4475 8.48457C34.5106 8.32317 34.6348 8.19313 34.793 8.12259C34.8964 8.07488 35.0108 8.05599 35.124 8.06794C35.1539 8.07079 35.1835 8.0769 35.2121 8.08616C35.234 8.08939 35.2555 8.09552 35.2758 8.10437C35.3295 8.1193 35.3799 8.144 35.4246 8.17725C35.458 8.19992 35.4895 8.22531 35.5187 8.25315C35.5412 8.27323 35.5616 8.29562 35.5794 8.31995C35.6844 8.45313 35.7334 8.62191 35.7161 8.79058C35.7024 8.95545 35.6275 9.10923 35.5061 9.22162C35.3848 9.33402 35.2257 9.39689 35.0602 9.39784H34.9904L34.8234 9.36444Z" fill="#644E77"/>
<path d="M35.4576 9.64026C35.2091 9.64073 34.968 9.55607 34.7744 9.40039L34.823 9.36396L34.993 9.38217H35.0629C35.2283 9.38122 35.3874 9.31836 35.5088 9.20596C35.6301 9.09356 35.705 8.93978 35.7187 8.77491C35.736 8.60625 35.687 8.43747 35.5821 8.30429C35.8189 8.30429 36.1104 8.30429 36.4474 8.27393L36.6782 8.92673L36.8452 9.40647C36.8673 9.47029 36.9048 9.52765 36.9545 9.57346C36.3351 9.62204 35.825 9.64026 35.4576 9.64026Z" fill="#644E77"/>
<path d="M34.8233 9.36447L34.7748 9.40091L34.7231 9.3584L34.8233 9.36447Z" fill="#644E77"/>
<path d="M34.4591 8.98486C34.5212 9.12319 34.6111 9.24723 34.7233 9.34922C34.5563 9.331 34.3134 9.31278 34.0098 9.28849C34.1434 9.1974 34.2921 9.09417 34.4561 8.98486H34.4591Z" fill="#644E77"/>
<path d="M34.7741 9.4006C34.2914 9.74977 33.9118 9.98964 33.76 10.0838C33.5718 10.4997 32.5242 13.1444 33.2165 18.9073H32.6912C31.92 12.5037 33.259 9.90159 33.3289 9.7771L33.3623 9.71334L33.426 9.67386C33.426 9.67386 33.6598 9.53419 34.009 9.29736C34.3126 9.32165 34.5555 9.33987 34.7225 9.35809L34.7741 9.4006Z" fill="#644E77"/>
<path d="M33.2167 18.9077C33.2167 19.017 33.241 19.1263 33.2562 19.2356H32.7431C32.7279 19.1263 32.7158 19.017 32.7036 18.9077H33.2167Z" fill="#644E77"/>
<path d="M31.2525 7.80324C31.0065 7.92166 30.7818 8.02489 30.5875 8.10687C29.2758 8.05525 27.5269 7.89129 26.2456 7.70912C28.0735 7.6909 29.8102 7.73644 31.2525 7.80324Z" fill="#644E77"/>
<path d="M29.2365 19.5659C29.3244 20.4189 29.2793 21.2803 29.1029 22.1194C28.994 22.6388 28.8375 23.147 28.6354 23.6376C27.9932 25.1761 26.909 26.4896 25.5201 27.4117L25.3713 27.5089C24.5455 27.5332 23.7459 27.5605 22.9727 27.5909C24.5218 27.1292 25.8806 26.1797 26.8467 24.8837C27.8128 23.5877 28.3347 22.0144 28.3348 20.3979C28.3354 20.1208 28.3192 19.844 28.2862 19.569L29.2365 19.5659Z" fill="#644E77"/>
<path d="M29.1971 19.2356C29.2123 19.3449 29.2244 19.4573 29.2366 19.5666H28.2862C28.2652 19.3453 28.2317 19.1253 28.186 18.9077H29.1485C29.1668 19.0049 29.185 19.1263 29.1971 19.2356Z" fill="#644E77"/>
<path d="M58.1573 19.5666H29.2365C29.2365 19.4573 29.2122 19.3449 29.197 19.2356C29.1818 19.1263 29.1667 19.017 29.1484 18.9077H32.6918C32.6918 19.017 32.7161 19.1263 32.7313 19.2356H33.2566C33.2414 19.1263 33.2292 19.017 33.2171 18.9077H57.7474L57.553 19.2356H58.1603L58.1573 19.5666Z" fill="#644E77"/>
<path d="M28.286 19.5666H27.4085C27.3933 19.4573 27.3781 19.3449 27.3568 19.2356C27.3356 19.1263 27.3174 19.017 27.29 18.9077H28.2009C28.2415 19.1256 28.2699 19.3456 28.286 19.5666Z" fill="#644E77"/>
<path d="M27.4087 19.566C27.5346 20.5611 27.4321 21.5718 27.1091 22.5214C26.786 23.471 26.2509 24.3346 25.5444 25.0465C24.6232 25.9731 23.4477 26.6053 22.1668 26.863C20.8859 27.1207 19.5574 26.9923 18.3495 26.4941C17.1417 25.9958 16.109 25.1502 15.3823 24.0644C14.6556 22.9786 14.2676 21.7015 14.2676 20.3949C14.2684 20.1177 14.2877 19.8408 14.3253 19.566H16.1713C15.9881 20.5169 16.1019 21.5011 16.4972 22.3851C16.8926 23.2691 17.5503 24.01 18.3812 24.5073C19.2121 25.0047 20.1759 25.2343 21.1417 25.1651C22.1076 25.0959 23.0288 24.7312 23.7803 24.1205C23.8617 24.0439 23.9137 23.9411 23.927 23.8301C23.9403 23.7191 23.9142 23.6069 23.8532 23.5132L23.8319 23.4889C24.1248 23.2051 24.3744 22.8797 24.5728 22.5234C24.6302 22.5504 24.693 22.5645 24.7565 22.5645C24.82 22.5645 24.8827 22.5504 24.9402 22.5234C24.9995 22.4992 25.0533 22.463 25.0981 22.4171C25.1409 22.3699 25.173 22.3139 25.1922 22.2532C25.5463 21.4031 25.6455 20.4684 25.4776 19.563L27.4087 19.566Z" fill="#DEDEDF"/>
<path d="M27.4085 19.5666H25.4865C25.4683 19.4755 25.4501 19.3814 25.4258 19.2903C25.4015 19.1992 25.356 19.0322 25.3135 18.9077H27.278C27.3053 19.017 27.3265 19.1263 27.3448 19.2356C27.363 19.3449 27.3933 19.4573 27.4085 19.5666Z" fill="#DEDEDF"/>
<path d="M30.67 8.54435C28.7342 8.47521 26.806 8.26412 24.901 7.9128C24.901 7.9128 24.8707 7.85207 24.813 7.7458C25.2958 7.7458 25.7755 7.71847 26.2461 7.7124C27.5274 7.89458 29.2824 8.05854 30.588 8.11016C30.7824 8.02514 31.007 7.92191 31.253 7.80653C31.5566 7.80653 31.8602 7.83689 32.1487 7.85207C31.5596 8.13748 31.0556 8.37735 30.67 8.54435Z" fill="#644E77"/>
<path d="M24.7305 7.60636C32.7038 3.92333 40.2156 1.136 43.932 0.419434C43.9958 0.89006 44.0596 1.43052 44.093 1.98313C42.6386 2.34749 35.7917 6.05481 32.1482 7.84927C31.8658 7.83408 31.5652 7.81587 31.2524 7.80372C32.467 7.22379 34.2553 6.28557 36.1287 5.33521C39.165 3.77151 42.3015 2.1562 43.6345 1.69165C43.6163 1.45178 43.5889 1.20887 43.5586 0.953823C39.8087 1.77363 32.9619 4.3393 25.7173 7.63369L26.2365 7.71263C25.7658 7.71263 25.2861 7.73085 24.8033 7.74603L24.7305 7.60636Z" fill="#644E77"/>
<path d="M24.8647 18.9077H25.3141C25.3566 19.0322 25.3931 19.1597 25.4265 19.2903C25.4599 19.4209 25.469 19.4755 25.4872 19.5666H25.0469C25.0052 19.3422 24.9442 19.1217 24.8647 18.9077Z" fill="#644E77"/>
<path d="M24.8491 8.02864C24.7975 7.91707 24.7154 7.82234 24.6123 7.75537H24.8006C24.8582 7.86164 24.8886 7.92237 24.8886 7.92237C26.7936 8.27369 28.7217 8.48478 30.6576 8.55392C31.0432 8.38692 31.5472 8.14706 32.1363 7.85861C32.4399 7.85861 32.7435 7.89201 33.0138 7.91022C32.5765 8.12884 32.1757 8.32923 31.7992 8.5023C31.4227 8.67537 31.0918 8.83933 30.8185 8.95471C30.7628 8.97797 30.7028 8.98935 30.6424 8.98811C28.7785 8.91547 26.9214 8.72073 25.0829 8.40514L24.9068 8.37174C24.9195 8.25425 24.8995 8.13554 24.8491 8.02864Z" fill="#644E77"/>
<path d="M24.8642 18.9077C24.9437 19.1217 25.0047 19.3422 25.0464 19.5666H25.0221C25.0221 19.5028 24.9948 19.4391 24.9796 19.3753C24.9413 19.2168 24.8936 19.0606 24.8369 18.9077H24.8642Z" fill="#644E77"/>
<path d="M24.3912 19.1871C24.3578 19.0929 24.3213 18.9988 24.2788 18.9077H24.8496C24.9063 19.0606 24.954 19.2168 24.9923 19.3753C24.9923 19.4391 25.0227 19.5028 25.0348 19.5666H24.5126C24.4701 19.4391 24.4337 19.3085 24.3912 19.1871Z" fill="#644E77"/>
<path d="M24.5728 22.5051C24.9384 21.862 25.13 21.1346 25.1284 20.3948C25.1291 20.1165 25.1016 19.8387 25.0464 19.5659H25.4867C25.6546 20.4713 25.5554 21.406 25.2013 22.2561C25.1821 22.3169 25.1499 22.3728 25.1071 22.42C25.0624 22.4659 25.0086 22.5021 24.9493 22.5263C24.8918 22.5534 24.8291 22.5674 24.7656 22.5674C24.7021 22.5674 24.6393 22.5534 24.5819 22.5263L24.5728 22.5051Z" fill="#644E77"/>
<path d="M25.1284 20.3948C25.13 21.1346 24.9384 21.862 24.5727 22.5051C24.5377 22.4906 24.505 22.4712 24.4756 22.4474L24.761 22.0709C25.0963 21.2807 25.1873 20.4082 25.0221 19.5659H25.0464C25.1016 19.8387 25.1291 20.1165 25.1284 20.3948Z" fill="#644E77"/>
<path d="M24.5448 8.90613C24.402 8.97215 24.2468 9.00733 24.0894 9.00937H23.2514C23.134 8.93537 23.0429 8.82619 22.9913 8.69741C22.9396 8.56863 22.9299 8.42681 22.9635 8.29219C22.9972 8.15756 23.0725 8.037 23.1787 7.9477C23.2849 7.85839 23.4166 7.8049 23.555 7.79484L24.3323 7.75537C24.3371 7.77006 24.3432 7.78429 24.3505 7.79788L24.5114 8.10151C24.54 8.15613 24.58 8.20394 24.6287 8.24167C24.6775 8.2794 24.7338 8.30616 24.7938 8.32012L24.9153 8.34745C24.9085 8.46504 24.8707 8.57872 24.8056 8.67688C24.7405 8.77504 24.6505 8.85416 24.5448 8.90613Z" fill="#644E77"/>
<path d="M24.3301 7.77002H24.6155C24.7186 7.83699 24.8007 7.93171 24.8523 8.04329C24.9021 8.14718 24.9231 8.26252 24.9131 8.37728L24.7916 8.34995C24.7316 8.33599 24.6753 8.30922 24.6265 8.27149C24.5778 8.23376 24.5378 8.18596 24.5092 8.13134L24.3483 7.82771C24.34 7.80927 24.3338 7.7899 24.3301 7.77002Z" fill="#644E77"/>
<path d="M24.7612 22.0709L24.4757 22.4474L24.4272 22.4079C24.3405 22.317 24.2917 22.1965 24.2905 22.0709C24.2906 22.0093 24.303 21.9484 24.327 21.8917C24.6259 21.1535 24.6864 20.3403 24.5 19.5659H25.0223C25.1874 20.4082 25.0965 21.2807 24.7612 22.0709Z" fill="#644E77"/>
<path d="M24.4996 19.5666H17.0576C17.1118 19.3408 17.186 19.1203 17.2793 18.9077H24.2779C24.3205 18.9988 24.3569 19.0929 24.3903 19.1871C24.4237 19.2812 24.4692 19.4391 24.4996 19.5666Z" fill="white"/>
<path d="M24.2998 7.64893C24.4086 7.65713 24.5133 7.69378 24.6034 7.7552H24.318C24.307 7.72081 24.3008 7.68503 24.2998 7.64893Z" fill="#644E77"/>
<path d="M24.6155 7.77012C24.5253 7.7087 24.4206 7.67205 24.3119 7.66385C24.3054 7.6023 24.3127 7.54008 24.3331 7.48167C24.3517 7.42627 24.3815 7.37529 24.4207 7.33193C24.4599 7.28857 24.5076 7.25375 24.5608 7.22966C32.4552 3.58609 40.046 0.744116 43.8596 0.00933065C43.9172 -0.00290027 43.9767 -0.00310931 44.0344 0.00871909C44.0921 0.0205475 44.1468 0.0441587 44.1949 0.0780732C44.2431 0.111988 44.2838 0.155477 44.3143 0.20582C44.3449 0.256163 44.3648 0.312275 44.3727 0.370649C44.4517 0.938438 44.5063 1.47587 44.5427 1.97382C44.5473 2.07492 44.5169 2.1745 44.4566 2.25579C44.3963 2.33709 44.3098 2.39513 44.2118 2.42015C43.2705 2.65395 39.6968 4.49698 36.539 6.12141C35.2881 6.76814 34.0736 7.39362 33.0412 7.91586C32.768 7.89764 32.4765 7.87943 32.1637 7.86424C35.8073 6.06979 42.6542 2.36246 44.1085 1.99811C44.0751 1.4455 44.0114 0.905038 43.9476 0.434411C40.2221 1.15098 32.7133 3.93831 24.746 7.62134L24.8189 7.76101L24.6155 7.77012Z" fill="#644E77"/>
<path d="M24.278 18.9073H17.2793C17.3951 18.6527 17.5365 18.4106 17.7013 18.1846C18.099 17.6457 18.6313 17.2205 19.2449 16.9518C19.8584 16.683 20.5318 16.5801 21.1976 16.6533C21.8635 16.7264 22.4984 16.9731 23.039 17.3687C23.5796 17.7642 24.0068 18.2948 24.278 18.9073Z" fill="white"/>
<path d="M34.0095 9.28826C30.5553 9.01064 27.087 8.95182 23.6254 9.11215C23.4895 9.12037 23.3545 9.08529 23.2397 9.01195H24.0778C24.2351 9.00991 24.3903 8.97474 24.5332 8.90872C24.6385 8.85924 24.7289 8.78301 24.7955 8.68764C24.8621 8.59227 24.9026 8.4811 24.9128 8.36522L25.0889 8.39862C26.9302 8.71562 28.7904 8.91138 30.6574 8.98463C30.7178 8.98586 30.7778 8.97449 30.8335 8.95123C31.1068 8.83585 31.4408 8.681 31.8143 8.49882C32.1877 8.31664 32.5764 8.12535 33.0288 7.90674C34.2737 7.98872 35.0631 8.06766 35.1238 8.07374C35.0106 8.06179 34.8963 8.08067 34.7929 8.12839C34.6346 8.19892 34.5105 8.32897 34.4474 8.49037C34.3843 8.65177 34.3873 8.83153 34.4558 8.9907C34.2919 9.10304 34.1431 9.20628 34.0095 9.28826Z" fill="#644E77"/>
<path d="M24.5727 22.505C24.3743 22.8613 24.1247 23.1866 23.8319 23.4705C23.8104 23.4406 23.7836 23.4149 23.7529 23.3946L24.4756 22.4473C24.505 22.4711 24.5377 22.4905 24.5727 22.505Z" fill="white"/>
<path d="M24.4759 22.4474L23.7532 23.3947C23.7418 23.3846 23.7296 23.3755 23.7168 23.3674C23.6629 23.3356 23.6029 23.3159 23.5407 23.3097C23.4794 23.3004 23.4167 23.3067 23.3585 23.3279C23.2983 23.3465 23.2433 23.3787 23.1976 23.422C22.5774 23.9283 21.814 24.2272 21.015 24.2767C20.2159 24.3262 19.4215 24.1238 18.7435 23.698C18.0656 23.2722 17.5383 22.6444 17.236 21.9031C16.9336 21.1619 16.8714 20.3444 17.0582 19.5659H24.5001C24.6865 20.3403 24.626 21.1535 24.3271 21.8917C24.3031 21.9489 24.2908 22.0103 24.2908 22.0724C24.2908 22.1344 24.3031 22.1958 24.3271 22.253C24.3499 22.3108 24.3839 22.3634 24.4273 22.4079L24.4759 22.4474Z" fill="white"/>
<path d="M24.5031 14.8937C23.4134 14.1741 22.1349 13.7937 20.8291 13.8006V13.8431C19.3521 13.8526 17.921 14.3575 16.765 15.2768C15.6089 16.1961 14.7948 17.4768 14.4529 18.9137H13.4722C13.8154 17.2156 14.7356 15.6884 16.0765 14.5914C17.4175 13.4944 19.0966 12.895 20.8291 12.895C22.5616 12.895 24.2408 13.4944 25.5818 14.5914C26.9227 15.6884 27.8428 17.2156 28.1861 18.9137H27.2752C27.1921 18.5501 27.0773 18.1945 26.9321 17.851C26.4317 16.6473 25.5866 15.6184 24.5031 14.8937Z" fill="#644E77"/>
<path d="M19.2891 27.7432C20.4348 27.6886 21.6624 27.637 22.9721 27.5884C21.7762 27.9441 20.5106 27.9973 19.2891 27.7432Z" fill="#644E77"/>
<path d="M21.2056 24.6794C22.0434 24.5993 22.8394 24.2752 23.4949 23.7472L23.7621 23.395C23.7928 23.4153 23.8196 23.441 23.8411 23.4709C23.1296 24.1676 22.1978 24.5948 21.2056 24.6794Z" fill="#644E77"/>
<path d="M23.5436 17.0828C22.8317 16.492 21.9474 16.1479 21.0234 16.1021C21.8688 16.1395 22.6843 16.4257 23.3676 16.9248C24.0509 17.4239 24.5716 18.1137 24.8644 18.9076H24.8492C24.5833 18.1944 24.1327 17.5647 23.5436 17.0828Z" fill="#644E77"/>
<path d="M22.9731 27.5878C21.6654 27.6364 20.4377 27.688 19.29 27.7427C17.6011 27.3911 16.0847 26.4686 14.9959 25.1305C13.9071 23.7923 13.3123 22.12 13.3115 20.3948C13.3109 20.1178 13.3271 19.841 13.3601 19.5659H14.3135C14.276 19.8406 14.2567 20.1176 14.2558 20.3948C14.2698 22.0242 14.8864 23.5907 15.9868 24.7923C17.0872 25.994 18.5936 26.7457 20.2154 26.9026C21.8372 27.0595 23.4597 26.6105 24.7701 25.642C26.0804 24.6736 26.9859 23.2544 27.3119 21.6579C27.4473 20.9689 27.4709 20.2625 27.3818 19.5659H28.2593C28.2923 19.841 28.3085 20.1178 28.3078 20.3948C28.3096 22.0079 27.7916 23.5785 26.8307 24.8741C25.8698 26.1697 24.5171 27.1213 22.9731 27.5878Z" fill="#644E77"/>
<path d="M20.7987 24.6949C20.6841 24.6959 20.5696 24.6909 20.4556 24.6797C20.5679 24.6888 20.6833 24.6949 20.7987 24.6949Z" fill="#644E77"/>
<path d="M20.5649 16.1049H20.4131C20.4636 16.1018 20.5143 16.1018 20.5649 16.1049Z" fill="#644E77"/>
<path d="M20.8287 28.8115C19.491 28.808 18.1737 28.4831 16.9878 27.8641C17.7104 27.8216 18.4776 27.7812 19.2893 27.7427C20.5109 27.9968 21.7764 27.9436 22.9723 27.5878C23.7476 27.5575 24.5472 27.5301 25.371 27.5059C24.0122 28.3649 22.4363 28.8178 20.8287 28.8115Z" fill="#644E77"/>
<path d="M21.0664 15.7042C20.0512 15.6529 19.0464 15.9295 18.2006 16.4933C17.3547 17.057 16.7126 17.8779 16.3692 18.8346C16.3598 18.8584 16.3517 18.8827 16.345 18.9075H14.4473C14.7891 17.4705 15.6033 16.1899 16.7593 15.2705C17.9154 14.3512 19.3465 13.8464 20.8235 13.8368V13.8004C22.1292 13.7928 23.4077 14.1731 24.497 14.8932C25.5862 15.6132 26.4371 16.6405 26.9417 17.8448C27.0869 18.1883 27.2017 18.5439 27.2848 18.9075H25.3081C25.002 18.0091 24.4332 17.2234 23.6752 16.6523C22.9173 16.0811 22.0052 15.7508 21.0573 15.7042H21.0664Z" fill="#DEDEDF"/>
<path d="M16.7935 18.9071C17.0688 18.1638 17.5439 17.5109 18.1664 17.0202C18.7888 16.5295 19.5346 16.22 20.3216 16.1258H20.4127H20.5645C20.6171 16.1228 20.6698 16.1228 20.7224 16.1258H20.7983H21.023C21.8628 16.1646 22.6728 16.4487 23.3527 16.9431C24.0327 17.4374 24.5528 18.1202 24.8488 18.9071H24.2901C24.0196 18.2939 23.5927 17.7626 23.0521 17.3664C22.5115 16.9703 21.8763 16.7232 21.2101 16.65C20.5439 16.5768 19.8702 16.6801 19.2565 16.9494C18.6428 17.2187 18.1106 17.6446 17.7135 18.1844C17.5486 18.4104 17.4072 18.6525 17.2914 18.9071H16.7935Z" fill="#644E77"/>
<path d="M16.794 18.9077H17.2798C17.1865 19.1203 17.1123 19.3408 17.0582 19.5666H16.6118C16.6536 19.3422 16.7145 19.1217 16.794 18.9077Z" fill="#644E77"/>
<path d="M20.3889 24.673C19.3305 24.5633 18.3503 24.0654 17.6375 23.2752C16.9248 22.4851 16.5301 21.4589 16.5298 20.3948C16.5291 20.1165 16.5566 19.8387 16.6118 19.5659H17.0581C16.8734 20.344 16.937 21.1603 17.2398 21.9004C17.5427 22.6405 18.0697 23.2672 18.7469 23.6925C19.4241 24.1179 20.2175 24.3205 21.0157 24.272C21.8139 24.2235 22.5768 23.9262 23.1975 23.422C23.2432 23.3787 23.2983 23.3465 23.3584 23.3279C23.4167 23.3067 23.4793 23.3004 23.5406 23.3097C23.6028 23.3159 23.6629 23.3356 23.7167 23.3674C23.7296 23.3755 23.7418 23.3846 23.7532 23.3947L23.486 23.7469C22.8305 24.2749 22.0345 24.599 21.1966 24.679H21.0509H20.7988C20.6835 24.679 20.5681 24.679 20.4557 24.6639L20.3889 24.673Z" fill="#644E77"/>
<path d="M16.7666 18.9072C17.0429 18.1594 17.5217 17.5032 18.1497 17.012C18.7776 16.5208 19.5298 16.2141 20.3221 16.126C19.5351 16.2202 18.7893 16.5296 18.1668 17.0203C17.5443 17.511 17.0693 18.164 16.7939 18.9072H16.7666Z" fill="#644E77"/>
<path d="M16.5845 19.5663C16.6239 19.3597 16.6797 19.1567 16.7515 18.959V18.9165H16.7788C16.6993 19.1305 16.6384 19.3509 16.5966 19.5754L16.5845 19.5663Z" fill="#644E77"/>
<path d="M16.1709 19.5666C16.2118 19.3429 16.2696 19.1226 16.344 18.9077H16.766V18.9502C16.6943 19.1479 16.6384 19.3509 16.599 19.5575L16.1709 19.5666Z" fill="#644E77"/>
<path d="M18.4184 16.8179C17.6605 17.3217 17.0821 18.0532 16.7667 18.9069H16.3477C16.3544 18.8822 16.3625 18.8578 16.3719 18.834C16.7045 17.9098 17.316 17.1118 18.1218 16.5503C18.9277 15.9887 19.8881 15.6914 20.8703 15.6994C21.8524 15.7074 22.8078 16.0203 23.6044 16.5949C24.401 17.1695 24.9994 17.9774 25.3169 18.9069H24.8675C24.5747 18.113 24.054 17.4232 23.3707 16.9241C22.6874 16.425 21.8719 16.1388 21.0266 16.1014H20.8019H20.726C20.6734 16.0983 20.6207 16.0983 20.5681 16.1014C20.5176 16.0982 20.4669 16.0982 20.4163 16.1014H20.3252C19.6409 16.1821 18.9865 16.4281 18.4184 16.8179Z" fill="#644E77"/>
<path d="M18.2544 23.8627C17.5974 23.3792 17.0916 22.7188 16.7959 21.9585C16.5002 21.1983 16.4268 20.3697 16.5844 19.5693H16.6117C16.5565 19.8422 16.5291 20.1199 16.5298 20.3982C16.5301 21.4623 16.9248 22.4885 17.6375 23.2787C18.3502 24.0688 19.3305 24.5668 20.3889 24.6764C19.6167 24.6041 18.8788 24.3228 18.2544 23.8627Z" fill="#644E77"/>
<path d="M16.2959 21.8067C16.0763 21.0804 16.0336 20.3121 16.1715 19.5659H16.5844C16.468 20.1546 16.4762 20.7611 16.6086 21.3464C16.741 21.9316 16.9947 22.4826 17.3531 22.9639C17.7116 23.4451 18.167 23.8458 18.6899 24.1402C19.2127 24.4346 19.7915 24.6161 20.3889 24.673H20.4557C20.5697 24.6842 20.6842 24.6892 20.7988 24.6882H21.0508H21.1965C22.1895 24.602 23.1214 24.1725 23.8321 23.4736L23.8533 23.4979C23.9143 23.5916 23.9404 23.7038 23.9271 23.8148C23.9138 23.9258 23.8619 24.0286 23.7804 24.1052C23.179 24.5925 22.4669 24.9242 21.7069 25.0711C20.9469 25.2179 20.1625 25.1755 19.4228 24.9474C18.6831 24.7194 18.0109 24.3127 17.4656 23.7634C16.9203 23.2141 16.5186 22.5389 16.2959 21.7976V21.8067Z" fill="#644E77"/>
<path d="M16.3479 18.9077C16.2735 19.1226 16.2157 19.3429 16.1748 19.5666H14.3257C14.3257 19.4543 14.356 19.3449 14.3773 19.2356C14.3986 19.1263 14.4198 19.017 14.4471 18.9077H16.3479Z" fill="#DEDEDF"/>
<path d="M13.4723 18.9077H14.4469C14.4196 19.017 14.3983 19.1263 14.3771 19.2356C14.3558 19.3449 14.3407 19.4543 14.3255 19.5666H13.3721C13.3931 19.3453 13.4266 19.1253 13.4723 18.9077Z" fill="#644E77"/>
<path d="M20.8287 12.8893C19.0965 12.8898 17.4177 13.4893 16.0769 14.586C14.7361 15.6828 13.8157 17.2094 13.4718 18.9072H12.5791C12.9256 16.9761 13.9358 15.2267 15.4352 13.9614C16.9346 12.6961 18.8289 11.9943 20.7908 11.9774C22.7527 11.9604 24.6588 12.6294 26.1798 13.8687C27.7008 15.108 28.7411 16.8397 29.1209 18.7645L29.1482 18.9072H28.1887C27.8447 17.2089 26.9239 15.6819 25.5825 14.5851C24.241 13.4882 22.5615 12.8891 20.8287 12.8893Z" fill="#644E77"/>
<path d="M12.5794 18.9077H13.472C13.4263 19.1253 13.3929 19.3453 13.3718 19.5666H12.4883C12.4883 19.4543 12.5126 19.3449 12.5278 19.2356C12.5429 19.1263 12.5612 19.0049 12.5794 18.9077Z" fill="#644E77"/>
<path d="M13.311 20.3948C13.3112 22.1183 13.9042 23.7892 14.9906 25.1272C16.077 26.4651 17.5906 27.3886 19.2773 27.7427C18.4676 27.7811 17.7005 27.8216 16.9758 27.8641C15.8844 27.2998 14.9303 26.5025 14.1811 25.5287C13.4318 24.5549 12.9057 23.4283 12.64 22.2288C12.5065 21.6388 12.4383 21.0361 12.4365 20.4313C12.4365 20.1428 12.4365 19.8513 12.476 19.5659H13.3717C13.3346 19.8407 13.3144 20.1175 13.311 20.3948Z" fill="#644E77"/>
<path d="M8.45295 18.9073H12.5793C12.5611 19.0166 12.5429 19.1259 12.5277 19.2352C12.5125 19.3445 12.5003 19.4538 12.4882 19.5662H8.45295C8.40703 19.5706 8.3607 19.5653 8.31692 19.5508C8.27314 19.5362 8.23289 19.5127 8.19874 19.4817C8.1646 19.4507 8.13732 19.4128 8.11865 19.3707C8.09998 19.3285 8.09033 19.2829 8.09033 19.2367C8.09033 19.1906 8.09998 19.145 8.11865 19.1028C8.13732 19.0606 8.1646 19.0228 8.19874 18.9918C8.23289 18.9607 8.27314 18.9372 8.31692 18.9227C8.3607 18.9081 8.40703 18.9029 8.45295 18.9073Z" fill="#644E77"/>
<path d="M2.71729 17.772C3.47062 18.2104 4.02542 18.9229 4.2658 19.7608C3.93484 20.0644 3.62514 20.3437 3.35491 20.5623C3.37616 19.7 2.96626 18.61 2.71729 17.772Z" fill="#644E77"/>
<path d="M2.54443 17.061C3.41585 17.4831 4.58179 18.3181 4.8581 19.8514C4.34734 20.3591 3.79593 20.8242 3.20938 21.242C3.30109 21.027 3.34858 20.7957 3.34905 20.5619C3.62536 20.3433 3.93506 20.0791 4.25994 19.7603C4.01956 18.9225 3.46476 18.21 2.71143 17.7715C2.64051 17.5385 2.58473 17.3012 2.54443 17.061Z" fill="#644E77"/>
<path d="M2.60217 21.7646H3.17299C2.92669 21.939 2.66675 22.0934 2.3957 22.2261C2.34356 22.2543 2.28618 22.2716 2.22712 22.2768C2.16806 22.282 2.10857 22.275 2.0523 22.2563C1.99603 22.2376 1.94418 22.2076 1.89995 22.1682C1.85572 22.1287 1.82004 22.0806 1.79511 22.0268C1.77019 21.973 1.75655 21.9146 1.75503 21.8554C1.7535 21.7961 1.76414 21.7372 1.78627 21.6822C1.8084 21.6271 1.84157 21.5773 1.88372 21.5356C1.92586 21.4939 1.97611 21.4612 2.03134 21.4397C2.03134 21.4397 2.21352 21.3517 2.52322 21.1543C2.55662 21.3851 2.57788 21.5521 2.59002 21.628C2.59708 21.6732 2.60114 21.7188 2.60217 21.7646Z" fill="#644E77"/>
<path d="M5.04637 20.2185C4.47165 20.793 3.84445 21.3124 3.17298 21.7701H2.60215C2.60515 21.7246 2.60515 21.6789 2.60215 21.6334C2.60215 21.5575 2.56875 21.3905 2.53535 21.1598C2.75397 21.0201 3.03331 20.8258 3.36123 20.5525C3.36076 20.7863 3.31326 21.0176 3.22156 21.2327C3.8081 20.8148 4.35951 20.3497 4.87027 19.842C4.59397 18.3239 3.42803 17.4737 2.55661 17.0517C2.5989 17.292 2.65671 17.5293 2.72968 17.7622C2.48713 17.6131 2.23334 17.4832 1.9706 17.3735C1.91595 17.0213 1.85826 16.6843 1.80664 16.3867C2.57179 16.6236 4.764 17.495 5.17997 19.8177C5.19367 19.8904 5.18859 19.9653 5.16521 20.0355C5.14183 20.1056 5.10092 20.1686 5.04637 20.2185Z" fill="#644E77"/>
<path d="M1.7944 16.3959C1.84602 16.6996 1.90371 17.0305 1.95836 17.3827C1.7611 17.2987 1.55818 17.2287 1.3511 17.1732C1.26706 17.1543 1.19062 17.1106 1.13163 17.0479C1.07264 16.9851 1.03381 16.9061 1.02014 16.821C1.00956 16.7659 1.00956 16.7092 1.02014 16.654C1.0327 16.5984 1.05609 16.5458 1.08898 16.4992C1.12186 16.4526 1.16361 16.413 1.21182 16.3825C1.26004 16.3521 1.31378 16.3314 1.36997 16.3217C1.42617 16.3121 1.48373 16.3135 1.53935 16.3261C1.62557 16.3447 1.71071 16.368 1.7944 16.3959Z" fill="#644E77"/>
<path d="M1.26917 21.7032C1.19023 21.1384 0.825875 18.5576 0.543498 16.8997L1.01413 16.8208C1.0261 16.9075 1.06417 16.9885 1.12329 17.053C1.1824 17.1176 1.25976 17.1626 1.34508 17.1821C1.55217 17.2376 1.75509 17.3076 1.95234 17.3916C2.17096 18.7428 2.40172 20.352 2.5171 21.1627C2.21346 21.3601 2.02825 21.4451 2.02521 21.4481C1.96998 21.4697 1.91973 21.5023 1.87759 21.544C1.83544 21.5857 1.80227 21.6356 1.78014 21.6906C1.75801 21.7456 1.74738 21.8045 1.7489 21.8638C1.75042 21.9231 1.76406 21.9814 1.78898 22.0352C1.81391 22.089 1.84959 22.1371 1.89382 22.1766C1.93805 22.2161 1.9899 22.2461 2.04617 22.2647C2.10244 22.2834 2.16193 22.2904 2.22099 22.2852C2.28005 22.28 2.33743 22.2627 2.38957 22.2345C2.66062 22.1018 2.92056 21.9474 3.16686 21.773H11.7201C11.8721 21.7739 12.0191 21.8269 12.1368 21.923C12.2544 22.0191 12.3356 22.1526 12.3669 22.3013C12.3715 22.3457 12.3715 22.3905 12.3669 22.4349C12.3669 22.6097 12.2974 22.7773 12.1739 22.9008C12.0503 23.0244 11.8827 23.0938 11.708 23.0938H0L1.26917 21.7032Z" fill="#644E77"/>
<path d="M0.540295 16.9003C0.452242 16.3841 0.370262 15.956 0.309536 15.707L0.254883 15.4762L0.355081 15.2637C1.08379 13.7455 10.1441 7.78527 24.0382 7.67293C24.1255 7.64035 24.2186 7.62689 24.3115 7.63346C24.3155 7.67327 24.3258 7.7122 24.3419 7.74884L23.5646 7.78831C23.4262 7.79836 23.2945 7.85185 23.1883 7.94116C23.0821 8.03047 23.0068 8.15103 22.9731 8.28565C22.9394 8.42028 22.9492 8.56209 23.0008 8.69087C23.0525 8.81965 23.1436 8.92883 23.2609 9.00283C10.9123 9.30646 2.91772 14.2799 1.68195 15.6827C1.72142 15.8801 1.76696 16.1199 1.81554 16.3871C1.73086 16.3591 1.6447 16.3358 1.55746 16.3173C1.50183 16.3047 1.44428 16.3032 1.38808 16.3129C1.33188 16.3226 1.27814 16.3432 1.22993 16.3737C1.18172 16.4041 1.13997 16.4438 1.10708 16.4904C1.07419 16.537 1.05081 16.5896 1.03825 16.6452C1.02767 16.7004 1.02767 16.757 1.03825 16.8122L0.567622 16.8911L0.540295 16.9003Z" fill="#644E77"/>
</svg>
