<svg id="Layer_1" data-name="Layer 1" xmlns="http://www.w3.org/2000/svg" viewBox="0 0 638.67 408.92"><defs><style>.cls-1{fill:#fff;}.cls-2{fill:#dedfe0;}.cls-3{fill:#3f2355;}</style></defs><path class="cls-1" d="M573.3,188.49a6.21,6.21,0,0,0,3.16.85,6.07,6.07,0,0,0,2.32-.45l10.79,15.36-14.76,46.42a8.31,8.31,0,0,1-7.66,6.1H510.27l8.13-12.51,20.68-5.63a2,2,0,0,0,1.13-.82Z"/><path class="cls-2" d="M575.51,181a2.11,2.11,0,0,1,.19-.23l0,0a.9.9,0,0,1,.19-.15.24.24,0,0,1,.09-.06,1,1,0,0,1,.23-.11,1.09,1.09,0,0,1,.3-.07l.44.11a3.45,3.45,0,0,1,.72.27,2.06,2.06,0,0,1-.16,3,1.41,1.41,0,0,1-.81.27,1.57,1.57,0,0,1-1.43-1.05s0,0,0,0a2,2,0,0,1-.15-.77,2,2,0,0,1,.28-1A.75.75,0,0,0,575.51,181Z"/><path class="cls-1" d="M573.16,182.15a3.84,3.84,0,0,0,.3,1.51.61.61,0,0,0,.07.14,3.51,3.51,0,0,0,3.22,2.2,3.4,3.4,0,0,0,2-.66,4,4,0,0,0,1.56-3.19,3.91,3.91,0,0,0-1.32-3l0,0-.06,0a3.34,3.34,0,0,0-2.15-.78h-.1a.18.18,0,0,0-.1,0,3.31,3.31,0,0,0-.55.07l-.28.07a3.15,3.15,0,0,0-.77.35,3.45,3.45,0,0,0-.67.54,3.66,3.66,0,0,0-.51.65l0,.05,0,.1A3.86,3.86,0,0,0,573.16,182.15Zm-1,2.24a5.64,5.64,0,0,1-.54-2.46,5.9,5.9,0,0,1,.88-3.12h0a1.38,1.38,0,0,0,.72-.24,1.55,1.55,0,0,0,.67-1.23,4.35,4.35,0,0,1,2.52-.81c2.64,0,4.78,2.42,4.78,5.41a5.82,5.82,0,0,1-.92,3.16,2,2,0,0,0-1.54.32,2,2,0,0,0-.85,1.67,4.29,4.29,0,0,1-3.66-.34,2,2,0,0,0-.85-2A2,2,0,0,0,572.2,184.39Z"/><path class="cls-1" d="M542.94,135a2.65,2.65,0,0,1-.89.16,2.75,2.75,0,0,1-2.24-1.19L512.67,97.31l5.41-4.1a.52.52,0,0,0,.11-.1l26.12,36.47a3.81,3.81,0,0,1,.14,4.08,1.56,1.56,0,0,0-.85.25A1.54,1.54,0,0,0,542.94,135Z"/><path class="cls-1" d="M508.6,98,496.25,78.22l20.31,9.44A2.14,2.14,0,0,1,517.69,89a2.61,2.61,0,0,1-.24,2.07.21.21,0,0,0,0,.06,2,2,0,0,1-.49.55l-6.1,4.64h0a.41.41,0,0,0-.1.09h0s0,0,0,0Z"/><path class="cls-1" d="M544.58,178.53,454,87.89,470.34,73c.67-.55,6.59-5.56,7.16-11.13a7.84,7.84,0,0,0-1-4.82l2.14-1.34,13.45,21.53,14.51,23.25,0,.06,44.56,71.38a5.09,5.09,0,0,0-4.34,1,6.1,6.1,0,0,0-2.27,4.8Z"/><path class="cls-1" d="M475.67,55.86c-6-7.19-21.58,1.11-23.34,2.08l-13.62,6.82-4-14.26a6.13,6.13,0,0,1,1-5.36,4.62,4.62,0,0,1,3.71-1.94h31.5l7.8,12.5L476.49,57A8.33,8.33,0,0,0,475.67,55.86Z"/><path class="cls-1" d="M464.8,59.57A4.47,4.47,0,1,0,469.23,64,4.46,4.46,0,0,0,464.8,59.57ZM467.69,70l-17.6,16.06-23.16,21.13a1.54,1.54,0,0,0-.19.17l-5.93,5.4a7.81,7.81,0,0,1-9.84.51L397,103a8,8,0,0,1,1.13-13.48L438.77,69.2l15.42-7.72c3.78-2.08,15.11-7,18.39-3.06a3.88,3.88,0,0,1,.94,3c-.34,3.41-4.26,7.27-5.74,8.47A.34.34,0,0,0,467.69,70Zm-54.38,38a10,10,0,1,0-9.91-10A10,10,0,0,0,413.31,108Z"/><path class="cls-1" d="M270.46,94.54c.14-4.25.37-7.25.72-8.29,1.69-1.64,8.26-1.56,15.2-1.48,2.63,0,5.61.07,8.67,0,20.27-.32,46.87,0,55.6.06h.53a7.79,7.79,0,0,1,7.51,6.31l.23,2.49-.48,0a5.78,5.78,0,0,0-5.55-5.64H278.78a5.75,5.75,0,0,0-4.12,1.77,6.79,6.79,0,0,0-1.9,4.78Z"/><path class="cls-1" d="M295.3,90l-5.52,59.35a8.22,8.22,0,0,0-1.55.4h0l-10.39,2.09a1.53,1.53,0,0,1-1.28-.32,1.74,1.74,0,0,1-.64-1.34l-1.23-55.45A4.9,4.9,0,0,1,276,91.18,3.83,3.83,0,0,1,278.78,90Z"/><path class="cls-1" d="M359.12,137a1.8,1.8,0,0,1-.48,1.35l-10.27,11.46,0,0L335.9,163.05l-4,.38V90h21a3.87,3.87,0,0,1,3.63,3.84Z"/><path class="cls-1" d="M330,90v73.63l-21.58,2.06c-2-2.59-10.78-13.59-12.18-14.77a7.21,7.21,0,0,0-4.5-1.7L297.24,90Z"/><path class="cls-1" d="M341.56,181V178.9a1.83,1.83,0,0,0-1.83-1.83H326.24a1.83,1.83,0,0,0-1.83,1.83V181a1.83,1.83,0,0,0,1.83,1.83h13.49A1.83,1.83,0,0,0,341.56,181ZM290,151.35l.88-.18.08,0a5.6,5.6,0,0,1,4.06,1.22c1,.87,7.88,9.39,12.24,14.91a1,1,0,0,0,.75.36h.1l22-2.1,1.76-.17,4.57-.44a1,1,0,0,0,.61-.3l10.67-11.31-7.05,53.94-6.89,7.31h-41.7l-2-62.85A1,1,0,0,0,290,151.35Z"/><path class="cls-1" d="M372.45,156.41c6.25,1.16,12.82,2.66,20.06,4.59l2.72,29.82-.91-.14a5.23,5.23,0,0,0-5.5,2.94l-1.3,2.8a1.21,1.21,0,0,1-.88.69,1.2,1.2,0,0,1-1.06-.33l-3.11-3a5.25,5.25,0,0,0-5.46-1.16L365.26,197a5.21,5.21,0,0,0-3.3,4l-.46,2.67a1.17,1.17,0,0,1-.68.9l-.1,0a1.16,1.16,0,0,1-1-.07L357,203.1a5.17,5.17,0,0,0-5.5.32l-9.24,6.52a5.26,5.26,0,0,0-.93.83l1.75-1.86a1.39,1.39,0,0,0,.38-.8l7.67-58.53,8.88-9.92a3.65,3.65,0,0,0,1-2.76l-2.6-43.19.48,0,5,53.31A10.64,10.64,0,0,0,372.45,156.41Z"/><path class="cls-1" d="M427,112.52l25.41,107.27-5.08-5.49a5.26,5.26,0,0,0-4-1.67,3.16,3.16,0,0,0-.73.08l-5.06.87a1.21,1.21,0,0,1-1-.33,1.29,1.29,0,0,1-.37-1.11l.56-3.56a5.28,5.28,0,0,0-2.83-5.49l-11.46-5.75a5.18,5.18,0,0,0-5.12.27l-3.19,2a1.17,1.17,0,0,1-1,.12,1.2,1.2,0,0,1-.76-.78l-1-2.84a5.25,5.25,0,0,0-4.16-3.5l-7.88-1.19-2.92-32.19-5.18-56.89a.13.13,0,0,1,0-.06,11.9,11.9,0,0,0,3.44,3.95l14,10.26a11.82,11.82,0,0,0,14.89-.78Z"/><path class="cls-2" d="M399.85,267.81a8.62,8.62,0,0,1-16.64,3.25,8.94,8.94,0,0,1-.63-3.25,8.69,8.69,0,0,1,8.64-8.73,8.38,8.38,0,0,1,4.7,1.41l.05,0h0a1,1,0,0,1,.16.12l.16.12.22.16.27.22.43.39a8.42,8.42,0,0,1,.64.7l.07.08a9.13,9.13,0,0,1,.87,1.32,9.38,9.38,0,0,1,.63,1.49,8.12,8.12,0,0,1,.25,1l0,.16a7.78,7.78,0,0,1,.11,1C399.84,267.44,399.85,267.62,399.85,267.81Z"/><path class="cls-1" d="M410.58,254.7a23.38,23.38,0,1,1-39.46,25,23.06,23.06,0,0,1-1.68-3.51,22.08,22.08,0,0,1-.72-2.22,23.74,23.74,0,0,1-.82-6.19,23.45,23.45,0,0,1,23.32-23.53,23,23,0,0,1,16,6.44A22.33,22.33,0,0,1,410.58,254.7ZM398.77,278a12.76,12.76,0,0,0-.63-20.83,12.3,12.3,0,0,0-6.92-2.08,12.71,12.71,0,0,0-11.79,17.28l.06.17a12.59,12.59,0,0,0,16.64,7,11.7,11.7,0,0,0,1.37-.69C397.94,278.57,398.36,278.29,398.77,278Z"/><path class="cls-2" d="M230.73,273.6a6.88,6.88,0,1,1-6.68,6.88A6.8,6.8,0,0,1,230.73,273.6Z"/><path class="cls-1" d="M270.56,145.86c-.22-15.54-.53-38.82-.1-51.32l2.3.08v.15L274,150.22a3.65,3.65,0,0,0,1.36,2.8,3.47,3.47,0,0,0,2.18.77,3.21,3.21,0,0,0,.68-.07l8.91-1.8,2.07,63.65h1c-.64.38-1,.61-1,1,0,.19.08.65.76.85a3.12,3.12,0,0,0,.71.09h43.7a1.42,1.42,0,0,0,1.06-.47l5.88-6.25a5.24,5.24,0,0,0-1.13,4.68l.68,2.91a1.26,1.26,0,0,1-.23,1.1,1.14,1.14,0,0,1-.34.29,1.11,1.11,0,0,1-.62.17h-4.25a5.21,5.21,0,0,0-4.3,2.27l-5,7.23a5.29,5.29,0,0,0-.21,5.66l1.46,2.46a1.27,1.27,0,0,1,.06,1.17,1.18,1.18,0,0,1-.85.69l-2.2.47a5.31,5.31,0,0,0-4,4l-2.45,11a5.23,5.23,0,0,0,1.49,4.94l1.3,1.25a1.26,1.26,0,0,1-.2,2l-.76.49a5.23,5.23,0,0,0-2.41,4.93L318.49,279H293.4a4.58,4.58,0,0,0-2.17-2.15l-2.15-1a.63.63,0,0,1-.37-.5.68.68,0,0,1,.18-.63l2.68-2.74a4.74,4.74,0,0,0,1.2-4.44L290,256.45a4.68,4.68,0,0,0-3.54-3.44l-4.18-.89a.61.61,0,0,1-.41-.3l-.05-.1a.75.75,0,0,1,.08-.69l1.61-2.34a4.76,4.76,0,0,0-.4-5.87l-6.28-6.88a4.58,4.58,0,0,0-4.18-1.44l-1.87.33c0-4.45,0-10.62,0-17.83,0-.64,0-1.28,0-1.93,0-14.16,0-31.91,0-48.44,0-1.16,0-2.5,0-4v0C270.72,158.14,270.64,152.32,270.56,145.86Zm49.81,84.8v-1.75a1.7,1.7,0,0,0-1.69-1.7H289.31a1.7,1.7,0,0,0-1.69,1.7v1.75a1.69,1.69,0,0,0,1.69,1.69h29.37A1.69,1.69,0,0,0,320.37,230.66Zm-9.78,15.78v-1.95a1.78,1.78,0,0,0-1.77-1.78H291.49a1.78,1.78,0,0,0-1.78,1.78v1.95a1.78,1.78,0,0,0,1.78,1.77h17.33A1.77,1.77,0,0,0,310.59,246.44Z"/><path class="cls-1" d="M266.76,217c0,3.75,0,7.22,0,10.31a5,5,0,0,0-1.06-.73l-9.34-4.76a4.59,4.59,0,0,0-4.56.23l-2.61,1.68a.57.57,0,0,1-.51.06.64.64,0,0,1-.4-.42l-.78-2.35a4.75,4.75,0,0,0-1.41-2.11,2,2,0,0,0,.73-1.44l0-.47c0-.62.07-1.26.12-1.93.87-14.31,2.62-38.95,3.89-43.65.68-2.51,7-5,15.89-6.51v1.72c0,16.53,0,34.28,0,48.44C266.75,215.72,266.75,216.36,266.76,217Z"/><path class="cls-1" d="M99.45,296.57a5,5,0,0,1,3.63-8.4,4.93,4.93,0,0,1,4.1,2.21,5,5,0,0,1,.85,2.79,5,5,0,0,1-5,5,5.14,5.14,0,0,1-.88-.08,2,2,0,0,0-2.75-1.53Z"/><path class="cls-1" d="M83.22,298.86a5.47,5.47,0,0,0,4.8,3.71l6.06.45-15,19.1a.21.21,0,0,1-.08.07L49.1,328c-.06,0-.1,0-.16-.07a.21.21,0,0,1,0-.25l8.49-10.09a4.31,4.31,0,0,0,1-2.18L68.69,231a.16.16,0,0,1,.07-.14.15.15,0,0,1,.14,0l19.74,4.59a.18.18,0,0,1,.1.07l18.2,37.28-22.38,20.6A5.11,5.11,0,0,0,83.22,298.86Z"/><path class="cls-1" d="M151.85,192.45l.41,13.41a7.29,7.29,0,0,0-.53.58,7.93,7.93,0,0,0-1.76,3.62c-7.78,39.37-15.2,67.3-18.92,71.15-5.2,5.39-10.26,4.66-11.68,4.3-.22-.05-.45-.1-.68-.13l-1.32-10.53a5.46,5.46,0,0,0-3.21-4.33l31.57-79.87Z"/><path class="cls-1" d="M118.87,289.49a13.21,13.21,0,0,0,2.65.26c3.12,0,7.81-1,12.41-5.76,6.26-6.49,16-53.32,20-73.15a4,4,0,0,1,.89-1.81,3.91,3.91,0,0,1,2.63-1.42l8.65-.93h.14l49.68-5.32a8,8,0,0,0,7.08-6.84l.38-2.52,2-13.6c0-.06,0-.12,0-.16a4,4,0,0,1,4-3.46h9.29a4.06,4.06,0,0,1,4,4.07v35.8a3.88,3.88,0,0,1-.41,1.77l-.06.12a3.8,3.8,0,0,1-.71,1l-8.18-1.26a4.64,4.64,0,0,0-4.89,2.67l-1.05,2.29a.63.63,0,0,1-.46.37.59.59,0,0,1-.53-.17l-2.54-2.52a4.64,4.64,0,0,0-4.87-1l-9.57,3.66a4.65,4.65,0,0,0-2.93,3.6l-.37,2.19a.63.63,0,0,1-.37.5l-.12,0a.54.54,0,0,1-.42-.05L203,226.59a4.61,4.61,0,0,0-4.91.28l-7.56,5.41a4.7,4.7,0,0,0-1.83,4.92l.57,2.43a.72.72,0,0,1-.13.62.6.6,0,0,1-.48.24h-3.48a4.6,4.6,0,0,0-3.82,2l-4.06,6a4.73,4.73,0,0,0-.71,3.63l-8.22,4.37a8,8,0,0,0-3.21,3.11l-.07.12c-10.92,19-18.21,31.56-21.66,37.38-2.59,4.32-13.23,6.06-28.71,4.75a4.71,4.71,0,0,0,.51-1l2.88-8.05A13.77,13.77,0,0,0,118.87,289.49Z"/><path class="cls-3" d="M569.59,186.84h1.79l.18.22a6.54,6.54,0,0,0,1.74,1.43l-33.09,49.32a2,2,0,0,1-1.13.82l-20.68,5.63-8.13,12.51h56.88a8.31,8.31,0,0,0,7.66-6.1l14.76-46.42-10.79-15.36a6.29,6.29,0,0,0,1.8-1.08,6.89,6.89,0,0,0,1.3-1.45l11.53,16.4a2,2,0,0,1,.27,1.76l-15.06,47.36a12.28,12.28,0,0,1-11.47,8.89H506.58a2,2,0,0,1-1.67-3.09l10.55-16.24a2,2,0,0,1,1.15-.84l20.7-5.64Z"/><path class="cls-3" d="M577.93,187.08a4.31,4.31,0,0,0,1.36-.8,4.68,4.68,0,0,0,1-1.19,2,2,0,0,1,1.24.81l.32.46a6.89,6.89,0,0,1-1.3,1.45,6.29,6.29,0,0,1-1.8,1.08l-.49-.69A2.09,2.09,0,0,1,577.93,187.08Z"/><path class="cls-1" d="M579.29,186.28a4.31,4.31,0,0,1-1.36.8,2,2,0,0,1,.85-1.67,2,2,0,0,1,1.54-.32A4.68,4.68,0,0,1,579.29,186.28Z"/><path class="cls-3" d="M577.63,180.63a1.41,1.41,0,0,0-.81-.33,1,1,0,0,0,.83-1,1,1,0,0,0-.68-.93l.52.13a5.6,5.6,0,0,1,1.27.5l.14.09.06,0,0,0a1,1,0,0,1-1.2,1.57l-.07,0Z"/><path class="cls-3" d="M576.89,178.34l-.24,0h.1a3.34,3.34,0,0,1,2.15.78l-.14-.09a5.6,5.6,0,0,0-1.27-.5l-.52-.13Z"/><path class="cls-3" d="M576.67,180.31h.15a1.41,1.41,0,0,1,.81.33l.09.07a3.45,3.45,0,0,0-.72-.27l-.44-.11Z"/><path class="cls-3" d="M576.46,189.34a6.21,6.21,0,0,1-3.16-.85l.66-1a2.07,2.07,0,0,0,.31-.76,4.29,4.29,0,0,0,3.66.34,2.09,2.09,0,0,0,.36,1.12l.49.69A6.07,6.07,0,0,1,576.46,189.34Z"/><path class="cls-3" d="M574.6,181.53a1,1,0,0,1-1-1,1,1,0,0,1,.16-.54,1,1,0,0,1,.8-.42,1,1,0,0,1,1,1h0a1,1,0,0,1-.15.52A1,1,0,0,1,574.6,181.53Z"/><path class="cls-3" d="M573.69,176.48l-.64-1a6.32,6.32,0,0,1,3.41-1c3.74,0,6.78,3.32,6.78,7.41a7.83,7.83,0,0,1-1.36,4.43l-.32-.46a2,2,0,0,0-1.24-.81,5.82,5.82,0,0,0,.92-3.16c0-3-2.14-5.41-4.78-5.41a4.35,4.35,0,0,0-2.52.81A1.48,1.48,0,0,0,573.69,176.48Z"/><path class="cls-3" d="M575.56,180.56a1,1,0,0,0-1-1,1,1,0,0,0-.8.42l0,0a3.66,3.66,0,0,1,.51-.65,3.45,3.45,0,0,1,.67-.54,3.15,3.15,0,0,1,.77-.35l.28-.07a3.31,3.31,0,0,1,.55-.07.18.18,0,0,1,.1,0l.24,0,.08,0a1,1,0,0,1,.68.93,1,1,0,0,1-.83,1h-.26a1.09,1.09,0,0,0-.3.07,1,1,0,0,0-.23.11.24.24,0,0,0-.09.06.9.9,0,0,0-.19.15l0,0a2.11,2.11,0,0,0-.19.23.75.75,0,0,1-.07.12l0,0a1,1,0,0,0,.15-.52Z"/><path class="cls-3" d="M576.75,186a3.51,3.51,0,0,1-3.22-2.2,1,1,0,0,0,.85.48,1,1,0,0,0,.38-.07,1,1,0,0,0,.56-1.26,1.57,1.57,0,0,0,1.43,1.05,1.41,1.41,0,0,0,.81-.27,2.06,2.06,0,0,0,.16-3l.07,0a1,1,0,0,0,1.2-1.57,3.91,3.91,0,0,1,1.32,3,4,4,0,0,1-1.56,3.19A3.4,3.4,0,0,1,576.75,186Z"/><path class="cls-3" d="M573.16,182.15a3.86,3.86,0,0,1,.53-2l0-.1,0-.05,0,0a1,1,0,0,0-.16.54,1,1,0,0,0,1.77.53l0,0a2,2,0,0,0-.28,1,2,2,0,0,0,.15.77s0,0,0,0a1,1,0,0,1-.56,1.26,1,1,0,0,1-.38.07,1,1,0,0,1-.85-.48.61.61,0,0,1-.07-.14A3.84,3.84,0,0,1,573.16,182.15Z"/><path class="cls-1" d="M572.65,178.65a4.23,4.23,0,0,1,.52-.65,4.41,4.41,0,0,1,.77-.67,1.55,1.55,0,0,1-.67,1.23,1.38,1.38,0,0,1-.72.24.43.43,0,0,1,0-.07l0-.07Z"/><path class="cls-3" d="M572.06,177.13l-.65-.16c.09-.11.19-.23.3-.34a6.65,6.65,0,0,1,1.34-1.11l.64,1a1.48,1.48,0,0,1,.25.85,4.41,4.41,0,0,0-.77.67,4.23,4.23,0,0,0-.52.65,1,1,0,0,0,.1-.91A1,1,0,0,0,572.06,177.13Z"/><path class="cls-3" d="M572.59,178.73a.43.43,0,0,0,0,.07h0Z"/><path class="cls-1" d="M572.65,185.21a5,5,0,0,1-.45-.82,2,2,0,0,1,1.22.34,2,2,0,0,1,.85,2,5,5,0,0,1-1.21-1,3.43,3.43,0,0,1-.35-.45S572.68,185.23,572.65,185.21Z"/><path class="cls-3" d="M571.19,178.14l-.29-.44a1.09,1.09,0,0,1,.08-.15,5.79,5.79,0,0,1,.43-.58l.65.16a1,1,0,0,1,.69.61,1,1,0,0,1-.1.91h0l0,.07-.08.07h-.07A1.49,1.49,0,0,1,571.19,178.14Z"/><path class="cls-3" d="M571.38,186.84h.5a1,1,0,0,0,.83-1.56,3.43,3.43,0,0,0,.35.45,5,5,0,0,0,1.21,1,2.07,2.07,0,0,1-.31.76l-.66,1a6.54,6.54,0,0,1-1.74-1.43Z"/><path class="cls-3" d="M571,186.39a1,1,0,0,1,1.61-1.18s0,0,.06.07a1,1,0,0,1-.83,1.56h-.5C571.26,186.7,571.15,186.54,571,186.39Z"/><path class="cls-3" d="M571.26,178.93a1,1,0,0,1-.36-1.23l.29.44a1.49,1.49,0,0,0,1.25.67h.07A1,1,0,0,1,571.26,178.93Z"/><path class="cls-3" d="M570.9,177.7l-.69-1,1.2.3a5.79,5.79,0,0,0-.43.58A1.09,1.09,0,0,0,570.9,177.7Z"/><path class="cls-3" d="M570.64,185.27a2,2,0,0,1,1.56-.88,5,5,0,0,0,.45.82,1,1,0,0,0-1.61,1.18c.11.15.22.31.34.45h-1.79Z"/><path class="cls-3" d="M570.21,176.67l.69,1a1,1,0,0,0,1.61,1.1h0a5.9,5.9,0,0,0-.88,3.12,5.64,5.64,0,0,0,.54,2.46,2,2,0,0,0-1.56.88l-.43-.43a8,8,0,0,1,.11-6.08l-15.44-3.86a1.48,1.48,0,0,0,.48-1.94Z"/><path class="cls-3" d="M552.71,174.36l2.17.54,0,0a1.51,1.51,0,0,1-.79.23,1.48,1.48,0,0,1-1.27-.71Z"/><path class="cls-3" d="M552.71,174.36l-1.52-2.44h0l4.12,1a1.48,1.48,0,0,1-.48,1.94Z"/><path class="cls-3" d="M551,177.58a1.81,1.81,0,1,0,1.51,1.79A1.67,1.67,0,0,0,551,177.58Zm-3.52,1.79a3.52,3.52,0,1,1,3.52,3.78A3.67,3.67,0,0,1,547.47,179.37Z"/><path class="cls-2" d="M551,175.58a3.8,3.8,0,1,0,3.51,3.79A3.67,3.67,0,0,0,551,175.58Zm-4,5.32a6.59,6.59,0,0,1-.37-2.22v-1a4.07,4.07,0,0,1,1.5-3.22,3.08,3.08,0,0,1,2.68-.6l2,.49.06.09a1.48,1.48,0,0,0,1.27.71,1.51,1.51,0,0,0,.79-.23l0,0,15.44,3.86a8,8,0,0,0-.11,6.08H552a5.11,5.11,0,0,1-3.75-1.71,1.43,1.43,0,0,0-.41-1.3Z"/><path class="cls-3" d="M548.29,183.13a4.86,4.86,0,0,1-.63-.79,6,6,0,0,1-.71-1.44l.93.93A1.43,1.43,0,0,1,548.29,183.13Z"/><path class="cls-3" d="M552,186.84a7.15,7.15,0,0,1-5.33-2.46h.11a1.49,1.49,0,0,0,1.06-.44,1.43,1.43,0,0,0,.41-.82,5.11,5.11,0,0,0,3.75,1.71h18.17l.43.43-1,1.57Z"/><path class="cls-3" d="M547,180.9l-2.37-2.37v-.84a6.1,6.1,0,0,1,2.27-4.8,5.09,5.09,0,0,1,4.34-1l1.52,2.44-2-.49a3.08,3.08,0,0,0-2.68.6,4.07,4.07,0,0,0-1.5,3.22v1A6.59,6.59,0,0,0,547,180.9Z"/><path class="cls-3" d="M544.58,178.53,547,180.9a6,6,0,0,0,.71,1.44,4.86,4.86,0,0,0,.63.79,1.43,1.43,0,0,1-.41.82,1.49,1.49,0,0,1-1.06.44h-.11a7.53,7.53,0,0,1-.72-.94,8.55,8.55,0,0,1-1.41-4.76Z"/><path class="cls-3" d="M545.76,184l-94-94,2.22-2,90.57,90.64v.15a8.55,8.55,0,0,0,1.41,4.76,7.53,7.53,0,0,0,.72.94A1.49,1.49,0,0,1,545.76,184Z"/><path class="cls-3" d="M545.13,135.82l-.62-.73.55.8a4.66,4.66,0,0,1-1.39.84l-.49-.74a1.54,1.54,0,0,1-.24-1,2.73,2.73,0,0,0,.81-.47.9.9,0,0,1,.17-.16,3.07,3.07,0,0,0,.53-.67,1.55,1.55,0,0,1,1.23.67l.32.48a5.22,5.22,0,0,1-.74.89A.77.77,0,0,1,545.13,135.82Z"/><path class="cls-3" d="M544.45,133.66a3.07,3.07,0,0,1-.53.67.9.9,0,0,0-.17.16,2.73,2.73,0,0,1-.81.47,1.54,1.54,0,0,1,.66-1.05A1.56,1.56,0,0,1,544.45,133.66Z"/><path class="cls-3" d="M545.06,135.89l-.55-.8.62.73a.77.77,0,0,0,.13-.12,5.22,5.22,0,0,0,.74-.89l27,40.71a6.65,6.65,0,0,0-1.34,1.11c-.11.11-.21.23-.3.34l-1.2-.3-26.54-39.94A4.66,4.66,0,0,0,545.06,135.89Z"/><path class="cls-3" d="M519.39,91.49l26.48,37a5.7,5.7,0,0,1,.13,6.35l-.32-.48a1.55,1.55,0,0,0-1.23-.67,3.81,3.81,0,0,0-.14-4.08L518.19,93.11a3.81,3.81,0,0,0,.92-1.07A3.55,3.55,0,0,0,519.39,91.49Z"/><path class="cls-3" d="M519.39,91.49a3.55,3.55,0,0,1-.28.55,3.81,3.81,0,0,1-.92,1.07l-.7-1a1,1,0,0,1-.08-1,.21.21,0,0,1,0-.06.89.89,0,0,1,.26-.29,1,1,0,0,1,1.34.23Z"/><path class="cls-3" d="M512.67,97.31l27.14,36.62a2.75,2.75,0,0,0,2.24,1.19,2.65,2.65,0,0,0,.89-.16,1.54,1.54,0,0,0,.24,1l.49.74a4.25,4.25,0,0,1-1.62.31,4.69,4.69,0,0,1-3.78-2L511.15,98.48l.82-.62a.52.52,0,0,0,.11-.1Z"/><path class="cls-3" d="M510.43,97.08a1,1,0,0,1,.27-.66h0l.11-.09a1,1,0,0,1,.56-.19h0a1,1,0,0,1,.9.66l.38.52-.59.45a.52.52,0,0,1-.11.1l-.82.62-.53-.72a1.16,1.16,0,0,1-.19-.66Z"/><path class="cls-3" d="M516.92,91.68a2,2,0,0,0,.49-.55,1,1,0,0,0,.08,1l.7,1a.52.52,0,0,1-.11.1l-5.41,4.1-.38-.52a1,1,0,0,0-.9-.66h0a1,1,0,0,0-.56.19Z"/><path class="cls-3" d="M510.81,96.32h0l-.11.09A.41.41,0,0,1,510.81,96.32Z"/><path class="cls-3" d="M510.7,96.42a1,1,0,0,0-.27.66v0a1.16,1.16,0,0,0,.19.66l.53.72-1.53,1.17-1-1.64,2.09-1.59S510.7,96.42,510.7,96.42Z"/><path class="cls-3" d="M508.6,98l1,1.64-1.13.86a1,1,0,0,1-.58.19,1,1,0,0,1-.77-.38l-.09-.13a1,1,0,0,1,.27-1.21Z"/><path class="cls-3" d="M508.49,100.51l1.13-.86,45.69,73.21a.47.47,0,0,1,.05.1l-4.12-1h0l-44.56-71.38,0-.06.46-.29.09.13a1,1,0,0,0,.77.38A1,1,0,0,0,508.49,100.51Z"/><path class="cls-3" d="M494.81,75.43l22.56,10.49a4,4,0,0,1,2.16,2.52,4.56,4.56,0,0,1-.14,3l-.34-.48a1,1,0,0,0-1.34-.23.89.89,0,0,0-.26.29,2.61,2.61,0,0,0,.24-2.07,2.14,2.14,0,0,0-1.13-1.34l-20.31-9.44-1.6-2.56-.22-.35A1.39,1.39,0,0,1,494.81,75.43Z"/><path class="cls-3" d="M492.66,77.09l-.11-.15a1,1,0,0,1,.19-1.2,1.84,1.84,0,0,1,1.69-.43l.22.35,1.6,2.56-2.24-1A1,1,0,0,1,492.66,77.09Z"/><path class="cls-3" d="M492.55,76.94l.11.15a1,1,0,0,0,1.35.09l2.24,1L508.6,98l-1.28,1a1,1,0,0,0-.27,1.21l-.46.29L492.08,77.23Z"/><path class="cls-2" d="M464.8,66.5A2.47,2.47,0,1,1,467.23,64,2.45,2.45,0,0,1,464.8,66.5Z"/><path class="cls-3" d="M462.36,64a2.44,2.44,0,1,0,2.44-2.47A2.45,2.45,0,0,0,462.36,64Zm2.44,4.46A4.47,4.47,0,1,1,469.23,64,4.45,4.45,0,0,1,464.8,68.5Z"/><path class="cls-3" d="M459.61,265.45A67.08,67.08,0,0,0,459,258a3.58,3.58,0,0,1,.26-.29l1.43-1.45c.28,1.71.49,3.44.63,5.2s.21,3.37.22,5.08l-.78-.37A5.24,5.24,0,0,1,459.61,265.45Z"/><path class="cls-3" d="M459.7,283a68.31,68.31,0,0,0,1.86-15.9c0-.19,0-.38,0-.57l1.85.87a1.26,1.26,0,0,1,.72,1.23l-.92,12.57a1.23,1.23,0,0,1-.91,1.11Z"/><path class="cls-3" d="M460.7,256.29a67.54,67.54,0,0,0-5.51-18.05l3.37.7a1.24,1.24,0,0,1,.95.94l3.36,13.36a1.23,1.23,0,0,1-.32,1.19Z"/><path class="cls-3" d="M460,287.11a1.26,1.26,0,0,0-.84.77l0,.08-.69-.22c.49-1.54.92-3.11,1.29-4.7l2.59-.69a1.23,1.23,0,0,0,.91-1.11l.92-12.57a1.26,1.26,0,0,0-.72-1.23l-1.85-.87c0-1.71-.08-3.41-.22-5.08l.42,0a1.4,1.4,0,0,0,0,.23,1.21,1.21,0,0,0,.69.9l2.64,1.23a5.25,5.25,0,0,1,3,5.15l-.92,12.57a5.2,5.2,0,0,1-3.86,4.68Z"/><path class="cls-3" d="M459.61,265.45a5.21,5.21,0,0,1-1.78-3.06A5.28,5.28,0,0,1,459,258,67.08,67.08,0,0,1,459.61,265.45Z"/><path class="cls-3" d="M457.51,283.88a67,67,0,0,0,2.12-16.74c0-.57,0-1.13,0-1.69a5.24,5.24,0,0,0,1.16.75l.78.37c0,.19,0,.38,0,.57A68.31,68.31,0,0,1,459.7,283l-.76.2A5.26,5.26,0,0,0,457.51,283.88Z"/><path class="cls-3" d="M455.47,290.36a64.18,64.18,0,0,0,2-6.48,5.26,5.26,0,0,1,1.43-.64l.76-.2c-.37,1.59-.8,3.16-1.29,4.7s-1.05,3.14-1.66,4.68l-.78-1.13A4.63,4.63,0,0,1,455.47,290.36Z"/><path class="cls-3" d="M455.47,290.36a5.24,5.24,0,0,1,2-6.48A64.18,64.18,0,0,1,455.47,290.36Z"/><path class="cls-3" d="M451.89,230.26a2,2,0,0,1-.26-2.51l0-.05a2,2,0,0,1,.23-.28,4.6,4.6,0,0,0,1.32-4.36l-.78-3.27L455,222.6a5.26,5.26,0,0,1,.46,6.58L455,230a1,1,0,0,0-.08.11l-.17.18a2,2,0,0,1-1.4.58A2,2,0,0,1,451.89,230.26Z"/><path class="cls-3" d="M459,258a66,66,0,0,0-6.22-20.33,6.36,6.36,0,0,0,.66.18l1.74.36a67.54,67.54,0,0,1,5.51,18.05l-1.43,1.45A3.58,3.58,0,0,0,459,258Z"/><path class="cls-3" d="M450.42,86.42a1.51,1.51,0,0,1,2.12,0L454,87.89l-2.22,2-1.37-1.37A1.5,1.5,0,0,1,450.42,86.42Z"/><path class="cls-3" d="M455.19,238.24a66.28,66.28,0,0,0-4.84-8.69l1.28-1.8a2,2,0,0,0,1.68,3.09,2,2,0,0,0,1.4-.58l.17-.18L453.52,232a1.29,1.29,0,0,0-.15,1.21,1.23,1.23,0,0,0,.89.74l5.13,1.07a5.28,5.28,0,0,1,4,3.85l3.36,13.39a5.29,5.29,0,0,1-1.37,5l-3.27,3.29a1.3,1.3,0,0,0-.36.9l-.42,0c-.14-1.76-.35-3.49-.63-5.2l1.85-1.86a1.23,1.23,0,0,0,.32-1.19l-3.36-13.36a1.24,1.24,0,0,0-.95-.94Z"/><path class="cls-3" d="M450.35,229.55a66.28,66.28,0,0,1,4.84,8.69l-1.74-.36a6.36,6.36,0,0,1-.66-.18,61.78,61.78,0,0,0-3.39-6.06,5.26,5.26,0,0,1,.84-1.93Z"/><path class="cls-3" d="M449.4,231.64a61.78,61.78,0,0,1,3.39,6.06,5.18,5.18,0,0,1-3.13-3A5.27,5.27,0,0,1,449.4,231.64Z"/><path class="cls-3" d="M448.69,308.32l1.59.28a1.25,1.25,0,0,0,1.3-.66l6.49-12.41a1.23,1.23,0,0,0-.08-1.29l-1.24-1.82q.92-2.31,1.66-4.68l.69.22a1.27,1.27,0,0,0,.17,1.07l2,2.93a5.23,5.23,0,0,1,.34,5.43l-6.5,12.41a5.24,5.24,0,0,1-5.51,2.74l-1.61-.28a1.15,1.15,0,0,0-1.11.38l-1.51-1.22q1.31-1.55,2.52-3.18A4.23,4.23,0,0,1,448.69,308.32Z"/><path class="cls-3" d="M447.9,308.24a68.68,68.68,0,0,0,8.85-15.82l1.24,1.82a1.23,1.23,0,0,1,.08,1.29l-6.49,12.41a1.25,1.25,0,0,1-1.3.66l-1.59-.28A4.23,4.23,0,0,0,447.9,308.24Z"/><path class="cls-3" d="M456.75,292.42a68.68,68.68,0,0,1-8.85,15.82,5,5,0,0,0-3.3,1.1,66.68,66.68,0,0,0,10.87-19,4.63,4.63,0,0,0,.5.93Z"/><path class="cls-3" d="M443.9,310a5.34,5.34,0,0,1,.7-.65c-.46.56-.92,1.11-1.39,1.66A4.76,4.76,0,0,1,443.9,310Z"/><path class="cls-3" d="M447.9,308.24q-1.22,1.63-2.52,3.18c-.88,1-1.78,2.05-2.71,3a5.1,5.1,0,0,1,.54-3.45c.47-.55.93-1.1,1.39-1.66A5,5,0,0,1,447.9,308.24Z"/><path class="cls-3" d="M450.35,229.55A68.92,68.92,0,0,0,440,217.21l3.29-.57h.2a1.21,1.21,0,0,1,.9.4l7.68,8.29a1.27,1.27,0,0,1,.11,1.58l-.5.71-.06.09,0,.05Z"/><path class="cls-3" d="M449.4,231.64a67.28,67.28,0,0,0-11.77-14c.19,0,.39,0,.59-.07l1.82-.31a68.92,68.92,0,0,1,10.31,12.34l-.11.16A5.26,5.26,0,0,0,449.4,231.64Z"/><path class="cls-2" d="M409,343.32c46.5,1.37,77.52,3.86,77.52,6.69,0,4.34-72.58,7.86-162.1,7.86s-162.1-3.52-162.1-7.86c0-2.68,27.87-5.06,70.37-6.47l1.59.11h.32a4.49,4.49,0,0,0,1.42-.23l8.29-.25a4.52,4.52,0,0,0,2.1-.05c23.14-.62,49.73-1,78-1,20.06,0,39.27.18,57,.5h.08l14.09,1h.38a5.19,5.19,0,0,0,2.48-.63C402,343.12,405.53,343.21,409,343.32Z"/><path class="cls-3" d="M450.09,86.06,467.69,70a.34.34,0,0,1,.09-.08c1.48-1.2,5.4-5.06,5.74-8.47a3.88,3.88,0,0,0-.94-3c-3.28-4-14.61,1-18.39,3.06L438.77,69.2l-.22-.45a1.49,1.49,0,0,0,.79-1.76l-.63-2.23,13.62-6.82c1.76-1,17.36-9.27,23.34-2.08a8.33,8.33,0,0,1,.82,1.18,7.84,7.84,0,0,1,1,4.82c-.57,5.57-6.49,10.58-7.16,11.13L454,87.89l-1.47-1.47a1.51,1.51,0,0,0-2.12,0Z"/><path class="cls-3" d="M426.93,107.19l23.16-21.13.33.36a1.5,1.5,0,0,0,0,2.13l1.37,1.37L430.4,109.44l26.71,112.69a8.64,8.64,0,0,1-2.23,8A1,1,0,0,1,455,230l.54-.79a5.26,5.26,0,0,0-.46-6.58l-2.61-2.81L427,112.52l-3.52,3.2a11.82,11.82,0,0,1-14.89.78l-14-10.26a11.9,11.9,0,0,1-3.44-3.95.13.13,0,0,0,0,.06l5.18,56.89h0a2,2,0,0,0-1.46-1.75c-.94-.25-1.86-.5-2.78-.73l-4.92-54a8.69,8.69,0,0,1,2.6-6.95A11.85,11.85,0,0,1,396.33,86h0L436,66.12l.48,1.69a1.5,1.5,0,0,0,1.85,1,1.17,1.17,0,0,0,.24-.09l.22.45L398.13,89.54A8,8,0,0,0,397,103l14,10.25a7.81,7.81,0,0,0,9.84-.51l5.93-5.4A1.54,1.54,0,0,1,426.93,107.19Z"/><path class="cls-3" d="M436.46,67.81,436,66.12l2.73-1.36.63,2.23a1.49,1.49,0,0,1-.79,1.76,1.17,1.17,0,0,1-.24.09A1.5,1.5,0,0,1,436.46,67.81Z"/><path class="cls-3" d="M452.11,225.32,444.43,217a1.21,1.21,0,0,0-.9-.4h-.2l-3.29.57q-1.91-1.82-4-3.46l.41-.5a1.21,1.21,0,0,0,1,.33l5.06-.87a3.16,3.16,0,0,1,.73-.08,5.26,5.26,0,0,1,4,1.67l5.08,5.49.78,3.27a4.6,4.6,0,0,1-1.32,4.36,2,2,0,0,0-.23.28l.06-.09.5-.71A1.27,1.27,0,0,0,452.11,225.32Z"/><path class="cls-3" d="M492.74,75.74a1,1,0,0,0-.19,1.2l-.47.29L478.63,55.7l-7.8-12.5h-31.5a4.62,4.62,0,0,0-3.71,1.94,6.13,6.13,0,0,0-1,5.36l4,14.26L436,66.12l-4.2-14.8a9.15,9.15,0,0,1,1.45-8,7.65,7.65,0,0,1,6.1-3.13h32.34a1.51,1.51,0,0,1,1.27.7l21.49,34.41A1.84,1.84,0,0,0,492.74,75.74Z"/><path class="cls-3" d="M437.63,217.59a65.84,65.84,0,0,0-5.43-4.42,5.23,5.23,0,0,1,0-1.63l.1-.67c1.31.9,2.58,1.87,3.81,2.88s2.68,2.25,4,3.46l-1.82.31C438,217.55,437.82,217.58,437.63,217.59Z"/><path class="cls-3" d="M432.2,213.17a65.84,65.84,0,0,1,5.43,4.42,5.2,5.2,0,0,1-5.43-4.42Z"/><path class="cls-3" d="M427.09,326.75a69.93,69.93,0,0,0,15.58-12.3,3.5,3.5,0,0,0,.15.62l.78,2.51a1.24,1.24,0,0,1-.29,1.27l-9.73,9.39a1.19,1.19,0,0,1-1.4.18l-2-1.08A5.06,5.06,0,0,0,427.09,326.75Z"/><path class="cls-3" d="M425.21,327.33a5.08,5.08,0,0,1,1.88-.58c-1.12.64-2.26,1.26-3.42,1.84A5.1,5.1,0,0,1,425.21,327.33Z"/><path class="cls-3" d="M432.28,210.87a67.92,67.92,0,0,0-15.52-8.2l2.67-1.68a1.16,1.16,0,0,1,1.16-.08l11.47,5.75a1.27,1.27,0,0,1,.67,1.32Z"/><path class="cls-3" d="M416.23,203l.53-.33a67.92,67.92,0,0,1,15.52,8.2l-.1.67a5.23,5.23,0,0,0,0,1.63,66.18,66.18,0,0,0-18.08-9.4A5.14,5.14,0,0,0,416.23,203Z"/><path class="cls-3" d="M371.12,279.73a23.37,23.37,0,1,0,39.46-25,2,2,0,0,0,3.33-2.22,27.56,27.56,0,0,1-22.69,42.85h-.83a27.46,27.46,0,0,1-22.73-13.57,2,2,0,0,0,1.73,1,2,2,0,0,0,1-.28A2,2,0,0,0,371.12,279.73Z"/><ellipse class="cls-2" cx="413.31" cy="98.06" rx="7.99" ry="8.06"/><path class="cls-3" d="M411.14,251.92a2,2,0,1,1-.56,2.78,2,2,0,0,1-.33-1.11A2,2,0,0,1,411.14,251.92Z"/><path class="cls-3" d="M410.58,254.7a22.33,22.33,0,0,0-3.36-4,2,2,0,0,0,2.81-2.84,25.19,25.19,0,0,1,3.88,4.6,2,2,0,0,0-3.66,1.11A2,2,0,0,0,410.58,254.7Z"/><path class="cls-3" d="M411.73,203.51a5.16,5.16,0,0,1-1.67-1c1.37.36,2.73.77,4.06,1.23A5.16,5.16,0,0,1,411.73,203.51Z"/><path class="cls-3" d="M410.06,202.54a5.17,5.17,0,0,1-1.56-2.31l0-.07a66,66,0,0,1,8.28,2.51l-.53.33a5.14,5.14,0,0,1-2.11.77C412.79,203.31,411.43,202.9,410.06,202.54Z"/><path class="cls-3" d="M413.31,90a8.06,8.06,0,1,0,8,8.06A8,8,0,0,0,413.31,90Zm0,18a10,10,0,1,1,9.91-10A10,10,0,0,1,413.31,108Z"/><path class="cls-3" d="M403.8,335a67.81,67.81,0,0,0,19.87-6.45,5.25,5.25,0,0,0-1.19,2.91l-.19,2.08a1.21,1.21,0,0,1-.79,1.08l-12.13,4.46a1.18,1.18,0,0,1-1.37-.39l-1.59-2A5.13,5.13,0,0,0,403.8,335Z"/><path class="cls-3" d="M403.8,335q-2,.34-4.11.54a5,5,0,0,1,2.2-.73l.47,0A5,5,0,0,1,403.8,335Z"/><path class="cls-3" d="M397.05,195.13a2,2,0,0,1-1.59-1.77l-.23-2.54,4.07.61.14,1.56a2,2,0,0,1-1.81,2.18,1.76,1.76,0,0,1-.46,0Z"/><path class="cls-3" d="M397.63,195.17a2,2,0,0,0,1.81-2.18l-.14-1.56,7.88,1.19a5.25,5.25,0,0,1,4.16,3.5l1,2.84a1.2,1.2,0,0,0,.76.78,1.17,1.17,0,0,0,1-.12l3.19-2a5.18,5.18,0,0,1,5.12-.27l11.46,5.75a5.28,5.28,0,0,1,2.83,5.49l-.56,3.56a1.29,1.29,0,0,0,.37,1.11l-.41.5c-1.23-1-2.5-2-3.81-2.88l.45-2.89a1.27,1.27,0,0,0-.67-1.32l-11.47-5.75a1.16,1.16,0,0,0-1.16.08l-2.67,1.68a66,66,0,0,0-8.28-2.51l-.92-2.75a1.27,1.27,0,0,0-1-.84l-9.41-1.42A1.76,1.76,0,0,0,397.63,195.17Z"/><path class="cls-3" d="M396.13,279.52a13.5,13.5,0,0,0,1.37-.69A11.7,11.7,0,0,1,396.13,279.52Z"/><path class="cls-3" d="M396.53,260.93l-.22-.16-.16-.12A3.37,3.37,0,0,1,396.53,260.93Z"/><path class="cls-3" d="M398.42,343a5.19,5.19,0,0,1-2.48.63h-.38l-14.09-1Q390.2,342.82,398.42,343Z"/><path class="cls-3" d="M393.87,161.36a2,2,0,0,0,2.45-1.42,1.85,1.85,0,0,0,.05-.7h0l2.92,32.19-4.07-.61L392.51,161Z"/><path class="cls-3" d="M393.73,194.63l3.32.5.12,0,9.41,1.42a1.27,1.27,0,0,1,1,.84l.92,2.75a69,69,0,0,0-15.71-1.81l-1.76,0c.05-.09.1-.18.14-.27l1.29-2.78A1.23,1.23,0,0,1,393.73,194.63Z"/><path class="cls-3" d="M392.51,161l-.38-4.24c.92.23,1.84.48,2.78.73a2,2,0,0,1,1.46,1.75,1.85,1.85,0,0,1-.05.7,2,2,0,0,1-2.45,1.42Z"/><path class="cls-3" d="M392.77,200.27c-1.23,0-2.45,0-3.66.1a4.92,4.92,0,0,0,1.89-2h0l1.76,0a69,69,0,0,1,15.71,1.81l0,.07a5.17,5.17,0,0,0,1.56,2.31A66.59,66.59,0,0,0,392.77,200.27Z"/><path class="cls-3" d="M387.36,201a5.09,5.09,0,0,1-2.79-.26c1.5-.19,3-.33,4.53-.4A5.1,5.1,0,0,1,387.36,201Z"/><path class="cls-2" d="M367.66,281.75a27.46,27.46,0,0,0,22.73,13.57h.83a27.56,27.56,0,0,0,22.69-42.85,25.19,25.19,0,0,0-3.88-4.6l-.06-.06c-.5-.48-1-.95-1.56-1.4s-1.1-.87-1.68-1.27A28.24,28.24,0,0,0,403,243a26.83,26.83,0,0,0-11.81-2.7,27.57,27.57,0,0,0-23.56,41.47Zm70-64.16a67.28,67.28,0,0,1,11.77,14,5.27,5.27,0,0,0,.26,3.06,5.18,5.18,0,0,0,3.13,3A66,66,0,0,1,459,258a5.28,5.28,0,0,0-1.18,4.36,5.21,5.21,0,0,0,1.78,3.06c0,.56,0,1.12,0,1.69a67,67,0,0,1-2.12,16.74,5.24,5.24,0,0,0-2,6.48,66.68,66.68,0,0,1-10.87,19,5.34,5.34,0,0,0-.7.65,4.76,4.76,0,0,0-.69,1,66.84,66.84,0,1,1-100.78-87.83,5,5,0,0,0,1.38-1.22,4.73,4.73,0,0,0,.58-.92h0a67.09,67.09,0,0,1,15.89-12.31,5.21,5.21,0,0,0,2.28-.52,5.3,5.3,0,0,0,2-1.66,66,66,0,0,1,20-5.75,5.17,5.17,0,0,0,4.53-.4h0c1.21-.07,2.43-.1,3.66-.1a66.59,66.59,0,0,1,17.29,2.27,5.23,5.23,0,0,0,4.06,1.23,66.18,66.18,0,0,1,18.08,9.4,5.2,5.2,0,0,0,5.43,4.42Z"/><path class="cls-3" d="M382.79,199.64l-.51-.5a71.35,71.35,0,0,1,8.72-.77,4.92,4.92,0,0,1-1.89,2h0c-1.52.07-3,.21-4.53.4A5.11,5.11,0,0,1,382.79,199.64Z"/><path class="cls-3" d="M380.61,269.94a2,2,0,0,1,2.6,1.12,8.62,8.62,0,0,0,16.64-3.25c0-.19,0-.37,0-.55a7.78,7.78,0,0,0-.11-1l0-.16a8.12,8.12,0,0,0-.25-1,9.38,9.38,0,0,0-.63-1.49,9.13,9.13,0,0,0-.87-1.32l-.07-.08a8.42,8.42,0,0,0-.64-.7l-.43-.39-.27-.22a3.37,3.37,0,0,0-.38-.28,1,1,0,0,0-.16-.12h0l-.05,0a2,2,0,0,1,2.22-3.33,12.76,12.76,0,0,1,.63,20.83c-.41.3-.83.58-1.27.84a13.5,13.5,0,0,1-1.37.69,12.59,12.59,0,0,1-16.64-7l-.06-.17A2,2,0,0,1,380.61,269.94Z"/><path class="cls-3" d="M379.43,272.36a12.71,12.71,0,0,1,11.79-17.28,12.3,12.3,0,0,1,6.92,2.08,2,2,0,0,0-2.22,3.33,8.38,8.38,0,0,0-4.7-1.41,8.69,8.69,0,0,0-8.64,8.73,8.94,8.94,0,0,0,.63,3.25,2,2,0,0,0-3.78,1.3Z"/><path class="cls-3" d="M378.4,196.33a1.26,1.26,0,0,1,1.29.28l2.59,2.53A68.45,68.45,0,0,0,365.51,204l.38-2.28a1.21,1.21,0,0,1,.77-.93Z"/><path class="cls-3" d="M378.3,334.4a69,69,0,0,0,21.39,1.18,5.15,5.15,0,0,0-1.91,2L397,339a1.22,1.22,0,0,1-1.14.65l-14.17-1a1.24,1.24,0,0,1-1.07-.82l-.35-.94A5.18,5.18,0,0,0,378.3,334.4Z"/><path class="cls-3" d="M378.3,334.4c-1.19-.26-2.37-.54-3.54-.87l.6,0A5.21,5.21,0,0,1,378.3,334.4Z"/><path class="cls-3" d="M391.22,240.28A26.83,26.83,0,0,1,403,243a28.24,28.24,0,0,1,3.7,2.17c.58.4,1.14.83,1.68,1.27s1.06.92,1.56,1.4l.06.06a2,2,0,0,1-2.81,2.84,23,23,0,0,0-16-6.44,23.45,23.45,0,0,0-23.32,23.53,23.74,23.74,0,0,0,.82,6.19,22.08,22.08,0,0,0,.72,2.22,23.06,23.06,0,0,0,1.68,3.51,2,2,0,0,1-.72,2.73,2,2,0,0,1-1,.28,2,2,0,0,1-1.73-1,27.57,27.57,0,0,1,23.56-41.47Z"/><path class="cls-3" d="M384.57,200.78a66,66,0,0,0-20,5.75,5.29,5.29,0,0,0,.92-2.18l.06-.37a68.45,68.45,0,0,1,16.77-4.84l.51.5A5.11,5.11,0,0,0,384.57,200.78Z"/><path class="cls-3" d="M386.64,197.11a1.21,1.21,0,0,0,.88-.69l1.3-2.8a5.23,5.23,0,0,1,5.5-2.94l.91.14.23,2.54a2,2,0,0,0,1.59,1.77l-3.32-.5a1.23,1.23,0,0,0-1.29.69l-1.29,2.78c0,.09-.09.18-.14.27h0a71.35,71.35,0,0,0-8.72.77l-2.59-2.53a1.26,1.26,0,0,0-1.29-.28l-11.74,4.44a1.21,1.21,0,0,0-.77.93l-.38,2.28c-1.39.6-2.77,1.25-4.11,1.94l-.68-1.29.1,0a1.17,1.17,0,0,0,.68-.9L362,201a5.21,5.21,0,0,1,3.3-4L377,192.58a5.25,5.25,0,0,1,5.46,1.16l3.11,3A1.2,1.2,0,0,0,386.64,197.11Z"/><path class="cls-3" d="M364.53,206.53a5.3,5.3,0,0,1-2,1.66,5.21,5.21,0,0,1-2.28.52C361.66,207.93,363.08,207.21,364.53,206.53Z"/><path class="cls-3" d="M360.28,208.71a5.2,5.2,0,0,1-2.48-.64l-.14-.07c1.22-.73,2.47-1.42,3.74-2.08s2.72-1.34,4.11-1.94l-.06.37a5.29,5.29,0,0,1-.92,2.18C363.08,207.21,361.66,207.93,360.28,208.71Z"/><path class="cls-3" d="M374.76,333.53a5.18,5.18,0,0,0-3.35,1.79,1.18,1.18,0,0,1-1.41.31l-12.73-5.92a1.17,1.17,0,0,1-.69-.92l-.36-2.3a5,5,0,0,0-.39-1.34A68,68,0,0,0,374.76,333.53Z"/><path class="cls-3" d="M353.06,322.44a5.18,5.18,0,0,1,2.77,2.71q-2.29-1.47-4.46-3.1A5,5,0,0,1,353.06,322.44Z"/><path class="cls-3" d="M350.6,150a.86.86,0,0,0,0-.42l0-.1.73-.8-.11.86-.59.66Z"/><path class="cls-3" d="M350.49,150.34a.91.91,0,0,0,.11-.3l0,.2Z"/><path class="cls-3" d="M350.35,150.53l-.55.58.69-.77A.85.85,0,0,1,350.35,150.53Z"/><path class="cls-3" d="M349.8,151.11a.93.93,0,0,1-1,.28l1.73-1.87,0,.1a.86.86,0,0,1,0,.42.91.91,0,0,1-.11.3Z"/><path class="cls-3" d="M349.11,149.08a.42.42,0,0,1,.17-.1Z"/><path class="cls-3" d="M349,149.21a.37.37,0,0,1,.15-.13Z"/><path class="cls-3" d="M352.89,90h-21V89a1,1,0,0,0-1-1h21.94a5.78,5.78,0,0,1,5.55,5.64L361,136.9a3.65,3.65,0,0,1-1,2.76l-8.88,9.92.11-.86-.73.8s0,0,0,0a.82.82,0,0,0-.12-.2l-.11-.13-.07-.06a0,0,0,0,0,0,0l-.05,0a.89.89,0,0,0-.74-.14l-.16,0a.42.42,0,0,0-.17.1.37.37,0,0,0-.15.13.24.24,0,0,0-.08.09l-.51.53,10.27-11.46a1.8,1.8,0,0,0,.48-1.35l-2.6-43.19A3.87,3.87,0,0,0,352.89,90Z"/><path class="cls-3" d="M349.8,151.11l-1.49,1.58.11-.86.4-.44A.93.93,0,0,0,349.8,151.11Z"/><path class="cls-3" d="M348.5,151.24a.85.85,0,0,0,.32.15l-.4.44Z"/><path class="cls-3" d="M348.82,151.39a.85.85,0,0,1-.32-.15l.2-1.5a.9.9,0,0,1,.18-.44.24.24,0,0,1,.08-.09l.15-.13.17-.1.16,0a.89.89,0,0,1,.74.14l.05,0a0,0,0,0,1,0,0l.07.06.11.13a.82.82,0,0,1,.12.2s0,0,0,0Z"/><path class="cls-3" d="M348.7,149.74l-.2,1.5-.06-.05a1,1,0,0,1-.09-1.33l0,0,.51-.53A.9.9,0,0,0,348.7,149.74Z"/><polygon class="cls-3" points="348.42 151.83 348.31 152.69 347.72 153.32 347.83 152.47 348.42 151.83"/><path class="cls-3" d="M357.66,208a69.18,69.18,0,0,0-12.8,9.82,2.25,2.25,0,0,0-.06-.36l-.69-2.93a1.26,1.26,0,0,1,.49-1.32l9.26-6.53a1.16,1.16,0,0,1,1.25-.08Z"/><path class="cls-3" d="M344.86,217.82a69.18,69.18,0,0,1,12.8-9.82l.14.07a5.2,5.2,0,0,0,2.48.64A67.09,67.09,0,0,0,344.39,221,5,5,0,0,0,344.86,217.82Z"/><path class="cls-3" d="M343.81,222a5,5,0,0,1-1.38,1.22c.64-.73,1.29-1.44,2-2.14A4.73,4.73,0,0,1,343.81,222Z"/><path class="cls-3" d="M344.86,217.82q-1.55,1.5-3,3.09l-1.53-1.15a1.14,1.14,0,0,0,.34-.29,1.26,1.26,0,0,0,.23-1.1l-.68-2.91a5.24,5.24,0,0,1,1.13-4.68h0a5.26,5.26,0,0,1,.93-.83l9.24-6.52a5.17,5.17,0,0,1,5.5-.32l2.68,1.46a1.16,1.16,0,0,0,1,.07l.68,1.29c-1.27.66-2.52,1.35-3.74,2.08l-2.55-1.4a1.16,1.16,0,0,0-1.25.08l-9.26,6.53a1.26,1.26,0,0,0-.49,1.32l.69,2.93A2.25,2.25,0,0,1,344.86,217.82Z"/><path class="cls-3" d="M339.29,223.93c.82-1,1.69-2,2.58-3s2-2.09,3-3.09a5,5,0,0,1-.47,3.2h0c-.67.7-1.32,1.41-2,2.14a5.11,5.11,0,0,1-2.71.76Z"/><rect class="cls-2" x="326.33" y="178.99" width="13.31" height="1.89"/><path class="cls-3" d="M335.57,305.31a69.28,69.28,0,0,0,15.8,16.74,5.07,5.07,0,0,0-3.39,1l-.35.27a1.23,1.23,0,0,1-1.51-.12l-10.46-9.56a1.32,1.32,0,0,1-.34-1.31l.76-2.47a5.31,5.31,0,0,0-.66-4.44Z"/><path class="cls-3" d="M289.75,216.57c0-.18.75-.57,1.23-.86h0l.36.33c-.13.09-.3.19-.49.3l-.26.16h43.81a.47.47,0,0,0,.33-.14l7.64-8.13a.39.39,0,0,0,.12-.24l7.36-56.23-1.09,1.16-7.16,54.79-7.41,7.86H291.82l.28-.31v-.19H334l7.15-7.59,7.16-54.79,1.49-1.58.55-.58a.85.85,0,0,0,.14-.19l.09-.1L343,208a.91.91,0,0,1-.25.53L341,210.44l-5.88,6.25a1,1,0,0,1-.7.31H290.67C291.2,217,289.75,217.11,289.75,216.57Z"/><polygon class="cls-3" points="334 215.07 292.09 215.07 292.08 214.57 333.78 214.57 340.67 207.26 347.72 153.32 348.31 152.69 341.15 207.48 334 215.07"/><path class="cls-3" d="M331.92,165.09v-1.66l4-.38,12.45-13.19a1,1,0,0,0,.09,1.33l.06.05-.08.59-.59.64-.11.85-10.67,11.31a1,1,0,0,1-.61.3l-4.57.44A.66.66,0,0,0,331.92,165.09Z"/><path class="cls-3" d="M331.92,163.43v.7a1,1,0,0,0-.28-.67Z"/><path class="cls-3" d="M331.17,240.35a5.29,5.29,0,0,0,.11-4,68.45,68.45,0,0,1,8-12.38h.43a5.11,5.11,0,0,0,2.71-.76,67,67,0,0,0-11,17.31Z"/><path class="cls-3" d="M330.91,235.53l-1.46-2.47a1.29,1.29,0,0,1,.05-1.35l5-7.25a1.19,1.19,0,0,1,1-.53h3.82a68.45,68.45,0,0,0-8,12.38A4.63,4.63,0,0,0,330.91,235.53Z"/><path class="cls-3" d="M331.17,240.35a5,5,0,0,1-2.84,2.71,68.87,68.87,0,0,1,2.95-6.75A5.29,5.29,0,0,1,331.17,240.35Z"/><path class="cls-3" d="M331,163.17a1,1,0,0,1,.69.29l-1.49.14A1,1,0,0,1,331,163.17Z"/><path class="cls-3" d="M331.92,90H330V89a1,1,0,1,1,1.93,0Z"/><path class="cls-3" d="M331,165.09a1,1,0,0,1-1-1,1,1,0,0,1,.16-.53l1.49-.14a1,1,0,0,1,.28.67A1,1,0,0,1,331,165.09Z"/><path class="cls-3" d="M330.15,163.6l-.16,0V90h1.93v73.44l-.28,0a1,1,0,0,0-1.49.14Z"/><path class="cls-3" d="M330,164.13a1,1,0,0,0,1.93,0v1a.66.66,0,0,1-.05.28l-1.76.17a.87.87,0,0,1-.12-.45Z"/><path class="cls-3" d="M330.15,163.6a1,1,0,0,0-.16.53v-.51Z"/><path class="cls-3" d="M328.27,284.79A66.84,66.84,0,0,0,443.21,311a5.1,5.1,0,0,0-.54,3.45,69.93,69.93,0,0,1-15.58,12.3,5.15,5.15,0,0,0-3.42,1.84A67.81,67.81,0,0,1,403.8,335a5,5,0,0,0-1.44-.21l-.47,0a5,5,0,0,0-2.2.73,69,69,0,0,1-21.39-1.18,5.21,5.21,0,0,0-2.94-.9l-.6,0a68,68,0,0,1-18.93-8.38,5.18,5.18,0,0,0-2.77-2.71,5,5,0,0,0-1.69-.39,69.28,69.28,0,0,1-15.8-16.74,68.3,68.3,0,0,1-8.17-16.75,5.15,5.15,0,0,0,.3-3.62Z"/><path class="cls-3" d="M327.4,288.56a68.3,68.3,0,0,0,8.17,16.75l-.15.1a5.25,5.25,0,0,0-3.8-2.31l-2.4-.25a1.24,1.24,0,0,1-1.05-.9l-2.72-9.44a1.37,1.37,0,0,1,.15-1.06l1.46-2.26A5.49,5.49,0,0,0,327.4,288.56Z"/><path class="cls-3" d="M325.6,282A68.79,68.79,0,0,1,324,267.14c0-.64,0-1.27,0-1.9a5.26,5.26,0,0,0,.42-6,67.86,67.86,0,0,1,3.9-16.2,5,5,0,0,0,2.84-2.71l.28.13a66.85,66.85,0,0,0-3.18,44.31l-.57.15a4.11,4.11,0,0,0-.15-.46A5.19,5.19,0,0,0,325.6,282Z"/><path class="cls-3" d="M327.4,288.56a65.22,65.22,0,0,1-1.8-6.55,5.19,5.19,0,0,1,1.95,2.47,4.11,4.11,0,0,1,.15.46A5.15,5.15,0,0,1,327.4,288.56Z"/><path class="cls-3" d="M324,265.24q.08-3,.42-6a5.26,5.26,0,0,1-.42,6Z"/><path class="cls-3" d="M339.64,179H326.33v1.89h13.31Zm.09,3.81H326.24a1.83,1.83,0,0,1-1.83-1.83V178.9a1.83,1.83,0,0,1,1.83-1.83h13.49a1.83,1.83,0,0,1,1.83,1.83V181A1.83,1.83,0,0,1,339.73,182.8Z"/><path class="cls-3" d="M321.92,255.71l2.44-11a1.32,1.32,0,0,1,1-.95l2.15-.46a4.09,4.09,0,0,0,.84-.26,67.86,67.86,0,0,0-3.9,16.2,4.7,4.7,0,0,0-.85-1.1l-1.32-1.26A1.25,1.25,0,0,1,321.92,255.71Z"/><path class="cls-3" d="M324,267.14A68.79,68.79,0,0,0,325.6,282a4.92,4.92,0,0,0-1.52-.71l-.63-.17a1.15,1.15,0,0,1-.75-.74,1.26,1.26,0,0,1-.05-.15s0,0,0,0a.24.24,0,0,1,0-.08L321.42,268a1.23,1.23,0,0,1,.56-1.17l0,0,.74-.48a4.88,4.88,0,0,0,1.26-1.13C324,265.87,324,266.5,324,267.14Z"/><path class="cls-3" d="M446.89,312.64a1.26,1.26,0,0,0-.25,1.24l.78,2.5a5.22,5.22,0,0,1-1.36,5.37l-9.7,9.37a5.16,5.16,0,0,1-6.08.82l-2-1.08a1.14,1.14,0,0,0-1.14,0,1.21,1.21,0,0,0-.65,1l-.18,2.06a5.22,5.22,0,0,1-3.4,4.51l-12.12,4.46a5.09,5.09,0,0,1-1.79.32,5.25,5.25,0,0,1-4.08-1.95l-1.59-2a1.23,1.23,0,0,0-1.05-.46,1.22,1.22,0,0,0-1,.66l-.79,1.43a5.16,5.16,0,0,1-2.08,2.11q-8.22-.21-16.95-.36h-.08a5.29,5.29,0,0,1-4.53-3.4l-.35-1a1.21,1.21,0,0,0-1.15-.8,1.15,1.15,0,0,0-.9.41,5.19,5.19,0,0,1-6.16,1.34l-12.7-5.9a5.13,5.13,0,0,1-3-4l-.36-2.28a1.2,1.2,0,0,0-.74-1,1.17,1.17,0,0,0-1.14.11l-.36.28a5.26,5.26,0,0,1-6.59-.37L333,316.56a5.35,5.35,0,0,1-1.46-5.4l.76-2.46a1.3,1.3,0,0,0-.16-1.07,1.22,1.22,0,0,0-.89-.56l-2.38-.24a5.21,5.21,0,0,1-4.49-3.76l-2.72-9.45a5.35,5.35,0,0,1,.61-4.3l1.47-2.29a1.26,1.26,0,0,0-.66-1.88l-.64-.16a5.09,5.09,0,0,1-2.78-2h1.19a2,2,0,0,0,2-2,2.25,2.25,0,0,0-.1-.64,1.15,1.15,0,0,0,.75.74l.63.17a4.92,4.92,0,0,1,1.52.71,65.22,65.22,0,0,0,1.8,6.55,5.49,5.49,0,0,1-.34.63l-1.46,2.26a1.37,1.37,0,0,0-.15,1.06l2.72,9.44a1.24,1.24,0,0,0,1.05.9l2.4.25a5.25,5.25,0,0,1,3.8,2.31,5.31,5.31,0,0,1,.66,4.44l-.76,2.47a1.32,1.32,0,0,0,.34,1.31l10.46,9.56a1.23,1.23,0,0,0,1.51.12L348,323a5.07,5.07,0,0,1,3.39-1q2.16,1.63,4.46,3.1a5,5,0,0,1,.39,1.34l.36,2.3a1.17,1.17,0,0,0,.69.92L370,335.63a1.18,1.18,0,0,0,1.41-.31,5.18,5.18,0,0,1,3.35-1.79c1.17.33,2.35.61,3.54.87a5.18,5.18,0,0,1,2,2.51l.35.94a1.24,1.24,0,0,0,1.07.82l14.17,1A1.22,1.22,0,0,0,397,339l.79-1.44a5.15,5.15,0,0,1,1.91-2q2.07-.19,4.11-.54a5.13,5.13,0,0,1,2.61,1.74l1.59,2a1.18,1.18,0,0,0,1.37.39l12.13-4.46a1.21,1.21,0,0,0,.79-1.08l.19-2.08a5.25,5.25,0,0,1,1.19-2.91c1.16-.58,2.3-1.2,3.42-1.84a5.06,5.06,0,0,1,3.06.59l2,1.08a1.19,1.19,0,0,0,1.4-.18l9.73-9.39a1.24,1.24,0,0,0,.29-1.27l-.78-2.51a3.5,3.5,0,0,1-.15-.62c.93-1,1.83-2,2.71-3Z"/><path class="cls-3" d="M321.17,262.07a1.26,1.26,0,0,0-.37-1l-1.3-1.25a5.23,5.23,0,0,1-1.49-4.94l2.45-11a5.31,5.31,0,0,1,4-4l2.2-.47a1.18,1.18,0,0,0,.85-.69,1.27,1.27,0,0,0-.06-1.17L326,235.09a5.29,5.29,0,0,1,.21-5.66l5-7.23a5.21,5.21,0,0,1,4.3-2.27h4.25a1.11,1.11,0,0,0,.62-.17l1.53,1.15c-.89,1-1.76,2-2.58,3h-3.82a1.19,1.19,0,0,0-1,.53l-5,7.25a1.29,1.29,0,0,0-.05,1.35l1.46,2.47a4.63,4.63,0,0,1,.37.78,68.87,68.87,0,0,0-2.95,6.75,4.09,4.09,0,0,1-.84.26l-2.15.46a1.32,1.32,0,0,0-1,.95l-2.44,11a1.25,1.25,0,0,0,.34,1.19l1.32,1.26a4.7,4.7,0,0,1,.85,1.1q-.35,3-.42,6a4.88,4.88,0,0,1-1.26,1.13l-.74.48,0,0a1.23,1.23,0,0,0-.56,1.17l1.19,12.08a.24.24,0,0,0,0,.08A2,2,0,0,0,320.8,279h-2.31l-1.06-10.61a5.23,5.23,0,0,1,2.41-4.93l.76-.49A1.25,1.25,0,0,0,321.17,262.07Z"/><path class="cls-3" d="M322.8,281a2,2,0,0,1-2,2h-1.19a4.24,4.24,0,0,1-.67-1.28,4.13,4.13,0,0,1-.31-1.3l-.14-1.42h2.31a2,2,0,0,1,1.83,1.17s0,0,0,0a1.26,1.26,0,0,0,.05.15A2.25,2.25,0,0,1,322.8,281Z"/><path class="cls-3" d="M319.61,283H293.78l.11-1.57a4.61,4.61,0,0,0-.49-2.43h25.09l.14,1.42a4.13,4.13,0,0,0,.31,1.3A4.24,4.24,0,0,0,319.61,283Z"/><rect class="cls-2" x="289.54" y="229.14" width="28.91" height="1.29"/><rect class="cls-2" x="291.63" y="244.63" width="17.04" height="1.66"/><path class="cls-3" d="M289.78,149.34,295.3,90h1.94l-5.51,59.22A9,9,0,0,0,289.78,149.34Z"/><path class="cls-3" d="M296.36,88.07H331a1,1,0,0,0-1,1V90H297.24l.08-.87a1,1,0,0,0-.87-1h-.09Z"/><path class="cls-3" d="M296.45,88.08a1,1,0,0,1,.87,1l-.08.87H295.3l.1-1a1,1,0,0,1,1-.87Z"/><path class="cls-3" d="M293.4,279a4.61,4.61,0,0,1,.49,2.43l-.11,1.57h-1.89a2,2,0,0,1-2-1.8v-.05a.71.71,0,0,0,0-.15,2,2,0,0,1,2-2Z"/><path class="cls-3" d="M291.82,215.58a.89.89,0,0,1-.36.4Z"/><polygon class="cls-3" points="291.58 214.57 292.08 214.57 292.09 215.07 291.6 215.07 291.58 214.57"/><path class="cls-3" d="M291,215.71c.25-.17.43-.3.37-.36l.25-.28h.49v.19l-.28.31h0l-.36.4-.1.07-.36-.33Z"/><path class="cls-3" d="M291.46,216l-.08.09,0,0Z"/><path class="cls-3" d="M291.31,150.94a.91.91,0,0,0,.2-.24.6.6,0,0,0,.08-.21.32.32,0,0,0,0-.14,0,0,0,0,0,0,0l.1-1.11a7.21,7.21,0,0,1,4.5,1.7c1.4,1.18,10.14,12.18,12.18,14.77L330,163.62v1.47a.87.87,0,0,0,.12.45l-22,2.1H308a1,1,0,0,1-.75-.36c-4.36-5.52-11.22-14-12.24-14.91a5.6,5.6,0,0,0-4.06-1.22l.09,0a.74.74,0,0,0,.27-.16Z"/><path class="cls-3" d="M291.35,215.35a1,1,0,0,0-.45-.25l.47-.53h.21l0,.5Z"/><path class="cls-3" d="M291.08,214.63a1.4,1.4,0,0,0-.41-.06h-.51l-2-62.34.92-.18Z"/><path class="cls-3" d="M290,217.42c-.68-.2-.76-.66-.76-.85,0-.39.34-.62,1-1h.44a.41.41,0,0,1,.31.14c-.48.29-1.23.68-1.23.86,0,.54,1.45.43.92.43h43.75a1,1,0,0,0,.7-.31l5.88-6.25,1.76-1.87A.91.91,0,0,0,343,208l7.57-57.8.59-.66-7.67,58.53a1.39,1.39,0,0,1-.38.8l-1.75,1.86h0L335.48,217a1.42,1.42,0,0,1-1.06.47h-43.7A3.12,3.12,0,0,1,290,217.42Z"/><path class="cls-3" d="M290.36,215.49l.42-.25.12-.14a1,1,0,0,1,.45.25c.06.06-.12.19-.37.36a.41.41,0,0,0-.31-.14h-.44Z"/><path class="cls-3" d="M290.53,151.18a1,1,0,0,1-.82-1l.07-.71.7-.14a1,1,0,0,1,1.13.75.88.88,0,0,1,0,.28,0,0,0,0,1,0,0,.32.32,0,0,1,0,.14.6.6,0,0,1-.08.21.91.91,0,0,1-.2.24l0,0a.74.74,0,0,1-.27.16l-.09,0A2.6,2.6,0,0,0,290.53,151.18Z"/><path class="cls-3" d="M290.61,216.51l.26-.16c.19-.11.36-.21.49-.3l0,0,.08-.09a.89.89,0,0,0,.36-.4h42.39l7.41-7.86,7.16-54.79,1.09-1.16L342.51,208a.39.39,0,0,1-.12.24l-7.64,8.13a.47.47,0,0,1-.33.14H290.61Z"/><path class="cls-3" d="M290.53,151.18a2.6,2.6,0,0,1,.4,0l-.08,0-.18,0h-.14Z"/><path class="cls-3" d="M290.85,151.17l-.88.18a.09.09,0,0,0,0,0v0l.58-.08h.14Z"/><path class="cls-3" d="M291.73,149.21l-.1,1.11a.88.88,0,0,0,0-.28,1,1,0,0,0-1.13-.75l-.7.14v-.09A9,9,0,0,1,291.73,149.21Z"/><path class="cls-3" d="M291.58,214.57l-2-62.85a.86.86,0,0,0-.05-.27l.48-.1a1,1,0,0,1,.07.37l2,62.85Z"/><path class="cls-3" d="M291.63,246.29h17v-1.66h-17Zm-1.92.15v-1.95a1.78,1.78,0,0,1,1.78-1.78h17.33a1.78,1.78,0,0,1,1.77,1.78v1.95a1.77,1.77,0,0,1-1.77,1.77H291.49A1.78,1.78,0,0,1,289.71,246.44Z"/><path class="cls-3" d="M289.78,149.34v.09l-1.55.31A8.22,8.22,0,0,1,289.78,149.34Z"/><path class="cls-3" d="M289.19,215.57l-2.07-63.65.5-.1,2.06,63.25h1a.85.85,0,0,1,.23,0l-.12.14-.42.25-.13.08Z"/><path class="cls-3" d="M289.46,151.37l.48-.11h0v0a.09.09,0,0,1,0,0l-.48.1A.13.13,0,0,0,289.46,151.37Z"/><path class="cls-3" d="M289.46,151.37a1.18,1.18,0,0,0-.26-.37l.62-.12.12.38Z"/><path class="cls-3" d="M288.93,151.53a.93.93,0,0,1-1.06-.27l1.32-.26h0a1.18,1.18,0,0,1,.26.37A3.7,3.7,0,0,0,288.93,151.53Z"/><path class="cls-3" d="M281.13,252.28l.76-.46a.61.61,0,0,0,.41.3l4.18.89a4.68,4.68,0,0,1,3.54,3.44l2.75,11.09a4.74,4.74,0,0,1-1.2,4.44l-2.68,2.74a.68.68,0,0,0-.18.63.63.63,0,0,0,.37.5l2.15,1A4.58,4.58,0,0,1,293.4,279h-1.51a2,2,0,0,0-2,2,.67.67,0,0,0-.37-.54l-.88-.41a54.49,54.49,0,0,0-.93-9.87l1-1a.75.75,0,0,0,.18-.69l-2.75-11.08a.66.66,0,0,0-.49-.5l-2.37-.5Q282.29,254.3,281.13,252.28Z"/><path class="cls-3" d="M287.35,292.56a56.53,56.53,0,0,0,1.3-12.08c0-.13,0-.27,0-.4l.88.41a.67.67,0,0,1,.37.54.71.71,0,0,1,0,.15v.05l-.75,10.36a.67.67,0,0,1-.48.62Z"/><path class="cls-3" d="M286.71,279.09a54.89,54.89,0,0,0-.65-7.19l1.65-1.69a54.49,54.49,0,0,1,.93,9.87l-1.28-.61A4.61,4.61,0,0,1,286.71,279.09Z"/><path class="cls-3" d="M318.45,229.14H289.54v1.29h28.91Zm-30.83-.23a1.7,1.7,0,0,1,1.69-1.7h29.37a1.7,1.7,0,0,1,1.69,1.7v1.75a1.69,1.69,0,0,1-1.69,1.69H289.31a1.69,1.69,0,0,1-1.69-1.69Z"/><path class="cls-3" d="M289.19,151l-1.32.26s0,0-.06-.07a.94.94,0,0,1,.74-.4A1,1,0,0,1,289.19,151Z"/><path class="cls-3" d="M287.81,151.19s0,.05.06.07l-.12,0Z"/><path class="cls-3" d="M287.69,151a1,1,0,0,1,.53-1.23h0l1.55-.31-.07.71a1,1,0,0,0,.82,1l-.58.08h0l-.12-.38-.62.12h0a1,1,0,0,0-.64-.21.94.94,0,0,0-.74.4A.88.88,0,0,1,287.69,151Z"/><path class="cls-3" d="M289.49,151.45l-1.87.37v0a.87.87,0,0,1,.13-.5l.12,0a.93.93,0,0,0,1.06.27,3.7,3.7,0,0,1,.53-.16A.13.13,0,0,1,289.49,151.45Z"/><path class="cls-3" d="M289.05,152.05l-.92.18,2,62.34h.51a1.4,1.4,0,0,1,.41.06Zm.63,63-2.06-63.25,1.87-.37a.86.86,0,0,1,.05.27l2,62.85h-.21l-.47.53a.85.85,0,0,0-.23,0Z"/><path class="cls-3" d="M287.62,151.78v0l-.5.1,0-.51.65-.13A.87.87,0,0,0,287.62,151.78Z"/><path class="cls-3" d="M286.16,297.11c.46-1.49.86-3,1.19-4.55l1.32-.35a.67.67,0,0,0,.48-.62l.75-10.36a2,2,0,0,0,2,1.8h1.89l-.64,8.85a4.67,4.67,0,0,1-3.43,4.19l-2.73.74a.65.65,0,0,0-.44.41Z"/><path class="cls-3" d="M286.71,279.09a4.72,4.72,0,0,1-.67-7.17l0,0A54.89,54.89,0,0,1,286.71,279.09Z"/><path class="cls-3" d="M287.71,270.21a55.72,55.72,0,0,0-4.43-13.79l2.37.5a.66.66,0,0,1,.49.5l2.75,11.08a.75.75,0,0,1-.18.69Z"/><path class="cls-3" d="M285.24,293.2a55,55,0,0,0,1.49-12.72c0-.46,0-.93,0-1.39a4.61,4.61,0,0,0,.65.38l1.28.61c0,.13,0,.27,0,.4a56.53,56.53,0,0,1-1.3,12.08l-1.41.38A4.19,4.19,0,0,0,285.24,293.2Z"/><path class="cls-3" d="M283.16,299.91a52.69,52.69,0,0,0,2.08-6.71,4.19,4.19,0,0,1,.7-.26l1.41-.38c-.33,1.54-.73,3.06-1.19,4.55s-1.06,3.19-1.69,4.73l-1.17-1.72Z"/><path class="cls-3" d="M285.24,293.2a52.69,52.69,0,0,1-2.08,6.71,4.74,4.74,0,0,1-.36-4.09A4.59,4.59,0,0,1,285.24,293.2Z"/><path class="cls-3" d="M281.47,256l1.81.39a55.72,55.72,0,0,1,4.43,13.79l-1.65,1.69a54,54,0,0,0-5.2-16A3.91,3.91,0,0,0,281.47,256Z"/><path class="cls-3" d="M280.86,255.86a53.86,53.86,0,0,0-3-5.22,4.73,4.73,0,0,1,.76-1.88l.15-.21c.83,1.21,1.62,2.46,2.36,3.73s1.49,2.73,2.15,4.14l-1.81-.39A3.91,3.91,0,0,1,280.86,255.86Z"/><path class="cls-3" d="M277.84,313.72l1.2.21a.62.62,0,0,0,.65-.34l5.3-10.28a.77.77,0,0,0,0-.75l-.48-.72c.63-1.54,1.2-3.12,1.69-4.73l.38.11a.72.72,0,0,0,.08.66l1.65,2.45a4.72,4.72,0,0,1,.27,4.81l-5.3,10.28a4.58,4.58,0,0,1-4.9,2.45l-1.3-.23h-.11l-1.23-1.14C276.44,315.59,277.16,314.67,277.84,313.72Z"/><path class="cls-3" d="M279,313.93l-1.2-.21a56.12,56.12,0,0,0,6.63-11.88l.48.72a.77.77,0,0,1,0,.75l-5.3,10.28A.62.62,0,0,1,279,313.93Z"/><path class="cls-3" d="M277.86,250.64a53.86,53.86,0,0,1,3,5.22,4.71,4.71,0,0,1-3-5.22Z"/><path class="cls-3" d="M275.27,314a54.4,54.4,0,0,0,7.89-14l.14.21,1.17,1.72a56.12,56.12,0,0,1-6.63,11.88l-.11,0A4.45,4.45,0,0,0,275.27,314Z"/><path class="cls-3" d="M272.76,94.62a6.79,6.79,0,0,1,1.9-4.78,5.75,5.75,0,0,1,4.12-1.77h17.58a1,1,0,0,0-1,.87l-.1,1H278.78A3.83,3.83,0,0,0,276,91.18a4.9,4.9,0,0,0-1.35,3.55l1.23,55.45a1.74,1.74,0,0,0,.64,1.34,1.53,1.53,0,0,0,1.28.32l10.39-2.09a1,1,0,0,0-.53,1.23.88.88,0,0,0,.12.21l-.06.09-.65.13,0,.51-8.91,1.8a3.21,3.21,0,0,1-.68.07,3.47,3.47,0,0,1-2.18-.77,3.65,3.65,0,0,1-1.36-2.8l-1.23-55.45Z"/><path class="cls-3" d="M275.7,316.49q-1.49,1.8-3.11,3.47l-.07-.23a4.71,4.71,0,0,1-.11-2.38c1-1.09,1.95-2.23,2.86-3.4a4.45,4.45,0,0,1,2.46-.25l.11,0C277.16,314.67,276.44,315.59,275.7,316.49Z"/><path class="cls-3" d="M278.77,248.55a56.75,56.75,0,0,0-8.29-9.61l2.88-.5a.61.61,0,0,1,.54.2l6.28,6.88a.75.75,0,0,1,.06.9Z"/><path class="cls-3" d="M272.41,317.35a4.64,4.64,0,0,1,2.86-3.4C274.36,315.12,273.41,316.26,272.41,317.35Z"/><path class="cls-3" d="M268.5,235.23a.59.59,0,0,1-.52-.16.7.7,0,0,1-.2-.63l.44-3a4.76,4.76,0,0,0-1.44-4.16c0-3.09,0-6.56,0-10.31h4c0,7.21,0,13.38,0,17.83Z"/><path class="cls-3" d="M273.36,238.44l-2.88.5-.3-.28.05,0a2,2,0,0,0,.58-1.42c0-.72,0-1.51,0-2.37l1.87-.33a4.58,4.58,0,0,1,4.18,1.44l6.28,6.88a4.76,4.76,0,0,1,.4,5.87L281.92,251a.75.75,0,0,0-.08.69l.05.1-.76.46c-.74-1.27-1.53-2.52-2.36-3.73l1.47-2.13a.75.75,0,0,0-.06-.9l-6.28-6.88A.61.61,0,0,0,273.36,238.44Z"/><path class="cls-3" d="M269.22,239.16a1.89,1.89,0,0,0,1-.5l.3.28Z"/><path class="cls-3" d="M269.14,239.18l-.24,0Z"/><path class="cls-3" d="M267.93,239.22a4.5,4.5,0,0,0,1,0l.24,0h.08l1.26-.22a56.75,56.75,0,0,1,8.29,9.61l-.15.21a4.73,4.73,0,0,0-.76,1.88A55.24,55.24,0,0,0,267.93,239.22Z"/><path class="cls-2" d="M230.73,303.62a23.14,23.14,0,1,0-22.67-23.14A22.94,22.94,0,0,0,230.73,303.62Zm16.52-75.7a54.38,54.38,0,0,1,16.81,8.23,4.62,4.62,0,0,0,3.86,3.07h0a55.24,55.24,0,0,1,9.93,11.42,4.71,4.71,0,0,0,3,5.22,54,54,0,0,1,5.2,16l0,0a4.72,4.72,0,0,0,.67,7.17c0,.46,0,.93,0,1.39a55,55,0,0,1-1.49,12.72,4.59,4.59,0,0,0-2.44,2.62,4.74,4.74,0,0,0,.36,4.09,54.4,54.4,0,0,1-7.89,14,4.64,4.64,0,0,0-2.86,3.4,54.73,54.73,0,0,1-93-21.82,4.83,4.83,0,0,0-.31-1.38,1.87,1.87,0,0,0-.15-.32,54.43,54.43,0,0,1-1.65-13.35c0-1.46.06-2.91.17-4.34A54.77,54.77,0,0,1,227.26,226q2.34-.21,4.74-.21A54.1,54.1,0,0,1,247.25,227.92Z"/><path class="cls-3" d="M266.81,235.82c0-2.33,0-5.2,0-8.51a4.76,4.76,0,0,1,1.44,4.16l-.44,3a.7.7,0,0,0,.2.63.59.59,0,0,0,.52.16l2.3-.4c0,.86,0,1.65,0,2.37a2,2,0,0,1-.58,1.42l-.05,0C269.1,237.67,268,236.72,266.81,235.82Z"/><path class="cls-3" d="M268.81,239.21a2,2,0,0,1-2-2v-1.39c1.16.9,2.29,1.85,3.37,2.84a1.89,1.89,0,0,1-1,.5h-.08l-.24,0Z"/><path class="cls-3" d="M270.76,217h-4c0-.64,0-1.28,0-1.93h4C270.75,215.72,270.75,216.36,270.76,217Z"/><path class="cls-3" d="M264.06,236.15q2,1.46,3.86,3.07a4.62,4.62,0,0,1-3.86-3.07Z"/><path class="cls-3" d="M263.85,233.66c1,.68,2,1.4,3,2.16v1.39a2,2,0,0,0,2,2h.09a4.5,4.5,0,0,1-1,0h0q-1.86-1.62-3.86-3.07a4.72,4.72,0,0,1-.24-2.3Z"/><path class="cls-3" d="M264.36,330.41l-1.64-.91a4.29,4.29,0,0,0-1.5-.5,57.17,57.17,0,0,0,11.37-9l.58,1.86a.72.72,0,0,1-.18.73l-7.92,7.75A.59.59,0,0,1,264.36,330.41Z"/><path class="cls-3" d="M258.35,329.47a4.43,4.43,0,0,1,2.87-.47c-1.59,1-3.22,1.84-4.91,2.65A4.68,4.68,0,0,1,258.35,329.47Z"/><path class="cls-3" d="M254,225.42a.55.55,0,0,1,.58,0l9.35,4.75a.74.74,0,0,1,.36.74l-.42,2.78a56.3,56.3,0,0,0-12.64-6.48l.16-.09Z"/><path class="cls-3" d="M247.36,227.56a4.57,4.57,0,0,0,3.85-.38,56.3,56.3,0,0,1,12.64,6.48l0,.19a4.72,4.72,0,0,0,.24,2.3,54.38,54.38,0,0,0-16.81-8.23Z"/><path class="cls-3" d="M230.73,299.62a19.15,19.15,0,1,0-18.67-19.14A18.94,18.94,0,0,0,230.73,299.62Zm0-42.28a23.14,23.14,0,1,1-22.67,23.14A22.94,22.94,0,0,1,230.73,257.34Z"/><path class="cls-3" d="M246.87,217h-1.94a1,1,0,0,1,0-1.93H247C246.94,215.74,246.91,216.38,246.87,217Z"/><path class="cls-3" d="M244.28,343.18l2.1-.05A4.52,4.52,0,0,1,244.28,343.18Z"/><path class="cls-3" d="M244.79,225.28a57.85,57.85,0,0,1,6.42,1.9,4.56,4.56,0,0,1-6.42-1.9Z"/><path class="cls-1" d="M230.73,291.36a10.88,10.88,0,1,0-10.68-10.88A10.8,10.8,0,0,0,230.73,291.36Zm0-30a19.15,19.15,0,1,1-18.67,19.14A18.94,18.94,0,0,1,230.73,261.34Z"/><path class="cls-3" d="M241.89,221.61a2,2,0,0,1-1.4-.84A2,2,0,0,1,241,218a2.87,2.87,0,0,0,.53-.46l2.32.35a4.59,4.59,0,0,1,2.29,1,2,2,0,0,1-.91.42,8,8,0,0,1-1.92,1.92A2,2,0,0,1,241.89,221.61Z"/><path class="cls-3" d="M242,336.24a56.3,56.3,0,0,0,14.27-4.59,4.62,4.62,0,0,0-.42,1.57l-.14,1.73a.68.68,0,0,1-.43.59l-9.9,3.7a.59.59,0,0,1-.68-.2l-1.3-1.63A4.47,4.47,0,0,0,242,336.24Z"/><path class="cls-3" d="M241.89,221.61a2,2,0,0,0,1.39-.36,8,8,0,0,0,1.92-1.92,2,2,0,0,0,.91-.42,4.75,4.75,0,0,1,1.41,2.11l.78,2.35a.64.64,0,0,0,.4.42.57.57,0,0,0,.51-.06l2.61-1.68a4.59,4.59,0,0,1,4.56-.23l9.34,4.76a5,5,0,0,1,1.06.73c0,3.31,0,6.18,0,8.51-1-.76-1.95-1.48-3-2.16l.42-2.78a.74.74,0,0,0-.36-.74l-9.35-4.75a.55.55,0,0,0-.58,0l-2.61,1.67-.16.09a57.85,57.85,0,0,0-6.42-1.9h0a4.84,4.84,0,0,1-.28-.66l-.78-2.35a.65.65,0,0,0-.5-.45l-1.33-.2Z"/><path class="cls-3" d="M242,336.24a52.52,52.52,0,0,1-5.37.69,4.55,4.55,0,0,1,2.76-1.25l.41,0A4.44,4.44,0,0,1,242,336.24Z"/><path class="cls-3" d="M236,343.43a4.49,4.49,0,0,1-1.42.23h-.32l-1.59-.11Z"/><path class="cls-3" d="M236.67,336.93a52.52,52.52,0,0,0,5.37-.69,4.47,4.47,0,0,1,1.4,1.17l1.3,1.63a.59.59,0,0,0,.68.2l9.9-3.7a.68.68,0,0,0,.43-.59l.14-1.73a4.62,4.62,0,0,1,.42-1.57c1.69-.81,3.32-1.69,4.91-2.65a4.29,4.29,0,0,1,1.5.5l1.64.91a.59.59,0,0,0,.71-.11l7.92-7.75a.72.72,0,0,0,.18-.73l-.58-1.86q1.62-1.66,3.11-3.47l1.23,1.14a.6.6,0,0,0-.45.21.72.72,0,0,0-.14.7l.65,2.1a4.71,4.71,0,0,1-1.2,4.77l-7.93,7.75a4.57,4.57,0,0,1-5.43.75l-1.64-.91a.58.58,0,0,0-.56,0,.66.66,0,0,0-.35.56l-.15,1.73a4.69,4.69,0,0,1-3,4l-9.9,3.7a3.73,3.73,0,0,1-.44.14l-2.1.05a4.57,4.57,0,0,1-2.67-1.65l-1.3-1.63a.62.62,0,0,0-.53-.24.62.62,0,0,0-.49.34l-.66,1.22a4.6,4.6,0,0,1-2.64,2.21l-3.33.11-10-.71a4.66,4.66,0,0,1-4-3.05l-.29-.79a.62.62,0,0,0-.49-.43.57.57,0,0,0-.56.21,4.6,4.6,0,0,1-5.48,1.21l-10.38-4.9a4.72,4.72,0,0,1-2.63-3.56l-.28-1.88a.67.67,0,0,0-.17-.37l2-1.83c.69.47,1.39.92,2.11,1.36a1.22,1.22,0,0,1,.06.26l.28,1.88a.66.66,0,0,0,.37.52l10.39,4.9a.59.59,0,0,0,.71-.16,4.64,4.64,0,0,1,1.85-1.34c1.67.49,3.38.91,5.11,1.24a4.45,4.45,0,0,1,.91,1.51l.29.8a.65.65,0,0,0,.54.43l11.56.82a.61.61,0,0,0,.58-.34l.66-1.22A4.51,4.51,0,0,1,236.67,336.93Z"/><path class="cls-3" d="M230.73,269.6a10.88,10.88,0,1,1-10.68,10.88A10.8,10.8,0,0,1,230.73,269.6Zm6.69,10.88a6.69,6.69,0,1,0-6.69,6.88A6.8,6.8,0,0,0,237.42,280.48Z"/><path class="cls-3" d="M243.72,222.27l.78,2.35a4.84,4.84,0,0,0,.28.66A56.71,56.71,0,0,0,232,223.83l-1.57,0a4.66,4.66,0,0,0,.59-1l1-2.3a.63.63,0,0,1,.65-.37l9.17,1.4,1.33.2A.65.65,0,0,1,243.72,222.27Z"/><path class="cls-3" d="M247.25,227.92A54.1,54.1,0,0,0,232,225.75q-2.4,0-4.74.21l0-.39.41,0a4.61,4.61,0,0,0,2.79-1.67l1.57,0a56.71,56.71,0,0,1,12.78,1.45h0a4.58,4.58,0,0,0,2.57,2.28Z"/><path class="cls-3" d="M242.27,216.42a3.88,3.88,0,0,0,.41-1.77v-35.8a4.06,4.06,0,0,0-4-4.07h-9.29a4,4,0,0,0-4,3.46s0,.1,0,.16l-2,13.6-1-.15,2-13.68a.94.94,0,0,0-.27-.82,1,1,0,0,0-.83-.27l-1.75.27a8.06,8.06,0,0,1,7.87-6.57h9.29a8.05,8.05,0,0,1,7.47,5.1,48.07,48.07,0,0,1,.9-5.5c1.49-5.49,11.18-8.19,19.72-9.51,0-4.16-.11-9.31-.18-15-.64-47.19-.35-60,1.44-62.11,2.71-3.21,8.95-3.14,18.43-3,2.73,0,5.55.07,8.56,0,20.31-.32,46.95,0,55.71.06h.52a11.82,11.82,0,0,1,11.42,9.66l0,.18,5.2,55.9a6.62,6.62,0,0,0,5.32,5.87c5.93,1.1,12.15,2.51,18.94,4.28l.38,4.24c-7.24-1.93-13.81-3.43-20.06-4.59a10.64,10.64,0,0,1-8.56-9.43l-5-53.31-.23-2.49a7.79,7.79,0,0,0-7.51-6.31h-.53c-8.73-.09-35.33-.38-55.6-.06-3.06,0-6,0-8.67,0-6.94-.08-13.51-.16-15.2,1.48-.35,1-.58,4-.72,8.29-.43,12.5-.12,35.78.1,51.32.08,6.46.16,12.28.19,16.69v0c0,1.53,0,2.87,0,4,0,16.53,0,34.28,0,48.44h-4c0-14.16,0-31.91,0-48.44v-1.72c-8.93,1.46-15.21,4-15.89,6.51-1.27,4.7-3,29.34-3.89,43.65h-2.06a1,1,0,0,0,0,1.93h1.94l0,.47a2,2,0,0,1-.73,1.44,4.59,4.59,0,0,0-2.29-1l-2.32-.35a3.8,3.8,0,0,0,.71-1Z"/><path class="cls-3" d="M223.76,224.43a56.41,56.41,0,0,1,6.67-.58,4.61,4.61,0,0,1-2.79,1.67l-.41,0-.41,0A4.61,4.61,0,0,1,223.76,224.43Z"/><polygon class="cls-3" points="221.17 179.35 222.25 179.18 220.54 190.75 219.48 190.75 221.17 179.35"/><path class="cls-3" d="M222.14,337.61a4.45,4.45,0,0,0-.91-1.51,56.27,56.27,0,0,0,10.77,1c1.57,0,3.13-.06,4.67-.2a4.51,4.51,0,0,0-.9,1.17l-.66,1.22a.61.61,0,0,1-.58.34L223,338.84a.65.65,0,0,1-.54-.43Z"/><path class="cls-3" d="M219.48,190.75h1.06l1.71-11.57-1.08.17.24-1.62s0-.1,0-.15,0-.15,0-.23l1.75-.27a1,1,0,0,1,.83.27.94.94,0,0,1,.27.82l-2,13.68a1,1,0,0,1-.95.82H219.2Z"/><path class="cls-3" d="M218.59,334.62a4.54,4.54,0,0,1,2.64,1.48c-1.73-.33-3.44-.75-5.11-1.24A4.59,4.59,0,0,1,218.59,334.62Z"/><path class="cls-3" d="M210.83,225.26l9.58-3.65a.6.6,0,0,1,.63.14l2.54,2.52.18.16A55.66,55.66,0,0,0,210,228.29a2.82,2.82,0,0,0,.07-.31l.37-2.19A.7.7,0,0,1,210.83,225.26Z"/><path class="cls-3" d="M227.26,226a54.11,54.11,0,0,0-19.73,5.58l-.06-.11a4.66,4.66,0,0,0,2.51-3.14,55.66,55.66,0,0,1,13.78-3.86,4.61,4.61,0,0,0,3.06,1.16l.41,0Z"/><path class="cls-3" d="M240.49,220.77a2,2,0,0,0,1.4.84h0l-9.17-1.4a.63.63,0,0,0-.65.37l-1,2.3a4.66,4.66,0,0,1-.59,1,56.41,56.41,0,0,0-6.67.58l-.18-.16L221,221.75a.6.6,0,0,0-.63-.14l-9.58,3.65a.7.7,0,0,0-.41.53l-.37,2.19a2.82,2.82,0,0,1-.07.31c-1.13.47-2.24,1-3.34,1.54l-1-2,.12,0a.63.63,0,0,0,.37-.5l.37-2.19a4.65,4.65,0,0,1,2.93-3.6l9.57-3.66a4.64,4.64,0,0,1,4.87,1l2.54,2.52a.59.59,0,0,0,.53.17.63.63,0,0,0,.46-.37l1.05-2.29a4.64,4.64,0,0,1,4.89-2.67l8.18,1.26a2.87,2.87,0,0,1-.53.46A2,2,0,0,0,240.49,220.77Z"/><path class="cls-3" d="M206.64,229.83c1.1-.55,2.21-1.07,3.34-1.54a4.66,4.66,0,0,1-2.51,3.14,4.56,4.56,0,0,1-3.87,0C204.6,230.89,205.61,230.34,206.64,229.83Z"/><path class="cls-3" d="M213.56,336.36l-10.39-4.9a.66.66,0,0,1-.37-.52l-.28-1.88a1.22,1.22,0,0,0-.06-.26,55.88,55.88,0,0,0,13.66,6.06,4.64,4.64,0,0,0-1.85,1.34A.59.59,0,0,1,213.56,336.36Z"/><path class="cls-3" d="M232,335.21a54.58,54.58,0,0,0,40.41-17.86,4.71,4.71,0,0,0,.11,2.38l.07.23a57.17,57.17,0,0,1-11.37,9,4.43,4.43,0,0,0-2.87.47,4.68,4.68,0,0,0-2,2.18A56.3,56.3,0,0,1,242,336.24a4.44,4.44,0,0,0-2.2-.58l-.41,0a4.55,4.55,0,0,0-2.76,1.25c-1.54.14-3.1.2-4.67.2a56.27,56.27,0,0,1-10.77-1,4.54,4.54,0,0,0-2.64-1.48,4.59,4.59,0,0,0-2.47.24,55.88,55.88,0,0,1-13.66-6.06,4.58,4.58,0,0,0-1.71-2.79l.29-.42A54.47,54.47,0,0,0,232,335.21Z"/><path class="cls-3" d="M200.35,327.44c-1.09-.73-2.14-1.5-3.17-2.31a4.48,4.48,0,0,1,2.52.28,4.93,4.93,0,0,1,1.05.6,4.58,4.58,0,0,1,1.71,2.79C201.74,328.36,201,327.91,200.35,327.44Z"/><path class="cls-3" d="M196.31,186.74a1.48,1.48,0,0,1-.54,1.24v-2.3A1.49,1.49,0,0,1,196.31,186.74Z"/><path class="cls-2" d="M195.77,188a1.49,1.49,0,0,0,0-2.3v-2.36l25.4-4-1.69,11.4H195.77Z"/><path class="cls-3" d="M219.2,192.67H194.81a1,1,0,0,1-1-1V188.4l1.06-.07a1.44,1.44,0,0,0,.86-.35v2.77h23.71Z"/><path class="cls-3" d="M195.77,188a1.44,1.44,0,0,1-.86.35l-1.06.07v-3l.86-.06a1.41,1.41,0,0,1,1.06.35Z"/><path class="cls-3" d="M195.77,185.68a1.41,1.41,0,0,0-1.06-.35l-.86.06V182.5a1,1,0,0,1,.81-.95l26.83-4.2c0,.08,0,.15,0,.23s0,.12,0,.15l-.24,1.62-25.4,4Z"/><path class="cls-3" d="M193.19,238.71l-.57-2.43a.74.74,0,0,1,.27-.75l7.56-5.41a.62.62,0,0,1,.63,0l2.18,1.22.34.17a57.35,57.35,0,0,0-10.33,7.7A2.46,2.46,0,0,0,193.19,238.71Z"/><polygon class="cls-3" points="193.85 185.39 193.85 188.4 168.7 190.02 168.7 187.02 193.85 185.39"/><path class="cls-3" d="M207.53,231.54A54.71,54.71,0,0,0,192,243.17l-.05,0c.12-.13.24-.26.35-.4a4.68,4.68,0,0,0,1-3.56,57.35,57.35,0,0,1,10.33-7.7,4.56,4.56,0,0,0,3.87,0Z"/><path class="cls-3" d="M188.28,244.49a57.09,57.09,0,0,1,5-5.32,4.68,4.68,0,0,1-1,3.56c-.11.14-.23.27-.35.4a4.58,4.58,0,0,1-3.26,1.36Z"/><path class="cls-3" d="M186.24,313.84a56.83,56.83,0,0,0,10.94,11.29,4.51,4.51,0,0,0-2,.84l-.26.2a.59.59,0,0,1-.76-.05l-8.55-7.92a.75.75,0,0,1-.19-.74l.61-2.06A4.37,4.37,0,0,0,186.24,313.84Z"/><path class="cls-3" d="M186.24,313.84q-1.44-2-2.71-4.06a4.63,4.63,0,0,1,1.93,1.64A4.72,4.72,0,0,1,186.24,313.84Z"/><path class="cls-3" d="M181.8,253.59l-.82-1.41-.17-.29-.19-.34a.75.75,0,0,1,0-.78l4.06-6a.61.61,0,0,1,.51-.28h3.07a56.15,56.15,0,0,0-6.3,9.43Z"/><path class="cls-3" d="M192,243.17a54.8,54.8,0,0,0-9.87,14.76l-.1-.05a4.76,4.76,0,0,0-.05-4,56.15,56.15,0,0,1,6.3-9.43h.41a4.58,4.58,0,0,0,3.26-1.36Z"/><path class="cls-3" d="M182,253.92a4.76,4.76,0,0,1,.05,4,4.56,4.56,0,0,1-3,2.61A54.85,54.85,0,0,1,182,253.92Z"/><path class="cls-3" d="M179.38,295.53A54.84,54.84,0,0,0,201,325.59l-.29.42a4.93,4.93,0,0,0-1.05-.6,4.48,4.48,0,0,0-2.52-.28,56.83,56.83,0,0,1-10.94-11.29,4.72,4.72,0,0,0-.78-2.42,4.63,4.63,0,0,0-1.93-1.64,55.86,55.86,0,0,1-5.14-11l.27-.44A4.7,4.7,0,0,0,179.38,295.53Z"/><path class="cls-3" d="M181,252.18a2,2,0,0,1-.85,2.65l-1.72.91a1,1,0,0,0-.07-.15l-1.18-2a4.56,4.56,0,0,1-.54-1.39l1.63-.86a2,2,0,0,1,2.56.59Z"/><path class="cls-3" d="M179.38,295.53c-.17-.57-.32-1.13-.46-1.7a1.87,1.87,0,0,1,.15.32A4.83,4.83,0,0,1,179.38,295.53Z"/><path class="cls-3" d="M178.39,298.8a55.86,55.86,0,0,0,5.14,11,4.61,4.61,0,0,0-1.43-.4l-1.95-.21a.64.64,0,0,1-.54-.48l-2.23-7.83a.76.76,0,0,1,.09-.59Z"/><path class="cls-3" d="M182.13,257.93a54.47,54.47,0,0,0-4.69,18.21l-.3,0a4.7,4.7,0,0,0-1.22-3.67A56.21,56.21,0,0,1,179,260.49a4.56,4.56,0,0,0,3-2.61Z"/><path class="cls-3" d="M180.62,251.55l.19.34a2,2,0,0,0-2.56-.59l-1.63.86a4.73,4.73,0,0,1,.71-3.63l4.06-6a4.6,4.6,0,0,1,3.82-2h3.48a.6.6,0,0,0,.48-.24.72.72,0,0,0,.13-.62l-.57-2.43a4.7,4.7,0,0,1,1.83-4.92l7.56-5.41a4.61,4.61,0,0,1,4.91-.28l2.17,1.22a.54.54,0,0,0,.42.05l1,2c-1,.51-2,1.06-3,1.64l-.34-.17-2.18-1.22a.62.62,0,0,0-.63,0l-7.56,5.41a.74.74,0,0,0-.27.75l.57,2.43a2.46,2.46,0,0,1,.08.46,57.09,57.09,0,0,0-5,5.32h-3.07a.61.61,0,0,0-.51.28l-4.06,6A.75.75,0,0,0,180.62,251.55Z"/><path class="cls-3" d="M183.53,309.78q1.28,2.1,2.71,4.06a4.37,4.37,0,0,1-.19,1.56l-.61,2.06a.75.75,0,0,0,.19.74l8.55,7.92a.59.59,0,0,0,.76.05l.26-.2a4.51,4.51,0,0,1,2-.84c1,.81,2.08,1.58,3.17,2.31l-2,1.83a.66.66,0,0,0-.22-.16.58.58,0,0,0-.58.07l-.27.2a4.59,4.59,0,0,1-5.86-.32l-8.55-7.93a4.75,4.75,0,0,1-1.3-4.82l.61-2.05a.72.72,0,0,0-.09-.62.59.59,0,0,0-.45-.28l-2-.21a4.64,4.64,0,0,1-4-3.36L173.54,302a4.75,4.75,0,0,1,.54-3.82l1.19-1.9a.73.73,0,0,0,.06-.66l1.93-.51c.33,1.26.71,2.51,1.13,3.73l-.92,1.47a.76.76,0,0,0-.09.59l2.23,7.83a.64.64,0,0,0,.54.48l1.95.21A4.61,4.61,0,0,1,183.53,309.78Z"/><path class="cls-3" d="M175.35,280.48c0-.38,0-.75,0-1.13a4.64,4.64,0,0,0,1.77-3.24l.3,0c-.11,1.43-.17,2.88-.17,4.34a54.43,54.43,0,0,0,1.65,13.35,4.5,4.5,0,0,0-2.5-2.35A57,57,0,0,1,175.35,280.48Z"/><path class="cls-3" d="M177.26,295.07c-.32-1.18-.6-2.38-.84-3.59a4.5,4.5,0,0,1,2.5,2.35c.14.57.29,1.13.46,1.7a4.7,4.7,0,0,1-.72,2.83l-.27.44C178,297.58,177.59,296.33,177.26,295.07Z"/><path class="cls-3" d="M182,253.92a54.85,54.85,0,0,0-3,6.57l-.21.06-1.79.39a.66.66,0,0,0-.49.51l-2,9.1a.73.73,0,0,0,.2.68l1.06,1a1.29,1.29,0,0,1,.16.17,56.16,56.16,0,0,0-.55,6.91l-.34.24-.62.4a.7.7,0,0,0-.31.67l1,9.94a.66.66,0,0,0,.47.6l.47.13a2.86,2.86,0,0,1,.41.15c.24,1.21.52,2.41.84,3.59l-1.93.51a.64.64,0,0,0-.42-.4l-.47-.13a4.64,4.64,0,0,1-3.35-4.06l-1-9.95a4.69,4.69,0,0,1,2.12-4.41l.62-.4a.74.74,0,0,0,.1-1.11l-1.07-1a4.78,4.78,0,0,1-1.29-4.39l2-9.1a4.62,4.62,0,0,1,1.6-2.61l1.65-.88.29-.07,1.79-.39a.62.62,0,0,0,.44-.38.73.73,0,0,0,0-.52l1.72-.91a2,2,0,0,0,.85-2.65l.82,1.41Z"/><path class="cls-3" d="M177.14,276.11a4.64,4.64,0,0,1-1.77,3.24,56.16,56.16,0,0,1,.55-6.91A4.7,4.7,0,0,1,177.14,276.11Z"/><path class="cls-3" d="M174.5,270.55l2-9.1a.66.66,0,0,1,.49-.51l1.79-.39.21-.06a56.21,56.21,0,0,0-3.07,11.95,1.29,1.29,0,0,0-.16-.17l-1.06-1A.73.73,0,0,1,174.5,270.55Z"/><path class="cls-3" d="M175.85,257.1l-1.65.88A4.46,4.46,0,0,1,175.85,257.1Z"/><path class="cls-3" d="M175.37,279.35c0,.38,0,.75,0,1.13a57,57,0,0,0,1.07,11,2.86,2.86,0,0,0-.41-.15l-.47-.13a.66.66,0,0,1-.47-.6l-1-9.94a.7.7,0,0,1,.31-.67l.62-.4Z"/><path class="cls-3" d="M166.78,188.59v-1.15a1.44,1.44,0,0,1,.86-.35l1.06-.07v3l-.87.06h-.09a1.45,1.45,0,0,1-1-.36Z"/><path class="cls-3" d="M166.79,202.59V189.73a1.45,1.45,0,0,0,1,.36h.09l.87-.06,0,12.36Z"/><path class="cls-3" d="M166.78,188.59v1.14a1.45,1.45,0,0,1-.54-1,1.48,1.48,0,0,1,.54-1.24Z"/><path class="cls-3" d="M215.88,201.36l-49.68,5.32h-.14l-.07-1a1.46,1.46,0,0,0,.22,0l1.77-.43a1,1,0,0,0,.74-.93v-1.88l46.73-5A4,4,0,0,0,219,194l.19-1.28h2.17a1,1,0,0,0,.95-.82l1,.15-.38,2.52A8,8,0,0,1,215.88,201.36Z"/><path class="cls-3" d="M168,205.19l-1.77.43a1.46,1.46,0,0,1-.22,0h-.06a.94.94,0,0,1-.94-1,1,1,0,0,1,.8-.94l1-.25v-.91l1.93-.21v1.88A1,1,0,0,1,168,205.19Z"/><path class="cls-3" d="M154.24,207.68a1,1,0,0,1-.93,1h0a1,1,0,0,1-1-.93l-.06-1.88a7.69,7.69,0,0,1,1.88-1.37Z"/><path class="cls-3" d="M145.51,188.58l7.55,2.22a1,1,0,0,1,.69.89l.39,12.8a7.69,7.69,0,0,0-1.88,1.37l-.41-13.41-6.12-1.8.32-.82a.94.94,0,0,0-.54-1.24Z"/><path class="cls-3" d="M143.89,190.1l1.84.55-31.57,79.87-.38-.16a5.24,5.24,0,0,0-1.48-.32Z"/><path class="cls-3" d="M145.51,188.59a.94.94,0,0,1,.54,1.24l-.32.82-1.84-.55.38-1A.94.94,0,0,1,145.51,188.59Z"/><path class="cls-3" d="M165,183.33l-14.4-4.42a4.3,4.3,0,0,0-3.4.34A4.43,4.43,0,0,0,145,182l-1.66,6,2.19.65h0a.94.94,0,0,0-1.24.54l-.38,1-2-.59a1,1,0,0,1-.66-1.18l1.92-6.87a6.34,6.34,0,0,1,3.1-3.9,6.25,6.25,0,0,1,4.88-.49l14.41,4.42a4.55,4.55,0,0,1,3.18,4.71V187l-1.06.07a1.44,1.44,0,0,0-.86.35V186.1A2.63,2.63,0,0,0,165,183.33Z"/><path class="cls-3" d="M166.06,206.68l-8.65.93a3.91,3.91,0,0,0-2.63,1.42,4,4,0,0,0-.89,1.81c-3.91,19.83-13.7,66.66-20,73.15-4.6,4.76-9.29,5.76-12.41,5.76a13.21,13.21,0,0,1-2.65-.26,14.23,14.23,0,0,0-.05-3.06l-.13-1.05c.23,0,.46.08.68.13,1.42.36,6.48,1.09,11.68-4.3,3.72-3.85,11.14-31.78,18.92-71.15a7.93,7.93,0,0,1,1.76-3.62,7.29,7.29,0,0,1,.53-.58l.06,1.88a1,1,0,0,0,1,.93h0a1,1,0,0,0,.93-1l-.1-3.19a7.89,7.89,0,0,1,2.84-.86l8.73-.93h.14l.94-.1v.91l-1,.25a1,1,0,0,0-.8.94.94.94,0,0,0,.94,1H166Z"/><path class="cls-3" d="M116.8,285.71a2,2,0,0,1,1.16-.37c.24,0,.49,0,.73,0l.13,1.05a14.23,14.23,0,0,1,.05,3.06l-.47-.1a2,2,0,0,0-.44-.05,1.91,1.91,0,0,1-1-.26,12.14,12.14,0,0,0-.06-2.41Z"/><path class="cls-2" d="M116.92,286.67a12.14,12.14,0,0,1,.06,2.41,2,2,0,0,1-.18-3.37Z"/><path class="cls-3" d="M118.14,292.81l-2.88,8.05a4.71,4.71,0,0,1-.51,1l-2.38-.22a3,3,0,0,0,1.08-1.46l2.88-8a11.91,11.91,0,0,0,.65-3.08,1.91,1.91,0,0,0,1,.26,2,2,0,0,1,.44.05l.47.1A13.77,13.77,0,0,1,118.14,292.81Z"/><path class="cls-3" d="M115.47,275.09a3.6,3.6,0,0,0-2.35-2.92l-.35-.11h.13a1,1,0,0,0,.89-.61l.37-.94a5.46,5.46,0,0,1,3.21,4.33l1.32,10.53c-.24,0-.49,0-.73,0a2,2,0,0,0-1.16.37Z"/><path class="cls-3" d="M112.3,270a5.24,5.24,0,0,1,1.48.32l.38.16-.37.94a1,1,0,0,1-.89.61h-.17l-.09,0-.09,0a.94.94,0,0,1-.54-1.24Z"/><path class="cls-3" d="M110.2,270.32a4.83,4.83,0,0,1,2.1-.28l-.29.72a.94.94,0,0,0,.54,1.24l.09,0a3.23,3.23,0,0,0-1.72.07,1.9,1.9,0,0,0-.2-.73Z"/><path class="cls-3" d="M92.35,233.74l17.85,36.58a5.08,5.08,0,0,0-1.78,1.06l-1.48,1.36-18.2-37.28a.18.18,0,0,0-.1-.07L68.9,230.8a.15.15,0,0,0-.14,0,.16.16,0,0,0-.07.14L58.41,315.42a4.31,4.31,0,0,1-1,2.18L49,327.69a.21.21,0,0,0,0,.25c.06.09.1.08.16.07L79,322.19a.21.21,0,0,0,.08-.07l15-19.1,4.8.36-16.6,21.19a4.15,4.15,0,0,1-2.49,1.55l-29.92,5.82a4.65,4.65,0,0,1-.82.08,4.1,4.1,0,0,1-3.55-2,4.18,4.18,0,0,1,.4-4.85L54.38,315a.23.23,0,0,0,.06-.12l10.28-84.43a4.16,4.16,0,0,1,5.09-3.59l19.74,4.59A4.12,4.12,0,0,1,92.35,233.74Z"/><path class="cls-2" d="M108.27,274.13l1.45-1.33a3.11,3.11,0,0,1,1.2-.7A2,2,0,0,1,109.8,274,1.91,1.91,0,0,1,108.27,274.13Z"/><path class="cls-3" d="M108.68,289.17l.09.11Z"/><path class="cls-2" d="M108.32,302.15a2,2,0,0,1,2.37-.77,5,5,0,0,0,.93.21l.75.08a3.15,3.15,0,0,1-2.2.62Z"/><path class="cls-3" d="M108.32,302.15l1.85.14a3.15,3.15,0,0,0,2.2-.62l2.38.22a5.06,5.06,0,0,1-4.31,2.34l-.41,0-1.86-.14a2,2,0,0,1,0-1.72A.82.82,0,0,1,108.32,302.15Z"/><path class="cls-3" d="M178.41,255.74l-2.56,1.36a4.46,4.46,0,0,0-1.65.88l-3.91,2.07a4,4,0,0,0-1.62,1.57l-.08.13c-10.93,19-18.23,31.6-21.69,37.44-3.29,5.49-12.64,7.13-22.63,7.13a124.27,124.27,0,0,1-13.09-.76,8.67,8.67,0,0,1-1.83-.41l-.27-.12a1.88,1.88,0,0,1-.91-1l1.86.14.41,0a5.06,5.06,0,0,0,4.31-2.34c15.48,1.31,26.12-.43,28.71-4.75,3.45-5.82,10.74-18.39,21.66-37.38l.07-.12a8,8,0,0,1,3.21-3.11l8.22-4.37a4.56,4.56,0,0,0,.54,1.39l1.18,2A1,1,0,0,1,178.41,255.74Z"/><path class="cls-3" d="M107,289.84a1,1,0,0,1,1-1,1,1,0,0,1,.68.28h0l.09.11a.83.83,0,0,1,.07.13.89.89,0,0,1,.11.43v0a1,1,0,0,1-1,.95,1,1,0,0,1-.8-.43A1,1,0,0,1,107,289.84Z"/><path class="cls-3" d="M106.94,272.74l1.48-1.36a5.08,5.08,0,0,1,1.78-1.06l.52,1.05a1.9,1.9,0,0,1,.2.73,3.11,3.11,0,0,0-1.2.7l-1.45,1.33a1.93,1.93,0,0,1-1.14-1Z"/><path class="cls-3" d="M103.08,300.1a6.69,6.69,0,0,1-1.5-.17l.23-.29a2,2,0,0,0,.39-1.54,5.14,5.14,0,0,0,.88.08,5,5,0,0,0,5-5,5,5,0,0,0-.85-2.79h0a1,1,0,0,0,.8.43,1,1,0,0,0,1-.95v0a.89.89,0,0,0-.11-.43,6.81,6.81,0,0,1,1.12,3.76A6.92,6.92,0,0,1,103.08,300.1Z"/><path class="cls-2" d="M98.08,297.91l-2.57,3.29-7.34-.55A3.54,3.54,0,0,1,85,298.23a3.16,3.16,0,0,1,.82-3.47l22.41-20.63a1.91,1.91,0,0,0,1.53-.09,2,2,0,0,0,1.12-1.94,3.23,3.23,0,0,1,1.72-.07l.09,0h0l.35.11a3.6,3.6,0,0,1,2.35,2.92l1.33,10.62a2,2,0,0,0,.18,3.37,11.91,11.91,0,0,1-.65,3.08l-2.88,8a3,3,0,0,1-1.08,1.46l-.75-.08a5,5,0,0,1-.93-.21,2,2,0,0,0-2.37.77l-8-.6,1.27-1.62a6.69,6.69,0,0,0,1.5.17,6.92,6.92,0,0,0,6.88-6.93,6.81,6.81,0,0,0-1.12-3.76.83.83,0,0,0-.07-.13l-.09-.11h0a6.84,6.84,0,0,0-5.59-2.91,6.92,6.92,0,0,0-5,11.66Z"/><path class="cls-1" d="M101.46,296.83a2,2,0,0,1,.74,1.27,4.82,4.82,0,0,1-2.75-1.53A2,2,0,0,1,101.46,296.83Z"/><path class="cls-3" d="M108.17,304.07l-9.29-.69,1.43-1.83,8,.6a.82.82,0,0,0-.12.2A2,2,0,0,0,108.17,304.07Z"/><path class="cls-3" d="M98.66,297.17a1.92,1.92,0,0,1,.79-.6,4.82,4.82,0,0,0,2.75,1.53,2,2,0,0,1-.39,1.54l-.23.29a6.84,6.84,0,0,1-3.5-2Z"/><path class="cls-2" d="M100.31,301.55l-4.8-.35,2.57-3.29a6.84,6.84,0,0,0,3.5,2Z"/><path class="cls-3" d="M99.45,296.57a1.92,1.92,0,0,0-.79.6l-.58.74a6.89,6.89,0,1,1,10.59-8.75,1,1,0,0,0-.68-.28,1,1,0,0,0-1,1,1,1,0,0,0,.16.54h0a4.93,4.93,0,0,0-4.1-2.21,5,5,0,0,0-3.63,8.4Z"/><polygon class="cls-3" points="95.51 301.2 100.31 301.55 98.88 303.38 94.08 303.02 95.51 301.2"/><path class="cls-3" d="M85,298.23a3.54,3.54,0,0,0,3.13,2.42l7.34.55L94.08,303,88,302.57a5.47,5.47,0,0,1-4.8-3.71,5.11,5.11,0,0,1,1.34-5.52l22.38-20.6.19.39a1.93,1.93,0,0,0,1.14,1L85.86,294.76A3.16,3.16,0,0,0,85,298.23Z"/></svg>