<svg width="85" height="53" viewBox="0 0 85 53" fill="none" xmlns="http://www.w3.org/2000/svg">
<path d="M1.49932 42.7826L1.83652 47.1662C7.52497 47.1156 10.0573 48.4778 12.5087 49.803C14.687 50.9764 16.7607 52.0757 21.0228 52.0319C25.6593 51.9745 28.839 50.7067 31.9176 49.4827C35.0838 48.2216 38.0781 47.0279 42.4009 47.1223C46.3697 47.1223 49.4246 48.407 52.3785 49.6546C55.3323 50.9023 58.3097 52.1532 62.211 52.1532C65.9202 52.1532 68.6717 50.9427 71.5884 49.6614C74.6906 48.3126 77.8905 46.8964 82.5168 46.7514L83.0698 42.3477C78.3997 42.3915 75.1896 43.801 72.0807 45.1632C71.5041 45.4161 70.9073 45.6791 70.3104 45.9219L70.0643 46.0264C67.8691 46.9234 65.3975 47.7562 62.211 47.7562C58.0636 47.7562 54.9344 46.4378 51.9064 45.1598C48.9323 43.9089 46.1235 42.7253 42.3807 42.7219C38.3006 42.6376 35.4143 43.774 32.3627 44.9879C29.1863 46.2524 25.902 47.5607 21.0397 47.6214C16.4471 47.6719 14.1508 46.4446 11.9355 45.261C9.55151 43.9932 7.12034 42.6781 1.49932 42.7826Z" fill="#DEDFE0"/>
<path d="M0.784524 42.8H0.814871C1.04753 42.8 1.27683 42.8 1.48926 42.7831L1.37461 41.168H0.744063C0.538749 41.1845 0.347483 41.2788 0.209243 41.4315C0.0710034 41.5842 -0.00380802 41.7839 6.1512e-05 41.9898C0.00393105 42.1958 0.0861923 42.3925 0.230071 42.5399C0.37395 42.6873 0.568617 42.7743 0.774409 42.7831L0.784524 42.8Z" fill="#644E77"/>
<path d="M1.81985 47.1763H1.18255C1.08204 47.1855 0.98861 47.2319 0.920575 47.3065C0.85254 47.381 0.814821 47.4783 0.814821 47.5792C0.814821 47.6801 0.85254 47.7774 0.920575 47.852C0.98861 47.9265 1.08204 47.973 1.18255 47.9822H1.85693L1.81985 47.1763Z" fill="#644E77"/>
<path d="M7.27517 35.4123C7.75061 37.1893 9.16009 41.1446 12.7377 43.8759C14.8485 45.0156 16.8515 46.0845 21.0023 46.0306C25.5645 45.9699 28.7072 44.7189 31.7487 43.5084C34.7902 42.2978 37.9733 41.0334 42.3838 41.1311C46.4301 41.1311 49.5255 42.4361 52.4996 43.6938C55.4736 44.9515 58.3566 46.1621 62.177 46.1621C65.023 46.1621 67.2788 45.4236 69.2851 44.6076C70.9913 43.0059 72.3502 39.4755 72.856 35.4123H66.5133L66.2402 34.6064H63.7349C63.7349 34.6594 63.7244 34.7119 63.704 34.7608C63.6836 34.8097 63.6538 34.8541 63.6162 34.8914C63.5785 34.9287 63.5339 34.9582 63.4848 34.9781C63.4358 34.9981 63.3832 35.0082 63.3302 35.0077H24.381C24.328 35.0082 24.2755 34.9981 24.2264 34.9781C24.1773 34.9582 24.1327 34.9287 24.0951 34.8914C24.0575 34.8541 24.0276 34.8097 24.0072 34.7608C23.9869 34.7119 23.9764 34.6594 23.9764 34.6064H21.8824L21.4103 35.1325L21.1338 35.4123H7.27517Z" fill="white"/>
<path d="M10.2021 42.6147C10.8331 43.3274 11.5322 43.9767 12.2893 44.5536L12.667 43.859C11.9117 43.4308 11.1193 43.016 10.2021 42.6147Z" fill="#644E77"/>
<path d="M12.2896 44.5538C11.5324 43.9769 10.8334 43.3276 10.2023 42.615C9.74037 42.416 9.2447 42.2306 8.70519 42.0586C9.58516 43.2446 10.6271 44.3013 11.8006 45.1979L12.2794 44.5707L12.2896 44.5538Z" fill="#644E77"/>
<path d="M12.2794 44.5704L11.8006 45.1976C10.6271 44.301 9.58516 43.2443 8.70519 42.0583C6.90458 41.4884 4.61503 41.104 1.38471 41.1681L1.49936 42.7833C7.12037 42.6753 9.55154 43.9938 11.9052 45.265L12.2896 44.5569L12.2794 44.5704Z" fill="#644E77"/>
<path d="M12.2958 44.5601L11.9113 45.2682C12.0277 45.3298 12.1573 45.3622 12.289 45.3626C12.435 45.3632 12.5785 45.324 12.7038 45.2491C12.8292 45.1742 12.9318 45.0666 13.0005 44.9377L12.2958 44.5601Z" fill="#644E77"/>
<path d="M12.2934 44.5557L12.2966 44.5589L12.3062 44.543L12.2934 44.5557Z" fill="#644E77"/>
<path d="M12.3063 44.5432V44.56L13.011 44.9377C13.093 44.7856 13.1242 44.6112 13.0999 44.4401C13.0756 44.269 12.9972 44.1101 12.8761 43.9868L12.3063 44.5432Z" fill="#644E77"/>
<path d="M12.6842 43.8486L12.3066 44.5433L12.873 43.9869L12.7887 43.9127H12.7685L12.6977 43.8689L12.6842 43.8486Z" fill="#644E77"/>
<path d="M12.6909 43.8521L12.7617 43.8959C12.7524 43.8911 12.7443 43.8841 12.7381 43.8757L12.6909 43.8521Z" fill="#644E77"/>
<path d="M12.7819 43.9131L12.8662 43.9873C12.8414 43.9591 12.8131 43.9341 12.7819 43.9131Z" fill="#644E77"/>
<path d="M21.4103 35.1325L21.8823 34.6064H20.8235H6.29049C6.88249 37.5737 8.24022 40.3345 10.2289 42.6148C11.1461 43.0026 11.9385 43.4308 12.7005 43.8422L12.7478 43.8658C9.17013 41.1177 7.76065 37.1792 7.28521 35.4022H21.1338L21.4103 35.1325Z" fill="#644E77"/>
<path d="M13.7833 44.4661L12.8392 43.7412C9.39641 41.0976 7.98357 37.3008 7.49464 35.5811H21.2049L21.5421 35.2439L22.2671 34.438H20.8981L20.8307 34.3672L20.743 34.438H6.07168L6.10204 34.6336C6.7075 37.6294 8.07826 40.4174 10.0809 42.7262L10.1416 42.7701C11.0453 43.1511 11.8276 43.5726 12.5795 43.9806L12.6537 44.021H12.6807L13.7833 44.4661ZM21.0633 35.2607H7.05292L7.11024 35.4732C7.87753 38.3412 9.38986 40.9552 11.4938 43.0499C11.1127 42.8577 10.7182 42.6689 10.2967 42.4902C8.39585 40.2786 7.07898 37.6263 6.4662 34.7752H21.505L21.0633 35.2607Z" fill="#644E77"/>
<path d="M27.5875 28.24L21.8822 34.6062H23.9761C23.9761 34.4989 24.0188 34.396 24.0946 34.3201C24.1705 34.2442 24.2734 34.2016 24.3808 34.2016H63.3469C63.4001 34.2011 63.4529 34.2113 63.5022 34.2315C63.5515 34.2516 63.5963 34.2814 63.634 34.3191C63.6716 34.3568 63.7014 34.4015 63.7216 34.4508C63.7418 34.5001 63.7519 34.5529 63.7515 34.6062H66.2568L61.7654 21.2837H36.0308L35.7543 21.6748H33.4816L28.336 27.4071L37.1031 27.3734C37.2104 27.3734 37.3133 27.416 37.3892 27.4919C37.4651 27.5678 37.5077 27.6707 37.5077 27.778C37.5077 27.8854 37.4651 27.9883 37.3892 28.0642C37.3133 28.14 37.2104 28.1827 37.1031 28.1827L27.5875 28.24ZM43.2771 29.9732C42.8466 29.9745 42.4255 29.8481 42.0669 29.6099C41.7084 29.3717 41.4286 29.0325 41.2629 28.6353C41.0973 28.238 41.0533 27.8005 41.1364 27.3781C41.2196 26.9558 41.4262 26.5676 41.7301 26.2628C42.034 25.9579 42.4215 25.7501 42.8436 25.6657C43.2656 25.5812 43.7033 25.6239 44.1011 25.7883C44.4989 25.9527 44.839 26.2315 45.0782 26.5893C45.3175 26.9471 45.4452 27.3678 45.4452 27.7983C45.4452 28.3739 45.217 28.9261 44.8106 29.3338C44.4042 29.7415 43.8527 29.9714 43.2771 29.9732ZM49.8119 29.9732C49.3817 29.9732 48.9613 29.8456 48.6036 29.6066C48.2459 29.3677 47.9672 29.028 47.8026 28.6306C47.6379 28.2332 47.5949 27.7959 47.6788 27.374C47.7627 26.9521 47.9699 26.5645 48.274 26.2604C48.5782 25.9562 48.9657 25.7491 49.3876 25.6652C49.8095 25.5812 50.2468 25.6243 50.6442 25.7889C51.0416 25.9535 51.3813 26.2323 51.6203 26.59C51.8592 26.9476 51.9868 27.3681 51.9868 27.7983C51.9868 28.3751 51.7577 28.9283 51.3498 29.3362C50.9419 29.744 50.3887 29.9732 49.8119 29.9732ZM56.3467 29.9732C55.9166 29.9732 55.4961 29.8456 55.1384 29.6066C54.7807 29.3677 54.502 29.028 54.3374 28.6306C54.1728 28.2332 54.1297 27.7959 54.2136 27.374C54.2975 26.9521 54.5047 26.5645 54.8088 26.2604C55.113 25.9562 55.5005 25.7491 55.9224 25.6652C56.3443 25.5812 56.7816 25.6243 57.179 25.7889C57.5764 25.9535 57.9161 26.2323 58.1551 26.59C58.3941 26.9476 58.5216 27.3681 58.5216 27.7983C58.5216 28.3751 58.2925 28.9283 57.8846 29.3362C57.4767 29.744 56.9235 29.9732 56.3467 29.9732Z" fill="white"/>
<path d="M24.3812 35.0077H63.3473C63.4003 35.0082 63.4528 34.9981 63.5019 34.9781C63.551 34.9582 63.5956 34.9287 63.6332 34.8914C63.6709 34.8541 63.7007 34.8097 63.7211 34.7608C63.7415 34.7119 63.752 34.6594 63.752 34.6064H23.9631C23.9631 34.6606 23.974 34.7142 23.9952 34.764C24.0164 34.8138 24.0475 34.8588 24.0865 34.8963C24.1256 34.9338 24.1718 34.963 24.2225 34.9821C24.2731 35.0013 24.3271 35.01 24.3812 35.0077Z" fill="#644E77"/>
<path d="M23.9768 34.6058H63.7656C63.7661 34.5526 63.7559 34.4997 63.7357 34.4504C63.7156 34.4011 63.6858 34.3564 63.6481 34.3187C63.6104 34.281 63.5657 34.2512 63.5164 34.2311C63.4671 34.2109 63.4142 34.2007 63.361 34.2012H24.3814C24.2741 34.2012 24.1712 34.2438 24.0953 34.3197C24.0194 34.3956 23.9768 34.4985 23.9768 34.6058Z" fill="#644E77"/>
<path d="M26.3066 27.252L20.4395 33.7969H5.32306L5.46468 34.7275C5.97982 37.3837 7.08746 39.8894 8.70512 42.0581C9.24463 42.2301 9.7403 42.4155 10.2022 42.6145C8.21355 40.3342 6.85583 37.5734 6.26383 34.6061H20.7969L26.6101 28.1185C26.5422 28.0415 26.5061 27.9414 26.5092 27.8387C26.5124 27.736 26.5545 27.6383 26.627 27.5655L26.3066 27.252Z" fill="#644E77"/>
<path d="M26.9236 27.434C26.8704 27.4345 26.8179 27.4454 26.769 27.4661C26.7201 27.4869 26.6757 27.517 26.6384 27.5549C26.6012 27.5928 26.5717 27.6377 26.5518 27.6869C26.5319 27.7362 26.5219 27.7889 26.5223 27.842C26.5219 27.9393 26.558 28.0332 26.6235 28.1051L27.2271 27.4307L26.9236 27.434Z" fill="#644E77"/>
<path d="M27.2269 27.4341L26.6233 28.1085C26.6602 28.152 26.7062 28.187 26.7581 28.2108C26.8099 28.2347 26.8664 28.247 26.9234 28.2467H27.5978L28.3262 27.4341H27.2269Z" fill="#644E77"/>
<path d="M26.9239 28.2432C26.8668 28.2435 26.8104 28.2312 26.7586 28.2073C26.7067 28.1835 26.6607 28.1485 26.6238 28.105L20.8106 34.5858H21.8694L27.5747 28.2196H26.9003L26.9239 28.2432Z" fill="#644E77"/>
<path d="M27.5883 28.2399L37.0836 28.2028C37.191 28.2028 37.2939 28.1602 37.3698 28.0843C37.4457 28.0084 37.4883 27.9055 37.4883 27.7982C37.4883 27.6909 37.4457 27.588 37.3698 27.5121C37.2939 27.4362 37.191 27.3936 37.0836 27.3936L28.3166 27.4273L27.5883 28.2399Z" fill="#644E77"/>
<path d="M35.3769 20.8788H36.2873L36.5537 20.4741H35.586L35.3364 20.8518L35.3769 20.8788Z" fill="#644E77"/>
<path d="M35.3772 21.2832H36.0212L36.2876 20.8785H35.3772L35.3367 20.8516L35.3165 20.8785H34.9793C34.9793 20.9847 35.021 21.0866 35.0954 21.1623C35.1698 21.238 35.271 21.2814 35.3772 21.2832Z" fill="#644E77"/>
<path d="M35.3364 20.8518L35.5859 20.4741H35.3769C35.3237 20.4741 35.2711 20.4846 35.222 20.5049C35.1729 20.5253 35.1283 20.5551 35.0908 20.5926C35.0532 20.6302 35.0234 20.6748 35.003 20.7239C34.9827 20.773 34.9722 20.8256 34.9722 20.8788H35.3094L35.3364 20.8518Z" fill="#644E77"/>
<path d="M33.462 21.6879H35.7347L36.0112 21.2967H35.3672C35.2599 21.2967 35.157 21.2541 35.0811 21.1782C35.0052 21.1023 34.9626 20.9994 34.9626 20.8921H33.1046L27.2307 27.4471H28.3198L33.462 21.6879Z" fill="#644E77"/>
<path d="M36.2876 20.8789L36.0212 21.2835H61.7559L61.7053 21.1385L62.4707 20.8789H61.6614H36.2876Z" fill="#644E77"/>
<path d="M36.5537 20.4741L36.2873 20.8788H61.6611V20.4741H36.5537Z" fill="#644E77"/>
<path d="M39.1737 16.4854L36.5402 20.4744H61.6611V12.3109C61.6611 12.2993 61.6565 12.2882 61.6483 12.2799C61.6401 12.2717 61.6289 12.2671 61.6173 12.2671H41.969L39.7166 15.6795H48.4836C48.5396 15.6744 48.5961 15.681 48.6494 15.6989C48.7027 15.7168 48.7517 15.7456 48.7933 15.7836C48.8348 15.8215 48.868 15.8676 48.8907 15.9191C48.9134 15.9706 48.9251 16.0262 48.9251 16.0824C48.9251 16.1387 48.9134 16.1943 48.8907 16.2458C48.868 16.2972 48.8348 16.3434 48.7933 16.3813C48.7517 16.4192 48.7027 16.4481 48.6494 16.466C48.5961 16.4839 48.5396 16.4905 48.4836 16.4854H39.1737ZM54.3474 18.4748C53.9172 18.4748 53.4968 18.3473 53.1391 18.1083C52.7814 17.8693 52.5027 17.5296 52.3381 17.1322C52.1734 16.7348 52.1304 16.2975 52.2143 15.8756C52.2982 15.4537 52.5054 15.0662 52.8095 14.762C53.1137 14.4579 53.5012 14.2507 53.9231 14.1668C54.345 14.0829 54.7823 14.126 55.1797 14.2906C55.5771 14.4552 55.9168 14.734 56.1558 15.0916C56.3947 15.4493 56.5223 15.8698 56.5223 16.2999C56.5223 16.8767 56.2932 17.4299 55.8853 17.8378C55.4774 18.2457 54.9242 18.4748 54.3474 18.4748Z" fill="white"/>
<path d="M35.3771 20.4743H35.5861L38.2837 16.3605C38.2478 16.324 38.2195 16.2808 38.2004 16.2334C38.1813 16.1859 38.1718 16.1352 38.1724 16.084C38.1716 16.0036 38.1951 15.9249 38.2399 15.8581L37.8251 15.585L34.8814 20.0865H32.7402L26.3066 27.2653L26.6438 27.5654C26.6807 27.5279 26.7248 27.498 26.7734 27.4778C26.8221 27.4575 26.8743 27.4472 26.927 27.4474H27.2305L33.1044 20.8789H34.9758C34.9758 20.7722 35.018 20.6698 35.0931 20.594C35.1683 20.5182 35.2704 20.4752 35.3771 20.4743Z" fill="#644E77"/>
<path d="M26.7821 27.9065L26.8967 27.7918C26.9183 27.7701 26.9441 27.7529 26.9725 27.7414C27.0009 27.7298 27.0313 27.724 27.0619 27.7244H27.4396L33.3135 21.1693H35.2793V21.0007C35.2789 20.9696 35.2847 20.9387 35.2964 20.9099C35.3081 20.881 35.3255 20.8548 35.3475 20.8328C35.3695 20.8108 35.3957 20.7934 35.4245 20.7817C35.4534 20.77 35.4843 20.7642 35.5154 20.7647H35.802L38.6445 16.4587L38.5467 16.3609C38.5265 16.3406 38.5107 16.3164 38.5003 16.2897C38.4898 16.263 38.485 16.2345 38.4861 16.2058C38.4838 16.1591 38.4969 16.113 38.5231 16.0743L38.6176 15.9327L37.9196 15.4741L34.9185 20.0262H32.7909L32.7403 20.0802L26.1953 27.3872L26.7821 27.9065ZM27.2879 27.3872H27.0619C26.9667 27.3866 26.8728 27.4098 26.7888 27.4546L26.6809 27.3602L32.9527 20.3634H35.1074L38.0275 15.9394L38.1623 16.0406C38.1488 16.0946 38.142 16.1501 38.1421 16.2058C38.1412 16.3047 38.1656 16.4022 38.2129 16.4891L35.63 20.4241H35.5154C35.3924 20.4232 35.2724 20.4621 35.1733 20.5351C35.0742 20.608 35.0014 20.711 34.9658 20.8288H33.1618L33.1112 20.8827L27.2879 27.3872Z" fill="#644E77"/>
<path d="M38.2572 15.8581C38.2124 15.9248 38.1889 16.0036 38.1898 16.084C38.1892 16.1351 38.1987 16.1859 38.2178 16.2333C38.2369 16.2808 38.2652 16.324 38.301 16.3605L38.7495 15.6861H38.5944C38.5284 15.6851 38.4632 15.7002 38.4045 15.7302C38.3457 15.7602 38.2951 15.8041 38.2572 15.8581Z" fill="#644E77"/>
<path d="M38.7489 15.6796L38.3004 16.354C38.3383 16.3936 38.3838 16.425 38.4343 16.4465C38.4847 16.4679 38.539 16.4789 38.5938 16.4787H39.1737L39.7031 15.6729L38.7489 15.6796Z" fill="#644E77"/>
<path d="M38.5939 16.4856C38.5391 16.4858 38.4848 16.4748 38.4344 16.4533C38.3839 16.4319 38.3384 16.4004 38.3005 16.3608L35.6029 20.4746H36.5707L39.1738 16.4856H38.5939Z" fill="#644E77"/>
<path d="M35.2727 20.6429H36.6417L39.5112 16.3167H38.6042C38.5719 16.317 38.54 16.3105 38.5104 16.2977C38.4808 16.2849 38.4542 16.2662 38.4322 16.2426L38.2838 16.0908L35.2727 20.6429ZM36.463 20.3057H35.8965L38.3445 16.5966C38.4224 16.6342 38.5076 16.6538 38.5941 16.6539H38.8739L36.463 20.3057Z" fill="#644E77"/>
<path d="M39.7171 15.6794L39.1742 16.4853H48.4774C48.5334 16.4904 48.5899 16.4838 48.6432 16.4659C48.6965 16.448 48.7455 16.4192 48.7871 16.3812C48.8286 16.3433 48.8618 16.2972 48.8845 16.2457C48.9072 16.1942 48.9189 16.1386 48.9189 16.0824C48.9189 16.0261 48.9072 15.9705 48.8845 15.919C48.8618 15.8676 48.8286 15.8214 48.7871 15.7835C48.7455 15.7456 48.6965 15.7167 48.6432 15.6988C48.5899 15.6809 48.5334 15.6743 48.4774 15.6794H39.7171Z" fill="#644E77"/>
<path d="M41.5342 11.4581H50.7295V10.6455H41.0992L37.8251 15.5854L38.2398 15.8585C38.277 15.8033 38.3272 15.7581 38.386 15.7269C38.4449 15.6957 38.5105 15.6796 38.577 15.6798H38.7321L41.5342 11.4581Z" fill="#644E77"/>
<path d="M43.2777 26.4327C43.0069 26.4294 42.7412 26.5066 42.5144 26.6546C42.2877 26.8026 42.11 27.0147 42.0041 27.264C41.8981 27.5132 41.8686 27.7883 41.9194 28.0543C41.9702 28.3203 42.0989 28.5652 42.2892 28.7579C42.4795 28.9506 42.7228 29.0823 42.9881 29.1364C43.2535 29.1905 43.5289 29.1644 43.7795 29.0616C44.03 28.9587 44.2443 28.7837 44.3951 28.5588C44.5459 28.3339 44.6264 28.0692 44.6265 27.7984C44.6265 27.4391 44.4849 27.0942 44.2325 26.8386C43.98 26.583 43.6369 26.4372 43.2777 26.4327Z" fill="#DEDFE0"/>
<path d="M43.2775 26.433C43.5483 26.4296 43.814 26.5068 44.0408 26.6549C44.2676 26.8029 44.4452 27.015 44.5512 27.2642C44.6571 27.5134 44.6866 27.7885 44.6358 28.0545C44.585 28.3205 44.4563 28.5654 44.266 28.7581C44.0757 28.9508 43.8324 29.0825 43.5671 29.1366C43.3017 29.1907 43.0263 29.1646 42.7758 29.0618C42.5252 28.959 42.311 28.7839 42.1601 28.559C42.0093 28.3341 41.9288 28.0694 41.9288 27.7986C41.9296 27.4396 42.0715 27.0952 42.3237 26.8398C42.576 26.5844 42.9186 26.4383 43.2775 26.433ZM45.0444 27.7986C45.0444 27.4483 44.9405 27.1059 44.7459 26.8147C44.5512 26.5235 44.2745 26.2966 43.9508 26.1628C43.6272 26.0289 43.2711 25.994 42.9276 26.0626C42.5841 26.1312 42.2686 26.3001 42.0212 26.548C41.7738 26.7959 41.6054 27.1117 41.5375 27.4553C41.4696 27.7989 41.5051 28.155 41.6396 28.4784C41.7741 28.8018 42.0016 29.078 42.2931 29.2721C42.5847 29.4663 42.9273 29.5695 43.2775 29.5688C43.7465 29.568 44.1959 29.3811 44.5271 29.0492C44.8584 28.7173 45.0444 28.2675 45.0444 27.7986Z" fill="#644E77"/>
<path d="M45.4458 27.798C45.4451 27.3685 45.3171 26.9489 45.078 26.5922C44.8388 26.2354 44.4992 25.9576 44.1022 25.7939C43.7051 25.6302 43.2684 25.5878 42.8473 25.6723C42.4262 25.7567 42.0396 25.9641 41.7364 26.2683C41.4332 26.5725 41.227 26.9597 41.1438 27.3811C41.0607 27.8024 41.1044 28.239 41.2693 28.6355C41.4343 29.0321 41.7132 29.3708 42.0706 29.6088C42.4281 29.8469 42.8482 29.9736 43.2776 29.9729C43.8533 29.9712 44.4048 29.7412 44.8112 29.3335C45.2176 28.9259 45.4458 28.3737 45.4458 27.798ZM45.0445 27.798C45.0445 28.1483 44.9406 28.4907 44.746 28.7819C44.5513 29.0731 44.2746 29.3 43.9509 29.4339C43.6273 29.5678 43.2712 29.6026 42.9277 29.534C42.5842 29.4655 42.2688 29.2965 42.0213 29.0486C41.7739 28.8007 41.6055 28.4849 41.5376 28.1413C41.4697 27.7977 41.5052 27.4417 41.6397 27.1182C41.7742 26.7948 42.0017 26.5186 42.2932 26.3245C42.5848 26.1304 42.9274 26.0271 43.2776 26.0278C43.7466 26.0287 44.196 26.2156 44.5272 26.5475C44.8585 26.8794 45.0445 27.3291 45.0445 27.798Z" fill="#644E77"/>
<path d="M49.8121 29.1639C49.0579 29.1639 48.4465 28.5525 48.4465 27.7982C48.4465 27.044 49.0579 26.4326 49.8121 26.4326C50.5663 26.4326 51.1777 27.044 51.1777 27.7982C51.1777 28.5525 50.5663 29.1639 49.8121 29.1639Z" fill="#DEDFE0"/>
<path d="M50.7293 4.15771H51.5386V10.6521H50.7293V4.15771Z" fill="#644E77"/>
<path d="M50.7293 3.75293V4.15756H51.5386V3.75293H51.1339H50.7293Z" fill="#644E77"/>
<path d="M50.7293 10.6519H51.5386V11.4578H50.7293V10.6519Z" fill="#644E77"/>
<path d="M49.8118 26.433C50.0819 26.433 50.3459 26.513 50.5705 26.6631C50.795 26.8132 50.9701 27.0264 51.0734 27.276C51.1768 27.5255 51.2039 27.8001 51.1512 28.065C51.0985 28.3299 50.9684 28.5732 50.7774 28.7642C50.5864 28.9552 50.3431 29.0853 50.0782 29.138C49.8133 29.1907 49.5387 29.1636 49.2892 29.0603C49.0396 28.9569 48.8263 28.7819 48.6763 28.5573C48.5262 28.3327 48.4461 28.0687 48.4461 27.7986C48.447 27.4367 48.5912 27.0898 48.8471 26.8339C49.103 26.578 49.4498 26.4338 49.8118 26.433ZM49.8118 29.5689C50.1619 29.5689 50.5042 29.465 50.7953 29.2705C51.0864 29.076 51.3133 28.7995 51.4473 28.476C51.5813 28.1526 51.6163 27.7966 51.548 27.4532C51.4797 27.1098 51.3111 26.7944 51.0635 26.5468C50.816 26.2992 50.5005 26.1306 50.1571 26.0623C49.8137 25.994 49.4578 26.0291 49.1343 26.1631C48.8108 26.2971 48.5344 26.524 48.3398 26.8151C48.1453 27.1062 48.0415 27.4485 48.0415 27.7986C48.0415 28.2681 48.228 28.7184 48.56 29.0504C48.892 29.3823 49.3423 29.5689 49.8118 29.5689Z" fill="#644E77"/>
<path d="M51.5389 0.80957V3.34864H58.3569L57.2105 2.08079L58.3569 0.80957H51.5389Z" fill="#DEDFE0"/>
<path d="M51.9873 27.7979C51.9873 27.3678 51.8597 26.9473 51.6208 26.5896C51.3818 26.232 51.0421 25.9532 50.6447 25.7886C50.2473 25.624 49.81 25.5809 49.3881 25.6648C48.9662 25.7488 48.5787 25.9559 48.2745 26.2601C47.9704 26.5642 47.7632 26.9518 47.6793 27.3736C47.5954 27.7955 47.6384 28.2328 47.8031 28.6302C47.9677 29.0277 48.2464 29.3673 48.6041 29.6063C48.9618 29.8453 49.3823 29.9728 49.8124 29.9728C50.3887 29.9711 50.9408 29.7414 51.3483 29.3339C51.7558 28.9264 51.9855 28.3742 51.9873 27.7979ZM51.5827 27.7979C51.5827 28.1481 51.4789 28.4903 51.2843 28.7815C51.0898 29.0726 50.8133 29.2995 50.4899 29.4335C50.1664 29.5674 49.8104 29.6025 49.467 29.5342C49.1236 29.4659 48.8082 29.2973 48.5606 29.0497C48.3131 28.8021 48.1445 28.4867 48.0762 28.1433C48.0078 27.7999 48.0429 27.444 48.1769 27.1205C48.3109 26.797 48.5378 26.5205 48.8289 26.326C49.12 26.1315 49.4623 26.0277 49.8124 26.0277C50.2819 26.0277 50.7322 26.2142 51.0642 26.5462C51.3962 26.8782 51.5827 27.3284 51.5827 27.7979Z" fill="#644E77"/>
<path d="M54.3477 14.9346C54.077 14.9353 53.8127 15.0164 53.5882 15.1676C53.3637 15.3188 53.1892 15.5333 53.0869 15.7839C52.9846 16.0345 52.959 16.3098 53.0135 16.5749C53.0679 16.8401 53.1999 17.083 53.3927 17.273C53.5855 17.463 53.8304 17.5914 54.0964 17.6419C54.3623 17.6924 54.6372 17.6627 54.8862 17.5566C55.1353 17.4506 55.3472 17.2729 55.495 17.0462C55.6429 16.8195 55.72 16.554 55.7167 16.2833C55.7114 15.9238 55.5648 15.5807 55.3086 15.3284C55.0525 15.076 54.7073 14.9345 54.3477 14.9346Z" fill="#DEDFE0"/>
<path d="M56.347 26.4327C56.0762 26.4294 55.8106 26.5066 55.5838 26.6546C55.357 26.8026 55.1793 27.0147 55.0734 27.264C54.9674 27.5132 54.938 27.7883 54.9888 28.0543C55.0395 28.3203 55.1682 28.5652 55.3585 28.7579C55.5488 28.9506 55.7921 29.0823 56.0575 29.1364C56.3228 29.1905 56.5983 29.1644 56.8488 29.0616C57.0993 28.9587 57.3136 28.7837 57.4644 28.5588C57.6152 28.3339 57.6958 28.0692 57.6958 27.7984C57.6958 27.4391 57.5543 27.0942 57.3018 26.8386C57.0493 26.583 56.7063 26.4372 56.347 26.4327Z" fill="#DEDFE0"/>
<path d="M54.3476 14.9343C54.6144 14.9343 54.8751 15.0134 55.0969 15.1616C55.3187 15.3098 55.4916 15.5205 55.5937 15.7669C55.6958 16.0134 55.7225 16.2846 55.6705 16.5462C55.6184 16.8079 55.49 17.0482 55.3013 17.2368C55.1127 17.4255 54.8724 17.5539 54.6107 17.606C54.3491 17.658 54.0779 17.6313 53.8314 17.5292C53.585 17.4271 53.3743 17.2542 53.2261 17.0324C53.0779 16.8106 52.9988 16.5499 52.9988 16.2831C53.004 15.927 53.1478 15.587 53.3996 15.3352C53.6515 15.0833 53.9915 14.9396 54.3476 14.9343ZM56.1179 16.2831C56.1159 15.9334 56.0103 15.5922 55.8146 15.3024C55.6189 15.0126 55.3417 14.7873 55.0181 14.6548C54.6944 14.5224 54.3388 14.4888 53.9961 14.5582C53.6533 14.6277 53.3389 14.797 53.0923 15.045C52.8457 15.293 52.6781 15.6084 52.6106 15.9516C52.5431 16.2947 52.5788 16.6501 52.7131 16.973C52.8474 17.2959 53.0743 17.5718 53.3651 17.7658C53.656 17.9599 53.9979 18.0635 54.3476 18.0635C54.5806 18.0653 54.8117 18.021 55.0276 17.9333C55.2435 17.8455 55.44 17.716 55.6057 17.5522C55.7714 17.3883 55.9032 17.1934 55.9934 16.9785C56.0836 16.7636 56.1305 16.533 56.1313 16.3L56.1179 16.2831Z" fill="#644E77"/>
<path d="M56.1315 16.2999C56.1315 16.6494 56.028 16.9912 55.8341 17.282C55.6402 17.5728 55.3645 17.7997 55.0418 17.9341C54.7191 18.0685 54.3639 18.1043 54.0208 18.0371C53.6778 17.9699 53.3624 17.8026 53.1143 17.5564C52.8662 17.3101 52.6965 16.996 52.6267 16.6535C52.5569 16.3109 52.59 15.9554 52.7219 15.6317C52.8538 15.308 53.0786 15.0306 53.368 14.8345C53.6573 14.6384 53.9983 14.5323 54.3478 14.5296C54.5814 14.5278 54.813 14.5723 55.0294 14.6605C55.2457 14.7487 55.4425 14.8788 55.6083 15.0433C55.7741 15.2079 55.9057 15.4037 55.9955 15.6193C56.0853 15.835 56.1315 16.0663 56.1315 16.2999ZM54.3613 18.4748C54.7916 18.4755 55.2124 18.3485 55.5705 18.1099C55.9286 17.8713 56.2079 17.5319 56.373 17.1345C56.5382 16.7372 56.5817 16.2998 56.4982 15.8777C56.4146 15.4556 56.2078 15.0677 55.9037 14.7632C55.5997 14.4587 55.2122 14.2512 54.7902 14.167C54.3682 14.0828 53.9307 14.1257 53.5331 14.2902C53.1355 14.4547 52.7957 14.7335 52.5565 15.0912C52.3174 15.449 52.1898 15.8696 52.1898 16.2999C52.1897 16.8738 52.4166 17.4245 52.8208 17.8319C53.225 18.2392 53.7739 18.4703 54.3478 18.4748H54.3613Z" fill="#644E77"/>
<path d="M56.3474 26.433C56.6182 26.4296 56.8839 26.5069 57.1107 26.6549C57.3374 26.8029 57.5151 27.015 57.621 27.2642C57.727 27.5134 57.7565 27.7885 57.7057 28.0545C57.6549 28.3205 57.5262 28.5654 57.3359 28.7581C57.1456 28.9508 56.9023 29.0825 56.637 29.1366C56.3716 29.1907 56.0962 29.1646 55.8456 29.0618C55.5951 28.959 55.3808 28.7839 55.23 28.559C55.0792 28.3341 54.9987 28.0694 54.9986 27.7986C54.9995 27.4396 55.1413 27.0952 55.3936 26.8398C55.6459 26.5844 55.9884 26.4383 56.3474 26.433ZM58.1177 27.7986C58.1177 27.4485 58.0139 27.1062 57.8193 26.8151C57.6248 26.524 57.3483 26.2971 57.0249 26.1631C56.7014 26.0291 56.3454 25.994 56.0021 26.0623C55.6587 26.1306 55.3432 26.2992 55.0956 26.5468C54.8481 26.7944 54.6795 27.1098 54.6112 27.4532C54.5429 27.7966 54.5779 28.1526 54.7119 28.476C54.8459 28.7995 55.0728 29.076 55.3639 29.2705C55.655 29.465 55.9973 29.5689 56.3474 29.5689C56.8169 29.5689 57.2672 29.3823 57.5992 29.0504C57.9312 28.7184 58.1177 28.2681 58.1177 27.7986Z" fill="#644E77"/>
<path d="M58.522 27.7979C58.522 27.3678 58.3944 26.9473 58.1554 26.5896C57.9165 26.232 57.5768 25.9532 57.1794 25.7886C56.782 25.624 56.3447 25.5809 55.9228 25.6648C55.5009 25.7488 55.1133 25.9559 54.8092 26.2601C54.505 26.5642 54.2979 26.9518 54.214 27.3736C54.13 27.7955 54.1731 28.2328 54.3377 28.6302C54.5023 29.0277 54.7811 29.3673 55.1388 29.6063C55.4964 29.8453 55.9169 29.9728 56.3471 29.9728C56.9233 29.9711 57.4755 29.7414 57.883 29.3339C58.2905 28.9264 58.5202 28.3742 58.522 27.7979ZM56.3471 26.0277C56.6973 26.027 57.0399 26.1303 57.3315 26.3244C57.6231 26.5185 57.8505 26.7947 57.985 27.1182C58.1195 27.4416 58.155 27.7976 58.0871 28.1412C58.0192 28.4849 57.8508 28.8006 57.6034 29.0485C57.356 29.2964 57.0405 29.4654 56.697 29.5339C56.3536 29.6025 55.9974 29.5677 55.6738 29.4338C55.3501 29.2999 55.0734 29.073 54.8788 28.7818C54.6841 28.4906 54.5802 28.1482 54.5802 27.7979C54.5802 27.329 54.7662 26.8793 55.0975 26.5474C55.4287 26.2155 55.8782 26.0286 56.3471 26.0277Z" fill="#644E77"/>
<path d="M59.2642 0.404297H51.1344V3.75263H59.2642L57.7535 2.06666L59.2642 0.404297ZM58.3571 3.348H51.5391V0.808929H58.3571L57.2107 2.08015L58.3571 3.348Z" fill="#644E77"/>
<path d="M57.7528 2.07711L59.2634 3.75297H51.5383V4.1576H60.1738L58.299 2.08048L60.1738 0H50.729V3.75297H51.1337V0.404633H59.2634L57.7528 2.07711Z" fill="#644E77"/>
<path d="M61.6614 20.4741H62.4707V20.8788H61.6614V20.4741Z" fill="#644E77"/>
<path d="M41.9693 12.2668H61.6176C61.6292 12.2668 61.6404 12.2714 61.6486 12.2796C61.6568 12.2878 61.6614 12.299 61.6614 12.3106V20.4741H62.4707V12.3106C62.4707 12.0844 62.3808 11.8674 62.2208 11.7074C62.0609 11.5474 61.8439 11.4575 61.6176 11.4575H41.5344L38.7491 15.6792H39.7169L41.9693 12.2668Z" fill="#644E77"/>
<path d="M61.4927 20.643H62.6392V12.3109C62.6392 12.0426 62.5326 11.7853 62.3429 11.5956C62.1532 11.4059 61.8959 11.2993 61.6276 11.2993H41.4533L38.4455 15.8582H39.8145L42.0704 12.4458H61.4927V20.643ZM62.302 20.3058H61.8299V12.3109C61.8299 12.2546 61.8075 12.2005 61.7677 12.1607C61.7278 12.1208 61.6738 12.0985 61.6175 12.0985H41.8714L39.619 15.5109H39.0558L41.6185 11.6264H61.6175C61.7963 11.6264 61.9679 11.6974 62.0943 11.8239C62.2208 11.9504 62.2919 12.1219 62.2919 12.3008L62.302 20.3058Z" fill="#644E77"/>
<path d="M61.7056 21.1385L61.7561 21.2835H62.471C62.5145 21.2837 62.5578 21.2768 62.5991 21.2633L62.471 20.8789L61.7056 21.1385Z" fill="#644E77"/>
<path d="M61.766 21.2834L66.2675 34.6059H67.1206L62.609 21.2632C62.5676 21.2767 62.5243 21.2835 62.4808 21.2834H61.766Z" fill="#644E77"/>
<path d="M62.1941 46.1613C58.3737 46.1613 55.5278 44.9643 52.5166 43.693C49.5055 42.4218 46.4471 41.1304 42.4008 41.1304C37.9903 41.0326 34.8342 42.2869 31.7657 43.5076C28.6973 44.7282 25.5816 45.9691 21.0194 46.0298C16.8685 46.0837 14.8656 45.0182 12.7547 43.8751C12.7609 43.8836 12.769 43.8905 12.7784 43.8954H12.7986C12.8297 43.9164 12.8581 43.9413 12.8829 43.9695C13.0039 44.0929 13.0824 44.2517 13.1066 44.4228C13.1309 44.5939 13.0998 44.7683 13.0178 44.9204C14.9971 45.9624 17.1045 46.8694 21.0295 46.8222C30.4338 46.7008 33.8799 41.7205 42.4008 41.9228C50.2068 41.9228 54.2734 46.9537 62.2109 46.9537C65.1411 46.9537 67.4846 46.2152 69.7573 45.2846L69.2212 44.681L69.319 44.59C67.2958 45.4228 65.04 46.1613 62.1941 46.1613Z" fill="#644E77"/>
<path d="M63.2764 12.3112C63.2768 12.0929 63.2342 11.8767 63.1511 11.6748C63.068 11.473 62.9459 11.2895 62.7919 11.1348C62.6378 10.9801 62.4548 10.8573 62.2533 10.7733C62.0518 10.6894 61.8357 10.646 61.6174 10.6455H51.5387V11.4514H61.6174C61.8436 11.4514 62.0606 11.5413 62.2206 11.7013C62.3806 11.8613 62.4705 12.0782 62.4705 12.3045V20.468C62.5548 20.4686 62.6369 20.4951 62.7057 20.544C62.7745 20.5928 62.8265 20.6616 62.8549 20.7411L63.2359 20.613L63.2764 20.7343V12.3112Z" fill="#644E77"/>
<path d="M62.4706 20.4741V20.8788L62.855 20.7472C62.8266 20.6678 62.7746 20.599 62.7058 20.5501C62.637 20.5013 62.5549 20.4747 62.4706 20.4741Z" fill="#644E77"/>
<path d="M62.4709 20.8789L62.599 21.2633C62.6796 21.2364 62.7497 21.1848 62.7993 21.1158C62.849 21.0468 62.8756 20.9639 62.8755 20.8789H62.4709Z" fill="#644E77"/>
<path d="M62.4708 20.8791H62.8755C62.8759 20.8344 62.869 20.79 62.8552 20.7476L62.4708 20.8791Z" fill="#644E77"/>
<path d="M63.2359 20.6196L62.8549 20.7478C62.8687 20.7902 62.8755 20.8346 62.8751 20.8793H63.2764V20.741L63.2359 20.6196Z" fill="#644E77"/>
<path d="M67.1105 34.6064H66.2574L66.5305 35.4123H72.8731C72.3673 39.4755 71.0084 43.0059 69.3022 44.6076L69.4338 44.5537C69.9294 44.3513 70.415 44.1423 70.9107 43.9265C72.3977 41.7246 73.4396 38.2414 73.7734 34.6064H67.1105Z" fill="#644E77"/>
<path d="M69.2044 44.7019L69.7406 45.3054C70.1871 44.8981 70.5802 44.4358 70.9106 43.9297C70.415 44.1455 69.9294 44.3546 69.4337 44.5569L69.3022 44.6108L69.2044 44.7019Z" fill="#644E77"/>
<path d="M69.7405 45.3021L70.2767 45.9057C71.0571 45.1744 71.7061 44.3144 72.1953 43.3633L71.4164 43.7005L70.9106 43.923C70.5804 44.4303 70.1873 44.8937 69.7405 45.3021Z" fill="#644E77"/>
<path d="M69.7409 45.3019C67.4682 46.2326 65.1247 46.971 62.1945 46.971C54.2569 46.971 50.1904 41.9401 42.3843 41.9401C33.8635 41.7378 30.4173 46.7181 21.013 46.8395C17.0881 46.8867 14.9806 45.9797 13.0013 44.9377C12.9326 45.0666 12.83 45.1742 12.7046 45.2491C12.5793 45.324 12.4358 45.3632 12.2898 45.3626C12.1581 45.3622 12.0285 45.3298 11.9122 45.2682C14.1343 46.4652 16.4305 47.6926 21.0164 47.6285C25.8787 47.5678 29.163 46.2595 32.3393 44.9951C35.3909 43.7812 38.2773 42.6347 42.3574 42.7291C46.1002 42.7291 48.909 43.916 51.8831 45.167C54.9178 46.445 58.0402 47.7634 62.1877 47.7634C65.3742 47.7634 67.8458 46.9305 70.041 46.0336L70.2871 45.9291L70.2703 45.8886L69.7409 45.3019Z" fill="#644E77"/>
<path d="M62.1946 47.9486C65.4047 47.9486 67.8965 47.1124 70.1119 46.2053L70.1591 46.1851L70.3614 46.1008L70.5098 46.0333L70.4019 45.7939L69.7848 45.0993L69.6769 45.1465C67.5728 46.0064 65.2125 46.8021 62.1946 46.8021C58.2427 46.8021 55.2045 45.5208 52.2676 44.2833C49.3306 43.0458 46.3026 41.7712 42.3844 41.7712C38.1021 41.67 35.1314 42.8502 31.9854 44.1046C28.8394 45.3589 25.69 46.6099 21.0097 46.6706C17.0916 46.7246 15.0144 45.8074 13.0789 44.7891L12.9306 44.7115L12.8497 44.8599C12.7672 45.0054 12.6318 45.1135 12.4717 45.1618C12.3116 45.2102 12.139 45.195 11.9898 45.1195L11.7437 44.988V45.3758L11.8313 45.4264C14.0636 46.6302 16.3868 47.871 21.0232 47.8205C25.9159 47.7598 29.2137 46.4481 32.4035 45.1769C35.4383 43.9731 38.2842 42.8334 42.3608 42.921C46.07 42.921 48.8586 44.0978 51.8023 45.3421C54.864 46.6234 58.0066 47.9486 62.1946 47.9486ZM70.0242 45.8782H69.9804C67.7987 46.7684 65.3473 47.5945 62.1946 47.5945C58.0741 47.5945 54.9618 46.2829 51.954 45.0116C48.9462 43.7404 46.134 42.5636 42.3642 42.5602C38.2201 42.4759 35.3371 43.6224 32.2821 44.8397C29.1159 46.0974 25.8485 47.399 21.0199 47.4597C16.9061 47.5069 14.6469 46.5121 12.6339 45.4365C12.8019 45.3753 12.9492 45.2677 13.0587 45.1263C14.9942 46.1379 17.105 47.0348 21.0131 46.9775C25.7574 46.9168 28.9877 45.6287 32.1102 44.3878C35.2326 43.147 38.1628 42.0039 42.3777 42.1084C46.2352 42.1084 49.2362 43.3729 52.1361 44.5935C55.1034 45.8445 58.1752 47.1393 62.1946 47.1393C65.2293 47.1393 67.5897 46.3604 69.6938 45.5039L70.0242 45.8782Z" fill="#644E77"/>
<path d="M70.2768 45.9053L70.2936 45.9457C70.8905 45.7029 71.4873 45.4399 72.0639 45.187C75.1728 43.8383 78.3829 42.4153 83.0531 42.3715L83.2554 40.7529C78.5347 40.7529 75.2639 42.0309 72.1954 43.3628C71.7062 44.3139 71.0572 45.1739 70.2768 45.9053Z" fill="#644E77"/>
<path d="M62.5987 21.2634L67.1104 34.6062H73.7733C73.4361 38.2411 72.3976 41.7243 70.9106 43.9262L71.4164 43.7037L72.1953 43.3665C73.4058 41.1309 74.269 38.0624 74.5792 34.6804L74.6602 33.8003H67.6904L63.2765 20.7441V20.8824H62.8752C62.8747 20.9668 62.8477 21.0489 62.7981 21.1173C62.7485 21.1856 62.6788 21.2367 62.5987 21.2634Z" fill="#644E77"/>
<path d="M70.4419 44.3136L72.3133 43.4942L72.3437 43.4436C73.5846 41.1474 74.4377 38.0485 74.7445 34.6766L74.8423 33.6111H67.8084L63.1147 19.7153V20.7101H62.7134V20.8786C62.7128 20.9283 62.697 20.9767 62.668 21.0171C62.6391 21.0575 62.5984 21.088 62.5516 21.1046L62.3897 21.1551L66.9958 34.7744H73.5879C73.2507 38.3621 72.1852 41.7341 70.769 43.8314L70.4419 44.3136ZM72.0739 43.2312L71.349 43.5482C72.664 41.3564 73.6216 38.0722 73.9386 34.6227L73.9555 34.4372H67.2116L62.7876 21.344C62.8896 21.2716 62.9644 21.1671 63 21.0472H63.1855L67.569 33.9651H74.4747L74.4107 34.6598C74.1106 37.9575 73.2811 40.9922 72.0739 43.2312Z" fill="#644E77"/>
<path d="M82.5 46.7759C77.8737 46.9209 74.6737 48.327 71.5716 49.6859C68.6548 50.9672 65.9 52.1777 62.1942 52.1777C58.2929 52.1777 55.2784 50.9065 52.3616 49.6791C49.4449 48.4517 46.3529 47.1468 42.3841 47.1468C38.0613 47.0389 35.067 48.2326 31.9007 49.5071C28.8222 50.7312 25.6424 51.999 21.006 52.0563C16.7439 52.1002 14.6701 51.0009 12.4919 49.8275C10.0405 48.5023 7.50816 47.1299 1.81969 47.1906L1.88039 47.9965C7.32607 47.9594 9.75387 49.2677 12.1075 50.539C14.3802 51.7663 16.518 52.9196 21.0161 52.8656C25.8043 52.8049 29.0548 51.5168 32.1975 50.2591C35.2862 49.0283 38.2063 47.8718 42.374 47.9662C46.191 47.9662 49.0335 49.1666 52.048 50.4344C55.0626 51.7023 58.1175 53.0005 62.1942 53.0005C66.0686 53.0005 68.8976 51.7562 71.8953 50.4412C74.8929 49.1261 77.9917 47.7639 82.3955 47.602L82.5 46.7759Z" fill="#644E77"/>
<path d="M82.8841 46.7656C82.7559 46.7656 82.6278 46.7656 82.4997 46.7656L82.3951 47.5783H82.8942C83.0015 47.5783 83.1044 47.5356 83.1803 47.4597C83.2562 47.3839 83.2988 47.2809 83.2988 47.1736C83.2988 47.0663 83.2562 46.9634 83.1803 46.8875C83.1044 46.8116 83.0015 46.769 82.8942 46.769L82.8841 46.7656Z" fill="#644E77"/>
<path d="M83.2553 40.7529L83.053 42.3715H83.2958C83.4062 42.3786 83.5169 42.363 83.6211 42.3257C83.7253 42.2883 83.8207 42.23 83.9014 42.1543C83.9822 42.0786 84.0465 41.9872 84.0905 41.8856C84.1345 41.7841 84.1572 41.6746 84.1572 41.5639C84.1572 41.4532 84.1345 41.3437 84.0905 41.2422C84.0465 41.1406 83.9822 41.0492 83.9014 40.9735C83.8207 40.8978 83.7253 40.8395 83.6211 40.8021C83.5169 40.7648 83.4062 40.7492 83.2958 40.7563L83.2553 40.7529Z" fill="#644E77"/>
</svg>
