<svg width="105" height="36" viewBox="0 0 105 36" fill="none" xmlns="http://www.w3.org/2000/svg">
<path d="M82.4831 21.0898C83.4708 21.0898 84.4362 21.3828 85.2574 21.9315C86.0786 22.4803 86.7185 23.2603 87.0963 24.1729C87.4741 25.0854 87.5728 26.0895 87.3798 27.0581C87.1869 28.0268 86.711 28.9164 86.0124 29.6145C85.3137 30.3126 84.4237 30.7879 83.455 30.9801C82.4862 31.1724 81.4822 31.073 80.5699 30.6945C79.6577 30.3161 78.8781 29.6756 78.3299 28.854C77.7817 28.0325 77.4895 27.0668 77.4902 26.0791C77.4912 24.7556 78.0176 23.4865 78.9539 22.551C79.8901 21.6154 81.1596 21.0898 82.4831 21.0898Z" fill="white"/>
<path d="M87.0332 31.5889C84.2214 31.4591 81.0382 31.3473 77.5594 31.2536C76.5104 30.2543 75.7902 28.9597 75.4943 27.5415C75.1984 26.1233 75.3408 24.6486 75.9027 23.3133C76.4645 21.9779 77.4192 20.845 78.64 20.065C79.8608 19.2849 81.29 18.8946 82.7378 18.9459C84.1856 18.9971 85.5836 19.4875 86.7462 20.3519C87.9088 21.2163 88.781 22.4138 89.2471 23.7855C89.7131 25.1572 89.7509 26.6383 89.3555 28.032C88.9601 29.4257 88.1502 30.6662 87.0332 31.5889ZM82.4838 31.0733C83.4713 31.0733 84.4366 30.7805 85.2577 30.2319C86.0787 29.6833 86.7187 28.9035 87.0966 27.9911C87.4745 27.0788 87.5734 26.0749 87.3807 25.1064C87.1881 24.1379 86.7125 23.2482 86.0143 22.5499C85.316 21.8517 84.4263 21.3761 83.4578 21.1835C82.4893 20.9908 81.4854 21.0897 80.5731 21.4676C79.6607 21.8455 78.8809 22.4855 78.3323 23.3065C77.7837 24.1276 77.4909 25.0929 77.4909 26.0804C77.4909 27.4046 78.0169 28.6746 78.9532 29.611C79.8896 30.5473 81.1596 31.0733 82.4838 31.0733Z" fill="#DEDFE0"/>
<path d="M95.9414 15.4497C94.6689 15.3127 93.6306 15.2514 93.0899 15.2226C92.9932 15.2195 92.901 15.1811 92.8306 15.1147C92.7602 15.0483 92.7165 14.9585 92.7078 14.8621C92.7008 14.7481 92.6851 14.6348 92.6609 14.5232C92.5716 14.0572 92.5769 13.578 92.6766 13.1142C92.7763 12.6503 92.9684 12.2112 93.2413 11.8231C93.353 11.684 93.4508 11.5343 93.5333 11.3761C93.6892 11.0865 93.9111 10.8377 94.181 10.6498C94.451 10.4619 94.7614 10.3402 95.0871 10.2946C97.3166 9.95689 99.5953 10.1913 101.709 10.9759C101.843 11.8808 101.998 12.919 102.167 13.9897C102.365 14.9922 102.619 15.9827 102.928 16.9566C100.787 16.1238 98.0504 15.6804 95.9414 15.4497Z" fill="#DEDFE0"/>
<path d="M102.937 16.9441C103.907 20.2534 105.043 24.2982 102.177 25.2824C98.7664 26.454 93.2039 27.0344 92.0107 27.1462C92.2171 25.3291 91.8999 23.491 91.0964 21.8482C90.293 20.2055 89.0367 18.8266 87.4756 17.8742C87.4756 17.8742 93.6653 16.4935 95.9473 15.4336C98.049 15.6787 100.785 16.1221 102.937 16.9441Z" fill="white"/>
<path d="M44.3208 4.43164C44.3208 4.43164 43.7584 6.73883 44.4325 8.79366C41.3287 8.79366 39.3135 8.79366 39.3135 8.79366C39.3135 8.79366 39.5081 6.89744 44.3208 4.43164Z" fill="white"/>
<path d="M57.8938 8.55979L58.7698 8.52734V8.55979C58.7698 8.55979 61.7187 11.3681 61.7187 15.2002C61.6177 18.268 60.3091 22.886 59.8224 24.5082C59.7713 24.6789 59.6666 24.8286 59.5237 24.935C59.3809 25.0415 59.2075 25.0992 59.0294 25.0994C55.1324 25.121 33.7404 25.2292 29.108 25.0994C28.7728 21.3647 29.3496 15.8094 29.793 12.3991C29.9038 11.5491 30.3062 10.7639 30.9314 10.1774C31.5566 9.591 32.366 9.23969 33.2213 9.18345L39.3209 8.77609C39.3209 8.77609 41.3361 8.80132 44.44 8.77609C47.9693 8.77609 52.9045 8.72201 57.8938 8.54537V8.55979Z" fill="white"/>
<path d="M15.6111 21.0898C16.5987 21.0898 17.5642 21.3828 18.3853 21.9315C19.2065 22.4803 19.8464 23.2603 20.2242 24.1729C20.602 25.0854 20.7007 26.0895 20.5077 27.0581C20.3148 28.0268 19.8389 28.9164 19.1403 29.6145C18.4417 30.3126 17.5517 30.7879 16.5829 30.9801C15.6141 31.1724 14.6101 31.073 13.6979 30.6945C12.7856 30.3161 12.0061 29.6756 11.4579 28.854C10.9097 28.0325 10.6175 27.0668 10.6182 26.0791C10.6182 25.4236 10.7473 24.7745 10.9983 24.169C11.2493 23.5634 11.6171 23.0132 12.0808 22.5499C12.5444 22.0866 13.0949 21.7191 13.7006 21.4686C14.3064 21.2181 14.9556 21.0894 15.6111 21.0898Z" fill="white"/>
<path d="M15.6111 31.0739C16.5986 31.0739 17.5639 30.7811 18.385 30.2325C19.206 29.6838 19.846 28.904 20.2239 27.9917C20.6018 27.0794 20.7007 26.0755 20.508 25.107C20.3154 24.1384 19.8398 23.2488 19.1416 22.5505C18.4433 21.8522 17.5537 21.3767 16.5851 21.1841C15.6166 20.9914 14.6127 21.0903 13.7004 21.4682C12.788 21.8461 12.0082 22.486 11.4596 23.3071C10.911 24.1282 10.6182 25.0935 10.6182 26.081C10.6182 27.4052 11.1442 28.6752 12.0806 29.6115C13.0169 30.5479 14.2869 31.0739 15.6111 31.0739ZM20.2687 31.4921C16.88 31.6219 13.9347 31.7805 11.5446 31.9535C10.3194 31.1057 9.39007 29.896 8.8867 28.4936C8.38334 27.0913 8.33118 25.5667 8.73753 24.1332C9.14389 22.6998 9.9884 21.4293 11.1528 20.4997C12.3172 19.5702 13.7432 19.0281 15.2311 18.9494C16.7189 18.8707 18.1941 19.2594 19.4501 20.0609C20.7061 20.8624 21.6799 22.0367 22.2352 23.4193C22.7905 24.8019 22.8994 26.3235 22.5468 27.7711C22.1942 29.2187 21.3976 30.5198 20.2687 31.4921Z" fill="#DEDFE0"/>
<path d="M10.5023 13.9923C10.5193 13.9925 10.5358 13.9987 10.5487 14.0099C10.5616 14.0211 10.5701 14.0365 10.5727 14.0534C10.5752 14.0703 10.5718 14.0875 10.5628 14.1021C10.5539 14.1166 10.5401 14.1275 10.5239 14.1329C8.88002 14.5835 3.90876 15.0918 1.30957 17.9109C1.67007 15.4955 2.23244 13.9959 4.84605 13.0117C4.83163 13.0117 6.68459 13.967 10.5023 13.9923Z" fill="#DEDFE0"/>
<path d="M1.04783 21.0898C1.18481 21.1079 4.59873 21.5657 2.65204 25.9349C2.05855 25.6659 1.50628 25.3139 1.01178 24.8895C1.01178 24.8895 0.968516 23.0726 1.04783 21.0898Z" fill="#DEDFE0"/>
<path d="M5.76249 20.0091C5.76249 20.0091 5.76249 26.0583 5.37315 26.8225C4.43268 26.6452 3.51907 26.3471 2.655 25.9357C4.60168 21.5665 1.18777 21.1086 1.05078 21.0906C1.08323 20.1713 1.14091 19.2124 1.24184 18.3652C1.23824 18.3652 5.42362 19.1331 5.76249 20.0091Z" fill="#DEDFE0"/>
<path d="M93.5945 9.05798C97.4374 9.33196 99.4418 8.74435 100.426 8.36943C100.532 8.33001 100.645 8.31495 100.758 8.32535C100.871 8.33575 100.979 8.37136 101.076 8.42952C101.173 8.48769 101.256 8.56693 101.318 8.66137C101.38 8.7558 101.42 8.86302 101.435 8.97507C101.507 9.50139 101.605 10.1863 101.72 10.9758C99.6049 10.1906 97.3248 9.95617 95.0942 10.2945C94.7684 10.3401 94.4581 10.4618 94.1881 10.6497C93.9182 10.8376 93.6963 11.0864 93.5404 11.376C93.4579 11.5342 93.3601 11.6839 93.2484 11.823C92.9755 12.2111 92.7834 12.6502 92.6837 13.1141C92.584 13.5779 92.5787 14.0571 92.668 14.5231C92.6922 14.6347 92.7079 14.748 92.7149 14.862C92.7236 14.9584 92.7673 15.0482 92.8377 15.1146C92.9081 15.181 93.0003 15.2194 93.097 15.2225C93.6377 15.2513 94.676 15.3126 95.9485 15.4496C93.6666 16.5095 87.4768 17.8902 87.4768 17.8902C86.0223 17.0044 84.3582 16.5219 82.6555 16.4921C80.9528 16.4623 79.2728 16.8863 77.7882 17.7205C76.3035 18.5548 75.0677 19.7692 74.2078 21.2391C73.3478 22.709 72.8946 24.3813 72.8947 26.0843C72.8946 26.4167 72.9126 26.7488 72.9488 27.0793C61.6652 27.6561 43.9143 27.4398 24.6962 27.0793C24.7324 26.7537 24.7505 26.4263 24.7502 26.0987C24.7744 24.8836 24.5559 23.6758 24.1076 22.5462C23.6592 21.4165 22.9901 20.3876 22.1393 19.5197C21.2884 18.6518 20.273 17.9624 19.1525 17.4917C18.032 17.021 16.8288 16.7786 15.6134 16.7786C14.3981 16.7786 13.1949 17.021 12.0744 17.4917C10.9538 17.9624 9.93842 18.6518 9.0876 19.5197C8.23677 20.3876 7.56762 21.4165 7.11929 22.5462C6.67096 23.6758 6.45248 24.8836 6.47662 26.0987C6.47662 26.4063 6.49103 26.7092 6.51987 27.0072C6.11251 26.9639 5.73399 26.9062 5.3771 26.8377C5.73759 26.0735 5.76643 20.0243 5.76643 20.0243C5.42757 19.1483 1.24219 18.3805 1.24219 18.3805C1.24219 18.2254 1.27824 18.074 1.29987 17.9262C3.89906 15.1071 8.87032 14.5988 10.5142 14.1482C10.5304 14.1429 10.5442 14.132 10.5531 14.1174C10.5621 14.1029 10.5655 14.0856 10.563 14.0687C10.5604 14.0519 10.5519 14.0365 10.539 14.0253C10.5261 14.0141 10.5096 14.0078 10.4926 14.0076C6.6857 13.9824 4.83274 13.0271 4.83274 13.0271C5.11874 12.9213 5.42877 12.8204 5.76283 12.7242C9.18035 11.7545 23.2325 8.65062 31.387 8.32617C34.7252 7.60517 41.1204 3.6397 44.0873 1.97781C47.0542 0.315913 49.5813 0.802585 48.9432 2.47529C47.3647 3.03535 45.8224 3.69272 44.3253 4.44361C39.5126 6.90942 39.3216 8.76958 39.3216 8.76958L33.2147 9.18055C32.3594 9.23679 31.55 9.5881 30.9248 10.1745C30.2996 10.761 29.8972 11.5462 29.7864 12.3962C29.343 15.8065 28.7662 21.3618 29.1014 25.0965C33.7374 25.2299 55.1294 25.1218 59.0228 25.0965C59.2009 25.0963 59.3743 25.0386 59.5171 24.9321C59.66 24.8257 59.7647 24.676 59.8158 24.5053C60.3025 22.8831 61.6183 18.2651 61.7121 15.1973C61.7121 11.3652 58.7632 8.55689 58.7632 8.55689V8.52444L59.5671 8.4956C61.1497 8.43071 62.7179 8.35141 64.2356 8.25768C67.3791 8.06301 70.6019 8.00533 73.7563 8.03417C74.3655 8.03417 74.9712 8.03417 75.5588 8.06301C82.7543 8.21081 89.3803 8.75516 93.5945 9.05798Z" fill="white"/>
<path d="M87.0339 31.5883C95.2857 31.9488 100.372 32.468 100.372 33.0303C100.372 34.1839 78.9443 35.1176 52.5162 35.1176C26.0881 35.1176 4.66016 34.1839 4.66016 33.0303C4.66016 32.6338 7.18364 32.2625 11.5601 31.9488C12.8602 32.8485 14.4221 33.2912 16.0009 33.2077C17.5797 33.1242 19.0862 32.5192 20.2841 31.4874C28.7919 31.1449 40.1115 30.9395 52.5162 30.9395C61.7053 30.9395 70.2851 31.0512 77.5744 31.2495C78.84 32.453 80.5024 33.1516 82.2478 33.2133C83.9932 33.2751 85.7008 32.6958 87.0483 31.5847L87.0339 31.5883Z" fill="#DEDFE0"/>
<path d="M77.5557 31.252C81.0345 31.3457 84.2177 31.4574 87.0295 31.5872C85.682 32.6982 83.9744 33.2776 82.229 33.2158C80.4837 33.154 78.8213 32.4555 77.5557 31.252Z" fill="#DEDFE0"/>
<path d="M11.5439 31.9517C13.934 31.7786 16.8793 31.62 20.268 31.4902C19.07 32.522 17.5636 33.127 15.9848 33.2106C14.4059 33.2941 12.8441 32.8513 11.5439 31.9517Z" fill="#DEDFE0"/>
<path d="M77.4902 26.0791C77.4895 27.0668 77.7817 28.0325 78.3299 28.854C78.8781 29.6756 79.6577 30.3161 80.5699 30.6945C81.4822 31.073 82.4862 31.1724 83.455 30.9801C84.4237 30.7879 85.3137 30.3126 86.0124 29.6145C86.711 28.9164 87.1869 28.0268 87.3798 27.0581C87.5728 26.0895 87.4741 25.0854 87.0963 24.1729C86.7185 23.2603 86.0786 22.4803 85.2574 21.9315C84.4362 21.3828 83.4708 21.0898 82.4831 21.0898C81.1596 21.0898 79.8901 21.6154 78.9539 22.551C78.0176 23.4865 77.4912 24.7556 77.4902 26.0791V26.0791Z" stroke="#644E77" stroke-width="0.93929" stroke-linecap="round" stroke-linejoin="round"/>
<path d="M87.0323 31.5881C88.331 30.5173 89.2102 29.0226 89.5151 27.3671C89.8199 25.7117 89.5308 24.0019 88.6988 22.5387C87.8667 21.0755 86.545 19.9528 84.9664 19.3685C83.3879 18.7841 81.6537 18.7755 80.0695 19.3442C78.4852 19.9128 77.1524 21.0223 76.3058 22.4772C75.4593 23.9321 75.1533 25.639 75.4417 27.2973C75.7301 28.9557 76.5944 30.4591 77.8825 31.5427C79.1705 32.6264 80.7996 33.2207 82.4828 33.2212C84.143 33.2222 85.7517 32.6447 87.0323 31.5881V31.5881Z" stroke="#644E77" stroke-width="1.40893" stroke-linecap="round" stroke-linejoin="round"/>
<path d="M10.6182 26.0791C10.6175 27.0668 10.9097 28.0325 11.4579 28.854C12.0061 29.6756 12.7856 30.3161 13.6979 30.6945C14.6101 31.073 15.6141 31.1724 16.5829 30.9801C17.5517 30.7879 18.4417 30.3126 19.1403 29.6145C19.8389 28.9164 20.3148 28.0268 20.5077 27.0581C20.7007 26.0895 20.602 25.0854 20.2242 24.1729C19.8464 23.2603 19.2065 22.4803 18.3853 21.9315C17.5642 21.3828 16.5987 21.0898 15.6111 21.0898C14.2875 21.0898 13.0181 21.6154 12.0818 22.551C11.1456 23.4865 10.6191 24.7556 10.6182 26.0791V26.0791Z" stroke="#644E77" stroke-width="0.93929" stroke-linecap="round" stroke-linejoin="round"/>
<path d="M20.2688 31.492C21.5381 30.3988 22.3826 28.8942 22.6548 27.2413C22.927 25.5884 22.6095 23.8924 21.7578 22.4499C20.9061 21.0075 19.5744 19.9103 17.9956 19.3503C16.4169 18.7903 14.6915 18.8031 13.1212 19.3865C11.5509 19.9699 10.2357 21.0867 9.4055 22.5417C8.57531 23.9967 8.28302 25.6972 8.57973 27.3458C8.87643 28.9945 9.74325 30.4864 11.0286 31.5606C12.314 32.6349 13.936 33.2231 15.6112 33.2224C17.321 33.223 18.9741 32.6088 20.2688 31.492Z" stroke="#644E77" stroke-width="1.40893" stroke-linecap="round" stroke-linejoin="round"/>
<path d="M72.9437 27.0789C72.9075 26.7485 72.8895 26.4163 72.8896 26.0839C72.8895 24.3809 73.3427 22.7086 74.2027 21.2387C75.0627 19.7689 76.2985 18.5544 77.7831 17.7201C79.2678 16.8859 80.9477 16.4619 82.6504 16.4917C84.3532 16.5215 86.0173 17.0041 87.4718 17.8898V17.8898C89.0329 18.8423 90.2892 20.2211 91.0926 21.8639C91.8961 23.5066 92.2133 25.3448 92.0068 27.1618" stroke="#644E77" stroke-width="1.87858" stroke-linecap="round" stroke-linejoin="round"/>
<path d="M24.6921 27.0643C24.7283 26.7388 24.7464 26.4114 24.7461 26.0838C24.7703 24.8687 24.5518 23.6609 24.1035 22.5312C23.6551 21.4016 22.986 20.3727 22.1352 19.5048C21.2843 18.6369 20.2689 17.9474 19.1484 17.4768C18.0279 17.0061 16.8247 16.7637 15.6093 16.7637C14.3939 16.7637 13.1908 17.0061 12.0702 17.4768C10.9497 17.9474 9.93431 18.6369 9.08349 19.5048C8.23266 20.3727 7.56351 21.4016 7.11518 22.5312C6.66686 23.6609 6.44837 24.8687 6.47251 26.0838C6.47251 26.3914 6.48693 26.6942 6.51577 26.9922" stroke="#644E77" stroke-width="1.87858" stroke-linecap="round" stroke-linejoin="round"/>
<path d="M101.71 10.9733C101.594 10.1838 101.497 9.49886 101.425 8.97253C101.41 8.86048 101.37 8.75327 101.307 8.65883C101.245 8.56439 101.163 8.48515 101.066 8.42699C100.969 8.36882 100.86 8.33322 100.747 8.32281C100.635 8.31241 100.521 8.32748 100.415 8.36689C99.4312 8.72739 97.4268 9.32942 93.5839 9.05545C89.3697 8.75263 82.7437 8.20828 75.577 8.06408C74.975 8.06408 74.3694 8.04245 73.7746 8.03524C70.6202 8.0064 67.3974 8.06408 64.2538 8.25875C62.7361 8.35248 61.1679 8.43178 59.5854 8.49667L58.7815 8.52551L57.9054 8.55796C52.9162 8.7346 47.9809 8.78507 44.4517 8.78868C41.3478 8.78868 39.3326 8.78868 39.3326 8.78868C39.3326 8.78868 39.5237 6.91409 44.3363 4.4627C45.8335 3.71181 47.3758 3.05444 48.9543 2.49439C49.5924 0.821678 47.0617 0.331402 44.0984 1.9969C41.1351 3.6624 34.7254 7.60624 31.3981 8.34526C23.2436 8.66971 9.19139 11.7736 5.77388 12.7433C5.43981 12.8419 5.12979 12.9428 4.84379 13.0462C2.23019 14.0303 1.65699 15.53 1.30731 17.9453C1.28568 18.0931 1.26766 18.2445 1.24963 18.3995C1.14869 19.2467 1.09101 20.202 1.05857 21.1249C0.979259 23.1221 1.02252 24.9246 1.02252 24.9246C1.51702 25.3489 2.06929 25.7009 2.66278 25.97C3.52686 26.3814 4.44047 26.6795 5.38093 26.8568V26.8568C5.74143 26.9253 6.10193 26.983 6.52371 27.0263" stroke="#644E77" stroke-width="1.87858" stroke-linecap="round" stroke-linejoin="round"/>
<path d="M92.0117 27.1613C93.205 27.0495 98.7674 26.4691 102.178 25.2975C105.044 24.3133 103.908 20.2685 102.938 16.9592C102.629 15.9853 102.375 14.9947 102.178 13.9923C102.008 12.9108 101.853 11.8834 101.72 10.9785" stroke="#644E77" stroke-width="1.87858" stroke-linecap="round" stroke-linejoin="round"/>
<path d="M24.6914 27.0645C43.9095 27.4466 61.6604 27.6557 72.944 27.0645" stroke="#644E77" stroke-width="1.87858" stroke-linecap="round" stroke-linejoin="round"/>
<path d="M75.5864 8.0662C75.5864 8.0662 75.5612 4.46122 74.6166 4.32423C73.6721 4.18724 73.7587 7.68407 73.7659 8.03736V8.0662" stroke="#644E77" stroke-width="0.93929" stroke-linecap="round" stroke-linejoin="round"/>
<path d="M59.5741 8.49885C59.5741 8.49885 59.9779 4.45406 58.9361 4.41441C57.8942 4.37475 58.3737 7.77425 57.8906 8.56013" stroke="#644E77" stroke-width="0.93929" stroke-linecap="round" stroke-linejoin="round"/>
<path d="M44.3253 4.42773C44.3253 4.42773 43.7629 6.73492 44.4371 8.78976" stroke="#644E77" stroke-width="0.93929" stroke-linecap="round" stroke-linejoin="round"/>
<path d="M39.3167 8.77099L33.2135 9.17835C32.3582 9.23459 31.5488 9.5859 30.9236 10.1723C30.2984 10.7588 29.896 11.544 29.7852 12.394C29.3418 15.8043 28.765 21.3596 29.1002 25.0943C33.7362 25.2277 55.1282 25.1196 59.0215 25.0943C59.1997 25.0941 59.3731 25.0364 59.5159 24.9299C59.6588 24.8235 59.7635 24.6738 59.8146 24.5031C60.3013 22.8809 61.6171 18.2629 61.7109 15.1951C61.7109 11.363 58.762 8.55469 58.762 8.55469" stroke="#644E77" stroke-width="0.93929" stroke-linecap="round" stroke-linejoin="round"/>
<path d="M101.709 10.9783C99.5939 10.1931 97.3138 9.95861 95.0831 10.2969C94.7574 10.3426 94.447 10.4642 94.1771 10.6521C93.9072 10.84 93.6853 11.0888 93.5294 11.3784C93.4469 11.5366 93.3491 11.6864 93.2374 11.8254C92.9645 12.2136 92.7724 12.6526 92.6727 13.1165C92.573 13.5804 92.5677 14.0596 92.657 14.5256C92.6812 14.6372 92.6969 14.7505 92.7039 14.8644C92.7126 14.9608 92.7563 15.0506 92.8267 15.117C92.897 15.1834 92.9893 15.2218 93.086 15.2249C93.6267 15.2538 94.665 15.3151 95.9375 15.452C98.0392 15.6828 100.775 16.1262 102.928 16.9625" stroke="#644E77" stroke-width="0.93929" stroke-linecap="round" stroke-linejoin="round"/>
<path d="M87.4756 17.8878C87.4756 17.8878 93.6653 16.5071 95.9473 15.4473" stroke="#644E77" stroke-width="0.93929" stroke-linecap="round" stroke-linejoin="round"/>
<path d="M58.3347 12.1094H54.5928" stroke="#644E77" stroke-width="0.93929" stroke-linecap="round" stroke-linejoin="round"/>
<path d="M4.83268 13.0117C4.83268 13.0117 6.68564 13.967 10.4925 13.9923C10.5096 13.9925 10.526 13.9987 10.5389 14.0099C10.5518 14.0211 10.5603 14.0365 10.5629 14.0534C10.5655 14.0703 10.562 14.0875 10.5531 14.1021C10.5441 14.1166 10.5303 14.1275 10.5141 14.1329C8.87025 14.5835 3.89899 15.0918 1.2998 17.9109" stroke="#644E77" stroke-width="0.93929" stroke-linecap="round" stroke-linejoin="round"/>
<path d="M1.23828 18.3652C1.23828 18.3652 5.42366 19.1331 5.76253 20.0091C5.76253 20.0091 5.76252 26.0583 5.37319 26.8225" stroke="#644E77" stroke-width="0.93929" stroke-linecap="round" stroke-linejoin="round"/>
<path d="M1.04395 21.0898C1.18093 21.1079 4.59485 21.5657 2.64816 25.9349" stroke="#644E77" stroke-width="0.93929" stroke-linecap="round" stroke-linejoin="round"/>
</svg>
