<svg width="105" height="36" viewBox="0 0 105 36" fill="none" xmlns="http://www.w3.org/2000/svg">
<path d="M102.815 16.2521C103.877 16.4744 104.189 17.4054 103.88 19.0258C103.391 21.2808 104.122 22.8916 103.365 24.0449C101.277 26.4416 90.9026 26.4867 90.9026 26.4867C91.7843 18.9356 86.668 15.7431 82.3722 15.5917C77.9541 15.4307 73.4523 18.4911 73.0629 24.6119H73.0308L27.5755 24.9501C27.347 13.8135 8.94742 10.6436 9.74545 27.4178C9.74545 27.4178 4.27512 27.5949 2.26718 27.0183C1.49168 26.0229 0.848114 22.6017 1.03153 19.4768H1.13128C1.13128 19.4768 5.33379 19.2191 7.54766 17.9531C8.72871 17.2369 9.78876 16.3377 10.6883 15.2889C10.7501 15.2188 10.7898 15.1319 10.8023 15.0392C10.8149 14.9464 10.7997 14.8521 10.7588 14.768C10.7178 14.6839 10.6529 14.6139 10.5722 14.5667C10.4915 14.5195 10.3986 14.4973 10.3054 14.5029C9.35931 14.5512 8.46796 14.4836 7.14221 14.7509C4.99913 15.1794 1.67188 16.7772 1.43376 16.8868C1.53088 16.5184 1.65787 16.1585 1.81347 15.8108C2.75308 13.6105 20.2774 9.39685 31.8134 10.0895C48.4979 -4.00768 73.6775 0.618349 93.3579 8.36276C96.3118 9.00706 100.9 8.89108 100.9 8.89108C100.823 10.0283 101.245 10.8948 101.711 11.8774C99.7968 12.3477 96.6722 12.2189 94.0948 11.8774C93.3965 13.6782 96.9651 14.606 98.471 14.606C99.977 14.606 102.654 14.4739 102.654 14.4739C102.768 15.0596 102.822 15.6555 102.815 16.2521ZM34.6644 10.476L79.8976 8.22102C79.8976 8.22102 74.1055 4.60009 69.2047 3.8527C63.3804 2.75418 59.9245 2.62855 52.472 3.39203C45.8078 4.08143 34.6644 10.476 34.6644 10.476Z" fill="white"/>
<path d="M102.649 14.4598C102.649 14.4598 99.9717 14.5919 98.4658 14.5919C96.9598 14.5919 93.3913 13.6641 94.0895 11.8633C96.6638 12.2176 99.7915 12.3465 101.706 11.8633C102.131 12.6845 102.448 13.5573 102.649 14.4598Z" fill="#DEDFE0"/>
<path d="M77.5176 27.6387C77.9635 28.4566 78.6159 29.1431 79.4097 29.6296C80.2079 30.1185 81.1223 30.3844 82.058 30.3995H82.1674C83.5716 30.3978 84.9178 29.8386 85.9107 28.8445C86.9037 27.8505 87.4623 26.5028 87.464 25.097C87.4623 23.6918 86.9035 22.3447 85.9104 21.3517C84.9172 20.3586 83.571 19.8009 82.1674 19.8009C80.7823 19.8015 79.4528 20.3462 78.4648 21.3179C77.4767 22.2896 76.909 23.6107 76.8837 24.9971C76.8837 25.0325 76.8837 25.0647 76.8837 25.1002C76.8789 25.9862 77.0969 26.8592 77.5176 27.6387ZM83.0748 17.8648C84.6295 18.0633 86.0751 18.7702 87.1873 19.8756C88.2995 20.9811 89.016 22.4233 89.2254 23.9782C89.4349 25.5332 89.1257 27.1138 88.3457 28.4748C87.5658 29.8357 86.3588 30.9007 84.9122 31.5045C83.0619 31.4368 81.0862 31.3724 79.001 31.3144C77.4937 30.5648 76.3004 29.3046 75.6331 27.7577C74.9658 26.2108 74.8677 24.4772 75.3561 22.8647C75.8445 21.2522 76.8879 19.8652 78.301 18.9498C79.7141 18.0344 81.4054 17.65 83.0748 17.8648Z" fill="#DEDFE0"/>
<path d="M84.9118 31.509C95.0513 31.8956 101.464 32.4754 101.464 33.094C101.464 34.2505 80.0079 35.1879 53.5379 35.1879C27.0679 35.1879 5.61133 34.2505 5.61133 33.094C5.61133 32.585 9.74626 32.1275 16.6292 31.757C18.183 32.23 19.8519 32.1538 21.3562 31.5412C29.861 31.2191 41.1524 31 53.5347 31C62.8921 31 71.6221 31.116 78.9974 31.3221C79.9112 31.7774 80.9122 32.03 81.9323 32.0628C82.9524 32.0956 83.9676 31.9078 84.9086 31.5122L84.9118 31.509Z" fill="#DEDFE0"/>
<path d="M82.1592 25.0176L87.4815 25.1207C87.4834 26.0622 87.2322 26.9868 86.7543 27.7977H86.735L82.1592 25.0176Z" fill="white"/>
<path d="M82.1387 24.9947L86.7659 22.4336C87.2413 23.243 87.4913 24.1652 87.4899 25.1042L82.1387 24.9947Z" fill="white"/>
<path d="M82.1138 24.9866H82.0977L84.8039 20.4766C85.6126 20.9377 86.2852 21.6045 86.7539 22.4094L82.1138 24.9866Z" fill="white"/>
<path d="M82.166 25.0513V25.0352L86.716 27.7573H86.7354C86.2601 28.5742 85.5744 29.2485 84.7499 29.7095V29.6902L82.166 25.0513Z" fill="white"/>
<path d="M82.0838 24.9929H82.0645L82.1642 19.7774C83.0843 19.7747 83.9888 20.0147 84.7867 20.4732L82.0838 24.9929Z" fill="white"/>
<path d="M82.1602 25.0762L84.7345 29.7376V29.757C83.9479 30.198 83.0617 30.4298 82.1602 30.4303H82.0508L82.1602 25.0762Z" fill="white"/>
<path d="M84.9102 31.5065C83.9692 31.9021 82.954 32.0899 81.9339 32.0571C80.9138 32.0243 79.9128 31.7717 78.999 31.3164C81.0842 31.3744 83.0599 31.4388 84.9102 31.5065Z" fill="#DEDFE0"/>
<path d="M82.138 25.1001V25.084L82.035 30.4091C81.0994 30.394 80.1849 30.1281 79.3867 29.6391L82.138 25.1001Z" fill="white"/>
<path d="M82.0585 25.0162V25.0356L79.5518 20.4869C80.3475 20.0314 81.2481 19.7916 82.1647 19.791L82.0585 25.0162Z" fill="white"/>
<path d="M82.1106 25.1016H82.1267L79.398 29.6342C78.6041 29.1477 77.9517 28.4612 77.5059 27.6433L82.1106 25.1016Z" fill="white"/>
<path d="M82.0794 25.0965H82.0987L77.5069 27.6318C77.0828 26.8532 76.8615 25.9802 76.8633 25.0933C76.8633 25.0579 76.8633 25.0257 76.8633 24.9902L82.0794 25.0965Z" fill="white"/>
<path d="M82.058 25.0727V25.0888L76.8516 24.989C76.8654 24.0703 77.1206 23.1714 77.5917 22.3828L82.058 25.0727Z" fill="white"/>
<path d="M82.0493 25.0471L77.6055 22.3669C78.0741 21.5785 78.7394 20.9258 79.5362 20.4727L82.0493 25.0471Z" fill="white"/>
<path d="M79.8983 8.22961L34.665 10.4846C34.665 10.4846 45.8084 4.09003 52.4597 3.39741C59.9251 2.63392 63.3811 2.75312 69.1925 3.85808C74.1061 4.60868 79.8983 8.22961 79.8983 8.22961Z" fill="#DEDFE0"/>
<path d="M73.0774 26.5737L27.2939 27.6207C27.4964 26.7398 27.5914 25.8377 27.5771 24.934L73.0324 24.5957H73.0645C73.0222 25.2545 73.0265 25.9155 73.0774 26.5737Z" fill="white"/>
<path d="M16.066 20.4967C15.2704 20.9513 14.6054 21.6037 14.1353 22.3909C13.6643 23.1795 13.409 24.0783 13.3952 24.997C13.3952 25.0325 13.3952 25.0647 13.3952 25.1001C13.3933 26.4879 13.9358 27.8209 14.906 28.812C15.8762 29.8032 17.1964 30.3733 18.5824 30.3995H18.6918C20.096 30.3977 21.4422 29.8385 22.4351 28.8445C23.4281 27.8504 23.9867 26.5027 23.9884 25.0969C23.9866 23.6917 23.4279 22.3446 22.4347 21.3516C21.4416 20.3586 20.0954 19.8008 18.6918 19.8008C17.771 19.8 16.8659 20.0399 16.066 20.4967ZM19.6057 17.8647C21.1674 18.0645 22.6188 18.7772 23.7326 19.8913C24.8464 21.0053 25.5596 22.4578 25.7605 24.0211C25.9614 25.5844 25.6386 27.1703 24.8428 28.5303C24.0469 29.8903 22.823 30.9476 21.3626 31.5366C19.6732 31.6043 18.0933 31.6784 16.6356 31.7525C14.9268 31.2343 13.475 30.0922 12.568 28.5527C11.661 27.0131 11.365 25.1885 11.7388 23.4407C12.1126 21.6929 13.1288 20.1495 14.586 19.1167C16.0432 18.0839 17.8348 17.637 19.6057 17.8647Z" fill="#DEDFE0"/>
<path d="M18.6855 25.0176L24.0079 25.1207C24.0097 26.0622 23.7585 26.9868 23.2806 27.7977H23.2613L18.6855 25.0176Z" fill="white"/>
<path d="M18.6631 24.9947L23.2903 22.4336C23.7657 23.243 24.0157 24.1652 24.0144 25.1042L18.6631 24.9947Z" fill="white"/>
<path d="M18.6367 24.9866L21.3429 20.4766C22.1516 20.9377 22.8243 21.6045 23.2929 22.4094L18.6367 24.9866Z" fill="white"/>
<path d="M18.6904 25.0513V25.0352L23.2405 27.7573H23.2598C22.7845 28.5742 22.0988 29.2485 21.2744 29.7095V29.6902L18.6904 25.0513Z" fill="white"/>
<path d="M18.6082 24.9929H18.5889L18.6886 19.7774C19.6087 19.7747 20.5132 20.0147 21.3112 20.4732L18.6082 24.9929Z" fill="white"/>
<path d="M18.6856 25.0762L21.2599 29.7376V29.757C20.4733 30.198 19.587 30.4298 18.6856 30.4303H18.5762L18.6856 25.0762Z" fill="white"/>
<path d="M16.6172 31.7549C18.0749 31.6808 19.6548 31.6067 21.3442 31.5391C19.8399 32.1517 18.1709 32.2279 16.6172 31.7549Z" fill="#DEDFE0"/>
<path d="M18.6614 25.1001V25.084L18.5584 30.4091C17.6228 30.394 16.7083 30.1281 15.9102 29.6391L18.6614 25.1001Z" fill="white"/>
<path d="M18.5812 25.0162V25.0356L16.0713 20.4869C16.8683 20.0317 17.7698 19.7919 18.6874 19.791L18.5812 25.0162Z" fill="white"/>
<path d="M18.6329 25.1016L15.9041 29.6342C15.1201 29.142 14.4779 28.4535 14.041 27.6369L18.6329 25.1016Z" fill="white"/>
<path d="M18.6049 25.0979H18.6242L14.042 27.6396C13.6179 26.861 13.3966 25.988 13.3984 25.1011C13.3984 25.0657 13.3984 25.0335 13.3984 24.998L18.6049 25.0979Z" fill="white"/>
<path d="M18.5824 25.0728V25.0889L13.3984 24.9987C13.4123 24.08 13.6675 23.1812 14.1385 22.3926L18.5824 25.0728Z" fill="white"/>
<path d="M18.5761 25.0448L14.1387 22.3903C14.6088 21.6032 15.2738 20.9507 16.0694 20.4961L18.5761 25.0448Z" fill="white"/>
<path d="M10.308 14.5087C10.4013 14.5031 10.4941 14.5253 10.5748 14.5725C10.6555 14.6196 10.7204 14.6897 10.7614 14.7738C10.8024 14.8579 10.8175 14.9522 10.805 15.0449C10.7924 15.1376 10.7528 15.2245 10.6909 15.2947C9.79141 16.3435 8.73136 17.2427 7.55031 17.9589C5.33644 19.2249 1.13393 19.4826 1.13393 19.4826H1.03418C1.08147 18.6124 1.21513 17.7491 1.43319 16.9054C1.66166 16.7959 4.99856 15.1981 7.14165 14.7696C8.47061 14.4893 9.36196 14.5473 10.308 14.5087Z" fill="#DEDFE0"/>
<path d="M1.43377 16.8932C1.53056 16.5226 1.65755 16.1606 1.81348 15.8108C2.75309 13.6105 20.2775 9.39685 31.8134 10.0895C48.4979 -4.00768 73.6776 0.618349 93.3579 8.36276C96.3119 9.00706 100.901 8.89108 100.901 8.89108C100.823 10.0283 101.245 10.8948 101.711 11.8774C102.134 12.6925 102.451 13.5587 102.654 14.4546C102.771 15.0443 102.827 15.6445 102.822 16.2457C103.883 16.468 104.196 17.399 103.887 19.0194C103.398 21.2744 104.128 22.8851 103.372 24.0384C101.283 26.4352 90.9091 26.4803 90.9091 26.4803C91.7908 18.9292 86.6744 15.7367 82.3786 15.5853C77.9605 15.4242 73.4587 18.4846 73.0694 24.6054C73.0229 25.2628 73.0229 25.9227 73.0694 26.5802L27.2859 27.6271C27.4883 26.7463 27.5834 25.8442 27.5691 24.9404C27.3406 13.8038 8.941 10.6339 9.73902 27.4081C9.73902 27.4081 4.26869 27.5853 2.26076 27.0086C1.49169 26.0229 0.848124 22.6017 1.03154 19.4768C1.07883 18.6066 1.2125 17.7433 1.43055 16.8997" stroke="#644E77" stroke-width="1.5" stroke-linecap="round" stroke-linejoin="round"/>
<path d="M101.825 11.8457L101.706 11.8747C99.7915 12.345 96.667 12.2162 94.0895 11.8747C93.3913 13.6755 96.9598 14.6033 98.4658 14.6033C99.9717 14.6033 102.649 14.4712 102.649 14.4712" stroke="#644E77" stroke-width="1.125" stroke-linecap="round" stroke-linejoin="round"/>
<path d="M34.665 10.4768C34.665 10.4768 45.8084 4.08221 52.4597 3.3896C59.9251 2.62611 63.3811 2.7453 69.1925 3.85027C74.0933 4.59765 79.8854 8.21858 79.8854 8.21858L34.665 10.4768Z" stroke="#644E77" stroke-width="1.125" stroke-linecap="round" stroke-linejoin="round"/>
<path d="M56.9121 11.9966L60.0817 11.9805" stroke="#644E77" stroke-width="0.75" stroke-linecap="round" stroke-linejoin="round"/>
<path d="M62.9085 4.55664L62.0332 7.98428" stroke="#644E77" stroke-width="0.75" stroke-linecap="round" stroke-linejoin="round"/>
<path d="M62.5547 11.2988C62.9833 11.9143 63.2369 12.6347 63.2884 13.3831C63.3367 14.6524 62.9666 18.1058 61.85 20.596C60.5629 23.4695 59.25 24.6808 59.25 24.6808" stroke="#644E77" stroke-width="0.75" stroke-linecap="round" stroke-linejoin="round"/>
<path d="M27.5566 24.934H27.5792L73.0344 24.5957" stroke="#644E77" stroke-width="0.75" stroke-linecap="round" stroke-linejoin="round"/>
<path d="M30.9873 24.8824C30.9873 24.8824 31.8175 14.3966 33.5809 12.2285" stroke="#644E77" stroke-width="0.75" stroke-linecap="round" stroke-linejoin="round"/>
<path d="M1.42162 16.9004C1.65008 16.7908 4.98699 15.193 7.13007 14.7645C8.45582 14.4971 9.34716 14.5648 10.2932 14.5165C10.3865 14.5109 10.4793 14.5331 10.56 14.5803C10.6407 14.6275 10.7056 14.6975 10.7466 14.7816C10.7876 14.8657 10.8027 14.96 10.7902 15.0527C10.7777 15.1454 10.738 15.2324 10.6761 15.3025C9.77662 16.3513 8.71657 17.2505 7.53552 17.9667C5.32164 19.2327 1.11914 19.4904 1.11914 19.4904" stroke="#644E77" stroke-width="1.125" stroke-linecap="round" stroke-linejoin="round"/>
<path d="M16.6165 31.7566C14.869 31.2247 13.3945 30.0372 12.5012 28.4423C11.6079 26.8473 11.3649 24.9685 11.823 23.1984C12.2811 21.4283 13.4048 19.9039 14.9594 18.944C16.5139 17.984 18.3789 17.6627 20.1645 18.0471C21.9502 18.4316 23.5183 19.4922 24.5411 21.0072C25.5639 22.5221 25.9623 24.3742 25.6529 26.1763C25.3436 27.9785 24.3504 29.5911 22.8811 30.6773C21.4117 31.7635 19.5799 32.2391 17.7685 32.0047C17.3783 31.954 16.993 31.8711 16.6165 31.7566V31.7566Z" stroke="#644E77" stroke-width="1.125" stroke-linecap="round" stroke-linejoin="round"/>
<path d="M14.042 27.6394C13.6179 26.8608 13.3966 25.9877 13.3984 25.1009C13.3984 25.0654 13.3984 25.0332 13.3984 24.9978C13.4123 24.0791 13.6675 23.1802 14.1386 22.3916C14.6087 21.6055 15.2745 20.9548 16.0708 20.5031C16.8671 20.0514 17.7669 19.8141 18.6821 19.8145C20.0858 19.8145 21.432 20.3722 22.4251 21.3653C23.4182 22.3583 23.977 23.7053 23.9787 25.1105V25.1105C23.9787 26.5169 23.4207 27.8656 22.4274 28.86C21.4341 29.8544 20.0869 30.4131 18.6821 30.4131H18.5727C17.6371 30.398 16.7226 30.1321 15.9245 29.6432C15.1325 29.1518 14.4834 28.4608 14.042 27.6394V27.6394Z" stroke="#644E77" stroke-width="0.75" stroke-linecap="round" stroke-linejoin="round"/>
<path d="M18.583 30.4025L18.686 25.0774V25.0645V25.0355V25.0194V25.0098" stroke="#644E77" stroke-width="0.75" stroke-linecap="round" stroke-linejoin="round"/>
<path d="M15.917 29.6606L15.9363 29.6316L18.665 25.099L18.6747 25.0829L18.6876 25.0636L18.694 25.0507L18.7004 25.041" stroke="#644E77" stroke-width="0.75" stroke-linecap="round" stroke-linejoin="round"/>
<path d="M13.9736 27.6823L14.0412 27.6437L18.6331 25.1084L18.6459 25.1019L18.6717 25.0858L18.6846 25.0794L18.691 25.0762" stroke="#644E77" stroke-width="0.75" stroke-linecap="round" stroke-linejoin="round"/>
<path d="M13.2832 24.9941L13.399 24.9974L18.6055 25.0972H18.6248H18.6473H18.6634H18.6731" stroke="#644E77" stroke-width="0.75" stroke-linecap="round" stroke-linejoin="round"/>
<path d="M18.5947 25.084L18.6225 25.0994L18.6318 25.1056L18.6379 25.1087" stroke="#644E77" stroke-width="0.75" stroke-linecap="round" stroke-linejoin="round"/>
<path d="M14.0254 22.3223L14.138 22.3899L18.5819 25.0702L18.5947 25.0766" stroke="#644E77" stroke-width="0.75" stroke-linecap="round" stroke-linejoin="round"/>
<path d="M16.002 20.3867L16.0663 20.5027L18.5762 25.0514L18.5827 25.0643L18.5955 25.0836V25.0868L18.6052 25.1029L18.6084 25.1094" stroke="#644E77" stroke-width="0.75" stroke-linecap="round" stroke-linejoin="round"/>
<path d="M18.686 19.6914L18.6828 19.8042L18.583 25.0197V25.039V25.0616V25.0745V25.0874" stroke="#644E77" stroke-width="0.75" stroke-linecap="round" stroke-linejoin="round"/>
<path d="M21.3535 20.4375L21.3148 20.5019L18.6086 24.9991L18.6022 25.012L18.5829 25.041L18.5765 25.0506L18.5732 25.0571" stroke="#644E77" stroke-width="0.75" stroke-linecap="round" stroke-linejoin="round"/>
<path d="M23.2935 22.4121L23.2646 22.4282L18.6373 24.9893L18.6212 24.9957L18.6019 25.0086L18.5826 25.0183L18.5762 25.0215" stroke="#644E77" stroke-width="0.75" stroke-linecap="round" stroke-linejoin="round"/>
<path d="M23.9846 25.0972L18.6623 24.9941H18.6494H18.6205H18.6076H18.5947" stroke="#644E77" stroke-width="0.75" stroke-linecap="round" stroke-linejoin="round"/>
<path d="M18.6681 25.0052L18.6495 24.9928L18.6372 24.9867L18.6279 24.9805" stroke="#644E77" stroke-width="0.75" stroke-linecap="round" stroke-linejoin="round"/>
<path d="M23.2412 27.7732L18.6847 25.0221L18.6719 25.0156" stroke="#644E77" stroke-width="0.75" stroke-linecap="round" stroke-linejoin="round"/>
<path d="M21.2656 29.709L18.6914 25.0475L18.6849 25.0314L18.6721 25.0089L18.6688 25.0057L18.6624 24.9928L18.6592 24.9863" stroke="#644E77" stroke-width="0.75" stroke-linecap="round" stroke-linejoin="round"/>
<path d="M79.0015 31.3169C77.5449 30.5938 76.3794 29.3935 75.6985 27.9155C75.0176 26.4375 74.8624 24.7708 75.2587 23.1922C75.655 21.6137 76.5789 20.2184 77.8768 19.2383C79.1748 18.2582 80.7687 17.7522 82.3936 17.8045C84.0186 17.8567 85.5768 18.464 86.8092 19.5255C88.0417 20.587 88.8742 22.0387 89.1685 23.6395C89.4628 25.2402 89.2011 26.8936 88.4269 28.3248C87.6527 29.756 86.4126 30.8789 84.9127 31.507C83.9716 31.9026 82.9565 32.0904 81.9364 32.0576C80.9163 32.0248 79.9152 31.7721 79.0015 31.3169Z" stroke="#644E77" stroke-width="1.125" stroke-linecap="round" stroke-linejoin="round"/>
<path d="M77.5186 27.6394C77.0945 26.8608 76.8732 25.9877 76.875 25.1009C76.875 25.0654 76.875 25.0332 76.875 24.9978C76.8888 24.0791 77.1441 23.1802 77.6151 22.3916C78.0862 21.6063 78.7522 20.9563 79.5483 20.5047C80.3444 20.0532 81.2437 19.8154 82.1587 19.8145V19.8145C83.5623 19.8145 84.9086 20.3722 85.9017 21.3653C86.8948 22.3583 87.4536 23.7053 87.4553 25.1105V25.1105C87.4553 26.5169 86.8972 27.8656 85.9039 28.86C84.9106 29.8544 83.5634 30.4131 82.1587 30.4131H82.0493C81.1137 30.398 80.1992 30.1321 79.401 29.6432C78.6091 29.1518 77.9599 28.4608 77.5186 27.6394V27.6394Z" stroke="#644E77" stroke-width="0.75" stroke-linecap="round" stroke-linejoin="round"/>
<path d="M82.0576 30.4025L82.1606 25.0774V25.0645V25.0355V25.0194V25.0098" stroke="#644E77" stroke-width="0.75" stroke-linecap="round" stroke-linejoin="round"/>
<path d="M79.3896 29.6606L79.409 29.6316L82.1377 25.099L82.1473 25.0829L82.1602 25.0636L82.1666 25.0507L82.1731 25.041" stroke="#644E77" stroke-width="0.75" stroke-linecap="round" stroke-linejoin="round"/>
<path d="M77.4492 27.6823L77.5168 27.6437L82.1087 25.1084L82.1215 25.1019L82.1473 25.0858L82.1602 25.0794L82.1666 25.0762" stroke="#644E77" stroke-width="0.75" stroke-linecap="round" stroke-linejoin="round"/>
<path d="M76.7598 24.9941L76.8724 24.9974L82.0789 25.0972H82.0982H82.1207H82.1368H82.1464" stroke="#644E77" stroke-width="0.75" stroke-linecap="round" stroke-linejoin="round"/>
<path d="M82.0713 25.084L82.0991 25.0994L82.1083 25.1056L82.1145 25.1087" stroke="#644E77" stroke-width="0.75" stroke-linecap="round" stroke-linejoin="round"/>
<path d="M77.502 22.3223L77.6146 22.3899L82.0584 25.0702L82.0713 25.0766" stroke="#644E77" stroke-width="0.75" stroke-linecap="round" stroke-linejoin="round"/>
<path d="M79.4805 20.3867L79.5448 20.5027L82.0515 25.0514L82.058 25.0643L82.0708 25.0836V25.0868L82.0805 25.1029L82.0837 25.1094" stroke="#644E77" stroke-width="0.75" stroke-linecap="round" stroke-linejoin="round"/>
<path d="M82.1606 19.6914L82.1574 19.8042L82.0576 25.0197V25.039V25.0616V25.0745V25.0874" stroke="#644E77" stroke-width="0.75" stroke-linecap="round" stroke-linejoin="round"/>
<path d="M84.8261 20.4375L84.7875 20.5019L82.0813 24.9991L82.0749 25.012L82.0556 25.041L82.0491 25.0506L82.0459 25.0571" stroke="#644E77" stroke-width="0.75" stroke-linecap="round" stroke-linejoin="round"/>
<path d="M86.7681 22.4121L86.7392 22.4282L82.1119 24.9893L82.0958 24.9957L82.0765 25.0086L82.0572 25.0183L82.0508 25.0215" stroke="#644E77" stroke-width="0.75" stroke-linecap="round" stroke-linejoin="round"/>
<path d="M87.4612 25.0972L82.1389 24.9941H82.126H82.097H82.0842H82.0713" stroke="#644E77" stroke-width="0.75" stroke-linecap="round" stroke-linejoin="round"/>
<path d="M82.1417 25.0052L82.1232 24.9928L82.1108 24.9867L82.1016 24.9805" stroke="#644E77" stroke-width="0.75" stroke-linecap="round" stroke-linejoin="round"/>
<path d="M86.7168 27.7732L82.1603 25.0221L82.1475 25.0156" stroke="#644E77" stroke-width="0.75" stroke-linecap="round" stroke-linejoin="round"/>
<path d="M84.7412 29.709L82.1669 25.0475L82.1605 25.0314L82.1476 25.0089L82.1444 25.0057L82.138 24.9928L82.1348 24.9863" stroke="#644E77" stroke-width="0.75" stroke-linecap="round" stroke-linejoin="round"/>
<path d="M80.7812 14.6337H80.749C80.707 14.6293 80.6662 14.6166 80.6291 14.5964C80.5919 14.5762 80.5591 14.5488 80.5325 14.5159C80.5059 14.483 80.486 14.4452 80.4741 14.4046C80.4621 14.364 80.4582 14.3214 80.4627 14.2793C80.5373 13.5295 80.5373 12.7741 80.4627 12.0243C80.2776 11.2827 79.9929 10.5696 79.6164 9.90455C79.5747 9.83019 79.5641 9.74232 79.5871 9.66019C79.61 9.57807 79.6645 9.50839 79.7386 9.46643C79.7756 9.44527 79.8163 9.43163 79.8585 9.42633C79.9007 9.42103 79.9436 9.42416 79.9846 9.43555C80.0256 9.44693 80.0639 9.46634 80.0974 9.49266C80.1308 9.51897 80.1587 9.55167 80.1795 9.58885C80.2085 9.64361 80.9453 10.958 81.0966 11.9244C81.1813 12.7276 81.1813 13.5374 81.0966 14.3405C81.0894 14.4197 81.0533 14.4935 80.9951 14.5476C80.9368 14.6018 80.8607 14.6324 80.7812 14.6337Z" fill="#644E77"/>
</svg>
