<svg width="105" height="43" viewBox="0 0 105 43" fill="none" xmlns="http://www.w3.org/2000/svg">
<path d="M27.0525 31.5241C27.0536 32.3798 26.9218 33.2304 26.6618 34.0456C26.2951 35.1927 25.6826 36.2459 24.8669 37.1319C24.0513 38.0179 23.0522 38.7153 21.9394 39.1755C19.9355 39.2623 18.102 39.3558 16.4655 39.456C15.1733 39.0785 13.9926 38.3915 13.0259 37.4545C12.0593 36.5175 11.3358 35.3589 10.9182 34.079C10.5474 32.9419 10.4277 31.7378 10.5673 30.5499C10.7069 29.362 11.1026 28.2186 11.727 27.1984C12.3514 26.1783 13.1897 25.3057 14.184 24.6409C15.1783 23.9762 16.305 23.535 17.4864 23.3479C18.6677 23.1608 19.8756 23.2322 21.0267 23.5572C22.1778 23.8821 23.2446 24.4529 24.1537 25.2302C25.0628 26.0075 25.7925 26.9727 26.2924 28.0593C26.7922 29.1459 27.0505 30.328 27.0492 31.5241H27.0525ZM23.4155 31.5241C23.4155 30.6079 23.1439 29.7123 22.6349 28.9506C22.1259 28.1888 21.4024 27.5951 20.556 27.2445C19.7096 26.8939 18.7782 26.8021 17.8796 26.9809C16.981 27.1596 16.1556 27.6008 15.5078 28.2486C14.86 28.8964 14.4188 29.7218 14.2401 30.6204C14.0613 31.519 14.1531 32.4503 14.5037 33.2968C14.8543 34.1432 15.448 34.8667 16.2098 35.3757C16.9715 35.8847 17.8671 36.1563 18.7833 36.1563C20.0119 36.1563 21.1901 35.6683 22.0588 34.7996C22.9275 33.9309 23.4155 32.7526 23.4155 31.5241Z" fill="#DEDFE0"/>
<path d="M3.60368 22.8014C3.60368 22.8014 3.57029 20.694 4.02449 19.996C4.84273 18.7336 7.06032 17.8686 7.06032 17.8686L4.68242 17.8485C6.09848 17.7784 9.31132 17.6982 9.47831 18.3595C9.69539 19.2045 5.95153 23.0685 5.95153 23.0685H2.56836L2.69861 22.7346L3.60368 22.8014Z" fill="#DEDFE0"/>
<path d="M18.7817 36.157C21.34 36.157 23.4139 34.0831 23.4139 31.5248C23.4139 28.9665 21.34 26.8926 18.7817 26.8926C16.2233 26.8926 14.1494 28.9665 14.1494 31.5248C14.1494 34.0831 16.2233 36.157 18.7817 36.157Z" fill="white"/>
<path d="M87.1713 36.157C89.7296 36.157 91.8035 34.0831 91.8035 31.5248C91.8035 28.9665 89.7296 26.8926 87.1713 26.8926C84.613 26.8926 82.5391 28.9665 82.5391 31.5248C82.5391 34.0831 84.613 36.157 87.1713 36.157Z" fill="white"/>
<path d="M95.4287 31.2774C95.4287 31.3575 95.4287 31.441 95.4287 31.5245C95.429 33.1854 94.9293 34.8079 93.9947 36.1809C93.0601 37.5539 91.7339 38.6138 90.1886 39.2226C88.1647 39.1291 85.9471 39.0456 83.5659 38.9722C82.2737 38.3479 81.1663 37.3978 80.3529 36.2154C79.5395 35.0331 79.048 33.6592 78.927 32.2292C78.904 31.995 78.8929 31.7598 78.8936 31.5245C78.8903 29.3515 79.7428 27.2646 81.2667 25.7154C82.7905 24.1663 84.8631 23.2795 87.0359 23.247C89.2087 23.2145 91.3068 24.0389 92.8763 25.5418C94.4458 27.0447 95.3603 29.1052 95.422 31.2774H95.4287ZM91.8017 31.5245C91.8017 30.6083 91.53 29.7127 91.021 28.951C90.5121 28.1892 89.7886 27.5955 88.9422 27.2449C88.0957 26.8943 87.1644 26.8025 86.2658 26.9813C85.3672 27.16 84.5418 27.6012 83.894 28.249C83.2462 28.8969 82.805 29.7222 82.6263 30.6208C82.4475 31.5194 82.5393 32.4508 82.8899 33.2972C83.2405 34.1436 83.8342 34.8671 84.5959 35.3761C85.3577 35.8851 86.2533 36.1567 87.1695 36.1567C88.398 36.1567 89.5763 35.6687 90.445 34.8C91.3137 33.9313 91.8017 32.7531 91.8017 31.5245Z" fill="#DEDFE0"/>
<path d="M98.8277 19.1387C98.5583 19.1388 98.2956 19.0547 98.0763 18.8982H99.3454L99.0114 14.296L97.7891 14.3361C97.9098 14.2411 98.0566 14.1852 98.2099 14.1758C98.5171 14.1758 101.476 14.2459 101.476 14.2459L102.067 19.1053C102.067 19.1721 102.067 19.2088 102.067 19.2088C102.067 19.2088 99.3688 19.1387 98.8277 19.1387Z" fill="#DEDFE0"/>
<path d="M88.3767 4.58111C90.2336 5.04534 93.3596 7.58689 93.009 9.22003C92.6583 10.8532 84.6596 12.2258 83.484 12.1223L81.1462 12.3894C80.9057 11.314 80.6018 10.1485 80.2511 9.00962C79.4863 6.53486 78.6781 4.66794 77.9434 3.66602H80.2211C82.1548 3.6727 86.5165 4.11688 88.3767 4.58111Z" fill="white"/>
<path d="M60.9008 3.91406L59.1908 13.8699L56.7662 13.9868L40.9758 14.9152C40.9758 14.9152 36.367 15.2759 36.3302 13.9868C36.2234 10.2629 43.7278 7.99524 47.7455 6.30533C51.7632 4.61541 57.1836 4.06101 58.6765 3.97418L60.9008 3.91406Z" fill="white"/>
<path d="M75.9319 3.65331H77.9357C78.6705 4.65524 79.4787 6.52884 80.2435 8.99691C80.5942 10.1358 80.9115 11.3013 81.1386 12.3767L77.5917 12.7809C73.387 13.4989 60.893 13.7828 60.893 13.7828L59.1797 13.8663L60.8896 3.91047C64.9575 3.80026 73.3703 3.5932 75.9319 3.65331Z" fill="white"/>
<path d="M59.1896 13.8657L60.9029 13.7822C60.9029 13.7822 73.397 13.5117 77.6017 12.7803L81.1485 12.3762L83.4863 12.109C84.6486 12.2259 92.664 10.8332 93.0113 9.20677C93.3586 7.58031 90.236 5.03208 88.3791 4.56785C86.5222 4.10363 82.1571 3.65944 80.2267 3.65944H77.949H75.9452C73.3702 3.59932 64.9708 3.80639 60.9163 3.9166L58.6753 3.97004C57.1958 4.05687 51.7554 4.58789 47.751 6.28448C43.7466 7.98108 36.2289 10.2588 36.3357 13.9659C36.3725 15.2551 40.9813 14.8944 40.9813 14.8944L56.7783 13.9659L59.1896 13.8657ZM10.9169 34.0779C10.9169 34.0779 3.32896 34.0779 1.93294 29.6661C0.536929 25.2543 1.12139 24.0887 1.12139 24.0887L2.51406 23.1603L2.55748 23.0534H5.95735C5.95735 23.0534 9.70121 19.1893 9.48412 18.331C9.31714 17.663 6.10429 17.7499 4.68824 17.82L5.07231 16.8748C5.07231 16.8748 8.32523 15.1315 16.1102 14.0861C23.8952 13.0408 28.0732 13.0408 28.0732 13.0408C28.0732 13.0408 41.8964 4.56117 44.6851 3.86316C47.4738 3.16516 53.1681 1.79586 57.2292 1.52534C75.5978 0.366444 93.3587 2.80446 93.3587 2.80446C93.3587 2.80446 98.9327 7.21962 100.442 10.703C101.825 13.8958 102.039 18.3477 102.065 19.0791L101.474 14.2197C101.474 14.2197 98.5152 14.1496 98.208 14.1496C98.0546 14.159 97.9078 14.2149 97.7871 14.3099H97.6769V14.3934C97.6017 14.4592 97.5407 14.5396 97.4977 14.6298C97.4546 14.7199 97.4304 14.8179 97.4265 14.9177C97.4265 15.3452 97.6569 18.0838 97.7337 18.4245C97.7784 18.5801 97.8721 18.7172 98.0009 18.8152V18.8687H98.0844C98.3037 19.0252 98.5664 19.1093 98.8358 19.1091C99.3769 19.1091 102.089 19.196 102.089 19.196C102.262 19.4331 104.383 22.4155 103.939 24.7567C103.475 27.1947 101.601 30.2138 100.452 30.5645C99.4136 30.8751 96.1106 31.1857 95.4426 31.2324C95.381 29.0603 94.4664 26.9998 92.8969 25.4969C91.3275 23.994 89.2293 23.1696 87.0565 23.2021C84.8837 23.2346 82.8111 24.1214 81.2873 25.6705C79.7635 27.2197 78.9109 29.3066 78.9142 31.4796C78.9135 31.7149 78.9247 31.9501 78.9476 32.1843L26.6738 34.0011C27.0712 32.7597 27.1696 31.442 26.9608 30.1554C26.752 28.8688 26.2421 27.6498 25.4725 26.5978C24.703 25.5458 23.6957 24.6906 22.5327 24.1019C21.3698 23.5133 20.0842 23.2079 18.7808 23.2107C17.4774 23.2134 16.193 23.5243 15.0326 24.1178C13.8722 24.7114 12.8685 25.5709 12.1034 26.6261C11.3384 27.6814 10.8336 28.9026 10.6303 30.1901C10.427 31.4775 10.5309 32.7948 10.9336 34.0345L10.9169 34.0779Z" fill="white"/>
<path d="M99.0105 14.2988L99.3444 18.901H98.0853C98.0617 18.8851 98.0393 18.8672 98.0185 18.8476L97.6846 14.4257C97.7158 14.3931 97.7505 14.364 97.7881 14.3389L99.0105 14.2988Z" fill="#644E77"/>
<path d="M98.0847 18.8989H98.0215V18.8457C98.0411 18.8651 98.0622 18.8829 98.0847 18.8989Z" fill="#644E77"/>
<path d="M97.6758 14.3418H97.786C97.7484 14.3669 97.7137 14.396 97.6825 14.4286L97.6758 14.3418Z" fill="#644E77"/>
<path d="M90.1981 39.2188C98.5141 39.5962 103.627 40.1038 103.627 40.6716C103.627 41.8305 82.1092 42.7689 55.5649 42.7689C29.0205 42.7689 7.50586 41.8305 7.50586 40.6716C7.50586 40.214 10.8189 39.7966 16.4497 39.4526C18.2532 39.9841 20.1839 39.8851 21.9236 39.172C30.6069 38.8013 42.4664 38.5742 55.5649 38.5742C66.0183 38.5742 75.6902 38.7178 83.5754 38.9683C84.6027 39.4632 85.7211 39.7408 86.8606 39.7839C88.0001 39.827 89.1363 39.6346 90.1981 39.2188Z" fill="#DEDFE0"/>
<path d="M83.5732 38.9707C85.9545 39.0442 88.1721 39.1277 90.196 39.2212C89.1342 39.637 87.998 39.8294 86.8585 39.7863C85.719 39.7432 84.6006 39.4656 83.5732 38.9707Z" fill="#DEDFE0"/>
<path d="M16.4482 39.4544C18.0847 39.3542 19.9182 39.2607 21.9221 39.1738C20.1824 39.8869 18.2517 39.9859 16.4482 39.4544Z" fill="#DEDFE0"/>
<path d="M4.02397 19.999C3.56976 20.697 3.60316 22.8044 3.60316 22.8044L2.69141 22.7376L4.69526 17.8516L7.07316 17.8716C7.07316 17.8716 4.84221 18.7299 4.02397 19.999Z" fill="#644E77"/>
<path d="M2.66992 22.7285C2.66992 22.7285 2.68996 20.3673 2.9037 19.7227C3.11745 19.0781 4.0459 18.0161 4.17281 17.8691H4.39323H4.68379L2.67994 22.7552L2.66992 22.7285Z" fill="#644E77"/>
<path d="M18.7817 36.157C21.34 36.157 23.4139 34.0831 23.4139 31.5248C23.4139 28.9665 21.34 26.8926 18.7817 26.8926C16.2233 26.8926 14.1494 28.9665 14.1494 31.5248C14.1494 34.0831 16.2233 36.157 18.7817 36.157Z" stroke="#644E77" stroke-width="0.800781" stroke-miterlimit="10"/>
<path d="M87.1713 36.157C89.7296 36.157 91.8035 34.0831 91.8035 31.5248C91.8035 28.9665 89.7296 26.8926 87.1713 26.8926C84.613 26.8926 82.5391 28.9665 82.5391 31.5248C82.5391 34.0831 84.613 36.157 87.1713 36.157Z" stroke="#644E77" stroke-width="0.800781" stroke-miterlimit="10"/>
<path d="M26.657 34.0438C26.1236 35.7132 25.0732 37.1697 23.6575 38.2029C22.2419 39.2361 20.5344 39.7924 18.7819 39.7915C17.9905 39.794 17.203 39.6815 16.444 39.4575C15.1551 39.0769 13.9783 38.3881 13.0152 37.4507C12.0522 36.5132 11.3319 35.3554 10.9167 34.0772C10.5161 32.8383 10.4137 31.5224 10.618 30.2365C10.8223 28.9506 11.3275 27.7311 12.0924 26.6775C12.8573 25.6238 13.8603 24.7658 15.0196 24.1732C16.179 23.5807 17.462 23.2704 18.764 23.2676C20.066 23.2648 21.3502 23.5697 22.5121 24.1573C23.674 24.745 24.6806 25.5987 25.45 26.6491C26.2193 27.6995 26.7297 28.9168 26.9394 30.2018C27.1492 31.4868 27.0524 32.8032 26.657 34.0438Z" stroke="#644E77" stroke-width="1.60156" stroke-miterlimit="10"/>
<path d="M95.4298 31.2774C95.3681 29.1052 94.4536 27.0447 92.8841 25.5418C91.3146 24.0389 89.2165 23.2145 87.0437 23.247C84.8709 23.2795 82.7983 24.1663 81.2745 25.7154C79.7506 27.2646 78.8981 29.3515 78.9014 31.5245C78.9007 31.7598 78.9119 31.995 78.9348 32.2292C79.1164 34.3527 80.1112 36.324 81.7115 37.7316C83.3118 39.1392 85.394 39.8742 87.5233 39.7833C89.6526 39.6923 91.6645 38.7825 93.139 37.2436C94.6135 35.7047 95.4366 33.6558 95.4365 31.5245C95.4365 31.441 95.4365 31.3575 95.4298 31.2774Z" stroke="#644E77" stroke-width="1.60156" stroke-miterlimit="10"/>
<path d="M79.1457 32.2227L78.9353 32.2293L26.6615 34.0462H26.6582" stroke="#644E77" stroke-width="1.60156" stroke-miterlimit="10"/>
<path d="M2.69246 22.7363L2.56221 23.0703L2.51879 23.1772L1.12611 24.1056C1.12611 24.1056 0.544996 25.2679 1.93767 29.683C3.33035 34.0982 10.9183 34.0815 10.9183 34.0815" stroke="#644E77" stroke-width="1.60156" stroke-miterlimit="10"/>
<path d="M102.093 19.2178C102.093 19.2178 102.093 19.181 102.093 19.1142C102.066 18.3828 101.852 13.9309 100.47 10.7381C98.9602 7.25477 93.3861 2.83962 93.3861 2.83962C93.3861 2.83962 75.612 0.401601 57.2567 1.56049C53.1956 1.81766 47.5013 3.18695 44.7126 3.89832C41.9239 4.60969 28.1007 13.076 28.1007 13.076C28.1007 13.076 23.9193 13.076 16.1377 14.1213C8.35605 15.1666 5.11649 16.91 5.11649 16.91L4.73242 17.8551" stroke="#644E77" stroke-width="1.60156" stroke-miterlimit="10"/>
<path d="M95.3066 31.2904H95.4302C96.0982 31.2303 99.4045 30.9197 100.44 30.6224C101.602 30.2717 103.462 27.2526 103.927 24.8146C104.371 22.4768 102.257 19.491 102.076 19.2539" stroke="#644E77" stroke-width="1.60156" stroke-miterlimit="10"/>
<path d="M77.9435 12.7308L77.6096 12.7942C73.4048 13.5123 60.9108 13.7961 60.9108 13.7961L59.1975 13.8796L56.7729 13.9965L40.9758 14.9116C40.9758 14.9116 36.367 15.2723 36.3302 13.9832C36.2234 10.2593 43.7278 7.99165 47.7455 6.30174C51.7632 4.61182 57.1836 4.05742 58.6765 3.97059L60.9141 3.91047C64.9719 3.80026 73.3714 3.5932 75.943 3.65331C76.1501 3.65331 76.3171 3.65331 76.444 3.65331" stroke="#644E77" stroke-width="1.20117" stroke-miterlimit="10"/>
<path d="M77.6028 12.7908L81.1496 12.3867L83.4875 12.1195C84.6497 12.2364 92.6651 10.8437 93.0124 9.21725C93.3598 7.59079 90.2371 5.04256 88.3802 4.57833C86.5233 4.11411 82.1582 3.66992 80.2279 3.66992H77.9501H75.9463" stroke="#644E77" stroke-width="1.20117" stroke-miterlimit="10"/>
<path d="M86.0635 19.7207C76.8558 20.2283 75.7103 28.4842 75.7103 28.4842C74.9054 28.6846 33.8398 30.6884 33.8398 30.6884" stroke="#644E77" stroke-width="0.800781" stroke-miterlimit="10"/>
<path d="M58.7082 27.9307C58.3342 25.6898 57.89 22.7975 57.8499 21.4249C57.7914 18.9512 58.2274 16.4907 59.1324 14.1877L59.1892 13.8537L60.8991 3.89789L60.9158 3.79102" stroke="#644E77" stroke-width="0.800781" stroke-miterlimit="10"/>
<path d="M81.1491 12.3894C80.9086 11.314 80.6047 10.1485 80.254 9.00962C79.4892 6.53486 78.681 4.66794 77.9463 3.66602" stroke="#644E77" stroke-width="0.800781" stroke-miterlimit="10"/>
<path d="M50.293 18.8159L55.5631 18.168" stroke="#644E77" stroke-width="0.800781" stroke-miterlimit="10"/>
<path d="M73.8818 15.8906L78.9015 15.3496" stroke="#644E77" stroke-width="0.800781" stroke-miterlimit="10"/>
<path d="M102.067 19.1053L101.476 14.2459C101.476 14.2459 98.5167 14.1758 98.2094 14.1758C98.0561 14.1852 97.9093 14.2411 97.7886 14.3361C97.751 14.3612 97.7163 14.3903 97.6851 14.4229C97.6098 14.4887 97.5488 14.5691 97.5058 14.6593C97.4627 14.7494 97.4385 14.8474 97.4346 14.9473C97.4346 15.3748 97.665 18.1134 97.7418 18.454C97.7865 18.6096 97.8802 18.7467 98.009 18.8448C98.0298 18.8644 98.0521 18.8822 98.0758 18.8982C98.2951 19.0547 98.5578 19.1388 98.8273 19.1387C99.3683 19.1387 102.08 19.2255 102.08 19.2255L102.067 19.1053Z" stroke="#644E77" stroke-width="1.60156" stroke-miterlimit="10"/>
<path d="M2.56975 23.0521H5.9596C5.9596 23.0521 9.70346 19.188 9.48638 18.3297C9.31939 17.6617 6.10655 17.7485 4.69049 17.8187H4.42331H4.39325H4.17283H4.02922C4.02922 17.8187 2.67328 19.0945 2.45954 20.0396C2.28041 21.0189 2.28041 22.0226 2.45954 23.002L2.56975 23.0521Z" stroke="#644E77" stroke-width="1.60156" stroke-miterlimit="10"/>
<path d="M81.9318 19.1513C81.8508 19.1521 81.7722 19.1234 81.7108 19.0706C81.6493 19.0177 81.6092 18.9443 81.5978 18.8641L80.8197 13.3234C80.8073 13.2349 80.8306 13.145 80.8844 13.0736C80.9383 13.0022 81.0183 12.9551 81.1069 12.9427C81.1955 12.9303 81.2853 12.9536 81.3567 13.0075C81.4281 13.0613 81.4752 13.1414 81.4876 13.2299L82.2658 18.7572C82.2782 18.8449 82.2552 18.9339 82.202 19.0047C82.1488 19.0755 82.0696 19.1222 81.9819 19.1346L81.9318 19.1513Z" fill="#644E77"/>
</svg>
