<svg width="105" height="42" viewBox="0 0 105 42" fill="none" xmlns="http://www.w3.org/2000/svg">
<path d="M2.36098 20.3691C5.93707 18.6063 9.86574 17.6997 13.8951 17.75C12.0819 20.3691 6.99479 23.0386 6.99479 23.0386C6.99479 23.0386 5.2823 21.6283 3.82164 21.3261C2.41135 21.0239 1.65584 21.2758 1.60547 21.3261C1.80694 20.9736 2.05878 20.621 2.36098 20.3691Z" fill="#DEDFE0"/>
<path d="M20.9977 22.9395C25.3797 22.9395 28.9558 26.6163 28.9558 31.1494C28.9558 34.121 27.3944 36.8409 24.876 38.3015C22.2569 38.3519 19.7889 38.4527 17.5727 38.5534C14.7521 37.1431 12.9893 34.2721 12.9893 31.1494C13.0396 26.6163 16.6157 22.9395 20.9977 22.9395ZM26.0344 34.121C27.0922 32.2574 27.0922 29.9909 26.0344 28.1777C25.5308 27.2711 24.7753 26.5155 23.919 26.0119C22.1561 24.9542 19.8896 24.9542 18.1267 26.0119C17.2201 26.5659 16.515 27.2711 16.0113 28.1777C14.9536 30.0413 14.9536 32.3078 16.0113 34.121C16.515 35.0277 17.2705 35.7832 18.1267 36.2868C19.8896 37.3446 22.1561 37.3446 23.919 36.2868C24.7753 35.7832 25.5308 35.0277 26.0344 34.121Z" fill="#DEDFE0"/>
<path d="M26.0338 28.1795L20.9971 31.1512L23.868 26.0137C24.7746 26.5173 25.5301 27.2729 26.0338 28.1795Z" fill="white"/>
<path d="M26.7893 31.1514H20.9971L26.0338 28.1797C26.5375 29.0863 26.7893 30.0937 26.7893 31.1514Z" fill="white"/>
<path d="M26.7893 31.1504C26.7893 32.2081 26.5375 33.2155 26.0338 34.1221L20.9971 31.1504H26.7893Z" fill="white"/>
<path d="M20.9971 31.1504L26.0338 34.1221C25.5301 35.0287 24.7746 35.7842 23.9184 36.2879L20.9971 31.1504Z" fill="white"/>
<path d="M20.9971 31.1504L23.868 36.2879C23.0118 36.7916 22.0044 37.0938 20.9971 37.0938V31.1504Z" fill="white"/>
<path d="M20.9969 31.1504V37.0938C19.9896 37.0938 18.9822 36.8419 18.126 36.2879L20.9969 31.1504Z" fill="white"/>
<path d="M20.9981 31.1504L18.1272 36.2879C17.2205 35.7842 16.5154 35.0287 16.0117 34.1221L20.9981 31.1504Z" fill="white"/>
<path d="M20.9964 31.1504L15.9596 34.1221C15.4559 33.2155 15.2041 32.2081 15.2041 31.1504H20.9964Z" fill="white"/>
<path d="M20.9964 31.1514H15.2041C15.2041 30.0937 15.4559 29.0863 15.9596 28.1797L20.9964 31.1514Z" fill="white"/>
<path d="M18.1258 26.0137L20.9967 31.1512L15.96 28.1795C16.4636 27.2729 17.2191 26.5173 18.1258 26.0137Z" fill="white"/>
<path d="M20.9969 25.209V31.1524L18.126 26.0149C18.9822 25.4608 19.9896 25.209 20.9969 25.209Z" fill="white"/>
<path d="M23.9184 26.0149L20.9971 31.1524V25.209C22.0044 25.209 23.0118 25.4608 23.9184 26.0149Z" fill="white"/>
<path d="M92.9221 31.1514H87.1299L92.1666 28.1797C92.6703 29.0863 92.9725 30.0937 92.9221 31.1514Z" fill="white"/>
<path d="M92.9221 31.1504C92.9221 32.2081 92.6703 33.2155 92.1666 34.1221L87.1299 31.1504H92.9221Z" fill="white"/>
<path d="M87.1797 31.1504L92.2164 34.1221C91.7128 35.0287 91.0076 35.7842 90.101 36.2879L87.1797 31.1504Z" fill="white"/>
<path d="M87.1815 31.1504V37.0938C86.1741 37.0938 85.1668 36.8419 84.3105 36.2879L87.1815 31.1504Z" fill="white"/>
<path d="M87.1797 31.1504L84.3088 36.2879C83.4022 35.7338 82.697 35.0287 82.1934 34.1221L87.1797 31.1504Z" fill="white"/>
<path d="M87.1809 31.1504L82.1442 34.1221C81.6405 33.2155 81.3887 32.2081 81.3887 31.1504H87.1809Z" fill="white"/>
<path d="M87.1809 31.1514H81.3887C81.3887 30.0937 81.6405 29.0863 82.1442 28.1797L87.1809 31.1514Z" fill="white"/>
<path d="M87.1813 31.1512L82.1445 28.1795C82.6482 27.2729 83.4037 26.5173 84.26 26.0137L87.1813 31.1512Z" fill="white"/>
<path d="M87.1815 25.209V31.1524L84.3105 26.0149C85.1668 25.4608 86.1238 25.209 87.1815 25.209Z" fill="white"/>
<path d="M90.0506 26.0149L87.1797 31.1524V25.209C88.187 25.209 89.1944 25.4608 90.0506 26.0149Z" fill="white"/>
<path d="M92.1666 28.1795L87.1299 31.1512L90.0008 26.0137C90.9578 26.5173 91.663 27.2729 92.1666 28.1795Z" fill="white"/>
<path d="M87.1807 22.9395C91.5627 22.9395 95.1388 26.6163 95.1388 31.1494C95.1388 34.3729 93.3256 37.2942 90.4042 38.6541C88.2888 38.5534 85.9215 38.4526 83.4032 38.4023C80.784 36.9416 79.2227 34.1714 79.2227 31.1997C79.2227 26.6163 82.7484 22.9395 87.1807 22.9395ZM92.1671 34.121C93.2248 32.2574 93.2248 29.9909 92.1671 28.1777C91.6634 27.2711 90.9583 26.5155 90.0517 26.0119C88.2888 24.9542 86.0223 24.9542 84.2594 26.0119C83.3528 26.5659 82.6476 27.2711 82.144 28.1777C81.1366 30.0413 81.1366 32.3078 82.144 34.121C82.6476 35.0277 83.4032 35.7832 84.2594 36.2868C86.0223 37.3446 88.2888 37.3446 90.0517 36.2868C90.9583 35.7832 91.6634 35.0277 92.1671 34.121Z" fill="#DEDFE0"/>
<path d="M100.981 12.6661H95.642C95.642 12.6661 95.7427 11.8602 94.5842 11.0543C92.771 9.6944 84.5107 4.00287 84.5107 4.00287L86.2232 1.73633C87.3817 1.83706 88.1372 1.88743 88.3387 1.9378C89.7993 2.24 89.0942 3.85176 89.0942 3.85176C89.0942 3.85176 97.6567 10.9536 99.9736 11.9106C100.427 12.0617 100.729 12.3135 100.981 12.6661Z" fill="white"/>
<path d="M100.981 12.666C101.837 13.9252 101.333 15.9399 101.233 16.8465C101.233 16.8465 99.8224 17.0984 97.304 16.645C95.7426 16.2925 94.3323 15.2851 93.5264 13.9252C93.2746 13.5223 93.4257 13.069 93.7783 12.8171C93.879 12.7668 94.0301 12.7164 94.1812 12.7164H100.981V12.666Z" fill="#DEDFE0"/>
<path d="M76.2507 3.39766C80.0282 4.30427 83.554 9.24029 83.554 9.24029C83.554 9.24029 79.3231 11.5572 72.8761 11.9098C66.429 12.2623 42.5044 13.6726 39.3817 13.9245C36.2589 14.1763 32.5317 14.4281 30.9199 12.8164C30.9199 12.8164 44.0658 5.51309 50.0092 3.90133C55.9526 2.28957 72.4731 2.44068 76.2507 3.39766Z" fill="white"/>
<path d="M60.2336 30.8486L30.9197 31.1508C30.9197 25.5097 26.4874 20.9262 20.9973 20.9262C15.5073 20.9262 11.0749 25.5097 11.0749 31.1508C11.0749 32.2589 11.226 33.367 11.5786 34.4247C10.3698 34.4247 5.63523 34.3744 3.62053 34.0722C1.30362 33.6692 1.15252 32.813 1.15252 32.3093C1.15252 31.8056 2.46207 30.7479 2.2606 29.8916C2.2606 29.8916 0.951049 26.0637 1.00142 22.9409C1.05178 22.3365 1.25325 21.7825 1.55546 21.2788C1.60583 21.2788 2.36134 21.027 3.77163 21.2788C5.23229 21.581 6.94478 22.9913 6.94478 22.9913C6.94478 22.9913 12.0823 20.3218 13.8451 17.7027C9.91646 17.6523 5.93743 18.559 2.36134 20.3722C4.42641 18.2064 8.45581 16.3932 10.8734 15.688C14.1977 14.731 26.0341 13.0185 27.2429 12.4141C28.5021 11.8097 40.5903 3.85164 51.2178 1.78657C60.3343 0.42665 79.7258 1.2829 86.2233 1.73621L84.5108 4.00274C84.5108 4.00274 92.771 9.64391 94.5843 11.0542C95.7427 11.8601 95.642 12.666 95.642 12.666H94.1813C93.728 12.666 93.3754 13.0185 93.3754 13.4718C93.3754 13.6229 93.4258 13.774 93.4762 13.8748C94.282 15.2851 95.6923 16.2421 97.2537 16.645C99.8225 17.1487 101.182 16.8465 101.182 16.8465C101.182 16.9472 101.182 17.0479 101.182 17.1487C101.283 18.0049 102.29 19.7174 103.499 21.3795C104.708 22.9913 103.348 30.5464 103.348 30.5464C101.283 31.1508 99.1677 31.6041 97.0019 31.9063C97.0019 31.6545 97.0523 31.4027 97.0523 31.2012C97.0523 25.56 92.6199 20.9766 87.1299 20.9766C81.7909 20.9766 77.4593 25.2578 77.2075 30.6975L60.2336 30.8486ZM83.5538 9.24097C83.5538 9.24097 80.028 4.30495 76.2505 3.39833C72.4729 2.49172 55.902 2.34062 50.009 3.90201C44.116 5.4634 30.9197 12.8171 30.9197 12.8171C32.5315 14.3785 36.309 14.1266 39.3815 13.9251C42.4539 13.7237 66.4288 12.263 72.8759 11.9104C79.3229 11.5579 83.5538 9.24097 83.5538 9.24097Z" fill="white"/>
<path d="M90.4027 38.6544C97.7564 39.0069 102.138 39.4099 102.138 39.9136C102.138 40.9713 80.1781 41.8779 53.0804 41.8779C25.9827 41.8779 4.02246 40.9713 4.02246 39.9136C4.02246 39.4099 9.15995 38.9062 17.5713 38.5536C19.8882 39.6617 22.6081 39.6113 24.8746 38.3018C32.8327 38.1003 42.604 37.9492 53.0804 37.9492C64.5138 37.9492 75.0406 38.1003 83.3513 38.3522C85.5675 39.561 88.1362 39.6617 90.4027 38.6544Z" fill="#DEDFE0"/>
<path d="M83.4023 38.4023C85.9711 38.5031 88.288 38.5534 90.4034 38.6542C88.1369 39.6615 85.5681 39.5608 83.4023 38.4023Z" fill="#DEDFE0"/>
<path d="M24.8765 38.3027C22.6604 39.6123 19.8901 39.6627 17.5732 38.5546C19.7894 38.4538 22.2574 38.4035 24.8765 38.3027Z" fill="#DEDFE0"/>
<path d="M30.9199 12.8164C30.9199 12.8164 44.0658 5.51311 50.0092 3.90135C55.9526 2.28959 72.4731 2.44069 76.2507 3.34731C80.0282 4.25392 83.554 9.18994 83.554 9.18994C83.554 9.18994 79.3231 11.5068 72.8761 11.8594C66.429 12.212 42.5044 13.6223 39.3817 13.8741C36.2589 14.126 32.5317 14.3778 30.9199 12.8164Z" stroke="#644E77" stroke-width="1.32522" stroke-linecap="round" stroke-linejoin="round"/>
<path d="M2.36098 20.3691C5.93707 18.6063 9.86574 17.6997 13.8951 17.75C12.0819 20.3691 6.99479 23.0386 6.99479 23.0386C6.99479 23.0386 5.2823 21.6283 3.82164 21.3261C2.41135 21.0239 1.65584 21.2758 1.60547 21.3261" stroke="#644E77" stroke-width="1.32522" stroke-linecap="round" stroke-linejoin="round"/>
<path d="M17.5727 38.5534C14.7521 37.1431 12.9893 34.2721 12.9893 31.1494C12.9893 26.6163 16.5654 22.9395 20.9473 22.9395C25.3293 22.9395 28.9054 26.6163 28.9054 31.1494C28.9054 34.121 27.344 36.8409 24.8256 38.3015C22.6598 39.6111 19.8896 39.7118 17.5727 38.5534Z" stroke="#644E77" stroke-width="1.32522" stroke-linecap="round" stroke-linejoin="round"/>
<path d="M26.7887 31.1495C26.7887 32.2072 26.5369 33.2146 26.0332 34.1212C25.5295 35.0278 24.774 35.7833 23.9178 36.287C22.1549 37.3447 19.8884 37.3447 18.1255 36.287C17.2189 35.7833 16.5138 35.0278 16.0101 34.1212C14.9524 32.2576 14.9524 29.9911 16.0101 28.1778C16.5138 27.2712 17.2693 26.5157 18.1255 26.012C19.8884 24.9543 22.1549 24.9543 23.9178 26.012C24.8244 26.5661 25.5295 27.2712 26.0332 28.1778C26.5369 29.0845 26.7887 30.0918 26.7887 31.1495Z" stroke="#644E77" stroke-width="0.883501" stroke-linecap="round" stroke-linejoin="round"/>
<path d="M20.9971 31.1504V37.0938" stroke="#644E77" stroke-width="0.883501" stroke-linecap="round" stroke-linejoin="round"/>
<path d="M20.9971 25.209V31.1524" stroke="#644E77" stroke-width="0.883501" stroke-linecap="round" stroke-linejoin="round"/>
<path d="M20.9969 31.1504L18.126 36.3382" stroke="#644E77" stroke-width="0.883501" stroke-linecap="round" stroke-linejoin="round"/>
<path d="M23.9184 26.0137L20.9971 31.1512" stroke="#644E77" stroke-width="0.883501" stroke-linecap="round" stroke-linejoin="round"/>
<path d="M20.9981 31.1504L16.0117 34.1221" stroke="#644E77" stroke-width="0.883501" stroke-linecap="round" stroke-linejoin="round"/>
<path d="M26.0338 28.1797L20.9971 31.1514" stroke="#644E77" stroke-width="0.883501" stroke-linecap="round" stroke-linejoin="round"/>
<path d="M20.9964 31.1504H15.2041" stroke="#644E77" stroke-width="0.883501" stroke-linecap="round" stroke-linejoin="round"/>
<path d="M26.7893 31.1504H20.9971" stroke="#644E77" stroke-width="0.883501" stroke-linecap="round" stroke-linejoin="round"/>
<path d="M20.9981 31.1514L16.0117 28.1797" stroke="#644E77" stroke-width="0.883501" stroke-linecap="round" stroke-linejoin="round"/>
<path d="M26.0338 34.1221L20.9971 31.1504" stroke="#644E77" stroke-width="0.883501" stroke-linecap="round" stroke-linejoin="round"/>
<path d="M23.9182 36.339L20.9969 31.1512L18.126 26.0137" stroke="#644E77" stroke-width="0.883501" stroke-linecap="round" stroke-linejoin="round"/>
<path d="M11.5796 34.4243C10.3707 34.4243 5.6362 34.3739 3.6215 34.0717C1.3046 33.6688 1.1535 32.8125 1.1535 32.3089C1.1535 31.8052 2.46305 30.7475 2.26158 29.8912C2.26158 29.8912 0.952026 26.0633 1.00239 22.9405C1.05276 22.3361 1.25423 21.7821 1.55644 21.2784C1.75791 20.9258 2.06011 20.6236 2.31195 20.3214C4.42738 18.1556 8.40642 16.3424 10.8241 15.6372C14.1483 14.6802 25.9847 12.9677 27.1935 12.3633C28.4527 11.7589 40.5409 3.80086 51.1684 1.73579C60.285 0.375869 79.6764 1.23212 86.1739 1.68542C87.3323 1.78616 88.0878 1.83653 88.2893 1.88689C89.75 2.1891 89.0448 3.80086 89.0448 3.80086C89.0448 3.80086 97.6073 10.9027 99.9242 11.8597C100.327 12.0108 100.629 12.2626 100.881 12.6152C101.737 13.8744 101.234 15.8891 101.133 16.7957C101.133 16.8964 101.133 16.9971 101.133 17.0979C101.234 17.9541 102.241 19.6666 103.45 21.3288C104.659 22.9405 103.299 30.4956 103.299 30.4956C101.234 31.1 99.1183 31.5534 96.9525 31.8556" stroke="#644E77" stroke-width="1.767" stroke-linecap="round" stroke-linejoin="round"/>
<path d="M77.509 33.5684L30.4153 34.4246H30.2139" stroke="#644E77" stroke-width="1.767" stroke-linecap="round" stroke-linejoin="round"/>
<path d="M30.4163 34.4262C30.7689 33.3685 30.9704 32.2604 30.92 31.1523C30.92 25.5112 26.4877 20.9277 20.9976 20.9277C15.5075 20.9277 11.0752 25.5112 11.0752 31.1523C11.0752 32.2604 11.2263 33.3685 11.5789 34.4262" stroke="#644E77" stroke-width="1.767" stroke-linecap="round" stroke-linejoin="round"/>
<path d="M97.0532 31.8575C97.0532 31.6056 97.1036 31.3538 97.1036 31.1523C97.1036 25.5112 92.6712 20.9277 87.1812 20.9277C81.8422 20.9277 77.5106 25.209 77.2588 30.6487C77.2588 30.7998 77.2588 31.0012 77.2588 31.1523C77.2588 31.9582 77.3595 32.7641 77.561 33.57" stroke="#644E77" stroke-width="1.767" stroke-linecap="round" stroke-linejoin="round"/>
<path d="M83.4032 38.4023C80.784 36.9416 79.2227 34.1714 79.2227 31.1494C79.2227 26.6163 82.7987 22.9395 87.1807 22.9395C91.5627 22.9395 95.1388 26.6163 95.1388 31.1494C95.1388 34.3729 93.3256 37.2942 90.4042 38.6541C88.1377 39.6615 85.569 39.5607 83.4032 38.4023Z" stroke="#644E77" stroke-width="1.32522" stroke-linecap="round" stroke-linejoin="round"/>
<path d="M92.9228 31.1495C92.9228 32.2072 92.671 33.2146 92.1673 34.1212C91.6636 35.0278 90.9585 35.7833 90.0519 36.287C88.289 37.3447 86.0225 37.3447 84.2596 36.287C83.353 35.733 82.6479 35.0278 82.1442 34.1212C81.1368 32.2576 81.1368 29.9911 82.1442 28.1778C82.6479 27.2712 83.4034 26.5157 84.2596 26.012C86.0225 24.9543 88.289 24.9543 90.0519 26.012C90.9585 26.5661 91.6636 27.2712 92.1673 28.1778C92.671 29.0845 92.9228 30.0918 92.9228 31.1495Z" stroke="#644E77" stroke-width="0.883501" stroke-linecap="round" stroke-linejoin="round"/>
<path d="M87.1797 31.1504V37.0938" stroke="#644E77" stroke-width="0.883501" stroke-linecap="round" stroke-linejoin="round"/>
<path d="M87.1797 25.209V31.1524" stroke="#644E77" stroke-width="0.883501" stroke-linecap="round" stroke-linejoin="round"/>
<path d="M87.1801 31.1504L84.2588 36.3382" stroke="#644E77" stroke-width="0.883501" stroke-linecap="round" stroke-linejoin="round"/>
<path d="M90.0506 26.0137L87.1797 31.1512" stroke="#644E77" stroke-width="0.883501" stroke-linecap="round" stroke-linejoin="round"/>
<path d="M87.1813 31.1504L82.1445 34.1221" stroke="#644E77" stroke-width="0.883501" stroke-linecap="round" stroke-linejoin="round"/>
<path d="M92.1661 28.1797L87.1797 31.1514" stroke="#644E77" stroke-width="0.883501" stroke-linecap="round" stroke-linejoin="round"/>
<path d="M87.1809 31.1504H81.3887" stroke="#644E77" stroke-width="0.883501" stroke-linecap="round" stroke-linejoin="round"/>
<path d="M92.9719 31.1504H87.1797" stroke="#644E77" stroke-width="0.883501" stroke-linecap="round" stroke-linejoin="round"/>
<path d="M92.1677 34.1231L87.1813 31.1514L82.1445 28.1797" stroke="#644E77" stroke-width="0.883501" stroke-linecap="round" stroke-linejoin="round"/>
<path d="M90.0511 36.339L87.1801 31.1512L84.2588 26.0137" stroke="#644E77" stroke-width="0.883501" stroke-linecap="round" stroke-linejoin="round"/>
<path d="M30.9199 31.1502L60.2338 30.848L77.258 30.6465H77.5099" stroke="#644E77" stroke-width="0.883501" stroke-linecap="round" stroke-linejoin="round"/>
<path d="M30.215 14.8809C30.215 14.8809 30.1142 22.7382 30.9201 24.7025" stroke="#644E77" stroke-width="0.883501" stroke-linecap="round" stroke-linejoin="round"/>
<path d="M60.2345 14.8809C60.2345 14.8809 59.5294 19.7665 59.5797 22.9397C59.6301 26.0624 60.2345 30.8474 60.2345 30.8474" stroke="#644E77" stroke-width="0.883501" stroke-linecap="round" stroke-linejoin="round"/>
<path d="M84.259 11.2559C84.259 11.2559 84.5612 12.2128 83.5538 15.1342C82.7983 17.1489 81.8917 19.1132 80.834 20.9768" stroke="#644E77" stroke-width="0.883501" stroke-linecap="round" stroke-linejoin="round"/>
<path d="M76.3008 15.334H80.3805" stroke="#644E77" stroke-width="0.883501" stroke-linecap="round" stroke-linejoin="round"/>
<path d="M53.8867 16.5449H57.7146" stroke="#644E77" stroke-width="0.883501" stroke-linecap="round" stroke-linejoin="round"/>
<path d="M61.3411 4.75781C61.3411 4.75781 61.4419 8.83758 60.7871 11.2049" stroke="#644E77" stroke-width="0.883501" stroke-linecap="round" stroke-linejoin="round"/>
<path d="M86.273 1.73633L84.5605 4.00287C84.5605 4.00287 92.8208 9.64403 94.634 11.0543C95.7925 11.8602 95.6918 12.6661 95.6918 12.6661" stroke="#644E77" stroke-width="0.883501" stroke-linecap="round" stroke-linejoin="round"/>
<path d="M100.981 12.666H94.1809C93.7276 12.666 93.375 13.0186 93.375 13.4719C93.375 13.623 93.4254 13.7741 93.4757 13.8748C94.332 15.2851 95.6919 16.2421 97.2533 16.5947C99.8221 17.0984 101.182 16.7962 101.182 16.7962" stroke="#644E77" stroke-width="0.883501" stroke-linecap="round" stroke-linejoin="round"/>
</svg>
