<svg width="105" height="47" viewBox="0 0 105 47" fill="none" xmlns="http://www.w3.org/2000/svg">
<path d="M103.998 35.2899C104.1 36.7428 98.3719 37.5019 91.1512 37.4438C91.1719 37.2253 91.1816 37.0059 91.1802 36.7864C91.1811 35.1205 90.7223 33.4866 89.8545 32.0646C89.8545 32.0646 97.2604 31.7522 102.266 32.0646C103.032 33.5865 103.94 34.509 103.998 35.2899Z" fill="white"/>
<path d="M101.818 19.1191C102.091 21.4521 101.9 23.8159 101.255 26.0747C101.138 27.1987 101.183 28.3337 101.386 29.4453H100.394C99.7692 29.4453 99.1696 29.1969 98.7275 28.7549C98.2855 28.3128 98.0371 27.7132 98.0371 27.088V20.9134C98.0371 20.4414 98.2246 19.9887 98.5584 19.6549C98.8922 19.3212 99.3448 19.1337 99.8169 19.1337L101.818 19.1191Z" fill="#DEDFE0"/>
<path d="M96.0621 20.6728C96.0612 21.0257 95.9203 21.3639 95.6704 21.6131C95.4206 21.8623 95.0821 22.0022 94.7292 22.0022H74.3057C74.1308 22.0027 73.9575 21.9686 73.7958 21.9021C73.6341 21.8355 73.4871 21.7376 73.3633 21.6141C73.2395 21.4906 73.1412 21.3439 73.0742 21.1824C73.0072 21.0209 72.9727 20.8477 72.9727 20.6728C72.9727 20.3193 73.1131 19.9803 73.3631 19.7303C73.6131 19.4803 73.9521 19.3398 74.3057 19.3398H94.7292C95.0824 19.3408 95.4209 19.4816 95.6707 19.7313C95.9204 19.9811 96.0612 20.3196 96.0621 20.6728Z" fill="white"/>
<path d="M82.0354 29.9727C83.6299 29.9739 85.1736 30.5337 86.3983 31.5548C87.6229 32.5759 88.4512 33.9938 88.7391 35.5621C89.027 37.1303 88.7564 38.7499 87.9744 40.1395C87.1923 41.529 85.9481 42.6006 84.4581 43.1682C82.8163 43.1174 81.0838 43.0665 79.2714 43.0265C77.8434 42.3916 76.6768 41.2856 75.9667 39.8935C75.2565 38.5015 75.0459 36.9078 75.37 35.379C75.6941 33.8503 76.5334 32.4792 77.7473 31.4951C78.9613 30.511 80.4763 29.9735 82.0391 29.9727H82.0354ZM86.1942 36.7938C86.1949 35.9711 85.9517 35.1667 85.4951 34.4823C85.0386 33.7979 84.3893 33.2643 83.6295 32.949C82.8696 32.6337 82.0333 32.5508 81.2263 32.7108C80.4194 32.8709 79.678 33.2667 79.096 33.8482C78.514 34.4296 78.1176 35.1707 77.9568 35.9775C77.7961 36.7843 77.8782 37.6207 78.1929 38.3808C78.5075 39.141 79.0406 39.7907 79.7246 40.2478C80.4085 40.705 81.2127 40.949 82.0354 40.949C82.5814 40.9494 83.1221 40.8423 83.6267 40.6337C84.1312 40.4251 84.5897 40.1191 84.9759 39.7332C85.3621 39.3473 85.6685 38.8891 85.8776 38.3848C86.0866 37.8804 86.1942 37.3398 86.1942 36.7938Z" fill="#DEDFE0"/>
<path d="M82.0348 32.6348C82.8573 32.6348 83.6614 32.8787 84.3453 33.3357C85.0292 33.7926 85.5622 34.4421 85.877 35.2021C86.1918 35.962 86.2741 36.7982 86.1137 37.6049C85.9532 38.4116 85.5571 39.1527 84.9755 39.7343C84.3939 40.3159 83.6528 40.712 82.8461 40.8724C82.0394 41.0329 81.2032 40.9506 80.4433 40.6358C79.6834 40.321 79.0338 39.788 78.5769 39.1041C78.1199 38.4202 77.876 37.6161 77.876 36.7936C77.8755 36.2473 77.9828 35.7063 78.1916 35.2015C78.4004 34.6967 78.7067 34.2381 79.093 33.8518C79.4793 33.4655 79.9379 33.1592 80.4427 32.9504C80.9475 32.7415 81.4885 32.6343 82.0348 32.6348Z" fill="white"/>
<path d="M15.3951 32.6348C16.2177 32.6348 17.0217 32.8787 17.7056 33.3356C18.3895 33.7926 18.9226 34.4421 19.2373 35.2021C19.5521 35.962 19.6345 36.7982 19.474 37.6049C19.3135 38.4116 18.9175 39.1527 18.3358 39.7343C17.7542 40.3159 17.0132 40.712 16.2065 40.8724C15.3997 41.0329 14.5635 40.9506 13.8036 40.6358C13.0437 40.321 12.3942 39.788 11.9372 39.1041C11.4802 38.4202 11.2363 37.6161 11.2363 36.7936C11.2363 35.6906 11.6745 34.6328 12.4544 33.8528C13.2343 33.0729 14.2921 32.6348 15.3951 32.6348Z" fill="white"/>
<path d="M15.3946 29.9695C17.0868 29.9441 18.728 30.5491 19.9988 31.6667C21.2697 32.7843 22.0795 34.3346 22.2707 36.0162C22.4619 37.6977 22.0207 39.3903 21.0332 40.7646C20.0456 42.139 18.5821 43.0969 16.9274 43.452L14.5665 43.5719C12.8436 43.3603 11.2664 42.4995 10.1564 41.165C9.04632 39.8305 8.4871 38.1229 8.59272 36.3903C8.69834 34.6578 9.46086 33.0307 10.7248 31.841C11.9887 30.6513 13.6588 29.9884 15.3946 29.9877V29.9695ZM19.5534 36.7907C19.5541 35.968 19.3108 35.1636 18.8543 34.4792C18.3978 33.7948 17.7485 33.2612 16.9886 32.9458C16.2288 32.6305 15.3925 32.5476 14.5855 32.7077C13.7785 32.8678 13.0372 33.2636 12.4552 33.845C11.8732 34.4265 11.4768 35.1675 11.316 35.9744C11.1552 36.7812 11.2374 37.6176 11.552 38.3777C11.8667 39.1378 12.3998 39.7876 13.0837 40.2447C13.7677 40.7018 14.5719 40.9458 15.3946 40.9458C16.497 40.9458 17.5542 40.5082 18.334 39.729C19.1139 38.9499 19.5525 37.893 19.5534 36.7907Z" fill="#DEDFE0"/>
<path d="M9.03637 22.4062C9.15405 22.4066 9.26915 22.4407 9.36798 22.5045C9.46681 22.5684 9.5452 22.6594 9.5938 22.7665C9.64241 22.8737 9.65919 22.9926 9.64215 23.109C9.6251 23.2254 9.57494 23.3345 9.49765 23.4232C7.77239 25.3737 3.84968 29.3691 1.31445 28.5082C1.62318 26.4452 2.20796 24.4911 3.26854 23.238C3.51809 22.9508 3.78366 22.678 4.06398 22.4208H9.03637V22.4062Z" fill="#DEDFE0"/>
<path d="M27.0982 16.2127L22.104 16.8193C22.0832 16.823 22.0618 16.8201 22.0428 16.8112C22.0237 16.8022 22.0079 16.7875 21.9975 16.7692C21.9872 16.7509 21.9828 16.7297 21.9849 16.7088C21.9871 16.6878 21.9957 16.668 22.0095 16.6522C22.5907 15.9258 24.6937 13.4959 27.0582 12.7912C27.0816 12.7859 27.1059 12.7857 27.1293 12.7908C27.1528 12.7959 27.1748 12.8061 27.1939 12.8207C27.2129 12.8352 27.2286 12.8538 27.2396 12.8751C27.2507 12.8963 27.257 12.9198 27.258 12.9438L27.2325 16.0456C27.2348 16.0852 27.2224 16.1242 27.1975 16.155C27.1727 16.1859 27.1373 16.2065 27.0982 16.2127Z" fill="#DEDFE0"/>
<path d="M38.6592 4.6699C45.0009 3.41318 88.7827 3.45677 89.7815 3.50762C90.7804 3.55847 91.6484 3.50762 91.8882 4.51009C92.1279 5.51255 92.9778 8.56718 93.2139 10.9135C93.45 13.2599 93.312 15.0542 90.468 15.5046C84.1983 16.3085 77.8898 16.7728 71.57 16.8957C71.2831 16.8957 71.0034 16.8957 70.7273 16.8957C66.1109 16.8957 54.074 17.0264 43.8713 17.1717C38.7391 17.2444 34.0646 17.3206 31.0499 17.386C22.0204 17.5785 18.3701 18.6355 18.3701 18.6355C23.219 8.76331 32.3175 5.92299 38.6592 4.6699ZM27.2362 16.0385L27.258 12.9439C27.2582 12.9189 27.2526 12.8942 27.2418 12.8717C27.231 12.8492 27.2151 12.8295 27.1955 12.8141C27.1758 12.7986 27.1529 12.7879 27.1285 12.7827C27.1041 12.7775 27.0788 12.778 27.0546 12.7841C24.69 13.4887 22.587 15.9259 22.0059 16.645C21.992 16.6609 21.9834 16.6807 21.9813 16.7016C21.9791 16.7226 21.9835 16.7437 21.9939 16.7621C22.0043 16.7804 22.0201 16.7951 22.0391 16.804C22.0582 16.813 22.0796 16.8158 22.1003 16.8121L27.0981 16.2128C27.1393 16.2074 27.1767 16.1861 27.2024 16.1536C27.2282 16.1211 27.2403 16.0798 27.2362 16.0385Z" fill="white"/>
<path d="M18.3526 18.6435C18.3526 18.6435 21.9847 17.5866 31.0324 17.3941C34.0543 17.3287 38.7216 17.2524 43.8538 17.1798V18.1859C43.8538 18.1859 43.418 29.5036 44.3042 35.769L45.9496 35.7945C60.311 35.9979 70.6481 35.7945 70.6481 35.7945C71.8539 29.3619 71.567 17.7863 71.567 17.7863V16.8965C77.8844 16.7734 84.1905 16.309 90.4577 15.5053C93.3017 15.055 93.4506 13.2607 93.2036 10.9143C92.9566 8.56797 92.114 5.50244 91.8779 4.51087C91.6418 3.5193 90.7883 3.55562 89.7713 3.5084C88.7543 3.46118 44.9907 3.41397 38.649 4.67068C32.3073 5.9274 23.2197 8.7641 18.3526 18.6435ZM101.819 19.1193H99.8177C99.3457 19.1193 98.893 19.3068 98.5593 19.6406C98.2255 19.9744 98.038 20.427 98.038 20.8991V27.0737C98.038 27.6989 98.2864 28.2985 98.7284 28.7405C99.1705 29.1826 99.7701 29.4309 100.395 29.4309H101.387C101.558 30.332 101.854 31.2048 102.266 32.0243C97.2607 31.7119 89.8548 32.0243 89.8548 32.0243C88.7581 30.2154 87.068 28.8427 85.0725 28.1404C83.0771 27.438 80.8998 27.4495 78.9118 28.1727C76.9239 28.8959 75.2482 30.2861 74.1705 32.1065C73.0928 33.9268 72.6797 36.0645 73.0017 38.1553H24.3093C24.3795 37.695 24.4147 37.2299 24.4146 36.7642C24.4146 34.3724 23.4645 32.0784 21.7732 30.3871C20.0818 28.6958 17.7879 27.7456 15.396 27.7456C13.0042 27.7456 10.7103 28.6958 9.01894 30.3871C7.32763 32.0784 6.37746 34.3724 6.37746 36.7642C6.37746 36.9822 6.37746 37.2001 6.40288 37.4144H3.99115C3.21963 37.4138 2.47868 37.1127 1.9254 36.575C1.37211 36.0373 1.04999 35.3053 1.02732 34.5341C0.947249 32.5113 1.04326 30.4855 1.31426 28.4793C3.85676 29.3547 7.7722 25.3593 9.49746 23.3943C9.57475 23.3056 9.62491 23.1965 9.64195 23.0801C9.659 22.9637 9.64222 22.8448 9.59361 22.7376C9.54501 22.6305 9.46662 22.5395 9.36779 22.4756C9.26896 22.4118 9.15386 22.3776 9.03618 22.3773H4.06742C8.74561 18.0188 24.5854 8.53528 28.657 5.48792C33.0155 2.21899 80.1715 1.21289 88.856 1.21289C97.5404 1.21289 97.5368 4.95399 98.4266 7.16596C99.0441 8.70962 101.303 13.7183 101.819 19.1193ZM96.0621 20.6739C96.0612 20.3206 95.9204 19.9821 95.6706 19.7324C95.4209 19.4826 95.0824 19.3418 94.7291 19.3409H74.3056C73.9521 19.3409 73.6131 19.4813 73.3631 19.7313C73.1131 19.9813 72.9726 20.3203 72.9726 20.6739C72.9726 20.8488 73.0071 21.0219 73.0742 21.1834C73.1412 21.345 73.2395 21.4917 73.3633 21.6152C73.4871 21.7386 73.6341 21.8365 73.7958 21.9031C73.9575 21.9697 74.1308 22.0037 74.3056 22.0032H94.7291C95.0808 22.0032 95.4182 21.8643 95.6679 21.6167C95.9175 21.369 96.0592 21.0328 96.0621 20.6811V20.6739Z" fill="white"/>
<path d="M71.5704 17.783C71.5704 17.783 71.8573 29.3586 70.6514 35.7911C70.6514 35.7911 60.3289 35.9945 45.9529 35.7911L44.3076 35.7657C43.4213 29.5003 43.8572 18.1825 43.8572 18.1825V17.1764C54.0598 17.0311 66.0967 16.9004 70.7132 16.9004C70.9892 16.9004 71.2689 16.9004 71.5558 16.9004L71.5704 17.783Z" fill="white"/>
<path d="M84.456 43.1694C95.0582 43.5108 101.818 44.0229 101.818 44.5968C101.818 45.6138 80.4534 46.4419 54.0986 46.4419C27.7438 46.4419 6.37598 45.6138 6.37598 44.5968C6.37598 44.2336 9.39791 43.8704 14.5664 43.558C14.841 43.5945 15.1176 43.6127 15.3946 43.6125C15.9105 43.614 16.4249 43.5555 16.9273 43.4382C25.6735 43.0168 39.0833 42.748 54.0986 42.748C63.3351 42.748 71.9578 42.8497 79.2656 43.0277C80.9087 43.7552 82.7721 43.806 84.4523 43.1694H84.456Z" fill="#DEDFE0"/>
<path d="M84.4533 43.167C82.773 43.8037 80.9096 43.7528 79.2666 43.0254C81.079 43.0653 82.8297 43.1162 84.4533 43.167Z" fill="#DEDFE0"/>
<path d="M16.9283 43.4531C16.4258 43.5705 15.9115 43.629 15.3955 43.6275C15.1186 43.6276 14.8419 43.6095 14.5674 43.573L16.9283 43.4531Z" fill="#DEDFE0"/>
<path d="M14.5675 43.5548C12.8771 43.3446 11.3267 42.5085 10.2224 41.2114C9.11814 39.9143 8.54004 38.2505 8.60219 36.5481C8.66435 34.8457 9.36224 33.2285 10.5582 32.0154C11.7541 30.8023 13.3613 30.0815 15.0626 29.9951C16.7639 29.9087 18.4358 30.4631 19.7485 31.5488C21.0611 32.6345 21.9192 34.1728 22.1535 35.8601C22.3877 37.5474 21.9811 39.2613 21.0138 40.6635C20.0466 42.0658 18.5889 43.0546 16.9284 43.4349C16.426 43.5523 15.9116 43.6108 15.3957 43.6093C15.1187 43.6095 14.8421 43.5913 14.5675 43.5548V43.5548Z" stroke="#644E77" stroke-width="1.41869" stroke-linecap="round" stroke-linejoin="round"/>
<path d="M19.5539 36.7936C19.5539 37.6161 19.31 38.4202 18.853 39.1041C18.3961 39.788 17.7465 40.321 16.9866 40.6358C16.2267 40.9506 15.3905 41.0329 14.5838 40.8724C13.7771 40.712 13.036 40.3159 12.4544 39.7343C11.8728 39.1527 11.4767 38.4116 11.3162 37.6049C11.1558 36.7982 11.2381 35.962 11.5529 35.2021C11.8677 34.4421 12.4007 33.7926 13.0846 33.3356C13.7685 32.8787 14.5726 32.6348 15.3951 32.6348C16.4981 32.6348 17.5559 33.0729 18.3358 33.8528C19.1158 34.6328 19.5539 35.6906 19.5539 36.7936V36.7936Z" stroke="#644E77" stroke-width="0.94579" stroke-linecap="round" stroke-linejoin="round"/>
<path d="M79.2668 43.0245C77.8232 42.3838 76.6467 41.2619 75.938 39.8504C75.2294 38.4388 75.0325 36.8251 75.3811 35.2846C75.7296 33.7441 76.6019 32.3723 77.8492 31.4033C79.0964 30.4343 80.6413 29.9282 82.2201 29.9713C83.799 30.0144 85.3139 30.604 86.5065 31.6396C87.699 32.6752 88.4952 34.0925 88.7592 35.6498C89.0232 37.207 88.7387 38.8075 87.9541 40.1783C87.1695 41.5491 85.9335 42.6051 84.4571 43.1662V43.1662C82.7769 43.8028 80.9134 43.752 79.2704 43.0245H79.2668Z" stroke="#644E77" stroke-width="1.41869" stroke-linecap="round" stroke-linejoin="round"/>
<path d="M86.1936 36.7936C86.1936 37.6161 85.9497 38.4202 85.4927 39.1041C85.0357 39.788 84.3862 40.321 83.6263 40.6358C82.8663 40.9506 82.0302 41.0329 81.2234 40.8724C80.4167 40.712 79.6757 40.3159 79.0941 39.7343C78.5124 39.1527 78.1164 38.4116 77.9559 37.6049C77.7954 36.7982 77.8778 35.962 78.1925 35.2021C78.5073 34.4421 79.0404 33.7926 79.7243 33.3357C80.4082 32.8787 81.2122 32.6348 82.0348 32.6348C82.581 32.6343 83.122 32.7415 83.6268 32.9504C84.1316 33.1592 84.5903 33.4655 84.9765 33.8518C85.3628 34.2381 85.6691 34.6967 85.878 35.2015C86.0868 35.7063 86.194 36.2473 86.1936 36.7936V36.7936Z" stroke="#644E77" stroke-width="0.94579" stroke-linecap="round" stroke-linejoin="round"/>
<path d="M6.4014 37.4383C6.4014 37.224 6.37598 37.006 6.37598 36.7881C6.37598 34.3962 7.32615 32.1023 9.01746 30.411C10.7088 28.7197 13.0027 27.7695 15.3946 27.7695C17.7864 27.7695 20.0804 28.7197 21.7717 30.411C23.463 32.1023 24.4132 34.3962 24.4132 36.7881C24.4132 37.2538 24.378 37.7188 24.3078 38.1792" stroke="#644E77" stroke-width="1.89158" stroke-linecap="round" stroke-linejoin="round"/>
<path d="M91.1508 37.4457C91.1716 37.2272 91.1812 37.0078 91.1799 36.7883C91.1807 35.1224 90.722 33.4885 89.8542 32.0665V32.0665C88.7574 30.2576 87.0673 28.885 85.0719 28.1826C83.0764 27.4803 80.8992 27.4917 78.9112 28.2149C76.9232 28.9381 75.2476 30.3284 74.1699 32.1487C73.0922 33.969 72.6791 36.1068 73.0011 38.1976" stroke="#644E77" stroke-width="1.89158" stroke-linecap="round" stroke-linejoin="round"/>
<path d="M73.002 38.1816H24.3096" stroke="#644E77" stroke-width="1.89158" stroke-linecap="round" stroke-linejoin="round"/>
<path d="M4.0632 22.4062C3.7891 22.664 3.5296 22.9368 3.28593 23.2235C2.22534 24.4766 1.64057 26.4307 1.33184 28.4937C1.06084 30.4998 0.964827 32.5257 1.0449 34.5485C1.06757 35.3197 1.38969 36.0517 1.94297 36.5894C2.49626 37.1271 3.23721 37.4281 4.00872 37.4288H6.42046" stroke="#644E77" stroke-width="1.89158" stroke-linecap="round" stroke-linejoin="round"/>
<path d="M91.1514 37.4468C98.3721 37.5049 104.1 36.7203 103.998 35.2929C103.94 34.512 103.032 33.5894 102.266 32.053C101.854 31.2335 101.558 30.3607 101.387 29.4597V29.4597C101.183 28.3481 101.139 27.2131 101.256 26.0891C101.902 23.8257 102.094 21.4567 101.819 19.119C101.303 13.7108 99.0441 8.70204 98.4266 7.15839C97.5367 4.94642 97.5367 1.23438 88.8559 1.23438C80.1751 1.23438 33.0119 2.24774 28.6569 5.51666C24.5853 8.56402 8.74557 18.0512 4.06738 22.4061" stroke="#644E77" stroke-width="1.89158" stroke-linecap="round" stroke-linejoin="round"/>
<path d="M101.818 19.1191H99.8169C99.3448 19.1191 98.8922 19.3066 98.5584 19.6404C98.2246 19.9742 98.0371 20.4269 98.0371 20.8989V27.0735C98.0371 27.6987 98.2855 28.2983 98.7275 28.7403C99.1696 29.1824 99.7692 29.4308 100.394 29.4308H101.386" stroke="#644E77" stroke-width="0.94579" stroke-linecap="round" stroke-linejoin="round"/>
<path d="M4.06398 22.4062H9.03637C9.15405 22.4066 9.26915 22.4407 9.36798 22.5045C9.46681 22.5684 9.5452 22.6594 9.5938 22.7665C9.64241 22.8737 9.65919 22.9926 9.64215 23.109C9.6251 23.2254 9.57494 23.3345 9.49765 23.4232C7.77239 25.3737 3.84968 29.3691 1.31445 28.5082" stroke="#644E77" stroke-width="0.94579" stroke-linecap="round" stroke-linejoin="round"/>
<path d="M71.5707 16.8943C77.8869 16.7711 84.1918 16.3067 90.4578 15.5032C93.3018 15.0528 93.4507 13.2585 93.2037 10.9122C92.9567 8.56582 92.1141 5.50029 91.878 4.50872C91.6419 3.51715 90.7884 3.55347 89.7714 3.50625C88.7544 3.45903 44.9908 3.41182 38.6491 4.66854C32.3074 5.92526 23.2089 8.76195 18.3418 18.6414C18.3418 18.6414 21.9739 17.5844 31.0216 17.3919C34.0435 17.3265 38.7108 17.2503 43.843 17.1776C54.0457 17.0323 66.0826 16.9016 70.699 16.9016C70.986 16.9016 71.2656 16.9016 71.5707 16.8943Z" stroke="#644E77" stroke-width="0.94579" stroke-linecap="round" stroke-linejoin="round"/>
<path d="M43.864 18.1855C43.864 18.1855 43.4282 29.5033 44.3144 35.7687C44.3144 35.7687 44.3144 35.7687 44.3144 35.7941" stroke="#644E77" stroke-width="0.94579" stroke-linecap="round" stroke-linejoin="round"/>
<path d="M44.7795 5.31641C44.7795 5.31641 44.3618 6.19175 44.3182 8.25117C44.2746 10.3106 44.3182 15.5445 44.3182 15.5445" stroke="#644E77" stroke-width="0.94579" stroke-linecap="round" stroke-linejoin="round"/>
<path d="M71.709 4.62891L71.5928 15.1839" stroke="#644E77" stroke-width="0.94579" stroke-linecap="round" stroke-linejoin="round"/>
<path d="M89.8545 32.0509C89.8545 32.0509 97.2604 31.7386 102.265 32.0509" stroke="#644E77" stroke-width="0.94579" stroke-linecap="round" stroke-linejoin="round"/>
<path d="M18.3519 19.3398C18.3519 19.3398 17.7889 22.972 17.8325 24.7408" stroke="#644E77" stroke-width="0.94579" stroke-linecap="round" stroke-linejoin="round"/>
<path d="M25.5146 35.2468C25.5146 35.2468 31.1299 35.57 44.3146 35.7698L45.9599 35.7952C60.3214 35.9986 70.6584 35.7952 70.6584 35.7952C71.8643 29.3627 71.5774 17.7871 71.5774 17.7871" stroke="#644E77" stroke-width="0.94579" stroke-linecap="round" stroke-linejoin="round"/>
<path d="M37.1201 19.3398H40.6215" stroke="#644E77" stroke-width="0.94579" stroke-linecap="round" stroke-linejoin="round"/>
<path d="M46.8535 19.3398H50.5438" stroke="#644E77" stroke-width="0.94579" stroke-linecap="round" stroke-linejoin="round"/>
<path d="M13.3428 22.043H14.8901" stroke="#644E77" stroke-width="0.94579" stroke-linecap="round" stroke-linejoin="round"/>
<path d="M94.7292 22.0237H74.3057C74.1308 22.0242 73.9575 21.9901 73.7958 21.9235C73.6341 21.8569 73.4871 21.7591 73.3633 21.6356C73.2395 21.5121 73.1412 21.3654 73.0742 21.2039C73.0072 21.0424 72.9727 20.8692 72.9727 20.6943C72.9727 20.3408 73.1131 20.0017 73.3631 19.7518C73.6131 19.5018 73.9521 19.3613 74.3057 19.3613H94.7292C95.0824 19.3623 95.4209 19.503 95.6707 19.7528C95.9204 20.0026 96.0612 20.3411 96.0621 20.6943V20.6943C96.0612 21.0472 95.9203 21.3853 95.6704 21.6345C95.4206 21.8837 95.0821 22.0237 94.7292 22.0237V22.0237Z" stroke="#644E77" stroke-width="0.94579" stroke-linecap="round" stroke-linejoin="round"/>
<path d="M22.0097 16.6385C22.5908 15.9121 24.6938 13.4822 27.0584 12.7776C27.0829 12.7719 27.1085 12.7721 27.133 12.778C27.1575 12.7838 27.1804 12.7953 27.1997 12.8115C27.2191 12.8277 27.2344 12.8481 27.2445 12.8712C27.2547 12.8943 27.2593 12.9195 27.2581 12.9446L27.2327 16.0465C27.2331 16.0854 27.2192 16.123 27.1938 16.1524C27.1684 16.1819 27.1332 16.201 27.0947 16.2063L22.1005 16.8129C22.0786 16.8178 22.0557 16.8153 22.0354 16.8058C22.0151 16.7964 21.9984 16.7805 21.9881 16.7606C21.9777 16.7407 21.9742 16.718 21.9781 16.6959C21.982 16.6738 21.9931 16.6536 22.0097 16.6385Z" stroke="#644E77" stroke-width="0.94579" stroke-linecap="round" stroke-linejoin="round"/>
</svg>
