<svg width="103" height="39" viewBox="0 0 103 39" fill="none" xmlns="http://www.w3.org/2000/svg">
<g clip-path="url(#clip0)">
<path d="M53.152 38.6592C79.3227 38.6592 100.538 37.9874 100.538 37.1587C100.538 36.33 79.3227 35.6582 53.152 35.6582C26.9812 35.6582 5.76562 36.33 5.76562 37.1587C5.76562 37.9874 26.9812 38.6592 53.152 38.6592Z" fill="#DEDFE0"/>
<path d="M16.0829 27.7637C15.9114 27.7631 15.7436 27.8133 15.6006 27.908C15.4576 28.0027 15.3459 28.1376 15.2795 28.2958C15.2131 28.4539 15.1951 28.6282 15.2278 28.7966C15.2604 28.965 15.3421 29.1199 15.4628 29.2418C15.5834 29.3638 15.7374 29.4473 15.9054 29.4817C16.0734 29.5162 16.2479 29.5001 16.4068 29.4355C16.5656 29.3708 16.7018 29.2606 16.7981 29.1187C16.8943 28.9767 16.9464 28.8094 16.9476 28.6379C16.9485 28.5237 16.9267 28.4104 16.8837 28.3046C16.8407 28.1987 16.7772 28.1025 16.6968 28.0212C16.6165 27.94 16.5209 27.8755 16.4156 27.8313C16.3102 27.7871 16.1972 27.7641 16.0829 27.7637Z" fill="white"/>
<path d="M21.0318 28.639C21.0305 29.6184 20.7389 30.5755 20.1937 31.3892C19.6486 32.203 18.8744 32.8368 17.9691 33.2106C17.0638 33.5844 16.068 33.6814 15.1076 33.4893C14.1471 33.2972 13.2652 32.8247 12.5733 32.1315C11.8814 31.4382 11.4105 30.5554 11.2203 29.5946C11.0301 28.6338 11.129 27.6381 11.5045 26.7335C11.8801 25.8289 12.5154 25.056 13.3302 24.5124C14.1449 23.9688 15.1026 23.6791 16.0821 23.6797C16.733 23.6793 17.3776 23.8073 17.9789 24.0565C18.5803 24.3057 19.1265 24.6711 19.5863 25.1319C20.0462 25.5926 20.4106 26.1395 20.6586 26.7414C20.9066 27.3432 21.0334 27.988 21.0318 28.639ZM16.0821 29.4973C16.2541 29.4973 16.4223 29.4461 16.5652 29.3503C16.7081 29.2545 16.8193 29.1184 16.8847 28.9593C16.9501 28.8002 16.9668 28.6252 16.9325 28.4566C16.8982 28.288 16.8146 28.1333 16.6923 28.0124C16.5699 27.8914 16.4144 27.8095 16.2454 27.7771C16.0765 27.7447 15.9017 27.7632 15.7433 27.8304C15.5849 27.8975 15.45 28.0102 15.3558 28.1542C15.2616 28.2982 15.2123 28.4669 15.2142 28.639C15.2159 28.8677 15.3081 29.0865 15.4708 29.2474C15.6335 29.4083 15.8533 29.4981 16.0821 29.4973Z" fill="white"/>
<path d="M24.0558 28.6402C24.0558 30.2179 23.5879 31.7601 22.7114 33.0718C21.8348 34.3836 20.5889 35.4059 19.1313 36.0095C17.6736 36.6131 16.0697 36.7709 14.5224 36.4628C12.9751 36.1548 11.5539 35.3949 10.4386 34.2791C9.3232 33.1633 8.56379 31.7418 8.25639 30.1943C7.94899 28.6469 8.1074 27.0431 8.71158 25.5857C9.31576 24.1283 10.3386 22.8828 11.6507 22.0067C12.9628 21.1307 14.5052 20.6634 16.0828 20.6641C17.1301 20.6641 18.1672 20.8704 19.1347 21.2713C20.1022 21.6721 20.9813 22.2597 21.7217 23.0004C22.4621 23.7411 23.0493 24.6204 23.4498 25.5881C23.8503 26.5558 24.0562 27.5929 24.0558 28.6402ZM16.0828 33.5867C17.0626 33.5861 18.0201 33.2949 18.8343 32.75C19.6485 32.2051 20.2829 31.431 20.6571 30.5256C21.0313 29.6201 21.1285 28.624 20.9365 27.6633C20.7446 26.7026 20.272 25.8203 19.5785 25.1282C18.8851 24.4361 18.002 23.9652 17.0409 23.7751C16.0798 23.585 15.0839 23.6842 14.1791 24.0601C13.2744 24.436 12.5015 25.0719 11.9582 25.8871C11.4148 26.7024 11.1255 27.6605 11.1268 28.6402C11.1268 29.2906 11.255 29.9346 11.5042 30.5354C11.7534 31.1361 12.1186 31.6819 12.5789 32.1413C13.0393 32.6008 13.5857 32.9649 14.187 33.213C14.7882 33.461 15.4324 33.588 16.0828 33.5867Z" fill="#DEDFE0"/>
<path d="M78.9638 27.7637C78.792 27.763 78.6239 27.8134 78.4808 27.9084C78.3377 28.0034 78.2259 28.1387 78.1598 28.2972C78.0936 28.4557 78.0759 28.6303 78.1091 28.7989C78.1422 28.9675 78.2246 29.1224 78.3458 29.2441C78.4671 29.3658 78.6217 29.4488 78.7902 29.4825C78.9586 29.5162 79.1333 29.4992 79.292 29.4337C79.4508 29.3681 79.5865 29.2568 79.682 29.114C79.7775 28.9712 79.8285 28.8033 79.8285 28.6315C79.8285 28.4019 79.7375 28.1817 79.5754 28.019C79.4134 27.8563 79.1934 27.7645 78.9638 27.7637Z" fill="white"/>
<path d="M83.773 28.6384C83.773 29.618 83.4825 30.5756 82.9383 31.3901C82.394 32.2046 81.6205 32.8395 80.7155 33.2143C79.8105 33.5892 78.8146 33.6873 77.8538 33.4962C76.8931 33.3051 76.0105 32.8334 75.3179 32.1407C74.6252 31.448 74.1535 30.5655 73.9624 29.6047C73.7712 28.6439 73.8693 27.6481 74.2442 26.7431C74.6191 25.838 75.2539 25.0645 76.0684 24.5203C76.8829 23.976 77.8405 23.6855 78.8201 23.6855C80.1337 23.6855 81.3935 24.2074 82.3223 25.1362C83.2512 26.0651 83.773 27.3249 83.773 28.6384ZM78.9632 29.5031C79.1351 29.5038 79.3033 29.4533 79.4465 29.3582C79.5897 29.2631 79.7014 29.1276 79.7675 28.9689C79.8336 28.8101 79.8511 28.6354 79.8177 28.4667C79.7843 28.2981 79.7016 28.1432 79.58 28.0216C79.4584 27.9 79.3035 27.8173 79.1349 27.7839C78.9662 27.7505 78.7914 27.768 78.6327 27.8341C78.474 27.9002 78.3385 28.0119 78.2434 28.1551C78.1483 28.2983 78.0978 28.4665 78.0985 28.6384C78.1001 28.8667 78.192 29.085 78.3539 29.2458C78.5159 29.4066 78.7349 29.4968 78.9632 29.4968V29.5031Z" fill="white"/>
<path d="M86.7882 28.6402C86.7882 30.2177 86.3204 31.7598 85.444 33.0715C84.5676 34.3832 83.3219 35.4055 81.8644 36.0092C80.407 36.6129 78.8032 36.7708 77.256 36.4631C75.7088 36.1553 74.2876 35.3957 73.1721 34.2802C72.0566 33.1647 71.297 31.7435 70.9892 30.1963C70.6814 28.6491 70.8394 27.0453 71.4431 25.5879C72.0468 24.1304 73.0691 22.8847 74.3808 22.0083C75.6924 21.1319 77.2346 20.6641 78.8121 20.6641C79.8596 20.6636 80.897 20.8697 81.8649 21.2704C82.8328 21.671 83.7123 22.2585 84.453 22.9993C85.1937 23.74 85.7812 24.6195 86.1819 25.5874C86.5826 26.5553 86.7886 27.5926 86.7882 28.6402ZM78.8121 33.5931C79.7921 33.595 80.7506 33.3061 81.5664 32.763C82.3821 32.2199 83.0184 31.4471 83.3948 30.5422C83.7711 29.6374 83.8705 28.6412 83.6805 27.6798C83.4905 26.7184 83.0195 25.835 82.3272 25.1414C81.6349 24.4477 80.7524 23.9751 79.7914 23.7832C78.8304 23.5913 77.834 23.6888 76.9284 24.0634C76.0229 24.438 75.2488 25.0728 74.7041 25.8875C74.1594 26.7022 73.8687 27.6602 73.8687 28.6402C73.8704 29.9527 74.393 31.2108 75.3216 32.1383C76.2503 33.0658 77.5091 33.5867 78.8216 33.5867L78.8121 33.5931Z" fill="#DEDFE0"/>
<path d="M97.3389 25.4052V26.2445C98.2926 26.1682 99.437 26.1205 100.289 26.0919C100.644 26.082 100.984 25.9501 101.253 25.7184C101.521 25.4868 101.702 25.1696 101.764 24.8203L102.044 23.1767C102.056 23.0884 102.049 22.9986 102.024 22.913C101.999 22.8274 101.957 22.748 101.899 22.68C101.842 22.6119 101.771 22.5568 101.69 22.518C101.61 22.4793 101.523 22.4578 101.433 22.4551H99.4021L97.3389 25.4052Z" fill="#DEDFE0"/>
<path d="M98.01 12.9067C97.8464 12.9329 97.6897 12.9913 97.5489 13.0786C97.4081 13.1659 97.2861 13.2804 97.19 13.4153C97.0938 13.5502 97.0255 13.7028 96.9889 13.8644C96.9523 14.0259 96.9482 14.1932 96.9768 14.3563L97.9909 20.1135L100.146 20.9719C101.009 18.736 101.167 15.8547 100.62 12.3281V12.4839L98.01 12.9067Z" fill="#DEDFE0"/>
<path d="M1.63672 22.329V22.9648C1.85421 23.4674 2.1612 23.9263 2.54274 24.3191C2.64942 24.4085 2.78505 24.456 2.92422 24.4526H3.97647C4.02515 24.4535 4.07227 24.4354 4.10787 24.4022C4.14346 24.369 4.16474 24.3232 4.16721 24.2746C4.22655 23.1174 4.07396 22.2252 3.70943 21.5979C3.65642 21.5101 3.57373 21.4442 3.47635 21.4122C3.37897 21.3801 3.27333 21.3839 3.17854 21.423L1.87832 21.9634C1.80737 21.995 1.74692 22.0462 1.70411 22.1109C1.6613 22.1757 1.63791 22.2514 1.63672 22.329Z" fill="#DEDFE0"/>
<path d="M9.70607 13.2098C8.18968 13.3306 4.93755 13.693 3.30672 14.653C2.50879 15.2888 1.83802 17.4347 1.76172 19.0051H1.84755L6.39672 17.0087C6.54409 16.9442 6.67868 16.8537 6.7941 16.7416L9.93496 13.7152C9.97804 13.6728 10.0071 13.6181 10.0181 13.5587C10.0292 13.4992 10.0217 13.4378 9.99677 13.3827C9.97182 13.3276 9.93058 13.2815 9.87859 13.2505C9.82661 13.2196 9.7664 13.2054 9.70607 13.2098Z" fill="#DEDFE0"/>
<path d="M49.8086 11.7317C51.0802 11.6776 61.803 11.1499 65.8976 10.9464C66.095 10.9359 66.288 10.8836 66.4638 10.793C66.6396 10.7024 66.7942 10.5756 66.9173 10.4209C67.0405 10.2662 67.1295 10.0871 67.1784 9.89548C67.2272 9.70387 67.235 9.50407 67.201 9.30926L66.1837 3.58704C66.1426 3.35632 66.0217 3.1474 65.8421 2.99687C65.6625 2.84633 65.4357 2.76378 65.2014 2.76367H50.1106V2.99256C50.1106 2.99256 49.9548 7.53855 49.8086 11.7317Z" fill="white"/>
<path d="M50.1146 2.99647V2.76758H50.0288C48.7413 2.78983 44.5323 2.87884 42.7743 3.14906C36.3304 4.27125 30.7258 8.93168 29.4796 9.85678C28.2335 10.7819 28.03 11.815 30.4333 12.1457C32.8367 12.4763 48.204 11.796 49.8031 11.7292C49.9557 7.53928 50.1146 2.99647 50.1146 2.99647Z" fill="white"/>
<path d="M6.39611 17.0105C6.54348 16.946 6.67807 16.8555 6.79349 16.7435L9.93435 13.717C9.97867 13.6748 10.0088 13.6199 10.0206 13.5598C10.0323 13.4997 10.0251 13.4375 10 13.3817C9.9749 13.3258 9.93308 13.2792 9.88031 13.2482C9.82755 13.2171 9.76646 13.2032 9.70546 13.2084C8.18907 13.3292 4.93695 13.6916 3.30611 14.6517C3.30611 14.6517 5.23895 12.3659 11.6097 11.4218C17.9804 10.4776 26.7195 10.0357 26.7195 10.0357C26.7195 10.0357 37.1753 2.49193 43.0279 1.80527C45.2214 1.64314 64.6452 1.38881 66.5526 1.46511C68.46 1.54141 68.4218 2.68267 68.46 2.95925C68.4822 3.16588 69.1816 7.51159 69.4359 10.7097C69.5267 11.6075 69.5427 12.5114 69.4836 13.4118C69.0258 15.7103 65.4685 28.2642 65.4685 28.2642H25.7722C25.7722 28.2642 25.3144 17.3316 15.0494 17.9928C5.80799 19.0069 6.70448 28.2642 6.70448 28.2642C6.70448 28.2642 6.49784 28.42 3.89105 27.8827C0.826483 27.1992 0.635742 22.1923 0.635742 21.5533C0.635742 20.9143 1.475 19.5664 1.75793 19.1849C1.75793 19.1277 1.75793 19.0641 1.75793 19.0037H1.84377L6.39611 17.0105ZM63.3322 26.6715C64.2001 26.6715 64.6483 26.2868 64.8645 25.419C65.0807 24.5511 67.4967 15.5354 67.7479 14.3624C67.999 13.1893 67.8528 11.7079 67.7479 10.7033L67.004 10.3028C67.1938 10.0082 67.2654 9.6528 67.2043 9.30774L66.187 3.58551C66.1459 3.3548 66.025 3.14588 65.8454 2.99534C65.6658 2.84481 65.439 2.76226 65.2047 2.76215H50.0249C48.7374 2.7844 44.5284 2.87342 42.7704 3.14363C36.3265 4.26582 30.7219 8.92626 29.4757 9.85135C28.2296 10.7764 28.0261 11.8096 30.4294 12.1402C32.8328 12.4709 48.2001 11.7905 49.7992 11.7238C49.6943 14.6803 49.5957 17.4651 49.5576 18.3647C49.4749 20.5392 50.1075 25.9721 50.2442 26.6524L63.3322 26.6715ZM2.54315 24.319C2.64984 24.4085 2.78546 24.4559 2.92463 24.4526H3.97688C4.02557 24.4534 4.07269 24.4354 4.10828 24.4021C4.14388 24.3689 4.16516 24.3232 4.16762 24.2745C4.22697 23.1174 4.07437 22.2251 3.70985 21.5978C3.65683 21.5101 3.57415 21.4442 3.47677 21.4121C3.37939 21.38 3.27374 21.3839 3.17895 21.423L1.87874 21.9634C1.80778 21.9949 1.74733 22.0461 1.70452 22.1109C1.66171 22.1757 1.63833 22.2513 1.63713 22.329V22.9648C1.85462 23.4673 2.16161 23.9262 2.54315 24.319Z" fill="white"/>
<path d="M49.567 18.3721C49.4843 20.5465 50.117 25.9794 50.2537 26.6598H63.3321C64.2 26.6598 64.6482 26.2751 64.8644 25.4072C65.0806 24.5394 67.4966 15.5237 67.7478 14.3506C67.9989 13.1776 67.8527 11.6961 67.7478 10.6916L67.0039 10.291C66.8834 10.4767 66.7206 10.6312 66.5289 10.7417C66.3371 10.8522 66.1218 10.9157 65.9008 10.9268C61.8062 11.1303 51.0897 11.658 49.8118 11.712C49.7037 14.6876 49.5924 17.4724 49.567 18.3721Z" fill="white"/>
<path d="M65.4502 28.264H69.6211C69.4176 25.9815 70.8259 18.1229 79.476 18.2374C88.1261 18.3518 88.5235 27.4851 88.5235 27.4851C89.3373 27.3929 95.0913 26.4678 96.8811 26.2866L97.3325 26.2421V25.4029L99.3957 22.4369H100.07L100.14 20.9713L97.9842 20.113L96.9701 14.3558C96.9415 14.1926 96.9456 14.0254 96.9822 13.8639C97.0187 13.7023 97.0871 13.5496 97.1833 13.4147C97.2794 13.2798 97.4014 13.1654 97.5422 13.0781C97.683 12.9908 97.8397 12.9323 98.0033 12.9062L100.613 12.4834V11.5297C100.612 11.3523 100.541 11.1825 100.416 11.0574C100.29 10.9323 100.12 10.8621 99.9425 10.8621L69.4971 10.7031" fill="white"/>
<path d="M69.5034 10.7031H69.4176C69.5084 11.601 69.5243 12.5048 69.4653 13.4053C69.0075 15.7037 65.4502 28.2576 65.4502 28.2576" fill="white"/>
<path d="M100.145 20.9746L100.075 22.4401" stroke="#644E77" stroke-width="1.94181" stroke-miterlimit="10"/>
<path d="M100.62 12.4824L98.01 12.9052C97.8464 12.9314 97.6897 12.9898 97.5489 13.0771C97.4081 13.1644 97.2861 13.2789 97.19 13.4138C97.0938 13.5487 97.0255 13.7013 96.9889 13.8629C96.9523 14.0245 96.9482 14.1917 96.9768 14.3549L97.9909 20.1121L100.146 20.9704" stroke="#644E77" stroke-width="1.45635" stroke-miterlimit="10"/>
<path d="M3.30762 14.6517C3.30762 14.6517 5.24045 12.3659 11.6112 11.4218C17.9819 10.4776 26.721 10.0357 26.721 10.0357C26.721 10.0357 37.1768 2.49193 43.0294 1.80527C45.2229 1.64314 64.6467 1.38881 66.5541 1.46511C68.4615 1.54141 68.4233 2.68267 68.4615 2.95925C68.4837 3.16588 69.1831 7.51159 69.4374 10.7097H69.5233L99.9687 10.8686C100.146 10.8686 100.316 10.9389 100.442 11.064C100.568 11.1891 100.639 11.3589 100.639 11.5362V12.4899" stroke="#644E77" stroke-width="1.55458" stroke-miterlimit="10"/>
<path d="M100.618 12.3281C101.165 15.8568 101.007 18.7381 100.145 20.9719" stroke="#644E77" stroke-width="1.94181" stroke-miterlimit="10"/>
<path d="M97.3381 26.244L96.8867 26.2885C95.0969 26.4697 89.3429 27.3948 88.5291 27.487C88.5291 27.487 88.1412 18.3537 79.4816 18.2392C70.822 18.1248 69.4105 25.9833 69.6267 28.2658H25.7722C25.7722 28.2658 25.3144 17.3332 15.0494 17.9945C5.80799 19.0086 6.70448 28.2658 6.70448 28.2658C6.70448 28.2658 6.49784 28.4216 3.89105 27.8844C0.826483 27.2009 0.635742 22.1939 0.635742 21.5549C0.635742 20.916 1.475 19.5681 1.75793 19.1866C1.75793 19.1294 1.75793 19.0658 1.75793 19.0054C1.83423 17.4349 2.505 15.3018 3.30293 14.6533C4.93059 13.6996 8.1859 13.3308 9.70228 13.21C9.76328 13.2049 9.82437 13.2188 9.87714 13.2498C9.9299 13.2808 9.97172 13.3275 9.99684 13.3833C10.022 13.4391 10.0291 13.5014 10.0174 13.5614C10.0056 13.6215 9.97549 13.6765 9.93117 13.7187L6.79031 16.7451C6.67489 16.8572 6.5403 16.9476 6.39293 17.0121L1.84695 19.0086" stroke="#644E77" stroke-width="1.55458" stroke-miterlimit="10"/>
<path d="M99.9743 22.2988L101.433 22.4387C101.523 22.4414 101.61 22.4629 101.69 22.5016C101.771 22.5404 101.842 22.5956 101.899 22.6636C101.957 22.7317 101.999 22.811 102.024 22.8966C102.049 22.9822 102.056 23.072 102.044 23.1603L101.764 24.8039C101.702 25.1532 101.521 25.4704 101.253 25.7021C100.984 25.9337 100.644 26.0656 100.289 26.0755C99.437 26.1041 98.2958 26.1518 97.3389 26.2281" stroke="#644E77" stroke-width="1.94181" stroke-miterlimit="10"/>
<path d="M97.3389 26.2873V26.2428V25.4003L99.402 22.4375H100.076" stroke="#644E77" stroke-width="1.45635" stroke-miterlimit="10"/>
<path d="M70.8438 28.6402C70.8438 30.2177 71.3115 31.7598 72.188 33.0715C73.0644 34.3832 74.3101 35.4055 75.7676 36.0092C77.225 36.6129 78.8287 36.7708 80.376 36.4631C81.9232 36.1553 83.3444 35.3957 84.4599 34.2802C85.5754 33.1647 86.335 31.7435 86.6428 30.1963C86.9505 28.6491 86.7926 27.0453 86.1889 25.5879C85.5852 24.1304 84.5629 22.8847 83.2512 22.0083C81.9395 21.1319 80.3974 20.6641 78.8199 20.6641C77.7723 20.6636 76.735 20.8697 75.7671 21.2704C74.7992 21.671 73.9197 22.2585 73.179 22.9993C72.4382 23.74 71.8507 24.6195 71.45 25.5874C71.0494 26.5553 70.8433 27.5926 70.8438 28.6402V28.6402Z" stroke="#644E77" stroke-width="1.55458" stroke-miterlimit="10"/>
<path d="M73.8672 28.6384C73.8672 29.618 74.1577 30.5756 74.7019 31.3901C75.2461 32.2046 76.0197 32.8395 76.9247 33.2143C77.8297 33.5892 78.8256 33.6873 79.7864 33.4962C80.7471 33.3051 81.6297 32.8334 82.3223 32.1407C83.015 31.448 83.4867 30.5655 83.6778 29.6047C83.8689 28.6439 83.7709 27.6481 83.396 26.7431C83.0211 25.838 82.3863 25.0645 81.5718 24.5203C80.7573 23.976 79.7997 23.6855 78.8201 23.6855C78.1696 23.6851 77.5253 23.813 76.9242 24.0617C76.3231 24.3105 75.7769 24.6753 75.3169 25.1353C74.8569 25.5953 74.4921 26.1415 74.2434 26.7426C73.9946 27.3437 73.8668 27.9879 73.8672 28.6384V28.6384Z" stroke="#644E77" stroke-width="0.970903" stroke-miterlimit="10"/>
<path d="M8.10547 28.6402C8.10547 30.2177 8.57326 31.7598 9.44969 33.0715C10.3261 34.3832 11.5718 35.4055 13.0293 36.0092C14.4867 36.6129 16.0905 36.7708 17.6377 36.4631C19.1849 36.1553 20.6061 35.3957 21.7216 34.2802C22.8371 33.1647 23.5967 31.7435 23.9045 30.1963C24.2123 28.6491 24.0543 27.0453 23.4506 25.5879C22.8469 24.1304 21.8246 22.8847 20.5129 22.0083C19.2012 21.1319 17.6591 20.6641 16.0816 20.6641C15.0341 20.6636 13.9967 20.8697 13.0288 21.2704C12.0609 21.671 11.1814 22.2585 10.4407 22.9993C9.69996 23.74 9.11246 24.6195 8.71177 25.5874C8.31108 26.5553 8.10505 27.5926 8.10547 28.6402V28.6402Z" stroke="#644E77" stroke-width="1.55458" stroke-miterlimit="10"/>
<path d="M11.126 28.6389C11.1272 29.6181 11.4187 30.575 11.9636 31.3886C12.5084 32.2022 13.2822 32.836 14.1872 33.21C15.0921 33.584 16.0876 33.6814 17.0479 33.4898C18.0081 33.2982 18.8901 32.8263 19.5822 32.1337C20.2744 31.4411 20.7457 30.5589 20.9367 29.5985C21.1276 28.6381 21.0296 27.6426 20.6551 26.7379C20.2805 25.8332 19.6462 25.0598 18.8322 24.5155C18.0183 23.9712 17.0612 23.6803 16.0821 23.6797C15.4308 23.6793 14.7859 23.8073 14.1842 24.0564C13.5825 24.3055 13.0359 24.6709 12.5755 25.1315C12.1152 25.5921 11.7502 26.139 11.5015 26.7409C11.2527 27.3427 11.1251 27.9877 11.126 28.6389V28.6389Z" stroke="#644E77" stroke-width="0.970903" stroke-miterlimit="10"/>
<path d="M3.17854 21.423L1.87832 21.9634C1.80737 21.995 1.74692 22.0462 1.70411 22.1109C1.6613 22.1757 1.63791 22.2514 1.63672 22.329V22.9648C1.85421 23.4674 2.1612 23.9263 2.54274 24.3191C2.64942 24.4085 2.78505 24.456 2.92422 24.4526H3.97647C4.02515 24.4535 4.07227 24.4354 4.10787 24.4022C4.14346 24.369 4.16474 24.3232 4.16721 24.2746C4.22655 23.1174 4.07396 22.2252 3.70943 21.5979C3.65642 21.5101 3.57373 21.4442 3.47635 21.4122C3.37897 21.3801 3.27333 21.3839 3.17854 21.423V21.423Z" stroke="#644E77" stroke-width="0.970903" stroke-miterlimit="10"/>
<path d="M50.1108 2.76758H65.2048C65.4391 2.76769 65.666 2.85024 65.8456 3.00077C66.0252 3.1513 66.1461 3.36022 66.1871 3.59094L67.2044 9.31316C67.2384 9.50797 67.2307 9.70778 67.1818 9.89939C67.1329 10.091 67.0439 10.2701 66.9208 10.4248C66.7976 10.5795 66.643 10.7063 66.4672 10.7969C66.2915 10.8875 66.0985 10.9398 65.901 10.9504C61.8064 11.1538 51.09 11.6815 49.812 11.7356C48.2225 11.8023 32.852 12.4826 30.4423 12.152C28.0326 11.8214 28.2329 10.7882 29.4886 9.86313C30.7443 8.93804 36.3394 4.27761 42.7832 3.15542C44.5412 2.8852 48.7502 2.79619 50.0377 2.77394L50.1108 2.76758Z" stroke="#644E77" stroke-width="0.970903" stroke-miterlimit="10"/>
<path d="M50.1148 2.99609C50.1148 2.99609 49.9558 7.5389 49.7969 11.732C49.692 14.6885 49.5934 17.4733 49.5553 18.373C49.4726 20.5474 50.1052 25.9804 50.2419 26.6607" stroke="#644E77" stroke-width="0.970903" stroke-miterlimit="10"/>
<path d="M27.9459 11.8593C27.9459 11.8593 27.5676 20.5285 28.2956 25.5799C28.3973 26.1331 28.6485 26.6258 29.3256 26.6576H50.253H63.3315C64.1994 26.6576 64.6476 26.273 64.8638 25.4051C65.08 24.5372 67.496 15.5216 67.7471 14.3485C67.9983 13.1754 67.852 11.694 67.7471 10.6895" stroke="#644E77" stroke-width="0.970903" stroke-miterlimit="10"/>
<path d="M65.8042 13.877H62.3486" stroke="#644E77" stroke-width="0.970903" stroke-linecap="round" stroke-linejoin="round"/>
<path d="M47.8662 14.8262H44.3057" stroke="#644E77" stroke-width="0.970903" stroke-linecap="round" stroke-linejoin="round"/>
<path d="M78.0986 28.6413C78.0993 28.8122 78.1505 28.9791 78.2459 29.1208C78.3413 29.2626 78.4766 29.373 78.6346 29.4379C78.7927 29.5029 78.9664 29.5195 79.134 29.4858C79.3015 29.4521 79.4553 29.3695 79.5759 29.2484C79.6965 29.1274 79.7785 28.9733 79.8116 28.8057C79.8447 28.638 79.8274 28.4643 79.7619 28.3065C79.6963 28.1487 79.5855 28.0138 79.4434 27.9189C79.3013 27.8241 79.1342 27.7734 78.9633 27.7734C78.8495 27.7734 78.7368 27.7959 78.6317 27.8396C78.5266 27.8832 78.4311 27.9472 78.3508 28.0278C78.2704 28.1085 78.2068 28.2041 78.1635 28.3094C78.1203 28.4147 78.0982 28.5275 78.0986 28.6413Z" stroke="#644E77" stroke-width="0.970903" stroke-miterlimit="10"/>
<path d="M15.2148 28.6413C15.2148 28.813 15.2658 28.9808 15.3611 29.1235C15.4565 29.2662 15.592 29.3774 15.7506 29.4431C15.9092 29.5088 16.0837 29.526 16.252 29.4925C16.4204 29.459 16.575 29.3764 16.6964 29.255C16.8178 29.1336 16.9004 28.979 16.9339 28.8106C16.9674 28.6423 16.9502 28.4678 16.8845 28.3092C16.8188 28.1506 16.7076 28.0151 16.5649 27.9197C16.4222 27.8243 16.2544 27.7734 16.0827 27.7734C15.9686 27.773 15.8556 27.7952 15.7501 27.8386C15.6446 27.8821 15.5488 27.946 15.4681 28.0267C15.3874 28.1074 15.3235 28.2032 15.2801 28.3087C15.2366 28.4142 15.2144 28.5272 15.2148 28.6413V28.6413Z" stroke="#644E77" stroke-width="0.970903" stroke-miterlimit="10"/>
</g>
<defs>
<clipPath id="clip0">
<rect width="103" height="38.1482" fill="white" transform="translate(0 0.664062)"/>
</clipPath>
</defs>
</svg>
