<svg width="105" height="33" viewBox="0 0 105 33" fill="none" xmlns="http://www.w3.org/2000/svg">
<path d="M73.5055 23.463L76.6649 23.3809H76.6996C76.8177 24.1547 77.0299 24.9111 77.3315 25.6335L29.8467 26.8024C30.3077 26.1194 30.6703 25.3749 30.924 24.5909L73.5055 23.463Z" fill="white"/>
<path d="M85.7056 20.2578C85.8931 20.2578 86.0763 20.3134 86.2322 20.4175C86.3881 20.5217 86.5095 20.6697 86.5813 20.8429C86.653 21.0161 86.6718 21.2067 86.6352 21.3905C86.5986 21.5744 86.5084 21.7433 86.3758 21.8758C86.2433 22.0084 86.0744 22.0986 85.8905 22.1352C85.7067 22.1718 85.5161 22.153 85.3429 22.0813C85.1697 22.0095 85.0217 21.8881 84.9176 21.7322C84.8134 21.5763 84.7578 21.3931 84.7578 21.2056C84.7578 20.9542 84.8577 20.7132 85.0354 20.5354C85.2132 20.3577 85.4542 20.2578 85.7056 20.2578Z" fill="white"/>
<path d="M85.8874 15.2363C87.069 15.2363 88.2241 15.5867 89.2065 16.2432C90.189 16.8996 90.9547 17.8327 91.4069 18.9244C91.8591 20.016 91.9774 21.2173 91.7469 22.3762C91.5164 23.5351 90.9474 24.5996 90.1119 25.4351C89.2763 26.2706 88.2118 26.8396 87.0529 27.0701C85.894 27.3007 84.6928 27.1823 83.6011 26.7302C82.5095 26.278 81.5764 25.5122 80.9199 24.5298C80.2635 23.5473 79.9131 22.3922 79.9131 21.2106C79.9131 19.6261 80.5425 18.1066 81.6629 16.9862C82.7833 15.8658 84.3029 15.2363 85.8874 15.2363ZM86.6456 21.2012C86.6456 21.0137 86.59 20.8305 86.4859 20.6746C86.3818 20.5187 86.2337 20.3972 86.0605 20.3255C85.8873 20.2538 85.6968 20.235 85.5129 20.2716C85.3291 20.3081 85.1602 20.3984 85.0276 20.531C84.8951 20.6635 84.8048 20.8324 84.7682 21.0162C84.7317 21.2001 84.7504 21.3907 84.8222 21.5639C84.8939 21.7371 85.0154 21.8851 85.1713 21.9892C85.3271 22.0934 85.5104 22.149 85.6978 22.149C85.9492 22.149 86.1903 22.0491 86.368 21.8713C86.5458 21.6936 86.6456 21.4525 86.6456 21.2012Z" fill="white"/>
<path d="M85.846 13.3477C87.3931 13.3477 88.9055 13.8064 90.1919 14.666C91.4783 15.5255 92.481 16.7472 93.073 18.1766C93.6651 19.606 93.82 21.1788 93.5182 22.6963C93.2163 24.2137 92.4713 25.6075 91.3773 26.7015C90.2833 27.7955 88.8895 28.5405 87.3721 28.8424C85.8546 29.1442 84.2818 28.9893 82.8524 28.3972C81.423 27.8052 80.2013 26.8025 79.3418 25.5161C78.4822 24.2297 78.0234 22.7173 78.0234 21.1702C78.0234 19.0955 78.8476 17.1058 80.3146 15.6388C81.7816 14.1718 83.7713 13.3477 85.846 13.3477ZM91.8487 21.2112C91.8493 20.0294 91.4994 18.8739 90.8432 17.8909C90.1869 16.908 89.2539 16.1417 88.1621 15.6892C87.0703 15.2366 85.8688 15.118 84.7096 15.3484C83.5504 15.5788 82.4856 16.1479 81.6499 16.9836C80.8142 17.8193 80.2451 18.8841 80.0147 20.0433C79.7843 21.2025 79.9029 22.404 80.3555 23.4958C80.808 24.5876 81.5743 25.5206 82.5572 26.1769C83.5402 26.8331 84.6957 27.183 85.8776 27.1824C86.6624 27.1832 87.4397 27.0294 88.165 26.7297C88.8904 26.4301 89.5496 25.9904 90.105 25.4359C90.6604 24.8814 91.1011 24.2229 91.4019 23.498C91.7027 22.7731 91.8578 21.9961 91.8582 21.2112H91.8487Z" fill="#DEDFE0"/>
<path d="M62.7455 12.5455C62.6572 12.5407 62.5708 12.5184 62.4911 12.48C62.4115 12.4416 62.3402 12.3878 62.2815 12.3217C62.2227 12.2556 62.1777 12.1786 62.1489 12.095C62.12 12.0114 62.1081 11.9229 62.1136 11.8347L62.1389 11.4492L65.5383 11.484L65.4783 12.0495C65.46 12.217 65.3787 12.3713 65.2507 12.481C65.1228 12.5908 64.958 12.6477 64.7896 12.6403L62.7455 12.5455Z" fill="white"/>
<path d="M77.8228 5.40686L68.1584 10.07C68.1584 10.07 52.6587 9.89943 46.002 9.89943C61.271 -0.336816 77.8228 5.40686 77.8228 5.40686Z" fill="white"/>
<path d="M43.398 16.0059L41.1865 22.988L40.365 23.0543L38.6211 23.146V23.1333L41.4361 16.0532V16.028L43.398 16.0059Z" fill="white"/>
<path d="M41.437 16.0273V16.0526L38.622 23.1327L36.1641 23.2622L38.5399 17.2595C38.6823 16.8994 38.9288 16.5899 39.2478 16.3705C39.5669 16.151 39.944 16.0316 40.3312 16.0273H41.437Z" fill="white"/>
<path d="M22.3245 21.2715C22.5009 21.2715 22.6733 21.3238 22.8198 21.4219C22.9664 21.5199 23.0806 21.6592 23.1479 21.8222C23.2153 21.9852 23.2327 22.1645 23.1981 22.3374C23.1635 22.5103 23.0783 22.6691 22.9534 22.7935C22.8285 22.918 22.6694 23.0026 22.4964 23.0366C22.3234 23.0706 22.1441 23.0525 21.9814 22.9846C21.8187 22.9167 21.6797 22.802 21.5822 22.6551C21.4847 22.5082 21.433 22.3356 21.4336 22.1593C21.4336 22.0424 21.4567 21.9267 21.5015 21.8188C21.5463 21.7109 21.612 21.6129 21.6947 21.5304C21.7775 21.4479 21.8757 21.3826 21.9838 21.3382C22.0919 21.2937 22.2077 21.2711 22.3245 21.2715Z" fill="white"/>
<path d="M22.4829 16.5176C23.6001 16.5176 24.6923 16.8489 25.6212 17.4696C26.5502 18.0903 27.2742 18.9725 27.7018 20.0047C28.1293 21.0369 28.2412 22.1727 28.0232 23.2685C27.8053 24.3643 27.2673 25.3708 26.4772 26.1608C25.6872 26.9509 24.6807 27.4889 23.5849 27.7068C22.4891 27.9248 21.3533 27.8129 20.3211 27.3854C19.2889 26.9578 18.4067 26.2338 17.786 25.3048C17.1653 24.3759 16.834 23.2837 16.834 22.1665C16.834 20.6683 17.4291 19.2315 18.4885 18.1721C19.5479 17.1127 20.9847 16.5176 22.4829 16.5176ZM23.2 22.157C23.2 21.9806 23.1477 21.8083 23.0497 21.6617C22.9516 21.5151 22.8123 21.4009 22.6493 21.3336C22.4863 21.2662 22.307 21.2488 22.1341 21.2834C21.9612 21.318 21.8025 21.4032 21.678 21.5281C21.5535 21.653 21.4689 21.8121 21.4349 21.9851C21.4009 22.1582 21.419 22.3374 21.4869 22.5001C21.5548 22.6629 21.6695 22.8018 21.8164 22.8993C21.9634 22.9968 22.1359 23.0485 22.3123 23.0479C22.4291 23.0479 22.5448 23.0249 22.6527 22.98C22.7607 22.9352 22.8587 22.8696 22.9411 22.7868C23.0236 22.704 23.0889 22.6058 23.1334 22.4977C23.1778 22.3896 23.2005 22.2738 23.2 22.157Z" fill="white"/>
<path d="M22.4449 14.7324C24.1964 14.7338 25.8906 15.3564 27.2262 16.4896C28.5617 17.6228 29.452 19.193 29.7386 20.9209C30.0251 22.6488 29.6895 24.4223 28.7913 25.926C27.8931 27.4296 26.4906 28.5659 24.8333 29.1327C23.3485 29.1853 21.9605 29.2443 20.6693 29.3096C18.9142 28.8771 17.3781 27.8167 16.3515 26.3288C15.3249 24.841 14.8787 23.0286 15.0972 21.2342C15.3158 19.4397 16.184 17.7875 17.5378 16.5896C18.8916 15.3916 20.6372 14.731 22.4449 14.7324ZM28.1317 22.1663C28.1317 21.0491 27.8004 19.9569 27.1797 19.028C26.559 18.099 25.6767 17.375 24.6445 16.9474C23.6123 16.5199 22.4765 16.408 21.3808 16.626C20.285 16.844 19.2784 17.382 18.4884 18.172C17.6984 18.962 17.1604 19.9685 16.9425 21.0643C16.7245 22.1601 16.8364 23.2959 17.2639 24.3281C17.6915 25.3603 18.4155 26.2425 19.3444 26.8632C20.2734 27.4839 21.3656 27.8152 22.4828 27.8152C23.981 27.8152 25.4178 27.2201 26.4772 26.1607C27.5365 25.1013 28.1317 23.6645 28.1317 22.1663Z" fill="#DEDFE0"/>
<path d="M1 26.0842L4.50054 22.6279L8.56029 21.7148L12.3989 24.4951L1.07898 26.0589L1.07582 26.0905L1 26.0842Z" fill="#DEDFE0"/>
<path d="M17.6149 11.9824C15.2738 12.6522 10.8855 16.6424 10.8855 16.6424L6.84473 17.7135C6.84473 17.7135 10.9045 14.3109 13.2708 13.4104C14.6262 12.9144 16.0795 12.4342 17.6149 11.9824Z" fill="#DEDFE0"/>
<path d="M99.258 14.2497C100.064 13.7758 101.59 13.7157 102.686 13.7442C101.703 16.4738 99.8424 19.472 96.3672 21.1528L95.8838 21.1117L95.9723 18.9855C95.9723 18.9855 98.0163 14.9826 99.258 14.2497Z" fill="#DEDFE0"/>
<path d="M96.374 21.1547C99.8493 19.474 101.704 16.4758 102.693 13.7461C103.429 13.765 103.975 13.8219 103.975 13.8219C103.975 13.8219 104.323 15.4679 102.421 18.82L103.321 19.4519L101.16 23.2841L94.3678 24.1056H94.3457C94.7371 23.1507 94.9512 22.1326 94.9776 21.101L95.8843 21.1263L96.374 21.1547Z" fill="#DEDFE0"/>
<path d="M43.3982 16.0064L41.4362 16.0285H40.3305C39.9433 16.0327 39.5661 16.1522 39.247 16.3716C38.928 16.591 38.6816 16.9005 38.5391 17.2606L36.1633 23.2633L38.6213 23.1338L40.3652 23.0422L41.1866 22.9758L43.3982 16.0064ZM46.0015 9.89936C52.6582 9.89936 68.1579 10.07 68.1579 10.07L77.8223 5.40994C77.8223 5.40994 61.2705 -0.33373 46.0015 9.89936ZM73.5066 23.4655L30.9283 24.5808C31.2652 23.5342 31.4013 22.4333 31.3295 21.3361C31.0136 16.4171 26.6632 12.6954 21.6146 13.0208C16.5659 13.3462 12.7273 17.5955 13.0433 22.5146C13.1476 24.1033 13.6852 25.633 14.5977 26.9377V26.9819L1.08203 26.0815V26.0499L12.4019 24.4702L8.56334 21.69L4.50359 22.603L4.59521 22.5114C4.59521 22.5114 2.69961 19.4911 2.12461 18.7013C2.10691 18.6764 2.09462 18.6482 2.08852 18.6183C2.08242 18.5884 2.08265 18.5576 2.0892 18.5279C2.09575 18.4981 2.10847 18.47 2.12654 18.4455C2.14462 18.4209 2.16764 18.4004 2.19412 18.3853C5.74078 16.41 9.44707 14.736 13.2739 13.3809C10.9076 14.3129 6.84466 17.7156 6.84466 17.7156L10.8854 16.654C10.8854 16.654 15.2738 12.6638 17.6148 11.994C23.6966 10.1963 31.0641 8.83466 38.8203 9.23906C59.5771 -7.07891 98.7402 8.41131 98.7402 8.41131L103.795 7.7984C103.743 9.83097 103.367 11.8423 102.683 13.7569C101.587 13.7285 100.061 13.7885 99.2552 14.2624C98.0136 14.9954 95.9758 19.0014 95.9758 19.0014L95.8874 21.1276L94.9806 21.1024C94.9964 20.8203 94.9964 20.5377 94.9806 20.2557C94.6647 15.3366 90.2764 11.6149 85.1867 11.9434C80.097 12.272 76.2205 16.5245 76.5396 21.4436C76.5901 22.2208 76.6123 22.8021 76.6976 23.3897H76.6628L73.5066 23.4655ZM65.4756 12.054L65.5356 11.4885L62.133 11.4538L62.1078 11.8392C62.1022 11.9274 62.1142 12.0159 62.143 12.0995C62.1718 12.1831 62.2169 12.2602 62.2756 12.3262C62.3344 12.3923 62.4056 12.4461 62.4852 12.4845C62.5649 12.5229 62.6513 12.5452 62.7396 12.55L64.7774 12.6448C64.9468 12.6539 65.1133 12.5977 65.2426 12.4878C65.3718 12.3779 65.4541 12.2227 65.4725 12.054H65.4756Z" fill="white"/>
<path d="M54.7562 28.6582C79.2884 28.6582 99.1764 29.4733 99.1764 30.4748C99.1764 31.4763 79.2884 32.2914 54.7562 32.2914C30.2239 32.2914 10.3359 31.4763 10.3359 30.4748C10.3359 30.0325 14.2188 29.6281 20.6701 29.3122C21.2508 29.4573 21.8471 29.5305 22.4457 29.5302C23.2581 29.5308 24.0651 29.3974 24.8341 29.1353C32.7293 28.8383 43.2278 28.6582 54.7562 28.6582Z" fill="#DEDFE0"/>
<path d="M20.6699 29.3097C21.9589 29.2465 23.3469 29.1876 24.8339 29.1328C24.0649 29.395 23.2579 29.5284 22.4455 29.5277C21.8469 29.5281 21.2506 29.4548 20.6699 29.3097Z" fill="#DEDFE0"/>
<path d="M77.3294 25.6264C77.0277 24.9041 76.8155 24.1476 76.6975 23.3738C76.6122 22.7862 76.5901 22.2048 76.5395 21.4276C76.2236 16.5086 80.0938 12.2656 85.1866 11.9275C90.2795 11.5895 94.6646 15.3207 94.9806 20.2397C94.9963 20.5217 94.9963 20.8044 94.9806 21.0864C94.9542 22.118 94.74 23.1361 94.3487 24.091C94.3396 24.1189 94.329 24.1463 94.3171 24.1731" stroke="#644E77" stroke-width="1.65156" stroke-linecap="round" stroke-linejoin="round"/>
<path d="M29.84 26.7969C29.8297 26.8163 29.8182 26.835 29.8057 26.853" stroke="#644E77" stroke-width="1.65156" stroke-linecap="round" stroke-linejoin="round"/>
<path d="M30.923 24.5801C30.6693 25.3641 30.3067 26.1086 29.8457 26.7916" stroke="#644E77" stroke-width="1.65156" stroke-linecap="round" stroke-linejoin="round"/>
<path d="M14.5941 26.9491C13.6816 25.6445 13.144 24.1147 13.0397 22.5261C12.7237 17.607 16.5592 13.364 21.611 13.0481C26.6627 12.7321 31.01 16.4443 31.3259 21.3634C31.3977 22.4606 31.2616 23.5614 30.9247 24.6081" stroke="#644E77" stroke-width="1.65156" stroke-linecap="round" stroke-linejoin="round"/>
<path d="M38.8223 9.22656C40.2966 9.30239 41.7857 9.44666 43.2896 9.65939" stroke="#644E77" stroke-width="1.65156" stroke-linecap="round" stroke-linejoin="round"/>
<path d="M14.9674 27.0164L14.5915 26.9911L1.07582 26.0907H1L4.50054 22.6344L4.59216 22.5428C4.59216 22.5428 2.69656 19.5224 2.12156 18.7326C2.10386 18.7078 2.09157 18.6795 2.08547 18.6497C2.07937 18.6198 2.0796 18.589 2.08615 18.5592C2.0927 18.5294 2.10542 18.5014 2.1235 18.4768C2.14157 18.4523 2.16459 18.4318 2.19107 18.4167C5.73774 16.4413 9.44402 14.7673 13.2709 13.4123C14.6262 12.9258 16.0795 12.4424 17.6149 11.9906C23.6967 10.1929 31.0642 8.83125 38.8204 9.23565" stroke="#644E77" stroke-width="1.65156" stroke-linecap="round" stroke-linejoin="round"/>
<path d="M38.8203 9.22734C59.5771 -7.09063 98.7403 8.39959 98.7403 8.39959L103.795 7.78668C103.743 9.81925 103.367 11.8305 102.683 13.7452C101.701 16.4749 99.8397 19.4731 96.3644 21.1538H96.3328" stroke="#644E77" stroke-width="1.65156" stroke-linecap="round" stroke-linejoin="round"/>
<path d="M96.5191 21.1677H96.3738L95.8904 21.1266L95.9789 19.0004C95.9789 19.0004 98.0167 14.9975 99.2583 14.2614C100.064 13.7875 101.59 13.7275 102.686 13.7559C103.422 13.7748 103.969 13.8317 103.969 13.8317C103.969 13.8317 104.316 15.4777 102.414 18.8298L103.315 19.4616L101.154 23.2939L94.3613 24.1153" stroke="#644E77" stroke-width="1.65156" stroke-linecap="round" stroke-linejoin="round"/>
<path d="M77.3288 25.627L29.844 26.7959H29.8408" stroke="#644E77" stroke-width="1.65156" stroke-linecap="round" stroke-linejoin="round"/>
<path d="M76.6532 23.3809L73.5034 23.463L30.925 24.5782H30.9219" stroke="#644E77" stroke-width="0.82578" stroke-linecap="round" stroke-linejoin="round"/>
<path d="M68.1584 10.0712C68.1584 10.0712 52.6587 9.90064 46.002 9.90064C61.271 -0.332442 77.8228 5.41123 77.8228 5.41123L68.1584 10.0712Z" stroke="#644E77" stroke-width="1.23867" stroke-linecap="round" stroke-linejoin="round"/>
<path d="M94.4656 7.26204C94.4656 7.26204 85.7143 4.30174 75.1621 9.5336" stroke="#644E77" stroke-width="0.82578" stroke-linecap="round" stroke-linejoin="round"/>
<path d="M73.5286 23.5713L73.5033 23.4639C73.3485 22.753 72.6219 18.5796 75.6454 14.207" stroke="#644E77" stroke-width="0.82578" stroke-linecap="round" stroke-linejoin="round"/>
<path d="M67.8737 10.069L67.9242 12.1005C67.938 12.7437 67.7845 13.3794 67.4788 13.9455L63.201 21.8154L41.1868 22.9749L43.3983 15.9928L43.9543 14.233C44.0533 13.9208 44.0779 13.5897 44.0263 13.2662C43.9747 12.9428 43.8483 12.6358 43.6572 12.3698C43.466 12.1038 43.2154 11.8861 42.9253 11.734C42.6352 11.582 42.3136 11.4997 41.9861 11.4939L31.8193 11.3012L34.2299 9.25391" stroke="#644E77" stroke-width="0.82578" stroke-linecap="round" stroke-linejoin="round"/>
<path d="M62.1326 11.4492L65.532 11.484L65.472 12.0495C65.4537 12.217 65.3723 12.3713 65.2444 12.481C65.1165 12.5908 64.9516 12.6477 64.7833 12.6403L62.7455 12.5455C62.6572 12.5407 62.5708 12.5184 62.4911 12.48C62.4115 12.4416 62.3402 12.3878 62.2815 12.3217C62.2227 12.2556 62.1777 12.1786 62.1489 12.095C62.12 12.0114 62.1081 11.9229 62.1136 11.8347L62.1326 11.4492Z" stroke="#644E77" stroke-width="0.82578" stroke-linecap="round" stroke-linejoin="round"/>
<path d="M20.6697 29.3129C18.8438 28.8592 17.2598 27.7258 16.241 26.144C15.2223 24.5622 14.8455 22.6513 15.1876 20.8012C15.5298 18.9511 16.565 17.3013 18.0821 16.1884C19.5991 15.0756 21.4837 14.5836 23.3511 14.8129C25.2186 15.0422 26.9281 15.9754 28.131 17.4222C29.3338 18.869 29.9392 20.7202 29.8236 22.5981C29.708 24.476 28.8802 26.2391 27.509 27.5274C26.1378 28.8158 24.3267 29.5323 22.4453 29.5309C21.8467 29.5312 21.2504 29.458 20.6697 29.3129V29.3129Z" stroke="#644E77" stroke-width="1.23867" stroke-linecap="round" stroke-linejoin="round"/>
<path d="M22.4829 27.8154C25.6027 27.8154 28.1318 25.2863 28.1318 22.1665C28.1318 19.0467 25.6027 16.5176 22.4829 16.5176C19.3631 16.5176 16.834 19.0467 16.834 22.1665C16.834 25.2863 19.3631 27.8154 22.4829 27.8154Z" stroke="#644E77" stroke-width="0.82578" stroke-linecap="round" stroke-linejoin="round"/>
<path d="M21.4219 22.1585C21.4219 21.9823 21.4741 21.8101 21.572 21.6635C21.6699 21.517 21.8091 21.4028 21.9719 21.3354C22.1347 21.268 22.3138 21.2503 22.4866 21.2847C22.6594 21.3191 22.8182 21.4039 22.9428 21.5285C23.0674 21.6531 23.1522 21.8119 23.1866 21.9847C23.221 22.1575 23.2034 22.3367 23.1359 22.4995C23.0685 22.6623 22.9543 22.8014 22.8078 22.8993C22.6613 22.9972 22.489 23.0494 22.3128 23.0494C22.1957 23.0499 22.0797 23.0271 21.9714 22.9825C21.8631 22.9378 21.7647 22.8722 21.6819 22.7894C21.5991 22.7066 21.5335 22.6082 21.4888 22.4999C21.4442 22.3917 21.4215 22.2756 21.4219 22.1585V22.1585Z" stroke="#644E77" stroke-width="0.82578" stroke-linecap="round" stroke-linejoin="round"/>
<path d="M78.0234 21.1714C78.0228 19.6241 78.4811 18.1114 79.3402 16.8246C80.1994 15.5377 81.4209 14.5346 82.8502 13.9421C84.2795 13.3495 85.8525 13.1942 87.3701 13.4956C88.8877 13.7971 90.2819 14.5419 91.3762 15.6357C92.4705 16.7296 93.2158 18.1235 93.5179 19.641C93.82 21.1585 93.6653 22.7315 93.0733 24.161C92.4813 25.5906 91.4787 26.8125 90.1922 27.6722C88.9058 28.5319 87.3932 28.9907 85.846 28.9907C83.7721 28.9899 81.7834 28.1659 80.3166 26.6998C78.8499 25.2336 78.0251 23.2452 78.0234 21.1714V21.1714Z" stroke="#644E77" stroke-width="1.23867" stroke-linecap="round" stroke-linejoin="round"/>
<path d="M79.9131 21.2118C79.9125 20.0301 80.2623 18.8747 80.9184 17.8918C81.5745 16.909 82.5073 16.1427 83.5989 15.6901C84.6905 15.2374 85.8919 15.1186 87.051 15.3488C88.2101 15.579 89.2749 16.1477 90.1107 16.9831C90.9466 17.8185 91.5159 18.883 91.7467 20.042C91.9774 21.201 91.8593 22.4024 91.4072 23.4942C90.9551 24.5861 90.1894 25.5193 89.2069 26.1759C88.2243 26.8325 87.0691 27.183 85.8874 27.183C84.3035 27.183 82.7843 26.554 81.664 25.4343C80.5437 24.3146 79.9139 22.7958 79.9131 21.2118Z" stroke="#644E77" stroke-width="0.82578" stroke-linecap="round" stroke-linejoin="round"/>
<path d="M84.7666 21.2017C84.7666 21.0142 84.8222 20.831 84.9263 20.6751C85.0305 20.5193 85.1785 20.3978 85.3517 20.3261C85.5249 20.2543 85.7155 20.2355 85.8993 20.2721C86.0832 20.3087 86.252 20.399 86.3846 20.5315C86.5171 20.6641 86.6074 20.8329 86.644 21.0168C86.6806 21.2007 86.6618 21.3912 86.5901 21.5644C86.5183 21.7376 86.3968 21.8856 86.241 21.9898C86.0851 22.0939 85.9019 22.1495 85.7144 22.1495C85.463 22.1495 85.2219 22.0497 85.0442 21.8719C84.8665 21.6942 84.7666 21.4531 84.7666 21.2017Z" stroke="#644E77" stroke-width="0.82578" stroke-linecap="round" stroke-linejoin="round"/>
<path d="M49.329 15.9375L43.3989 16.0038L41.437 16.026H40.3312C39.944 16.0302 39.5669 16.1496 39.2478 16.3691C38.9288 16.5885 38.6823 16.898 38.5399 17.2581L36.1641 23.2608L38.622 23.1313L40.366 23.0397" stroke="#644E77" stroke-width="0.82578" stroke-linecap="round" stroke-linejoin="round"/>
<path d="M41.4361 16.0527L38.6211 23.1328" stroke="#644E77" stroke-width="0.82578" stroke-linecap="round" stroke-linejoin="round"/>
<path d="M4.49434 22.6279H4.50066L8.56041 21.7148L12.399 24.4951L1.0791 26.0589" stroke="#644E77" stroke-width="0.82578" stroke-linecap="round" stroke-linejoin="round"/>
<path d="M17.6181 11.9902C15.277 12.66 10.8887 16.6503 10.8887 16.6503L6.84473 17.7118C6.84473 17.7118 10.9045 14.3092 13.2708 13.4088" stroke="#644E77" stroke-width="0.82578" stroke-linecap="round" stroke-linejoin="round"/>
</svg>
