<svg width="105" height="50" viewBox="0 0 105 50" fill="none" xmlns="http://www.w3.org/2000/svg">
<path d="M27.0756 37.8674L80.5048 36.6758H80.5537C80.5199 37.0179 80.5011 37.3637 80.5011 37.7171C80.5015 38.3167 80.5518 38.9152 80.6515 39.5064L26.9102 39.6831C27.0175 39.0801 27.0716 38.4687 27.0718 37.8562L27.0756 37.8674Z" fill="white"/>
<path d="M97.4467 16.5997C94.6193 13.171 92.5318 9.19436 91.3154 4.91992C91.3154 4.91992 95.3566 8.3483 97.4467 16.5997Z" fill="white"/>
<path d="M33.3022 11.3691C33.2158 11.5496 30.3851 17.2936 30.1407 18.5116L25.5996 18.8875C25.4644 18.8971 25.3293 18.868 25.21 18.8036C25.0908 18.7393 24.9922 18.6423 24.926 18.524C24.8598 18.4058 24.8286 18.2711 24.836 18.1358C24.8435 18.0004 24.8893 17.87 24.9681 17.7598C26.4116 15.8087 28.8852 13.9592 33.3022 11.3691Z" fill="white"/>
<path d="M60.1386 2.4862C60.3902 2.47451 60.6412 2.51914 60.8733 2.61682C61.1054 2.7145 61.3127 2.86276 61.4802 3.0508C61.6477 3.23883 61.7711 3.46189 61.8415 3.7037C61.9118 3.9455 61.9272 4.19996 61.8866 4.44849L60.0522 15.914C60.042 15.981 60.0093 16.0425 59.9593 16.0883C59.9094 16.1341 59.8453 16.1615 59.7777 16.1659L30.1328 18.5078C30.3772 17.2936 33.2078 11.5496 33.2943 11.3654C35.1739 10.2677 37.3843 9.03469 40.0232 7.6062C47.6581 3.4899 56.2742 2.64784 60.1386 2.4862Z" fill="white"/>
<path d="M85.5346 5.03202C87.3277 5.51695 87.1886 6.72741 86.5421 7.83637C85.8955 8.94533 84.1663 11.7534 83.6738 12.4677C83.1814 13.1819 82.64 14.539 79.8846 14.7232C77.1291 14.9074 62.7051 16.0239 62.7051 16.0239L64.3817 2.49081C73.1819 2.09234 83.7377 4.54709 85.5346 5.03202Z" fill="white"/>
<path d="M91.3161 37.2383C91.5547 37.2383 91.788 37.3091 91.9865 37.4416C92.1849 37.5742 92.3396 37.7627 92.4309 37.9832C92.5223 38.2037 92.5462 38.4463 92.4996 38.6804C92.453 38.9145 92.3381 39.1295 92.1693 39.2982C92.0006 39.467 91.7856 39.5819 91.5515 39.6285C91.3174 39.6751 91.0748 39.6512 90.8543 39.5598C90.6338 39.4685 90.4453 39.3138 90.3127 39.1154C90.1801 38.9169 90.1094 38.6836 90.1094 38.445C90.1094 38.1249 90.2365 37.818 90.4628 37.5917C90.6891 37.3654 90.996 37.2383 91.3161 37.2383Z" fill="white"/>
<path d="M95.5164 38.4477C95.5166 38.6211 95.5053 38.7944 95.4825 38.9664H94.3172C94.1636 38.9664 94.0164 38.9054 93.9078 38.7969C93.7993 38.6883 93.7383 38.541 93.7383 38.3875C93.7383 38.234 93.7993 38.0867 93.9078 37.9782C94.0164 37.8696 94.1636 37.8086 94.3172 37.8086H95.4675C95.501 38.0199 95.5173 38.2337 95.5164 38.4477Z" fill="white"/>
<path d="M93.8934 40.1142L94.7054 40.9261C94.4774 41.2417 94.2052 41.5228 93.8972 41.7607L93.0701 40.9337C93.009 40.8814 92.9594 40.817 92.9243 40.7446C92.8893 40.6721 92.8697 40.5933 92.8666 40.5129C92.8636 40.4325 92.8772 40.3523 92.9067 40.2775C92.9362 40.2026 92.9808 40.1347 93.0378 40.0779C93.0948 40.0212 93.163 39.9768 93.238 39.9477C93.313 39.9186 93.3932 39.9053 93.4735 39.9087C93.5539 39.9121 93.6327 39.9321 93.705 39.9675C93.7772 40.0029 93.8414 40.0528 93.8934 40.1142Z" fill="white"/>
<path d="M91.9567 42.6002C91.7453 42.6337 91.5316 42.65 91.3176 42.649C91.1441 42.6493 90.9708 42.638 90.7988 42.6152V41.4461C90.7988 41.2926 90.8598 41.1453 90.9684 41.0368C91.077 40.9282 91.2242 40.8672 91.3777 40.8672C91.5313 40.8672 91.6785 40.9282 91.7871 41.0368C91.8957 41.1453 91.9567 41.2926 91.9567 41.4461V42.6002Z" fill="white"/>
<path d="M89.6486 40.2028C89.7565 40.3119 89.817 40.4591 89.817 40.6125C89.817 40.766 89.7565 40.9132 89.6486 41.0223L88.8366 41.8343C88.5205 41.6083 88.2404 41.3358 88.0059 41.026L88.8291 40.2028C88.8826 40.1485 88.9464 40.1053 89.0168 40.0759C89.0871 40.0464 89.1626 40.0312 89.2389 40.0312C89.3151 40.0312 89.3906 40.0464 89.461 40.0759C89.5313 40.1053 89.5951 40.1485 89.6486 40.2028Z" fill="white"/>
<path d="M88.3182 37.9316C88.4718 37.9316 88.619 37.9926 88.7276 38.1012C88.8361 38.2098 88.8971 38.357 88.8971 38.5106C88.8971 38.6641 88.8361 38.8113 88.7276 38.9199C88.619 39.0285 88.4718 39.0895 88.3182 39.0895H87.1641C87.1306 38.8781 87.1143 38.6644 87.1153 38.4504C87.1151 38.2769 87.1264 38.1036 87.1491 37.9316H88.3182Z" fill="white"/>
<path d="M89.5631 35.96C89.6718 36.0687 89.7329 36.216 89.7329 36.3697C89.7329 36.5234 89.6718 36.6708 89.5631 36.7795C89.4545 36.8882 89.3071 36.9492 89.1534 36.9492C88.9997 36.9492 88.8523 36.8882 88.7436 36.7795L87.9316 35.9675C88.1576 35.6514 88.4301 35.3713 88.7399 35.1367L89.5631 35.96Z" fill="white"/>
<path d="M90.6787 34.297C90.8901 34.2635 91.1038 34.2471 91.3178 34.2481C91.4913 34.2479 91.6646 34.2592 91.8365 34.2819V35.451C91.8365 35.5271 91.8216 35.6023 91.7925 35.6726C91.7634 35.7428 91.7207 35.8066 91.667 35.8604C91.6132 35.9141 91.5494 35.9568 91.4792 35.9859C91.4089 36.015 91.3337 36.0299 91.2576 36.0299C91.1816 36.0299 91.1063 36.015 91.0361 35.9859C90.9659 35.9568 90.902 35.9141 90.8483 35.8604C90.7945 35.8066 90.7519 35.7428 90.7228 35.6726C90.6937 35.6023 90.6787 35.5271 90.6787 35.451V34.297Z" fill="white"/>
<path d="M94.629 35.8694C95.0711 36.4314 95.3599 37.0985 95.4673 37.8054H94.317C94.1634 37.8054 94.0162 37.8664 93.9076 37.975C93.799 38.0835 93.7381 38.2308 93.7381 38.3843C93.7381 38.5379 93.799 38.6851 93.9076 38.7937C94.0162 38.9023 94.1634 38.9632 94.317 38.9632H95.4823C95.3971 39.6736 95.1289 40.3498 94.7042 40.9255L93.8922 40.1136C93.8402 40.0522 93.776 40.0022 93.7037 39.9669C93.6315 39.9315 93.5527 39.9115 93.4723 39.9081C93.3919 39.9047 93.3117 39.918 93.2367 39.9471C93.1618 39.9762 93.0936 40.0206 93.0366 40.0773C92.9796 40.1341 92.9349 40.202 92.9055 40.2769C92.876 40.3517 92.8624 40.4319 92.8654 40.5123C92.8684 40.5926 92.8881 40.6715 92.9231 40.744C92.9581 40.8164 93.0078 40.8808 93.0689 40.9331L93.8959 41.7601C93.3329 42.2028 92.6645 42.4917 91.9562 42.5984V41.4443C91.9562 41.2908 91.8952 41.1435 91.7866 41.0349C91.6781 40.9264 91.5308 40.8654 91.3773 40.8654C91.2237 40.8654 91.0765 40.9264 90.9679 41.0349C90.8594 41.1435 90.7984 41.2908 90.7984 41.4443V42.6134C90.0873 42.5284 89.4108 42.2588 88.8361 41.8315L89.6481 41.0195C89.756 40.9104 89.8165 40.7632 89.8165 40.6098C89.8165 40.4563 89.756 40.3091 89.6481 40.2C89.5945 40.1457 89.5308 40.1025 89.4604 40.0731C89.3901 40.0436 89.3146 40.0285 89.2383 40.0285C89.162 40.0285 89.0865 40.0436 89.0162 40.0731C88.9458 40.1025 88.8821 40.1457 88.8286 40.2L88.0241 41.027C87.579 40.465 87.2887 39.7963 87.182 39.0873H88.3361C88.4896 39.0873 88.6369 39.0263 88.7455 38.9177C88.854 38.8092 88.915 38.6619 88.915 38.5084C88.915 38.3548 88.854 38.2076 88.7455 38.099C88.6369 37.9905 88.4896 37.9295 88.3361 37.9295H87.167C87.252 37.2184 87.5216 36.5419 87.9489 35.9672L88.7609 36.7792C88.8696 36.8878 89.0169 36.9489 89.1706 36.9489C89.3243 36.9489 89.4717 36.8878 89.5804 36.7792C89.6891 36.6705 89.7501 36.5231 89.7501 36.3694C89.7501 36.2157 89.6891 36.0683 89.5804 35.9597L88.7571 35.1364C89.3192 34.6913 89.9879 34.401 90.6969 34.2943V35.4484C90.6969 35.5244 90.7118 35.5997 90.7409 35.6699C90.77 35.7402 90.8127 35.804 90.8664 35.8578C90.9202 35.9115 90.984 35.9542 91.0542 35.9833C91.1245 36.0123 91.1998 36.0273 91.2758 36.0273C91.3518 36.0273 91.4271 36.0123 91.4973 35.9833C91.5676 35.9542 91.6314 35.9115 91.6851 35.8578C91.7389 35.804 91.7815 35.7402 91.8106 35.6699C91.8397 35.5997 91.8547 35.5244 91.8547 35.4484V34.2793C92.5658 34.3643 93.2423 34.6339 93.817 35.0612L93.005 35.8732C92.8963 35.9819 92.8353 36.1293 92.8353 36.2829C92.8353 36.4366 92.8963 36.584 93.005 36.6927C93.1137 36.8014 93.2611 36.8624 93.4148 36.8624C93.5684 36.8624 93.7158 36.8014 93.8245 36.6927L94.629 35.8694ZM92.5351 38.4482C92.5359 38.2093 92.4656 37.9754 92.3333 37.7764C92.201 37.5774 92.0126 37.4222 91.7919 37.3304C91.5713 37.2386 91.3283 37.2143 91.0939 37.2608C90.8595 37.3072 90.6441 37.4222 90.4752 37.5912C90.3062 37.7602 90.1912 37.9756 90.1447 38.21C90.0983 38.4444 90.1225 38.6874 90.2143 38.908C90.3061 39.1286 90.4613 39.3171 90.6604 39.4494C90.8594 39.5817 91.0932 39.6519 91.3322 39.6512C91.6509 39.6502 91.9563 39.5231 92.1817 39.2977C92.4071 39.0724 92.5341 38.767 92.5351 38.4482Z" fill="white"/>
<path d="M94.6269 35.8682L93.8037 36.6764C93.7499 36.7302 93.686 36.7729 93.6157 36.802C93.5454 36.8311 93.47 36.8461 93.3939 36.8461C93.3178 36.8461 93.2425 36.8311 93.1722 36.802C93.1019 36.7729 93.038 36.7302 92.9842 36.6764C92.9304 36.6226 92.8877 36.5587 92.8586 36.4884C92.8294 36.4181 92.8145 36.3428 92.8145 36.2667C92.8145 36.1906 92.8294 36.1152 92.8586 36.0449C92.8877 35.9746 92.9304 35.9107 92.9842 35.8569L93.7962 35.0449C94.1125 35.2765 94.3925 35.554 94.6269 35.8682Z" fill="white"/>
<path d="M91.3157 30.0313C93.1531 30.0302 94.9404 30.6305 96.4047 31.7405C97.8689 32.8504 98.9298 34.409 99.4253 36.1783C99.9208 37.9477 99.8237 39.8306 99.1488 41.5396C98.4739 43.2485 97.2583 44.6897 95.6876 45.6431C93.0562 45.4665 89.8834 45.3123 86.2671 45.1808C84.8543 44.1208 83.8107 42.6433 83.2841 40.9574C82.7576 39.2715 82.7747 37.4627 83.3331 35.787C83.8915 34.1114 84.9629 32.6539 86.3955 31.6209C87.8282 30.5879 89.5495 30.0318 91.3157 30.0313ZM95.4809 38.9668C95.5036 38.7948 95.5149 38.6215 95.5147 38.4481C95.5157 38.2341 95.4993 38.0204 95.4658 37.809C95.3591 37.1007 95.0702 36.4323 94.6275 35.8693C94.392 35.5604 94.112 35.288 93.7967 35.061C93.222 34.6337 92.5456 34.3641 91.8344 34.2791C91.6625 34.2564 91.4892 34.2451 91.3157 34.2453C91.1017 34.2443 90.888 34.2607 90.6766 34.2942C89.9676 34.4008 89.2989 34.6911 88.7369 35.1362C88.4271 35.3708 88.1546 35.6509 87.9286 35.967C87.5013 36.5417 87.2317 37.2182 87.1467 37.9293C87.124 38.1013 87.1127 38.2746 87.1129 38.4481C87.1119 38.6621 87.1283 38.8758 87.1618 39.0871C87.2684 39.7961 87.5587 40.4648 88.0038 41.0269C88.2384 41.3367 88.5185 41.6092 88.8346 41.8351C89.4093 42.2624 90.0858 42.532 90.7969 42.617C90.9689 42.6397 91.1422 42.651 91.3157 42.6508C91.5297 42.6518 91.7434 42.6355 91.9547 42.602C92.663 42.4952 93.3314 42.2064 93.8945 41.7637C94.2026 41.5257 94.4748 41.2447 94.7027 40.9291C95.1275 40.3534 95.3956 39.6772 95.4809 38.9668Z" fill="#DEDFE0"/>
<path d="M16.6609 37.2383C16.8998 37.2375 17.1334 37.3077 17.3324 37.4398C17.5313 37.572 17.6866 37.7602 17.7785 37.9806C17.8704 38.201 17.8948 38.4438 17.8487 38.6781C17.8025 38.9124 17.6879 39.1278 17.5193 39.2969C17.3507 39.466 17.1357 39.5814 16.9015 39.6282C16.6673 39.6751 16.4245 39.6514 16.2038 39.5602C15.9831 39.469 15.7944 39.3143 15.6616 39.1158C15.5289 38.9173 15.458 38.6838 15.458 38.445C15.458 38.1256 15.5846 37.8192 15.8101 37.593C16.0356 37.3669 16.3416 37.2393 16.6609 37.2383Z" fill="white"/>
<path d="M19.982 35.8682L19.1474 36.6764C19.0936 36.7302 19.0297 36.7729 18.9594 36.802C18.8891 36.8311 18.8138 36.8461 18.7377 36.8461C18.6616 36.8461 18.5862 36.8311 18.5159 36.802C18.4456 36.7729 18.3817 36.7302 18.3279 36.6764C18.2741 36.6226 18.2314 36.5587 18.2023 36.4884C18.1732 36.4181 18.1582 36.3428 18.1582 36.2667C18.1582 36.1906 18.1732 36.1152 18.2023 36.0449C18.2314 35.9746 18.2741 35.9107 18.3279 35.8569L19.1399 35.0449C19.4603 35.2756 19.7441 35.5531 19.982 35.8682Z" fill="white"/>
<path d="M20.8582 38.4477C20.8584 38.6211 20.8471 38.7944 20.8243 38.9664H19.659C19.5055 38.9664 19.3582 38.9054 19.2496 38.7969C19.1411 38.6883 19.0801 38.541 19.0801 38.3875C19.0801 38.234 19.1411 38.0867 19.2496 37.9782C19.3582 37.8696 19.5055 37.8086 19.659 37.8086H20.8093C20.8428 38.0199 20.8592 38.2337 20.8582 38.4477Z" fill="white"/>
<path d="M19.2303 40.1142L20.0423 40.9261C19.8144 41.2417 19.5422 41.5228 19.2341 41.7607L18.4071 40.9337C18.3459 40.8814 18.2963 40.817 18.2613 40.7446C18.2262 40.6721 18.2066 40.5933 18.2035 40.5129C18.2005 40.4325 18.2141 40.3523 18.2436 40.2775C18.2731 40.2026 18.3177 40.1347 18.3747 40.0779C18.4317 40.0212 18.4999 39.9768 18.5749 39.9477C18.6499 39.9186 18.7301 39.9053 18.8105 39.9087C18.8908 39.9121 18.9696 39.9321 19.0419 39.9675C19.1141 40.0029 19.1783 40.0528 19.2303 40.1142Z" fill="white"/>
<path d="M16.1406 42.6152V41.4461C16.1406 41.2926 16.2016 41.1453 16.3102 41.0368C16.4188 40.9282 16.566 40.8672 16.7195 40.8672C16.8731 40.8672 17.0203 40.9282 17.1289 41.0368C17.2375 41.1453 17.2985 41.2926 17.2985 41.4461V42.6002C17.0871 42.6337 16.8734 42.65 16.6594 42.649C16.4859 42.6493 16.3126 42.638 16.1406 42.6152Z" fill="white"/>
<path d="M14.9904 40.2028C15.0983 40.3119 15.1588 40.4591 15.1588 40.6125C15.1588 40.766 15.0983 40.9132 14.9904 41.0223L14.1784 41.8343C13.8623 41.6083 13.5822 41.3358 13.3477 41.026L14.1709 40.2028C14.2244 40.1485 14.2882 40.1053 14.3586 40.0759C14.4289 40.0464 14.5044 40.0312 14.5807 40.0312C14.6569 40.0312 14.7324 40.0464 14.8028 40.0759C14.8731 40.1053 14.9369 40.1485 14.9904 40.2028Z" fill="white"/>
<path d="M13.661 37.9316C13.8145 37.9316 13.9618 37.9926 14.0703 38.1012C14.1789 38.2098 14.2399 38.357 14.2399 38.5106C14.2399 38.6641 14.1789 38.8113 14.0703 38.9199C13.9618 39.0285 13.8145 39.0895 13.661 39.0895H12.5069C12.4734 38.8781 12.4571 38.6644 12.458 38.4504C12.4578 38.2769 12.4691 38.1036 12.4919 37.9316H13.661Z" fill="white"/>
<path d="M14.9039 35.96C14.9578 36.0138 15.0004 36.0777 15.0296 36.148C15.0587 36.2183 15.0737 36.2936 15.0737 36.3697C15.0737 36.4458 15.0587 36.5212 15.0296 36.5915C15.0004 36.6618 14.9578 36.7257 14.9039 36.7795C14.8501 36.8333 14.7863 36.876 14.716 36.9051C14.6456 36.9342 14.5703 36.9492 14.4942 36.9492C14.4181 36.9492 14.3427 36.9342 14.2724 36.9051C14.2021 36.876 14.1383 36.8333 14.0844 36.7795L13.2725 35.9675C13.4984 35.6514 13.7709 35.3713 14.0807 35.1367L14.9039 35.96Z" fill="white"/>
<path d="M16.0195 34.297C16.2309 34.2635 16.4446 34.2471 16.6586 34.2481C16.8321 34.2479 17.0054 34.2592 17.1774 34.2819V35.451C17.1774 35.6046 17.1164 35.7518 17.0078 35.8604C16.8992 35.9689 16.752 36.0299 16.5984 36.0299C16.4449 36.0299 16.2977 35.9689 16.1891 35.8604C16.0805 35.7518 16.0195 35.6046 16.0195 35.451V34.297Z" fill="white"/>
<path d="M19.9821 35.8694C20.4202 36.4326 20.7051 37.0995 20.8092 37.8054H19.6589C19.5053 37.8054 19.3581 37.8664 19.2495 37.975C19.1409 38.0835 19.0799 38.2308 19.0799 38.3843C19.0799 38.5379 19.1409 38.6851 19.2495 38.7937C19.3581 38.9023 19.5053 38.9632 19.6589 38.9632H20.8242C20.739 39.6736 20.4708 40.3498 20.046 40.9255L19.2303 40.1173C19.1783 40.0559 19.1141 40.006 19.0419 39.9706C18.9696 39.9353 18.8908 39.9153 18.8104 39.9119C18.7301 39.9085 18.6499 39.9217 18.5749 39.9509C18.4999 39.98 18.4317 40.0243 18.3747 40.0811C18.3177 40.1378 18.2731 40.2058 18.2436 40.2806C18.2141 40.3555 18.2005 40.4356 18.2035 40.516C18.2066 40.5964 18.2262 40.6753 18.2612 40.7477C18.2963 40.8201 18.3459 40.8845 18.407 40.9368L19.2341 41.7638C18.671 42.2065 18.0026 42.4954 17.2943 42.6021V41.4481C17.2943 41.2945 17.2333 41.1473 17.1248 41.0387C17.0162 40.9301 16.8689 40.8691 16.7154 40.8691C16.5619 40.8691 16.4146 40.9301 16.3061 41.0387C16.1975 41.1473 16.1365 41.2945 16.1365 41.4481V42.6172C15.4254 42.5322 14.7489 42.2626 14.1742 41.8353L14.9862 41.0233C15.0941 40.9142 15.1546 40.767 15.1546 40.6135C15.1546 40.4601 15.0941 40.3129 14.9862 40.2038C14.9327 40.1494 14.8689 40.1063 14.7985 40.0769C14.7282 40.0474 14.6527 40.0322 14.5764 40.0322C14.5002 40.0322 14.4247 40.0474 14.3543 40.0769C14.284 40.1063 14.2202 40.1494 14.1667 40.2038L13.3434 41.027C12.8983 40.465 12.608 39.7963 12.5014 39.0873H13.6554C13.809 39.0873 13.9562 39.0263 14.0648 38.9177C14.1734 38.8092 14.2343 38.6619 14.2343 38.5084C14.2343 38.3548 14.1734 38.2076 14.0648 38.099C13.9562 37.9905 13.809 37.9295 13.6554 37.9295H12.4863C12.5713 37.2184 12.8409 36.5419 13.2682 35.9672L14.0802 36.7792C14.1889 36.8878 14.3363 36.9489 14.49 36.9489C14.6437 36.9489 14.7911 36.8878 14.8997 36.7792C15.0084 36.6705 15.0695 36.5231 15.0695 36.3694C15.0695 36.2157 15.0084 36.0683 14.8997 35.9597L14.0765 35.1364C14.6385 34.6913 15.3072 34.401 16.0162 34.2943V35.4484C16.0162 35.6019 16.0772 35.7492 16.1858 35.8578C16.2943 35.9663 16.4416 36.0273 16.5951 36.0273C16.7487 36.0273 16.8959 35.9663 17.0045 35.8578C17.113 35.7492 17.174 35.6019 17.174 35.4484V34.2793C17.8851 34.3643 18.5616 34.6339 19.1363 35.0612L18.3243 35.8732C18.2157 35.9819 18.1546 36.1293 18.1546 36.2829C18.1546 36.4366 18.2157 36.584 18.3243 36.6927C18.433 36.8014 18.5804 36.8624 18.7341 36.8624C18.8878 36.8624 19.0352 36.8014 19.1438 36.6927L19.9821 35.8694ZM17.877 38.4482C17.8777 38.2094 17.8076 37.9757 17.6755 37.7768C17.5433 37.5779 17.3551 37.4226 17.1347 37.3307C16.9143 37.2388 16.6715 37.2144 16.4372 37.2605C16.2029 37.3066 15.9875 37.4213 15.8184 37.5899C15.6492 37.7585 15.5339 37.9735 15.4871 38.2077C15.4402 38.4419 15.4639 38.6847 15.5551 38.9054C15.6463 39.1261 15.801 39.3148 15.9995 39.4475C16.198 39.5803 16.4315 39.6512 16.6703 39.6512C16.9877 39.6482 17.2912 39.5203 17.515 39.2951C17.7387 39.0699 17.8647 38.7657 17.8657 38.4482H17.877Z" fill="white"/>
<path d="M16.66 30.0313C18.4482 30.0291 20.1906 30.5968 21.6344 31.652C23.0781 32.7072 24.1481 34.195 24.689 35.8995C25.2299 37.6039 25.2137 39.4364 24.6426 41.131C24.0715 42.8256 22.9753 44.2942 21.5131 45.3236C17.9794 45.4853 14.9909 45.6695 12.679 45.8687C11.0263 44.9821 9.71713 43.5689 8.95918 41.8534C8.20123 40.1379 8.03796 38.2184 8.49526 36.3995C8.95257 34.5806 10.0043 32.9666 11.4834 31.8136C12.9626 30.6606 14.7845 30.0346 16.66 30.035V30.0313ZM20.8251 38.9668C20.8479 38.7948 20.8592 38.6216 20.859 38.4481C20.86 38.2341 20.8436 38.0204 20.8101 37.809C20.7034 37.1007 20.4145 36.4323 19.9718 35.8693C19.7362 35.5604 19.4563 35.288 19.141 35.061C18.5663 34.6337 17.8898 34.3641 17.1787 34.2791C17.0067 34.2564 16.8334 34.2451 16.66 34.2453C16.446 34.2443 16.2323 34.2607 16.0209 34.2942C15.3119 34.4008 14.6432 34.6911 14.0812 35.1362C13.7714 35.3708 13.4989 35.6509 13.2729 35.967C12.8456 36.5417 12.576 37.2182 12.491 37.9293C12.4683 38.1013 12.457 38.2746 12.4572 38.4481C12.4562 38.6621 12.4726 38.8758 12.5061 39.0871C12.6127 39.7961 12.903 40.4648 13.3481 41.0269C13.5827 41.3367 13.8628 41.6092 14.1789 41.8351C14.7536 42.2624 15.4301 42.532 16.1412 42.617C16.3132 42.6397 16.4865 42.651 16.66 42.6508C16.874 42.6518 17.0877 42.6355 17.299 42.602C18.0073 42.4952 18.6757 42.2064 19.2388 41.7637C19.5469 41.5257 19.8191 41.2447 20.047 40.9291C20.4718 40.3534 20.7399 39.6772 20.8251 38.9668Z" fill="#DEDFE0"/>
<path d="M11.6385 19.5488C11.6385 19.5488 9.93187 22.6088 8.58985 23.8531C7.24782 25.0974 4.49609 25.6688 4.49609 25.6688C4.98515 24.2645 5.92999 23.0643 7.18015 22.2592C9.30409 20.8645 11.6385 19.5488 11.6385 19.5488Z" fill="white"/>
<path d="M4.49474 25.6683C4.49474 25.6683 7.24646 25.0969 8.58849 23.8526C9.93052 22.6083 11.6372 19.5483 11.6372 19.5483C11.6372 19.5483 9.30274 20.864 7.1788 22.2587C5.92863 23.0638 4.98379 24.264 4.49474 25.6683ZM91.3319 4.91756C92.5483 9.192 94.6357 13.1686 97.4631 16.5973C95.358 8.34594 91.3169 4.91756 91.3169 4.91756H91.3319ZM90.9785 3.14699C90.9785 3.14699 97.4631 9.0865 98.7074 16.5522V21.3602C98.7074 21.3602 101.651 26.3036 102.767 29.2545C103.816 32.0326 103.297 37.2428 101.64 38.1751C101.64 38.0209 101.64 37.8668 101.64 37.7089C101.635 34.9974 100.588 32.3914 98.7164 30.4294C96.8447 28.4675 94.2909 27.2995 91.5826 27.1668C88.8743 27.034 86.2185 27.9468 84.164 29.7163C82.1094 31.4859 80.8132 33.9771 80.543 36.6751H80.5054L27.0874 37.8819C27.1137 36.4975 26.8638 35.1218 26.3522 33.8352C25.8406 32.5486 25.0777 31.3769 24.108 30.3885C23.1383 29.4002 21.9812 28.6152 20.7046 28.0792C19.4279 27.5433 18.0572 27.2673 16.6726 27.2673C15.288 27.2673 13.9173 27.5433 12.6407 28.0792C11.364 28.6152 10.207 29.4002 9.23726 30.3885C8.26755 31.3769 7.5046 32.5486 6.99302 33.8352C6.48144 35.1218 6.23149 36.4975 6.25779 37.8819C6.25649 38.427 6.29923 38.9713 6.38561 39.5096H6.14126C5.51085 39.5096 4.88662 39.3854 4.3042 39.1442C3.72177 38.9029 3.19257 38.5493 2.74681 38.1035C2.30104 37.6578 1.94744 37.1286 1.7062 36.5462C1.46495 35.9637 1.34078 35.3395 1.34078 34.7091V30.7732C1.32368 30.4814 1.26286 30.1937 1.16034 29.9199C1.0051 29.4739 0.969927 28.995 1.05835 28.5311C1.14676 28.0672 1.35566 27.6348 1.66407 27.2772L3.44217 25.2472C5.04358 19.6385 14.1295 17.4845 22.0426 14.7892C22.0426 14.7892 37.9703 4.92884 51.3154 1.63203C67.9723 -0.409203 90.9635 3.14699 90.9635 3.14699H90.9785ZM84.8323 18.507H89.2531C89.2531 18.3458 89.2213 18.1861 89.1594 18.0372C89.0976 17.8882 89.007 17.753 88.8928 17.6391C88.7786 17.5253 88.6431 17.4351 88.4939 17.3737C88.3448 17.3124 88.1851 17.281 88.0238 17.2815H86.0615C85.899 17.279 85.7376 17.3089 85.5868 17.3694C85.4359 17.4298 85.2986 17.5197 85.1828 17.6337C85.067 17.7478 84.975 17.8837 84.9123 18.0337C84.8495 18.1836 84.8172 18.3445 84.8172 18.507H84.8323ZM86.5577 7.83469C87.2043 6.70693 87.3434 5.51527 85.5503 5.03034C83.7571 4.5454 73.1826 2.09066 64.3823 2.46657L62.7057 15.9996C62.7057 15.9996 77.1259 14.8719 79.8852 14.699C82.6444 14.526 83.182 13.1464 83.6744 12.4434C84.1669 11.7405 85.8961 8.94365 86.5427 7.83469H86.5577ZM61.9012 4.45142C61.9418 4.20289 61.9264 3.94844 61.8561 3.70663C61.7858 3.46482 61.6623 3.24176 61.4948 3.05373C61.3273 2.86569 61.12 2.71743 60.8879 2.61975C60.6558 2.52207 60.4048 2.47745 60.1532 2.48913C56.2888 2.65077 47.6727 3.49283 40.0491 7.6129C37.4177 9.03763 35.1922 10.2706 33.3202 11.3721C28.9031 13.9622 26.4296 15.8117 24.9861 17.7364C24.9072 17.8467 24.8614 17.9771 24.854 18.1124C24.8465 18.2477 24.8777 18.3824 24.944 18.5007C25.0102 18.6189 25.1087 18.7159 25.228 18.7802C25.3473 18.8446 25.4824 18.8737 25.6176 18.8641L30.1587 18.4882L59.7961 16.1462C59.8637 16.1419 59.9278 16.1145 59.9777 16.0687C60.0276 16.0229 60.0604 15.9614 60.0705 15.8944L61.9012 4.45142ZM55.6685 20.6385H60.0893C60.0883 20.3128 59.9585 20.0007 59.7282 19.7704C59.4979 19.54 59.1858 19.4102 58.8601 19.4092H56.8978C56.7353 19.4067 56.5739 19.4366 56.423 19.497C56.2722 19.5575 56.1348 19.6474 56.019 19.7614C55.9032 19.8755 55.8113 20.0114 55.7485 20.1614C55.6858 20.3113 55.6535 20.4722 55.6535 20.6347L55.6685 20.6385Z" fill="white"/>
<path d="M95.6879 45.6422C100.951 45.9918 103.999 46.4128 103.999 46.8639C103.999 48.0669 82.354 49.0442 55.6525 49.0442C28.951 49.0442 7.30566 48.0669 7.30566 46.8639C7.30566 46.488 9.2454 46.1647 12.6775 45.864C14.0551 46.6033 15.6116 46.944 17.1721 46.8477C18.7326 46.7514 20.2354 46.222 21.5116 45.3189C30.2555 44.943 42.3262 44.6836 55.6525 44.6836C67.2684 44.6836 77.9295 44.8678 86.2673 45.1798C87.6121 46.1883 89.2279 46.7713 90.9068 46.8537C92.5857 46.9361 94.2508 46.5142 95.6879 45.6422Z" fill="#DEDFE0"/>
<path d="M95.6881 45.6421C94.2511 46.5141 92.5859 46.936 90.907 46.8536C89.2281 46.7712 87.6123 46.1882 86.2676 45.1797C89.9027 45.3225 93.0604 45.4654 95.6881 45.6421Z" fill="#DEDFE0"/>
<path d="M12.6787 45.8634C14.9906 45.6642 17.9792 45.4875 21.5128 45.3184C20.2365 46.2215 18.7338 46.7509 17.1733 46.8472C15.6128 46.9434 14.0563 46.6028 12.6787 45.8634Z" fill="#DEDFE0"/>
<path d="M101.633 38.1799C101.633 38.0257 101.633 37.8716 101.633 37.7137C101.611 35.014 100.557 32.4248 98.688 30.477C96.8185 28.5291 94.2748 27.3701 91.5782 27.2374C88.8817 27.1047 86.2365 28.0085 84.1849 29.7635C82.1332 31.5184 80.8306 33.9916 80.5438 36.6762C80.51 37.0183 80.4912 37.3641 80.4912 37.7175C80.4916 38.3171 80.5419 38.9156 80.6416 39.5069" stroke="#644E77" stroke-width="1.72684" stroke-linecap="round" stroke-linejoin="round"/>
<path d="M6.37058 39.496H6.12624C4.85307 39.496 3.63205 38.9902 2.73178 38.0899C1.83152 37.1897 1.32576 35.9687 1.32576 34.6955V30.7747C1.30866 30.4828 1.24783 30.1951 1.14532 29.9213C0.992072 29.4741 0.959339 28.9944 1.05041 28.5304C1.14148 28.0665 1.35313 27.6348 1.66408 27.2786L3.44218 25.2487C5.04359 19.64 14.1295 17.4859 22.0426 14.7906C22.0426 14.7906 37.9703 4.93027 51.3154 1.63347C67.9573 -0.407767 90.9485 3.13714 90.9485 3.13714C90.9485 3.13714 97.4331 9.07666 98.6774 16.5424V21.3504C98.6774 21.3504 101.621 26.2937 102.737 29.2447C103.786 32.0227 103.267 37.233 101.61 38.1652C101.51 38.2273 101.401 38.2706 101.286 38.293" stroke="#644E77" stroke-width="1.72684" stroke-linecap="round" stroke-linejoin="round"/>
<path d="M27.0762 37.8708L80.4942 36.6641" stroke="#644E77" stroke-width="0.863418" stroke-linecap="round" stroke-linejoin="round"/>
<path d="M26.6025 39.6973H26.9108L80.6408 39.498H80.6446" stroke="#644E77" stroke-width="1.72684" stroke-linecap="round" stroke-linejoin="round"/>
<path d="M4.49609 25.6688C4.98515 24.2645 5.92999 23.0643 7.18015 22.2592C9.30409 20.8645 11.6385 19.5488 11.6385 19.5488C11.6385 19.5488 9.93187 22.6088 8.58985 23.8531C7.24782 25.0974 4.49609 25.6688 4.49609 25.6688Z" stroke="#644E77" stroke-width="0.863418" stroke-linecap="round" stroke-linejoin="round"/>
<path d="M33.3022 11.3702C28.8852 13.9603 26.4116 15.8098 24.9681 17.7345C24.8893 17.8448 24.8435 17.9752 24.836 18.1105C24.8286 18.2459 24.8598 18.3805 24.926 18.4988C24.9922 18.6171 25.0908 18.714 25.21 18.7784C25.3293 18.8428 25.4644 18.8718 25.5996 18.8623L30.1407 18.4864L59.7782 16.1444C59.8458 16.14 59.9098 16.1126 59.9598 16.0668C60.0097 16.021 60.0424 15.9595 60.0526 15.8925L61.8871 4.42701C61.9276 4.17847 61.9122 3.92402 61.8419 3.68221C61.7716 3.44041 61.6482 3.21735 61.4807 3.02931C61.3131 2.84128 61.1058 2.69301 60.8737 2.59533C60.6416 2.49766 60.3906 2.45303 60.139 2.46471C56.2746 2.62636 47.6585 3.46842 40.0349 7.58848C37.4035 9.01321 35.1781 10.2462 33.306 11.3477" stroke="#644E77" stroke-width="0.863418" stroke-linecap="round" stroke-linejoin="round"/>
<path d="M64.3817 2.46899L62.7051 16.0021C62.7051 16.0021 77.1253 14.8743 79.8846 14.7014C82.6438 14.5285 83.1814 13.1488 83.6738 12.4459C84.1663 11.7429 85.8955 8.92351 86.5421 7.81455C87.1886 6.70559 87.3277 5.49514 85.5346 5.0102C83.7415 4.52527 73.1819 2.09308 64.3817 2.46899Z" stroke="#644E77" stroke-width="0.863418" stroke-linecap="round" stroke-linejoin="round"/>
<path d="M33.306 11.3672C33.2195 11.5476 30.3889 17.2917 30.1445 18.5096" stroke="#644E77" stroke-width="0.863418" stroke-linecap="round" stroke-linejoin="round"/>
<path d="M91.3154 4.91992C91.3154 4.91992 95.3566 8.3483 97.4467 16.5997C94.6193 13.171 92.5318 9.19436 91.3154 4.91992V4.91992Z" stroke="#644E77" stroke-width="0.863418" stroke-linecap="round" stroke-linejoin="round"/>
<path d="M55.6523 20.6355H60.0731C60.0722 20.3098 59.9423 19.9977 59.712 19.7674C59.4817 19.5371 59.1696 19.4072 58.8439 19.4063H56.8816C56.72 19.4058 56.56 19.4372 56.4106 19.4988C56.2612 19.5604 56.1255 19.6509 56.0113 19.7652C55.897 19.8794 55.8065 20.0151 55.7449 20.1645C55.6833 20.3139 55.6519 20.4739 55.6523 20.6355V20.6355Z" stroke="#644E77" stroke-width="0.863418" stroke-linecap="round" stroke-linejoin="round"/>
<path d="M84.8164 18.5107H89.2372C89.2372 18.3494 89.2054 18.1897 89.1436 18.0408C89.0817 17.8919 88.9911 17.7566 88.8769 17.6428C88.7627 17.5289 88.6272 17.4387 88.4781 17.3774C88.329 17.316 88.1692 17.2847 88.0079 17.2852H86.0457C85.8844 17.2847 85.7246 17.316 85.5755 17.3774C85.4264 17.4387 85.2909 17.5289 85.1767 17.6428C85.0625 17.7566 84.9719 17.8919 84.9101 18.0408C84.8482 18.1897 84.8164 18.3494 84.8164 18.5107Z" stroke="#644E77" stroke-width="0.863418" stroke-linecap="round" stroke-linejoin="round"/>
<path d="M26.9109 39.6823C27.1613 38.2607 27.1134 36.8025 26.7704 35.4004C26.4274 33.9982 25.7966 32.6826 24.9183 31.5371C24.0399 30.3916 22.933 29.4412 21.6678 28.7461C20.4027 28.051 19.0069 27.6265 17.5689 27.4994C16.131 27.3724 14.6824 27.5455 13.315 28.008C11.9475 28.4704 10.6911 29.2121 9.62547 30.1858C8.55982 31.1595 7.70819 32.3441 7.1246 33.6644C6.541 34.9847 6.2382 36.4118 6.23538 37.8554C6.23407 38.4005 6.27682 38.9448 6.36319 39.4831" stroke="#644E77" stroke-width="1.72684" stroke-linecap="round" stroke-linejoin="round"/>
<path d="M12.4912 37.9321C12.5762 37.221 12.8458 36.5445 13.2731 35.9698C13.4991 35.6537 13.7716 35.3736 14.0813 35.139C14.6434 34.6939 15.3121 34.4036 16.0211 34.297C16.2324 34.2635 16.4462 34.2471 16.6601 34.2481C16.8336 34.2479 17.0069 34.2592 17.1789 34.2819C17.89 34.3669 18.5665 34.6365 19.1412 35.0638C19.4565 35.2908 19.7364 35.5632 19.972 35.8721C20.4141 36.4341 20.7029 37.1011 20.8103 37.808C20.8438 38.0194 20.8601 38.2331 20.8592 38.4471C20.8594 38.6206 20.8481 38.7939 20.8253 38.9659C20.7401 39.6763 20.472 40.3524 20.0472 40.9282C19.8192 41.2437 19.547 41.5248 19.2389 41.7627C18.6759 42.2054 18.0075 42.4943 17.2992 42.601C17.0879 42.6345 16.8741 42.6508 16.6601 42.6499C16.4867 42.6501 16.3134 42.6388 16.1414 42.616C15.4303 42.531 14.7538 42.2615 14.1791 41.8341C13.863 41.6082 13.5829 41.3357 13.3483 41.0259C12.9032 40.4639 12.6129 39.7951 12.5062 39.0862" stroke="#644E77" stroke-width="0.863418" stroke-linecap="round" stroke-linejoin="round"/>
<path d="M17.8665 38.445C17.8665 38.6836 17.7958 38.9169 17.6632 39.1154C17.5306 39.3138 17.3421 39.4685 17.1216 39.5598C16.9011 39.6512 16.6585 39.6751 16.4244 39.6285C16.1903 39.5819 15.9753 39.467 15.8066 39.2982C15.6378 39.1295 15.5229 38.9145 15.4763 38.6804C15.4298 38.4463 15.4536 38.2037 15.545 37.9832C15.6363 37.7627 15.791 37.5742 15.9894 37.4416C16.1879 37.3091 16.4212 37.2383 16.6598 37.2383C16.9799 37.2383 17.2868 37.3654 17.5131 37.5917C17.7394 37.818 17.8665 38.1249 17.8665 38.445V38.445Z" stroke="#644E77" stroke-width="0.863418" stroke-linecap="round" stroke-linejoin="round"/>
<path d="M17.1774 34.2793V35.4484C17.1774 35.6019 17.1164 35.7492 17.0078 35.8578C16.8992 35.9663 16.752 36.0273 16.5984 36.0273C16.4449 36.0273 16.2977 35.9663 16.1891 35.8578C16.0805 35.7492 16.0195 35.6019 16.0195 35.4484V34.2943" stroke="#644E77" stroke-width="0.863418" stroke-linecap="round" stroke-linejoin="round"/>
<path d="M19.982 35.8682L19.1474 36.6764C19.0936 36.7302 19.0297 36.7729 18.9594 36.802C18.8891 36.8311 18.8138 36.8461 18.7377 36.8461C18.6616 36.8461 18.5862 36.8311 18.5159 36.802C18.4456 36.7729 18.3817 36.7302 18.3279 36.6764C18.2741 36.6226 18.2314 36.5587 18.2023 36.4884C18.1732 36.4181 18.1582 36.3428 18.1582 36.2667C18.1582 36.1906 18.1732 36.1152 18.2023 36.0449C18.2314 35.9746 18.2741 35.9107 18.3279 35.8569L19.1399 35.0449" stroke="#644E77" stroke-width="0.863418" stroke-linecap="round" stroke-linejoin="round"/>
<path d="M20.8243 38.9664H19.659C19.5055 38.9664 19.3582 38.9054 19.2496 38.7969C19.1411 38.6883 19.0801 38.541 19.0801 38.3875C19.0801 38.234 19.1411 38.0867 19.2496 37.9782C19.3582 37.8696 19.5055 37.8086 19.659 37.8086H20.8093" stroke="#644E77" stroke-width="0.863418" stroke-linecap="round" stroke-linejoin="round"/>
<path d="M20.0461 40.9261L19.2303 40.1142C19.1783 40.0528 19.1141 40.0029 19.0419 39.9675C18.9696 39.9321 18.8908 39.9121 18.8105 39.9087C18.7301 39.9053 18.6499 39.9186 18.5749 39.9477C18.4999 39.9768 18.4317 40.0212 18.3747 40.0779C18.3177 40.1347 18.2731 40.2026 18.2436 40.2775C18.2141 40.3523 18.2005 40.4325 18.2035 40.5129C18.2066 40.5933 18.2262 40.6721 18.2613 40.7446C18.2963 40.817 18.3459 40.8814 18.4071 40.9337L19.2341 41.7607" stroke="#644E77" stroke-width="0.863418" stroke-linecap="round" stroke-linejoin="round"/>
<path d="M17.2985 42.6002V41.4461C17.2985 41.2926 17.2375 41.1453 17.1289 41.0368C17.0203 40.9282 16.8731 40.8672 16.7195 40.8672C16.566 40.8672 16.4188 40.9282 16.3102 41.0368C16.2016 41.1453 16.1406 41.2926 16.1406 41.4461V42.6152" stroke="#644E77" stroke-width="0.863418" stroke-linecap="round" stroke-linejoin="round"/>
<path d="M14.1784 41.8343L14.9904 41.0223C15.0983 40.9132 15.1588 40.766 15.1588 40.6125C15.1588 40.4591 15.0983 40.3119 14.9904 40.2028C14.9369 40.1485 14.8731 40.1053 14.8028 40.0759C14.7324 40.0464 14.6569 40.0312 14.5807 40.0312C14.5044 40.0312 14.4289 40.0464 14.3586 40.0759C14.2882 40.1053 14.2244 40.1485 14.1709 40.2028L13.3477 41.026" stroke="#644E77" stroke-width="0.863418" stroke-linecap="round" stroke-linejoin="round"/>
<path d="M12.4919 37.9316H13.661C13.8145 37.9316 13.9618 37.9926 14.0703 38.1012C14.1789 38.2098 14.2399 38.357 14.2399 38.5106C14.2399 38.6641 14.1789 38.8113 14.0703 38.9199C13.9618 39.0285 13.8145 39.0895 13.661 39.0895H12.5069C12.4734 38.8781 12.4571 38.6644 12.458 38.4504C12.4578 38.2769 12.4691 38.1036 12.4919 37.9316V37.9316Z" stroke="#644E77" stroke-width="0.863418" stroke-linecap="round" stroke-linejoin="round"/>
<path d="M14.0807 35.1367L14.9039 35.96C14.9578 36.0138 15.0004 36.0777 15.0296 36.148C15.0587 36.2183 15.0737 36.2936 15.0737 36.3697C15.0737 36.4458 15.0587 36.5212 15.0296 36.5915C15.0004 36.6618 14.9578 36.7257 14.9039 36.7795C14.8501 36.8333 14.7863 36.876 14.716 36.9051C14.6456 36.9342 14.5703 36.9492 14.4942 36.9492C14.4181 36.9492 14.3427 36.9342 14.2724 36.9051C14.2021 36.876 14.1383 36.8333 14.0844 36.7795L13.2725 35.9675" stroke="#644E77" stroke-width="0.863418" stroke-linecap="round" stroke-linejoin="round"/>
<path d="M21.5132 45.3204C23.1514 44.1611 24.321 42.454 24.8106 40.5077C25.3002 38.5613 25.0776 36.504 24.1829 34.7075C23.2883 32.911 21.7806 31.4936 19.9322 30.7116C18.0839 29.9295 16.0168 29.8343 14.1044 30.4431C12.192 31.052 10.5604 32.3247 9.50436 34.0314C8.44833 35.7381 8.03751 37.7662 8.34613 39.7493C8.65475 41.7324 9.66244 43.5397 11.1872 44.8448C12.7119 46.1499 14.6531 46.8666 16.6601 46.8655C18.3989 46.8662 20.0949 46.3263 21.5132 45.3204V45.3204Z" stroke="#644E77" stroke-width="1.29513" stroke-linecap="round" stroke-linejoin="round"/>
<path d="M87.1484 37.9321C87.2334 37.221 87.503 36.5445 87.9303 35.9698C88.1563 35.6537 88.4288 35.3736 88.7386 35.139C89.3006 34.6939 89.9693 34.4036 90.6783 34.297C90.8897 34.2635 91.1034 34.2471 91.3174 34.2481C91.4909 34.2479 91.6642 34.2592 91.8361 34.2819C92.5472 34.3669 93.2237 34.6365 93.7984 35.0638C94.1137 35.2908 94.3936 35.5632 94.6292 35.8721C95.0713 36.4341 95.3602 37.1011 95.4675 37.808C95.501 38.0194 95.5174 38.2331 95.5164 38.4471C95.5166 38.6206 95.5053 38.7939 95.4825 38.9659C95.3973 39.6763 95.1292 40.3524 94.7044 40.9282C94.4765 41.2437 94.2043 41.5248 93.8962 41.7627C93.3331 42.2054 92.6647 42.4943 91.9564 42.601C91.7451 42.6345 91.5314 42.6508 91.3174 42.6499C91.1439 42.6501 90.9706 42.6388 90.7986 42.616C90.0875 42.531 89.411 42.2615 88.8363 41.8341C88.5202 41.6082 88.2401 41.3357 88.0055 41.0259C87.5604 40.4639 87.2701 39.7951 87.1635 39.0862" stroke="#644E77" stroke-width="0.863418" stroke-linecap="round" stroke-linejoin="round"/>
<path d="M92.5335 38.445C92.5335 38.6838 92.4626 38.9173 92.3299 39.1158C92.1971 39.3143 92.0084 39.469 91.7877 39.5602C91.567 39.6514 91.3242 39.6751 91.09 39.6282C90.8558 39.5814 90.6408 39.466 90.4722 39.2969C90.3036 39.1278 90.189 38.9124 90.1428 38.6781C90.0967 38.4438 90.1211 38.201 90.2131 37.9806C90.305 37.7602 90.4602 37.572 90.6591 37.4398C90.8581 37.3077 91.0917 37.2375 91.3306 37.2383C91.4889 37.2383 91.6456 37.2695 91.7918 37.3302C91.938 37.3909 92.0708 37.4798 92.1825 37.5919C92.2943 37.7041 92.3828 37.8371 92.443 37.9835C92.5033 38.1299 92.534 38.2867 92.5335 38.445V38.445Z" stroke="#644E77" stroke-width="0.863418" stroke-linecap="round" stroke-linejoin="round"/>
<path d="M91.8365 34.2793V35.4484C91.8365 35.5244 91.8216 35.5997 91.7925 35.6699C91.7634 35.7402 91.7207 35.804 91.667 35.8578C91.6132 35.9115 91.5494 35.9542 91.4792 35.9833C91.4089 36.0123 91.3337 36.0273 91.2576 36.0273C91.1816 36.0273 91.1063 36.0123 91.0361 35.9833C90.9659 35.9542 90.902 35.9115 90.8483 35.8578C90.7945 35.804 90.7519 35.7402 90.7228 35.6699C90.6937 35.5997 90.6787 35.5244 90.6787 35.4484V34.2943" stroke="#644E77" stroke-width="0.863418" stroke-linecap="round" stroke-linejoin="round"/>
<path d="M94.6269 35.8682L93.8037 36.6764C93.7499 36.7302 93.686 36.7729 93.6157 36.802C93.5454 36.8311 93.47 36.8461 93.3939 36.8461C93.3178 36.8461 93.2425 36.8311 93.1722 36.802C93.1019 36.7729 93.038 36.7302 92.9842 36.6764C92.9304 36.6226 92.8877 36.5587 92.8586 36.4884C92.8294 36.4181 92.8145 36.3428 92.8145 36.2667C92.8145 36.1906 92.8294 36.1152 92.8586 36.0449C92.8877 35.9746 92.9304 35.9107 92.9842 35.8569L93.7962 35.0449" stroke="#644E77" stroke-width="0.863418" stroke-linecap="round" stroke-linejoin="round"/>
<path d="M95.4825 38.9664H94.3172C94.1636 38.9664 94.0164 38.9054 93.9078 38.7969C93.7993 38.6883 93.7383 38.541 93.7383 38.3875C93.7383 38.234 93.7993 38.0867 93.9078 37.9782C94.0164 37.8696 94.1636 37.8086 94.3172 37.8086H95.4675" stroke="#644E77" stroke-width="0.863418" stroke-linecap="round" stroke-linejoin="round"/>
<path d="M94.7054 40.9261L93.8934 40.1142C93.8414 40.0528 93.7772 40.0029 93.705 39.9675C93.6327 39.9321 93.5539 39.9121 93.4735 39.9087C93.3932 39.9053 93.313 39.9186 93.238 39.9477C93.163 39.9768 93.0948 40.0212 93.0378 40.0779C92.9808 40.1347 92.9362 40.2026 92.9067 40.2775C92.8772 40.3523 92.8636 40.4325 92.8666 40.5129C92.8697 40.5933 92.8893 40.6721 92.9243 40.7446C92.9594 40.817 93.009 40.8814 93.0701 40.9337L93.8972 41.7607" stroke="#644E77" stroke-width="0.863418" stroke-linecap="round" stroke-linejoin="round"/>
<path d="M91.9567 42.6002V41.4461C91.9567 41.2926 91.8957 41.1453 91.7871 41.0368C91.6785 40.9282 91.5313 40.8672 91.3777 40.8672C91.2242 40.8672 91.077 40.9282 90.9684 41.0368C90.8598 41.1453 90.7988 41.2926 90.7988 41.4461V42.6152" stroke="#644E77" stroke-width="0.863418" stroke-linecap="round" stroke-linejoin="round"/>
<path d="M88.8354 41.8343L89.6474 41.0223C89.7553 40.9132 89.8158 40.766 89.8158 40.6125C89.8158 40.4591 89.7553 40.3119 89.6474 40.2028C89.5939 40.1485 89.5301 40.1053 89.4598 40.0759C89.3894 40.0464 89.3139 40.0312 89.2377 40.0312C89.1614 40.0312 89.0859 40.0464 89.0155 40.0759C88.9452 40.1053 88.8814 40.1485 88.8279 40.2028L88.0234 41.026" stroke="#644E77" stroke-width="0.863418" stroke-linecap="round" stroke-linejoin="round"/>
<path d="M87.1491 37.9316H88.3182C88.4718 37.9316 88.619 37.9926 88.7276 38.1012C88.8361 38.2098 88.8971 38.357 88.8971 38.5106C88.8971 38.6641 88.8361 38.8113 88.7276 38.9199C88.619 39.0285 88.4718 39.0895 88.3182 39.0895H87.1641C87.1306 38.8781 87.1143 38.6644 87.1153 38.4504C87.1151 38.2769 87.1264 38.1036 87.1491 37.9316V37.9316Z" stroke="#644E77" stroke-width="0.863418" stroke-linecap="round" stroke-linejoin="round"/>
<path d="M88.7399 35.1367L89.5631 35.96C89.6718 36.0687 89.7329 36.216 89.7329 36.3697C89.7329 36.5234 89.6718 36.6708 89.5631 36.7795C89.4545 36.8882 89.3071 36.9492 89.1534 36.9492C88.9997 36.9492 88.8523 36.8882 88.7436 36.7795L87.9316 35.9675" stroke="#644E77" stroke-width="0.863418" stroke-linecap="round" stroke-linejoin="round"/>
<path d="M95.6894 45.6448C97.429 44.5892 98.7275 42.9393 99.3448 41.0004C99.962 39.0614 99.8563 36.9645 99.0472 35.0975C98.238 33.2305 96.7801 31.7196 94.9432 30.8443C93.1062 29.969 91.0144 29.7884 89.0547 30.3361C87.0949 30.8838 85.3998 32.1225 84.2827 33.8233C83.1656 35.5241 82.7022 37.5719 82.9782 39.588C83.2542 41.604 84.2508 43.4519 85.7839 44.79C87.3169 46.128 89.2826 46.8657 91.3174 46.8665C92.8592 46.8676 94.3715 46.4449 95.6894 45.6448Z" stroke="#644E77" stroke-width="1.29513" stroke-linecap="round" stroke-linejoin="round"/>
<path d="M61.9111 34.6544C61.8114 34.6544 61.7158 34.6148 61.6453 34.5443C61.5748 34.4738 61.5352 34.3782 61.5352 34.2785V18.5087C61.5352 18.409 61.5748 18.3134 61.6453 18.2429C61.7158 18.1724 61.8114 18.1328 61.9111 18.1328C62.0108 18.1328 62.1064 18.1724 62.1769 18.2429C62.2474 18.3134 62.287 18.409 62.287 18.5087V34.2973C62.2822 34.3937 62.2404 34.4846 62.1705 34.5511C62.1005 34.6175 62.0076 34.6545 61.9111 34.6544Z" fill="#644E77"/>
</svg>
