<svg width="105" height="44" viewBox="0 0 105 44" fill="none" xmlns="http://www.w3.org/2000/svg">
<path d="M85.9856 23.3047C87.9083 23.3067 89.7715 23.9712 91.2615 25.1864C92.7516 26.4015 93.7772 28.0931 94.1658 29.9761C94.5545 31.8591 94.2822 33.8186 93.395 35.5243C92.5078 37.2301 91.0599 38.578 89.295 39.341C87.2724 39.304 85.0066 39.2856 82.5406 39.2794C80.7992 38.4922 79.3801 37.1321 78.5198 35.4255C77.6595 33.719 77.41 31.7692 77.8128 29.9011C78.2157 28.0329 79.2466 26.3592 80.7337 25.1589C82.2209 23.9586 84.0744 23.3042 85.9856 23.3047ZM91.0129 31.663C91.0129 30.6687 90.718 29.6967 90.1656 28.87C89.6132 28.0432 88.828 27.3989 87.9094 27.0184C86.9908 26.6379 85.98 26.5383 85.0048 26.7323C84.0296 26.9263 83.1338 27.4051 82.4307 28.1082C81.7276 28.8113 81.2488 29.707 81.0548 30.6822C80.8609 31.6574 80.9604 32.6683 81.3409 33.5869C81.7214 34.5055 82.3658 35.2907 83.1925 35.8431C84.0193 36.3955 84.9912 36.6903 85.9856 36.6903C87.3189 36.6903 88.5976 36.1607 89.5404 35.2179C90.4832 34.2751 91.0129 32.9963 91.0129 31.663Z" fill="#DEDFE0"/>
<path d="M85.9863 26.6211C86.9813 26.6205 87.9542 26.915 88.7819 27.4674C89.6095 28.0197 90.2547 28.8052 90.636 29.7243C91.0172 30.6434 91.1172 31.655 90.9235 32.631C90.7297 33.607 90.2509 34.5036 89.5475 35.2074C88.8441 35.9112 87.9478 36.3906 86.9719 36.585C85.996 36.7793 84.9844 36.6799 84.065 36.2992C83.1457 35.9186 82.3599 35.2738 81.807 34.4465C81.2541 33.6192 80.959 32.6465 80.959 31.6515C80.9586 30.991 81.0883 30.337 81.3408 29.7267C81.5933 29.1164 81.9635 28.5618 82.4304 28.0946C82.8972 27.6275 83.4516 27.2569 84.0617 27.0041C84.6719 26.7512 85.3258 26.6211 85.9863 26.6211Z" fill="white"/>
<path d="M19.9423 27.8223C20.9374 27.8217 21.9103 28.1162 22.7379 28.6685C23.5656 29.2209 24.2108 30.0063 24.592 30.9255C24.9732 31.8446 25.0733 32.8561 24.8795 33.8321C24.6858 34.8082 24.2069 35.7048 23.5035 36.4086C22.8001 37.1124 21.9038 37.5918 20.9279 37.7862C19.9521 37.9805 18.9405 37.8811 18.0211 37.5004C17.1017 37.1198 16.3159 36.475 15.763 35.6477C15.2101 34.8204 14.915 33.8477 14.915 32.8527C14.9146 32.1922 15.0444 31.5381 15.2968 30.9278C15.5493 30.3175 15.9195 29.763 16.3864 29.2958C16.8533 28.8287 17.4076 28.4581 18.0178 28.2052C18.6279 27.9524 19.2819 27.8223 19.9423 27.8223Z" fill="white"/>
<path d="M19.9411 24.4923C22.0063 24.4904 23.9992 25.2533 25.5353 26.6338C27.0714 28.0143 28.042 29.9146 28.26 31.9683C28.478 34.0221 27.9279 36.0838 26.7158 37.756C25.5038 39.4282 23.7155 40.5924 21.6959 41.0242C20.8585 41.0734 20.0488 41.1248 19.2669 41.1781C17.1098 41.0124 15.1011 40.0164 13.6634 38.3997C12.2258 36.7831 11.4712 34.6718 11.5586 32.5101C11.6459 30.3484 12.5683 28.3049 14.1317 26.8095C15.6951 25.3141 17.7776 24.4834 19.9411 24.4923ZM24.9684 32.8506C24.9684 31.8563 24.6735 30.8843 24.1211 30.0576C23.5687 29.2308 22.7836 28.5865 21.8649 28.206C20.9463 27.8254 19.9355 27.7259 18.9603 27.9199C17.9851 28.1138 17.0893 28.5927 16.3862 29.2957C15.6831 29.9988 15.2043 30.8946 15.0104 31.8698C14.8164 32.845 14.9159 33.8558 15.2964 34.7745C15.6769 35.6931 16.3213 36.4782 17.148 37.0306C17.9748 37.583 18.9468 37.8779 19.9411 37.8779C21.2744 37.8779 22.5531 37.3482 23.4959 36.4054C24.4387 35.4626 24.9684 34.1839 24.9684 32.8506Z" fill="#DEDFE0"/>
<path d="M8.70789 20.3086V22.3682C8.7074 22.8072 8.56766 23.2348 8.30876 23.5894C8.04986 23.944 7.68516 24.2073 7.26712 24.3415C5.50411 24.9364 3.63975 25.172 1.78418 25.0342C2.79395 21.6232 4.48101 18.4922 4.93356 17.5841C5.02224 17.4009 5.1444 17.2359 5.29375 17.0977C5.29375 17.0977 6.64217 19.5636 8.70789 20.3086Z" fill="#DEDFE0"/>
<path d="M83.1576 4.11523C83.1576 4.11523 84.3459 4.60165 84.3459 6.33796C84.3459 8.07428 82.0832 8.89934 80.8395 8.77927C79.8543 8.96706 79.7589 9.81983 79.2417 10.6264C78.0626 9.08713 78.786 4.19528 78.786 4.19528V4.16141C80.9287 4.14602 82.4988 4.12447 83.1576 4.11523Z" fill="white"/>
<path d="M43.2137 8.38086C43.2137 8.38086 42.6965 9.79392 43.0567 12.2599C42.1147 12.3922 38.168 12.3922 38.168 12.3922C38.168 12.3922 38.8822 9.54764 43.2137 8.38086Z" fill="white"/>
<path d="M58.5308 13.2887C47.2263 13.6643 35.6724 13.3195 35.0967 12.6053C35.0967 12.6053 41.7218 6.54048 45.3083 4.60098C45.8738 4.29433 46.513 4.14946 47.1554 4.1823C49.2335 4.28081 54.4517 4.30544 60.3071 4.29313V4.5117C60.3071 4.5117 59.3589 8.71703 58.5308 13.2887ZM38.1629 12.3928C38.1629 12.3928 42.1097 12.3928 43.0517 12.2605C42.6915 9.79761 43.2087 8.38147 43.2087 8.38147C38.8802 9.54825 38.1629 12.3928 38.1629 12.3928Z" fill="white"/>
<path d="M79.231 10.633C79.1513 10.7598 79.0618 10.8803 78.9632 10.9932C75.6014 12.2862 67.1353 12.9973 58.5215 13.2898C59.3496 8.7181 60.2978 4.50969 60.2978 4.50969V4.29111C66.8213 4.29111 74.1514 4.21723 78.7693 4.16797V4.20183C78.7693 4.20183 78.0612 9.09984 79.231 10.633Z" fill="white"/>
<path d="M99.5493 11.6742C96.2799 11.3355 93.66 6.82541 93.7555 4.68273C96.6308 4.95056 97.4497 3.22656 97.4497 3.22656C97.8992 3.87306 97.9608 4.9167 97.0403 6.20662C98.01 7.64431 98.8597 9.59305 99.5493 11.6742Z" fill="white"/>
<path d="M101.351 19.7726C99.0727 19.8157 97.6103 19.2585 96.6806 18.4303C94.3224 16.3431 95.4184 12.541 95.4184 12.541H99.8023C100.502 14.9084 101.02 17.326 101.351 19.7726Z" fill="#DEDFE0"/>
<path d="M103.858 26.2496C104.696 29.636 101.66 32.8623 97.6398 33.0224C97.4949 33.0301 97.3501 33.0078 97.2143 32.957C97.0784 32.9062 96.9545 32.8279 96.8502 32.7271C96.746 32.6263 96.6636 32.5051 96.6082 32.3711C96.5528 32.237 96.5257 32.093 96.5284 31.948C96.5284 31.8402 96.5284 31.7294 96.5284 31.6217C96.5284 28.3676 95.7372 25.5723 93.5915 23.7097C93.3144 21.2807 96.67 18.4238 96.67 18.4238C97.5936 19.252 99.0621 19.8092 101.34 19.7661C101.476 20.7666 101.553 21.6379 101.574 22.3059C101.642 24.2054 103.077 25.5538 103.858 26.2496Z" fill="white"/>
<path d="M58.5314 13.288C67.1514 12.9801 75.6114 12.2843 78.9732 10.9913C79.0717 10.8785 79.1612 10.758 79.241 10.6311C79.7582 9.82148 79.8567 8.96872 80.8388 8.784C82.0702 8.90407 84.3453 8.07593 84.3453 6.3427C84.3453 4.60946 83.1569 4.11997 83.1569 4.11997C82.4981 4.11997 80.928 4.15075 78.7854 4.16923C74.149 4.21848 66.8313 4.27698 60.3139 4.29237C54.4646 4.29237 49.2311 4.29237 47.1623 4.18154C46.5198 4.14871 45.8807 4.29357 45.3151 4.60023C41.7286 6.54281 35.1035 12.6045 35.1035 12.6045C35.673 13.3187 47.2146 13.6635 58.5314 13.288ZM99.8028 12.5399H95.4189C95.4189 12.5399 94.3229 16.3419 96.6811 18.4292C96.6811 18.4292 93.3255 21.2861 93.6025 23.7151C91.9863 22.3113 89.6004 21.4339 86.214 21.2892C77.049 21.2892 75.4389 25.907 75.4389 31.627V31.7563C75.4451 32.0596 75.391 32.361 75.2798 32.6432C75.1686 32.9254 75.0026 33.1828 74.7913 33.4004C74.58 33.618 74.3276 33.7915 74.0488 33.9109C73.77 34.0303 73.4703 34.0932 73.167 34.096L31.7694 34.3515C31.6025 34.3528 31.4369 34.3209 31.2824 34.2579C31.1278 34.1949 30.9872 34.1018 30.8687 33.9842C30.7503 33.8666 30.6562 33.7267 30.5921 33.5726C30.5279 33.4185 30.4949 33.2532 30.4949 33.0863V33.0493C30.4949 26.8521 28.8971 21.8279 19.7199 21.8279C11.811 22.1943 9.39126 26.8552 9.39126 33.0524C9.39126 33.3602 9.39126 33.6496 9.42513 33.9452C9.43927 34.1805 9.40437 34.4163 9.32263 34.6375C9.24088 34.8587 9.11409 35.0604 8.95027 35.2301C8.78645 35.3997 8.58919 35.5334 8.37098 35.6227C8.15277 35.7121 7.91838 35.7552 7.68265 35.7492C0.275609 35.6261 0.29408 30.0262 1.78411 25.0327C3.63968 25.1705 5.50404 24.9349 7.26705 24.34C7.68509 24.2058 8.04979 23.9425 8.30869 23.5879C8.56759 23.2333 8.70733 22.8057 8.70782 22.3667V20.3071C6.6421 19.5621 5.29368 17.0961 5.29368 17.0961C8.0644 14.3254 22.2905 13.4234 27.327 13.0663C33.6104 12.7923 34.7556 1.1122 51.1706 1.22919C64.8456 0.659653 95.2896 2.32824 96.3825 2.5345C96.8084 2.62006 97.184 2.86862 97.4292 3.22718C97.4292 3.22718 96.6164 4.95118 93.7349 4.68335C93.6395 6.83835 96.2593 11.3361 99.5288 11.6748C99.6273 11.9611 99.7166 12.2474 99.8028 12.5399Z" fill="white"/>
<path d="M100.166 40.1681C100.191 41.1409 79.1671 42.5109 53.2055 43.2313C27.2439 43.9517 6.17111 43.7454 6.14648 42.7726C6.14648 42.2985 11.1338 41.7289 19.2735 41.184C19.4952 41.2056 19.7199 41.2148 19.9477 41.2148C20.5375 41.2146 21.1256 41.1526 21.7025 41.0301C30.0147 40.5191 41.0298 40.0419 53.1039 39.7063C64.2422 39.3985 74.4815 39.2599 82.5443 39.2815C83.6043 39.7598 84.7522 40.0124 85.915 40.023C87.0779 40.0336 88.2302 39.802 89.2987 39.343C96.0685 39.457 100.148 39.7371 100.166 40.1681Z" fill="#DEDFE0"/>
<path d="M89.2944 39.3389C88.2259 39.7979 87.0736 40.0294 85.9108 40.0188C84.7479 40.0082 83.6 39.7557 82.54 39.2773C85.006 39.2835 87.2718 39.302 89.2944 39.3389Z" fill="#DEDFE0"/>
<path d="M19.2666 41.1793C20.0486 41.128 20.8582 41.0767 21.6956 41.0254C21.1187 41.1479 20.5306 41.2098 19.9408 41.2101C19.713 41.2101 19.4883 41.2009 19.2666 41.1793Z" fill="#DEDFE0"/>
<path d="M101.351 19.7714C101.487 20.772 101.564 21.6432 101.585 22.3113C101.644 24.2077 103.078 25.5561 103.86 26.2518C104.698 29.6383 101.662 32.8646 97.6416 33.0247C97.4968 33.0323 97.3519 33.01 97.2161 32.9592C97.0803 32.9084 96.9563 32.8302 96.8521 32.7294C96.7478 32.6286 96.6654 32.5074 96.61 32.3733C96.5547 32.2393 96.5275 32.0953 96.5302 31.9503C96.5302 31.8425 96.5302 31.7317 96.5302 31.6239C96.5302 28.3699 95.739 25.5745 93.5933 23.712C91.977 22.3082 89.5911 21.4308 86.2047 21.2861C77.0398 21.2861 75.4297 25.9039 75.4297 31.6239V31.7532C75.4358 32.0565 75.3817 32.3579 75.2706 32.6401C75.1594 32.9223 74.9934 33.1797 74.7821 33.3973C74.5708 33.6149 74.3184 33.7884 74.0396 33.9078C73.7608 34.0272 73.461 34.0902 73.1577 34.0929L31.7602 34.3485C31.5932 34.3497 31.4277 34.3179 31.2731 34.2548C31.1185 34.1918 30.978 34.0988 30.8595 33.9812C30.741 33.8635 30.647 33.7236 30.5828 33.5695C30.5187 33.4154 30.4856 33.2501 30.4856 33.0832V33.0462C30.4856 26.8491 28.8879 21.8248 19.7106 21.8248C11.811 22.1943 9.39126 26.8552 9.39126 33.0524C9.39126 33.3602 9.39126 33.6496 9.42512 33.9452C9.43927 34.1806 9.40437 34.4163 9.32263 34.6375C9.24088 34.8587 9.11409 35.0604 8.95027 35.2301C8.78645 35.3997 8.58919 35.5334 8.37098 35.6228C8.15277 35.7121 7.91838 35.7552 7.68265 35.7492C0.275609 35.6261 0.29408 30.0262 1.78411 25.0327C2.79388 21.6217 4.48094 18.4907 4.93349 17.5826C5.02217 17.3994 5.14433 17.2344 5.29368 17.0961C8.0644 14.3254 22.2905 13.4234 27.327 13.0663C33.6104 12.7923 34.7556 1.1122 51.1706 1.22919C64.8456 0.659653 95.2896 2.32824 96.3825 2.5345C96.8084 2.62006 97.184 2.86862 97.4292 3.22718C97.8787 3.87368 97.9402 4.91732 97.0197 6.20724C98.0203 7.64493 98.8669 9.59367 99.5349 11.6748C99.6273 11.9611 99.7166 12.2474 99.8028 12.5399C100.503 14.9073 101.021 17.3249 101.351 19.7714Z" stroke="#644E77" stroke-width="1.55224" stroke-linecap="round" stroke-linejoin="round"/>
<path d="M80.959 31.6607C80.9614 32.6545 81.2584 33.6253 81.8122 34.4504C82.3661 35.2755 83.1521 35.9179 84.071 36.2966C84.9898 36.6752 86.0002 36.773 86.9746 36.5776C87.949 36.3822 88.8436 35.9025 89.5455 35.1989C90.2473 34.4953 90.7249 33.5995 90.9179 32.6247C91.1109 31.6498 91.0106 30.6396 90.6298 29.7217C90.2489 28.8038 89.6045 28.0194 88.7781 27.4675C87.9516 26.9156 86.9801 26.6211 85.9863 26.6211C85.3251 26.6211 84.6703 26.7515 84.0596 27.0049C83.4488 27.2584 82.8941 27.6298 82.4271 28.0979C81.9601 28.566 81.5901 29.1217 81.3381 29.7331C81.0862 30.3444 80.9574 30.9995 80.959 31.6607V31.6607Z" stroke="#644E77" stroke-width="0.776119" stroke-linecap="round" stroke-linejoin="round"/>
<path d="M89.2958 39.3431C91.2028 38.5239 92.7379 37.0261 93.6039 35.14C94.4699 33.2538 94.6051 31.1133 93.9833 29.1331C93.3615 27.153 92.027 25.474 90.2383 24.4214C88.4495 23.3688 86.3338 23.0174 84.3008 23.4354C82.2679 23.8533 80.4623 25.0108 79.2339 26.6837C78.0055 28.3566 77.4415 30.4258 77.6513 32.4907C77.8612 34.5555 78.8298 36.4691 80.3696 37.8607C81.9094 39.2523 83.9109 40.023 85.9864 40.0234C87.1243 40.0241 88.2504 39.7926 89.2958 39.3431V39.3431Z" stroke="#644E77" stroke-width="1.16418" stroke-linecap="round" stroke-linejoin="round"/>
<path d="M14.915 32.8527C14.9156 33.8468 15.211 34.8185 15.7638 35.6448C16.3166 36.4712 17.1019 37.1151 18.0206 37.4951C18.9393 37.8751 19.95 37.9742 20.925 37.7799C21.9 37.5856 22.7955 37.1065 23.4983 36.4033C24.2011 35.7001 24.6796 34.8043 24.8733 33.8292C25.067 32.8541 24.9673 31.8434 24.5867 30.925C24.2061 30.0066 23.5617 29.2216 22.7351 28.6693C21.9084 28.117 20.9365 27.8223 19.9423 27.8223C19.2819 27.8223 18.6279 27.9524 18.0178 28.2052C17.4076 28.4581 16.8533 28.8287 16.3864 29.2958C15.9195 29.763 15.5493 30.3175 15.2968 30.9278C15.0444 31.5381 14.9146 32.1922 14.915 32.8527Z" stroke="#644E77" stroke-width="0.776119" stroke-linecap="round" stroke-linejoin="round"/>
<path d="M21.6952 41.0279C23.7643 40.5887 25.5906 39.3828 26.8071 37.6524C28.0236 35.9219 28.5401 33.7952 28.2529 31.6996C27.9657 29.6039 26.896 27.6946 25.2588 26.3553C23.6216 25.016 21.5381 24.3459 19.4271 24.4797C17.3161 24.6134 15.334 25.5412 13.8789 27.0765C12.4239 28.6117 11.6038 30.6408 11.5834 32.7559C11.563 34.8711 12.3439 36.9156 13.7691 38.4786C15.1942 40.0416 17.1582 41.0074 19.2662 41.1818C19.4879 41.2034 19.7126 41.2126 19.9404 41.2126C20.5302 41.2123 21.1183 41.1504 21.6952 41.0279V41.0279Z" stroke="#644E77" stroke-width="1.16418" stroke-linecap="round" stroke-linejoin="round"/>
<path d="M79.2303 10.6303C79.7475 9.82065 79.846 8.96789 80.828 8.78318C82.0595 8.90324 84.3345 8.0751 84.3345 6.34187C84.3345 4.60863 83.1462 4.11914 83.1462 4.11914C82.4874 4.11914 80.9173 4.14993 78.7746 4.1684C74.1383 4.21765 66.8205 4.27615 60.3032 4.29154C54.4539 4.29154 49.2203 4.29154 47.1515 4.18071C46.509 4.14788 45.8699 4.29274 45.3044 4.5994C41.7179 6.54198 35.0928 12.6037 35.0928 12.6037C35.6685 13.3179 47.2223 13.6627 58.5269 13.2871C67.1469 12.9793 75.6068 12.2835 78.9686 10.9905C79.065 10.8774 79.1525 10.757 79.2303 10.6303V10.6303Z" stroke="#644E77" stroke-width="0.776119" stroke-linecap="round" stroke-linejoin="round"/>
<path d="M5.29375 17.0977C5.29375 17.0977 6.64217 19.5605 8.70789 20.3086V22.3682C8.7074 22.8072 8.56766 23.2348 8.30876 23.5894C8.04986 23.944 7.68516 24.2073 7.26712 24.3415C5.50411 24.9364 3.63975 25.172 1.78418 25.0342" stroke="#644E77" stroke-width="1.16418" stroke-linecap="round" stroke-linejoin="round"/>
<path d="M43.2137 8.38086C43.2137 8.38086 42.6965 9.79392 43.0567 12.2599C42.1147 12.3922 38.168 12.3922 38.168 12.3922C38.168 12.3922 38.8822 9.54764 43.2137 8.38086Z" stroke="#644E77" stroke-width="0.776119" stroke-linecap="round" stroke-linejoin="round"/>
<path d="M60.3081 4.50781C60.3081 4.50781 59.3599 8.71622 58.5318 13.2879C58.2239 15.0181 57.916 16.8036 57.6975 18.4322C56.8909 24.3492 56.623 31.6701 56.623 31.6701" stroke="#644E77" stroke-width="0.776119" stroke-linecap="round" stroke-linejoin="round"/>
<path d="M78.7856 4.20117C78.7856 4.20117 78.0622 9.09918 79.232 10.6323" stroke="#644E77" stroke-width="0.776119" stroke-linecap="round" stroke-linejoin="round"/>
<path d="M80.543 11.4492C80.543 11.4492 81.7744 15.1158 82.1715 16.9229C82.5687 18.73 82.4794 19.4658 82.4794 19.4658" stroke="#644E77" stroke-width="0.776119" stroke-linecap="round" stroke-linejoin="round"/>
<path d="M72.238 31.6604C72.238 31.6604 39.9561 32.2761 33.0816 32.8518C33.0816 32.8518 31.5423 28.6834 31.2006 26.8424C30.8589 25.0014 31.3699 18.6719 31.5084 17.0957C31.647 15.5194 32.6783 13.4414 32.6783 13.4414" stroke="#644E77" stroke-width="0.776119" stroke-linecap="round" stroke-linejoin="round"/>
<path d="M26.5385 17.8887C25.8437 17.8952 25.151 17.9674 24.4697 18.1042" stroke="#644E77" stroke-width="0.776119" stroke-linecap="round" stroke-linejoin="round"/>
<path d="M55.1249 16.3574H51.1689" stroke="#644E77" stroke-width="0.776119" stroke-linecap="round" stroke-linejoin="round"/>
<path d="M97.4292 3.22656C97.4292 3.22656 96.6165 4.95056 93.7349 4.68273C93.6395 6.83773 96.2594 11.3355 99.5288 11.6742" stroke="#644E77" stroke-width="1.16418" stroke-linecap="round" stroke-linejoin="round"/>
<path d="M99.8023 12.541H95.4184C95.4184 12.541 94.3224 16.3431 96.6806 18.4303C97.6042 19.2585 99.0727 19.8157 101.351 19.7726" stroke="#644E77" stroke-width="1.16418" stroke-linecap="round" stroke-linejoin="round"/>
<path d="M96.6778 18.4355C96.6778 18.4355 93.3222 21.2925 93.5993 23.7215" stroke="#644E77" stroke-width="0.776119" stroke-linecap="round" stroke-linejoin="round"/>
<path d="M78.0957 15.457H74.4014" stroke="#644E77" stroke-width="0.776119" stroke-linecap="round" stroke-linejoin="round"/>
</svg>
