<svg width="105" height="31" viewBox="0 0 105 31" fill="none" xmlns="http://www.w3.org/2000/svg">
<path d="M2.52724 12.1289V15.1269C2.52722 15.2585 2.49258 15.3879 2.42682 15.5019C2.36105 15.6159 2.26647 15.7106 2.15258 15.7765L1.08038 16.3864L1.00423 12.7267C0.994894 12.5932 1.00103 12.4592 1.0225 12.3271C1.37765 12.1063 1.76221 11.9369 2.16476 11.8239C2.20931 11.8153 2.25523 11.8167 2.29916 11.8281C2.34308 11.8395 2.38391 11.8606 2.41865 11.8899C2.45339 11.9191 2.48117 11.9557 2.49996 11.9971C2.51875 12.0384 2.52807 12.0835 2.52724 12.1289Z" fill="#DEDFE0"/>
<path d="M14.7427 15.5527C15.9291 15.5527 17.0888 15.905 18.0751 16.565C19.0615 17.225 19.8302 18.163 20.2841 19.2605C20.7379 20.3579 20.8565 21.5655 20.6249 22.7304C20.3932 23.8954 19.8217 24.9654 18.9826 25.8051C18.1435 26.6448 17.0746 27.2165 15.9109 27.4478C14.7473 27.6792 13.5413 27.5599 12.4454 27.1049C11.3496 26.6499 10.4131 25.8797 9.75442 24.8918C9.09576 23.9039 8.74452 22.7426 8.74512 21.5547C8.74593 19.9626 9.37817 18.436 10.5029 17.3105C11.6275 16.185 13.1526 15.5527 14.7427 15.5527ZM18.6569 21.5547C18.6569 20.7796 18.4273 20.0219 17.9972 19.3775C17.5671 18.733 16.9558 18.2307 16.2406 17.9341C15.5254 17.6374 14.7384 17.5598 13.9791 17.7111C13.2199 17.8623 12.5224 18.2355 11.975 18.7836C11.4276 19.3317 11.0548 20.03 10.9038 20.7902C10.7528 21.5504 10.8303 22.3384 11.1265 23.0545C11.4228 23.7706 11.9245 24.3827 12.5682 24.8133C13.2118 25.2439 13.9686 25.4737 14.7427 25.4737C15.2569 25.4741 15.766 25.3731 16.2411 25.1762C16.7161 24.9794 17.1478 24.6908 17.5113 24.3268C17.8749 23.9628 18.1632 23.5306 18.3597 23.055C18.5563 22.5793 18.6573 22.0695 18.6569 21.5547Z" fill="#DEDFE0"/>
<path d="M14.7432 17.6387C15.5175 17.6387 16.2744 17.8686 16.9181 18.2994C17.5619 18.7301 18.0636 19.3424 18.3597 20.0586C18.6559 20.7749 18.7332 21.5631 18.5819 22.3234C18.4307 23.0836 18.0576 23.7819 17.5099 24.3299C16.9622 24.8779 16.2644 25.2509 15.505 25.4017C14.7455 25.5526 13.9584 25.4746 13.2433 25.1775C12.5281 24.8804 11.917 24.3776 11.4873 23.7327C11.0575 23.0879 10.8285 22.3299 10.8291 21.5546C10.8291 21.0401 10.9304 20.5307 11.1271 20.0554C11.3238 19.58 11.6122 19.1482 11.9757 18.7846C12.3392 18.4209 12.7707 18.1325 13.2456 17.9359C13.7205 17.7393 14.2294 17.6383 14.7432 17.6387Z" fill="white"/>
<path d="M79.1837 21.5538C79.1837 22.5931 78.7714 23.59 78.0373 24.3249C77.3033 25.0599 76.3077 25.4728 75.2696 25.4728C74.2315 25.4728 73.2359 25.0599 72.5019 24.3249C71.7678 23.59 71.3555 22.5931 71.3555 21.5538C71.3555 20.5144 71.7678 19.5176 72.5019 18.7826C73.2359 18.0477 74.2315 17.6348 75.2696 17.6348C76.3077 17.6348 77.3033 18.0477 78.0373 18.7826C78.7714 19.5176 79.1837 20.5144 79.1837 21.5538Z" fill="white"/>
<path d="M69.5034 23.6312C69.1961 22.7887 69.0772 21.8889 69.155 20.9953C69.2327 20.1017 69.5053 19.2361 69.9535 18.4594C70.4017 17.6828 71.0145 17.014 71.7489 16.5002C72.4832 15.9865 73.3212 15.6402 74.2037 15.4859C75.0862 15.3317 75.9918 15.3731 76.8566 15.6072C77.7214 15.8414 78.5243 16.2626 79.2089 16.8413C79.8934 17.4199 80.4429 18.1418 80.8185 18.9561C81.1941 19.7704 81.3868 20.6573 81.3829 21.5543C81.3841 22.2765 81.2572 22.9931 81.0082 23.6709C80.7013 24.5103 80.2152 25.2726 79.5839 25.9046C78.9527 26.5367 78.1913 27.0233 77.353 27.3306C75.9274 27.2971 74.4501 27.2666 72.9302 27.2422C72.1393 26.9125 71.4259 26.421 70.8358 25.7991C70.2457 25.1773 69.7919 24.4389 69.5034 23.6312ZM78.5683 23.6617C78.9697 23.0326 79.1812 22.3008 79.1775 21.5543C79.1759 20.6101 78.8341 19.6982 78.215 18.986C77.5958 18.2738 76.7408 17.8092 75.807 17.6774C74.8732 17.5457 73.9233 17.7556 73.1316 18.2688C72.34 18.7819 71.7598 19.5637 71.4976 20.4707C71.2354 21.3777 71.3089 22.3489 71.7044 23.2061C72.0999 24.0632 72.791 24.7487 73.6507 25.1367C74.5104 25.5247 75.4811 25.5892 76.3845 25.3182C77.2878 25.0472 78.0633 24.4591 78.5683 23.6617Z" fill="#DEDFE0"/>
<path d="M94.5406 8.03416C94.5966 8.09522 94.634 8.17109 94.6482 8.25276C94.6624 8.33444 94.6529 8.41849 94.6209 8.49492C94.5888 8.57136 94.5355 8.63697 94.4672 8.68396C94.399 8.73096 94.3188 8.75735 94.236 8.76002H75.4207C75.3218 8.76021 75.2258 8.72568 75.1496 8.66242L68.8505 3.5479C68.7809 3.49103 68.7307 3.41386 68.7069 3.32711C68.6831 3.24037 68.6868 3.14836 68.7176 3.06385C68.7484 2.97935 68.8048 2.90655 68.8788 2.85556C68.9528 2.80458 69.0409 2.77794 69.1307 2.77935L89.7797 3.12398C89.8952 3.12804 90.0046 3.17731 90.0843 3.26122L94.5406 8.03416Z" fill="white"/>
<path d="M41.3043 2.46875L37.6277 9.41011H33.7227C33.6331 9.41078 33.5455 9.38335 33.4722 9.33166C33.3989 9.27997 33.3436 9.20661 33.3141 9.12187C33.2845 9.03712 33.2822 8.94525 33.3074 8.85911C33.3326 8.77298 33.3841 8.6969 33.4547 8.64155L41.2007 2.54194C41.2314 2.51255 41.2663 2.48789 41.3043 2.46875Z" fill="white"/>
<path d="M41.4761 2.43789L51.8631 2.63003C51.8631 2.63003 50.8975 6.2715 50.2548 9.4128H37.626L41.3025 2.47144C41.3569 2.44666 41.4164 2.43516 41.4761 2.43789Z" fill="white"/>
<path d="M68.1868 8.72351C68.2332 8.78794 68.2609 8.86389 68.2671 8.94306C68.2732 9.02222 68.2575 9.10156 68.2217 9.1724C68.1858 9.24323 68.1312 9.30283 68.0638 9.34469C67.9964 9.38654 67.9188 9.40904 67.8395 9.40972H50.2549C50.8976 6.26842 51.8632 2.62695 51.8632 2.62695L63.6878 2.84349C63.754 2.84467 63.819 2.86127 63.8777 2.89197C63.9364 2.92267 63.9872 2.96664 64.0259 3.02038L68.1868 8.72351Z" fill="white"/>
<path d="M50.2553 9.41136H67.8399C67.9192 9.41068 67.9968 9.38818 68.0642 9.34633C68.1316 9.30447 68.1862 9.24487 68.2221 9.17404C68.2579 9.1032 68.2736 9.02387 68.2675 8.9447C68.2613 8.86553 68.2335 8.78958 68.1872 8.72516L64.0263 3.02202C63.9875 2.96828 63.9368 2.92431 63.8781 2.89361C63.8194 2.86291 63.7544 2.84631 63.6882 2.84513L51.8636 2.62859L41.4766 2.43646C41.4169 2.43373 41.3574 2.44523 41.303 2.47001C41.266 2.48443 41.2311 2.50393 41.1994 2.52795L33.4534 8.62756C33.3828 8.68291 33.3313 8.75898 33.3061 8.84512C33.2809 8.93125 33.2832 9.02313 33.3128 9.10787C33.3423 9.19261 33.3976 9.26597 33.4709 9.31766C33.5442 9.36935 33.6318 9.39678 33.7215 9.39611H50.2553V9.41136ZM2.16472 11.8268C1.76233 11.9388 1.37777 12.1072 1.02246 12.327C1.0842 11.8828 1.2975 11.4737 1.62618 11.1691C1.95485 10.8645 2.37866 10.6831 2.8257 10.6557C8.43038 10.3111 24.3062 9.33207 26.1704 9.24972C28.4366 9.14603 29.0001 9.32292 31.3121 7.60893C33.624 5.89494 40.84 1 40.84 1L91.1694 1.58556L98.8545 9.32292H99.5063C100.067 9.32691 100.603 9.55151 100.999 9.94815C101.395 10.3448 101.619 10.8816 101.623 11.4425V16.4686L100.807 17.5574C100.795 17.5732 100.788 17.5921 100.786 17.6118C100.784 17.6316 100.788 17.6514 100.797 17.6692C100.806 17.6869 100.819 17.7018 100.836 17.7122C100.853 17.7227 100.872 17.7282 100.892 17.7282H103.494C103.628 17.7282 103.756 17.7815 103.851 17.8765C103.946 17.9714 103.999 18.1002 103.999 18.2344V19.1494C103.998 19.821 103.731 20.4649 103.257 20.9395C102.782 21.4141 102.139 21.6807 101.468 21.6807H91.1389L89.3113 23.7058L81.0292 23.6783C81.3359 22.8373 81.455 21.9393 81.3781 21.0473C81.3012 20.1553 81.0302 19.291 80.5841 18.515C80.138 17.7391 79.5277 17.0703 78.7959 16.5558C78.0642 16.0412 77.2288 15.6932 76.3484 15.5364C75.468 15.3795 74.564 15.4176 73.6999 15.6478C72.8358 15.8781 72.0325 16.2949 71.3464 16.8692C70.6604 17.4434 70.1082 18.1611 69.7287 18.9718C69.3492 19.7824 69.1516 20.6665 69.1497 21.5618C69.1496 22.2696 69.2712 22.9722 69.5091 23.6387L22.5426 23.4801L22.439 20.0826C22.3853 18.5353 21.7339 17.0693 20.6219 15.9935C19.5099 14.9177 18.0242 14.3161 16.478 14.3154H11.318C10.3098 14.3154 9.34289 14.7165 8.62999 15.4302C7.91708 16.144 7.51657 17.1121 7.51657 18.1216L7.21197 22.5408L3.69991 21.9308C2.98896 21.8079 2.34282 21.4413 1.87214 20.8938C1.40147 20.3463 1.13555 19.652 1.11993 18.9298L1.08033 16.4015L2.15253 15.7916C2.26643 15.7257 2.36101 15.631 2.42677 15.517C2.49254 15.403 2.52717 15.2736 2.52719 15.1419V12.1318C2.52802 12.0864 2.5187 12.0413 2.49992 12C2.48113 11.9586 2.45335 11.922 2.41861 11.8927C2.38387 11.8635 2.34304 11.8424 2.29911 11.831C2.25519 11.8196 2.20927 11.8182 2.16472 11.8268ZM94.2276 8.777C94.3103 8.77434 94.3906 8.74794 94.4588 8.70095C94.527 8.65396 94.5804 8.58835 94.6124 8.51191C94.6445 8.43547 94.654 8.35143 94.6398 8.26975C94.6255 8.18807 94.5882 8.1122 94.5322 8.05115L90.088 3.266C90.0084 3.1821 89.899 3.13282 89.7834 3.12876L69.1314 2.78414C69.0416 2.78273 68.9536 2.80937 68.8795 2.86035C68.8055 2.91133 68.7492 2.98413 68.7184 3.06864C68.6876 3.15314 68.6838 3.24515 68.7076 3.3319C68.7314 3.41864 68.7816 3.49581 68.8512 3.55269L75.1504 8.66721C75.2266 8.73047 75.3225 8.765 75.4215 8.7648L94.2276 8.777Z" fill="white"/>
<path d="M77.3689 27.3202C90.7531 27.6251 99.7297 28.1863 99.7297 28.8298C99.7297 29.7966 79.361 30.5834 54.2374 30.5834C29.1138 30.5834 8.74512 29.7966 8.74512 28.8298C8.74512 27.863 29.1138 27.0762 54.2374 27.0762C60.9052 27.0762 67.2409 27.1311 72.9461 27.2317C73.6834 27.535 74.473 27.6904 75.2702 27.6892C75.9859 27.6895 76.6961 27.5646 77.3689 27.3202Z" fill="#DEDFE0"/>
<path d="M77.3681 27.3189C76.6954 27.5634 75.9851 27.6883 75.2694 27.6879C74.4723 27.6892 73.6827 27.5337 72.9453 27.2305C74.4653 27.2549 75.9426 27.2854 77.3681 27.3189Z" fill="#DEDFE0"/>
<path d="M18.6574 21.5546C18.658 22.3299 18.4289 23.0879 17.9992 23.7327C17.5695 24.3776 16.9584 24.8804 16.2432 25.1775C15.5281 25.4746 14.741 25.5526 13.9815 25.4017C13.222 25.2509 12.5243 24.8779 11.9766 24.3299C11.4289 23.7819 11.0558 23.0836 10.9045 22.3234C10.7533 21.5631 10.8306 20.7749 11.1268 20.0586C11.4229 19.3424 11.9246 18.7301 12.5683 18.2994C13.2121 17.8686 13.969 17.6387 14.7432 17.6387C15.7808 17.6387 16.7759 18.0511 17.5099 18.7854C18.2438 19.5197 18.6566 20.5158 18.6574 21.5546V21.5546Z" stroke="#644E77" stroke-width="0.815194" stroke-linecap="round" stroke-linejoin="round"/>
<path d="M20.7403 21.5547C20.7409 22.7426 20.3897 23.9039 19.731 24.8918C19.0724 25.8797 18.1359 26.6499 17.04 27.1049C15.9442 27.5599 14.7381 27.6792 13.5745 27.4478C12.4109 27.2165 11.3419 26.6448 10.5029 25.8051C9.66377 24.9654 9.09225 23.8954 8.86059 22.7304C8.62892 21.5655 8.74751 20.3579 9.20137 19.2605C9.65522 18.163 10.424 17.225 11.4103 16.565C12.3967 15.905 13.5564 15.5527 14.7427 15.5527C16.3329 15.5527 17.8579 16.185 18.9826 17.3105C20.1073 18.436 20.7395 19.9626 20.7403 21.5547V21.5547Z" stroke="#644E77" stroke-width="1.22279" stroke-linecap="round" stroke-linejoin="round"/>
<path d="M79.1837 21.5538C79.1837 22.5931 78.7714 23.59 78.0373 24.3249C77.3033 25.0599 76.3077 25.4728 75.2696 25.4728C74.2315 25.4728 73.2359 25.0599 72.5019 24.3249C71.7678 23.59 71.3555 22.5931 71.3555 21.5538C71.3555 20.5144 71.7678 19.5176 72.5019 18.7826C73.2359 18.0477 74.2315 17.6348 75.2696 17.6348C76.3077 17.6348 77.3033 18.0477 78.0373 18.7826C78.7714 19.5176 79.1837 20.5144 79.1837 21.5538V21.5538Z" stroke="#644E77" stroke-width="0.815194" stroke-linecap="round" stroke-linejoin="round"/>
<path d="M9.04398 23.4297H9.04004" stroke="#644E77" stroke-width="0.407597" stroke-miterlimit="10"/>
<path d="M7.22518 22.5347L3.71312 21.9247C3.00217 21.8018 2.35602 21.4352 1.88535 20.8877C1.41468 20.3402 1.14876 19.6459 1.13314 18.9237L1.08136 16.4015L1.0052 12.7417C0.99587 12.6083 1.002 12.4742 1.02348 12.3422C1.08522 11.8981 1.29852 11.489 1.6272 11.1844C1.95587 10.8797 2.37968 10.6983 2.82672 10.6709C8.4314 10.3263 24.3073 9.34731 26.1714 9.26497C28.4377 9.16128 29.0012 9.33817 31.3131 7.62418C33.625 5.91019 40.841 1 40.841 1L91.1704 1.58556L98.8555 9.32292H99.5074C100.068 9.32691 100.604 9.55151 101 9.94815C101.396 10.3448 101.62 10.8816 101.624 11.4425V16.4686L100.808 17.5574C100.796 17.5732 100.789 17.5921 100.787 17.6118C100.785 17.6316 100.789 17.6514 100.798 17.6692C100.807 17.6869 100.82 17.7018 100.837 17.7122C100.854 17.7227 100.874 17.7282 100.893 17.7282H103.495C103.629 17.7282 103.757 17.7815 103.852 17.8765C103.947 17.9714 104 18.1002 104 18.2344V19.1494C103.999 19.821 103.732 20.4649 103.258 20.9395C102.783 21.4141 102.14 21.6807 101.469 21.6807H91.14L89.3123 23.7058L81.0302 23.6783" stroke="#644E77" stroke-width="1.63039" stroke-linecap="round" stroke-linejoin="round"/>
<path d="M69.5067 23.6332H69.5037L22.5371 23.4746" stroke="#644E77" stroke-width="1.63039" stroke-linecap="round" stroke-linejoin="round"/>
<path d="M7.22559 22.5339L7.53019 18.1147C7.53018 17.1074 7.92902 16.1411 8.63929 15.4277C9.34956 14.7143 10.3133 14.3118 11.3194 14.3086H16.4733C18.0196 14.3092 19.5053 14.9109 20.6172 15.9867C21.7292 17.0625 22.3807 18.5285 22.4344 20.0758L22.5379 23.4733" stroke="#644E77" stroke-width="1.63039" stroke-linecap="round" stroke-linejoin="round"/>
<path d="M99.7297 17.6406C98.941 18.5735 98.285 19.6111 97.7803 20.724" stroke="#644E77" stroke-width="0.815194" stroke-linecap="round" stroke-linejoin="round"/>
<path d="M41.3032 2.47144C41.3576 2.44666 41.4171 2.43516 41.4768 2.43789L51.8637 2.63003L63.6884 2.84657C63.7546 2.84775 63.8196 2.86435 63.8783 2.89505C63.937 2.92575 63.9877 2.96971 64.0265 3.02346L68.1874 8.72659C68.2337 8.79102 68.2615 8.86697 68.2676 8.94614C68.2738 9.0253 68.2581 9.10464 68.2223 9.17547C68.1864 9.24631 68.1318 9.30591 68.0644 9.34777C67.997 9.38962 67.9194 9.41212 67.8401 9.4128H33.7247C33.6351 9.41347 33.5474 9.38604 33.4742 9.33435C33.4009 9.28266 33.3456 9.2093 33.316 9.12456C33.2864 9.03982 33.2841 8.94794 33.3093 8.8618C33.3346 8.77567 33.3861 8.69959 33.4566 8.64425L41.2027 2.54464C41.2325 2.51549 41.2663 2.49083 41.3032 2.47144Z" stroke="#644E77" stroke-width="0.815194" stroke-linecap="round" stroke-linejoin="round"/>
<path d="M69.1307 2.77935L89.7797 3.12398C89.8952 3.12804 90.0046 3.17731 90.0843 3.26122L94.5376 8.03416C94.5936 8.09522 94.6309 8.17109 94.6451 8.25276C94.6594 8.33444 94.6499 8.41849 94.6178 8.49492C94.5857 8.57136 94.5324 8.63697 94.4642 8.68396C94.396 8.73096 94.3157 8.75735 94.233 8.76002H75.4207C75.3218 8.76021 75.2258 8.72568 75.1496 8.66242L68.8505 3.5479C68.7809 3.49103 68.7307 3.41386 68.7069 3.32711C68.6831 3.24037 68.6868 3.14836 68.7176 3.06385C68.7484 2.97935 68.8048 2.90655 68.8788 2.85556C68.9528 2.80458 69.0409 2.77794 69.1307 2.77935V2.77935Z" stroke="#644E77" stroke-width="0.815194" stroke-linecap="round" stroke-linejoin="round"/>
<path d="M51.8641 2.62695C51.8641 2.62695 50.8985 6.26842 50.2558 9.40972C49.9953 10.5798 49.8111 11.7656 49.7045 12.9597C49.5674 15.6588 49.7045 21.1301 49.7045 21.1301" stroke="#644E77" stroke-width="0.815194" stroke-linecap="round" stroke-linejoin="round"/>
<path d="M70.1339 9.19336C70.1339 9.19336 70.3289 13.3014 70.1339 14.3079C69.939 15.3143 69.7471 15.5522 69.7471 15.5522" stroke="#644E77" stroke-width="0.815194" stroke-linecap="round" stroke-linejoin="round"/>
<path d="M95.2207 16.2324H98.7541" stroke="#644E77" stroke-width="0.815194" stroke-linecap="round" stroke-linejoin="round"/>
<path d="M44.2668 12.3516H8.54306C7.59302 12.3516 6.68189 12.7294 6.01012 13.402C5.33834 14.0747 4.96094 14.9869 4.96094 15.9381V16.9537" stroke="#644E77" stroke-width="0.815194" stroke-linecap="round" stroke-linejoin="round"/>
<path d="M1.00195 12.3486H1.02328C1.37721 12.1203 1.76183 11.9436 2.16553 11.824C2.20834 11.8156 2.25245 11.8166 2.29486 11.8268C2.33728 11.837 2.37701 11.8561 2.41138 11.883C2.44574 11.9099 2.47394 11.9439 2.49406 11.9826C2.51419 12.0214 2.52576 12.064 2.52801 12.1076V15.1056C2.52799 15.2373 2.49335 15.3666 2.42759 15.4806C2.36182 15.5947 2.26724 15.6894 2.15335 15.7552L1.08115 16.3652L1.00195 16.4109" stroke="#644E77" stroke-width="0.815194" stroke-linecap="round" stroke-linejoin="round"/>
<path d="M69.5034 23.6312C69.1961 22.7887 69.0772 21.8889 69.155 20.9953C69.2327 20.1017 69.5053 19.2361 69.9535 18.4594C70.4017 17.6828 71.0145 17.014 71.7489 16.5002C72.4832 15.9865 73.3212 15.6402 74.2037 15.4859C75.0862 15.3317 75.9918 15.3731 76.8566 15.6072C77.7214 15.8414 78.5243 16.2626 79.2089 16.8413C79.8934 17.4199 80.4429 18.1418 80.8185 18.9561C81.1941 19.7704 81.3868 20.6573 81.3829 21.5543C81.3841 22.2765 81.2572 22.9931 81.0082 23.6709C80.5768 24.8475 79.7952 25.8632 78.769 26.5809C77.7428 27.2986 76.5213 27.6838 75.2695 27.6844C74.4724 27.6856 73.6827 27.5302 72.9454 27.2269C72.1532 26.9007 71.4378 26.4123 70.8451 25.7931C70.2524 25.1739 69.7954 24.4375 69.5034 23.6312Z" stroke="#644E77" stroke-width="1.22279" stroke-linecap="round" stroke-linejoin="round"/>
<path d="M28.9231 12.3516C28.9231 12.3516 27.7047 18.6372 30.2024 21.5559H65.8409" stroke="#644E77" stroke-width="0.815194" stroke-linecap="round" stroke-linejoin="round"/>
<path d="M89.3533 22.1914H85.165" stroke="#644E77" stroke-width="0.815194" stroke-linecap="round" stroke-linejoin="round"/>
<path d="M41.3208 2.43359L41.3025 2.47019L37.626 9.41155" stroke="#644E77" stroke-width="0.815194" stroke-linecap="round" stroke-linejoin="round"/>
</svg>
