<svg width="105" height="38" viewBox="0 0 105 38" fill="none" xmlns="http://www.w3.org/2000/svg">
<path d="M55.6498 37.8174C81.5129 37.8174 102.479 37.1513 102.479 36.3296C102.479 35.5079 81.5129 34.8418 55.6498 34.8418C29.7866 34.8418 8.82031 35.5079 8.82031 36.3296C8.82031 37.1513 29.7866 37.8174 55.6498 37.8174Z" fill="#DEDFE0"/>
<path d="M103.94 20.2325C104.126 20.6542 104.053 21.1723 104.039 21.6207L103.963 24.2276C103.93 25.4132 103.913 26.6188 103.203 27.6283C102.899 28.0567 102.481 28.3915 101.997 28.5948C101.382 28.8595 100.754 29.0912 100.114 29.2889C98.7425 29.7438 97.3576 30.1888 95.9595 30.5542C95.3192 30.7388 94.6633 30.8644 94.0001 30.9294C93.6912 30.9493 93.3758 30.9294 93.0702 30.9294C92.9531 30.9295 92.8382 30.8973 92.7381 30.8364C92.6623 30.7648 92.6088 30.6728 92.5841 30.5714C92.5593 30.4701 92.5644 30.3637 92.5986 30.2652V30.2154L92.6152 30.139C92.6152 30.159 92.6152 30.1789 92.6152 30.1955C92.9289 28.8409 92.9526 27.4352 92.685 26.0708C92.2294 23.8026 90.9779 21.7721 89.1565 20.3457C87.335 18.9193 85.0637 18.1911 82.7524 18.2926C80.4412 18.394 78.2423 19.3184 76.5528 20.8988C74.8634 22.4793 73.7946 24.6117 73.5394 26.911C73.4769 27.6121 73.4558 28.3163 73.4763 29.0198C73.4853 29.6941 73.5341 30.3672 73.6224 31.0357C73.6498 31.1246 73.6515 31.2195 73.6275 31.3093C73.6034 31.3992 73.5544 31.4805 73.4863 31.5438C73.204 31.753 72.7457 31.6833 72.4136 31.6833H26.5838C26.5034 31.6916 26.4222 31.6815 26.3463 31.6539C26.2704 31.6263 26.2017 31.5818 26.1454 31.5239C26.0915 31.4222 26.0614 31.3095 26.0574 31.1945C26.0533 31.0794 26.0755 30.9649 26.1221 30.8597C26.5242 29.5792 26.6554 28.2291 26.5073 26.8952C26.3593 25.5613 25.9351 24.2729 25.262 23.1118C24.5936 21.9492 23.6884 20.94 22.6052 20.1495C21.4963 19.3355 20.227 18.7665 18.8815 18.4803C17.536 18.194 16.1451 18.197 14.8008 18.489C13.4451 18.7841 12.1686 19.3674 11.0581 20.1993C9.97347 21.0259 9.06935 22.0657 8.40128 23.2546C7.72056 24.4613 7.31142 25.8021 7.2024 27.1833C7.09403 28.5581 7.27388 29.9403 7.73044 31.2416C7.75958 31.2921 7.77493 31.3493 7.77493 31.4076C7.77493 31.4659 7.75958 31.5232 7.73044 31.5737C7.5488 31.7439 7.31446 31.847 7.06624 31.8659C6.53488 31.9191 5.98027 31.8659 5.44891 31.8659H1.48363C1.39475 31.8724 1.30568 31.8564 1.2246 31.8195C1.00209 31.7065 1.00541 31.4209 1.00541 31.2084C0.990265 30.8512 1.00694 30.4933 1.05522 30.139C1.1115 29.8474 1.19147 29.5608 1.29434 29.2822L2.05153 27.1601C1.80577 27.1601 1.52681 27.1402 1.42718 26.8745C1.39353 26.7536 1.38117 26.6277 1.39065 26.5025V22.5904C1.36931 22.3006 1.41476 22.0097 1.52349 21.7402C1.75596 21.2587 2.24082 20.9598 2.60281 20.5878C2.9648 20.2159 3.17402 19.6579 3.4397 19.2063C3.74428 18.6557 4.11572 18.1448 4.5456 17.6853C5.01248 17.2273 5.54395 16.8401 6.12307 16.5362C7.33497 15.8882 8.60054 15.3459 9.90569 14.9156C11.2341 14.4573 12.6023 14.0687 13.9772 13.7333C15.3521 13.3979 16.8101 13.0923 18.2381 12.8233C19.613 12.5643 20.9945 12.3285 22.3893 12.1591C23.7842 11.9898 25.2288 11.9366 26.6535 11.8901C27.0328 11.8668 27.3992 11.7443 27.7162 11.5348C28.3339 11.1562 28.9317 10.7444 29.5461 10.3525C30.6952 9.62188 31.8509 8.89458 33.0298 8.20713C34.2852 7.46987 35.5505 6.73925 36.839 6.06508C38.1276 5.39092 39.4161 4.77986 40.7445 4.22857C42.0729 3.67728 43.4013 3.19574 44.7729 2.78393C46.1281 2.37097 47.5037 2.02845 48.8943 1.75774C50.2922 1.50143 51.7037 1.32623 53.1219 1.23303C54.5632 1.12676 56.0112 1.08026 57.4591 1.04041C58.9071 1.00056 60.3185 1.00056 61.7532 1.0072C63.1247 1.0072 64.4996 1.03377 65.8679 1.09354C67.3258 1.15664 68.7871 1.22638 70.2383 1.37251C71.665 1.51004 73.0837 1.71953 74.4892 2.00018C75.8569 2.28814 77.2064 2.6563 78.5309 3.10275C79.836 3.54112 81.1412 3.9961 82.4331 4.47432C83.8544 5.00568 85.2725 5.54258 86.6873 6.08501C88.1385 6.64294 89.5699 7.25068 91.0046 7.83186C92.2034 8.3134 93.389 8.82816 94.6211 9.22336C95.9761 9.65509 97.4174 9.7514 98.8189 9.95398C99.4449 10.0172 100.062 10.1497 100.659 10.3492C100.767 10.3765 100.867 10.4265 100.954 10.4957C101.041 10.565 101.113 10.652 101.164 10.751C101.216 11.0262 101.173 11.3111 101.041 11.558C100.992 11.6444 100.961 11.739 100.948 11.837C100.944 11.8945 100.944 11.9522 100.948 12.0097C100.272 11.9731 99.5954 11.9998 98.9252 12.0894C98.2387 12.1451 97.5579 12.2561 96.8894 12.4215C96.6536 12.4879 95.8765 12.6805 96.1986 13.0558C96.3846 13.2683 96.6237 13.441 96.8329 13.637C97.0422 13.8329 97.3444 14.1185 97.5968 14.3676C98.1148 14.8724 98.6263 15.3905 99.1244 15.9152C99.3835 16.1842 99.6358 16.4598 99.8882 16.7355C100.007 16.8675 100.146 16.9796 100.3 17.0676C100.474 17.1487 100.663 17.1928 100.855 17.1971C101.2 17.2308 101.547 17.2463 101.894 17.2436C102.032 17.2441 102.169 17.2363 102.306 17.2203C102.498 17.6526 102.712 18.0749 102.947 18.4856C103.276 19.0801 103.671 19.6281 103.94 20.2325ZM83.6818 7.41341C83.7349 7.33371 83.6452 7.30714 83.5688 7.27393C82.9046 6.96507 82.2404 6.68611 81.5563 6.38722C80.2644 5.81601 78.9593 5.24812 77.6076 4.79978C76.9434 4.57728 76.2992 4.38134 75.635 4.20532C74.9708 4.02931 74.2833 3.87322 73.5992 3.73042C72.221 3.44481 70.8295 3.1891 69.4313 3.03301C67.9767 2.8736 66.5155 2.78725 65.0509 2.73412C63.6594 2.68762 62.2546 2.66438 60.8598 2.68098C59.4086 2.69759 57.9539 2.71087 56.5027 2.76733C55.0514 2.82379 53.6101 2.90349 52.1854 3.02969C50.7607 3.15589 49.3791 3.31197 47.9909 3.55441C46.6014 3.79662 45.2356 4.16 43.9094 4.64037C42.6136 5.11872 41.3472 5.67319 40.1168 6.30087C38.7884 6.96507 37.46 7.67909 36.1649 8.40971C35.0058 9.05067 33.8402 9.71487 32.7243 10.4023C31.6915 11.0399 30.6553 11.6709 29.6391 12.3318C29.4896 12.4281 29.2804 12.5377 29.2871 12.7403C29.3044 12.8481 29.3506 12.9491 29.4208 13.0327C29.491 13.1164 29.5825 13.1794 29.6856 13.2152C30.128 13.3519 30.5947 13.3916 31.0538 13.3314C31.3693 13.3314 31.6881 13.3314 32.0036 13.3082V13.348C31.7114 14.2779 31.5453 14.8458 31.2697 15.7823C30.8593 17.0491 30.6181 18.3645 30.5524 19.6945C30.4892 21.0865 30.5626 22.4813 30.7715 23.859C30.9006 24.5325 31.0692 25.1979 31.2763 25.8516C31.4454 26.5055 31.6595 27.1469 31.9173 27.7712C32.0822 28.1848 32.3696 28.5382 32.7409 28.7841C33.1088 28.9763 33.5221 29.0647 33.9365 29.0398H70.6335C70.8294 29.0441 71.0227 28.9947 71.1925 28.8969C71.3623 28.7991 71.502 28.6567 71.5966 28.4852C71.7214 28.1469 71.7657 27.7842 71.7261 27.4258C71.7056 26.7582 71.7557 26.0903 71.8756 25.4332C71.984 24.8282 72.1646 24.2383 72.4136 23.6764C72.6995 23.0625 73.0326 22.4718 73.4099 21.9096C74.1626 20.7637 75.1035 19.7532 76.1929 18.9207C76.4574 18.7116 76.7335 18.5176 77.0198 18.3395C77.2037 18.2582 77.3722 18.1458 77.518 18.0074C77.5675 17.9304 77.5982 17.8428 77.6076 17.7517C77.6276 17.4653 77.6276 17.1779 77.6076 16.8916C77.6076 16.141 77.5844 15.3938 77.5611 14.6432C77.551 13.977 77.5045 13.3118 77.4217 12.6506C77.2988 11.754 76.8471 11.1562 76.5084 10.2894C77.1508 10.2449 77.7878 10.1415 78.4113 9.98054C79.0338 9.76067 79.6378 9.49194 80.2179 9.17686C80.8821 8.84476 81.5696 8.51266 82.2404 8.18056C82.5493 8.0278 82.8548 7.87171 83.1604 7.7123C83.2932 7.63924 83.4327 7.57282 83.5622 7.48979C83.6085 7.47612 83.6499 7.44964 83.6818 7.41341ZM10.4371 17.2668C10.5865 17.1705 10.9717 16.9347 10.9684 16.7222C10.9684 16.6558 10.9186 16.6225 10.8621 16.5927C10.7374 16.5436 10.6044 16.5188 10.4703 16.5196C10.1658 16.5086 9.86104 16.5275 9.56031 16.5761C8.26009 16.8082 7.02666 17.3229 5.94706 18.0838C5.38289 18.4683 4.86279 18.9138 4.39615 19.4122C4.03447 19.7364 3.75454 20.1415 3.57919 20.5945C3.55944 20.6507 3.55519 20.7112 3.56688 20.7696C3.57857 20.8281 3.60576 20.8823 3.64561 20.9266C3.70055 20.969 3.76892 20.9902 3.83822 20.9863C4.08762 20.9886 4.33668 20.9675 4.58213 20.9232L5.84411 20.7804C6.11401 20.7555 6.38231 20.7156 6.64779 20.6609C7.04299 20.5646 7.16919 20.1262 7.39834 19.834C7.81349 19.3148 8.28089 18.8396 8.79316 18.4159C9.04316 18.197 9.3084 17.9961 9.58688 17.8148C9.8592 17.6089 10.1581 17.4528 10.4371 17.2668Z" fill="white"/>
<path d="M102.103 16.7065C102.165 16.8836 102.234 17.0563 102.312 17.2246C102.175 17.2406 102.038 17.2483 101.9 17.2478C101.553 17.2505 101.206 17.235 100.861 17.2013C100.669 17.197 100.48 17.1529 100.306 17.0718C100.152 16.9838 100.013 16.8717 99.8942 16.7397C99.6418 16.464 99.3894 16.1884 99.1304 15.9194C98.6322 15.3947 98.1341 14.8766 97.6027 14.3718C97.3503 14.1227 97.0946 13.8836 96.8389 13.6412C96.5832 13.3988 96.3905 13.2726 96.2046 13.06C95.8725 12.6847 96.6595 12.4921 96.8953 12.4257C97.5639 12.2604 98.2447 12.1493 98.9311 12.0936C99.6013 12.004 100.278 11.9774 100.954 12.0139C100.982 12.223 101.022 12.4304 101.073 12.6349C101.216 13.329 101.372 14.0165 101.541 14.7039C101.692 15.3811 101.879 16.0496 102.103 16.7065Z" fill="#DEDFE0"/>
<path d="M90.2288 24.1567C90.864 25.3357 91.1983 26.6533 91.2019 27.9925C91.204 28.8358 91.0729 29.6742 90.8133 30.4766C90.3887 31.7537 89.6565 32.9067 88.6812 33.8341C87.7153 34.7505 86.5345 35.4095 85.2473 35.7503C83.9428 36.0921 82.5743 36.1081 81.2621 35.7968C79.9664 35.4861 78.7695 34.8546 77.7817 33.9603C76.7851 33.063 76.0293 31.9302 75.5831 30.6655C75.137 29.4009 75.0149 28.0446 75.2278 26.7205C75.435 25.4055 75.9682 24.1633 76.7788 23.1073C77.6034 22.0436 78.6764 21.1986 79.9038 20.6464C81.12 20.1048 82.4524 19.8765 83.7794 19.9822C85.1203 20.0948 86.4132 20.5337 87.5455 21.2608C88.6686 21.9858 89.5914 22.9816 90.2288 24.1567ZM88.5418 28.0855V27.9925C88.5295 26.6076 87.9691 25.2839 86.9833 24.3111C85.9975 23.3383 84.6665 22.7956 83.2815 22.8018C81.8965 22.8079 80.5704 23.3624 79.5933 24.3439C78.6161 25.3254 78.0675 26.654 78.0675 28.039C78.0675 29.4239 78.6161 30.7525 79.5933 31.734C80.5704 32.7155 81.8965 33.27 83.2815 33.2761C84.6665 33.2823 85.9975 32.7396 86.9833 31.7668C87.9691 30.794 88.5295 29.4704 88.5418 28.0855Z" fill="#DEDFE0"/>
<path d="M88.5331 27.9882V28.0812C88.5208 29.5357 87.9328 30.9261 86.8978 31.9481C85.8628 32.9701 84.4651 33.5404 83.0105 33.5343C81.556 33.5281 80.1631 32.946 79.1368 31.9153C78.1104 30.8846 77.5342 29.4893 77.5342 28.0347C77.5342 26.5802 78.1104 25.1849 79.1368 24.1542C80.1631 23.1235 81.556 22.5414 83.0105 22.5352C84.4651 22.5291 85.8628 23.0994 86.8978 24.1214C87.9328 25.1433 88.5208 26.5337 88.5331 27.9882Z" fill="white"/>
<path d="M83.5841 7.27311C83.6604 7.30632 83.7501 7.33289 83.697 7.41259C83.6712 7.44429 83.6381 7.46934 83.6007 7.48565C83.4711 7.56867 83.3317 7.6351 83.1988 7.70816C82.8933 7.86757 82.5878 8.02365 82.2789 8.17642C81.6147 8.50852 80.9505 8.84062 80.2564 9.17272C79.6763 9.4878 79.0722 9.75653 78.4498 9.9764C77.8263 10.1373 77.1893 10.2407 76.5469 10.2853H76.4007L75.6602 4.16797C76.3244 4.34398 76.9885 4.53992 77.6328 4.76243C78.9612 5.22737 80.2896 5.79526 81.5715 6.36647C82.2258 6.68529 82.9199 6.96425 83.5841 7.27311Z" fill="white"/>
<path d="M54.791 12.1885C56.1194 12.0922 57.471 12.0158 58.8094 11.9029L63.2064 11.5309L68.8156 11.056C69.968 10.9597 71.1137 10.8435 72.2594 10.7239C73.6377 10.5911 75.0092 10.4649 76.3841 10.2988H76.5303C76.8624 11.1656 77.3207 11.7634 77.4435 12.6601C77.5263 13.3212 77.5729 13.9864 77.583 14.6527C77.6063 15.4032 77.6229 16.1504 77.6295 16.901C77.6494 17.1873 77.6494 17.4748 77.6295 17.7611C77.6198 17.8614 77.5844 17.9575 77.5266 18.0401C77.3808 18.1785 77.2123 18.2909 77.0284 18.3722C76.7421 18.5503 76.466 18.7443 76.2015 18.9534C75.1121 19.7859 74.1712 20.7964 73.4185 21.9423C73.0412 22.5045 72.7081 23.0952 72.4222 23.709C72.1732 24.271 71.9926 24.8608 71.8842 25.4658C71.7643 26.1229 71.7142 26.7908 71.7347 27.4584C71.7743 27.8168 71.73 28.1795 71.6052 28.5178C71.5064 28.686 71.3635 28.8241 71.1921 28.9171C71.0206 29.0101 70.827 29.0547 70.6322 29.0459H53.4028C53.201 28.7299 53.1066 28.3571 53.1338 27.9832C53.1338 27.1795 53.1338 26.3758 53.1172 25.5721C53.1172 24.2437 53.1172 22.8921 53.177 21.5504C53.2388 20.131 53.3807 18.7162 53.6021 17.3128C53.8378 15.8648 54.1699 14.4335 54.5087 12.9955C54.5718 12.7198 54.6415 12.4442 54.7113 12.1686L54.791 12.1885Z" fill="white"/>
<path d="M75.6465 4.18625L76.3871 10.3035C75.0122 10.4696 73.6406 10.5958 72.2624 10.7286C71.1167 10.8382 69.9709 10.9545 68.8185 11.0607L63.2094 11.5356L58.8124 11.9076C57.484 12.0205 56.1356 12.0969 54.7939 12.1932L56.5142 2.75822C57.9655 2.70176 59.4201 2.68848 60.8714 2.67188C62.2662 2.67188 63.671 2.67188 65.0625 2.72501C66.527 2.77815 67.9883 2.86449 69.4429 3.0239C70.841 3.17999 72.2325 3.43571 73.6107 3.72131C74.2882 3.85083 74.9757 4.00692 75.6465 4.18625Z" fill="white"/>
<path d="M54.7125 12.1902H54.6361C53.4771 12.2699 52.3114 12.3596 51.159 12.4194L45.6927 12.7116C44.8292 12.7581 43.9624 12.788 43.0923 12.8279L36.9451 13.0969L32.3921 13.2961H31.9969C31.6814 13.2961 31.3625 13.2961 31.047 13.3194C30.5879 13.3795 30.1212 13.3399 29.6788 13.2031C29.5757 13.1673 29.4842 13.1043 29.414 13.0207C29.3438 12.9371 29.2976 12.836 29.2803 12.7282C29.2803 12.5257 29.4829 12.4161 29.6323 12.3198C30.6485 11.6556 31.6847 11.0279 32.7175 10.3903C33.8467 9.69617 34.999 9.03197 36.1581 8.39766C37.4632 7.66704 38.775 6.95966 40.1101 6.28882C41.3405 5.66114 42.6069 5.10667 43.9026 4.62832C45.2288 4.14682 46.5945 3.78233 47.9842 3.53903C49.3723 3.2966 50.7738 3.13387 52.1786 3.01431C53.5834 2.89476 55.0645 2.80177 56.4959 2.75195L54.7756 12.1869L54.7125 12.1902ZM37.151 12.2832C37.2811 11.8396 37.2601 11.3653 37.0913 10.9349C36.9095 10.5751 36.6092 10.2889 36.2411 10.1246C35.866 9.93798 35.439 9.883 35.0289 9.96849C34.4578 10.0685 33.9165 10.2955 33.4448 10.6327C33.2471 10.7841 33.1009 10.9929 33.0264 11.2305C32.8757 11.6044 32.8388 12.0145 32.9201 12.4094C32.9312 12.453 32.9552 12.4922 32.989 12.5218C33.0228 12.5514 33.0648 12.5702 33.1094 12.5755C33.3726 12.6082 33.6379 12.6226 33.9031 12.6186C34.2618 12.6186 34.6138 12.6186 34.9658 12.6186C35.63 12.5987 36.2677 12.5555 36.9153 12.4825C36.9695 12.4754 37.0206 12.4528 37.0624 12.4175C37.1042 12.3821 37.135 12.3355 37.151 12.2832Z" fill="white"/>
<path d="M54.6369 12.1934H54.7133C54.6435 12.469 54.5738 12.7446 54.5107 13.0203C54.1786 14.4483 53.8465 15.8797 53.6041 17.3376C53.3827 18.741 53.2408 20.1558 53.179 21.5752C53.1159 22.9036 53.1092 24.2586 53.1192 25.5969C53.1192 26.4006 53.1192 27.2043 53.1358 28.008C53.1086 28.3819 53.203 28.7547 53.4048 29.0707H33.9304C33.5161 29.0956 33.1028 29.0072 32.7349 28.815C32.3635 28.5692 32.0762 28.2157 31.9113 27.8021C31.6535 27.1778 31.4393 26.5364 31.2703 25.8825C31.0631 25.2288 30.8946 24.5635 30.7655 23.8899C30.5566 22.5122 30.4832 21.1174 30.5463 19.7254C30.612 18.3954 30.8532 17.08 31.2637 15.8133C31.5393 14.8767 31.7054 14.3088 31.9976 13.379V13.3391H32.3928L36.9459 13.1398L43.0931 12.8708C43.9632 12.831 44.83 12.8011 45.6934 12.7546L51.1598 12.4624C52.3188 12.3627 53.4779 12.2731 54.6369 12.1934Z" fill="white"/>
<path d="M37.0922 10.9311C37.261 11.3615 37.2821 11.8358 37.152 12.2794C37.1338 12.3292 37.1022 12.373 37.0605 12.4059C37.0189 12.4387 36.9689 12.4593 36.9162 12.4654C36.2686 12.5384 35.6177 12.5816 34.9668 12.6015C34.6147 12.6015 34.2627 12.6015 33.904 12.6015C33.6388 12.6055 33.3736 12.591 33.1103 12.5584C33.0657 12.5531 33.0237 12.5343 32.9899 12.5047C32.9561 12.4751 32.9321 12.4359 32.921 12.3923C32.8397 11.9974 32.8767 11.5873 33.0273 11.2134C33.1019 10.9758 33.248 10.767 33.4458 10.6156C33.9174 10.2784 34.4588 10.0514 35.0299 9.95138C35.44 9.8659 35.867 9.92087 36.242 10.1075C36.6123 10.2752 36.9129 10.5663 37.0922 10.9311Z" fill="#DEDFE0"/>
<path d="M23.9113 24.1565C24.7576 25.7139 25.065 27.5075 24.7857 29.2579C24.5064 31.0083 23.656 32.6172 22.367 33.8339C21.4009 34.7501 20.2202 35.409 18.9331 35.7501C17.6287 36.0924 16.26 36.1084 14.9479 35.7966C13.6517 35.4844 12.4542 34.8531 11.4642 33.9601C10.4722 33.0597 9.72036 31.9262 9.27676 30.662C8.83316 29.3979 8.71179 28.0431 8.92363 26.7203C9.13007 25.4045 9.66458 24.1618 10.4779 23.107C11.3018 22.0427 12.375 21.1975 13.6029 20.6462C14.818 20.1051 16.1492 19.8768 17.4752 19.982C18.8162 20.094 20.1092 20.533 21.2412 21.2606C22.3595 21.9873 23.2776 22.983 23.9113 24.1565ZM22.2209 28.0852V27.9922C22.2086 26.6047 21.6472 25.2785 20.6595 24.3038C19.6718 23.3292 18.3383 22.7855 16.9507 22.7916C15.5631 22.7978 14.2344 23.3533 13.2554 24.3366C12.2764 25.32 11.7268 26.6511 11.7268 28.0387C11.7268 29.4263 12.2764 30.7575 13.2554 31.7408C14.2344 32.7242 15.5631 33.2797 16.9507 33.2859C18.3383 33.292 19.6718 32.7483 20.6595 31.7736C21.6472 30.799 22.2086 29.4728 22.2209 28.0852Z" fill="#DEDFE0"/>
<path d="M22.2212 27.99V28.083C22.2089 29.5437 21.6185 30.94 20.5791 31.9663C19.5397 32.9926 18.1361 33.5654 16.6754 33.5593C15.2147 33.5531 13.8159 32.9686 12.7852 31.9335C11.7545 30.8984 11.1758 29.4972 11.1758 28.0365C11.1758 26.5758 11.7545 25.1746 12.7852 24.1395C13.8159 23.1044 15.2147 22.5199 16.6754 22.5137C18.1361 22.5076 19.5397 23.0803 20.5791 24.1067C21.6185 25.133 22.2089 26.5293 22.2212 27.99Z" fill="white"/>
<path d="M10.9705 16.7209C10.9705 16.9434 10.5886 17.1692 10.4391 17.2655C10.1602 17.4515 9.86791 17.5976 9.58895 17.7902C9.31047 17.9715 9.04523 18.1724 8.79523 18.3913C8.28296 18.815 7.81556 19.2902 7.40041 19.8094C7.17126 20.1016 7.04506 20.54 6.64986 20.6363C6.38438 20.691 6.11608 20.7309 5.84618 20.7559L4.5842 20.8987C4.33875 20.943 4.08969 20.9641 3.84029 20.9618C3.77099 20.9656 3.70262 20.9444 3.64767 20.902C3.60783 20.8577 3.58064 20.8035 3.56895 20.7451C3.55726 20.6866 3.56151 20.6261 3.58125 20.5699C3.75661 20.1169 4.03654 19.7118 4.39822 19.3876C4.86485 18.8892 5.38496 18.4438 5.94913 18.0592C7.0296 17.3019 8.26297 16.7906 9.56238 16.5615C9.86311 16.5129 10.1679 16.494 10.4723 16.505C10.6064 16.5042 10.7394 16.529 10.8642 16.5781C10.9207 16.6212 10.9705 16.6545 10.9705 16.7209Z" fill="#DEDFE0"/>
<path d="M34.9668 12.6015C34.6147 12.6015 34.2627 12.6015 33.904 12.6015C33.6388 12.6055 33.3736 12.591 33.1103 12.5584C33.0657 12.5531 33.0237 12.5343 32.9899 12.5047C32.9561 12.4751 32.9321 12.4359 32.921 12.3923C32.8397 11.9974 32.8767 11.5873 33.0273 11.2134C33.1019 10.9758 33.248 10.767 33.4458 10.6156C33.9174 10.2784 34.4588 10.0514 35.0299 9.95138C35.44 9.8659 35.867 9.92087 36.242 10.1075C36.6102 10.2718 36.9104 10.558 37.0922 10.9178C37.261 11.3482 37.2821 11.8225 37.152 12.2661C37.1338 12.316 37.1022 12.3598 37.0605 12.3926C37.0189 12.4255 36.9689 12.4461 36.9162 12.4521C36.2686 12.5384 35.6177 12.5816 34.9668 12.6015Z" stroke="#644E77" stroke-width="0.869152" stroke-linecap="round" stroke-linejoin="round"/>
<path d="M31.9976 13.3555C31.7054 14.2853 31.5393 14.8532 31.2637 15.7898C30.8532 17.0565 30.612 18.3719 30.5463 19.7019C30.4832 21.0939 30.5566 22.4888 30.7655 23.8664C30.8946 24.54 31.0631 25.2053 31.2703 25.859C31.4393 26.5129 31.6535 27.1543 31.9113 27.7786C32.0762 28.1922 32.3635 28.5457 32.7349 28.7915C33.1028 28.9837 33.5161 29.0721 33.9304 29.0472" stroke="#644E77" stroke-width="0.869152" stroke-linecap="round" stroke-linejoin="round"/>
<path d="M76.5319 10.2891C76.864 11.1558 77.3223 11.7536 77.4452 12.6503C77.528 13.3115 77.5745 13.9766 77.5847 14.6429C77.6079 15.3934 77.6245 16.1407 77.6311 16.8912C77.6511 17.1776 77.6511 17.465 77.6311 17.7514C77.6215 17.8517 77.586 17.9478 77.5282 18.0303C77.3824 18.1688 77.2139 18.2811 77.03 18.3624C76.7437 18.5405 76.4677 18.7345 76.2031 18.9436C75.1138 19.7761 74.1729 20.7866 73.4201 21.9325C73.0428 22.4948 72.7097 23.0855 72.4238 23.6993C72.1749 24.2613 71.9942 24.8511 71.8858 25.4561C71.7659 26.1132 71.7159 26.7811 71.7364 27.4487C71.7759 27.8071 71.7316 28.1698 71.6068 28.5081C71.5089 28.6775 71.3664 28.8169 71.1949 28.9111C71.0234 29.0054 70.8293 29.0509 70.6338 29.0428" stroke="#644E77" stroke-width="0.869152" stroke-linecap="round" stroke-linejoin="round"/>
<path d="M54.7904 11.875C54.7639 11.978 54.7373 12.0842 54.714 12.1872C54.6443 12.4628 54.5746 12.7385 54.5115 13.0141C54.1794 14.4421 53.8473 15.8735 53.6048 17.3314C53.3835 18.7348 53.2416 20.1496 53.1797 21.569C53.1166 22.8974 53.11 24.2524 53.12 25.5907C53.12 26.3944 53.12 27.1981 53.1366 28.0018C53.1094 28.3758 53.2038 28.7485 53.4056 29.0645" stroke="#644E77" stroke-width="0.869152" stroke-linecap="round" stroke-linejoin="round"/>
<path d="M70.6201 29.0566H53.4074H33.9297" stroke="#644E77" stroke-width="0.869152" stroke-linecap="round" stroke-linejoin="round"/>
<path d="M31.9969 13.3145C31.6814 13.3145 31.3625 13.3145 31.047 13.3378C30.5879 13.3979 30.1212 13.3583 29.6788 13.2215C29.5757 13.1857 29.4842 13.1227 29.414 13.0391C29.3438 12.9554 29.2976 12.8544 29.2803 12.7466C29.2803 12.544 29.4829 12.4344 29.6323 12.3381C30.6485 11.6739 31.6847 11.0463 32.7175 10.4086C33.8467 9.71455 34.999 9.05035 36.1581 8.41604C37.4632 7.68542 38.775 6.97804 40.1101 6.3072C41.3405 5.67952 42.6069 5.12505 43.9026 4.6467C45.2281 4.15842 46.5939 3.78726 47.9842 3.53749C49.3723 3.29505 50.7738 3.13232 52.1786 3.01277C53.5834 2.89321 55.0645 2.80022 56.4959 2.75041C57.9272 2.70059 59.4018 2.68067 60.853 2.66406C62.2479 2.66406 63.6526 2.66406 65.0441 2.7172C66.5087 2.77034 67.9699 2.85668 69.4245 3.01609C70.8227 3.17217 72.2142 3.42789 73.5924 3.7135C74.2765 3.85298 74.9573 4.00907 75.6282 4.1884C76.299 4.36774 76.9566 4.56035 77.6009 4.78286C78.9293 5.2478 80.2577 5.81569 81.5396 6.38691C82.2038 6.6858 82.8879 6.96476 83.5521 7.27361C83.6285 7.30682 83.7181 7.33339 83.665 7.4131C83.6392 7.4448 83.6062 7.46985 83.5687 7.48616C83.4392 7.56918 83.2997 7.6356 83.1668 7.70867C82.8613 7.86807 82.5558 8.02416 82.2469 8.17693C81.5827 8.50903 80.9185 8.84113 80.2244 9.17323C79.6444 9.4883 79.0403 9.75703 78.4178 9.97691C77.7943 10.1378 77.1573 10.2412 76.5149 10.2858H76.3688C74.9939 10.4518 73.6223 10.578 72.2441 10.7109C71.0983 10.8204 69.9526 10.9367 68.8002 11.043L63.191 11.5179L58.794 11.8898C57.4656 12.0027 56.1173 12.0791 54.7756 12.1754H54.6959H54.6195C53.4605 12.2551 52.2948 12.3448 51.1424 12.4046L45.6761 12.6968C44.8126 12.7433 43.9458 12.7732 43.0757 12.813L36.9285 13.082L32.3754 13.2813L31.9969 13.3145Z" stroke="#644E77" stroke-width="0.869152" stroke-linecap="round" stroke-linejoin="round"/>
<path d="M102.311 17.2231C102.236 17.0548 102.166 16.8821 102.102 16.705C101.879 16.0514 101.692 15.3863 101.541 14.7124C101.371 14.025 101.209 13.3375 101.072 12.6434C101.021 12.4389 100.981 12.2315 100.953 12.0224C100.95 11.9649 100.95 11.9072 100.953 11.8497C100.966 11.7517 100.998 11.6571 101.046 11.5707C101.178 11.3238 101.222 11.0389 101.169 10.7637C101.118 10.6648 101.047 10.5778 100.96 10.5085C100.873 10.4392 100.772 10.3892 100.664 10.3619C100.067 10.1624 99.4502 10.0299 98.8242 9.9667C97.4227 9.76412 95.9814 9.66781 94.6264 9.23608C93.3943 8.84421 92.2087 8.32613 91.0098 7.84458C89.5718 7.26341 88.1405 6.65567 86.6925 6.09774C85.2446 5.53981 83.8498 5.00513 82.4284 4.46713C81.1365 3.9889 79.8313 3.53393 78.5262 3.09555C77.2017 2.64911 75.8522 2.28095 74.4845 1.99298C73.079 1.71234 71.6603 1.50285 70.2336 1.36531C68.7824 1.21919 67.3211 1.14945 65.8632 1.08635C64.495 1.02657 63.1201 1.00664 61.7485 1C60.3138 1 58.8825 1 57.4544 1.03321C56.0264 1.06642 54.5585 1.11956 53.1172 1.22583C51.699 1.31903 50.2875 1.49423 48.8896 1.75055C47.499 2.02125 46.1234 2.36378 44.7682 2.77674C43.3999 3.19518 42.0716 3.68337 40.7431 4.22801C39.4147 4.77266 38.1196 5.41029 36.841 6.07449C35.5624 6.73869 34.2871 7.47928 33.0318 8.21654C31.8528 8.90398 30.7071 9.63128 29.5481 10.3619C28.9337 10.7538 28.3359 11.1656 27.7182 11.5442C27.4012 11.7537 27.0347 11.8762 26.6555 11.8995C25.2308 11.946 23.8127 12.0058 22.3913 12.1685C20.9699 12.3313 19.6149 12.5637 18.24 12.8327C16.812 13.1017 15.3906 13.4006 13.9792 13.7427C12.5678 14.0847 11.246 14.4667 9.90765 14.925C8.6025 15.3553 7.33693 15.8976 6.12503 16.5456C5.54537 16.8462 5.0128 17.23 4.54423 17.6847C4.11552 18.1444 3.7452 18.6553 3.44166 19.2057C3.17598 19.6574 2.97672 20.202 2.60476 20.5873C2.23281 20.9725 1.75791 21.2515 1.52544 21.7397C1.41671 22.0092 1.37126 22.3 1.3926 22.5898V26.5219C1.38312 26.6471 1.39548 26.7729 1.42913 26.8938C1.52876 27.1595 1.80772 27.1695 2.05348 27.1795L1.29629 29.3016C1.19343 29.5802 1.11346 29.8668 1.05718 30.1584C1.00889 30.5127 0.992218 30.8705 1.00736 31.2278C1.00736 31.4403 1.00736 31.7259 1.22655 31.8388C1.30763 31.8758 1.39671 31.8918 1.48559 31.8853H5.40437C5.93573 31.8853 6.49034 31.9218 7.0217 31.8853C7.26993 31.8664 7.50426 31.7633 7.6859 31.5931C7.71504 31.5426 7.73039 31.4853 7.73039 31.427C7.73039 31.3687 7.71504 31.3114 7.6859 31.261C7.24118 29.9504 7.07601 28.5611 7.20103 27.1828C7.3103 25.8103 7.71593 24.4778 8.38995 23.2773C9.05802 22.0884 9.96214 21.0486 11.0468 20.222C12.1573 19.3901 13.4337 18.8068 14.7895 18.5116C16.1338 18.2197 17.5247 18.2167 18.8702 18.503C20.2157 18.7892 21.4849 19.3582 22.5939 20.1721C23.6771 20.9627 24.5822 21.9719 25.2507 23.1345C25.9238 24.2956 26.3479 25.584 26.496 26.9179C26.6441 28.2518 26.5129 29.6019 26.1108 30.8824C26.0642 30.9876 26.042 31.1021 26.046 31.2171C26.0501 31.3322 26.0802 31.4448 26.1341 31.5466C26.1903 31.6045 26.259 31.649 26.3349 31.6766C26.4109 31.7042 26.4921 31.7143 26.5724 31.706H72.4122C72.7443 31.706 73.2026 31.7757 73.4849 31.5665C73.5575 31.5012 73.6091 31.416 73.6334 31.3214C73.6576 31.2269 73.6533 31.1273 73.6211 31.0351C73.528 30.3647 73.4747 29.6894 73.4617 29.0126C73.4411 28.3091 73.4622 27.6049 73.5248 26.9038C73.7799 24.6045 74.8487 22.4721 76.5382 20.8916C78.2277 19.3112 80.4265 18.3868 82.7378 18.2854C85.049 18.1839 87.3204 18.9121 89.1418 20.3385C90.9632 21.7649 92.2147 23.7954 92.6703 26.0636C92.938 27.428 92.9142 28.8337 92.6006 30.1883" stroke="#644E77" stroke-width="1.55458" stroke-linecap="round" stroke-linejoin="round"/>
<path d="M102.314 17.2227C102.506 17.6549 102.72 18.0772 102.955 18.488C103.287 19.0691 103.672 19.6271 103.951 20.2315C104.137 20.6533 104.064 21.1713 104.051 21.6197L103.975 24.2266C103.941 25.4122 103.925 26.6178 103.214 27.6274C102.91 28.0557 102.493 28.3905 102.009 28.5938C101.394 28.8585 100.765 29.0902 100.126 29.2879C98.754 29.7428 97.3691 30.1878 95.971 30.5532C95.3307 30.7378 94.6748 30.8634 94.0116 30.9284C93.7027 30.9484 93.3872 30.9284 93.0817 30.9284C92.9645 30.9285 92.8496 30.8964 92.7496 30.8354C92.6738 30.7638 92.6203 30.6718 92.5955 30.5704C92.5708 30.4691 92.5759 30.3628 92.6101 30.2642V30.2144" stroke="#644E77" stroke-width="1.55458" stroke-linecap="round" stroke-linejoin="round"/>
<path d="M92.5986 30.2227L92.6152 30.1465C92.6152 30.1664 92.6152 30.1862 92.6152 30.2028C92.6167 30.2093 92.6167 30.2161 92.6152 30.2227" stroke="#644E77" stroke-width="1.7383" stroke-linecap="round" stroke-linejoin="round"/>
<path d="M102.312 17.2246C102.175 17.2406 102.038 17.2483 101.9 17.2478C101.553 17.2505 101.206 17.235 100.861 17.2013C100.669 17.197 100.48 17.1529 100.306 17.0718C100.152 16.9838 100.013 16.8717 99.8942 16.7397C99.6418 16.464 99.3894 16.1884 99.1304 15.9194C98.6322 15.3947 98.1341 14.8766 97.6027 14.3718C97.3503 14.1227 97.0946 13.8836 96.8389 13.6412C96.5832 13.3988 96.3905 13.2726 96.2046 13.06C95.8725 12.6847 96.6595 12.4921 96.8953 12.4257C97.5639 12.2604 98.2447 12.1493 98.9311 12.0936C99.6013 12.004 100.278 11.9774 100.954 12.0139V12.0139" stroke="#644E77" stroke-width="1.55458" stroke-linecap="round" stroke-linejoin="round"/>
<path d="M3.64709 20.9063C3.70203 20.9487 3.77041 20.9699 3.83971 20.9661C4.08911 20.9684 4.33817 20.9472 4.58362 20.903L5.8456 20.7602C6.1155 20.7352 6.3838 20.6953 6.64928 20.6406C7.04448 20.5443 7.17067 20.1059 7.39982 19.8137C7.81498 19.2945 8.28238 18.8193 8.79465 18.3956C9.04465 18.1767 9.30989 17.9758 9.58837 17.7945C9.86733 17.6119 10.1596 17.4624 10.4385 17.2698C10.588 17.1735 10.9732 16.9377 10.9699 16.7252C10.9699 16.6587 10.9201 16.6255 10.8636 16.5956C10.7388 16.5466 10.6058 16.5218 10.4718 16.5226C10.1673 16.5115 9.86253 16.5305 9.5618 16.579C8.26158 16.8112 7.02815 17.3259 5.94855 18.0868C5.38438 18.4713 4.86427 18.9168 4.39764 19.4152C4.03596 19.7394 3.75602 20.1445 3.58067 20.5975C3.56523 20.6504 3.56321 20.7064 3.57481 20.7603C3.5864 20.8142 3.61125 20.8644 3.64709 20.9063V20.9063Z" stroke="#644E77" stroke-width="0.869152" stroke-linecap="round" stroke-linejoin="round"/>
<path d="M2.2607 25.72H3.45958C3.65501 25.7001 3.85196 25.7001 4.0474 25.72C4.13753 25.7303 4.22249 25.7674 4.29121 25.8267C4.35992 25.8859 4.4092 25.9645 4.43263 26.0521C4.43988 26.1648 4.42406 26.2778 4.38614 26.3842C4.31308 26.6565 4.23005 26.9222 4.15367 27.1912C3.74851 28.586 3.67212 28.8085 3.48947 29.4993C3.46429 29.6279 3.41261 29.7498 3.3377 29.8573C3.2628 29.9648 3.16632 30.0555 3.05442 30.1237C2.91649 30.2006 2.76065 30.2395 2.60276 30.2366C2.24741 30.2366 1.89207 30.2366 1.54004 30.2366" stroke="#644E77" stroke-width="0.869152" stroke-linecap="round" stroke-linejoin="round"/>
<path d="M90.8067 30.4766C90.3821 31.7537 89.6499 32.9067 88.6746 33.8341C87.7105 34.7496 86.5321 35.4085 85.2473 35.7503C83.9428 36.0921 82.5743 36.1081 81.2621 35.7968C79.9664 35.4861 78.7695 34.8546 77.7817 33.9603C76.7851 33.063 76.0293 31.9302 75.5831 30.6655C75.137 29.4009 75.0149 28.0446 75.2278 26.7205C75.435 25.4055 75.9682 24.1633 76.7788 23.1073C77.6034 22.0436 78.6764 21.1986 79.9038 20.6464C81.12 20.1048 82.4524 19.8765 83.7794 19.9822C85.1203 20.0948 86.4132 20.5337 87.5455 21.2608C88.6589 21.9892 89.5723 22.9848 90.2023 24.1567C90.8375 25.3357 91.1717 26.6533 91.1753 27.9925C91.1839 28.8347 91.0595 29.6731 90.8067 30.4766Z" stroke="#644E77" stroke-width="1.30373" stroke-linecap="round" stroke-linejoin="round"/>
<path d="M88.5331 28.0812C88.5208 29.5357 87.9328 30.9261 86.8978 31.9481C85.8628 32.9701 84.4651 33.5404 83.0105 33.5343C81.556 33.5281 80.1631 32.946 79.1368 31.9153C78.1104 30.8846 77.5342 29.4893 77.5342 28.0347C77.5342 26.5802 78.1104 25.1849 79.1368 24.1542C80.1631 23.1235 81.556 22.5414 83.0105 22.5352C84.4651 22.5291 85.8628 23.0994 86.8978 24.1214C87.9328 25.1433 88.5208 26.5337 88.5331 27.9882V28.0812Z" stroke="#644E77" stroke-width="0.869152" stroke-linecap="round" stroke-linejoin="round"/>
<path d="M22.2212 28.083C22.2089 29.5437 21.6185 30.94 20.5791 31.9663C19.5397 32.9926 18.1361 33.5654 16.6754 33.5593C15.2147 33.5531 13.8159 32.9686 12.7852 31.9335C11.7545 30.8984 11.1758 29.4972 11.1758 28.0365C11.1758 26.5758 11.7545 25.1746 12.7852 24.1395C13.8159 23.1044 15.2147 22.5199 16.6754 22.5137C18.1361 22.5076 19.5397 23.0803 20.5791 24.1067C21.6185 25.133 22.2089 26.5293 22.2212 27.99V28.083Z" stroke="#644E77" stroke-width="0.869152" stroke-linecap="round" stroke-linejoin="round"/>
<path d="M24.4925 30.4764C24.0716 31.7536 23.3415 32.907 22.367 33.8339C21.4009 34.7501 20.2202 35.409 18.9331 35.7501C17.6287 36.0924 16.26 36.1084 14.9479 35.7966C13.6517 35.4844 12.4542 34.8531 11.4642 33.9601C10.4722 33.0597 9.72036 31.9262 9.27676 30.662C8.83316 29.3979 8.71179 28.0431 8.92363 26.7203C9.13007 25.4045 9.66458 24.1618 10.4779 23.107C11.3018 22.0427 12.375 21.1975 13.6029 20.6462C14.818 20.1051 16.1492 19.8768 17.4752 19.982C18.8162 20.094 20.1092 20.533 21.2412 21.2606C22.3547 21.989 23.268 22.9846 23.898 24.1565C24.4186 25.1136 24.7386 26.1667 24.8385 27.2516C24.9384 28.3365 24.8162 29.4303 24.4792 30.4664L24.4925 30.4764Z" stroke="#644E77" stroke-width="1.30373" stroke-linecap="round" stroke-linejoin="round"/>
<path d="M75.6445 4.18945L76.3851 10.3067" stroke="#644E77" stroke-width="0.869152" stroke-linecap="round" stroke-linejoin="round"/>
<path d="M54.7891 12.2002L54.7924 12.1869L56.5093 2.75195" stroke="#644E77" stroke-width="0.869152" stroke-linecap="round" stroke-linejoin="round"/>
<path d="M76.1367 14.2031L71.6865 14.3659" stroke="#644E77" stroke-width="0.869152" stroke-linecap="round" stroke-linejoin="round"/>
<path d="M51.1351 15.7148L46.6816 15.8776" stroke="#644E77" stroke-width="0.869152" stroke-linecap="round" stroke-linejoin="round"/>
</svg>
