<svg width="16" height="23" viewBox="0 0 16 23" fill="none" xmlns="http://www.w3.org/2000/svg">
<path d="M2.19315e-05 5.52L5.33601 0H15.1093C15.6 0 16 0.4186 16 0.91264V22.0874C15.9998 22.3295 15.9067 22.5616 15.7412 22.7328C15.5757 22.9039 15.3513 23 15.1173 23H0.882687C0.765956 22.9992 0.650528 22.9745 0.542995 22.9275C0.435462 22.8805 0.337929 22.812 0.255965 22.726C0.174001 22.64 0.109212 22.5381 0.0652975 22.4261C0.0213826 22.3142 -0.000798047 22.1944 2.19315e-05 22.0736V5.52ZM6.22224 1.38L1.33335 6.44H6.22224V1.38Z" fill="#FB5100"/>
</svg>
