<?xml version="1.0" encoding="utf-8"?>
<!-- Generator: Adobe Illustrator 24.2.0, SVG Export Plug-In . SVG Version: 6.00 Build 0)  -->
<svg version="1.1" id="Layer_1" xmlns="http://www.w3.org/2000/svg" xmlns:xlink="http://www.w3.org/1999/xlink" x="0px" y="0px"
	 viewBox="0 0 91.9 92.2" style="enable-background:new 0 0 91.9 92.2;" xml:space="preserve">
<style type="text/css">
	.st0{fill:#FFF9EB;}
	.st1{fill:#FCD770;}
	.st2{fill:#333333;}
	.st3{fill:#DFB28B;}
	.st4{fill:#E6E9ED;}
	.st5{fill:#E1F5CF;}
	.st6{fill:#3F2355;}
	.st7{fill:#FB7333;}
	.st8{fill:#FCE3CE;}
	.st9{fill:#FB5100;}
</style>
<circle class="st0" cx="46" cy="46.9" r="43.5"/>
<path class="st1" d="M27.2,65.2h-4.9v-1.4c0-1.7,0.3-3.3,0.9-4.9c0.5-1.4,1.2-2.6,2.1-3.8c1.4-1.8,3.2-3.2,5.4-4.1l0.1,0.4
	c0.1,1.3,0.4,2.5,0.6,3.8c0.8,3.3,2.2,6.4,4.1,9.1v7.4h-8.3V65.2z"/>
<path class="st1" d="M50.7,71.8H35.5v-7.4c1.9-2.7,3.4-5.9,4.1-9.1c0.3-1.2,0.5-2.5,0.6-3.8l0.1-0.9c3.7,0.7,6.9,3.1,8.6,6.3h-2.7
	c-0.9,0-1.6,0.7-1.6,1.6c0,0.4,0.2,0.9,0.5,1.1s0.7,0.5,1.1,0.5l1.2,8.7C47.7,70.6,49.1,71.8,50.7,71.8z"/>
<path class="st2" d="M31.1,51.1c-2.2,0.9-4.2,2.4-5.6,4.1c-1,1.1-1.7,2.4-2.2,3.8l-0.4-0.3c-0.9-0.6-1.4-1.6-1.4-2.6V56
	c0-1,0.5-1.9,1.3-2.6c0.4-0.3,0.7-0.6,1.1-0.8c0.7-0.5,1-1.2,1-2c0-0.8-0.4-1.5-1-2l-0.7-0.5c-1.1-0.8-1.7-2-1.7-3.3
	c0-0.8,0.2-1.6,0.7-2.3l0.3-0.4c0.4-0.6,0.7-1.5,0.7-2.3V33c0-3.3,2.8-6,6.3-6c0.9,0,1.8,0.2,2.6,0.6l0,0c-3.3,2.2-5.4,5.9-5.4,9.9
	c0,1.9,0.4,3.8,1.3,5.4c0.9,1.6,2.1,3.1,3.7,4.3l1.9,1.3v1.6C32.6,50.5,31.8,50.8,31.1,51.1z"/>
<path class="st2" d="M36.5,32.2L36.5,32.2h-0.9c-1.4,0-2.5,1.1-2.5,2.5v2.5h-0.6c-1.5,0-2.8,1.2-2.8,2.8c0,0.9,0.4,1.7,1.1,2.2
	l2.2,1.6v4.9l-1.7-1.4c-1.5-1.1-2.7-2.6-3.6-4.3c-0.9-1.6-1.3-3.5-1.3-5.4c0-4.1,2.1-7.8,5.3-9.9c1.9-1.4,4.4-2.1,7-2.1h2.8
	c1.2,0,2.2,0.4,3,1.2c0.7,0.8,1.2,1.8,1.2,2.9c0,1.3-0.6,2.4-1.6,3.2c-0.7,0.6-1.7,0.9-2.6,0.9c-0.9,0-1.7,0-2.5,0
	C37.8,33.8,36.9,33.1,36.5,32.2z"/>
<path class="st3" d="M46.2,60.3l1.2,8.7c0.2,1.6,1.6,2.9,3.3,2.9h0.4h3.3h3.3H61h3.3h0.4c1.6,0,3.1-1.2,3.3-2.9l1.2-8.7H46.2z"/>
<path class="st4" d="M65.8,64.2c0.3,0.4,0.4,0.8,0.3,1.2c-0.1,0.4-0.3,0.9-0.6,1.1c-0.3,0.2-0.6,0.4-1,0.4c-0.5,0-1-0.2-1.4-0.6
	l-3.6-4.8c0.9-0.6,1.6-1.6,1.6-2.9c0-0.2,0-0.4-0.1-0.6l1.7,2.3L65.8,64.2z"/>
<path class="st5" d="M71,26.9c0,0.1,0,0.4,0,0.5l-1.2,10.4c-0.3,2.4-2.3,4.2-4.6,4.2h-2.4L59.8,45c-0.2,0.2-0.5,0.4-0.9,0.4
	c-0.6,0-1.1-0.5-1.1-1.1v-2.1h-2.4c-2.4,0-4.4-1.8-4.6-4.2l-1.1-10.4c0-0.1,0-0.4,0-0.5c0-2.6,2.1-4.7,4.7-4.7h12.1
	c1.3,0,2.5,0.5,3.3,1.4C70.5,24.4,71,25.6,71,26.9z"/>
<path class="st6" d="M69.4,52c0.9,0,1.6-0.7,1.6-1.6c0-0.9-0.7-1.6-1.6-1.6s-1.6,0.7-1.6,1.6C67.8,51.2,68.5,52,69.4,52z"/>
<path class="st6" d="M70.5,57.5c0.3,0.3,0.5,0.7,0.5,1.1c0,0.9-0.7,1.6-1.6,1.6h-6.6l0,0L61.1,58l0,0c-0.1-0.4-0.2-0.7-0.4-1h8.7
	C69.8,57,70.3,57.1,70.5,57.5z"/>
<path class="st6" d="M62.8,52c0.9,0,1.6-0.7,1.6-1.6c0-0.9-0.7-1.6-1.6-1.6c-0.9,0-1.6,0.7-1.6,1.6C61.1,51.2,61.8,52,62.8,52z"/>
<path class="st7" d="M60.7,57c0.2,0.3,0.3,0.6,0.4,1l0,0c0,0.2,0.1,0.4,0.1,0.6c0,1.2-0.6,2.2-1.6,2.9C59,61.8,58.5,62,57.8,62
	c-0.6,0-1.2-0.1-1.7-0.5c-0.9-0.6-1.6-1.6-1.6-2.9c0-0.2,0-0.4,0.1-0.6l0,0c0.1-0.4,0.2-0.7,0.4-1c0.6-1,1.6-1.6,2.9-1.6
	C59,55.3,60.1,56,60.7,57z"/>
<path class="st6" d="M56.2,52c0.9,0,1.6-0.7,1.6-1.6c0-0.9-0.7-1.6-1.6-1.6c-0.9,0-1.6,0.7-1.6,1.6C54.5,51.2,55.2,52,56.2,52z"/>
<path class="st4" d="M56.1,61.4l-3.6,4.8c-0.3,0.4-0.8,0.6-1.4,0.6c-0.4,0-0.7-0.1-1-0.4c-0.4-0.3-0.6-0.6-0.6-1.1
	c-0.1-0.4,0.1-0.9,0.3-1.2l3-3.9l1.7-2.3c0,0.2-0.1,0.4-0.1,0.6C54.5,59.8,55.2,60.8,56.1,61.4z"/>
<path class="st6" d="M48.9,57H55c-0.2,0.3-0.3,0.6-0.4,1l0,0l-1.7,2.3l0,0h-6.7c-0.4,0-0.9-0.2-1.1-0.5c-0.3-0.3-0.5-0.7-0.5-1.1
	c0-0.9,0.7-1.6,1.6-1.6H48.9z"/>
<path class="st8" d="M45.9,38.3c0.2,0.3,0.3,0.6,0.3,0.9c0,0.7-0.4,1.4-1,1.6l-0.6,0.3v2.5c0,1.9-1.5,3.3-3.3,3.3H38v2.5v0.9
	l1.7,0.2c0.2,0,0.4,0.1,0.6,0.1l-0.1,0.9c-0.1,1.3-0.4,2.5-0.6,3.8h-8.3c-0.3-1.2-0.5-2.5-0.6-3.8l-0.1-0.4c0.7-0.4,1.5-0.6,2.4-0.8
	v-1.6v-4.9l-2.2-1.6c-0.7-0.5-1.1-1.4-1.1-2.2c0-1.5,1.2-2.8,2.8-2.8h0.6v-2.5c0-1.4,1.1-2.5,2.5-2.5h1l0,0c0.4,1,1.2,1.6,2.4,1.6
	h2.5c1,0,1.9-0.4,2.6-0.9c0.4,0.4,0.7,1.1,0.7,1.7v1.8L45.9,38.3z"/>
<path class="st4" d="M31.4,55.3h8.3c-0.8,3.3-2.2,6.4-4.1,9.1C33.5,61.6,32.1,58.5,31.4,55.3z"/>
<path class="st8" d="M22.3,65.2h4.9v6.7h-4.9C22.3,71.8,22.3,65.2,22.3,65.2z"/>
<path class="st9" d="M59.5,36.2v1.8h1.6v-1.8c0.9-0.3,1.6-1.2,1.6-2.2c0-0.9-0.5-1.7-1.3-2.1L59.8,31c-0.2-0.1-0.4-0.4-0.4-0.6
	c0-0.4,0.3-0.7,0.7-0.7h0.2c0.4,0,0.7,0.3,0.7,0.7v0.9h1.6v-0.9c0-1.1-0.7-1.9-1.6-2.2v-1.8h-1.6v1.8c-0.9,0.3-1.6,1.2-1.6,2.2
	c0,0.9,0.5,1.7,1.3,2.1l1.6,0.8c0.2,0.1,0.4,0.4,0.4,0.6c0,0.4-0.3,0.7-0.7,0.7h-0.2c-0.4,0-0.7-0.3-0.7-0.7V33h-1.6v0.9
	C57.8,34.9,58.5,35.9,59.5,36.2z"/>
<path class="st6" d="M49.9,37.9c0.3,2.8,2.6,4.9,5.5,4.9H57v1.3c0,1.1,0.9,2,2,2c0.5,0,1.1-0.2,1.4-0.6l2.7-2.7h2.1
	c2.8,0,5.1-2.1,5.5-4.9l1.1-10.4c0-0.2,0-0.4,0-0.6c0-3.1-2.5-5.5-5.5-5.5H54.2c-3.1,0-5.5,2.5-5.5,5.5c0,0.2,0,0.4,0,0.6L49.9,37.9
	z M54.2,23.1h12.1c2.1,0,3.9,1.7,3.9,3.9c0,0.1,0,0.3,0,0.4L69,37.8c-0.2,1.9-1.9,3.4-3.9,3.4h-2.7l-3.2,3.2
	c-0.2,0.2-0.6,0.1-0.6-0.2v-2.9h-3.2c-2,0-3.6-1.5-3.9-3.4l-1.1-10.4c0-0.1,0-0.3,0-0.4C50.4,24.8,52.1,23.1,54.2,23.1z"/>
<path class="st6" d="M53.7,50.3c0,1.4,1.1,2.5,2.5,2.5s2.5-1.1,2.5-2.5c0-1.4-1.1-2.5-2.5-2.5S53.7,49,53.7,50.3z M57,50.3
	c0,0.4-0.4,0.9-0.9,0.9s-0.9-0.4-0.9-0.9c0-0.5,0.4-0.9,0.9-0.9S57,49.9,57,50.3z"/>
<path class="st6" d="M62.8,47.9c-1.4,0-2.5,1.1-2.5,2.5s1.1,2.5,2.5,2.5s2.5-1.1,2.5-2.5S64.1,47.9,62.8,47.9z M62.8,51.2
	c-0.4,0-0.9-0.4-0.9-0.9s0.4-0.9,0.9-0.9s0.9,0.4,0.9,0.9S63.3,51.2,62.8,51.2z"/>
<path class="st6" d="M69.4,47.9c-1.4,0-2.5,1.1-2.5,2.5s1.1,2.5,2.5,2.5c1.4,0,2.5-1.1,2.5-2.5S70.8,47.9,69.4,47.9z M69.4,51.2
	c-0.4,0-0.9-0.4-0.9-0.9s0.4-0.9,0.9-0.9c0.5,0,0.9,0.4,0.9,0.9S69.8,51.2,69.4,51.2z"/>
</svg>
