<svg width="11" height="11" viewBox="0 0 11 11" fill="none" xmlns="http://www.w3.org/2000/svg">
<path d="M0 4.71417H11V9.42846C11 9.84523 10.8344 10.2449 10.5397 10.5396C10.245 10.8343 9.84534 10.9999 9.42857 10.9999H1.57143C1.15466 10.9999 0.754961 10.8343 0.460261 10.5396C0.165561 10.2449 0 9.84523 0 9.42846V4.71417Z" fill="#3F2355"/>
<path d="M11 2.75002V3.92859H0V2.75002C0 2.33325 0.165561 1.93355 0.460261 1.63885C0.754961 1.34415 1.15466 1.17859 1.57143 1.17859H1.96429V2.75002C1.96429 2.85421 2.00568 2.95413 2.07935 3.02781C2.15303 3.10148 2.25295 3.14287 2.35714 3.14287C2.46133 3.14287 2.56126 3.10148 2.63493 3.02781C2.70861 2.95413 2.75 2.85421 2.75 2.75002V1.17859H8.25V2.75002C8.25 2.85421 8.29139 2.95413 8.36506 3.02781C8.43874 3.10148 8.53866 3.14287 8.64286 3.14287C8.74705 3.14287 8.84697 3.10148 8.92065 3.02781C8.99432 2.95413 9.03571 2.85421 9.03571 2.75002V1.17859H9.42857C9.84534 1.17859 10.245 1.34415 10.5397 1.63885C10.8344 1.93355 11 2.33325 11 2.75002Z" fill="#3F2355"/>
<path d="M9.03571 0.392857V1.17857H8.25V0.392857C8.25 0.288665 8.29139 0.18874 8.36506 0.115065C8.43874 0.0413902 8.53866 0 8.64286 0C8.74705 0 8.84697 0.0413902 8.92065 0.115065C8.99432 0.18874 9.03571 0.288665 9.03571 0.392857Z" fill="#3F2355"/>
<path d="M2.75001 0.392857V1.17857H1.96429V0.392857C1.96429 0.288665 2.00568 0.18874 2.07936 0.115065C2.15303 0.0413902 2.25296 0 2.35715 0C2.46134 0 2.56127 0.0413902 2.63494 0.115065C2.70862 0.18874 2.75001 0.288665 2.75001 0.392857Z" fill="#3F2355"/>
</svg>
