<svg width="20" height="20" viewBox="0 0 20 20" fill="none" xmlns="http://www.w3.org/2000/svg">
<path fill-rule="evenodd" clip-rule="evenodd" d="M6.89998 1.00001C6.89998 0.50295 6.49703 0.100006 5.99998 0.100006C5.50292 0.100006 5.09998 0.50295 5.09998 1.00001V2.10001H2.99998C1.39835 2.10001 0.0999756 3.39838 0.0999756 5.00001V17C0.0999756 18.6016 1.39835 19.9 2.99998 19.9H17C18.6016 19.9 19.9 18.6016 19.9 17V5.00001C19.9 3.39838 18.6016 2.10001 17 2.10001H14.9V1.00001C14.9 0.50295 14.497 0.100006 14 0.100006C13.5029 0.100006 13.1 0.50295 13.1 1.00001V2.10001H6.89998V1.00001ZM13.1 5.00001V3.90001H6.89998V5.00001C6.89998 5.49706 6.49703 5.90001 5.99998 5.90001C5.50292 5.90001 5.09998 5.49706 5.09998 5.00001V3.90001H2.99998C2.39246 3.90001 1.89998 4.39249 1.89998 5.00001V7.10001H18.1V5.00001C18.1 4.39249 17.6075 3.90001 17 3.90001H14.9V5.00001C14.9 5.49706 14.497 5.90001 14 5.90001C13.5029 5.90001 13.1 5.49706 13.1 5.00001ZM18.1 8.90001H1.89998V17C1.89998 17.6075 2.39246 18.1 2.99998 18.1H17C17.6075 18.1 18.1 17.6075 18.1 17V8.90001ZM5.49998 12.5C6.05226 12.5 6.49998 12.0523 6.49998 11.5C6.49998 10.9477 6.05226 10.5 5.49998 10.5C4.94769 10.5 4.49998 10.9477 4.49998 11.5C4.49998 12.0523 4.94769 12.5 5.49998 12.5ZM11 11.5C11 12.0523 10.5523 12.5 9.99998 12.5C9.44769 12.5 8.99998 12.0523 8.99998 11.5C8.99998 10.9477 9.44769 10.5 9.99998 10.5C10.5523 10.5 11 10.9477 11 11.5ZM14.5 12.5C15.0523 12.5 15.5 12.0523 15.5 11.5C15.5 10.9477 15.0523 10.5 14.5 10.5C13.9477 10.5 13.5 10.9477 13.5 11.5C13.5 12.0523 13.9477 12.5 14.5 12.5ZM6.49998 15C6.49998 15.5523 6.05226 16 5.49998 16C4.94769 16 4.49998 15.5523 4.49998 15C4.49998 14.4477 4.94769 14 5.49998 14C6.05226 14 6.49998 14.4477 6.49998 15ZM9.99998 16C10.5523 16 11 15.5523 11 15C11 14.4477 10.5523 14 9.99998 14C9.44769 14 8.99998 14.4477 8.99998 15C8.99998 15.5523 9.44769 16 9.99998 16ZM15.5 15C15.5 15.5523 15.0523 16 14.5 16C13.9477 16 13.5 15.5523 13.5 15C13.5 14.4477 13.9477 14 14.5 14C15.0523 14 15.5 14.4477 15.5 15Z" fill="#3F2355"/>
</svg>
