<svg width="16" height="16" viewBox="0 0 16 16" fill="none" xmlns="http://www.w3.org/2000/svg">
<rect width="16" height="16" rx="8" fill="#81DB0F"/>
<path d="M6.90875 10.9498C6.83905 10.9496 6.77015 10.935 6.70631 10.9071C6.64248 10.8791 6.58508 10.8383 6.53769 10.7872L4.06735 8.15924C3.975 8.06083 3.92553 7.92977 3.92982 7.79488C3.93411 7.66 3.99181 7.53234 4.09022 7.44C4.18863 7.34765 4.3197 7.29818 4.45458 7.30247C4.58946 7.30676 4.71712 7.36446 4.80947 7.46287L6.90366 9.69431L11.1785 5.01794C11.2219 4.96392 11.2758 4.91934 11.3371 4.88693C11.3983 4.85453 11.4655 4.83499 11.5346 4.8295C11.6036 4.82402 11.6731 4.83272 11.7387 4.85506C11.8043 4.8774 11.8646 4.91291 11.916 4.95941C11.9673 5.00591 12.0086 5.06242 12.0374 5.12547C12.0661 5.18852 12.0816 5.25677 12.083 5.32604C12.0844 5.39531 12.0716 5.46413 12.0454 5.52828C12.0192 5.59243 11.9802 5.65055 11.9308 5.69907L7.28489 10.7821C7.23794 10.8341 7.18075 10.8759 7.11689 10.9047C7.05304 10.9336 6.9839 10.9489 6.91383 10.9498H6.90875Z" fill="white"/>
</svg>
