<svg width="20" height="22" viewBox="0 0 20 22" fill="none" xmlns="http://www.w3.org/2000/svg">
<path fill-rule="evenodd" clip-rule="evenodd" d="M4.6001 5.49998C4.6001 2.51764 7.01776 0.0999756 10.0001 0.0999756C12.9824 0.0999756 15.4001 2.51764 15.4001 5.49998V7.60646C15.7104 7.61224 15.9908 7.62317 16.2438 7.64384C16.7997 7.68926 17.3018 7.78614 17.7707 8.02505C18.5045 8.39896 19.1011 8.99558 19.475 9.72941C19.7139 10.1983 19.8108 10.7004 19.8562 11.2563C19.9001 11.7934 19.9001 12.4542 19.9001 13.2623V13.3V15.7V15.7377C19.9001 16.5457 19.9001 17.2066 19.8562 17.7437C19.8108 18.2996 19.7139 18.8017 19.475 19.2705C19.1011 20.0044 18.5045 20.601 17.7707 20.9749C17.3018 21.2138 16.7997 21.3107 16.2438 21.3561C15.7067 21.4 15.0459 21.4 14.2378 21.4H14.2001H5.8001H5.76239C4.95434 21.4 4.29349 21.4 3.75642 21.3561C3.2005 21.3107 2.69842 21.2138 2.22954 20.9749C1.4957 20.601 0.89908 20.0044 0.525173 19.2705C0.286263 18.8017 0.18938 18.2996 0.14396 17.7437C0.10008 17.2066 0.100088 16.5457 0.100098 15.7377V15.7377V15.7377V15.7V13.3V13.2623V13.2623V13.2622C0.100088 12.4542 0.10008 11.7934 0.14396 11.2563C0.18938 10.7004 0.286263 10.1983 0.525173 9.72941C0.89908 8.99558 1.4957 8.39896 2.22954 8.02505C2.69842 7.78614 3.2005 7.68926 3.75642 7.64384C4.00937 7.62317 4.28978 7.61224 4.6001 7.60646V5.49998ZM13.6001 5.49998V7.59998H6.4001V5.49998C6.4001 3.51175 8.01187 1.89998 10.0001 1.89998C11.9883 1.89998 13.6001 3.51175 13.6001 5.49998ZM3.90299 9.43786C3.45839 9.47418 3.21957 9.54079 3.04672 9.62886C2.65158 9.8302 2.33032 10.1515 2.12899 10.5466C2.04092 10.7194 1.97431 10.9583 1.93798 11.4029C1.9008 11.858 1.9001 12.445 1.9001 13.3V15.7C1.9001 16.5549 1.9008 17.142 1.93798 17.5971C1.97431 18.0417 2.04092 18.2805 2.12899 18.4534C2.33032 18.8485 2.65158 19.1698 3.04672 19.3711C3.21957 19.4592 3.45839 19.5258 3.90299 19.5621C4.3581 19.5993 4.94517 19.6 5.8001 19.6H14.2001C15.055 19.6 15.6421 19.5993 16.0972 19.5621C16.5418 19.5258 16.7806 19.4592 16.9535 19.3711C17.3486 19.1698 17.6699 18.8485 17.8712 18.4534C17.9593 18.2805 18.0259 18.0417 18.0622 17.5971C18.0994 17.142 18.1001 16.5549 18.1001 15.7V13.3C18.1001 12.445 18.0994 11.858 18.0622 11.4029C18.0259 10.9583 17.9593 10.7194 17.8712 10.5466C17.6699 10.1515 17.3486 9.8302 16.9535 9.62886C16.7806 9.54079 16.5418 9.47418 16.0972 9.43786C15.6421 9.40068 15.055 9.39998 14.2001 9.39998H5.8001C4.94517 9.39998 4.3581 9.40068 3.90299 9.43786ZM11.0001 15.2324C11.5979 14.8866 12.0001 14.2403 12.0001 13.5C12.0001 12.3954 11.1047 11.5 10.0001 11.5C8.89553 11.5 8.0001 12.3954 8.0001 13.5C8.0001 14.2403 8.4023 14.8866 9.0001 15.2324V17C9.0001 17.5523 9.44781 18 10.0001 18C10.5524 18 11.0001 17.5523 11.0001 17V15.2324Z" fill="#3F2355"/>
</svg>
