<svg width="28" height="28" viewBox="0 0 28 28" fill="none" xmlns="http://www.w3.org/2000/svg">
<path d="M11.5014 20.9989C11.3414 20.9984 11.1832 20.965 11.0367 20.9008C10.8902 20.8365 10.7585 20.7429 10.6497 20.6256L4.97969 14.5939C4.76774 14.368 4.6542 14.0672 4.66404 13.7576C4.67389 13.448 4.80632 13.155 5.03219 12.9431C5.25807 12.7311 5.55889 12.6176 5.86848 12.6274C6.17807 12.6373 6.47107 12.7697 6.68302 12.9956L11.4897 18.1173L21.3014 7.38392C21.4009 7.25993 21.5248 7.1576 21.6654 7.08323C21.8059 7.00885 21.9602 6.96399 22.1187 6.95141C22.2772 6.93883 22.4367 6.95879 22.5872 7.01006C22.7377 7.06134 22.8762 7.14284 22.9941 7.24957C23.1119 7.3563 23.2068 7.48601 23.2727 7.63072C23.3386 7.77543 23.3743 7.93209 23.3774 8.09108C23.3806 8.25007 23.3513 8.40803 23.2912 8.55526C23.2311 8.7025 23.1415 8.83589 23.028 8.94725L12.3647 20.6139C12.2569 20.7333 12.1257 20.8292 11.9791 20.8954C11.8325 20.9617 11.6739 20.9969 11.513 20.9989H11.5014Z" fill="white"/>
</svg>
