<svg width="17" height="18" viewBox="0 0 17 18" fill="none" xmlns="http://www.w3.org/2000/svg">
<mask id="path-1-inside-1" fill="white">
<path d="M7.09067 11.2991L5.33473 9.54312C5.0696 9.27799 4.63973 9.27799 4.3746 9.54312V9.54312C4.10946 9.80826 4.10946 10.2381 4.3746 10.5033L6.52195 12.6506C6.83604 12.9647 7.34529 12.9647 7.65939 12.6506L13.2018 7.10816C13.467 6.84303 13.467 6.41317 13.2018 6.14803V6.14803C12.9367 5.8829 12.5068 5.8829 12.2417 6.14803L7.09067 11.2991Z"/>
</mask>
<path d="M7.09067 11.2991L5.33473 9.54312C5.0696 9.27799 4.63973 9.27799 4.3746 9.54312V9.54312C4.10946 9.80826 4.10946 10.2381 4.3746 10.5033L6.52195 12.6506C6.83604 12.9647 7.34529 12.9647 7.65939 12.6506L13.2018 7.10816C13.467 6.84303 13.467 6.41317 13.2018 6.14803V6.14803C12.9367 5.8829 12.5068 5.8829 12.2417 6.14803L7.09067 11.2991Z" fill="#FB5100"/>
<path d="M7.09067 11.2991L5.95323 12.4365L7.09067 13.5739L8.22811 12.4365L7.09067 11.2991ZM12.2417 6.14803L13.3791 7.28547L12.2417 6.14803ZM13.2018 7.10816L14.3393 8.24561L13.2018 7.10816ZM4.3746 10.5033L5.51204 9.36581L4.3746 10.5033ZM8.22811 10.1616L6.47217 8.40568L4.19729 10.6806L5.95323 12.4365L8.22811 10.1616ZM3.23716 11.6407L5.38451 13.788L7.65939 11.5132L5.51204 9.36581L3.23716 11.6407ZM8.79683 13.788L14.3393 8.24561L12.0644 5.97072L6.52195 11.5132L8.79683 13.788ZM11.1043 5.01059L5.95323 10.1616L8.22811 12.4365L13.3791 7.28547L11.1043 5.01059ZM14.3393 5.01059C13.4459 4.11727 11.9976 4.11727 11.1043 5.01059L13.3791 7.28547C13.0161 7.64853 12.4274 7.64853 12.0644 7.28548L14.3393 5.01059ZM14.3393 8.24561C15.2326 7.35228 15.2326 5.90391 14.3393 5.01059L12.0644 7.28548C11.7013 6.92242 11.7013 6.33379 12.0644 5.97072L14.3393 8.24561ZM5.38451 13.788C6.32679 14.7303 7.85454 14.7303 8.79683 13.788L6.52195 11.5132C6.83604 11.1991 7.34529 11.1991 7.65939 11.5132L5.38451 13.788ZM3.23716 8.40568C2.34383 9.29901 2.34383 10.7474 3.23716 11.6407L5.51204 9.36581C5.8751 9.72887 5.8751 10.3175 5.51204 10.6806L3.23716 8.40568ZM6.47217 8.40568C5.57885 7.51236 4.13048 7.51236 3.23716 8.40568L5.51204 10.6806C5.14898 11.0436 4.56034 11.0436 4.19729 10.6806L6.47217 8.40568Z" fill="#FB5100" mask="url(#path-1-inside-1)"/>
</svg>
