<svg width="30" height="30" viewBox="0 0 30 30" fill="none" xmlns="http://www.w3.org/2000/svg">
<circle cx="15" cy="15" r="14" fill="#81DB0F" stroke="#81DB0F" stroke-width="2"/>
<path d="M12.8842 20.0365C12.77 20.0362 12.657 20.0123 12.5523 19.9664C12.4477 19.9206 12.3536 19.8537 12.2759 19.7699L8.22589 15.4615C8.07449 15.3002 7.99339 15.0853 8.00042 14.8642C8.00745 14.6431 8.10205 14.4338 8.26339 14.2824C8.42473 14.131 8.6396 14.0499 8.86074 14.0569C9.08187 14.0639 9.29116 14.1585 9.44255 14.3199L12.8759 17.9782L19.8842 10.3115C19.9553 10.223 20.0438 10.1499 20.1442 10.0968C20.2446 10.0436 20.3548 10.0116 20.468 10.0026C20.5813 9.99363 20.6951 10.0079 20.8027 10.0445C20.9102 10.0811 21.0091 10.1393 21.0933 10.2156C21.1775 10.2918 21.2452 10.3845 21.2923 10.4878C21.3394 10.5912 21.3649 10.7031 21.3671 10.8167C21.3694 10.9302 21.3484 11.0431 21.3055 11.1482C21.2626 11.2534 21.1986 11.3487 21.1176 11.4282L13.5009 19.7615C13.4239 19.8468 13.3301 19.9153 13.2255 19.9626C13.1208 20.01 13.0074 20.0351 12.8926 20.0365H12.8842Z" fill="white"/>
</svg>
