<svg width="18" height="18" viewBox="0 0 18 18" fill="none" xmlns="http://www.w3.org/2000/svg">
<path d="M5.46076 7.0321C5.55272 7.13364 5.66494 7.2148 5.79017 7.27034C5.91541 7.32588 6.05089 7.35458 6.18788 7.35458C6.32488 7.35458 6.46036 7.32588 6.5856 7.27034C6.71083 7.2148 6.82305 7.13364 6.91501 7.0321L7.38526 6.5071C7.52084 6.35717 7.69949 6.25285 7.8967 6.20847C8.09391 6.16409 8.30003 6.18181 8.48677 6.2592C8.67351 6.33659 8.83173 6.46986 8.93974 6.64074C9.04774 6.81161 9.10023 7.01171 9.09001 7.2136L9.05476 7.9141C9.04705 8.05115 9.06836 8.18829 9.1173 8.31654C9.16625 8.44478 9.24173 8.56125 9.33879 8.65832C9.43586 8.75538 9.55232 8.83086 9.68057 8.8798C9.80882 8.92875 9.94596 8.95006 10.083 8.94235L10.7835 8.9071C10.9855 8.8966 11.1858 8.94894 11.3568 9.05693C11.5279 9.16492 11.6613 9.32326 11.7386 9.51015C11.816 9.69704 11.8336 9.90332 11.7889 10.1006C11.7443 10.2979 11.6396 10.4765 11.4893 10.6118L10.9688 11.0821C10.867 11.1739 10.7857 11.2861 10.73 11.4114C10.6743 11.5366 10.6455 11.6722 10.6455 11.8092C10.6455 11.9463 10.6743 12.0818 10.73 12.2071C10.7857 12.3323 10.867 12.4445 10.9688 12.5363L11.4893 13.0066C11.6396 13.142 11.7443 13.3206 11.7889 13.5178C11.8336 13.7151 11.816 13.9214 11.7386 14.1083C11.6613 14.2952 11.5279 14.4535 11.3568 14.5615C11.1858 14.6695 10.9855 14.7218 10.7835 14.7113L10.083 14.6761C9.9461 14.669 9.80923 14.6907 9.68125 14.7399C9.55327 14.789 9.43705 14.8645 9.34011 14.9614C9.24317 15.0584 9.16768 15.1746 9.11852 15.3026C9.06936 15.4306 9.04764 15.5674 9.05476 15.7043L9.09001 16.4048C9.10023 16.6067 9.04774 16.8068 8.93974 16.9777C8.83173 17.1486 8.67351 17.2819 8.48677 17.3592C8.30003 17.4366 8.09391 17.4544 7.8967 17.41C7.69949 17.3656 7.52084 17.2613 7.38526 17.1113L6.91501 16.5863C6.82305 16.4848 6.71083 16.4036 6.5856 16.3481C6.46036 16.2926 6.32488 16.2639 6.18788 16.2639C6.05089 16.2639 5.91541 16.2926 5.79017 16.3481C5.66494 16.4036 5.55272 16.4848 5.46076 16.5863L4.99051 17.1113C4.85493 17.2613 4.67628 17.3656 4.47907 17.41C4.28186 17.4544 4.07574 17.4366 3.889 17.3592C3.70226 17.2819 3.54403 17.1486 3.43603 16.9777C3.32803 16.8068 3.27554 16.6067 3.28576 16.4048L3.32101 15.7043C3.32789 15.5675 3.30601 15.4307 3.25677 15.3029C3.20753 15.175 3.13203 15.0589 3.03514 14.962C2.93825 14.8651 2.82212 14.7896 2.69425 14.7403C2.56638 14.6911 2.42961 14.6692 2.29276 14.6761L1.59226 14.7113C1.39037 14.7216 1.19027 14.6691 1.0194 14.5611C0.848526 14.4531 0.715254 14.2948 0.637862 14.1081C0.560471 13.9214 0.542751 13.7153 0.587134 13.518C0.631517 13.3208 0.735828 13.1422 0.88576 13.0066L1.40701 12.5363C1.50855 12.4444 1.58971 12.3322 1.64525 12.2069C1.70079 12.0817 1.72949 11.9462 1.72949 11.8092C1.72949 11.6722 1.70079 11.5367 1.64525 11.4115C1.58971 11.2863 1.50855 11.1741 1.40701 11.0821L0.88576 10.6118C0.735828 10.4763 0.631517 10.2976 0.587134 10.1004C0.542751 9.90319 0.560471 9.69708 0.637862 9.51034C0.715254 9.3236 0.848526 9.16537 1.0194 9.05737C1.19027 8.94937 1.39037 8.89688 1.59226 8.9071L2.29276 8.94235C2.42967 8.94947 2.56654 8.92774 2.69452 8.87859C2.8225 8.82943 2.93872 8.75394 3.03566 8.657C3.1326 8.56006 3.20809 8.44384 3.25725 8.31586C3.30641 8.18788 3.32813 8.05101 3.32101 7.9141L3.28576 7.2136C3.27554 7.01171 3.32803 6.81161 3.43603 6.64074C3.54403 6.46986 3.70226 6.33659 3.889 6.2592C4.07574 6.18181 4.28186 6.16409 4.47907 6.20847C4.67628 6.25285 4.85493 6.35717 4.99051 6.5071L5.46076 7.0321Z" stroke="#3F2355" stroke-linecap="round" stroke-linejoin="round"/>
<path d="M6.1875 13.2188C6.96415 13.2188 7.59375 12.5892 7.59375 11.8125C7.59375 11.0358 6.96415 10.4062 6.1875 10.4062C5.41085 10.4062 4.78125 11.0358 4.78125 11.8125C4.78125 12.5892 5.41085 13.2188 6.1875 13.2188Z" stroke="#3F2355" stroke-width="1.5" stroke-linecap="round" stroke-linejoin="round"/>
<path d="M13.9785 3.75C13.9229 3.75 13.8685 3.7665 13.8223 3.7974C13.776 3.8283 13.74 3.87223 13.7187 3.92362C13.6974 3.97501 13.6918 4.03156 13.7027 4.08612C13.7135 4.14068 13.7403 4.19079 13.7796 4.23012C13.819 4.26946 13.8691 4.29624 13.9236 4.3071C13.9782 4.31795 14.0348 4.31238 14.0861 4.29109C14.1375 4.2698 14.1815 4.23376 14.2124 4.1875C14.2433 4.14125 14.2598 4.08688 14.2598 4.03125C14.2598 3.95666 14.2301 3.88512 14.1774 3.83238C14.1246 3.77963 14.0531 3.75 13.9785 3.75Z" stroke="#3F2355" stroke-width="1.5" stroke-linecap="round" stroke-linejoin="round"/>
<path d="M15.8956 1.38705C15.9973 1.34743 16.1084 1.33829 16.2153 1.36074C16.3222 1.38319 16.4202 1.43626 16.4974 1.51348C16.5746 1.59069 16.6277 1.68872 16.6501 1.79558C16.6726 1.90245 16.6634 2.01354 16.6238 2.1153L16.2488 3.0798C16.2054 3.19116 16.1987 3.31346 16.2296 3.42892C16.2605 3.54438 16.3274 3.64698 16.4206 3.7218L17.2268 4.3698C17.3119 4.43812 17.3753 4.52971 17.4092 4.63342C17.4432 4.73713 17.4462 4.84847 17.418 4.95387C17.3898 5.05928 17.3315 5.1542 17.2503 5.22708C17.1691 5.29995 17.0684 5.34763 16.9606 5.3643L15.9383 5.52255C15.8202 5.54061 15.7109 5.59588 15.6263 5.68031C15.5418 5.76475 15.4863 5.87395 15.4681 5.99205L15.3098 7.01505C15.2932 7.12289 15.2455 7.22355 15.1726 7.30477C15.0997 7.38599 15.0048 7.44426 14.8994 7.47248C14.794 7.5007 14.6826 7.49765 14.5789 7.46371C14.4752 7.42976 14.3836 7.36638 14.3153 7.2813L13.6673 6.47505C13.5924 6.38191 13.4899 6.315 13.3745 6.28399C13.2591 6.25298 13.1368 6.25948 13.0253 6.30255L12.0608 6.67755C11.9591 6.71717 11.848 6.72631 11.7411 6.70386C11.6342 6.68141 11.5362 6.62834 11.459 6.55112C11.3818 6.47391 11.3287 6.37588 11.3063 6.26902C11.2838 6.16215 11.293 6.05106 11.3326 5.9493L11.7076 4.9848C11.751 4.87344 11.7577 4.75114 11.7268 4.63568C11.6959 4.52022 11.629 4.41762 11.5358 4.3428L10.7296 3.69405C10.6446 3.62578 10.5814 3.53429 10.5476 3.43073C10.5137 3.32716 10.5107 3.21598 10.5389 3.11074C10.5672 3.0055 10.6254 2.91074 10.7065 2.838C10.7876 2.76525 10.8881 2.71767 10.9958 2.70105L12.0181 2.5428C12.1362 2.52447 12.2455 2.46903 12.33 2.38448C12.4145 2.29994 12.47 2.1907 12.4883 2.07255L12.6466 1.05105C12.6631 0.943192 12.7106 0.842473 12.7834 0.761194C12.8562 0.679914 12.9511 0.621594 13.0565 0.593357C13.1619 0.565119 13.2732 0.568186 13.3769 0.602183C13.4806 0.636181 13.5721 0.699636 13.6403 0.7848L14.2891 1.59105C14.364 1.68416 14.4666 1.75099 14.582 1.78187C14.6974 1.81275 14.8197 1.80607 14.9311 1.7628L15.8956 1.38705Z" stroke="#3F2355" stroke-linecap="round" stroke-linejoin="round"/>
</svg>
