<svg id="Layer_1" data-name="Layer 1" xmlns="http://www.w3.org/2000/svg" viewBox="0 0 473.88 451.66"><defs><style>.cls-1{fill:#dedfe0;}.cls-2{fill:#fff;}.cls-3{fill:#3f2355;}.cls-4{fill:none;stroke:#3f2355;stroke-linecap:round;stroke-linejoin:round;stroke-width:2px;}</style></defs><ellipse class="cls-1" cx="226.03" cy="365.2" rx="111.99" ry="7.85"/><path class="cls-2" d="M211.49,151.2a19,19,0,0,1,5.93,3.84c-5.08,1.19-13.26,3.12-21.51,5.12C202.53,154.52,209.05,150.37,211.49,151.2Z"/><path class="cls-2" d="M222.18,159.84a137.93,137.93,0,0,1,11.73,15.63c-6.88,1.05-12.77,1.91-16.21,2.37-7.21,1-11.42,4-13.85,6.88h0L188.53,189l-6.73-1.14V180a.69.69,0,0,0-.35-.52l0,0c0-1-7.3-2.5-15.86-3.06.29-.62,1.43-2.36,5.46-3.82,2.2-.79,8.34-2.41,15.68-4.24C199.89,165.05,216.9,161.07,222.18,159.84Z"/><path class="cls-2" d="M254,180.82l-18.18,2.77-5.93-1.69c2.83-.43,5.91-.88,9.15-1.38h.1c3.26-.5,6.69-1,10.13-1.56h0Z"/><path class="cls-2" d="M253.82,218.45V228c-1.56-.68-3-1.27-4-1.62a10.67,10.67,0,0,0-3.05-.51h0c3.72-.4,4.27-6.07,4.27-6.07s.41-6.2.6-11.86h.09L265.19,210l2.14-.62c0,.41,0,.82,0,1.23,0,1.36-.06,2.8-.18,4.1a14.47,14.47,0,0,0-2.28-.73c-5.17-1.21-10,.37-10.88,3.52a3.81,3.81,0,0,0-.12.95Z"/><path class="cls-2" d="M302,197.68l-12.87-2.11v-6.52a7.26,7.26,0,0,0-3.08-3h0a13,13,0,0,0-2.3-1,10.2,10.2,0,0,0-1.35-.32l-6.8-1.12h0l-9.28-1.52-7.09,2.06-5.06,1.48-.16-.55v-4.24L249.27,179c3.78-.58,7.58-1.18,11.27-1.76l2.5-.39,12.17-1.91,11.11-1.73c5.9-.9,10.12-.36,12.53,1.59,1.64,1.35,2.52,3.44,2.68,6.4C301.71,184.57,301.87,190.72,302,197.68Z"/><path class="cls-2" d="M263.52,232.57c-.42-.22-5.48-2.76-9.7-4.62v-9.5h0c0,2.89,3.31,5.87,8,7s9.29-.14,10.61-2.82v14.08c-.28,1.27-.53,2.61-.74,4,1,3.36.82,7.58.75,11.43A37,37,0,0,0,271,241.39c-1.28-4.11-3.61-7.36-7.61-8.53Z"/><path class="cls-2" d="M272.4,222.58c-1.32,2.68-5.84,3.94-10.61,2.82s-8-4.06-8-7a3.81,3.81,0,0,1,.12-.95c.84-3.15,5.71-4.73,10.88-3.52a14.47,14.47,0,0,1,2.28.73c-.21,2.14-.68,3.88-1.82,4.19l1.15,4.17c2.82-.77,4.07-3,4.64-5.78a4.86,4.86,0,0,1,1.59,4.59A3,3,0,0,1,272.4,222.58Z"/><path class="cls-2" d="M325.54,201.32a6.07,6.07,0,0,0-2.1.3c-4.56,1.48-8.17,7.85-8.07,14.23.07,4.5,2,7.8,4.69,8.83l-6.8-1.8c-2.56-1.16-4.32-4.38-4.39-8.71,0-.33,0-.67,0-1a17.86,17.86,0,0,1,1.45-6.32c1.45-3.36,3.85-6,6.59-6.91Z"/><path class="cls-2" d="M302.3,217.16l-11.82-1.34a1.87,1.87,0,0,0,.23-.76l-5.66-.65c-.28.2-.59.43-.9.68l-9.06-1V207.3l0-.14,14.08-4.06v-7.53L302,197.68c.05,2.61.1,5.34.14,8.09C302.2,209.63,302.25,213.53,302.3,217.16Z"/><path class="cls-2" d="M302.49,235l-8.76,28.22c-3.7,5.4-7.45,11.3-7.45,11.3L270.48,269A83.76,83.76,0,0,0,272.4,253v-.38c1.16,0,2.75-1.25,2.77-2.43.84-27.42,14-33.32,14.23-33.41a2.1,2.1,0,0,0,1.08-1l11.82,1.34C302.41,225.9,302.47,233.15,302.49,235Z"/><path class="cls-2" d="M235.84,314a2.9,2.9,0,1,1-2.9,2.89A2.9,2.9,0,0,1,235.84,314Z"/><path class="cls-2" d="M283.39,297.93a2.9,2.9,0,1,1-2.89,2.9A2.9,2.9,0,0,1,283.39,297.93Z"/><path class="cls-2" d="M222.5,308.18l-13.27,8.67h-4.76a90.45,90.45,0,0,0,6.25-13.49Z"/><path class="cls-2" d="M222.5,308.18l-11.78-4.82c.68-1.83,1.21-3.38,1.56-4.48,4.54-1.45,51.73-16.63,53.06-18.21S270.48,269,270.48,269l15.8,5.56-6.81,6.1s5.57,2.65,8.32,2.74a11.17,11.17,0,0,0,3.82-1h.08a2.82,2.82,0,0,0,2.11-.93c2.35-1,4.67-2.2,5.88-2.55,2.41-.71,3.4-.61,5,2.6a4.84,4.84,0,0,1,.21.47c1.25,3.12-.14,6.84-2.71,10.76a52.1,52.1,0,0,1-9.42,9.86,6.22,6.22,0,0,0-4.1,1l-2.78,1.82a2,2,0,0,0-.58,2.77,1.49,1.49,0,0,0,.15.2c-8,5.73-14.72-6.6-14.72-6.6l-27.11,9.71s1.6,15.19-9.67,15c-11.62-.21-11.25-18.22-11.25-18.22Zm63.79-7.35a2.9,2.9,0,1,0-2.9,2.89A2.9,2.9,0,0,0,286.29,300.83Zm-47.56,16a2.9,2.9,0,1,0-2.89,2.9A2.9,2.9,0,0,0,238.73,316.85Z"/><path class="cls-2" d="M212.28,298.88c-.35,1.1-.88,2.65-1.56,4.48a90.45,90.45,0,0,1-6.25,13.49c-4.52,7.78-10.69,14.54-18.1,13,0,0-3.89-.07-3.89-4.79l-22.77-8.51,1.51-19.83,1.16-2.76h.1v.54s4.23,6.51,12.26,6.29,9.92-9.44,9.92-9.44V279.49S201.74,259,219.38,242c1.79-1.73,3.48-3.28,5.09-4.67a77.49,77.49,0,0,1,8.35-6.39h0c6.38-4.15,10.83-5.16,13.89-5.07a10.67,10.67,0,0,1,3.05.51c1,.35,2.49.94,4,1.62,4.22,1.86,9.28,4.4,9.7,4.62l-.1.29a7.38,7.38,0,0,0-.84-.22C235,230.18,212.85,297,212.85,297S212.66,297.72,212.28,298.88Z"/><ellipse class="cls-2" cx="146.39" cy="316.2" rx="2.76" ry="1.7"/><ellipse class="cls-2" cx="133.25" cy="311.46" rx="2.56" ry="1.58"/><path class="cls-2" d="M153.86,314.26,150.18,323l-14.57-5.94.2-.49.07-.15.31.15L145,311Zm-4.71,1.94c0-.94-1.24-1.7-2.76-1.7s-2.76.76-2.76,1.7,1.23,1.7,2.76,1.7S149.15,317.14,149.15,316.2Z"/><path class="cls-2" d="M135.22,291.05l.59,15.95-11.58,4.15,9.64-20.38A.71.71,0,0,1,135.22,291.05Z"/><path class="cls-2" d="M145.63,296.52a.4.4,0,0,1,.75.21L145,311l-8.76,5.54-.31-.15,3.8-7.75Z"/><polygon class="cls-2" points="153.86 314.26 161.22 296.75 159.71 316.58 159.28 322.26 150.18 323.01 153.86 314.26"/><path class="cls-2" d="M135.81,307l-.59-15.95a.71.71,0,0,0-1.35-.28l-9.64,20.38Zm3.87,1.68-3.8,7.75-.07.15-.2.49-11.82-4.83-2-.83,4.08-9.48s.42-5.63.53-11.17,2.74-8.38,2.86-8.38h0L162.38,294l-1.16,2.76-7.36,17.51L145,311l1.43-14.31a.4.4,0,0,0-.75-.21Zm-3.87,2.78c0-.87-1.14-1.58-2.56-1.58s-2.56.71-2.56,1.58,1.15,1.58,2.56,1.58S135.81,312.33,135.81,311.46Z"/><path class="cls-2" d="M129.22,282.37h0c-.12,0-2.75,2.88-2.86,8.38s-.53,11.17-.53,11.17l-19.78-6.47V277.4c2.34,1.59,6,3.53,8.89,2.94a9.77,9.77,0,0,0,3.88-1.61Z"/><path class="cls-2" d="M162.27,286.15l.21,7.84h-.1l-33.16-11.62-10.4-3.64-4.28-1.5,1.24-5.34.23-.67C127.16,275.1,162.27,286.15,162.27,286.15Z"/><path class="cls-2" d="M184.67,279.49v11.89s-1.89,9.23-9.92,9.44-12.26-6.29-12.26-6.29V294l-.21-7.84v-3.8a2.38,2.38,0,0,1,3.45-2.15C169.08,282,175.09,283.3,184.67,279.49Z"/><path class="cls-2" d="M114.54,277.23l4.28,1.5a9.77,9.77,0,0,1-3.88,1.61c-2.92.59-6.55-1.35-8.89-2.94a27.52,27.52,0,0,1-2.42-1.81L103,257.06h0s7.8,1.41,8.67,3.41.13,8.6,1,9.47a24.67,24.67,0,0,0,3.35,1.29l-.23.67Z"/><path class="cls-2" d="M157.74,195.62a62.52,62.52,0,0,0,11.46-.23,29.56,29.56,0,0,0,12.6-4.12v-3.38l6.73,1.14c3.57.62,8,1.38,12.14,2.13l5.66,1.05c3.42.66,6.29,1.25,7.82,1.66,6,1.61,10.32,10.9,10.32,16.28v27.13c-1.61,1.39-3.3,2.94-5.09,4.67-17.64,17.08-34.71,37.54-34.71,37.54-9.58,3.81-15.59,2.49-18.95.71a2.38,2.38,0,0,0-3.45,2.15v3.8s-35.11-11-46.26-14.93a24.67,24.67,0,0,1-3.35-1.29c-.87-.87-.12-7.48-1-9.47s-8.67-3.41-8.67-3.41h0c0,.19-.4,2.75-.39-8.91-.37-22.17,11-35,16.85-42s19.41-18.45,19.41-18.45h.24V193c2.76.54,5.48,1,8.12,1.43C150.87,195,154.39,195.41,157.74,195.62Z"/><path class="cls-3" d="M386.09,89.45l13.79-32.78a7.11,7.11,0,0,0-6-9.84l-69.21-5.19A7.08,7.08,0,0,0,317.56,46L303.32,80.17l-5.91,14.17-31.77,76.23-8.34,1.3L310.91,43.23a14.31,14.31,0,0,1,14.28-8.76l69.21,5.18a14.3,14.3,0,0,1,12.12,19.82l-19.8,47.06-2.57-1.08-4.54-.58Z"/><path class="cls-3" d="M386.72,106.53,317.87,269l-.3-1.9a8,8,0,0,0-.73-4.71,3.48,3.48,0,0,0-1.79-1.61l-.85-.36,17.53-41.69.35-.84,47.53-113,4.54.58Z"/><polygon class="cls-1" points="386.09 89.45 379.61 104.87 297.41 94.34 303.32 80.17 386.09 89.45"/><path class="cls-1" d="M320.06,224.68c-2.71-1-4.62-4.33-4.69-8.83-.1-6.38,3.51-12.75,8.07-14.23a6.07,6.07,0,0,1,2.1-.3h0c3.57.15,6.24,3.81,6.33,9.17a18,18,0,0,1-1.23,6.75c-.12.28-.23.56-.36.84-1.46,3.24-3.81,5.77-6.48,6.64A5.5,5.5,0,0,1,320.06,224.68Z"/><path class="cls-3" d="M316.84,262.34a8,8,0,0,1,.73,4.71Z"/><path class="cls-1" d="M316.84,262.34l.73,4.71a13.14,13.14,0,0,1-.76,3.17c-1.6,4.28-5,7-7.55,6a2.55,2.55,0,0,1-.57-.29c-2.11-1.34-2.66-5.26-1.19-9.2a12.17,12.17,0,0,1,2.44-4.06l.08-.08a5.53,5.53,0,0,1,4.1-2.06l-.23.55Z"/><path d="M316.84,262.34l-2.95-1.24.23-.55a3,3,0,0,1,.93.18A3.48,3.48,0,0,1,316.84,262.34Z"/><path d="M314.2,260.37l.85.36a3,3,0,0,0-.93-.18Z"/><path class="cls-1" d="M310,262.6l-.08.08a46,46,0,0,0-7,9.87h0l-5.27-2.45,4.57-14.74,12,5-.08.18a5.53,5.53,0,0,0-4.1,2.06Z"/><path class="cls-1" d="M310,262.61l-.08.08a12.17,12.17,0,0,0-2.44,4.06c-1.47,3.94-.92,7.86,1.19,9.2a11.68,11.68,0,0,0-3.79,6,4.84,4.84,0,0,0-.21-.47c-1.61-3.21-2.6-3.31-5-2.6,1.1-2.41,2.19-4.51,3.22-6.34a46,46,0,0,1,7-9.87l.08-.08Z"/><path class="cls-3" d="M308,213c.16,11.48.24,21.55.25,22.4a2.76,2.76,0,0,1-.13.86l-5.93,19.11-1.81-.75c-1.11.77-3.87,4.54-6.65,8.6L302.49,235c0-1.84-.08-9.09-.19-17.83-.05-3.63-.1-7.53-.16-11.39l2.88-.05,2.89.61C307.94,208.56,308,210.8,308,213Z"/><path class="cls-3" d="M302,197.68c-.13-7-.29-13.11-.47-16.53-.16-3-1-5.05-2.68-6.4-2.41-1.95-6.63-2.49-12.53-1.59l-11.11,1.73L263,176.8l2.6-6.23,8.67-1.37,11.15-1.74c7.69-1.16,13.24-.24,17,2.82,2.93,2.39,4.55,5.95,4.8,10.57.26,4.94.48,15.18.63,25.48l-2.89-.61-2.88.05C302.1,203,302.05,200.29,302,197.68Z"/><path class="cls-1" d="M302.89,272.55h0c-1,1.83-2.12,3.93-3.22,6.34-1.21.35-3.53,1.51-5.88,2.55a2.58,2.58,0,0,0,.64-1.1l3.18-10.24Z"/><path class="cls-3" d="M297.62,270.1l-3.18,10.24a2.58,2.58,0,0,1-.64,1.1c-.74.33-1.48.65-2.19.92a2.63,2.63,0,0,1-.77-.12,2.9,2.9,0,0,1-1.9-3.61l4.79-15.42c2.78-4.06,5.54-7.83,6.65-8.6l1.81.75Z"/><path class="cls-3" d="M298.41,308.82v4.55a5.64,5.64,0,0,1-3.62,5.24L208.5,351.53c-3.81,1.46-7.47,2.87-12.59,2.87a30.05,30.05,0,0,1-3.77-.24,2,2,0,0,0,.94-1.05,2,2,0,0,0-1.14-2.59l-1.77-.67-.78-.3.61.22c7.87,1.56,12.13-.08,17.06-2l.81-.31,85.5-32.61a1.62,1.62,0,0,0,1-1.5v-4.55a2.29,2.29,0,0,0-3.54-1.91l-2.8,1.83a2,2,0,0,1-2.61-.38l.13-.09c1-.72,1.9-1.43,2.8-2.12,1.56-1.22,3-2.41,4.38-3.57a6.35,6.35,0,0,1,2.34.71A6.27,6.27,0,0,1,298.41,308.82Z"/><path class="cls-1" d="M294.41,308.82v4.55a1.62,1.62,0,0,1-1,1.5l-85.5,32.61-.81.31c-4.93,1.9-9.19,3.54-17.06,2l-.61-.22c-5.54-2.09-12.3-6.08-15.42-11.36a2,2,0,0,0-.95-.83l-66.2-27.54-.77-.32v-14l19.78,6.47-4.08,9.48,2,.83,11.82,4.83L150.18,323l9.1-.75.43-5.68,22.77,8.51c0,4.72,3.89,4.79,3.89,4.79,7.41,1.51,13.58-5.25,18.1-13h4.76l13.27-8.67.21.09s-.37,18,11.25,18.22c11.27.17,9.67-15,9.67-15l27.11-9.71s6.74,12.33,14.72,6.6a2,2,0,0,0,2.61.38l2.8-1.83a2.29,2.29,0,0,1,3.54,1.91Z"/><path class="cls-1" d="M293.73,263.21l-4.79,15.42a2.9,2.9,0,0,0,1.9,3.61,2.63,2.63,0,0,0,.77.12,11.17,11.17,0,0,1-3.82,1c-2.75-.09-8.32-2.74-8.32-2.74l6.81-6.1S290,268.61,293.73,263.21Z"/><path d="M291.61,282.36c.71-.27,1.45-.59,2.19-.92a2.82,2.82,0,0,1-2.11.93Z"/><path class="cls-3" d="M288.67,303.57a6.22,6.22,0,0,1,4.1-1c-1.35,1.16-2.82,2.35-4.38,3.57-.9.69-1.83,1.4-2.8,2.12l-.13.09a1.49,1.49,0,0,1-.15-.2,2,2,0,0,1,.58-2.77Z"/><path class="cls-3" d="M290.48,215.82a2.1,2.1,0,0,1-1.08,1c-.2.09-13.39,6-14.23,33.41,0,1.18-1.61,2.41-2.77,2.43,0-.18,0-.36,0-.54.07-3.85.29-8.07-.75-11.43.21-1.41.46-2.75.74-4q.28-1.36.63-2.64c2.84-10.64,7.74-16.22,11.12-18.93.31-.25.62-.48.9-.68l5.66.65A1.87,1.87,0,0,1,290.48,215.82Z"/><path class="cls-1" d="M289.13,198.1v5l-14.08,4.06-5.56,1.6-2.14-.08c0,.23,0,.47,0,.7l-2.14.62v-6.31Z"/><polygon class="cls-1" points="289.13 195.57 289.13 198.1 265.19 203.69 265.19 198.1 289.13 193.03 289.13 195.57"/><polygon class="cls-1" points="289.13 189.05 289.13 193.03 265.19 198.1 265.19 193.03 289.13 189.05"/><path class="cls-1" d="M272.41,252.11c0,.18,0,.36,0,.54V253A83.76,83.76,0,0,1,270.48,269s-3.74,10.07-5.14,11.72-48.52,16.76-53.06,18.21c.38-1.16.57-1.84.57-1.84s22.16-66.86,49.73-64.4a7.38,7.38,0,0,1,.84.22c4,1.17,6.33,4.42,7.61,8.53A37,37,0,0,1,272.41,252.11Z"/><path class="cls-3" d="M271.66,208.84c0,.62,0,1.24-.05,1.87a37.23,37.23,0,0,1-.53,6.58,11.48,11.48,0,0,0-4-2.58c.12-1.3.15-2.74.18-4.1,0-.41,0-.82,0-1.23l2.16-.62Z"/><path class="cls-3" d="M271.08,217.29c-.57,2.75-1.82,5-4.64,5.78l-1.15-4.17c1.14-.31,1.61-2.05,1.82-4.19A11.48,11.48,0,0,1,271.08,217.29Z"/><path d="M269.49,208.76l-2.16.62c0-.23,0-.47,0-.7Z"/><path class="cls-3" d="M265.64,170.57,263,176.8l-2.5.39-4.65-1.94,1.41-3.38Z"/><path class="cls-1" d="M265.19,203.69V210l-13.51-2.12h-.09c.07-2.28.12-4.47.07-6.13h.42Z"/><path class="cls-1" d="M265.19,198.1v5.59l-13.11-1.95h-.42c0-.69,0-1.28-.08-1.75a11.4,11.4,0,0,0-1.7-5.14Z"/><path class="cls-1" d="M265.19,193v5.07l-15.31-3.24a10,10,0,0,0-5.3-4.1v-2.37Z"/><path class="cls-3" d="M249.26,179c-3.44.54-6.87,1.06-10.13,1.56a3,3,0,0,0,1-.38,2.89,2.89,0,0,0,1-3.95l-1-1.66c5.58-.85,11.5-1.77,17.15-2.65l-1.41,3.38,4.65,1.94c-3.69.58-7.49,1.18-11.27,1.76Z"/><path class="cls-1" d="M254,185.06l.16.55-2.46.71h0l-7.1,2.07v2.37a11.91,11.91,0,0,0-1.24-.37l-7.57-1.82,0-.18v-4.8L254,180.82Z"/><path class="cls-1" d="M244.58,190.76a10,10,0,0,1,5.3,4.1,11.4,11.4,0,0,1,1.7,5.14c0,.47.07,1.06.08,1.75.05,1.66,0,3.85-.07,6.13-.19,5.66-.6,11.86-.6,11.86s-.55,5.67-4.27,6.07h0c-3.06-.09-7.51.92-13.89,5.07h0l-8.35-.25V210.15c0-5.38-4.28-14.67-10.32-16.28-1.53-.41-4.4-1-7.82-1.66a.06.06,0,0,0,0,0c0-.28,1.25-6.29,10.08-8.25h0l19.34,4.65,7.57,1.82A11.91,11.91,0,0,1,244.58,190.76Zm-22.91-.25c1.28-.92.51-2.11-1.71-2.67s-5-.25-6.32.67-.51,2.11,1.71,2.67S220.39,191.43,221.67,190.51Z"/><path class="cls-3" d="M241.16,176.18a2.89,2.89,0,0,1-1,3.95,3,3,0,0,1-1,.38H239l-.34,0a2.87,2.87,0,0,1-2.47-1.4c-.6-1-1.39-2.26-2.31-3.67l6.24-.95Z"/><path class="cls-3" d="M229.88,181.9c-4.76.72-8.77,1.3-11.42,1.66-.72.1-1.39.21-2,.36h0l-5.23-1.25-7.35,2.06h0c2.43-2.92,6.64-5.91,13.85-6.88,3.44-.46,9.33-1.32,16.21-2.37.92,1.41,1.71,2.67,2.31,3.67a2.87,2.87,0,0,0,2.47,1.4l.34,0C235.79,181,232.71,181.47,229.88,181.9Z"/><path class="cls-1" d="M235.81,183.59v4.8l0,.18-19.34-4.65c.64-.15,1.31-.26,2-.36,2.65-.36,6.66-.94,11.42-1.66Z"/><path class="cls-3" d="M240.15,174.52l-6.24.95a137.93,137.93,0,0,0-11.73-15.63l1.63-.38A2.87,2.87,0,0,0,226,156a2.8,2.8,0,0,0-.67-1.29A137.68,137.68,0,0,1,240.15,174.52Z"/><path class="cls-3" d="M226,156a2.87,2.87,0,0,1-2.15,3.45l-1.63.38a56.94,56.94,0,0,0-4.76-4.8l5.09-1.19a2.9,2.9,0,0,1,2.78.87A2.8,2.8,0,0,1,226,156Z"/><path class="cls-3" d="M225.29,154.72a2.9,2.9,0,0,0-2.78-.87L217.42,155a19,19,0,0,0-5.93-3.84c-2.44-.83-9,3.32-15.58,9-3.92.94-7.85,1.91-11.47,2.81,5.13-5.23,20.63-20.05,28.91-17.22C217.22,147.07,221.39,150.55,225.29,154.72Z"/><path class="cls-3" d="M217.42,155a56.94,56.94,0,0,1,4.76,4.8c-5.28,1.23-22.29,5.21-35.43,8.49l0-.15a2.85,2.85,0,0,0,1.5-.83c2.42-2.49,5.07-5,7.7-7.19C204.16,158.16,212.34,156.23,217.42,155Z"/><path class="cls-3" d="M211.19,182.67l5.23,1.25c-8.83,2-10,8-10.08,8.25a.06.06,0,0,1,0,0l-5.66-1.05a14.74,14.74,0,0,1,3.17-6.43Z"/><path class="cls-3" d="M191.94,350.52a2,2,0,0,1,1.14,2.59,2,2,0,0,1-.94,1.05c-1-.12-2-.28-3.07-.5l-.26-.07-.64-.23c-3.17-1.19-10.59-4.4-15.47-10.12l16.69,6.31.78.3Z"/><path class="cls-3" d="M192.14,354.16a2,2,0,0,1-.92.23,2,2,0,0,1-.72-.13s-.62-.25-1.75-.67l-.58-.22h0l.64.23.26.07C190.15,353.88,191.17,354,192.14,354.16Z"/><path class="cls-3" d="M195.91,160.16c-2.63,2.23-5.28,4.7-7.7,7.19a2.85,2.85,0,0,1-1.5.83,2.89,2.89,0,0,1-2.63-4.84l.36-.37C188.06,162.07,192,161.1,195.91,160.16Z"/><path class="cls-3" d="M188.17,353.36h0c-12.07-4.56-79.06-29.92-83.55-31.78-5.66-2.34-6.77-10.91-6.91-12.28a2,2,0,0,0,1.21,1.57l3.49,1.45c.68,2.28,1.87,4.78,3.74,5.56,3.31,1.36,42.5,16.23,66.55,25.35C177.58,349,185,352.17,188.17,353.36Z"/><path class="cls-3" d="M186.71,168.18l0,.15c-7.34,1.83-13.48,3.45-15.68,4.24-4,1.46-5.17,3.2-5.46,3.82-1-.06-2-.12-3-.15L159.8,176c0-.58.67-5.77,9.32-8.88,2.27-.82,8.19-2.39,15.32-4.18l-.36.37a2.89,2.89,0,0,0,2.63,4.84Z"/><path class="cls-3" d="M106.05,309.5l.77.32L173,337.36a2,2,0,0,1,.95.83c3.12,5.28,9.88,9.27,15.42,11.36l-16.69-6.31a21.28,21.28,0,0,1-1.81-2.43l-68.48-28.48a19.27,19.27,0,0,1-.73-3.49,2,2,0,0,0-1.26-1.67h0Z"/><path class="cls-1" d="M181.8,187.89v3.38a29.56,29.56,0,0,1-12.6,4.12V183.94c6.46-.91,11.45-2.41,11.73-4.39,0-.25.29-.22.52-.06a.69.69,0,0,1,.35.52Z"/><path class="cls-1" d="M181.47,179.45l0,0c-.23-.16-.49-.19-.52.06-.28,2-5.27,3.48-11.73,4.39a108.48,108.48,0,0,1-11.47.93,92.93,92.93,0,0,1-10.51-.26h0c-4-.36-7-1.07-8.12-2.16V182c1.58-5,13-6.17,23.53-5.77l2.92.21a.87.87,0,0,1,0,.11l.07-.17C174.17,177,181.47,178.42,181.47,179.45Z"/><path class="cls-1" d="M170.89,340.81a21.28,21.28,0,0,0,1.81,2.43c-24-9.12-63.24-24-66.55-25.35-1.87-.78-3.06-3.28-3.74-5.56Z"/><path class="cls-1" d="M169.2,183.94v11.45a62.52,62.52,0,0,1-11.46.23V184.87A108.48,108.48,0,0,0,169.2,183.94Z"/><path d="M165.61,176.39l-.07.17a.87.87,0,0,0,0-.11l-2.92-.21C163.63,176.27,164.63,176.33,165.61,176.39Z"/><path class="cls-1" d="M157.74,185.06v10.56c-3.35-.21-6.87-.61-10.52-1.16v-9.85a92.93,92.93,0,0,0,10.51.26Z"/><path class="cls-1" d="M147.22,184.61v9.85c-2.64-.4-5.36-.89-8.12-1.43V182.44c1.11,1.09,4.15,1.8,8.12,2.16Z"/><path class="cls-3" d="M102.41,312.33l-3.49-1.45a2,2,0,0,1-1.21-1.57s0-.06,0-.09a1.9,1.9,0,0,1,.32-1.28,1.18,1.18,0,0,1,.19-.25,1.45,1.45,0,0,1,.22-.21l.11-.08a.42.42,0,0,1,.14-.09.48.48,0,0,1,.16-.08,1.48,1.48,0,0,1,.29-.12,1.86,1.86,0,0,1,.34-.06h0a2,2,0,0,1,.92.13,2,2,0,0,1,1.26,1.67A19.27,19.27,0,0,0,102.41,312.33Z"/><path class="cls-3" d="M99.47,307.05a1.86,1.86,0,0,0-.34.06A1.86,1.86,0,0,1,99.47,307.05Z"/><path class="cls-3" d="M98.84,307.23a.48.48,0,0,0-.16.08A.48.48,0,0,1,98.84,307.23Z"/><path class="cls-3" d="M98.54,307.4l-.11.08Z"/><path class="cls-3" d="M98.43,307.48a1.45,1.45,0,0,0-.22.21A1.45,1.45,0,0,1,98.43,307.48Z"/><path class="cls-3" d="M98.21,307.69a1.18,1.18,0,0,0-.19.25A1.18,1.18,0,0,1,98.21,307.69Z"/><polyline class="cls-4" points="204.47 316.85 209.23 316.85 222.5 308.18 222.95 307.89"/><path class="cls-4" d="M270.48,269s-3.74,10.07-5.14,11.72-48.52,16.76-53.06,18.21l-.35.12"/><path class="cls-4" d="M129.22,282.38c-.12,0-2.75,2.88-2.86,8.38s-.53,11.17-.53,11.17l-4.08,9.48,2,.83,11.82,4.83L150.18,323l3.68-8.75,7.36-17.51,1.16-2.76"/><polyline class="cls-4" points="150.18 323.01 159.28 322.26 159.71 316.58 161.22 296.75"/><path class="cls-4" d="M136.19,316.58,145,311l1.43-14.31a.4.4,0,0,0-.75-.21l-5.95,12.16-3.8,7.75-.07.15"/><path class="cls-4" d="M135.81,307l-.59-15.95a.71.71,0,0,0-1.35-.28l-9.64,20.38Z"/><path class="cls-4" d="M238.73,316.85a2.9,2.9,0,1,1-2.89-2.89A2.9,2.9,0,0,1,238.73,316.85Z"/><path class="cls-4" d="M286.29,300.83a2.9,2.9,0,1,1-2.9-2.9A2.89,2.89,0,0,1,286.29,300.83Z"/><path class="cls-4" d="M147.22,184.6c-4-.36-7-1.07-8.12-2.16V193c2.76.54,5.48,1,8.12,1.43,3.65.55,7.17.95,10.52,1.16a62.52,62.52,0,0,0,11.46-.23,29.56,29.56,0,0,0,12.6-4.12V180a.69.69,0,0,0-.35-.52c-.23-.16-.49-.19-.52.06-.28,2-5.27,3.48-11.73,4.39a108.48,108.48,0,0,1-11.47.93,92.93,92.93,0,0,1-10.51-.26"/><path class="cls-4" d="M162.63,176.24c-10.57-.4-21.95.73-23.53,5.77"/><path class="cls-4" d="M181.47,179.45c0-1-7.3-2.5-15.86-3.06"/><path class="cls-4" d="M188.53,189l15.31-4.3,7.35-2.06,5.23,1.25h0l19.34,4.65,7.57,1.82a11.91,11.91,0,0,1,1.24.37,10,10,0,0,1,5.3,4.1,11.4,11.4,0,0,1,1.7,5.14c0,.47.07,1.06.08,1.75.05,1.66,0,3.85-.07,6.13-.19,5.66-.6,11.86-.6,11.86s-.55,5.67-4.27,6.07"/><polyline class="cls-4" points="232.82 230.89 224.47 230.64 224.46 230.64"/><path class="cls-4" d="M221.67,190.51c-1.28.92-4.11,1.22-6.32.67s-3-1.75-1.71-2.67,4.11-1.22,6.32-.67S223,189.59,221.67,190.51Z"/><path class="cls-4" d="M325.56,201.32c3.57.15,6.24,3.81,6.33,9.17a18,18,0,0,1-1.23,6.75c-.12.28-.23.56-.36.84-1.46,3.24-3.81,5.77-6.48,6.64a5.5,5.5,0,0,1-3.76,0c-2.71-1-4.62-4.33-4.69-8.83-.1-6.38,3.51-12.75,8.07-14.23a6.07,6.07,0,0,1,2.1-.3"/><path class="cls-4" d="M321,224.93l-.93-.25-6.8-1.8c-2.56-1.16-4.32-4.38-4.39-8.71,0-.33,0-.67,0-1a17.86,17.86,0,0,1,1.45-6.32c1.45-3.36,3.85-6,6.59-6.91l8.61,1.38h0"/><polyline class="cls-4" points="305.02 205.72 307.91 206.33 310.34 206.85"/><polyline class="cls-4" points="308.87 213.17 308 212.99 305.37 212.44"/><path class="cls-4" d="M286.05,186a7.26,7.26,0,0,1,3.08,3l-23.94,4-20.61-4.64,7.1-2.07"/><path class="cls-4" d="M275.59,183.59l6.8,1.12a10.2,10.2,0,0,1,1.35.32,13,13,0,0,1,2.3,1"/><polyline class="cls-4" points="251.69 186.32 254.15 185.61 259.21 184.13 266.3 182.07 275.58 183.59"/><polyline class="cls-4" points="267.33 209.38 265.19 210 265.19 203.69 265.19 198.1 265.19 193.03"/><polyline class="cls-4" points="289.13 189.05 289.13 193.03 289.13 195.57 289.13 198.1 289.13 203.1 275.05 207.16 269.49 208.76"/><polyline class="cls-4" points="244.58 188.39 244.58 190.76 244.58 191.05"/><line class="cls-4" x1="265.19" y1="210" x2="251.68" y2="207.88"/><polyline class="cls-4" points="289.13 193.03 265.19 198.1 249.88 194.86"/><polyline class="cls-4" points="289.13 198.1 265.19 203.69 252.08 201.74"/><polyline class="cls-4" points="286.05 186.04 286.04 186.04 265.73 189.72 251.69 186.32 251.68 186.32"/><polyline class="cls-4" points="275.59 183.59 275.58 183.59 266.04 186.52 259.21 184.13"/><polyline class="cls-4" points="289.13 195.57 302 197.68 304.53 198.1"/><polyline class="cls-4" points="290.08 215.77 290.48 215.82 302.3 217.16 305.02 217.47"/><polyline class="cls-4" points="275.09 207.3 275.09 214.05 284.15 215.09 284.42 215.12"/><polyline class="cls-4" points="235.81 188.39 235.81 183.59 253.99 180.82 253.99 185.06"/><polyline class="cls-4" points="235.81 183.59 229.88 181.9 226.09 180.82"/><polyline class="cls-4" points="253.99 180.82 249.27 178.95 249.26 178.95 246.02 177.66"/><path class="cls-4" d="M271.08,217.29a4.86,4.86,0,0,1,1.59,4.59,3,3,0,0,1-.27.7c-1.32,2.68-5.84,3.94-10.61,2.82s-8-4.06-8-7a3.81,3.81,0,0,1,.12-.95c.84-3.15,5.71-4.73,10.88-3.52a14.47,14.47,0,0,1,2.28.73"/><polyline class="cls-4" points="253.82 217.47 253.82 218.45 253.82 227.95 253.82 228.1"/><polyline class="cls-4" points="272.4 221.94 272.4 222.58 272.4 234.73 272.4 236.66 272.4 244.79"/><path class="cls-4" d="M184.67,279.49S201.74,259,219.38,242c1.79-1.73,3.48-3.28,5.09-4.67a77.49,77.49,0,0,1,8.35-6.39h0c6.38-4.15,10.83-5.16,13.89-5.07a10.67,10.67,0,0,1,3.05.51c1,.35,2.49.94,4,1.62,4.22,1.86,9.28,4.4,9.7,4.62h0"/><path class="cls-4" d="M224.47,237.29h0V210.15c0-5.38-4.28-14.67-10.32-16.28-1.53-.41-4.4-1-7.82-1.66l-5.66-1.05c-4.18-.75-8.57-1.51-12.14-2.13l-6.73-1.14h0c-.54-.1-.85-.14-.85-.14"/><path class="cls-4" d="M138.86,187.75s-13.55,11.49-19.41,18.45-17.22,19.78-16.85,42c0,11.66.36,9.1.39,8.91h0s7.8,1.41,8.67,3.41.13,8.6,1,9.47a24.67,24.67,0,0,0,3.35,1.29c11.15,3.88,46.26,14.93,46.26,14.93v-3.8a2.38,2.38,0,0,1,3.45-2.15c3.36,1.78,9.37,3.1,18.95-.71v11.89s-1.89,9.23-9.92,9.44-12.26-6.29-12.26-6.29V294l-.21-7.84"/><path class="cls-4" d="M103,257.06l.64,18.53a27.52,27.52,0,0,0,2.42,1.81c2.34,1.59,6,3.53,8.89,2.94a9.77,9.77,0,0,0,3.88-1.61"/><polyline class="cls-4" points="115.78 271.89 114.54 277.23 118.82 278.73 129.22 282.37 162.38 293.99"/><polyline class="cls-4" points="125.83 301.93 106.05 295.46 106.05 309.5 106.05 311.67"/><path class="cls-4" d="M210.72,303.36a90.45,90.45,0,0,1-6.25,13.49c-4.52,7.78-10.69,14.54-18.1,13,0,0-3.89-.07-3.89-4.79l-22.77-8.51"/><path class="cls-4" d="M271,241.39a37,37,0,0,1,1.38,10.72c0,.18,0,.36,0,.54V253A83.76,83.76,0,0,1,270.48,269l15.8,5.56-6.81,6.1s5.57,2.65,8.32,2.74a11.17,11.17,0,0,0,3.82-1c.71-.27,1.45-.59,2.19-.92,2.35-1,4.67-2.2,5.88-2.55,2.41-.71,3.4-.61,5,2.6a4.84,4.84,0,0,1,.21.47c1.25,3.12-.14,6.84-2.71,10.76a52.1,52.1,0,0,1-9.42,9.86c-1.35,1.16-2.82,2.35-4.38,3.57-.9.69-1.83,1.4-2.8,2.12l-.13.09c-8,5.73-14.72-6.6-14.72-6.6l-27.11,9.71s1.6,15.19-9.67,15c-11.62-.21-11.25-18.22-11.25-18.22l-.21-.09-11.78-4.82c.68-1.83,1.21-3.38,1.56-4.48s.57-1.84.57-1.84,22.16-66.86,49.73-64.4a7.38,7.38,0,0,1,.84.22c4,1.17,6.33,4.42,7.61,8.53"/><line class="cls-4" x1="106.05" y1="295.46" x2="106.05" y2="277.4"/><polyline class="cls-4" points="144.95 311.04 153.86 314.26 154.52 314.5"/><line class="cls-4" x1="135.81" y1="307" x2="139.68" y2="308.68"/><ellipse class="cls-4" cx="146.39" cy="316.2" rx="2.76" ry="1.7"/><ellipse class="cls-4" cx="133.25" cy="311.46" rx="2.56" ry="1.58"/><path class="cls-4" d="M316.84,262.34a8,8,0,0,1,.73,4.71,13.14,13.14,0,0,1-.76,3.17c-1.6,4.28-5,7-7.55,6a2.55,2.55,0,0,1-.57-.29c-2.11-1.34-2.66-5.26-1.19-9.2a12.17,12.17,0,0,1,2.44-4.06l.08-.08a5.53,5.53,0,0,1,4.1-2.06"/><path class="cls-4" d="M310.12,262.49a.84.84,0,0,0-.11.11l-.08.08a46,46,0,0,0-7,9.87c-1,1.83-2.12,3.93-3.22,6.34"/><path class="cls-4" d="M308.69,276a11.68,11.68,0,0,0-3.79,6"/><polyline class="cls-4" points="295.12 268.95 297.61 270.1 297.62 270.1 302.89 272.55"/><path class="cls-4" d="M314.2,260.37l-12-5-1.81-.75c-1.11.77-3.87,4.54-6.65,8.6-3.7,5.4-7.45,11.3-7.45,11.3"/><polyline class="cls-4" points="300.66 79.87 303.32 80.17 386.09 89.45 389.11 89.79"/><polyline class="cls-4" points="294.79 94 297.41 94.34 379.61 104.87 384.15 105.45"/><polyline class="cls-4" points="147.22 184.6 147.22 184.61 147.22 194.46 147.22 194.58"/><polyline class="cls-4" points="157.74 185.06 157.74 195.62 157.74 195.77"/><line class="cls-4" x1="169.2" y1="183.94" x2="169.2" y2="195.39"/></svg>