<svg width="432" height="350" viewBox="0 0 432 350" fill="none" xmlns="http://www.w3.org/2000/svg">
<path d="M260.611 323.458C260.611 323.458 301.71 303.178 308.779 292.602C315.848 282.026 305.457 281.427 305.457 281.427C305.457 281.427 323.798 263.578 321.218 256.062C318.639 248.549 309.137 255.439 309.137 255.439C309.137 255.439 320.929 229.169 315.368 226.528C305.011 221.609 290.481 249.875 290.481 249.875C290.481 249.875 293.603 237.597 286.47 237.995C275.714 238.596 276.16 266.371 276.16 266.371C276.16 266.371 274.945 255.722 268.461 259.181C256.83 265.388 260.611 323.458 260.611 323.458Z" fill="#355389"/>
<path d="M266.12 254.884C271.181 252.073 276.225 260.289 276.225 260.289C276.225 260.289 275.715 238.595 286.47 237.994C293.602 237.594 290.48 249.874 290.48 249.874C290.48 249.874 305.008 221.611 315.368 226.528L260.564 323.007C260.175 316.269 256.092 260.453 266.12 254.884Z" fill="#466EB6"/>
<path d="M261.67 323.707C261.67 323.707 295.285 327.886 303.988 324.163C312.691 320.439 306.455 315.84 306.455 315.84C306.455 315.84 325.144 312.165 326.584 306.429C328.026 300.692 319.404 301.149 319.404 301.149C319.404 301.149 337.323 289.537 334.927 285.63C330.464 278.351 309.924 290.072 309.924 290.072C309.924 290.072 316.858 283.683 312.247 281.031C305.293 277.033 294.294 294.538 294.294 294.538C294.294 294.538 294.976 290.224 289.528 289.744C279.752 288.887 261.67 323.707 261.67 323.707Z" fill="#355389"/>
<path d="M289.307 286.611C294.755 287.088 294.294 294.54 294.294 294.54C294.294 294.54 305.494 273.789 312.449 277.787C317.059 280.439 311.605 289.145 311.605 289.145C311.605 289.145 330.468 278.35 334.929 285.63L261.569 323.522C264.062 319.162 280.176 285.809 289.307 286.611Z" fill="#466EB6"/>
<path d="M173.805 322.395C173.805 322.395 132.706 302.116 125.637 291.539C118.568 280.963 128.958 280.364 128.958 280.364C128.958 280.364 110.618 262.513 113.197 255C115.779 247.486 125.407 254.666 125.407 254.666C125.407 254.666 113.487 228.108 119.047 225.467C129.404 220.548 143.935 248.814 143.935 248.814C143.935 248.814 140.812 236.537 147.945 236.934C158.702 237.535 158.256 265.311 158.256 265.311C158.256 265.311 159.471 254.662 165.954 258.12C177.585 264.325 173.805 322.395 173.805 322.395Z" fill="#355389"/>
<path d="M168.294 253.822C163.233 251.011 158.189 259.227 158.189 259.227C158.189 259.227 158.699 237.533 147.945 236.932C140.812 236.532 143.934 248.812 143.934 248.812C143.934 248.812 129.406 220.546 119.047 225.466L173.851 321.942C174.239 315.207 178.322 259.391 168.294 253.822Z" fill="#466EB6"/>
<path d="M172.743 322.649C172.743 322.649 139.131 326.825 130.425 323.104C121.722 319.38 127.959 314.782 127.959 314.782C127.959 314.782 109.27 311.107 107.828 305.37C106.386 299.633 115.307 300.197 115.307 300.197C115.307 300.197 97.0863 288.478 99.4824 284.571C103.945 277.292 124.485 289.013 124.485 289.013C124.485 289.013 117.551 282.624 122.162 279.972C129.116 275.975 140.116 293.479 140.116 293.479C140.116 293.479 139.433 289.165 144.881 288.686C154.662 287.828 172.743 322.649 172.743 322.649Z" fill="#355389"/>
<path d="M144.314 282.84C138.866 283.32 138.95 288.615 138.95 288.615C138.95 288.615 128.922 272.726 121.968 276.726C117.357 279.378 122.811 288.084 122.811 288.084C122.811 288.084 103.948 277.289 99.4872 284.569L172.848 322.461C170.352 318.101 153.443 282.04 144.314 282.84Z" fill="#466EB6"/>
<path d="M384.745 190.634L373.904 194.49C373.352 194.687 372.933 195.145 372.78 195.712L369.812 206.866C369.433 208.295 367.58 208.667 366.681 207.491L359.661 198.331C359.303 197.865 358.74 197.604 358.155 197.635L346.663 198.234C345.19 198.311 344.264 196.658 345.099 195.436L351.603 185.918C351.934 185.435 352.007 184.816 351.795 184.266L347.661 173.484C347.131 172.1 348.409 170.71 349.825 171.13L360.864 174.407C361.427 174.575 362.035 174.454 362.49 174.083L371.424 166.819C372.571 165.886 374.286 166.682 374.326 168.162L374.646 179.707C374.662 180.294 374.967 180.838 375.459 181.158L385.116 187.452C386.355 188.259 386.136 190.139 384.745 190.634Z" fill="#F7CC7F"/>
<path d="M364.819 255.186L359.681 257.014C359.419 257.107 359.22 257.324 359.148 257.593L357.741 262.88C357.561 263.558 356.683 263.734 356.257 263.177L352.929 258.835C352.759 258.614 352.492 258.49 352.215 258.505L346.767 258.789C346.069 258.825 345.63 258.042 346.026 257.462L349.109 252.951C349.266 252.721 349.301 252.428 349.2 252.167L347.24 247.056C346.989 246.401 347.595 245.742 348.266 245.941L353.499 247.494C353.766 247.574 354.054 247.516 354.27 247.34L358.505 243.897C359.048 243.455 359.862 243.832 359.881 244.534L360.032 250.006C360.04 250.285 360.184 250.543 360.418 250.694L364.995 253.678C365.582 254.06 365.479 254.952 364.819 255.186Z" fill="#F7CC7F"/>
<path d="M407.661 286.126L402.522 287.954C402.26 288.047 402.062 288.264 401.989 288.533L400.582 293.82C400.402 294.497 399.524 294.673 399.098 294.116L395.77 289.774C395.601 289.553 395.334 289.429 395.056 289.444L389.609 289.728C388.911 289.765 388.472 288.981 388.868 288.402L391.95 283.89C392.107 283.661 392.142 283.368 392.042 283.107L390.082 277.996C389.831 277.34 390.437 276.681 391.108 276.88L396.341 278.434C396.608 278.513 396.896 278.456 397.111 278.28L401.347 274.837C401.89 274.394 402.703 274.772 402.722 275.473L402.874 280.946C402.881 281.224 403.026 281.482 403.259 281.634L407.837 284.617C408.424 285 408.32 285.891 407.661 286.126Z" fill="#F7CC7F"/>
<path d="M75.786 199.246C75.786 199.246 74.6973 199.975 73.772 199.741C72.8467 199.505 72.4227 199.162 72.4227 199.162C72.4227 199.162 72.9329 200.095 73.6881 200.501C74.991 201.2 75.786 199.246 75.786 199.246Z" fill="#F47458"/>
<path d="M54.3014 194.081L64.3758 192.001C64.8881 191.895 65.4203 192.061 65.7957 192.441L73.1627 199.937C74.1079 200.898 75.6957 200.313 75.8502 198.945L77.0516 188.287C77.1134 187.743 77.427 187.268 77.8885 187.014L86.9758 182.022C88.1418 181.381 88.0954 179.622 86.8985 179.043L77.5661 174.537C77.0913 174.307 76.7534 173.848 76.6651 173.311L74.9139 162.73C74.6887 161.373 73.0722 160.871 72.18 161.881L65.2105 169.753C64.855 170.153 64.3338 170.347 63.8171 170.268L53.6478 168.721C52.3426 168.522 51.3909 169.972 52.0335 171.174L57.0574 180.546C57.3136 181.023 57.329 181.602 57.0972 182.09L52.5635 191.714C51.9827 192.949 53.0095 194.348 54.3014 194.081Z" fill="#F2C94C"/>
<path d="M72.2128 305.932C72.2128 305.932 71.3523 306.508 70.6209 306.323C69.8896 306.136 69.5544 305.865 69.5544 305.865C69.5544 305.865 69.9577 306.602 70.5546 306.924C71.5844 307.476 72.2128 305.932 72.2128 305.932Z" fill="#F47458"/>
<path d="M55.2257 301.845L63.1886 300.202C63.5935 300.118 64.0142 300.249 64.3109 300.549L70.1338 306.474C70.8809 307.234 72.1359 306.771 72.258 305.69L73.2076 297.265C73.2565 296.836 73.5043 296.46 73.8691 296.259L81.0518 292.314C81.9734 291.807 81.9367 290.417 80.9907 289.959L73.6143 286.398C73.239 286.216 72.9719 285.853 72.9021 285.428L71.518 277.065C71.3399 275.993 70.0622 275.596 69.3571 276.394L63.8483 282.616C63.5673 282.932 63.1554 283.086 62.7469 283.023L54.709 281.8C53.6774 281.643 52.9251 282.789 53.4331 283.739L57.404 291.147C57.6065 291.524 57.6187 291.982 57.4355 292.368L53.852 299.975C53.3929 300.951 54.2046 302.057 55.2257 301.845Z" fill="#F7CC7F"/>
<path d="M279.364 79.7891C279.11 80.9757 278.883 82.2044 278.264 83.201C277.202 84.485 276.2 85.8087 275.248 87.1677C275.904 87.1213 276.562 87.0904 277.229 87.0904C283.781 87.0904 289.876 89.3996 294.392 93.5895C298.431 97.3352 300.652 102.137 300.652 107.111C300.652 112.084 298.429 116.886 294.392 120.633C289.874 124.826 283.779 127.133 277.229 127.133C270.694 127.133 264.615 124.837 260.101 120.664C259.772 121.639 259.445 122.605 259.118 123.577C256.91 124.697 255.358 127.336 255.358 130.412C255.358 134.505 258.102 137.824 261.488 137.824C264.151 137.824 266.41 135.769 267.256 132.9C270.372 133.939 273.726 134.511 277.229 134.511C293.539 134.511 306.761 122.242 306.761 107.109C306.761 92.6459 294.677 80.8056 279.364 79.7891Z" fill="#E0973F"/>
<path d="M146.925 79.7891C147.177 80.9757 147.406 82.2044 148.025 83.201C149.087 84.485 150.089 85.8087 151.041 87.1677C150.385 87.1213 149.727 87.0904 149.06 87.0904C142.508 87.0904 136.413 89.3996 131.897 93.5895C127.858 97.3352 125.634 102.137 125.634 107.111C125.634 112.084 127.858 116.886 131.897 120.633C136.415 124.826 142.51 127.133 149.06 127.133C155.595 127.133 161.674 124.837 166.188 120.664C166.517 121.639 166.844 122.605 167.171 123.577C169.379 124.697 170.932 127.336 170.932 130.412C170.932 134.505 168.187 137.824 164.801 137.824C162.138 137.824 159.879 135.769 159.031 132.9C155.915 133.939 152.561 134.511 149.058 134.511C132.747 134.511 119.526 122.242 119.526 107.109C119.528 92.6459 131.612 80.8056 146.925 79.7891Z" fill="#E0973F"/>
<path d="M283.609 76.6699V84.2342C283.609 118.423 255.906 146.145 221.741 146.145C206.004 145.935 195.208 147.564 180.266 140.945C158.74 131.498 143.239 109.853 143.239 84.2342V76.6699H283.609Z" fill="#F7CC7F"/>
<path d="M180.266 140.947C180.282 140.954 180.297 140.961 180.313 140.967L202.553 76.6699H179.401L161.575 128.214C166.959 133.551 173.297 137.889 180.266 140.947Z" fill="#FAE0B2"/>
<path d="M194.737 145.285L218.205 76.6699H206.576L184.069 142.488C187.799 143.864 191.301 144.735 194.737 145.285Z" fill="#FAE0B2"/>
<path d="M159.321 125.861L176.871 76.6719H171.341L155.463 121.178C156.673 122.802 157.961 124.365 159.321 125.861Z" fill="#FAE0B2"/>
<path d="M277.482 72.3828H149.722C145.058 72.3828 141.257 74.9794 140.99 78.2521H286.214C285.944 74.9794 282.144 72.3828 277.482 72.3828Z" fill="#F7CC7F"/>
<path d="M189.704 144.334L196.932 181.468H228.542L237.497 144.334H189.704Z" fill="#F7CC7F"/>
<path d="M237.499 144.336L235.479 152.716H191.339L189.704 144.336H237.499Z" fill="#B75742"/>
<path d="M237.499 227.406H189.704L193.289 208.973L196.93 190.271H228.544L233.058 208.973L237.499 227.406Z" fill="#F7CC7F"/>
<path d="M237.499 227.407H189.704L193.289 208.975H233.058L237.499 227.407Z" fill="#B75742"/>
<path d="M234.089 181.469H191.388C189.505 181.469 187.979 182.998 187.979 184.881V186.859C187.979 188.744 189.507 190.273 191.388 190.273H234.089C235.972 190.273 237.498 188.744 237.498 186.859V184.881C237.498 182.998 235.972 181.469 234.089 181.469Z" fill="#FAE0B2"/>
<path d="M241.024 224.893H184.57V214.746C184.57 213.652 185.456 212.766 186.549 212.766H239.047C240.141 212.766 241.026 213.652 241.026 214.746V224.893H241.024Z" fill="#F7CC7F"/>
<path d="M259.681 232.141V235.829H165.913V232.141C165.913 227.889 168.506 224.439 171.701 224.439H253.893C257.088 224.439 259.681 227.891 259.681 232.141Z" fill="#F7CC7F"/>
<path d="M187.991 224.439L185.023 235.831H181.11L184.078 224.439H187.991Z" fill="#FAE0B2"/>
<path d="M182.388 224.439L179.422 235.831H175.504L178.475 224.439H182.388Z" fill="#FAE0B2"/>
<path d="M192.97 224.439L190.005 235.831H186.087L189.057 224.439H192.97Z" fill="#FAE0B2"/>
<path d="M294.596 320.108V323.796H137.471V320.108C137.471 315.856 141.815 312.406 147.168 312.406H284.897C290.25 312.406 294.596 315.856 294.596 320.108Z" fill="#F7CC7F"/>
<path d="M174.464 312.406L169.493 323.796H162.937L167.908 312.406H174.464Z" fill="#FAE0B2"/>
<path d="M165.075 312.406L160.104 323.796H153.539L158.518 312.406H165.075Z" fill="#FAE0B2"/>
<path d="M182.81 312.406L177.839 323.796H171.273L176.253 312.406H182.81Z" fill="#FAE0B2"/>
<path d="M253.632 137.316V140.101C253.632 144.923 249.732 148.825 244.92 148.825H181.976C177.158 148.825 173.258 144.923 173.258 140.101V137.316H253.632Z" fill="#F7CC7F"/>
<path d="M272.79 312.405H154.549L155.991 235.834H271.204L272.79 312.405Z" fill="#3C8F7C"/>
<path d="M244.675 312.405H182.67L183.427 235.834H243.843L244.675 312.405Z" fill="#50BFA5"/>
<path d="M232.688 310.103L223.314 294.782L209.534 306.297L223.712 219.908L246.868 223.714L232.688 310.103Z" fill="#B75742"/>
<path d="M275.523 306.252L261.716 294.77L252.377 310.111L237.999 223.757L261.145 219.898L275.523 306.252Z" fill="#B75742"/>
<path d="M294.596 239.79C294.596 244.78 290.199 249.016 288.737 253.518C287.222 258.185 288.24 264.187 285.416 268.072C282.563 271.996 276.525 272.867 272.603 275.722C268.721 278.548 266.042 284.042 261.378 285.558C256.878 287.021 251.505 284.199 246.516 284.199C241.53 284.199 236.155 287.019 231.654 285.558C226.99 284.042 224.311 278.548 220.429 275.722C216.509 272.867 210.47 271.994 207.617 268.072C204.792 264.187 205.81 258.185 204.295 253.518C202.833 249.014 198.437 244.78 198.437 239.79C198.437 234.8 202.833 230.564 204.295 226.063C205.81 221.395 204.792 215.394 207.617 211.509C210.47 207.586 216.507 206.713 220.429 203.858C224.311 201.032 226.99 195.538 231.654 194.022C236.155 192.559 241.528 195.381 246.514 195.381C251.5 195.381 256.875 192.562 261.376 194.024C266.04 195.54 268.719 201.034 272.601 203.86C276.521 206.716 282.56 207.588 285.414 211.511C288.238 215.396 287.22 221.398 288.735 226.065C290.197 230.566 294.596 234.8 294.596 239.79Z" fill="#F47458"/>
<path d="M258.498 282.492C256.985 282.492 255.227 282.106 253.365 281.697C251.168 281.213 248.894 280.713 246.517 280.713C244.139 280.713 241.867 281.213 239.667 281.697C237.806 282.106 236.048 282.492 234.535 282.492C233.839 282.492 233.252 282.411 232.733 282.243C230.81 281.617 229.087 279.659 227.261 277.584C225.814 275.94 224.319 274.243 222.484 272.906C220.623 271.551 218.529 270.639 216.504 269.757C213.984 268.661 211.606 267.625 210.44 266.022C209.294 264.447 209.042 261.875 208.775 259.15C208.559 256.94 208.333 254.655 207.618 252.445C206.929 250.322 205.789 248.399 204.687 246.538C203.27 244.145 201.929 241.882 201.929 239.794C201.929 237.706 203.27 235.445 204.687 233.052C205.789 231.191 206.929 229.268 207.618 227.145C208.336 224.933 208.561 222.648 208.777 220.438C209.044 217.715 209.296 215.141 210.442 213.568C211.608 211.965 213.987 210.929 216.506 209.833C218.531 208.951 220.627 208.041 222.489 206.684C224.324 205.347 225.819 203.648 227.265 202.006C229.092 199.931 230.816 197.971 232.738 197.347C233.254 197.179 233.844 197.098 234.539 197.098C236.052 197.098 237.81 197.484 239.672 197.893C241.871 198.377 244.143 198.877 246.522 198.877C248.898 198.877 251.173 198.377 253.372 197.893C255.234 197.484 256.992 197.098 258.504 197.098C259.2 197.098 259.789 197.179 260.306 197.347C262.23 197.973 263.954 199.933 265.778 202.008C267.225 203.65 268.72 205.349 270.555 206.686C272.417 208.041 274.51 208.953 276.535 209.835C279.055 210.931 281.433 211.968 282.599 213.57C283.745 215.145 283.997 217.718 284.264 220.442C284.481 222.652 284.706 224.937 285.421 227.147C286.11 229.271 287.25 231.195 288.352 233.054C289.77 235.447 291.11 237.71 291.11 239.796C291.11 241.884 289.77 244.145 288.352 246.541C287.25 248.399 286.11 250.324 285.421 252.447C284.704 254.659 284.479 256.944 284.262 259.152C283.995 261.875 283.743 264.449 282.597 266.025C281.431 267.629 279.053 268.663 276.533 269.759C274.508 270.641 272.412 271.551 270.551 272.908C268.716 274.245 267.22 275.945 265.774 277.587C263.948 279.662 262.223 281.622 260.302 282.245C259.783 282.411 259.193 282.492 258.498 282.492Z" fill="#F7CC7F"/>
<path d="M281.219 244.641C283.898 225.47 270.541 207.756 251.384 205.075C232.228 202.395 214.527 215.762 211.848 234.933C209.169 254.104 222.527 271.818 241.683 274.498C260.839 277.179 278.54 263.811 281.219 244.641Z" fill="#F47458"/>
<path d="M246.515 273.09C264.893 273.09 279.792 258.181 279.792 239.79C279.792 221.399 264.893 206.49 246.515 206.49C228.136 206.49 213.237 221.399 213.237 239.79C213.237 258.181 228.136 273.09 246.515 273.09Z" fill="white"/>
<path d="M276.514 242.766C278.154 226.174 266.042 211.393 249.461 209.752C232.88 208.112 218.109 220.232 216.47 236.824C214.83 253.417 226.943 268.197 243.523 269.838C260.104 271.479 274.875 259.358 276.514 242.766Z" fill="#F7CC7F"/>
<path d="M230.227 252.537L231.349 244.065H227.807V241.515H231.738L232.559 235.247H228.845V232.697H232.948L234.07 224.441H236.574L235.494 232.697H239.986L241.108 224.441H243.656L242.576 232.697H246.118V235.247H242.188L241.41 241.515H245.125V244.065H241.022L239.898 252.537H237.307L238.429 244.065H233.937L232.816 252.537H230.227ZM238.822 241.515L239.644 235.247H235.152L234.33 241.515H238.822Z" fill="white"/>
<path d="M257.871 227.986H257.784L252.904 230.622L252.169 227.725L258.301 224.441H261.541V252.537H257.871V227.986Z" fill="white"/>
<path d="M151.899 108.348C152.228 109.702 152.822 111.843 152.822 111.843C152.776 112.431 152.601 114.882 152.394 117.885L156.804 116.12C156.804 116.12 156.751 111.227 156.947 110.926C157.113 110.672 157.393 110.988 158.745 109.052C159.136 108.493 159.209 107.495 159.209 107.495C159.209 107.495 159.288 106.266 159.014 106.151C158.738 106.036 158.422 106.219 158.323 106.432C158.224 106.644 158.248 107.139 158.149 107.351C158.049 107.563 157.411 107.819 157.142 107.806C156.872 107.793 157.175 104.171 157.175 104.171C157.175 104.171 157.325 103.143 157.4 102.807C157.464 102.52 157.725 101.68 157.725 101.68C157.725 101.68 158.032 100.461 157.652 100.368C157.429 100.313 156.861 101.303 156.47 102.354C156.051 103.486 155.812 104.686 155.693 104.67C155.41 104.633 155.56 102.646 155.56 102.646C155.56 102.646 155.841 101.736 155.834 101.307C156.099 100.781 156.276 99.8043 155.808 99.7248C155.722 99.7093 155.108 100.949 155.108 100.949C155.108 100.949 154.867 101.822 154.726 102.228C154.476 102.949 154.439 104.085 154.311 104.584C154.202 105.002 154.105 104.829 154.061 104.847C154.026 104.86 154.088 104.286 154.156 103.497C154.191 103.099 154.145 102.64 154.255 102.187C154.359 101.767 154.417 101.166 154.445 100.803C154.52 99.7756 153.875 99.8817 153.65 100.821C153.564 101.179 153.476 101.57 153.385 101.966C153.039 103.506 153.047 104.989 152.882 105.002C152.665 105.017 152.809 102.317 152.809 102.317C152.809 102.317 152.478 100.823 152.151 102.209C151.769 103.82 151.811 105.13 151.815 105.19C151.853 105.587 151.57 106.993 151.899 108.348Z" fill="#F8A492"/>
<path d="M198.71 104.779C198.381 106.134 197.787 108.275 197.787 108.275C197.833 108.863 198.008 111.314 198.215 114.317L193.805 112.551C193.805 112.551 193.858 107.659 193.662 107.358C193.496 107.104 193.216 107.42 191.864 105.484C191.473 104.925 191.4 103.926 191.4 103.926C191.4 103.926 191.321 102.698 191.595 102.583C191.871 102.468 192.187 102.651 192.286 102.863C192.385 103.075 192.361 103.57 192.461 103.783C192.56 103.995 193.198 104.251 193.467 104.238C193.737 104.225 193.434 100.603 193.434 100.603C193.434 100.603 193.284 99.575 193.209 99.2391C193.145 98.9518 192.884 98.1121 192.884 98.1121C192.884 98.1121 192.578 96.8923 192.957 96.7995C193.18 96.7442 193.748 97.7342 194.139 98.7861C194.558 99.9175 194.797 101.117 194.916 101.102C195.199 101.064 195.049 99.0778 195.049 99.0778C195.049 99.0778 194.768 98.1674 194.775 97.7386C194.51 97.2127 194.333 96.2359 194.801 96.1564C194.887 96.1409 195.501 97.3807 195.501 97.3807C195.501 97.3807 195.742 98.2535 195.883 98.6601C196.131 99.3783 196.168 100.516 196.299 101.016C196.407 101.433 196.504 101.261 196.548 101.279C196.583 101.292 196.522 100.717 196.453 99.9286C196.418 99.5308 196.464 99.0712 196.354 98.6182C196.25 98.1983 196.193 97.5972 196.166 97.2348C196.091 96.2072 196.736 96.3133 196.961 97.2525C197.047 97.6105 197.136 98.0016 197.226 98.3972C197.573 99.9374 197.564 101.42 197.73 101.433C197.946 101.449 197.802 98.7485 197.802 98.7485C197.802 98.7485 198.134 97.2547 198.461 98.6403C198.84 100.251 198.801 101.564 198.796 101.621C198.754 102.019 199.039 103.425 198.71 104.779Z" fill="#F8A492"/>
<path d="M171.19 120.68C171.19 120.68 173.434 118.311 175.24 121.192C175.24 121.192 176.631 120.41 177.607 121.802C177.607 121.802 180.12 121.044 180.73 124.805C180.73 124.805 182.024 124.562 182.194 126.1C182.364 127.638 181.584 128.664 181.584 128.664C181.584 128.664 182.311 129.21 181.982 130.624C181.702 131.826 180.708 132.009 180.708 132.009C180.708 132.009 180.438 134.036 179.562 134.646C178.683 135.256 177.488 134.964 177.488 134.964C177.488 134.964 177.17 136.062 176.145 135.965C175.121 135.868 173.851 134.891 172.705 135.331C171.559 135.771 168.582 135.307 168.582 135.307C168.582 135.307 165.238 133.817 166.239 130.398C166.239 130.398 164.481 128.812 166.02 126.907C166.02 126.907 164.898 123.928 167.118 122.171C169.337 120.414 171.19 120.68 171.19 120.68Z" fill="#07345A"/>
<path d="M186.648 219.9C186.648 219.9 189.092 222.935 189.702 223.308C190.311 223.681 189.43 228.09 187.769 228.38C186.833 228.543 186.314 227.513 186.314 227.513L186.584 226.243L183.09 222.641L186.648 219.9Z" fill="#F7A491"/>
<path d="M174.049 220.648C174.049 220.648 176.088 223.97 176.644 224.418C177.201 224.867 175.763 229.125 174.082 229.2C173.135 229.242 172.751 228.155 172.751 228.155L173.179 226.931L170.174 222.911L174.049 220.648Z" fill="#F7A491"/>
<path d="M176.522 224.287C176.522 224.287 175.351 225.781 174.713 226.375C173.89 227.142 172.832 227.894 172.832 227.894C172.832 227.894 171.635 230.066 171.308 230.824C170.581 232.512 169.762 234.39 169.881 235.336C169.919 235.639 170.599 235.962 171.167 235.787C173.53 235.06 179.569 229.531 180.331 228.048C181.21 226.333 176.522 224.287 176.522 224.287Z" fill="#07345A"/>
<path d="M159.283 173.694C159.501 173.079 159.713 172.511 159.916 171.977C162.43 172.525 165.267 173.128 168.187 173.751L168.542 184.458C168.54 183.631 166.347 201.535 166.347 201.535C166.347 201.535 172.02 214.103 175.898 221.428C174.306 223.417 173.559 224.058 171.252 225.413C165.23 218.189 157.348 204.969 157.021 202.771C156.834 201.504 156.664 181.066 159.283 173.694Z" fill="#B75742"/>
<path d="M181.704 176.79C180.936 185.132 179.231 201.083 179.372 202.367C179.801 203.967 187.393 218.726 188.76 220.874C187.676 222.509 185.995 224.277 184.189 224.766C183.833 224.863 171.303 207.021 170.621 205.604C169.848 204.004 168.563 195.271 168.538 184.461L168.183 173.754C173.048 174.788 177.519 175.807 181.704 176.79Z" fill="#F47458"/>
<path d="M165.735 138.758L171.459 139.545C171.459 139.545 176.048 139.657 176.616 139.657C177.183 139.657 180.779 160.556 181.821 168.42C182.861 176.285 182.055 177.677 182.055 177.677C182.055 177.677 174.796 179.311 169.426 178.835C163.841 178.34 157.558 175.324 157.558 175.324C157.558 175.324 162.332 160.211 163.278 155.491C164.225 150.77 165.735 138.758 165.735 138.758Z" fill="#96D9C9"/>
<path d="M151.853 113.443C151.853 113.443 151.486 129.025 152.072 130.216C152.926 131.949 162.539 144.244 162.539 144.244C162.539 144.244 157.946 163.476 156.016 170.117C155.821 170.786 154.96 175.107 154.96 175.527C154.96 176.461 159.023 177.646 159.505 177.575C159.935 177.511 163.482 159.218 165.743 150.268C166.51 147.234 167.826 144.368 169.626 141.809L171.2 139.573L159.123 127.458C159.123 127.458 157.634 113.974 157.634 112.858C157.634 112.564 152.438 112.345 151.853 113.443Z" fill="#13375B"/>
<path d="M176.409 139.63L191.47 124.274C191.47 124.274 193.568 109.753 193.718 109.205C193.864 108.668 197.604 108.376 199.113 108.231C199.596 108.184 198.859 123.697 198.139 126.298C197.286 129.37 185.903 143.367 185.903 143.367C185.903 143.367 183.862 150.949 184.355 156.509C185.172 165.746 187.371 178.45 186.976 178.848C184.529 180.391 175.135 180.556 174.541 179.597C167.973 169.019 176.409 139.63 176.409 139.63Z" fill="#13375B"/>
<path d="M171.569 136.761L171.163 139.777C171.163 139.777 170.253 144.124 171.423 144.962C172.594 145.799 176.403 139.654 176.403 139.654L176.001 132.01L171.569 136.761Z" fill="#F7A491"/>
<path d="M176.13 134.487C175.162 137.095 172.859 138.697 171.223 139.318L171.567 136.761L175.999 132.01L176.13 134.487Z" fill="#F47458"/>
<path d="M182.233 126.813C182.233 127.978 181.571 128.921 180.756 128.921C179.941 128.921 179.278 127.978 179.278 126.813C179.278 125.649 179.941 124.705 180.756 124.705C181.571 124.705 182.233 125.649 182.233 126.813Z" fill="#07345A"/>
<path d="M176.003 123.494C176.995 123.494 177.8 122.952 177.8 122.283C177.8 121.614 176.995 121.072 176.003 121.072C175.01 121.072 174.205 121.614 174.205 122.283C174.205 122.952 175.01 123.494 176.003 123.494Z" fill="#07345A"/>
<path d="M173.296 123.977C170.92 123.16 168.387 124.738 168.023 127.19C167.866 128.256 167.722 129.597 167.696 131.06C167.632 134.582 169.454 138.012 171.052 138.012C172.651 138.012 177.07 135.731 177.229 130.728C177.331 127.641 175.789 124.837 173.296 123.977Z" fill="#F7A491"/>
<path d="M176.05 131.126C176.05 131.904 176.565 132.534 177.201 132.534C177.837 132.534 178.351 131.904 178.351 131.126C178.351 130.349 177.837 129.719 177.201 129.719C176.565 129.719 176.05 130.349 176.05 131.126Z" fill="#F7A491"/>
<path d="M166.367 122.225C164.716 123.534 164.137 125.525 165.075 126.669C166.014 127.814 168.112 127.681 169.764 126.371C171.416 125.063 171.994 123.072 171.056 121.927C170.117 120.782 168.019 120.915 166.367 122.225Z" fill="#07345A"/>
<path d="M172.221 124.325C173.068 124.325 173.754 123.864 173.754 123.295C173.754 122.727 173.068 122.266 172.221 122.266C171.375 122.266 170.689 122.727 170.689 123.295C170.689 123.864 171.375 124.325 172.221 124.325Z" fill="#07345A"/>
<path d="M166.123 127.675C166.123 128.407 166.708 128.999 167.433 128.999C168.155 128.999 168.742 128.407 168.742 127.675C168.742 126.944 168.157 126.352 167.433 126.352C166.708 126.349 166.123 126.944 166.123 127.675Z" fill="#07345A"/>
<path d="M189.564 223.191C189.564 223.191 188.595 224.822 188.036 225.494C187.316 226.36 186.364 227.24 186.364 227.24C186.364 227.24 185.454 229.547 185.227 230.34C184.721 232.108 184.149 234.238 184.386 235.162C184.463 235.458 185.112 236.024 185.649 235.673C187.72 234.322 193.254 228.002 193.82 226.431C194.475 224.623 189.564 223.191 189.564 223.191Z" fill="#07345A"/>
<path d="M297.368 158.812C297.368 158.812 290.763 159.831 285.885 164.7C281.007 169.568 278.092 177.386 278.092 177.386L288.082 180.301C288.082 180.303 284.09 170.98 297.368 158.812Z" fill="#FAE0B2"/>
<path d="M299.197 163.608L298.482 157.978L293.44 155.377C292.866 155.081 292.882 154.254 293.465 153.978L298.595 151.556L299.509 145.954C299.613 145.315 300.403 145.074 300.845 145.545L304.732 149.68L310.338 148.82C310.977 148.723 311.451 149.399 311.14 149.967L308.413 154.944L310.963 160.013C311.253 160.59 310.756 161.25 310.122 161.129L304.548 160.07L300.518 164.064C300.061 164.519 299.279 164.249 299.197 163.608Z" fill="#F7CC7F"/>
<path d="M123.58 188.789C123.58 188.789 130.185 189.808 135.064 194.676C139.942 199.544 142.855 207.363 142.855 207.363L132.864 210.277C132.866 210.277 136.859 200.956 123.58 188.789Z" fill="#FAE0B2"/>
<path d="M121.751 193.585L122.466 187.954L127.508 185.353C128.082 185.057 128.066 184.231 127.483 183.954L122.353 181.532L121.439 175.931C121.335 175.292 120.545 175.051 120.103 175.522L116.216 179.656L110.61 178.797C109.971 178.699 109.497 179.376 109.808 179.944L112.535 184.92L109.985 189.99C109.693 190.566 110.192 191.227 110.826 191.105L116.398 190.047L120.428 194.04C120.889 194.495 121.669 194.226 121.751 193.585Z" fill="#F7CC7F"/>
<path d="M107.738 280.458L108.453 274.827L113.495 272.226C114.069 271.93 114.054 271.104 113.471 270.828L108.341 268.406L107.426 262.804C107.323 262.165 106.532 261.924 106.09 262.395L102.204 266.529L96.5968 265.67C95.9586 265.573 95.4838 266.249 95.7952 266.817L98.5224 271.793L95.9718 276.863C95.6803 277.439 96.1794 278.1 96.8132 277.979L102.385 276.92L106.415 280.913C106.877 281.368 107.656 281.099 107.738 280.458Z" fill="#F7CC7F"/>
<path d="M342.05 163.733L343.595 161.121L342.321 158.367C342.175 158.053 342.454 157.709 342.789 157.786L345.748 158.449L347.972 156.385C348.226 156.151 348.639 156.308 348.67 156.652L348.955 159.673L351.603 161.151C351.905 161.319 351.883 161.761 351.565 161.898L348.783 163.103L348.195 166.079C348.129 166.418 347.703 166.535 347.473 166.274L345.468 163.998L342.458 164.36C342.116 164.4 341.875 164.029 342.05 163.733Z" fill="#2F80ED"/>
<path d="M180.022 53.4968L181.972 50.2019L180.364 46.728C180.181 46.3325 180.532 45.8971 180.956 45.9944L184.69 46.8319L187.495 44.2287C187.815 43.9326 188.334 44.1315 188.376 44.5646L188.734 48.3766L192.075 50.2417C192.455 50.4538 192.428 51.0107 192.026 51.1853L188.515 52.7034L187.775 56.4601C187.691 56.8889 187.152 57.0325 186.865 56.7054L184.337 53.8327L180.538 54.2879C180.106 54.3387 179.801 53.8724 180.022 53.4968Z" fill="#F79C8D"/>
<path d="M336.039 53.7852L330.892 57.2214L333.769 62.2223L328.849 65.8332L331.011 70.9512L327.769 74.2549L329.441 75.8968L333.776 71.4771L331.729 66.6265L336.848 62.872L334.017 57.9551L338.681 54.8393L336.039 53.7852Z" fill="#F48C7F"/>
<path d="M343.945 136.628L340.304 131.62L335.428 134.703L331.623 129.927L326.601 132.296L323.17 129.191L321.599 130.928L326.186 135.083L330.947 132.838L334.905 137.803L339.701 134.773L343 139.31L343.945 136.628Z" fill="#F48C7F"/>
<path d="M279.823 88.5416L276.181 83.5341L271.305 86.6168L267.5 81.8413L262.479 84.2103L259.047 81.1055L257.477 82.8424L262.064 86.9969L266.825 84.7517L270.782 89.7172L275.579 86.6875L278.878 91.2243L279.823 88.5416Z" fill="#F48C7F"/>
<path d="M157.531 37.4571L158.768 31.3911L153.205 29.8686L154.159 23.8379L149.022 21.7253L148.998 17.0957L146.657 17.109L146.688 23.3009L151.555 25.3008L150.564 31.5745L156.034 33.0728L154.914 38.5709L157.531 37.4571Z" fill="#F48C7F"/>
<path d="M116.58 38.6895L118.937 43.0892L124.018 42.8064L126.308 47.9266L131.626 45.9532L134.472 51.6303L139.593 50.4193L143.224 55.4334L141.329 56.8079L138.613 53.06L133.209 54.3373L130.473 48.8812L125.067 50.8877L122.538 45.235L117.576 45.5134L115.394 41.4341L112.172 42.2981L111.567 40.0352L116.58 38.6895Z" fill="#F7CC7F"/>
<path d="M103.279 75.7577L99.5289 76.1378L98.2502 70.169L92.6985 70.0497L91.0114 65.7383L88.8295 66.5913L91.0864 72.3589L96.3467 72.4716L97.6783 78.6813L103.321 78.1089L103.279 75.7577Z" fill="#50BFA5"/>
<path d="M96.5321 140.48L95.1298 143.981L89.2512 142.343L86.5681 147.207L81.9704 146.701L81.7142 149.033L87.8644 149.709L90.4062 145.097L96.5211 146.801L98.6344 141.535L96.5321 140.48Z" fill="#50BFA5"/>
<path d="M68.7526 235.092L67.3503 238.592L61.4717 236.955L58.7886 241.819L54.1909 241.312L53.9347 243.644L60.0849 244.32L62.6267 239.708L68.7415 241.412L70.8549 236.146L68.7526 235.092Z" fill="#50BFA5"/>
<path d="M106.496 101.331C110.657 105.324 110.796 111.938 106.803 116.102C102.813 120.265 96.2032 120.404 92.0427 116.409C87.8822 112.416 87.7431 105.802 91.7358 101.638C95.7262 97.475 102.336 97.338 106.496 101.331Z" fill="#FFF3D9"/>
<path d="M106.266 110.064L101.825 111.43L100.432 115.867C100.319 116.225 99.8444 116.3 99.628 115.991L96.9559 112.185L92.3096 112.23C91.9342 112.234 91.7178 111.805 91.943 111.505L94.7344 107.786L93.257 103.377C93.1377 103.021 93.4778 102.683 93.8334 102.805L98.2301 104.312L101.964 101.543C102.267 101.32 102.693 101.539 102.687 101.914L102.611 106.564L106.397 109.26C106.701 109.481 106.624 109.954 106.266 110.064Z" fill="#FED333"/>
<path d="M379.211 118.718C383.372 122.711 383.511 129.325 379.518 133.488C375.528 137.652 368.918 137.791 364.758 133.796C360.598 129.802 360.458 123.188 364.451 119.025C368.444 114.862 375.049 114.725 379.211 118.718Z" fill="#FFF3D9"/>
<path d="M378.98 127.449L374.537 128.814L373.144 133.252C373.031 133.61 372.556 133.685 372.342 133.376L369.67 129.57L365.024 129.614C364.648 129.619 364.432 129.19 364.657 128.89L367.448 125.17L365.971 120.762C365.852 120.406 366.192 120.068 366.547 120.189L370.944 121.697L374.676 118.928C374.979 118.704 375.405 118.923 375.398 119.299L375.323 123.948L379.108 126.647C379.417 126.863 379.34 127.338 378.98 127.449Z" fill="#FED333"/>
<path d="M226.684 65.1398C230.844 69.133 230.984 75.747 226.991 79.9103C223 84.0737 216.391 84.2129 212.23 80.2175C208.07 76.2243 207.931 69.6103 211.924 65.447C215.916 61.2836 222.521 61.1466 226.684 65.1398Z" fill="#FFF3D9"/>
<path d="M226.456 73.8726L222.013 75.2383L220.619 79.6757C220.507 80.0336 220.032 80.1088 219.818 79.7994L217.146 75.9941L212.499 76.0383C212.124 76.0427 211.908 75.614 212.133 75.3134L214.924 71.5943L213.447 67.1857C213.327 66.8299 213.668 66.4918 214.023 66.6133L218.42 68.1204L222.152 65.3515C222.455 65.1283 222.881 65.3471 222.874 65.7228L222.799 70.3723L226.584 73.0705C226.893 73.287 226.816 73.7621 226.456 73.8726Z" fill="#FED333"/>
<path d="M332.103 105.609L333.927 108.644C334.123 108.973 334.613 108.931 334.753 108.575L336.049 105.28L339.496 104.48C339.869 104.394 339.982 103.917 339.686 103.671L336.954 101.42L337.259 97.8927C337.292 97.5104 336.873 97.2563 336.55 97.4618L333.567 99.3645L330.307 97.9833C329.954 97.8331 329.583 98.1535 329.68 98.5248L330.568 101.952L328.249 104.626C327.997 104.916 328.187 105.369 328.569 105.391L332.103 105.609Z" fill="#F47458"/>
<path d="M267.978 57.5196L269.802 60.5537C269.999 60.883 270.489 60.841 270.628 60.4852L271.925 57.1904L275.372 56.3904C275.745 56.3042 275.858 55.8269 275.562 55.5816L272.83 53.3298L273.135 49.8029C273.168 49.4206 272.748 49.1665 272.426 49.372L269.442 51.2746L266.183 49.8935C265.83 49.7432 265.459 50.0637 265.556 50.4349L266.444 53.8624L264.125 56.5363C263.873 56.8258 264.063 57.2788 264.445 57.3009L267.978 57.5196Z" fill="#F47458"/>
<path d="M357.575 283.752L359.399 286.786C359.595 287.115 360.086 287.073 360.225 286.718L361.521 283.423L364.968 282.623C365.341 282.537 365.454 282.059 365.158 281.814L362.426 279.562L362.731 276.035C362.764 275.653 362.345 275.399 362.022 275.604L359.039 277.507L355.779 276.126C355.426 275.976 355.055 276.296 355.152 276.667L356.04 280.095L353.721 282.769C353.47 283.058 353.659 283.511 354.041 283.533L357.575 283.752Z" fill="#F47458"/>
<path d="M325.695 175.099C325.695 176.268 324.748 177.216 323.58 177.216C322.411 177.216 321.464 176.268 321.464 175.099C321.464 173.93 322.411 172.982 323.58 172.982C324.748 172.985 325.695 173.93 325.695 175.099Z" fill="#50BFA5"/>
<path d="M78.1759 110.945C78.1759 112.114 77.1512 113.062 75.8859 113.062C74.6205 113.062 73.5936 112.114 73.5936 110.945C73.5936 109.776 74.6183 108.828 75.8859 108.828C77.149 108.828 78.1759 109.776 78.1759 110.945Z" fill="#50BFA5"/>
<path d="M215.345 25.2597L218.121 25.8078C218.121 25.8078 222.18 23.9117 222.489 22.9969C222.798 22.082 222.657 19.976 223.251 19.8434C223.845 19.7108 225.033 19.7617 225.488 21.1605C225.817 22.1748 224.671 25.368 224.947 25.6597C225.122 25.8409 226.707 26.2033 227.871 26.4464C228.635 26.6077 229.247 27.1889 229.454 27.9535V27.9557C229.596 28.4728 229.362 29.0231 228.891 29.275L228.16 29.6661L228.503 30.4285C228.759 30.9965 228.514 31.6705 227.955 31.9379L227.385 32.2119L227.635 32.6715C227.957 33.2638 227.699 34.0107 227.085 34.2759L226.586 34.4902L226.623 34.6272C226.784 35.1929 226.491 35.794 225.95 36.0106L225.451 36.2095L218.057 34.7466C217.364 34.6095 216.708 34.3289 216.127 33.9245L213.614 32.9721C213.345 32.8704 213.19 32.5809 213.252 32.2936L214.656 25.7194C214.729 25.4034 215.034 25.1979 215.345 25.2597Z" fill="#81DB0F"/>
</svg>
