<svg width="130" height="130" viewBox="0 0 130 130" fill="none" xmlns="http://www.w3.org/2000/svg">
<circle cx="65" cy="65" r="65" fill="#FFF9EB"/>
<g clip-path="url(#clip0)">
<path d="M50.9655 28H30.5517C29.1442 28.0042 28.0042 29.1442 28 30.5517V57.4469C28.0037 58.192 28.3293 58.8991 28.8931 59.3862L36.2166 65.6634C36.6781 66.0599 37.2667 66.2773 37.8752 66.2759H43.6421C44.2505 66.2773 44.8392 66.0599 45.3007 65.6634L52.6241 59.3862C53.1879 58.8991 53.5136 58.192 53.5172 57.4469V30.5517C53.513 29.1442 52.3731 28.0042 50.9655 28V28ZM40.7586 59.8966C39.3493 59.8966 38.2069 58.7541 38.2069 57.3448C38.2069 55.9356 39.3493 54.7931 40.7586 54.7931C42.1679 54.7931 43.3103 55.9356 43.3103 57.3448C43.3061 58.7524 42.1662 59.8923 40.7586 59.8966Z" fill="#F9EAB0"/>
<path d="M37.7322 40.5386C38.7326 40.5386 39.5435 39.7277 39.5435 38.7273C39.5435 37.727 38.7326 36.916 37.7322 36.916C36.7318 36.916 35.9209 37.727 35.9209 38.7273C35.9209 39.7277 36.7318 40.5386 37.7322 40.5386Z" fill="#3F2355"/>
<path d="M44.9773 47.7847C45.9777 47.7847 46.7886 46.9738 46.7886 45.9734C46.7886 44.9731 45.9777 44.1621 44.9773 44.1621C43.977 44.1621 43.166 44.9731 43.166 45.9734C43.166 46.9738 43.977 47.7847 44.9773 47.7847Z" fill="#3F2355"/>
<path d="M35.9211 48.6903C35.5549 48.6902 35.2247 48.4695 35.0846 48.1312C34.9444 47.7928 35.0219 47.4033 35.2808 47.1443L46.1486 36.2765C46.376 36.0411 46.7127 35.9467 47.0294 36.0295C47.346 36.1124 47.5933 36.3597 47.6762 36.6763C47.7591 36.993 47.6647 37.3297 47.4292 37.5571L36.5614 48.4249C36.3916 48.5948 36.1613 48.6902 35.9211 48.6903Z" fill="#3F2355"/>
<path d="M40.7588 77.759C40.0541 77.759 39.4829 77.1878 39.4829 76.4832V59.897C39.4829 59.1923 40.0541 58.6211 40.7588 58.6211C41.4634 58.6211 42.0346 59.1923 42.0346 59.897V76.4832C42.0346 77.1878 41.4634 77.759 40.7588 77.759Z" fill="#7F6E5D"/>
<path d="M80.3103 82.8627C91.5845 82.8627 100.724 73.7232 100.724 62.4489C100.724 51.1747 91.5845 42.0352 80.3103 42.0352C69.036 42.0352 59.8965 51.1747 59.8965 62.4489C59.8965 73.7232 69.036 82.8627 80.3103 82.8627Z" fill="#EAEAEB"/>
<path d="M80.75 62.2708V56.1254C82.85 56.3777 84.5 57.6638 84.5 59.1538C84.5 59.5787 84.8358 59.9231 85.25 59.9231C85.6642 59.9231 86 59.5787 86 59.1538C86 56.8046 83.705 54.8638 80.75 54.5785V53.7692C80.75 53.3444 80.4142 53 80 53C79.5858 53 79.25 53.3444 79.25 53.7692V54.5785C76.295 54.8638 74 56.8046 74 59.1538C74 61.5031 76.295 63.4438 79.25 63.7292V69.8746C77.15 69.6223 75.5 68.34 75.5 66.8462C75.5 66.4213 75.1642 66.0769 74.75 66.0769C74.3358 66.0769 74 66.4213 74 66.8462C74 69.1954 76.295 71.1362 79.25 71.4215V72.2308C79.25 72.6556 79.5858 73 80 73C80.4142 73 80.75 72.6556 80.75 72.2308V71.4215C83.705 71.1362 86 69.1954 86 66.8462C86 64.4969 83.705 62.5562 80.75 62.2708ZM75.5 59.1538C75.5 57.66 77.15 56.3777 79.25 56.1254V62.1823C77.15 61.93 75.5 60.6477 75.5 59.1538ZM80.75 69.8746V63.8177C82.85 64.07 84.5 65.3562 84.5 66.8462C84.5 68.3362 82.85 69.6223 80.75 69.8746Z" fill="#3F2355"/>
<path d="M80.3103 84.1371C68.3314 84.1371 58.6206 74.4263 58.6206 62.4475C58.6206 50.4686 68.3314 40.7578 80.3103 40.7578C92.2891 40.7578 102 50.4686 102 62.4475C101.987 74.4208 92.2836 84.1238 80.3103 84.1371ZM80.3103 43.3095C69.7407 43.3095 61.1723 51.8779 61.1723 62.4475C61.1723 73.0171 69.7407 81.5854 80.3103 81.5854C90.8798 81.5854 99.4482 73.0171 99.4482 62.4475C99.4362 51.8828 90.8749 43.3215 80.3103 43.3095Z" fill="#EAEAEB"/>
<path d="M86.6897 89.2405V93.0681C86.682 95.2 84.9557 96.9263 82.8238 96.934H31.8659C29.732 96.9311 28.0028 95.202 28 93.0681V85.7319C27.992 82.5564 29.68 79.6182 32.4273 78.0257C37.7987 74.9381 42.2131 72.6543 48.35 72.6543H58.238C60.9896 72.6573 63.6516 73.6335 65.7528 75.4102L74.8242 83.0908C74.9909 83.2327 75.1808 83.3449 75.3856 83.4226C80.119 85.2853 84.6356 86.5484 84.6356 86.5484C85.8306 86.9069 86.6595 87.9933 86.6897 89.2405Z" fill="#FB7333"/>
<path d="M86.6899 89.2422V91.7939H82.8623C82.1576 91.7939 81.5864 91.2227 81.5864 90.518C81.5864 89.8134 82.1576 89.2422 82.8623 89.2422H86.6899Z" fill="#F3D55B"/>
<path d="M33.4478 84.1371H68.164L62.4481 79.3016C61.2719 78.3044 59.7798 77.7573 58.2378 77.7578H48.3498C43.4888 77.7578 39.8909 79.6206 34.966 82.453C34.2975 82.8433 33.7669 83.4319 33.4478 84.1371Z" fill="#84B5CB"/>
<path d="M49.6894 85.4135C48.9848 85.4135 48.4136 84.8422 48.4136 84.1376V77.7583C48.4136 77.0536 48.9848 76.4824 49.6894 76.4824C50.3941 76.4824 50.9653 77.0536 50.9653 77.7583V84.1376C50.9653 84.8422 50.3941 85.4135 49.6894 85.4135Z" fill="white"/>
<path d="M56.0693 90.5166H50.9658C50.2612 90.5166 49.6899 89.9453 49.6899 89.2407C49.6899 88.5361 50.2612 87.9648 50.9658 87.9648H56.0693C56.7739 87.9648 57.3451 88.5361 57.3451 89.2407C57.3451 89.9453 56.7739 90.5166 56.0693 90.5166Z" fill="#802F34"/>
<path d="M38.207 102C41.0255 102 43.3104 99.715 43.3104 96.8964C43.3104 94.0779 41.0255 91.793 38.207 91.793C35.3884 91.793 33.1035 94.0779 33.1035 96.8964C33.1035 99.715 35.3884 102 38.207 102Z" fill="#464F5D"/>
<path d="M73.9311 102C76.7496 102 79.0345 99.715 79.0345 96.8964C79.0345 94.0779 76.7496 91.793 73.9311 91.793C71.1125 91.793 68.8276 94.0779 68.8276 96.8964C68.8276 99.715 71.1125 102 73.9311 102Z" fill="#464F5D"/>
<path d="M38.207 99.4492C39.6163 99.4492 40.7587 98.3067 40.7587 96.8974C40.7587 95.4881 39.6163 94.3457 38.207 94.3457C36.7977 94.3457 35.6553 95.4881 35.6553 96.8974C35.6553 98.3067 36.7977 99.4492 38.207 99.4492Z" fill="#ECF0F1"/>
<path d="M73.9311 99.4492C75.3404 99.4492 76.4828 98.3067 76.4828 96.8974C76.4828 95.4881 75.3404 94.3457 73.9311 94.3457C72.5218 94.3457 71.3794 95.4881 71.3794 96.8974C71.3794 98.3067 72.5218 99.4492 73.9311 99.4492Z" fill="#ECF0F1"/>
</g>
<defs>
<clipPath id="clip0">
<rect width="74" height="74" fill="white" transform="translate(28 28)"/>
</clipPath>
</defs>
</svg>
