<svg width="20" height="20" viewBox="0 0 20 20" fill="none" xmlns="http://www.w3.org/2000/svg">
<path fill-rule="evenodd" clip-rule="evenodd" d="M9.9999 19.6004C15.3018 19.6004 19.5999 15.3023 19.5999 10.0004C19.5999 4.69846 15.3018 0.400391 9.9999 0.400391C4.69797 0.400391 0.399902 4.69846 0.399902 10.0004C0.399902 15.3023 4.69797 19.6004 9.9999 19.6004ZM11.5142 12.9225L11.8528 12.4146C12.1049 12.0365 12.6159 11.9343 12.994 12.1864L14.4329 13.1457C14.7629 13.3657 14.889 13.7899 14.7328 14.1545L14.5473 14.5872C14.4064 14.916 14.1536 15.1841 13.8337 15.344C13.5665 15.4777 13.285 15.5812 12.9866 15.5953C12.046 15.6395 9.72869 15.4333 7.1475 12.8521C4.56631 10.2709 4.36006 7.95357 4.40428 7.01298C4.41832 6.71452 4.52189 6.43309 4.65551 6.16583C4.81545 5.84595 5.0836 5.59311 5.41232 5.45223L5.84505 5.26678C6.20966 5.11052 6.63386 5.23662 6.8539 5.56668L7.81315 7.00557C8.06525 7.38371 7.96307 7.89462 7.58492 8.14672L7.07702 8.48532C6.97564 8.55291 6.88914 8.64229 6.85801 8.76009C6.75606 9.14594 6.71003 10.1703 8.26963 11.7299C9.82923 13.2895 10.8536 13.2435 11.2395 13.1415C11.3573 13.1104 11.4467 13.0239 11.5142 12.9225ZM9.09965 4.39988C9.09965 3.90283 9.50259 3.49988 9.99965 3.49988C13.5895 3.49988 16.4996 6.41003 16.4996 9.99988C16.4996 10.4969 16.0967 10.8999 15.5996 10.8999C15.1026 10.8999 14.6996 10.4969 14.6996 9.99988C14.6996 7.40414 12.5954 5.29988 9.99965 5.29988C9.50259 5.29988 9.09965 4.89694 9.09965 4.39988ZM9.9995 5.89977C9.50245 5.89977 9.0995 6.30271 9.0995 6.79977C9.0995 7.29682 9.50245 7.69977 9.9995 7.69977C11.2698 7.69977 12.2995 8.72951 12.2995 9.99977C12.2995 10.4968 12.7024 10.8998 13.1995 10.8998C13.6966 10.8998 14.0995 10.4968 14.0995 9.99977C14.0995 7.7354 12.2639 5.89977 9.9995 5.89977Z" fill="#F5F7FA"/>
</svg>
