<svg width="21" height="21" viewBox="0 0 21 21" fill="none" xmlns="http://www.w3.org/2000/svg">
<path d="M20.6699 10.3633C20.6699 9.05006 20.4113 7.7497 19.9087 6.53645C19.4062 5.32319 18.6696 4.2208 17.741 3.29221C16.8124 2.36363 15.71 1.62703 14.4968 1.12449C13.2835 0.621939 11.9831 0.363281 10.6699 0.363281C8.01776 0.363281 5.47422 1.41685 3.59885 3.29221C1.72349 5.16758 0.669922 7.71112 0.669922 10.3633C0.669922 13.0154 1.72349 15.559 3.59885 17.4343C5.47422 19.3097 8.01776 20.3633 10.6699 20.3633C13.3221 20.3633 15.8656 19.3097 17.741 17.4343C19.6164 15.559 20.6699 13.0154 20.6699 10.3633ZM18.5999 9.36328H15.6699C15.505 7.01142 14.6992 4.74963 13.3399 2.82328C14.7364 3.31925 15.9676 4.19335 16.8964 5.34812C17.8252 6.5029 18.4149 7.89295 18.5999 9.36328ZM7.74992 11.3633H13.6699C13.414 13.8339 12.361 16.154 10.6699 17.9733C8.97999 16.1616 7.95111 13.8326 7.74992 11.3633ZM7.74992 9.36328C7.98281 6.90511 9.00751 4.589 10.6699 2.76328C12.3746 4.5694 13.4301 6.89132 13.6699 9.36328H7.74992ZM8.10992 2.79328C6.74347 4.7303 5.92472 7 5.73992 9.36328H2.73992C2.92883 7.87478 3.53253 6.4694 4.48209 5.30765C5.43165 4.1459 6.68878 3.27461 8.10992 2.79328ZM2.73992 11.3633H5.73992C5.90461 13.7245 6.7178 15.9946 8.08992 17.9233C6.6739 17.4396 5.42191 16.5685 4.47619 15.4089C3.53047 14.2493 2.92894 12.8476 2.73992 11.3633ZM13.2899 17.9133C14.6583 15.984 15.4806 13.721 15.6699 11.3633H18.6199C18.4308 12.8435 17.8314 14.2414 16.8896 15.3988C15.9477 16.5563 14.7008 17.4273 13.2899 17.9133Z" fill="white"/>
</svg>
