<svg width="184" height="63" viewBox="0 0 184 63" fill="none" xmlns="http://www.w3.org/2000/svg">
<path d="M13.8311 30.0676H7.46811L6.18436 38.4648H0.267914L6.74251 0.541758H14.6683L21.1429 38.4648H15.1148L13.8311 30.0676ZM13.0497 24.5417L10.6496 8.66813L8.24953 24.5417H13.0497Z" fill="white"/>
<path d="M34.4213 39.0066C31.6678 39.0066 29.4351 38.1759 27.7235 36.5145C26.0118 34.8531 25.156 32.6861 25.156 30.0134V8.99319C25.156 6.32051 26.0118 4.15348 27.7235 2.49209C29.4351 0.830696 31.6678 0 34.4213 0C37.1749 0 39.4075 0.830696 41.1192 2.49209C42.8309 4.15348 43.6867 6.32051 43.6867 8.99319V13.4356H37.8819V8.99319C37.8819 7.90967 37.5656 7.04286 36.933 6.39275C36.3004 5.74264 35.4818 5.41758 34.4771 5.41758C33.4725 5.41758 32.6538 5.74264 32.0213 6.39275C31.3887 7.04286 31.0724 7.90967 31.0724 8.99319V30.0134C31.0724 31.0969 31.3887 31.9637 32.0213 32.6139C32.6538 33.264 33.4725 33.589 34.4771 33.589C35.4818 33.589 36.3004 33.264 36.933 32.6139C37.5656 31.9637 37.8819 31.0969 37.8819 30.0134V24.5958H43.6867V30.0134C43.6867 32.6861 42.8309 34.8531 41.1192 36.5145C39.4075 38.1759 37.1749 39.0066 34.4213 39.0066Z" fill="white"/>
<path d="M75.9995 0.541758V38.4648H70.0831V12.4604L64.5573 38.4648H60.427L54.9012 12.4604V38.4648H49.0964V0.541758H57.4688L62.6038 24.7584L67.5155 0.541758H75.9995Z" fill="white"/>
<path d="M82.4549 0.541758H99.2554V5.95934H88.3713V16.5236H97.0227V21.9412H88.3713V33.0473H99.2554V38.4648H82.4549V0.541758Z" fill="white"/>
<path d="M115.377 0.541758H121.294V38.4648H115.377V0.541758Z" fill="white"/>
<path d="M127.75 0.541758H134.281L141.816 26.0044V0.541758H147.621V38.4648H141.369L133.555 14.1941V38.4648H127.75V0.541758Z" fill="white"/>
<path d="M162.841 39.0066C160.087 39.0066 157.854 38.1759 156.143 36.5145C154.431 34.8531 153.575 32.6861 153.575 30.0134V8.99319C153.575 6.32051 154.431 4.15348 156.143 2.49209C157.854 0.830696 160.087 0 162.841 0C165.594 0 167.827 0.830696 169.538 2.49209C171.25 4.15348 172.106 6.32051 172.106 8.99319V13.4356H166.301V8.99319C166.301 7.90967 165.985 7.04286 165.352 6.39275C164.72 5.74264 163.901 5.41758 162.896 5.41758C161.892 5.41758 161.073 5.74264 160.44 6.39275C159.808 7.04286 159.492 7.90967 159.492 8.99319V30.0134C159.492 31.0969 159.808 31.9637 160.44 32.6139C161.073 33.264 161.892 33.589 162.896 33.589C163.901 33.589 164.72 33.264 165.352 32.6139C165.985 31.9637 166.301 31.0969 166.301 30.0134V24.5958H172.106V30.0134C172.106 32.6861 171.25 34.8531 169.538 36.5145C167.827 38.1759 165.594 39.0066 162.841 39.0066Z" fill="white"/>
<path d="M177.906 32.7764H183.823V38.4648H177.906V32.7764Z" fill="white"/>
<path d="M0 44.6409V62.844H1.23241V55.3547H3.56326C6.53711 55.3547 7.90347 53.9245 7.90347 51.038V49.0616C7.90347 46.4092 6.77823 44.6409 3.88476 44.6409H0ZM1.23241 54.2625V45.7331H3.88476C5.97449 45.7331 6.67107 47.0073 6.67107 48.9836V51.116C6.67107 53.3264 5.73337 54.2625 3.56326 54.2625H1.23241Z" fill="white"/>
<path d="M18.5721 58.3972C18.5721 61.0497 19.8313 63 22.6712 63C25.5647 63 26.8239 61.0497 26.8239 58.3972V49.0876C26.8239 46.4352 25.5647 44.4849 22.6712 44.4849C19.8313 44.4849 18.5721 46.4352 18.5721 49.0876V58.3972ZM19.8045 49.0096C19.8045 47.0333 20.6083 45.577 22.6712 45.577C24.7609 45.577 25.5915 47.0333 25.5915 49.0096V58.4752C25.5915 60.4516 24.7609 61.9078 22.6712 61.9078C20.6083 61.9078 19.8045 60.4516 19.8045 58.4752V49.0096Z" fill="white"/>
<path d="M44.8239 47.9434L47.3423 62.844H48.9498L51.9505 44.6409H50.852L48.1461 61.1797L45.5205 44.7189H44.2077L41.475 61.2317L38.6619 44.6409H37.4563L40.4837 62.844H42.1984L44.8239 47.9434Z" fill="white"/>
<path d="M63.9139 53.0663V45.7331H70.0759V44.6409H62.6815V62.844H70.0759V61.7518H63.9139V54.1585H69.0311V53.0663H63.9139Z" fill="white"/>
<path d="M80.9154 44.6409V62.844H82.1478V54.7046H84.1035C86.2469 54.7046 87.6132 55.3807 87.6132 57.7991V60.6596C87.6132 61.6478 87.6936 62.2979 88.0151 62.844H89.3011C88.8992 62.2459 88.8456 61.4137 88.8456 60.6596V57.8251C88.8456 55.8488 88.0687 54.5226 86.1397 54.1065C87.9883 53.6904 88.8456 52.4682 88.8456 50.3359V48.7496C88.8456 46.1751 87.6936 44.6409 84.8269 44.6409H80.9154ZM82.1478 53.6124V45.7331H84.8001C86.8363 45.7331 87.6132 46.9033 87.6132 48.8536V50.5699C87.6132 53.0143 86.3272 53.6124 84.1303 53.6124H82.1478Z" fill="white"/>
<path d="M104.003 44.4849C101.243 44.5109 100.011 46.2792 100.011 49.0096C100.011 54.0805 106.789 54.1585 106.789 58.5272C106.789 60.4776 106.012 61.8818 103.949 61.8818C101.886 61.8818 101.109 60.4776 101.109 58.5272V57.5131H99.9304V58.4492C99.9304 61.0757 101.109 63 103.976 63C106.843 63 108.021 61.0757 108.021 58.4492C108.021 53.4304 101.243 53.3524 101.243 48.9316C101.243 47.0073 101.993 45.577 104.029 45.577C106.066 45.577 106.816 47.0333 106.816 48.9576V49.4257H107.995V49.0356C107.995 46.4092 106.843 44.4849 104.003 44.4849Z" fill="white"/>
<path d="M118.848 44.6409V62.844H120.081V55.3547H122.412C125.385 55.3547 126.752 53.9245 126.752 51.038V49.0616C126.752 46.4092 125.626 44.6409 122.733 44.6409H118.848ZM120.081 54.2625V45.7331H122.733C124.823 45.7331 125.519 47.0073 125.519 48.9836V51.116C125.519 53.3264 124.582 54.2625 122.412 54.2625H120.081Z" fill="white"/>
<path d="M137.42 58.3972C137.42 61.0497 138.68 63 141.519 63C144.413 63 145.672 61.0497 145.672 58.3972V49.0876C145.672 46.4352 144.413 44.4849 141.519 44.4849C138.68 44.4849 137.42 46.4352 137.42 49.0876V58.3972ZM138.653 49.0096C138.653 47.0333 139.457 45.577 141.519 45.577C143.609 45.577 144.44 47.0333 144.44 49.0096V58.4752C144.44 60.4516 143.609 61.9078 141.519 61.9078C139.457 61.9078 138.653 60.4516 138.653 58.4752V49.0096Z" fill="white"/>
<path d="M156.546 44.6409V62.844H157.778V54.7046H159.734C161.877 54.7046 163.244 55.3807 163.244 57.7991V60.6596C163.244 61.6478 163.324 62.2979 163.645 62.844H164.931C164.53 62.2459 164.476 61.4137 164.476 60.6596V57.8251C164.476 55.8488 163.699 54.5226 161.77 54.1065C163.619 53.6904 164.476 52.4682 164.476 50.3359V48.7496C164.476 46.1751 163.324 44.6409 160.457 44.6409H156.546ZM157.778 53.6124V45.7331H160.43C162.467 45.7331 163.244 46.9033 163.244 48.8536V50.5699C163.244 53.0143 161.958 53.6124 159.761 53.6124H157.778Z" fill="white"/>
<path d="M180.196 62.844V45.7331H184V44.6409H175.132V45.7331H178.963V62.844H180.196Z" fill="white"/>
</svg>
