<svg width="14" height="18" viewBox="0 0 14 18" fill="none" xmlns="http://www.w3.org/2000/svg">
<path fill-rule="evenodd" clip-rule="evenodd" d="M7.56169 17.5668C9.22384 16.2295 13.9995 11.9559 13.9995 7C13.9995 3.13401 10.8655 0 6.99951 0C3.13352 0 -0.000488281 3.13401 -0.000488281 7C-0.000488281 11.9559 4.77518 16.2295 6.43733 17.5668C6.77024 17.8347 7.22878 17.8347 7.56169 17.5668ZM6.99964 10.0005C8.6565 10.0005 9.99964 8.65734 9.99964 7.00049C9.99964 5.34363 8.6565 4.00049 6.99964 4.00049C5.34279 4.00049 3.99964 5.34363 3.99964 7.00049C3.99964 8.65734 5.34279 10.0005 6.99964 10.0005Z" fill="#F5F7FA"/>
</svg>
