<svg width="16" height="13" viewBox="0 0 16 13" fill="none" xmlns="http://www.w3.org/2000/svg">
<path d="M1.53519 3.87693C1.73759 4.01976 2.34769 4.44394 3.36553 5.14927C4.38339 5.85459 5.16315 6.39768 5.70482 6.77855C5.76434 6.8203 5.89077 6.91105 6.08419 7.05093C6.27765 7.19091 6.43839 7.30402 6.5663 7.39031C6.69429 7.47656 6.84903 7.57331 7.03066 7.68042C7.21223 7.78744 7.38339 7.86793 7.5441 7.92122C7.70484 7.97495 7.85364 8.00156 7.99052 8.00156H7.9995H8.0085C8.14538 8.00156 8.29424 7.97492 8.45498 7.92122C8.61563 7.86793 8.78694 7.78734 8.96836 7.68042C9.14987 7.57319 9.3046 7.47652 9.4326 7.39031C9.5606 7.30402 9.72122 7.19091 9.91473 7.05093C10.1081 6.91092 10.2347 6.8203 10.2942 6.77855C10.8418 6.39768 12.2347 5.43038 14.4727 3.87675C14.9072 3.57331 15.2703 3.20716 15.5619 2.77857C15.8537 2.35016 15.9995 1.90074 15.9995 1.43056C15.9995 1.03765 15.858 0.701306 15.5753 0.421571C15.2925 0.141774 14.9577 0.00195312 14.5709 0.00195312H1.42802C0.969718 0.00195312 0.617024 0.156691 0.37 0.466166C0.123008 0.775705 -0.000488281 1.16261 -0.000488281 1.62686C-0.000488281 2.00185 0.163256 2.40821 0.490588 2.84568C0.817889 3.28319 1.16621 3.62697 1.53519 3.87693Z" fill="white"/>
<path d="M15.1065 4.83144C13.1543 6.15275 11.672 7.17962 10.6602 7.91184C10.321 8.16174 10.0457 8.35682 9.83436 8.49661C9.62299 8.63649 9.34188 8.77935 8.99062 8.92511C8.63949 9.07109 8.31225 9.14386 8.00863 9.14386H7.99953H7.99055C7.68699 9.14386 7.35956 9.07109 7.00843 8.92511C6.6573 8.77935 6.376 8.63649 6.16469 8.49661C5.95344 8.35682 5.67812 8.16174 5.33887 7.91184C4.53525 7.3226 3.05611 6.29566 0.901387 4.83144C0.562015 4.6054 0.261421 4.34631 -0.000488281 4.05469V11.1438C-0.000488281 11.5369 0.139332 11.873 0.41913 12.1528C0.698865 12.4326 1.03523 12.5725 1.42811 12.5725H14.571C14.9638 12.5725 15.3001 12.4326 15.5799 12.1528C15.8598 11.8729 15.9995 11.5369 15.9995 11.1438V4.05469C15.7435 4.34027 15.446 4.59937 15.1065 4.83144Z" fill="white"/>
</svg>
