<svg width="15" height="11" viewBox="0 0 15 11" fill="none" xmlns="http://www.w3.org/2000/svg">
<mask id="path-1-inside-1" fill="white">
<path d="M4.99997 8.58597L2.41397 5.99997C2.0235 5.6095 1.39043 5.6095 0.999969 5.99997C0.609503 6.39043 0.609503 7.0235 0.999969 7.41397L4.29286 10.7069C4.68339 11.0974 5.31655 11.0974 5.70708 10.7069L14 2.41397C14.3904 2.0235 14.3904 1.39043 14 0.999968C13.6095 0.609503 12.9764 0.609503 12.586 0.999969L4.99997 8.58597Z"/>
</mask>
<path d="M4.99997 8.58597L2.41397 5.99997C2.0235 5.6095 1.39043 5.6095 0.999969 5.99997C0.609503 6.39043 0.609503 7.0235 0.999969 7.41397L4.29286 10.7069C4.68339 11.0974 5.31655 11.0974 5.70708 10.7069L14 2.41397C14.3904 2.0235 14.3904 1.39043 14 0.999968C13.6095 0.609503 12.9764 0.609503 12.586 0.999969L4.99997 8.58597Z" fill="white"/>
<path d="M4.99997 8.58597L3.58575 10.0002L4.99997 11.4144L6.41418 10.0002L4.99997 8.58597ZM14 2.41397L12.5858 0.999755L14 2.41397ZM4.29286 10.7069L2.87865 12.1211L4.29286 10.7069ZM5.70708 10.7069L4.29286 9.29265L5.70708 10.7069ZM2.41397 5.99997L0.999754 7.41418L2.41397 5.99997ZM6.41418 7.17176L3.82818 4.58575L0.999754 7.41418L3.58575 10.0002L6.41418 7.17176ZM-0.414245 8.82818L2.87865 12.1211L5.70708 9.29265L2.41418 5.99975L-0.414245 8.82818ZM7.12129 12.1211L15.4142 3.82818L12.5858 0.999755L4.29286 9.29265L7.12129 12.1211ZM11.1718 -0.414245L3.58575 7.17176L6.41418 10.0002L14.0002 2.41418L11.1718 -0.414245ZM15.4142 -0.414246C14.2427 -1.58576 12.3433 -1.58576 11.1718 -0.414245L14.0002 2.41418C13.6096 2.80476 12.9763 2.80477 12.5858 2.41418L15.4142 -0.414246ZM15.4142 3.82818C16.5857 2.65667 16.5857 0.757266 15.4142 -0.414246L12.5858 2.41418C12.1952 2.0236 12.1952 1.39034 12.5858 0.999755L15.4142 3.82818ZM2.87865 12.1211C4.05022 13.2926 5.94972 13.2926 7.12129 12.1211L4.29286 9.29265C4.68338 8.90213 5.31655 8.90212 5.70708 9.29265L2.87865 12.1211ZM-0.414245 4.58575C-1.58576 5.75727 -1.58576 7.65667 -0.414245 8.82818L2.41418 5.99975C2.80476 6.39034 2.80477 7.0236 2.41418 7.41418L-0.414245 4.58575ZM3.82818 4.58575C2.65667 3.41424 0.757267 3.41424 -0.414245 4.58575L2.41418 7.41418C2.0236 7.80476 1.39034 7.80477 0.999754 7.41418L3.82818 4.58575Z" fill="white" mask="url(#path-1-inside-1)"/>
</svg>
