<svg width="124" height="34" viewBox="0 0 124 34" fill="none" xmlns="http://www.w3.org/2000/svg">
<path d="M41.134 20H42.646V15.884H47.322V14.54H42.646V11.544H47.742V10.2H41.134V20ZM49.4836 20H50.9116V13.056H49.4836V20ZM49.3856 11.95H51.0096V10.34H49.3856V11.95ZM59.0769 15.282C59.0769 13.714 58.0129 12.86 56.6549 12.86C55.6469 12.86 54.7789 13.392 54.2889 14.218V13.056H52.8609V20H54.2889V16.332C54.2889 15.03 55.1149 14.176 56.1089 14.176C57.1029 14.176 57.6489 14.75 57.6489 15.702V20H59.0769V15.282ZM67.0743 20C66.7523 19.482 66.6543 19.062 66.6543 18.264V15.212C66.6543 13.7 65.6743 12.86 63.7703 12.86C62.0203 12.86 60.9703 13.84 60.9703 14.918C60.9703 15.114 61.0123 15.296 61.0823 15.478L62.3563 15.044C62.3143 14.932 62.3283 14.904 62.3283 14.834C62.3283 14.344 62.7763 13.924 63.7703 13.924C64.7363 13.924 65.2263 14.33 65.2263 15.128V15.422L63.0283 15.772C61.6983 15.996 60.5783 16.64 60.5783 18.054C60.5783 19.328 61.5443 20.196 62.9443 20.196C63.9663 20.196 64.8063 19.72 65.2543 18.782C65.2963 19.44 65.4783 19.79 65.6463 20H67.0743ZM63.1683 19.006C62.4543 19.006 62.0063 18.6 62.0063 17.97C62.0063 17.312 62.4683 16.948 63.3503 16.794L65.2263 16.472V16.668C65.2263 18.012 64.4143 19.006 63.1683 19.006ZM74.6628 15.282C74.6628 13.714 73.5988 12.86 72.2408 12.86C71.2328 12.86 70.3648 13.392 69.8748 14.218V13.056H68.4468V20H69.8748V16.332C69.8748 15.03 70.7008 14.176 71.6948 14.176C72.6888 14.176 73.2348 14.75 73.2348 15.702V20H74.6628V15.282ZM81.8042 17.48C81.3422 18.362 80.7822 18.88 79.7322 18.88C78.5002 18.88 77.5762 17.998 77.5762 16.528C77.5762 15.058 78.5422 14.176 79.7322 14.176C80.5162 14.176 81.2162 14.484 81.7202 15.506L82.8542 14.75C82.3642 13.574 81.2442 12.86 79.7182 12.86C77.7722 12.86 76.1202 14.344 76.1202 16.528C76.1202 18.712 77.7022 20.196 79.7182 20.196C81.1742 20.196 82.2522 19.496 82.9102 18.194L81.8042 17.48ZM90.7748 16.836V16.332C90.7748 14.316 89.4168 12.86 87.4148 12.86C85.4408 12.86 83.8448 14.344 83.8448 16.528C83.8448 18.712 85.4408 20.196 87.3448 20.196C88.9268 20.196 89.9068 19.51 90.5648 18.166L89.4588 17.508C89.0528 18.334 88.5208 18.95 87.3868 18.95C86.1688 18.95 85.3148 18.068 85.2728 16.836H90.7748ZM87.3868 14.008C88.3388 14.008 89.3048 14.61 89.4168 15.744H85.2728C85.5248 14.75 86.3368 14.008 87.3868 14.008ZM95.4727 11.572H98.4967V20H100.009V11.572H103.033V10.2H95.4727V11.572ZM110.567 15.31C110.567 13.714 109.447 12.86 108.103 12.86C107.095 12.86 106.213 13.392 105.695 14.218V10.2H104.267V20H105.695V16.332C105.695 15.03 106.577 14.176 107.599 14.176C108.551 14.176 109.139 14.736 109.139 15.744V20H110.567V15.31ZM118.563 20C118.241 19.482 118.143 19.062 118.143 18.264V15.212C118.143 13.7 117.163 12.86 115.259 12.86C113.509 12.86 112.459 13.84 112.459 14.918C112.459 15.114 112.501 15.296 112.571 15.478L113.845 15.044C113.803 14.932 113.817 14.904 113.817 14.834C113.817 14.344 114.265 13.924 115.259 13.924C116.225 13.924 116.715 14.33 116.715 15.128V15.422L114.517 15.772C113.187 15.996 112.067 16.64 112.067 18.054C112.067 19.328 113.033 20.196 114.433 20.196C115.455 20.196 116.295 19.72 116.743 18.782C116.785 19.44 116.967 19.79 117.135 20H118.563ZM114.657 19.006C113.943 19.006 113.495 18.6 113.495 17.97C113.495 17.312 113.957 16.948 114.839 16.794L116.715 16.472V16.668C116.715 18.012 115.903 19.006 114.657 19.006ZM119.224 14.204H120.344V18.138C120.344 19.72 121.268 20.196 122.332 20.196C122.738 20.196 123.102 20.126 123.368 20.028L123.242 18.824C123.088 18.866 122.878 18.908 122.724 18.908C122.052 18.908 121.772 18.572 121.772 17.886V14.204H123.326V13.056H121.772V11.18H120.344V13.056H119.224V14.204Z" fill="#5B5B5C"/>
<path d="M17 34C26.3888 34 34 26.3888 34 17C34 7.61116 26.3888 0 17 0C7.61116 0 0 7.61116 0 17C0 26.3888 7.61116 34 17 34Z" fill="url(#paint0_linear)"/>
<path d="M8.51953 17.6449L25.475 9.07812L21.2473 23.408L8.51953 17.6449L25.475 9.07812Z" fill="white"/>
<path d="M15.2631 20.6719L16.4874 21.2504L14.7734 23.7203L15.2631 20.6719Z" fill="#A97C57"/>
<path d="M13.168 19.7385L25.3617 9.19141L15.2596 20.6731L14.7701 23.7215L13.168 19.7385Z" fill="#E9DDD4"/>
<defs>
<linearGradient id="paint0_linear" x1="5.95376" y1="26.864" x2="31.3073" y2="4.21526" gradientUnits="userSpaceOnUse">
<stop stop-color="#E32738"/>
<stop offset="0.0549275" stop-color="#E72D30"/>
<stop offset="0.23" stop-color="#F03E1B"/>
<stop offset="0.425" stop-color="#F6490C"/>
<stop offset="0.654" stop-color="#FA5003"/>
<stop offset="1" stop-color="#FB5200"/>
</linearGradient>
</defs>
</svg>
