<?xml version="1.0" encoding="utf-8"?>
<!-- Generator: Adobe Illustrator 25.0.0, SVG Export Plug-In . SVG Version: 6.00 Build 0)  -->
<svg version="1.1" id="Layer_1" xmlns="http://www.w3.org/2000/svg" xmlns:xlink="http://www.w3.org/1999/xlink" x="0px" y="0px"
	 viewBox="0 0 415 256" style="enable-background:new 0 0 415 256;" xml:space="preserve">
<style type="text/css">
	.st0{fill:#FFFFFF;}
	.st1{fill:#DEDFE0;}
	.st2{fill:none;stroke:#3F2355;stroke-width:4;stroke-linecap:round;stroke-linejoin:round;stroke-miterlimit:10;}
	.st3{fill:none;stroke:#3F2355;stroke-width:3;stroke-linecap:round;stroke-linejoin:round;stroke-miterlimit:10;}
	.st4{fill:none;stroke:#3F2355;stroke-width:2;stroke-linecap:round;stroke-linejoin:round;stroke-miterlimit:10;}
	.st5{fill-rule:evenodd;clip-rule:evenodd;fill:#3F2355;}
	.st6{fill:#3F2355;}
	.st7{fill:none;stroke:#3F2355;stroke-width:2;stroke-miterlimit:10;}
	.st8{fill:none;stroke:#3F2355;stroke-width:4;stroke-miterlimit:10;}
	.st9{fill:none;stroke:#3F2355;stroke-width:3;stroke-miterlimit:10;}
	.st10{fill:none;stroke:#000000;stroke-miterlimit:10;}
	.st11{fill:#3F2254;}
	.st12{fill:#DEDEDF;}
	.st13{fill:#EBECE6;}
</style>
<g>
	<ellipse class="st1" cx="206.26" cy="205.36" rx="127.65" ry="5.98"/>
	<g>
		<g>
			<g id="XMLID_18_">
				<g>
					<path class="st0" d="M321.18,161.32l-0.06,0.01h-11.07l7.37-8.94C319.29,154.99,320.61,158.03,321.18,161.32z"/>
					<path class="st0" d="M310.29,169h10.83c-0.59,3.18-1.88,6.12-3.72,8.64L310.29,169z"/>
					<path class="st0" d="M282.37,177.64c1.44,2.02,3.24,3.79,5.3,5.18c3.47,2.4,7.68,3.8,12.21,3.8c1.44,0,2.85-0.14,4.2-0.41
						c3.01-0.59,5.8-1.81,8.22-3.53c1.98-1.38,3.71-3.08,5.09-5.04c1.84-2.52,3.13-5.46,3.72-8.64c0.25-1.29,0.38-2.62,0.38-3.99
						c0-1.26-0.11-2.49-0.32-3.69c-0.56-3.29-1.88-6.33-3.77-8.93c-1.4-1.95-3.13-3.66-5.09-5.04c-2.55-1.8-5.52-3.07-8.72-3.62
						c-1.21-0.21-2.45-0.32-3.72-0.32s-2.51,0.11-3.72,0.32c-3.26,0.56-6.27,1.87-8.86,3.73c-1.97,1.4-3.68,3.13-5.07,5.11
						c-1.81,2.57-3.08,5.54-3.64,8.75c-0.21,1.2-0.32,2.44-0.32,3.69c0,1.36,0.13,2.69,0.38,3.99
						C279.24,172.18,280.53,175.12,282.37,177.64z M299.88,139.05c14.34,0,25.98,11.63,25.98,25.97c0,14.34-11.64,25.97-25.98,25.97
						c-14.34,0-25.97-11.63-25.97-25.97C273.91,150.67,285.53,139.05,299.88,139.05z"/>
					<path class="st0" d="M317.41,152.39l-7.37,8.94h-0.01h-0.42c-1.06-2.79-3.29-5.01-6.1-6.05l0.08-0.22l8.72-7.71
						C314.28,148.73,316.01,150.44,317.41,152.39z"/>
					<path class="st0" d="M312.31,147.35l-8.72,7.71v-11.33C306.8,144.28,309.76,145.55,312.31,147.35z"/>
					<path class="st0" d="M304.07,175.16l8.24,7.52c-2.42,1.72-5.21,2.94-8.22,3.53l-0.01-0.08V175.16z"/>
					<path class="st0" d="M310.29,169l7.11,8.64c-1.39,1.95-3.12,3.66-5.09,5.04l-8.24-7.52v-0.62c2.66-1.16,4.74-3.42,5.67-6.2
						L310.29,169z"/>
					<path class="st0" d="M310.04,161.33h11.07l0.06-0.01c0.21,1.2,0.32,2.44,0.32,3.69c0,1.36-0.13,2.69-0.38,3.99h-10.83
						l-0.55-0.67c0.35-1.05,0.54-2.15,0.54-3.32c0-1.16-0.19-2.27-0.54-3.32l0.29-0.36H310.04z"/>
					<path class="st0" d="M309.61,161.33c0.05,0.12,0.09,0.25,0.13,0.36c0.35,1.05,0.54,2.15,0.54,3.32c0,1.16-0.19,2.27-0.54,3.32
						c-0.93,2.78-3.01,5.04-5.67,6.2c-1.28,0.56-2.69,0.88-4.19,0.88c-1.31,0-2.57-0.25-3.72-0.69c-2.66-1.01-4.79-3.09-5.88-5.72
						c-0.04-0.09-0.07-0.19-0.11-0.28c-0.45-1.15-0.68-2.4-0.68-3.71c0-1.29,0.24-2.54,0.67-3.68h0.01
						c1.04-2.77,3.22-4.97,5.99-6.02c0.24-0.09,0.48-0.18,0.73-0.25c0.95-0.28,1.95-0.44,2.99-0.44c1.28,0,2.51,0.24,3.64,0.66
						C306.31,156.32,308.55,158.54,309.61,161.33z"/>
					<path class="st0" d="M304.07,175.16v10.97l0.01,0.08c-1.35,0.27-2.77,0.41-4.2,0.41c-4.53,0-8.74-1.4-12.21-3.8l8.5-8.08v-0.01
						c1.15,0.45,2.41,0.69,3.72,0.69c1.49,0,2.91-0.32,4.19-0.88V175.16z"/>
					<path class="st0" d="M303.6,143.73v11.33l-0.08,0.22c-1.13-0.42-2.35-0.66-3.64-0.66c-1.04,0-2.04,0.15-2.99,0.44l-0.73-0.58
						v-10.75c1.21-0.21,2.45-0.32,3.72-0.32S302.38,143.52,303.6,143.73z"/>
					<path class="st0" d="M296.16,174.72v0.01l-8.5,8.08c-2.06-1.39-3.86-3.15-5.3-5.18l7.55-8.64h0.35
						C291.37,171.63,293.5,173.71,296.16,174.72z"/>
					<path class="st0" d="M296.16,154.48v0.82c-2.77,1.06-4.95,3.26-5.99,6.02l-7.94-8.77c1.39-1.98,3.11-3.71,5.07-5.11
						L296.16,154.48z"/>
					<path class="st0" d="M296.16,143.73v10.75l-8.86-7.02C289.89,145.6,292.9,144.29,296.16,143.73z"/>
					<path class="st0" d="M290.17,168.72l-0.25,0.28h-11.26h-0.01c-0.25-1.29-0.38-2.62-0.38-3.99c0-1.26,0.11-2.49,0.32-3.69
						l0.07,0.01h11.5c-0.44,1.14-0.67,2.39-0.67,3.68C289.49,166.32,289.72,167.57,290.17,168.72z"/>
					<path class="st0" d="M282.23,152.57l7.94,8.77h-0.01h-11.5l-0.07-0.01C279.14,158.11,280.42,155.13,282.23,152.57z"/>
					<path class="st0" d="M289.92,169l-7.55,8.64c-1.84-2.52-3.13-5.46-3.72-8.64h0.01H289.92z"/>
					<path class="st1" d="M332.25,181.89c-0.08,0.2-0.22,0.46-0.42,0.79l-0.69,1.15c-0.07,0.11-0.15,0.16-0.24,0.15
						c0,0-0.67-0.28-1.34-0.56c-0.14-0.06-0.29-0.13-0.44-0.19l-0.44-0.19l-0.58,0.96c0,0-0.24,0.32-0.59,0.8l-0.08,0.12l0.09,0.09
						c0.08,0.08,0.16,0.16,0.26,0.26c0.11,0.09,0.21,0.2,0.32,0.31c0.51,0.51,1.02,1.04,1.02,1.05c0.02,0.02,0.04,0.14-0.05,0.26
						l-0.81,1.07c-0.24,0.31-0.42,0.54-0.59,0.71c-0.15,0.19-0.27,0.31-0.27,0.31c-0.07,0.08-0.19,0.14-0.26,0.09l-1.24-0.78
						l-0.74-0.49l-0.09,0.05c-0.04,0.02-0.06,0.05-0.09,0.07c-0.38,0.42-0.62,0.69-0.62,0.69c-0.01,0-0.26,0.27-0.65,0.68
						l-0.16,0.09l0.11,0.15c0.14,0.2,0.31,0.42,0.46,0.65l0.84,1.2c0.02,0.04,0,0.16-0.09,0.25l-2.02,1.79
						c-0.08,0.07-0.24,0.07-0.27,0.05c0,0-0.53-0.51-1.07-1l-0.25-0.22c-0.12-0.12-0.24-0.22-0.34-0.32l-0.08-0.08l-0.11,0.06
						c-0.01,0-0.04,0.01-0.07,0.05l-0.76,0.55c0,0-0.29,0.21-0.78,0.56l-0.14,0.07l0.41,0.87c0.29,0.66,0.6,1.33,0.6,1.33
						c0.02,0.06-0.01,0.18-0.12,0.25l-2.32,1.38c-0.09,0.06-0.24,0.05-0.26,0l-0.88-1.14c-0.09-0.13-0.19-0.25-0.27-0.36l-0.21-0.27
						l-0.09-0.09l-0.12,0.05c-0.01,0.01-0.04,0.01-0.07,0.04c-0.49,0.22-0.82,0.38-0.82,0.38l-0.84,0.4l-0.19,0.09l0.04,0.13
						c0.06,0.24,0.13,0.49,0.21,0.76l0.36,1.41c0.01,0.06-0.05,0.16-0.18,0.22c0,0-0.6,0.29-1.22,0.51
						c-0.65,0.22-1.28,0.44-1.29,0.45c-0.09,0.04-0.22,0.01-0.25-0.04c0,0-0.33-0.65-0.67-1.29l-0.15-0.32
						c-0.07-0.13-0.14-0.27-0.2-0.39l-0.05-0.09h-0.09c-0.04,0-0.07,0.01-0.08,0.01l-0.15,0.05c-0.21,0.08-0.39,0.14-0.52,0.18
						c-0.14,0.04-0.24,0.06-0.25,0.06c0,0-0.4,0.11-0.95,0.24l-0.14,0.04l0.01,0.14c0.01,0.21,0.04,0.45,0.06,0.69v0.12
						c0.06,0.72,0.12,1.45,0.12,1.45c0.01,0.05-0.07,0.15-0.19,0.18l-1.31,0.31l-1.33,0.21c-0.14,0.02-0.25-0.05-0.26-0.09
						c0,0-0.21-0.69-0.44-1.38c-0.08-0.27-0.16-0.55-0.24-0.78l-0.04-0.14l-1.13,0.16c0,0-0.09,0.01-0.24,0.04
						c-0.11,0.01-0.24,0.01-0.4,0.02l-0.26,0.02c-0.02,0-0.05,0-0.07,0h-0.15l-0.01,0.15c-0.02,0.24-0.05,0.52-0.07,0.79l-0.14,1.46
						c0,0.05-0.09,0.12-0.22,0.13l-1.35,0.06c-0.35,0.04-0.71,0.02-0.94,0.02c-0.24-0.01-0.38-0.02-0.39-0.02
						c-0.13,0-0.22-0.09-0.22-0.13l-0.2-1.46c-0.02-0.15-0.04-0.32-0.06-0.47c-0.01-0.11-0.02-0.22-0.04-0.33l-0.02-0.14h-0.14
						h-0.06c-0.55-0.02-0.93-0.05-0.93-0.05s-0.38-0.01-0.91-0.04c-0.01-0.01-0.02-0.01-0.02-0.01l-0.18-0.08l-0.27,0.96
						c-0.19,0.71-0.38,1.4-0.38,1.4c-0.01,0.04-0.12,0.08-0.24,0.09l-2.67-0.4c-0.13-0.02-0.21-0.13-0.21-0.19
						c0,0,0.04-0.73,0.07-1.46c0.01-0.28,0.02-0.56,0.04-0.8v-0.11l-0.08-0.05c-0.06-0.02-0.11-0.04-0.11-0.02
						c-0.54-0.13-0.89-0.22-0.89-0.22s-0.38-0.09-0.92-0.22l-0.06-0.02l-0.14-0.01l-0.15,0.33c-0.07,0.15-0.15,0.34-0.24,0.51
						c-0.31,0.66-0.62,1.32-0.64,1.32c-0.01,0.06-0.13,0.11-0.25,0.06l-2.55-0.89c-0.12-0.05-0.19-0.15-0.18-0.19
						c0,0,0.16-0.71,0.32-1.41l0.19-0.79l0.07-0.19l-0.21-0.01l-0.05-0.01c-0.48-0.24-0.81-0.38-0.81-0.38s-0.34-0.16-0.85-0.41
						l-0.18-0.09l-0.08,0.13c-0.07,0.11-0.15,0.21-0.24,0.33l-1.08,1.52c-0.02,0.04-0.15,0.06-0.27,0c0,0-0.14-0.06-0.39-0.18
						c-0.21-0.09-0.48-0.26-0.79-0.44c-0.58-0.34-1.15-0.69-1.15-0.69c-0.12-0.06-0.15-0.18-0.14-0.22c0,0,0.28-0.67,0.56-1.34
						l0.09-0.21c0.07-0.19,0.15-0.38,0.21-0.54l0.06-0.13l-0.13-0.07c-0.49-0.29-0.82-0.49-0.82-0.49c-0.01-0.01-0.34-0.25-0.8-0.6
						l-0.12-0.09l-0.11,0.11c-0.09,0.11-0.21,0.22-0.33,0.34l-0.24,0.24c-0.51,0.51-1.02,1.01-1.04,1.02
						c-0.06,0.07-0.18,0.01-0.26-0.05c0,0-0.53-0.4-1.07-0.81c-0.31-0.22-0.54-0.41-0.71-0.58c-0.18-0.16-0.31-0.27-0.31-0.28
						c-0.11-0.08-0.12-0.21-0.09-0.26c0,0,0.39-0.61,0.78-1.22c0.15-0.24,0.31-0.47,0.45-0.68l0.07-0.15l-0.15-0.09l-0.68-0.64
						c0,0-0.28-0.25-0.68-0.64l-0.12,0.12l0.08-0.15l-0.11-0.11l-0.12,0.08c-0.09,0.07-0.21,0.15-0.33,0.24
						c-0.09,0.07-0.21,0.15-0.32,0.22c-0.6,0.41-1.2,0.81-1.2,0.82c-0.05,0.02-0.16-0.01-0.24-0.09l-1.79-2.01
						c-0.09-0.11-0.08-0.24-0.05-0.27c0,0,0.49-0.54,0.99-1.07l0.19-0.21c0.13-0.13,0.26-0.27,0.36-0.39l0.15-0.16l-0.16-0.08
						l-0.01-0.01c-0.33-0.45-0.55-0.74-0.55-0.74c0-0.01-0.21-0.31-0.53-0.74c-0.01-0.01-0.02-0.04-0.04-0.05l-0.07-0.15l-0.36,0.16
						c-0.16,0.08-0.34,0.16-0.52,0.25c-0.66,0.29-1.33,0.61-1.36,0.61c-0.06,0-0.15-0.05-0.2-0.12l-1.38-2.33
						c-0.06-0.12-0.05-0.24,0-0.26l1.13-0.88l0.76-0.56l-0.07-0.12c0-0.02-0.01-0.04-0.02-0.06c-0.25-0.49-0.4-0.84-0.4-0.84
						c0-0.01-0.15-0.34-0.39-0.86c-0.01-0.01-0.02-0.02-0.04-0.04l-0.05-0.14l-0.14,0.04c-0.24,0.07-0.51,0.14-0.78,0.21
						c-0.71,0.18-1.41,0.36-1.42,0.38c-0.06-0.01-0.15-0.07-0.2-0.18c-0.01-0.01-0.31-0.61-0.51-1.24l-0.45-1.27
						c-0.05-0.12-0.01-0.24,0.04-0.26l1.29-0.67c0.25-0.13,0.49-0.26,0.71-0.35l0.13-0.07l-0.05-0.13c0-0.04-0.01-0.07-0.02-0.07
						l-0.12-0.35c-0.04-0.11-0.07-0.21-0.08-0.27c-0.05-0.16-0.07-0.26-0.07-0.26s-0.09-0.39-0.24-0.96l-0.04-0.14l-0.14,0.02
						c-0.19,0.01-0.4,0.04-0.62,0.06l-1.64,0.12c-0.06,0-0.14-0.07-0.18-0.19l-0.31-1.29c-0.09-0.68-0.2-1.34-0.2-1.34
						c-0.02-0.13,0.04-0.24,0.08-0.25l1.39-0.45l0.28-0.08c0.18-0.05,0.34-0.11,0.49-0.15l0.14-0.05l-0.02-0.14
						c-0.09-0.58-0.15-0.98-0.15-0.98s-0.01-0.09-0.02-0.24c-0.01-0.11-0.02-0.25-0.02-0.4l-0.02-0.26c0.01-0.02,0-0.05,0-0.06
						v-0.15l-0.15-0.02c-0.13-0.01-0.27-0.02-0.42-0.04c-0.12,0-0.25-0.01-0.36-0.02l-1.46-0.14c-0.04,0-0.13-0.09-0.13-0.24
						c0,0-0.02-0.67-0.07-1.34c-0.05-0.66,0.01-1.32,0.01-1.33c0-0.14,0.08-0.24,0.13-0.25l1.65-0.21c0.2-0.02,0.41-0.05,0.6-0.07
						l0.14-0.01l0.01-0.21c0.02-0.56,0.04-0.92,0.04-0.92s0.02-0.39,0.06-0.94l0.01-0.2l-0.13-0.04c-0.24-0.06-0.51-0.13-0.76-0.19
						c-0.71-0.2-1.4-0.39-1.4-0.39c-0.06-0.02-0.12-0.13-0.09-0.26l0.4-2.66c0.02-0.13,0.12-0.2,0.18-0.2l1.46,0.06l0.93,0.05
						l0.06-0.19c0.13-0.55,0.22-0.91,0.22-0.92c0,0,0.09-0.35,0.24-0.93l0.01-0.16l-0.09-0.05c-0.18-0.09-0.38-0.19-0.59-0.28
						l-1.47-0.69c-0.05-0.02-0.09-0.13-0.06-0.26l0.91-2.55c0.04-0.11,0.13-0.19,0.19-0.16c0,0,0.71,0.15,1.41,0.31
						c0.14,0.04,0.29,0.07,0.42,0.11c0.13,0.02,0.25,0.05,0.35,0.08l0.13,0.02l0.06-0.12c0.01-0.02,0.02-0.05,0.04-0.08
						c0.22-0.49,0.38-0.82,0.38-0.82s0.16-0.34,0.4-0.85l-0.15-0.07l0.18,0.02l0.07-0.13l-1.97-1.39c-0.05-0.04-0.07-0.15-0.01-0.27
						c0,0,0.07-0.15,0.19-0.39c0.08-0.2,0.24-0.47,0.44-0.79l0.68-1.15c0.06-0.09,0.14-0.15,0.22-0.14l1.34,0.55
						c0.15,0.06,0.29,0.12,0.44,0.18c0.11,0.05,0.21,0.09,0.32,0.14l0.13,0.06l0.58-0.96l0.68-0.91l-0.11-0.11
						c-0.16-0.16-0.36-0.38-0.56-0.56c-0.51-0.52-1.02-1.02-1.02-1.04c-0.04-0.04-0.04-0.15,0.05-0.26c0,0,0.4-0.53,0.8-1.08
						c0.21-0.27,0.42-0.53,0.58-0.71c0.16-0.18,0.28-0.29,0.29-0.31c0.08-0.09,0.22-0.12,0.25-0.09c0,0,0.62,0.39,1.24,0.78
						c0.2,0.14,0.41,0.27,0.59,0.39l0.2,0.12l0.09-0.09c0.02-0.01,0.04-0.04,0.05-0.06c0.39-0.4,0.62-0.67,0.62-0.67l0.64-0.67
						c0.02-0.02,0.06-0.05,0.08-0.09l0.04-0.08l-0.05-0.08c-0.12-0.16-0.25-0.35-0.39-0.55l-0.08-0.11
						c-0.41-0.59-0.81-1.18-0.81-1.18c-0.04-0.05-0.01-0.16,0.08-0.25l2.04-1.8c0.07-0.07,0.25-0.06,0.26-0.05
						c0,0,0.53,0.49,1.07,0.99c0.11,0.11,0.21,0.2,0.32,0.29c0.09,0.09,0.19,0.18,0.27,0.27l0.15,0.07l0.12-0.11
						c0.45-0.33,0.74-0.54,0.75-0.54c0,0,0.29-0.22,0.78-0.56c0.01-0.01,0.04-0.02,0.05-0.05l0.08-0.08l-0.05-0.11
						c-0.05-0.11-0.11-0.22-0.16-0.34c-0.06-0.13-0.12-0.26-0.18-0.38c-0.31-0.67-0.61-1.34-0.61-1.34
						c-0.02-0.05,0.02-0.16,0.11-0.24l2.34-1.38c0.09-0.05,0.22-0.05,0.26-0.01l0.88,1.15c0.16,0.22,0.33,0.45,0.47,0.65l0.11,0.16
						l0.14-0.14l0.02-0.01c0.51-0.24,0.84-0.4,0.84-0.4s0.33-0.15,0.82-0.39c0.04,0,0.06-0.01,0.08-0.02l0.13-0.06l-0.05-0.14
						c-0.06-0.24-0.14-0.49-0.2-0.78c-0.19-0.69-0.36-1.4-0.36-1.4c-0.02-0.06,0.05-0.16,0.16-0.22c0.01-0.01,0.6-0.31,1.24-0.51
						c0.62-0.21,1.26-0.45,1.26-0.45c0.12-0.04,0.26,0.01,0.27,0.04c0,0,0.33,0.65,0.67,1.28c0.12,0.26,0.25,0.51,0.36,0.73
						l0.09,0.2l0.14-0.14c0.01,0,0.01,0,0.02,0c0.15-0.06,0.29-0.09,0.41-0.14l1.56-0.41l-0.01-0.14c-0.02-0.24-0.05-0.52-0.08-0.79
						l-0.11-1.47c0-0.04,0.07-0.14,0.2-0.16l1.31-0.31c0.66-0.11,1.32-0.2,1.32-0.2c0.13-0.02,0.25,0.04,0.26,0.07
						c0,0,0.21,0.71,0.44,1.4l0.06,0.2c0.07,0.2,0.13,0.4,0.18,0.56l0.05,0.14l0.14-0.01c0.58-0.09,0.96-0.15,0.96-0.15
						c0.01-0.01,0.11-0.01,0.25-0.04l0.19-0.01c0.14-0.01,0.31-0.02,0.48-0.04l0.21,0.01l0.01-0.15c0.02-0.25,0.05-0.53,0.06-0.8
						c0.08-0.72,0.14-1.45,0.14-1.45c0.01-0.06,0.11-0.13,0.24-0.14l1.35-0.06c0.34-0.02,0.69-0.02,0.92-0.01
						c0.25,0,0.41,0.01,0.41,0.01c0.13,0.01,0.22,0.08,0.24,0.13l0.19,1.46c0.04,0.19,0.05,0.39,0.07,0.56l0.04,0.36l0.21,0.01
						c0.56,0.02,0.93,0.04,0.93,0.04c0.01,0,0.38,0.04,0.94,0.06l0.19,0.01l0.04-0.13c0.07-0.24,0.14-0.49,0.2-0.78l0.39-1.39
						c0.01-0.05,0.11-0.11,0.25-0.08l2.66,0.38c0.13,0.04,0.21,0.14,0.21,0.19c0,0-0.02,0.73-0.06,1.46
						c-0.02,0.28-0.04,0.56-0.05,0.81l-0.04,0.16l0.18,0.01l0.07-0.15l-0.02,0.16c0.54,0.13,0.91,0.21,0.91,0.21
						s0.36,0.09,0.95,0.24l0.14,0.06l0.07-0.14c0.05-0.13,0.12-0.26,0.18-0.39c0.05-0.12,0.11-0.22,0.15-0.34
						c0.31-0.66,0.62-1.32,0.62-1.32c0.02-0.05,0.16-0.11,0.26-0.07l2.55,0.91c0.12,0.05,0.19,0.14,0.18,0.19l-0.31,1.41
						c-0.06,0.2-0.09,0.38-0.14,0.55l-0.07,0.32l0.07,0.06c0.04,0.05,0.08,0.06,0.11,0.06c0.51,0.25,0.85,0.4,0.85,0.4
						s0.32,0.15,0.82,0.38c0.01,0.02,0.04,0.04,0.06,0.04l0.13,0.08l0.09-0.13c0.13-0.19,0.29-0.44,0.45-0.66
						c0.44-0.59,0.85-1.19,0.85-1.19c0.02-0.04,0.16-0.06,0.28,0c0,0,0.15,0.06,0.39,0.18c0.22,0.11,0.52,0.26,0.79,0.44
						c0.58,0.34,1.15,0.69,1.15,0.69c0.12,0.06,0.16,0.18,0.14,0.22c0,0-0.27,0.67-0.56,1.34c-0.09,0.26-0.21,0.52-0.31,0.73
						l-0.07,0.14l0.96,0.59c0,0,0.33,0.24,0.8,0.59l0.12,0.08l0.11-0.11c0.07-0.07,0.16-0.16,0.25-0.25
						c0.11-0.11,0.21-0.21,0.31-0.32l1.05-1.02c0.01-0.02,0.16-0.02,0.26,0.04c0,0,0.53,0.42,1.11,0.84
						c0.25,0.19,0.51,0.39,0.67,0.56l0.31,0.28c0.11,0.08,0.13,0.21,0.11,0.25l-0.79,1.24l-0.05,0.09c-0.14,0.2-0.27,0.4-0.39,0.59
						l-0.08,0.16l0.15,0.08c0.41,0.38,0.68,0.64,0.68,0.64s0.27,0.26,0.68,0.62l0.08,0.19l0.35-0.25c0.14-0.11,0.31-0.21,0.47-0.33
						c0.59-0.41,1.19-0.82,1.19-0.82c0.05-0.04,0.18,0.01,0.26,0.09l1.79,2.02c0.08,0.08,0.07,0.21,0.04,0.26c0,0-0.49,0.53-1,1.09
						c-0.19,0.2-0.38,0.4-0.54,0.56l-0.07,0.08l0.05,0.09c0.01,0.05,0.05,0.08,0.06,0.08c0.32,0.46,0.53,0.76,0.54,0.76
						c0,0,0.22,0.31,0.54,0.73c0.01,0.02,0.02,0.07,0.06,0.11l0.08,0.08l0.12-0.06c0.19-0.09,0.4-0.19,0.62-0.29l0.09-0.05
						c0.67-0.31,1.33-0.61,1.36-0.61c0.06,0,0.15,0.04,0.21,0.12l1.36,2.33c0.07,0.12,0.05,0.24,0.01,0.26c0,0-0.58,0.45-1.15,0.88
						c-0.2,0.15-0.39,0.29-0.56,0.42l-0.18,0.13l0.06,0.12c0,0.01,0.01,0.04,0.04,0.07c0.24,0.51,0.4,0.85,0.4,0.85l0.39,0.84
						c0.01,0.02,0.02,0.06,0.04,0.08l0.07,0.11l0.12-0.04c0.22-0.07,0.49-0.14,0.76-0.21c0.71-0.19,1.41-0.36,1.44-0.38
						c0.06,0.01,0.15,0.07,0.2,0.18c0,0.01,0.29,0.6,0.51,1.24l0.44,1.27c0.05,0.13,0.01,0.24-0.04,0.26c0,0-0.65,0.34-1.28,0.68
						l-0.11,0.05c-0.22,0.11-0.44,0.21-0.61,0.31l-0.15,0.07l0.11,0.21c0.08,0.25,0.15,0.47,0.2,0.61l0.33,1.34l0.14-0.01
						c0.25-0.01,0.52-0.04,0.8-0.06l1.46-0.13c0.06,0,0.14,0.08,0.18,0.2c0,0,0.15,0.66,0.31,1.29l0.2,1.34
						c0.02,0.13-0.05,0.24-0.08,0.25c0,0-0.71,0.22-1.39,0.45c-0.13,0.04-0.26,0.07-0.38,0.11c-0.14,0.05-0.27,0.08-0.39,0.12
						l-0.14,0.04l0.01,0.15c0.09,0.59,0.15,0.98,0.15,0.98s0.01,0.09,0.02,0.26c0.01,0.15,0.04,0.39,0.05,0.65v0.21l0.15,0.02
						c0.25,0.02,0.52,0.05,0.8,0.07c0.73,0.06,1.45,0.13,1.45,0.13c0.05,0,0.13,0.09,0.13,0.22l0.06,1.35
						c0.05,0.65,0.01,1.32,0.01,1.33c-0.01,0.14-0.09,0.24-0.14,0.24l-1.45,0.2c-0.28,0.04-0.55,0.06-0.8,0.09l-0.14,0.02v0.2
						c-0.04,0.54-0.05,0.93-0.05,0.93s-0.02,0.35-0.05,0.91c-0.01,0.02-0.01,0.06-0.01,0.09v0.13l0.13,0.04
						c0.16,0.04,0.34,0.08,0.53,0.14l0.24,0.06c0.69,0.19,1.39,0.39,1.4,0.39c0.04,0.01,0.11,0.12,0.08,0.24l-0.39,2.66
						c-0.04,0.13-0.14,0.22-0.19,0.22l-1.46-0.07c-0.27-0.01-0.54-0.02-0.8-0.05l-0.18,0.02l-0.01,0.18
						c-0.14,0.54-0.22,0.91-0.22,0.91s-0.08,0.35-0.21,0.86c-0.02,0.05-0.02,0.11-0.02,0.14l-0.01,0.11l0.32,0.14
						c0.15,0.08,0.33,0.15,0.52,0.25c0.66,0.31,1.31,0.62,1.32,0.62c0.05,0.02,0.11,0.14,0.06,0.25l-0.89,2.55
						c-0.05,0.11-0.14,0.18-0.2,0.18c0,0-0.71-0.15-1.41-0.31c-0.2-0.05-0.39-0.09-0.58-0.14l-0.34-0.08l-0.07,0.19
						c-0.24,0.51-0.39,0.85-0.39,0.85c0,0.01-0.16,0.34-0.39,0.82c-0.01,0.02-0.01,0.04-0.01,0.04l-0.14,0.14l0.38,0.26
						c0.14,0.09,0.31,0.2,0.45,0.29c0.6,0.44,1.19,0.86,1.19,0.86c0.05,0.04,0.08,0.15,0.02,0.27
						C332.45,181.5,332.37,181.65,332.25,181.89z M325.86,165.01c0-14.34-11.64-25.97-25.98-25.97c-14.34,0-25.97,11.63-25.97,25.97
						c0,14.34,11.63,25.97,25.97,25.97C314.22,190.98,325.86,179.36,325.86,165.01z"/>
				</g>
				<g>
					<path class="st4" d="M336.38,165.67c-0.01,0.14-0.09,0.24-0.14,0.24l-1.45,0.2c-0.28,0.04-0.55,0.06-0.8,0.09l-0.14,0.02v0.2
						c-0.04,0.54-0.05,0.93-0.05,0.93s-0.02,0.35-0.05,0.91c-0.01,0.02-0.01,0.06-0.01,0.09v0.13l0.13,0.04
						c0.16,0.04,0.34,0.08,0.53,0.14l0.24,0.06c0.69,0.19,1.39,0.39,1.4,0.39c0.04,0.01,0.11,0.12,0.08,0.24l-0.39,2.66
						c-0.04,0.13-0.14,0.22-0.19,0.22l-1.46-0.07c-0.27-0.01-0.54-0.02-0.8-0.05l-0.18,0.02l-0.01,0.18
						c-0.14,0.54-0.22,0.91-0.22,0.91s-0.08,0.35-0.21,0.86c-0.02,0.05-0.02,0.11-0.02,0.14l-0.01,0.11l0.32,0.14
						c0.15,0.08,0.33,0.15,0.52,0.25c0.66,0.31,1.31,0.62,1.32,0.62c0.05,0.02,0.11,0.14,0.06,0.25l-0.89,2.55
						c-0.05,0.11-0.14,0.18-0.2,0.18c0,0-0.71-0.15-1.41-0.31c-0.2-0.05-0.39-0.09-0.58-0.14l-0.34-0.08l-0.07,0.19
						c-0.24,0.51-0.39,0.85-0.39,0.85c0,0.01-0.16,0.34-0.39,0.82c-0.01,0.02-0.01,0.04-0.01,0.04l-0.14,0.14l0.38,0.26
						c0.14,0.09,0.31,0.2,0.45,0.29c0.6,0.44,1.19,0.86,1.19,0.86c0.05,0.04,0.08,0.15,0.02,0.27c0,0-0.08,0.15-0.2,0.39
						c-0.08,0.2-0.22,0.46-0.42,0.79l-0.69,1.15c-0.07,0.11-0.15,0.16-0.24,0.15c0,0-0.67-0.28-1.34-0.56
						c-0.14-0.06-0.29-0.13-0.44-0.19l-0.44-0.19l-0.58,0.96c0,0-0.24,0.32-0.59,0.8l-0.08,0.12l0.09,0.09
						c0.08,0.08,0.16,0.16,0.26,0.26c0.11,0.09,0.21,0.2,0.32,0.31c0.51,0.51,1.02,1.04,1.02,1.05c0.02,0.02,0.04,0.14-0.05,0.26
						l-0.81,1.07c-0.24,0.31-0.42,0.54-0.59,0.71c-0.15,0.19-0.27,0.31-0.27,0.31c-0.07,0.08-0.19,0.14-0.26,0.09l-1.24-0.78
						l-0.74-0.49l-0.09,0.05c-0.04,0.02-0.06,0.05-0.09,0.07c-0.38,0.42-0.62,0.69-0.62,0.69c-0.01,0-0.26,0.27-0.65,0.68
						l-0.16,0.09l0.11,0.15c0.14,0.2,0.31,0.42,0.46,0.65l0.84,1.2c0.02,0.04,0,0.16-0.09,0.25l-2.02,1.79
						c-0.08,0.07-0.24,0.07-0.27,0.05c0,0-0.53-0.51-1.07-1l-0.25-0.22c-0.12-0.12-0.24-0.22-0.34-0.32l-0.08-0.08l-0.11,0.06
						c-0.01,0-0.04,0.01-0.07,0.05l-0.76,0.55c0,0-0.29,0.21-0.78,0.56l-0.14,0.07l0.41,0.87c0.29,0.66,0.6,1.33,0.6,1.33
						c0.02,0.06-0.01,0.18-0.12,0.25l-2.32,1.38c-0.09,0.06-0.24,0.05-0.26,0l-0.88-1.14c-0.09-0.13-0.19-0.25-0.27-0.36l-0.21-0.27
						l-0.09-0.09l-0.12,0.05c-0.01,0.01-0.04,0.01-0.07,0.04c-0.49,0.22-0.82,0.38-0.82,0.38l-0.84,0.4l-0.19,0.09l0.04,0.13
						c0.06,0.24,0.13,0.49,0.21,0.76l0.36,1.41c0.01,0.06-0.05,0.16-0.18,0.22c0,0-0.6,0.29-1.22,0.51
						c-0.65,0.22-1.28,0.44-1.29,0.45c-0.09,0.04-0.22,0.01-0.25-0.04c0,0-0.33-0.65-0.67-1.29l-0.15-0.32
						c-0.07-0.13-0.14-0.27-0.2-0.39l-0.05-0.09h-0.09c-0.04,0-0.07,0.01-0.08,0.01l-0.15,0.05c-0.21,0.08-0.39,0.14-0.52,0.18
						c-0.14,0.04-0.24,0.06-0.25,0.06c0,0-0.4,0.11-0.95,0.24l-0.14,0.04l0.01,0.14c0.01,0.21,0.04,0.45,0.06,0.69v0.12
						c0.06,0.72,0.12,1.45,0.12,1.45c0.01,0.05-0.07,0.15-0.19,0.18l-1.31,0.31l-1.33,0.21c-0.14,0.02-0.25-0.05-0.26-0.09
						c0,0-0.21-0.69-0.44-1.38c-0.08-0.27-0.16-0.55-0.24-0.78l-0.04-0.14l-1.13,0.16c0,0-0.09,0.01-0.24,0.04
						c-0.11,0.01-0.24,0.01-0.4,0.02l-0.26,0.02c-0.02,0-0.05,0-0.07,0h-0.15l-0.01,0.15c-0.02,0.24-0.05,0.52-0.07,0.79l-0.14,1.46
						c0,0.05-0.09,0.12-0.22,0.13l-1.35,0.06c-0.35,0.04-0.71,0.02-0.94,0.02c-0.24-0.01-0.38-0.02-0.39-0.02
						c-0.13,0-0.22-0.09-0.22-0.13l-0.2-1.46c-0.02-0.15-0.04-0.32-0.06-0.47c-0.01-0.11-0.02-0.22-0.04-0.33l-0.02-0.14h-0.14
						h-0.06c-0.55-0.02-0.93-0.05-0.93-0.05s-0.38-0.01-0.91-0.04c-0.01-0.01-0.02-0.01-0.02-0.01l-0.18-0.08l-0.27,0.96
						c-0.19,0.71-0.38,1.4-0.38,1.4c-0.01,0.04-0.12,0.08-0.24,0.09l-2.67-0.4c-0.13-0.02-0.21-0.13-0.21-0.19
						c0,0,0.04-0.73,0.07-1.46c0.01-0.28,0.02-0.56,0.04-0.8v-0.11l-0.08-0.05c-0.06-0.02-0.11-0.04-0.11-0.02
						c-0.54-0.13-0.89-0.22-0.89-0.22s-0.38-0.09-0.92-0.22l-0.06-0.02l-0.14-0.01l-0.15,0.33c-0.07,0.15-0.15,0.34-0.24,0.51
						c-0.31,0.66-0.62,1.32-0.64,1.32c-0.01,0.06-0.13,0.11-0.25,0.06l-2.55-0.89c-0.12-0.05-0.19-0.15-0.18-0.19
						c0,0,0.16-0.71,0.32-1.41l0.19-0.79l0.07-0.19l-0.21-0.01l-0.05-0.01c-0.48-0.24-0.81-0.38-0.81-0.38s-0.34-0.16-0.85-0.41
						l-0.18-0.09l-0.08,0.13c-0.07,0.11-0.15,0.21-0.24,0.33l-1.08,1.52c-0.02,0.04-0.15,0.06-0.27,0c0,0-0.14-0.06-0.39-0.18
						c-0.21-0.09-0.48-0.26-0.79-0.44c-0.58-0.34-1.15-0.69-1.15-0.69c-0.12-0.06-0.15-0.18-0.14-0.22c0,0,0.28-0.67,0.56-1.34
						l0.09-0.21c0.07-0.19,0.15-0.38,0.21-0.54l0.06-0.13l-0.13-0.07c-0.49-0.29-0.82-0.49-0.82-0.49c-0.01-0.01-0.34-0.25-0.8-0.6
						l-0.12-0.09l-0.11,0.11c-0.09,0.11-0.21,0.22-0.33,0.34l-0.24,0.24c-0.51,0.51-1.02,1.01-1.04,1.02
						c-0.06,0.07-0.18,0.01-0.26-0.05c0,0-0.53-0.4-1.07-0.81c-0.31-0.22-0.54-0.41-0.71-0.58c-0.18-0.16-0.31-0.27-0.31-0.28
						c-0.11-0.08-0.12-0.21-0.09-0.26c0,0,0.39-0.61,0.78-1.22c0.15-0.24,0.31-0.47,0.45-0.68l0.07-0.15l-0.15-0.09l-0.68-0.64
						c0,0-0.28-0.25-0.68-0.64l-0.12,0.12l0.08-0.15l-0.11-0.11l-0.12,0.08c-0.09,0.07-0.21,0.15-0.33,0.24
						c-0.09,0.07-0.21,0.15-0.32,0.22c-0.6,0.41-1.2,0.81-1.2,0.82c-0.05,0.02-0.16-0.01-0.24-0.09l-1.79-2.01
						c-0.09-0.11-0.08-0.24-0.05-0.27c0,0,0.49-0.54,0.99-1.07l0.19-0.21c0.13-0.13,0.26-0.27,0.36-0.39l0.15-0.16l-0.16-0.08
						l-0.01-0.01c-0.33-0.45-0.55-0.74-0.55-0.74c0-0.01-0.21-0.31-0.53-0.74c-0.01-0.01-0.02-0.04-0.04-0.05l-0.07-0.15l-0.36,0.16
						c-0.16,0.08-0.34,0.16-0.52,0.25c-0.66,0.29-1.33,0.61-1.36,0.61c-0.06,0-0.15-0.05-0.2-0.12l-1.38-2.33
						c-0.06-0.12-0.05-0.24,0-0.26l1.13-0.88l0.76-0.56l-0.07-0.12c0-0.02-0.01-0.04-0.02-0.06c-0.25-0.49-0.4-0.84-0.4-0.84
						c0-0.01-0.15-0.34-0.39-0.86c-0.01-0.01-0.02-0.02-0.04-0.04l-0.05-0.14l-0.14,0.04c-0.24,0.07-0.51,0.14-0.78,0.21
						c-0.71,0.18-1.41,0.36-1.42,0.38c-0.06-0.01-0.15-0.07-0.2-0.18c-0.01-0.01-0.31-0.61-0.51-1.24l-0.45-1.27
						c-0.05-0.12-0.01-0.24,0.04-0.26l1.29-0.67c0.25-0.13,0.49-0.26,0.71-0.35l0.13-0.07l-0.05-0.13c0-0.04-0.01-0.07-0.02-0.07
						l-0.12-0.35c-0.04-0.11-0.07-0.21-0.08-0.27c-0.05-0.16-0.07-0.26-0.07-0.26s-0.09-0.39-0.24-0.96l-0.04-0.14l-0.14,0.02
						c-0.19,0.01-0.4,0.04-0.62,0.06l-1.64,0.12c-0.06,0-0.14-0.07-0.18-0.19l-0.31-1.29c-0.09-0.68-0.2-1.34-0.2-1.34
						c-0.02-0.13,0.04-0.24,0.08-0.25l1.39-0.45l0.28-0.08c0.18-0.05,0.34-0.11,0.49-0.15l0.14-0.05l-0.02-0.14
						c-0.09-0.58-0.15-0.98-0.15-0.98s-0.01-0.09-0.02-0.24c-0.01-0.11-0.02-0.25-0.02-0.4l-0.02-0.26c0.01-0.02,0-0.05,0-0.06
						v-0.15l-0.15-0.02c-0.13-0.01-0.27-0.02-0.42-0.04c-0.12,0-0.25-0.01-0.36-0.02l-1.46-0.14c-0.04,0-0.13-0.09-0.13-0.24
						c0,0-0.02-0.67-0.07-1.34c-0.05-0.66,0.01-1.32,0.01-1.33c0-0.14,0.08-0.24,0.13-0.25l1.65-0.21c0.2-0.02,0.41-0.05,0.6-0.07
						l0.14-0.01l0.01-0.21c0.02-0.56,0.04-0.92,0.04-0.92s0.02-0.39,0.06-0.94l0.01-0.2l-0.13-0.04c-0.24-0.06-0.51-0.13-0.76-0.19
						c-0.71-0.2-1.4-0.39-1.4-0.39c-0.06-0.02-0.12-0.13-0.09-0.26l0.4-2.66c0.02-0.13,0.12-0.2,0.18-0.2l1.46,0.06l0.93,0.05
						l0.06-0.19c0.13-0.55,0.22-0.91,0.22-0.92c0,0,0.09-0.35,0.24-0.93l0.01-0.16l-0.09-0.05c-0.18-0.09-0.38-0.19-0.59-0.28
						l-1.47-0.69c-0.05-0.02-0.09-0.13-0.06-0.26l0.91-2.55c0.04-0.11,0.13-0.19,0.19-0.16c0,0,0.71,0.15,1.41,0.31
						c0.14,0.04,0.29,0.07,0.42,0.11c0.13,0.02,0.25,0.05,0.35,0.08l0.13,0.02l0.06-0.12c0.01-0.02,0.02-0.05,0.04-0.08
						c0.22-0.49,0.38-0.82,0.38-0.82s0.16-0.34,0.4-0.85l-0.15-0.07l0.18,0.02l0.07-0.13l-1.97-1.39c-0.05-0.04-0.07-0.15-0.01-0.27
						c0,0,0.07-0.15,0.19-0.39c0.08-0.2,0.24-0.47,0.44-0.79l0.68-1.15c0.06-0.09,0.14-0.15,0.22-0.14l1.34,0.55
						c0.15,0.06,0.29,0.12,0.44,0.18c0.11,0.05,0.21,0.09,0.32,0.14l0.13,0.06l0.58-0.96l0.68-0.91l-0.11-0.11
						c-0.16-0.16-0.36-0.38-0.56-0.56c-0.51-0.52-1.02-1.02-1.02-1.04c-0.04-0.04-0.04-0.15,0.05-0.26c0,0,0.4-0.53,0.8-1.08
						c0.21-0.27,0.42-0.53,0.58-0.71c0.16-0.18,0.28-0.29,0.29-0.31c0.08-0.09,0.22-0.12,0.25-0.09c0,0,0.62,0.39,1.24,0.78
						c0.2,0.14,0.41,0.27,0.59,0.39l0.2,0.12l0.09-0.09c0.02-0.01,0.04-0.04,0.05-0.06c0.39-0.4,0.62-0.67,0.62-0.67l0.64-0.67
						c0.02-0.02,0.06-0.05,0.08-0.09l0.04-0.08l-0.05-0.08c-0.12-0.16-0.25-0.35-0.39-0.55l-0.08-0.11
						c-0.41-0.59-0.81-1.18-0.81-1.18c-0.04-0.05-0.01-0.16,0.08-0.25l2.04-1.8c0.07-0.07,0.25-0.06,0.26-0.05
						c0,0,0.53,0.49,1.07,0.99c0.11,0.11,0.21,0.2,0.32,0.29c0.09,0.09,0.19,0.18,0.27,0.27l0.15,0.07l0.12-0.11
						c0.45-0.33,0.74-0.54,0.75-0.54c0,0,0.29-0.22,0.78-0.56c0.01-0.01,0.04-0.02,0.05-0.05l0.08-0.08l-0.05-0.11
						c-0.05-0.11-0.11-0.22-0.16-0.34c-0.06-0.13-0.12-0.26-0.18-0.38c-0.31-0.67-0.61-1.34-0.61-1.34
						c-0.02-0.05,0.02-0.16,0.11-0.24l2.34-1.38c0.09-0.05,0.22-0.05,0.26-0.01l0.88,1.15c0.16,0.22,0.33,0.45,0.47,0.65l0.11,0.16
						l0.14-0.14l0.02-0.01c0.51-0.24,0.84-0.4,0.84-0.4s0.33-0.15,0.82-0.39c0.04,0,0.06-0.01,0.08-0.02l0.13-0.06l-0.05-0.14
						c-0.06-0.24-0.14-0.49-0.2-0.78c-0.19-0.69-0.36-1.4-0.36-1.4c-0.02-0.06,0.05-0.16,0.16-0.22c0.01-0.01,0.6-0.31,1.24-0.51
						c0.62-0.21,1.26-0.45,1.26-0.45c0.12-0.04,0.26,0.01,0.27,0.04c0,0,0.33,0.65,0.67,1.28c0.12,0.26,0.25,0.51,0.36,0.73
						l0.09,0.2l0.14-0.14c0.01,0,0.01,0,0.02,0c0.15-0.06,0.29-0.09,0.41-0.14l1.56-0.41l-0.01-0.14c-0.02-0.24-0.05-0.52-0.08-0.79
						l-0.11-1.47c0-0.04,0.07-0.14,0.2-0.16l1.31-0.31c0.66-0.11,1.32-0.2,1.32-0.2c0.13-0.02,0.25,0.04,0.26,0.07
						c0,0,0.21,0.71,0.44,1.4l0.06,0.2c0.07,0.2,0.13,0.4,0.18,0.56l0.05,0.14l0.14-0.01c0.58-0.09,0.96-0.15,0.96-0.15
						c0.01-0.01,0.11-0.01,0.25-0.04l0.19-0.01c0.14-0.01,0.31-0.02,0.48-0.04l0.21,0.01l0.01-0.15c0.02-0.25,0.05-0.53,0.06-0.8
						c0.08-0.72,0.14-1.45,0.14-1.45c0.01-0.06,0.11-0.13,0.24-0.14l1.35-0.06c0.34-0.02,0.69-0.02,0.92-0.01
						c0.25,0,0.41,0.01,0.41,0.01c0.13,0.01,0.22,0.08,0.24,0.13l0.19,1.46c0.04,0.19,0.05,0.39,0.07,0.56l0.04,0.36l0.21,0.01
						c0.56,0.02,0.93,0.04,0.93,0.04c0.01,0,0.38,0.04,0.94,0.06l0.19,0.01l0.04-0.13c0.07-0.24,0.14-0.49,0.2-0.78l0.39-1.39
						c0.01-0.05,0.11-0.11,0.25-0.08l2.66,0.38c0.13,0.04,0.21,0.14,0.21,0.19c0,0-0.02,0.73-0.06,1.46
						c-0.02,0.28-0.04,0.56-0.05,0.81l-0.04,0.16l0.18,0.01l0.07-0.15l-0.02,0.16c0.54,0.13,0.91,0.21,0.91,0.21
						s0.36,0.09,0.95,0.24l0.14,0.06l0.07-0.14c0.05-0.13,0.12-0.26,0.18-0.39c0.05-0.12,0.11-0.22,0.15-0.34
						c0.31-0.66,0.62-1.32,0.62-1.32c0.02-0.05,0.16-0.11,0.26-0.07l2.55,0.91c0.12,0.05,0.19,0.14,0.18,0.19l-0.31,1.41
						c-0.06,0.2-0.09,0.38-0.14,0.55l-0.07,0.32l0.07,0.06c0.04,0.05,0.08,0.06,0.11,0.06c0.51,0.25,0.85,0.4,0.85,0.4
						s0.32,0.15,0.82,0.38c0.01,0.02,0.04,0.04,0.06,0.04l0.13,0.08l0.09-0.13c0.13-0.19,0.29-0.44,0.45-0.66
						c0.44-0.59,0.85-1.19,0.85-1.19c0.02-0.04,0.16-0.06,0.28,0c0,0,0.15,0.06,0.39,0.18c0.22,0.11,0.52,0.26,0.79,0.44
						c0.58,0.34,1.15,0.69,1.15,0.69c0.12,0.06,0.16,0.18,0.14,0.22c0,0-0.27,0.67-0.56,1.34c-0.09,0.26-0.21,0.52-0.31,0.73
						l-0.07,0.14l0.96,0.59c0,0,0.33,0.24,0.8,0.59l0.12,0.08l0.11-0.11c0.07-0.07,0.16-0.16,0.25-0.25
						c0.11-0.11,0.21-0.21,0.31-0.32l1.05-1.02c0.01-0.02,0.16-0.02,0.26,0.04c0,0,0.53,0.42,1.11,0.84
						c0.25,0.19,0.51,0.39,0.67,0.56l0.31,0.28c0.11,0.08,0.13,0.21,0.11,0.25l-0.79,1.24l-0.05,0.09c-0.14,0.2-0.27,0.4-0.39,0.59
						l-0.08,0.16l0.15,0.08c0.41,0.38,0.68,0.64,0.68,0.64s0.27,0.26,0.68,0.62l0.08,0.19l0.35-0.25c0.14-0.11,0.31-0.21,0.47-0.33
						c0.59-0.41,1.19-0.82,1.19-0.82c0.05-0.04,0.18,0.01,0.26,0.09l1.79,2.02c0.08,0.08,0.07,0.21,0.04,0.26c0,0-0.49,0.53-1,1.09
						c-0.19,0.2-0.38,0.4-0.54,0.56l-0.07,0.08l0.05,0.09c0.01,0.05,0.05,0.08,0.06,0.08c0.32,0.46,0.53,0.76,0.54,0.76
						c0,0,0.22,0.31,0.54,0.73c0.01,0.02,0.02,0.07,0.06,0.11l0.08,0.08l0.12-0.06c0.19-0.09,0.4-0.19,0.62-0.29l0.09-0.05
						c0.67-0.31,1.33-0.61,1.36-0.61c0.06,0,0.15,0.04,0.21,0.12l1.36,2.33c0.07,0.12,0.05,0.24,0.01,0.26c0,0-0.58,0.45-1.15,0.88
						c-0.2,0.15-0.39,0.29-0.56,0.42l-0.18,0.13l0.06,0.12c0,0.01,0.01,0.04,0.04,0.07c0.24,0.51,0.4,0.85,0.4,0.85l0.39,0.84
						c0.01,0.02,0.02,0.06,0.04,0.08l0.07,0.11l0.12-0.04c0.22-0.07,0.49-0.14,0.76-0.21c0.71-0.19,1.41-0.36,1.44-0.38
						c0.06,0.01,0.15,0.07,0.2,0.18c0,0.01,0.29,0.6,0.51,1.24l0.44,1.27c0.05,0.13,0.01,0.24-0.04,0.26c0,0-0.65,0.34-1.28,0.68
						l-0.11,0.05c-0.22,0.11-0.44,0.21-0.61,0.31l-0.15,0.07l0.11,0.21c0.08,0.25,0.15,0.47,0.2,0.61l0.33,1.34l0.14-0.01
						c0.25-0.01,0.52-0.04,0.8-0.06l1.46-0.13c0.06,0,0.14,0.08,0.18,0.2c0,0,0.15,0.66,0.31,1.29l0.2,1.34
						c0.02,0.13-0.05,0.24-0.08,0.25c0,0-0.71,0.22-1.39,0.45c-0.13,0.04-0.26,0.07-0.38,0.11c-0.14,0.05-0.27,0.08-0.39,0.12
						l-0.14,0.04l0.01,0.15c0.09,0.59,0.15,0.98,0.15,0.98s0.01,0.09,0.02,0.26c0.01,0.15,0.04,0.39,0.05,0.65v0.21l0.15,0.02
						c0.25,0.02,0.52,0.05,0.8,0.07c0.73,0.06,1.45,0.13,1.45,0.13c0.05,0,0.13,0.09,0.13,0.22l0.06,1.35
						C336.41,164.99,336.38,165.66,336.38,165.67z"/>
					<path class="st4" d="M290.17,161.33c1.04-2.77,3.22-4.97,5.99-6.02c0.24-0.09,0.48-0.18,0.73-0.25
						c0.95-0.28,1.95-0.44,2.99-0.44c1.28,0,2.51,0.24,3.64,0.66c2.8,1.04,5.04,3.26,6.1,6.05c0.05,0.12,0.09,0.25,0.13,0.36
						c0.35,1.05,0.54,2.15,0.54,3.32c0,1.16-0.19,2.27-0.54,3.32c-0.93,2.78-3.01,5.04-5.67,6.2c-1.28,0.56-2.69,0.88-4.19,0.88
						c-1.31,0-2.57-0.25-3.72-0.69c-2.66-1.01-4.79-3.09-5.88-5.72c-0.04-0.09-0.07-0.19-0.11-0.28c-0.45-1.15-0.68-2.4-0.68-3.71
						c0-1.29,0.24-2.54,0.67-3.68"/>
					<path class="st4" d="M321.18,161.32c0.21,1.2,0.32,2.44,0.32,3.69c0,1.36-0.13,2.69-0.38,3.99c-0.59,3.18-1.88,6.12-3.72,8.64
						c-1.39,1.95-3.12,3.66-5.09,5.04c-2.42,1.72-5.21,2.94-8.22,3.53c-1.35,0.27-2.77,0.41-4.2,0.41c-4.53,0-8.74-1.4-12.21-3.8
						c-2.06-1.39-3.86-3.15-5.3-5.18c-1.84-2.52-3.13-5.46-3.72-8.64c-0.25-1.29-0.38-2.62-0.38-3.99c0-1.26,0.11-2.49,0.32-3.69
						c0.55-3.21,1.82-6.19,3.64-8.75c1.39-1.98,3.11-3.71,5.07-5.11c2.59-1.86,5.6-3.17,8.86-3.73c1.21-0.21,2.45-0.32,3.72-0.32
						s2.51,0.11,3.72,0.32c3.2,0.55,6.17,1.82,8.72,3.62c1.97,1.38,3.69,3.08,5.09,5.04C319.29,154.99,320.61,158.03,321.18,161.32z
						"/>
					<path class="st4" d="M325.86,165.01c0,14.34-11.64,25.97-25.98,25.97c-14.34,0-25.97-11.63-25.97-25.97
						c0-14.34,11.63-25.97,25.97-25.97C314.22,139.05,325.86,150.67,325.86,165.01z"/>
					<line class="st4" x1="310.03" y1="161.33" x2="309.61" y2="161.33"/>
					<line class="st4" x1="321.12" y1="161.33" x2="310.04" y2="161.33"/>
					<polyline class="st4" points="290.17,161.33 290.16,161.33 278.66,161.33 					"/>
					<polyline class="st4" points="321.12,169 310.29,169 309.49,169 					"/>
					<polyline class="st4" points="290.28,169 289.92,169 278.66,169 					"/>
					<line class="st4" x1="290.17" y1="161.33" x2="282.23" y2="152.57"/>
					<polyline class="st4" points="296.89,155.06 296.16,154.48 287.3,147.46 					"/>
					<polyline class="st4" points="296.16,186.23 296.16,174.73 287.66,182.82 287.65,182.83 					"/>
					<polyline class="st4" points="304.07,174.53 304.07,175.16 304.07,186.12 					"/>
					<polyline class="st4" points="317.41,152.39 310.04,161.33 310.03,161.33 309.74,161.7 					"/>
					<polyline class="st4" points="296.16,143.73 296.16,154.48 296.16,155.31 					"/>
					<polyline class="st4" points="290.17,168.72 289.92,169 282.37,177.64 282.36,177.65 					"/>
					<polyline class="st4" points="303.6,174.73 304.07,175.16 312.3,182.68 312.31,182.69 					"/>
					<polyline class="st4" points="309.74,168.33 310.29,169 317.4,177.64 317.41,177.65 					"/>
					<polyline class="st4" points="312.31,147.35 303.6,155.06 303.6,143.73 					"/>
				</g>
			</g>
		</g>
		<g id="XMLID_17_">
			<g>
				<path class="st0" d="M300.78,160.69c2.37,0.82,3.66,3.38,2.92,5.77c-0.61,2-2.46,3.29-4.46,3.29c-0.4,0-0.82-0.05-1.24-0.16
					l-30.36-8.37l21.67,0.95l-14.5-10.55L300.78,160.69z"/>
				<path class="st0" d="M252.62,143.94l-15.2,0.76l11.91,10.33c-10.79-2.05-19.51-5.86-19.78-5.98c1.92-5,4.34-8.91,7.15-11.93
					L252.62,143.94z"/>
				<polygon class="st0" points="289.32,162.17 267.65,161.22 255.86,160.7 249.34,155.04 249.33,155.04 237.42,144.71 
					252.62,143.94 263.53,143.4 274.83,151.62 				"/>
				<path class="st0" d="M210.54,145.28c4.92-0.62,16.19-9.72,16.67-10.11c0.01-0.01,0.01-0.01,0.01-0.01l3.61-0.92l0.14,0.56
					c-3.33,3.91-5.84,8.18-7.6,12.74C219.19,145.87,210.54,145.28,210.54,145.28z"/>
				<path class="st0" d="M210.54,145.28c0,0,8.65,0.59,12.84,2.27c-1.39,3.59-2.34,7.37-2.88,11.32c-4.53-0.78-9.06-1.54-13.41-2.48
					v-0.01c2.61-4.26,3.54-7.95,3.45-11.1H210.54z"/>
				<path class="st0" d="M207.09,156.38v0.01c-4.46-0.96-8.72-2.11-12.57-3.61c-2.98-6.05-5.17-13.28-6.7-21.53
					c-0.02-0.14-0.05-0.28-0.08-0.42c0-0.01,0-0.01,0-0.02c2.64-0.18,8.78-0.52,11.26-0.09c0.29,0.06,0.53,0.12,0.71,0.19
					c1.6,0.66,10.57,5.21,10.83,14.39C210.63,148.43,209.7,152.12,207.09,156.38z"/>
				<path class="st0" d="M185.67,114.24l28.36,0.38l-0.02,1.93c-1.26,0-2.81,0.11-4.73,0.41c-4.38,3.2-10.27,13.74-10.27,13.74
					c-2.48-0.42-8.62-0.08-11.26,0.09C186.81,125.66,186.13,120.12,185.67,114.24z"/>
				<path class="st0" d="M219.4,133.75c0.19,1.74,1.88,2.92,3.59,2.49l4.22-1.07c-0.48,0.39-11.75,9.48-16.67,10.11h-0.01
					c-0.26-9.18-9.23-13.73-10.83-14.39c-0.18-0.07-0.41-0.13-0.71-0.19c0,0,5.9-10.54,10.27-13.74c1.92-0.31,3.47-0.41,4.73-0.41
					c2.47,0,3.74,0.44,4.17,0.68c0.64,0.36,9.45,7.7,10.35,11.87c-2.38,0.55-4.67,1.05-6.75,1.44c-1.49,0.28-2.53,1.65-2.37,3.15
					V133.75z"/>
				<path class="st0" d="M214.03,114.62l25.13,0.34l0.53,11.26v0.01c-3.57,0.98-7.46,2-11.17,2.87
					c-0.91-4.18-9.72-11.51-10.35-11.87c-0.42-0.25-1.69-0.68-4.17-0.68L214.03,114.62z"/>
				<path class="st0" d="M253.14,122.32v6.19c-1.99,0.35-3.91,0.86-5.75,1.54l-16.54,4.2l-3.61,0.92c0,0,0,0-0.01,0.01l-4.22,1.07
					c-1.71,0.42-3.4-0.75-3.59-2.49v-0.06c-0.16-1.51,0.87-2.87,2.37-3.15c2.08-0.39,4.38-0.88,6.75-1.44
					c3.71-0.87,7.6-1.89,11.17-2.87c1.94-0.54,3.78-1.06,5.45-1.54C249.85,123.34,253.14,122.32,253.14,122.32z"/>
				<path class="st0" d="M245.14,124.69c-1.67,0.48-3.51,1-5.45,1.54v-0.01l-0.53-11.26l5.98,0.07V124.69z"/>
				<polygon class="st0" points="303.91,103.87 303.91,116.56 253.14,131.74 253.14,128.51 253.14,122.32 253.14,118.84 				"/>
				<path class="st0" d="M277.25,93.32l-57.81,7l-13.28-7.57l-6.07-3.46c0,0,6.57-2.66,11.19-1.46c4.62,1.19,9.99,4.02,13.13,4.92
					c3.65,0.29,39.39-3.75,47.88-3.46C276.4,89.48,277.25,93.32,277.25,93.32z"/>
				<path class="st0" d="M236.7,137.13c-2.81,3.02-5.24,6.93-7.15,11.93c-0.01,0-0.01,0-0.01,0c-1.59,4.12-2.85,8.98-3.72,14.68
					c-16.39-0.44-32.91-4.39-40.47-7.79c-7.55-3.4-19.29-30.71-19.29-30.71c3.38-3.21,5.09-11.19,5.09-11.19l14.51,0.19
					c0.46,5.87,1.14,11.41,2.07,16.56c0,0.01,0,0.01,0,0.02c0.04,0.14,0.06,0.28,0.08,0.42c1.53,8.25,3.72,15.48,6.7,21.53
					c3.85,1.51,8.11,2.65,12.57,3.61c4.35,0.94,8.88,1.71,13.41,2.48c0.54-3.95,1.49-7.73,2.88-11.32c1.77-4.57,4.27-8.84,7.6-12.74
					l-0.14-0.56l16.54-4.2C243.42,131.51,239.82,133.78,236.7,137.13z"/>
				<path class="st0" d="M239.16,114.96l-25.13-0.34l-28.36-0.38l-14.51-0.19c0,0-1.72,7.98-5.09,11.19
					c-0.86,0.82-1.82,1.33-2.89,1.32c-5.27-0.06-10.83-0.38-10.83-0.38l-8.99-8.38c0,0,7.17-18.89,62.8-25.05l13.28,7.57l57.81-7
					l1.26-0.15l23.32-2.82l5.82,6.45l-44.28,9.15l-13.14,9.15l-5.09-0.07L239.16,114.96z"/>
				<path class="st0" d="M200.08,89.3l6.07,3.46c-55.63,6.17-62.8,25.05-62.8,25.05l-4.02-3.75l-3.12-2.91v-1.85
					c0-8.1,4.81-15.07,11.73-18.21c2.52-1.15,5.32-1.79,8.27-1.79h5.12h12.73H200.08z"/>
				<path class="st0" d="M174.07,89.3h-12.73c0-2.31,1.87-4.18,4.19-4.18h4.35C172.2,85.12,174.07,86.99,174.07,89.3z"/>
				<polygon class="st0" points="176.73,60.4 178.2,64.67 164.61,70.15 160.68,73.34 160.07,71.64 158.58,67.42 158.03,65.87 
					162.64,65.74 				"/>
				<path class="st0" d="M151.01,76.36c-1.33-0.68-2.6-1.32-3.25-1.64c-0.18-0.08-0.35-0.15-0.55-0.21l0.11-0.33l7.21-6.11
					l3.51-0.45l0.55-0.2l1.48,4.21l-3.98,0.82l-5.08,3.88V76.36z"/>
				<path class="st0" d="M155.59,78.69l-1.91,5.19l-3.07-0.76l-7.66-3.2l0.11-5.65c0,0,2.41-0.31,4.14,0.25
					c0.2,0.06,0.38,0.13,0.55,0.21c0.65,0.32,1.92,0.95,3.25,1.64C153.22,77.47,155.59,78.69,155.59,78.69z"/>
				<path class="st0" d="M136.21,81.1c0,0-1.62,2.28-9.01,4.73c0.76-8.97,2.44-16.3,4.91-22.22
					C132.11,63.61,136.21,64.42,136.21,81.1z"/>
				<path class="st0" d="M150.62,44.67v6.67l-7.26,7.81l-0.29,15.11l-0.11,5.65l-6.74,17.85c0,0-1.85-6.8-9.01-11.93
					c7.39-2.45,9.01-4.73,9.01-4.73c0-16.67-4.11-17.49-4.11-17.49C136.25,53.67,142.6,47.7,150.62,44.67z"/>
				<path class="st0" d="M131.33,110.67l-2.69,7.14h-2.41l-18.18-7l-13.81,4.44c-1.98-1.62-7.85-1.94-7.85-1.94
					s17.07-7.82,21.66-8.02C112.42,105.1,129.74,110.2,131.33,110.67z"/>
				<polygon class="st0" points="139.04,114.73 155.14,136.14 155.59,140.35 135.66,122.42 				"/>
				<path class="st0" d="M147.95,91.09c-6.92,3.14-11.73,10.12-11.73,18.21v1.85l3.12,2.91l-0.29,0.67l-3.38,7.7l-2.67,6.08
					l-0.25,0.2l-4.91-5.87l0.8-5.02l2.69-7.14l4.88-12.91l6.74-17.85l7.66,3.2L147.95,91.09z"/>
				<path class="st0" d="M105.87,169.01l-7.55,8.65c-1.84-2.53-3.12-5.46-3.71-8.65H105.87z"/>
				<path class="st0" d="M133.36,152.4l-7.38,8.93h-0.42c-0.48-1.28-1.21-2.45-2.13-3.42l4.44-10.85
					C130,148.51,131.87,150.32,133.36,152.4z"/>
				<path class="st0" d="M137.06,161.33h-11.08l7.38-8.93c1.88,2.6,3.2,5.64,3.77,8.92L137.06,161.33z"/>
				<path class="st0" d="M125.98,161.33h11.08l0.06-0.01c0.21,1.2,0.32,2.44,0.32,3.69c0,1.36-0.13,2.69-0.38,3.99h-10.83
					l-0.55-0.67c0.35-1.05,0.54-2.15,0.54-3.32c0-1.29-0.24-2.54-0.67-3.68H125.98z"/>
				<path class="st0" d="M126.24,169.01h10.83c-0.58,3.18-1.87,6.11-3.71,8.62L126.24,169.01z"/>
				<path class="st0" d="M126.24,169.01l7.12,8.62c-1.39,1.95-3.12,3.66-5.08,5.05l-8.25-7.52v-0.62c2.44-1.07,4.39-3.06,5.41-5.53
					H126.24z"/>
				<path class="st0" d="M120.02,186.13v-10.97l8.25,7.52c-2.42,1.72-5.22,2.94-8.24,3.53L120.02,186.13z"/>
				<path class="st0" d="M120.02,175.16v10.97l0.01,0.08c-1.36,0.27-2.77,0.41-4.2,0.41c-4.54,0-8.75-1.4-12.24-3.8l8.52-8.1v0.01
					c1.15,0.44,2.41,0.68,3.72,0.68c1.31,0,2.57-0.25,3.72-0.68L120.02,175.16z"/>
				<path class="st0" d="M112.12,174.73l-8.52,8.1c-2.05-1.4-3.84-3.15-5.28-5.17l7.55-8.65h0.35
					C107.32,171.63,109.46,173.71,112.12,174.73z"/>
				<path class="st0" d="M106.12,168.72l-0.25,0.28H94.61c-0.25-1.29-0.38-2.62-0.38-3.99c0-1.26,0.11-2.49,0.32-3.69l0.06,0.01
					h11.5c-0.44,1.14-0.67,2.39-0.67,3.68C105.43,166.32,105.67,167.57,106.12,168.72z"/>
				<path class="st0" d="M106.1,161.33h-11.5l-0.06-0.01c0.55-3.21,1.82-6.19,3.64-8.75l7.93,8.77H106.1z"/>
				<path class="st0" d="M112.12,154.49v0.82c-2.77,1.05-4.97,3.26-6,6.02l-7.93-8.77v-0.01c1.4-1.98,3.12-3.71,5.08-5.09
					L112.12,154.49z"/>
				<path class="st0" d="M112.12,143.73v10.75l-8.85-7.02C105.84,145.59,108.86,144.3,112.12,143.73z"/>
				<path class="st0" d="M118.31,143.56l-3.44,11.11c-0.69,0.06-1.38,0.2-2.02,0.4h-0.01l-0.72-0.58v-10.75
					c1.21-0.21,2.45-0.32,3.72-0.32C116.67,143.41,117.49,143.46,118.31,143.56z"/>
				<path class="st0" d="M133.36,177.63c1.84-2.52,3.13-5.45,3.71-8.62c0.25-1.29,0.38-2.62,0.38-3.99c0-1.26-0.11-2.49-0.32-3.69
					c-0.56-3.28-1.88-6.32-3.77-8.92c-1.48-2.08-3.35-3.89-5.5-5.34l1.68-4.11c7.37,4.59,12.26,12.76,12.26,22.06
					c0,14.34-11.63,25.97-25.97,25.97s-25.97-11.63-25.97-25.97c0-14.34,11.63-25.97,25.97-25.97c1.28,0,2.54,0.09,3.78,0.27
					l-1.31,4.24c-0.81-0.09-1.64-0.14-2.47-0.14c-1.27,0-2.51,0.11-3.72,0.32c-3.26,0.56-6.27,1.86-8.85,3.73
					c-1.97,1.39-3.68,3.12-5.08,5.09v0.01c-1.81,2.57-3.08,5.54-3.64,8.75c-0.21,1.2-0.32,2.44-0.32,3.69
					c0,1.36,0.13,2.69,0.38,3.99c0.59,3.19,1.87,6.12,3.71,8.65c1.45,2.01,3.24,3.77,5.28,5.17c3.48,2.4,7.7,3.8,12.24,3.8
					c1.44,0,2.84-0.14,4.2-0.41c3.01-0.59,5.81-1.81,8.24-3.53C130.24,181.29,131.97,179.58,133.36,177.63z"/>
				<path class="st0" d="M127.84,122.83l4.91,5.87l1.76,2.11l-0.94,2.29l-4.02,9.85l-1.68,4.11l-4.44,10.85l-3.65,8.92
					c-0.66,1.61-2.21,2.59-3.85,2.59c-0.53,0-1.06-0.11-1.58-0.32c-1.99-0.82-3.01-3.01-2.38-5.07l2.89-9.37l3.44-11.11l1.31-4.24
					l3.14-10.17l2.8-9.05L127.84,122.83z"/>
				<path class="st1" d="M149.39,150.67c0,0,0.29,0.6,0.51,1.24l0.45,1.27c0.04,0.12,0,0.24-0.05,0.26c0,0-0.65,0.34-1.28,0.67
					l-0.11,0.06c-0.21,0.11-0.42,0.21-0.61,0.31l-0.14,0.07l0.09,0.21c0.08,0.25,0.15,0.47,0.2,0.61l0.33,1.34l0.14-0.01
					c0.25-0.01,0.52-0.05,0.8-0.07l1.47-0.12c0.05,0,0.14,0.08,0.16,0.2c0,0,0.15,0.66,0.32,1.29l0.19,1.34
					c0.02,0.13-0.04,0.24-0.08,0.25c0,0-0.69,0.22-1.39,0.44c-0.12,0.04-0.25,0.08-0.38,0.12c-0.14,0.05-0.27,0.08-0.39,0.12
					l-0.14,0.04l0.02,0.15c0.09,0.59,0.14,0.98,0.14,0.98s0.01,0.09,0.02,0.25c0.01,0.16,0.04,0.39,0.05,0.65v0.22l0.15,0.01
					c0.25,0.02,0.52,0.06,0.8,0.08c0.73,0.06,1.45,0.13,1.45,0.13c0.05,0,0.13,0.09,0.14,0.22l0.06,1.35c0.05,0.65,0,1.32,0,1.33
					c-0.01,0.13-0.08,0.24-0.14,0.24l-1.44,0.19c-0.29,0.04-0.56,0.07-0.81,0.11l-0.13,0.02l-0.01,0.19
					c-0.04,0.55-0.04,0.93-0.04,0.93c-0.01,0.01-0.04,0.36-0.06,0.92c0,0.02-0.01,0.06-0.01,0.08v0.14l0.13,0.04
					c0.16,0.04,0.34,0.08,0.53,0.13l0.25,0.07c0.69,0.18,1.39,0.39,1.39,0.39c0.05,0.01,0.11,0.11,0.08,0.24l-0.39,2.66
					c-0.02,0.13-0.13,0.22-0.19,0.22l-1.46-0.08c-0.27,0-0.54-0.02-0.8-0.04l-0.18,0.02v0.16c-0.14,0.55-0.24,0.91-0.24,0.91
					s-0.08,0.36-0.2,0.87c-0.04,0.05-0.04,0.09-0.04,0.14v0.11l0.31,0.14c0.16,0.07,0.34,0.15,0.52,0.24
					c0.66,0.32,1.32,0.62,1.32,0.64c0.06,0.02,0.11,0.14,0.06,0.25l-0.89,2.55c-0.04,0.11-0.13,0.18-0.19,0.18
					c0,0-0.72-0.16-1.42-0.32c-0.19-0.04-0.39-0.08-0.56-0.13l-0.34-0.09l-0.08,0.2c-0.24,0.51-0.38,0.85-0.38,0.85
					c-0.01,0-0.18,0.33-0.4,0.82c0,0.01-0.01,0.02-0.01,0.02l-0.14,0.14l0.38,0.26c0.15,0.11,0.31,0.21,0.46,0.31
					c0.59,0.44,1.19,0.86,1.19,0.86c0.04,0.02,0.07,0.15,0.01,0.27c0,0-0.08,0.15-0.2,0.39c-0.08,0.19-0.21,0.45-0.42,0.79
					l-0.69,1.15c-0.06,0.11-0.15,0.16-0.22,0.14c0,0-0.67-0.28-1.34-0.55c-0.15-0.07-0.29-0.13-0.44-0.19l-0.44-0.19l-0.58,0.96
					c0,0-0.25,0.32-0.6,0.8l-0.08,0.11l0.09,0.11c0.08,0.08,0.18,0.16,0.26,0.25c0.11,0.11,0.21,0.21,0.32,0.32
					c0.51,0.51,1.02,1.04,1.02,1.04c0.04,0.04,0.04,0.15-0.05,0.26l-0.81,1.07c-0.24,0.32-0.42,0.54-0.58,0.71
					c-0.16,0.19-0.28,0.32-0.28,0.32c-0.07,0.08-0.18,0.14-0.26,0.09l-1.22-0.78l-0.75-0.49l-0.08,0.05
					c-0.05,0.01-0.07,0.05-0.11,0.07c-0.36,0.41-0.62,0.69-0.62,0.69s-0.26,0.26-0.65,0.68l-0.16,0.09l0.12,0.15
					c0.14,0.19,0.29,0.42,0.46,0.65l0.82,1.2c0.02,0.04,0,0.15-0.08,0.24l-2.04,1.8c-0.07,0.07-0.24,0.06-0.26,0.04
					c0,0-0.54-0.49-1.08-0.99l-0.25-0.22c-0.12-0.12-0.22-0.22-0.34-0.32l-0.08-0.08l-0.09,0.05c-0.02,0.01-0.04,0.02-0.08,0.05
					l-0.75,0.56c0,0-0.31,0.21-0.79,0.55l-0.14,0.08l0.41,0.87c0.31,0.66,0.61,1.33,0.61,1.33c0.02,0.05-0.02,0.18-0.13,0.25
					l-2.32,1.38c-0.09,0.05-0.22,0.05-0.26,0l-0.88-1.15c-0.09-0.12-0.19-0.25-0.27-0.35l-0.21-0.27l-0.09-0.11l-0.12,0.06
					c-0.01,0-0.04,0.01-0.06,0.04c-0.49,0.22-0.84,0.38-0.84,0.38l-0.84,0.39l-0.19,0.09l0.04,0.13c0.06,0.24,0.14,0.51,0.21,0.78
					l0.36,1.41c0.01,0.06-0.05,0.16-0.16,0.21c-0.01,0.01-0.61,0.31-1.24,0.51c-0.65,0.24-1.27,0.45-1.28,0.45
					c-0.11,0.05-0.22,0.02-0.25-0.04c0,0-0.34-0.65-0.68-1.28l-0.15-0.32c-0.07-0.14-0.14-0.27-0.2-0.39l-0.04-0.09h-0.11
					c-0.04,0-0.06,0-0.08,0.01l-0.14,0.05c-0.21,0.07-0.39,0.13-0.53,0.18c-0.14,0.04-0.22,0.05-0.25,0.06c0,0-0.39,0.11-0.95,0.24
					l-0.14,0.04l0.01,0.14c0.01,0.21,0.04,0.45,0.06,0.68l0.01,0.13c0.05,0.72,0.12,1.45,0.12,1.45c0,0.05-0.08,0.14-0.2,0.18
					l-1.31,0.31l-1.33,0.21c-0.13,0.01-0.24-0.05-0.26-0.09c0,0-0.21-0.69-0.44-1.39c-0.07-0.26-0.16-0.54-0.22-0.76l-0.05-0.14
					l-1.12,0.16c0,0-0.11,0.01-0.25,0.04c-0.09,0-0.24,0.01-0.4,0.02l-0.26,0.01c-0.01,0-0.04,0-0.07,0.01h-0.15l-0.01,0.15
					c-0.02,0.24-0.05,0.52-0.06,0.79l-0.14,1.45c-0.01,0.05-0.09,0.13-0.22,0.14l-1.35,0.06c-0.36,0.02-0.72,0.02-0.95,0.02
					c-0.22-0.01-0.38-0.02-0.39-0.02c-0.13,0-0.22-0.09-0.22-0.14l-0.19-1.45c-0.02-0.16-0.05-0.32-0.07-0.47
					c-0.01-0.12-0.02-0.22-0.04-0.33l-0.02-0.14h-0.14l-0.05-0.01c-0.56-0.02-0.94-0.04-0.94-0.04s-0.36-0.01-0.91-0.05
					c-0.01,0-0.01,0-0.02,0l-0.18-0.08l-0.26,0.96c-0.19,0.71-0.39,1.4-0.39,1.4c0,0.04-0.12,0.08-0.24,0.09l-2.67-0.41
					c-0.12-0.02-0.21-0.12-0.2-0.18c0,0,0.02-0.73,0.06-1.46c0.02-0.28,0.04-0.56,0.04-0.81l0.01-0.09l-0.09-0.05
					c-0.05-0.04-0.09-0.04-0.09-0.04c-0.54-0.13-0.91-0.22-0.91-0.22s-0.36-0.08-0.92-0.22l-0.06-0.02h-0.14l-0.14,0.32
					c-0.08,0.16-0.16,0.34-0.24,0.52c-0.32,0.66-0.64,1.32-0.64,1.32c-0.02,0.05-0.14,0.11-0.26,0.06l-2.55-0.91
					c-0.12-0.04-0.18-0.14-0.18-0.18c0,0,0.16-0.72,0.32-1.42l0.19-0.78l0.07-0.2h-0.2l-0.05-0.01c-0.49-0.24-0.82-0.39-0.82-0.39
					s-0.33-0.15-0.84-0.4l-0.19-0.09l-0.08,0.13c-0.07,0.11-0.15,0.21-0.24,0.33l-1.07,1.52c-0.02,0.04-0.16,0.06-0.28,0
					c0,0-0.14-0.07-0.38-0.19c-0.22-0.08-0.49-0.25-0.8-0.44c-0.58-0.33-1.15-0.68-1.15-0.68c-0.11-0.07-0.15-0.18-0.13-0.22
					c0,0,0.27-0.67,0.55-1.34l0.09-0.22c0.08-0.18,0.15-0.36,0.22-0.53l0.05-0.13l-0.12-0.07c-0.49-0.29-0.84-0.49-0.84-0.49
					c-0.01-0.01-0.33-0.25-0.79-0.6l-0.12-0.09l-0.11,0.11c-0.11,0.11-0.21,0.22-0.33,0.34l-0.24,0.24
					c-0.52,0.51-1.04,1.01-1.04,1.01c-0.07,0.07-0.19,0.02-0.26-0.04c0,0-0.54-0.4-1.08-0.81c-0.29-0.22-0.53-0.41-0.69-0.58
					c-0.19-0.16-0.32-0.28-0.32-0.28c-0.09-0.09-0.12-0.21-0.09-0.26c0,0,0.39-0.61,0.78-1.22c0.16-0.24,0.32-0.48,0.45-0.68
					l0.07-0.15l-0.15-0.09l-0.68-0.64c0,0-0.27-0.25-0.68-0.64l-0.12,0.12l0.08-0.16l-0.09-0.09l-0.12,0.08
					c-0.11,0.07-0.21,0.14-0.33,0.22c-0.11,0.08-0.21,0.15-0.32,0.24c-0.6,0.41-1.2,0.81-1.21,0.82c-0.04,0.02-0.16-0.01-0.24-0.09
					l-1.79-2.02c-0.08-0.09-0.07-0.22-0.05-0.26c0,0,0.49-0.54,0.99-1.07l0.2-0.21c0.13-0.14,0.25-0.27,0.36-0.39l0.14-0.16
					l-0.16-0.08l-0.01-0.02c-0.33-0.44-0.55-0.74-0.55-0.74s-0.21-0.31-0.53-0.73c-0.01-0.02-0.02-0.04-0.02-0.05l-0.07-0.16
					l-0.36,0.18c-0.18,0.08-0.35,0.16-0.52,0.25c-0.67,0.29-1.34,0.61-1.36,0.61c-0.07,0-0.15-0.05-0.21-0.12l-1.38-2.33
					c-0.06-0.12-0.04-0.24,0-0.26l1.14-0.88l0.75-0.56l-0.06-0.13c-0.01-0.01-0.02-0.02-0.04-0.05c-0.24-0.49-0.4-0.85-0.4-0.85
					s-0.15-0.33-0.39-0.85c-0.01-0.01-0.01-0.04-0.02-0.05l-0.06-0.13l-0.14,0.04c-0.22,0.06-0.51,0.14-0.76,0.21
					c-0.71,0.18-1.42,0.36-1.44,0.36c-0.06,0-0.15-0.07-0.2-0.18c0,0-0.31-0.6-0.51-1.22l-0.45-1.27c-0.04-0.13,0-0.24,0.04-0.26
					l1.29-0.68c0.25-0.12,0.51-0.25,0.71-0.35l0.13-0.06l-0.04-0.13c-0.01-0.04-0.02-0.07-0.02-0.08l-0.12-0.34
					c-0.04-0.12-0.07-0.21-0.09-0.27c-0.04-0.16-0.06-0.26-0.06-0.26s-0.11-0.39-0.24-0.96l-0.04-0.14l-0.15,0.01
					c-0.19,0.02-0.4,0.05-0.62,0.07l-1.64,0.12c-0.06,0-0.14-0.08-0.16-0.2l-0.32-1.29c-0.09-0.67-0.2-1.33-0.2-1.33
					c-0.01-0.13,0.05-0.24,0.09-0.26l1.38-0.44l0.29-0.08c0.16-0.06,0.34-0.11,0.49-0.15l0.13-0.05l-0.02-0.14
					c-0.09-0.58-0.14-0.98-0.14-0.98s-0.01-0.09-0.04-0.24c-0.01-0.11-0.01-0.25-0.02-0.41l-0.01-0.26c0-0.02,0-0.05-0.01-0.05
					l0.01-0.16l-0.16-0.01c-0.13-0.01-0.27-0.02-0.41-0.04c-0.13-0.01-0.25-0.01-0.38-0.02l-1.46-0.14
					c-0.04-0.01-0.12-0.09-0.12-0.24c0,0-0.04-0.67-0.07-1.34c-0.05-0.66,0-1.32,0-1.34c0-0.13,0.08-0.22,0.14-0.24l1.64-0.21
					c0.21-0.02,0.42-0.05,0.6-0.07l0.14-0.01l0.01-0.21c0.02-0.56,0.05-0.93,0.05-0.93s0.01-0.38,0.05-0.93l0.01-0.2l-0.13-0.04
					c-0.22-0.07-0.49-0.13-0.76-0.2c-0.69-0.2-1.39-0.38-1.4-0.38c-0.06-0.02-0.11-0.13-0.09-0.26l0.4-2.66
					c0.02-0.13,0.13-0.21,0.18-0.2l1.46,0.05l0.93,0.06l0.07-0.19c0.13-0.55,0.22-0.92,0.22-0.92s0.08-0.36,0.22-0.93l0.01-0.18
					l-0.09-0.05c-0.18-0.08-0.38-0.18-0.59-0.27l-1.46-0.69c-0.05-0.02-0.11-0.14-0.06-0.26l0.89-2.55c0.04-0.11,0.13-0.19,0.2-0.16
					c0,0,0.69,0.14,1.41,0.31c0.14,0.04,0.28,0.07,0.42,0.09c0.12,0.04,0.24,0.06,0.34,0.08l0.13,0.04l0.07-0.12
					c0-0.02,0.01-0.05,0.02-0.08c0.24-0.49,0.39-0.82,0.39-0.82s0.15-0.34,0.39-0.85l-0.14-0.07l0.16,0.02l0.07-0.13l-1.97-1.39
					c-0.04-0.04-0.07-0.15-0.01-0.27c0-0.01,0.07-0.15,0.19-0.39c0.09-0.2,0.24-0.47,0.44-0.8l0.68-1.15
					c0.06-0.09,0.14-0.14,0.24-0.13l1.34,0.54c0.14,0.07,0.29,0.13,0.42,0.19c0.12,0.05,0.22,0.09,0.32,0.14l0.13,0.06l0.58-0.96
					l0.68-0.91l-0.09-0.11c-0.18-0.16-0.38-0.38-0.58-0.56c-0.51-0.52-1.02-1.04-1.02-1.04c-0.04-0.04-0.04-0.15,0.05-0.26
					c0,0,0.4-0.54,0.81-1.08c0.2-0.28,0.41-0.54,0.56-0.71c0.18-0.19,0.29-0.31,0.29-0.31c0.09-0.11,0.22-0.12,0.26-0.11
					c0,0,0.61,0.4,1.22,0.79c0.2,0.14,0.41,0.27,0.6,0.39l0.2,0.12l0.09-0.09c0.01-0.02,0.02-0.04,0.05-0.06
					c0.38-0.4,0.62-0.67,0.62-0.67l0.64-0.68c0.01-0.01,0.05-0.04,0.07-0.08l0.05-0.08l-0.06-0.08c-0.12-0.18-0.25-0.36-0.39-0.55
					l-0.07-0.11c-0.41-0.59-0.82-1.19-0.82-1.19c-0.02-0.04-0.01-0.15,0.08-0.25l2.04-1.79c0.08-0.07,0.25-0.06,0.26-0.05
					c0,0,0.54,0.49,1.07,0.99c0.11,0.11,0.21,0.2,0.32,0.29c0.09,0.09,0.19,0.18,0.27,0.26l0.15,0.08l0.12-0.12
					c0.45-0.32,0.75-0.54,0.75-0.54s0.31-0.22,0.78-0.55c0.01-0.01,0.04-0.04,0.05-0.05l0.09-0.08l-0.06-0.11
					c-0.05-0.11-0.11-0.22-0.16-0.35c-0.06-0.12-0.12-0.25-0.18-0.36c-0.31-0.67-0.61-1.34-0.61-1.34
					c-0.02-0.05,0.02-0.16,0.12-0.24l2.33-1.38c0.09-0.06,0.24-0.05,0.26-0.01l0.88,1.15c0.16,0.22,0.33,0.45,0.47,0.64l0.11,0.18
					l0.14-0.14l0.04-0.02c0.49-0.24,0.82-0.39,0.82-0.39c0-0.01,0.33-0.16,0.84-0.39c0.02-0.01,0.05-0.02,0.07-0.04l0.13-0.06
					l-0.04-0.13c-0.07-0.24-0.14-0.51-0.21-0.78c-0.19-0.71-0.36-1.41-0.36-1.41c-0.01-0.05,0.05-0.16,0.18-0.22
					c0,0,0.6-0.29,1.22-0.49c0.64-0.22,1.27-0.45,1.27-0.45c0.12-0.04,0.25,0,0.27,0.04c0,0,0.33,0.65,0.66,1.28
					c0.13,0.26,0.26,0.51,0.36,0.73l0.11,0.2l0.14-0.14c0,0,0,0,0.01,0c0.15-0.06,0.29-0.11,0.41-0.14l1.56-0.41l-0.01-0.14
					c-0.01-0.24-0.05-0.52-0.07-0.8l-0.12-1.46c0-0.04,0.07-0.14,0.2-0.16l1.31-0.32c0.66-0.11,1.33-0.2,1.33-0.2
					c0.13-0.01,0.24,0.05,0.26,0.08c0,0,0.21,0.71,0.42,1.39l0.07,0.21c0.06,0.2,0.12,0.39,0.16,0.56l0.05,0.14l0.14-0.02
					c0.58-0.08,0.96-0.15,0.96-0.15c0.01,0,0.11,0,0.26-0.02l0.18-0.01c0.14-0.01,0.31-0.02,0.48-0.04l0.21,0.01l0.01-0.16
					c0.02-0.24,0.06-0.52,0.07-0.8c0.07-0.72,0.14-1.45,0.14-1.45c0-0.05,0.09-0.12,0.22-0.13l1.36-0.06
					c0.34-0.02,0.68-0.02,0.91-0.02c0.25,0.01,0.41,0.02,0.42,0.02c0.12,0,0.22,0.07,0.22,0.13l0.2,1.45
					c0.02,0.2,0.05,0.4,0.06,0.58l0.05,0.36h0.2c0.55,0.04,0.93,0.05,0.93,0.05c0.01,0,0.39,0.02,0.94,0.06h0.19l0.04-0.12
					c0.07-0.24,0.14-0.49,0.21-0.78l0.39-1.4c0.01-0.04,0.09-0.09,0.24-0.08l2.59,0.38l-3.14,10.17c-1.24-0.18-2.49-0.27-3.78-0.27
					c-14.34,0-25.97,11.63-25.97,25.97c0,14.34,11.63,25.97,25.97,25.97s25.97-11.63,25.97-25.97c0-9.31-4.89-17.47-12.26-22.06
					l4.02-9.85c0.56,0.34,1.08,0.66,1.08,0.66c0.12,0.07,0.16,0.19,0.14,0.24c0,0-0.27,0.67-0.55,1.34
					c-0.11,0.26-0.22,0.52-0.32,0.73l-0.06,0.13l0.95,0.6c0,0,0.33,0.24,0.81,0.58l0.12,0.08l0.09-0.09
					c0.08-0.07,0.16-0.16,0.26-0.26s0.2-0.2,0.31-0.31l1.04-1.02c0.02-0.02,0.18-0.04,0.26,0.04c0,0,0.54,0.41,1.11,0.84
					c0.25,0.19,0.51,0.39,0.67,0.55l0.32,0.28c0.09,0.09,0.12,0.21,0.09,0.26l-0.78,1.24l-0.06,0.08c-0.14,0.21-0.27,0.41-0.39,0.59
					l-0.07,0.18l0.15,0.08c0.41,0.38,0.68,0.64,0.68,0.64s0.27,0.25,0.67,0.62l0.08,0.19l0.35-0.25c0.15-0.11,0.31-0.22,0.48-0.33
					c0.59-0.41,1.18-0.82,1.18-0.82c0.05-0.04,0.19,0.01,0.26,0.08l1.79,2.04c0.08,0.08,0.08,0.21,0.04,0.26c0,0-0.48,0.53-1,1.09
					c-0.19,0.2-0.38,0.39-0.53,0.56l-0.08,0.08l0.05,0.09c0.02,0.05,0.05,0.07,0.06,0.08c0.33,0.46,0.54,0.76,0.54,0.76
					s0.22,0.31,0.54,0.73c0.01,0.02,0.04,0.06,0.06,0.09l0.09,0.09l0.11-0.06c0.19-0.09,0.4-0.2,0.62-0.29l0.09-0.05
					c0.67-0.32,1.34-0.61,1.38-0.62c0.06,0.01,0.14,0.05,0.2,0.13l1.36,2.32c0.07,0.12,0.05,0.24,0.01,0.27c0,0-0.58,0.45-1.15,0.87
					c-0.19,0.16-0.39,0.31-0.56,0.44l-0.16,0.13l0.05,0.12c0.01,0.01,0.02,0.04,0.04,0.06c0.25,0.52,0.4,0.85,0.4,0.85l0.39,0.85
					c0.01,0.02,0.02,0.05,0.05,0.08l0.06,0.11l0.13-0.04c0.21-0.07,0.48-0.14,0.75-0.22c0.72-0.19,1.42-0.36,1.44-0.36
					C149.25,150.5,149.35,150.57,149.39,150.67z"/>
			</g>
			<g>
				<path class="st4" d="M122.75,129.15l-2.59-0.38c-0.14-0.01-0.22,0.05-0.24,0.08l-0.39,1.4c-0.07,0.28-0.14,0.54-0.21,0.78
					l-0.04,0.12h-0.19c-0.55-0.04-0.93-0.06-0.94-0.06c0,0-0.38-0.01-0.93-0.05h-0.2l-0.05-0.36c-0.01-0.18-0.04-0.38-0.06-0.58
					l-0.2-1.45c0-0.06-0.11-0.13-0.22-0.13c-0.01,0-0.18-0.01-0.42-0.02c-0.22,0-0.56,0-0.91,0.02l-1.36,0.06
					c-0.13,0.01-0.22,0.08-0.22,0.13c0,0-0.07,0.73-0.14,1.45c-0.01,0.28-0.05,0.56-0.07,0.8l-0.01,0.16l-0.21-0.01
					c-0.18,0.01-0.34,0.02-0.48,0.04l-0.18,0.01c-0.15,0.02-0.25,0.02-0.26,0.02c0,0-0.39,0.07-0.96,0.15l-0.14,0.02l-0.05-0.14
					c-0.05-0.18-0.11-0.36-0.16-0.56l-0.07-0.21c-0.21-0.68-0.42-1.39-0.42-1.39c-0.02-0.04-0.13-0.09-0.26-0.08
					c0,0-0.67,0.09-1.33,0.2l-1.31,0.32c-0.13,0.02-0.2,0.13-0.2,0.16l0.12,1.46c0.02,0.28,0.06,0.56,0.07,0.8l0.01,0.14l-1.56,0.41
					c-0.12,0.04-0.26,0.08-0.41,0.14c-0.01,0-0.01,0-0.01,0l-0.14,0.14l-0.11-0.2c-0.11-0.22-0.24-0.47-0.36-0.73
					c-0.33-0.64-0.66-1.28-0.66-1.28c-0.02-0.04-0.15-0.07-0.27-0.04c0,0-0.64,0.22-1.27,0.45c-0.62,0.2-1.22,0.49-1.22,0.49
					c-0.13,0.06-0.19,0.18-0.18,0.22c0,0,0.18,0.71,0.36,1.41c0.07,0.27,0.14,0.54,0.21,0.78l0.04,0.13l-0.13,0.06
					c-0.02,0.01-0.05,0.02-0.07,0.04c-0.51,0.22-0.84,0.38-0.84,0.39c0,0-0.33,0.15-0.82,0.39l-0.04,0.02l-0.14,0.14l-0.11-0.18
					c-0.14-0.19-0.31-0.41-0.47-0.64l-0.88-1.15c-0.02-0.04-0.16-0.05-0.26,0.01l-2.33,1.38c-0.09,0.07-0.14,0.19-0.12,0.24
					c0,0,0.31,0.67,0.61,1.34c0.06,0.12,0.12,0.25,0.18,0.36c0.06,0.13,0.12,0.25,0.16,0.35l0.06,0.11l-0.09,0.08
					c-0.01,0.01-0.04,0.04-0.05,0.05c-0.47,0.33-0.78,0.55-0.78,0.55s-0.31,0.22-0.75,0.54l-0.12,0.12l-0.15-0.08
					c-0.08-0.08-0.18-0.16-0.27-0.26c-0.11-0.09-0.21-0.19-0.32-0.29c-0.53-0.49-1.07-0.99-1.07-0.99
					c-0.01-0.01-0.18-0.02-0.26,0.05l-2.04,1.79c-0.09,0.09-0.11,0.21-0.08,0.25c0,0,0.41,0.6,0.82,1.19l0.07,0.11
					c0.14,0.19,0.27,0.38,0.39,0.55l0.06,0.08l-0.05,0.08c-0.02,0.05-0.06,0.07-0.07,0.08l-0.64,0.68c0,0-0.25,0.27-0.62,0.67
					c-0.02,0.02-0.04,0.04-0.05,0.06l-0.09,0.09l-0.2-0.12c-0.19-0.12-0.4-0.25-0.6-0.39c-0.61-0.39-1.22-0.79-1.22-0.79
					c-0.04-0.01-0.16,0-0.26,0.11c0,0-0.12,0.12-0.29,0.31c-0.15,0.16-0.36,0.42-0.56,0.71c-0.41,0.54-0.81,1.08-0.81,1.08
					c-0.08,0.11-0.08,0.22-0.05,0.26c0,0,0.52,0.52,1.02,1.04c0.2,0.19,0.4,0.4,0.58,0.56l0.09,0.11l-0.68,0.91l-0.58,0.96
					l-0.13-0.06c-0.09-0.05-0.2-0.09-0.32-0.14c-0.13-0.06-0.28-0.12-0.42-0.19l-1.34-0.54c-0.09-0.01-0.18,0.04-0.24,0.13
					l-0.68,1.15c-0.2,0.33-0.34,0.6-0.44,0.8c-0.12,0.24-0.19,0.38-0.19,0.39c-0.06,0.12-0.02,0.24,0.01,0.27l1.97,1.39l-0.07,0.13
					l-0.16-0.02l0.14,0.07c-0.24,0.51-0.39,0.85-0.39,0.85s-0.15,0.33-0.39,0.82c-0.01,0.04-0.02,0.06-0.02,0.08l-0.07,0.12
					l-0.13-0.04c-0.11-0.02-0.22-0.05-0.34-0.08c-0.14-0.02-0.28-0.06-0.42-0.09c-0.72-0.16-1.41-0.31-1.41-0.31
					c-0.07-0.02-0.16,0.06-0.2,0.16l-0.89,2.55c-0.05,0.12,0.01,0.24,0.06,0.26l1.46,0.69c0.21,0.09,0.41,0.19,0.59,0.27l0.09,0.05
					l-0.01,0.18c-0.14,0.56-0.22,0.93-0.22,0.93s-0.09,0.36-0.22,0.92l-0.07,0.19l-0.93-0.06l-1.46-0.05
					c-0.05-0.01-0.15,0.07-0.18,0.2l-0.4,2.66c-0.01,0.13,0.04,0.24,0.09,0.26c0.01,0,0.71,0.18,1.4,0.38
					c0.27,0.07,0.54,0.13,0.76,0.2l0.13,0.04l-0.01,0.2c-0.04,0.55-0.05,0.93-0.05,0.93s-0.02,0.36-0.05,0.93l-0.01,0.21l-0.14,0.01
					c-0.18,0.02-0.39,0.05-0.6,0.07l-1.64,0.21c-0.06,0.01-0.14,0.11-0.14,0.24c0,0.02-0.05,0.68,0,1.34
					c0.04,0.67,0.07,1.34,0.07,1.34c0,0.14,0.08,0.22,0.12,0.24l1.46,0.14c0.13,0.01,0.25,0.01,0.38,0.02
					c0.14,0.01,0.28,0.02,0.41,0.04l0.16,0.01l-0.01,0.16c0.01,0,0.01,0.02,0.01,0.05l0.01,0.26c0.01,0.16,0.01,0.31,0.02,0.41
					c0.02,0.14,0.04,0.24,0.04,0.24s0.05,0.4,0.14,0.98l0.02,0.14l-0.13,0.05c-0.15,0.05-0.33,0.09-0.49,0.15l-0.29,0.08l-1.38,0.44
					c-0.05,0.02-0.11,0.13-0.09,0.26c0,0,0.11,0.66,0.2,1.33l0.32,1.29c0.02,0.12,0.11,0.2,0.16,0.2l1.64-0.12
					c0.22-0.02,0.44-0.05,0.62-0.07l0.15-0.01l0.04,0.14c0.13,0.58,0.24,0.96,0.24,0.96s0.02,0.09,0.06,0.26
					c0.02,0.06,0.06,0.15,0.09,0.27l0.12,0.34c0,0.01,0.01,0.05,0.02,0.08l0.04,0.13l-0.13,0.06c-0.2,0.11-0.46,0.24-0.71,0.35
					l-1.29,0.68c-0.04,0.02-0.07,0.13-0.04,0.26l0.45,1.27c0.2,0.62,0.51,1.22,0.51,1.22c0.05,0.11,0.14,0.18,0.2,0.18
					c0.01,0,0.73-0.19,1.44-0.36c0.26-0.07,0.54-0.15,0.76-0.21l0.14-0.04l0.06,0.13c0.01,0.01,0.01,0.04,0.02,0.05
					c0.24,0.52,0.39,0.85,0.39,0.85s0.16,0.35,0.4,0.85c0.01,0.02,0.02,0.04,0.04,0.05l0.06,0.13l-0.75,0.56l-1.14,0.88
					c-0.04,0.02-0.06,0.14,0,0.26l1.38,2.33c0.06,0.07,0.14,0.12,0.21,0.12c0.02,0,0.69-0.32,1.36-0.61
					c0.16-0.08,0.34-0.16,0.52-0.25l0.36-0.18l0.07,0.16c0,0.01,0.01,0.02,0.02,0.05c0.32,0.42,0.53,0.73,0.53,0.73
					s0.22,0.31,0.55,0.74l0.01,0.02l0.16,0.08l-0.14,0.16c-0.12,0.12-0.24,0.25-0.36,0.39l-0.2,0.21c-0.49,0.53-0.99,1.07-0.99,1.07
					c-0.02,0.04-0.04,0.16,0.05,0.26l1.79,2.02c0.07,0.08,0.2,0.12,0.24,0.09c0.01-0.01,0.61-0.41,1.21-0.82
					c0.11-0.08,0.21-0.15,0.32-0.24c0.12-0.08,0.22-0.15,0.33-0.22l0.12-0.08l0.09,0.09l-0.08,0.16l0.12-0.12
					c0.41,0.39,0.68,0.64,0.68,0.64l0.68,0.64l0.15,0.09l-0.07,0.15c-0.13,0.2-0.28,0.45-0.45,0.68c-0.39,0.61-0.78,1.22-0.78,1.22
					c-0.02,0.05,0,0.16,0.09,0.26c0,0,0.13,0.12,0.32,0.28c0.16,0.16,0.4,0.35,0.69,0.58c0.54,0.41,1.08,0.81,1.08,0.81
					c0.07,0.06,0.19,0.11,0.26,0.04c0,0,0.52-0.51,1.04-1.01L95.5,193c0.12-0.12,0.22-0.24,0.33-0.34l0.11-0.11l0.12,0.09
					c0.46,0.35,0.78,0.59,0.79,0.6c0,0,0.34,0.2,0.84,0.49l0.12,0.07l-0.05,0.13c-0.07,0.16-0.14,0.35-0.22,0.53l-0.09,0.22
					c-0.28,0.67-0.55,1.34-0.55,1.34c-0.02,0.05,0.02,0.15,0.13,0.22c0,0,0.58,0.35,1.15,0.68c0.31,0.19,0.58,0.35,0.8,0.44
					c0.24,0.12,0.38,0.19,0.38,0.19c0.12,0.06,0.26,0.04,0.28,0l1.07-1.52c0.08-0.12,0.16-0.22,0.24-0.33l0.08-0.13l0.19,0.09
					c0.51,0.25,0.84,0.4,0.84,0.4s0.33,0.15,0.82,0.39l0.05,0.01h0.2l-0.07,0.2l-0.19,0.78c-0.15,0.71-0.32,1.42-0.32,1.42
					c0,0.04,0.06,0.14,0.18,0.18l2.55,0.91c0.12,0.05,0.24-0.01,0.26-0.06c0,0,0.32-0.66,0.64-1.32c0.07-0.18,0.15-0.35,0.24-0.52
					l0.14-0.32h0.14l0.06,0.02c0.55,0.14,0.92,0.22,0.92,0.22s0.36,0.09,0.91,0.22c0,0,0.05,0,0.09,0.04l0.09,0.05l-0.01,0.09
					c0,0.25-0.01,0.53-0.04,0.81c-0.04,0.73-0.06,1.46-0.06,1.46c-0.01,0.06,0.08,0.15,0.2,0.18l2.67,0.41
					c0.12-0.01,0.24-0.06,0.24-0.09c0,0,0.2-0.69,0.39-1.4l0.26-0.96l0.18,0.08c0.01,0,0.01,0,0.02,0c0.54,0.04,0.91,0.05,0.91,0.05
					s0.38,0.01,0.94,0.04l0.05,0.01h0.14l0.02,0.14c0.01,0.11,0.02,0.21,0.04,0.33c0.02,0.15,0.05,0.31,0.07,0.47l0.19,1.45
					c0,0.05,0.09,0.14,0.22,0.14c0.01,0,0.16,0.01,0.39,0.02c0.24,0,0.59,0,0.95-0.02l1.35-0.06c0.13-0.01,0.21-0.09,0.22-0.14
					l0.14-1.45c0.01-0.27,0.04-0.55,0.06-0.79l0.01-0.15h0.15c0.04-0.01,0.06-0.01,0.07-0.01l0.26-0.01
					c0.16-0.01,0.31-0.02,0.4-0.02c0.14-0.02,0.25-0.04,0.25-0.04l1.12-0.16l0.05,0.14c0.06,0.22,0.15,0.51,0.22,0.76
					c0.22,0.69,0.44,1.39,0.44,1.39c0.02,0.05,0.13,0.11,0.26,0.09l1.33-0.21l1.31-0.31c0.12-0.04,0.2-0.13,0.2-0.18
					c0,0-0.07-0.73-0.12-1.45l-0.01-0.13c-0.02-0.24-0.05-0.47-0.06-0.68l-0.01-0.14l0.14-0.04c0.56-0.13,0.95-0.24,0.95-0.24
					c0.02-0.01,0.11-0.02,0.25-0.06c0.14-0.05,0.32-0.11,0.53-0.18l0.14-0.05c0.02-0.01,0.05-0.01,0.08-0.01h0.11l0.04,0.09
					c0.06,0.12,0.13,0.25,0.2,0.39l0.15,0.32c0.34,0.64,0.68,1.28,0.68,1.28c0.02,0.06,0.14,0.08,0.25,0.04
					c0.01,0,0.64-0.21,1.28-0.45c0.62-0.2,1.22-0.49,1.24-0.51c0.12-0.05,0.18-0.15,0.16-0.21l-0.36-1.41
					c-0.07-0.27-0.15-0.54-0.21-0.78l-0.04-0.13l0.19-0.09l0.84-0.39c0,0,0.34-0.15,0.84-0.38c0.02-0.02,0.05-0.04,0.06-0.04
					l0.12-0.06l0.09,0.11l0.21,0.27c0.08,0.11,0.18,0.24,0.27,0.35l0.88,1.15c0.04,0.05,0.16,0.05,0.26,0l2.32-1.38
					c0.11-0.07,0.15-0.2,0.13-0.25c0,0-0.31-0.67-0.61-1.33l-0.41-0.87l0.14-0.08c0.48-0.34,0.79-0.55,0.79-0.55l0.75-0.56
					c0.05-0.02,0.06-0.04,0.08-0.05l0.09-0.05l0.08,0.08c0.12,0.09,0.22,0.2,0.34,0.32l0.25,0.22c0.54,0.49,1.08,0.99,1.08,0.99
					c0.02,0.02,0.19,0.04,0.26-0.04l2.04-1.8c0.08-0.08,0.11-0.2,0.08-0.24l-0.82-1.2c-0.16-0.22-0.32-0.46-0.46-0.65l-0.12-0.15
					l0.16-0.09c0.39-0.42,0.65-0.68,0.65-0.68s0.26-0.28,0.62-0.69c0.04-0.02,0.06-0.06,0.11-0.07l0.08-0.05l0.75,0.49l1.22,0.78
					c0.08,0.05,0.19-0.01,0.26-0.09c0,0,0.12-0.13,0.28-0.32c0.15-0.16,0.34-0.39,0.58-0.71l0.81-1.07
					c0.08-0.11,0.08-0.22,0.05-0.26c0,0-0.52-0.53-1.02-1.04c-0.11-0.11-0.21-0.21-0.32-0.32c-0.08-0.08-0.18-0.16-0.26-0.25
					l-0.09-0.11l0.08-0.11c0.35-0.48,0.6-0.8,0.6-0.8l0.58-0.96l0.44,0.19c0.14,0.06,0.28,0.12,0.44,0.19
					c0.67,0.27,1.34,0.55,1.34,0.55c0.07,0.02,0.16-0.04,0.22-0.14l0.69-1.15c0.21-0.34,0.34-0.6,0.42-0.79
					c0.12-0.24,0.2-0.39,0.2-0.39c0.06-0.12,0.02-0.25-0.01-0.27c0,0-0.6-0.42-1.19-0.86c-0.15-0.09-0.31-0.2-0.46-0.31l-0.38-0.26
					l0.14-0.14"/>
				<path class="st4" d="M146.51,179.67h-0.01c0,0,0.01-0.01,0.01-0.02c0.22-0.49,0.39-0.82,0.4-0.82c0,0,0.14-0.34,0.38-0.85
					l0.08-0.2l0.34,0.09c0.18,0.05,0.38,0.09,0.56,0.13c0.71,0.15,1.42,0.32,1.42,0.32c0.06,0,0.15-0.07,0.19-0.18l0.89-2.55
					c0.05-0.11,0-0.22-0.06-0.25c0-0.01-0.66-0.32-1.32-0.64c-0.18-0.08-0.35-0.16-0.52-0.24l-0.31-0.14v-0.11
					c0-0.05,0-0.09,0.04-0.14c0.12-0.51,0.2-0.87,0.2-0.87s0.09-0.35,0.24-0.91v-0.16l0.18-0.02c0.26,0.01,0.53,0.04,0.8,0.04
					l1.46,0.08c0.06,0,0.16-0.09,0.19-0.22l0.39-2.66c0.02-0.13-0.04-0.22-0.08-0.24c0,0-0.69-0.21-1.39-0.39l-0.25-0.07
					c-0.19-0.05-0.36-0.09-0.53-0.13l-0.13-0.04v-0.14c0-0.02,0.01-0.06,0.01-0.08c0.02-0.55,0.05-0.91,0.06-0.92
					c0,0,0-0.38,0.04-0.93l0.01-0.19l0.13-0.02c0.25-0.04,0.52-0.07,0.81-0.11l1.44-0.19c0.06,0,0.13-0.11,0.14-0.24
					c0-0.01,0.05-0.68,0-1.33l-0.06-1.35c-0.01-0.13-0.09-0.22-0.14-0.22c0,0-0.72-0.07-1.45-0.13c-0.28-0.02-0.55-0.06-0.8-0.08
					l-0.15-0.01v-0.22c-0.01-0.26-0.04-0.48-0.05-0.65c-0.01-0.15-0.02-0.25-0.02-0.25s-0.05-0.39-0.14-0.98l-0.02-0.15l0.14-0.04
					c0.12-0.04,0.25-0.07,0.39-0.12c0.13-0.04,0.26-0.08,0.38-0.12c0.69-0.21,1.39-0.44,1.39-0.44c0.05-0.01,0.11-0.12,0.08-0.25
					l-0.19-1.34c-0.16-0.64-0.32-1.29-0.32-1.29c-0.02-0.12-0.12-0.2-0.16-0.2l-1.47,0.12c-0.28,0.02-0.55,0.06-0.8,0.07l-0.14,0.01
					l-0.33-1.34c-0.05-0.14-0.12-0.36-0.2-0.61l-0.09-0.21l0.14-0.07c0.19-0.09,0.4-0.2,0.61-0.31l0.11-0.06
					c0.64-0.33,1.28-0.67,1.28-0.67c0.05-0.02,0.08-0.14,0.05-0.26l-0.45-1.27c-0.21-0.64-0.51-1.24-0.51-1.24
					c-0.05-0.11-0.14-0.18-0.2-0.18c-0.01,0-0.72,0.18-1.44,0.36c-0.27,0.08-0.54,0.15-0.75,0.22l-0.13,0.04l-0.06-0.11
					c-0.02-0.04-0.04-0.06-0.05-0.08l-0.39-0.85c0,0-0.15-0.33-0.4-0.85c-0.01-0.02-0.02-0.05-0.04-0.06l-0.05-0.12l0.16-0.13
					c0.18-0.13,0.38-0.27,0.56-0.44c0.58-0.42,1.15-0.87,1.15-0.87c0.04-0.04,0.06-0.15-0.01-0.27l-1.36-2.32
					c-0.06-0.08-0.14-0.12-0.2-0.13c-0.04,0.01-0.71,0.31-1.38,0.62l-0.09,0.05c-0.22,0.09-0.44,0.2-0.62,0.29l-0.11,0.06
					l-0.09-0.09c-0.02-0.04-0.05-0.07-0.06-0.09c-0.32-0.42-0.54-0.73-0.54-0.73s-0.21-0.31-0.54-0.76
					c-0.01-0.01-0.04-0.04-0.06-0.08l-0.05-0.09l0.08-0.08c0.15-0.18,0.34-0.36,0.53-0.56c0.52-0.56,1-1.09,1-1.09
					c0.05-0.05,0.05-0.18-0.04-0.26l-1.79-2.04c-0.07-0.07-0.21-0.12-0.26-0.08c0,0-0.59,0.41-1.18,0.82
					c-0.18,0.11-0.33,0.22-0.48,0.33l-0.35,0.25l-0.08-0.19c-0.4-0.38-0.67-0.62-0.67-0.62s-0.27-0.26-0.68-0.64l-0.15-0.08
					l0.07-0.18c0.12-0.18,0.25-0.38,0.39-0.59l0.06-0.08l0.78-1.24c0.02-0.05,0-0.16-0.09-0.26l-0.32-0.28
					c-0.16-0.16-0.42-0.36-0.67-0.55c-0.56-0.42-1.11-0.84-1.11-0.84c-0.08-0.07-0.24-0.06-0.26-0.04l-1.04,1.02
					c-0.11,0.11-0.21,0.21-0.31,0.31s-0.18,0.19-0.26,0.26l-0.09,0.09l-0.12-0.08c-0.48-0.34-0.81-0.58-0.81-0.58l-0.95-0.6
					l0.06-0.13c0.09-0.21,0.21-0.47,0.32-0.73c0.28-0.67,0.55-1.34,0.55-1.34c0.02-0.05-0.02-0.16-0.14-0.24
					c0,0-0.52-0.32-1.08-0.66"/>
				<path class="st4" d="M112.85,155.06c0.65-0.2,1.33-0.34,2.02-0.4"/>
				<path class="st4" d="M106.12,161.33c1.04-2.77,3.24-4.98,6-6.02c0.24-0.09,0.47-0.18,0.72-0.25"/>
				<path class="st4" d="M112.12,174.73c-2.66-1.01-4.8-3.09-5.9-5.72c-0.04-0.09-0.07-0.19-0.11-0.28
					c-0.45-1.15-0.68-2.4-0.68-3.71c0-1.29,0.24-2.54,0.67-3.68"/>
				<path class="st4" d="M123.42,157.91c0.92,0.98,1.65,2.14,2.13,3.42c0.44,1.14,0.67,2.39,0.67,3.68c0,1.16-0.19,2.27-0.54,3.32
					c-0.07,0.22-0.16,0.45-0.25,0.67c-1.02,2.47-2.98,4.46-5.41,5.53c-0.15,0.07-0.31,0.14-0.47,0.2c-1.15,0.44-2.41,0.68-3.72,0.68
					c-1.31,0-2.57-0.25-3.72-0.68"/>
				<path class="st4" d="M98.18,152.56c1.4-1.98,3.12-3.71,5.08-5.09c2.58-1.87,5.59-3.17,8.85-3.73c1.21-0.21,2.45-0.32,3.72-0.32
					c0.84,0,1.66,0.05,2.47,0.14"/>
				<path class="st4" d="M127.86,147.06c2.14,1.45,4.01,3.26,5.5,5.34c1.88,2.6,3.2,5.64,3.77,8.92c0.21,1.2,0.32,2.44,0.32,3.69
					c0,1.36-0.13,2.69-0.38,3.99c-0.58,3.18-1.87,6.11-3.71,8.62c-1.39,1.95-3.12,3.66-5.08,5.05c-2.42,1.72-5.22,2.94-8.24,3.53
					c-1.36,0.27-2.77,0.41-4.2,0.41c-4.54,0-8.75-1.4-12.24-3.8c-2.05-1.4-3.84-3.15-5.28-5.17c-1.84-2.53-3.12-5.46-3.71-8.65
					c-0.25-1.29-0.38-2.62-0.38-3.99c0-1.26,0.11-2.49,0.32-3.69c0.55-3.21,1.82-6.19,3.64-8.75"/>
				<path class="st4" d="M129.54,142.95c7.37,4.59,12.26,12.76,12.26,22.06c0,14.34-11.63,25.97-25.97,25.97
					s-25.97-11.63-25.97-25.97c0-14.34,11.63-25.97,25.97-25.97c1.28,0,2.54,0.09,3.78,0.27"/>
				<polyline class="st4" points="137.06,161.33 125.98,161.33 125.55,161.33 				"/>
				<polyline class="st4" points="106.12,161.33 106.1,161.33 94.61,161.33 				"/>
				<polyline class="st4" points="137.06,169.01 126.24,169.01 125.44,169.01 				"/>
				<polyline class="st4" points="106.22,169.01 105.87,169.01 94.61,169.01 				"/>
				<polyline class="st4" points="106.12,161.33 98.18,152.57 98.18,152.56 				"/>
				<polyline class="st4" points="112.85,155.06 112.83,155.06 112.12,154.49 103.27,147.46 103.26,147.45 				"/>
				<polyline class="st4" points="112.12,186.23 112.12,174.74 112.12,174.73 103.6,182.82 				"/>
				<polyline class="st4" points="120.02,174.54 120.02,175.16 120.02,186.13 				"/>
				<polyline class="st4" points="133.37,152.39 133.36,152.4 125.98,161.33 125.68,161.69 				"/>
				<polyline class="st4" points="112.12,143.73 112.12,154.49 112.12,155.31 				"/>
				<polyline class="st4" points="106.12,168.72 105.87,169.01 98.31,177.65 				"/>
				<polyline class="st4" points="119.54,174.73 119.55,174.74 120.02,175.16 128.27,182.68 				"/>
				<polyline class="st4" points="125.68,168.34 126.24,169.01 133.36,177.63 133.37,177.64 				"/>
				<path class="st4" d="M127.84,122.83l-2.28-2.73l-2.8,9.05l-3.14,10.17l-1.31,4.24l-3.44,11.11l-2.89,9.37
					c-0.64,2.06,0.39,4.25,2.38,5.07c0.52,0.21,1.05,0.32,1.58,0.32c1.64,0,3.19-0.98,3.85-2.59l3.65-8.92l4.44-10.85l1.68-4.11
					l4.02-9.85l0.94-2.29l-1.76-2.11L127.84,122.83z"/>
				<polyline class="st4" points="249.33,155.04 237.42,144.71 252.62,143.94 263.53,143.4 274.83,151.62 289.32,162.17 
					267.65,161.22 255.86,160.7 249.34,155.04 				"/>
				<path class="st4" d="M274.83,151.62l25.96,9.07c2.37,0.82,3.66,3.38,2.92,5.77c-0.61,2-2.46,3.29-4.46,3.29
					c-0.4,0-0.82-0.05-1.24-0.16l-30.36-8.37"/>
				<polygon class="st2" points="253.14,128.51 253.14,131.74 303.91,116.56 303.91,103.87 253.14,118.84 253.14,122.32 				"/>
				<path class="st2" d="M136.21,111.15v-1.85c0-8.1,4.81-15.07,11.73-18.21c2.52-1.15,5.32-1.79,8.27-1.79h5.12h12.73h26.02"/>
				<path class="st2" d="M278.51,93.17l23.32-2.82l5.82,6.45l-44.28,9.15l-13.14,9.15l-5.09-0.07l-5.98-0.07l-25.13-0.34
					l-28.36-0.38l-14.51-0.19c0,0-1.72,7.98-5.09,11.19c-0.86,0.82-1.82,1.33-2.89,1.32c-5.27-0.06-10.83-0.38-10.83-0.38
					l-8.99-8.38l-4.02-3.75l-3.12-2.91"/>
				<polyline class="st4" points="200.08,89.3 206.16,92.76 219.44,100.32 277.25,93.32 278.51,93.17 				"/>
				<path class="st4" d="M143.36,117.81c0,0,7.17-18.89,62.8-25.05"/>
				<path class="st2" d="M200.08,89.3c0,0,6.57-2.66,11.19-1.46c4.62,1.19,9.99,4.02,13.13,4.92c3.65,0.29,39.39-3.75,47.88-3.46
					c4.12,0.18,4.97,4.02,4.97,4.02"/>
				<path class="st4" d="M161.34,89.3c0-2.31,1.87-4.18,4.19-4.18h4.35c2.32,0,4.19,1.87,4.19,4.18"/>
				<path class="st4" d="M127.84,122.83l0.8-5.02h-2.41l-18.18-7l-13.81,4.44c-1.98-1.62-7.85-1.94-7.85-1.94s17.07-7.82,21.66-8.02
					c4.38-0.18,21.7,4.92,23.29,5.39c0.08,0.02,0.12,0.04,0.12,0.04"/>
				<polyline class="st4" points="128.64,117.81 131.33,110.67 136.21,97.76 142.96,79.91 150.62,83.11 147.95,91.09 				"/>
				<path class="st2" d="M136.21,97.76c0,0-1.85-6.8-9.01-11.93c0.76-8.97,2.44-16.3,4.91-22.22c4.14-9.94,10.5-15.91,18.51-18.94
					v6.67l-7.26,7.81l-0.29,15.11l-0.11,5.65"/>
				<path class="st4" d="M132.11,63.61c0,0,4.11,0.81,4.11,17.49c0,0-1.62,2.28-9.01,4.73"/>
				<path class="st4" d="M143.06,74.26c0,0,2.41-0.31,4.14,0.25c0.2,0.06,0.38,0.13,0.55,0.21c0.65,0.32,1.92,0.95,3.25,1.64
					c2.21,1.12,4.59,2.33,4.59,2.33l-1.91,5.19l-3.07-0.76"/>
				<polyline class="st4" points="158.03,67.62 154.52,68.07 147.31,74.18 				"/>
				<polyline class="st4" points="151.01,76.34 156.09,72.46 160.07,71.64 				"/>
				<polygon class="st4" points="158.58,67.42 158.03,65.87 162.64,65.74 176.73,60.4 178.2,64.67 164.61,70.15 160.68,73.34 
					160.07,71.64 				"/>
				<polyline class="st4" points="139.33,114.06 139.04,114.73 135.66,122.42 132.99,128.51 				"/>
				<polyline class="st4" points="135.66,122.42 155.59,140.35 155.14,136.14 139.04,114.73 138.91,114.55 				"/>
				<path class="st2" d="M229.55,149.06c1.92-5,4.34-8.91,7.15-11.93c3.12-3.35,6.72-5.62,10.68-7.08c1.85-0.68,3.77-1.19,5.75-1.54
					"/>
				<path class="st2" d="M166.07,125.25c0,0,11.73,27.31,19.29,30.71c7.55,3.4,24.07,7.35,40.47,7.79
					c0.87-5.71,2.13-10.57,3.72-14.68"/>
				<path class="st4" d="M185.66,114.06c0,0.06,0.01,0.13,0.01,0.19c0.46,5.87,1.14,11.41,2.07,16.56c0,0.01,0,0.01,0,0.02
					c0.04,0.14,0.06,0.28,0.08,0.42c1.53,8.25,3.72,15.48,6.7,21.53c3.85,1.51,8.11,2.65,12.57,3.61c4.35,0.94,8.88,1.71,13.41,2.48
					c0.54-3.95,1.49-7.73,2.88-11.32c1.77-4.57,4.27-8.84,7.6-12.74"/>
				<path class="st4" d="M207.09,156.38c2.61-4.26,3.54-7.95,3.45-11.1c-0.26-9.18-9.23-13.73-10.83-14.39
					c-0.18-0.07-0.41-0.13-0.71-0.19c-2.48-0.42-8.62-0.08-11.26,0.09"/>
				<polyline class="st4" points="227.23,135.17 230.84,134.25 247.39,130.05 				"/>
				<path class="st4" d="M253.14,122.32c0,0-3.29,1.02-8,2.38c-1.67,0.48-3.51,1-5.45,1.54c-3.57,0.98-7.46,2-11.17,2.87
					c-2.38,0.55-4.67,1.05-6.75,1.44c-1.49,0.28-2.53,1.65-2.37,3.15v0.06c0.19,1.74,1.88,2.92,3.59,2.49l4.22-1.07"/>
				<path class="st4" d="M199,130.71c0,0,5.9-10.54,10.27-13.74c1.92-0.31,3.47-0.41,4.73-0.41c2.47,0,3.74,0.44,4.17,0.68
					c0.64,0.36,9.45,7.7,10.35,11.87"/>
				<polyline class="st4" points="239.16,114.95 239.16,114.96 239.69,126.22 				"/>
				<polyline class="st4" points="245.14,114.95 245.14,115.03 245.14,124.69 				"/>
				<path class="st4" d="M227.23,135.17c0,0,0,0-0.01,0.01c-0.48,0.39-11.75,9.48-16.67,10.11c0,0,8.65,0.59,12.84,2.27"/>
				<path class="st4" d="M229.54,149.06c0,0,0,0,0.01,0c0.27,0.12,8.99,3.93,19.78,5.98h0.01"/>
				<polyline class="st4" points="236.69,137.13 236.7,137.13 252.62,143.94 				"/>
			</g>
		</g>
	</g>
</g>
</svg>
