<svg width="20" height="20" viewBox="0 0 20 20" fill="none" xmlns="http://www.w3.org/2000/svg">
<path d="M17.678 3.66884C17.4442 3.38234 17.0223 3.33946 16.7357 3.5731C16.449 3.80692 16.4062 4.22884 16.6399 4.51551C17.8881 6.04604 18.5754 7.97873 18.5754 9.95769C18.5754 14.7096 14.7094 18.5756 9.95751 18.5756C5.20559 18.5756 1.33959 14.7096 1.33959 9.95769C1.33959 5.20577 5.20559 1.33977 9.95751 1.33977C11.4462 1.33977 12.9134 1.7252 14.2002 2.45452C14.522 2.6371 14.9308 2.52401 15.1132 2.2021C15.2956 1.88028 15.1826 1.47154 14.8607 1.28914C13.3728 0.445848 11.6773 0 9.95742 0C4.46693 0 0 4.46693 0 9.95742C0 15.4479 4.46693 19.9148 9.95742 19.9148C15.448 19.9148 19.9149 15.4481 19.9149 9.95751C19.9149 7.67115 19.1205 5.43773 17.678 3.66884Z" fill="#3F2355"/>
<path d="M12.94 8.48419C13.3099 8.48419 13.6098 8.18435 13.6098 7.81439V7.09993C13.6098 5.54876 12.3478 4.28685 10.7967 4.28685H10.752V2.81335C10.752 2.4434 10.4522 2.14355 10.0822 2.14355C9.71237 2.14355 9.41244 2.4434 9.41244 2.81335V4.30242C7.81047 4.45999 6.55469 5.81453 6.55469 7.45716C6.55469 9.20532 7.97685 10.6275 9.725 10.6275H10.4395C11.449 10.6275 12.2702 11.4487 12.2702 12.4582C12.2702 13.4677 11.449 14.2889 10.4395 14.2889H9.36777C8.55527 14.2889 7.89428 13.6279 7.89428 12.8154C7.89428 12.4455 7.59444 12.1456 7.22448 12.1456C6.85462 12.1456 6.55469 12.4455 6.55469 12.8154C6.55469 14.3666 7.81669 15.6285 9.36777 15.6285H9.41244V17.102C9.41244 17.472 9.71228 17.7718 10.0822 17.7718C10.4521 17.7718 10.752 17.472 10.752 17.102V15.613C12.354 15.4554 13.6098 14.1008 13.6098 12.4582C13.6098 10.71 12.1876 9.28789 10.4395 9.28789H9.725C8.71551 9.28789 7.89428 8.46666 7.89428 7.45716C7.89428 6.44767 8.71551 5.62644 9.725 5.62644H10.7967C11.6092 5.62644 12.2702 6.28751 12.2702 7.09993V7.81439C12.2702 8.18443 12.57 8.48419 12.94 8.48419Z" fill="#3F2355"/>
</svg>
