<svg width="29" height="29" viewBox="0 0 29 29" fill="none" xmlns="http://www.w3.org/2000/svg">
<g clip-path="url(#clip0_13965_13543)">
<path d="M19.267 29.0001C18.6338 29.0001 18.0574 28.6025 17.8326 28.0118L12.7892 14.7732C12.7275 14.6366 12.6865 14.4373 12.6865 14.2233C12.6865 13.3764 13.3751 12.6865 14.2222 12.6865C14.4408 12.6865 14.6439 12.7288 14.8276 12.8122L28.0105 17.8326C28.6025 18.0574 29.0001 18.6338 29.0001 19.2681C29.0001 19.9352 28.5725 20.5224 27.9379 20.7291L22.5077 22.5077L20.7279 27.9417C20.52 28.5749 19.9328 29.0001 19.267 29.0001ZM14.7019 14.7032L19.2489 26.6354L20.9284 21.5085C21.0178 21.2342 21.2342 21.0191 21.5072 20.9297L26.6343 19.2502L14.7019 14.7032ZM27.3688 19.5292H27.381H27.3688ZM14.1291 14.4844C14.1329 14.4869 14.1388 14.4893 14.1448 14.4904L14.1291 14.4844ZM14.4663 14.0833L14.4844 14.1291C14.4784 14.1147 14.4736 14.099 14.4663 14.0833Z" fill="white"/>
<path d="M13.2917 26.5833C5.96319 26.5833 0 20.6203 0 13.2917C0 5.96319 5.96319 0 13.2917 0C20.6203 0 26.5833 5.96319 26.5833 13.2917C26.5833 13.5477 26.5713 13.8172 26.558 14.0723C26.5337 14.5737 26.1133 14.9604 25.6082 14.9325C25.1093 14.9084 24.7236 14.4832 24.748 13.9829C24.7588 13.7581 24.7708 13.5187 24.7708 13.2917C24.7708 6.96237 19.6209 1.8125 13.2917 1.8125C6.96237 1.8125 1.8125 6.96237 1.8125 13.2917C1.8125 19.6209 6.96237 24.7708 13.2917 24.7708C13.5187 24.7708 13.7568 24.7599 13.9829 24.748C14.4469 24.7345 14.9084 25.1055 14.9339 25.6058C14.9591 26.106 14.575 26.5326 14.0748 26.558C13.8185 26.5713 13.5491 26.5833 13.2917 26.5833Z" fill="white"/>
<path d="M11.6611 20.3481C11.585 20.3481 11.5065 20.3384 11.4291 20.3178C8.2501 19.4744 6.03027 16.5853 6.03027 13.2915C6.03027 9.28702 9.28799 6.0293 13.2924 6.0293C16.5995 6.0293 19.4899 8.25023 20.3187 11.4305C20.4444 11.9151 20.1546 12.4104 19.6711 12.5361C19.1939 12.6618 18.6923 12.3744 18.5655 11.8885C17.9445 9.50562 15.7756 7.8418 13.2924 7.8418C10.2885 7.8418 7.84277 10.2862 7.84277 13.2915C7.84277 15.7637 9.50902 17.9327 11.8943 18.5657C12.3776 18.6938 12.6665 19.1905 12.5371 19.6737C12.4296 20.0797 12.0623 20.3481 11.6611 20.3481Z" fill="white"/>
</g>
<defs>
<clipPath id="clip0_13965_13543">
<rect width="29" height="29" fill="white"/>
</clipPath>
</defs>
</svg>
