<svg width="17" height="10" viewBox="0 0 17 10" fill="none" xmlns="http://www.w3.org/2000/svg">
<path d="M16.5109 0.444114C16.3704 0.303332 16.2035 0.19164 16.0198 0.115433C15.8361 0.0392264 15.6392 -5.76053e-08 15.4403 -6.62992e-08C15.2414 -7.49931e-08 15.0444 0.0392264 14.8607 0.115433C14.677 0.19164 14.5101 0.303332 14.3696 0.444114L8.47737 6.33639L2.58509 0.444114C2.30114 0.160164 1.91602 0.000642378 1.51446 0.00064236C1.11289 0.000642343 0.727768 0.160164 0.443819 0.444114C0.15987 0.728063 0.000350903 1.11318 0.000350886 1.51475C0.000350868 1.91631 0.15987 2.30143 0.443819 2.58538L7.41433 9.55589C7.55482 9.69667 7.7217 9.80836 7.90542 9.88457C8.08913 9.96077 8.28607 10 8.48496 10C8.68385 10 8.88079 9.96078 9.06451 9.88457C9.24822 9.80836 9.4151 9.69667 9.55559 9.55589L16.5261 2.58538C17.1032 2.0083 17.1032 1.03638 16.5109 0.444114Z" fill="#3F2355"/>
</svg>
