<svg width="173" height="34" viewBox="0 0 173 34" fill="none" xmlns="http://www.w3.org/2000/svg">
<path d="M7.26051 15.4084C8.27816 15.4084 8.74784 15.3106 8.98268 15.154C9.19795 15.017 9.33494 14.7235 9.33494 14.4104C9.33494 13.1383 8.53257 12.1207 7.0061 12.1207C4.63812 12.1207 3.54219 14.4104 3.54219 15.154C3.54219 15.291 3.62047 15.4084 4.03144 15.4084H7.26051ZM4.03144 16.8175C3.36606 16.8175 3.28778 16.8566 3.28778 17.2676C3.28778 20.438 5.47963 22.9821 8.61085 22.9821C10.0199 22.9821 11.1941 22.532 11.9965 21.2208C12.3487 21.1229 12.7401 21.4752 12.7793 21.7883C11.5855 24.6064 8.96311 25.6632 6.8104 25.6632C2.72024 25.6632 0 22.6298 0 18.5984C0 14.6061 2.72025 10.7703 7.43664 10.7703C10.0395 10.7703 12.7206 12.4729 12.7206 15.5454C12.7206 15.8586 12.6814 16.0738 12.5444 16.3478C12.3292 16.6609 11.5268 16.7979 10.1177 16.7979L4.03144 16.8175Z" fill="#005EA5"/>
<path d="M21.3507 22.0427C21.3116 22.8842 20.9202 23.7453 19.6677 23.7453C18.3369 23.7453 17.6911 22.6102 17.6911 21.6904C17.6911 20.164 18.6109 19.6747 19.5894 19.3225C20.2157 19.068 20.8615 18.8919 21.1355 18.8919C21.3116 18.8919 21.4095 19.1072 21.4095 19.4986L21.3507 22.0427ZM27.2609 23.804C27.2022 23.7649 27.1631 23.7062 27.0652 23.7062C26.9674 23.7062 26.7521 23.7844 26.576 23.7844C25.3039 23.7844 24.7755 22.7277 24.8734 20.6728L25.1278 15.1736C25.2648 12.062 23.5426 10.7703 20.7441 10.7703C18.9436 10.7703 16.3995 11.9641 15.3036 13.0013C14.1294 14.0972 13.9337 14.8409 13.9337 15.2519C13.9337 15.565 14.1489 15.8194 14.5991 15.8194C15.3819 15.8194 16.3604 15.5063 16.8496 15.1932C17.241 14.9388 17.4563 14.5865 17.515 13.9211C17.652 12.9035 18.3957 12.3751 19.3937 12.3751C21.1159 12.3751 21.6052 13.9211 21.5464 15.7216L21.5073 16.6414C21.5073 16.9936 21.4095 17.3067 20.7049 17.5612C19.3937 18.0504 18.063 18.5397 16.83 18.9702C14.4034 19.8117 13.8945 20.9859 13.8945 22.258C13.8945 24.0193 15.0883 25.6827 17.4954 25.6827C18.7675 25.6827 19.8243 25.1935 20.4897 24.763C21.018 24.4498 21.2725 24.2737 21.4486 24.2737C21.6247 24.2737 21.7617 24.4498 22.0161 24.7042C22.6815 25.4479 23.6796 25.6827 24.5602 25.6827C25.3235 25.6827 26.6542 25.4479 27.1826 24.9195C27.574 24.5281 27.4958 23.9801 27.2609 23.804Z" fill="#005EA5"/>
<path d="M28.3178 24.5477C27.9655 23.8823 27.7503 22.0818 27.8285 20.5554C28.0438 20.2814 28.5722 20.2423 28.8071 20.4771C29.4333 22.4537 30.7445 24.3324 32.6232 24.3324C33.7192 24.3324 34.5998 23.5887 34.5998 22.3558C34.5998 21.0446 33.4452 20.2031 32.1927 19.5964C30.3531 18.7158 28.4548 17.4046 28.4548 15.154C28.4157 12.3946 30.7836 10.7703 33.7192 10.7703C35.1673 10.7703 36.4981 11.2009 37.0069 11.4748C37.3592 12.2185 37.5353 13.3144 37.5353 14.8996C37.4375 15.1736 36.8308 15.291 36.5764 15.0757C36.048 13.4514 34.9129 12.1207 33.543 12.1207C32.408 12.1207 31.5664 12.923 31.5664 13.9603C31.5664 14.9779 32.5841 15.7216 33.9344 16.3674C35.8327 17.2872 37.8484 18.4809 37.8484 21.2795C37.8484 24.352 35.1282 25.6827 32.3492 25.6827C30.9011 25.6827 29.4529 25.3892 28.3178 24.5477Z" fill="#005EA5"/>
<path d="M54.9137 11.1813C53.9548 11.2596 53.0154 11.2791 52.0956 11.2791C51.3128 11.2791 50.0212 11.24 48.7491 11.1813C48.4752 11.3574 48.436 11.9249 48.6709 12.1989L49.8646 12.4533C50.393 12.5708 50.53 12.7469 50.53 13.06C50.53 13.197 50.0995 14.5669 49.258 16.4848L48.2012 18.8528C47.7511 19.8704 47.2031 21.0055 47.0661 21.0446C46.9683 21.0055 46.5377 20.164 45.8723 18.3635L44.3067 14.3125C44.1893 13.9994 44.0915 13.745 44.0327 13.5297C43.9936 13.4514 43.9545 13.3731 43.9349 13.2948C43.3869 11.8662 42.3497 11.3574 41.6648 11.3183C41.1168 11.2987 39.2968 11.2791 38.6118 11.24C37.9073 11.2008 37.7116 12.1989 38.5923 12.3946C39.8447 12.6882 40.0992 13.2361 40.9407 15.3693L43.7979 22.7863C44.3263 24.1171 44.385 24.8608 44.385 25.3892C44.385 26.8765 43.4065 28.7357 42.6628 29.7924C42.3106 30.2817 41.6648 30.4578 41.1755 30.497L40.4123 30.5361C39.4142 30.5752 38.6118 30.9667 38.6118 32.1213C38.6118 33.1389 39.2185 34 40.5493 34C41.7235 34 42.6237 33.4325 43.2304 32.1017C44.6981 28.8531 47.8489 22.5711 49.0427 20.1835L50.8431 16.5826C51.9391 14.3908 52.6045 13.4123 52.9959 13.0209C53.4851 12.5316 54.581 12.3555 55.0116 12.2381C55.266 11.9445 55.266 11.2791 54.9137 11.1813Z" fill="#005EA5"/>
<path d="M103.135 22.0427C103.096 22.8842 102.704 23.7453 101.452 23.7453C100.121 23.7453 99.4753 22.6102 99.4753 21.6904C99.4753 20.164 100.395 19.6747 101.374 19.3225C102 19.068 102.646 18.8919 102.92 18.8919C103.096 18.8919 103.194 19.1072 103.194 19.4986L103.135 22.0427ZM109.045 23.804C108.986 23.7649 108.947 23.7062 108.849 23.7062C108.752 23.7062 108.536 23.7844 108.36 23.7844C107.088 23.7844 106.56 22.7277 106.658 20.6728L106.912 15.1736C107.049 12.062 105.327 10.7703 102.528 10.7703C100.728 10.7703 98.1837 11.9641 97.0878 13.0013C95.9136 14.0972 95.7179 14.8409 95.7179 15.2519C95.7179 15.565 95.9331 15.8194 96.3832 15.8194C97.166 15.8194 98.1445 15.5063 98.6338 15.1932C99.0252 14.9388 99.2405 14.5865 99.2992 13.9211C99.4362 12.9035 100.18 12.3751 101.178 12.3751C102.9 12.3751 103.389 13.9211 103.331 15.7216L103.291 16.6414C103.291 16.9936 103.194 17.3067 102.489 17.5612C101.178 18.0504 99.8471 18.5397 98.6142 18.9702C96.1875 19.8117 95.6787 20.9859 95.6787 22.258C95.6787 24.0193 96.8725 25.6827 99.2796 25.6827C100.552 25.6827 101.608 25.1935 102.274 24.763C102.802 24.4498 103.057 24.2737 103.233 24.2737C103.409 24.2737 103.546 24.4498 103.8 24.7042C104.466 25.4479 105.464 25.6827 106.344 25.6827C107.108 25.6827 108.438 25.4479 108.967 24.9195C109.358 24.5281 109.28 23.9801 109.045 23.804Z" fill="#72BF44"/>
<path d="M157.324 22.0427C157.285 22.8842 156.894 23.7453 155.641 23.7453C154.311 23.7453 153.665 22.6102 153.665 21.6904C153.665 20.164 154.585 19.6747 155.563 19.3225C156.189 19.068 156.835 18.8919 157.109 18.8919C157.285 18.8919 157.383 19.1072 157.383 19.4986L157.324 22.0427ZM163.235 23.804C163.176 23.7649 163.137 23.7062 163.039 23.7062C162.941 23.7062 162.726 23.7844 162.55 23.7844C161.278 23.7844 160.749 22.7277 160.847 20.6728L161.101 15.1736C161.238 12.062 159.516 10.7703 156.718 10.7703C154.917 10.7703 152.373 11.9641 151.277 13.0013C150.103 14.0972 149.907 14.8409 149.907 15.2519C149.907 15.565 150.123 15.8194 150.573 15.8194C151.355 15.8194 152.334 15.5063 152.823 15.1932C153.215 14.9388 153.43 14.5865 153.489 13.9211C153.626 12.9035 154.369 12.3751 155.367 12.3751C157.09 12.3751 157.579 13.9211 157.52 15.7216L157.481 16.6414C157.481 16.9936 157.383 17.3067 156.679 17.5612C155.367 18.0504 154.037 18.5397 152.804 18.9702C150.377 19.8117 149.868 20.9859 149.868 22.258C149.868 24.0193 151.062 25.6827 153.469 25.6827C154.741 25.6827 155.798 25.1935 156.463 24.763C156.992 24.4498 157.246 24.2737 157.422 24.2737C157.598 24.2737 157.735 24.4498 157.99 24.7042C158.655 25.4479 159.653 25.6827 160.534 25.6827C161.297 25.6827 162.628 25.4479 163.156 24.9195C163.548 24.5281 163.469 23.9801 163.235 23.804Z" fill="#72BF44"/>
<path d="M62.9377 12.9425C62.1941 12.9425 62.1941 13.0208 62.1941 14.0384V20.9467C62.1941 23.5495 62.3311 23.9213 63.564 24.0779L64.9339 24.2149C65.1883 24.4693 65.1492 25.0955 64.8556 25.2325C63.2704 25.1542 61.9005 25.1347 60.2566 25.1347C59.102 25.1347 57.9082 25.1738 56.46 25.2325C56.186 25.0955 56.1469 24.4693 56.3817 24.2149L57.145 24.117C58.3388 23.9409 58.4757 23.5495 58.4757 20.9662V14.0189C58.4757 13.0795 58.4366 12.9621 57.8495 12.9621H56.5774C56.3035 12.8251 56.2252 12.375 56.4796 12.1597L57.9865 11.3965C58.2409 11.2595 58.4757 11.0442 58.4757 10.6332V9.94827C58.4757 8.44137 58.6127 6.7192 59.2194 4.91875C60.1392 2.1398 62.4876 0.00665283 65.7754 0.00665283C68.2021 0.00665283 69.7873 1.10258 69.7873 2.57034C69.7873 3.54884 68.9066 4.25337 68.0651 4.25337C67.5367 4.25337 67.2627 4.03809 67.0474 3.76411C65.932 2.13979 65.1491 1.45484 64.3076 1.45484C63.1139 1.45484 62.1745 3.84239 62.1745 9.10675V10.1635C62.1745 11.2203 62.2136 11.279 62.9377 11.279H66.6169C66.7539 11.3769 66.8322 11.5922 66.8322 11.8466C66.8322 12.4337 66.6169 12.7664 66.3429 12.9425H62.9377Z" fill="#72BF44"/>
<path d="M70.7073 5.46678C70.7073 4.27301 71.588 3.35321 72.8405 3.35321C74.1125 3.35321 74.9736 4.27301 74.9736 5.46678C74.9736 6.66056 74.093 7.58035 72.8405 7.58035C71.588 7.56078 70.7073 6.66056 70.7073 5.46678ZM74.6996 20.9467C74.6996 23.5496 74.8366 23.9018 76.0304 24.0975L76.6567 24.1954C76.9111 24.4498 76.8719 25.076 76.5784 25.213C75.2868 25.1347 74.093 25.1152 72.7818 25.1152C71.6271 25.1152 70.4334 25.1543 69.1026 25.213C68.8286 25.076 68.7895 24.4498 69.0243 24.1954L69.6506 24.0975C70.8443 23.8823 70.9813 23.53 70.9813 20.9467V15.7802C70.9813 14.1951 70.9813 13.7841 70.1007 13.2557L69.6701 13.0013C69.5723 12.8643 69.5723 12.375 69.7093 12.1989C71.5293 11.6705 73.2906 10.9073 74.2691 10.3006C74.4844 10.3397 74.6605 10.3984 74.7584 10.5746C74.6801 11.7292 74.6605 13.4122 74.6605 14.8604V20.9467H74.6996Z" fill="#72BF44"/>
<path d="M83.1335 20.9468C83.1335 23.5496 83.2705 23.9606 84.4643 24.1367L84.9927 24.215C85.2471 24.4694 85.208 25.0956 84.9144 25.2326C83.6815 25.1543 82.4877 25.1348 81.1961 25.1348C80.0806 25.1348 78.8868 25.1739 77.3995 25.2326C77.1255 25.0956 77.0864 24.4694 77.3212 24.215L78.0844 24.1171C79.2782 23.941 79.4152 23.5496 79.4152 20.9663V15.7998C79.4152 14.2146 79.4152 13.8037 78.5345 13.2753L78.104 13.0209C78.0061 12.8839 78.0062 12.3946 78.1431 12.2185C79.65 11.7879 81.5875 10.9464 82.703 10.3202C82.9574 10.3202 83.0944 10.4572 83.1531 10.5942C83.0748 11.2596 83.0748 11.9249 83.0748 12.2185C83.0748 12.4729 83.1727 12.5316 83.3879 12.5708C85.0318 11.651 86.0299 10.8094 88.2022 10.8094C91.0398 10.8094 92.3706 12.7665 92.3706 15.5063V20.9468C92.3706 23.5496 92.5076 23.9606 93.7014 24.0975L94.5038 24.1954C94.7582 24.4498 94.719 25.0761 94.4255 25.213C92.9577 25.1348 91.7639 25.1152 90.4527 25.1152C89.2981 25.1152 88.1043 25.1543 86.8714 25.213C86.5974 25.0761 86.5583 24.4498 86.7931 24.1954L87.3215 24.1171C88.5153 23.941 88.6523 23.5104 88.6523 20.9272V16.0738C88.6523 14.2929 87.9478 12.8839 85.8538 12.8839C84.7578 12.8839 83.8968 13.4514 83.5445 13.9798C83.0944 14.606 83.0552 14.9192 83.0552 16.2304V20.9468H83.1335Z" fill="#72BF44"/>
<path d="M115.855 20.9468C115.855 23.5496 115.992 23.9606 117.186 24.1367L117.714 24.215C117.969 24.4694 117.93 25.0956 117.636 25.2326C116.403 25.1543 115.209 25.1348 113.918 25.1348C112.802 25.1348 111.608 25.1739 110.121 25.2326C109.847 25.0956 109.808 24.4694 110.043 24.215L110.806 24.1171C112 23.941 112.137 23.5496 112.137 20.9663V15.7998C112.137 14.2146 112.137 13.8037 111.256 13.2753L110.826 13.0209C110.728 12.8839 110.728 12.3946 110.865 12.2185C112.372 11.7879 114.309 10.9464 115.425 10.3202C115.679 10.3202 115.816 10.4572 115.875 10.5942C115.796 11.2596 115.796 11.9249 115.796 12.2185C115.796 12.4729 115.894 12.5316 116.11 12.5708C117.753 11.651 118.752 10.8094 120.924 10.8094C123.762 10.8094 125.092 12.7665 125.092 15.5063V20.9468C125.092 23.5496 125.229 23.9606 126.423 24.0975L127.225 24.1954C127.48 24.4498 127.441 25.0761 127.147 25.213C125.679 25.1348 124.486 25.1152 123.174 25.1152C122.02 25.1152 120.826 25.1543 119.593 25.213C119.319 25.0761 119.28 24.4498 119.515 24.1954L120.043 24.1171C121.237 23.941 121.374 23.5104 121.374 20.9272V16.0738C121.374 14.2929 120.669 12.8839 118.575 12.8839C117.48 12.8839 116.618 13.4514 116.266 13.9798C115.816 14.606 115.777 14.9192 115.777 16.2304V20.9468H115.855Z" fill="#72BF44"/>
<path d="M139.398 11.2987C139.848 11.7292 140.103 12.2772 140.103 13.0991C140.103 14.2146 139.516 14.743 139.222 14.743C138.968 14.743 138.791 14.6647 138.557 14.3516C137.793 13.334 136.737 12.2185 135.367 12.2185C133.37 12.2185 131.296 14.1755 131.296 17.4828C131.296 20.3205 133.116 23.0212 136.326 23.0212C138.615 23.0212 139.418 22.1797 140.122 21.162C140.435 21.1229 140.827 21.3773 140.866 21.7883C139.594 24.6259 136.893 25.624 134.682 25.624C132.823 25.624 131.002 24.8803 129.809 23.7257C128.576 22.5319 127.773 20.7119 127.773 18.6766C127.773 14.5669 130.748 10.8094 136.404 10.8094C137.402 10.7899 138.42 10.9464 139.398 11.2987Z" fill="#72BF44"/>
<path d="M142.744 5.46678C142.744 4.27301 143.625 3.35321 144.878 3.35321C146.13 3.35321 147.011 4.27301 147.011 5.46678C147.011 6.66056 146.13 7.58035 144.878 7.58035C143.625 7.58035 142.744 6.66056 142.744 5.46678ZM146.756 20.9467C146.756 23.5496 146.893 23.9018 148.087 24.0975L148.713 24.1954C148.968 24.4498 148.929 25.076 148.635 25.213C147.343 25.1347 146.15 25.1152 144.838 25.1152C143.684 25.1152 142.49 25.1543 141.159 25.213C140.885 25.076 140.846 24.4498 141.081 24.1954L141.707 24.0975C142.901 23.8823 143.038 23.53 143.038 20.9467V15.7802C143.038 14.1951 143.038 13.7841 142.157 13.2557L141.727 13.0013C141.629 12.8643 141.629 12.375 141.766 12.1989C143.586 11.6705 145.347 10.9073 146.326 10.3006C146.541 10.3397 146.717 10.3984 146.815 10.5746C146.737 11.7292 146.717 13.4122 146.717 14.8604V20.9467H146.756Z" fill="#72BF44"/>
<path d="M166.17 5.87776C166.17 3.52934 166.131 3.31407 165.25 2.74654L164.859 2.49213C164.644 2.35514 164.605 1.7876 164.859 1.68975C166.229 1.29835 168.049 0.574258 169.458 0.00672465C169.673 -0.0324156 169.888 0.104575 169.947 0.280706C169.869 1.68975 169.849 3.86204 169.849 5.36893V20.9272C169.849 23.53 169.986 23.9018 171.18 24.078L171.943 24.1758C172.198 24.4302 172.159 25.0565 171.865 25.1935C170.417 25.1152 169.223 25.0956 167.931 25.0956C166.777 25.0956 165.583 25.1347 164.135 25.1935C163.861 25.0565 163.822 24.4302 164.057 24.1758L164.8 24.078C165.994 23.9018 166.131 23.5104 166.131 20.9272V5.87776H166.17Z" fill="#72BF44"/>
</svg>
