<svg width="18" height="18" viewBox="0 0 18 18" fill="none" xmlns="http://www.w3.org/2000/svg">
<path d="M0 1.995C0 0.893 0.893 0 1.995 0H16.005C17.107 0 18 0.893 18 1.995V16.005C18 16.5341 17.7898 17.0415 17.4157 17.4157C17.0415 17.7898 16.5341 18 16.005 18H1.995C1.46589 18 0.958457 17.7898 0.584322 17.4157C0.210187 17.0415 0 16.5341 0 16.005V1.995ZM2 2V16H16V2H2Z" fill="#AAABAD"/>
<path d="M3.22095 14.202C3.7703 14.586 4.35693 14.9136 4.97195 15.18C5.87195 13.864 7.38695 13 9.10195 13C9.89355 12.9993 10.674 13.1868 11.3789 13.547C12.0837 13.9073 12.6928 14.43 13.1559 15.072C13.7635 14.789 14.3411 14.4456 14.8799 14.047C13.6189 12.207 11.5019 11 9.10195 11C7.9321 10.9993 6.78077 11.292 5.75334 11.8514C4.72591 12.4108 3.85521 13.219 3.22095 14.202Z" fill="#FB5100"/>
<path d="M7.66056 9.73358C8.0852 9.90947 8.54032 10 8.99995 10C9.9282 10 10.8184 9.63125 11.4748 8.97487C12.1312 8.3185 12.4999 7.42826 12.4999 6.5C12.4999 5.57174 12.1312 4.6815 11.4748 4.02513C10.8184 3.36875 9.9282 3 8.99995 3C8.54032 3 8.0852 3.09053 7.66056 3.26642C7.23592 3.44231 6.85008 3.70012 6.52507 4.02513C6.20007 4.35013 5.94226 4.73597 5.76637 5.16061C5.59048 5.58525 5.49995 6.04037 5.49995 6.5C5.49995 6.95963 5.59048 7.41475 5.76637 7.83939C5.94226 8.26403 6.20007 8.64987 6.52507 8.97487C6.85008 9.29988 7.23592 9.55769 7.66056 9.73358Z" fill="#FB5100"/>
</svg>
