<svg xmlns="http://www.w3.org/2000/svg" viewBox="0 0 1200 1200"><defs><style>.cls-1{fill:#fff;}.cls-2{fill:#f9f9f9;}.cls-3{fill:#e5e5e5;}.cls-4{fill:#6a79a8;}.cls-5{fill:#f7f7f7;}.cls-6{fill:#f2f2f2;}.cls-7{fill:#d1d1d1;}.cls-8{fill:#fb5100;}</style></defs><title>icon</title><g id="_ÎÓÈ_1_1_" data-name="—ÎÓÈ_1_1_"><rect id="_Rectangle_" data-name="&lt;Rectangle&gt;" class="cls-1" width="1200" height="1200"/><path id="_Path_" data-name="&lt;Path&gt;" class="cls-2" d="M349.31,1034.78C327.89,1030.21,70.49,989,89.43,684.91s42.73-395.52,142.81-429S575.58,64.17,766.47,214.69s396.87,285.54,315.13,525.88-95.12,320.52-308.39,308.26S451.18,1056.55,349.31,1034.78Z"/><path class="cls-1" d="M255.49,319.53H532.13c1.35-26.54-11.83-53.11-35.35-65.46s-54.13-9.71-75.21,6.47c-18.85-16.25-38.44-32.92-62.24-40.24s-53.1-2.8-67.79,17.3C281.39,251.49,280,270.48,285,287q-32.33-.26-64.62,1.52c-12.27.67-29,4.24-29.61,16.52C189.83,323.39,255.49,319.53,255.49,319.53Z"/><path class="cls-1" d="M845.79,313.39a23.83,23.83,0,0,0-16.57-1.91c-3.39.77-6.66,2-10,3-6.33,1.94-6.88,3.6-9.46-1.91-2.81-6,.64-12.17-4.87-18.44A21.08,21.08,0,0,0,782.84,288c-4.16-9.81-9-19.19-16.93-26.83-15.79-15.18-39.89-21.52-60.49-13a64.32,64.32,0,0,0-23.85,17.67,78.32,78.32,0,0,0-8.93,12.81c-2.31,4.13-3.33,9.51-6.1,13.24-6.09-2.29-11.7-5.31-18-7.06-12.43-3.43-25.94-4.1-36.82,4-8.94,6.64-14.6,18.65-11.71,29.74,1.64,6.29,4.62,10.95,11,11,9,.13,18,0,27.07,0H861.56S855.08,318.33,845.79,313.39Z"/><path class="cls-1" d="M963.64,399.72c3-15.45-2.64-32.46-14.09-43.47-14.3-13.73-36.1-19.47-54.74-11.77a58.25,58.25,0,0,0-21.58,16,70.4,70.4,0,0,0-8.08,11.6c-2.09,3.73-3,8.6-5.53,12-5.5-2.07-10.59-4.81-16.33-6.39C832,374.55,819.81,374,810,381.27c-8.21,6.1-13.33,17.18-10.48,27.33,1,3.6,3.65,9.48,7.69,9.82,1.17.1,2.39,0,3.57,0H952.46c2.39,0,2.7-.45,4.12-2.38A39.91,39.91,0,0,0,963.64,399.72Z"/><path class="cls-1" d="M133.37,422.3c-3-15.45,2.64-32.46,14.09-43.46,14.3-13.74,36.1-19.47,54.74-11.77a58.25,58.25,0,0,1,21.58,16,69.9,69.9,0,0,1,8.08,11.59c2.09,3.74,3,8.6,5.53,12,5.5-2.07,10.59-4.81,16.33-6.39,11.25-3.1,23.48-3.71,33.32,3.61,8.21,6.1,13.34,17.19,10.48,27.33-1,3.6-3.65,9.48-7.69,9.83-1.17.1-2.39,0-3.57,0H144.55c-2.39,0-2.7-.45-4.12-2.38A40,40,0,0,1,133.37,422.3Z"/></g><g id="_ÎÓÈ_2" data-name="—ÎÓÈ_2"><path id="_Path_2" data-name="&lt;Path&gt;" class="cls-3" d="M296.07,960.24c-5.16,3.82-9.81,8.41-9.45,15.73.77,15.57,27.49,19.3,38.42,20.79,19.36,2.64,38.75,2.24,58.2,3q106,4,212.07,1.51,54.45-1.22,108.85-4c31.86-1.59,67.34.45,97.52-11.85,18.11-7.38,35.51-16.57,52.48-26.43,14.06-8.17,32.29-16,40.63-31.23,14.6-26.77-36.59-32.06-50.67-35-55.38-11.57-112.49-13.63-168.82-15.35-57.32-1.75-114.81-.67-171.89,5.36-71.56,7.56-148.08,31.77-206.53,76.88Z"/><g id="_Group_" data-name="&lt;Group&gt;"><rect id="_Path_3" data-name="&lt;Path&gt;" class="cls-3" x="443.67" y="651.98" width="410.04" height="281.08"/><g id="_Group_2" data-name="&lt;Group&gt;"><path class="cls-1" d="M853.71,652h-410l54.27-62.73a13.28,13.28,0,0,1,10-4.59H904.42a3.44,3.44,0,0,1,2.6,5.69Z"/><path class="cls-4" d="M853.91,650.19H450.12c-1.5,0-4.1-.52-5.53,0a2.89,2.89,0,0,1-.72,0l1.82,2.53q20-23.13,40-46.25C490.43,601,494.94,595.21,500,590c3.66-3.81,7.63-3.54,12.22-3.54H891.82c3.51,0,7.47-.51,10.95,0,5,.74.37,5.3-1.54,7.52l-45.78,52.91-3.77,4.36c-2,2.31,2.59,3.16,4.06,1.47l41.19-47.62,9.5-11c1.58-1.82,4-3.9,3.85-6.52-.26-5-5.35-4.74-9-4.74H517.38c-2.93,0-5.88-.1-8.8,0-7.4.26-11.61,4.43-16.05,9.56l-46.81,54.11-4.08,4.72c-1.28,1.48.45,2.53,1.82,2.53H836.75c5.28,0,10.77.45,16,0,.24,0,.49,0,.72,0C856.28,653.78,857.19,650.19,853.91,650.19Z"/></g><g id="_Group_3" data-name="&lt;Group&gt;"><polygon id="_Path_4" data-name="&lt;Path&gt;" class="cls-5" points="444.27 651.99 343.54 691.2 343.54 972.27 444.27 934.51 444.27 651.99"/><g id="_Group_4" data-name="&lt;Group&gt;"><path class="cls-4" d="M443.42,651.35l-88.17,34.31-12.57,4.9c-3.18,1.24-.2,2,1.72,1.28l88.16-34.32,12.57-4.9c3.19-1.23.21-2-1.71-1.27Z"/></g><g id="_Group_5" data-name="&lt;Group&gt;"><path class="cls-4" d="M446.69,933.86V664.71c0-1.32-4.83-.47-4.83,1.29V935.16c0,1.31,4.83.46,4.83-1.3Z"/></g></g><g id="_Group_6" data-name="&lt;Group&gt;"><path id="_Path_5" data-name="&lt;Path&gt;" class="cls-6" d="M444.27,652,343.54,691.2l-48.28-47a8.81,8.81,0,0,1,3.05-14.56l82.57-31a8.8,8.8,0,0,1,9.16,1.85Z"/><path id="_Path_6" data-name="&lt;Path&gt;" class="cls-1" d="M441.67,653l-98.13,38.2-41-40.7a8.81,8.81,0,0,1,3.05-14.57l28.56-10.59c13.95-5.18,30.83-15.81,46.23-12.52C391.42,615.18,440.52,651.94,441.67,653Z"/><g id="_Group_7" data-name="&lt;Group&gt;"><path class="cls-4" d="M443.25,650.74l-88.16,34.32L342.52,690l3.25.23-37-36-8.62-8.4c-1.93-1.87-4.14-3.64-4.87-6.35-2.21-8.23,8.64-10.25,14.13-12.31l58.71-22c4.5-1.69,13-6.87,17.89-4.64,2,.9,3.55,2.75,5.13,4.24l8.46,8L442.05,653c1.43,1.35,6-.56,4.45-2l-40-37.91c-4.73-4.49-9.28-9.34-14.27-13.54-6.16-5.19-12.55-2-19,.36l-61.86,23.19c-5.13,1.92-11.08,3.35-15.83,6.13-5.57,3.26-7.21,10.49-3,15.53a60.2,60.2,0,0,0,4.41,4.34l44.3,43.14c.87.85,2.21.63,3.25.23l88.16-34.32,12.57-4.89C448.4,652,445.63,649.82,443.25,650.74Z"/></g></g></g><g id="_Group_8" data-name="&lt;Group&gt;"><rect id="_Path_7" data-name="&lt;Path&gt;" class="cls-6" x="341.66" y="691.2" width="411.31" height="281.08"/><path id="_Path_8" data-name="&lt;Path&gt;" class="cls-1" d="M753,697c-13.19,19.67-28.4,46.12-37.84,63a32.42,32.42,0,0,1-28.22,16.6l-345.26.76V972.27H753Z"/><g id="_Group_9" data-name="&lt;Group&gt;"><polygon id="_Path_9" data-name="&lt;Path&gt;" class="cls-3" points="853.71 651.99 752.98 691.2 752.98 972.27 853.71 934.51 853.71 651.99"/><path id="_Path_10" data-name="&lt;Path&gt;" class="cls-6" d="M853.71,745.17l-33.45,13.42a27.41,27.41,0,0,1-32.11-9L753,702.84V972.27l100.73-37.76Z"/><g id="_Group_10" data-name="&lt;Group&gt;"><path class="cls-4" d="M750.56,703.85V962.43c0,1,4.83.27,4.83-1.29V702.56c0-1-4.83-.27-4.83,1.29Z"/></g></g><g id="_Group_11" data-name="&lt;Group&gt;"><path class="cls-4" d="M340.67,692.38H732.12c6.48,0,13.32.64,19.77,0,3.61-.36,7.36-2.49,10.69-3.79l29.26-11.39,59-23,3.79-1.47c3.16-1.24.23-2.36-1.8-1.57l-45.27,17.63c-18,7-36.51,13.24-54.15,21.07-2.39,1.07.22.06.32.12-.42-.25-1.73,0-2.21,0H419.92c-25.33,0-50.79-.75-76.12,0h-1.15c-1.57,0-5.2,2.36-2,2.36Z"/></g><g id="_Group_12" data-name="&lt;Group&gt;"><path class="cls-4" d="M851.26,739.52V934.69l1.38-1.62-45.71,17.14C789,956.93,770.63,963,753,970.42c-2.08.89.52.16-.14.07a20,20,0,0,0-2.32,0H351.76c-2.74,0-6.05-.51-8.74,0a6.31,6.31,0,0,1-1.15,0l2.24,1.6V766.73c0-2.54-4.89-1.83-4.89.36V972.45c0,1.26,1.16,1.6,2.23,1.6h391c6.5,0,13.71.88,20.17,0,3.34-.46,6.84-2.37,10-3.54l28.91-10.84L851,937.38l3.83-1.44c.58-.21,1.38-.93,1.38-1.61V739.16c0-2.54-4.9-1.83-4.9.36Z"/></g><g id="_Group_13" data-name="&lt;Group&gt;"><path id="_Path_11" data-name="&lt;Path&gt;" class="cls-6" d="M753,691.2H341.66l-54.23,62.7a2.8,2.8,0,0,0,2.12,4.63H693.46a2.79,2.79,0,0,0,2.12-1Z"/><path id="_Path_12" data-name="&lt;Path&gt;" class="cls-1" d="M753,691.2H345.72c-6.26,12.11-12.28,24.38-18.9,36.3-4.07,7.32-4.85,19.28,7,19.28H683.12a26.27,26.27,0,0,0,17.9-7.06Z"/><g id="_Group_14" data-name="&lt;Group&gt;"><path class="cls-4" d="M753.86,689.63H345.19c-2,0-3.91-.23-5.57,1.09s-2.76,3.18-4,4.64l-8.47,9.78-40.28,46.58c-2.87,3.32-3.59,7.95,2.23,8.38,2.23.16,4.54,0,6.77,0H686.49c2,0,4,.12,5.92,0,4.75-.3,6.91-4,9.77-7.32l42.3-48.91L755,691.75c1.93-2.23-2.71-2.55-4-1.11q-20.07,23.22-40.15,46.42c-5.62,6.5-11.06,13.25-16.91,19.55-.77.83,1.16.14-.42.36a25.7,25.7,0,0,1-3.51,0H303.38c-3.61,0-7.66.52-11.24,0-.41-.06-1.33.21-1.69,0-3.13-1.83,1.61-5.58,2.68-6.82l46.43-53.68,4.08-4.72-2.86,1H701.29c16.6,0,33.5.92,50.08,0h.72C754.16,692.76,757.12,689.63,753.86,689.63Z"/></g></g><g id="_Group_15" data-name="&lt;Group&gt;"><path id="_Path_13" data-name="&lt;Path&gt;" class="cls-6" d="M853.71,652,753,691.2l56.23,54.34a4.43,4.43,0,0,0,4.61,1l91.68-34.37a4.41,4.41,0,0,0,1.56-7.26Z"/><path id="_Path_14" data-name="&lt;Path&gt;" class="cls-1" d="M850.43,653.26,754.2,691.68l50.59,51.11a3.85,3.85,0,0,0,4.15.9l37.95-14.87,23-9c7.5-2.94,18-6.5,17.08-16.62-.41-4.6-3.55-8.32-6.58-11.56C876.94,688,852.11,655,850.43,653.26Z"/><g id="_Group_16" data-name="&lt;Group&gt;"><path class="cls-4" d="M852.62,650.47l-88.17,34.32-12.57,4.9a1.75,1.75,0,0,0-.75,2.95l41.55,40.15c4.77,4.61,9.39,10.15,14.68,14.18,4.91,3.75,12.49-.81,17.45-2.67l65.85-24.69c5.21-2,11-3.48,15.94-6,9.59-4.81.24-12.26-4-16.48L855.91,650.9c-1.62-1.61-6.17.42-4.41,2.17l38.68,38.34,10.25,10.16c1.32,1.31,3.39,2.74,4.38,4.34,3.51,5.69-9.07,8-12.51,9.25L829,738.87l-11.22,4.21c-1.25.47-3.63,1.95-5,1.88-1.62-.09-3.52-2.57-4.57-3.59l-8.79-8.49-44.62-43.12c-.26,1-.51,2-.76,3l88.16-34.32,12.57-4.89C857.87,652.3,855.17,649.48,852.62,650.47Z"/></g></g><g id="_Group_17" data-name="&lt;Group&gt;"><g id="_Group_18" data-name="&lt;Group&gt;"><path class="cls-4" d="M721.43,765.1v47.76c0,2.6,4.9,2,4.9-.33V764.78c0-2.61-4.9-2-4.9.32Z"/></g><g id="_Group_19" data-name="&lt;Group&gt;"><path class="cls-4" d="M721.46,823.08v7.53c0,2,4.83,1,4.83-.6v-7.53c0-2-4.83-1-4.83.6Z"/></g><g id="_Group_20" data-name="&lt;Group&gt;"><path class="cls-4" d="M721.44,839.29V858.9c0,2.46,4.88,1.68,4.88-.4V838.88c0-2.45-4.88-1.68-4.88.41Z"/></g></g></g><g id="_Group_21" data-name="&lt;Group&gt;"><g id="_Group_22" data-name="&lt;Group&gt;"><g id="_Group_23" data-name="&lt;Group&gt;"><path class="cls-7" d="M774.92,912l43.61-14.08c2.9-.94,2.09-4.19-.87-3.24l-43.6,14.09c-2.9.93-2.09,4.18.86,3.23Z"/></g><g id="_Group_24" data-name="&lt;Group&gt;"><path class="cls-7" d="M774.83,894.73l43.4-14.21c2.83-.92,2.22-3.51-.68-2.56l-43.4,14.21c-2.83.93-2.22,3.51.68,2.56Z"/></g><g id="_Group_25" data-name="&lt;Group&gt;"><path class="cls-7" d="M774.79,878,818,863.63c2.79-.92,2.27-3.2-.6-2.25l-43.2,14.34c-2.79.92-2.27,3.2.6,2.24Z"/></g><g id="_Group_26" data-name="&lt;Group&gt;"><g id="_Group_27" data-name="&lt;Group&gt;"><path class="cls-7" d="M775,925.11l9.62-3.08c1-.32,2.27-1.2,1.94-2.43s-1.9-1.45-2.89-1.13L774,921.55c-1,.32-2.26,1.2-1.94,2.42s1.91,1.45,2.9,1.14Z"/></g><g id="_Group_28" data-name="&lt;Group&gt;"><path class="cls-7" d="M791.68,919l9.72-3.1c.62-.2,2.38-.77,2.12-1.73s-2.13-.62-2.7-.44l-9.72,3.1c-.62.2-2.38.77-2.12,1.73s2.13.62,2.7.44Z"/></g><g id="_Group_29" data-name="&lt;Group&gt;"><path class="cls-7" d="M808.8,913.8l9.8-3.13c.76-.24,2.35-.9,2.06-2s-2-.91-2.77-.68l-9.8,3.13c-.75.25-2.34.9-2.06,2s2.05.91,2.77.68Z"/></g></g></g></g><g id="_Group_30" data-name="&lt;Group&gt;"><g id="_Group_31" data-name="&lt;Group&gt;"><path class="cls-8" d="M493.77,901.26c12.86-15,34.09-23.64,53.41-24.45a82.77,82.77,0,0,1,42.39,9.77c5,2.68,11.71,7.21,15,10.46,1.6,1.61,6.16-.41,4.41-2.16-10.25-10.27-25-16.77-39-19.83a86,86,0,0,0-67.75,13.77,67.91,67.91,0,0,0-12.54,10.91c-2,2.33,2.58,3.27,4.07,1.53Z"/></g><path id="_Path_15" data-name="&lt;Path&gt;" class="cls-8" d="M510.32,840.07c.93,4.1-1.29,8.27-5,9.32s-7.42-1.44-8.36-5.55,1.29-8.27,5-9.32S509.38,836,510.32,840.07Z"/><ellipse id="_Path_16" data-name="&lt;Path&gt;" class="cls-8" cx="598.79" cy="844.55" rx="6.87" ry="7.67"/></g><g id="_Group_32" data-name="&lt;Group&gt;"><path class="cls-8" d="M642.7,663.9c-22.13,2.65-46,5.57-67-3.63-17.5-7.64-32-23.7-30.92-43.78,1.17-20.86,16.36-37.18,34.77-45.33,20.28-9,43.72-10,65.25-5.54,10.3,2.13,22.71,5.17,31.29,11.57,7.18,5.35,10,14.9,3.07,21.61-5.1,4.92-12.66,7.14-19.32,9-7,1.91-14,3.69-21.14,4.93-36.27,6.3-77.43.31-105.88-24.61-14.14-12.39-23.93-30.61-24-49.65-.06-19.46,10.93-37.17,25.68-49.17,29.53-24,70.6-30.86,107.6-31a337.58,337.58,0,0,1,54.62,4.39c9.64,1.53,19.66,3,28.55,7.22S743.34,483.06,741,494c-2.25,10.3-14.12,13.56-22.94,16.12a148.26,148.26,0,0,1-35,5.37c-22.23,1-44.83-.7-66.89-3.43-20.82-2.58-41.71-6.43-61.79-12.62C539.8,494.9,525.3,489,513,479.78c-12-9-21.14-21.06-25.18-35.59a80.47,80.47,0,0,1,2.84-50c12.11-31.09,42.61-50.28,72.73-61.14,40.94-14.75,86-19.9,129.25-17.21a338.93,338.93,0,0,1,65.75,10.77,274.26,274.26,0,0,1,32.36,10.59c8.79,3.53,17.73,7.54,22.22,16.46,8.64,17.16-8.47,33.42-22.12,41.13-15,8.46-32.5,13.45-49,17.85-22.09,5.86-45,8.1-67.71,9.3-21.72,1.15-43.52,1.93-65.28,1.58-41.89-.68-84.86-6-122.76-24.93-32.92-16.46-65.34-50-57.11-90.11,3.89-18.92,18-35.32,32.56-47.26,15.09-12.38,32.71-21.17,51-27.76,37.72-13.59,78.33-18.31,118.14-20.65A575.44,575.44,0,0,1,763.44,220a583.07,583.07,0,0,1,65.5,15.4c1.37.4,5.71-1.67,3.88-2.22a578.4,578.4,0,0,0-146.65-23.82c-44.37-1.33-90,1.73-133.52,10.75-39.52,8.19-80.86,22.8-108.62,53.52-13.61,15.07-22.86,33.49-20.66,54.2,2.12,20,12.68,38.12,27.21,51.65,32.37,30.15,79.87,41.17,122.66,44.93,23,2,46.08,2.05,69.12,1.32,24.54-.77,49.23-1.61,73.52-5.39a306.92,306.92,0,0,0,59.75-16c15.56-5.8,32.06-14.11,40.64-29.06,4.37-7.61,5.36-16.17.93-24-4.75-8.4-13.11-12.38-21.69-15.87-21.83-8.88-45.12-14.77-68.37-18.47a346.06,346.06,0,0,0-142.4,7.32c-33.84,9-69.69,24.13-90.1,54.11-19.11,28.06-20.23,69,3.89,94.46,11.36,12,26.54,19.82,41.88,25.45,19.11,7,39.33,11.26,59.4,14.38a447.55,447.55,0,0,0,73.93,5.57,181.76,181.76,0,0,0,34.13-3.31c9.76-2,20.57-4.6,29.11-10,6.74-4.23,10.65-11.53,8.68-19.55-2.3-9.42-11-15.58-19.5-19-9.31-3.72-19.53-5.13-29.39-6.62s-19.5-2.55-29.31-3.23c-39.13-2.71-80.51.82-115.94,18.86-17.24,8.78-33,21.24-41.63,38.94-8.95,18.37-7.13,39.36,3,56.86,20.13,34.73,64.5,47.57,102.35,46.32,13.5-.45,88.73-8.1,70.39-36.77-5.53-8.65-17.71-12.06-27-14.8a130.29,130.29,0,0,0-31.84-5.26c-20.7-.79-42.79,3.4-60.39,14.76-16.13,10.42-28.22,28.3-26.4,48.16s18.22,34.2,35.94,40.58c21.12,7.6,44.25,4.81,66,2.2,2.24-.27,4.08-2.85.72-2.44Z"/></g></g></svg>