<svg width="46" height="46" viewBox="0 0 46 46" fill="none" xmlns="http://www.w3.org/2000/svg">
<circle cx="23" cy="23" r="23" fill="#FFF2EC"/>
<circle cx="23" cy="23" r="17" fill="#FFE1D2"/>
<path d="M26.9578 26.2241L23.5035 22.7699L20.0493 26.2241" stroke="#41485D" stroke-width="2" stroke-linecap="round" stroke-linejoin="round"/>
<path d="M23.5039 22.7699V30.5419" stroke="#41485D" stroke-width="2" stroke-linecap="round" stroke-linejoin="round"/>
<path d="M30.749 28.288C31.5912 27.8288 32.2566 27.1022 32.64 26.2229C33.0235 25.3436 33.1032 24.3616 32.8666 23.432C32.63 22.5023 32.0905 21.6779 31.3333 21.0889C30.5761 20.4999 29.6444 20.1799 28.6851 20.1792H27.597C27.3356 19.1682 26.8484 18.2296 26.1721 17.434C25.4957 16.6383 24.6478 16.0064 23.6921 15.5856C22.7363 15.1649 21.6976 14.9662 20.6541 15.0047C19.6105 15.0431 18.5893 15.3177 17.6671 15.8076C16.7449 16.2976 15.9458 16.9902 15.3298 17.8334C14.7139 18.6767 14.2971 19.6486 14.1108 20.6761C13.9245 21.7036 13.9736 22.76 14.2544 23.7658C14.5351 24.7716 15.0402 25.7007 15.7317 26.4832" stroke="#41485D" stroke-width="2" stroke-linecap="round" stroke-linejoin="round"/>
<path d="M26.9578 26.2241L23.5035 22.7699L20.0493 26.2241" stroke="#41485D" stroke-width="2" stroke-linecap="round" stroke-linejoin="round"/>
</svg>
