<svg width="19" height="19" viewBox="0 0 19 19" fill="none" xmlns="http://www.w3.org/2000/svg">
<g clip-path="url(#clip0)">
<path d="M13.6965 13.0306H12.8266C12.5092 13.0306 12.2517 12.773 12.2517 12.4557C12.2517 12.1384 12.5092 11.8808 12.8266 11.8808H13.6965C15.6542 11.8808 17.2462 10.3103 17.2462 8.38022C17.2462 6.5276 15.7822 4.99613 13.9127 4.89419C13.7019 4.88269 13.5141 4.75622 13.4237 4.56536C12.6648 2.95648 11.0054 1.91635 9.19797 1.91635C6.88621 1.91635 4.90022 3.61567 4.57829 5.86841C4.53766 6.15125 4.29545 6.36203 4.00878 6.36203C2.40527 6.36203 1.14975 7.59993 1.14975 9.12142C1.14975 10.6429 2.40604 11.8808 3.94899 11.8808H5.55711C5.87444 11.8808 6.13198 12.1384 6.13198 12.4557C6.13198 12.773 5.87444 13.0306 5.55711 13.0306H3.94899C1.77214 13.0306 0 11.2768 0 9.12142C0 7.10707 1.54832 5.443 3.52819 5.23452C4.12452 2.65602 6.48074 0.766602 9.19797 0.766602C11.335 0.766602 13.3064 1.93781 14.3128 3.77664C16.6276 4.06867 18.3959 6.03014 18.3959 8.38022C18.3959 10.9442 16.2881 13.0306 13.6965 13.0306Z" fill="#3F2355"/>
<path d="M9.19792 15.33C8.88059 15.33 8.62305 15.0724 8.62305 14.7551V9.38884C8.62305 9.07151 8.88059 8.81396 9.19792 8.81396C9.51525 8.81396 9.77279 9.07151 9.77279 9.38884V14.7551C9.77279 15.0724 9.51525 15.33 9.19792 15.33Z" fill="#3F2355"/>
<path d="M10.9224 11.3058C10.7752 11.3058 10.628 11.2498 10.5161 11.1372L9.19777 9.81957L7.87939 11.1379C7.65481 11.3625 7.29073 11.3625 7.06614 11.1379C6.84156 10.9134 6.84156 10.5493 7.06614 10.3247L8.79076 8.60008C9.01534 8.37549 9.37943 8.37549 9.60401 8.60008L11.3286 10.3247C11.5532 10.5493 11.5532 10.9134 11.3286 11.1379C11.2167 11.2498 11.0695 11.3058 10.9224 11.3058Z" fill="#3F2355"/>
<path d="M11.6891 17.6295H6.70685C5.96718 17.6295 5.36548 17.0278 5.36548 16.2881V15.1383C5.36548 14.821 5.62302 14.5635 5.94035 14.5635C6.25768 14.5635 6.51523 14.821 6.51523 15.1383V16.2881C6.51523 16.3939 6.60107 16.4797 6.70685 16.4797H11.6891C11.7949 16.4797 11.8807 16.3939 11.8807 16.2881V15.1383C11.8807 14.821 12.1383 14.5635 12.4556 14.5635C12.7729 14.5635 13.0305 14.821 13.0305 15.1383V16.2881C13.0305 17.0278 12.4288 17.6295 11.6891 17.6295Z" fill="#3F2355"/>
</g>
<defs>
<clipPath id="clip0">
<rect width="18.3959" height="18.3959" fill="white"/>
</clipPath>
</defs>
</svg>
