<svg width="24" height="24" viewBox="0 0 24 24" fill="none" xmlns="http://www.w3.org/2000/svg">
<path d="M14.2609 19.959H9.74219C9.35387 19.959 9.03906 20.2738 9.03906 20.6621C9.03906 21.0504 9.35387 21.3652 9.74219 21.3652H14.2609C14.6492 21.3652 14.9641 21.0504 14.9641 20.6621C14.9641 20.2738 14.6492 19.959 14.2609 19.959Z" fill="black"/>
<path d="M13.9774 15.6197C14.1251 15.3234 14.2086 14.9896 14.2086 14.6361C14.2086 13.4163 13.2197 12.4274 11.9999 12.4274C11.6463 12.4274 11.3124 12.5109 11.0161 12.6586L7.70421 9.34657C7.42966 9.07198 6.98445 9.07198 6.70985 9.34657C6.43526 9.62112 6.43526 10.0663 6.70985 10.3409L10.022 13.6532C9.87457 13.9493 9.79123 14.2829 9.79123 14.6361C9.79123 15.8559 10.7801 16.8448 11.9999 16.8448C12.3532 16.8448 12.6869 16.7614 12.983 16.6139L13.7621 17.3931C14.0367 17.6677 14.4818 17.6678 14.7565 17.3932C15.0311 17.1187 15.0311 16.6735 14.7565 16.3989L13.9774 15.6197ZM11.9999 15.4385C11.5574 15.4385 11.1974 15.0786 11.1974 14.6361C11.1974 14.1937 11.5574 13.8337 11.9999 13.8337C12.4424 13.8337 12.8023 14.1937 12.8023 14.6361C12.8023 15.0786 12.4423 15.4385 11.9999 15.4385Z" fill="#FB7333"/>
<path d="M12 2.63672C5.38317 2.63672 0 8.01989 0 14.6367C0 16.7456 0.556031 18.8206 1.60805 20.6375C1.80239 20.9731 2.23186 21.0879 2.56777 20.8942L4.52484 19.7644C4.86112 19.5703 4.97634 19.1403 4.78219 18.804C4.58803 18.4677 4.15809 18.3523 3.82172 18.5466L2.49366 19.3133C1.88363 18.0749 1.52245 16.7228 1.43053 15.3399H2.9625C3.35081 15.3399 3.66562 15.0251 3.66562 14.6368C3.66562 14.2485 3.35081 13.9336 2.9625 13.9336H1.43016C1.52353 12.5159 1.89689 11.1735 2.49567 9.96131L3.82177 10.7269C4.15814 10.9212 4.58817 10.8059 4.78223 10.4696C4.97639 10.1333 4.86117 9.70322 4.52489 9.50911L3.20044 8.74439C3.9713 7.59698 4.96031 6.60797 6.10772 5.83711L6.87234 7.16142C7.0665 7.49775 7.49653 7.61306 7.83281 7.41877C8.16909 7.22456 8.28431 6.79458 8.09016 6.4583L7.32459 5.13234C8.53678 4.53361 9.87919 4.16048 11.2969 4.06697V5.59927C11.2969 5.98758 11.6117 6.30239 12 6.30239C12.3883 6.30239 12.7031 5.98758 12.7031 5.59927V4.06697C14.1208 4.16048 15.4632 4.53366 16.6754 5.13234L15.9098 6.4583C15.7157 6.79458 15.8309 7.22461 16.1672 7.41877C16.5035 7.61306 16.9335 7.49775 17.1277 7.16142L17.8923 5.83711C19.0397 6.60792 20.0287 7.59694 20.7996 8.74439L19.4752 9.50902C19.1389 9.70317 19.0237 10.1332 19.2178 10.4695C19.4119 10.8058 19.8419 10.9211 20.1783 10.7268L21.5044 9.96122C22.1031 11.1734 22.4765 12.5158 22.5699 13.9335H21.0375C20.6492 13.9335 20.3344 14.2484 20.3344 14.6367C20.3344 15.025 20.6492 15.3398 21.0375 15.3398H22.5695C22.4775 16.7227 22.1164 18.0748 21.5063 19.3132L20.1783 18.5465C19.8419 18.3522 19.412 18.4676 19.2178 18.8039C19.0237 19.1402 19.1389 19.5702 19.4752 19.7643L21.4322 20.8941C21.7682 21.0878 22.1976 20.9731 22.392 20.6374C23.444 18.8206 24 16.7457 24 14.6367C24 8.01989 18.6168 2.63672 12 2.63672Z" fill="#3F2355"/>
</svg>
