<svg width="66" height="41" viewBox="0 0 66 41" fill="none" xmlns="http://www.w3.org/2000/svg">
<path d="M63.5885 30.6033H55.7754V30.0117H63.3764C63.3845 30.226 63.4585 30.4327 63.5885 30.6033Z" fill="#3F2355"/>
<path d="M63.3716 30.0117H64.2561V30.6033H63.5892C63.4573 30.4333 63.3812 30.2267 63.3716 30.0117Z" fill="#3F2355"/>
<path d="M39.2846 17.6792C39.2846 18.0722 39.4407 18.449 39.7186 18.7269C39.9965 19.0048 40.3733 19.1609 40.7663 19.1609H55.4075C55.8004 19.1609 56.1773 19.0048 56.4552 18.7269C56.7331 18.449 56.8892 18.0722 56.8892 17.6792V14.2079C56.8877 12.6785 56.2791 11.2121 55.197 10.1312C54.115 9.05019 52.6481 8.443 51.1186 8.443H40.7663C40.3731 8.44374 39.9962 8.60046 39.7184 8.87878C39.4406 9.15709 39.2846 9.53426 39.2846 9.92748V17.6792ZM18.9566 30.5987H35.3167V30.0071H31.5106V9.1378C31.5099 8.89603 31.4135 8.66437 31.2425 8.49341C31.0716 8.32245 30.8399 8.22608 30.5981 8.22535H19.8719C19.6296 8.22535 19.3972 8.32139 19.2257 8.49243C19.0541 8.66347 18.9574 8.89555 18.9566 9.1378V30.0071H11.3584V6.79667C11.3599 5.55556 11.8538 4.36575 12.7316 3.48842C13.6095 2.61109 14.7996 2.11793 16.0407 2.11719H49.6314C53.2733 2.12162 56.7648 3.57034 59.34 6.14558C61.9153 8.72082 63.364 12.2123 63.3684 15.8543V29.9569C63.367 29.9764 63.367 29.996 63.3684 30.0155H55.7702V30.607H63.5833C63.6767 30.7358 63.7975 30.8424 63.9369 30.9191C64.0763 30.9958 64.2309 31.0407 64.3897 31.0507V33.4365H54.3053C54.2634 31.0416 53.2826 28.7589 51.5742 27.08C49.8657 25.4012 47.5662 24.4604 45.1709 24.4604C42.7756 24.4604 40.4762 25.4012 38.7677 27.08C37.0592 28.7589 36.0785 31.0416 36.0366 33.4365H11.2021V30.5987H18.9566Z" fill="white"/>
<path d="M51.1186 9.33203C52.4118 9.33351 53.6515 9.84787 54.5659 10.7623C55.4803 11.6767 55.9947 12.9165 55.9962 14.2096V17.6809C55.9954 17.8383 55.9326 17.989 55.8213 18.1003C55.71 18.2116 55.5592 18.2745 55.4018 18.2752H40.7662C40.6088 18.2745 40.4581 18.2116 40.3468 18.1003C40.2355 17.989 40.1726 17.8383 40.1719 17.6809V9.92917C40.1719 9.77128 40.2344 9.61982 40.3458 9.50791C40.4572 9.39601 40.6083 9.33277 40.7662 9.33203H51.1186Z" fill="#DEDFE0"/>
<path d="M49.5483 37.8438C58.7007 38.106 64.8228 38.5804 64.8228 39.1217C64.8228 39.7496 56.6637 40.2881 45.1032 40.5169L45.0864 39.6296C46.7475 39.6275 48.3444 38.9883 49.5483 37.8438Z" fill="#DEDFE0"/>
<path d="M45.0847 28.0977C46.2484 28.1019 47.3744 28.51 48.2705 29.2523C49.1666 29.9947 49.7772 31.0251 49.9979 32.1676C50.2186 33.3101 50.0358 34.4938 49.4807 35.5165C48.9256 36.5391 48.0326 37.3374 46.9543 37.7747C45.6958 37.7468 44.3899 37.7189 43.0477 37.6994C42.0025 37.2283 41.1499 36.4138 40.6316 35.3912C40.1132 34.3686 39.9603 33.1994 40.1982 32.0779C40.4361 30.9564 41.0506 29.95 41.9395 29.226C42.8284 28.5019 43.9383 28.1038 45.0847 28.0977ZM45.0847 36.413C45.9588 36.4115 46.7965 36.0635 47.4143 35.4452C48.0321 34.8269 48.3794 33.9888 48.3802 33.1148C48.382 32.9277 48.3661 32.7408 48.3327 32.5567L48.0537 32.6097C48.0551 32.6218 48.0551 32.6339 48.0537 32.646C47.9765 32.141 47.7721 31.664 47.4596 31.2598C47.1472 30.8556 46.7371 30.5375 46.2679 30.3355L46.3795 30.0705C45.9307 29.8857 45.4467 29.8024 44.9621 29.8264C44.4774 29.8504 44.004 29.9811 43.5757 30.2093C43.1474 30.4374 42.7748 30.7574 42.4844 31.1462C42.1941 31.5351 41.9932 31.9832 41.8962 32.4587C41.7991 32.9342 41.8083 33.4252 41.923 33.8967C42.0376 34.3682 42.2551 34.8086 42.5597 35.1864C42.8643 35.5641 43.2486 35.87 43.6851 36.082C44.1216 36.2941 44.5995 36.4071 45.0847 36.413Z" fill="white"/>
<path d="M48.0857 33.0098C48.0884 33.0451 48.0884 33.0805 48.0857 33.1158C48.0851 33.4048 48.0438 33.6922 47.9629 33.9697C48.0431 33.6922 48.0835 33.4047 48.0829 33.1158C48.0885 33.0823 48.0885 33.046 48.0857 33.0098Z" fill="white"/>
<path d="M48.0828 32.9156C48.0828 32.8877 48.0828 32.8569 48.0828 32.8262C48.08 32.8569 48.0828 32.8877 48.0828 32.9156Z" fill="white"/>
<path d="M47.9534 34.0117C47.9093 34.1494 47.8564 34.2841 47.7949 34.4149C47.8564 34.2841 47.9093 34.1494 47.9534 34.0117Z" fill="#3F2355"/>
<path d="M47.6567 34.6671C47.7037 34.5897 47.748 34.5095 47.7922 34.4238C47.7514 34.5073 47.7062 34.5885 47.6567 34.6671Z" fill="#3F2355"/>
<path d="M46.9613 37.7729C47.8486 37.7924 48.7136 37.812 49.5535 37.8399C48.3165 39.0091 46.6697 39.6458 44.9679 39.613C43.266 39.5801 41.6451 38.8802 40.4541 37.6641L43.0519 37.6975C43.665 37.9704 44.3266 38.1177 44.9976 38.1307C45.6686 38.1436 46.3353 38.0219 46.9585 37.7729H46.9613Z" fill="#3F2355"/>
<path d="M45.0832 38.1384C44.3801 38.1404 43.6846 37.9919 43.0435 37.7031C44.3884 37.7227 45.6943 37.7506 46.95 37.7785C46.3568 38.0178 45.7229 38.14 45.0832 38.1384Z" fill="#DEDFE0"/>
<path d="M45.0838 36.1162C44.6385 36.1169 44.1985 36.0184 43.7959 35.828C43.3933 35.6375 43.0381 35.3599 42.756 35.0153C42.4739 34.6706 42.2721 34.2675 42.1651 33.8351C42.0581 33.4028 42.0486 32.9521 42.1373 32.5156C42.2261 32.0792 42.4108 31.6679 42.6781 31.3117C42.9454 30.9555 43.2886 30.6632 43.6829 30.456C44.0771 30.2488 44.5125 30.1319 44.9576 30.1138C45.4026 30.0957 45.846 30.1768 46.2558 30.3513C46.7251 30.5533 47.1352 30.8713 47.4476 31.2755C47.76 31.6797 47.9645 32.1567 48.0417 32.6617C48.0543 32.7178 48.0627 32.7747 48.0668 32.8319C48.0668 32.8626 48.0668 32.8933 48.0668 32.9212C48.0696 32.9519 48.0696 32.9827 48.0668 33.0133C48.0668 33.0496 48.0668 33.0859 48.0668 33.1194C48.0674 33.4082 48.027 33.6957 47.9468 33.9732C47.9468 33.9732 47.9468 34.0011 47.9468 34.0151C47.9025 34.1532 47.8494 34.2884 47.7878 34.4197C47.7431 34.5062 47.6985 34.5871 47.651 34.6652C47.3841 35.1075 47.0076 35.4734 46.5578 35.7276C46.1081 35.9818 45.6004 36.1157 45.0838 36.1162Z" fill="white"/>
<path d="M40.4528 37.6687C41.0562 38.2875 41.7775 38.7791 42.574 39.1146C43.3705 39.4501 44.2262 39.6226 45.0905 39.6219L45.1072 40.5093C41.4797 40.5818 37.5062 40.6181 33.3513 40.6181C15.9644 40.6181 1.87012 39.9484 1.87012 39.1253C1.87012 38.3021 15.9644 37.6352 33.3513 37.6352C35.7929 37.6324 38.1703 37.6436 40.4528 37.6687Z" fill="#DEDFE0"/>
<path d="M40.06 33.1186C40.0607 34.089 40.3426 35.0384 40.8715 35.852C41.4003 36.6656 42.1536 37.3086 43.0401 37.7032L40.4423 37.6697C39.5375 36.7481 38.9277 35.578 38.6906 34.3084C38.4535 33.0389 38.5999 31.7275 39.1111 30.5414C39.6223 29.3554 40.4751 28.3485 41.5608 27.6491C42.6466 26.9497 43.916 26.5895 45.2072 26.6145C46.4985 26.6394 47.7531 27.0484 48.811 27.7892C49.8689 28.53 50.6822 29.5691 51.1472 30.774C51.6122 31.9789 51.7078 33.2949 51.4219 34.5544C51.1359 35.8138 50.4814 36.9596 49.5417 37.8455C48.7046 37.8176 47.8368 37.7981 46.9494 37.7786C47.7963 37.4395 48.5348 36.8762 49.0858 36.1492C49.6367 35.4222 49.9793 34.5588 50.0766 33.6518C50.174 32.7448 50.0225 31.8284 49.6385 31.001C49.2544 30.1736 48.6523 29.4664 47.8967 28.9553C47.1411 28.4442 46.2606 28.1485 45.3496 28.1001C44.4387 28.0516 43.5318 28.2521 42.7262 28.68C41.9206 29.108 41.2468 29.7473 40.7771 30.5293C40.3073 31.3113 40.0594 32.2064 40.06 33.1186Z" fill="#3F2355"/>
<path d="M42.0943 33.1145C42.0936 33.7693 42.3074 34.4063 42.7029 34.9281C43.0984 35.4499 43.654 35.8279 44.2846 36.0041C44.9152 36.1804 45.5862 36.1452 46.195 35.9041C46.8037 35.6629 47.3168 35.229 47.6556 34.6687C47.3573 35.1626 46.9233 35.5603 46.4053 35.8143C45.8872 36.0683 45.3071 36.168 44.734 36.1015C44.1608 36.035 43.6189 35.805 43.1729 35.4391C42.7268 35.0731 42.3954 34.5866 42.2182 34.0375C42.041 33.4885 42.0254 32.9 42.1733 32.3423C42.3212 31.7846 42.6264 31.2813 43.0525 30.8922C43.4785 30.5032 44.0075 30.2449 44.5763 30.1481C45.1451 30.0513 45.7297 30.1202 46.2604 30.3464C45.8043 30.1534 45.3076 30.0763 44.8144 30.122C44.3213 30.1677 43.8471 30.3348 43.4343 30.6083C43.0214 30.8819 42.6828 31.2534 42.4485 31.6898C42.2142 32.1261 42.0916 32.6136 42.0916 33.1089L42.0943 33.1145Z" fill="#3F2355"/>
<path d="M40.7661 18.2727H55.4072C55.5646 18.272 55.7154 18.2092 55.8267 18.0979C55.938 17.9866 56.0008 17.8358 56.0016 17.6784V14.2099C56.0001 12.9168 55.4857 11.677 54.5713 10.7626C53.6569 9.84818 52.4171 9.33382 51.124 9.33234H40.7716C40.6137 9.33308 40.4626 9.39632 40.3512 9.50823C40.2398 9.62013 40.1773 9.7716 40.1773 9.92949V17.6812C40.1787 17.8371 40.2411 17.9864 40.3512 18.0969C40.4612 18.2075 40.6101 18.2706 40.7661 18.2727ZM40.7661 18.7164C40.491 18.7157 40.2274 18.6061 40.0329 18.4116C39.8384 18.2171 39.7288 17.9535 39.728 17.6784V9.92949C39.728 9.65393 39.8373 9.38962 40.0319 9.1945C40.2265 8.99939 40.4905 8.88941 40.7661 8.88867H51.1184C52.5297 8.88867 53.8832 9.4493 54.8811 10.4472C55.879 11.4452 56.4397 12.7987 56.4397 14.2099V17.6812C56.4397 17.9565 56.3303 18.2205 56.1356 18.4152C55.941 18.6098 55.6769 18.7192 55.4016 18.7192L40.7661 18.7164Z" fill="#3F2355"/>
<path d="M55.409 19.1604H40.7678C40.3749 19.1604 39.998 19.0043 39.7201 18.7264C39.4422 18.4486 39.2861 18.0717 39.2861 17.6787V9.9298C39.2861 9.53657 39.4422 9.15941 39.7199 8.88109C39.9977 8.60278 40.3746 8.44605 40.7678 8.44531H51.1202C52.6487 8.44679 54.1142 9.05464 55.195 10.1355C56.2758 11.2163 56.8836 12.6817 56.8851 14.2103V17.6815C56.8844 18.073 56.7287 18.4483 56.4521 18.7254C56.1755 19.0026 55.8005 19.1589 55.409 19.1604ZM40.7678 8.88898C40.4923 8.88972 40.2283 8.99971 40.0337 9.19482C39.8391 9.38993 39.7298 9.65424 39.7298 9.9298V17.6815C39.7305 17.9566 39.8401 18.2202 40.0346 18.4147C40.2292 18.6092 40.4928 18.7188 40.7678 18.7195H55.409C55.6833 18.718 55.9459 18.608 56.1394 18.4135C56.3329 18.219 56.4415 17.9558 56.4414 17.6815V14.2103C56.4414 12.799 55.8808 11.4455 54.8829 10.4475C53.8849 9.44962 52.5315 8.88898 51.1202 8.88898H40.7678Z" fill="#3F2355"/>
<path d="M35.3163 30.0117H31.5103V30.6033H35.3163V30.0117Z" fill="#3F2355"/>
<path d="M31.5106 30.0117H31.2148V30.6033H31.5106V30.0117Z" fill="#3F2355"/>
<path d="M28.4387 20.8151H28.7344C28.754 20.8155 28.7734 20.8119 28.7915 20.8046C28.8096 20.7973 28.826 20.7864 28.8399 20.7726C28.8537 20.7588 28.8645 20.7423 28.8718 20.7242C28.8791 20.7061 28.8827 20.6867 28.8823 20.6672V17.8768C28.8827 17.8571 28.8791 17.8376 28.8719 17.8193C28.8646 17.8011 28.8538 17.7844 28.84 17.7704C28.8262 17.7564 28.8098 17.7452 28.7917 17.7376C28.7736 17.73 28.7541 17.7261 28.7344 17.7261H28.4387C28.419 17.7261 28.3995 17.73 28.3814 17.7376C28.3633 17.7452 28.3469 17.7564 28.3331 17.7704C28.3193 17.7844 28.3085 17.8011 28.3012 17.8193C28.2939 17.8376 28.2904 17.8571 28.2908 17.8768V20.6672C28.2904 20.6867 28.294 20.7061 28.3013 20.7242C28.3085 20.7423 28.3194 20.7588 28.3332 20.7726C28.347 20.7864 28.3635 20.7973 28.3816 20.8046C28.3997 20.8119 28.4191 20.8155 28.4387 20.8151ZM30.5984 8.81641C30.6828 8.81641 30.7637 8.84992 30.8234 8.90958C30.883 8.96923 30.9165 9.05014 30.9165 9.13451V30.0038H19.5513V9.14009C19.552 9.05547 19.5861 8.97456 19.6462 8.91498C19.7063 8.85541 19.7875 8.82198 19.8722 8.82199L30.5984 8.81641Z" fill="white"/>
<path d="M28.7343 17.8906H28.4385V20.6727H28.7343V17.8906Z" fill="#3F2355"/>
<path d="M28.4389 17.8851V20.6755H28.7347V17.8851H28.4389ZM28.7347 17.7344C28.7544 17.7344 28.7738 17.7383 28.792 17.7459C28.8101 17.7535 28.8265 17.7646 28.8403 17.7787C28.8541 17.7927 28.8649 17.8093 28.8722 17.8276C28.8794 17.8459 28.883 17.8654 28.8826 17.8851V20.6755C28.883 20.695 28.8794 20.7144 28.8721 20.7325C28.8648 20.7506 28.8539 20.7671 28.8401 20.7809C28.8263 20.7947 28.8099 20.8056 28.7918 20.8129C28.7736 20.8202 28.7542 20.8237 28.7347 20.8233H28.4389C28.4194 20.8237 28.4 20.8202 28.3819 20.8129C28.3638 20.8056 28.3473 20.7947 28.3335 20.7809C28.3197 20.7671 28.3088 20.7506 28.3015 20.7325C28.2942 20.7144 28.2907 20.695 28.291 20.6755V17.8851C28.2907 17.8654 28.2942 17.8459 28.3015 17.8276C28.3088 17.8093 28.3196 17.7927 28.3334 17.7787C28.3471 17.7646 28.3636 17.7535 28.3817 17.7459C28.3998 17.7383 28.4193 17.7344 28.4389 17.7344H28.7347Z" fill="#3F2355"/>
<path d="M18.958 9.14097C18.9587 8.89872 19.0555 8.66664 19.2271 8.4956C19.3986 8.32456 19.631 8.22851 19.8733 8.22852H30.5995C30.8413 8.22925 31.0729 8.32562 31.2439 8.49658C31.4149 8.66754 31.5112 8.8992 31.512 9.14097V30.0103H30.9176V9.14097C30.9176 9.0566 30.8841 8.97569 30.8244 8.91604C30.7648 8.85638 30.6839 8.82287 30.5995 8.82287H19.8733C19.7886 8.82286 19.7074 8.85629 19.6473 8.91587C19.5872 8.97544 19.5531 9.05635 19.5524 9.14097V30.0103H18.958V9.14097Z" fill="#3F2355"/>
<path d="M31.215 30.0117V30.6061H19.2554V30.0117H19.5512H30.9164H31.215Z" fill="#3F2355"/>
<path d="M19.2538 30.0117H18.958V30.6033H19.2538V30.0117Z" fill="#3F2355"/>
<path d="M18.9571 30.0117V30.6061H11.2109V30.3075H11.3588V30.0117H18.9571Z" fill="#3F2355"/>
<path d="M11.3596 30.0117V30.3075H11.2117H10.6201V30.0117H11.3596Z" fill="#3F2355"/>
<path d="M11.2104 30.5996H10.9648V33.4291H11.2104V30.5996Z" fill="#3F2355"/>
<path d="M11.2104 33.4316H10.9648V34.1739H11.2104V33.4316Z" fill="#3F2355"/>
<path d="M11.2117 30.3027V30.6013H10.9661V30.4534H10.6201V30.3027H11.2117Z" fill="#3F2355"/>
<path d="M10.9649 30.457H10.6201V30.6016H10.9649V30.457Z" fill="#3F2355"/>
<path d="M10.9661 33.4316H10.6201V34.1739H10.9661V33.4316Z" fill="#3F2355"/>
<path d="M10.9661 34.168H10.6201V34.8991H10.9661V34.168Z" fill="#3F2355"/>
<path d="M11.2117 34.1754V33.4331H36.0461C36.088 31.0382 37.0688 28.7555 38.7772 27.0766C40.4857 25.3978 42.7852 24.457 45.1805 24.457C47.5758 24.457 49.8752 25.3978 51.5837 27.0766C53.2922 28.7555 54.2729 31.0382 54.3148 33.4331H64.4048V31.0473C64.246 31.0373 64.0914 30.9924 63.952 30.9157C63.8126 30.839 63.6918 30.7324 63.5984 30.6037H64.2653V30.0121L64.8597 29.6214C65.155 29.7051 65.4149 29.8828 65.6002 30.1275C65.7855 30.3722 65.886 30.6706 65.8865 30.9776V33.5057C65.8858 33.8796 65.7367 34.2381 65.472 34.5022C65.2073 34.7664 64.8486 34.9148 64.4746 34.9148H52.7159L52.794 34.1C52.8165 33.884 52.8268 33.667 52.8247 33.4498C52.7864 31.4455 51.9634 29.5363 50.5324 28.1323C49.1014 26.7284 47.1768 25.9419 45.1721 25.9419C43.1674 25.9419 41.2428 26.7284 39.8118 28.1323C38.3808 29.5363 37.5577 31.4455 37.5194 33.4498C37.5188 33.6669 37.529 33.8839 37.5501 34.1L37.6311 34.9148H10.6201H10.9661V34.1754H11.2117Z" fill="#3F2355"/>
<path d="M9.87598 30.3052V6.79901C9.88482 5.16926 10.5379 3.60915 11.6926 2.45909C12.8474 1.30902 14.4102 0.662343 16.0399 0.660156H49.6306C53.6658 0.665326 57.5342 2.27077 60.3872 5.12433C63.2402 7.97788 64.845 11.8466 64.8494 15.8817V29.6328L64.255 30.0234H63.3705C63.369 30.0039 63.369 29.9843 63.3705 29.9648V15.8678C63.3661 12.2253 61.917 8.73342 59.3411 6.1581C56.7653 3.58277 53.273 2.13438 49.6306 2.13069H16.0399C14.8008 2.13142 13.6123 2.62305 12.7348 3.49797C11.8573 4.3729 11.3621 5.55984 11.3577 6.79901V29.9983H10.6182V30.2941H9.87598V30.3052Z" fill="#3F2355"/>
<path d="M10.6165 30.3027H10.0249V30.4534H10.6165V30.3027Z" fill="#3F2355"/>
<path d="M10.0249 34.1738V34.0148H10.0751V31.3472H10.0249V30.457H10.6193V30.6049H10.9653V33.4316H10.6193V34.1738H10.0249Z" fill="#3F2355"/>
<path d="M10.0751 31.3438H10.0249V34.0114H10.0751V31.3438Z" fill="#3F2355"/>
<path d="M10.0258 31.3539V34.0215H1.68808C1.65023 34.0215 1.61277 34.0139 1.57797 33.999C1.54317 33.9841 1.51177 33.9623 1.48567 33.9349C1.45956 33.9075 1.43931 33.875 1.42614 33.8396C1.41296 33.8041 1.40715 33.7663 1.40904 33.7285V26.7051H4.06549V30.1875C4.06549 30.4946 4.18749 30.7891 4.40466 31.0063C4.62183 31.2235 4.91638 31.3455 5.2235 31.3455L10.0258 31.3539Z" fill="white"/>
<path d="M5.52382 23.6075C5.53798 23.6071 5.55206 23.6096 5.56525 23.6147C5.57844 23.6199 5.59046 23.6276 5.6006 23.6375C5.61075 23.6474 5.61881 23.6592 5.62431 23.6723C5.62981 23.6853 5.63265 23.6993 5.63264 23.7135V25.8202H1.39404V23.7135C1.39404 23.6993 1.39687 23.6853 1.40237 23.6723C1.40788 23.6592 1.41594 23.6474 1.42608 23.6375C1.43622 23.6276 1.44824 23.6199 1.46143 23.6147C1.47462 23.6096 1.48871 23.6071 1.50287 23.6075H5.52382Z" fill="#DEDFE0"/>
<path d="M5.22149 31.3539C4.91436 31.3539 4.61982 31.2319 4.40265 31.0147C4.18548 30.7975 4.06348 30.503 4.06348 30.1959V26.7051H4.95082V30.1875C4.95082 30.2615 4.98022 30.3325 5.03255 30.3848C5.08488 30.4371 5.15585 30.4665 5.22986 30.4665H10.0321V31.3539H5.22149Z" fill="#3F2355"/>
<path d="M4.12891 26.262C4.18726 26.1301 4.28265 26.0179 4.40352 25.9392C4.52438 25.8604 4.6655 25.8185 4.80976 25.8184V26.262H4.12891Z" fill="#3F2355"/>
<path d="M4.06348 26.5611C4.06322 26.4573 4.0851 26.3545 4.12766 26.2598H4.80851V26.7034H4.06348V26.5611Z" fill="#3F2355"/>
<path d="M4.12863 26.262H1.39404V25.8184H4.80948C4.66522 25.8185 4.52409 25.8604 4.40323 25.9392C4.28237 26.0179 4.18698 26.1301 4.12863 26.262Z" fill="#3F2355"/>
<path d="M4.06444 26.7034H1.39404V26.2598H4.12862C4.08606 26.3545 4.06418 26.4573 4.06444 26.5611V26.7034Z" fill="#3F2355"/>
<path d="M1.39638 25.8184H0.983398V26.262H1.39638V25.8184Z" fill="#3F2355"/>
<path d="M1.39638 26.2598H0.983398V26.7034H1.39638V26.2598Z" fill="#3F2355"/>
<path d="M0.951172 26.2608V23.7104C0.951172 23.5624 1.00997 23.4205 1.11463 23.3158C1.21929 23.2111 1.36124 23.1523 1.50925 23.1523H5.5302C5.67821 23.1523 5.82016 23.2111 5.92482 23.3158C6.02948 23.4205 6.08828 23.5624 6.08828 23.7104V25.8646C6.08755 25.9695 6.04557 26.0698 5.97142 26.144C5.89726 26.2181 5.7969 26.2601 5.69204 26.2608H4.82144V25.8172H5.65856V23.7104C5.65856 23.6963 5.65573 23.6822 5.65023 23.6692C5.64472 23.6561 5.63666 23.6443 5.62652 23.6344C5.61638 23.6246 5.60435 23.6168 5.59117 23.6116C5.57798 23.6065 5.56389 23.604 5.54973 23.6044H1.50367C1.48951 23.604 1.47542 23.6065 1.46223 23.6116C1.44905 23.6168 1.43703 23.6246 1.42688 23.6344C1.41674 23.6443 1.40868 23.6561 1.40317 23.6692C1.39767 23.6822 1.39484 23.6963 1.39484 23.7104V25.8172H0.995819V26.2608H0.951172Z" fill="#3F2355"/>
<path d="M1.68721 34.9066C1.37391 34.9059 1.07369 34.7809 0.852412 34.5591C0.631137 34.3373 0.50687 34.0368 0.506871 33.7235V23.7144C0.505767 23.5827 0.530699 23.4521 0.580233 23.3302C0.629766 23.2082 0.702924 23.0972 0.795501 23.0036C0.888077 22.9099 0.998245 22.8356 1.11967 22.7847C1.2411 22.7338 1.37138 22.7074 1.50304 22.707H5.52399C5.78797 22.7078 6.04092 22.813 6.22758 22.9996C6.41423 23.1863 6.51942 23.4392 6.52016 23.7032V25.8574C6.52016 26.0794 6.43196 26.2923 6.27497 26.4493C6.11798 26.6063 5.90506 26.6945 5.68304 26.6945H4.81244V26.2508H5.68304C5.78791 26.2501 5.88827 26.2081 5.96242 26.134C6.03657 26.0598 6.07855 25.9595 6.07928 25.8546V23.7004C6.07928 23.5524 6.02048 23.4104 5.91582 23.3058C5.81116 23.2011 5.66921 23.1423 5.5212 23.1423H1.50304C1.35503 23.1423 1.21308 23.2011 1.10842 23.3058C1.00376 23.4104 0.944962 23.5524 0.944962 23.7004V26.2508H0.995189V26.6945H1.40538V33.7095C1.40348 33.7473 1.4093 33.7851 1.42247 33.8206C1.43565 33.8561 1.4559 33.8885 1.482 33.9159C1.50811 33.9433 1.53951 33.9651 1.57431 33.98C1.6091 33.9949 1.64657 34.0026 1.68442 34.0025H10.0221V34.1616H10.6165V34.8927L1.68721 34.9066Z" fill="#3F2355"/>
</svg>
