<svg width="24" height="20" viewBox="0 0 24 20" fill="none" xmlns="http://www.w3.org/2000/svg">
<path d="M14.2609 17.959H9.74219C9.35387 17.959 9.03906 18.2738 9.03906 18.6621C9.03906 19.0504 9.35387 19.3652 9.74219 19.3652H14.2609C14.6492 19.3652 14.9641 19.0504 14.9641 18.6621C14.9641 18.2738 14.6492 17.959 14.2609 17.959Z" fill="black"/>
<path d="M13.9774 13.6197C14.1251 13.3234 14.2086 12.9896 14.2086 12.6361C14.2086 11.4163 13.2197 10.4274 11.9999 10.4274C11.6463 10.4274 11.3124 10.5109 11.0161 10.6586L7.70421 7.34657C7.42966 7.07198 6.98445 7.07198 6.70985 7.34657C6.43526 7.62112 6.43526 8.06629 6.70985 8.34093L10.022 11.6532C9.87457 11.9493 9.79123 12.2829 9.79123 12.6361C9.79123 13.8559 10.7801 14.8448 11.9999 14.8448C12.3532 14.8448 12.6869 14.7614 12.983 14.6139L13.7621 15.3931C14.0367 15.6677 14.4818 15.6678 14.7565 15.3932C15.0311 15.1187 15.0311 14.6735 14.7565 14.3989L13.9774 13.6197ZM11.9999 13.4385C11.5574 13.4385 11.1974 13.0786 11.1974 12.6361C11.1974 12.1937 11.5574 11.8337 11.9999 11.8337C12.4424 11.8337 12.8023 12.1937 12.8023 12.6361C12.8023 13.0786 12.4423 13.4385 11.9999 13.4385Z" fill="#FB7333"/>
<path d="M12 0.636719C5.38317 0.636719 0 6.01989 0 12.6367C0 14.7456 0.556031 16.8206 1.60805 18.6375C1.80239 18.9731 2.23186 19.0879 2.56777 18.8942L4.52484 17.7644C4.86112 17.5703 4.97634 17.1403 4.78219 16.804C4.58803 16.4677 4.15809 16.3523 3.82172 16.5466L2.49366 17.3133C1.88363 16.0749 1.52245 14.7228 1.43053 13.3399H2.9625C3.35081 13.3399 3.66562 13.0251 3.66562 12.6368C3.66562 12.2485 3.35081 11.9336 2.9625 11.9336H1.43016C1.52353 10.5159 1.89689 9.1735 2.49567 7.96131L3.82177 8.72692C4.15814 8.92122 4.58817 8.80586 4.78223 8.46958C4.97639 8.13325 4.86117 7.70322 4.52489 7.50911L3.20044 6.74439C3.9713 5.59698 4.96031 4.60797 6.10772 3.83711L6.87234 5.16142C7.0665 5.49775 7.49653 5.61306 7.83281 5.41877C8.16909 5.22456 8.28431 4.79458 8.09016 4.4583L7.32459 3.13234C8.53678 2.53361 9.87919 2.16048 11.2969 2.06697V3.59927C11.2969 3.98758 11.6117 4.30239 12 4.30239C12.3883 4.30239 12.7031 3.98758 12.7031 3.59927V2.06697C14.1208 2.16048 15.4632 2.53366 16.6754 3.13234L15.9098 4.4583C15.7157 4.79458 15.8309 5.22461 16.1672 5.41877C16.5035 5.61306 16.9335 5.49775 17.1277 5.16142L17.8923 3.83711C19.0397 4.60792 20.0287 5.59694 20.7996 6.74439L19.4752 7.50902C19.1389 7.70317 19.0237 8.13316 19.2178 8.46948C19.4119 8.80577 19.8419 8.92113 20.1783 8.72683L21.5044 7.96122C22.1031 9.17341 22.4765 10.5158 22.5699 11.9335H21.0375C20.6492 11.9335 20.3344 12.2484 20.3344 12.6367C20.3344 13.025 20.6492 13.3398 21.0375 13.3398H22.5695C22.4775 14.7227 22.1164 16.0748 21.5063 17.3132L20.1783 16.5465C19.8419 16.3522 19.412 16.4676 19.2178 16.8039C19.0237 17.1402 19.1389 17.5702 19.4752 17.7643L21.4322 18.8941C21.7682 19.0878 22.1976 18.9731 22.392 18.6374C23.444 16.8206 24 14.7457 24 12.6367C24 6.01989 18.6168 0.636719 12 0.636719Z" fill="#3F2355"/>
</svg>
