<svg width="69" height="44" viewBox="0 0 69 44" fill="none" xmlns="http://www.w3.org/2000/svg">
<path d="M1.83573 35.4241L2.10851 38.9702C6.71022 38.9293 8.75877 40.0313 10.7418 41.1033C12.504 42.0526 14.1815 42.9418 17.6294 42.9064C21.3801 42.86 23.9523 41.8344 26.4428 40.8442C29.0041 39.824 31.4264 38.8584 34.9234 38.9348C38.1339 38.9348 40.6053 39.974 42.9948 40.9833C45.3843 41.9926 47.7929 43.0046 50.9489 43.0046C53.9494 43.0046 56.1753 42.0253 58.5348 40.9888C61.0443 39.8977 63.6329 38.752 67.3754 38.6347L67.8228 35.0723C64.0448 35.1077 61.448 36.2479 58.933 37.3499C58.4666 37.5545 57.9838 37.7673 57.5009 37.9637L57.3018 38.0482C55.5261 38.7738 53.5266 39.4476 50.9489 39.4476C47.5938 39.4476 45.0624 38.381 42.6129 37.3472C40.207 36.3352 37.9348 35.3778 34.907 35.375C31.6064 35.3069 29.2715 36.2261 26.8028 37.2081C24.2333 38.231 21.5765 39.2894 17.6431 39.3385C13.9279 39.3794 12.0703 38.3865 10.2781 37.429C8.34961 36.4034 6.38289 35.3396 1.83573 35.4241Z" fill="#DEDFE0"/>
<path d="M1.25705 35.4374H1.2816C1.46981 35.4374 1.6553 35.4374 1.82715 35.4238L1.73441 34.1172H1.22432C1.05823 34.1306 0.903501 34.2068 0.79167 34.3304C0.67984 34.4539 0.619321 34.6154 0.622451 34.782C0.625581 34.9486 0.692127 35.1078 0.808519 35.227C0.924911 35.3462 1.08239 35.4166 1.24887 35.4238L1.25705 35.4374Z" fill="#3F2355"/>
<path d="M2.09402 38.9785H1.57848C1.49717 38.986 1.42159 39.0235 1.36655 39.0838C1.31152 39.1441 1.281 39.2228 1.281 39.3045C1.281 39.3861 1.31152 39.4648 1.36655 39.5251C1.42159 39.5854 1.49717 39.623 1.57848 39.6304H2.12402L2.09402 38.9785Z" fill="#3F2355"/>
<path d="M6.50755 29.4644C6.89217 30.902 8.03237 34.1016 10.9265 36.3111C12.6341 37.2331 14.2544 38.0978 17.6122 38.0541C21.3029 38.005 23.8451 36.993 26.3056 36.0138C28.766 35.0345 31.341 34.0116 34.9089 34.0907C38.1822 34.0907 40.6863 35.1463 43.0921 36.1638C45.498 37.1812 47.8302 38.1605 50.9208 38.1605C53.223 38.1605 55.0479 37.5631 56.6709 36.903C58.0511 35.6073 59.1504 32.7514 59.5596 29.4644H54.4287L54.2077 28.8125H52.181C52.181 28.8554 52.1725 28.8978 52.156 28.9374C52.1396 28.9769 52.1154 29.0128 52.085 29.043C52.0545 29.0732 52.0184 29.097 51.9787 29.1132C51.939 29.1293 51.8965 29.1375 51.8537 29.1371H20.3454C20.3026 29.1375 20.2601 29.1293 20.2204 29.1132C20.1807 29.097 20.1446 29.0732 20.1141 29.043C20.0837 29.0128 20.0596 28.9769 20.0431 28.9374C20.0266 28.8978 20.0181 28.8554 20.0181 28.8125H18.3242L17.9423 29.238L17.7186 29.4644H6.50755Z" fill="white"/>
<path d="M8.87563 35.2852C9.38612 35.8616 9.95163 36.3869 10.5641 36.8536L10.8696 36.2917C10.2586 35.9453 9.61758 35.6098 8.87563 35.2852Z" fill="#3F2355"/>
<path d="M10.563 36.8584C9.9505 36.3917 9.385 35.8664 8.87451 35.2899C8.5008 35.129 8.09983 34.979 7.66339 34.8398C8.37525 35.7993 9.21815 36.6541 10.1675 37.3794L10.5548 36.872L10.563 36.8584Z" fill="#3F2355"/>
<path d="M10.5548 36.8673L10.1675 37.3747C9.21815 36.6494 8.37525 35.7946 7.66339 34.8351C6.20677 34.3741 4.35462 34.0632 1.74144 34.115L1.83418 35.4216C6.38134 35.3343 8.34806 36.4009 10.252 37.4292L10.563 36.8564L10.5548 36.8673Z" fill="#3F2355"/>
<path d="M10.57 36.8613L10.2591 37.4342C10.3532 37.484 10.4581 37.5102 10.5646 37.5105C10.6827 37.511 10.7987 37.4793 10.9002 37.4187C11.0016 37.3582 11.0845 37.2711 11.1401 37.1668L10.57 36.8613Z" fill="#3F2355"/>
<path d="M10.567 36.8613L10.5699 36.8642L10.5786 36.8496L10.567 36.8613Z" fill="#3F2355"/>
<path d="M10.5776 36.8505V36.8641L11.1477 37.1696C11.214 37.0466 11.2392 36.9055 11.2196 36.7671C11.2 36.6286 11.1365 36.5002 11.0386 36.4004L10.5776 36.8505Z" fill="#3F2355"/>
<path d="M10.8829 36.2871L10.5774 36.849L11.0356 36.3989L10.9675 36.3389H10.9511L10.8938 36.3035L10.8829 36.2871Z" fill="#3F2355"/>
<path d="M10.8901 36.2871L10.9468 36.3222C10.9393 36.3183 10.9328 36.3128 10.9279 36.306L10.8901 36.2871Z" fill="#3F2355"/>
<path d="M10.9623 36.3379L11.0312 36.3986C11.0109 36.3755 10.9878 36.3551 10.9623 36.3379Z" fill="#3F2355"/>
<path d="M17.9438 29.238L18.3257 28.8125H17.4692H5.71257C6.19147 31.2128 7.28981 33.4462 8.89858 35.2909C9.64053 35.6046 10.2815 35.951 10.898 36.2838L10.9362 36.3029C8.04207 34.0798 6.90187 30.8938 6.51725 29.4562H17.7201L17.9438 29.238Z" fill="#3F2355"/>
<path d="M11.7727 36.7848L11.009 36.1984C8.22392 34.0598 7.08099 30.9884 6.68547 29.5972H17.7765L18.0493 29.3244L18.6357 28.6725H17.5283L17.4737 28.6152L17.4028 28.6725H5.53436L5.55891 28.8307C6.0487 31.2542 7.15759 33.5096 8.77766 35.3773L8.82675 35.4128C9.55779 35.721 10.1906 36.062 10.7989 36.392L10.8589 36.4248H10.8807L11.7727 36.7848ZM17.6619 29.3381H6.32813L6.37451 29.5099C6.99521 31.83 8.21862 33.9447 9.92058 35.6392C9.61235 35.4837 9.2932 35.331 8.95223 35.1864C7.41451 33.3973 6.34921 31.2517 5.85351 28.9453H18.0193L17.6619 29.3381Z" fill="#3F2355"/>
<path d="M22.9398 23.6605L18.3245 28.8105H20.0184C20.0184 28.7237 20.0529 28.6405 20.1143 28.5791C20.1757 28.5177 20.2589 28.4832 20.3457 28.4832H51.8676C51.9107 28.4828 51.9534 28.4911 51.9933 28.5074C52.0332 28.5237 52.0694 28.5478 52.0999 28.5783C52.1304 28.6087 52.1545 28.645 52.1708 28.6849C52.1871 28.7247 52.1953 28.7675 52.195 28.8105H54.2217L50.5883 18.0332H29.7701L29.5464 18.3496H27.7079L23.5454 22.9868L30.6375 22.9595C30.7244 22.9595 30.8076 22.994 30.869 23.0554C30.9304 23.1168 30.9649 23.2 30.9649 23.2868C30.9649 23.3737 30.9304 23.4569 30.869 23.5183C30.8076 23.5797 30.7244 23.6142 30.6375 23.6142L22.9398 23.6605ZM35.6321 25.0626C35.2839 25.0637 34.9432 24.9614 34.6531 24.7688C34.3631 24.5761 34.1367 24.3017 34.0027 23.9803C33.8687 23.6589 33.8331 23.305 33.9003 22.9633C33.9676 22.6217 34.1348 22.3077 34.3806 22.0611C34.6264 21.8145 34.9399 21.6464 35.2814 21.578C35.6228 21.5097 35.9768 21.5442 36.2986 21.6772C36.6204 21.8102 36.8955 22.0357 37.0891 22.3252C37.2827 22.6146 37.386 22.955 37.386 23.3032C37.386 23.7689 37.2014 24.2156 36.8726 24.5454C36.5438 24.8752 36.0977 25.0612 35.6321 25.0626ZM40.9184 25.0626C40.5705 25.0626 40.2303 24.9594 39.941 24.7661C39.6516 24.5728 39.4261 24.298 39.293 23.9765C39.1598 23.655 39.125 23.3013 39.1928 22.96C39.2607 22.6187 39.4283 22.3052 39.6744 22.0591C39.9204 21.8131 40.2339 21.6455 40.5752 21.5776C40.9165 21.5097 41.2702 21.5446 41.5917 21.6777C41.9132 21.8109 42.188 22.0364 42.3813 22.3257C42.5747 22.6151 42.6778 22.9552 42.6778 23.3032C42.6778 23.7698 42.4925 24.2173 42.1625 24.5473C41.8326 24.8772 41.3851 25.0626 40.9184 25.0626ZM46.2048 25.0626C45.8568 25.0626 45.5167 24.9594 45.2274 24.7661C44.938 24.5728 44.7125 24.298 44.5793 23.9765C44.4462 23.655 44.4113 23.3013 44.4792 22.96C44.5471 22.6187 44.7147 22.3052 44.9607 22.0591C45.2068 21.8131 45.5203 21.6455 45.8616 21.5776C46.2029 21.5097 46.5566 21.5446 46.8781 21.6777C47.1996 21.8109 47.4744 22.0364 47.6677 22.3257C47.861 22.6151 47.9642 22.9552 47.9642 23.3032C47.9642 23.7698 47.7789 24.2173 47.4489 24.5473C47.119 24.8772 46.6714 25.0626 46.2048 25.0626Z" fill="white"/>
<path d="M20.3451 29.1371H51.867C51.9099 29.1375 51.9524 29.1293 51.9921 29.1132C52.0318 29.097 52.0679 29.0732 52.0983 29.043C52.1287 29.0128 52.1529 28.9769 52.1694 28.9374C52.1859 28.8978 52.1943 28.8554 52.1943 28.8125H20.0069C20.0068 28.8563 20.0156 28.8997 20.0328 28.94C20.05 28.9803 20.0751 29.0167 20.1067 29.047C20.1383 29.0773 20.1757 29.1009 20.2167 29.1164C20.2577 29.1319 20.3013 29.1389 20.3451 29.1371Z" fill="#3F2355"/>
<path d="M20.0181 28.8078H52.2056C52.2059 28.7647 52.1977 28.722 52.1814 28.6821C52.1651 28.6422 52.141 28.606 52.1105 28.5755C52.08 28.5451 52.0438 28.521 52.0039 28.5047C51.964 28.4883 51.9213 28.4801 51.8782 28.4805H20.3454C20.2586 28.4805 20.1753 28.515 20.114 28.5764C20.0526 28.6377 20.0181 28.721 20.0181 28.8078Z" fill="#3F2355"/>
<path d="M21.9025 22.8613L17.1562 28.1559H4.92771L5.04228 28.9088C5.459 31.0574 6.35503 33.0845 7.66365 34.8389C8.10009 34.978 8.50106 35.128 8.87476 35.289C7.266 33.4443 6.16765 31.2109 5.68876 28.8106H17.4453L22.148 23.5624C22.093 23.5 22.0639 23.4191 22.0664 23.336C22.0689 23.2529 22.103 23.1739 22.1616 23.115L21.9025 22.8613Z" fill="#3F2355"/>
<path d="M22.4034 23.0066C22.3604 23.007 22.3179 23.0158 22.2783 23.0326C22.2388 23.0494 22.2029 23.0738 22.1727 23.1044C22.1426 23.1351 22.1188 23.1714 22.1027 23.2112C22.0865 23.2511 22.0784 23.2937 22.0788 23.3367C22.0784 23.4154 22.1076 23.4913 22.1606 23.5495L22.6489 23.0039L22.4034 23.0066Z" fill="#3F2355"/>
<path d="M22.6484 23.0059L22.1601 23.5514C22.19 23.5866 22.2272 23.6149 22.2691 23.6342C22.311 23.6535 22.3567 23.6634 22.4029 23.6632H22.9484L23.5376 23.0059H22.6484Z" fill="#3F2355"/>
<path d="M22.4032 23.6626C22.3571 23.6628 22.3114 23.6529 22.2695 23.6336C22.2275 23.6143 22.1903 23.586 22.1605 23.5508L17.4578 28.7935H18.3143L22.9297 23.6435H22.3841L22.4032 23.6626Z" fill="#3F2355"/>
<path d="M22.9405 23.6593L30.6219 23.6293C30.7087 23.6293 30.792 23.5948 30.8533 23.5334C30.9147 23.472 30.9492 23.3888 30.9492 23.3019C30.9492 23.2151 30.9147 23.1319 30.8533 23.0705C30.792 23.0091 30.7087 22.9746 30.6219 22.9746L23.5297 23.0019L22.9405 23.6593Z" fill="#3F2355"/>
<path d="M29.2414 17.7062H29.9779L30.1934 17.3789H29.4105L29.2086 17.6844L29.2414 17.7062Z" fill="#3F2355"/>
<path d="M29.2406 18.0308H29.7616L29.9771 17.7035H29.2406L29.2078 17.6816L29.1915 17.7035H28.9187C28.9187 17.7893 28.9524 17.8718 29.0126 17.933C29.0728 17.9942 29.1547 18.0294 29.2406 18.0308Z" fill="#3F2355"/>
<path d="M29.2093 17.6844L29.4111 17.3789H29.242C29.199 17.3789 29.1565 17.3874 29.1168 17.4038C29.077 17.4203 29.041 17.4444 29.0106 17.4748C28.9802 17.5052 28.9561 17.5413 28.9396 17.581C28.9232 17.6207 28.9147 17.6633 28.9147 17.7062H29.1875L29.2093 17.6844Z" fill="#3F2355"/>
<path d="M27.6917 18.3605H29.5302L29.7539 18.0441H29.2329C29.1461 18.0441 29.0628 18.0096 29.0014 17.9483C28.9401 17.8869 28.9056 17.8036 28.9056 17.7168H27.4026L22.6509 23.0195H23.5319L27.6917 18.3605Z" fill="#3F2355"/>
<path d="M29.9782 17.707L29.7627 18.0344H50.5809L50.54 17.9171L51.1592 17.707H50.5045H29.9782Z" fill="#3F2355"/>
<path d="M30.1931 17.3789L29.9776 17.7062H50.5039V17.3789H30.1931Z" fill="#3F2355"/>
<path d="M32.3125 14.1507L30.1821 17.3776H50.5039V10.7737C50.5039 10.7643 50.5002 10.7553 50.4935 10.7487C50.4869 10.742 50.4778 10.7383 50.4684 10.7383H34.5738L32.7517 13.4988H39.8438C39.8892 13.4946 39.9348 13.5 39.978 13.5145C40.0211 13.5289 40.0607 13.5523 40.0944 13.5829C40.128 13.6136 40.1548 13.651 40.1732 13.6926C40.1915 13.7342 40.201 13.7792 40.201 13.8247C40.201 13.8702 40.1915 13.9152 40.1732 13.9569C40.1548 13.9985 40.128 14.0358 40.0944 14.0665C40.0607 14.0972 40.0211 14.1205 39.978 14.135C39.9348 14.1495 39.8892 14.1548 39.8438 14.1507H32.3125ZM44.5874 15.7601C44.2394 15.7601 43.8993 15.6569 43.6099 15.4636C43.3206 15.2702 43.0951 14.9955 42.9619 14.674C42.8288 14.3525 42.7939 13.9987 42.8618 13.6574C42.9297 13.3161 43.0973 13.0026 43.3433 12.7566C43.5894 12.5105 43.9029 12.343 44.2442 12.2751C44.5855 12.2072 44.9392 12.242 45.2607 12.3752C45.5822 12.5084 45.857 12.7339 46.0503 13.0232C46.2436 13.3125 46.3468 13.6527 46.3468 14.0007C46.3468 14.4673 46.1614 14.9148 45.8315 15.2448C45.5015 15.5747 45.054 15.7601 44.5874 15.7601Z" fill="white"/>
<path d="M29.241 17.3771H29.4101L31.5923 14.0493C31.5633 14.0198 31.5404 13.9848 31.5249 13.9464C31.5095 13.908 31.5018 13.867 31.5023 13.8256C31.5016 13.7605 31.5206 13.6968 31.5568 13.6428L31.2213 13.4219L28.84 17.0634H27.1079L21.9033 22.8708L22.1761 23.1136C22.206 23.0831 22.2416 23.059 22.281 23.0426C22.3203 23.0262 22.3626 23.0179 22.4052 23.0181H22.6507L27.4025 17.7044H28.9164C28.9164 17.6181 28.9505 17.5352 29.0113 17.4739C29.0721 17.4126 29.1546 17.3778 29.241 17.3771Z" fill="#3F2355"/>
<path d="M22.2876 23.3893L22.3803 23.2965C22.3978 23.2789 22.4187 23.2651 22.4416 23.2557C22.4646 23.2463 22.4892 23.2417 22.514 23.242H22.8195L27.5712 17.9392H29.1615V17.8028C29.1611 17.7776 29.1658 17.7526 29.1753 17.7293C29.1848 17.706 29.1988 17.6848 29.2166 17.667C29.2344 17.6492 29.2556 17.6351 29.2789 17.6257C29.3023 17.6162 29.3273 17.6115 29.3524 17.6119H29.5843L31.8838 14.1285L31.8047 14.0494C31.7883 14.033 31.7755 14.0134 31.7671 13.9918C31.7587 13.9702 31.7547 13.9471 31.7556 13.924C31.7538 13.8862 31.7643 13.8488 31.7856 13.8176L31.862 13.703L31.2973 13.332L28.8696 17.0145H27.1484L27.1075 17.0581L21.813 22.9692L22.2876 23.3893ZM22.6967 22.9692H22.514C22.437 22.9687 22.361 22.9875 22.293 23.0237L22.2058 22.9474L27.2794 17.2873H29.0224L31.3846 13.7085L31.4937 13.7903C31.4828 13.834 31.4773 13.8789 31.4774 13.924C31.4766 14.004 31.4963 14.0828 31.5346 14.1531L29.4452 17.3364H29.3524C29.2529 17.3356 29.1559 17.3671 29.0757 17.4261C28.9956 17.4851 28.9367 17.5685 28.9078 17.6637H27.4485L27.4076 17.7073L22.6967 22.9692Z" fill="#3F2355"/>
<path d="M31.5715 13.6431C31.5353 13.6971 31.5162 13.7608 31.5169 13.8258C31.5164 13.8672 31.5241 13.9083 31.5396 13.9467C31.555 13.985 31.5779 14.02 31.6069 14.0495L31.9697 13.5039H31.8443C31.7909 13.5031 31.7381 13.5154 31.6906 13.5396C31.6431 13.5639 31.6022 13.5994 31.5715 13.6431Z" fill="#3F2355"/>
<path d="M31.9688 13.4957L31.606 14.0412C31.6366 14.0733 31.6735 14.0987 31.7143 14.1161C31.755 14.1334 31.7989 14.1423 31.8433 14.1422H32.3125L32.7407 13.4902L31.9688 13.4957Z" fill="#3F2355"/>
<path d="M31.8428 14.1478C31.7985 14.1479 31.7546 14.139 31.7138 14.1217C31.673 14.1043 31.6362 14.0789 31.6055 14.0469L29.4233 17.3747H30.2062L32.312 14.1478H31.8428Z" fill="#3F2355"/>
<path d="M29.1567 17.5145H30.2641L32.5854 14.0148H31.8517C31.8256 14.015 31.7998 14.0097 31.7758 13.9994C31.7519 13.9891 31.7303 13.9739 31.7126 13.9548L31.5925 13.832L29.1567 17.5145ZM30.1196 17.2417H29.6613L31.6416 14.2412C31.7046 14.2716 31.7736 14.2874 31.8435 14.2876H32.0699L30.1196 17.2417Z" fill="#3F2355"/>
<path d="M32.7514 13.4955L32.3123 14.1474H39.8381C39.8834 14.1516 39.9291 14.1462 39.9723 14.1317C40.0154 14.1172 40.055 14.0939 40.0886 14.0632C40.1222 14.0326 40.1491 13.9952 40.1675 13.9536C40.1858 13.912 40.1953 13.867 40.1953 13.8215C40.1953 13.776 40.1858 13.731 40.1675 13.6893C40.1491 13.6477 40.1222 13.6104 40.0886 13.5797C40.055 13.549 40.0154 13.5257 39.9723 13.5112C39.9291 13.4967 39.8834 13.4914 39.8381 13.4955H32.7514Z" fill="#3F2355"/>
<path d="M34.2221 10.0871H41.6606V9.42969H33.8702L31.2215 13.4258L31.5571 13.6468C31.5871 13.6021 31.6277 13.5655 31.6753 13.5403C31.7229 13.5151 31.776 13.502 31.8298 13.5022H31.9553L34.2221 10.0871Z" fill="#3F2355"/>
<path d="M35.6325 22.2013C35.4135 22.1986 35.1986 22.261 35.0151 22.3808C34.8316 22.5005 34.6879 22.6721 34.6022 22.8737C34.5165 23.0753 34.4927 23.2978 34.5337 23.513C34.5748 23.7282 34.6789 23.9263 34.8329 24.0822C34.9868 24.2381 35.1836 24.3447 35.3983 24.3884C35.613 24.4321 35.8358 24.4111 36.0384 24.3279C36.2411 24.2447 36.4145 24.1031 36.5365 23.9211C36.6585 23.7392 36.7236 23.5251 36.7236 23.306C36.7237 23.0153 36.6091 22.7364 36.4049 22.5296C36.2007 22.3228 35.9232 22.2048 35.6325 22.2013Z" fill="#DEDFE0"/>
<path d="M35.6317 22.1984C35.8508 22.1957 36.0657 22.2582 36.2491 22.3779C36.4326 22.4977 36.5763 22.6692 36.662 22.8709C36.7477 23.0725 36.7716 23.295 36.7305 23.5102C36.6894 23.7254 36.5853 23.9235 36.4313 24.0794C36.2774 24.2352 36.0806 24.3418 35.8659 24.3856C35.6513 24.4293 35.4284 24.4082 35.2258 24.325C35.0231 24.2418 34.8498 24.1003 34.7278 23.9183C34.6058 23.7364 34.5406 23.5222 34.5406 23.3032C34.5413 23.0127 34.656 22.7342 34.8601 22.5276C35.0642 22.3209 35.3413 22.2027 35.6317 22.1984ZM37.061 23.3032C37.061 23.0198 36.977 22.7428 36.8195 22.5073C36.662 22.2717 36.4382 22.0882 36.1764 21.9798C35.9145 21.8715 35.6265 21.8433 35.3486 21.8988C35.0707 21.9543 34.8156 22.091 34.6154 22.2915C34.4152 22.4921 34.279 22.7475 34.2241 23.0255C34.1691 23.3034 34.1979 23.5915 34.3067 23.8531C34.4155 24.1147 34.5995 24.3382 34.8353 24.4952C35.0712 24.6522 35.3483 24.7358 35.6317 24.7352C36.011 24.7345 36.3746 24.5833 36.6426 24.3148C36.9105 24.0463 37.061 23.6825 37.061 23.3032Z" fill="#3F2355"/>
<path d="M37.3857 23.3047C37.3852 22.9573 37.2816 22.6178 37.0882 22.3292C36.8947 22.0406 36.62 21.8159 36.2988 21.6835C35.9776 21.551 35.6243 21.5168 35.2837 21.5851C34.943 21.6534 34.6303 21.8212 34.385 22.0672C34.1397 22.3133 33.9729 22.6266 33.9056 22.9674C33.8384 23.3083 33.8737 23.6614 34.0072 23.9822C34.1406 24.303 34.3662 24.577 34.6554 24.7696C34.9446 24.9622 35.2844 25.0647 35.6318 25.0641C36.0975 25.0627 36.5436 24.8767 36.8724 24.5469C37.2011 24.2171 37.3857 23.7704 37.3857 23.3047ZM37.0611 23.3047C37.0611 23.5881 36.9771 23.8651 36.8196 24.1006C36.6621 24.3362 36.4383 24.5197 36.1765 24.628C35.9146 24.7364 35.6266 24.7646 35.3487 24.7091C35.0708 24.6536 34.8157 24.5169 34.6155 24.3164C34.4153 24.1158 34.2791 23.8604 34.2242 23.5824C34.1692 23.3045 34.198 23.0164 34.3068 22.7548C34.4156 22.4932 34.5996 22.2697 34.8354 22.1127C35.0713 21.9556 35.3485 21.8721 35.6318 21.8727C36.0111 21.8734 36.3747 22.0246 36.6427 22.2931C36.9106 22.5615 37.0611 22.9254 37.0611 23.3047Z" fill="#3F2355"/>
<path d="M40.9197 24.4106C40.3095 24.4106 39.8149 23.916 39.8149 23.3059C39.8149 22.6958 40.3095 22.2012 40.9197 22.2012C41.5298 22.2012 42.0244 22.6958 42.0244 23.3059C42.0244 23.916 41.5298 24.4106 40.9197 24.4106Z" fill="#DEDFE0"/>
<path d="M41.6608 4.17773H42.3154V9.43139H41.6608V4.17773Z" fill="#3F2355"/>
<path d="M41.6608 3.85156V4.17889H42.3154V3.85156H41.9881H41.6608Z" fill="#3F2355"/>
<path d="M41.6608 9.42969H42.3154V10.0816H41.6608V9.42969Z" fill="#3F2355"/>
<path d="M40.918 22.1984C41.1365 22.1984 41.3501 22.2632 41.5318 22.3846C41.7135 22.506 41.8551 22.6785 41.9387 22.8804C42.0223 23.0823 42.0442 23.3044 42.0015 23.5187C41.9589 23.733 41.8537 23.9298 41.6992 24.0843C41.5447 24.2388 41.3479 24.344 41.1336 24.3867C40.9193 24.4293 40.6971 24.4074 40.4953 24.3238C40.2934 24.2402 40.1209 24.0986 39.9995 23.9169C39.8781 23.7352 39.8133 23.5217 39.8133 23.3032C39.814 23.0104 39.9306 22.7298 40.1377 22.5228C40.3447 22.3158 40.6253 22.1991 40.918 22.1984ZM40.918 24.7352C41.2013 24.7352 41.4781 24.6512 41.7136 24.4939C41.9491 24.3365 42.1327 24.1129 42.2411 23.8512C42.3495 23.5895 42.3778 23.3016 42.3226 23.0238C42.2673 22.746 42.1309 22.4908 41.9307 22.2905C41.7304 22.0903 41.4752 21.9539 41.1974 21.8986C40.9196 21.8434 40.6317 21.8717 40.37 21.9801C40.1083 22.0885 39.8847 22.272 39.7273 22.5075C39.5699 22.7431 39.486 23.0199 39.486 23.3032C39.486 23.683 39.6368 24.0472 39.9054 24.3158C40.174 24.5843 40.5382 24.7352 40.918 24.7352Z" fill="#3F2355"/>
<path d="M42.3151 1.4707V3.5247H47.8306L46.9031 2.49906L47.8306 1.4707H42.3151Z" fill="#DEDFE0"/>
<path d="M42.6782 23.3024C42.6782 22.9544 42.575 22.6142 42.3817 22.3249C42.1884 22.0356 41.9136 21.8101 41.5921 21.6769C41.2706 21.5437 40.9169 21.5089 40.5756 21.5768C40.2343 21.6447 39.9208 21.8122 39.6748 22.0583C39.4287 22.3043 39.2611 22.6178 39.1932 22.9591C39.1254 23.3004 39.1602 23.6542 39.2934 23.9757C39.4265 24.2971 39.652 24.5719 39.9414 24.7653C40.2307 24.9586 40.5709 25.0618 40.9188 25.0618C41.385 25.0603 41.8317 24.8745 42.1613 24.5449C42.491 24.2152 42.6768 23.7685 42.6782 23.3024ZM42.3509 23.3024C42.3509 23.5856 42.2669 23.8625 42.1095 24.098C41.9522 24.3335 41.7285 24.517 41.4669 24.6254C41.2052 24.7338 40.9172 24.7622 40.6394 24.7069C40.3617 24.6517 40.1065 24.5153 39.9062 24.315C39.7059 24.1147 39.5695 23.8595 39.5143 23.5817C39.459 23.304 39.4874 23.016 39.5958 22.7543C39.7042 22.4927 39.8877 22.269 40.1232 22.1116C40.3587 21.9543 40.6356 21.8703 40.9188 21.8703C41.2986 21.8703 41.6629 22.0212 41.9315 22.2897C42.2 22.5583 42.3509 22.9226 42.3509 23.3024Z" fill="#3F2355"/>
<path d="M44.5878 12.8945C44.3688 12.8951 44.1549 12.9607 43.9733 13.083C43.7918 13.2054 43.6506 13.3789 43.5678 13.5816C43.485 13.7843 43.4644 14.007 43.5084 14.2215C43.5525 14.436 43.6593 14.6326 43.8152 14.7862C43.9712 14.9399 44.1693 15.0438 44.3844 15.0846C44.5996 15.1255 44.822 15.1015 45.0234 15.0157C45.2249 14.9299 45.3963 14.7862 45.5159 14.6028C45.6355 14.4194 45.6979 14.2046 45.6952 13.9856C45.6909 13.6948 45.5724 13.4173 45.3651 13.2131C45.1579 13.0089 44.8787 12.8945 44.5878 12.8945Z" fill="#DEDFE0"/>
<path d="M46.2053 22.2013C45.9862 22.1986 45.7713 22.261 45.5879 22.3808C45.4044 22.5005 45.2607 22.6721 45.175 22.8737C45.0893 23.0753 45.0654 23.2978 45.1065 23.513C45.1476 23.7282 45.2517 23.9263 45.4056 24.0822C45.5596 24.2381 45.7564 24.3447 45.9711 24.3884C46.1857 24.4321 46.4085 24.4111 46.6112 24.3279C46.8139 24.2447 46.9872 24.1031 47.1092 23.9211C47.2312 23.7392 47.2964 23.5251 47.2964 23.306C47.2964 23.0153 47.1819 22.7364 46.9777 22.5296C46.7734 22.3228 46.4959 22.2048 46.2053 22.2013Z" fill="#DEDFE0"/>
<path d="M44.5868 12.8914C44.8026 12.8914 45.0136 12.9554 45.193 13.0753C45.3724 13.1952 45.5123 13.3656 45.5949 13.5649C45.6774 13.7643 45.699 13.9837 45.6569 14.1953C45.6148 14.407 45.5109 14.6014 45.3583 14.754C45.2057 14.9066 45.0113 15.0105 44.7997 15.0526C44.588 15.0947 44.3686 15.0731 44.1693 14.9905C43.9699 14.9079 43.7995 14.7681 43.6796 14.5887C43.5597 14.4092 43.4957 14.1983 43.4957 13.9825C43.4999 13.6944 43.6162 13.4193 43.82 13.2156C44.0237 13.0119 44.2987 12.8956 44.5868 12.8914ZM46.0189 13.9825C46.0173 13.6996 45.9319 13.4235 45.7736 13.1891C45.6152 12.9547 45.391 12.7724 45.1292 12.6653C44.8674 12.5581 44.5797 12.5309 44.3024 12.5871C44.0252 12.6433 43.7708 12.7803 43.5713 12.9809C43.3719 13.1815 43.2363 13.4367 43.1817 13.7143C43.1271 13.9918 43.1559 14.2794 43.2646 14.5406C43.3732 14.8018 43.5567 15.0249 43.7921 15.1819C44.0274 15.3389 44.3039 15.4227 44.5868 15.4227C44.7753 15.4242 44.9623 15.3884 45.1369 15.3174C45.3116 15.2464 45.4705 15.1416 45.6046 15.0091C45.7386 14.8765 45.8452 14.7188 45.9182 14.545C45.9911 14.3712 46.0291 14.1846 46.0298 13.9961L46.0189 13.9825Z" fill="#3F2355"/>
<path d="M46.0303 13.9996C46.0303 14.2824 45.9466 14.5588 45.7897 14.7941C45.6328 15.0294 45.4098 15.2129 45.1487 15.3216C44.8877 15.4303 44.6003 15.4593 44.3228 15.4049C44.0453 15.3506 43.7901 15.2152 43.5894 15.0161C43.3887 14.8169 43.2515 14.5627 43.195 14.2856C43.1385 14.0086 43.1653 13.721 43.272 13.4591C43.3788 13.1973 43.5606 12.9729 43.7947 12.8142C44.0287 12.6555 44.3045 12.5697 44.5873 12.5676C44.7763 12.5661 44.9637 12.6021 45.1387 12.6734C45.3137 12.7447 45.4729 12.85 45.607 12.9831C45.7411 13.1163 45.8476 13.2746 45.9202 13.4491C45.9929 13.6235 46.0303 13.8106 46.0303 13.9996ZM44.5982 15.759C44.9463 15.7596 45.2867 15.6568 45.5764 15.4638C45.8661 15.2708 46.0921 14.9963 46.2256 14.6748C46.3592 14.3534 46.3945 13.9995 46.3269 13.6581C46.2593 13.3166 46.0919 13.0028 45.846 12.7565C45.6 12.5102 45.2866 12.3423 44.9452 12.2742C44.6038 12.2061 44.2499 12.2408 43.9283 12.3739C43.6066 12.507 43.3317 12.7325 43.1382 13.0219C42.9448 13.3113 42.8415 13.6515 42.8415 13.9996C42.8415 14.4639 43.025 14.9094 43.352 15.2389C43.679 15.5685 44.1231 15.7554 44.5873 15.759H44.5982Z" fill="#3F2355"/>
<path d="M46.2047 22.1984C46.4237 22.1957 46.6386 22.2582 46.8221 22.3779C47.0055 22.4977 47.1493 22.6692 47.235 22.8709C47.3207 23.0725 47.3445 23.295 47.3034 23.5102C47.2624 23.7254 47.1582 23.9235 47.0043 24.0794C46.8504 24.2352 46.6535 24.3418 46.4389 24.3856C46.2242 24.4293 46.0014 24.4082 45.7987 24.325C45.5961 24.2418 45.4227 24.1003 45.3007 23.9183C45.1787 23.7364 45.1136 23.5222 45.1136 23.3032C45.1142 23.0127 45.229 22.7342 45.4331 22.5276C45.6372 22.3209 45.9143 22.2027 46.2047 22.1984ZM47.6367 23.3032C47.6367 23.0199 47.5527 22.7431 47.3954 22.5075C47.238 22.272 47.0144 22.0885 46.7527 21.9801C46.491 21.8717 46.2031 21.8434 45.9253 21.8986C45.6475 21.9539 45.3923 22.0903 45.192 22.2905C44.9918 22.4908 44.8554 22.746 44.8001 23.0238C44.7449 23.3016 44.7732 23.5895 44.8816 23.8512C44.99 24.1129 45.1735 24.3365 45.409 24.4939C45.6445 24.6512 45.9214 24.7352 46.2047 24.7352C46.5845 24.7352 46.9487 24.5843 47.2173 24.3158C47.4858 24.0472 47.6367 23.683 47.6367 23.3032Z" fill="#3F2355"/>
<path d="M47.9634 23.3024C47.9634 22.9544 47.8602 22.6142 47.6669 22.3249C47.4735 22.0356 47.1988 21.8101 46.8773 21.6769C46.5558 21.5437 46.202 21.5089 45.8607 21.5768C45.5194 21.6447 45.2059 21.8122 44.9599 22.0583C44.7138 22.3043 44.5463 22.6178 44.4784 22.9591C44.4105 23.3004 44.4453 23.6542 44.5785 23.9757C44.7117 24.2971 44.9372 24.5719 45.2265 24.7653C45.5158 24.9586 45.856 25.0618 46.204 25.0618C46.6702 25.0603 47.1168 24.8745 47.4465 24.5449C47.7761 24.2152 47.9619 23.7685 47.9634 23.3024ZM46.204 21.8703C46.4873 21.8698 46.7645 21.9533 47.0003 22.1103C47.2362 22.2673 47.4202 22.4908 47.529 22.7524C47.6378 23.0141 47.6665 23.3021 47.6116 23.5801C47.5566 23.858 47.4205 24.1135 47.2203 24.314C47.0201 24.5146 46.765 24.6512 46.4871 24.7067C46.2092 24.7622 45.9211 24.734 45.6593 24.6257C45.3975 24.5174 45.1736 24.3338 45.0162 24.0983C44.8587 23.8627 44.7746 23.5857 44.7746 23.3024C44.7746 22.923 44.9251 22.5592 45.1931 22.2907C45.4611 22.0222 45.8246 21.871 46.204 21.8703Z" fill="#3F2355"/>
<path d="M48.5649 1.13867H41.9883V3.84733H48.5649L47.3429 2.48345L48.5649 1.13867ZM47.8312 3.52H42.3157V1.466H47.8312L46.9037 2.49436L47.8312 3.52Z" fill="#3F2355"/>
<path d="M47.3413 2.49475L48.5633 3.85044H42.314V4.17777H49.2998L47.7832 2.49747L49.2998 0.814453H41.6594V3.85044H41.9867V1.14178H48.5633L47.3413 2.49475Z" fill="#3F2355"/>
<path d="M50.5045 17.3789H51.1592V17.7062H50.5045V17.3789Z" fill="#3F2355"/>
<path d="M34.5745 10.7367H50.4691C50.4785 10.7367 50.4875 10.7404 50.4941 10.7471C50.5008 10.7537 50.5045 10.7627 50.5045 10.7722V17.376H51.1592V10.7722C51.1592 10.5891 51.0865 10.4136 50.957 10.2842C50.8276 10.1547 50.6521 10.082 50.4691 10.082H34.2226L31.9695 13.4972H32.7523L34.5745 10.7367Z" fill="#3F2355"/>
<path d="M50.3675 17.5117H51.2949V10.7715C51.2949 10.5544 51.2087 10.3463 51.0552 10.1928C50.9018 10.0393 50.6936 9.95312 50.4766 9.95312H34.1565L31.7233 13.641H32.8308L34.6556 10.8806H50.3675V17.5117ZM51.0221 17.2389H50.6403V10.7715C50.6403 10.7259 50.6222 10.6822 50.5899 10.6499C50.5577 10.6177 50.514 10.5996 50.4684 10.5996H34.4947L32.6726 13.3601H32.217L34.2901 10.2177H50.4684C50.6131 10.2177 50.7519 10.2752 50.8542 10.3775C50.9565 10.4798 51.014 10.6186 51.014 10.7633L51.0221 17.2389Z" fill="#3F2355"/>
<path d="M50.5398 17.9171L50.5808 18.0344H51.159C51.1942 18.0345 51.2292 18.0289 51.2627 18.018L51.159 17.707L50.5398 17.9171Z" fill="#3F2355"/>
<path d="M50.5883 18.032L54.2298 28.8093H54.9199L51.2702 18.0156C51.2367 18.0266 51.2017 18.0321 51.1665 18.032H50.5883Z" fill="#3F2355"/>
<path d="M50.9359 38.1542C47.8453 38.1542 45.5431 37.1859 43.1072 36.1575C40.6713 35.1291 38.1973 34.0844 34.924 34.0844C31.3561 34.0053 28.8029 35.02 26.3206 36.0075C23.8384 36.9949 21.3179 37.9987 17.6273 38.0478C14.2694 38.0915 12.6491 37.2295 10.9416 36.3048C10.9466 36.3117 10.9531 36.3173 10.9606 36.3212H10.977C11.0022 36.3382 11.0251 36.3584 11.0452 36.3812C11.1431 36.481 11.2066 36.6095 11.2262 36.7479C11.2458 36.8863 11.2206 37.0273 11.1543 37.1504C12.7555 37.9933 14.4604 38.7271 17.6355 38.6889C25.2432 38.5907 28.0309 34.5618 34.924 34.7254C41.2387 34.7254 44.5284 38.7952 50.9495 38.7952C53.3199 38.7952 55.2157 38.1979 57.0542 37.445L56.6205 36.9567L56.6996 36.8831C55.0629 37.5568 53.2381 38.1542 50.9359 38.1542Z" fill="#3F2355"/>
<path d="M51.8105 10.7772C51.8109 10.6006 51.7765 10.4257 51.7092 10.2624C51.642 10.0991 51.5432 9.95062 51.4186 9.82549C51.294 9.70037 51.1459 9.60101 50.9829 9.5331C50.8199 9.46518 50.6451 9.43005 50.4685 9.42969H42.3153V10.0816H50.4685C50.6515 10.0816 50.8271 10.1543 50.9565 10.2838C51.0859 10.4132 51.1586 10.5887 51.1586 10.7717V17.3756C51.2268 17.3761 51.2933 17.3976 51.3489 17.4371C51.4045 17.4766 51.4466 17.5323 51.4696 17.5966L51.7778 17.4929L51.8105 17.5911V10.7772Z" fill="#3F2355"/>
<path d="M51.1603 17.3789V17.7051L51.4702 17.5991C51.4474 17.5351 51.4054 17.4796 51.3499 17.4402C51.2945 17.4008 51.2283 17.3794 51.1603 17.3789Z" fill="#3F2355"/>
<path d="M51.1596 17.707L51.2629 18.0169C51.3279 17.9952 51.3844 17.9536 51.4244 17.898C51.4645 17.8424 51.4859 17.7756 51.4858 17.707H51.1596Z" fill="#3F2355"/>
<path d="M51.1596 17.7017H51.4858C51.4861 17.6657 51.4806 17.6299 51.4695 17.5957L51.1596 17.7017Z" fill="#3F2355"/>
<path d="M51.7779 17.498L51.4707 17.6013C51.4818 17.6356 51.4874 17.6714 51.4871 17.7074H51.8105V17.5959L51.7779 17.498Z" fill="#3F2355"/>
<path d="M54.9122 28.8125H54.2221L54.443 29.4644H59.5739C59.1648 32.7514 58.0655 35.6073 56.6852 36.903L56.7916 36.8594C57.1926 36.6957 57.5854 36.5266 57.9864 36.352C59.1893 34.5708 60.0322 31.753 60.3022 28.8125H54.9122Z" fill="#3F2355"/>
<path d="M56.6061 36.9782L57.0398 37.4664C57.401 37.1369 57.719 36.7629 57.9863 36.3535C57.5853 36.5281 57.1925 36.6972 56.7916 36.8609L56.6852 36.9045L56.6061 36.9782Z" fill="#3F2355"/>
<path d="M57.0381 37.4591L57.4718 37.9473C58.1032 37.3557 58.6282 36.66 59.0239 35.8906L58.3938 36.1634L57.9847 36.3434C57.7176 36.7538 57.3995 37.1287 57.0381 37.4591Z" fill="#3F2355"/>
<path d="M57.0396 37.4627C55.201 38.2156 53.3053 38.8129 50.9348 38.8129C44.5137 38.8129 41.2241 34.7431 34.9093 34.7431C28.0163 34.5795 25.2285 38.6084 17.6208 38.7066C14.4457 38.7447 12.7409 38.011 11.1397 37.1681C11.0841 37.2723 11.0011 37.3594 10.8997 37.42C10.7983 37.4806 10.6823 37.5123 10.5641 37.5118C10.4576 37.5115 10.3528 37.4853 10.2586 37.4354C12.0562 38.4038 13.9138 39.3967 17.6236 39.3449C21.557 39.2958 24.2138 38.2374 26.7833 37.2145C29.252 36.2325 31.5869 35.3051 34.8875 35.3814C37.9153 35.3814 40.1875 36.3416 42.5934 37.3536C45.0484 38.3874 47.5743 39.454 50.9294 39.454C53.5071 39.454 55.5066 38.7802 57.2823 38.0546L57.4814 37.9701L57.4678 37.9373L57.0396 37.4627Z" fill="#3F2355"/>
<path d="M50.935 39.5998C53.5318 39.5998 55.5476 38.9233 57.3397 38.1896L57.3779 38.1732L57.5416 38.105L57.6616 38.0504L57.5743 37.8568L57.0752 37.2949L56.9879 37.333C55.2857 38.0286 53.3763 38.6724 50.935 38.6724C47.7381 38.6724 45.2804 37.6358 42.9045 36.6347C40.5286 35.6337 38.0791 34.6026 34.9095 34.6026C31.4452 34.5207 29.0421 35.4754 26.4971 36.4902C23.9521 37.5049 21.4044 38.5169 17.6182 38.566C14.4486 38.6096 12.7683 37.8677 11.2026 37.0439L11.0826 36.9812L11.0171 37.1012C10.9503 37.2189 10.8409 37.3063 10.7113 37.3454C10.5818 37.3845 10.4422 37.3723 10.3215 37.3112L10.1224 37.2048V37.5185L10.1933 37.5594C11.9991 38.5332 13.8785 39.5371 17.6292 39.4961C21.5871 39.447 24.2549 38.386 26.8353 37.3576C29.2903 36.3838 31.5925 35.4618 34.8904 35.5327C37.8909 35.5327 40.1467 36.4847 42.5281 37.4912C45.0049 38.5278 47.5471 39.5998 50.935 39.5998ZM57.2688 37.925H57.2334C55.4685 38.6451 53.4854 39.3134 50.935 39.3134C47.6017 39.3134 45.084 38.2523 42.6508 37.2239C40.2177 36.1956 37.9427 35.2436 34.8931 35.2409C31.5407 35.1727 29.2084 36.1001 26.7371 37.0848C24.1757 38.1023 21.5326 39.1552 17.6264 39.2043C14.2986 39.2425 12.471 38.4378 10.8425 37.5676C10.9785 37.5181 11.0976 37.4311 11.1862 37.3167C12.7519 38.135 14.4595 38.8606 17.621 38.8142C21.4589 38.7651 24.0721 37.7231 26.598 36.7193C29.1239 35.7155 31.4943 34.7908 34.904 34.8753C38.0245 34.8753 40.4522 35.8982 42.7981 36.8857C45.1985 37.8977 47.6835 38.9451 50.935 38.9451C53.39 38.9451 55.2994 38.315 57.0015 37.6222L57.2688 37.925Z" fill="#3F2355"/>
<path d="M57.474 37.9453L57.4877 37.9781C57.9705 37.7817 58.4533 37.5689 58.9197 37.3643C61.4347 36.2732 64.0315 35.1221 67.8095 35.0867L67.9731 33.7773C64.1543 33.7773 61.5084 34.8112 59.0261 35.8886C58.6304 36.658 58.1054 37.3537 57.474 37.9453Z" fill="#3F2355"/>
<path d="M51.2624 18.0138L54.9121 28.8075H60.3021C60.0294 31.748 59.1892 34.5658 57.9863 36.347L58.3954 36.167L59.0255 35.8942C60.0048 34.0857 60.7031 31.6035 60.9541 28.8675L61.0195 28.1556H55.3813L51.8106 17.5938V17.7056H51.486C51.4856 17.7739 51.4637 17.8403 51.4236 17.8956C51.3835 17.9509 51.3271 17.9922 51.2624 18.0138Z" fill="#3F2355"/>
<path d="M57.6068 36.6626L59.1207 35.9998L59.1452 35.9588C60.1491 34.1012 60.8392 31.5944 61.0874 28.8667L61.1665 28.0047H55.4764L51.6794 16.7637V17.5684H51.3548V17.7047C51.3543 17.7449 51.3415 17.784 51.318 17.8167C51.2946 17.8494 51.2618 17.8741 51.2238 17.8875L51.0929 17.9284L54.819 28.9458H60.1518C59.879 31.8481 59.017 34.5759 57.8714 36.2725L57.6068 36.6626ZM58.927 35.787L58.3406 36.0434C59.4044 34.2704 60.1791 31.6135 60.4355 28.8231L60.4491 28.673H54.9936L51.4148 18.0812C51.4973 18.0226 51.5578 17.9381 51.5866 17.8411H51.7367L55.2827 28.2911H60.8692L60.8174 28.8531C60.5746 31.5208 59.9036 33.9758 58.927 35.787Z" fill="#3F2355"/>
<path d="M67.3618 38.6543C63.6193 38.7716 61.0307 39.9091 58.5212 41.0083C56.1617 42.0449 53.9331 43.0242 50.9353 43.0242C47.7793 43.0242 45.3407 41.9958 42.9812 41.0029C40.6217 40.01 38.1203 38.9544 34.9098 38.9544C31.4128 38.8671 28.9906 39.8327 26.4292 40.8638C23.9388 41.8539 21.3665 42.8796 17.6158 42.926C14.168 42.9614 12.4904 42.0722 10.7283 41.1229C8.74519 40.0509 6.69665 38.9407 2.09493 38.9898L2.14403 39.6417C6.54935 39.6117 8.51333 40.6701 10.4173 41.6985C12.2558 42.6914 13.9852 43.6243 17.624 43.5806C21.4974 43.5315 24.127 42.4895 26.6692 41.4721C29.1679 40.4764 31.5301 39.5408 34.9016 39.6172C37.9894 39.6172 40.2889 40.5883 42.7275 41.6139C45.1661 42.6395 47.6375 43.6897 50.9353 43.6897C54.0695 43.6897 56.3581 42.6832 58.783 41.6194C61.208 40.5555 63.7148 39.4535 67.2773 39.3226L67.3618 38.6543Z" fill="#3F2355"/>
<path d="M67.6718 38.6465C67.5682 38.6465 67.4645 38.6465 67.3608 38.6465L67.2763 39.3039H67.68C67.7668 39.3039 67.8501 39.2694 67.9115 39.208C67.9728 39.1466 68.0073 39.0634 68.0073 38.9765C68.0073 38.8897 67.9728 38.8065 67.9115 38.7451C67.8501 38.6837 67.7668 38.6492 67.68 38.6492L67.6718 38.6465Z" fill="#3F2355"/>
<path d="M67.972 33.7773L67.8084 35.0867H68.0048C68.0941 35.0924 68.1837 35.0798 68.268 35.0496C68.3522 35.0194 68.4294 34.9722 68.4947 34.911C68.5601 34.8497 68.6121 34.7758 68.6477 34.6936C68.6833 34.6115 68.7017 34.5229 68.7017 34.4334C68.7017 34.3438 68.6833 34.2553 68.6477 34.1731C68.6121 34.091 68.5601 34.017 68.4947 33.9558C68.4294 33.8945 68.3522 33.8473 68.268 33.8171C68.1837 33.7869 68.0941 33.7743 68.0048 33.7801L67.972 33.7773Z" fill="#3F2355"/>
</svg>
