<svg width="80" height="27" viewBox="0 0 80 27" fill="none" xmlns="http://www.w3.org/2000/svg">
<path d="M2.39425 15.4724C2.60108 16.1685 2.94159 17.074 2.91889 17.7904C2.64648 18.0048 2.41443 18.1662 2.23282 18.2948C2.13697 17.6214 1.94528 16.277 1.76367 15.1621C1.98154 15.2491 2.19237 15.3528 2.39425 15.4724Z" fill="white"/>
<path d="M76.3666 6.91406C76.523 8.19792 76.7223 8.93191 76.9266 9.38593C76.4801 9.25225 76.1245 9.14883 75.8748 9.07821C75.7932 9.05514 75.7203 9.00826 75.6655 8.94356C75.6107 8.87886 75.5764 8.79928 75.567 8.71499C75.5282 8.37477 75.4183 8.04651 75.2445 7.75147C75.0707 7.45643 74.8369 7.20121 74.5581 7.00234C75.1623 7.0162 75.7667 6.9867 76.3666 6.91406Z" fill="white"/>
<path d="M73.6172 16.4202C74.5317 16.4172 75.4442 16.3327 76.3438 16.168C76.0945 16.7697 75.9249 17.4014 75.8393 18.0471C75.3349 18.1379 74.6841 18.2388 73.8694 18.3447C73.8087 18.3517 73.7497 18.3696 73.6954 18.3977C73.7639 17.7382 73.7376 17.0722 73.6172 16.4202Z" fill="white"/>
<path d="M25.2316 18.791C25.1149 18.7913 25.0012 18.8285 24.9069 18.8974C24.8127 18.9663 24.7427 19.0632 24.707 19.1744L24.3135 19.0861C24.46 18.389 24.4974 17.6734 24.4245 16.9648H59.7772C59.7528 17.2037 59.741 17.4436 59.7419 17.6837C59.7444 18.4318 59.8679 19.1745 60.1076 19.8832L60.0672 19.8958L59.3963 19.0205C59.3876 19.0069 59.3775 18.9942 59.366 18.9827C59.2981 18.8899 59.2018 18.8217 59.0916 18.7885C58.9815 18.7553 58.8636 18.7588 58.7556 18.7986L25.2316 18.791Z" fill="white"/>
<path d="M77.9635 10.8997V13.9492C77.4372 14.3913 76.9968 14.9265 76.6645 15.5282C76.3315 15.6417 75.484 15.8384 73.5015 15.8788C73.0976 14.3377 72.1796 12.9808 70.8994 12.0327C69.6192 11.0846 68.0536 10.602 66.4617 10.665C64.8699 10.728 63.3473 11.3327 62.146 12.379C60.9447 13.4253 60.1367 14.8504 59.8558 16.4185H48.6113C49.3983 15.0767 50.4602 13.1017 50.5106 12.1483C50.5863 10.6752 49.5017 7.35587 49.4513 7.21715L49.421 7.13643L48.6416 6.71268C48.7341 6.68997 48.8251 6.66132 48.914 6.62693C49.0401 6.5758 49.153 6.49684 49.2443 6.39595C49.3356 6.29505 49.4029 6.17483 49.4412 6.04427L50.5308 5.88032C50.611 5.86959 50.685 5.83167 50.7405 5.7729C50.7961 5.71414 50.8298 5.63809 50.836 5.55747L51.0655 3.03516L64.3102 5.97869C64.3924 6.00082 64.4774 6.01018 64.5624 6.00644H64.5801C67.2512 5.95095 70.6538 6.07202 72.5329 6.54874L73.3098 6.89177C74.7047 7.50469 74.9771 8.3194 75.0149 8.75071C75.033 8.94618 75.11 9.13156 75.2356 9.28241C75.3613 9.43325 75.5297 9.54248 75.7186 9.59569C76.0793 9.6991 76.667 9.87062 77.4187 10.1002L77.517 10.1304C77.6924 10.3705 77.842 10.6284 77.9635 10.8997Z" fill="white"/>
<path d="M49.063 7.42893C49.232 7.95357 50.1425 10.8517 50.0719 12.1204C50.024 13.0335 48.8763 15.1094 48.1045 16.4084H27.7318C27.1567 11.616 28.0269 9.42407 28.1833 9.07852C28.3094 9.00033 28.6247 8.80106 29.0257 8.511C29.1866 8.64032 29.3869 8.71065 29.5933 8.71026C29.8985 8.71026 30.3222 8.69513 30.8368 8.66738C30.9043 8.73283 30.9949 8.76907 31.089 8.76827H34.0199C34.0917 8.76847 34.1619 8.74741 34.2217 8.70774C34.3672 8.61124 34.5055 8.50417 34.6354 8.3874C39.3218 7.98384 45.6226 7.2902 48.0036 6.84375L49.063 7.42893ZM47.6959 8.7708C47.6952 8.69832 47.666 8.62903 47.6145 8.57802C47.563 8.527 47.4935 8.49838 47.421 8.49839H44.5027C44.4346 8.50493 44.3714 8.53659 44.3255 8.58719C44.2795 8.63778 44.254 8.70369 44.254 8.77206C44.254 8.84042 44.2795 8.90633 44.3255 8.95693C44.3714 9.00753 44.4346 9.03919 44.5027 9.04573H47.421C47.4935 9.04443 47.5627 9.01505 47.6139 8.96377C47.6652 8.91249 47.6946 8.84331 47.6959 8.7708Z" fill="white"/>
<path d="M10.4789 17.6845C10.4804 18.1869 10.537 18.6877 10.6479 19.1777L10.4108 19.2307C10.3848 19.1072 10.3174 18.9962 10.2196 18.9164C10.1219 18.8365 9.99973 18.7926 9.87351 18.7918H2.7732C3.33079 18.4132 3.85181 17.9834 4.32947 17.5079C4.37101 17.4667 4.4019 17.416 4.41947 17.3602C4.43705 17.3044 4.44079 17.2452 4.43036 17.1876C4.0848 15.258 2.26369 14.5341 1.62807 14.3374C1.58771 14.1154 1.54988 13.9162 1.51709 13.7522C2.54872 12.5945 9.18492 8.45536 19.4432 8.20312C19.5385 8.26405 19.6506 8.29319 19.7635 8.28636C22.6391 8.15317 25.5203 8.20203 28.3898 8.43265C28.0997 8.62939 27.9106 8.7429 27.9055 8.74542L27.8526 8.77821L27.8248 8.83118C27.7668 8.9346 26.6545 11.1013 27.2951 16.4158H24.3516L24.3289 16.2972C24.0134 14.6982 23.1492 13.2597 21.8857 12.2302C20.6222 11.2007 19.0387 10.645 17.409 10.659C15.7792 10.6731 14.2055 11.2561 12.96 12.3072C11.7144 13.3583 10.8752 14.8116 10.5873 16.4158H7.1595C7.12136 16.4121 7.08287 16.4165 7.0465 16.4285C7.01013 16.4406 6.97669 16.4602 6.94833 16.486C6.91996 16.5117 6.8973 16.5431 6.88179 16.5782C6.86628 16.6132 6.85827 16.6511 6.85827 16.6894C6.85827 16.7278 6.86628 16.7657 6.88179 16.8007C6.8973 16.8358 6.91996 16.8672 6.94833 16.8929C6.97669 16.9187 7.01013 16.9383 7.0465 16.9503C7.08287 16.9624 7.12136 16.9668 7.1595 16.9631H10.5117C10.489 17.2027 10.4789 17.4449 10.4789 17.6845Z" fill="white"/>
<path d="M76.3433 16.1725C76.4376 15.9517 76.5436 15.7361 76.6611 15.5267C76.7278 15.5059 76.7914 15.4762 76.8502 15.4385C76.8763 15.4143 76.9068 15.3956 76.9402 15.3835C76.9735 15.3713 77.0089 15.3658 77.0444 15.3675C77.0798 15.3691 77.1146 15.3778 77.1467 15.393C77.1787 15.4082 77.2074 15.4297 77.2311 15.4561C77.28 15.5111 77.3055 15.583 77.3022 15.6564C77.2989 15.7299 77.267 15.7992 77.2135 15.8496C77.1681 15.895 76.9738 16.0388 76.3433 16.1725Z" fill="#3F2355"/>
<path d="M78.7499 10.5177L77.6653 9.62733C77.4257 9.43311 77.1432 7.79109 77.0297 6.37859L76.9969 6.00781L77.0423 6.0406C77.1545 6.12648 77.2482 6.23425 77.3176 6.35738C77.3869 6.48051 77.4306 6.61644 77.4459 6.75694C77.6981 8.79749 78.0159 9.10773 78.0285 9.12034C78.4901 9.4432 78.8962 10.3134 79.0072 10.5707L79.0551 10.6766V14.508L78.8256 14.672C78.3211 15.0427 77.0953 16.1626 76.8708 18.5714L76.8355 18.9725L76.442 19.0583C75.8947 19.1768 75.0724 19.3105 74.0004 19.4467H73.9272C73.8528 19.4465 73.7792 19.431 73.7111 19.4011C73.6429 19.3711 73.5817 19.3274 73.5312 19.2726C73.6019 18.9882 73.6524 18.6991 73.6826 18.4075C73.7369 18.3794 73.7959 18.3615 73.8566 18.3545C74.6713 18.2486 75.3297 18.1477 75.8265 18.0569C75.9121 17.4112 76.0817 16.7795 76.331 16.1778C76.9616 16.0441 77.1558 15.9003 77.2037 15.8549C77.2573 15.8045 77.2891 15.7352 77.2924 15.6618C77.2957 15.5883 77.2702 15.5164 77.2214 15.4614C77.1977 15.435 77.169 15.4136 77.1369 15.3983C77.1049 15.3831 77.0701 15.3744 77.0347 15.3728C76.9992 15.3711 76.9638 15.3766 76.9305 15.3888C76.8971 15.401 76.8666 15.4197 76.8405 15.4438C76.7817 15.4815 76.7181 15.5112 76.6514 15.5321C76.9837 14.9304 77.424 14.3951 77.9503 13.9531V10.9011C77.8305 10.6344 77.6834 10.3809 77.5115 10.1444L78.7499 10.5177Z" fill="#3F2355"/>
<path d="M74.5068 6.95317C75.1849 6.96572 75.8621 6.89885 76.5247 6.75391C76.5901 7.64683 76.7421 8.53127 76.9787 9.39477H76.9383C76.734 8.94832 76.5348 8.20676 76.3784 6.9229C75.7784 6.99554 75.1741 7.02504 74.5699 7.01118C74.5421 6.98092 74.522 6.9683 74.5068 6.95317Z" fill="#3F2355"/>
<path d="M76.651 6.15314C76.651 6.15314 75.8943 6.45078 74.1287 6.40537C74.1605 6.32368 74.1605 6.23304 74.1287 6.15134C74.097 6.06963 74.0358 6.00278 73.9572 5.96397C73.9168 5.94127 73.8739 5.92109 73.8311 5.90091L73.8462 5.87317V5.85803L73.8815 5.87569C74.6726 5.93461 75.4675 5.91602 76.255 5.8202C76.5143 5.78453 76.7775 5.84852 76.9915 5.99928L76.651 6.15314Z" fill="#3F2355"/>
<path d="M73.7865 6.97111C74.0514 6.98877 74.3087 6.99886 74.5584 7.0039C74.8371 7.20277 75.071 7.45799 75.2448 7.75303C75.4186 8.04807 75.5285 8.37633 75.5673 8.71655C75.5766 8.80083 75.6109 8.88041 75.6657 8.94511C75.7206 9.00981 75.7934 9.0567 75.875 9.07976C76.1273 9.15039 76.4804 9.2538 76.9268 9.38748C77.0248 9.63262 77.1879 9.84631 77.3985 10.0054C77.447 10.0454 77.4895 10.0921 77.5246 10.1442L77.4262 10.1139C76.6695 9.88185 76.0869 9.71034 75.7262 9.60945C75.5372 9.55624 75.3689 9.44701 75.2432 9.29617C75.1176 9.14532 75.0406 8.95994 75.0225 8.76447C74.9846 8.33316 74.7122 7.51845 73.3174 6.90553L72.5405 6.5625C72.851 6.63649 73.1528 6.74302 73.441 6.88031C73.5496 6.93169 73.6667 6.96248 73.7865 6.97111Z" fill="#3F2254"/>
<path d="M73.6533 6.61323L73.5145 6.54513C73.4419 6.50713 73.3842 6.44584 73.3506 6.37109H73.4439C73.6962 6.38623 73.9181 6.39632 74.1325 6.39884C74.1351 6.40962 74.1351 6.42085 74.1325 6.43163C74.093 6.51658 74.0217 6.58265 73.934 6.61566C73.8463 6.64867 73.7491 6.64599 73.6634 6.60819L73.6533 6.61323Z" fill="#3F2355"/>
<path d="M76.3447 16.1672C75.4451 16.332 74.5326 16.4164 73.6181 16.4194L73.5954 16.2933C73.5954 16.2429 73.5752 16.1949 73.5651 16.147C73.5449 16.0562 73.5222 15.9629 73.4995 15.8721C75.4821 15.8317 76.3295 15.635 76.6625 15.5215C76.5451 15.7309 76.439 15.9464 76.3447 16.1672Z" fill="#3F2355"/>
<path d="M73.6892 18.3984C73.659 18.69 73.6085 18.9791 73.5379 19.2636C73.4569 19.1817 73.4054 19.0752 73.3916 18.9609C73.3756 18.8478 73.3957 18.7324 73.4492 18.6314C73.5026 18.5304 73.5866 18.4489 73.6892 18.3984Z" fill="#3F2355"/>
<path d="M73.4414 6.87297C73.1532 6.73567 72.8514 6.62914 72.5409 6.55515L71.9053 6.27518L73.3506 6.3685C73.3842 6.44325 73.4419 6.50454 73.5145 6.54254L73.6532 6.61064C73.739 6.64844 73.8361 6.65112 73.9238 6.61811C74.0116 6.58511 74.0828 6.51904 74.1224 6.43408C74.125 6.42331 74.125 6.41207 74.1224 6.40129C75.888 6.44165 76.6447 6.14906 76.6447 6.14906L76.9903 6.00781L77.0231 6.37859C77.1366 7.79109 77.4191 9.43311 77.6587 9.62733L78.7433 10.5177L77.5326 10.1394C77.4974 10.0873 77.455 10.0405 77.4064 10.0006C77.1958 9.8415 77.0327 9.6278 76.9348 9.38267H76.9751C76.7386 8.51917 76.5865 7.63473 76.5211 6.74181C75.8586 6.88675 75.1813 6.95362 74.5033 6.94107C74.5209 6.9562 74.5411 6.96881 74.5587 6.98647C74.3065 6.98647 74.0543 6.97134 73.7869 6.95368C73.6678 6.94823 73.5506 6.92087 73.4414 6.87297Z" fill="#3F2355"/>
<path d="M73.3911 18.9692C73.4049 19.0835 73.4564 19.19 73.5373 19.2719C73.4532 19.6401 73.3376 20.0004 73.1918 20.3489C72.6583 21.627 71.7577 22.7181 70.6039 23.4841C70.4374 23.5951 70.2684 23.696 70.0994 23.7919C69.5075 23.7616 68.8854 23.7322 68.2329 23.7036C69.5811 23.3645 70.7772 22.5846 71.6314 21.4878C72.4855 20.391 72.9486 19.0402 72.9471 17.65C72.9481 17.1832 72.8956 16.7177 72.7907 16.2628L72.9925 16.2148C73.0062 16.2756 73.0401 16.3299 73.0887 16.3688C73.1373 16.4077 73.1976 16.4291 73.2599 16.4292H73.6206C73.7385 17.0816 73.7623 17.7476 73.6912 18.4067C73.5882 18.4568 73.5037 18.5382 73.4497 18.6392C73.3958 18.7402 73.3753 18.8558 73.3911 18.9692Z" fill="#3F2355"/>
<path d="M73.3601 6.06697C73.402 5.98299 73.4749 5.91863 73.5635 5.88755C73.652 5.85647 73.7492 5.86111 73.8343 5.9005C73.8772 5.92067 73.9201 5.94085 73.9605 5.96355C74.039 6.00237 74.1003 6.06922 74.132 6.15092C74.1637 6.23263 74.1637 6.32326 74.132 6.40496C73.9176 6.40496 73.688 6.40496 73.4434 6.37722H73.3501C73.3285 6.32801 73.3183 6.27463 73.32 6.22095C73.3218 6.16728 73.3355 6.11467 73.3601 6.06697Z" fill="#3F2355"/>
<path d="M73.596 16.3007L73.6187 16.4268H73.258C73.1957 16.4266 73.1354 16.4053 73.0868 16.3664C73.0382 16.3274 73.0043 16.2732 72.9906 16.2124C72.9882 16.194 72.9882 16.1753 72.9906 16.1569C72.9899 16.1208 72.9964 16.0849 73.0096 16.0513C73.0228 16.0177 73.0425 15.987 73.0676 15.961C73.0926 15.935 73.1226 15.9142 73.1557 15.8998C73.1888 15.8854 73.2244 15.8776 73.2605 15.877H73.5127C73.5354 15.9678 73.5581 16.0611 73.5783 16.1519C73.5758 16.2023 73.5884 16.2477 73.596 16.3007Z" fill="#3F2355"/>
<path d="M71.7918 15.5344C72.2578 16.6186 72.3622 17.824 72.0897 18.9722C71.8172 20.1203 71.1822 21.1502 70.2787 21.9094C69.3753 22.6685 68.2514 23.1166 67.0735 23.1872C65.8955 23.2579 64.7262 22.9474 63.7385 22.3016C62.7507 21.6559 61.9972 20.7093 61.5894 19.6019C61.1816 18.4946 61.1412 17.2854 61.4742 16.1533C61.8072 15.0212 62.4959 14.0264 63.4384 13.3162C64.3808 12.606 65.5268 12.2181 66.7068 12.21V12.1798C67.7917 12.1739 68.8539 12.4901 69.7591 13.0881C70.6642 13.6862 71.3717 14.5393 71.7918 15.5395V15.5344ZM70.339 19.1994C70.6647 18.4198 70.7307 17.556 70.5272 16.736C70.3237 15.916 69.8614 15.1834 69.209 14.6466C68.6352 14.1676 67.9371 13.8616 67.1961 13.764C66.4551 13.6664 65.7016 13.7814 65.0233 14.0954C64.3451 14.4095 63.7701 14.9098 63.3652 15.5381C62.9603 16.1664 62.7422 16.8967 62.7363 17.6441C62.7304 18.3915 62.937 19.1252 63.332 19.7597C63.7269 20.3943 64.2941 20.9036 64.9673 21.2283C65.6405 21.553 66.3921 21.6798 67.1345 21.5939C67.877 21.508 68.5798 21.2129 69.1611 20.743C69.2334 20.6779 69.2785 20.5878 69.2872 20.4908C69.2975 20.3967 69.2743 20.302 69.2216 20.2234L69.2039 20.2032C69.4472 19.9674 69.6546 19.6972 69.8194 19.4011C69.8661 19.4259 69.9179 19.4397 69.9707 19.4415C70.0233 19.4433 70.0758 19.4339 70.1245 19.4139C70.1732 19.3939 70.2171 19.3638 70.2532 19.3255C70.2901 19.2897 70.3193 19.2468 70.339 19.1994Z" fill="#DEDEDF"/>
<path d="M70.0955 23.7855C74.739 24.0201 77.5085 24.3203 77.5085 24.6431C77.5085 25.3998 61.9787 26.0304 42.8192 26.0304C23.6597 26.0304 8.13232 25.4099 8.13232 24.6431C8.13232 24.3505 10.4024 24.0781 14.2515 23.8562C15.2366 24.3704 16.3309 24.6403 17.4422 24.6431C18.781 24.6504 20.094 24.274 21.2256 23.5585C27.1531 23.3694 34.662 23.2559 42.8293 23.2559C50.3281 23.2559 57.2695 23.3517 62.9422 23.5081C64.0002 24.1963 65.225 24.5851 66.4863 24.633C67.7476 24.681 68.9983 24.3864 70.1055 23.7805L70.0955 23.7855Z" fill="#DEDFE0"/>
<path d="M69.8173 19.4034C69.6525 19.6994 69.4451 19.9697 69.2018 20.2055C69.184 20.1807 69.1617 20.1593 69.1362 20.1424L69.7365 19.3555C69.761 19.3753 69.7882 19.3914 69.8173 19.4034Z" fill="white"/>
<path d="M68.9556 20.0748C68.9038 20.0673 68.851 20.0725 68.8017 20.09C68.7528 20.1061 68.708 20.1328 68.6706 20.1681C68.0695 20.6552 67.3114 20.9061 66.5384 20.8738C65.7655 20.8415 65.0309 20.5281 64.4727 19.9925C63.9144 19.4569 63.5709 18.7359 63.5066 17.965C63.4423 17.194 63.6616 16.4261 64.1234 15.8054C64.5852 15.1847 65.2577 14.754 66.0146 14.594C66.7715 14.4341 67.5608 14.5559 68.2342 14.9367C68.9076 15.3174 69.4189 15.9309 69.672 16.662C69.9251 17.393 69.9027 18.1913 69.6089 18.907C69.589 18.9541 69.5787 19.0047 69.5786 19.0558C69.5788 19.1075 69.5882 19.1587 69.6063 19.2071C69.6271 19.2547 69.6562 19.2983 69.6921 19.3358L69.7325 19.3686L69.1322 20.1555C69.1227 20.1472 69.1126 20.1396 69.1019 20.1328C69.0578 20.1033 69.0079 20.0835 68.9556 20.0748Z" fill="white"/>
<path d="M64.7417 23.5605C65.9776 23.6009 67.1429 23.6438 68.2275 23.6892C67.0771 23.9795 65.8676 23.9349 64.7417 23.5605Z" fill="#3F2355"/>
<path d="M64.6481 22.7182C65.3979 23.0273 66.2069 23.1661 67.0168 23.1246C67.8266 23.0831 68.6172 22.8623 69.3314 22.4782C70.0456 22.094 70.6656 21.5561 71.1467 20.9033C71.6278 20.2504 71.9579 19.4989 72.1133 18.703C72.2687 17.9071 72.2454 17.0866 72.0452 16.3007C71.845 15.5149 71.4728 14.7833 70.9555 14.1588C70.4382 13.5342 69.7887 13.0323 69.0539 12.6892C68.3191 12.3462 67.5173 12.1705 66.7063 12.175V12.2103C65.4426 12.2136 64.2191 12.6551 63.2445 13.4596C62.2699 14.2641 61.6045 15.3817 61.3617 16.6219C61.1189 17.8621 61.3137 19.1481 61.913 20.2607C62.5123 21.3733 63.479 22.2436 64.6481 22.7233V22.7182ZM68.2273 23.6994C67.1427 23.654 65.9774 23.6111 64.7415 23.5708C63.4979 23.1587 62.4159 22.365 61.6493 21.3027C60.8827 20.2404 60.4705 18.9635 60.4712 17.6534C60.4709 17.3835 60.4886 17.1139 60.5242 16.8463C60.558 16.8012 60.5757 16.7462 60.5746 16.6899C60.5749 16.6614 60.5698 16.6332 60.5595 16.6067C60.8016 15.1847 61.5292 13.8907 62.6183 12.945C63.7074 11.9994 65.0908 11.4605 66.5326 11.4204C67.9744 11.3802 69.3856 11.8412 70.5257 12.7248C71.6658 13.6084 72.4643 14.8599 72.7851 16.2662C72.89 16.7211 72.9424 17.1866 72.9415 17.6534C72.9413 19.0423 72.4774 20.3913 71.6234 21.4866C70.7694 22.5818 69.5742 23.3606 68.2273 23.6994Z" fill="#3F2355"/>
<path d="M69.2088 20.2065C68.6188 20.786 67.8458 21.1426 67.022 21.2154C67.7173 21.1489 68.3777 20.8797 68.9213 20.441L69.1432 20.1484C69.1683 20.1638 69.1905 20.1834 69.2088 20.2065Z" fill="#3F2254"/>
<path d="M68.9565 14.9023C68.4033 14.4441 67.7246 14.1636 67.0093 14.0977C67.8998 14.1741 68.7293 14.5819 69.3336 15.2404C69.938 15.899 70.2733 16.7603 70.2732 17.6541C70.2745 18.2687 70.1154 18.8729 69.8116 19.4071C69.7825 19.3951 69.7553 19.379 69.7309 19.3592L69.968 19.0464C70.2683 18.3391 70.3324 17.5537 70.1506 16.8071C69.9688 16.0604 69.5509 15.3924 68.959 14.9023H68.9565Z" fill="#3F2254"/>
<path d="M67.0141 14.0995H66.8682C66.9168 14.097 66.9655 14.097 67.0141 14.0995Z" fill="#3F2254"/>
<path d="M66.4801 14.0879H66.3657C66.4038 14.0853 66.442 14.0853 66.4801 14.0879Z" fill="#3F2254"/>
<path d="M66.7068 24.6417C65.3627 24.6404 64.048 24.2478 62.9233 23.5117L64.7344 23.5672C65.8603 23.9415 67.0698 23.9862 68.2202 23.6958C68.871 23.7228 69.4931 23.7522 70.0867 23.7841C69.0506 24.3508 67.8878 24.6459 66.7068 24.6417Z" fill="#3F2355"/>
<path d="M66.1597 21.1816L66.3346 21.2041C66.2771 21.1991 66.2171 21.1916 66.1597 21.1816Z" fill="#3F2254"/>
<path d="M65.811 14.1932C65.9663 14.151 66.125 14.1223 66.2852 14.1074C66.1255 14.1255 65.967 14.1542 65.811 14.1932Z" fill="#3F2254"/>
<path d="M63.4978 17.9789C63.5483 18.5544 63.7545 19.1053 64.0944 19.5724C64.4344 20.0395 64.8951 20.4053 65.4272 20.6303C65.9592 20.8554 66.5426 20.9313 67.1145 20.8499C67.6865 20.7685 68.2255 20.5328 68.6736 20.1682C68.711 20.1328 68.7558 20.1061 68.8047 20.09C68.854 20.0726 68.9069 20.0674 68.9586 20.0749C69.0102 20.0805 69.06 20.0968 69.1049 20.1228C69.1156 20.1296 69.1257 20.1372 69.1352 20.1455L68.9132 20.4381C68.3697 20.8768 67.7092 21.146 67.0139 21.2125H66.8878H66.7037H66.686H66.5246C66.464 21.2125 66.401 21.2125 66.3404 21.1998L66.1639 21.1771C65.3512 21.0511 64.6069 20.6486 64.0564 20.0376C63.5059 19.4265 63.183 18.6444 63.1421 17.823C63.1012 17.0016 63.3449 16.1912 63.8319 15.5286C64.319 14.8659 65.0197 14.3915 65.8158 14.1853C65.9718 14.1463 66.1302 14.1177 66.29 14.0995H66.3707H66.4867C66.5346 14.097 66.5826 14.097 66.6305 14.0995H66.686H66.8727H67.019C67.5771 14.1529 68.1148 14.337 68.5885 14.637C69.0622 14.937 69.4586 15.3443 69.7455 15.826C70.0325 16.3077 70.2019 16.8503 70.24 17.4097C70.2781 17.9691 70.1839 18.5296 69.965 19.0458L69.7279 19.3586L69.6876 19.3258C69.6516 19.2883 69.6226 19.2447 69.6018 19.1971C69.5837 19.1487 69.5743 19.0975 69.5741 19.0458C69.5741 18.9947 69.5844 18.9441 69.6043 18.897C69.7839 18.4517 69.8602 17.9716 69.8276 17.4926C69.795 17.0136 69.6543 16.5482 69.4161 16.1314C69.1778 15.7146 68.8483 15.3572 68.4521 15.086C68.056 14.8148 67.6035 14.6368 67.1288 14.5655C66.654 14.4943 66.1693 14.5315 65.7109 14.6743C65.2526 14.8172 64.8326 15.0621 64.4824 15.3906C64.1323 15.719 63.8611 16.1226 63.6893 16.5708C63.5174 17.0191 63.4494 17.5005 63.4902 17.9789H63.4978Z" fill="#3F2254"/>
<path d="M63.27 18.6982C63.0449 17.9638 63.0627 17.1764 63.3208 16.453C63.5789 15.7296 64.0635 15.1087 64.7026 14.6827C65.0412 14.4562 65.4168 14.2906 65.8125 14.1934C65.0163 14.3995 64.3156 14.874 63.8286 15.5366C63.3415 16.1993 63.0979 17.0097 63.1388 17.8311C63.1796 18.6524 63.5026 19.4346 64.053 20.0456C64.6035 20.6566 65.3479 21.0591 66.1606 21.1852C65.4926 21.0873 64.8662 20.8015 64.3544 20.3611C63.8426 19.9208 63.4665 19.3441 63.27 18.6982Z" fill="#3F2254"/>
<path d="M63.001 16.3589C63.1824 15.87 63.4592 15.4221 63.8152 15.0411C64.1713 14.6601 64.5995 14.3537 65.075 14.1397C65.5505 13.9256 66.0638 13.8083 66.5851 13.7944C67.1064 13.7805 67.6252 13.8703 68.1115 14.0587C68.5977 14.2471 69.0417 14.5302 69.4175 14.8917C69.7934 15.2532 70.0936 15.6857 70.3009 16.1643C70.5081 16.6428 70.6181 17.1577 70.6245 17.6791C70.631 18.2006 70.5337 18.7181 70.3384 19.2016C70.3215 19.2522 70.294 19.2986 70.2577 19.3378C70.2215 19.3761 70.1776 19.4062 70.1289 19.4262C70.0802 19.4462 70.0278 19.4556 69.9752 19.4538C69.9223 19.452 69.8706 19.4382 69.8238 19.4134C70.1276 18.8792 70.2867 18.275 70.2854 17.6604C70.2855 16.7666 69.9503 15.9053 69.3459 15.2467C68.7416 14.5882 67.9121 14.1804 67.0215 14.104C66.9728 14.1015 66.924 14.1015 66.8753 14.104H66.6886H66.6331C66.5852 14.1015 66.5372 14.1015 66.4893 14.104C66.4507 14.1014 66.412 14.1014 66.3733 14.104H66.2926C66.1324 14.1188 65.9737 14.1475 65.8184 14.1897C65.4228 14.2869 65.0472 14.4525 64.7086 14.6791C64.1077 15.0789 63.6421 15.6516 63.3733 16.3214C63.1045 16.9913 63.0452 17.727 63.2031 18.4313C63.361 19.1356 63.7287 19.7755 64.2578 20.2665C64.7869 20.7575 65.4524 21.0766 66.1665 21.1816C66.2245 21.1816 66.285 21.1992 66.3431 21.2043C66.4011 21.2093 66.4666 21.2043 66.5272 21.2169C66.5877 21.2295 66.6356 21.2169 66.6886 21.2169H66.7113H66.8954H67.0215C67.8454 21.1441 68.6184 20.7875 69.2084 20.208L69.2261 20.2281C69.2788 20.3067 69.302 20.4014 69.2916 20.4955C69.2829 20.5925 69.2379 20.6826 69.1655 20.7477C68.4989 21.2859 67.6745 21.5912 66.8182 21.617C65.9619 21.6427 65.1206 21.3876 64.4229 20.8905C63.7251 20.3934 63.2092 19.6817 62.9538 18.8639C62.6984 18.0461 62.7177 17.1673 63.0085 16.3614L63.001 16.3589Z" fill="#3F2254"/>
<path d="M66.7059 11.4186C65.2337 11.4185 63.8089 11.9394 62.6839 12.889C61.5589 13.8386 60.8062 15.1557 60.559 16.607C60.5421 16.553 60.5087 16.5057 60.4634 16.4717C60.4181 16.4378 60.3634 16.4189 60.3068 16.4178H59.8604C60.1436 14.8515 60.9525 13.4287 62.1537 12.3843C63.3548 11.3398 64.8762 10.7363 66.4667 10.6734C68.0571 10.6105 69.6214 11.092 70.9013 12.0382C72.1812 12.9845 73.1 14.339 73.5061 15.878H73.2538C73.2177 15.8787 73.1821 15.8865 73.149 15.9009C73.1159 15.9153 73.0859 15.9361 73.0609 15.9621C73.0358 15.9881 73.0161 16.0188 73.0029 16.0524C72.9897 16.086 72.9833 16.1219 72.9839 16.158C72.9815 16.1764 72.9815 16.1951 72.9839 16.2135L72.7822 16.2614C72.467 14.8856 71.6944 13.6575 70.5906 12.7778C69.4869 11.8981 68.1173 11.4189 66.7059 11.4186Z" fill="#3F2355"/>
<path d="M60.5604 16.6055C60.5706 16.6317 60.5757 16.6597 60.5754 16.6879C60.5765 16.7437 60.5589 16.7983 60.5254 16.8429C60.5354 16.7629 60.5454 16.6829 60.5604 16.6055Z" fill="#3F2355"/>
<path d="M60.4717 17.6532C60.473 18.9615 60.8863 20.2362 61.6527 21.2965C62.4192 22.3568 63.5 23.1489 64.7419 23.5604L62.9309 23.5049C62.5199 23.2406 62.1385 22.9328 61.7934 22.5868C60.4883 21.2837 59.7513 19.5176 59.7427 17.6733C59.7418 17.4333 59.7536 17.1933 59.778 16.9545H60.3001C60.3444 16.9544 60.3879 16.9436 60.4271 16.923C60.4662 16.9023 60.4997 16.8724 60.5246 16.8359C60.4886 17.1068 60.4709 17.3799 60.4717 17.6532Z" fill="#3F2355"/>
<path d="M59.3967 19.0166L60.0677 19.8994H58.9528H25.232C25.0864 19.8987 24.9469 19.8406 24.8439 19.7376C24.7409 19.6346 24.6828 19.4951 24.6821 19.3495C24.6829 19.294 24.6914 19.2388 24.7074 19.1856C24.7431 19.0744 24.8131 18.9774 24.9073 18.9086C25.0016 18.8397 25.1152 18.8024 25.232 18.8022H58.756C58.864 18.7624 58.9819 18.7589 59.092 18.7921C59.2022 18.8253 59.2985 18.8935 59.3664 18.9863C59.3775 18.9954 59.3876 19.0055 59.3967 19.0166Z" fill="#3F2355"/>
<path d="M60.3004 16.9634H59.7783C59.7783 16.87 59.7985 16.7792 59.8111 16.6884C59.8237 16.5976 59.8389 16.5068 59.854 16.416H60.3004C60.357 16.4171 60.4118 16.436 60.4571 16.4699C60.5023 16.5039 60.5358 16.5512 60.5527 16.6052C60.5375 16.6834 60.5275 16.7641 60.5174 16.8448C60.4931 16.8803 60.4608 16.9095 60.4231 16.9301C60.3854 16.9507 60.3434 16.9621 60.3004 16.9634Z" fill="#3F2355"/>
<path d="M48.6121 16.416H59.8541C59.8389 16.5068 59.8238 16.5976 59.8112 16.6884C59.7986 16.7792 59.786 16.87 59.7784 16.9634H48.4507V16.6884L48.6121 16.416Z" fill="#3F2355"/>
<path d="M50.8567 1.882L48.8389 1.43555L64.5428 4.92643C66.2403 4.89111 71.7793 4.86085 73.8476 5.8622V5.87734L73.8325 5.90508C73.766 5.87508 73.692 5.86579 73.6201 5.87843C73.5483 5.89108 73.4819 5.92506 73.4296 5.97596C73.3774 6.02685 73.3417 6.09231 73.3271 6.1638C73.3126 6.23529 73.3199 6.30949 73.3482 6.37676L71.9029 6.28343L72.5385 6.56341C70.6594 6.08669 67.2568 5.96562 64.5857 6.02111H64.568C64.483 6.02485 64.3979 6.01549 64.3158 5.99337L51.0711 3.04983L51.1039 2.68409L51.1417 2.27548C51.1512 2.18627 51.1273 2.09671 51.0747 2.02406C51.0221 1.95141 50.9444 1.90081 50.8567 1.882Z" fill="#3F2355"/>
<path d="M50.8573 1.882C50.9427 1.90173 51.018 1.95166 51.0695 2.02258C51.1209 2.0935 51.145 2.18063 51.1373 2.26791L51.0994 2.67653L51.0666 3.04226L50.8295 2.98929L50.9077 2.14432L48.8899 1.69787C48.8687 1.66891 48.846 1.64112 48.8218 1.61463L48.8394 1.43555L50.8573 1.882Z" fill="#3F2355"/>
<path d="M50.3892 2.52012L50.3564 2.88333L49.6376 2.72443C49.5308 2.80126 49.4004 2.83788 49.2693 2.82784C49.1319 2.8162 49.004 2.75314 48.9111 2.65128L48.9414 2.19727L50.3892 2.52012Z" fill="#DEDFE0"/>
<path d="M50.8285 2.99656L50.6066 5.43312L49.5068 5.59707L49.5245 5.45077C49.5308 5.40221 49.5308 5.35304 49.5245 5.30448L50.1475 5.21368L50.3594 2.89062L50.8285 2.99656Z" fill="#3F2355"/>
<path d="M51.0654 3.04735L50.8358 5.56967C50.8275 5.64621 50.7945 5.71794 50.7417 5.77395C50.6888 5.82995 50.6192 5.86716 50.5432 5.87991L49.4536 6.04387C49.4688 5.99628 49.4789 5.94725 49.4839 5.89757C49.4839 5.81686 49.5041 5.7311 49.5141 5.64534V5.60246L50.6139 5.43851L50.8358 3.00195L51.0654 3.04735Z" fill="#3F2355"/>
<path d="M49.5351 5.30469C49.5414 5.35325 49.5414 5.40242 49.5351 5.45098L49.5174 5.59728L48.7305 5.71582V5.56196V5.42071L49.5351 5.30469Z" fill="#3F2355"/>
<path d="M49.0428 4.83667C48.9513 4.8253 48.8584 4.83745 48.7729 4.87198L48.8436 3.76721V3.75207L48.9117 2.65234C49.0046 2.7542 49.1325 2.81726 49.2698 2.8289C49.4009 2.83895 49.5314 2.80232 49.6381 2.72549L50.3569 2.8844L50.1451 5.20745L49.5221 5.29825C49.5036 5.17952 49.4467 5.0701 49.3602 4.98674C49.2736 4.90339 49.1622 4.85067 49.0428 4.83667Z" fill="#DEDFE0"/>
<path d="M48.7784 4.87734C48.8639 4.84281 48.9568 4.83066 49.0483 4.84203C49.1676 4.85603 49.2791 4.90874 49.3656 4.9921C49.4522 5.07546 49.5091 5.18487 49.5275 5.30361L48.7456 5.41963L48.7784 4.87734Z" fill="#DEDFE0"/>
<path d="M48.7071 5.93199L48.7197 5.72011L49.5067 5.60156V5.64444C49.5067 5.73777 49.4865 5.82353 49.4764 5.89667C49.4714 5.94636 49.4613 5.99539 49.4461 6.04297L48.6895 6.15647V5.93199H48.7071Z" fill="#3F2355"/>
<path d="M48.9413 2.20059L48.9665 1.7945C48.946 1.76189 48.9232 1.73071 48.8984 1.70117L50.9163 2.14762L50.8381 2.9926L50.3664 2.88666L50.3992 2.52345L48.9413 2.20059Z" fill="#3F2355"/>
<path d="M48.9418 2.2015L48.9115 2.65551C48.89 2.63115 48.8706 2.60499 48.8535 2.57732C48.8535 2.43355 48.8813 2.30239 48.8914 2.19141L48.9418 2.2015Z" fill="#3F2355"/>
<path d="M48.899 1.70446L48.8232 1.68677V1.62109C48.8501 1.64742 48.8754 1.67525 48.899 1.70446Z" fill="#3F2355"/>
<path d="M48.6409 4.5295C48.6686 4.27727 48.6989 3.99982 48.7266 3.7375C48.7443 3.56346 48.7644 3.38942 48.7796 3.23303C48.7796 3.15232 48.7972 3.07665 48.8048 2.99846C48.8123 2.95252 48.8174 2.90621 48.8199 2.85973C48.8199 2.82442 48.8199 2.79415 48.8325 2.75884C48.8452 2.72353 48.8452 2.64281 48.8527 2.58984C48.8698 2.61751 48.8892 2.64367 48.9107 2.66803L48.8426 3.76776V3.7829L48.772 4.88767C48.7017 4.91617 48.6388 4.96014 48.5879 5.01631C48.603 4.85236 48.6232 4.69345 48.6409 4.5295Z" fill="#3F2355"/>
<path d="M48.968 1.79425L48.9428 2.20034H48.8924C48.8924 2.31133 48.8672 2.45258 48.8545 2.58626C48.7884 2.48574 48.759 2.36545 48.7713 2.24575C48.7713 2.20287 48.7713 2.15999 48.7839 2.11963L48.8243 1.69336L48.8999 1.71102C48.9244 1.73731 48.9471 1.76511 48.968 1.79425Z" fill="#3F2355"/>
<path d="M48.5895 5.00364C48.6404 4.94747 48.7034 4.9035 48.7736 4.875L48.7408 5.4173L48.5391 5.44756C48.5542 5.32145 48.5693 5.19533 48.5845 5.04147C48.587 5.02886 48.587 5.01625 48.5895 5.00364Z" fill="#3F2355"/>
<path d="M48.657 1.39262L48.848 1.43535L48.8304 1.61383C48.7955 1.5751 48.7585 1.53818 48.7198 1.50322C48.6725 1.45875 48.6202 1.41994 48.564 1.38759C48.5951 1.38549 48.6263 1.38718 48.657 1.39262Z" fill="#3F2355"/>
<path d="M48.1082 16.416H48.6127L48.4512 16.6884H47.9468L48.1082 16.416Z" fill="#3F2355"/>
<path d="M48.5894 4.99921C48.5031 5.08329 48.4487 5.19474 48.4355 5.3145L48.3977 5.63735H48.3624L48.269 5.66006C48.4204 4.34089 48.7054 1.64453 48.7054 1.64453L48.824 1.66976L48.7786 2.1162C48.7786 2.15656 48.7785 2.19944 48.7659 2.24232C48.7536 2.36202 48.783 2.48231 48.8492 2.58283C48.8492 2.6358 48.834 2.69381 48.829 2.75183C48.824 2.80984 48.829 2.81741 48.8164 2.85272C48.8138 2.8992 48.8088 2.94551 48.8013 2.99145C48.8013 3.06964 48.7861 3.14531 48.776 3.22602C48.7609 3.38745 48.7407 3.56149 48.7231 3.73049C48.6953 3.98272 48.665 4.26017 48.6373 4.52249C48.6247 4.68896 48.6045 4.84787 48.5894 4.99921Z" fill="#3F2355"/>
<path d="M48.4346 5.31724C48.4478 5.19749 48.5022 5.08603 48.5885 5.00195C48.5885 5.00195 48.5885 5.02718 48.5885 5.03979C48.5734 5.18356 48.5582 5.31977 48.5431 5.44588L48.7449 5.41561V5.55686V5.71072L48.4069 5.76369L48.2808 5.78135C48.2808 5.74604 48.2808 5.71072 48.2808 5.67289L48.3741 5.65019H48.4094L48.4346 5.31724Z" fill="#3F2355"/>
<path d="M47.769 5.77724C47.9633 5.74193 48.1297 5.70662 48.2609 5.67383C48.2609 5.71166 48.2609 5.74698 48.2609 5.78229L48.387 5.76463L48.725 5.71166L48.7124 5.92354V6.14802L48.2407 6.21865H48.2029H48.1499C48.0563 6.21716 47.9665 6.18125 47.8977 6.11775C47.8585 6.07845 47.8286 6.03085 47.8103 5.97846C47.792 5.92608 47.7856 5.87024 47.7917 5.81508L47.769 5.77724Z" fill="#3F2355"/>
<path d="M49.0626 7.43232L47.9932 6.85219C48.2631 6.80174 48.48 6.75382 48.6414 6.71094L49.4208 7.13469L49.4511 7.2154C49.4965 7.35413 50.5861 10.6735 50.5104 12.1465C50.46 13.1 49.3981 15.0749 48.6111 16.4168H48.1067C48.8785 15.1128 50.0261 13.0369 50.0741 12.1289C50.1422 10.8551 49.2316 7.95696 49.0626 7.43232Z" fill="#3F2355"/>
<path d="M48.3073 6.53336L47.9214 6.32401H48.3804H48.6806V6.17015L49.4373 6.05664C49.399 6.1872 49.3317 6.30742 49.2404 6.40831C49.1491 6.50921 49.0362 6.58817 48.9101 6.6393C48.8213 6.67369 48.7303 6.70234 48.6377 6.72505L48.3073 6.53336Z" fill="#3F2355"/>
<path d="M47.769 5.77774C47.9027 4.63009 48.1474 2.30956 48.1978 1.81014C48.1978 1.74961 48.2104 1.71682 48.2104 1.7143C48.2164 1.66423 48.2327 1.61594 48.2583 1.57252C48.2839 1.52909 48.3183 1.49148 48.3593 1.46207C48.4161 1.41966 48.4851 1.39666 48.556 1.39648C48.6125 1.42895 48.665 1.46789 48.7124 1.51251C48.7513 1.54759 48.7883 1.58463 48.8234 1.62349V1.68907L48.7048 1.66385C48.7048 1.66385 48.4198 4.3602 48.2685 5.67937C48.1373 5.70712 47.9708 5.74243 47.769 5.77774Z" fill="#3F2355"/>
<path d="M47.1606 5.90234L47.9047 6.30591H47.9198C47.7609 6.30591 47.6045 6.30591 47.4557 6.2933C47.2817 6.2933 47.1152 6.27565 46.9639 6.26303L47.1606 5.90234Z" fill="#3F2355"/>
<path d="M47.4559 6.30729C47.6047 6.30729 47.7611 6.30729 47.92 6.3199L48.3059 6.52925L48.6414 6.71086C48.4799 6.75374 48.263 6.80166 47.9931 6.85211L47.3827 6.51916L47.2238 6.4334L46.959 6.28711C47.1103 6.28711 47.2768 6.30981 47.4508 6.31738L47.4559 6.30729Z" fill="#3F2355"/>
<path d="M47.9942 6.855C45.6182 7.30145 39.3175 7.99508 34.626 8.39865C34.8159 8.23465 34.9719 8.03498 35.085 7.81096C35.1684 7.64856 35.2125 7.46886 35.2137 7.28631C35.2149 7.27205 35.2149 7.2577 35.2137 7.24343C38.7903 6.92562 43.1312 6.45899 45.8906 6.07812C46.223 6.20066 46.5732 6.26797 46.9273 6.27739H46.9601L47.2249 6.42368L47.3838 6.50944L47.9942 6.855Z" fill="#3F2355"/>
<path d="M47.7692 5.83194C47.7631 5.8871 47.7694 5.94294 47.7877 5.99532C47.8061 6.04771 47.8359 6.09531 47.8751 6.13462C47.9439 6.19811 48.0337 6.23403 48.1274 6.23551H48.1803H48.2182L48.6898 6.16489V6.31875H48.3897H47.9205H47.9054L47.1613 5.91518L46.962 6.28596H46.9293C46.5751 6.27654 46.225 6.20923 45.8926 6.0867C46.6493 5.97824 47.3051 5.87987 47.7768 5.78906L47.7692 5.83194Z" fill="#3F2355"/>
<path d="M47.2645 3.23712C47.3427 2.60654 47.4159 2.06677 47.7867 1.64302C47.9935 1.41097 48.1827 1.30251 48.3592 1.32269C48.4291 1.33171 48.4963 1.3558 48.556 1.39331C48.485 1.39349 48.4161 1.41649 48.3592 1.45889C48.3183 1.4883 48.2839 1.52592 48.2583 1.56935C48.2326 1.61277 48.2163 1.66106 48.2104 1.71113C48.2104 1.71113 48.2104 1.74644 48.1978 1.80697C48.1473 2.31143 47.9027 4.62692 47.769 5.77457C47.2973 5.86537 46.6516 5.96374 45.8848 6.0722H45.8672C45.9136 6.0138 45.9669 5.96128 46.0261 5.91582C47.0325 5.09355 47.1611 4.10732 47.2645 3.23712Z" fill="#3F2355"/>
<path d="M44.4903 8.51367H47.4086C47.4811 8.51367 47.5507 8.54229 47.6022 8.5933C47.6537 8.64432 47.6829 8.7136 47.6836 8.78608C47.6829 8.85903 47.6538 8.92885 47.6025 8.98067C47.5511 9.03249 47.4816 9.06222 47.4086 9.06354H44.4903C44.4223 9.057 44.3591 9.02534 44.3131 8.97474C44.2672 8.92414 44.2417 8.85823 44.2417 8.78987C44.2417 8.7215 44.2672 8.65559 44.3131 8.60499C44.3591 8.55439 44.4223 8.52274 44.4903 8.51619V8.51367Z" fill="#3F2355"/>
<path d="M36.3228 1.48633C36.348 1.6982 36.3707 1.89999 36.3859 2.09925C35.2786 2.49778 32.6756 3.83965 30.1507 5.12603C28.5945 5.92812 27.1088 6.6949 26.0999 7.17667C24.9018 7.12117 23.459 7.08334 21.9406 7.101L21.5093 7.03542C27.5199 4.29871 33.2078 2.16735 36.3228 1.48633Z" fill="#DEDFE0"/>
<path d="M35.2177 7.28084C35.2165 7.46338 35.1724 7.64309 35.0891 7.80548C34.9759 8.02951 34.82 8.22917 34.63 8.39318L34.0171 8.44615V8.42345C34.5854 8.04342 34.8663 7.66255 34.8595 7.28084L35.2177 7.24805C35.2184 7.25897 35.2184 7.26992 35.2177 7.28084Z" fill="#3F2355"/>
<path d="M34.6301 8.39453C34.5003 8.5113 34.362 8.61837 34.2165 8.71487C34.1567 8.75454 34.0865 8.7756 34.0147 8.7754H31.0838C30.9897 8.7762 30.8991 8.73996 30.8315 8.67451C31.679 8.62911 32.7762 8.55091 34.0122 8.4475L34.6301 8.39453Z" fill="#3F2355"/>
<path d="M34.4922 7.30234C33.2184 7.41332 32.0708 7.5016 31.1653 7.55457L30.9584 6.96687C30.9396 6.91519 30.9336 6.85968 30.9411 6.80518C30.9486 6.75067 30.9693 6.69881 31.0013 6.65411C31.0328 6.60907 31.0747 6.57227 31.1235 6.54681C31.1722 6.52135 31.2263 6.50798 31.2813 6.50781H33.8944C34.1845 6.71716 34.4897 7.01227 34.4897 7.27964C34.4921 7.28695 34.4929 7.29468 34.4922 7.30234Z" fill="#EBECE6"/>
<path d="M31.167 7.55692C32.0725 7.50143 33.2202 7.41315 34.4939 7.30469C34.4462 7.5425 34.309 7.75289 34.1105 7.89239C34.0424 7.9504 33.9718 8.00589 33.9012 8.05634H31.341L31.167 7.55692Z" fill="#EBECE6"/>
<path d="M34.015 8.4241H31.0866L30.7915 7.5867L31.1673 7.56652L31.3414 8.07098H33.8965C33.9671 8.02053 34.0377 7.96504 34.1058 7.90703C34.3042 7.76753 34.4415 7.55714 34.4892 7.31933L34.8524 7.28906C34.8608 7.659 34.5817 8.03735 34.015 8.4241Z" fill="#3F2355"/>
<path d="M31.0865 8.42725H34.0149V8.46004C32.779 8.56346 31.6818 8.64165 30.8343 8.68705C30.7931 8.649 30.7619 8.60134 30.7435 8.54832L30.6048 8.1498L30.4131 7.6075C30.5316 7.6075 30.6653 7.6075 30.7889 7.58984L31.0865 8.42725Z" fill="#3F2355"/>
<path d="M31.2818 6.51052C31.2268 6.51069 31.1727 6.52406 31.124 6.54952C31.0753 6.57498 31.0334 6.61178 31.0018 6.65682C30.9698 6.70152 30.9491 6.75338 30.9416 6.80789C30.9342 6.86239 30.9401 6.9179 30.959 6.96958L31.1658 7.55728L30.79 7.57746L30.6185 7.09066C30.5803 6.98452 30.5683 6.87076 30.5836 6.75901C30.5988 6.64727 30.6407 6.54084 30.7058 6.44875C30.7709 6.35667 30.8572 6.28164 30.9575 6.23005C31.0578 6.17845 31.169 6.15179 31.2818 6.15235H34.0135C34.5684 6.52566 34.8492 6.89896 34.8559 7.27226L34.4927 7.30253C34.4939 7.29586 34.4939 7.28902 34.4927 7.28235C34.4927 7.0049 34.1875 6.71988 33.8974 6.51052H31.2818Z" fill="#3F2355"/>
<path d="M30.2794 7.20914C30.2224 7.04812 30.2049 6.87572 30.2285 6.70651C30.252 6.5373 30.316 6.37626 30.415 6.23699C30.5139 6.09772 30.6449 5.98431 30.797 5.90635C30.949 5.82839 31.1175 5.78816 31.2884 5.78908H34.02C34.0914 5.78926 34.1613 5.80935 34.2218 5.84709C34.865 6.28345 35.203 6.74756 35.2307 7.23689L34.8726 7.26968C34.8726 6.89637 34.5918 6.52307 34.0301 6.14977H31.2833C31.1705 6.14921 31.0593 6.17586 30.959 6.22746C30.8587 6.27906 30.7724 6.35408 30.7073 6.44617C30.6422 6.53825 30.6003 6.64468 30.5851 6.75643C30.5698 6.86817 30.5818 6.98194 30.62 7.08807L30.7915 7.57487C30.6603 7.57487 30.5392 7.59001 30.4156 7.59253L30.2794 7.20914Z" fill="#3F2355"/>
<path d="M29.6461 7.56503C29.6218 7.54189 29.5956 7.52079 29.5679 7.50195C29.5967 7.51936 29.623 7.54058 29.6461 7.56503Z" fill="#3F2355"/>
<path d="M29.4433 7.44458C29.4266 7.43734 29.4091 7.43233 29.3911 7.42969C29.4091 7.43233 29.4266 7.43734 29.4433 7.44458Z" fill="#3F2355"/>
<path d="M29.5052 8.16071C29.3514 8.27926 29.2051 8.39024 29.0664 8.49114H28.9831C28.8899 8.40641 28.8152 8.30337 28.7637 8.18846C28.8646 8.11531 28.9705 8.03712 29.079 7.95388C29.1874 7.87065 29.3312 7.76219 29.4573 7.65625L29.7322 7.9892L29.5052 8.16071Z" fill="#3F2355"/>
<path d="M29.0661 8.49009C29.2048 8.38919 29.3511 8.27821 29.505 8.15966L29.7295 7.97553L29.4545 7.64258C29.3259 7.74852 29.2023 7.84941 29.0762 7.94022C28.9501 8.03102 28.8618 8.10165 28.7609 8.17479C28.704 8.04257 28.7015 7.89324 28.7539 7.75916C28.8063 7.62508 28.9094 7.51705 29.0409 7.45846C29.1268 7.41882 29.2217 7.40313 29.3158 7.41305C29.3407 7.41542 29.3652 7.42049 29.389 7.42819C29.4072 7.43088 29.425 7.43596 29.4419 7.44332C29.4865 7.45572 29.5284 7.47624 29.5655 7.50386C29.5933 7.52269 29.6194 7.54378 29.6437 7.56691C29.6624 7.58359 29.6793 7.60219 29.6942 7.6224C29.7813 7.73304 29.822 7.87325 29.8077 8.01337C29.7963 8.15033 29.7341 8.27807 29.6333 8.37144C29.5324 8.46481 29.4003 8.51704 29.2628 8.51783H29.2048L29.0661 8.49009Z" fill="#3F2355"/>
<path d="M29.5924 8.71902C29.386 8.71941 29.1857 8.64909 29.0249 8.51976L29.0653 8.48949L29.2065 8.50463H29.2645C29.4019 8.50383 29.5341 8.45161 29.6349 8.35824C29.7358 8.26487 29.798 8.13712 29.8093 8.00016C29.8237 7.86005 29.783 7.71984 29.6958 7.60921C29.8926 7.60921 30.1347 7.60921 30.4147 7.58398L30.6064 8.12628L30.7451 8.5248C30.7635 8.57782 30.7947 8.62548 30.8359 8.66353C30.3214 8.70389 29.8976 8.71902 29.5924 8.71902Z" fill="#3F2355"/>
<path d="M29.0668 8.48747L29.0263 8.51779L28.9834 8.48242L29.0668 8.48747Z" fill="#3F2355"/>
<path d="M28.7625 8.17188C28.814 8.28679 28.8887 8.38983 28.9819 8.47455C28.8432 8.45942 28.6414 8.44429 28.3892 8.42411C28.5001 8.34844 28.6237 8.26268 28.7599 8.17188H28.7625Z" fill="#3F2355"/>
<path d="M29.0252 8.52326C28.6242 8.81333 28.3089 9.01259 28.1828 9.09078C28.0264 9.43634 27.1562 11.6333 27.7313 16.4206H27.2949C26.6542 11.1011 27.7666 8.93944 27.8246 8.83603L27.8523 8.78306L27.9053 8.75027C27.9053 8.75027 28.0995 8.63424 28.3896 8.4375C28.6418 8.45768 28.8436 8.47281 28.9823 8.48795L29.0252 8.52326Z" fill="#3F2355"/>
<path d="M27.7329 16.416C27.7329 16.5068 27.7531 16.5976 27.7657 16.6884H27.3394C27.3268 16.5976 27.3167 16.5068 27.3066 16.416H27.7329Z" fill="#3F2355"/>
<path d="M26.1012 7.19287C25.8969 7.29124 25.7102 7.377 25.5488 7.4451C24.4592 7.40222 23.0063 7.26602 21.9419 7.11468C23.4603 7.09955 24.9031 7.13738 26.1012 7.19287Z" fill="#3F2355"/>
<path d="M24.4267 16.9648C24.4997 17.6734 24.4622 18.389 24.3157 19.0861C24.2252 19.5175 24.0951 19.9397 23.9273 20.3473C23.3938 21.6254 22.4932 22.7165 21.3394 23.4825L21.2158 23.5632C20.5297 23.5834 19.8655 23.6061 19.2231 23.6313C20.5101 23.2478 21.6388 22.459 22.4414 21.3824C23.244 20.3058 23.6775 18.9988 23.6775 17.656C23.6781 17.4258 23.6646 17.1959 23.6372 16.9674L24.4267 16.9648Z" fill="#3F2355"/>
<path d="M24.3927 16.6884C24.4053 16.7792 24.4154 16.8726 24.4255 16.9634H23.636C23.6185 16.7795 23.5907 16.5968 23.5527 16.416H24.3523C24.3674 16.4967 24.3826 16.5976 24.3927 16.6884Z" fill="#3F2355"/>
<path d="M48.4502 16.9634H24.4252C24.4252 16.8726 24.405 16.7792 24.3924 16.6884C24.3798 16.5976 24.3672 16.5068 24.3521 16.416H27.2956C27.2956 16.5068 27.3158 16.5976 27.3284 16.6884H27.7647C27.7521 16.5976 27.742 16.5068 27.7319 16.416H48.1097L47.9483 16.6884H48.4527L48.4502 16.9634Z" fill="#3F2355"/>
<path d="M23.6354 16.9634H22.9065C22.8939 16.8726 22.8813 16.7792 22.8636 16.6884C22.8459 16.5976 22.8308 16.5068 22.8081 16.416H23.5648C23.5985 16.597 23.6221 16.7797 23.6354 16.9634Z" fill="#3F2355"/>
<path d="M22.9068 16.9615C23.0114 17.7882 22.9262 18.6278 22.6579 19.4166C22.3896 20.2055 21.945 20.9228 21.3581 21.5143C20.5929 22.284 19.6163 22.8092 18.5523 23.0232C17.4882 23.2373 16.3845 23.1306 15.3812 22.7168C14.3778 22.3029 13.5199 21.6004 12.9162 20.6984C12.3126 19.7964 11.9903 18.7355 11.9902 17.6501C11.991 17.4198 12.007 17.1897 12.0382 16.9615H13.5717C13.4195 17.7514 13.514 18.569 13.8425 19.3034C14.1709 20.0377 14.7173 20.6532 15.4075 21.0663C16.0977 21.4795 16.8984 21.6703 17.7007 21.6128C18.5031 21.5553 19.2684 21.2523 19.8926 20.745C19.9603 20.6813 20.0034 20.5959 20.0145 20.5037C20.0255 20.4115 20.0038 20.3184 19.9532 20.2405L19.9355 20.2203C20.1788 19.9845 20.3862 19.7143 20.551 19.4182C20.5987 19.4407 20.6508 19.4524 20.7036 19.4524C20.7563 19.4524 20.8084 19.4407 20.8562 19.4182C20.9055 19.3981 20.9501 19.3681 20.9873 19.33C21.0229 19.2907 21.0496 19.2443 21.0655 19.1938C21.3597 18.4876 21.4421 17.7111 21.3026 16.959L22.9068 16.9615Z" fill="#DEDEDF"/>
<path d="M22.9069 16.9634H21.3103C21.2951 16.8877 21.28 16.8095 21.2598 16.7338C21.2396 16.6582 21.2018 16.5194 21.1665 16.416H22.7984C22.8211 16.5068 22.8388 16.5976 22.8539 16.6884C22.8691 16.7792 22.8943 16.8726 22.9069 16.9634Z" fill="#DEDEDF"/>
<path d="M25.6155 7.8083C24.0074 7.75086 22.4056 7.57551 20.8231 7.28366C20.8231 7.28366 20.7979 7.23321 20.75 7.14493C21.151 7.14493 21.5496 7.12223 21.9405 7.11719C23.0049 7.26853 24.4628 7.40473 25.5474 7.44761C25.7089 7.37699 25.8955 7.29123 26.0998 7.19538C26.3521 7.19538 26.6043 7.2206 26.8439 7.23321C26.3546 7.47031 25.9359 7.66958 25.6155 7.8083Z" fill="#3F2355"/>
<path d="M20.6821 7.02891C27.3057 3.96934 33.5459 1.65386 36.6332 1.05859C36.6862 1.44955 36.7392 1.89852 36.7669 2.35759C35.5587 2.66026 29.8709 5.74001 26.8441 7.23069C26.6096 7.21808 26.3599 7.20295 26.1001 7.19286C27.109 6.7111 28.5946 5.9317 30.1509 5.14222C32.6732 3.84323 35.2788 2.50136 36.386 2.11544C36.3709 1.91618 36.3482 1.7144 36.323 1.50252C33.2079 2.18355 27.5201 4.3149 21.5019 7.05161L21.9332 7.11719C21.5422 7.11719 21.1437 7.13232 20.7427 7.14493L20.6821 7.02891Z" fill="#3F2355"/>
<path d="M20.7925 16.416H21.1658C21.2011 16.5194 21.2314 16.6254 21.2591 16.7338C21.2869 16.8423 21.2944 16.8877 21.3096 16.9634H20.9438C20.9091 16.7769 20.8585 16.5938 20.7925 16.416Z" fill="#3F2254"/>
<path d="M20.7812 7.37935C20.7383 7.28667 20.6701 7.20798 20.5845 7.15234H20.7409C20.7888 7.24062 20.814 7.29107 20.814 7.29107C22.3965 7.58292 23.9983 7.75827 25.6064 7.81571C25.9267 7.67699 26.3454 7.47772 26.8348 7.2381C27.087 7.2381 27.3392 7.26585 27.5637 7.28098C27.2005 7.46259 26.8676 7.62906 26.5548 7.77284C26.242 7.91661 25.9671 8.05281 25.7401 8.14866C25.6938 8.16798 25.6439 8.17743 25.5938 8.17641C24.0454 8.11606 22.5026 7.95429 20.9754 7.69212L20.8291 7.66438C20.8396 7.56677 20.823 7.46816 20.7812 7.37935Z" fill="#3F2355"/>
<path d="M20.7922 16.416C20.8583 16.5938 20.9089 16.7769 20.9436 16.9634H20.9234C20.9234 16.9104 20.9007 16.8574 20.8881 16.8045C20.8562 16.6728 20.8166 16.5431 20.7695 16.416H20.7922Z" fill="#3F2254"/>
<path d="M20.4 16.6481C20.3722 16.5699 20.342 16.4917 20.3066 16.416H20.7808C20.8279 16.5431 20.8675 16.6728 20.8994 16.8045C20.8994 16.8574 20.9246 16.9104 20.9347 16.9634H20.5009C20.4655 16.8574 20.4353 16.749 20.4 16.6481Z" fill="#3F2254"/>
<path d="M20.5498 19.4064C20.8536 18.8722 21.0127 18.268 21.0114 17.6534C21.012 17.4222 20.9892 17.1915 20.9433 16.9648H21.309C21.4485 17.717 21.3661 18.4935 21.0719 19.1996C21.056 19.2501 21.0293 19.2966 20.9937 19.3358C20.9565 19.3739 20.9119 19.404 20.8626 19.4241C20.8148 19.4466 20.7627 19.4582 20.71 19.4582C20.6572 19.4582 20.6051 19.4466 20.5574 19.4241L20.5498 19.4064Z" fill="#3F2254"/>
<path d="M21.0125 17.6534C21.0138 18.268 20.8547 18.8722 20.5509 19.4064C20.5218 19.3945 20.4947 19.3783 20.4702 19.3585L20.7073 19.0458C20.9859 18.3894 21.0614 17.6646 20.9242 16.9648H20.9444C20.9903 17.1915 21.0131 17.4222 21.0125 17.6534Z" fill="#3F2254"/>
<path d="M20.5267 8.1083C20.408 8.16314 20.2791 8.19237 20.1484 8.19406H19.4522C19.3547 8.13259 19.2791 8.04189 19.2362 7.93491C19.1932 7.82793 19.1852 7.71012 19.2131 7.59829C19.2411 7.48645 19.3036 7.3863 19.3919 7.31211C19.4801 7.23792 19.5895 7.19349 19.7045 7.18514L20.3502 7.15234C20.3541 7.16455 20.3592 7.17637 20.3653 7.18766L20.499 7.43989C20.5227 7.48526 20.556 7.52497 20.5964 7.55632C20.6369 7.58766 20.6837 7.60989 20.7336 7.62149L20.8345 7.6442C20.8289 7.74188 20.7974 7.83632 20.7434 7.91786C20.6893 7.9994 20.6145 8.06512 20.5267 8.1083Z" fill="#3F2355"/>
<path d="M20.3491 7.16016H20.5862C20.6719 7.21579 20.7401 7.29448 20.7829 7.38716C20.8243 7.47347 20.8417 7.56929 20.8334 7.66462L20.7325 7.64192C20.6826 7.63032 20.6359 7.60808 20.5954 7.57674C20.5549 7.5454 20.5217 7.50568 20.4979 7.46031L20.3643 7.20808C20.3573 7.19276 20.3522 7.17667 20.3491 7.16016Z" fill="#3F2355"/>
<path d="M20.7069 19.0458L20.4698 19.3585L20.4294 19.3257C20.3574 19.2502 20.3169 19.1501 20.3159 19.0458C20.316 18.9946 20.3263 18.944 20.3462 18.8969C20.5945 18.2837 20.6448 17.6081 20.49 16.9648H20.9238C21.061 17.6646 20.9854 18.3894 20.7069 19.0458Z" fill="#3F2254"/>
<path d="M20.4898 16.9634H14.3076C14.3526 16.7758 14.4142 16.5926 14.4917 16.416H20.3057C20.341 16.4917 20.3712 16.5699 20.399 16.6481C20.4267 16.7263 20.4646 16.8574 20.4898 16.9634Z" fill="white"/>
<path d="M20.3232 7.06445C20.4128 7.07121 20.4989 7.10137 20.5731 7.15192H20.3382C20.3291 7.12362 20.3241 7.09417 20.3232 7.06445Z" fill="#3F2355"/>
<path d="M20.5857 7.16377C20.5108 7.11275 20.4238 7.0823 20.3334 7.07549C20.3281 7.02435 20.3341 6.97267 20.3511 6.92415C20.3665 6.87812 20.3913 6.83577 20.4239 6.79975C20.4564 6.76373 20.496 6.73481 20.5403 6.7148C27.0983 3.68802 33.4041 1.32714 36.5721 0.716736C36.62 0.706575 36.6694 0.706401 36.7174 0.716227C36.7653 0.726054 36.8107 0.745668 36.8507 0.773841C36.8907 0.802015 36.9245 0.838142 36.9499 0.879963C36.9753 0.921784 36.9918 0.968397 36.9984 1.01689C37.0639 1.48856 37.1093 1.93501 37.1396 2.34867C37.1434 2.43266 37.1181 2.51538 37.068 2.58291C37.018 2.65044 36.9461 2.69866 36.8647 2.71945C36.0828 2.91367 33.114 4.44471 30.4908 5.79415C29.4516 6.3314 28.4427 6.851 27.5851 7.28484C27.3581 7.2697 27.1159 7.25457 26.8561 7.24196C29.8829 5.75127 35.5707 2.67153 36.7789 2.36885C36.7512 1.90979 36.6982 1.46082 36.6452 1.06986C33.5504 1.66512 27.3127 3.98061 20.6941 7.04017L20.7547 7.1562L20.5857 7.16377Z" fill="#3F2355"/>
<path d="M20.3056 16.4169H14.4917C14.5879 16.2054 14.7054 16.0042 14.8423 15.8165C15.1727 15.3688 15.6148 15.0156 16.1245 14.7924C16.6342 14.5691 17.1936 14.4836 17.7467 14.5444C18.2999 14.6052 18.8273 14.8101 19.2764 15.1387C19.7255 15.4673 20.0804 15.908 20.3056 16.4169Z" fill="white"/>
<path d="M28.3895 8.4289C25.52 8.19828 22.6389 8.14942 19.7632 8.28261C19.6503 8.28944 19.5382 8.26029 19.4429 8.19937H20.139C20.2698 8.19768 20.3987 8.16846 20.5174 8.11361C20.6048 8.07251 20.68 8.00918 20.7353 7.92996C20.7906 7.85073 20.8242 7.75838 20.8327 7.66212L20.979 7.68987C22.5086 7.95321 24.0539 8.11582 25.6049 8.17667C25.655 8.1777 25.7049 8.16825 25.7512 8.14893C25.9782 8.05308 26.2556 7.92444 26.5659 7.7731C26.8761 7.62176 27.199 7.46286 27.5748 7.28125C28.609 7.34935 29.2648 7.41493 29.3152 7.41998C29.2211 7.41005 29.1261 7.42574 29.0403 7.46538C28.9088 7.52397 28.8057 7.63201 28.7533 7.76609C28.7009 7.90016 28.7034 8.04949 28.7603 8.18172C28.6241 8.27504 28.5005 8.3608 28.3895 8.4289Z" fill="#3F2355"/>
<path d="M20.5502 19.4034C20.3854 19.6994 20.178 19.9697 19.9347 20.2055C19.9169 20.1807 19.8946 20.1593 19.8691 20.1424L20.4694 19.3555C20.4939 19.3753 20.5211 19.3914 20.5502 19.4034Z" fill="white"/>
<path d="M20.4714 19.3585L19.871 20.1455C19.8616 20.1371 19.8515 20.1295 19.8408 20.1228C19.7961 20.0964 19.7461 20.08 19.6945 20.0749C19.6436 20.0672 19.5915 20.0724 19.5431 20.09C19.4932 20.1054 19.4474 20.1322 19.4095 20.1682C18.8943 20.5887 18.2601 20.837 17.5963 20.8782C16.9326 20.9193 16.2726 20.7512 15.7094 20.3974C15.1462 20.0437 14.7082 19.5222 14.4571 18.9064C14.2059 18.2906 14.1542 17.6115 14.3093 16.9648H20.4915C20.6464 17.6081 20.5961 18.2837 20.3478 18.8969C20.3279 18.9445 20.3176 18.9955 20.3176 19.047C20.3176 19.0985 20.3279 19.1496 20.3478 19.1971C20.3667 19.2451 20.395 19.2888 20.431 19.3257L20.4714 19.3585Z" fill="white"/>
<path d="M20.4922 13.0802C19.587 12.4825 18.5249 12.1665 17.4402 12.1722V12.2075C16.2132 12.2154 15.0244 12.6348 14.064 13.3985C13.1036 14.1622 12.4273 15.2261 12.1433 16.4198H11.3286C11.6138 15.0091 12.3781 13.7404 13.4921 12.8291C14.606 11.9178 16.0009 11.4199 17.4402 11.4199C18.8794 11.4199 20.2743 11.9178 21.3883 12.8291C22.5022 13.7404 23.2666 15.0091 23.5517 16.4198H22.795C22.726 16.1177 22.6307 15.8223 22.51 15.537C22.0944 14.537 21.3923 13.6823 20.4922 13.0802Z" fill="#3F2355"/>
<path d="M16.1611 23.7575C17.1129 23.7121 18.1327 23.6693 19.2207 23.6289C18.2272 23.9244 17.1759 23.9686 16.1611 23.7575Z" fill="#3F2355"/>
<path d="M17.7529 21.2076C18.449 21.141 19.1102 20.8718 19.6547 20.4332L19.8767 20.1406C19.9022 20.1575 19.9244 20.1789 19.9423 20.2037C19.3512 20.7824 18.5772 21.1373 17.7529 21.2076Z" fill="#3F2254"/>
<path d="M19.6956 14.9006C19.1042 14.4099 18.3696 14.124 17.6021 14.0859C18.3043 14.117 18.9817 14.3548 19.5494 14.7694C20.117 15.184 20.5496 15.757 20.7928 16.4166H20.7802C20.5593 15.8241 20.185 15.301 19.6956 14.9006Z" fill="#3F2254"/>
<path d="M19.2203 23.6288C18.1341 23.6692 17.1142 23.712 16.1608 23.7574C14.7577 23.4654 13.4981 22.6991 12.5936 21.5874C11.6891 20.4758 11.195 19.0866 11.1944 17.6534C11.1938 17.4233 11.2073 17.1933 11.2347 16.9648H12.0267C11.9955 17.1931 11.9795 17.4231 11.9788 17.6534C11.9904 19.007 12.5026 20.3083 13.4168 21.3065C14.3309 22.3047 15.5822 22.9292 16.9295 23.0596C18.2768 23.1899 19.6246 22.8169 20.7132 22.0124C21.8017 21.2079 22.5539 20.0289 22.8247 18.7027C22.9372 18.1303 22.9568 17.5435 22.8827 16.9648H23.6117C23.6391 17.1933 23.6526 17.4233 23.6521 17.6534C23.6535 18.9934 23.2232 20.2982 22.425 21.3745C21.6268 22.4507 20.503 23.2412 19.2203 23.6288Z" fill="#3F2355"/>
<path d="M17.4154 21.2274C17.3206 21.2283 17.2257 21.2241 17.1313 21.2148C17.2244 21.2224 17.3199 21.2274 17.4154 21.2274Z" fill="#3F2254"/>
<path d="M17.2196 14.0879H17.0942C17.136 14.0853 17.1779 14.0853 17.2196 14.0879Z" fill="#3F2254"/>
<path d="M17.4412 24.6451C16.3299 24.6423 15.2356 24.3724 14.2505 23.8582C14.8508 23.8229 15.4881 23.7892 16.1624 23.7573C17.1772 23.9683 18.2285 23.9241 19.222 23.6287C19.866 23.6034 20.5302 23.5807 21.2146 23.5605C20.0858 24.2741 18.7766 24.6504 17.4412 24.6451Z" fill="#3F2355"/>
<path d="M17.6378 13.7593C16.7945 13.7167 15.9598 13.9465 15.2571 14.4148C14.5544 14.8831 14.0211 15.565 13.7358 16.3598C13.7279 16.3796 13.7212 16.3998 13.7156 16.4204H12.1392C12.4232 15.2267 13.0995 14.1628 14.0598 13.3991C15.0202 12.6354 16.209 12.216 17.436 12.2081V12.1778C18.5207 12.1715 19.5828 12.4874 20.4876 13.0856C21.3925 13.6837 22.0993 14.5371 22.5185 15.5375C22.6391 15.8229 22.7345 16.1183 22.8035 16.4204H21.1615C20.9072 15.6741 20.4346 15.0214 19.805 14.5469C19.1753 14.0724 18.4177 13.7981 17.6302 13.7593H17.6378Z" fill="#DEDEDF"/>
<path d="M14.0889 16.4178C14.3176 15.8003 14.7122 15.258 15.2294 14.8503C15.7465 14.4427 16.366 14.1856 17.0198 14.1074H17.0955H17.2216C17.2653 14.1048 17.3091 14.1048 17.3527 14.1074H17.4158H17.6024C18.3001 14.1396 18.9729 14.3756 19.5378 14.7863C20.1026 15.1969 20.5347 15.7641 20.7806 16.4178H20.3165C20.0918 15.9084 19.7371 15.467 19.288 15.138C18.8389 14.8089 18.3112 14.6037 17.7578 14.5428C17.2044 14.482 16.6447 14.5678 16.1349 14.7915C15.6251 15.0152 15.1831 15.369 14.8531 15.8175C14.7162 16.0052 14.5987 16.2063 14.5025 16.4178H14.0889Z" fill="#3F2254"/>
<path d="M14.0893 16.416H14.4929C14.4154 16.5926 14.3538 16.7758 14.3088 16.9634H13.938C13.9727 16.7769 14.0233 16.5938 14.0893 16.416Z" fill="#3F2254"/>
<path d="M17.074 21.2074C16.1948 21.1163 15.3805 20.7026 14.7884 20.0463C14.1963 19.3899 13.8685 18.5374 13.8682 17.6534C13.8676 17.4222 13.8904 17.1915 13.9363 16.9648H14.3071C14.1536 17.6112 14.2064 18.2893 14.458 18.9042C14.7096 19.519 15.1474 20.0396 15.71 20.3929C16.2725 20.7462 16.9316 20.9146 17.5947 20.8743C18.2577 20.834 18.8916 20.587 19.4072 20.1682C19.4451 20.1322 19.4909 20.1054 19.5409 20.09C19.5892 20.0724 19.6413 20.0672 19.6922 20.0749C19.7439 20.08 19.7938 20.0964 19.8385 20.1228C19.8492 20.1295 19.8593 20.1371 19.8688 20.1455L19.6468 20.4381C19.1022 20.8767 18.441 21.1459 17.745 21.2124H17.6239H17.4145C17.3187 21.2124 17.2229 21.2124 17.1295 21.1998L17.074 21.2074Z" fill="#3F2254"/>
<path d="M14.0659 16.4179C14.2954 15.7966 14.6932 15.2515 15.2149 14.8435C15.7365 14.4354 16.3614 14.1806 17.0196 14.1074C16.3658 14.1857 15.7462 14.4428 15.2291 14.8504C14.712 15.258 14.3174 15.8004 14.0886 16.4179H14.0659Z" fill="#3F2254"/>
<path d="M13.9146 16.9617C13.9473 16.7901 13.9937 16.6214 14.0533 16.4572V16.4219H14.076C14.0099 16.5996 13.9593 16.7828 13.9246 16.9692L13.9146 16.9617Z" fill="#3F2254"/>
<path d="M13.5718 16.9634C13.6057 16.7775 13.6538 16.5945 13.7155 16.416H14.0661V16.4513C14.0065 16.6155 13.9601 16.7842 13.9274 16.9558L13.5718 16.9634Z" fill="#3F2254"/>
<path d="M15.4375 14.6852C14.8079 15.1037 14.3274 15.7114 14.0654 16.4205H13.7173C13.7229 16.4 13.7296 16.3798 13.7375 16.36C14.0137 15.5923 14.5217 14.9293 15.1911 14.4628C15.8606 13.9963 16.6584 13.7493 17.4743 13.756C18.2902 13.7626 19.0839 14.0226 19.7456 14.4999C20.4074 14.9773 20.9045 15.6484 21.1682 16.4205H20.7949C20.5517 15.761 20.1191 15.188 19.5515 14.7734C18.9838 14.3588 18.3064 14.121 17.6042 14.0899H17.4175H17.3545C17.3108 14.0874 17.267 14.0874 17.2233 14.0899C17.1813 14.0873 17.1392 14.0873 17.0972 14.0899H17.0215C16.4531 14.157 15.9095 14.3613 15.4375 14.6852Z" fill="#3F2254"/>
<path d="M15.2998 20.5314C14.754 20.1297 14.3338 19.5811 14.0882 18.9496C13.8425 18.3181 13.7816 17.6297 13.9125 16.9648H13.9352C13.8893 17.1915 13.8665 17.4222 13.8671 17.6534C13.8674 18.5374 14.1952 19.3899 14.7873 20.0463C15.3794 20.7026 16.1937 21.1163 17.073 21.2074C16.4315 21.1473 15.8185 20.9136 15.2998 20.5314Z" fill="#3F2254"/>
<path d="M13.676 18.8263C13.4935 18.223 13.4581 17.5847 13.5726 16.9648H13.9156C13.8189 17.4538 13.8258 17.9577 13.9358 18.4439C14.0458 18.9301 14.2564 19.3878 14.5542 19.7876C14.852 20.1873 15.2303 20.5202 15.6647 20.7648C16.0991 21.0093 16.5799 21.1601 17.0761 21.2074H17.1316C17.2263 21.2167 17.3215 21.2209 17.4166 21.22H17.626H17.747C18.5719 21.1484 19.3461 20.7916 19.9364 20.2111L19.9541 20.2312C20.0047 20.3091 20.0264 20.4022 20.0154 20.4945C20.0043 20.5867 19.9612 20.6721 19.8935 20.7357C19.3939 21.1405 18.8023 21.416 18.171 21.5381C17.5397 21.6601 16.888 21.6248 16.2735 21.4354C15.6591 21.2459 15.1007 20.9081 14.6477 20.4518C14.1947 19.9954 13.861 19.4346 13.676 18.8187V18.8263Z" fill="#3F2254"/>
<path d="M13.7184 16.416C13.6567 16.5945 13.6086 16.7775 13.5747 16.9634H12.0386C12.0386 16.87 12.0638 16.7792 12.0815 16.6884C12.0991 16.5976 12.1168 16.5068 12.1395 16.416H13.7184Z" fill="#DEDEDF"/>
<path d="M11.3298 16.416H12.1395C12.1168 16.5068 12.0991 16.5976 12.0815 16.6884C12.0638 16.7792 12.0512 16.87 12.0386 16.9634H11.2466C11.2641 16.7795 11.2919 16.5968 11.3298 16.416Z" fill="#3F2355"/>
<path d="M17.44 11.4179C16.001 11.4184 14.6064 11.9164 13.4926 12.8275C12.3787 13.7386 11.6142 15.0068 11.3285 16.4172H10.5869C10.8748 14.813 11.714 13.3597 12.9596 12.3086C14.2051 11.2574 15.7788 10.6745 17.4085 10.6604C19.0383 10.6464 20.6218 11.2021 21.8853 12.2316C23.1488 13.2611 24.013 14.6996 24.3285 16.2986L24.3512 16.4172H23.5541C23.2683 15.0064 22.5034 13.7378 21.389 12.8267C20.2747 11.9155 18.8795 11.4178 17.44 11.4179Z" fill="#3F2355"/>
<path d="M10.5869 16.416H11.3285C11.2905 16.5968 11.2627 16.7795 11.2452 16.9634H10.5112C10.5112 16.87 10.5314 16.7792 10.544 16.6884C10.5566 16.5976 10.5718 16.4967 10.5869 16.416Z" fill="#3F2355"/>
<path d="M11.1957 17.6534C11.1958 19.0852 11.6885 20.4732 12.591 21.5847C13.4935 22.6962 14.7508 23.4633 16.152 23.7574C15.4794 23.7894 14.8421 23.823 14.2401 23.8583C13.3334 23.3895 12.5409 22.7272 11.9185 21.9182C11.2961 21.1093 10.859 20.1734 10.6382 19.1769C10.5274 18.6869 10.4707 18.1861 10.4692 17.6837C10.4692 17.4441 10.4692 17.2019 10.502 16.9648H11.2461C11.2153 17.1931 11.1985 17.4231 11.1957 17.6534Z" fill="#3F2355"/>
<path d="M7.15915 16.4173H10.587C10.5718 16.5081 10.5567 16.5989 10.5441 16.6897C10.5315 16.7805 10.5214 16.8713 10.5113 16.9646H7.15915C7.121 16.9683 7.08251 16.9639 7.04614 16.9519C7.00977 16.9398 6.97633 16.9202 6.94797 16.8944C6.9196 16.8687 6.89694 16.8373 6.88143 16.8022C6.86592 16.7672 6.85791 16.7293 6.85791 16.691C6.85791 16.6526 6.86592 16.6147 6.88143 16.5797C6.89694 16.5446 6.9196 16.5132 6.94797 16.4875C6.97633 16.4617 7.00977 16.4421 7.04614 16.43C7.08251 16.418 7.121 16.4136 7.15915 16.4173Z" fill="#3F2355"/>
<path d="M2.39453 15.4727C3.02034 15.8369 3.48122 16.4288 3.68091 17.1248C3.40598 17.377 3.1487 17.6091 2.92422 17.7907C2.94187 17.0743 2.60136 16.1688 2.39453 15.4727Z" fill="#3F2355"/>
<path d="M2.25195 14.8848C2.97586 15.2354 3.94443 15.929 4.17396 17.2028C3.74966 17.6245 3.29159 18.0109 2.80434 18.358C2.88052 18.1793 2.91998 17.9872 2.92037 17.793C3.1499 17.6114 3.40717 17.3919 3.67706 17.1271C3.47737 16.4311 3.01649 15.8392 2.39068 15.475C2.33177 15.2814 2.28543 15.0843 2.25195 14.8848Z" fill="#3F2355"/>
<path d="M2.29956 18.7882H2.77375C2.56914 18.9331 2.35321 19.0613 2.12804 19.1716C2.08472 19.1951 2.03706 19.2094 1.988 19.2137C1.93894 19.218 1.88951 19.2122 1.84277 19.1967C1.79602 19.1812 1.75295 19.1563 1.71621 19.1235C1.67947 19.0907 1.64983 19.0507 1.62912 19.006C1.60842 18.9613 1.59709 18.9129 1.59582 18.8636C1.59456 18.8144 1.60339 18.7654 1.62178 18.7197C1.64016 18.6741 1.66771 18.6326 1.70273 18.598C1.73774 18.5633 1.77948 18.5362 1.82536 18.5183C1.82536 18.5183 1.9767 18.4452 2.23398 18.2812C2.26172 18.4729 2.27938 18.6117 2.28947 18.6747C2.29533 18.7123 2.2987 18.7502 2.29956 18.7882Z" fill="#3F2355"/>
<path d="M4.329 17.5054C3.85157 17.9826 3.33054 18.4142 2.77274 18.7943H2.29854C2.30103 18.7565 2.30103 18.7186 2.29854 18.6808C2.29854 18.6178 2.2708 18.479 2.24305 18.2873C2.42466 18.1713 2.65671 18.0099 2.92912 17.7829C2.92873 17.9771 2.88927 18.1692 2.81309 18.3479C3.30035 18.0008 3.75841 17.6144 4.18271 17.1927C3.95318 15.9315 2.98461 15.2253 2.26071 14.8747C2.29584 15.0743 2.34386 15.2714 2.40448 15.4649C2.20299 15.341 1.99216 15.2331 1.7739 15.142C1.7285 14.8494 1.68057 14.5695 1.6377 14.3223C2.27332 14.519 4.09443 15.2429 4.43998 17.1725C4.45136 17.2328 4.44714 17.2951 4.42772 17.3534C4.4083 17.4116 4.37432 17.464 4.329 17.5054Z" fill="#3F2355"/>
<path d="M1.62878 14.3306C1.67166 14.5828 1.71959 14.8577 1.76499 15.1503C1.60112 15.0805 1.43255 15.0224 1.26053 14.9763C1.19071 14.9605 1.12721 14.9243 1.07821 14.8721C1.02921 14.82 0.996949 14.7543 0.985595 14.6837C0.976807 14.6379 0.976807 14.5908 0.985595 14.5449C0.996026 14.4987 1.01546 14.455 1.04278 14.4163C1.0701 14.3776 1.10478 14.3447 1.14483 14.3194C1.18488 14.2941 1.22952 14.2769 1.27621 14.2689C1.32289 14.2609 1.3707 14.2621 1.41691 14.2725C1.48853 14.288 1.55926 14.3074 1.62878 14.3306Z" fill="#3F2355"/>
<path d="M1.19202 18.7375C1.12644 18.2684 0.823765 16.1244 0.58919 14.7472L0.980148 14.6816C0.990094 14.7537 1.02172 14.821 1.07083 14.8746C1.11994 14.9282 1.1842 14.9656 1.25508 14.9818C1.42711 15.0279 1.59568 15.0861 1.75954 15.1558C1.94115 16.2783 2.13285 17.6151 2.22869 18.2885C1.97646 18.4525 1.8226 18.5231 1.82008 18.5256C1.77419 18.5435 1.73245 18.5706 1.69744 18.6053C1.66243 18.6399 1.63488 18.6814 1.61649 18.727C1.59811 18.7727 1.58927 18.8217 1.59054 18.8709C1.5918 18.9202 1.60313 18.9686 1.62384 19.0133C1.64454 19.058 1.67418 19.098 1.71093 19.1308C1.74767 19.1636 1.79074 19.1885 1.83748 19.204C1.88423 19.2195 1.93366 19.2253 1.98272 19.221C2.03178 19.2167 2.07944 19.2024 2.12276 19.1789C2.34792 19.0686 2.56386 18.9404 2.76847 18.7955H9.87383C10 18.7963 10.1222 18.8403 10.2199 18.9201C10.3177 19 10.3851 19.1109 10.4111 19.2344C10.4149 19.2713 10.4149 19.3085 10.4111 19.3454C10.4111 19.4906 10.3534 19.6298 10.2508 19.7324C10.1481 19.8351 10.0089 19.8927 9.86374 19.8927H0.137695L1.19202 18.7375Z" fill="#3F2355"/>
<path d="M0.586706 14.7483C0.513559 14.3195 0.445457 13.9638 0.395011 13.757L0.349609 13.5653L0.432846 13.3887C1.0382 12.1276 8.56478 7.17629 20.1069 7.08296C20.1793 7.0559 20.2567 7.04472 20.3339 7.05017C20.3372 7.08325 20.3457 7.11559 20.3591 7.14602L19.7134 7.17881C19.5984 7.18716 19.489 7.2316 19.4008 7.30579C19.3126 7.37998 19.25 7.48013 19.2221 7.59197C19.1941 7.7038 19.2022 7.82161 19.2451 7.92859C19.288 8.03557 19.3637 8.12626 19.4612 8.18774C9.20293 8.43997 2.56168 12.5715 1.5351 13.7368C1.56789 13.9008 1.60572 14.1 1.64608 14.322C1.57573 14.2987 1.50416 14.2794 1.43168 14.264C1.38547 14.2535 1.33766 14.2523 1.29098 14.2604C1.24429 14.2684 1.19965 14.2856 1.1596 14.3109C1.11955 14.3361 1.08487 14.3691 1.05755 14.4078C1.03023 14.4465 1.0108 14.4902 1.00037 14.5364C0.991578 14.5822 0.991578 14.6293 1.00037 14.6751L0.609407 14.7407L0.586706 14.7483Z" fill="#3F2355"/>
</svg>
