<svg width="24" height="24" viewBox="0 0 24 24" fill="none" xmlns="http://www.w3.org/2000/svg">
<path d="M21.2594 2.58837C21.2581 1.58042 20.4409 0.763672 19.4327 0.763672H11.7838C11.2993 0.763672 10.8347 0.95607 10.4921 1.29862L0.535231 11.2534C-0.178353 11.9668 -0.17841 13.1236 0.53506 13.8372L8.18399 21.4862C8.54069 21.8429 9.00827 22.0213 9.47585 22.0213C9.77016 22.0213 10.0613 21.9423 10.3279 21.8009C11.3039 20.9972 9.85996 22.3937 20.7244 11.5314C21.0671 11.1888 21.2596 10.7241 21.2596 10.2395C21.2596 2.48075 21.2597 3.80613 21.2594 2.58837ZM20.3462 10.2394C20.3462 10.4834 20.2511 10.7129 20.0786 10.8854L10.1217 20.8404C9.94914 21.0129 9.71974 21.1079 9.47574 21.1079C9.23173 21.1079 9.00239 21.0128 8.8298 20.8404L1.18099 13.1913C1.00846 13.0188 0.913461 12.7893 0.913461 12.5454C0.913461 12.3014 1.00852 12.072 1.18105 11.8995L11.1379 1.94461C11.3104 1.77213 11.5398 1.67713 11.7838 1.67713H19.4328C19.9364 1.67713 20.3462 2.08693 20.3462 2.59059V10.2394H20.3462Z" fill="#3F2355"/>
<path d="M23.0869 2.5918V11.154C23.0869 11.398 22.9918 11.6275 22.8193 11.8L12.0273 22.59L12.6732 23.2359L23.4651 12.446C23.8078 12.1033 24.0003 11.6386 24.0003 11.154V2.5918H23.0869Z" fill="#FB5100"/>
<path d="M16.2371 3.96094C15.2299 3.96094 14.4102 4.78026 14.4102 5.78786C14.4102 6.79547 15.2299 7.61478 16.2371 7.61478C17.2442 7.61478 18.064 6.79547 18.064 5.78786C18.064 4.78026 17.2442 3.96094 16.2371 3.96094ZM16.2371 6.70132C15.7331 6.70132 15.3236 6.29141 15.3236 5.78786C15.3236 5.28431 15.7331 4.8744 16.2371 4.8744C16.7411 4.8744 17.1505 5.28431 17.1505 5.78786C17.1505 6.29141 16.7411 6.70132 16.2371 6.70132Z" fill="#3F2355"/>
<path d="M6.90526 15.9427L7.77456 16.8353L8.65718 15.9758C10.1159 17.2129 11.8594 17.137 12.8925 16.1309C14.0559 14.9979 13.9444 13.6995 12.7995 11.9419L14.9559 9.84187C15.3717 10.5899 15.3013 11.4206 14.874 12.2862L16.2155 12.6604C16.8365 11.3716 16.725 10.0732 15.8987 8.92373L16.8014 8.04466L15.9321 7.15201L15.0495 8.01154C13.747 6.93494 12.2244 6.77615 11.2014 7.77243C10.0981 8.84685 10.2366 10.3535 11.1378 11.8208L8.77081 14.1259C8.16969 13.1675 8.28232 12.1394 9.0889 11.0413L7.66953 10.567C6.73177 11.8515 6.64982 13.5533 7.80794 15.0636L6.90526 15.9427ZM11.7975 15.0868C11.2659 15.6045 10.4239 15.6428 9.62005 15.0381L11.8166 12.8991C12.3385 13.8564 12.3892 14.5105 11.7975 15.0868ZM12.2177 8.77594C12.7293 8.2778 13.4401 8.42583 14.1067 8.92968L12.1609 10.8246C11.7374 9.90811 11.7564 9.22524 12.2177 8.77594Z" fill="#3F2355"/>
</svg>
