<svg width="63" height="47" viewBox="0 0 63 47" fill="none" xmlns="http://www.w3.org/2000/svg">
<path d="M62.7915 22.8412V22.7136C62.7915 22.6702 62.7915 22.6293 62.7915 22.5859H62.9192C62.9192 22.6268 62.9192 22.6702 62.9192 22.7136V22.8412H62.7915Z" fill="#3F2355"/>
<path d="M62.7917 22.5859C62.7917 22.6298 62.7917 22.6711 62.7917 22.715H62.2754C62.278 22.672 62.278 22.6289 62.2754 22.5859H62.7917Z" fill="#3F2355"/>
<path d="M62.2754 22.7168H62.7917V22.8459H62.6626H62.2754V22.7762V22.7168Z" fill="#3F2355"/>
<path d="M62.2748 23.0312H61.8896V23.288H62.2748V23.0312Z" fill="#3F2355"/>
<path d="M62.2748 22.8457H61.8896V23.0332H62.2748V22.8457Z" fill="#3F2355"/>
<path d="M62.2756 22.7168H61.7593V22.7762H62.2756V22.7168Z" fill="#3F2355"/>
<path d="M61.7583 22.847V22.7773H62.2746V22.847H61.8874H61.7583Z" fill="#3F2355"/>
<path d="M61.8869 23.0312H61.7593V23.2865H61.8869V23.0312Z" fill="#3F2355"/>
<path d="M61.8869 22.8457H61.7593V23.0321H61.8869V22.8457Z" fill="#3F2355"/>
<path d="M61.7605 23.0312H61.6328V23.2865H61.7605V23.0312Z" fill="#3F2355"/>
<path d="M62.2683 22.5859C62.2708 22.6289 62.2708 22.672 62.2683 22.715H61.752C61.7546 22.672 61.7546 22.6289 61.752 22.5859H62.2683Z" fill="#3F2355"/>
<path d="M61.7605 22.8457H61.6328V23.0321H61.7605V22.8457Z" fill="#3F2355"/>
<path d="M61.7605 22.7136V22.7723H61.6328V22.5859H61.7528C61.758 22.6283 61.7605 22.6709 61.7605 22.7136Z" fill="#3F2355"/>
<path d="M61.7609 22.7773H61.6328V22.8465H61.7609V22.7773Z" fill="#3F2355"/>
<path d="M61.6342 30.7637C61.6352 31.7183 61.4481 32.6638 61.0836 33.5462C60.719 34.4285 60.1841 35.2303 59.5096 35.9059C58.835 36.5814 58.0339 37.1174 57.1521 37.4832C56.2703 37.849 55.325 38.0375 54.3704 38.0378H45.9521C46.3 37.5815 46.6176 37.1029 46.903 36.6051L46.988 36.4557V23.2988H61.6368L61.6342 30.7637Z" fill="white"/>
<path d="M61.6322 23.0352H46.9834V23.2928H61.6322V23.0352Z" fill="#3F2355"/>
<path d="M61.6278 23.035L46.9816 23.0427L46.979 22.7851L61.6278 22.7773V22.8469V23.035Z" fill="#3F2355"/>
<path d="M61.6304 22.7197V22.7789H46.979V21.4622L60.3162 21.4004C60.6643 21.4004 60.9982 21.5385 61.2446 21.7844C61.4909 22.0303 61.6297 22.3639 61.6304 22.712V22.7197Z" fill="#DEDFE0"/>
<path d="M61.9743 21.0663C62.3842 21.4729 62.6276 22.0177 62.6571 22.5943H62.268C62.2366 22.0991 62.0176 21.6346 61.6557 21.2952C61.2938 20.9558 60.8162 20.767 60.32 20.7674L46.9854 20.8267V20.4401L60.32 20.3809C60.6274 20.3798 60.932 20.4398 61.216 20.5575C61.5 20.6751 61.7577 20.8481 61.9743 21.0663Z" fill="#3F2355"/>
<path d="M61.334 21.6935C61.5747 21.9316 61.7227 22.2477 61.7515 22.585H61.6304V22.7138C61.6297 22.3658 61.4909 22.0322 61.2445 21.7863C60.9982 21.5404 60.6643 21.4023 60.3162 21.4023L46.979 21.4641V21.3327L60.3162 21.2734C60.5052 21.2729 60.6924 21.3097 60.8671 21.3818C61.0418 21.4538 61.2005 21.5598 61.334 21.6935Z" fill="#3F2355"/>
<path d="M60.3206 21.2773L46.9834 21.3365V21.2077L60.318 21.1484C60.7127 21.1477 61.0931 21.2954 61.3839 21.5623C61.6746 21.8291 61.8543 22.1956 61.8873 22.5888H61.7559C61.7237 22.2305 61.5585 21.8971 61.2929 21.6544C61.0273 21.4116 60.6804 21.2771 60.3206 21.2773Z" fill="#3F2355"/>
<path d="M61.4268 21.6089C61.2806 21.4629 61.107 21.3472 60.916 21.2685C60.7249 21.1898 60.5202 21.1496 60.3136 21.1502L46.979 21.2095V20.8229L60.3188 20.7637C60.8158 20.762 61.2948 20.9502 61.6578 21.2897C62.0208 21.6292 62.2404 22.0945 62.272 22.5906H61.888C61.8561 22.2189 61.6925 21.8707 61.4268 21.6089Z" fill="#3F2355"/>
<path d="M61.9743 21.0623C61.7577 20.8441 61.4999 20.6712 61.216 20.5535C60.932 20.4359 60.6274 20.3758 60.32 20.3769L46.9854 20.4362V20.3073L60.32 20.2481C60.6449 20.2463 60.9669 20.3092 61.2673 20.4331C61.5676 20.557 61.8404 20.7393 62.0696 20.9696C62.5044 21.4008 62.7626 21.9788 62.7937 22.5903H62.6623C62.6314 22.0131 62.386 21.4681 61.9743 21.0623Z" fill="#3F2355"/>
<path d="M60.3208 20.2441L46.9862 20.3033V20.1977H46.4219L60.3208 20.1152C60.9891 20.1144 61.6322 20.3703 62.1171 20.8303C62.602 21.2902 62.8915 21.9189 62.9259 22.5863H62.7971C62.766 21.9747 62.5078 21.3968 62.073 20.9656C61.8438 20.7353 61.571 20.553 61.2707 20.4291C60.9703 20.3052 60.6483 20.2423 60.3234 20.2441H60.3208Z" fill="#3F2355"/>
<path d="M58.7738 0.735498C58.8705 0.831701 58.9252 0.962361 58.9258 1.09882C58.9258 1.2355 58.8715 1.36658 58.7748 1.46323C58.6782 1.55987 58.5471 1.61417 58.4104 1.61417H55.576L45.5113 20.2002C45.1557 20.2157 44.7975 20.2492 44.4393 20.2956L44.2744 20.3213L54.9602 0.586047H58.4001C58.4692 0.584624 58.5379 0.597122 58.6021 0.622797C58.6663 0.648472 58.7247 0.6868 58.7738 0.735498Z" fill="#3F2355"/>
<path d="M54.3715 39.1926C56.606 39.1912 58.7485 38.3026 60.3281 36.7221C61.9076 35.1416 62.7949 32.9985 62.7949 30.764V22.8457H62.9237V30.764C62.9248 31.8879 62.7043 33.001 62.275 34.0396C61.8457 35.0782 61.216 36.0221 60.4217 36.8173C59.6275 37.6125 58.6844 38.2433 57.6463 38.6739C56.6082 39.1044 55.4954 39.3262 54.3715 39.3266H44.853L44.9638 39.2106L44.9767 39.1977L54.3715 39.1926Z" fill="#3F2355"/>
<path d="M54.3704 39.0637C56.5707 39.0624 58.6805 38.1873 60.2358 36.631C61.7912 35.0746 62.6649 32.9644 62.6649 30.764V22.8457H62.7938V30.764C62.7945 31.8709 62.5771 32.967 62.1542 33.9899C61.7312 35.0128 61.1109 35.9423 60.3288 36.7254C59.5466 37.5086 58.6178 38.13 57.5955 38.5542C56.5731 38.9784 55.4772 39.1971 54.3704 39.1977H44.9756L45.0477 39.1178C45.0637 39.1028 45.0783 39.0864 45.0915 39.0689L54.3704 39.0637Z" fill="#3F2355"/>
<path d="M60.2378 36.6287C59.4694 37.4024 58.5552 38.0159 57.5481 38.4339C56.5409 38.8519 55.4609 39.066 54.3705 39.0637H45.0942C45.3236 38.8061 45.5426 38.5484 45.7539 38.2907H54.3731C56.368 38.2887 58.2804 37.4948 59.6903 36.0835C61.1001 34.6722 61.8921 32.7589 61.8921 30.764V23.2915H62.2786V22.8457H62.6651V30.764C62.668 31.8535 62.455 32.9327 62.0383 33.9393C61.6217 34.9459 61.0097 35.86 60.2378 36.6287Z" fill="#3F2355"/>
<path d="M59.6921 36.0839C58.9949 36.7851 58.1658 37.3412 57.2525 37.7203C56.3392 38.0993 55.3599 38.2937 54.3712 38.2922H45.752L45.8524 38.1634H54.3712C56.3323 38.162 58.2126 37.382 59.5989 35.9948C60.9851 34.6075 61.7638 32.7267 61.7638 30.7655V23.293H61.8927V30.7655C61.8956 31.7535 61.7027 32.7322 61.325 33.6451C60.9473 34.558 60.3923 35.3869 59.6921 36.0839Z" fill="#3F2355"/>
<path d="M54.3708 38.0345C55.325 38.0342 56.2698 37.8459 57.1513 37.4804C58.0328 37.1149 58.8336 36.5794 59.5081 35.9044C60.1827 35.2294 60.7176 34.4282 61.0825 33.5465C61.4473 32.6647 61.6349 31.7198 61.6346 30.7655V23.293H61.7634V30.7655C61.7641 31.737 61.5734 32.6991 61.2023 33.5969C60.8311 34.4947 60.2868 35.3107 59.6003 35.9981C58.9138 36.6855 58.0987 37.231 57.2014 37.6034C56.3041 37.9758 55.3423 38.1678 54.3708 38.1685H45.8521L45.9525 38.0397L54.3708 38.0345Z" fill="#3F2355"/>
<path d="M46.9815 20.3086V20.4374H46.8527V20.3241L46.3477 20.3112L46.9815 20.3086Z" fill="#3F2355"/>
<path d="M46.9817 23.041H46.854V23.2963H46.9817V23.041Z" fill="#3F2355"/>
<path d="M46.8538 23.041V23.2963H46.7262L46.7236 23.041H46.8538Z" fill="#3F2355"/>
<path d="M46.8511 22.7852H46.9787L46.9813 23.0405H46.8536L46.8511 22.7852Z" fill="#3F2355"/>
<path d="M46.8513 22.7852L46.8538 23.0405H46.7236V22.7852H46.8513Z" fill="#3F2355"/>
<path d="M46.9799 21.4648H46.8511V22.7816H46.9799V21.4648Z" fill="#3F2355"/>
<path d="M46.8525 21.4648H46.7236V22.7816H46.8525V21.4648Z" fill="#3F2355"/>
<path d="M46.9791 21.334H46.8511V21.4646H46.9791V21.334Z" fill="#3F2355"/>
<path d="M46.8517 21.334H46.7236V21.4646H46.8517V21.334Z" fill="#3F2355"/>
<path d="M46.9791 21.209H46.8511V21.3371H46.9791V21.209Z" fill="#3F2355"/>
<path d="M46.8517 21.209V21.3371H46.7236V21.2115L46.8517 21.209Z" fill="#3F2355"/>
<path d="M46.9795 20.8203H46.8511V21.2055H46.9795V20.8203Z" fill="#3F2355"/>
<path d="M46.852 20.8203V21.2055L46.7236 21.2081V20.8203H46.852Z" fill="#3F2355"/>
<path d="M46.9795 20.4375H46.8511V20.8227H46.9795V20.4375Z" fill="#3F2355"/>
<path d="M46.7221 20.4503L46.4653 20.4426V20.4401L46.8505 20.4375V20.8227H46.7221V20.4503Z" fill="#3F2355"/>
<path d="M46.7215 22.7852H46.3389V23.042H46.7215V22.7852Z" fill="#3F2355"/>
<path d="M46.7224 21.4648V22.7816H46.3385L46.3359 21.4674L46.7224 21.4648Z" fill="#3F2355"/>
<path d="M46.7221 20.8203V21.2081H46.4679L46.4653 20.8229L46.7221 20.8203Z" fill="#3F2355"/>
<path d="M46.7221 20.4472V20.8195L46.4653 20.8221V20.4395L46.7221 20.4472Z" fill="#3F2355"/>
<path d="M46.9838 23.293V36.4498L46.8988 36.5993C46.6135 37.0971 46.2959 37.5757 45.948 38.0319H45.7856C46.1529 37.5559 46.4878 37.0558 46.788 36.5349L46.855 36.4163V23.293H46.9838Z" fill="#3F2355"/>
<path d="M46.3385 21.3366L46.3359 20.8203H46.465L46.4676 21.2075H46.7232V21.334L46.3385 21.3366Z" fill="#3F2355"/>
<path d="M46.3477 20.4416V20.3125H46.864V20.4261H46.3477V20.4416Z" fill="#3F2355"/>
<path d="M46.3359 20.4375H46.4643V20.8201H46.3359V20.4375Z" fill="#3F2355"/>
<path d="M46.2891 23.3015V22.7852H46.3381V23.0433H46.7228L46.7253 23.3015H46.3381H46.2891Z" fill="#3F2355"/>
<path d="M46.3359 21.4671V20.8203L46.3385 21.3357L46.7224 21.3331V21.4645L46.3359 21.4671Z" fill="#3F2355"/>
<path d="M46.2075 20.4367V20.3086H46.3381V20.4367H46.2075Z" fill="#3F2355"/>
<path d="M46.205 20.3034V20.1797H46.406H46.9703V20.2905H46.1973L46.205 20.3034Z" fill="#3F2355"/>
<path d="M46.2134 21.4702V20.4395H46.3422V21.4702H46.2134Z" fill="#3F2355"/>
<path d="M45.7905 38.0378H45.6333C46.0219 37.5429 46.375 37.0211 46.6898 36.4763L46.7387 36.3861V23.2988H46.8676V36.4222L46.8006 36.5407C46.4979 37.0619 46.1604 37.562 45.7905 38.0378Z" fill="#3F2355"/>
<path d="M45.9502 38.0352L45.8507 38.1628H45.6924L45.7894 38.0352H45.9502Z" fill="#3F2355"/>
<path d="M45.6905 38.168H45.8488L45.7492 38.2956H45.5884L45.6905 38.168Z" fill="#3F2355"/>
<path d="M45.6913 38.1628H45.5254C45.5611 38.1194 45.5943 38.0786 45.625 38.0352H45.7884L45.6913 38.1628Z" fill="#3F2355"/>
<path d="M46.2072 20.4379C45.9289 20.4379 45.6481 20.4379 45.3672 20.4611L45.4393 20.3297C45.697 20.3142 45.9547 20.3065 46.2124 20.3091L46.2072 20.4379Z" fill="#3F2355"/>
<path d="M46.2047 20.3063C45.947 20.3063 45.6893 20.3063 45.4316 20.3269L45.5038 20.1955C45.7872 20.1775 46.0655 20.1749 46.3438 20.1801H46.1969L46.2047 20.3063Z" fill="#3F2355"/>
<path d="M45.5867 38.2951H45.4214L45.5231 38.168H45.6884L45.5867 38.2951Z" fill="#3F2355"/>
<path d="M45.6324 38.0352C45.6015 38.079 45.568 38.1202 45.5319 38.164H44.5244L44.6352 38.0352H45.6324Z" fill="#3F2355"/>
<path d="M44.9284 21.2754L45.3742 20.4612C45.6551 20.4431 45.9359 20.4354 46.2142 20.438V21.4687H46.3379V22.7802H46.2889V23.2956H46.7244V36.3829L46.6755 36.4731C46.3606 37.0179 46.0076 37.5397 45.619 38.0346H44.627C45.1174 37.4656 45.5563 36.8543 45.9385 36.2077L45.9566 36.1767V21.2033H45.8226C45.5237 21.2342 45.2248 21.2342 44.9284 21.2754Z" fill="#3F2355"/>
<path d="M45.0902 39.0703C45.0771 39.0878 45.0625 39.1041 45.0466 39.1191L44.9747 39.1987H44.7949C44.836 39.1576 44.8771 39.114 44.9156 39.0703H45.0902Z" fill="#3F2355"/>
<path d="M44.9624 39.2101L44.852 39.3257H44.6748C44.7159 39.282 44.757 39.2409 44.7955 39.1973H44.9753L44.9624 39.2101Z" fill="#3F2355"/>
<path d="M45.0907 39.0732H44.9155L44.9516 39.0345C45.1732 38.7975 45.3819 38.5527 45.5855 38.3027H45.7478C45.5391 38.5656 45.3201 38.8232 45.0907 39.0732Z" fill="#3F2355"/>
<path d="M44.8599 38.9414L44.9547 39.026V39.0286H44.9522L44.8599 38.9414Z" fill="#3F2355"/>
<path d="M44.7938 39.1987H44.6191L44.7424 39.0703H44.9145C44.8759 39.114 44.8348 39.1576 44.7938 39.1987Z" fill="#3F2355"/>
<path d="M44.8593 38.9475L44.5732 38.6899L44.6609 38.5945L44.9469 38.8522C45.1092 38.6718 45.269 38.4889 45.421 38.3008H45.5885C45.3849 38.5585 45.1762 38.7955 44.9546 39.0326L44.8593 38.9475Z" fill="#3F2355"/>
<path d="M44.7724 39.0347L44.4863 38.777L44.5739 38.6816L44.86 38.9393L44.9527 39.0269L44.9166 39.0656H44.744L44.7724 39.0347Z" fill="#3F2355"/>
<path d="M44.6743 39.3257H44.4971L44.6203 39.1973H44.795C44.7564 39.2409 44.7154 39.282 44.6743 39.3257Z" fill="#3F2355"/>
<path d="M45.9395 36.2141C45.5573 36.8607 45.1184 37.4721 44.6279 38.041H44.4604C44.9722 37.4527 45.4301 36.8198 45.8287 36.1496V21.3437C45.5092 21.3437 45.1845 21.3746 44.8598 21.4107L44.9346 21.2741C45.2309 21.2406 45.5298 21.2226 45.8235 21.2148H45.9575V36.1883L45.9395 36.2141Z" fill="#3F2355"/>
<path d="M44.6609 38.5867L44.5733 38.6821L44.4857 38.7774L44.7717 39.0351L44.7433 39.066H44.4702V38.293H45.421C45.269 38.4811 45.1092 38.664 44.9469 38.8444L44.6609 38.5867Z" fill="#3F2355"/>
<path d="M44.4598 38.0352H44.6267L44.5163 38.1636H44.3442L44.4598 38.0352Z" fill="#3F2355"/>
<path d="M44.6009 21.4391L44.8586 21.4082L44.7839 21.5473L44.6164 21.5654C44.2428 21.6169 43.8666 21.6839 43.4878 21.7715L43.5702 21.6246C43.9138 21.5473 44.2574 21.4855 44.6009 21.4391Z" fill="#3F2355"/>
<path d="M44.5779 21.3101C44.6965 21.2947 44.8124 21.2818 44.9309 21.2715L44.8562 21.4081L44.5986 21.439C44.255 21.4854 43.9114 21.5472 43.5679 21.6245L43.6477 21.4725C43.9595 21.4055 44.2687 21.3514 44.5779 21.3101Z" fill="#3F2355"/>
<path d="M44.2856 38.0391C44.8175 37.4432 45.2912 36.7978 45.7003 36.1117V21.4732C45.3988 21.4732 45.0922 21.5093 44.7855 21.5479L44.8603 21.4088C45.1849 21.3727 45.5096 21.3495 45.8291 21.3418V36.1478C45.4305 36.8179 44.9726 37.4509 44.4609 38.0391H44.2856Z" fill="#3F2355"/>
<path d="M44.4741 20.5471C44.3556 20.5626 44.2396 20.5806 44.1211 20.6013L44.1984 20.4595L44.4561 20.4209C44.7825 20.3745 45.1097 20.3436 45.4378 20.3281L45.376 20.4595C45.0693 20.4776 44.773 20.5059 44.4741 20.5471Z" fill="#3F2355"/>
<path d="M44.3442 39.1987V38.3612L44.5195 38.168H45.527L45.4239 38.2968H44.4731V39.0698H44.7462L44.6225 39.1987H44.3442Z" fill="#3F2355"/>
<path d="M44.1978 20.4581L44.2751 20.3164L44.44 20.2907C44.7981 20.2443 45.1563 20.2108 45.5119 20.1953L45.4397 20.3267C45.1134 20.3422 44.7861 20.3731 44.458 20.4195L44.1978 20.4581Z" fill="#3F2355"/>
<path d="M44.3442 38.3608V38.1719H44.5178L44.3442 38.3608Z" fill="#3F2355"/>
<path d="M44.4958 39.3256H44.2124V38.4933L44.2846 38.416L44.3052 38.3928L44.3412 38.3516V39.189H44.6195L44.4958 39.3256Z" fill="#3F2355"/>
<path d="M44.3433 38.1637L44.2153 38.3044V38.1151C44.2409 38.0895 44.264 38.0614 44.287 38.0332H44.461L44.3433 38.1637Z" fill="#3F2355"/>
<path d="M44.3048 38.403L44.2843 38.4261L44.2124 38.5031V38.3131L44.3408 38.1719V38.3619L44.3048 38.403Z" fill="#3F2355"/>
<path d="M44.1206 20.5968C44.2391 20.5762 44.3551 20.5581 44.4736 20.5427C44.7725 20.5015 45.0688 20.4731 45.3677 20.4551L44.9297 21.2693C44.8112 21.2693 44.6952 21.2925 44.5767 21.308C44.2675 21.3492 43.9583 21.4033 43.6465 21.4703L44.1206 20.5968Z" fill="#3F2355"/>
<path d="M44.2846 38.0352C44.2614 38.0635 44.2382 38.0919 44.2124 38.1177V38.0352H44.2846Z" fill="#3F2355"/>
<path d="M44.0865 38.2375C43.6448 38.7243 43.1648 39.1749 42.6512 39.5851C42.4454 38.3216 41.9164 37.1327 41.1154 36.134C40.3144 35.1352 39.2688 34.3606 38.0801 33.8854L44.7796 21.5376C45.0862 21.499 45.3929 21.4758 45.6943 21.4629V36.1014C45.2853 36.7875 44.8116 37.4329 44.2797 38.0288H44.2076V38.1112L44.1122 38.2169L44.0865 38.2375Z" fill="white"/>
<path d="M44.2143 38.1191V38.3097L44.1963 38.3304C43.6992 38.8768 43.1552 39.3787 42.5704 39.83C42.4067 38.5413 41.8989 37.3205 41.1005 36.2958C40.302 35.2711 39.2423 34.4803 38.0327 34.0066L38.0946 33.8906C39.2833 34.3659 40.3289 35.1405 41.1299 36.1392C41.9308 37.1379 42.4599 38.3268 42.6657 39.5904C43.1752 39.1772 43.6508 38.7239 44.0881 38.235L44.1087 38.2144L44.2143 38.1191Z" fill="#3F2355"/>
<path d="M44.2102 38.3148V38.4952C43.7292 39.0169 43.2042 39.4962 42.641 39.9278L42.4632 40.0644L42.4349 39.8428C42.2793 38.5727 41.7814 37.3687 40.9944 36.3597C40.2074 35.3508 39.1609 34.5747 37.9668 34.1147L38.0286 34.0039C39.2382 34.4776 40.2979 35.2684 41.0964 36.2931C41.8948 37.3178 42.4026 38.5386 42.5663 39.8273C43.1511 39.376 43.6951 38.8742 44.1922 38.3277L44.2102 38.3148Z" fill="#3F2355"/>
<path d="M37.8082 34.4192C37.7624 34.4986 37.6962 34.5644 37.6165 34.6096C37.5367 34.6549 37.4464 34.6781 37.3547 34.6769C37.3021 34.6771 37.2498 34.6684 37.2001 34.6511C37.1687 34.6429 37.1384 34.6308 37.1099 34.615C37.0504 34.5829 36.9977 34.5393 36.955 34.4868C36.9123 34.4343 36.8803 34.374 36.8609 34.3091C36.8416 34.2443 36.8351 34.1762 36.842 34.1089C36.849 34.0416 36.8691 33.9763 36.9012 33.9167L36.963 33.8008L37.128 33.8394L37.3315 33.8935L37.4114 33.9167C37.6021 33.9734 37.785 34.0378 37.968 34.11L37.8082 34.4192Z" fill="#3F2355"/>
<path d="M37.4835 33.6808L37.401 33.6576L37.1897 33.6009L37.0918 33.5777L43.4847 21.7711C43.8635 21.6834 44.2397 21.6164 44.6133 21.5649L44.7808 21.5469L38.0813 33.8946C37.9035 33.8148 37.6896 33.7426 37.4835 33.6808Z" fill="#3F2355"/>
<path d="M44.2123 38.4927V39.3172H44.4957C43.8389 39.9903 43.1085 40.5876 42.3184 41.0977L41.7232 41.474V40.7705C41.7291 39.3999 41.2913 38.0642 40.4753 36.9631C39.6592 35.8619 38.5088 35.0543 37.1958 34.661C37.2455 34.6783 37.2978 34.6871 37.3504 34.6868C37.4421 34.6881 37.5324 34.6649 37.6122 34.6196C37.6919 34.5743 37.7581 34.5085 37.8039 34.4291L37.9637 34.1328C39.1582 34.5925 40.2053 35.3683 40.9928 36.3773C41.7803 37.3863 42.2786 38.5905 42.4343 39.8609L42.4627 40.0825L42.6405 39.9459C43.2054 39.5079 43.7314 39.0216 44.2123 38.4927Z" fill="#3F2355"/>
<path d="M37.4452 33.8068C37.6436 33.8661 37.8369 33.9357 38.0276 34.013L37.9657 34.1238C37.7828 34.0516 37.5998 33.9872 37.4092 33.9305L37.3293 33.9073L37.1283 33.8584L36.9634 33.8197L37.0278 33.7012L37.1592 33.7321L37.3679 33.7888L37.4452 33.8068Z" fill="#3F2355"/>
<path d="M37.4829 33.6832C37.6891 33.745 37.8926 33.8171 38.091 33.897L38.0292 34.013C37.8385 33.9357 37.6453 33.8661 37.4468 33.8068L37.367 33.7836L37.1583 33.727L37.0269 33.696L37.0913 33.5801L37.1892 33.6033L37.4005 33.66L37.4829 33.6832Z" fill="#3F2355"/>
<path d="M35.4199 45.4333C36.2873 45.4357 37.1377 45.1927 37.873 44.7324L38.5223 44.7505C37.6415 45.4451 36.552 45.8219 35.4302 45.8198L35.4199 45.4333Z" fill="#3F2355"/>
<path d="M44.1964 20.4551L44.1191 20.5968C41.0631 21.0941 37.8447 22.7303 34.9871 25.2349C34.9716 25.1937 34.9536 25.1551 34.9355 25.1138C37.8318 22.5809 41.0966 20.9344 44.1964 20.4551Z" fill="#3F2355"/>
<path d="M35.416 45.0465C34.7923 45.0492 34.1759 44.9118 33.6123 44.6445C34.8148 44.6617 35.97 44.684 37.078 44.7115C36.5524 44.9345 35.987 45.0485 35.416 45.0465Z" fill="#DEDFE0"/>
<path d="M35.418 45.4335V45.82C34.2255 45.8236 33.0711 45.4004 32.1636 44.627H32.8103C33.579 45.1513 34.4876 45.4323 35.418 45.4335Z" fill="#3F2355"/>
<path d="M43.6456 21.4713C40.8112 22.0768 37.848 23.6873 35.212 26.0836C35.202 26.0944 35.1908 26.1039 35.1785 26.112C35.1724 25.8128 35.1076 25.5178 34.9878 25.2436C37.8454 22.7313 41.0638 21.0951 44.1198 20.6055L43.6456 21.4713Z" fill="#3F2355"/>
<path d="M35.2123 26.0831C37.8483 23.6867 40.8064 22.0762 43.646 21.4707L43.5661 21.6227C40.7832 22.236 37.8973 23.8284 35.2999 26.1784L35.1865 26.2815V26.1526C35.1878 26.1398 35.1878 26.1268 35.1865 26.114C35.1963 26.1047 35.2049 26.0943 35.2123 26.0831Z" fill="#3F2355"/>
<path d="M44.2741 20.3184L44.1968 20.4601C41.1047 20.9394 37.8323 22.5859 34.936 25.1266C34.9128 25.0879 34.8922 25.0493 34.8716 25.0106C37.8142 22.439 41.1279 20.7822 44.2741 20.3184Z" fill="#3F2355"/>
<path d="M35.1793 26.1483V26.2759H34.9878C35.0516 26.2197 35.1154 26.1636 35.1741 26.1074C35.1773 26.1208 35.179 26.1345 35.1793 26.1483Z" fill="#3F2355"/>
<path d="M34.888 25.3398C34.994 25.5984 35.05 25.8747 35.0529 26.1541H34.5376C34.5402 26.1112 34.5402 26.0682 34.5376 26.0253H34.9267C34.9123 25.8206 34.868 25.6192 34.7953 25.4275L34.888 25.3398Z" fill="#3F2355"/>
<path d="M34.9886 25.2461C35.1085 25.5203 35.1733 25.8153 35.1793 26.1145C35.12 26.1711 35.0556 26.2278 34.9912 26.2845H34.3779L34.5377 26.1557H35.0531C35.0501 25.8763 34.9941 25.6 34.8881 25.3414L34.9886 25.2461Z" fill="#3F2355"/>
<path d="M34.9857 25.2391L34.8861 25.331C34.8709 25.2899 34.853 25.2499 34.8325 25.211C34.8657 25.1779 34.8989 25.1498 34.9347 25.1191C34.9525 25.16 34.9704 25.1983 34.9857 25.2391Z" fill="#3F2355"/>
<path d="M34.9354 25.1266C34.8996 25.1572 34.8664 25.1853 34.8332 25.2185C34.8154 25.1777 34.7924 25.1368 34.772 25.096L34.8715 25.0117C34.892 25.05 34.9124 25.0985 34.9354 25.1266Z" fill="#3F2355"/>
<path d="M34.7867 25.4277C34.8594 25.6195 34.9037 25.8209 34.9181 26.0255H34.529C34.5209 25.9155 34.501 25.8067 34.4697 25.7009C34.5445 25.639 34.6192 25.5746 34.6887 25.5102L34.7867 25.4277Z" fill="#3F2355"/>
<path d="M34.8876 25.3368L34.788 25.4261C34.7727 25.385 34.7548 25.345 34.7344 25.3062C34.7676 25.273 34.8008 25.2449 34.8339 25.2168C34.8544 25.2556 34.8723 25.2957 34.8876 25.3368Z" fill="#3F2355"/>
<path d="M34.8313 25.2104C34.7981 25.2385 34.7649 25.2666 34.7317 25.2998C34.7159 25.2576 34.6953 25.2173 34.6704 25.1798L34.77 25.0879C34.7904 25.1287 34.8083 25.1696 34.8313 25.2104Z" fill="#3F2355"/>
<path d="M34.6507 43.0531L34.5682 43.2979C34.2263 43.1811 33.9118 42.9959 33.6437 42.7535C33.3757 42.5112 33.1599 42.2169 33.0093 41.8884L33.2438 41.7828C33.2358 41.7678 33.2289 41.7523 33.2231 41.7364L33.2103 41.7029C33.1995 41.6803 33.19 41.6571 33.1819 41.6333C33.1087 41.4411 33.061 41.2402 33.0402 41.0355C33.0402 40.9531 33.0273 40.8706 33.0273 40.7779C33.0263 40.3042 33.1658 39.8409 33.4282 39.4465C33.6906 39.0522 34.0641 38.7446 34.5015 38.5626C34.9388 38.3806 35.4203 38.3325 35.8849 38.4243C36.3496 38.5161 36.7766 38.7436 37.1119 39.0782C37.4472 39.4128 37.6757 39.8393 37.7685 40.3038C37.8613 40.7683 37.8142 41.2499 37.6332 41.6876C37.4521 42.1253 37.1453 42.4995 36.7516 42.7627C36.3578 43.026 35.8948 43.1665 35.4211 43.1665C35.2917 43.1649 35.1626 43.1545 35.0346 43.1356H35.0062L34.8388 43.0995L34.6507 43.0531Z" fill="white"/>
<path d="M34.6031 25.4212L34.4284 25.5778C34.4131 25.5348 34.3951 25.4928 34.3745 25.452L34.5158 25.3262L34.6698 25.1875C34.6949 25.2253 34.7156 25.2658 34.7315 25.3082L34.6031 25.4212Z" fill="#3F2355"/>
<path d="M34.566 43.2963L34.4836 43.5385C34.5583 43.5643 34.6305 43.5849 34.7206 43.6081C34.8108 43.6313 34.8546 43.639 34.9268 43.6493H34.9706C35.1173 43.6718 35.2654 43.683 35.4138 43.6828C36.0014 43.6834 36.5754 43.5058 37.0601 43.1736C37.5448 42.8413 37.9174 42.3699 38.1288 41.8216C38.3401 41.2733 38.3803 40.6738 38.244 40.1022C38.1078 39.5306 37.8014 39.0137 37.3654 38.6197C36.9294 38.2257 36.3843 37.9732 35.8018 37.8953C35.2194 37.8174 34.627 37.9179 34.1028 38.1836C33.5786 38.4492 33.1473 38.8675 32.8657 39.3832C32.584 39.899 32.4654 40.488 32.5253 41.0726C32.5492 41.3196 32.6064 41.5623 32.6953 41.794C32.7069 41.8329 32.7216 41.8708 32.7391 41.9074L32.7701 41.9821L33.0071 41.8765C33.1566 42.2069 33.3719 42.5032 33.64 42.7473C33.9081 42.9915 34.2232 43.1783 34.566 43.2963ZM39.6835 40.784C39.6832 41.6221 39.4363 42.4416 38.9735 43.1404C38.5107 43.8391 37.8525 44.3862 37.0809 44.7135C35.9729 44.6877 34.8177 44.6654 33.6152 44.6465C32.8787 44.3043 32.2554 43.7586 31.8189 43.0738C31.3824 42.3889 31.151 41.5935 31.1519 40.7814C31.1525 39.6505 31.6015 38.5661 32.4004 37.7658C33.1993 36.9654 34.283 36.5144 35.4138 36.5117C36.5455 36.5117 37.6308 36.9613 38.4311 37.7615C39.2313 38.5618 39.6809 39.6471 39.6809 40.7788L39.6835 40.784Z" fill="#DEDFE0"/>
<path d="M34.4687 25.707C34.4999 25.8125 34.5197 25.9209 34.5278 26.0306H34.1426V25.9818C34.1939 25.9424 34.2453 25.9013 34.2966 25.8585C34.3506 25.8123 34.4096 25.761 34.4687 25.707Z" fill="#3F2355"/>
<path d="M34.4292 25.5782L34.6038 25.4216L34.7322 25.3086C34.7528 25.3476 34.7708 25.3879 34.7862 25.4293L34.6886 25.5166C34.6192 25.5808 34.5448 25.645 34.4703 25.7066C34.4605 25.6627 34.4467 25.6197 34.4292 25.5782Z" fill="#3F2355"/>
<path d="M34.429 25.5762C34.4466 25.6178 34.4604 25.6609 34.4703 25.705C34.411 25.7591 34.3517 25.8107 34.2899 25.8596C34.228 25.9086 34.1868 25.9446 34.1353 25.9833C34.1298 25.9362 34.1203 25.8896 34.1069 25.8442C34.143 25.8184 34.1765 25.79 34.21 25.7617L34.429 25.5762Z" fill="#3F2355"/>
<path d="M34.1432 26.0282H34.5305C34.5331 26.0712 34.5331 26.1143 34.5305 26.1573H34.0142C34.0142 26.1289 34.0142 26.1005 34.0142 26.0721C34.0529 26.0437 34.0942 26.0101 34.1329 25.9766L34.1432 26.0282Z" fill="#3F2355"/>
<path d="M34.3741 25.4551C34.3947 25.4959 34.4127 25.5379 34.428 25.5809L34.2097 25.7658C34.1763 25.7941 34.143 25.8223 34.107 25.848C34.0972 25.8024 34.0835 25.7577 34.0659 25.7144L34.1276 25.6657C34.2123 25.5963 34.2945 25.527 34.3741 25.4551Z" fill="#3F2355"/>
<path d="M34.1043 25.8457C34.1176 25.8908 34.127 25.9369 34.1324 25.9836C34.0941 26.0168 34.0532 26.0499 34.0149 26.078C34.0118 26.0292 34.0058 25.9806 33.9971 25.9325L34.1043 25.8457Z" fill="#3F2355"/>
<path d="M34.1055 25.8476L33.9983 25.9344C33.9885 25.8885 33.9757 25.8433 33.96 25.7991C33.9966 25.7732 34.0315 25.7451 34.0646 25.7148C34.0821 25.7578 34.0958 25.8022 34.1055 25.8476Z" fill="#3F2355"/>
<path d="M34.5371 26.1592L34.3774 26.2881H33.8955V26.1696L34.0192 26.0742C34.0192 26.1026 34.0192 26.1309 34.0192 26.1592H34.5371Z" fill="#3F2355"/>
<path d="M33.9988 25.9336C34.0076 25.9817 34.0135 26.0303 34.0167 26.0791L33.8941 26.1736C33.8949 26.1273 33.8906 26.0811 33.8813 26.0357C33.9225 26.004 33.9617 25.9699 33.9988 25.9336Z" fill="#3F2355"/>
<path d="M33.9593 25.7969C33.975 25.8411 33.9878 25.8863 33.9975 25.9322C33.9602 25.965 33.921 25.9957 33.8801 26.0241C33.875 25.9765 33.8656 25.9296 33.8521 25.8837L33.9593 25.7969Z" fill="#3F2355"/>
<path d="M35.4193 45.0451C35.9903 45.0471 36.5557 44.9331 37.0813 44.7101L37.8724 44.7307C37.1091 45.2051 36.2248 45.4482 35.3262 45.4308C34.4277 45.4135 33.5535 45.1363 32.8091 44.6328H33.6156C34.1792 44.9001 34.7956 45.0375 35.4193 45.0348V45.0451Z" fill="#3F2355"/>
<path d="M35.4166 38.1289C35.7648 38.1289 36.1096 38.1975 36.4313 38.3307C36.753 38.464 37.0453 38.6593 37.2915 38.9055C37.5377 39.1517 37.733 39.444 37.8663 39.7657C37.9995 40.0874 38.0681 40.4322 38.0681 40.7804C38.0681 41.1286 37.9995 41.4734 37.8663 41.795C37.733 42.1167 37.5377 42.409 37.2915 42.6552C37.0453 42.9015 36.753 43.0968 36.4313 43.23C36.1096 43.3633 35.7648 43.4318 35.4166 43.4318C35.2734 43.4311 35.1305 43.4199 34.9889 43.3983H34.9657C34.8987 43.3983 34.8343 43.3726 34.7699 43.3571C34.7055 43.3417 34.6333 43.321 34.5663 43.2979L34.6488 43.0531L34.8343 43.1072L35.0018 43.1432H35.0301C35.1581 43.1622 35.2873 43.1725 35.4166 43.1742C35.8896 43.1737 36.3517 43.0329 36.7447 42.7697C37.1376 42.5066 37.4437 42.1328 37.6242 41.6956C37.8048 41.2585 37.8516 40.7777 37.7588 40.3139C37.6661 39.8502 37.4379 39.4243 37.1031 39.0903C36.7683 38.7562 36.342 38.5289 35.878 38.4372C35.4141 38.3454 34.9333 38.3933 34.4966 38.5747C34.0599 38.7562 33.6867 39.0631 33.4244 39.4566C33.1621 39.8501 33.0223 40.3126 33.0228 40.7855C33.0228 40.868 33.0228 40.9504 33.0357 41.0432C33.0566 41.2478 33.1042 41.4488 33.1774 41.641C33.1855 41.6647 33.195 41.688 33.2058 41.7106L33.2187 41.7441C33.2245 41.76 33.2314 41.7755 33.2393 41.7905L33.0048 41.8961L32.9739 41.8265C32.9588 41.7957 32.9459 41.7638 32.9352 41.7312C32.8539 41.5174 32.8011 41.2939 32.7781 41.0664C32.7781 40.9762 32.7652 40.886 32.7652 40.7958C32.7635 40.4464 32.8308 40.1001 32.9632 39.7768C33.0957 39.4535 33.2907 39.1595 33.537 38.9117C33.7834 38.6639 34.0762 38.4672 34.3988 38.3329C34.7213 38.1986 35.0672 38.1292 35.4166 38.1289Z" fill="#3F2355"/>
<path d="M32.7976 24.957C33.0549 24.9574 33.3056 25.0388 33.5142 25.1895C33.7228 25.3403 33.8786 25.5528 33.9597 25.7971L33.8515 25.8847C33.7869 25.6548 33.649 25.4524 33.4587 25.3082C33.2685 25.164 33.0363 25.086 32.7976 25.0859H26.6855V24.957H32.7976Z" fill="#3F2355"/>
<path d="M32.795 24.8379C33.0715 24.8383 33.3414 24.9232 33.5684 25.0811C33.7954 25.2391 33.9688 25.4626 34.0653 25.7217C34.0319 25.7522 33.9966 25.7806 33.9597 25.8067C33.8786 25.5625 33.7227 25.35 33.5142 25.1992C33.3056 25.0485 33.0549 24.9671 32.7976 24.9667H26.6855V24.8379H32.795Z" fill="#3F2355"/>
<path d="M32.795 24.4434C33.1274 24.4426 33.453 24.5375 33.7331 24.7165C34.0131 24.8956 34.2358 25.1514 34.3745 25.4534C34.2947 25.5256 34.2122 25.5952 34.1169 25.6647L34.055 25.7137C33.9585 25.4546 33.7851 25.2311 33.5581 25.0731C33.3311 24.9152 33.0612 24.8303 32.7847 24.8299H26.6855V24.4434H32.795Z" fill="#3F2355"/>
<path d="M34.5184 25.3264L34.3767 25.4527C34.2379 25.1507 34.0152 24.8949 33.7352 24.7158C33.4551 24.5367 33.1295 24.4419 32.7971 24.4426H26.8242V24.0664H32.8074C33.1931 24.0666 33.5713 24.172 33.9015 24.3713C34.2316 24.5707 34.501 24.8564 34.6807 25.1976L34.5184 25.3264Z" fill="#3F2355"/>
<path d="M32.7997 23.9277C33.2028 23.9288 33.5984 24.0375 33.9454 24.2428C34.2924 24.448 34.5783 24.7422 34.7735 25.095L34.673 25.1878C34.4933 24.8465 34.2239 24.5608 33.8937 24.3615C33.5636 24.1622 33.1853 24.0567 32.7997 24.0566H26.8242V23.9277H32.8074H32.7997Z" fill="#3F2355"/>
<path d="M32.7971 23.8047C33.2193 23.8057 33.6337 23.9183 33.9984 24.1309C34.3631 24.3436 34.6651 24.6488 34.8739 25.0158L34.7735 25.1008C34.5783 24.748 34.2924 24.4538 33.9454 24.2486C33.5984 24.0433 33.2028 23.9346 32.7997 23.9335H26.8242V23.8047H32.7971Z" fill="#3F2355"/>
<path d="M35.4179 43.4369C35.9425 43.4369 36.4554 43.2812 36.8915 42.9896C37.3277 42.6981 37.6675 42.2837 37.868 41.7989C38.0686 41.3141 38.1208 40.7807 38.018 40.2662C37.9153 39.7517 37.6623 39.2793 37.2909 38.9087C36.9196 38.5381 36.4467 38.286 35.932 38.1842C35.4173 38.0825 34.8841 38.1358 34.3997 38.3372C33.9153 38.5387 33.5015 38.8794 33.2108 39.3161C32.9201 39.7528 32.7654 40.2659 32.7664 40.7905C32.7664 40.8807 32.7664 40.9709 32.7793 41.0611C32.8023 41.2886 32.8552 41.5122 32.9365 41.7259C32.9472 41.7585 32.9601 41.7904 32.9752 41.8212L33.0061 41.8908L32.769 41.9965L32.7381 41.9217C32.7205 41.8851 32.7059 41.8472 32.6943 41.8084C32.6053 41.5766 32.5481 41.3339 32.5242 41.0869C32.4627 40.5011 32.5803 39.9105 32.8614 39.393C33.1425 38.8755 33.574 38.4554 34.0988 38.1881C34.6236 37.9209 35.2172 37.8191 35.8011 37.8961C36.3849 37.9732 36.9317 38.2255 37.3692 38.6198C37.8068 39.0141 38.1144 39.5317 38.2516 40.1045C38.3888 40.6772 38.3491 41.2781 38.1377 41.8278C37.9264 42.3775 37.5533 42.8502 37.0677 43.1835C36.5821 43.5168 36.0069 43.695 35.4179 43.6945C35.2695 43.6947 35.1214 43.6835 34.9747 43.661H34.9309C34.8588 43.661 34.7918 43.6353 34.7248 43.6198C34.6578 43.6043 34.5624 43.576 34.4877 43.5502L34.5702 43.308C34.6372 43.3312 34.7041 43.3492 34.7737 43.3673C34.8433 43.3853 34.9026 43.3982 34.9695 43.4085H34.9927C35.1336 43.4283 35.2757 43.4377 35.4179 43.4369Z" fill="#3F2355"/>
<path d="M35.413 36.1309C36.4249 36.1293 37.4098 36.4578 38.2181 37.0666C39.0264 37.6754 39.6142 38.5312 39.8922 39.5042C40.1702 40.4771 40.1232 41.5143 39.7585 42.4582C39.3938 43.4021 38.7312 44.2013 37.8712 44.7346L37.0802 44.714C37.9868 44.3302 38.7328 43.6448 39.1918 42.7738C39.6507 41.9029 39.7944 40.9 39.5985 39.9352C39.4026 38.9704 38.8791 38.1031 38.1167 37.4802C37.3544 36.8572 36.4001 36.5171 35.4156 36.5174C34.5717 36.5176 33.7469 36.7683 33.0455 37.2375C32.3442 37.7068 31.7978 38.3736 31.4756 39.1535C31.1533 39.9334 31.0697 40.7914 31.2354 41.6188C31.401 42.4463 31.8084 43.206 32.4059 43.8018C32.7569 44.1525 33.1668 44.4386 33.617 44.647H32.8105C31.9878 44.0882 31.3657 43.2806 31.0355 42.3425C30.7053 41.4043 30.6843 40.3851 30.9756 39.4342C31.2669 38.4833 31.8552 37.6507 32.6543 37.0585C33.4533 36.4664 34.421 36.1458 35.4156 36.1437L35.413 36.1309Z" fill="#3F2355"/>
<path d="M40.4565 40.7798C40.4588 41.4418 40.3297 42.0976 40.0767 42.7093C39.8237 43.321 39.4518 43.8765 38.9826 44.3434C38.8376 44.4887 38.6836 44.6247 38.5214 44.7506L37.8721 44.7325C38.72 44.2031 39.3741 43.4139 39.7371 42.4825C40.1001 41.5511 40.1524 40.5274 39.8864 39.5638C39.6203 38.6002 39.05 37.7484 38.2606 37.1353C37.4711 36.5221 36.5046 36.1804 35.5052 36.1611C34.5058 36.1417 33.5268 36.4458 32.7143 37.028C31.9017 37.6102 31.2989 38.4393 30.9958 39.3919C30.6927 40.3444 30.7054 41.3694 31.0321 42.3142C31.3588 43.2589 31.9819 44.0728 32.8087 44.6346H32.162C32.0563 44.547 31.9558 44.4542 31.8579 44.3563C31.1527 43.6521 30.6722 42.7545 30.477 41.7772C30.2818 40.7999 30.3808 39.7866 30.7613 38.8655C31.1419 37.9444 31.787 37.1568 32.6152 36.6022C33.4433 36.0477 34.4172 35.7511 35.4138 35.75C36.0756 35.7497 36.7309 35.8797 37.3424 36.1327C37.9539 36.3857 38.5095 36.7567 38.9776 37.2245C39.4456 37.6924 39.8169 38.2478 40.0702 38.8592C40.3236 39.4705 40.4539 40.1258 40.4539 40.7875L40.4565 40.7798Z" fill="#3F2355"/>
<path d="M26.8139 24.0547H26.6855V24.4399H26.8139V24.0547Z" fill="#3F2355"/>
<path d="M26.8136 23.9316H26.6855V24.0597H26.8136V23.9316Z" fill="#3F2355"/>
<path d="M26.8136 23.8008H26.6855V23.9289H26.8136V23.8008Z" fill="#3F2355"/>
<path d="M26.6857 23.8008H26.5576V23.9289H26.6857V23.8008Z" fill="#3F2355"/>
<path d="M26.6867 24.0607V24.4479H26.5576V23.9316H26.6867V24.0607Z" fill="#3F2355"/>
<path d="M26.6867 24.8306V24.9597H26.5576V24.4434H26.6867V24.8306Z" fill="#3F2355"/>
<path d="M26.6825 24.9609V25.0886H26.4272V24.9609H26.5549H26.6825Z" fill="#3F2355"/>
<path d="M26.5553 23.8008H26.4272V23.9289H26.5553V23.8008Z" fill="#3F2355"/>
<path d="M26.5563 23.9316V24.4479H26.4272V24.0607V23.9316H26.5563Z" fill="#3F2355"/>
<path d="M26.5563 24.4434V24.9597H26.4272V24.8306V24.4434H26.5563Z" fill="#3F2355"/>
<path d="M26.4268 24.834H14.4424V24.9628H26.4268V24.834Z" fill="#3F2355"/>
<path d="M26.4284 23.9316H26.3003V24.0597H26.4284V23.9316Z" fill="#3F2355"/>
<path d="M26.4287 24.0547H26.3003V24.4399H26.4287V24.0547Z" fill="#3F2355"/>
<path d="M26.4284 23.8008H26.3003V23.9289H26.4284V23.8008Z" fill="#3F2355"/>
<path d="M26.4268 24.8299L14.4424 24.835V24.4485H14.5712L26.298 24.4434H26.4268V24.8299Z" fill="#3F2355"/>
<path d="M26.3 24.0566H14.5732V24.4432H26.3V24.0566Z" fill="#3F2355"/>
<path d="M26.3 23.9316H14.5732V24.0605H26.3V23.9316Z" fill="#3F2355"/>
<path d="M26.3 23.8008V23.9296L14.5732 23.9348V23.8085L26.3 23.8008Z" fill="#3F2355"/>
<path d="M26.3083 23.5645V23.8093H14.5815V23.5696C14.5815 23.1145 14.7623 22.678 15.0842 22.3562C15.406 22.0343 15.8425 21.8535 16.2976 21.8535H24.5948C24.8199 21.8532 25.0429 21.8973 25.2509 21.9833C25.4589 22.0693 25.648 22.1955 25.8072 22.3546C25.9663 22.5138 26.0926 22.7029 26.1785 22.9109C26.2645 23.119 26.3086 23.3419 26.3083 23.567V23.5645Z" fill="#DEDFE0"/>
<path d="M26.16 21.9847C26.3682 22.191 26.5333 22.4367 26.6456 22.7074C26.758 22.9782 26.8154 23.2685 26.8145 23.5616V23.8064H26.5568V23.5694C26.5568 23.0463 26.3492 22.5447 25.9796 22.1746C25.61 21.8045 25.1086 21.5963 24.5856 21.5956H22.9932V21.3379H24.5856C24.8782 21.3365 25.1681 21.3934 25.4385 21.5053C25.7088 21.6172 25.9541 21.782 26.16 21.9898V21.9847Z" fill="#3F2355"/>
<path d="M26.5641 23.5631V23.8079H26.3064V23.5708C26.3068 23.3457 26.2627 23.1227 26.1767 22.9147C26.0907 22.7066 25.9645 22.5176 25.8053 22.3584C25.6461 22.1992 25.4571 22.073 25.2491 21.987C25.041 21.901 24.818 21.8569 24.5929 21.8573H23.0005V21.5996H24.5929C25.1142 21.6003 25.614 21.8071 25.9833 22.175C26.3526 22.5428 26.5614 23.0418 26.5641 23.5631Z" fill="#3F2355"/>
<path d="M22.9902 21.5879H22.7349V21.8432H22.9902V21.5879Z" fill="#3F2355"/>
<path d="M22.9902 21.334H22.7349V21.5893H22.9902V21.334Z" fill="#3F2355"/>
<path d="M22.7353 21.5918H18.311V21.8495H22.7353V21.5918Z" fill="#3F2355"/>
<path d="M22.4753 20.7298V21.3353H18.5767V20.7324C18.5767 20.5847 18.6353 20.4432 18.7397 20.3388C18.8441 20.2344 18.9856 20.1758 19.1332 20.1758H21.9264C22.0722 20.1778 22.2115 20.237 22.3141 20.3406C22.4167 20.4442 22.4746 20.5839 22.4753 20.7298Z" fill="#DEDFE0"/>
<path d="M21.8207 31.395C25.0365 31.0291 31.0171 29.9237 34.9466 26.6589C35.0987 26.5353 35.2455 26.4013 35.3847 26.2776C37.9202 23.974 40.7572 22.4125 43.4834 21.7734L37.0905 33.5801C36.518 33.4345 35.929 33.3635 35.3383 33.3688C33.4772 33.3733 31.6855 34.0761 30.3175 35.3381C28.9496 36.6001 28.105 38.3295 27.9508 40.1843H18.4967C18.3418 38.3308 17.4961 36.6033 16.1273 35.3441C14.7585 34.0849 12.9665 33.3861 11.1066 33.3861C9.24674 33.3861 7.45475 34.0849 6.08594 35.3441C4.71713 36.6033 3.87144 38.3308 3.71653 40.1843H2.08545C2.1241 39.1716 2.32766 36.8912 3.31971 34.871C3.65789 34.193 4.12856 33.5896 4.70392 33.0966C5.27927 32.6035 5.94762 32.2308 6.66947 32.0005C7.23957 31.82 7.83397 31.7279 8.43196 31.7274C13.1938 31.7377 19.396 31.6759 21.8207 31.395Z" fill="white"/>
<path d="M22.4761 20.7218C22.4761 20.5756 22.4185 20.4351 22.3158 20.331C22.2131 20.2268 22.0735 20.1673 21.9273 20.1653H19.1238C18.9775 20.168 18.8382 20.2282 18.7359 20.3328C18.6337 20.4374 18.5768 20.5781 18.5775 20.7244V21.3299H22.489L22.4761 20.7218ZM22.7338 21.3274V21.585H18.3198V20.7244C18.3198 20.5085 18.4056 20.3014 18.5583 20.1486C18.711 19.9959 18.9181 19.9102 19.1341 19.9102H21.9273C22.0343 19.9098 22.1403 19.9306 22.2393 19.9714C22.3382 20.0122 22.4281 20.0722 22.5038 20.1479C22.5795 20.2236 22.6394 20.3135 22.6802 20.4124C22.721 20.5114 22.7419 20.6174 22.7415 20.7244L22.7338 21.3274Z" fill="#3F2355"/>
<path d="M22.6795 19.9655C22.7805 20.067 22.8601 20.1877 22.9137 20.3204C22.9672 20.4532 22.9936 20.5953 22.9913 20.7385V21.344H22.7337V20.7256C22.7343 20.5108 22.6498 20.3044 22.4987 20.1518C22.3475 19.9992 22.142 19.9127 21.9271 19.9113H19.1236C18.909 19.9141 18.7042 20.0014 18.5536 20.1544C18.4031 20.3073 18.319 20.5136 18.3197 20.7282V21.3337H18.062V20.7282C18.062 20.4439 18.1749 20.1712 18.376 19.9702C18.577 19.7692 18.8496 19.6562 19.1339 19.6562H21.9271C22.2088 19.6565 22.4791 19.7675 22.6795 19.9655Z" fill="#3F2355"/>
<path d="M18.308 21.5918H18.0527V21.8471H18.308V21.5918Z" fill="#3F2355"/>
<path d="M18.308 21.5893H18.0527V21.334H18.3055L18.308 21.5893Z" fill="#3F2355"/>
<path d="M15.372 40.7918C15.3721 41.6901 15.0887 42.5655 14.5622 43.2932C14.0357 44.021 13.2929 44.5641 12.4397 44.845C11.628 44.8785 10.8576 44.912 10.1361 44.9481C9.35473 44.7659 8.64053 44.3671 8.07549 43.7975C7.51045 43.2279 7.11746 42.5105 6.94162 41.7276C6.76579 40.9448 6.81422 40.1282 7.08138 39.3717C7.34853 38.6151 7.82358 37.9492 8.452 37.4504C9.08042 36.9515 9.83676 36.64 10.6342 36.5514C11.4316 36.4629 12.2379 36.601 12.9604 36.9499C13.6829 37.2988 14.2925 37.8443 14.719 38.5239C15.1456 39.2034 15.3719 39.9895 15.372 40.7918ZM14.0141 40.7918C14.0141 40.4099 13.9388 40.0317 13.7926 39.6789C13.6464 39.3261 13.4321 39.0056 13.1619 38.7357C12.8917 38.4657 12.571 38.2517 12.2181 38.1058C11.8651 37.9599 11.4869 37.8849 11.105 37.8853C11.0766 37.8853 11.0483 37.8853 11.0199 37.8853C10.9545 37.8854 10.889 37.8897 10.8241 37.8981C10.7078 37.9075 10.5924 37.9256 10.4788 37.9523C10.4397 37.9584 10.4009 37.967 10.3629 37.978H10.3268C10.2717 37.992 10.2175 38.0092 10.1645 38.0296L10.0408 38.0759C10.0056 38.0874 9.97114 38.1012 9.93771 38.1172L9.90163 38.1326L10.0047 38.3697C9.67511 38.5196 9.37975 38.7356 9.13688 39.0041C8.89402 39.2727 8.70879 39.5882 8.59265 39.9312L8.35044 39.8487C8.32467 39.9235 8.30406 39.9956 8.28344 40.0729C8.26283 40.1502 8.2551 40.2018 8.24221 40.2688C8.24221 40.2919 8.24221 40.3151 8.24221 40.3332C8.229 40.3994 8.22124 40.4666 8.21902 40.5342C8.2092 40.6197 8.2049 40.7058 8.20614 40.7918C8.20681 41.5616 8.51203 42.2999 9.05515 42.8454C9.59827 43.391 10.3352 43.6995 11.105 43.7035C11.8763 43.7029 12.6159 43.3961 13.1613 42.8507C13.7067 42.3053 14.0134 41.5657 14.0141 40.7944V40.7918Z" fill="#DEDFE0"/>
<path d="M14.3154 23.5656C14.3154 23.0421 14.5234 22.5401 14.8935 22.1699C15.2637 21.7997 15.7657 21.5918 16.2892 21.5918H18.062V21.8495H16.2969C15.8418 21.8495 15.4053 22.0303 15.0835 22.3521C14.7616 22.6739 14.5808 23.1104 14.5808 23.5656V23.8052H14.3232L14.3154 23.5656Z" fill="#3F2355"/>
<path d="M14.5708 24.0625H14.4424V24.4477H14.5708V24.0625Z" fill="#3F2355"/>
<path d="M14.5705 23.9336H14.4424V24.0617H14.5705V23.9336Z" fill="#3F2355"/>
<path d="M14.5705 23.8047H14.4424V23.9302H14.5705V23.8047Z" fill="#3F2355"/>
<path d="M14.4435 23.8047H14.3154V23.9302H14.4435V23.8047Z" fill="#3F2355"/>
<path d="M14.4435 23.8047H14.3154V23.8072H14.4435V23.8047Z" fill="#3F2355"/>
<path d="M14.3154 23.9336H14.4445V24.0627V24.4499H14.3154V23.9336Z" fill="#3F2355"/>
<path d="M14.4445 24.8364V24.9655H14.3154V24.4518V24.4492H14.4445V24.8364Z" fill="#3F2355"/>
<path d="M14.3156 24.4492H14.1875V24.4518H14.3156V24.4492Z" fill="#3F2355"/>
<path d="M14.1875 24.0653V23.9336H14.3166V24.4499H14.1875V24.0653Z" fill="#3F2355"/>
<path d="M14.0576 23.568C14.0576 22.976 14.2926 22.4081 14.711 21.9892C15.1294 21.5703 15.697 21.3347 16.2891 21.334H18.0619V21.5917H16.2968C15.7733 21.5917 15.2713 21.7996 14.9011 22.1698C14.531 22.5399 14.323 23.042 14.323 23.5654V23.8051H14.0653L14.0576 23.568Z" fill="#3F2355"/>
<path d="M14.3156 23.8047H14.1875V23.9302H14.3156V23.8047Z" fill="#3F2355"/>
<path d="M14.1875 24.8357V24.4492H14.3163V24.962H14.1875V24.8357Z" fill="#3F2355"/>
<path d="M14.4428 25.0964H14.1875V24.9688H14.3151H14.4428V25.0964Z" fill="#3F2355"/>
<path d="M14.1875 25.0949H14.4452V24.9661L26.4296 24.9609V25.0898L14.1875 25.0975V25.0949Z" fill="#3F2355"/>
<path d="M14.1857 24.4492H14.0576V24.4518H14.1857V24.4492Z" fill="#3F2355"/>
<path d="M14.1857 23.9336H14.0576V24.0642H14.1857V23.9336Z" fill="#3F2355"/>
<path d="M14.0576 23.9323V23.8047H14.3129V23.8072H14.1853V23.9323H14.0576Z" fill="#3F2355"/>
<path d="M14.186 24.0664H14.0576V24.449H14.186V24.0664Z" fill="#3F2355"/>
<path d="M11.105 45.0631C11.5579 45.0639 12.0078 44.9908 12.4372 44.8466L13.4679 44.8105C12.7526 45.2342 11.9362 45.4567 11.105 45.4547V45.0631Z" fill="#3F2355"/>
<path d="M12.4382 44.8438C12.0089 44.988 11.5589 45.0611 11.1061 45.0602C10.7798 45.0606 10.4546 45.0225 10.1372 44.9468C10.8458 44.9107 11.6188 44.8772 12.4382 44.8438Z" fill="#DEDFE0"/>
<path d="M26.6803 46.8761C13.8893 46.8761 3.52051 46.3762 3.52051 45.7475C3.52051 45.4898 5.34484 45.2322 8.41632 45.0441C9.21911 45.5589 10.1528 45.8325 11.1064 45.8325C12.2196 45.8341 13.3014 45.4642 14.1805 44.7812C17.7879 44.6679 22.0731 44.5983 26.6751 44.5957C28.5665 44.5957 30.4037 44.5957 32.161 44.6266C33.0686 45.4001 34.223 45.8233 35.4154 45.8197C36.5372 45.8218 37.6267 45.4449 38.5075 44.7503C45.2844 44.9461 49.822 45.3069 49.822 45.7243C49.8375 46.3556 39.4687 46.871 26.6803 46.8761Z" fill="#DEDFE0"/>
<path d="M11.1029 45.453C10.4159 45.4552 9.73714 45.3037 9.11621 45.0098L10.1314 44.9531C10.4488 45.0288 10.774 45.0669 11.1003 45.0665L11.1029 45.453Z" fill="#3F2355"/>
<path d="M10.0741 38.3516L10.0093 38.3801L10.0741 38.3516Z" fill="#3F2355"/>
<path d="M8.59307 39.9424C8.70921 39.5994 8.89443 39.2839 9.1373 39.0153C9.38017 38.7467 9.67552 38.5308 10.0051 38.3809L10.1056 38.6179L10.1468 38.5999C10.1726 38.5999 10.1958 38.5767 10.2293 38.5664L10.3478 38.5226C10.3865 38.5071 10.4251 38.4968 10.4586 38.4865H10.4947C10.5249 38.4763 10.556 38.4685 10.5875 38.4633C10.6842 38.4411 10.7823 38.4256 10.8812 38.4169C10.9319 38.4143 10.9826 38.4143 11.0332 38.4169H11.1054C11.7403 38.4169 12.3491 38.6691 12.7981 39.1181C13.247 39.567 13.4992 40.1759 13.4992 40.8107C13.4992 41.4456 13.247 42.0545 12.7981 42.5034C12.3491 42.9523 11.7403 43.2045 11.1054 43.2045C10.4712 43.2038 9.86309 42.9518 9.41439 42.5036C8.96568 42.0553 8.71296 41.4475 8.7116 40.8133C8.70805 40.7429 8.70805 40.6724 8.7116 40.602C8.71348 40.5518 8.71951 40.5018 8.72963 40.4526V40.3933C8.72963 40.3392 8.75025 40.2825 8.76313 40.2284C8.77602 40.1743 8.79663 40.1073 8.81724 40.0454L8.55957 39.963L8.59307 39.9424Z" fill="white"/>
<path d="M11.1041 45.8306C10.1478 45.8321 9.21125 45.5584 8.40625 45.0421L9.12001 45.0009C9.80485 45.323 10.5578 45.4734 11.3138 45.4393C12.0699 45.4052 12.8062 45.1875 13.4592 44.8051L14.1807 44.7793C13.301 45.4628 12.2181 45.8328 11.1041 45.8306Z" fill="#3F2355"/>
<path d="M9.45272 25.6855V26.2009H7.10014C7.09849 26.0213 7.1419 25.8441 7.2264 25.6855H9.45272Z" fill="#3F2355"/>
<path d="M9.40565 29.0371V29.5525L7.10205 29.555V29.0397L9.40565 29.0371Z" fill="#3F2355"/>
<path d="M9.40544 27.3945V27.9099L7.09668 27.9125V27.3971L9.40544 27.3945Z" fill="#3F2355"/>
<path d="M8.52881 40.1464C8.5445 40.0789 8.56411 40.0124 8.58752 39.9473C8.56965 40.0136 8.55178 40.0775 8.52881 40.1464Z" fill="#3F2355"/>
<path d="M13.7565 40.7943C13.7565 41.4975 13.4772 42.1719 12.98 42.6692C12.4827 43.1664 11.8083 43.4458 11.1051 43.4458C10.4019 43.4458 9.72746 43.1664 9.23022 42.6692C8.73297 42.1719 8.45362 41.4975 8.45362 40.7943C8.4497 40.7205 8.4497 40.6465 8.45362 40.5727C8.45653 40.5114 8.46341 40.4502 8.47423 40.3898C8.47301 40.3709 8.47301 40.352 8.47423 40.3331C8.47423 40.2712 8.49742 40.2068 8.51289 40.1476C8.53092 40.078 8.54896 40.0136 8.57215 39.9466L8.82982 40.029C8.80921 40.0909 8.79117 40.1501 8.77571 40.212C8.76025 40.2738 8.74995 40.3228 8.74221 40.3769V40.4362C8.7321 40.4854 8.72606 40.5354 8.72418 40.5856C8.72063 40.656 8.72063 40.7265 8.72418 40.7969C8.72554 41.4311 8.97826 42.0389 9.42696 42.4871C9.87567 42.9354 10.4838 43.1874 11.118 43.1881C11.7528 43.1881 12.3617 42.9359 12.8106 42.487C13.2596 42.0381 13.5118 41.4292 13.5118 40.7943C13.5118 40.1595 13.2596 39.5506 12.8106 39.1017C12.3617 38.6527 11.7528 38.4005 11.118 38.4005H11.0458C10.9952 38.3979 10.9444 38.3979 10.8938 38.4005C10.7949 38.4092 10.6968 38.4247 10.6 38.4469C10.5686 38.4521 10.5375 38.4599 10.5073 38.4701H10.4712C10.4377 38.4701 10.3991 38.4907 10.3604 38.5062L10.2419 38.55C10.2084 38.55 10.1852 38.5732 10.1594 38.5835L10.1182 38.6015L10.0177 38.3645L10.0821 38.3361L10.144 38.3103L10.2754 38.2614L10.4094 38.2202C10.4506 38.2202 10.4944 38.197 10.5382 38.1892C10.645 38.1641 10.7535 38.1469 10.8629 38.1377C10.9238 38.1338 10.9849 38.1338 11.0458 38.1377H11.1051C11.4537 38.1377 11.7989 38.2065 12.1209 38.34C12.443 38.4736 12.7355 38.6694 12.9818 38.9161C13.2281 39.1629 13.4233 39.4558 13.5562 39.7781C13.6891 40.1004 13.7572 40.4457 13.7565 40.7943Z" fill="#3F2355"/>
<path d="M13.7556 40.7939C13.7556 40.0907 13.4763 39.4163 12.979 38.919C12.4818 38.4218 11.8074 38.1424 11.1042 38.1424H11.032C10.9711 38.1385 10.91 38.1385 10.8491 38.1424C10.7397 38.1517 10.6312 38.1689 10.5244 38.194C10.4806 38.194 10.4368 38.2146 10.3956 38.2249L10.2616 38.2661L10.1302 38.3151L10.0683 38.3408L10.0039 38.3692L9.90083 38.1321L9.93691 38.1167C9.97034 38.1007 10.0048 38.0869 10.04 38.0754L10.1637 38.0291C10.2167 38.0087 10.2709 37.9915 10.326 37.9775H10.3621C10.4001 37.9665 10.4389 37.9579 10.478 37.9518C10.5916 37.9251 10.707 37.907 10.8233 37.8976C10.8882 37.8892 10.9536 37.8849 11.0191 37.8848C11.0475 37.8848 11.0758 37.8848 11.1042 37.8848C11.8757 37.8848 12.6157 38.1913 13.1612 38.7368C13.7068 39.2824 14.0133 40.0224 14.0133 40.7939C14.0133 41.5655 13.7068 42.3054 13.1612 42.851C12.6157 43.3966 11.8757 43.7031 11.1042 43.7031C10.3335 43.7017 9.59471 43.3951 9.04951 42.8504C8.50431 42.3057 8.19708 41.5672 8.19503 40.7965C8.19379 40.7104 8.19809 40.6243 8.20792 40.5388C8.21013 40.4713 8.21789 40.4041 8.23111 40.3378C8.23111 40.3198 8.23111 40.2966 8.23111 40.2734C8.23111 40.2064 8.25688 40.1394 8.27234 40.0776C8.2878 40.0157 8.31356 39.9281 8.33933 39.8534L8.58154 39.9359C8.55791 40.0016 8.53812 40.0687 8.52228 40.1368C8.50682 40.1961 8.49393 40.2605 8.48363 40.3224C8.4824 40.3412 8.4824 40.3602 8.48363 40.3791C8.47281 40.4395 8.46592 40.5006 8.46301 40.562C8.4591 40.6358 8.4591 40.7098 8.46301 40.7836C8.46301 41.4868 8.74236 42.1612 9.23961 42.6585C9.73685 43.1557 10.4113 43.4351 11.1145 43.4351C11.8177 43.4351 12.4921 43.1557 12.9893 42.6585C13.4866 42.1612 13.7659 41.4868 13.7659 40.7836L13.7556 40.7939Z" fill="#3F2355"/>
<path d="M8.41361 30.7093C7.97337 30.7088 7.53412 30.7511 7.10205 30.8355V30.7067C7.53412 30.6222 7.97337 30.5799 8.41361 30.5804C12.3019 30.5804 19.1921 30.5315 21.6864 30.2429C24.6858 29.9002 30.1897 28.9004 33.8796 26.0273C33.889 26.0731 33.8933 26.1198 33.8925 26.1665C30.1691 29.0215 24.6961 30.0187 21.7019 30.3614C19.1999 30.6603 12.3019 30.7067 8.41361 30.7093Z" fill="#3F2355"/>
<path d="M8.41361 31.0967C7.97287 31.0966 7.53331 31.1424 7.10205 31.2333V30.8365C7.53412 30.752 7.97337 30.7097 8.41361 30.7102C12.3019 30.7102 19.1999 30.6613 21.7019 30.3727C24.6961 30.03 30.1691 29.0328 33.8924 26.1777V26.2963H34.3743C30.6741 29.2698 25.1315 30.3727 21.7483 30.7618C19.1638 31.0555 12.1112 31.0942 8.41361 31.0967Z" fill="#3F2355"/>
<path d="M9.45182 25.6799H7.2384C7.29157 25.5848 7.35842 25.498 7.43681 25.4222C7.5378 25.3199 7.65818 25.2387 7.7909 25.1834C7.92363 25.1281 8.06605 25.0998 8.20983 25.1002L14.1956 25.0898H26.4377H32.8074C33.0461 25.0899 33.2783 25.168 33.4685 25.3122C33.6588 25.4564 33.7967 25.6588 33.8613 25.8886C30.1714 28.7617 24.6726 29.7641 21.6682 30.1093C19.179 30.3954 12.2914 30.4417 8.40824 30.4443C7.96814 30.4442 7.52901 30.4856 7.09668 30.568V29.5502H9.40029V29.0348H7.09668V27.9062H9.41575V27.3909H7.09668V26.1978H9.44925L9.45182 25.6799Z" fill="white"/>
<path d="M7.10205 31.2293C7.53331 31.1384 7.97287 31.0926 8.41361 31.0927C12.1112 31.0927 19.1638 31.0515 21.7457 30.7526C25.1341 30.3635 30.6767 29.2607 34.3717 26.2871H34.985C34.918 26.3464 34.8484 26.4056 34.7763 26.4623C30.9112 29.6833 24.9846 30.7784 21.7843 31.1417C19.3751 31.42 13.1806 31.4818 8.41104 31.4844C7.97784 31.4846 7.54592 31.5313 7.12267 31.6236L7.10205 31.5308V31.2293Z" fill="#3F2355"/>
<path d="M7.08154 25.6896C7.17886 25.4748 7.33618 25.2926 7.53458 25.1651C7.73298 25.0376 7.964 24.9701 8.19985 24.9707H14.1856V25.0995H8.19985C8.05606 25.0992 7.91365 25.1275 7.78092 25.1828C7.6482 25.2381 7.52782 25.3193 7.42683 25.4216C7.34843 25.4974 7.28158 25.5842 7.22842 25.6793L7.08154 25.6896Z" fill="#3F2355"/>
<path d="M8.41361 30.5776C7.97337 30.5771 7.53412 30.6194 7.10205 30.7039V30.5725C7.53438 30.4901 7.97351 30.4487 8.41361 30.4488C12.2968 30.4488 19.1844 30.3998 21.6735 30.1138C24.6729 29.7685 30.1768 28.7662 33.8512 25.8828C33.8649 25.9291 33.8743 25.9765 33.8796 26.0245C30.1768 28.8976 24.6857 29.8896 21.6864 30.2401C19.1921 30.5287 12.3019 30.5751 8.41361 30.5776Z" fill="#3F2355"/>
<path d="M6.53564 25.6771C6.64654 25.3224 6.86782 25.0123 7.16724 24.7922C7.46666 24.572 7.82857 24.4532 8.20022 24.4531H14.0572H14.186V24.8371H8.20022C7.93008 24.8373 7.66613 24.918 7.44213 25.069C7.21813 25.2201 7.04427 25.4345 6.94277 25.6848H6.59491L6.53564 25.6771Z" fill="#3F2355"/>
<path d="M7.33188 25.3288C7.22479 25.4324 7.13747 25.5546 7.0742 25.6895H6.93506C7.03656 25.4392 7.21042 25.2248 7.43442 25.0738C7.65841 24.9228 7.92236 24.842 8.19251 24.8418H14.1963V24.9681H8.21054C8.04739 24.9663 7.88555 24.9973 7.73462 25.0593C7.58369 25.1213 7.44673 25.2129 7.33188 25.3288Z" fill="#3F2355"/>
<path d="M7.10296 30.832V31.2288L6.97412 31.2572V30.8604L7.10296 30.832Z" fill="#3F2355"/>
<path d="M7.1035 30.7051V30.8345L6.97412 30.8629V30.731L7.1035 30.7051Z" fill="#3F2355"/>
<path d="M7.10296 29.5586V30.5764L6.97412 30.6022V29.5586H7.10296Z" fill="#3F2355"/>
<path d="M7.1032 29.0391H6.97412V29.5554H7.1032V29.0391Z" fill="#3F2355"/>
<path d="M7.09662 27.9141L7.10177 29.0427H6.97293L6.96777 27.9141H7.09662Z" fill="#3F2355"/>
<path d="M7.10027 27.3965H6.97119V27.9128H7.10027V27.3965Z" fill="#3F2355"/>
<path d="M7.10003 26.2012H6.97119V27.3942H7.10003V26.2012Z" fill="#3F2355"/>
<path d="M6.98147 26.1979C6.98029 26.0198 7.01818 25.8436 7.09248 25.6816H7.23963C7.15496 25.8405 7.11147 26.018 7.11313 26.1979H6.98147Z" fill="#3F2355"/>
<path d="M6.98145 30.734V30.602L7.11083 30.5762V30.7081L6.98145 30.734Z" fill="#3F2355"/>
<path d="M6.98261 31.2559V31.3953H6.46631C6.62894 31.3411 6.79932 31.2946 6.98261 31.2559Z" fill="#3F2355"/>
<path d="M6.98261 30.8633V31.2608C6.80706 31.2996 6.63669 31.346 6.46631 31.4002V31.2815H6.85353V30.902L6.98261 30.8633Z" fill="#3F2355"/>
<path d="M6.98235 29.5586V30.6022L6.85352 30.6305V29.5586H6.98235Z" fill="#3F2355"/>
<path d="M6.9738 29.0391H6.84473V29.5554H6.9738V29.0391Z" fill="#3F2355"/>
<path d="M6.96771 27.9141L6.97287 29.0427H6.84402L6.83887 27.9141H6.96771Z" fill="#3F2355"/>
<path d="M6.84473 30.7659V30.6339L6.97411 30.6055V30.7374L6.84473 30.7659Z" fill="#3F2355"/>
<path d="M6.97234 27.3965H6.84326V27.9128H6.97234V27.3965Z" fill="#3F2355"/>
<path d="M6.9721 26.2012H6.84326V27.3942H6.9721V26.2012Z" fill="#3F2355"/>
<path d="M6.84333 26.1979C6.84146 26.0208 6.87572 25.8451 6.94401 25.6816H7.08341C7.00911 25.8436 6.97122 26.0198 6.97241 26.1979H6.84333Z" fill="#3F2355"/>
<path d="M6.98207 30.8604L6.85352 30.8886V30.7627L6.98207 30.7344V30.8604Z" fill="#3F2355"/>
<path d="M6.84381 30.8906V31.2784H6.46631V31.0036C6.58701 30.9548 6.72311 30.9214 6.84381 30.8906Z" fill="#3F2355"/>
<path d="M6.84498 29.0391H6.59717V29.5554H6.84498V29.0391Z" fill="#3F2355"/>
<path d="M6.84136 27.3965H6.66064V27.9128H6.84136V27.3965Z" fill="#3F2355"/>
<path d="M6.59473 26.2077V25.6914H6.94322C6.87493 25.8549 6.84067 26.0306 6.84254 26.2077H6.59473Z" fill="#3F2355"/>
<path d="M11.1042 36.1406C12.1255 36.1407 13.1184 36.4767 13.9299 37.0969C14.7413 37.7171 15.3262 38.587 15.5943 39.5725C15.8625 40.558 15.799 41.6043 15.4136 42.5501C15.0282 43.4959 14.3424 44.2887 13.4619 44.8062L12.4312 44.8423C13.4096 44.5197 14.2382 43.8538 14.7637 42.9678C15.2893 42.0817 15.4763 41.0353 15.2903 40.0221C15.1042 39.0088 14.5577 38.0971 13.7516 37.4556C12.9455 36.814 11.9345 36.4859 10.9053 36.532C9.87611 36.578 8.89839 36.9951 8.15284 37.7061C7.40729 38.417 6.94432 39.3739 6.8495 40.3997C6.75468 41.4256 7.03442 42.451 7.63701 43.2866C8.23961 44.1222 9.12431 44.7114 10.1276 44.9453L9.11238 45.002C8.15608 44.5503 7.38217 43.7864 6.91814 42.836C6.4541 41.8856 6.32764 40.8055 6.55958 39.7737C6.79151 38.7418 7.36802 37.8197 8.19411 37.1593C9.0202 36.499 10.0466 36.1396 11.1042 36.1406Z" fill="#3F2355"/>
<path d="M6.59515 25.6894V26.2047H6.85282V27.3978H6.67245V27.9131H6.85282V29.0417H6.59515V29.5571H6.85282V30.629C6.72398 30.6582 6.59515 30.6917 6.46631 30.7295V26.197C6.46669 26.0222 6.49362 25.8484 6.54619 25.6816L6.59515 25.6894Z" fill="#3F2355"/>
<path d="M6.46631 30.9935V30.8625C6.59471 30.824 6.72311 30.7906 6.85151 30.7598V30.8907C6.72311 30.9216 6.587 30.9549 6.46631 30.9935Z" fill="#3F2355"/>
<path d="M6.84467 30.7677C6.71627 30.7985 6.58787 30.8319 6.45947 30.8704V30.7369C6.58787 30.6975 6.71627 30.6641 6.84467 30.6367V30.7677Z" fill="#3F2355"/>
<path d="M8.19981 24.4529C7.73781 24.4536 7.29488 24.6373 6.96796 24.9637C6.64103 25.2901 6.45672 25.7328 6.45536 26.1948V30.7273C6.39094 30.7428 6.32394 30.7634 6.25953 30.784C6.19511 30.8046 6.13327 30.8252 6.06885 30.851V26.1948C6.07021 25.6303 6.29524 25.0893 6.69465 24.6904C7.09406 24.2915 7.6353 24.0671 8.19981 24.0664H14.0567V24.4503L8.19981 24.4529Z" fill="#3F2355"/>
<path d="M6.46479 30.9941V31.2792H6.07959V31.1328C6.1669 31.0994 6.25678 31.0686 6.33639 31.0404L6.46479 30.9941Z" fill="#3F2355"/>
<path d="M15.7576 40.7916C15.757 39.9585 15.5327 39.1408 15.1082 38.4239C14.6837 37.7071 14.0745 37.1173 13.3442 36.7162C12.614 36.3152 11.7895 36.1175 10.9568 36.1439C10.124 36.1702 9.31368 36.4197 8.61027 36.8661C7.90686 37.3126 7.3362 37.9397 6.95789 38.682C6.57957 39.4243 6.40746 40.2545 6.45953 41.086C6.51161 41.9175 6.78595 42.7198 7.25392 43.4091C7.72189 44.0984 8.36632 44.6494 9.11994 45.0046L8.40618 45.0458C7.49032 44.4599 6.78872 43.5933 6.40627 42.5756C6.02382 41.5579 5.98108 40.4437 6.28443 39.3996C6.58778 38.3556 7.22093 37.4378 8.08921 36.7834C8.95749 36.1291 10.0142 35.7734 11.1015 35.7695C12.1517 35.7701 13.1756 36.099 14.0296 36.7104C14.8836 37.3217 15.5251 38.1848 15.8642 39.1788C16.2033 40.1729 16.2231 41.2481 15.9207 42.2539C15.6184 43.2597 15.0091 44.1458 14.1781 44.7881L13.4566 44.8139C14.1591 44.4041 14.7416 43.8167 15.1454 43.1107C15.5493 42.4047 15.7604 41.6049 15.7576 40.7916Z" fill="#3F2355"/>
<path d="M6.30129 30.9095L6.45793 30.8633V30.9942L6.33981 31.0302C6.24993 31.0584 6.16005 31.0893 6.08301 31.1226V30.9891L6.30129 30.9095Z" fill="#3F2355"/>
<path d="M6.46479 30.8581L6.30814 30.9044L6.07959 30.984V30.8479C6.14379 30.8222 6.20542 30.8016 6.26962 30.7811C6.33382 30.7606 6.40059 30.74 6.46479 30.7246V30.8581Z" fill="#3F2355"/>
<path d="M5.94922 31.3993V31.1747C5.99133 31.1553 6.03441 31.138 6.0783 31.123V31.2805H6.46553V31.4096L5.94922 31.3993Z" fill="#3F2355"/>
<path d="M5.9522 26.1947C5.95288 25.5958 6.19127 25.0217 6.61499 24.5985C7.03871 24.1752 7.61311 23.9375 8.212 23.9375H14.0689V24.0638H8.2017C7.63719 24.0644 7.09595 24.2888 6.69654 24.6877C6.29713 25.0867 6.07209 25.6276 6.07073 26.1921V30.8483C6.02686 30.8611 5.98383 30.8766 5.94189 30.8947L5.9522 26.1947Z" fill="#3F2355"/>
<path d="M6.07002 31.1249C6.02662 31.1397 5.98402 31.1568 5.94238 31.176V31.0381C5.98323 31.0228 6.02662 31.005 6.07002 30.9922V31.1249Z" fill="#3F2355"/>
<path d="M6.07002 30.9888C6.02662 30.9888 5.98323 31.0194 5.94238 31.0348V30.8995C5.98393 30.8815 6.02656 30.8661 6.07002 30.8535V30.9888Z" fill="#3F2355"/>
<path d="M6.46743 31.3975H6.98279V31.2583L7.11162 31.23V31.5366H5.82324V31.2351C5.86508 31.2153 5.90811 31.1981 5.95208 31.1836V31.4078L6.46743 31.3975Z" fill="#3F2355"/>
<path d="M5.95088 31.0371V31.175C5.90732 31.1893 5.86469 31.2064 5.82324 31.226V31.0907C5.85643 31.0703 5.89983 31.055 5.95088 31.0371Z" fill="#3F2355"/>
<path d="M6.51338 24.5108C6.73463 24.2887 6.9977 24.1126 7.28739 23.9928C7.57707 23.8729 7.88764 23.8117 8.20114 23.8125H14.0581V23.9413H8.20114C7.60225 23.9413 7.02785 24.1791 6.60413 24.6023C6.18041 25.0256 5.94202 25.5997 5.94134 26.1986V30.9011C5.89737 30.9156 5.85434 30.9328 5.8125 30.9527V26.1986C5.81213 25.8849 5.87387 25.5743 5.99416 25.2846C6.11446 24.9949 6.29092 24.7319 6.51338 24.5108Z" fill="#3F2355"/>
<path d="M5.95088 31.0337C5.90748 31.0516 5.86409 31.0669 5.82324 31.0873V30.9495C5.86469 30.9298 5.90732 30.9128 5.95088 30.8984V31.0337Z" fill="#3F2355"/>
<path d="M7.12264 31.6189C6.93969 31.6601 6.75674 31.709 6.57637 31.7657C5.82402 32.0081 5.12777 32.3986 4.5286 32.9142C3.92942 33.4297 3.43943 34.0599 3.08746 34.7676C2.02326 36.9269 1.84805 39.3697 1.8197 40.3179V40.4519H3.9584V40.3334C4.07288 38.5171 4.87509 36.8127 6.20179 35.567C7.52849 34.3213 9.27998 33.6279 11.0998 33.6279C12.9197 33.6279 14.6712 34.3213 15.9979 35.567C17.3246 36.8127 18.1268 38.5171 18.2413 40.3334V40.4545H28.1772V40.3334C28.2973 38.5199 29.1013 36.8197 30.4266 35.5761C31.752 34.3325 33.4999 33.6384 35.3174 33.6339C35.8642 33.6286 36.4096 33.6917 36.9407 33.822L36.8789 33.9379C36.8467 33.9975 36.8266 34.0628 36.8197 34.1301C36.8128 34.1974 36.8192 34.2655 36.8386 34.3303C36.858 34.3951 36.8899 34.4555 36.9327 34.508C36.9754 34.5605 37.028 34.6041 37.0876 34.6362C37.116 34.652 37.1463 34.6641 37.1778 34.6723L37.0773 34.6439L36.9201 34.6027C35.9759 34.3574 34.9881 34.3317 34.0325 34.5277C33.0769 34.7237 32.1789 35.1361 31.4075 35.7333C30.6362 36.3304 30.012 37.0965 29.5828 37.9726C29.1537 38.8486 28.9312 39.8114 28.9322 40.7869V41.2121H17.4657V40.7869C17.4827 39.9378 17.3302 39.0938 17.0171 38.3043C16.7039 37.5148 16.2364 36.7958 15.6419 36.1892C15.0474 35.5827 14.3379 35.1008 13.5549 34.7719C12.7719 34.4429 11.9311 34.2735 11.0818 34.2735C10.2325 34.2735 9.39172 34.4429 8.60871 34.7719C7.8257 35.1008 7.11617 35.5827 6.52169 36.1892C5.9272 36.7958 5.45969 37.5148 5.14653 38.3043C4.83338 39.0938 4.68086 39.9378 4.69792 40.7869V41.2121H1.05441V40.8539C1.05441 40.7122 0.938455 37.4011 2.40462 34.4249C3.12228 32.9815 4.33629 31.8453 5.82396 31.2246V31.5364H7.11233L7.12264 31.6189Z" fill="#3F2355"/>
<path d="M6.61521 31.8907C7.19813 31.7036 7.80673 31.6089 8.41894 31.6099C13.1911 31.6099 19.3907 31.5455 21.818 31.2672C25.0209 30.9013 30.9732 29.801 34.8769 26.5569C34.9877 26.4667 35.096 26.3739 35.199 26.2838L35.3124 26.1807C37.8892 23.8307 40.7957 22.2383 43.5786 21.625L43.4962 21.7719C40.77 22.4006 37.933 23.9724 35.3974 26.276C35.2583 26.4049 35.1114 26.5337 34.9594 26.6574C31.0299 29.9221 25.0492 31.0378 21.8335 31.3934C19.4087 31.6743 13.2065 31.7361 8.4344 31.7387C7.8364 31.7392 7.242 31.8313 6.6719 32.0119C5.95005 32.2422 5.2817 32.6149 4.70634 33.1079C4.13099 33.6009 3.66031 34.2043 3.32214 34.8823C2.33009 36.9025 2.12653 39.1829 2.08787 40.1956H3.72153C3.87644 38.3422 4.72213 36.6146 6.09095 35.3554C7.45976 34.0963 9.25175 33.3974 11.1116 33.3974C12.9715 33.3974 14.7635 34.0963 16.1323 35.3554C17.5011 36.6146 18.3468 38.3422 18.5017 40.1956H27.9558C28.11 38.3408 28.9546 36.6115 30.3226 35.3495C31.6905 34.0874 33.4822 33.3847 35.3433 33.3801C35.9341 33.3748 36.523 33.4458 37.0955 33.5914L37.0311 33.7073C36.4784 33.5742 35.9118 33.5076 35.3433 33.5089C33.4937 33.5127 31.7144 34.2184 30.3651 35.4836C29.0158 36.7487 28.1971 38.4789 28.0743 40.3244H18.3806C18.2614 38.4762 17.4427 36.7428 16.0909 35.4768C14.7392 34.2107 12.956 33.5071 11.1039 33.5089C9.25495 33.5127 7.47635 34.2182 6.12753 35.4828C4.7787 36.7475 3.96022 38.477 3.83748 40.3218H1.94873C1.97707 39.3118 2.16002 36.9386 3.20103 34.8231C3.54605 34.1315 4.02581 33.5158 4.61212 33.0123C5.19843 32.5087 5.87946 32.1274 6.61521 31.8907Z" fill="#3F2355"/>
<path d="M11.1034 33.5096C12.9533 33.5089 14.7342 34.2121 16.0847 35.4764C17.4351 36.7407 18.2539 38.4715 18.375 40.3174H28.0687C28.1915 38.4718 29.0102 36.7417 30.3595 35.4765C31.7088 34.2114 33.4881 33.5057 35.3377 33.5019C35.9062 33.5005 36.4728 33.5671 37.0255 33.7003L36.9611 33.8189C36.4299 33.6886 35.8846 33.6254 35.3377 33.6307C33.5203 33.6353 31.7723 34.3294 30.447 35.573C29.1216 36.8166 28.3177 38.5168 28.1975 40.3303V40.4514H18.2616V40.3303C18.1471 38.514 17.3449 36.8096 16.0182 35.5639C14.6915 34.3182 12.94 33.6248 11.1202 33.6248C9.30031 33.6248 7.54882 34.3182 6.22212 35.5639C4.89542 36.8096 4.09321 38.514 3.97873 40.3303V40.4488H1.82715V40.3148C1.85549 39.3666 2.03071 36.9238 3.09491 34.7645C3.44688 34.0568 3.93687 33.4266 4.53605 32.911C5.13522 32.3955 5.83147 32.005 6.58382 31.7626C6.76419 31.7059 6.94714 31.657 7.13009 31.6157C7.55334 31.5235 7.98527 31.4768 8.41846 31.4766C13.188 31.4766 19.3825 31.4122 21.7918 31.1339C24.9792 30.7706 30.9057 29.6754 34.7837 26.4545C34.8559 26.3978 34.9254 26.3386 34.9924 26.2793H35.1883C35.0852 26.3695 34.977 26.4622 34.8662 26.5524C30.9598 29.8017 25.0178 30.902 21.8046 31.2808C19.3877 31.559 13.188 31.6209 8.40558 31.6235C7.79337 31.6225 7.18477 31.7172 6.60186 31.9043C5.86588 32.1413 5.1847 32.523 4.59838 33.027C4.01206 33.531 3.53242 34.1472 3.18767 34.8392C2.15697 36.9547 1.96372 39.3279 1.93537 40.338H3.82155C3.9407 38.4877 4.75972 36.7522 6.11223 35.4839C7.46473 34.2156 9.2493 33.5097 11.1034 33.5096Z" fill="#3F2355"/>
<path d="M11.1027 34.4119C12.7959 34.4119 14.4199 35.0842 15.6177 36.281C16.8155 37.4778 17.4891 39.1012 17.4904 40.7945V41.2196H28.9569V40.7893C28.9559 39.8138 29.1785 38.851 29.6076 37.975C30.0367 37.0989 30.6609 36.3329 31.4323 35.7357C32.2036 35.1385 33.1016 34.7261 34.0572 34.5301C35.0128 34.3341 36.0007 34.3598 36.9448 34.6051L37.102 34.6464L37.2025 34.6747C38.5155 35.068 39.6659 35.8755 40.4819 36.9767C41.298 38.0779 41.7357 39.4136 41.7298 40.7842V41.4876L42.3251 41.1114C43.1152 40.6012 43.8455 40.004 44.5024 39.3309H44.6802C43.996 40.05 43.2278 40.6842 42.3921 41.2196L41.601 41.7221V40.7842C41.6065 39.4416 41.1776 38.1332 40.3783 37.0544C39.5791 35.9756 38.4524 35.1842 37.1664 34.7984L37.0891 34.7778L36.9139 34.7288C36.402 34.5976 35.8757 34.531 35.3472 34.5304C33.6884 34.5338 32.0985 35.1949 30.9262 36.3686C29.7539 37.5423 29.0949 39.133 29.0935 40.7919V41.3459H17.3693V40.7919C17.3686 39.9699 17.206 39.156 16.8906 38.3969C16.5753 37.6378 16.1134 36.9482 15.5314 36.3677C14.9494 35.7872 14.2588 35.327 13.4988 35.0135C12.7389 34.7 11.9247 34.5394 11.1027 34.5407C9.44447 34.5441 7.85527 35.2049 6.68346 36.3782C5.51166 37.5514 4.85286 39.1414 4.8515 40.7996V41.3536H0.934854L0.91424 40.8589C0.91424 40.7172 0.798287 37.37 2.27734 34.3681C3.01642 32.8802 4.27368 31.7137 5.81263 31.0879V31.2245C4.32452 31.8458 3.11045 32.983 2.39329 34.4274C0.927123 37.4035 1.03792 40.7146 1.04308 40.8563L1.05338 41.2274H4.71493V40.8022C4.71562 39.108 5.38875 37.4834 6.58646 36.2852C7.78417 35.087 9.40852 34.4133 11.1027 34.4119Z" fill="#3F2355"/>
<path d="M4.85041 40.7967C4.85177 39.1381 5.51092 37.5477 6.68329 36.3744C7.85565 35.201 9.44551 34.5406 11.1042 34.5378C12.763 34.5378 14.3539 35.1966 15.5271 36.3694C16.7004 37.5421 17.3598 39.1328 17.3605 40.7916V41.3456H29.0847V40.7864C29.086 39.1275 29.7451 37.5369 30.9174 36.3631C32.0897 35.1894 33.6795 34.5284 35.3384 34.525C35.8669 34.5255 36.3932 34.5922 36.9051 34.7234L37.0803 34.7723L37.1576 34.7929C38.4436 35.1787 39.5703 35.9701 40.3695 37.0489C41.1688 38.1277 41.5977 39.4361 41.5922 40.7787V41.7166L42.3832 41.2142C43.219 40.6787 43.9872 40.0445 44.6714 39.3254H44.8595C44.1465 40.0878 43.3416 40.7586 42.4631 41.3224L41.4762 41.9511V40.7787C41.4814 39.4633 41.0608 38.1816 40.2773 37.125C39.4938 36.0684 38.3894 35.2937 37.1293 34.9166L37.0545 34.896L36.8845 34.8496C36.3794 34.7197 35.86 34.6539 35.3384 34.6538C33.7133 34.6565 32.1555 35.3037 31.0068 36.4533C29.8581 37.603 29.2123 39.1613 29.2109 40.7864V41.4693H17.2291V40.7864C17.2458 39.9714 17.0997 39.1611 16.7993 38.4032C16.499 37.6453 16.0504 36.955 15.4799 36.3726C14.9093 35.7903 14.2283 35.3277 13.4768 35.0118C12.7252 34.696 11.9181 34.5333 11.1029 34.5333C10.2876 34.5333 9.48058 34.696 8.72899 35.0118C7.97741 35.3277 7.29641 35.7903 6.72589 36.3726C6.15536 36.955 5.70678 37.6453 5.40642 38.4032C5.10606 39.1611 4.95996 39.9714 4.97667 40.7864V41.4693H0.812657L0.78689 40.8483C0.78689 40.7066 0.66836 37.3336 2.16287 34.2982C2.92311 32.765 4.22366 31.5673 5.81411 30.9355V31.0747C4.27252 31.7043 3.01489 32.8767 2.27882 34.3703C0.799774 37.3723 0.910573 40.7194 0.915727 40.8612L0.936341 41.3559H4.85041V40.7967Z" fill="#3F2355"/>
</svg>
