<svg width="73" height="41" viewBox="0 0 73 41" fill="none" xmlns="http://www.w3.org/2000/svg">
<path d="M68.9318 31.3477L67.7268 35.6424L59.4145 35.6264V36.2876H58.3481C59.0027 34.706 59.0027 32.9293 58.3481 31.3477H68.9318Z" fill="white"/>
<path d="M24.7257 13.8834H19.0553C18.8016 13.8835 18.5531 13.9561 18.3392 14.0926C18.1253 14.2291 17.9547 14.4238 17.8477 14.6538L15.2697 20.2096C15.1655 20.4362 15.1109 20.6826 15.1098 20.9321V25.1655C15.1086 25.4131 15.1792 25.6556 15.3131 25.8638C15.4471 26.072 15.6385 26.2369 15.8642 26.3385C16.7604 26.7646 17.4704 27.503 17.861 28.4153C17.9732 28.6586 18.1524 28.8651 18.3776 29.0105C18.6027 29.1559 18.8646 29.2342 19.1326 29.2364H24.6617C25.0318 29.2364 25.3867 29.0896 25.6486 28.8281C25.9105 28.5668 26.058 28.2121 26.0587 27.8421V15.2163C26.0584 14.9004 25.946 14.5949 25.7414 14.3542C25.5368 14.1135 25.2534 13.9532 24.9416 13.902C24.8702 13.8905 24.798 13.8843 24.7257 13.8834ZM11.8814 21.5425C12.2028 21.4934 12.5073 21.3661 12.7681 21.1718C13.0288 20.9775 13.2379 20.7222 13.3769 20.4282L16.7973 13.1956C16.8137 13.1618 16.8333 13.1296 16.8559 13.0996H26.2773C26.545 13.1045 26.7999 13.2152 26.9863 13.4076C27.1726 13.5999 27.2752 13.8582 27.2716 14.126L27.3116 30.9825C27.3123 31.1157 27.3657 31.2432 27.4602 31.3371C27.5546 31.431 27.6823 31.4837 27.8155 31.4837H46.3142C45.7112 33.0295 45.7274 34.7483 46.3596 36.2824H44.672V35.5892L17.2452 35.5306C16.8213 35.5306 16.2321 35.4079 16.0508 35.264C16.3468 33.1313 16.1921 31.1238 15.8935 30.3027C15.5683 29.2364 14.126 25.7707 9.22877 25.4481C6.44823 25.2615 2.84658 25.8746 1.375 29.8042V28.0127H1.85753C2.06377 28.0129 2.26212 27.9334 2.41115 27.7908C2.56017 27.6483 2.64837 27.4536 2.6573 27.2476L2.82259 25.648V25.6054C2.82259 25.1922 2.50268 24.9816 1.86553 24.9816H1.40966C2.01749 23.8006 6.17897 22.4223 11.8814 21.5425Z" fill="white"/>
<path d="M72.2487 21.0664V21.6006H72.0457L71.9683 21.0664H72.2487Z" fill="#3F2355"/>
<path d="M71.7612 19.5664H72.1058V20.1006H71.8333L71.7612 19.5664Z" fill="#3F2355"/>
<path d="M71.6248 18.5986L71.5474 18.0645H71.8518V18.5986H71.6248Z" fill="#3F2355"/>
<path d="M71.0493 23.9111L71.5825 23.8338L71.5558 23.6445C71.6015 23.6447 71.647 23.6492 71.6918 23.6579L71.7345 23.9431C71.6747 23.9214 71.6115 23.9106 71.5478 23.9111H71.0493Z" fill="#3F2355"/>
<path d="M71.379 26.1964L71.0884 24.1836H71.5416C71.6177 24.1843 71.6906 24.2148 71.7444 24.2687C71.7982 24.3225 71.8288 24.3954 71.8295 24.4715V26.2737C71.8295 26.35 71.7992 26.4233 71.7452 26.4773C71.6912 26.5313 71.6179 26.5616 71.5416 26.5616H71.411C71.4068 26.4394 71.3961 26.3174 71.379 26.1964Z" fill="white"/>
<path d="M71.9472 26.8413L71.4141 26.8253H71.542C71.6891 26.8253 71.8301 26.7669 71.9341 26.6629C72.0381 26.5589 72.0965 26.4179 72.0965 26.2708V24.4766C72.0988 24.3604 72.0646 24.2464 71.9985 24.1507C71.9325 24.0551 71.8381 23.9826 71.7286 23.9435L71.686 23.6582C71.8744 23.6917 72.0451 23.79 72.1687 23.936C72.2924 24.082 72.3611 24.2667 72.3631 24.458V26.2601C72.3631 26.4073 72.3235 26.5518 72.2484 26.6784C72.1734 26.8051 72.0657 26.9092 71.9366 26.9799C71.9419 26.9399 71.9446 26.892 71.9472 26.8413Z" fill="#3F2355"/>
<path d="M71.5763 23.8338L71.0431 23.9111L71.0244 23.7778L71.419 23.7218V23.6445H71.5549L71.5763 23.8338Z" fill="#3F2355"/>
<path d="M71.396 27.0908C71.396 27.0028 71.412 26.9122 71.4147 26.8242L71.9478 26.8402C71.9478 26.8909 71.9478 26.9389 71.9478 26.9895C71.827 27.056 71.6912 27.0908 71.5533 27.0908H71.396Z" fill="#3F2355"/>
<path d="M71.409 17.0556L71.3315 16.5215H71.6013V17.0556H71.409Z" fill="#3F2355"/>
<path d="M71.3047 21.0664H71.9685L72.0458 21.5996H71.382L71.3047 21.0664Z" fill="#3F2355"/>
<path d="M71.5505 23.6458L71.252 21.5957H71.3852L71.6865 23.6591C71.6417 23.6505 71.5962 23.646 71.5505 23.6458Z" fill="#3F2355"/>
<path d="M70.8813 26.8239V26.8105L71.3665 26.8239H70.8813Z" fill="#3F2355"/>
<path d="M71.2479 21.6006L71.1704 21.0664H71.3039L71.3814 21.6006H71.2479Z" fill="#3F2355"/>
<path d="M71.4148 23.6458L71.1162 21.5957H71.2522L71.5508 23.6458H71.4148Z" fill="#3F2355"/>
<path d="M71.1844 15.4717L71.1123 14.9375H71.2672V15.4717H71.1844Z" fill="#3F2355"/>
<path d="M71.0859 19.5664H71.7604L71.8324 20.0996H71.1659L71.0859 19.5664Z" fill="#3F2355"/>
<path d="M71.1723 21.0615L71.0337 20.0938H71.167L71.3056 21.0615H71.1723Z" fill="#3F2355"/>
<path d="M71.0815 21.3555L71.1159 21.5985H71.0815V21.3555Z" fill="#3F2355"/>
<path d="M70.8658 26.5594C70.8282 26.5594 70.7908 26.552 70.7561 26.5375C70.7213 26.523 70.6897 26.5017 70.6632 26.475C70.6367 26.4482 70.6157 26.4164 70.6015 26.3815C70.5874 26.3466 70.5802 26.3092 70.5806 26.2715V24.4774C70.5806 24.4015 70.6105 24.3286 70.664 24.2747C70.7174 24.2208 70.7899 24.1902 70.8658 24.1895H71.0898L71.3804 26.2022C71.3975 26.3233 71.4082 26.4452 71.4124 26.5674L70.8658 26.5594Z" fill="white"/>
<path d="M71.1706 21.0664L71.2481 21.6006H71.1145L71.0798 21.3549L71.0771 21.0664H71.1706Z" fill="#3F2355"/>
<path d="M71.0659 24.0511L71.7271 23.9551C71.8365 23.9942 71.931 24.0667 71.997 24.1624C72.063 24.258 72.0973 24.372 72.095 24.4883V26.2904C72.095 26.4375 72.0365 26.5785 71.9326 26.6825C71.8286 26.7865 71.6875 26.8449 71.5405 26.8449H71.4125C71.4125 26.7569 71.4125 26.6663 71.4125 26.5783H71.5431C71.6195 26.5783 71.6927 26.548 71.7467 26.494C71.8007 26.44 71.831 26.3668 71.831 26.2904V24.4803C71.8303 24.4041 71.7998 24.3313 71.7459 24.2774C71.6921 24.2236 71.6193 24.193 71.5431 24.1923H71.0899L71.0659 24.0511Z" fill="#3F2355"/>
<path d="M71.0493 23.9141H71.5425C71.6061 23.9135 71.6693 23.9244 71.7291 23.9461L71.068 24.042L71.0493 23.9141Z" fill="#3F2355"/>
<path d="M71.0487 23.9141L70.6035 23.978C70.6859 23.9355 70.7774 23.9135 70.8701 23.9141H71.0487Z" fill="#3F2355"/>
<path d="M70.9536 19.5664H71.0872L71.1673 20.1006H71.0337L70.9536 19.5664Z" fill="#3F2355"/>
<path d="M71.0093 23.6445H71.4145L71.4252 23.7218L71.0306 23.7778L71.0093 23.6445Z" fill="#3F2355"/>
<path d="M70.6336 23.8365L70.6123 23.6872C70.6936 23.6582 70.7793 23.6438 70.8656 23.6446H71.0095L71.0309 23.7779L70.6336 23.8365Z" fill="#3F2355"/>
<path d="M71.0028 14.1748L70.9307 13.6406H71.1256V14.1748H71.0028Z" fill="#3F2355"/>
<path d="M70.952 19.5664L71.0322 20.1006H70.9307V19.5664H70.952Z" fill="#3F2355"/>
<path d="M70.8711 18.0645H71.5482L71.6255 18.5976H70.9484L70.8711 18.0645Z" fill="#3F2355"/>
<path d="M70.9526 19.5627L70.814 18.5977H70.9473L71.0859 19.5627H70.9526Z" fill="#3F2355"/>
<path d="M70.8805 26.8242H71.4137C71.4137 26.9122 71.4137 27.0028 71.395 27.0908H70.8618C70.8733 27.0024 70.8796 26.9134 70.8805 26.8242Z" fill="#3F2355"/>
<path d="M70.814 18.5986L70.7339 18.0645H70.8701L70.9476 18.5986H70.814Z" fill="#3F2355"/>
<path d="M70.6804 18.5977H70.8137L70.9523 19.5627H70.931V20.0959H71.0323L71.1709 21.0636H71.0776L71.0803 21.3515L70.6777 18.5977H70.6804Z" fill="#3F2355"/>
<path d="M70.785 12.6201L70.7129 12.0859H70.9052V12.6201H70.785Z" fill="#3F2355"/>
<path d="M70.7341 18.0645L70.8142 18.5986H70.6807V18.0645H70.7341Z" fill="#3F2355"/>
<path d="M70.646 16.5215H71.3311L71.4085 17.0547H70.726L70.646 16.5215Z" fill="#3F2355"/>
<path d="M70.735 18.0651L70.5884 17.0547H70.727L70.871 18.0651H70.735Z" fill="#3F2355"/>
<path d="M70.4189 24.1419C70.4674 24.0764 70.5292 24.0219 70.6002 23.982L71.0454 23.918L71.0641 24.0513L70.4189 24.1419Z" fill="#3F2355"/>
<path d="M70.5875 17.0556L70.5127 16.5215H70.6462L70.7264 17.0556H70.5875Z" fill="#3F2355"/>
<path d="M70.6783 18.5982L70.4517 17.0547H70.5876L70.7342 18.0651H70.6809V18.5982H70.6783Z" fill="#3F2355"/>
<path d="M70.5334 23.9927L70.4961 23.7421C70.5374 23.722 70.5802 23.7051 70.6241 23.6914L70.6454 23.8407L71.0426 23.782L71.0613 23.9153H70.8773C70.7846 23.9148 70.6931 23.9367 70.6107 23.9793L70.5334 23.9927Z" fill="#3F2355"/>
<path d="M70.8658 26.8285C70.7192 26.8278 70.5788 26.769 70.4754 26.6651C70.372 26.5612 70.314 26.4206 70.314 26.274V24.4798C70.3141 24.362 70.3514 24.2473 70.4206 24.1519L71.0684 24.0586L71.0897 24.1919H70.8658C70.7899 24.1926 70.7174 24.2232 70.6639 24.2772C70.6105 24.3311 70.5806 24.4039 70.5806 24.4798V26.282C70.5802 26.3196 70.5873 26.357 70.6015 26.3919C70.6157 26.4269 70.6366 26.4586 70.6632 26.4854C70.6897 26.5122 70.7212 26.5334 70.756 26.5479C70.7908 26.5624 70.8281 26.5699 70.8658 26.5699H71.4123C71.4123 26.6579 71.4123 26.7485 71.4123 26.8365H71.3643L70.8791 26.8231V26.8365L70.8658 26.8285Z" fill="#3F2355"/>
<path d="M70.4976 10.5385L70.6658 10.5332L70.6792 11.0674L70.5697 11.07L70.4976 10.5385Z" fill="#3F2355"/>
<path d="M70.3018 30.5439C70.4467 30.4041 70.5587 30.2338 70.6297 30.0454L71.2828 27.7047C71.3375 27.5039 71.375 27.2987 71.3948 27.0915H71.5414C71.6794 27.0916 71.8151 27.0567 71.9359 26.9902C71.92 27.2796 71.8735 27.5664 71.7973 27.846L71.1442 30.1893C71.0564 30.4511 70.9095 30.6892 70.715 30.8851C70.6483 30.9598 70.579 31.0398 70.5097 31.1331L70.3497 31.349H70.3257L70.4244 30.9998L70.531 30.6079L70.3018 30.5439Z" fill="#3F2355"/>
<path d="M70.494 15.4707L70.4141 14.9375H71.1125L71.1845 15.4707H70.494Z" fill="#3F2355"/>
<path d="M70.514 16.5198L70.3594 15.4668H70.4953L70.6473 16.5198H70.514Z" fill="#3F2355"/>
<path d="M70.4321 16.9082L70.4507 17.0519H70.4321V16.9082Z" fill="#3F2355"/>
<path d="M70.4321 16.5215H70.5122L70.587 17.0556H70.4508L70.4321 16.9114V16.9088V16.5215Z" fill="#3F2355"/>
<path d="M70.4098 24.1447L70.3618 23.8222C70.4006 23.7925 70.4416 23.7657 70.4845 23.7422L70.5218 23.9928H70.6018C70.5307 24.0327 70.469 24.0872 70.4205 24.1527L70.4098 24.1447Z" fill="#3F2355"/>
<path d="M70.2866 9.05664H70.4816L70.5003 9.5908H70.3641L70.2866 9.05664Z" fill="#3F2355"/>
<path d="M70.3587 15.4717L70.2812 14.9375H70.4148L70.4949 15.4717H70.3587Z" fill="#3F2355"/>
<path d="M70.433 16.9064L70.2251 15.4668H70.3584L70.513 16.5198H70.433V16.9064Z" fill="#3F2355"/>
<path d="M70.0463 24.4779C70.0465 24.3532 70.0748 24.2301 70.1293 24.1179C70.1838 24.0057 70.263 23.9073 70.3609 23.8301L70.4089 24.1527C70.3397 24.248 70.3024 24.3628 70.3022 24.4806V24.8618H70.0356L70.0463 24.4779Z" fill="#3F2355"/>
<path d="M70.86 27.0955C70.6436 27.0934 70.4368 27.006 70.2845 26.8522C70.1323 26.6985 70.0469 26.4908 70.0469 26.2744V24.8535H70.3135V26.2744C70.3135 26.421 70.3715 26.5617 70.4749 26.6656C70.5783 26.7695 70.7187 26.8282 70.8653 26.829H70.8813C70.8795 26.9182 70.8724 27.0072 70.86 27.0955Z" fill="#3F2355"/>
<path d="M70.2285 13.6406H70.9323L71.0043 14.1738H70.3032L70.2285 13.6406Z" fill="#3F2355"/>
<path d="M36.5132 29.4469C36.6742 29.4469 36.8327 29.4079 36.9753 29.3331C37.1179 29.2584 37.2401 29.1501 37.3316 29.0177C37.5982 28.9286 37.8302 28.7584 37.9952 28.5308C38.1601 28.3032 38.2497 28.0297 38.2514 27.7487V24.8535H70.0477V26.2744C70.0477 26.4908 70.1331 26.6985 70.2853 26.8522C70.4376 27.006 70.6444 27.0934 70.8608 27.0955C70.8424 27.2549 70.8121 27.4126 70.7701 27.5674L70.117 29.9081C70.0623 30.0067 69.9931 30.0966 69.9117 30.1747L69.8264 30.2733H69.3945L69.2559 30.2333V30.2733H57.7925V30.2573C57.7125 30.1347 57.6272 30.0121 57.5259 29.8894C57.01 29.2121 56.3657 28.6432 55.6299 28.215C54.894 27.7868 54.081 27.5078 53.2373 27.3939C52.3935 27.28 51.5356 27.3335 50.7126 27.5512C49.8895 27.769 49.1175 28.1468 48.4405 28.6631C47.8944 29.0759 47.419 29.5747 47.0329 30.14H36.5132V29.4469Z" fill="white"/>
<path d="M70.2809 14.9382L70.1689 14.1758H70.3022L70.4142 14.9382H70.2809Z" fill="#3F2355"/>
<path d="M70.3719 30.7042L70.2093 30.6588L70.3026 30.5469L70.5372 30.6135L70.4253 31.0027L70.3266 31.352H70.188L70.2973 30.9654L70.3719 30.7042Z" fill="#3F2355"/>
<path d="M70.1445 14.9375H70.2807L70.3582 15.4717H70.2247L70.1445 14.9375Z" fill="#3F2355"/>
<path d="M70.1877 31.3513H70.0518L70.2064 30.7968L70.1184 30.7702C70.1465 30.7312 70.1767 30.6938 70.209 30.6582L70.3717 30.7035L70.297 30.9701L70.1877 31.3513Z" fill="#3F2355"/>
<path d="M70.1681 14.1748L70.0933 13.6406H70.2268L70.3016 14.1748H70.1681Z" fill="#3F2355"/>
<path d="M70.1507 8.07518L70.0786 7.54102H70.2682V8.07518H70.1507Z" fill="#3F2355"/>
<path d="M70.1442 14.9382L70.0322 14.1758H70.1682L70.2802 14.9382H70.1442Z" fill="#3F2355"/>
<path d="M70.2268 15.4717H70.0986V14.9375H70.1467L70.2268 15.4717Z" fill="#3F2355"/>
<path d="M69.8223 30.6875L70.1173 30.7699L70.0801 30.8177H69.7852L69.8223 30.6875Z" fill="#3F2355"/>
<path d="M69.9985 12.0859H70.713L70.785 12.6191H70.0785L69.9985 12.0859Z" fill="#3F2355"/>
<path d="M70.0946 13.6382L69.9453 12.6172H70.0786L70.2279 13.6382H70.0946Z" fill="#3F2355"/>
<path d="M59.6892 36.2876V35.893L67.9348 35.909L69.2171 31.3477H70.0489L68.5427 36.7088L59.6865 36.6928L59.6892 36.2876Z" fill="#3F2355"/>
<path d="M39.8193 18.0819C39.8193 18.294 39.9036 18.4974 40.0536 18.6474C40.2035 18.7974 40.407 18.8817 40.6191 18.8817H47.2092C47.4213 18.8817 47.6247 18.7974 47.7747 18.6474C47.9247 18.4974 48.009 18.294 48.009 18.0819V11.1852H50.6749L50.7149 18.0819C50.7149 18.294 50.7991 18.4974 50.9491 18.6474C51.0991 18.7974 51.3025 18.8817 51.5147 18.8817H66.7583C66.9704 18.8817 67.1739 18.7974 67.3238 18.6474C67.4738 18.4974 67.5581 18.294 67.5581 18.0819L67.5048 10.7906H67.4701V10.3854H39.8193V18.0819ZM70.048 24.8533H38.2518V11.865C38.2434 11.5004 38.0908 11.1539 37.8274 10.9016C37.5641 10.6492 37.2115 10.5116 36.8468 10.5187H31.8776C31.5129 10.5116 31.1603 10.6492 30.897 10.9016C30.6336 11.1539 30.481 11.5004 30.4726 11.865V24.8533H28.6385L28.6145 14.1257C28.6159 13.8176 28.5566 13.5123 28.44 13.2271C28.3234 12.9419 28.1518 12.6825 27.9349 12.4637C27.7181 12.2448 27.4602 12.0709 27.1761 11.9517C26.892 11.8325 26.5872 11.7704 26.2792 11.769H14.5145C14.2422 11.7693 13.9734 11.7075 13.7286 11.5883C13.4838 11.4691 13.2693 11.2957 13.1016 11.0812C12.9239 10.8559 12.7999 10.5931 12.739 10.3127C12.678 10.0323 12.6817 9.74175 12.7497 9.463C12.7582 9.42335 12.7689 9.38419 12.7817 9.3457H68.2592L70.3626 23.8243C70.2647 23.9015 70.1855 23.9999 70.1311 24.1121C70.0766 24.2243 70.0482 24.3474 70.048 24.4721V24.8533Z" fill="white"/>
<path d="M69.9585 13.6406H70.0947L70.1695 14.1748H70.0333L69.9585 13.6406Z" fill="#3F2355"/>
<path d="M69.959 13.6406L70.0337 14.1748H69.9536V13.6406H69.959Z" fill="#3F2355"/>
<path d="M69.8643 12.0859H69.9978L70.0779 12.6201H69.9444L69.8643 12.0859Z" fill="#3F2355"/>
<path d="M69.945 12.6172L70.0943 13.6382H69.9584L69.8091 12.6172H69.945Z" fill="#3F2355"/>
<path d="M69.8592 30.5548H69.3047L69.3473 30.4082L69.8592 30.5548Z" fill="#3F2355"/>
<path d="M69.8664 12.0871L69.7197 11.0874L69.853 11.082L69.9996 12.0871H69.8664Z" fill="#3F2355"/>
<path d="M69.851 11.0836L69.7764 10.5531L70.4962 10.5371L70.5681 11.0676L69.851 11.0836Z" fill="#3F2355"/>
<path d="M69.8228 30.6849L69.86 30.5547L70.208 30.6556C70.1758 30.6911 70.1456 30.7284 70.1177 30.7672L69.8228 30.6849Z" fill="#3F2355"/>
<path d="M69.3936 30.2871H69.8254L69.9107 30.1885C69.9921 30.1104 70.0613 30.0205 70.116 29.9219L70.7692 27.5812C70.8112 27.4264 70.8415 27.2687 70.8598 27.1094H71.393C71.3732 27.3166 71.3357 27.5217 71.281 27.7225L70.6279 30.0632C70.5569 30.2517 70.4449 30.4219 70.3 30.5617L69.3936 30.2871Z" fill="#3F2355"/>
<path d="M69.3667 30.8188L69.436 30.5762L69.8199 30.6881L69.7826 30.8188H69.3667Z" fill="#3F2355"/>
<path d="M69.7764 12.3867L69.8081 12.6139H69.7764V12.3867Z" fill="#3F2355"/>
<path d="M70.0525 31.3507H69.2207L69.37 30.8175H70.0818L70.1191 30.7695L70.2071 30.7962L70.0525 31.3507Z" fill="#3F2355"/>
<path d="M69.8094 12.6201L69.7773 12.3904L69.772 12.0859H69.8655L69.9456 12.6201H69.8094Z" fill="#3F2355"/>
<path d="M69.8519 11.0823L69.7183 11.0876L69.6436 10.5535L69.7771 10.5508L69.8519 11.0823Z" fill="#3F2355"/>
<path d="M69.8641 12.0857H69.7708L69.7762 12.3896L69.5815 11.0886L69.7175 11.0859L69.8641 12.0857Z" fill="#3F2355"/>
<path d="M69.6362 9.58982L69.5615 9.05664H70.2866L70.364 9.58982H69.6362Z" fill="#3F2355"/>
<path d="M69.5024 9.58984H69.6357L69.777 10.5522L69.6437 10.5549L69.5024 9.58984Z" fill="#3F2355"/>
<path d="M69.5582 11.0871L69.5503 10.8652L69.582 11.0871H69.5582Z" fill="#3F2355"/>
<path d="M69.5488 10.5574L69.645 10.5547L69.7198 11.0889L69.5836 11.0915L69.5515 10.8672L69.5488 10.5574Z" fill="#3F2355"/>
<path d="M69.4336 9.12109L69.5029 9.59029H69.4336V9.12109Z" fill="#3F2355"/>
<path d="M69.5618 9.05664L69.6366 9.5908H69.503L69.4336 9.12074V9.05664H69.5618Z" fill="#3F2355"/>
<path d="M69.3364 7.54102H70.0775L70.1495 8.0742H69.4137L69.3364 7.54102Z" fill="#3F2355"/>
<path d="M69.2817 8.07227H69.415L69.5617 9.05599H69.4337V9.11997L69.2817 8.07227Z" fill="#3F2355"/>
<path d="M69.3936 30.284H69.2446L69.2526 30.2441L69.3936 30.284Z" fill="#3F2355"/>
<path d="M69.2329 30.8159L69.3049 30.5547H69.8594L69.8194 30.6853L69.4355 30.5733L69.3662 30.8159H69.2329Z" fill="#3F2355"/>
<path d="M69.2338 30.8164H69.3673L69.2178 31.3506H69.0815L69.2338 30.8164Z" fill="#3F2355"/>
<path d="M69.249 7.83789L69.2807 8.07032H69.249V7.83789Z" fill="#3F2355"/>
<path d="M69.3372 7.54102L69.4146 8.07518H69.2811L69.249 7.84015V7.54102H69.3372Z" fill="#3F2355"/>
<path d="M69.3083 30.5576H69.167L69.2443 30.291H69.3936L70.3027 30.5576L70.2094 30.6696L69.8601 30.5683L69.3483 30.4216L69.3083 30.5576Z" fill="#3F2355"/>
<path d="M69.3034 30.5547L69.2321 30.8135H69.0947L69.166 30.5547H69.3034Z" fill="#3F2355"/>
<path d="M69.0894 5.81646H69.5905C69.8114 5.8197 70.0237 5.90229 70.1886 6.04913C70.3536 6.19598 70.4602 6.39727 70.489 6.61623L72.8243 23.3235L72.2911 23.3955L72.0405 21.6013H72.2431V21.0681H71.9765L71.8406 20.1004H72.1072V19.5672H71.7606L71.6246 18.6128H71.8646V18.0796H71.5606L71.4194 17.0693H71.598V16.5361H71.3314L71.1848 15.4697H71.2674V14.9365H71.1101L71.0035 14.1741H71.1234V13.6409H70.9288L70.7982 12.6199H70.9182V12.0867H70.7236L70.5823 11.0656H70.6889V10.5325H70.5183L70.385 9.58605H70.5209L70.505 9.05287H70.3103L70.1744 8.06915H70.265V7.53597H70.0731L69.9531 6.68555C69.9429 6.59541 69.9008 6.51191 69.8342 6.45026C69.7677 6.38861 69.6812 6.35291 69.5905 6.34964H69.1693L69.092 5.81646C69.0911 5.81639 69.0902 5.81639 69.0894 5.81646Z" fill="#3F2355"/>
<path d="M69.2491 7.837L69.0332 6.35742H69.1665L69.3371 7.53842H69.2491V7.837Z" fill="#3F2355"/>
<path d="M68.9429 31.3506L69.0951 30.8164H69.234L69.0818 31.3506H68.9429Z" fill="#3F2355"/>
<path d="M68.9831 5.81641H69.09L69.1674 6.35057H69.0312L68.9805 5.99535L68.9831 5.81641Z" fill="#3F2355"/>
<path d="M68.9839 6.00586L69.0344 6.35922H68.9839V6.00586Z" fill="#3F2355"/>
<path d="M70.6116 23.6936L68.5269 9.3457H68.9321L68.9481 9.45767L69.164 10.9452L69.3853 12.4835L69.6119 14.0377L69.7985 15.3333L70.0304 16.9329L70.2544 18.4791L70.473 19.9827L70.6889 21.4729L71.0088 23.6696H70.8649C70.7797 23.6628 70.694 23.6709 70.6116 23.6936Z" fill="#3F2355"/>
<path d="M68.5271 9.3457L70.6118 23.6936C70.5679 23.7073 70.5252 23.7242 70.4838 23.7443L68.3911 9.34837L68.5271 9.3457Z" fill="#3F2355"/>
<path d="M68.3989 9.34251L70.4917 23.7384C70.4488 23.762 70.4078 23.7887 70.369 23.8184L68.2656 9.33984L68.3989 9.34251Z" fill="#3F2355"/>
<path d="M29.791 2.02247C30.0474 1.99133 30.3063 1.98419 30.5641 2.00114L66.0207 4.37913C66.4564 4.41364 66.8674 4.59567 67.1859 4.89518C67.5043 5.1947 67.7111 5.5938 67.7722 6.02666L68.2547 9.34305H12.7798C12.7904 9.31639 12.8011 9.28707 12.8118 9.25507L14.1447 5.63744C14.3278 5.12553 14.6488 4.67415 15.0721 4.33309C15.4955 3.99203 16.0049 3.77456 16.5441 3.70465L29.791 2.02247Z" fill="white"/>
<path d="M67.1187 10.782L67.4826 10.7793V11.1805H67.1213L67.1187 10.782Z" fill="#3F2355"/>
<path d="M66.7224 11.1817L66.7197 10.7859L67.1183 10.7832L67.1209 11.1817H66.7224Z" fill="#3F2355"/>
<path d="M66.722 11.1836L66.7727 18.083L51.5344 18.0776L51.4917 11.1836H66.722Z" fill="#DEDFE0"/>
<path d="M64.4473 3.20237V3.06641L66.1028 3.17837C66.8113 3.2316 67.4805 3.5247 68 4.00933C68.5195 4.49397 68.8584 5.1412 68.9606 5.84429L68.982 5.99091V6.34548H69.0326L69.2486 7.82506V8.05966H69.2832L69.4352 9.10736V9.57656H69.5045L69.6431 10.5416H69.5471V10.8509L68.822 5.86028C68.7262 5.18624 68.4031 4.56512 67.9062 4.09971C67.4093 3.63431 66.7683 3.35253 66.0895 3.30101L64.4473 3.20237Z" fill="#3F2355"/>
<path d="M64.4473 3.06884V2.93555L66.1135 3.04751C66.8498 3.10251 67.5456 3.40645 68.0863 3.90937C68.627 4.41229 68.9805 5.08424 69.0886 5.81472H68.982V5.99334L68.9606 5.84672C68.8584 5.14363 68.5195 4.4964 68 4.01177C67.4805 3.52713 66.8113 3.23403 66.1028 3.18081L64.4473 3.06884Z" fill="#3F2355"/>
<path d="M64.4487 2.12305V2.93615L63.9155 2.90149V2.12571L64.4487 2.12305Z" fill="#3F2355"/>
<path d="M64.4497 1.83008V2.12387L63.9155 2.12654V1.83008H64.4497Z" fill="#3F2355"/>
<path d="M64.1733 3.58789L63.9067 3.56923V3.48925H64.4399V3.22266L66.0875 3.33196C66.7663 3.38348 67.4073 3.66527 67.9042 4.13067C68.4011 4.59607 68.7242 5.21719 68.82 5.89123L69.5451 10.8818V11.1058H69.5718L69.7637 12.4067V12.636H69.7957L69.945 13.657V14.1902H70.025L70.1343 14.9527H70.0863V15.4858H70.2143L70.4222 16.9254V17.0694H70.4436L70.6675 18.613L71.07 21.3668V21.6121H71.1047L71.4033 23.6622H70.9981L70.6781 21.4655L70.4622 19.9752L70.2436 18.4717L70.0197 16.9254L69.7877 15.3259L69.6011 14.0303L69.3852 12.484L69.1612 10.9538L68.9453 9.46622L68.9293 9.35425L68.4654 6.15516L68.4335 5.93122C68.3531 5.34652 68.0744 4.80716 67.644 4.40339C67.2135 3.99962 66.6574 3.75596 66.0688 3.71318L64.1733 3.58789Z" fill="#3F2355"/>
<path d="M64.4497 3.20731V3.48775H63.9155V3.16992L64.4497 3.20731Z" fill="#3F2355"/>
<path d="M64.4497 2.93706V3.07061L63.9155 3.03588V2.90234L64.4497 2.93706Z" fill="#3F2355"/>
<path d="M64.4497 3.06792V3.20414L63.9155 3.16674V3.0332L64.4497 3.06792Z" fill="#3F2355"/>
<path d="M59.6894 35.893V36.2876H59.5562V35.7597L67.8338 35.7757L69.0815 31.3477H69.2174L67.9351 35.909L59.6894 35.893Z" fill="#3F2355"/>
<path d="M59.6865 36.6928L68.5427 36.7088L70.0489 31.3477H70.1849L68.644 36.8448L59.5532 36.8261L59.5559 36.2876H59.6892L59.6865 36.6928Z" fill="#3F2355"/>
<path d="M67.8338 35.7757L59.5561 35.7597V36.2876H59.4229V35.6264L67.7352 35.6424L68.9428 31.3477H69.0814L67.8338 35.7757Z" fill="#3F2355"/>
<path d="M59.5522 36.8261L68.643 36.8448L70.1839 31.3477H70.3252L68.7443 36.9781L59.4189 36.9594L59.4216 36.2876H59.5549L59.5522 36.8261Z" fill="#3F2355"/>
<path d="M58.3453 31.3496C58.271 31.1677 58.1874 30.9897 58.0947 30.8164H69.0943L68.9423 31.3496H58.3453Z" fill="#3F2355"/>
<path d="M57.7683 31.3477H58.3468C59.0013 32.9293 59.0013 34.706 58.3468 36.2876H57.7656C58.1205 35.5126 58.3044 34.6703 58.3049 33.8179C58.3053 32.9655 58.1223 32.123 57.7683 31.3477Z" fill="#3F2355"/>
<path d="M57.9502 30.5547H69.1657L69.0937 30.8213H58.0942C58.0488 30.728 58.0008 30.64 57.9502 30.5547Z" fill="#3F2355"/>
<path d="M57.4873 30.8154V30.5488H57.9512C58.0018 30.6341 58.0498 30.7221 58.0951 30.8154H57.4873Z" fill="#3F2355"/>
<path d="M57.7812 30.2871H69.2447L69.1674 30.5537H57.9492C57.8977 30.4621 57.8417 30.3731 57.7812 30.2871Z" fill="#3F2355"/>
<path d="M57.9512 30.5576H57.4873V30.291H57.7832C57.8427 30.3771 57.8979 30.466 57.9485 30.5576H57.9512Z" fill="#3F2355"/>
<path d="M57.1753 36.2891L57.7698 36.2917H57.1753V36.2891Z" fill="#3F2355"/>
<path d="M57.7672 31.3496C57.6819 31.1683 57.5886 30.9897 57.4873 30.8164H58.0951C58.1878 30.9897 58.2714 31.1677 58.3457 31.3496H57.7672Z" fill="#3F2355"/>
<path d="M57.4873 30.8164C57.5888 30.99 57.6823 31.169 57.7677 31.3506H57.4873V30.8164Z" fill="#3F2355"/>
<path d="M57.3252 30.5547H57.4857V30.8178C57.4357 30.7257 57.3831 30.6389 57.3252 30.5547Z" fill="#3F2355"/>
<path d="M56.7049 38.6328C63.5963 38.8488 67.9444 39.166 67.9444 39.5179C67.9444 39.9391 61.7248 40.3177 52.3755 40.5176V40.315C53.7912 40.3136 55.1668 39.8451 56.289 38.982C56.4277 38.8727 56.569 38.7608 56.7049 38.6328Z" fill="#DEDFE0"/>
<path d="M57.0279 31.0889C57.4679 31.8382 57.7206 32.6826 57.7647 33.5505C57.8088 34.4183 57.6429 35.284 57.2812 36.0741C57.2492 36.1461 57.2145 36.2181 57.1772 36.2874H54.8419C55.4339 35.6893 55.7897 34.8974 55.8436 34.0576C55.8975 33.2178 55.6459 32.3868 55.1351 31.718C54.8617 31.3558 54.5192 31.0514 54.1274 30.8223H56.8573L56.884 30.8623C56.9346 30.9316 56.9799 31.0062 57.0279 31.0889Z" fill="#DEDFE0"/>
<path d="M56.8579 30.8164H57.4871V31.3496H57.767C58.1214 32.1248 58.3049 32.9672 58.3049 33.8196C58.3049 34.6719 58.1214 35.5143 57.767 36.2895H57.1752C57.2125 36.2202 57.2471 36.1482 57.2791 36.0762C57.6409 35.2861 57.8067 34.4205 57.7626 33.5526C57.7185 32.6848 57.4658 31.8404 57.0259 31.091C56.9779 31.0084 56.9326 30.9337 56.8819 30.8591L56.8579 30.8164Z" fill="#3F2355"/>
<path d="M56.858 30.8154C56.794 30.7221 56.7354 30.6368 56.6714 30.5488H57.3245C57.3832 30.6341 57.4365 30.7221 57.4872 30.8154H56.858Z" fill="#3F2355"/>
<path d="M56.5405 2.54612V2.41016L63.9144 2.90602V3.03931L56.5405 2.54612Z" fill="#3F2355"/>
<path d="M56.5405 2.67164V2.54102L63.9144 3.03421V3.1675L56.5405 2.67164Z" fill="#3F2355"/>
<path d="M56.0112 2.16602H56.5454V2.41173L56.0112 2.37701V2.16602Z" fill="#3F2355"/>
<path d="M56.541 3.05577V2.67188L63.9149 3.16773V3.48498L63.9069 3.56495L56.3091 3.05577H56.541Z" fill="#3F2355"/>
<path d="M56.2783 2.16552H56.0112V1.89844H56.5454V2.16552H56.2783Z" fill="#3F2355"/>
<path d="M56.0078 2.63672L56.542 2.67144V3.05604H56.3096H56.2963H56.2749L56.0078 3.03734V2.63672Z" fill="#3F2355"/>
<path d="M56.0078 2.37109L56.542 2.40581V2.54203L56.0078 2.50463V2.37109Z" fill="#3F2355"/>
<path d="M56.0078 2.50586L56.542 2.54325V2.67412L56.0078 2.6394V2.50586Z" fill="#3F2355"/>
<path d="M56.0078 3.03516L56.2709 3.05358L56.0078 3.05621V3.03516Z" fill="#3F2355"/>
<path d="M55.9603 38.565C56.7449 37.9709 57.3674 37.1889 57.7704 36.291H58.3516C58.3223 36.3657 58.2903 36.4376 58.2556 36.5123C57.8928 37.3236 57.3643 38.05 56.7041 38.645L55.9043 38.621L55.9603 38.565Z" fill="#3F2355"/>
<path d="M55.8988 38.6084L54.9551 38.5817C55.9107 38.0604 56.6852 37.2608 57.1758 36.2891H57.7703C57.3672 37.1869 56.7447 37.969 55.9601 38.5631L55.8988 38.6084Z" fill="#3F2355"/>
<path d="M54.1283 30.8143C53.9647 30.7179 53.7935 30.635 53.6164 30.5664H53.5791H56.6689C56.7329 30.649 56.7915 30.7344 56.8555 30.833L54.1283 30.8143Z" fill="#DEDFE0"/>
<path d="M53.5195 30.8164H54.1274C54.5191 31.0455 54.8616 31.35 55.1351 31.7122C55.6458 32.381 55.8974 33.2119 55.8435 34.0517C55.7896 34.8915 55.4338 35.6835 54.8418 36.2815H54.4553C54.8799 35.9183 55.203 35.451 55.393 34.9255C55.5829 34.4 55.6332 33.8341 55.5389 33.2833C55.4446 32.7325 55.2089 32.2156 54.8549 31.7832C54.501 31.3508 54.0408 31.0177 53.5195 30.8164Z" fill="#3F2355"/>
<path d="M54.0157 36.2836H54.0024H50.7073L50.6807 36.2676L54.0157 36.2836Z" fill="white"/>
<path d="M56.0093 2.50546L51.2373 2.18555H53.1248L56.0093 2.38016V2.50546Z" fill="#3F2355"/>
<path d="M53.5202 30.8159C53.1477 30.672 52.7519 30.5979 52.3525 30.5973V30.5547H53.5789H53.6162C53.7933 30.6233 53.9645 30.7062 54.128 30.8026L53.5202 30.8159Z" fill="#3F2355"/>
<path d="M54.0031 36.291C53.5157 36.6177 52.9422 36.7921 52.3555 36.7921C51.7688 36.7921 51.1954 36.6177 50.708 36.291H54.0031Z" fill="white"/>
<path d="M48.0415 30.5546C48.5468 29.8919 49.1981 29.3547 49.9448 28.9848C50.6916 28.6149 51.5136 28.4223 52.347 28.4219C52.5931 28.4215 52.839 28.4384 53.0827 28.4725C53.7879 28.563 54.468 28.7927 55.0835 29.1483C55.6991 29.5039 56.2378 29.9783 56.6684 30.5439H53.5759C52.7861 30.2481 51.9158 30.2481 51.126 30.5439L48.0415 30.5546Z" fill="#DEDFE0"/>
<path d="M49.4849 34.563L49.2183 34.6323C49.0923 34.1409 49.0834 33.6269 49.1922 33.1315C49.301 32.636 49.5245 32.1731 49.8448 31.7797L50.0501 31.9504C50.1229 31.8619 50.2012 31.7782 50.2847 31.6998L50.4127 31.5798C50.4553 31.5425 50.5006 31.5078 50.5513 31.4705C50.7716 31.301 51.0148 31.1637 51.2738 31.0626C51.9262 30.8105 52.6468 30.7971 53.3082 31.025C53.9695 31.2528 54.5289 31.7072 54.8876 32.3077C55.2463 32.9083 55.381 33.6163 55.2681 34.3066C55.1551 34.9969 54.8016 35.625 54.2703 36.0799L54.1396 36.1865L54.0063 36.2798H50.6713C50.5782 36.2179 50.4892 36.1502 50.4047 36.0772C50.2483 35.9437 50.1071 35.7935 49.9835 35.6293C49.9568 35.592 49.9275 35.5573 49.8902 35.496C49.8682 35.4669 49.8477 35.4366 49.8288 35.4054L49.8155 35.3867C49.6956 35.1916 49.599 34.9831 49.5276 34.7656C49.5196 34.6936 49.5009 34.6269 49.4849 34.563Z" fill="white"/>
<path d="M49.8709 36.291C49.9349 36.3577 50.0016 36.419 50.0682 36.4776C50.6758 36.9998 51.4438 37.2983 52.2445 37.3235C53.0452 37.3487 53.8304 37.0991 54.4696 36.6163C54.5256 36.5736 54.5816 36.5283 54.6296 36.4856C54.7024 36.4256 54.771 36.3605 54.8349 36.291H57.1755C56.685 37.2628 55.9105 38.0624 54.9548 38.5837C53.2726 38.5384 51.4625 38.4984 49.5484 38.4637C48.9665 38.1141 48.457 37.6562 48.0475 37.1148C47.8515 36.8557 47.6784 36.5801 47.5303 36.291H49.8709Z" fill="#DEDFE0"/>
<path d="M53.5202 30.8163H51.1875C51.9377 30.5248 52.7699 30.5248 53.5202 30.8163Z" fill="#3F2355"/>
<path d="M51.4907 10.7832H67.121L66.7211 10.7859L66.7237 11.1831H51.4934L51.4907 10.7832Z" fill="#3F2355"/>
<path d="M51.1347 18.0798L51.0947 11.1831H51.4946L51.5346 18.0771H66.7756L66.725 11.1777H67.1249L67.1755 18.0691C67.1762 18.1222 67.1664 18.1749 67.1467 18.2242C67.1269 18.2735 67.0976 18.3184 67.0604 18.3563C67.0233 18.3942 66.979 18.4244 66.9301 18.4451C66.8812 18.4658 66.8287 18.4766 66.7756 18.477H51.5319C51.4268 18.4763 51.3262 18.4342 51.2518 18.3599C51.1775 18.2855 51.1354 18.1849 51.1347 18.0798Z" fill="#3F2355"/>
<path d="M51.1289 30.5559C51.9188 30.26 52.789 30.26 53.5789 30.5559H51.1289Z" fill="#3F2355"/>
<path d="M51.4891 11.1817H51.0905L51.0879 10.7832H51.4864L51.4891 11.1817Z" fill="#3F2355"/>
<path d="M50.7338 18.0786L50.6938 11.1818H51.0937L51.1337 18.0786C51.1334 18.1311 51.1434 18.1831 51.1631 18.2318C51.1829 18.2804 51.2121 18.3247 51.249 18.3621C51.2858 18.3995 51.3297 18.4292 51.3781 18.4496C51.4265 18.4701 51.4784 18.4808 51.5309 18.4811H66.7746C66.8277 18.4808 66.8802 18.4699 66.9291 18.4492C66.978 18.4285 67.0223 18.3983 67.0594 18.3604C67.0966 18.3225 67.1259 18.2776 67.1456 18.2283C67.1654 18.179 67.1752 18.1263 67.1745 18.0732L67.1238 11.1818H67.4864V10.7793H67.5211L67.5744 18.0706C67.5744 18.2827 67.4901 18.4861 67.3401 18.6361C67.1901 18.7861 66.9867 18.8703 66.7746 18.8703H51.5309C51.3207 18.8696 51.1191 18.7862 50.9699 18.638C50.8208 18.4898 50.7359 18.2888 50.7338 18.0786Z" fill="#3F2355"/>
<path d="M50.582 30.8143C50.7438 30.7163 50.9143 30.6333 51.0912 30.5664H51.1285H52.3522V30.6064C51.9537 30.6066 51.5587 30.6807 51.1872 30.825L50.582 30.8143Z" fill="#3F2355"/>
<path d="M51.0925 11.1851H50.6926L50.6899 10.6973H51.4897V10.7852H51.0898L51.0925 11.1851Z" fill="#3F2355"/>
<path d="M50.693 11.1826H48.0298V10.3828H67.4856V10.78L67.1204 10.7827H51.4901V10.6947H50.6904L50.693 11.1826Z" fill="#3F2355"/>
<path d="M50.7069 36.2894H50.2696L50.251 36.2734H50.6882L50.7069 36.2894Z" fill="#3F2355"/>
<path d="M54.3127 36.4003C53.7264 36.8465 53.0052 37.079 52.2687 37.0591C51.5322 37.0392 50.8246 36.7682 50.2632 36.291H50.7084C51.1958 36.6177 51.7692 36.7921 52.3559 36.7921C52.9426 36.7921 53.5161 36.6177 54.0035 36.291H54.446C54.4033 36.3283 54.3607 36.3657 54.3127 36.4003Z" fill="#3F2355"/>
<path d="M50.0684 36.4757C50.0017 36.417 49.9351 36.3557 49.8711 36.2891H50.271C50.8324 36.7663 51.54 37.0373 52.2765 37.0571C53.013 37.077 53.7342 36.8446 54.3205 36.3984C54.3685 36.3637 54.4111 36.3264 54.4538 36.2891H54.843C54.7792 36.3586 54.7106 36.4236 54.6377 36.4837C54.5898 36.5263 54.5338 36.5716 54.4778 36.6143C53.8386 37.0972 53.0533 37.3468 52.2526 37.3215C51.4519 37.2963 50.6839 36.9978 50.0764 36.4757H50.0684Z" fill="#3F2355"/>
<path d="M49.5479 38.4629C51.462 38.4975 53.2801 38.5375 54.9543 38.5829C54.1218 39.0387 53.184 39.2676 52.235 39.2466C51.2861 39.2255 50.3593 38.9553 49.5479 38.4629Z" fill="#DEDFE0"/>
<path d="M50.2704 36.2894H49.8705L49.8545 36.2734H50.2437L50.2704 36.2894Z" fill="#3F2355"/>
<path d="M49.8545 31.7808C49.9325 31.6868 50.0162 31.5978 50.1051 31.5142L50.1557 31.4662L50.2464 31.3835C50.2944 31.3409 50.345 31.3009 50.3983 31.2609C50.6425 31.0761 50.9118 30.9271 51.1981 30.8184H53.5308C54.0521 31.0196 54.5122 31.3528 54.8662 31.7852C55.2202 32.2176 55.4558 32.7345 55.5501 33.2853C55.6444 33.8361 55.5942 34.4019 55.4042 34.9275C55.2143 35.453 54.8912 35.9202 54.4665 36.2835H54.0266L54.1599 36.1902L54.2906 36.0835C54.8664 35.5922 55.2323 34.8992 55.3131 34.1466C55.3939 33.394 55.1835 32.639 54.7251 32.0367C54.3356 31.525 53.7904 31.1537 53.1716 30.9786C52.5528 30.8036 51.8939 30.8344 51.2941 31.0663C51.0351 31.1673 50.7919 31.3047 50.5716 31.4742C50.521 31.5115 50.4756 31.5462 50.433 31.5835L50.305 31.7034C50.2215 31.7818 50.1432 31.8656 50.0704 31.954L49.8545 31.7808Z" fill="#3F2355"/>
<path d="M49.9239 31.3176C49.9666 31.2749 50.0172 31.227 50.0732 31.179L50.2385 31.0457C50.3483 30.9622 50.4632 30.8857 50.5824 30.8164H51.1876C50.9013 30.9251 50.632 31.0742 50.3878 31.2589C50.3345 31.2989 50.2838 31.3389 50.2358 31.3816L50.1452 31.4642L50.0945 31.5122C50.0056 31.5958 49.9219 31.6849 49.8439 31.7788L49.6387 31.6082C49.7276 31.5055 49.8229 31.4084 49.9239 31.3176Z" fill="#3F2355"/>
<path d="M49.8709 36.2928H47.5303C47.5303 36.2928 47.5303 36.2795 47.5303 36.2715H49.8656L49.8709 36.2928Z" fill="#DEDFE0"/>
<path d="M56.0108 2.63627L49.1621 2.17773H49.6953H51.2362L56.0082 2.49764L56.0108 2.63627Z" fill="#3F2355"/>
<path d="M55.8976 38.6079C54.8354 39.3958 53.541 39.8075 52.2188 39.778C50.8966 39.7486 49.6218 39.2797 48.5957 38.4453L49.5474 38.4613C50.3589 38.9537 51.2857 39.2239 52.2346 39.245C53.1836 39.2661 54.1214 39.0372 54.9539 38.5813L55.8976 38.6079Z" fill="#3F2355"/>
<path d="M49.8546 36.2739H47.5193C47.4819 36.2019 47.4473 36.1272 47.4126 36.0526C47.0573 35.2615 46.8975 34.3966 46.9467 33.5308C46.9959 32.665 47.2526 31.8237 47.6952 31.078C47.7358 31.0037 47.7802 30.9316 47.8285 30.8621L47.8498 30.8301H50.5771C50.4578 30.8994 50.343 30.9759 50.2332 31.0593L50.0679 31.1926C50.0119 31.2406 49.9612 31.2886 49.9186 31.3313C49.8239 31.4235 49.7348 31.5214 49.652 31.6245L49.8573 31.7951C49.537 32.1884 49.3134 32.6514 49.2046 33.1469C49.0958 33.6423 49.1048 34.1563 49.2308 34.6477L48.9642 34.717C48.9855 34.7916 49.0095 34.8716 49.0335 34.9409C49.1169 35.2 49.2315 35.4479 49.3747 35.6794L49.3907 35.7007L49.46 35.8047C49.4947 35.858 49.5294 35.9086 49.5694 35.962C49.6585 36.0712 49.7537 36.1753 49.8546 36.2739Z" fill="#DEDFE0"/>
<path d="M49.2285 34.6357L49.4951 34.5664C49.5111 34.6304 49.5298 34.697 49.5511 34.761C49.6225 34.9786 49.7191 35.1871 49.839 35.3822L49.8523 35.4008C49.8712 35.4321 49.8917 35.4623 49.9137 35.4915C49.951 35.5528 49.9803 35.5874 50.007 35.6248C50.1306 35.789 50.2718 35.9392 50.4282 36.0726C50.5127 36.1457 50.6017 36.2134 50.6948 36.2753H50.2442C50.0747 36.1291 49.9211 35.9656 49.7857 35.7874C49.7513 35.7438 49.7193 35.6984 49.6897 35.6514C49.6577 35.6088 49.6311 35.5661 49.6017 35.5208C49.4709 35.3094 49.3662 35.0829 49.2898 34.8463C49.2658 34.777 49.2472 34.7077 49.2285 34.6357Z" fill="#3F2355"/>
<path d="M49.23 34.6328C49.2487 34.7048 49.2673 34.7741 49.2913 34.8434C49.3677 35.08 49.4724 35.3065 49.6032 35.5179C49.6326 35.5632 49.6592 35.6059 49.6912 35.6485C49.7208 35.6955 49.7528 35.7409 49.7872 35.7845C49.9226 35.9627 50.0762 36.1262 50.2457 36.2723H49.8565C49.7562 36.1694 49.6618 36.0609 49.5739 35.9471C49.5339 35.8938 49.4993 35.8431 49.4646 35.7898L49.3953 35.6858L49.3793 35.6645C49.2361 35.4331 49.1215 35.1851 49.0381 34.9261C49.0141 34.8567 48.9901 34.7768 48.9688 34.7021L49.23 34.6328Z" fill="#3F2355"/>
<path d="M53.1261 2.17368L47.1118 1.77113C47.9696 1.6374 48.8393 1.59718 49.7057 1.65116C50.7001 1.65116 52.6382 1.65116 54.827 1.63516H56.2772L62.694 1.60584L65.336 1.58984V2.12303H64.4429V1.82978H63.9097V2.12569H62.6914L56.5385 2.15235V1.88576H56.0053V2.15235H54.8243L53.1261 2.17368Z" fill="#3F2355"/>
<path d="M51.4833 40.2544C50.0861 40.0691 48.7886 39.4293 47.791 38.4336L48.5908 38.4469C49.6169 39.2813 50.8917 39.7502 52.2139 39.7796C53.5361 39.8091 54.8304 39.3974 55.8927 38.6095L56.6925 38.6335C56.5565 38.7615 56.4259 38.8761 56.2712 38.9881C55.149 39.8511 53.7734 40.3197 52.3577 40.3211C52.0651 40.3182 51.773 40.2959 51.4833 40.2544Z" fill="#3F2355"/>
<path d="M48.0421 30.5547H51.1292H51.0919C50.9149 30.6216 50.7445 30.7046 50.5827 30.8026H47.8555C47.9141 30.7253 47.9754 30.64 48.0421 30.5547Z" fill="#DEDFE0"/>
<path d="M47.6284 10.7827V10.3828H48.0283V11.1826H47.6284V10.7827Z" fill="#3F2355"/>
<path d="M47.3907 30.5547H48.0438C47.9772 30.64 47.9158 30.7253 47.8572 30.8213H47.3613V30.608C47.3698 30.5896 47.3796 30.5718 47.3907 30.5547Z" fill="#3F2355"/>
<path d="M47.6205 37.4347C47.3507 37.0803 47.1217 36.6967 46.938 36.291H47.5298C47.678 36.5801 47.851 36.8557 48.047 37.1148C48.4565 37.6562 48.966 38.1141 49.5479 38.4637L48.5962 38.4477C48.2321 38.1497 47.9046 37.8097 47.6205 37.4347Z" fill="#3F2355"/>
<path d="M48.0433 30.555H47.3901C47.7576 29.9947 48.2184 29.5014 48.7524 29.0968C50.0075 28.1402 51.591 27.7214 53.1549 27.9324C54.7187 28.1433 56.1347 28.9668 57.0914 30.2218C57.174 30.3311 57.254 30.443 57.326 30.555H56.6702C56.2403 29.9879 55.7019 29.5119 55.0863 29.1549C54.4707 28.7979 53.7902 28.567 53.0845 28.4756C52.8407 28.4415 52.5949 28.4246 52.3487 28.4249C51.5154 28.4253 50.6934 28.618 49.9466 28.9879C49.1999 29.3578 48.5485 29.895 48.0433 30.5577V30.555Z" fill="#3F2355"/>
<path d="M47.5298 36.2916H46.938V36.2676H47.5298C47.5298 36.2676 47.5272 36.2836 47.5298 36.2916Z" fill="#3F2355"/>
<path d="M47.3906 30.5547C47.3799 30.5691 47.3701 30.5842 47.3613 30.5999V30.5547H47.3906Z" fill="#3F2355"/>
<path d="M47.2266 30.8136C47.2662 30.7422 47.3111 30.6683 47.3586 30.5996V30.8136H47.2266Z" fill="#3F2355"/>
<path d="M46.8901 31.4829C46.9088 31.4376 46.9275 31.3922 46.9488 31.3496H47.2154V30.8164H47.3487V31.4829H46.8901Z" fill="#3F2355"/>
<path d="M47.3581 30.6066C47.3108 30.6751 47.266 30.7487 47.2266 30.8198V30.5566H47.3581V30.6066Z" fill="#3F2355"/>
<path d="M47.2284 11.1836L47.2151 18.083L40.6143 18.0723V11.1836H47.2284Z" fill="#DEDFE0"/>
<path d="M47.2249 30.5547H47.0928V30.8135H47.2249V30.5547Z" fill="#3F2355"/>
<path d="M47.2249 30.8164C47.1799 30.8956 47.135 30.9749 47.0928 31.0541V30.8164H47.2249Z" fill="#3F2355"/>
<path d="M47.3591 30.1521H47.0205C47.4066 29.5867 47.882 29.0879 48.4281 28.6751C49.1051 28.1589 49.8772 27.7811 50.7002 27.5633C51.5233 27.3455 52.3812 27.292 53.2249 27.4059C54.0686 27.5198 54.8816 27.7988 55.6175 28.227C56.3534 28.6552 56.9976 29.2242 57.5135 29.9015C57.6068 30.0241 57.6921 30.1467 57.7801 30.2694V30.2853H57.4842V30.5519H57.3216C57.2496 30.44 57.1696 30.328 57.087 30.2187C56.1303 28.9638 54.7143 28.1403 53.1505 27.9293C51.5866 27.7183 50.003 28.1371 48.748 29.0937C48.214 29.4984 47.7532 29.9916 47.3857 30.5519H47.3564L47.3591 30.1521Z" fill="#3F2355"/>
<path d="M51.2381 2.18594L46.7407 1.88469C46.8605 1.83657 46.9846 1.79997 47.1113 1.77539L53.1256 2.17794L51.2381 2.18594Z" fill="#3F2355"/>
<path d="M47.0932 31.0586V31.2192H47.0103C47.037 31.1657 47.0718 31.1121 47.0932 31.0586Z" fill="#3F2355"/>
<path d="M46.93 30.2871H47.2249V30.5528H47.092V30.4146H46.8423L46.93 30.2871Z" fill="#3F2355"/>
<path d="M46.7631 30.5547H47.0937V30.8213H46.6191C46.6645 30.728 46.7124 30.64 46.7631 30.5547Z" fill="#3F2355"/>
<path d="M47.094 31.217V31.0568C47.1367 30.9767 47.1821 30.8965 47.2275 30.8164V31.3506H46.9604C46.9791 31.3052 47.0005 31.2624 47.0219 31.217H47.094Z" fill="#3F2355"/>
<path d="M47.0108 31.2163H46.4243C46.4856 31.0803 46.5496 30.9497 46.6189 30.8164H47.0935V31.0563C47.0721 31.1097 47.0375 31.163 47.0108 31.2163Z" fill="#3F2355"/>
<path d="M46.4239 31.2148H47.0104C46.9891 31.2602 46.9677 31.3028 46.9491 31.3481H46.3652C46.3866 31.3028 46.4052 31.2602 46.4239 31.2148Z" fill="#3F2355"/>
<path d="M46.9471 30.2616C46.9711 30.2243 46.9951 30.187 47.0218 30.1523H47.3604V30.5576H47.2271V30.291H46.9312L46.9471 30.2616Z" fill="#3F2355"/>
<path d="M46.9287 36.2655C46.5907 35.5146 46.4129 34.7016 46.4064 33.8781C46.4 33.0547 46.5652 32.239 46.8914 31.4829H47.3606V30.8164H47.8565L47.8352 30.8484C47.7869 30.9179 47.7424 30.99 47.7019 31.0643C47.2592 31.8101 47.0025 32.6513 46.9533 33.5171C46.9042 34.3829 47.064 35.2479 47.4193 36.0389C47.4539 36.1136 47.4886 36.1882 47.5259 36.2602L46.9287 36.2655Z" fill="#3F2355"/>
<path d="M46.3646 31.3477H46.9484C46.9271 31.3903 46.9085 31.4356 46.8898 31.481H46.314C46.33 31.4356 46.3486 31.4063 46.3646 31.3477Z" fill="#3F2355"/>
<path d="M46.8852 2.40549C46.9385 2.3735 47.3224 2.16023 49.1619 2.17889L56.0106 2.63743V3.03731L46.8799 2.42682V2.41082L46.8852 2.40549Z" fill="#3F2355"/>
<path d="M47.197 37.7573C46.8982 37.3628 46.6442 36.9363 46.4398 36.4856C46.4105 36.4216 46.3839 36.355 46.3599 36.291H46.9384C47.3187 37.1274 47.886 37.8652 48.5966 38.4477L47.7968 38.4344C47.5815 38.2228 47.3811 37.9965 47.197 37.7573Z" fill="#3F2355"/>
<path d="M47.0921 30.554H46.7627C46.7839 30.5142 46.8079 30.4717 46.8371 30.4238H47.0868L47.0921 30.554Z" fill="#3F2355"/>
<path d="M46.7407 1.88281L51.2381 2.18406H49.6972H49.164L46.5381 2.00011C46.5999 1.95194 46.6681 1.91248 46.7407 1.88281Z" fill="#3F2355"/>
<path d="M46.9292 2.28792L46.396 2.24526C46.4 2.19708 46.4142 2.1503 46.4376 2.10802C46.4611 2.06574 46.4932 2.02892 46.532 2L49.1605 2.17862C47.3211 2.15996 46.9372 2.37323 46.8839 2.40522C46.9114 2.37211 46.9273 2.33092 46.9292 2.28792Z" fill="#3F2355"/>
<path d="M46.8906 31.4824C46.5644 32.2385 46.3992 33.0542 46.4056 33.8777C46.412 34.7011 46.5899 35.5142 46.9279 36.2651V36.2891H46.3494C45.7173 34.755 45.7011 33.0362 46.3041 31.4904L46.8906 31.4824Z" fill="#3F2355"/>
<path d="M40.6186 11.1831V18.0798H47.2194V11.1804L40.6186 11.1831ZM40.2188 10.7832H47.63V18.0798C47.63 18.1887 47.5867 18.2931 47.5097 18.3701C47.4327 18.4471 47.3283 18.4903 47.2194 18.4903H40.6293C40.5204 18.4903 40.416 18.4471 40.339 18.3701C40.262 18.2931 40.2188 18.1887 40.2188 18.0798V10.7832Z" fill="#3F2355"/>
<path d="M40.2152 10.5137V10.7808V11.0478H39.8306V10.5137H40.2152Z" fill="#3F2355"/>
<path d="M40.2178 18.0788C40.2178 18.1877 40.2611 18.2921 40.3381 18.3691C40.4151 18.4461 40.5195 18.4894 40.6284 18.4894H47.2185C47.3274 18.4894 47.4318 18.4461 47.5088 18.3691C47.5858 18.2921 47.629 18.1877 47.629 18.0788V11.1821H48.0289V18.0788C48.0289 18.2909 47.9447 18.4944 47.7947 18.6444C47.6447 18.7943 47.4413 18.8786 47.2291 18.8786H40.6284C40.4163 18.8786 40.2128 18.7943 40.0629 18.6444C39.9129 18.4944 39.8286 18.2909 39.8286 18.0788V11.0488H40.2285L40.2178 18.0788Z" fill="#3F2355"/>
<path d="M47.6292 10.7827H40.2153V10.5161H39.8314V11.0493H39.8154V10.3828H47.6292V10.7827Z" fill="#3F2355"/>
<path d="M32.051 12.4478C31.7873 12.4478 31.5344 12.5526 31.3479 12.7391C31.1614 12.9256 31.0566 13.1785 31.0566 13.4422V11.8613C31.0669 11.6562 31.1557 11.4629 31.3046 11.3215C31.4535 11.1801 31.6511 11.1013 31.8564 11.1016H36.8337C37.0404 11.1014 37.2391 11.1813 37.3882 11.3244C37.5373 11.4675 37.6252 11.6628 37.6334 11.8693V24.8497H37.4841V13.4422C37.4841 13.1785 37.3794 12.9256 37.1929 12.7391C37.0064 12.5526 36.7535 12.4478 36.4898 12.4478H32.051Z" fill="white"/>
<path d="M37.5068 24.8535H37.6561V27.7567C37.6555 27.9157 37.6031 28.0701 37.5068 28.1966V24.8535Z" fill="white"/>
<path d="M37.5063 24.8535V28.1966C37.4287 28.2979 37.3285 28.3798 37.2138 28.4358C37.099 28.4917 36.9728 28.5203 36.8452 28.5191H31.8759C31.6701 28.5194 31.4722 28.4402 31.3232 28.2982C31.1743 28.1562 31.0858 27.9623 31.0762 27.7567V24.8535H37.5063Z" fill="white"/>
<path d="M37.3311 29.0123C37.4465 28.8466 37.5079 28.6492 37.507 28.4472V28.1806C37.6033 28.0541 37.6557 27.8997 37.6563 27.7407V24.8535H38.2508V27.7487C38.248 28.0288 38.1579 28.3011 37.993 28.5276C37.8282 28.7542 37.5968 28.9236 37.3311 29.0123Z" fill="#3F2355"/>
<path d="M36.2744 22.0465V20.6416C36.2744 20.5709 36.3025 20.5031 36.3525 20.4531C36.4025 20.4031 36.4703 20.375 36.541 20.375C36.6117 20.375 36.6795 20.4031 36.7295 20.4531C36.7795 20.5031 36.8076 20.5709 36.8076 20.6416V22.0465C36.8076 22.1172 36.7795 22.185 36.7295 22.235C36.6795 22.285 36.6117 22.3131 36.541 22.3131C36.4703 22.3131 36.4025 22.285 36.3525 22.235C36.3025 22.185 36.2744 22.1172 36.2744 22.0465Z" fill="#3F2355"/>
<path d="M36.5111 12.4473C36.7748 12.4473 37.0278 12.552 37.2142 12.7385C37.4007 12.925 37.5055 13.1779 37.5055 13.4417V24.8491H31.0566V13.4417C31.0566 13.1779 31.1614 12.925 31.3479 12.7385C31.5344 12.552 31.7873 12.4473 32.051 12.4473H36.5111ZM36.807 22.0445V20.6369C36.807 20.5662 36.7789 20.4984 36.7289 20.4484C36.6789 20.3984 36.6111 20.3704 36.5404 20.3704C36.4697 20.3704 36.4019 20.3984 36.3519 20.4484C36.3019 20.4984 36.2738 20.5662 36.2738 20.6369V22.0419C36.2738 22.1126 36.3019 22.1804 36.3519 22.2304C36.4019 22.2804 36.4697 22.3085 36.5404 22.3085C36.6111 22.3085 36.6789 22.2804 36.7289 22.2304C36.7789 22.1804 36.807 22.1126 36.807 22.0419V22.0445Z" fill="white"/>
<path d="M36.512 30.1533H28.8182C28.7715 30.1533 28.7268 30.1348 28.6938 30.1018C28.6608 30.0688 28.6422 30.0241 28.6422 29.9774L28.6289 24.8535H30.4631V27.7567C30.4649 27.9982 30.5324 28.2346 30.6583 28.4408C30.7841 28.6469 30.9636 28.815 31.1775 28.927C31.2635 29.0837 31.3901 29.2144 31.5439 29.3053C31.6978 29.3963 31.8732 29.4443 32.0519 29.4442H36.512V30.1533Z" fill="white"/>
<path d="M32.0526 29.443C31.8739 29.443 31.6985 29.3951 31.5446 29.3041C31.3908 29.2131 31.2642 29.0824 31.1782 28.9258C31.3899 29.0413 31.6275 29.1009 31.8687 29.0991H36.846C37.0115 29.0996 37.1758 29.0707 37.3312 29.0138C37.2397 29.1462 37.1174 29.2545 36.9748 29.3292C36.8323 29.404 36.6737 29.443 36.5127 29.443H32.0526Z" fill="white"/>
<path d="M31.8764 29.0995C31.6352 29.1014 31.3976 29.0417 31.1859 28.9262C31.1067 28.7806 31.0654 28.6174 31.0659 28.4517V27.7559C31.0755 27.9614 31.164 28.1554 31.313 28.2974C31.4619 28.4394 31.6599 28.5185 31.8657 28.5183H36.8429C36.9706 28.5194 37.0968 28.4909 37.2115 28.4349C37.3263 28.3789 37.4264 28.2971 37.5041 28.1957V28.4623C37.505 28.6643 37.4436 28.8617 37.3281 29.0275C37.1727 29.0845 37.0085 29.1133 36.8429 29.1128L31.8764 29.0995Z" fill="#3F2355"/>
<path d="M30.4634 11.8604C30.4675 11.6792 30.5074 11.5005 30.5807 11.3347C30.654 11.1689 30.7593 11.0192 30.8905 10.8941C31.0218 10.7691 31.1764 10.6711 31.3456 10.6059C31.5147 10.5407 31.6951 10.5095 31.8763 10.5141H36.8536C37.2182 10.507 37.5708 10.6446 37.8342 10.897C38.0975 11.1493 38.2501 11.4958 38.2585 11.8604V24.8487H37.664V11.8684C37.6557 11.6619 37.5678 11.4666 37.4187 11.3234C37.2696 11.1803 37.0709 11.1005 36.8642 11.1006H31.8763C31.6709 11.1004 31.4734 11.1791 31.3245 11.3206C31.1756 11.462 31.0868 11.6553 31.0765 11.8604V24.8487H30.4634V11.8604Z" fill="#3F2355"/>
<path d="M31.1778 28.927C30.9639 28.815 30.7844 28.6469 30.6586 28.4408C30.5327 28.2346 30.4653 27.9982 30.4634 27.7567V24.8535H31.0579V28.4525C31.0574 28.6182 31.0986 28.7814 31.1778 28.927Z" fill="#3F2355"/>
<path d="M28.6417 29.9774C28.6417 30.0241 28.6603 30.0688 28.6933 30.1018C28.7263 30.1348 28.771 30.1533 28.8177 30.1533H47.0205C46.9938 30.188 46.9698 30.2253 46.9459 30.2626L46.9299 30.2866H28.8177C28.7361 30.2866 28.6579 30.2544 28.6 30.197C28.542 30.1396 28.5091 30.0616 28.5084 29.9801L28.4951 24.8535H28.6284L28.6417 29.9774Z" fill="#3F2355"/>
<path d="M28.8187 30.4199C28.7018 30.4199 28.5896 30.3737 28.5067 30.2913C28.4238 30.2088 28.3768 30.097 28.3761 29.9801L28.3628 24.8535H28.4961L28.5094 29.9801C28.5101 30.0616 28.543 30.1396 28.6009 30.197C28.6588 30.2544 28.7371 30.2866 28.8187 30.2866H46.9308L46.8429 30.4199H28.8187Z" fill="#3F2355"/>
<path d="M46.7625 30.5586H28.0078V24.8535H28.3624L28.3757 29.9801C28.3764 30.097 28.4233 30.2088 28.5063 30.2913C28.5892 30.3737 28.7013 30.4199 28.8182 30.4199H46.8424C46.8131 30.4679 46.7891 30.5106 46.7678 30.5506L46.7625 30.5586Z" fill="#3F2355"/>
<path d="M28.0078 30.5571H46.7625C46.7119 30.6424 46.6639 30.7304 46.6185 30.8237H27.9785V24.8574H28.0212L28.0078 30.5571Z" fill="#3F2355"/>
<path d="M28.0081 13.468C28.0087 13.1346 27.8808 12.8138 27.6509 12.5723C27.8684 12.7678 28.0422 13.0071 28.1607 13.2745C28.2793 13.5419 28.3399 13.8313 28.3387 14.1238L28.3627 24.8514H28.0081V13.468Z" fill="#3F2355"/>
<path d="M27.6294 12.5508C27.6382 12.5568 27.6458 12.5644 27.6518 12.5732L27.6294 12.5508Z" fill="#3F2355"/>
<path d="M27.2588 12.2832C27.3794 12.3388 27.4899 12.4143 27.5856 12.5064C27.4844 12.4212 27.3749 12.3464 27.2588 12.2832Z" fill="#3F2355"/>
<path d="M26.2783 13.1001H16.8677C16.9025 13.0488 16.9458 13.0037 16.9956 12.9668H26.2783C26.5814 12.9717 26.8703 13.0965 27.0816 13.3138C27.2929 13.5312 27.4096 13.8233 27.406 14.1265L27.446 30.983C27.446 31.0316 27.4556 31.0796 27.4743 31.1244C27.4929 31.1692 27.5203 31.2099 27.5547 31.2441C27.5891 31.2783 27.63 31.3054 27.675 31.3237C27.7199 31.342 27.768 31.3513 27.8166 31.3509H46.366C46.35 31.3962 46.3313 31.4389 46.3153 31.4842H27.8166C27.6834 31.4842 27.5556 31.4315 27.4612 31.3376C27.3668 31.2437 27.3134 31.1162 27.3127 30.983L27.2727 14.1265C27.2763 13.8587 27.1737 13.6004 26.9873 13.4081C26.801 13.2157 26.5461 13.105 26.2783 13.1001Z" fill="#3F2355"/>
<path d="M25.6272 20.9609H25.6592C25.7299 20.9609 25.7977 20.989 25.8477 21.039C25.8977 21.089 25.9258 21.1568 25.9258 21.2275C25.9258 21.2982 25.8977 21.366 25.8477 21.416C25.7977 21.466 25.7299 21.4941 25.6592 21.4941H25.2593V21.2569L25.3446 21.2275C25.4659 21.1726 25.5653 21.0788 25.6272 20.9609Z" fill="#3F2355"/>
<path d="M25.6259 20.9609C25.5643 21.0784 25.4652 21.1719 25.3443 21.2266H25.2593V20.9609H25.6259Z" fill="#3F2355"/>
<path d="M25.3447 21.2227L25.2593 21.252V21.2227H25.3447Z" fill="#3F2355"/>
<path d="M25.2601 21.4941V27.8417C25.2594 27.9996 25.1962 28.1508 25.0843 28.2622C24.9724 28.3736 24.8209 28.4362 24.663 28.4362H19.1339C19.0206 28.432 18.9107 28.3964 18.8166 28.3333C18.7224 28.2702 18.6476 28.1821 18.6007 28.0789C18.1284 26.9906 17.2753 26.1119 16.2014 25.6076C16.1191 25.5672 16.0503 25.504 16.003 25.4256C15.9557 25.3471 15.9321 25.2567 15.9348 25.1651V21.4941H25.2601ZM24.727 22.3126H23.5086C23.4689 22.301 23.427 22.2988 23.3863 22.3062C23.3456 22.3136 23.3071 22.3304 23.274 22.3552C23.2409 22.3801 23.2141 22.4123 23.1955 22.4493C23.177 22.4863 23.1674 22.5271 23.1674 22.5685C23.1674 22.6099 23.177 22.6507 23.1955 22.6877C23.2141 22.7247 23.2409 22.7569 23.274 22.7818C23.3071 22.8066 23.3456 22.8234 23.3863 22.8308C23.427 22.8382 23.4689 22.836 23.5086 22.8244H24.727C24.7667 22.836 24.8086 22.8382 24.8493 22.8308C24.89 22.8234 24.9284 22.8066 24.9616 22.7818C24.9947 22.7569 25.0215 22.7247 25.04 22.6877C25.0586 22.6507 25.0682 22.6099 25.0682 22.5685C25.0682 22.5271 25.0586 22.4863 25.04 22.4493C25.0215 22.4123 24.9947 22.3801 24.9616 22.3552C24.9284 22.3304 24.89 22.3136 24.8493 22.3062C24.8086 22.2988 24.7667 22.301 24.727 22.3126Z" fill="white"/>
<path d="M16.2085 21.2227H25.2726V21.252C25.2222 21.266 25.1702 21.2731 25.118 21.2733H16.4484C16.3658 21.2735 16.284 21.2563 16.2085 21.2227Z" fill="#3F2355"/>
<path d="M24.8784 14.3008H24.9451C25.1426 14.3008 25.332 14.3791 25.4719 14.5185C25.6119 14.6579 25.6908 14.8471 25.6915 15.0446V20.6883C25.6911 20.7555 25.6793 20.8222 25.6569 20.8856V15.2205C25.6573 14.9998 25.5792 14.7861 25.4366 14.6176C25.294 14.4491 25.0962 14.3368 24.8784 14.3008Z" fill="#3F2355"/>
<path d="M24.7334 22.3075C24.7731 22.2959 24.815 22.2938 24.8557 22.3012C24.8964 22.3086 24.9349 22.3254 24.968 22.3502C25.0011 22.375 25.028 22.4072 25.0465 22.4442C25.065 22.4813 25.0746 22.5221 25.0746 22.5635C25.0746 22.6049 25.065 22.6457 25.0465 22.6827C25.028 22.7197 25.0011 22.7519 24.968 22.7767C24.9349 22.8016 24.8964 22.8184 24.8557 22.8258C24.815 22.8332 24.7731 22.831 24.7334 22.8194H23.5151C23.4753 22.831 23.4335 22.8332 23.3927 22.8258C23.352 22.8184 23.3136 22.8016 23.2805 22.7767C23.2474 22.7519 23.2205 22.7197 23.202 22.6827C23.1835 22.6457 23.1738 22.6049 23.1738 22.5635C23.1738 22.5221 23.1835 22.4813 23.202 22.4442C23.2205 22.4072 23.2474 22.375 23.2805 22.3502C23.3136 22.3254 23.352 22.3086 23.3927 22.3012C23.4335 22.2938 23.4753 22.2959 23.5151 22.3075H24.7334Z" fill="#3F2355"/>
<path d="M17.0674 12.8301H26.2781C26.6165 12.835 26.9393 12.9738 27.1756 13.2161C27.4119 13.4585 27.5426 13.7846 27.5391 14.123L27.579 30.9796C27.579 31.0106 27.5852 31.0414 27.5972 31.07C27.6091 31.0986 27.6266 31.1246 27.6487 31.1464C27.6708 31.1682 27.6969 31.1855 27.7257 31.1971C27.7545 31.2087 27.7853 31.2145 27.8163 31.2142H46.4244C46.4057 31.2595 46.3871 31.3022 46.3657 31.3475H27.8163C27.7678 31.3478 27.7197 31.3386 27.6747 31.3203C27.6298 31.3019 27.5889 31.2749 27.5544 31.2407C27.52 31.2065 27.4927 31.1658 27.474 31.121C27.4554 31.0762 27.4458 31.0281 27.4458 30.9796L27.4058 14.123C27.4093 13.8199 27.2927 13.5277 27.0813 13.3104C26.87 13.0931 26.5812 12.9683 26.2781 12.9634H16.998L17.1047 12.8807L17.0674 12.8301Z" fill="#3F2355"/>
<path d="M26.278 12.8335H17.0673L16.7607 12.4336H26.278C26.7223 12.4378 27.1467 12.6182 27.4581 12.9351C27.7695 13.252 27.9424 13.6795 27.9389 14.1238L27.9656 24.8514V30.8177H46.6189C46.5496 30.9483 46.4856 31.0843 46.4243 31.2176H27.8163C27.7852 31.2179 27.7544 31.2121 27.7257 31.2005C27.6969 31.1889 27.6707 31.1716 27.6487 31.1498C27.6266 31.128 27.6091 31.102 27.5971 31.0734C27.5852 31.0448 27.579 31.014 27.579 30.983L27.539 14.1264C27.5426 13.788 27.4119 13.4619 27.1755 13.2195C26.9392 12.9772 26.6165 12.8384 26.278 12.8335Z" fill="#3F2355"/>
<path d="M16.918 12.854L16.8994 12.8301H17.0667L17.1039 12.8779L16.9977 12.9603H16.8037C16.8373 12.9203 16.8757 12.8846 16.918 12.854Z" fill="#3F2355"/>
<path d="M16.7124 13.0996C16.7359 13.0512 16.7664 13.0065 16.8027 12.9668H16.994C16.9444 13.0036 16.9012 13.0485 16.8665 13.0996H16.7124Z" fill="#3F2355"/>
<path d="M16.8026 12.9647H16.6353C16.6645 12.9197 16.6983 12.8778 16.7362 12.8398H16.9036L16.9222 12.8638C16.8783 12.8924 16.8382 12.9263 16.8026 12.9647Z" fill="#3F2355"/>
<path d="M16.7012 12.3535C16.908 12.2236 17.1474 12.1552 17.3916 12.1563H26.6957C26.8884 12.156 27.0788 12.1988 27.2528 12.2816C27.3694 12.345 27.4792 12.42 27.5807 12.5055L27.6234 12.5455L27.6447 12.5668C27.8746 12.8083 28.0026 13.1291 28.002 13.4626V24.846H27.9593L27.9326 14.1184C27.9355 13.6755 27.763 13.2494 27.4528 12.9333C27.1427 12.6171 26.72 12.4365 26.2771 12.4309H16.7598L16.7012 12.3535Z" fill="#3F2355"/>
<path d="M16.7006 12.3555L16.7587 12.4321H16.5923L16.7006 12.3555Z" fill="#3F2355"/>
<path d="M16.8979 12.8335L16.5913 12.4336H16.7593L17.0658 12.8335H16.8979Z" fill="#3F2355"/>
<path d="M16.5694 13.0804C16.5889 13.0411 16.6109 13.0031 16.6355 12.9668H16.8019C16.7657 13.0063 16.7355 13.0507 16.7121 13.0989H16.5615L16.5694 13.0804Z" fill="#3F2355"/>
<path d="M16.7015 12.3558L16.4536 12.0332H26.2775C26.6187 12.0329 26.9544 12.1191 27.2532 12.2838C27.0791 12.201 26.8888 12.1582 26.696 12.1585H17.392C17.1478 12.1575 16.9083 12.2259 16.7015 12.3558Z" fill="#3F2355"/>
<path d="M16.7306 12.8335L16.4214 12.4336H16.5893L16.8959 12.8335H16.7306Z" fill="#3F2355"/>
<path d="M16.4529 12.0337L16.3516 11.9004H26.2767C26.8624 11.9046 27.4225 12.1412 27.8339 12.558C28.2452 12.9749 28.4743 13.5381 28.4708 14.1238L28.4948 24.8514H28.3615L28.3375 14.1238C28.3387 13.8313 28.2781 13.5418 28.1596 13.2744C28.041 13.007 27.8673 12.7677 27.6497 12.5722C27.644 12.5638 27.6368 12.5566 27.6284 12.5509L27.5857 12.5109C27.4897 12.4185 27.3788 12.3428 27.2578 12.2869C26.959 12.1223 26.6233 12.0361 26.2821 12.0364L16.4529 12.0337Z" fill="#3F2355"/>
<path d="M16.2861 12.0332H16.4541L16.702 12.3558L16.5927 12.4331L16.2861 12.0332Z" fill="#3F2355"/>
<path d="M16.7307 12.8335H15.8003L15.8456 12.7375C15.8979 12.6298 15.9613 12.528 16.0349 12.4336H16.4135L16.7307 12.8335Z" fill="#3F2355"/>
<path d="M16.2916 11.8203L16.3501 11.8975H16.1958L16.2916 11.8203Z" fill="#3F2355"/>
<path d="M16.2656 12.0078L16.284 12.0314H16.2368L16.2656 12.0078Z" fill="#3F2355"/>
<path d="M16.0352 12.4343C16.0966 12.3499 16.167 12.2724 16.245 12.2031L16.4231 12.4343H16.0352Z" fill="#3F2355"/>
<path d="M15.8818 12.4331C15.9827 12.2821 16.1058 12.1473 16.2471 12.0332H16.2951L16.6016 12.4331H16.415L16.2364 12.2012C16.158 12.2706 16.0874 12.3484 16.0258 12.4331H15.8818Z" fill="#3F2355"/>
<path d="M16.2085 21.2275C16.0919 21.1716 15.9978 21.0776 15.9419 20.9609H25.2726V21.2275H16.2085Z" fill="#3F2355"/>
<path d="M16.2375 12.0362H16.0376C16.0856 11.9908 16.1362 11.9482 16.1869 11.9082H16.3442L16.4455 12.0415H16.2775L16.2589 12.0175L16.2375 12.0362Z" fill="#3F2355"/>
<path d="M15.71 12.4338C15.8007 12.2859 15.9112 12.1512 16.0385 12.0332H16.2388C16.0973 12.1475 15.9739 12.2826 15.8729 12.4338H15.71Z" fill="#3F2355"/>
<path d="M15.9955 20.5426L18.5734 14.9921C18.6164 14.9005 18.6847 14.823 18.7701 14.7687C18.8556 14.7144 18.9547 14.6856 19.0559 14.6855H24.7263C24.7556 14.6855 24.785 14.6855 24.8143 14.6855C24.94 14.7066 25.054 14.7719 25.1356 14.8697C25.2173 14.9675 25.2612 15.0913 25.2595 15.2187V20.9584H15.9288C15.921 20.9469 15.9147 20.9343 15.9102 20.9211C15.9108 20.7902 15.9399 20.6611 15.9955 20.5426Z" fill="#DEDFE0"/>
<path d="M25.2595 21.4941H15.9102V20.9609H15.9288C15.9847 21.0776 16.0788 21.1716 16.1954 21.2275C16.2709 21.2611 16.3527 21.2784 16.4353 21.2782H25.1049C25.1571 21.278 25.2091 21.2708 25.2595 21.2569V21.4941Z" fill="#3F2355"/>
<path d="M15.9104 20.9229C15.8774 20.8486 15.8604 20.7682 15.8604 20.687C15.8604 20.6057 15.8774 20.5253 15.9104 20.451L18.4057 14.746C18.4645 14.6134 18.5606 14.5008 18.6822 14.4218C18.8038 14.3427 18.9458 14.3007 19.0908 14.3008H24.8785C25.0968 14.3363 25.2953 14.4483 25.4384 14.6169C25.5815 14.7854 25.66 14.9994 25.6596 15.2205V20.8856C25.6517 20.9115 25.641 20.9366 25.6276 20.9602H25.2597V15.2205C25.2615 15.0931 25.2176 14.9693 25.1359 14.8715C25.0542 14.7737 24.9402 14.7083 24.8145 14.6873C24.7852 14.6873 24.7559 14.6873 24.7266 14.6873H19.0562C18.9549 14.6874 18.8558 14.7162 18.7703 14.7705C18.6849 14.8248 18.6167 14.9023 18.5736 14.9939L15.9957 20.5443C15.9401 20.6628 15.911 20.792 15.9104 20.9229Z" fill="#3F2355"/>
<path d="M15.6138 21.4941C15.5431 21.4941 15.4752 21.466 15.4253 21.416C15.3753 21.366 15.3472 21.2982 15.3472 21.2275C15.3472 21.1568 15.3753 21.089 15.4253 21.039C15.4752 20.989 15.5431 20.9609 15.6138 20.9609H15.9203V21.4941H15.6138Z" fill="#3F2355"/>
<path d="M16.6352 12.9634H15.7368L15.8008 12.8301H16.7312C16.6945 12.871 16.6624 12.9156 16.6352 12.9634Z" fill="#3F2355"/>
<path d="M15.7364 12.9668H16.6348C16.6101 13.0035 16.5878 13.0418 16.5682 13.0814V13.1001H15.6831L15.7364 12.9668Z" fill="#3F2355"/>
<path d="M15.7346 12.9621H15.5894L15.6527 12.8301H15.7954L15.7346 12.9621Z" fill="#3F2355"/>
<path d="M15.7255 12.6807C15.7676 12.5951 15.8155 12.5125 15.869 12.4336H16.0337C15.9604 12.5276 15.8972 12.6292 15.8451 12.7365L15.7999 12.8321H15.6538L15.7255 12.6807Z" fill="#3F2355"/>
<path d="M15.5891 12.9668H15.7343L15.671 13.0989H15.5283L15.5891 12.9668Z" fill="#3F2355"/>
<path d="M15.6534 12.8321H15.5073L15.6056 12.6222C15.6375 12.5585 15.672 12.4947 15.7092 12.4336H15.8687C15.8152 12.5125 15.7672 12.5951 15.7252 12.6807L15.6534 12.8321Z" fill="#3F2355"/>
<path d="M15.5033 12.8301H15.6512L15.5879 12.9621H15.4399L15.5033 12.8301Z" fill="#3F2355"/>
<path d="M15.5273 13.0989H15.3794L15.4401 12.9668H15.5881L15.5273 13.0989Z" fill="#3F2355"/>
<path d="M15.1099 20.9281C15.111 20.6786 15.1656 20.4323 15.2698 20.2056L17.8478 14.6552C17.9548 14.4252 18.1254 14.2305 18.3393 14.094C18.5532 13.9575 18.8017 13.8849 19.0554 13.8848H24.7258C24.7981 13.8857 24.8703 13.8919 24.9417 13.9034C25.2535 13.9546 25.5369 14.1148 25.7415 14.3555C25.9461 14.5963 26.0585 14.9018 26.0587 15.2177V21.224H25.9255C25.9255 21.1533 25.8974 21.0855 25.8474 21.0355C25.7974 20.9855 25.7296 20.9574 25.6589 20.9574H25.6269C25.6402 20.9338 25.651 20.9088 25.6589 20.8828C25.6813 20.8194 25.6931 20.7527 25.6935 20.6855V15.0418C25.6928 14.8443 25.6139 14.6551 25.4739 14.5157C25.334 14.3763 25.1446 14.298 24.9471 14.298H19.0794C18.9344 14.2979 18.7924 14.3399 18.6708 14.419C18.5492 14.498 18.4531 14.6106 18.3943 14.7432L15.899 20.4482C15.866 20.5225 15.8489 20.6029 15.8489 20.6842C15.8489 20.7655 15.866 20.8458 15.899 20.9201V20.9574H15.6137C15.543 20.9574 15.4752 20.9855 15.4252 21.0355C15.3752 21.0855 15.3471 21.1533 15.3471 21.224H15.1205L15.1099 20.9281Z" fill="#3F2355"/>
<path d="M15.1099 25.1602V21.2227H15.3471C15.3471 21.2934 15.3752 21.3612 15.4252 21.4112C15.4752 21.4612 15.543 21.4892 15.6137 21.4892H15.9203V25.1602C15.9176 25.2518 15.9413 25.3422 15.9885 25.4207C16.0358 25.4991 16.1047 25.5624 16.1869 25.6027C17.2608 26.107 18.1139 26.9857 18.5862 28.074C18.6332 28.1772 18.7079 28.2653 18.8021 28.3284C18.8963 28.3915 19.0061 28.4271 19.1194 28.4313H24.6485C24.8064 28.4313 24.9579 28.3687 25.0698 28.2573C25.1817 28.1459 25.245 27.9947 25.2457 27.8368V21.4892H25.6456C25.7163 21.4892 25.7841 21.4612 25.8341 21.4112C25.8841 21.3612 25.9122 21.2934 25.9122 21.2227H26.0454V27.8368C26.0447 28.2068 25.8973 28.5614 25.6354 28.8228C25.3735 29.0842 25.0185 29.231 24.6485 29.231H19.1327C18.8647 29.2289 18.6029 29.1505 18.3777 29.0052C18.1525 28.8598 17.9734 28.6533 17.8611 28.4099C17.4705 27.4977 16.7605 26.7593 15.8643 26.3332C15.6386 26.2316 15.4472 26.0667 15.3133 25.8585C15.1793 25.6503 15.1087 25.4077 15.1099 25.1602Z" fill="#3F2355"/>
<path d="M12.7487 9.463C12.6807 9.74175 12.677 10.0323 12.738 10.3127C12.799 10.5931 12.923 10.8559 13.1006 11.0812C13.2683 11.2957 13.4828 11.4691 13.7276 11.5883C13.9724 11.7075 14.2412 11.7693 14.5135 11.769H26.2782C26.899 11.7739 27.4925 12.0248 27.9288 12.4665C28.365 12.9082 28.6084 13.5049 28.6055 14.1257L28.6295 24.8533H28.4962L28.4722 14.1257C28.4758 13.54 28.2467 12.9769 27.8353 12.56C27.4239 12.1431 26.8639 11.9065 26.2782 11.9023H16.353L16.2944 11.825L16.1957 11.9023H14.5135C14.2212 11.9027 13.9326 11.8364 13.6697 11.7084C13.4069 11.5804 13.1767 11.3942 12.9966 11.1639C12.8056 10.9235 12.6721 10.6426 12.6065 10.3427C12.5409 10.0428 12.5448 9.73183 12.6181 9.43368C12.6181 9.40435 12.6181 9.37503 12.6421 9.3457H12.7807C12.7679 9.38419 12.7572 9.42335 12.7487 9.463Z" fill="#3F2355"/>
<path d="M12.7802 9.34747H12.6416C12.6539 9.30214 12.6691 9.25762 12.6869 9.21418L14.0199 5.59387C14.2113 5.05963 14.5466 4.58868 14.9888 4.23302C15.4311 3.87736 15.963 3.65083 16.5258 3.57845L29.7781 1.89626C30.0433 1.86282 30.3111 1.85479 30.5778 1.87227L66.0344 4.25026C66.4995 4.28819 66.9377 4.4834 67.2769 4.80371C67.6161 5.12403 67.8361 5.55035 67.9006 6.01242L68.3991 9.34747H68.2658L67.7833 6.03108C67.7222 5.59823 67.5154 5.19912 67.197 4.89961C66.8786 4.6001 66.4676 4.41807 66.0318 4.38355L30.5752 2.00556C30.3174 1.98861 30.0585 1.99575 29.8021 2.02689L16.5498 3.70908C16.0107 3.77898 15.5013 3.99646 15.0779 4.33751C14.6545 4.67857 14.3336 5.12995 14.1505 5.64186L12.8176 9.2595C12.8033 9.29149 12.7909 9.32081 12.7802 9.34747Z" fill="#3F2355"/>
<path d="M12.8903 11.2465C12.6869 10.9906 12.5451 10.6914 12.4758 10.372C12.4065 10.0526 12.4115 9.72152 12.4904 9.40435C12.4904 9.38569 12.4904 9.36703 12.5064 9.3457H12.6424C12.6424 9.37503 12.6264 9.40435 12.6184 9.43368C12.5452 9.73183 12.5412 10.0428 12.6068 10.3427C12.6725 10.6426 12.8059 10.9235 12.9969 11.1639C13.177 11.3942 13.4072 11.5804 13.67 11.7084C13.9329 11.8364 14.2215 11.9027 14.5138 11.9023H16.196C16.1454 11.9423 16.0947 11.985 16.0467 12.0303H14.5218C14.2082 12.0322 13.8982 11.9626 13.6155 11.8268C13.3328 11.691 13.0848 11.4925 12.8903 11.2465Z" fill="#3F2355"/>
<path d="M12.5063 9.34299C12.5213 9.28234 12.54 9.22269 12.5623 9.16437L13.8953 5.54407C14.0936 4.98564 14.4432 4.49328 14.9049 4.12188C15.3667 3.75048 15.9226 3.51464 16.5105 3.44066L29.7601 1.75847C30.0342 1.72373 30.3109 1.7157 30.5865 1.73448L66.0431 4.11247C66.5382 4.1513 67.0053 4.35708 67.3681 4.69612C67.7308 5.03516 67.9677 5.48735 68.0399 5.97861L68.5278 9.33499H68.3998L67.9146 5.99994C67.8501 5.53787 67.6301 5.11155 67.2909 4.79123C66.9517 4.47091 66.5135 4.27571 66.0485 4.23777L30.5919 1.85978C30.3251 1.8423 30.0573 1.85033 29.7921 1.88377L16.5399 3.56596C15.977 3.63835 15.4451 3.86487 15.0029 4.22053C14.5607 4.57619 14.2253 5.04715 14.0339 5.58139L12.701 9.2017C12.6831 9.24514 12.668 9.28966 12.6556 9.33499L12.5063 9.34299Z" fill="#3F2355"/>
<path d="M12.5605 9.1677C12.5382 9.22601 12.5195 9.28567 12.5046 9.34631H12.1953L12.0967 9.32232C12.1186 9.2225 12.148 9.12448 12.1847 9.02907L13.5176 5.40876C13.7435 4.78443 14.1364 4.23406 14.6535 3.81758C15.1705 3.4011 15.792 3.13448 16.4501 3.04677L29.7023 1.36458C30.0012 1.3277 30.3029 1.31878 30.6034 1.33792L46.6469 2.40428L46.8735 2.42028L56.0042 3.03077V3.0521H56.3055L63.9033 3.56129L64.1699 3.57995L66.0653 3.70792C66.654 3.75069 67.2101 3.99435 67.6405 4.39812C68.071 4.80188 68.3497 5.34125 68.43 5.92595L68.462 6.14989L68.9259 9.34898H68.5233L68.0354 5.9926C67.9633 5.50134 67.7264 5.04915 67.3636 4.71011C67.0009 4.37107 66.5337 4.16529 66.0387 4.12646L30.5821 1.74847C30.3065 1.72969 30.0297 1.73772 29.7557 1.77246L16.5061 3.45465C15.9187 3.52818 15.3633 3.76322 14.9016 4.13363C14.4399 4.50404 14.09 4.99529 13.8908 5.55272L12.5605 9.1677Z" fill="#3F2355"/>
<path d="M12.4904 9.4001C12.4114 9.71727 12.4064 10.0483 12.4758 10.3678C12.5451 10.6872 12.6869 10.9864 12.8903 11.2422C13.0823 11.4902 13.3284 11.6911 13.6097 11.8296C13.891 11.9682 14.2002 12.0409 14.5138 12.042H16.0387C15.9117 12.1598 15.8014 12.2943 15.7108 12.4419H14.5138C14.1349 12.438 13.7617 12.3484 13.4222 12.1799C13.0827 12.0114 12.7857 11.7684 12.5534 11.4689C12.3211 11.1695 12.1596 10.8213 12.0808 10.4506C12.002 10.0799 12.0081 9.69617 12.0985 9.32812L12.1972 9.35212H12.5064C12.4984 9.36278 12.4957 9.38144 12.4904 9.4001Z" fill="#3F2355"/>
<path d="M14.5132 12.8317C14.0797 12.8329 13.6517 12.735 13.2617 12.5456C12.8718 12.3561 12.5303 12.0802 12.2632 11.7387C11.9852 11.3891 11.7908 10.9807 11.6947 10.5446C11.5986 10.1084 11.6034 9.6561 11.7087 9.22209C11.7354 9.10695 11.7701 8.99382 11.8126 8.88352L13.1456 5.26588C13.3966 4.57069 13.8345 3.95821 14.4112 3.49586C14.9878 3.0335 15.6809 2.73918 16.414 2.64529L29.6662 0.963104C29.8795 0.938561 30.094 0.9261 30.3087 0.925781C30.4207 0.925781 30.53 0.925781 30.6419 0.925781L46.5414 1.99215C46.5027 2.02106 46.4705 2.05788 46.4471 2.10017C46.4236 2.14245 46.4095 2.18923 46.4055 2.23741L46.9386 2.28006C46.9367 2.32306 46.9208 2.36425 46.8933 2.39736V2.41336L46.6667 2.39736L30.6233 1.331C30.3228 1.31186 30.0211 1.32078 29.7222 1.35766L16.4567 3.04251C15.7985 3.13023 15.1771 3.39684 14.66 3.81332C14.1429 4.2298 13.7501 4.78018 13.5242 5.40451L12.1912 9.02482C12.1546 9.12023 12.1252 9.21825 12.1032 9.31807C12.0128 9.68611 12.0067 10.0698 12.0855 10.4406C12.1643 10.8113 12.3258 11.1594 12.5581 11.4589C12.7904 11.7583 13.0874 12.0014 13.4269 12.1699C13.7664 12.3384 14.1396 12.4279 14.5185 12.4318H15.7155C15.6782 12.4932 15.6435 12.5571 15.6116 12.6211L15.5129 12.8317H14.5132Z" fill="#3F2355"/>
<path d="M12.1478 11.8239C11.8581 11.459 11.6552 11.0329 11.5545 10.5779C11.4538 10.123 11.458 9.6511 11.5666 9.19799C11.5943 9.0764 11.6308 8.957 11.6759 8.84076L13.0089 5.22312C13.2676 4.50493 13.7196 3.87217 14.3152 3.39468C14.9108 2.91719 15.6267 2.61353 16.3839 2.51722L29.6362 0.835035C29.9678 0.794452 30.3025 0.784635 30.6359 0.80571L46.7353 1.87207C46.6609 1.9013 46.5909 1.94078 46.5274 1.98937L30.6279 0.923009C30.5159 0.923009 30.4066 0.923009 30.2947 0.923009C30.08 0.923328 29.8655 0.935789 29.6522 0.960332L16.4133 2.64785C15.6806 2.7422 14.9881 3.03673 14.412 3.49906C13.8359 3.96139 13.3983 4.57361 13.1475 5.26844L11.8146 8.88608C11.7721 8.99638 11.7373 9.10951 11.7106 9.22465C11.6053 9.65866 11.6005 10.111 11.6966 10.5471C11.7927 10.9833 11.9871 11.3917 12.2651 11.7413C12.5322 12.0827 12.8737 12.3587 13.2637 12.5481C13.6536 12.7375 14.0816 12.8354 14.5151 12.8343H15.5095L15.4455 12.9676H14.5151C14.0594 12.9707 13.609 12.8691 13.1986 12.6709C12.7882 12.4726 12.4287 12.1829 12.1478 11.8239Z" fill="#3F2355"/>
<path d="M11.5771 9.19647C11.467 9.64878 11.4611 10.1202 11.5599 10.5751C11.6588 11.0301 11.8597 11.4566 12.1476 11.8224C12.4271 12.1796 12.7845 12.4682 13.1924 12.6664C13.6003 12.8646 14.0481 12.9671 14.5016 12.9661H15.432L15.3681 13.0994H14.5016C14.0277 13.1005 13.5597 12.9935 13.1333 12.7866C12.7069 12.5796 12.3333 12.2781 12.041 11.905C11.7389 11.524 11.5276 11.0792 11.4232 10.6043C11.3188 10.1295 11.3241 9.63704 11.4385 9.16448C11.4666 9.03748 11.504 8.91274 11.5505 8.79125L12.8834 5.17628C13.1514 4.43536 13.6183 3.78261 14.233 3.28974C14.8477 2.79686 15.5863 2.48292 16.3678 2.3824L29.6173 0.700216C29.9579 0.659711 30.3014 0.649896 30.6437 0.670891L47.1057 1.77458C46.979 1.79916 46.8549 1.83576 46.7352 1.88388L30.6357 0.817515C30.3023 0.796441 29.9676 0.806258 29.636 0.846841L16.3838 2.52903C15.6265 2.62534 14.9106 2.929 14.315 3.40649C13.7195 3.88398 13.2674 4.51674 13.0087 5.23493L11.6758 8.85257C11.6349 8.96475 11.6019 9.07966 11.5771 9.19647Z" fill="#3F2355"/>
<path d="M10.1962 38.7344C9.10346 39.1643 7.89956 39.2223 6.77051 38.8997C7.77822 38.841 8.92723 38.7877 10.1962 38.7344Z" fill="#3F2355"/>
<path d="M8.22851 39.6389C9.36396 39.6368 10.4747 39.3073 11.4276 38.6898C17.4179 38.4712 25.7435 38.3379 34.9223 38.3379C39.4863 38.3379 43.8371 38.3725 47.7906 38.4312C48.7882 39.4269 50.0857 40.0667 51.4829 40.252C51.7762 40.2922 52.0719 40.3127 52.368 40.3133V40.5159C47.3027 40.6279 41.3231 40.6946 34.9169 40.6946C16.6794 40.6946 1.89697 40.1614 1.89697 39.5162C1.89697 39.3216 3.20327 39.1403 5.51994 38.983C6.356 39.4139 7.28261 39.6397 8.22318 39.6415L8.22851 39.6389Z" fill="#DEDFE0"/>
<path d="M6.62663 35.8483L6.50175 36.0795L6.47519 36.0582C6.44572 36.0376 6.41734 36.0154 6.39017 35.9918C6.345 35.9546 6.29983 35.9174 6.25732 35.8775L6.43799 35.6836L6.55755 35.7872C6.57934 35.8089 6.60241 35.8293 6.62663 35.8483Z" fill="#3F2355"/>
<path d="M6.2207 39.284C5.98242 39.1979 5.74999 39.0963 5.5249 38.98L6.76988 38.9001C7.89893 39.2228 9.10283 39.1647 10.1956 38.7348L11.4325 38.6895C10.4797 39.3069 9.36891 39.6365 8.23346 39.6385C7.54686 39.6402 6.86539 39.5202 6.2207 39.284Z" fill="#3F2355"/>
<path d="M5.44629 32.9236C5.46235 32.87 5.47574 32.8192 5.49715 32.7656C5.48377 32.8165 5.46235 32.87 5.44629 32.9236Z" fill="#3F2355"/>
<path d="M5.343 33.4212L5.60959 33.4452C5.60959 33.4132 5.60959 33.3785 5.60959 33.3465V33.3066C5.60959 33.2559 5.62825 33.2052 5.64158 33.1519C5.65491 33.0986 5.66557 33.0586 5.68423 33C5.7029 32.9413 5.71622 32.8987 5.73222 32.8507C5.91072 32.3596 6.23083 31.9325 6.65206 31.6234C7.07329 31.3142 7.57673 31.1369 8.09872 31.1139C8.62072 31.0909 9.13782 31.2231 9.58464 31.494C10.0315 31.7648 10.3879 32.1621 10.609 32.6355C10.8301 33.1089 10.9058 33.6373 10.8266 34.1537C10.7474 34.6702 10.5168 35.1516 10.164 35.537C9.81122 35.9224 9.35208 36.1946 8.84463 36.3191C8.33717 36.4436 7.8042 36.4148 7.3131 36.2364L7.15848 36.1777L7.1025 36.1511L6.95054 36.0764C6.88123 36.0364 6.81725 35.9965 6.73194 35.9405C6.70672 35.9254 6.68266 35.9085 6.65996 35.8898L6.63596 35.8738L6.48401 36.0844L6.6093 35.8525C6.58424 35.8353 6.56021 35.8166 6.53732 35.7965L6.41736 35.6925L6.23608 35.8872C5.90603 35.5736 5.65351 35.1876 5.4985 34.7596C5.34349 34.3316 5.29025 33.8733 5.343 33.4212Z" fill="white"/>
<path d="M5.3418 33.4204C5.3418 33.3644 5.35779 33.3084 5.36579 33.2551C5.37379 33.2018 5.38712 33.1458 5.40045 33.0898C5.41273 33.034 5.42785 32.9788 5.44577 32.9245C5.46176 32.8712 5.47776 32.8179 5.49642 32.7672C5.69386 32.2272 6.04695 31.7578 6.51108 31.4183C6.9752 31.0789 7.52953 30.8846 8.10402 30.8601C8.67851 30.8355 9.24737 30.9818 9.73874 31.2805C10.2301 31.5792 10.6219 32.0168 10.8647 32.538C11.1074 33.0593 11.1902 33.6408 11.1026 34.2091C11.015 34.7774 10.7609 35.307 10.3724 35.7309C9.98396 36.1548 9.47854 36.4541 8.92004 36.5909C8.36154 36.7277 7.77502 36.6959 7.23459 36.4995C7.16261 36.4728 7.0933 36.4462 7.02398 36.4142C6.96113 36.3872 6.89973 36.3569 6.84004 36.3235C6.76539 36.2809 6.69341 36.2382 6.6241 36.1902C6.5869 36.1678 6.55128 36.1429 6.51746 36.1156L6.66942 35.905L6.69341 35.921C6.71611 35.9396 6.74017 35.9566 6.76539 35.9716C6.8507 36.0276 6.91468 36.0676 6.98399 36.1076L7.13595 36.1823L7.19194 36.2089L7.34656 36.2676C7.67231 36.3861 8.01824 36.4393 8.36457 36.4242C8.7109 36.409 9.05085 36.3258 9.36501 36.1793C9.67917 36.0327 9.96137 35.8257 10.1955 35.57C10.4297 35.3144 10.6111 35.0151 10.7296 34.6893C10.8504 34.3624 10.9056 34.0148 10.892 33.6665C10.8785 33.3181 10.7965 32.9759 10.6507 32.6593C10.5048 32.3427 10.2981 32.0579 10.0422 31.8212C9.78635 31.5844 9.48636 31.4004 9.15937 31.2796C8.83239 31.1589 8.48481 31.1037 8.1365 31.1172C7.78818 31.1308 7.44594 31.2128 7.12932 31.3586C6.8127 31.5044 6.5279 31.7111 6.29118 31.967C6.05446 32.2229 5.87046 32.5229 5.74968 32.8499C5.73368 32.8979 5.71502 32.9485 5.70169 32.9992C5.68836 33.0498 5.6697 33.1058 5.65904 33.1511C5.64838 33.1964 5.63771 33.2551 5.62705 33.3057V33.3457C5.62705 33.3777 5.62705 33.4124 5.62705 33.4444L5.3418 33.4204Z" fill="#3F2355"/>
<path d="M5.40092 33.0883C5.40092 33.1443 5.37693 33.1976 5.36627 33.2536C5.3556 33.3096 5.34761 33.3629 5.34227 33.4189L5.07568 33.3949C5.07568 33.3496 5.07568 33.3016 5.09434 33.2563V33.2136C5.10767 33.1443 5.121 33.083 5.13433 33.0243C5.1478 32.9604 5.16471 32.8972 5.18498 32.8351C5.18498 32.7897 5.21964 32.7284 5.24097 32.6698C5.44107 32.1266 5.78609 31.6486 6.23861 31.2876C6.69113 30.9266 7.23386 30.6964 7.80793 30.622C8.382 30.5476 8.96548 30.6318 9.49507 30.8655C10.0247 31.0992 10.4801 31.4735 10.8121 31.9477C11.1441 32.422 11.3398 32.978 11.3781 33.5556C11.4165 34.1332 11.2959 34.7103 11.0295 35.2242C10.7631 35.7381 10.361 36.1693 9.86696 36.4709C9.37289 36.7726 8.80565 36.9331 8.22679 36.9352C7.85568 36.9339 7.48763 36.8681 7.13909 36.7406C7.05912 36.7113 6.98181 36.682 6.90716 36.6473L6.86984 36.6286L6.69922 36.5433C6.61662 36.4979 6.53652 36.4481 6.45929 36.394C6.41967 36.3704 6.3814 36.3446 6.34466 36.3167L6.29667 36.2794C6.26302 36.2558 6.23096 36.2299 6.2007 36.2021C6.15325 36.1655 6.10786 36.1264 6.06473 36.0848L6.24602 35.8902C6.28867 35.9302 6.33399 35.9675 6.37931 36.0048C6.40658 36.0285 6.43505 36.0507 6.46462 36.0715L6.49128 36.0928C6.52509 36.1201 6.56072 36.145 6.59792 36.1674C6.66723 36.2154 6.73921 36.2581 6.81385 36.3007C6.87355 36.3341 6.93495 36.3644 6.9978 36.3914C7.06712 36.4234 7.13643 36.45 7.20841 36.4767C7.74883 36.6731 8.33535 36.7049 8.89386 36.5681C9.45236 36.4313 9.95778 36.132 10.3463 35.7081C10.7347 35.2842 10.9888 34.7546 11.0764 34.1863C11.1641 33.618 11.0813 33.0365 10.8385 32.5152C10.5957 31.994 10.2039 31.5564 9.71256 31.2577C9.22119 30.959 8.65233 30.8127 8.07784 30.8373C7.50335 30.8618 6.94902 31.056 6.4849 31.3955C6.02077 31.7349 5.66768 32.2044 5.47024 32.7444C5.44891 32.7977 5.43558 32.8484 5.41959 32.9017C5.40989 32.9635 5.40366 33.0258 5.40092 33.0883Z" fill="#3F2355"/>
<path d="M5.34075 33.4166C5.29033 33.8702 5.3465 34.3294 5.50479 34.7575C5.66307 35.1856 5.9191 35.5708 6.25249 35.8826L6.07121 36.0772C6.11433 36.1188 6.15972 36.1579 6.20717 36.1945C6.23744 36.2223 6.2695 36.2481 6.30315 36.2718L6.35113 36.3091C6.38788 36.337 6.42615 36.3628 6.46577 36.3864C6.543 36.4405 6.62309 36.4903 6.7057 36.5357L6.87632 36.621L6.91364 36.6397C6.98829 36.6743 7.0656 36.7037 7.14557 36.733C7.49411 36.8605 7.86216 36.9263 8.23327 36.9276C8.81376 36.9269 9.38295 36.7671 9.87896 36.4655C10.375 36.1639 10.7788 35.7322 11.0466 35.2171C11.3143 34.7021 11.4358 34.1235 11.3977 33.5442C11.3596 32.965 11.1635 32.4073 10.8306 31.9317C10.4977 31.4562 10.0408 31.081 9.50959 30.8469C8.97837 30.6129 8.39315 30.5289 7.81757 30.6042C7.24198 30.6795 6.69805 30.9112 6.24492 31.274C5.79179 31.6369 5.44679 32.117 5.24745 32.6621C5.22612 32.7208 5.20479 32.7821 5.19146 32.8274C5.17119 32.8896 5.15428 32.9528 5.14081 33.0167C5.14081 33.0754 5.11415 33.1367 5.10082 33.206V33.2486C5.10082 33.294 5.08749 33.342 5.08216 33.3873L5.34075 33.4166ZM9.8728 29.2151C10.9992 29.6281 11.9301 30.4481 12.4819 31.5134C13.0338 32.5787 13.1665 33.812 12.854 34.9704C12.5415 36.1287 11.8065 37.128 10.7937 37.7712C9.78099 38.4144 8.56403 38.6549 7.38273 38.4454C6.20143 38.2358 5.1415 37.5913 4.41184 36.6389C3.68218 35.6866 3.33574 34.4954 3.44081 33.3003C3.54587 32.1052 4.09482 30.9927 4.97944 30.1823C5.86406 29.3718 7.02019 28.9221 8.21994 28.9219C8.78646 28.9215 9.34864 29.0208 9.8808 29.2151H9.8728Z" fill="#DEDFE0"/>
<path d="M10.0635 28.7149C11.0858 29.0867 11.9707 29.7607 12.6006 30.6475C13.2306 31.5343 13.5757 32.5918 13.5902 33.6795C13.6047 34.7671 13.2878 35.8334 12.6816 36.7366C12.0755 37.6399 11.2088 38.3372 10.1968 38.7361C8.92783 38.7894 7.77883 38.8427 6.77111 38.9013C6.64848 38.8667 6.52585 38.8294 6.40322 38.784C5.06796 38.2987 3.98022 37.3027 3.37928 36.0153C2.77833 34.728 2.71341 33.2546 3.19879 31.9193C3.68418 30.5841 4.68011 29.4963 5.96749 28.8954C7.25488 28.2944 8.72826 28.2295 10.0635 28.7149ZM6.5845 38.2828C7.54781 38.6326 8.59753 38.6662 9.58123 38.3787C10.5649 38.0913 11.4314 37.4978 12.0549 36.6844C12.6783 35.871 13.0263 34.8801 13.0482 33.8555C13.0702 32.8309 12.765 31.826 12.1769 30.9866C11.5889 30.1473 10.7486 29.5172 9.77816 29.1879C8.80767 28.8586 7.75748 28.8472 6.78007 29.1553C5.80266 29.4635 4.94891 30.0752 4.34278 30.9015C3.73665 31.7279 3.4097 32.726 3.4094 33.7508C3.41025 34.7406 3.7153 35.7062 4.28323 36.5169C4.85116 37.3275 5.65452 37.944 6.5845 38.2828Z" fill="#3F2355"/>
<path d="M13.7696 35.765C13.3349 36.9728 12.5141 38.0035 11.4343 38.6975L10.1973 38.7429C11.3643 38.2842 12.3335 37.4308 12.9361 36.3312C13.5388 35.2316 13.7367 33.9555 13.4955 32.725C13.2543 31.4945 12.5892 30.3876 11.616 29.5969C10.6428 28.8062 9.42314 28.3819 8.16934 28.3977C6.91553 28.4136 5.70699 28.8687 4.75411 29.6837C3.80122 30.4987 3.16434 31.6221 2.95433 32.8583C2.74432 34.0945 2.97448 35.3652 3.60475 36.4492C4.23502 37.5332 5.22548 38.3618 6.4037 38.7909C6.52634 38.8362 6.64897 38.8735 6.7716 38.9082L5.52662 38.9881C4.25739 38.3294 3.27077 37.2318 2.75043 35.8999C2.23009 34.5679 2.21149 33.0922 2.69809 31.7475C2.79748 31.4726 2.91688 31.2053 3.05532 30.9478C3.72954 29.7064 4.82697 28.7483 6.14797 28.2478C7.46897 27.7473 8.92575 27.7376 10.2533 28.2205C11.4712 28.6645 12.5091 29.4973 13.2063 30.5902C13.9036 31.6831 14.2215 32.9752 14.1109 34.2668C14.1109 34.3308 14.1109 34.3921 14.0922 34.4561C14.0345 34.9032 13.9262 35.3423 13.7696 35.765Z" fill="#3F2355"/>
<path d="M1.52415 25.7978V27.2188H1.84672L1.99335 25.8085H1.52415V25.7978ZM2.81178 25.6645L2.64649 27.2641C2.63756 27.4701 2.54937 27.6647 2.40034 27.8073C2.25131 27.9499 2.05296 28.0294 1.84672 28.0292H1.38818V25.0407L1.40951 24.998H1.85738C2.49454 24.998 2.81445 25.2087 2.81445 25.6219L2.81178 25.6645Z" fill="#3F2355"/>
<path d="M11.8825 21.4119C12.1823 21.3653 12.4662 21.2462 12.7097 21.065C12.9531 20.8838 13.1486 20.646 13.2794 20.3722L16.6811 13.1396C16.6871 13.1252 16.6952 13.1117 16.7051 13.0996H16.8597C16.8371 13.1296 16.8175 13.1618 16.8011 13.1956L13.3807 20.4282C13.2418 20.723 13.0325 20.9791 12.7712 21.1739C12.5099 21.3687 12.2047 21.4962 11.8825 21.5452C6.1801 22.425 2.01861 23.8032 1.41079 24.9949H1.26416C1.78135 23.7473 6.00148 22.3183 11.8825 21.4119Z" fill="#3F2355"/>
<path d="M1.25635 28.0185V25.014V24.998H1.40297L1.38165 25.0407V28.0185H1.25635Z" fill="#3F2355"/>
<path d="M15.7737 30.3459C15.4458 29.2795 14.0302 25.9045 9.23421 25.5872C6.44034 25.4006 2.87335 26.0298 1.46575 29.9833H1.25781V28.0292H1.39111V29.8127C2.86269 25.8831 6.45634 25.2806 9.24488 25.4566C14.1342 25.7818 15.5764 29.2528 15.9097 30.3112C16.2082 31.1323 16.3629 33.1477 16.0669 35.2725C16.2482 35.4218 16.8374 35.5391 17.2613 35.5391L44.6882 35.5977V36.2909H44.5549V35.731L17.2479 35.6777C16.8214 35.6777 16.1309 35.5524 15.939 35.3445C15.923 35.3258 15.9177 35.3178 15.9177 35.3098C16.2109 33.2517 16.0749 31.183 15.7737 30.3459Z" fill="#3F2355"/>
<path d="M1.12891 24.998H1.2622V25.014V28.0185H1.13157L1.12891 24.998Z" fill="#3F2355"/>
<path d="M15.6475 30.3896C15.3302 29.3686 13.9439 26.0309 9.22528 25.7189C6.50605 25.5377 2.97372 26.1375 1.59278 30.027L1.56078 30.115H1.29419H1.12891V28.0276H1.25954V29.9817H1.46748C2.87508 26.0282 6.44207 25.399 9.23594 25.5856C14.0346 25.9029 15.4475 29.2886 15.7754 30.3443C16.0767 31.1814 16.2126 33.2501 15.9194 35.3055C15.9194 35.3055 15.9194 35.3215 15.9407 35.3402C16.1326 35.5481 16.8231 35.6681 17.2497 35.6734L44.5459 35.7294V36.2919H44.4046V35.8627L17.2417 35.8067C16.8898 35.8067 16.0873 35.7028 15.8341 35.4308C15.8027 35.4003 15.7829 35.3597 15.7781 35.3162V35.2869C16.074 33.2608 15.9407 31.2054 15.6475 30.3896Z" fill="#3F2355"/>
<path d="M13.2668 20.3722C13.136 20.646 12.9405 20.8838 12.697 21.065C12.4536 21.2462 12.1697 21.3653 11.8699 21.4119C6.00486 22.3183 1.77939 23.7473 1.2622 24.9949H1.12891V24.9629C1.64076 23.6513 5.85023 22.2064 11.8512 21.2786C12.1296 21.236 12.3933 21.1257 12.6192 20.9574C12.8451 20.7892 13.0262 20.5681 13.1468 20.3136L16.5592 13.0996H16.7111C16.7012 13.1117 16.6932 13.1252 16.6872 13.1396L13.2668 20.3722Z" fill="#3F2355"/>
<path d="M1.13054 24.998L1.12254 28.0185H0.722656V24.998H1.13054Z" fill="#3F2355"/>
<path d="M9.21476 25.716C13.9334 26.0279 15.3197 29.3656 15.6369 30.3866C15.9302 31.2024 16.0635 33.2578 15.7729 35.2839V35.3132C15.7777 35.3568 15.7975 35.3973 15.8289 35.4279C16.0955 35.6945 16.8952 35.7984 17.2365 35.8038L44.4048 35.8598V36.6595L17.2365 36.6035C17.0019 36.6035 15.7942 36.5582 15.2504 35.9717C15.158 35.8738 15.0866 35.758 15.0408 35.6315C14.9949 35.5049 14.9755 35.3703 14.9838 35.2359V35.1986C15.2744 33.1885 15.1144 31.2664 14.8878 30.6666V30.6399C14.6212 29.7442 13.3976 26.8037 9.17744 26.5237C8.91085 26.5051 8.64426 26.4971 8.37767 26.4971C5.14658 26.4971 3.08317 27.8887 2.24608 30.6399L2.20875 30.7572C2.19433 30.8053 2.16471 30.8474 2.12433 30.8772C2.08396 30.907 2.035 30.9229 1.98482 30.9225H0.566552C0.501504 30.9225 0.439121 30.8967 0.393125 30.8507C0.347129 30.8047 0.321289 30.7423 0.321289 30.6772V28.0246H1.12106V30.1121H1.28635H1.55294L1.58493 30.0241C2.97387 26.1345 6.5062 25.5427 9.21476 25.716Z" fill="#3F2355"/>
<path d="M12.4139 19.9723L15.6636 13.0996H16.5487L13.1363 20.3136C13.0157 20.5681 12.8346 20.7892 12.6087 20.9574C12.3828 21.1257 12.1191 21.236 11.8407 21.2786C5.83972 22.2063 1.63025 23.6513 1.1184 24.9629V24.9949H0.723842V28.0154H0.321289V24.8669L0.337284 24.8109C1.01976 22.4756 7.76717 21.1 11.7287 20.4895C11.8761 20.4649 12.0154 20.405 12.1347 20.3149C12.254 20.2249 12.3498 20.1073 12.4139 19.9723Z" fill="#3F2355"/>
<path d="M14.7582 30.6706C14.4916 29.7962 13.2999 26.9223 9.15975 26.6478C5.53411 26.4105 3.2441 27.7594 2.35635 30.6706L2.32169 30.7879C2.30016 30.8647 2.25412 30.9323 2.19058 30.9804C2.12704 31.0285 2.0495 31.0546 1.96979 31.0545H0.567523C0.467123 31.0545 0.370836 31.0146 0.299842 30.9436C0.228849 30.8726 0.188965 30.7763 0.188965 30.6759V24.8483L0.210293 24.7736C0.911427 22.3743 7.71482 20.9747 11.7084 20.3589C11.8361 20.3383 11.9569 20.287 12.0604 20.2095C12.164 20.1319 12.2472 20.0304 12.3029 19.9137L15.5286 13.0996H15.6752L12.4148 19.9723C12.3497 20.1087 12.2523 20.2271 12.131 20.3172C12.0098 20.4073 11.8683 20.4665 11.719 20.4895C7.75748 21.1 1.01007 22.4756 0.327593 24.8109L0.311596 24.8669V30.6679C0.311596 30.733 0.337437 30.7954 0.383433 30.8414C0.429428 30.8874 0.491812 30.9132 0.556859 30.9132H1.96446C2.01464 30.9136 2.0636 30.8977 2.10398 30.8679C2.14435 30.8381 2.17398 30.796 2.1884 30.7479L2.22572 30.6306C3.06281 27.8794 5.12623 26.4878 8.35731 26.4878C8.6239 26.4878 8.89049 26.4878 9.15708 26.5145C13.3772 26.7944 14.5955 29.7349 14.8675 30.6306V30.6573C15.0941 31.2678 15.254 33.1899 14.9634 35.1893V35.2266C14.9552 35.361 14.9746 35.4956 15.0204 35.6222C15.0663 35.7488 15.1376 35.8646 15.23 35.9624C15.7632 36.5489 16.9815 36.5916 17.2161 36.5943L44.4057 36.6609V36.2903H44.539V36.7942L17.2401 36.7409C16.9895 36.7409 15.7365 36.6902 15.158 36.0664C15.0516 35.9553 14.9694 35.8232 14.9166 35.6787C14.8638 35.5341 14.8417 35.3802 14.8515 35.2266V35.1813C15.1394 33.1952 14.9848 31.3024 14.7608 30.7026L14.7582 30.6706Z" fill="#3F2355"/>
<path d="M2.36168 30.6678C3.24942 27.7566 5.53944 26.4023 9.16508 26.6449C13.2999 26.9115 14.4969 29.7934 14.7635 30.6678V30.6971C14.9874 31.2969 15.142 33.1897 14.8541 35.1758V35.2212C14.8443 35.3747 14.8665 35.5287 14.9193 35.6732C14.9721 35.8178 15.0543 35.9498 15.1607 36.0609C15.7392 36.6847 16.9922 36.7327 17.2428 36.7354L44.5444 36.7914V36.2875H44.6777V36.9273L17.2401 36.8687C16.9735 36.8687 15.6806 36.8154 15.0621 36.1516C14.9434 36.0273 14.8518 35.8797 14.793 35.7182C14.7343 35.5566 14.7097 35.3847 14.7208 35.2132V35.1625C14.7528 34.9466 14.7795 34.7306 14.7981 34.52C14.7981 34.4454 14.8141 34.3734 14.8195 34.3014C14.9634 32.6699 14.8195 31.2436 14.6409 30.7424V30.7104C14.3743 29.852 13.2173 27.0475 9.16508 26.7782C5.61142 26.5436 3.36672 27.8659 2.5003 30.7051L2.46565 30.8224C2.45775 30.8492 2.44703 30.8752 2.43365 30.8997C2.3911 30.9814 2.32667 31.0495 2.24757 31.0966C2.16847 31.1437 2.07782 31.1678 1.98578 31.1663H0.567518C0.5003 31.1663 0.433742 31.1531 0.371641 31.1274C0.30954 31.1016 0.253113 31.0639 0.205583 31.0164C0.158053 30.9689 0.120349 30.9124 0.094626 30.8503C0.0689029 30.7882 0.0556641 30.7217 0.0556641 30.6545V24.7895L0.0769918 24.7148C0.799453 22.2382 7.65884 20.8253 11.6844 20.2041C11.7904 20.1878 11.8908 20.1457 11.9768 20.0816C12.0628 20.0174 12.1317 19.9332 12.1776 19.8362L15.3766 13.0781H15.5259L12.3002 19.8922C12.2445 20.0089 12.1613 20.1104 12.0578 20.188C11.9542 20.2655 11.8334 20.3168 11.7057 20.3374C7.70682 20.9532 0.908755 22.3448 0.207621 24.7521L0.186293 24.8268V30.6465C0.186293 30.7469 0.226177 30.8432 0.297171 30.9141C0.368164 30.9851 0.464454 31.025 0.564854 31.025H1.97245C2.05216 31.0251 2.1297 30.9991 2.19324 30.9509C2.25678 30.9028 2.30283 30.8352 2.32435 30.7584L2.36168 30.6678Z" fill="#3F2355"/>
</svg>
