<svg width="75" height="44" viewBox="0 0 75 44" fill="none" xmlns="http://www.w3.org/2000/svg">
<path d="M53.4049 28.9667C53.2602 29.071 53.0806 29.1158 52.9034 29.0917C52.7263 29.0677 52.5653 28.9766 52.454 28.8375L49.9912 25.6153L58.936 19.0008C59.1518 18.8417 59.4203 18.7698 59.6874 18.7996C59.9544 18.8294 60.2002 18.9587 60.3751 19.1615L60.7332 19.5709L60.9329 19.8009L61.0565 19.9426L62.0074 21.0482C62.1027 21.1564 62.1741 21.2831 62.2172 21.4204C62.2604 21.5576 62.2742 21.7022 62.2578 21.8451C62.2438 21.9898 62.1997 22.1301 62.1282 22.257C62.0567 22.3838 61.9595 22.4946 61.8426 22.5821L55.2243 27.5713L55.4145 27.8202L55.2243 27.5713L53.4049 28.9667Z" fill="white"/>
<path d="M66.6579 25.0846C67.3541 25.6384 67.9249 26.3319 68.333 27.1198C68.741 27.9078 68.9772 28.7724 69.0261 29.6573C69.0749 30.5421 68.9354 31.4273 68.6165 32.2549C68.2977 33.0825 67.8067 33.8339 67.1756 34.4601C66.5446 35.0862 65.7877 35.5731 64.9545 35.8888C64.1212 36.2044 63.2302 36.3418 62.3399 36.292C61.4495 36.2422 60.5797 36.0063 59.7874 35.5997C58.995 35.193 58.2979 34.6249 57.7416 33.9323L57.4944 34.1275C57.1425 33.6837 56.8495 33.1967 56.6227 32.6786H63.3678C63.8826 32.68 64.3861 32.5291 64.8142 32.2451C65.2424 31.9611 65.5758 31.5569 65.7719 31.0839C65.9681 30.611 66.0181 30.0907 65.9157 29.5894C65.8132 29.0881 65.5629 28.6284 65.1967 28.269C64.9575 28.029 64.6725 27.8389 64.3585 27.7096C64.0445 27.5804 63.7077 27.5146 63.3678 27.5162H56.3564L61.6657 23.516C62.0196 23.456 62.378 23.4265 62.737 23.4278C64.2255 23.426 65.6713 23.9219 66.8418 24.8357L66.6579 25.0846Z" fill="white"/>
<path d="M63.2343 40.2811H62.7494C62.2753 40.281 61.8018 40.2471 61.3325 40.1797L63.2343 40.2811Z" fill="#DEDFE0"/>
<path d="M61.1807 19.1411C63.9084 18.7556 66.683 19.3926 68.9642 20.928C71.2454 22.4634 72.87 24.7874 73.5217 27.4477C74.1735 30.1079 73.8058 32.9139 72.4901 35.3196C71.1745 37.7252 69.0051 39.5582 66.4043 40.4619L64.9653 40.3737C67.5277 39.8257 69.7958 38.3556 71.3332 36.246C72.8706 34.1365 73.5688 31.5366 73.2935 28.9463C73.0182 26.3561 71.7888 23.9585 69.8417 22.2147C67.8947 20.4709 65.3676 19.5041 62.7465 19.5002C62.3471 19.4996 61.9481 19.5228 61.5515 19.5695L61.1807 19.1411Z" fill="#3F2355"/>
<path d="M60.9395 23.6776L62.0457 22.843C62.1959 22.7291 62.3212 22.586 62.4137 22.4222C62.5063 22.2585 62.5641 22.0777 62.5837 21.891C62.6033 21.7042 62.5842 21.5154 62.5277 21.3363C62.4711 21.1571 62.3783 20.9913 62.2549 20.8492L61.4212 19.9042C61.5512 19.9042 61.678 19.8727 61.8079 19.8633L62.4957 20.6539C62.6459 20.8254 62.7592 21.0257 62.8284 21.2424C62.8976 21.4591 62.9214 21.6876 62.8983 21.9138C62.8742 22.1441 62.803 22.3671 62.6891 22.5691C62.5751 22.7712 62.4209 22.9479 62.2358 23.0886L61.678 23.5107C61.4286 23.5514 61.182 23.6072 60.9395 23.6776Z" fill="#3F2355"/>
<path d="M52.9866 32.6802H56.6475C56.8744 33.1983 57.1673 33.6853 57.5192 34.1291L57.2656 34.3244C57.8762 35.0908 58.6429 35.7201 59.5156 36.1711C60.3883 36.6221 61.3471 36.8845 62.3291 36.9412C63.311 36.9978 64.294 36.8473 65.2133 36.4997C66.1326 36.152 66.9675 35.615 67.6631 34.924C68.3588 34.2329 68.8994 33.4035 69.2496 32.49C69.5997 31.5766 69.7514 30.5999 69.6948 29.6241C69.6381 28.6483 69.3743 27.6954 68.9208 26.8281C68.4672 25.9607 67.8341 25.1986 67.0631 24.5916L66.8666 24.8404C65.6961 23.9266 64.2503 23.4307 62.7618 23.4325C62.4028 23.4312 62.0444 23.4607 61.6905 23.5207L62.2484 23.0986C62.4334 22.9579 62.5877 22.7811 62.7016 22.5791C62.8155 22.3771 62.8867 22.1541 62.9108 21.9238C62.9339 21.6976 62.9102 21.4691 62.8409 21.2524C62.7717 21.0357 62.6585 20.8354 62.5083 20.6638L61.8204 19.8733C62.1374 19.8449 62.4544 19.8292 62.7713 19.8292C65.5035 19.7636 68.1499 20.7792 70.1285 22.6526C72.107 24.526 73.2556 27.1037 73.3216 29.8186C73.3876 32.5336 72.3656 35.1634 70.4803 37.1295C68.5951 39.0957 66.0011 40.2371 63.269 40.3026L61.3672 40.2113C59.4454 39.9382 57.6397 39.1335 56.1561 37.8893C54.6725 36.6451 53.5709 35.0114 52.9771 33.1747H52.9866V32.6802Z" fill="#DEDFE0"/>
<path d="M62.7496 19.8157C62.4326 19.8157 62.1156 19.8315 61.7987 19.8598L61.6719 19.7149C62.0267 19.6771 62.3832 19.6582 62.7401 19.6582C65.3839 19.6537 67.9314 20.6442 69.8701 22.4306C71.8088 24.2169 72.9948 26.6665 73.1896 29.2866C73.3844 31.9067 72.5735 34.5029 70.92 36.553C69.2665 38.603 66.8932 39.9548 64.2773 40.3364L63.244 40.2797C65.9761 40.2142 68.5701 39.0728 70.4554 37.1066C72.3406 35.1405 73.3627 32.5107 73.2967 29.7957C73.2307 27.0808 72.0821 24.5031 70.1035 22.6297C68.1249 20.7563 65.4785 19.7407 62.7464 19.8063L62.7496 19.8157Z" fill="#3F2355"/>
<path d="M61.5449 19.5713C61.9415 19.5245 62.3405 19.5014 62.7399 19.502C65.361 19.5058 67.8881 20.4727 69.8352 22.2164C71.7822 23.9602 73.0116 26.3579 73.2869 28.9481C73.5623 31.5383 72.8641 34.1383 71.3266 36.2478C69.7892 38.3574 67.5211 39.8275 64.9587 40.3755C64.7368 40.3755 64.5117 40.3471 64.2835 40.3377C66.8818 39.9375 69.233 38.5797 70.8692 36.5346C72.5055 34.4895 73.3066 31.907 73.1132 29.3014C72.9198 26.6957 71.7459 24.2581 69.8254 22.4736C67.9049 20.6892 65.3786 19.689 62.7494 19.6721C62.3926 19.672 62.036 19.6909 61.6812 19.7287L61.5449 19.5713Z" fill="#3F2355"/>
<path d="M61.4239 19.9026L61.3003 19.7609C61.4271 19.742 61.5539 19.7262 61.6838 19.7168L61.8106 19.8617C61.6806 19.8711 61.5475 19.8869 61.4239 19.9026Z" fill="#3F2355"/>
<path d="M61.1382 19.5721L61.0146 19.4336L60.9702 19.1753L61.1826 19.1406L61.5566 19.5721C61.4298 19.5721 61.303 19.6005 61.1794 19.6194L61.1382 19.5721Z" fill="#3F2355"/>
<path d="M61.6822 19.7152C61.5522 19.7152 61.4255 19.7404 61.2987 19.7593L61.1782 19.6176C61.3018 19.5987 61.4286 19.5798 61.5554 19.5703L61.6822 19.7152Z" fill="#3F2355"/>
<path d="M62.7511 36.9967C61.6916 36.9998 60.6454 36.7618 59.6927 36.301C58.74 35.8402 57.9061 35.1688 57.2549 34.3382L57.5085 34.143C58.0902 34.8774 58.822 35.481 59.6556 35.9139C60.4891 36.3469 61.4056 36.5994 62.3445 36.6547C63.2834 36.7101 64.2235 36.5671 65.1028 36.2352C65.982 35.9033 66.7805 35.3899 67.4456 34.729C68.1107 34.0681 68.6273 33.2746 68.9613 32.4009C69.2953 31.5272 69.4392 30.593 69.3835 29.66C69.3278 28.727 69.0737 27.8163 68.638 26.9879C68.2023 26.1596 67.5949 25.4324 66.8558 24.8543L67.0524 24.6055C68.1974 25.494 69.0347 26.7157 69.4471 28.1C69.8595 29.4843 69.8266 30.962 69.3528 32.3268C68.8791 33.6916 67.9882 34.8752 66.8046 35.7124C65.6211 36.5497 64.2039 36.9986 62.7511 36.9967Z" fill="#3F2355"/>
<path d="M61.3204 40.1898C61.7897 40.2568 62.2631 40.2905 62.7372 40.2906H63.2222L64.2555 40.3473C63.7485 40.4207 63.2369 40.4576 62.7246 40.4576C61.8916 40.454 61.0622 40.3482 60.2554 40.1426L61.3204 40.1898Z" fill="#3F2355"/>
<path d="M62.75 36.6809C61.7393 36.6823 60.7416 36.4544 59.833 36.0144C58.9245 35.5744 58.129 34.9341 57.5073 34.1422L57.7546 33.9469C58.3091 34.6451 59.0061 35.2187 59.7998 35.63C60.5935 36.0413 61.4658 36.2808 62.3594 36.333C63.2529 36.3851 64.1475 36.2486 64.9841 35.9324C65.8208 35.6163 66.5805 35.1276 67.2135 34.4987C67.8464 33.8697 68.3381 33.1147 68.6563 32.2833C68.9744 31.4519 69.1118 30.563 69.0593 29.6751C69.0069 28.7871 68.7658 27.9203 68.3519 27.1316C67.9381 26.3429 67.3608 25.6502 66.6582 25.0992L66.8547 24.8535C67.9475 25.7016 68.7464 26.8677 69.14 28.1889C69.5335 29.51 69.5021 30.9204 69.05 32.2229C68.598 33.5255 67.7479 34.6552 66.6184 35.4544C65.489 36.2537 64.1365 36.6824 62.75 36.6809Z" fill="#3F2355"/>
<path d="M62.7488 19.0428C62.2238 19.0428 61.6995 19.0796 61.1798 19.153L60.904 18.838L60.8818 18.7184C61.4992 18.6201 62.1235 18.5706 62.7488 18.5703C65.3967 18.568 67.9652 19.4683 70.0257 21.121C72.0861 22.7736 73.5137 25.0786 74.0701 27.6511C74.6265 30.2237 74.2781 32.908 73.0829 35.256C71.8878 37.604 69.9183 39.4735 67.5033 40.5525L66.4161 40.4769C68.8803 39.6116 70.958 37.9095 72.2829 35.6708C73.6077 33.432 74.0945 30.8003 73.6576 28.2397C73.2207 25.6791 71.8881 23.354 69.8946 21.6743C67.9012 19.9946 65.375 19.0683 62.7615 19.0585L62.7488 19.0428Z" fill="#3F2355"/>
<path d="M61.1796 19.1342L60.968 19.1687L60.9048 18.8203L61.1796 19.1342Z" fill="#3F2355"/>
<path d="M61.1362 19.5703L61.1782 19.6187H61.175L61.1362 19.5703Z" fill="#3F2355"/>
<path d="M61.1352 19.5709L61.1729 19.6177L61.0504 19.6364L61.0127 19.4336L61.1352 19.5709Z" fill="#3F2355"/>
<path d="M61.4215 19.9054C61.2979 19.9054 61.1774 19.9401 61.0538 19.9621L60.9302 19.8204C61.0506 19.7983 61.1742 19.7794 61.2979 19.7637L61.4215 19.9054Z" fill="#3F2355"/>
<path d="M60.9139 19.7989L60.8062 19.1973L61.009 19.4303L61.047 19.6351L61.1707 19.6162L61.2911 19.7579C61.1675 19.7579 61.0439 19.7926 60.9234 19.8146L60.9139 19.7989Z" fill="#3F2355"/>
<path d="M60.8101 19.1988L60.9671 19.1738L61.0111 19.4297L60.8101 19.1988Z" fill="#3F2355"/>
<path d="M60.9185 19.7988L60.931 19.8145H60.9216L60.9185 19.7988Z" fill="#3F2355"/>
<path d="M60.8826 18.7018L60.9048 18.8215L60.8382 18.7459C60.7963 18.6974 60.7518 18.6512 60.7051 18.6073V18.5758C63.4967 18.0835 66.3733 18.6129 68.8024 20.0659C71.2315 21.5189 73.0487 23.7971 73.9177 26.479C74.7866 29.1608 74.6484 32.0647 73.5287 34.6531C72.409 37.2415 70.3836 39.3393 67.8273 40.558L67.5104 40.536C69.9254 39.457 71.8949 37.5874 73.09 35.2394C74.2852 32.8914 74.6336 30.2071 74.0772 27.6346C73.5208 25.0621 72.0932 22.7571 70.0328 21.1044C67.9723 19.4517 65.4038 18.5514 62.7559 18.5537C62.1285 18.5537 61.5021 18.6032 60.8826 18.7018Z" fill="#3F2355"/>
<path d="M60.8382 18.7499L60.9048 18.8255L60.9682 19.1751L60.8097 19.2003L60.7051 18.6113C60.7518 18.6552 60.7963 18.7015 60.8382 18.7499Z" fill="#3F2355"/>
<path d="M60.8103 19.1984L60.918 19.8L60.7184 19.57L60.6074 18.959L60.8103 19.1984Z" fill="#3F2355"/>
<path d="M60.7051 18.6121C60.6473 18.5592 60.5847 18.5117 60.5181 18.4703V18.4514L60.6766 18.4231C63.4829 17.9294 66.3744 18.4541 68.824 19.9016C71.2737 21.3491 73.1183 23.6231 74.0219 26.3091C74.9255 28.9951 74.8277 31.9144 73.7465 34.5348C72.6653 37.1552 70.6726 39.3023 68.1316 40.5849L67.8147 40.5628C70.3709 39.3441 72.3963 37.2464 73.516 34.6579C74.6357 32.0695 74.7739 29.1656 73.905 26.4838C73.0361 23.8019 71.2189 21.5237 68.7897 20.0707C66.3606 18.6177 63.484 18.0883 60.6924 18.5806L60.7051 18.6121Z" fill="#3F2355"/>
<path d="M60.5956 18.9562L60.5068 18.4648C60.5735 18.5062 60.6361 18.5537 60.6938 18.6066L60.7984 19.1956L60.5956 18.9562Z" fill="#3F2355"/>
<path d="M62.7498 40.6042C61.6745 40.6037 60.6057 40.4401 59.5801 40.1191L60.2774 40.1443C61.0843 40.35 61.9136 40.4558 62.7466 40.4593C63.2589 40.4593 63.7706 40.4225 64.2775 40.3491C64.5058 40.3491 64.7308 40.3743 64.9527 40.3869C64.228 40.5355 63.4897 40.6083 62.7498 40.6042Z" fill="#3F2355"/>
<path d="M62.7493 41.0904C61.1425 41.0928 59.5545 40.7467 58.0962 40.0762L59.5701 40.1297C61.3141 40.6746 63.1703 40.7625 64.9585 40.3848L66.3976 40.473C65.2249 40.8808 63.9916 41.0895 62.7493 41.0904Z" fill="#3F2355"/>
<path d="M62.7498 41.5487C60.7408 41.5466 58.7673 41.0221 57.0254 40.0273L58.0967 40.062C60.71 41.2576 63.6879 41.3998 66.4045 40.4589L67.4917 40.5345C66.0015 41.2035 64.385 41.5493 62.7498 41.5487Z" fill="#3F2355"/>
<path d="M58.73 18.7507L50.1719 25.0817L49.9785 24.8297L58.5367 18.4987C58.8218 18.2901 59.1654 18.1752 59.5194 18.1701C59.8735 18.165 60.2203 18.27 60.5114 18.4703L60.6001 18.9617C60.3725 18.6989 60.0534 18.5312 59.7067 18.4921C59.36 18.4529 59.0112 18.5453 58.73 18.7507Z" fill="#3F2355"/>
<path d="M57.0215 40.0302C58.6001 40.9313 60.3714 41.4473 62.1897 41.5361C64.008 41.6248 65.8216 41.2835 67.4814 40.5404L67.7984 40.5625C66.0453 41.4009 64.1091 41.7902 62.1659 41.695C60.2228 41.5998 58.3345 41.0232 56.6729 40.0176L57.0215 40.0302Z" fill="#3F2355"/>
<path d="M56.3765 40.0055H56.6934C58.355 41.0112 60.2434 41.5878 62.1865 41.683C64.1297 41.7781 66.0659 41.3888 67.819 40.5504L68.136 40.5725C66.2973 41.5042 64.2451 41.9413 62.1837 41.8401C60.1222 41.739 58.1234 41.1032 56.386 39.9961L56.3765 40.0055Z" fill="#3F2355"/>
<path d="M56.5083 32.3652C56.5495 32.4723 56.5907 32.5763 56.6351 32.6802H52.9868V32.3652H56.5083Z" fill="#3F2355"/>
<path d="M63.3767 27.8384H56.4732H55.9502L56.3686 27.5234H63.3799C64.0665 27.5243 64.7247 27.7957 65.2101 28.2781C65.6956 28.7605 65.9687 29.4146 65.9695 30.0968C65.9687 30.7796 65.6958 31.4343 65.2105 31.9178C64.7252 32.4012 64.067 32.674 63.3799 32.6765H56.6348C56.5905 32.5725 56.5493 32.4686 56.5081 32.3615H63.3767C63.9806 32.3606 64.5595 32.1217 64.9862 31.6971C65.4129 31.2724 65.6526 30.6969 65.6526 30.0968C65.6509 29.4978 65.4105 28.9239 64.984 28.5006C64.5574 28.0773 63.9795 27.8392 63.3767 27.8384Z" fill="#3F2355"/>
<path d="M56.5083 32.3688H52.9868V32.0538H63.3929C63.9121 32.0521 64.4095 31.846 64.7761 31.4805C65.1427 31.1151 65.3486 30.6201 65.3485 30.1041C65.3477 29.5884 65.141 29.0941 64.7737 28.7297C64.4064 28.3653 63.9087 28.1607 63.3897 28.1607H55.5447L55.6272 28.0977L55.437 27.8489L55.6303 28.0977L55.9631 27.8457H56.4735H63.377C63.9798 27.8465 64.5577 28.0846 64.9842 28.5079C65.4107 28.9312 65.6512 29.5051 65.6528 30.1041C65.6528 30.7042 65.4132 31.2797 64.9865 31.7043C64.5597 32.129 63.9809 32.3679 63.377 32.3688H56.5083Z" fill="#3F2355"/>
<path d="M61.6789 23.5176L56.3697 27.5178H55.8403L57.0607 26.5981L60.934 23.6814C61.1787 23.6117 61.4275 23.557 61.6789 23.5176Z" fill="#3F2355"/>
<path d="M56.3672 27.5195L55.9488 27.8345H55.4258L55.841 27.5195H55.8442H56.3672Z" fill="#3F2355"/>
<path d="M55.8442 27.5195L55.429 27.8345H55.4258L55.429 27.5195H55.8442Z" fill="#3F2355"/>
<path d="M55.6151 28.0859L55.5329 28.1487H55.4224L55.4255 27.8379L55.6151 28.0859Z" fill="#3F2355"/>
<path d="M55.4265 27.5216V27.8366L55.2363 27.5878L61.8609 22.5985C61.9778 22.511 62.075 22.4003 62.1465 22.2734C62.218 22.1465 62.2622 22.0062 62.2762 21.8615C62.2925 21.7187 62.2787 21.574 62.2356 21.4368C62.1925 21.2996 62.121 21.1728 62.0258 21.0646L61.0749 19.959C61.1985 19.937 61.3189 19.9181 61.4425 19.9023L62.2762 20.8473C62.3996 20.9895 62.4924 21.1552 62.549 21.3344C62.6055 21.5136 62.6246 21.7023 62.605 21.8891C62.5854 22.0758 62.5276 22.2566 62.4351 22.4204C62.3425 22.5841 62.2173 22.7272 62.067 22.8411L60.9608 23.6758L57.0652 26.6019L55.8386 27.5216H55.4265Z" fill="#3F2355"/>
<path d="M55.429 27.8379H55.9529L55.6195 28.0903L55.4258 27.841V27.8379H55.429Z" fill="#3F2355"/>
<path d="M55.4253 27.8379V27.8408L55.4224 27.8379H55.4253Z" fill="white"/>
<path d="M52.9871 32.6797V33.1522H52.9427C52.9015 33.0262 52.8603 32.897 52.8286 32.7679V32.6797H52.9871Z" fill="#3F2355"/>
<path d="M52.9729 32.3652H52.8149V32.6791H52.9729V32.3652Z" fill="#3F2355"/>
<path d="M52.9729 32.0488H52.8149V32.3627H52.9729V32.0488Z" fill="#3F2355"/>
<path d="M60.277 40.1487C58.5273 39.7204 56.9177 38.8523 55.6028 37.6278C54.2879 36.4033 53.3117 34.8635 52.7681 33.1562H52.9361C53.5299 34.9929 54.6315 36.6266 56.1151 37.8708C57.5987 39.1151 59.4044 39.9197 61.3262 40.1928L60.277 40.1487Z" fill="#3F2355"/>
<path d="M52.7627 33.1505C52.7436 33.0993 52.7278 33.0468 52.7153 32.9936H52.8164V32.7676C52.848 32.8963 52.8891 33.025 52.9301 33.1505H52.7627Z" fill="#3F2355"/>
<path d="M52.8169 32.6797V32.7686C52.8169 32.74 52.7978 32.7083 52.7915 32.6797H52.8169Z" fill="#3F2355"/>
<path d="M52.7153 32.3652H52.8164V32.6791H52.7911C52.7627 32.585 52.7374 32.472 52.7153 32.3652Z" fill="#3F2355"/>
<path d="M52.7141 32.9936C52.6918 32.9297 52.6728 32.8648 52.6572 32.799V32.6797H52.7899C52.7899 32.7079 52.8057 32.7393 52.8152 32.7676V32.9936H52.7141Z" fill="#3F2355"/>
<path d="M59.57 40.1204C57.9295 39.6029 56.4389 38.6995 55.2249 37.4871C54.0109 36.2747 53.1093 34.789 52.5967 33.1562H52.7615C53.3057 34.8643 54.2828 36.4046 55.5989 37.6291C56.915 38.8537 58.5259 39.7213 60.2768 40.1487L59.5827 40.1235L59.57 40.1204Z" fill="#3F2355"/>
<path d="M52.7146 32.3652C52.7367 32.472 52.762 32.5756 52.7904 32.6791H52.6704V32.3652H52.7146Z" fill="#3F2355"/>
<path d="M52.5984 33.1502C52.5794 33.0992 52.5636 33.0471 52.5513 32.9941H52.7146C52.7269 33.0471 52.7427 33.0992 52.7617 33.1502H52.5984Z" fill="#3F2355"/>
<path d="M52.6704 32.0488H52.8284V32.3627H52.7273C52.7273 32.3094 52.6988 32.2529 52.6862 32.1964V32.1273L52.6704 32.0488Z" fill="#3F2355"/>
<path d="M52.6704 32.1956C52.6704 32.2518 52.6955 32.308 52.7113 32.361H52.6704V32.127V32.1956Z" fill="#3F2355"/>
<path d="M52.659 32.0488V32.1294L52.6396 32.0488H52.659Z" fill="#3F2355"/>
<path d="M52.6239 32.6791C52.5986 32.5756 52.5734 32.4688 52.5513 32.3652H52.6713V32.6791H52.6239Z" fill="#3F2355"/>
<path d="M52.6694 32.6797V32.7987C52.6694 32.758 52.6474 32.7173 52.6348 32.6797H52.6694Z" fill="#3F2355"/>
<path d="M52.6685 32.7988C52.684 32.8642 52.7029 32.9288 52.7251 32.9923H52.5618L52.5146 32.8363H52.6685V32.7988Z" fill="#3F2355"/>
<path d="M52.6387 32.0449V32.0481H52.623L52.6387 32.0449Z" fill="#3F2355"/>
<path d="M52.6233 32.0488L51.8975 32.2032V32.0488H52.6233Z" fill="#3F2355"/>
<path d="M52.6691 32.8357H52.5152L52.4775 32.6797H52.6345C52.6345 32.7171 52.6565 32.7577 52.6691 32.7983V32.8357Z" fill="#3F2355"/>
<path d="M58.0971 40.0668C56.6598 39.406 55.3812 38.4475 54.3469 37.2557C53.3127 36.0639 52.5466 34.6662 52.1001 33.1562H52.5977C53.1103 34.789 54.0119 36.2747 55.2259 37.4871C56.44 38.6995 57.9305 39.6029 59.571 40.1204L58.0971 40.0668Z" fill="#3F2355"/>
<path d="M52.101 33.1516C52.0833 33.1 52.0685 33.0474 52.0566 32.9941H52.5511C52.5636 33.0476 52.5795 33.1002 52.5987 33.1516H52.101Z" fill="#3F2355"/>
<path d="M52.5187 32.2324C52.5187 32.2765 52.5377 32.3206 52.5504 32.3647H51.8975L52.5187 32.2324Z" fill="#3F2355"/>
<path d="M52.5173 32.2315L51.8833 32.3638V32.2032L52.6092 32.0488H52.625L52.644 32.1276V32.3638H52.5363C52.5363 32.3197 52.5268 32.2693 52.5173 32.2315Z" fill="#3F2355"/>
<path d="M52.5044 32.834L52.552 32.9918H52.0567C52.0385 32.9402 52.0237 32.8875 52.0122 32.834H52.5044Z" fill="#3F2355"/>
<path d="M52.4658 32.6797L52.5039 32.8375H52.0117C51.996 32.7856 51.9833 32.733 51.9736 32.6797H52.4658Z" fill="#3F2355"/>
<path d="M51.9727 32.6818C51.9566 32.628 51.9439 32.5732 51.9346 32.5177L52.3982 32.4199C52.4172 32.5083 52.4395 32.5966 52.4649 32.6818H51.9727Z" fill="#3F2355"/>
<path d="M57.0227 40.0322C54.3795 38.5341 52.4333 36.0652 51.6025 33.1562H52.1002C52.5467 34.6662 53.3127 36.0639 54.347 37.2557C55.3813 38.4475 56.6599 39.406 58.0972 40.0668L57.0258 40.0322H57.0227Z" fill="#3F2355"/>
<path d="M51.6018 33.1519C51.6018 33.1014 51.5732 33.0478 51.5605 32.9941H52.0559C52.0678 33.0475 52.0826 33.1002 52.1004 33.1519H51.6018Z" fill="#3F2355"/>
<path d="M51.5608 32.9918C51.5449 32.9413 51.5322 32.8876 51.5195 32.834H52.0117C52.0232 32.8875 52.038 32.9402 52.0562 32.9918H51.5608Z" fill="#3F2355"/>
<path d="M51.8975 32.3652H52.5504C52.5726 32.4692 52.5979 32.5763 52.6233 32.6802H52.4648C52.4394 32.5952 52.4173 32.507 52.3982 32.4188L51.9355 32.5164C51.9196 32.466 51.907 32.4156 51.8975 32.3652Z" fill="#3F2355"/>
<path d="M51.9351 32.5176C51.9444 32.5724 51.9569 32.6266 51.9728 32.6798H51.8975V32.5269H51.932L51.9351 32.5176Z" fill="#3F2355"/>
<path d="M51.8975 32.5265V32.3652C51.8975 32.4158 51.9197 32.4664 51.9325 32.5171L51.8975 32.5265Z" fill="#3F2355"/>
<path d="M51.8964 32.6817H51.9725C51.9822 32.7349 51.9949 32.7874 52.0105 32.8392H51.5192C51.5002 32.7667 51.4812 32.6943 51.4653 32.6187L51.8964 32.5273V32.6817Z" fill="#3F2355"/>
<path d="M51.8913 32.3618H51.1338L51.8977 32.2012V32.3618H51.8913Z" fill="#3F2355"/>
<path d="M56.6955 40.0196C54.1262 38.4832 52.2467 36.0271 51.4434 33.1562H51.6018C52.4326 36.0652 54.3788 38.5341 57.022 40.0322L56.6955 40.0196Z" fill="#3F2355"/>
<path d="M51.5601 32.9941C51.5601 33.0472 51.5883 33.1002 51.6009 33.1502H51.4439C51.4439 33.1002 51.4125 33.0472 51.3999 32.9941H51.5601Z" fill="#3F2355"/>
<path d="M51.5186 32.834C51.5186 32.887 51.5438 32.9401 51.5595 32.99H51.4024C51.3866 32.9388 51.374 32.8867 51.3647 32.834H51.5186Z" fill="#3F2355"/>
<path d="M51.3617 32.8377C51.33 32.7243 51.3047 32.6109 51.2793 32.4944L51.891 32.3652V32.5259L51.46 32.6172C51.4758 32.6928 51.4948 32.7653 51.5139 32.8377H51.3617Z" fill="#3F2355"/>
<path d="M56.3761 40.0101C53.8774 38.4361 52.0599 35.992 51.2793 33.1562H51.4441C52.2475 36.0271 54.1269 38.4832 56.6963 40.0196L56.3761 40.0101Z" fill="#3F2355"/>
<path d="M51.2783 33.1502C51.2608 33.099 51.2461 33.0469 51.2344 32.9941H51.4008C51.4008 33.0472 51.4291 33.1002 51.4448 33.1502H51.2783Z" fill="#3F2355"/>
<path d="M51.2354 32.99C51.2199 32.9387 51.2073 32.8867 51.1978 32.834H51.361C51.3702 32.8867 51.3828 32.9388 51.3987 32.99H51.2354Z" fill="#3F2355"/>
<path d="M51.2795 32.4932C51.3049 32.6097 51.3302 32.7231 51.3619 32.8365H51.1971C51.1686 32.7357 51.1464 32.6318 51.1242 32.5215L51.0894 32.3672H51.1337H51.8913L51.2795 32.4932Z" fill="#3F2355"/>
<path d="M51.0466 27.5508L51.7693 28.4957L52.1877 29.0438C52.3497 29.2534 52.5885 29.391 52.8521 29.4264C53.1158 29.4618 53.3828 29.3922 53.595 29.2328L55.4207 27.8532V28.1681H55.5222L53.7757 29.4847C53.547 29.6575 53.2673 29.7505 52.9801 29.7493C52.7759 29.7501 52.5744 29.7038 52.3913 29.6142C52.2082 29.5246 52.0484 29.394 51.9246 29.2328L50.8184 27.787L51.0085 27.576L51.0466 27.5508Z" fill="#3F2355"/>
<path d="M50.45 27.2598L50.843 27.77L48.8937 29.9119H41.0614C41.0577 29.7916 41.046 29.6716 41.0266 29.5528C41.0266 29.4615 40.998 29.3701 40.979 29.2819H48.5862L50.45 27.2598Z" fill="#3F2355"/>
<path d="M50.5501 27.1367L51.0192 27.5588L50.8291 27.7698L50.436 27.2596L50.5501 27.1367Z" fill="#3F2355"/>
<path d="M58.9225 19.003L49.9777 25.6176L49.8794 25.4916L50.2566 25.2049L50.1647 25.0852L58.7228 18.7542C59.0032 18.5481 59.3515 18.4547 59.6982 18.4927C60.0449 18.5306 60.3644 18.6971 60.5929 18.9589L60.7038 19.57L60.3457 19.1605C60.171 18.9626 59.9281 18.8367 59.6648 18.8075C59.4015 18.7784 59.1367 18.8481 58.9225 19.003Z" fill="#3F2355"/>
<path d="M50.1621 25.0801L50.254 25.1998L49.8768 25.4864L49.7817 25.3604L49.8641 25.2974L50.1621 25.0801Z" fill="#3F2355"/>
<path d="M50.1624 25.0782L49.8645 25.2955C49.9086 25.2618 49.9377 25.2122 49.9454 25.1574C49.9531 25.1026 49.9388 25.047 49.9057 25.0026L49.8423 24.9207L49.9691 24.8262L50.1624 25.0782Z" fill="#3F2355"/>
<path d="M49.9745 25.6095L49.7951 25.7409L49.7007 25.6157L49.877 25.4844L49.9745 25.6095Z" fill="#3F2355"/>
<path d="M49.7824 25.3594L49.8762 25.4837L49.7011 25.6143L49.6104 25.49L49.6135 25.4868L49.7261 25.4029L49.7824 25.3594Z" fill="#3F2355"/>
<path d="M49.7947 25.7456L49.9754 25.6133L52.4382 28.8355C52.5495 28.9746 52.7104 29.0656 52.8876 29.0897C53.0647 29.1137 53.2444 29.0689 53.3891 28.9646L55.2148 27.5882L55.405 27.837L53.5793 29.2166C53.3671 29.376 53.1001 29.4456 52.8364 29.4102C52.5728 29.3748 52.334 29.2373 52.1719 29.0276L51.7694 28.4922L51.0467 27.5472L49.6235 25.6857L49.6996 25.629L49.7947 25.7456Z" fill="#3F2355"/>
<path d="M49.3721 25.8679L49.6256 25.6758L51.0489 27.5373L51.0203 27.5593L50.5512 27.1373L50.4371 27.2601L49.3721 25.8679Z" fill="#3F2355"/>
<path d="M49.6108 25.4906L49.7233 25.4062L49.6108 25.4906Z" fill="#3F2355"/>
<path d="M49.9077 25.0057C49.9409 25.0502 49.9551 25.1058 49.9474 25.1606C49.9397 25.2153 49.9106 25.2649 49.8665 25.2987L49.7841 25.3616L49.727 25.4057L49.6129 25.4908L49.521 25.3679L49.819 25.1412L49.7239 25.0183L49.8507 24.9238L49.9077 25.0057Z" fill="#3F2355"/>
<path d="M49.6084 25.4883H49.6055V25.4912H49.6084V25.4883Z" fill="#3F2355"/>
<path d="M49.6078 25.4922L49.6989 25.617L49.6235 25.6732L49.5293 25.5515L49.6078 25.4922Z" fill="#3F2355"/>
<path d="M49.6067 25.4883L49.61 25.4915L49.5293 25.5528L49.6067 25.4883Z" fill="#3F2355"/>
<path d="M49.4185 25.2373L49.7154 25.0176L49.8102 25.14L49.5132 25.366L49.4185 25.2373Z" fill="#3F2355"/>
<path d="M49.3716 25.8666L49.2769 25.7442L49.5296 25.5527L49.6243 25.6752L49.3716 25.8666Z" fill="#3F2355"/>
<path d="M49.528 25.5532L49.4307 25.4284L49.5123 25.3691L49.6034 25.4908L49.528 25.5532Z" fill="#3F2355"/>
<path d="M44.0863 12.8559C48.676 13.4606 52.112 12.0401 54.2578 11.0857C56.4544 10.1124 58.3213 7.2556 59.4434 6.13428C60.5655 5.01297 67.8557 1.72461 67.8557 1.72461L67.0982 7.42569L48.4858 22.5824C48.2821 22.7478 48.1509 22.9853 48.1195 23.2448C48.0882 23.5044 48.1593 23.766 48.3178 23.9746L49.4304 25.4235C49.381 25.4614 49.3245 25.4893 49.2642 25.5054C49.2039 25.5215 49.141 25.5256 49.0791 25.5174C49.0172 25.5092 48.9575 25.4889 48.9036 25.4576C48.8496 25.4264 48.8024 25.3848 48.7648 25.3353L47.9407 24.2612C47.7057 23.9559 47.5998 23.5716 47.6454 23.1899C47.6909 22.8082 47.8844 22.4592 48.1847 22.217L66.6164 7.21466C66.6305 7.20426 66.6424 7.19105 66.6511 7.17586C66.6598 7.16068 66.6653 7.14386 66.6671 7.12646L67.282 2.51205L67.0189 2.63489C64.106 3.98299 60.464 5.78466 59.7889 6.46816C59.5036 6.75479 59.155 7.16741 58.7619 7.64617C57.6525 8.95963 56.1565 10.7613 54.4512 11.5172C52.6254 12.3299 48.8345 14.015 43.8232 13.2969C43.8961 13.1961 43.969 13.089 44.0388 12.9819C44.0636 12.9438 44.0798 12.9008 44.0863 12.8559Z" fill="#3F2355"/>
<path d="M43.6069 13.5855C43.645 13.5382 43.683 13.4941 43.7179 13.4437C48.8147 14.1965 52.6659 12.4988 54.5201 11.6641C56.2571 10.8924 57.7659 9.07813 58.8689 7.75523C59.2683 7.27647 59.6138 6.86385 59.8959 6.58352C60.5299 5.95356 64.0007 4.21489 66.7329 2.93924C66.7673 2.92339 66.8053 2.91712 66.843 2.92107C66.8806 2.92503 66.9165 2.93908 66.9468 2.96171C66.977 2.98435 67.0006 3.01472 67.0148 3.04959C67.0291 3.08447 67.0335 3.12253 67.0277 3.15972L66.5142 7.01819C66.5082 7.07093 66.4821 7.11938 66.4413 7.15363L48.0857 22.0961C47.7543 22.3647 47.541 22.7508 47.4907 23.1727C47.4405 23.5947 47.5572 24.0196 47.8163 24.3577L48.9003 25.7687C48.9347 25.8121 48.9848 25.8404 49.0399 25.8474C49.095 25.8545 49.1507 25.8398 49.1951 25.8065L49.2775 25.7436L49.3726 25.8664C49.2725 25.9423 49.1462 25.9756 49.0214 25.959C48.8966 25.9425 48.7835 25.8775 48.707 25.7782L47.6927 24.4521C47.4077 24.0828 47.2787 23.6177 47.3332 23.1555C47.3876 22.6933 47.6212 22.2704 47.9843 21.9764L66.3018 7.05283C66.316 7.04244 66.3278 7.02923 66.3365 7.01404C66.3453 6.99886 66.3507 6.98203 66.3526 6.96464L66.8502 3.29201C66.8536 3.26738 66.8503 3.24228 66.8407 3.21935C66.831 3.19642 66.8152 3.17651 66.7952 3.16169C66.7751 3.14687 66.7513 3.1377 66.7264 3.13514C66.7015 3.13257 66.6764 3.13671 66.6537 3.14712C63.6773 4.55192 60.5964 6.1268 60.0069 6.69376C59.7311 6.96779 59.3919 7.37726 58.9894 7.85602C57.8768 9.19152 56.3554 11.0215 54.574 11.7964C52.7039 12.6279 48.8116 14.3571 43.645 13.5792L43.6069 13.5855Z" fill="#3F2355"/>
<path d="M43.6553 12.5272C43.7019 12.5083 43.7524 12.5007 43.8026 12.5051C43.8527 12.5095 43.9011 12.5257 43.9437 12.5524C43.9958 12.5853 44.037 12.6327 44.0624 12.6887C44.0877 12.7446 44.096 12.8067 44.0864 12.8673L43.7694 12.8232C43.7694 12.8232 43.7345 12.7098 43.6553 12.5272Z" fill="#3F2355"/>
<path d="M43.8246 13.3004C48.8358 14.0186 52.6268 12.3335 54.4525 11.5208C56.1578 10.7649 57.6539 8.9695 58.7537 7.64975C59.1531 7.17098 59.4954 6.75836 59.7807 6.47173C60.4559 5.80083 64.0978 3.98657 67.0107 2.63847L67.2738 2.51562L66.6589 7.13003C66.6571 7.14743 66.6516 7.16425 66.6429 7.17943C66.6342 7.19462 66.6223 7.20783 66.6082 7.21823L48.186 22.2206C47.8857 22.4628 47.6923 22.8118 47.6467 23.1935C47.6011 23.5751 47.7071 23.9594 47.942 24.2648L48.7661 25.3388C48.8038 25.3883 48.8509 25.4299 48.9049 25.4612C48.9588 25.4925 49.0185 25.5128 49.0804 25.521C49.1423 25.5292 49.2052 25.5251 49.2655 25.509C49.3258 25.4928 49.3823 25.465 49.4317 25.427L49.53 25.553L49.2764 25.7452L49.194 25.8082C49.1497 25.8414 49.094 25.8561 49.0388 25.849C48.9837 25.842 48.9336 25.8137 48.8992 25.7704L47.8152 24.3593C47.5561 24.0212 47.4394 23.5963 47.4896 23.1744C47.5399 22.7524 47.7533 22.3663 48.0846 22.0977L66.4402 7.15523C66.481 7.12099 66.5071 7.07253 66.5131 7.01979L67.0266 3.16133C67.0324 3.12414 67.028 3.08607 67.0137 3.0512C66.9995 3.01633 66.9759 2.98595 66.9457 2.96332C66.9154 2.94068 66.8795 2.92664 66.8419 2.92268C66.8042 2.91872 66.7662 2.925 66.7318 2.94084C63.9995 4.2165 60.5383 5.94257 59.8948 6.58512C59.6127 6.86545 59.2609 7.27807 58.8678 7.75684C57.7648 9.07974 56.256 10.9066 54.519 11.6657C52.6648 12.4878 48.8136 14.1855 43.7168 13.4453C43.7517 13.3981 43.7897 13.3508 43.8214 13.3004H43.8246Z" fill="#3F2355"/>
<path d="M43.422 13.2423L43.3269 12.9746C43.3224 12.9596 43.3171 12.9449 43.311 12.9305C43.3776 12.8392 43.441 12.7447 43.5044 12.647C43.5393 12.5905 43.5932 12.5481 43.6565 12.5273C43.7358 12.71 43.7738 12.8171 43.7738 12.8171L44.0908 12.8612C44.0843 12.9061 44.068 12.9491 44.0432 12.9872C43.9735 13.0943 43.9006 13.2014 43.8277 13.3022L43.7073 13.2833L43.422 13.2423Z" fill="#3F2355"/>
<path d="M43.3267 12.9733L43.4218 13.2411L43.7008 13.282L43.8212 13.3009C43.7895 13.3513 43.7515 13.3986 43.7166 13.4458H43.6786L43.4282 13.4049C43.3905 13.3993 43.3551 13.3838 43.3255 13.36C43.296 13.3362 43.2734 13.3049 43.2602 13.2694L43.1968 13.0899L43.2348 13.0395L43.3109 12.9355C43.3168 12.9479 43.3221 12.9605 43.3267 12.9733Z" fill="#3F2355"/>
<path d="M43.3093 12.9241L43.2339 13.0271L43.2684 12.8242L43.3093 12.9241Z" fill="#3F2355"/>
<path d="M43.1871 13.5198L43.0825 13.2269L43.1966 13.082L43.26 13.2616C43.2732 13.297 43.2958 13.3283 43.3254 13.3521C43.3549 13.376 43.3904 13.3915 43.428 13.397L43.6784 13.438H43.7165C43.6816 13.4883 43.6436 13.5324 43.6055 13.5797L43.1871 13.5198Z" fill="#3F2355"/>
<path d="M43.0762 12.4043L43.106 12.4638L43.0762 12.4043Z" fill="#3F2355"/>
<path d="M42.9554 12.1715L42.9224 12.1055L42.9554 12.1715Z" fill="#3F2355"/>
<path d="M41.3948 21.3018H34.2852C34.2012 21.3018 34.1205 21.2686 34.0611 21.2096C34.0017 21.1505 33.9683 21.0704 33.9683 20.9869C33.9683 20.9033 34.0017 20.8232 34.0611 20.7641C34.1205 20.7051 34.2012 20.6719 34.2852 20.6719H41.5755C41.6266 20.672 41.6769 20.6843 41.7222 20.7079C41.7674 20.7315 41.8063 20.7656 41.8354 20.8073L45.0621 25.428C45.1099 25.4966 45.1284 25.5811 45.1136 25.6632C45.0987 25.7453 45.0517 25.8182 44.9829 25.8658C44.9299 25.9026 44.8669 25.9224 44.8022 25.9225C44.7506 25.923 44.6996 25.9109 44.6538 25.8872C44.6079 25.8636 44.5686 25.8293 44.5391 25.7871L41.3948 21.3018Z" fill="#3F2355"/>
<path d="M41.0291 29.5541C41.0486 29.6729 41.0602 29.7928 41.064 29.9132H40.747C40.747 29.8092 40.747 29.7021 40.7153 29.5982V29.2832H40.9816C41.0006 29.3714 41.0165 29.4627 41.0291 29.5541Z" fill="#3F2355"/>
<path d="M40.7153 29.9116V29.5977C40.7311 29.7012 40.7406 29.808 40.7469 29.9116H40.7153Z" fill="#3F2355"/>
<path d="M40.5405 9.00148L40.4014 8.87891L40.5405 9.00148Z" fill="#3F2355"/>
<path d="M40.4001 29.64C40.4243 29.7942 40.436 29.9501 40.435 30.1062C40.4389 30.9764 40.1027 31.8142 39.4972 32.4429C38.8917 33.0716 38.0642 33.4421 37.1891 33.4764C36.314 33.5106 35.4597 33.2059 34.8063 32.6264C34.1529 32.047 33.7515 31.2381 33.6865 30.3702C33.6216 29.5023 33.8984 28.6433 34.4584 27.9743C35.0184 27.3052 35.8179 26.8783 36.6885 26.7836C37.5591 26.6889 38.4326 26.9338 39.125 27.4667C39.8174 27.9995 40.2746 28.7787 40.4001 29.64Z" fill="white"/>
<path d="M39.4739 8.19314C39.3891 8.14009 39.3043 8.08704 39.2163 8.03711C39.3043 8.08704 39.3891 8.13697 39.4739 8.19314Z" fill="#3F2355"/>
<path d="M39.0204 7.92386L38.854 7.83594L39.0204 7.92386Z" fill="#3F2355"/>
<path d="M38.8512 7.83674L38.6816 7.75195C38.7382 7.77707 38.7947 7.80534 38.8512 7.83674Z" fill="#3F2355"/>
<path d="M38.6833 7.75413L38.521 7.67773L38.6833 7.75413Z" fill="#3F2355"/>
<path d="M38.144 7.52221L37.9619 7.45312L38.144 7.52221Z" fill="#3F2355"/>
<path d="M37.9633 7.45462L37.7749 7.38867L37.9633 7.45462Z" fill="#3F2355"/>
<path d="M37.5775 7.32877L37.3828 7.27539L37.5775 7.32877Z" fill="#3F2355"/>
<path d="M37.2392 7.24242C37.1701 7.22358 37.101 7.20787 37.0288 7.19531C37.101 7.20787 37.1701 7.22358 37.2392 7.24242Z" fill="#3F2355"/>
<path d="M37.026 7.19708L36.8125 7.15625L37.026 7.19708Z" fill="#3F2355"/>
<path d="M36.8199 7.15173L36.6001 7.11719L36.8199 7.15173Z" fill="#3F2355"/>
<path d="M36.5889 7.12006C36.5135 7.1075 36.4382 7.09808 36.3628 7.0918C36.4382 7.09808 36.5135 7.1075 36.5889 7.12006Z" fill="#3F2355"/>
<path d="M35.8994 7.05469C36.0484 7.05469 36.1942 7.07371 36.3368 7.08955C36.1879 7.07371 36.0484 7.07371 35.8994 7.05469Z" fill="#3F2355"/>
<path d="M35.886 7.37013C40.9575 7.60951 43.0051 13.0397 43.0273 13.0838L43.0812 13.2287C41.5977 15.0682 39.3917 15.843 37.7276 16.1706C34.3804 16.8289 30.5736 16.1895 28.2566 14.5768C28.2223 14.5528 28.1836 14.5358 28.1427 14.5267C28.1018 14.5177 28.0594 14.5168 28.0182 14.5241C27.9769 14.5314 27.9375 14.5468 27.9022 14.5694C27.867 14.5919 27.8366 14.6212 27.8128 14.6555C27.765 14.7241 27.7465 14.8087 27.7614 14.8907C27.7762 14.9728 27.8232 15.0457 27.8921 15.0934C29.7051 16.3533 32.3708 17.0557 35.0524 17.0557C35.9918 17.0571 36.9292 16.9674 37.8512 16.7879C39.6326 16.4383 42.0003 15.6005 43.6042 13.5878H43.6517C48.8183 14.3658 52.7106 12.6428 54.5807 11.805C56.3526 11.0176 57.874 9.18755 58.9866 7.85205C59.3891 7.37328 59.7283 6.96381 60.0041 6.68978C60.5778 6.12282 63.6746 4.54164 66.6604 3.14944C66.6831 3.13903 66.7082 3.13489 66.7331 3.13746C66.758 3.14002 66.7818 3.14919 66.8019 3.16401C66.822 3.17883 66.8377 3.19874 66.8474 3.22167C66.857 3.2446 66.8603 3.2697 66.8569 3.29433L66.3688 6.96066C66.3669 6.97805 66.3615 6.99488 66.3528 7.01006C66.344 7.02524 66.3322 7.03846 66.3181 7.04885L47.991 21.9725C47.6279 22.2664 47.3944 22.6893 47.3399 23.1515C47.2855 23.6138 47.4144 24.0789 47.6994 24.4482L48.7137 25.7742C48.7903 25.8735 48.9034 25.9385 49.0281 25.9551C49.1529 25.9716 49.2792 25.9383 49.3793 25.8624L50.4443 27.2546L48.6059 29.2768H40.9987C40.7841 28.2819 40.1935 27.4068 39.3487 26.832C38.504 26.2571 37.4694 26.0264 36.4584 26.1873C35.4474 26.3482 34.5371 26.8884 33.9153 27.6967C33.2934 28.505 33.0073 29.5195 33.1161 30.5312C33.2249 31.5429 33.7203 32.4745 34.5 33.1339C35.2797 33.7933 36.2844 34.1302 37.3067 34.0752C38.3291 34.0201 39.2912 33.5773 39.9947 32.838C40.6981 32.0988 41.0893 31.1194 41.0874 30.102C41.0874 30.0359 41.0874 29.9697 41.0874 29.9067H48.8658L50.8152 27.7649L51.9214 29.2106C52.0452 29.3719 52.205 29.5024 52.3881 29.592C52.5712 29.6817 52.7728 29.7279 52.9769 29.7272C53.2642 29.7283 53.5438 29.6353 53.7725 29.4626L55.519 28.146H63.3639C63.8829 28.146 64.3807 28.3506 64.7479 28.715C65.1152 29.0794 65.3219 29.5737 65.3228 30.0894C65.3228 30.6054 65.1169 31.1004 64.7504 31.4658C64.3838 31.8313 63.8864 32.0374 63.3671 32.0391H52.9864V31.5666H48.514L46.4157 36.474H31.0522C30.8651 36.4756 30.6796 36.4389 30.5073 36.3663C30.335 36.2937 30.1796 36.1867 30.0506 36.0519C29.919 35.9172 29.8166 35.7572 29.7495 35.5817C29.6825 35.4062 29.6523 35.2189 29.6607 35.0314C29.7844 31.9919 29.6607 27.6452 28.3644 24.2088C26.6083 19.5345 21.7746 16.8572 20.231 16.1044L22.4687 9.99704C23.4866 10.1233 24.4787 10.4049 25.4102 10.8317L25.8381 11.0459C25.8652 11.0586 25.8955 11.0626 25.925 11.0576C25.9545 11.0525 25.9817 11.0385 26.0029 11.0176L26.3199 10.6774C28.9455 8.36556 32.3833 7.17702 35.886 7.37013ZM44.9766 25.8656C45.0455 25.8179 45.0925 25.745 45.1073 25.6629C45.1222 25.5809 45.1037 25.4963 45.0559 25.4277L41.8196 20.807C41.7905 20.7653 41.7517 20.7312 41.7064 20.7076C41.6611 20.684 41.6108 20.6717 41.5597 20.6716H34.2853C34.2012 20.6716 34.1206 20.7048 34.0612 20.7639C34.0017 20.8229 33.9683 20.903 33.9683 20.9866C33.9683 21.0701 34.0017 21.1502 34.0612 21.2093C34.1206 21.2684 34.2012 21.3015 34.2853 21.3015H41.4012L44.5392 25.7868C44.5686 25.829 44.608 25.8634 44.6538 25.887C44.6997 25.9106 44.7507 25.9227 44.8023 25.9223C44.8648 25.9208 44.9254 25.9011 44.9766 25.8656Z" fill="white"/>
<path d="M33.3867 30.1118C33.3895 29.1876 33.7441 28.2986 34.3793 27.6235C35.0144 26.9483 35.8831 26.537 36.8108 26.472C37.7386 26.407 38.6568 26.6932 39.3809 27.2731C40.1051 27.853 40.5817 28.6837 40.715 29.5984V29.9134H40.7467C40.7467 29.9795 40.7467 30.0457 40.7467 30.1118C40.7467 31.0825 40.3586 32.0135 39.6679 32.6998C38.9772 33.3862 38.0404 33.7718 37.0635 33.7718C36.0867 33.7718 35.1499 33.3862 34.4591 32.6998C33.7684 32.0135 33.3804 31.0825 33.3804 30.1118H33.3867ZM33.7037 30.1118C33.7037 30.999 34.0583 31.8498 34.6896 32.4771C35.3209 33.1044 36.1771 33.4569 37.0699 33.4569C37.9626 33.4569 38.8188 33.1044 39.4501 32.4771C40.0814 31.8498 40.4361 30.999 40.4361 30.1118C40.4371 29.9557 40.4254 29.7998 40.4012 29.6456C40.2793 28.8101 39.8439 28.0512 39.1824 27.5213C38.5209 26.9915 37.6822 26.7298 36.8346 26.7888C35.9871 26.8478 35.1933 27.2231 34.6126 27.8394C34.0319 28.4557 33.7072 29.2675 33.7037 30.1118Z" fill="#3F2355"/>
<path d="M37.0699 26.4511C36.3415 26.4511 35.6294 26.6657 35.0237 27.0679C34.418 27.4701 33.9459 28.0417 33.6671 28.7105C33.3884 29.3792 33.3154 30.1151 33.4575 30.8251C33.5997 31.5351 33.9505 32.1873 34.4656 32.6991C34.9806 33.211 35.6369 33.5596 36.3514 33.7008C37.0658 33.842 37.8064 33.7695 38.4794 33.4925C39.1524 33.2155 39.7277 32.7464 40.1324 32.1445C40.5371 31.5426 40.7531 30.835 40.7531 30.1111C40.7531 30.0449 40.7531 29.9788 40.7531 29.9127H41.0701C41.0701 29.9756 41.0701 30.0418 41.0701 30.1079C41.0722 31.1279 40.6803 32.1097 39.9752 32.8509C39.2702 33.5922 38.3058 34.0362 37.2809 34.0915C36.256 34.1468 35.2489 33.8092 34.4672 33.1482C33.6855 32.4872 33.1889 31.5533 33.0798 30.5392C32.9708 29.525 33.2575 28.5079 33.881 27.6977C34.5045 26.8875 35.4171 26.346 36.4305 26.1848C37.444 26.0236 38.4811 26.2551 39.3279 26.8316C40.1746 27.408 40.7665 28.2854 40.9813 29.2827H40.7151V29.5977C40.5913 28.7246 40.1542 27.9254 39.4844 27.3472C38.8146 26.769 37.9572 26.4508 37.0699 26.4511Z" fill="#3F2355"/>
<path d="M35.0514 17.0574C32.3698 17.0574 29.7041 16.355 27.8911 15.0951C27.8222 15.0474 27.7752 14.9746 27.7604 14.8925C27.7455 14.8104 27.764 14.7258 27.8118 14.6573C27.8356 14.623 27.866 14.5937 27.9013 14.5712C27.9365 14.5486 27.9759 14.5332 28.0172 14.5259C28.0584 14.5186 28.1008 14.5194 28.1417 14.5285C28.1826 14.5375 28.2213 14.5546 28.2556 14.5786C30.5726 16.1913 34.3794 16.8307 37.7266 16.1724C39.3906 15.8574 41.5967 15.0699 43.0801 13.2305L43.1847 13.5234L43.6031 13.5895C41.9993 15.6022 39.6315 16.4243 37.8502 16.7897C36.9282 16.9692 35.9908 17.0589 35.0514 17.0574Z" fill="#3F2355"/>
<path d="M30.4005 1.71715C30.4209 1.7974 30.4252 1.88086 30.4132 1.96277C30.4012 2.04467 30.373 2.12342 30.3303 2.1945C30.2876 2.26558 30.2313 2.32761 30.1644 2.37703C30.0976 2.42646 30.0216 2.46231 29.9409 2.48255C28.217 2.90198 26.5329 3.46895 24.9074 4.17712C24.7913 4.22917 24.6872 4.30441 24.6016 4.39816C24.516 4.4919 24.4507 4.60214 24.4098 4.72203L23.0278 8.50175C22.7457 8.45765 22.4541 8.423 22.153 8.40411L21.7188 8.38206L23.218 4.28736C23.3188 4.01011 23.4745 3.75576 23.676 3.53936C23.8774 3.32295 24.1205 3.14889 24.3908 3.02746C26.083 2.29102 27.836 1.70087 29.6302 1.26359C29.7929 1.22247 29.9653 1.24713 30.1097 1.33215C30.2541 1.41718 30.3587 1.55563 30.4005 1.71715Z" fill="#3F2355"/>
<path d="M28.0355 23.8228C28.0072 23.7604 27.9821 23.698 27.9507 23.6387C27.9821 23.698 28.0072 23.7666 28.0355 23.8228Z" fill="#3F2355"/>
<path d="M27.9463 23.6362C27.9021 23.5315 27.8547 23.4269 27.8042 23.3223C27.8568 23.4311 27.9042 23.5357 27.9463 23.6362Z" fill="#3F2355"/>
<path d="M27.7533 23.2234C27.6965 23.1104 27.6396 23.0005 27.5796 22.8906C27.6301 23.0005 27.6996 23.1104 27.7533 23.2234Z" fill="#3F2355"/>
<path d="M27.2526 22.3316L27.1641 22.1934L27.2526 22.3316Z" fill="#3F2355"/>
<path d="M27.0854 22.0703C27.1138 22.1079 27.139 22.1486 27.1642 22.1893C27.139 22.1486 27.1138 22.1079 27.0854 22.0703Z" fill="#3F2355"/>
<path d="M26.4102 21.1387L26.4489 21.1871C26.435 21.1717 26.4221 21.1556 26.4102 21.1387Z" fill="#3F2355"/>
<path d="M26.3149 21.0252C26.243 20.935 26.171 20.8449 26.0928 20.7578C26.171 20.8449 26.243 20.9319 26.3149 21.0252Z" fill="#3F2355"/>
<path d="M25.7262 20.3287C25.6448 20.2386 25.5635 20.1515 25.479 20.0645C25.551 20.1515 25.6323 20.2386 25.7262 20.3287Z" fill="#3F2355"/>
<path d="M23.6616 18.4473L23.9775 18.7109L23.6616 18.4473Z" fill="#3F2355"/>
<path d="M35.9535 5.95387C32.242 5.74372 28.5882 6.93899 25.7281 9.29892C25.6993 9.32359 25.6643 9.33988 25.6268 9.34599C25.5893 9.35211 25.5509 9.34781 25.5157 9.33357C24.6995 9.00882 23.8488 8.7774 22.98 8.64377L23.037 8.49258C23.894 8.62736 24.7336 8.85443 25.5411 9.16978C25.5621 9.17879 25.5853 9.1815 25.6078 9.17759C25.6303 9.17367 25.6512 9.16329 25.6679 9.14773C28.5589 6.79767 32.2303 5.60777 35.9598 5.81213C41.1422 6.05466 43.5892 10.4612 44.3056 12.0455C44.3151 12.0659 44.3297 12.0836 44.348 12.0968C44.3663 12.11 44.3877 12.1184 44.4102 12.1211C48.8477 12.6471 52.1505 11.1762 53.935 10.3856C55.3677 9.75564 56.756 8.08311 57.7672 6.8673C58.1887 6.36334 58.5533 5.92237 58.8829 5.60739C60.0779 4.41993 66.7691 1.38041 67.5298 1.03708L68.598 0.555169C68.6209 0.545056 68.6461 0.541125 68.671 0.54377C68.6959 0.546415 68.7197 0.555543 68.74 0.570235C68.7602 0.584927 68.7762 0.604664 68.7863 0.627456C68.7965 0.650248 68.8004 0.67529 68.7977 0.700058L67.8468 7.81223C67.8449 7.82962 67.8395 7.84645 67.8307 7.86163C67.822 7.87682 67.8102 7.89003 67.796 7.90042L48.9872 23.2177C48.9632 23.2354 48.943 23.2577 48.9279 23.2832C48.9128 23.3088 48.903 23.3371 48.8992 23.3665C48.8953 23.3959 48.8975 23.4258 48.9055 23.4544C48.9136 23.4829 48.9273 23.5096 48.946 23.5327L49.9666 24.8619L49.8398 24.9564L48.8224 23.6272C48.7616 23.5493 48.7342 23.4507 48.7461 23.3528C48.7579 23.255 48.8081 23.1657 48.8857 23.1043L67.6249 7.84688C67.6666 7.81296 67.6938 7.76454 67.7009 7.71144L68.5821 1.09693C68.5862 1.06024 68.5806 1.02312 68.5658 0.989281C68.5509 0.955437 68.5274 0.926051 68.4976 0.904057C68.4678 0.882062 68.4326 0.868229 68.3957 0.863936C68.3589 0.859644 68.3215 0.865043 68.2873 0.879595L67.59 1.19457C66.8356 1.53474 60.1666 4.56482 58.9938 5.73024C58.3314 6.39169 57.5168 7.5067 56.3789 8.73196C55.5712 9.59981 54.5926 10.2935 53.504 10.7699C51.6022 11.5951 48.4673 12.7952 44.3404 12.2944C44.3043 12.2894 44.2701 12.2756 44.2407 12.2541C44.2114 12.2327 44.1879 12.2043 44.1724 12.1715C43.5163 10.6502 41.1074 6.1964 35.9535 5.95387Z" fill="#3F2355"/>
<path d="M25.729 9.30039C28.5899 6.9397 32.2449 5.74438 35.9575 5.95533C41.1114 6.19787 43.5204 10.6516 44.1796 12.1352C44.1951 12.1679 44.2186 12.1963 44.248 12.2178C44.2773 12.2392 44.3116 12.2531 44.3476 12.258C48.4682 12.7588 51.6157 11.5588 53.5112 10.7335C54.5998 10.2571 55.5784 9.56348 56.3861 8.69563C57.524 7.47037 58.3386 6.35536 59.001 5.6939C60.1738 4.52849 66.8428 1.49841 67.5972 1.15824L68.2945 0.843263C68.3287 0.828711 68.3661 0.823311 68.4029 0.827604C68.4398 0.831896 68.475 0.845731 68.5048 0.867725C68.5346 0.88972 68.5581 0.919106 68.573 0.952949C68.5878 0.986793 68.5934 1.02391 68.5893 1.0606L67.7081 7.67511C67.701 7.72821 67.6738 7.77663 67.6321 7.81055L48.893 23.068C48.8153 23.1294 48.7651 23.2187 48.7533 23.3165C48.7414 23.4144 48.7688 23.513 48.8296 23.5909L49.847 24.9201L49.7202 25.0146L48.7028 23.6885C48.6179 23.5779 48.5797 23.4387 48.5963 23.3006C48.6128 23.1624 48.6828 23.0361 48.7915 22.9483L67.4926 7.70975C67.5068 7.69936 67.5186 7.68614 67.5273 7.67096C67.536 7.65578 67.5415 7.63895 67.5433 7.62156L68.4308 0.947205L67.6511 1.29683C66.8967 1.63701 60.2531 4.65448 59.093 5.801C58.776 6.11597 58.4146 6.55379 57.9963 7.0609C56.9661 8.30191 55.5524 9.99964 54.05 10.6674C52.2148 11.48 48.801 12.9982 44.1892 12.4061H44.0972L44.0624 12.3242C43.4791 10.9131 41.1177 6.35535 35.948 6.12857C32.2341 5.91814 28.5793 7.1235 25.729 9.49882L25.6561 9.56497L25.5641 9.52717C24.7128 9.17718 23.822 8.93076 22.9111 8.79327L22.965 8.64523C23.8339 8.77886 24.6846 9.01029 25.5008 9.33503C25.5379 9.35256 25.5795 9.35863 25.6202 9.35246C25.6609 9.34628 25.6988 9.32815 25.729 9.30039Z" fill="#3F2355"/>
<path d="M35.9244 6.58264C29.5121 6.26766 25.7561 10.1261 25.7561 10.1261C24.8032 9.68548 23.7893 9.38927 22.748 9.24734L22.916 8.79062C23.8269 8.92811 24.7177 9.17453 25.5691 9.52452L25.661 9.56232L25.7339 9.49617C28.5826 7.12237 32.2348 5.91711 35.9466 6.12592C41.1163 6.36845 43.4777 10.9262 44.0768 12.3184L44.1117 12.4003H44.2036C48.8155 12.9924 52.2292 11.4742 54.0644 10.6616C55.5669 9.99383 56.9805 8.29611 58.0107 7.0551C58.4291 6.55744 58.7873 6.11017 59.1074 5.79519C60.2612 4.64868 66.9048 1.63121 67.6655 1.29103L68.4453 0.941406L67.5673 7.62206C67.5654 7.63945 67.56 7.65628 67.5512 7.67146C67.5425 7.68664 67.5307 7.69985 67.5165 7.71025L48.8155 22.9488C48.7068 23.0366 48.6368 23.1629 48.6202 23.3011C48.6036 23.4392 48.6418 23.5784 48.7267 23.689L49.7442 25.0151L49.4462 25.2355L49.5413 25.3647L49.4589 25.4245L48.3463 23.9756C48.1878 23.767 48.1167 23.5055 48.148 23.2459C48.1794 22.9863 48.3106 22.7489 48.5143 22.5834L67.1267 7.42992L67.8557 1.71625C67.8557 1.71625 60.5654 5.0046 59.4434 6.12592C58.3213 7.24724 56.4544 10.1135 54.2546 11.0868C52.1088 12.0317 48.6728 13.4617 44.0831 12.857C44.0928 12.7964 44.0845 12.7343 44.0591 12.6783C44.0338 12.6224 43.9926 12.575 43.9405 12.542C43.8979 12.5153 43.8495 12.4991 43.7993 12.4948C43.7492 12.4904 43.6987 12.4979 43.6521 12.5168C43.1386 11.3262 40.8659 6.81257 35.9244 6.58264Z" fill="#3F2355"/>
<path d="M35.9008 7.05462C32.3085 6.85404 28.7828 8.07739 26.097 10.4564L25.8529 10.7052L25.5359 10.5509C24.5998 10.1191 23.6023 9.83336 22.5786 9.70357L22.7434 9.25001C23.7847 9.39193 24.7986 9.68815 25.7515 10.1288C25.7515 10.1288 29.5075 6.28292 35.9198 6.5853C40.8613 6.81523 43.134 11.3288 43.6506 12.5258C43.5873 12.5465 43.5334 12.5889 43.4985 12.6455C43.4351 12.7431 43.3717 12.8376 43.3051 12.9289L43.2639 12.8281C43.2291 12.7462 43.1783 12.6329 43.1149 12.4943V12.4722L43.0864 12.4155C43.0516 12.3399 43.0103 12.2612 42.966 12.1761L42.9343 12.1131C42.5296 11.3391 42.0395 10.6123 41.4731 9.9461C41.19 9.6174 40.8851 9.30802 40.5602 9.02007L40.4207 8.89723C40.1294 8.64723 39.8201 8.41879 39.4952 8.21373C39.4096 8.15704 39.324 8.10664 39.2353 8.05624C39.1465 8.00585 39.1085 7.98065 39.0419 7.946L38.8739 7.85781C38.8169 7.82631 38.7598 7.79796 38.7028 7.77276L38.5411 7.69717C38.4175 7.64047 38.2939 7.59008 38.1671 7.54283L37.9832 7.47353L37.774 7.38849L37.5807 7.32864L37.3842 7.2751L37.2415 7.24045C37.1718 7.22155 37.1021 7.2058 37.0292 7.1932L36.8136 7.15226L36.5918 7.11761C36.5157 7.10501 36.4396 7.09556 36.3635 7.08926H36.3382C36.1892 7.07352 36.0497 7.07351 35.9008 7.05462Z" fill="#3F2355"/>
<path d="M18.2849 21.4317C20.197 22.2476 21.803 23.6397 22.8761 25.4115C23.9493 27.1832 24.4354 29.2451 24.2659 31.3062C24.0964 33.3672 23.2798 35.3233 21.9314 36.8984C20.583 38.4735 18.7708 39.588 16.7507 40.0846C15.3751 40.135 14.066 40.1885 12.833 40.2484C10.3673 39.8581 8.13992 38.5592 6.59467 36.6103C5.04942 34.6614 4.29965 32.2056 4.49473 29.732C4.6898 27.2584 5.8154 24.9486 7.6473 23.2627C9.47921 21.5768 11.883 20.6386 14.3798 20.6348C15.2986 20.6339 16.213 20.7612 17.0962 21.0127L16.0059 23.9893C15.0799 23.7662 14.117 23.7404 13.1803 23.9135C12.2437 24.0867 11.3545 24.4549 10.5713 24.9939C9.78801 25.5329 9.12843 26.2305 8.63589 27.041C8.14335 27.8514 7.82898 28.7562 7.71347 29.696C7.59796 30.6357 7.68392 31.5892 7.96568 32.4936C8.24745 33.3979 8.71866 34.2328 9.34832 34.9434C9.97798 35.6539 10.7518 36.2239 11.619 36.616C12.4862 37.0081 13.4271 37.2133 14.3798 37.2183C16.013 37.2153 17.59 36.6258 18.8202 35.5584C20.0504 34.491 20.8509 33.0178 21.0742 31.4101L20.7572 31.366C20.7572 31.2841 20.7794 31.1991 20.7857 31.114C20.7921 31.029 20.8016 30.9345 20.8047 30.8432C20.8079 30.7518 20.8047 30.6227 20.8047 30.5124C20.8059 30.3336 20.7974 30.1549 20.7794 29.977C20.7794 29.9056 20.773 29.8331 20.7604 29.7596C20.7304 29.5018 20.6838 29.2462 20.6209 28.9943C20.6082 28.9355 20.5924 28.8756 20.5734 28.8147C20.5038 28.5548 20.4159 28.3001 20.3103 28.0525C20.2722 27.958 20.2279 27.8635 20.1835 27.7721C20.1391 27.6808 20.1042 27.6084 20.063 27.5296C19.987 27.3847 19.9046 27.243 19.8158 27.1044C19.7556 27.0099 19.6922 26.9154 19.6288 26.8272L19.5464 26.7138C19.4893 26.6382 19.4323 26.5626 19.3689 26.487C19.3055 26.4114 19.277 26.3736 19.2231 26.317C19.1692 26.2603 19.0551 26.1248 18.9632 26.0335L19.1882 25.813C18.6141 25.2303 17.9373 24.7574 17.1913 24.4176L18.2849 21.4317Z" fill="#DEDFE0"/>
<path d="M26.0959 10.4543C28.7817 8.07531 32.3074 6.85196 35.8997 7.05253C36.0487 7.05253 36.1945 7.07143 36.3371 7.08718H36.3625C36.4385 7.08718 36.5146 7.09663 36.5907 7.11553L36.8125 7.15018L37.0281 7.19112C37.101 7.19112 37.1707 7.21947 37.2405 7.23837L37.3831 7.27302L37.5796 7.32656L37.773 7.38641L37.9631 7.4494L38.147 7.5187C38.2738 7.56594 38.3974 7.61634 38.521 7.67304L38.6827 7.74863L38.8538 7.83367L39.0218 7.92187C39.0884 7.95652 39.1518 7.99116 39.2152 8.03211C39.2786 8.07306 39.3895 8.13605 39.4751 8.1896C39.8 8.39466 40.1093 8.6231 40.4006 8.8731L40.5401 8.99594C40.865 9.28389 41.1699 9.59327 41.453 9.92197C42.0241 10.5946 42.5175 11.3289 42.9237 12.1111L42.9554 12.1741C42.9998 12.2591 43.041 12.3378 43.0758 12.4134L43.1044 12.4701V12.4922C43.1677 12.6308 43.2185 12.7442 43.2533 12.8261L43.2185 13.0308L43.1804 13.0812L43.1582 13.0245C43.1392 12.9709 41.0789 7.4557 35.868 7.21002C32.3212 7.01448 28.8404 8.22028 26.1846 10.5645L25.9691 10.785C25.9376 10.817 25.8966 10.8382 25.8522 10.8456C25.8078 10.8529 25.7621 10.8461 25.7219 10.826L25.4461 10.6874C24.5132 10.2618 23.5201 9.98139 22.5015 9.85582L22.5553 9.70149C23.5881 9.82441 24.5954 10.106 25.5412 10.5362L25.8582 10.6905L26.0959 10.4543Z" fill="#3F2355"/>
<path d="M35.886 7.36164C32.3844 7.16937 28.9479 8.35785 26.3231 10.6689L26.0061 11.0091C25.9849 11.03 25.9577 11.044 25.9282 11.0491C25.8987 11.0541 25.8684 11.0501 25.8413 11.0374L25.4102 10.8232C24.482 10.4019 23.4943 10.1247 22.4814 10.0011L22.5385 9.84995C23.5571 9.97551 24.5503 10.256 25.4831 10.6815L25.7589 10.8201C25.7991 10.8402 25.8448 10.8471 25.8892 10.8397C25.9337 10.8324 25.9746 10.8111 26.0061 10.7791L26.2217 10.5586C28.8775 8.2144 32.3582 7.0086 35.905 7.20415C41.1065 7.44983 43.1667 12.9651 43.1953 13.0186L43.2175 13.0753L43.1034 13.2202L43.0495 13.0753C43.0051 13.0186 40.9575 7.60102 35.886 7.36164Z" fill="#3F2355"/>
<path d="M22.0977 9.17969C22.3195 9.17969 22.5383 9.21749 22.7316 9.24898L22.5668 9.70255C22.3988 9.6805 22.2276 9.66475 22.0533 9.65215H21.917L21.9709 9.49781L22.0977 9.17969Z" fill="#3F2355"/>
<path d="M22.1309 17.3672C22.2572 17.4457 22.3836 17.5304 22.5162 17.6215C22.3867 17.5304 22.2572 17.4488 22.1309 17.3672Z" fill="#3F2355"/>
<path d="M22.0681 9.65039C22.2424 9.65039 22.4136 9.67874 22.5816 9.70079L22.5277 9.85512C22.3756 9.83307 22.2107 9.81733 22.0586 9.80788H21.8716L21.916 9.68504V9.65039H22.0681Z" fill="#3F2355"/>
<path d="M22.0578 9.81055C22.2163 9.81055 22.3748 9.83574 22.5269 9.85779L22.4698 10.009C22.3335 9.99008 22.1909 9.97749 22.0483 9.96804H21.8169L21.8708 9.81369L22.0578 9.81055Z" fill="#3F2355"/>
<path d="M21.9837 9.48828L21.9299 9.64229H21.9268L21.9837 9.48828Z" fill="#3F2355"/>
<path d="M21.8153 9.95569C21.5807 9.95569 21.3589 9.93679 21.1465 9.93364L21.2035 9.7793C21.4159 9.7793 21.6378 9.7793 21.8692 9.80135L21.8153 9.95569Z" fill="#3F2355"/>
<path d="M22.1427 8.55258L21.6641 8.52739L21.718 8.37305L22.1522 8.3951C22.4533 8.41399 22.7449 8.44864 23.027 8.49274L22.97 8.64393C22.7037 8.60298 22.428 8.57148 22.1427 8.55258Z" fill="#3F2355"/>
<path d="M21.6084 8.67973L21.6655 8.52539L22.1441 8.55059C22.4293 8.56949 22.7051 8.60098 22.9714 8.64193L22.9175 8.78997C22.6639 8.75217 22.4008 8.72383 22.1314 8.70493C21.9507 8.69233 21.7764 8.68288 21.6084 8.67973Z" fill="#3F2355"/>
<path d="M21.607 8.67969C21.775 8.67969 21.9493 8.67969 22.13 8.70489C22.3994 8.72378 22.6625 8.75213 22.9161 8.78993L22.7481 9.24665C22.5389 9.21515 22.3202 9.1931 22.1141 9.17735C21.9081 9.1616 21.6735 9.15215 21.4517 9.14585L21.607 8.67969Z" fill="#3F2355"/>
<path d="M21.2636 9.61914C21.476 9.61914 21.6979 9.61914 21.9292 9.64119V9.67584L21.8849 9.79868C21.6535 9.79868 21.4316 9.77663 21.2192 9.77663L21.2636 9.61914Z" fill="#3F2355"/>
<path d="M21.9234 9.641C21.6921 9.641 21.4702 9.61895 21.2578 9.61895L21.4321 9.14648C21.654 9.14648 21.8759 9.14649 22.0946 9.17798L21.9805 9.49296L21.9234 9.641Z" fill="#3F2355"/>
<path d="M20.7849 29.9686C20.8029 30.1465 20.8113 30.3253 20.8102 30.5041C20.8102 30.6154 20.8102 30.7256 20.8102 30.8348C20.8102 30.923 20.8102 31.0143 20.7912 31.1057C20.7722 31.197 20.7912 31.2758 20.7627 31.3577L20.4457 31.3167C20.2881 32.4736 19.7985 33.5609 19.0356 34.4487C18.2727 35.3364 17.2686 35.9871 16.1435 36.323C15.0183 36.6588 13.8196 36.6657 12.6907 36.3426C11.5618 36.0195 10.5503 35.3803 9.77725 34.5012C9.00417 33.6221 8.50216 32.5405 8.33122 31.3855C8.16028 30.2304 8.32764 29.0509 8.81329 27.9879C9.29895 26.9249 10.0824 26.0233 11.0699 25.391C12.0574 24.7586 13.2073 24.4222 14.3821 24.4219C14.8562 24.422 15.3286 24.4781 15.7895 24.5888L13.6404 30.4505C13.6094 30.5289 13.5944 30.6127 13.5965 30.6969C13.5986 30.7811 13.6176 30.864 13.6525 30.9408C13.6874 31.0175 13.7374 31.0865 13.7996 31.1438C13.8618 31.201 13.9349 31.2452 14.0146 31.2739C14.0943 31.3025 14.179 31.315 14.2636 31.3106C14.3483 31.3061 14.4312 31.2849 14.5074 31.248C14.5836 31.2112 14.6516 31.1596 14.7074 31.0962C14.7632 31.0328 14.8057 30.9589 14.8322 30.8789L16.9844 25.0046C17.6417 25.3105 18.2385 25.7308 18.7468 26.2456L18.975 26.0251C19.0669 26.1165 19.1525 26.2109 19.2349 26.3086C19.2868 26.3624 19.3355 26.4192 19.3807 26.4787C19.4409 26.5511 19.5012 26.6267 19.5582 26.7055L19.6406 26.8189C19.704 26.9102 19.7674 27.0015 19.8276 27.096C19.8879 27.1905 19.9988 27.3764 20.0749 27.5212C20.1161 27.6031 20.1573 27.6819 20.1953 27.7638C20.2333 27.8457 20.2841 27.9496 20.3221 28.0441C20.4277 28.2917 20.5156 28.5464 20.5852 28.8064C20.6042 28.8651 20.6201 28.925 20.6327 28.9859C20.6956 29.2378 20.7422 29.4935 20.7722 29.7513C20.7785 29.8227 20.7828 29.8951 20.7849 29.9686Z" fill="white"/>
<path d="M20.7202 31.5614C20.7202 31.499 20.7422 31.4366 20.7485 31.3711C20.7423 31.435 20.7329 31.4985 20.7202 31.5614Z" fill="#3F2355"/>
<path d="M20.6919 31.7238L20.7205 31.5625L20.6919 31.7238Z" fill="#3F2355"/>
<path d="M20.4941 32.4728C20.5193 32.4041 20.5412 32.3354 20.5601 32.2637C20.5412 32.3354 20.5193 32.4041 20.4941 32.4728Z" fill="#3F2355"/>
<path d="M20.3936 32.7606C20.425 32.6826 20.4532 32.6046 20.4815 32.5234C20.4532 32.6046 20.425 32.6826 20.3936 32.7606Z" fill="#3F2355"/>
<path d="M28.2163 24.2751C28.1593 24.1239 28.099 23.9601 28.0356 23.8247C28.0071 23.7617 27.9818 23.6987 27.9501 23.6388C27.9184 23.579 27.8581 23.4372 27.8074 23.3239C27.7914 23.2862 27.7734 23.2494 27.7535 23.2136C27.6997 23.1002 27.6394 22.99 27.5792 22.8797C27.4746 22.6876 27.3668 22.5018 27.2622 22.3191L27.1735 22.1805C27.1481 22.1395 27.1228 22.0986 27.0942 22.0608C26.8946 21.7458 26.679 21.4592 26.4603 21.1726L26.4223 21.1253L26.3304 21.0151C26.2575 20.9237 26.1846 20.8324 26.1053 20.7442C25.9849 20.5993 25.8581 20.4576 25.7281 20.319C25.5982 20.1804 25.5633 20.1394 25.4777 20.0512C25.0143 19.5727 24.5221 19.1225 24.0038 18.7031L23.6868 18.4386C23.2938 18.1236 22.9103 17.8559 22.5426 17.6102C22.4095 17.5188 22.2827 17.4338 22.1559 17.355C21.4712 16.9141 20.869 16.5865 20.4348 16.3629L20.2731 16.281H20.2478L20.2065 16.2621L20.2573 16.1172C21.8009 16.87 26.6346 19.5473 28.3906 24.2215C29.687 27.6579 29.8107 32.0046 29.687 35.0441C29.6786 35.2317 29.7088 35.4189 29.7758 35.5944C29.8429 35.7699 29.9453 35.93 30.0769 36.0647C30.2059 36.1994 30.3613 36.3064 30.5336 36.379C30.7059 36.4517 30.8914 36.4883 31.0785 36.4867H46.442L48.5403 31.5794H52.9873V32.0519H52.8288V31.7369H48.6195L46.5212 36.6442H31.0532C30.8449 36.6455 30.6385 36.6046 30.4466 36.5239C30.2548 36.4432 30.0815 36.3244 29.9374 36.1749C29.7912 36.0246 29.6773 35.8463 29.6026 35.6508C29.5279 35.4553 29.4941 35.2467 29.5032 35.0378C29.6268 32.0109 29.5032 27.6894 28.2163 24.2751Z" fill="#3F2355"/>
<path d="M20.2485 16.293L20.4109 16.3757L20.2485 16.293Z" fill="#3F2355"/>
<path d="M20.3139 28.0381C20.2761 27.9443 20.2321 27.8505 20.188 27.7598C20.2321 27.8567 20.2761 27.9443 20.3139 28.0381Z" fill="#DEDFE0"/>
<path d="M28.0665 24.329C29.3344 27.7181 29.4675 32.0176 29.3344 35.0382C29.3241 35.2673 29.3607 35.496 29.442 35.7107C29.5233 35.9253 29.6475 36.1213 29.8072 36.2867C29.967 36.4522 30.1588 36.5838 30.3712 36.6735C30.5836 36.7631 30.8121 36.809 31.0429 36.8084H46.6155L48.717 31.901H52.6696V32.0585H51.9088V32.2129L51.1449 32.3735H49.0529L46.9515 37.2808H31.0524C30.7577 37.2811 30.466 37.2221 30.1948 37.1073C29.9237 36.9926 29.6787 36.8245 29.4747 36.6132C29.2706 36.4019 29.1117 36.1518 29.0076 35.8779C28.9034 35.6039 28.8561 35.3119 28.8685 35.0193C28.9762 32.3766 28.916 27.9323 27.6228 24.5022C26.0031 20.1902 21.4831 17.6263 19.9585 16.8672L20.1233 16.4199C21.6606 17.1664 26.3612 19.787 28.0665 24.329Z" fill="#3F2355"/>
<path d="M19.6577 15.8495L21.8163 9.95312H22.0476C22.1903 9.95312 22.3329 9.97517 22.4692 9.99407L20.2314 16.1015C19.9652 15.9692 19.7972 15.8967 19.7591 15.881L19.6577 15.8495Z" fill="#3F2355"/>
<path d="M28.0658 24.3275C26.3605 19.7856 21.6599 17.1649 20.1226 16.409L20.1796 16.2578L20.2208 16.2767H20.2462L20.4078 16.3586C20.8421 16.5822 21.4443 16.9098 22.129 17.3508C22.2557 17.4327 22.3857 17.5146 22.5157 17.6059C22.8833 17.8516 23.2669 18.1256 23.6599 18.4343L23.9769 18.6989C24.4951 19.1183 24.9873 19.5684 25.4508 20.047C25.5364 20.1352 25.6188 20.2234 25.7012 20.3147C25.7836 20.4061 25.9579 20.595 26.0784 20.7399C26.1576 20.8281 26.2305 20.9195 26.3034 21.0108L26.3953 21.1211C26.407 21.1376 26.4197 21.1533 26.4334 21.1683C26.6553 21.4549 26.8708 21.7479 27.0673 22.0565C27.0958 22.0943 27.1212 22.1353 27.1466 22.1762L27.2353 22.3148C27.3494 22.4975 27.4572 22.6833 27.5523 22.8755C27.6125 22.9857 27.6695 23.096 27.7266 23.2094C27.7465 23.2452 27.7644 23.2819 27.7805 23.3196C27.8312 23.4183 27.8787 23.5233 27.9231 23.6346C27.9548 23.6944 27.9802 23.7574 28.0087 23.8204C28.0721 23.9684 28.1323 24.1196 28.1894 24.2708C29.4763 27.6852 29.5999 32.0067 29.4763 35.0336C29.4672 35.2425 29.501 35.451 29.5757 35.6465C29.6503 35.842 29.7642 36.0203 29.9105 36.1706C30.0546 36.3202 30.2278 36.4389 30.4197 36.5196C30.6115 36.6003 30.8179 36.6413 31.0262 36.64H46.4942L48.5926 31.7326H52.7892V32.0476H52.6688V31.8901H48.7384L46.6369 36.7975H31.0516C30.8208 36.7981 30.5923 36.7522 30.38 36.6626C30.1676 36.5729 29.9757 36.4413 29.816 36.2758C29.6563 36.1103 29.532 35.9144 29.4507 35.6997C29.3694 35.4851 29.3328 35.2564 29.3431 35.0273C29.4668 32.0161 29.3431 27.7167 28.0658 24.3275Z" fill="#3F2355"/>
<path d="M20.1867 27.7598C20.149 27.6787 20.1082 27.6007 20.0674 27.5195C20.1082 27.5975 20.149 27.6787 20.1867 27.7598Z" fill="#DEDFE0"/>
<path d="M27.6294 24.4937C28.9226 27.9238 28.9828 32.3681 28.8751 35.0107C28.8627 35.3033 28.91 35.5954 29.0142 35.8693C29.1183 36.1432 29.2772 36.3934 29.4813 36.6047C29.6853 36.816 29.9303 36.984 30.2014 37.0988C30.4726 37.2135 30.7643 37.2725 31.059 37.2723H46.9454L49.0469 32.3649H51.1388H51.0945L51.1293 32.5193C51.1515 32.6232 51.1737 32.7271 51.2022 32.8342H49.3607L47.2592 37.7416H31.0526C30.6939 37.7419 30.3387 37.6701 30.0086 37.5304C29.6785 37.3908 29.3803 37.1862 29.1318 36.929C28.8834 36.6718 28.6899 36.3673 28.563 36.0339C28.436 35.7004 28.3783 35.3449 28.3933 34.9887C28.4915 32.5917 28.463 28.0592 27.1761 24.6574C25.642 20.5627 21.3122 18.0744 19.7939 17.3059L19.9588 16.8555C21.4834 17.6177 26.0033 20.1816 27.6294 24.4937Z" fill="#3F2355"/>
<path d="M19.9194 33.7524C20.0082 33.6044 20.0874 33.4532 20.1635 33.2988C20.0906 33.4532 20.024 33.6044 19.9194 33.7524Z" fill="#3F2355"/>
<path d="M28.2359 34.9842C28.3342 32.5998 28.3057 28.0988 27.0315 24.7128C25.5195 20.6937 21.2595 18.2274 19.7412 17.4684L19.7951 17.3203C21.3134 18.0889 25.6431 20.5898 27.1773 24.6719C28.4642 28.0831 28.4927 32.6061 28.3944 35.0031C28.3795 35.3593 28.4372 35.7148 28.5641 36.0483C28.691 36.3818 28.8845 36.6862 29.133 36.9434C29.3814 37.2006 29.6797 37.4052 30.0098 37.5448C30.3399 37.6845 30.695 37.7563 31.0538 37.756H47.254L49.3555 32.8487H51.1971C51.2067 32.9018 51.2194 32.9544 51.2351 33.0062H49.4601L47.3617 37.9135H31.0538C30.6743 37.9154 30.2984 37.8404 29.9491 37.6931C29.5998 37.5458 29.2843 37.3293 29.022 37.0568C28.7565 36.7823 28.5499 36.457 28.4148 36.1007C28.2797 35.7444 28.2188 35.3646 28.2359 34.9842Z" fill="#3F2355"/>
<path d="M28.0767 34.9792C28.1749 32.6074 28.1464 28.1284 26.8817 24.7708C25.3951 20.8178 21.1985 18.3768 19.6865 17.6051L19.7404 17.457C21.2587 18.2287 25.5187 20.695 27.0307 24.7015C28.2985 28.0875 28.3334 32.5759 28.2351 34.9729C28.2197 35.3512 28.2814 35.7286 28.4165 36.0826C28.5516 36.4366 28.7573 36.7598 29.0212 37.0328C29.2835 37.3053 29.599 37.5218 29.9483 37.6691C30.2976 37.8164 30.6735 37.8914 31.053 37.8896H47.361L49.4593 32.9822H51.2343C51.2462 33.0355 51.261 33.0881 51.2787 33.1397H49.5639L47.4656 38.0471H31.053C30.6514 38.0478 30.2538 37.9678 29.8842 37.8117C29.5145 37.6556 29.1806 37.4267 28.9024 37.1388C28.6243 36.8509 28.4077 36.51 28.2658 36.1367C28.1239 35.7634 28.0595 35.3653 28.0767 34.9666V34.9792Z" fill="#3F2355"/>
<path d="M19.6196 15.9479L19.6481 15.8691L19.7496 15.9132C19.7876 15.9132 19.9556 16.0014 20.2218 16.1337L20.1711 16.2786C19.8985 16.1463 19.7274 16.0707 19.6893 16.055L19.5942 16.014L19.6196 15.9479Z" fill="#3F2355"/>
<path d="M19.6543 15.8535H19.6581L19.6543 15.8611V15.8535Z" fill="#3F2355"/>
<path d="M19.606 17.3873H19.6342L19.6122 17.2188L19.7944 17.3124L19.741 17.459L19.606 17.3873Z" fill="#3F2355"/>
<path d="M19.5542 16.7735V16.6602C19.6398 16.698 19.7824 16.7641 19.9663 16.8586L19.8014 17.309L19.6176 17.2145L19.5574 16.7798L19.5542 16.7735Z" fill="#3F2355"/>
<path d="M19.6868 17.6059L19.3159 17.4232H19.4744L19.6012 17.4043L19.7375 17.4736L19.6868 17.6059Z" fill="#3F2355"/>
<path d="M19.5508 16.1401L19.573 16.074V16.0519L19.5888 16.0078L19.6839 16.0488C19.7219 16.0645 19.8931 16.1401 20.1657 16.2724L20.1086 16.4236C19.8329 16.285 19.6586 16.2094 19.6205 16.1937L19.5508 16.1401Z" fill="#3F2355"/>
<path d="M19.5412 16.1709V16.1426L19.6268 16.1804C19.6648 16.1804 19.8392 16.2717 20.1149 16.4103L19.9501 16.8576C19.7663 16.7631 19.6331 16.6969 19.538 16.6591L19.5063 16.2339L19.5254 16.1804L19.5412 16.1709Z" fill="#3F2355"/>
<path d="M19.4302 17.0577L19.5506 16.7773L19.6108 17.212L19.4397 17.1301H19.4175C19.4211 17.1114 19.4211 17.0922 19.4175 17.0734L19.4302 17.0577Z" fill="#3F2355"/>
<path d="M19.4077 34.4704C19.4611 34.4049 19.5145 34.3362 19.5647 34.2676C19.5145 34.3425 19.4642 34.4111 19.4077 34.4704Z" fill="#3F2355"/>
<path d="M19.5484 26.7071C19.4919 26.6291 19.4322 26.5542 19.3726 26.4824C19.4354 26.5573 19.4919 26.6322 19.5484 26.7071Z" fill="#DEDFE0"/>
<path d="M19.515 16.2332L19.5088 16.127L19.5494 16.1426L19.54 16.1707L19.5338 16.1801L19.515 16.2332Z" fill="#3F2355"/>
<path d="M19.4429 15.9716L19.4209 15.8187L19.5465 15.7969L19.6533 15.8468V15.853L19.625 15.9311L19.6219 15.9373L19.6187 15.9435L19.603 15.9904H19.5999L19.5968 15.9872L19.5245 15.9592L19.4806 15.9685L19.4429 15.9716Z" fill="#3F2355"/>
<path d="M19.5339 16.6552L19.4863 16.3151L19.5149 16.2363L19.5466 16.6615L19.5339 16.6552Z" fill="#3F2355"/>
<path d="M19.4443 15.9825L19.4822 15.9762L19.5265 15.9668L19.5991 15.995L19.6023 15.9982H19.6054L19.5896 16.0421L19.5802 16.0641L19.5581 16.13L19.5517 16.1457L19.5107 16.13L19.517 16.2368L19.4886 16.3152L19.4443 15.9825Z" fill="#3F2355"/>
<path d="M19.4836 15.9727L19.4443 15.9792V15.9759L19.4836 15.9727Z" fill="#3F2355"/>
<path d="M19.4418 15.9805L19.4861 16.3143L19.3815 16.5978L19.3403 15.9962L19.4418 15.9805Z" fill="#3F2355"/>
<path d="M19.312 17.2486C19.3374 17.2362 19.3598 17.2186 19.3777 17.197C19.3957 17.1753 19.4088 17.1501 19.4163 17.123H19.4384L19.6089 17.2047L19.6311 17.3742H19.5995L19.312 17.2486Z" fill="#3F2355"/>
<path d="M19.5506 16.7816L19.4301 17.0619C19.4317 17.0515 19.4317 17.0409 19.4301 17.0304L19.3921 16.7533V16.6619V16.6367H19.4587L19.5442 16.6745L19.5506 16.7816Z" fill="#3F2355"/>
<path d="M19.4268 17.0723C19.4305 17.0919 19.4305 17.1121 19.4268 17.1317V17.0723Z" fill="#3F2355"/>
<path d="M19.2603 34.6603C19.3105 34.6041 19.3607 34.5448 19.4078 34.4824C19.3621 34.5445 19.3128 34.6038 19.2603 34.6603Z" fill="#3F2355"/>
<path d="M19.3882 16.7559L19.3853 16.7588V16.7559H19.3882Z" fill="#3F2355"/>
<path d="M19.3892 16.6028L19.4934 16.3203L19.5408 16.6593L19.4555 16.6217H19.3892V16.6028Z" fill="#3F2355"/>
<path d="M19.3825 16.6035V16.6267H19.3726L19.3825 16.6035Z" fill="#3F2355"/>
<path d="M19.3881 26.4751C19.3433 26.4162 19.2951 26.3599 19.2437 26.3066C19.2813 26.3628 19.3284 26.419 19.3881 26.4751Z" fill="#DEDFE0"/>
<path d="M19.3827 16.6281L19.3859 16.6532L19.3922 16.744L19.389 16.7534H19.3859L19.3701 16.625H19.3733H19.3827V16.6281Z" fill="#3F2355"/>
<path d="M19.3685 16.625L19.3843 16.7537L19.2642 17.0299L19.2231 16.716V16.6407L19.3685 16.625Z" fill="#3F2355"/>
<path d="M19.4174 17.1208C19.41 17.148 19.3968 17.1733 19.3788 17.195C19.3608 17.2167 19.3383 17.2344 19.3128 17.2468L19.1987 17.1932L19.2336 17.1113H19.278V17.0389L19.3984 16.7617L19.4365 17.0389C19.438 17.0493 19.438 17.06 19.4365 17.0704L19.4143 17.1208H19.4174Z" fill="#3F2355"/>
<path d="M19.3164 17.4238L19.6872 17.6065L18.8283 19.9531C18.6317 19.868 18.4321 19.7925 18.2292 19.72C18.0263 19.6476 17.833 19.5846 17.6333 19.531L18.394 17.4585C18.7019 17.4639 19.0098 17.4524 19.3164 17.4238Z" fill="#3F2355"/>
<path d="M19.6013 17.3887L19.4745 17.4076H19.316L19.1353 17.3257L19.0117 17.2722L19.2336 17.2564C19.2602 17.2544 19.2861 17.2469 19.3097 17.2344L19.6013 17.3887Z" fill="#3F2355"/>
<path d="M19.2672 17.0391V17.1146H19.2212L19.2672 17.0391Z" fill="#3F2355"/>
<path d="M19.2306 17.1092H19.0537L19.2243 16.7168L19.2654 17.0307L19.2306 17.1092Z" fill="#3F2355"/>
<path d="M19.0718 34.8707C19.1161 34.8267 19.1572 34.7796 19.1983 34.7324C19.1572 34.7921 19.1161 34.8267 19.0718 34.8707Z" fill="#3F2355"/>
<path d="M19.1911 25.8036L18.966 26.024C18.8519 25.9075 18.7315 25.7973 18.6079 25.6902C18.5636 25.6487 18.5171 25.6098 18.4684 25.5736C18.421 25.5311 18.3712 25.4911 18.3194 25.4539C18.2497 25.3972 18.18 25.3468 18.1071 25.2964C17.7872 25.0654 17.4453 24.866 17.0864 24.7011L17.1942 24.4082C17.9402 24.748 18.617 25.2209 19.1911 25.8036Z" fill="#3F2355"/>
<path d="M19.2248 16.6399L19.1836 16.0352C19.218 16.0484 19.2483 16.0706 19.2711 16.0994C19.294 16.1282 19.3086 16.1626 19.3135 16.1989L19.3706 16.6242L19.2248 16.6399Z" fill="#3F2355"/>
<path d="M19.3892 16.6001V16.6222L19.3321 16.197C19.3272 16.1606 19.3126 16.1262 19.2897 16.0974C19.2668 16.0686 19.2366 16.0464 19.2021 16.0332V16.0143V15.8631L19.3448 15.8379H19.4272H19.4494L19.4716 15.9922H19.3701L19.3892 16.6001Z" fill="#3F2355"/>
<path d="M19.212 16.646C19.0786 16.646 18.8944 16.668 18.6816 16.6712L18.8563 16.1947C18.9643 16.1947 19.0627 16.1947 19.1484 16.1758L19.212 16.646Z" fill="#3F2355"/>
<path d="M19.2384 40.0014C21.0572 39.0797 22.5736 37.6612 23.6093 35.9127C24.6449 34.1642 25.1569 32.1583 25.085 30.1307C25.0131 28.103 24.3603 26.1379 23.2034 24.4662C22.0464 22.7945 20.4334 21.4856 18.5537 20.6934L18.7185 20.2461C20.6133 21.0399 22.2515 22.3368 23.4536 23.9946C24.6557 25.6524 25.3752 27.6071 25.5333 29.6443C25.6915 31.6816 25.2821 33.7228 24.35 35.5442C23.418 37.3656 21.9993 38.8968 20.2495 39.9699L19.2384 40.0014Z" fill="#3F2355"/>
<path d="M19.0529 17.125H19.2298L19.1951 17.2066L19.3088 17.26C19.2853 17.2724 19.2595 17.2799 19.233 17.282L19.0119 17.2976H18.9897L19.0529 17.125Z" fill="#3F2355"/>
<path d="M19.4213 15.8223H19.3896H19.3072H19.2533L18.9648 15.8506L21.1392 9.91016C21.3516 9.91016 21.5735 9.91016 21.808 9.9322L19.6495 15.8286L19.5417 15.7782L19.4213 15.8223Z" fill="#3F2355"/>
<path d="M18.9146 16.034L18.9746 15.874L19.262 15.8457H19.3157L19.1736 15.8708V16.0215V16.0403C19.1423 16.0338 19.1101 16.0338 19.0788 16.0403L18.9146 16.034Z" fill="#3F2355"/>
<path d="M19.3169 17.4268C19.0103 17.4553 18.7024 17.4669 18.3945 17.4614L18.4516 17.3008C18.6671 17.3008 18.8573 17.3008 19.0126 17.3008L19.1362 17.3543L19.3169 17.4268Z" fill="#3F2355"/>
<path d="M18.8574 16.2027L18.9145 16.042H19.0888C19.1202 16.0355 19.1525 16.0355 19.1839 16.042L19.2251 16.6468L19.1617 16.1775C19.073 16.1806 18.9652 16.2027 18.8574 16.2027Z" fill="#3F2355"/>
<path d="M19.764 10.0086C20.2233 9.95061 20.6862 9.92535 21.1491 9.93296L18.9747 15.8734C18.2647 15.9207 16.9652 15.8734 16.0967 15.3159C16.7359 14.8404 17.1806 14.1513 17.3487 13.3757C17.4843 12.5236 17.3161 11.6513 16.8732 10.9094C17.7768 10.4445 18.7551 10.1396 19.764 10.0086Z" fill="white"/>
<path d="M18.9676 26.025L18.7394 26.2454C18.2311 25.7307 17.6343 25.3104 16.9771 25.0044L17.088 24.6895C17.4469 24.8544 17.7888 25.0537 18.1086 25.2848C18.1815 25.3352 18.2513 25.3856 18.321 25.4423C18.3728 25.4794 18.4225 25.5194 18.47 25.5619C18.5186 25.5981 18.5652 25.637 18.6094 25.6785C18.733 25.7982 18.8535 25.9084 18.9676 26.025Z" fill="#3F2355"/>
<path d="M25.0937 30.5025C25.0938 32.4679 24.547 34.3951 23.5139 36.071C22.4807 37.7469 21.0013 39.1063 19.2393 39.999L17.9492 40.04C19.8675 39.3289 21.5274 38.063 22.7148 36.4055C23.9021 34.748 24.5625 32.775 24.6106 30.741C24.6587 28.707 24.0923 26.7054 22.9846 24.9943C21.877 23.2832 20.2787 21.9412 18.3961 21.1414L18.5578 20.6973C20.4956 21.5136 22.1486 22.8787 23.3109 24.6223C24.4732 26.3659 25.0932 28.411 25.0937 30.5025Z" fill="#3F2355"/>
<path d="M25.7272 30.5013C25.723 28.2816 25.0613 26.1123 23.8246 24.2639C22.5879 22.4155 20.831 20.9698 18.7729 20.107L18.8268 19.959C20.7367 20.7552 22.395 22.0487 23.627 23.7031C24.859 25.3575 25.6191 27.3115 25.8271 29.3592C26.0351 31.4069 25.6834 33.4725 24.8089 35.3381C23.9345 37.2038 22.5698 38.8005 20.8586 39.96H20.5606C22.1469 38.9362 23.4505 37.5346 24.3528 35.8827C25.2551 34.2307 25.7276 32.3809 25.7272 30.5013Z" fill="#3F2355"/>
<path d="M25.5699 30.5013C25.5682 28.3119 24.9177 26.1714 23.6996 24.347C22.4814 22.5226 20.7496 21.0951 18.7202 20.2425L18.7741 20.0977C20.6764 20.8918 22.3249 22.1862 23.5423 23.8417C24.7596 25.4972 25.4999 27.4511 25.6834 29.4934C25.8669 31.5356 25.4868 33.589 24.5838 35.4326C23.6808 37.2763 22.2892 38.8404 20.5586 39.9569H20.2417C21.8671 38.9627 23.2098 37.5721 24.1423 35.9172C25.0749 34.2623 25.5663 32.398 25.5699 30.5013Z" fill="#3F2355"/>
<path d="M18.6357 35.2927C18.7005 35.2388 18.7624 35.1815 18.821 35.1211C18.7624 35.1815 18.7005 35.2388 18.6357 35.2927Z" fill="#3F2355"/>
<path d="M18.6099 25.6905C18.5657 25.6492 18.5193 25.6103 18.4707 25.5742C18.5193 25.6103 18.5657 25.6492 18.6099 25.6905Z" fill="#3F2355"/>
<path d="M18.5088 17.1539L18.6831 16.6814C18.8987 16.6814 19.0793 16.6814 19.2125 16.6562V16.7444L19.0413 17.1382C18.905 17.1539 18.7212 17.1539 18.5088 17.1539Z" fill="#3F2355"/>
<path d="M18.5077 17.1523C18.7201 17.1523 18.904 17.1523 19.0529 17.1523L18.9895 17.3035H19.0117C18.8564 17.3035 18.6662 17.3035 18.4507 17.3035L18.5077 17.1523Z" fill="#3F2355"/>
<path d="M18.3203 25.4529C18.2512 25.3967 18.1821 25.3468 18.1099 25.2969C18.1821 25.3406 18.2512 25.3967 18.3203 25.4529Z" fill="#3F2355"/>
<path d="M18.2873 21.4296L17.1969 24.3935C17.0038 24.3032 16.8059 24.2233 16.6042 24.1541C16.4045 24.0848 16.2048 24.025 16.002 23.9746L17.0923 20.998C17.2952 21.0516 17.498 21.1177 17.7009 21.187C17.9038 21.2563 18.0939 21.3445 18.2873 21.4296Z" fill="#3F2355"/>
<path d="M18.083 35.734L18.2222 35.6328L18.083 35.734Z" fill="#3F2355"/>
<path d="M17.9531 35.8128L18.0823 35.7246C18.0413 35.7561 17.9972 35.7845 17.9531 35.8128Z" fill="#3F2355"/>
<path d="M24.4598 30.5061C24.4585 28.543 23.878 26.6233 22.7901 24.9847C21.7023 23.3461 20.1548 22.0604 18.3391 21.2867L18.393 21.1387C20.2756 21.9385 21.8738 23.2805 22.9815 24.9916C24.0892 26.7027 24.6555 28.7043 24.6074 30.7383C24.5593 32.7723 23.899 34.7453 22.7117 36.4028C21.5243 38.0603 19.8644 39.3262 17.9461 40.0373H17.4199C19.4571 39.3929 21.2361 38.123 22.5011 36.4104C23.7661 34.6977 24.4519 32.6305 24.4598 30.5061Z" fill="#3F2355"/>
<path d="M17.5796 19.6695L17.6335 19.5215C17.8332 19.575 18.0329 19.6412 18.2294 19.7105C18.4259 19.7798 18.6319 19.8585 18.8284 19.9436L18.7746 20.0916C18.578 20.0065 18.3815 19.931 18.1787 19.8585C17.9758 19.7861 17.7824 19.7325 17.5796 19.6695Z" fill="#3F2355"/>
<path d="M17.4395 36.1211C17.5853 36.0424 17.7279 35.9605 17.8642 35.8691C17.7275 35.961 17.5857 36.0451 17.4395 36.1211Z" fill="#3F2355"/>
<path d="M17.5793 19.6738C17.7821 19.7305 17.9787 19.7935 18.1783 19.8628C18.378 19.9321 18.5777 20.0109 18.7742 20.0959L18.7204 20.2408C18.5238 20.1589 18.3273 20.0833 18.1245 20.0109C17.9216 19.9384 17.7282 19.8786 17.5254 19.8219L17.5793 19.6738Z" fill="#3F2355"/>
<path d="M17.5249 19.8262C17.7362 19.8829 17.9359 19.9459 18.124 20.0152C18.3269 20.0876 18.5234 20.1632 18.7199 20.2451L18.5551 20.6924C18.3617 20.6105 18.1652 20.5317 17.9655 20.4624C17.7658 20.3931 17.5661 20.327 17.3633 20.2703L17.5249 19.8262Z" fill="#3F2355"/>
<path d="M17.0913 21.0145L17.1452 20.8633C17.3481 20.92 17.5541 20.9861 17.7538 21.0554C17.9535 21.1247 18.15 21.2035 18.3402 21.2853L18.2863 21.4334C18.0929 21.3483 17.8996 21.2728 17.6999 21.2035C17.5002 21.1342 17.2942 21.068 17.0913 21.0145Z" fill="#3F2355"/>
<path d="M18.3397 21.2852C20.2332 22.0904 21.8333 23.4521 22.9251 25.1875C24.017 26.9229 24.5482 28.9487 24.4474 30.9929C24.3466 33.037 23.6187 35.0016 22.3614 36.6226C21.1042 38.2436 19.3778 39.4435 17.4142 40.0609L16.7549 40.0861C18.775 39.5895 20.5871 38.475 21.9356 36.8999C23.284 35.3249 24.1006 33.3688 24.2701 31.3077C24.4396 29.2467 23.9535 27.1847 22.8803 25.413C21.8071 23.6413 20.2012 22.2492 18.289 21.4332L18.3397 21.2852Z" fill="#3F2355"/>
<path d="M17.8039 20.9077C17.6042 20.8384 17.4013 20.7723 17.1953 20.7188L17.3601 20.2715C17.563 20.3282 17.7659 20.3943 17.9624 20.4636C18.1589 20.5329 18.3586 20.6117 18.5519 20.6936L18.3903 21.1377C18.2033 21.0526 18.0067 20.977 17.8039 20.9077Z" fill="#3F2355"/>
<path d="M17.144 20.8636L17.1979 20.7188C17.404 20.7723 17.6068 20.8384 17.8065 20.9077C18.0062 20.977 18.2027 21.0526 18.3929 21.1377L18.339 21.2857C18.1488 21.2038 17.9523 21.1251 17.7526 21.0558C17.5529 20.9865 17.3469 20.9329 17.144 20.8636Z" fill="#3F2355"/>
<path d="M21.1493 9.9347C20.6864 9.92709 20.2235 9.95235 19.7642 10.0103C18.7552 10.1414 17.777 10.4462 16.8734 10.9111C16.8491 10.8642 16.8215 10.8189 16.791 10.7757C17.7132 10.3005 18.7119 9.98919 19.742 9.85596C20.2274 9.79334 20.717 9.76807 21.2064 9.78036L21.1493 9.9347Z" fill="#3F2355"/>
<path d="M16.977 25.0017L14.8248 30.876C14.7643 31.0286 14.6463 31.1517 14.4959 31.2192C14.3455 31.2867 14.1746 31.2933 14.0194 31.2375C13.8642 31.1817 13.737 31.068 13.6649 30.9205C13.5927 30.773 13.5813 30.6034 13.633 30.4477L15.7821 24.5859C15.9889 24.6341 16.1931 24.693 16.3938 24.7623C16.5927 24.831 16.7874 24.9109 16.977 25.0017Z" fill="#3F2355"/>
<path d="M16.9527 36.3652L16.7549 36.4469C16.8208 36.4155 16.8868 36.3904 16.9527 36.3652Z" fill="#3F2355"/>
<path d="M16.2598 11.1148C16.4286 10.9892 16.6054 10.8745 16.7891 10.7715C16.8196 10.8147 16.8471 10.86 16.8715 10.9069C16.6871 11.0099 16.5102 11.1256 16.3422 11.2534C16.3073 11.1936 16.282 11.1463 16.2598 11.1148Z" fill="#3F2355"/>
<path d="M19.7226 9.69846C20.2334 9.63418 20.7484 9.60891 21.2631 9.62287L21.206 9.78036C20.7166 9.76806 20.2271 9.79333 19.7416 9.85595C18.7115 9.98918 17.7128 10.3004 16.7907 10.7757C16.759 10.7253 16.7399 10.6938 16.7336 10.6875L16.6987 10.6465C17.6425 10.1556 18.6662 9.83466 19.7226 9.69846Z" fill="#3F2355"/>
<path d="M16.3419 11.2539C16.6944 11.8604 16.8296 12.5677 16.7254 13.2603C16.572 13.922 16.1752 14.5029 15.6129 14.8887C15.2808 14.4559 15.1216 13.9162 15.166 13.3737C15.1797 12.9532 15.2934 12.5419 15.4978 12.1735C15.7021 11.805 15.9914 11.4899 16.3419 11.2539Z" fill="white"/>
<path d="M16.7458 40.084C15.4636 40.3951 14.1321 40.4508 12.8281 40.2478C14.0611 40.1879 15.3702 40.1438 16.7458 40.084Z" fill="#DEDFE0"/>
<path d="M16.1772 10.9784C16.3426 10.857 16.5151 10.7455 16.6939 10.6445L16.7288 10.6855C16.7288 10.6855 16.7541 10.7233 16.7858 10.7737C16.6021 10.8767 16.4253 10.9913 16.2565 11.117C16.2403 11.0959 16.2255 11.0738 16.2121 11.0509C16.1974 11.0283 16.1857 11.0039 16.1772 10.9784Z" fill="#3F2355"/>
<path d="M15.6138 14.8895C16.1761 14.5036 16.5729 13.9228 16.7263 13.2611C16.8305 12.5684 16.6953 11.8611 16.3428 11.2547C16.5108 11.1269 16.6877 11.0111 16.8721 10.9082C17.315 11.6501 17.4832 12.5224 17.3476 13.3745C17.1795 14.1501 16.7348 14.8393 16.0956 15.3147C15.9984 15.2526 15.9062 15.1831 15.8198 15.1068C15.743 15.0424 15.6739 14.9695 15.6138 14.8895Z" fill="#3F2355"/>
<path d="M16.3311 36.5882L16.5226 36.5254L16.3311 36.5882Z" fill="#3F2355"/>
<path d="M16.2925 10.6159C16.3529 10.5737 16.4262 10.5538 16.4998 10.5596C16.5734 10.5653 16.6427 10.5964 16.6957 10.6474C16.5166 10.7486 16.3438 10.8603 16.1781 10.9819C16.1541 10.9169 16.1523 10.8458 16.173 10.7797C16.1936 10.7135 16.2356 10.656 16.2925 10.6159Z" fill="#3F2355"/>
<path d="M16.2454 24.3913L16.1162 24.3535L16.2454 24.3913Z" fill="#3F2355"/>
<path d="M16.0293 36.6796L16.2334 36.623L16.0293 36.6796Z" fill="#3F2355"/>
<path d="M16.2488 24.3957L16.1188 24.3579L15.8906 24.3012L16.0016 24.002C16.2044 24.0523 16.4041 24.1122 16.6038 24.1815C16.8056 24.2507 17.0034 24.3306 17.1965 24.4209L17.0888 24.7138C16.8944 24.6256 16.6978 24.5469 16.4992 24.4776L16.2488 24.3957Z" fill="#3F2355"/>
<path d="M16.1167 24.3417L15.8906 24.2852L16.1167 24.3417Z" fill="#3F2355"/>
<path d="M16.0963 15.3134C16.9648 15.8677 18.2643 15.9181 18.9743 15.8709L18.9141 16.0315C18.1566 16.0725 16.8411 16 15.9663 15.4016L16.0931 15.3008L16.0963 15.3134Z" fill="#3F2355"/>
<path d="M18.8566 16.2077C18.0547 16.2392 16.7203 16.1478 15.8296 15.5273L15.9659 15.4297C16.8407 16.0155 18.1561 16.088 18.9137 16.0596L18.8566 16.2077Z" fill="#3F2355"/>
<path d="M16.3954 24.7648C16.1948 24.6955 15.9906 24.6366 15.7837 24.5884L15.8915 24.2734L16.1197 24.3301L16.2496 24.3679L16.5 24.4498C16.6987 24.5191 16.8952 24.5979 17.0896 24.6861L16.9787 25.001C16.789 24.9113 16.5942 24.8324 16.3954 24.7648Z" fill="#3F2355"/>
<path d="M15.9004 24.2902C15.793 24.2618 15.6824 24.2397 15.5845 24.2207C15.6698 24.2397 15.7803 24.2618 15.9004 24.2902Z" fill="#3F2355"/>
<path d="M15.4672 15.6889C15.5276 15.6896 15.587 15.6733 15.6384 15.6416C15.7018 15.6007 15.7652 15.5597 15.8254 15.5156C16.7161 16.1456 18.0442 16.2275 18.8524 16.196L18.6781 16.6716C17.7494 16.6716 16.1867 16.5519 15.2231 15.6353L15.2517 15.607C15.3106 15.6602 15.3876 15.6894 15.4672 15.6889Z" fill="#3F2355"/>
<path d="M15.5845 36.7842L15.7886 36.7402L15.5845 36.7842Z" fill="#3F2355"/>
<path d="M15.7111 15.2225C15.627 15.1496 15.5506 15.0683 15.4829 14.98L15.6129 14.8887C15.672 14.9685 15.7401 15.0414 15.8157 15.106C15.9021 15.1822 15.9943 15.2517 16.0915 15.3139L15.9647 15.4147C15.8749 15.3578 15.7901 15.2935 15.7111 15.2225Z" fill="#3F2355"/>
<path d="M15.2681 36.837L15.5451 36.793L15.2681 36.837Z" fill="#3F2355"/>
<path d="M15.4847 14.9844C15.5523 15.0727 15.6288 15.1539 15.7129 15.2269C15.7919 15.2979 15.8767 15.3622 15.9665 15.419L15.8302 15.5167C15.7522 15.4642 15.6781 15.4063 15.6083 15.3434C15.5159 15.2629 15.432 15.1732 15.3579 15.0757L15.4847 14.9844Z" fill="#3F2355"/>
<path d="M15.2686 15.6065C15.2481 15.5878 15.23 15.5667 15.2147 15.5435C15.1924 15.5086 15.1773 15.4696 15.1702 15.4289C15.1631 15.3881 15.1641 15.3463 15.1732 15.306C15.1824 15.2656 15.1994 15.2274 15.2234 15.1936C15.2473 15.1598 15.2778 15.131 15.313 15.1089L15.3669 15.0742C15.441 15.1717 15.5249 15.2614 15.6173 15.3419C15.687 15.4048 15.7611 15.4627 15.8391 15.5152C15.7789 15.5593 15.7155 15.6002 15.6521 15.6412C15.6008 15.6728 15.5414 15.6892 15.481 15.6884C15.4024 15.6882 15.3267 15.659 15.2686 15.6065Z" fill="#3F2355"/>
<path d="M15.0072 13.3724C15.0219 12.925 15.143 12.4873 15.3606 12.0953C15.5782 11.7034 15.8862 11.3682 16.2592 11.1172C16.2814 11.1487 16.3068 11.1959 16.3416 11.2558C15.9911 11.4918 15.7019 11.8069 15.4975 12.1753C15.2931 12.5438 15.1794 12.9551 15.1657 13.3756C15.1214 13.9181 15.2806 14.4577 15.6126 14.8906L15.4827 14.982C15.1311 14.5214 14.9619 13.9487 15.0072 13.3724Z" fill="#3F2355"/>
<path d="M15.0702 24.147C14.9912 24.135 14.9115 24.1277 14.8315 24.125C14.9115 24.1275 14.9912 24.1348 15.0702 24.147Z" fill="#3F2355"/>
<path d="M14.981 36.8668C15.0789 36.8668 15.1768 36.8478 15.2747 36.832C15.18 36.8478 15.082 36.8573 14.981 36.8668Z" fill="#3F2355"/>
<path d="M14.8483 13.375C14.8624 12.9003 14.9903 12.4358 15.2212 12.02C15.4522 11.6042 15.7797 11.2492 16.1764 10.9844C16.1859 11.0101 16.1986 11.0344 16.2144 11.0568C16.2278 11.0798 16.2426 11.1019 16.2588 11.123C15.8857 11.3739 15.5778 11.7091 15.3602 12.1011C15.1426 12.4931 15.0215 12.9307 15.0068 13.3782C14.9615 13.9545 15.1307 14.5272 15.4822 14.9877L15.3523 15.0791C14.9817 14.5907 14.8026 13.985 14.8483 13.375Z" fill="#3F2355"/>
<path d="M14.373 13.373C14.4301 10.9319 16.9088 9.62479 19.6537 9.24682C20.2443 9.17154 20.84 9.14415 21.4351 9.16492L21.2607 9.63739C20.746 9.62343 20.2311 9.6487 19.7203 9.71298C18.6641 9.8482 17.6403 10.1681 16.6964 10.6579C16.6434 10.607 16.5743 10.576 16.5008 10.5702C16.4274 10.5645 16.3542 10.5843 16.2938 10.6264C16.2371 10.6664 16.1952 10.7239 16.1746 10.7899C16.154 10.8559 16.1558 10.9269 16.1797 10.9918C15.783 11.2566 15.4555 11.6116 15.2246 12.0274C14.9936 12.4432 14.8657 12.9077 14.8516 13.3825C14.8059 13.9924 14.9851 14.5981 15.3556 15.0865L15.3017 15.1211C15.2666 15.1433 15.2361 15.1721 15.2121 15.2059C15.1882 15.2397 15.1711 15.2779 15.162 15.3182C15.1529 15.3586 15.1518 15.4004 15.159 15.4411C15.1661 15.4819 15.1812 15.5209 15.2035 15.5558C15.2187 15.5789 15.2368 15.6001 15.2574 15.6188L15.2288 15.6471C14.9288 15.3524 14.6969 14.9963 14.5491 14.6037C14.4013 14.211 14.3412 13.7911 14.373 13.373Z" fill="#3F2355"/>
<path d="M14.7036 36.8809C14.5962 36.8809 14.4856 36.8809 14.3877 36.8809C14.4856 36.8903 14.5962 36.8872 14.7036 36.8809Z" fill="#3F2355"/>
<path d="M14.3843 24.1055C14.498 24.1055 14.6117 24.1055 14.7254 24.1055C14.6117 24.1086 14.498 24.1055 14.3843 24.1055Z" fill="#3F2355"/>
<path d="M19.6542 9.22748C16.9092 9.60545 14.4305 10.9126 14.3735 13.3537C14.3408 13.772 14.4002 14.1924 14.5474 14.5856C14.6946 14.9789 14.9262 15.3356 15.2261 15.631C16.177 16.5475 17.7619 16.683 18.6811 16.6672L18.5067 17.1397C17.5336 17.1397 15.9995 16.9602 14.9694 16.0436C14.5985 15.7023 14.3096 15.2825 14.1241 14.8152C13.9387 14.348 13.8614 13.8452 13.898 13.3442C13.9551 10.9567 16.0819 9.24953 19.5876 8.75817C20.257 8.67337 20.9326 8.64702 21.6067 8.67942L21.4355 9.14559C20.8405 9.12482 20.2447 9.15221 19.6542 9.22748Z" fill="#3F2355"/>
<path d="M21.607 8.68653C20.933 8.65413 20.2574 8.68048 19.5879 8.76528C16.0823 9.25034 13.9554 10.9701 13.8984 13.3513C13.8617 13.8523 13.939 14.3551 14.1245 14.8223C14.3099 15.2896 14.5988 15.7094 14.9697 16.0507C15.9999 16.9673 17.534 17.1405 18.5071 17.1468L18.45 17.3011C17.4516 17.3011 15.9143 17.1027 14.8651 16.1672C14.4737 15.8103 14.169 15.3697 13.974 14.8786C13.7791 14.3875 13.699 13.8588 13.7399 13.3324C13.8001 10.8599 15.9777 9.0897 19.5657 8.60779C20.2612 8.51662 20.9637 8.49026 21.6641 8.52905L21.607 8.68653Z" fill="#3F2355"/>
<path d="M19.5442 8.44735C20.2653 8.35729 20.993 8.33199 21.7186 8.37175L21.6647 8.52609C20.9643 8.48731 20.2618 8.51367 19.5664 8.60483C15.9783 9.09935 13.8008 10.8695 13.7405 13.3295C13.6997 13.8558 13.7798 14.3845 13.9747 14.8756C14.1696 15.3667 14.4743 15.8074 14.8658 16.1643C15.9181 17.1092 17.4522 17.2887 18.4507 17.2982L18.3936 17.4588C17.3666 17.4588 15.8357 17.2383 14.7612 16.284C14.3542 15.913 14.0367 15.4555 13.8325 14.9455C13.6284 14.4356 13.5427 13.8864 13.5821 13.3389C13.6423 10.7813 15.8737 8.96076 19.5442 8.44735Z" fill="#3F2355"/>
<path d="M14.3736 40.5287C13.6271 40.5295 12.8828 40.447 12.1548 40.283L12.8204 40.2515C14.1244 40.4545 15.4559 40.3988 16.7381 40.0877L17.3974 40.0625C16.4194 40.3707 15.3996 40.528 14.3736 40.5287Z" fill="#3F2355"/>
<path d="M14.3751 40.6862C13.446 40.6875 12.5213 40.5614 11.627 40.3113L12.1595 40.283C13.8978 40.6735 15.7094 40.5974 17.4084 40.0625H17.9346C16.7951 40.48 15.5895 40.6912 14.3751 40.6862Z" fill="#3F2355"/>
<path d="M14.3749 41.1567C12.9984 41.159 11.6345 40.8958 10.3589 40.3819L11.6268 40.3094C13.7065 40.8877 15.9173 40.795 17.9407 40.0448L19.2308 40.0039C17.7268 40.7646 16.0625 41.1597 14.3749 41.1567Z" fill="#3F2355"/>
<path d="M10.3593 40.3833C11.7803 40.9526 13.3075 41.2132 14.8383 41.1475C16.3691 41.0817 17.868 40.6912 19.2344 40.0022L20.2455 39.9707C18.6203 40.9694 16.7646 41.5372 14.8556 41.6199C12.9467 41.7027 11.0483 41.2975 9.3418 40.4432L10.3593 40.3833Z" fill="#3F2355"/>
<path d="M14.3756 41.6306C16.452 41.6334 18.4877 41.0584 20.2522 39.9707H20.5691C18.8707 41.071 16.9063 41.6982 14.8808 41.7869C12.8552 41.8755 10.8429 41.4223 9.05371 40.4747L9.37068 40.4526C10.9234 41.2286 12.6376 41.632 14.3756 41.6306Z" fill="#3F2355"/>
<path d="M20.5578 39.9609H20.8557C19.0875 41.1613 17.0169 41.8469 14.8775 41.9404C12.7381 42.0339 10.615 41.5316 8.74756 40.4901L9.03917 40.4712C10.8284 41.4189 12.8407 41.8721 14.8662 41.7834C16.8917 41.6948 18.8562 41.0676 20.5546 39.9672L20.5578 39.9609Z" fill="#3F2355"/>
<path d="M8.74835 40.4828C10.6158 41.5243 12.7389 42.0266 14.8783 41.9331C17.0177 41.8396 19.0883 41.154 20.8565 39.9537C25.928 39.8151 31.6334 39.7363 37.716 39.7363C44.5182 39.7363 50.8924 39.834 56.3727 40.0072C58.1101 41.1144 60.109 41.7501 62.1705 41.8513C64.2319 41.9524 66.2841 41.5153 68.1227 40.5836C72.3543 40.8986 74.8393 41.3018 74.8393 41.727C74.8393 42.8263 58.2175 43.7176 37.7129 43.7176C17.2082 43.7176 0.592773 42.8263 0.592773 41.7207C0.592773 41.2577 3.64517 40.8262 8.74835 40.4828Z" fill="#DEDFE0"/>
<path d="M7.62768 30.5032C7.62623 29.4844 7.85852 28.4786 8.3069 27.5624C8.75527 26.6462 9.40793 25.8436 10.2153 25.2156C11.0226 24.5877 11.9634 24.1509 12.9661 23.9384C13.9688 23.7259 15.0071 23.7434 16.002 23.9895L15.891 24.2887C15.7833 24.2604 15.6723 24.2383 15.5741 24.2194C15.4129 24.1858 15.2499 24.1616 15.0859 24.147C15.0062 24.1348 14.9257 24.1274 14.845 24.1249C14.8103 24.1218 14.7752 24.1218 14.7404 24.1249C14.6263 24.1249 14.5122 24.1249 14.3981 24.1249C12.6916 24.1249 11.055 24.7986 9.84828 25.9977C8.64158 27.1968 7.96367 28.8231 7.96367 30.5189C7.96367 32.2147 8.64158 33.8411 9.84828 35.0402C11.055 36.2393 12.6916 36.913 14.3981 36.913C14.5091 36.913 14.62 36.913 14.7151 36.913L14.9909 36.8941C15.0923 36.8941 15.1905 36.8752 15.2856 36.8594L15.5646 36.8153H15.5868L15.7928 36.7712C15.8784 36.7555 15.9608 36.7334 16.0432 36.7114L16.2492 36.6547L16.3443 36.6232L16.5377 36.5602L16.769 36.472L16.9687 36.3901C17.1346 36.3203 17.2965 36.2414 17.4537 36.1539C17.5999 36.0778 17.7417 35.9937 17.8784 35.9019C17.9092 35.8848 17.9388 35.8659 17.9672 35.8452C18.0116 35.8169 18.0559 35.7885 18.0971 35.757L18.2366 35.6562C18.3803 35.5528 18.5178 35.4414 18.6487 35.3223C18.7141 35.268 18.7765 35.2101 18.8357 35.1491C18.9238 35.071 19.0074 34.9879 19.0861 34.9003C19.1305 34.8562 19.1717 34.8089 19.2129 34.7617C19.2346 34.7401 19.2547 34.7169 19.2731 34.6924C19.3262 34.6354 19.3759 34.5755 19.4221 34.5128C19.4791 34.4467 19.5298 34.3774 19.5806 34.3081C19.708 34.1397 19.8255 33.9641 19.9324 33.7821C20.0211 33.6341 20.1035 33.4829 20.1764 33.3285C20.2638 33.1546 20.3411 32.9758 20.4078 32.7931C20.4395 32.7143 20.4681 32.6356 20.4966 32.5537C20.4966 32.5379 20.4966 32.5253 20.4966 32.5064C20.5219 32.4372 20.5441 32.3679 20.5632 32.2954C20.6139 32.119 20.6582 31.9395 20.6931 31.7568L20.7216 31.5962C20.7345 31.5326 20.744 31.4685 20.7502 31.404C20.7517 31.3989 20.7517 31.3934 20.7502 31.3883L21.0671 31.4324C20.8389 33.1193 19.9739 34.6569 18.6475 35.7338C17.321 36.8107 15.6322 37.3463 13.9233 37.2322C12.2143 37.1181 10.6128 36.3627 9.44328 35.1191C8.27375 33.8756 7.6236 32.2368 7.62451 30.5347L7.62768 30.5032Z" fill="#3F2355"/>
<path d="M7.94385 30.5011C7.94343 29.6614 8.10945 28.8299 8.43243 28.054C8.75541 27.278 9.22901 26.5729 9.82621 25.9789C10.4234 25.3849 11.1325 24.9135 11.913 24.5918C12.6935 24.2701 13.5301 24.1043 14.3751 24.1039C14.4892 24.1039 14.6033 24.1039 14.7175 24.1039C14.7522 24.1008 14.7873 24.1008 14.8221 24.1039C14.9027 24.1066 14.9832 24.1139 15.063 24.126C15.2269 24.1406 15.3899 24.1648 15.5511 24.1984C15.662 24.2173 15.773 24.2394 15.868 24.2677L15.7603 24.5827C15.2995 24.4719 14.827 24.4159 14.3529 24.4157C13.1797 24.4206 12.0326 24.7606 11.0484 25.3952C10.0642 26.0298 9.28438 26.9323 8.80194 27.9951C8.3195 29.0578 8.15479 30.236 8.32742 31.3892C8.50006 32.5424 9.00276 33.622 9.77561 34.4991C10.5485 35.3763 11.5589 36.0142 12.6863 36.3366C13.8138 36.6591 15.0108 36.6526 16.1347 36.3178C17.2586 35.9831 18.2619 35.3343 19.025 34.4487C19.7881 33.5631 20.2788 32.4782 20.4387 31.3232L20.7557 31.3641C20.7572 31.3693 20.7572 31.3747 20.7557 31.3799C20.7557 31.446 20.7367 31.509 20.7272 31.572L20.6986 31.7326C20.6638 31.9153 20.6194 32.0949 20.5687 32.2713C20.5497 32.3437 20.5275 32.413 20.5021 32.4823C20.5021 32.5012 20.5021 32.5138 20.5021 32.5295C20.4736 32.6114 20.4451 32.6902 20.4134 32.7689C20.3466 32.9517 20.2694 33.1304 20.182 33.3044C20.1059 33.4587 20.0267 33.6194 19.9379 33.7579C19.831 33.9399 19.7135 34.1155 19.5861 34.284C19.5354 34.3533 19.4815 34.4225 19.4276 34.4887C19.3737 34.5548 19.3293 34.6115 19.2786 34.6682C19.2603 34.6927 19.2401 34.7159 19.2184 34.7375C19.1772 34.7848 19.136 34.832 19.0916 34.8761C19.013 34.9637 18.9294 35.0468 18.8412 35.1249C18.782 35.186 18.7196 35.2438 18.6542 35.2982C18.5234 35.4172 18.3858 35.5287 18.2421 35.6321L18.1027 35.7329L17.9727 35.821C17.9443 35.8418 17.9147 35.8607 17.884 35.8777C17.7477 35.9691 17.605 36.051 17.4592 36.1297C17.3021 36.2173 17.1402 36.2961 16.9743 36.366C16.9077 36.3974 16.8411 36.4227 16.7746 36.4478L16.5432 36.536L16.3498 36.599L16.2548 36.6305L16.0487 36.6872C15.9663 36.7093 15.8839 36.7313 15.7983 36.7471L15.5923 36.7912H15.5733L15.2943 36.8353C15.1961 36.851 15.0978 36.8605 14.9996 36.8699L14.7238 36.8888C14.616 36.8888 14.5051 36.8888 14.4068 36.8888C13.5597 36.8934 12.7201 36.7315 11.9362 36.4126C11.1523 36.0936 10.4395 35.6238 9.83891 35.0302C9.23831 34.4366 8.76169 33.7309 8.43647 32.9536C8.11125 32.1763 7.94384 31.3429 7.94385 30.5011Z" fill="#3F2355"/>
<path d="M4.28955 30.5025C4.28952 28.9511 4.65181 27.4208 5.3479 26.0321C6.044 24.6435 7.0549 23.4343 8.30106 22.4997C9.54723 21.5652 10.9946 20.9308 12.5294 20.6464C14.0642 20.3621 15.6444 20.4355 17.1458 20.861L17.0919 21.0122C16.2086 20.7606 15.2943 20.6334 14.3755 20.6342C11.8786 20.638 9.47485 21.5763 7.64294 23.2622C5.81104 24.9481 4.68544 27.2579 4.49037 29.7315C4.29529 32.205 5.04505 34.6608 6.59031 36.6097C8.13556 38.5586 10.3629 39.8576 12.8287 40.2478L12.163 40.2793C9.92967 39.778 7.93405 38.5374 6.50345 36.761C5.07285 34.9845 4.29221 32.7777 4.28955 30.5025Z" fill="#3F2355"/>
<path d="M4.2868 30.5044C4.29217 32.777 5.07367 34.9806 6.50341 36.7544C7.93315 38.5282 9.92646 39.7672 12.1571 40.2687L11.6246 40.297C9.23713 39.6377 7.17104 38.1409 5.80913 36.0838C4.44721 34.0266 3.88177 31.5487 4.21758 29.1091C4.55338 26.6694 5.76766 24.4334 7.63545 22.8153C9.50324 21.1971 11.8979 20.3066 14.3759 20.3086C15.3314 20.3077 16.2823 20.4413 17.2001 20.7055L17.1462 20.8504C15.6448 20.4249 14.0646 20.3514 12.5298 20.6357C10.9951 20.9201 9.54765 21.5545 8.30149 22.4891C7.05532 23.4236 6.04442 24.6328 5.34832 26.0215C4.65223 27.4101 4.28994 28.9404 4.28997 30.4918L4.2868 30.5044Z" fill="#3F2355"/>
<path d="M14.3732 20.3188C11.8952 20.3168 9.50053 21.2074 7.63274 22.8255C5.76495 24.4436 4.55066 26.6797 4.21486 29.1193C3.87906 31.559 4.44449 34.0369 5.80641 36.094C7.16833 38.1511 9.23442 39.648 11.6219 40.3073L10.354 40.3797C7.80951 39.3528 5.75852 37.3948 4.6239 34.9094C3.48929 32.4241 3.35754 29.6009 4.25584 27.0219C5.15414 24.4429 7.01399 22.3047 9.45194 21.0482C11.8899 19.7917 14.7201 19.5126 17.359 20.2684L17.1942 20.7157C16.2774 20.4519 15.3276 20.3182 14.3732 20.3188Z" fill="#3F2355"/>
<path d="M3.65409 30.5018C3.65433 32.6245 4.29257 34.6988 5.48699 36.4587C6.6814 38.2185 8.37755 39.5838 10.358 40.3795L9.34683 40.4393C6.85042 39.192 4.91363 37.062 3.917 34.468C2.92037 31.874 2.93595 29.0033 3.96067 26.4201C4.98539 23.8369 6.94518 21.7279 9.45498 20.5074C11.9648 19.2869 14.8432 19.0431 17.5246 19.8241L17.363 20.2682C15.7655 19.8073 14.0821 19.7221 12.4458 20.0194C10.8095 20.3168 9.26532 20.9884 7.93538 21.9812C6.60543 22.974 5.52623 24.2607 4.78316 25.7396C4.04009 27.2184 3.65354 28.8488 3.65409 30.5018Z" fill="#3F2355"/>
<path d="M9.03928 40.4607C6.55042 39.1512 4.64008 36.9694 3.67928 34.3388C2.71847 31.7082 2.77576 28.8167 3.84003 26.2257C4.90429 23.6348 6.89957 21.5293 9.43838 20.3183C11.9772 19.1072 14.8783 18.8769 17.5784 19.6722L17.5245 19.8203C14.8431 19.0393 11.9647 19.2831 9.45489 20.5036C6.94509 21.7241 4.9853 23.8331 3.96058 26.4163C2.93586 28.9995 2.92028 31.8702 3.91691 34.4642C4.91354 37.0582 6.85033 39.1882 9.34674 40.4355L9.02978 40.4575L9.03928 40.4607Z" fill="#3F2355"/>
<path d="M3.02282 30.5005C3.02519 32.5469 3.58667 34.5542 4.64733 36.3083C5.70798 38.0624 7.22801 39.4974 9.0452 40.4601L8.75359 40.479C6.5326 39.2415 4.78713 37.3072 3.79034 34.9789C2.79356 32.6505 2.60171 30.0594 3.24482 27.6112C3.88793 25.1629 5.3297 22.9956 7.34451 21.4484C9.35932 19.9012 11.8335 19.0615 14.3798 19.0606C15.4831 19.0586 16.5808 19.2167 17.6382 19.5299L17.5843 19.6779C15.891 19.1822 14.1047 19.0857 12.3673 19.3963C10.6299 19.7068 8.98939 20.4157 7.57605 21.4667C6.1627 22.5177 5.01551 23.8818 4.22565 25.4505C3.43578 27.0193 3.02502 28.7495 3.02599 30.5037L3.02282 30.5005Z" fill="#3F2355"/>
</svg>
