<svg width="60" height="36" viewBox="0 0 60 36" fill="none" xmlns="http://www.w3.org/2000/svg">
<path d="M29.5526 35.7109C43.1782 35.7109 54.2239 35 54.2239 34.123C54.2239 33.2461 43.1782 32.5352 29.5526 32.5352C15.927 32.5352 4.88135 33.2461 4.88135 34.123C4.88135 35 15.927 35.7109 29.5526 35.7109Z" fill="#DEDFE0"/>
<path d="M46.8656 29.9276C48.4712 29.9276 49.7728 28.626 49.7728 27.0204C49.7728 25.4149 48.4712 24.1133 46.8656 24.1133C45.2601 24.1133 43.9585 25.4149 43.9585 27.0204C43.9585 28.626 45.2601 29.9276 46.8656 29.9276Z" fill="white"/>
<path d="M10.663 29.9276C12.2686 29.9276 13.5701 28.626 13.5701 27.0204C13.5701 25.4149 12.2686 24.1133 10.663 24.1133C9.05743 24.1133 7.75586 25.4149 7.75586 27.0204C7.75586 28.626 9.05743 29.9276 10.663 29.9276Z" fill="white"/>
<path d="M7.23843 10.5547L5.98498 14.897C5.92699 15.1004 5.81866 15.286 5.67 15.4365C5.52134 15.587 5.33714 15.6976 5.13443 15.7581L1.07917 16.9904H1.05811L1.37937 14.4572C1.48417 13.6264 1.85031 12.8504 2.42492 12.2412C2.99953 11.632 3.75288 11.2213 4.57618 11.0682L7.23843 10.5547Z" fill="white"/>
<path d="M22.4744 22.8747V22.9537C20.8075 23.0038 17.903 23.1275 16.2414 23.2171C15.561 22.177 14.6033 21.3479 13.4766 20.8235C12.3498 20.299 11.0989 20.1 9.86501 20.249C8.63114 20.398 7.4635 20.889 6.49399 21.6666C5.52447 22.4442 4.7917 23.4775 4.37843 24.6496L4.2731 24.6127C4.00977 24.6496 3.00122 24.5653 2.75106 24.6127C2.62001 24.6339 2.48568 24.609 2.37093 24.5422C2.25618 24.4755 2.16811 24.371 2.1217 24.2467L0.63916 20.273L1.05785 16.9788H1.07892C1.39491 12.5022 3.69904 10.7063 7.23818 10.543L13.4843 9.34754C13.6092 9.32496 13.7252 9.26744 13.8188 9.18164C18.3138 12.8156 21.0682 17.437 22.4744 22.8747Z" fill="white"/>
<path d="M16.2536 23.2153C16.821 24.084 17.1778 25.0732 17.2955 26.1041C17.4132 27.135 17.2886 28.1791 16.9316 29.1533C16.5746 30.1275 15.995 31.005 15.2391 31.7157C14.4832 32.4265 13.5718 32.9509 12.5774 33.2473C11.5831 33.5437 10.5333 33.6038 9.51157 33.4229C8.48988 33.242 7.52454 32.825 6.69242 32.2052C5.8603 31.5854 5.18438 30.7799 4.71847 29.8528C4.25257 28.9257 4.00956 27.9027 4.00879 26.8651C4.0079 26.1096 4.13706 25.3595 4.39062 24.6479C4.80389 23.4757 5.53666 22.4425 6.50618 21.6649C7.4757 20.8873 8.64332 20.3963 9.8772 20.2473C11.1111 20.0983 12.362 20.2973 13.4888 20.8217C14.6155 21.3462 15.5732 22.1753 16.2536 23.2153ZM10.7974 29.9302C11.5688 29.9302 12.3086 29.6238 12.854 29.0784C13.3994 28.5329 13.7059 27.7931 13.7059 27.0218C13.7059 26.2504 13.3994 25.5106 12.854 24.9652C12.3086 24.4197 11.5688 24.1133 10.7974 24.1133H10.6763C9.9049 24.1133 9.16512 24.4197 8.61968 24.9652C8.07424 25.5106 7.76781 26.2504 7.76781 27.0218C7.76781 27.7931 8.07424 28.5329 8.61968 29.0784C9.16512 29.6238 9.9049 29.9302 10.6763 29.9302H10.7974Z" fill="#DEDFE0"/>
<path d="M46.8648 20.1992C48.558 20.1988 50.1879 20.8428 51.4235 22.0006C52.6591 23.1583 53.4077 24.7429 53.5174 26.4326C53.627 28.1223 53.0894 29.7904 52.0137 31.098C50.938 32.4057 49.405 33.2549 47.7259 33.4733C46.0468 33.6916 44.3476 33.2627 42.9733 32.2736C41.599 31.2845 40.6526 29.8094 40.3265 28.1478C40.0003 26.4863 40.3188 24.7629 41.2172 23.3277C42.1157 21.8925 43.5267 20.853 45.1637 20.4204C45.7187 20.2728 46.2905 20.1984 46.8648 20.1992ZM49.7746 27.0194C49.772 26.4477 49.6002 25.8895 49.2809 25.4151C48.9616 24.9408 48.5091 24.5716 47.9804 24.354C47.4516 24.1364 46.8703 24.0801 46.3097 24.1923C45.749 24.3045 45.2341 24.5801 44.8298 24.9844C44.4255 25.3887 44.1499 25.9036 44.0377 26.4643C43.9255 27.025 43.9818 27.6063 44.1994 28.135C44.417 28.6638 44.7862 29.1163 45.2605 29.4356C45.7348 29.7548 46.293 29.9266 46.8648 29.9292C47.2474 29.931 47.6266 29.8569 47.9804 29.7113C48.3342 29.5657 48.6557 29.3514 48.9262 29.0809C49.1968 28.8103 49.411 28.4888 49.5566 28.135C49.7022 27.7812 49.7763 27.402 49.7746 27.0194Z" fill="#DEDFE0"/>
<path d="M58.1938 15.2503C58.2193 15.3197 58.2276 15.3942 58.2181 15.4675C58.2085 15.5408 58.1814 15.6108 58.1389 15.6713C58.0965 15.7318 58.0401 15.7812 57.9744 15.8152C57.9088 15.8492 57.8359 15.8668 57.7619 15.8665H47.9424L46.0096 18.8606L45.1222 20.2931L45.1564 20.4195C43.5342 20.8488 42.1332 21.8736 41.2328 23.2897C39.724 23.1423 36.9406 23.0738 35.1763 22.9974V22.8526C36.0137 20.3922 37.042 18.0009 38.2519 15.7006C38.9629 14.3559 39.7543 13.0553 40.6219 11.806C44.4112 10.0469 49.1221 8.78824 54.1938 8.15625C54.307 8.19649 54.4077 8.26546 54.4861 8.35638C56.0161 10.1286 57.1879 12.4985 58.1938 15.2503Z" fill="white"/>
<path d="M54.0113 8.12045C54.0735 8.12253 54.1349 8.13499 54.193 8.15732C49.1213 8.78931 44.4103 10.048 40.621 11.8071C39.7534 13.0564 38.962 14.357 38.2511 15.7017L38.1905 15.6701C38.1905 15.6701 32.0997 15.8044 30.554 15.3488C27.7943 14.2639 25.7351 7.48056 21.7588 5.5293C26.3038 6.10072 28.3683 10.098 31.5467 10.4878C37.5848 10.7748 40.4525 7.45423 54.0113 8.12045Z" fill="#DEDFE0"/>
<path d="M22.4927 22.9504H22.4769V22.8714C21.0707 17.4337 18.3163 12.8123 13.8213 9.19416C13.8606 9.15664 13.8959 9.11517 13.9266 9.0704C14.9324 7.57663 16.3962 6.45009 18.0977 5.86043C18.8258 5.61856 19.5851 5.48373 20.3518 5.46017C20.8233 5.4441 21.2953 5.46611 21.7633 5.526C25.7448 7.47726 27.7988 14.2606 30.5742 15.3455C32.1147 15.8011 38.2108 15.6668 38.2108 15.6668L38.2713 15.6984C37.0614 17.9986 36.0331 20.3899 35.1957 22.8504V22.9952H35.1535C34.827 23.9695 34.5426 24.9254 34.3135 25.8365H23.101C22.9377 24.8447 22.735 23.8826 22.4927 22.9504Z" fill="white"/>
<path d="M4.17544 25.3244C4.03061 25.3244 3.84628 25.3244 3.61982 25.3244C3.39335 25.3244 3.04839 25.3033 2.95886 25.3244C2.70324 25.3635 2.44194 25.3137 2.2186 25.1833C1.99527 25.053 1.82342 24.8499 1.73175 24.6081L0.243941 20.6187C0.212007 20.5348 0.202036 20.4442 0.214975 20.3554L0.95493 14.5384C1.0733 13.5916 1.49007 12.7071 2.14486 12.013C2.79965 11.3189 3.65843 10.8513 4.59677 10.678L13.5052 8.97431C13.5381 8.9678 13.5673 8.94896 13.5868 8.92165C14.1635 8.05003 16.3623 5.20081 20.4518 5.06651C23.8988 4.94801 26.0818 6.61752 28.0067 8.08426C29.3023 9.07174 30.4214 9.92756 31.7144 10.0882C34.0422 10.1988 35.8565 9.75903 38.1501 9.20604C41.6234 8.36602 45.9446 7.32061 54.1579 7.7235C54.3233 7.73315 54.4851 7.77614 54.6336 7.8499C54.782 7.92366 54.914 8.02667 55.0216 8.15272C56.4646 9.82486 57.7102 12.1369 58.8346 15.2152C58.8906 15.3677 58.9089 15.5315 58.888 15.6926C58.8671 15.8538 58.8075 16.0075 58.7144 16.1406C58.6214 16.2738 58.4975 16.3825 58.3533 16.4575C58.2092 16.5325 58.0491 16.5715 57.8866 16.5713H48.3646L46.9242 18.8096C46.8372 18.9102 46.7166 18.9757 46.585 18.9943C46.4533 19.0128 46.3193 18.983 46.2079 18.9105C46.0965 18.8379 46.0151 18.7274 45.9788 18.5995C45.9425 18.4715 45.9538 18.3348 46.0105 18.2145L47.6142 15.7234C47.663 15.644 47.731 15.5783 47.8121 15.5322C47.8931 15.4862 47.9844 15.4614 48.0776 15.4601H57.7681C56.7016 12.5635 55.5351 10.4095 54.2 8.86108C54.1905 8.84789 54.1783 8.83686 54.1642 8.82869C54.1502 8.82052 54.1345 8.81541 54.1184 8.81368C46.0605 8.41869 41.8262 9.44304 38.424 10.2646C36.1304 10.8202 34.1502 11.2995 31.6538 11.1784H31.6143C30.0159 10.9835 28.7177 9.99602 27.351 8.95324C25.4866 7.52864 23.5512 6.05663 20.5045 6.15933C16.9416 6.27519 15.0246 8.76365 14.5216 9.52203C14.4321 9.65839 14.316 9.77531 14.1803 9.8658C14.0445 9.95628 13.8919 10.0185 13.7316 10.0487L4.8206 11.7524C4.11116 11.8833 3.46179 12.2366 2.96657 12.7611C2.47135 13.2857 2.15599 13.9543 2.06618 14.6701L1.34202 20.3527L2.7798 24.1894C2.7821 24.195 2.78623 24.1996 2.7915 24.2024C2.79677 24.2053 2.80286 24.2063 2.80877 24.2052C3.09799 24.1827 3.38853 24.1827 3.67775 24.2052C3.90421 24.2052 4.24917 24.2263 4.3387 24.2052C4.48314 24.1865 4.62914 24.2255 4.74501 24.3137C4.86087 24.402 4.93724 24.5324 4.95753 24.6766C4.97866 24.8194 4.94228 24.9647 4.85639 25.0807C4.77049 25.1968 4.64208 25.274 4.49933 25.2954C4.39235 25.314 4.28402 25.3237 4.17544 25.3244Z" fill="#3F2355"/>
<path d="M4.17521 25.4561C4.02775 25.4561 3.84342 25.4561 3.61432 25.4561C3.38523 25.4561 3.05343 25.435 2.97707 25.4561C2.69136 25.4993 2.39947 25.4431 2.15022 25.2969C1.90097 25.1507 1.70947 24.9234 1.60776 24.6529L0.119951 20.6635C0.082711 20.5589 0.0700933 20.4472 0.0830832 20.337L0.825672 14.52C0.947411 13.5456 1.37619 12.6353 2.04989 11.9209C2.7236 11.2064 3.60725 10.725 4.57284 10.5464L13.4786 8.84266C14.0632 7.96315 16.2936 5.06916 20.4463 4.93223C23.9354 4.80847 26.1342 6.48851 28.0828 7.96841C29.3758 8.95326 30.4817 9.79591 31.7378 9.95654C34.0393 10.0645 35.8405 9.62738 38.1262 9.07439C41.61 8.23174 45.9418 7.18633 54.1734 7.58922C54.3564 7.60024 54.5352 7.64787 54.6994 7.72929C54.8636 7.8107 55.0098 7.92426 55.1293 8.06321C56.5829 9.74852 57.8363 12.0737 58.966 15.1731C59.031 15.3465 59.0528 15.5332 59.0295 15.717C59.0062 15.9008 58.9384 16.0761 58.8321 16.2278C58.7258 16.3795 58.5841 16.503 58.4193 16.5877C58.2545 16.6723 58.0716 16.7155 57.8864 16.7136H48.4355L47.0346 18.8913C46.9867 18.9671 46.924 19.0326 46.8502 19.0837C46.7765 19.1348 46.6932 19.1706 46.6054 19.1888C46.4736 19.2175 46.3363 19.2065 46.2108 19.1571C46.0853 19.1077 45.9772 19.0223 45.9003 18.9115C45.8233 18.8008 45.781 18.6697 45.7785 18.5348C45.776 18.4 45.8136 18.2675 45.8865 18.154L47.4901 15.6629C47.5521 15.5669 47.6371 15.488 47.7373 15.4332C47.8376 15.3785 47.95 15.3497 48.0642 15.3495H57.5651C56.5118 12.5635 55.3847 10.4727 54.0892 8.96906C46.0629 8.55037 41.8365 9.58262 38.4395 10.3937C36.1328 10.9519 34.1446 11.4312 31.6351 11.3101H31.5825C29.9472 11.1178 28.6437 10.1303 27.2586 9.07703C25.4153 7.67085 23.5009 6.21464 20.4911 6.31208C16.9914 6.42794 15.1086 8.869 14.6162 9.61422C14.5159 9.76533 14.3865 9.89488 14.2354 9.99527C14.0844 10.0957 13.9148 10.1649 13.7367 10.1988L4.82563 11.9025C4.14635 12.031 3.52537 12.3718 3.05215 12.8758C2.57892 13.3798 2.27787 14.021 2.19235 14.707L1.47083 20.358L2.85594 24.0868C3.12518 24.0711 3.39511 24.0711 3.66435 24.0868C3.87238 24.0868 4.22524 24.1078 4.30161 24.0868C4.48075 24.0606 4.66295 24.1066 4.80814 24.2148C4.95333 24.3229 5.04961 24.4843 5.0758 24.6635C5.10199 24.8426 5.05594 25.0248 4.94779 25.17C4.83964 25.3152 4.67824 25.4115 4.49911 25.4376C4.39163 25.4506 4.28345 25.4567 4.17521 25.4561ZM3.08766 25.1638C3.2167 25.1638 3.40103 25.1638 3.61432 25.1796C3.89486 25.1993 4.17643 25.1993 4.45697 25.1796C4.51102 25.1719 4.563 25.1535 4.60992 25.1256C4.65683 25.0977 4.69775 25.0607 4.73031 25.0169C4.76288 24.9731 4.78644 24.9232 4.79963 24.8702C4.81283 24.8173 4.8154 24.7622 4.8072 24.7082C4.79087 24.5983 4.73206 24.4992 4.64342 24.4323C4.55478 24.3653 4.44338 24.3358 4.33321 24.3501C4.24368 24.3501 3.98035 24.3501 3.66962 24.3501C3.3821 24.3291 3.09343 24.3291 2.8059 24.3501C2.77054 24.3558 2.73428 24.349 2.70347 24.3307C2.67266 24.3124 2.64926 24.2838 2.63737 24.25L1.18643 20.3844L1.91585 14.6701C2.00825 13.9265 2.33534 13.2316 2.84962 12.6866C3.36389 12.1415 4.03856 11.7746 4.7756 11.6392L13.684 9.93548C13.8277 9.90841 13.9644 9.85273 14.0861 9.77176C14.2078 9.69078 14.3119 9.58616 14.3924 9.46412C14.9059 8.69257 16.8545 6.16198 20.4805 6.04085C23.5852 5.93815 25.5312 7.42332 27.4166 8.8611C28.7701 9.89335 30.0499 10.8703 31.6141 11.0599H31.643C34.1183 11.181 36.088 10.7044 38.3658 10.1514C41.7891 9.32456 46.0339 8.30811 54.1076 8.6952C54.1422 8.6984 54.1759 8.70842 54.2066 8.72469C54.2373 8.74096 54.2645 8.76316 54.2867 8.79C55.6296 10.3489 56.8041 12.5214 57.8758 15.4285L57.939 15.6049H48.0642C47.994 15.6048 47.9249 15.6224 47.8632 15.656C47.8015 15.6896 47.7493 15.7381 47.7113 15.7972L46.1077 18.2935C46.0779 18.3399 46.0576 18.3916 46.0479 18.4458C46.0381 18.5 46.0391 18.5556 46.0509 18.6094C46.0626 18.6632 46.0848 18.7141 46.1163 18.7593C46.1477 18.8045 46.1877 18.8431 46.2341 18.8729C46.2804 18.9026 46.3321 18.9229 46.3863 18.9327C46.4405 18.9424 46.4961 18.9414 46.5499 18.9296C46.6037 18.9179 46.6547 18.8957 46.6999 18.8643C46.7451 18.8328 46.7836 18.7928 46.8134 18.7465L48.2933 16.4476H57.8864C58.0274 16.4476 58.1663 16.4137 58.2914 16.3486C58.4165 16.2835 58.5241 16.1892 58.605 16.0737C58.6859 15.9582 58.7377 15.8248 58.7561 15.685C58.7745 15.5452 58.7589 15.403 58.7106 15.2705C57.5914 12.2054 56.3406 9.90651 54.9239 8.24754C54.8282 8.13438 54.7104 8.04192 54.5777 7.97581C54.4451 7.90971 54.3003 7.87135 54.1524 7.86308C45.9576 7.46019 41.6495 8.50297 38.1841 9.34036C35.8747 9.89861 34.0551 10.3384 31.7089 10.2278C30.3711 10.0592 29.2388 9.19553 27.9275 8.19751C26.0104 6.73604 23.8485 5.09286 20.4568 5.2061C16.4279 5.33776 14.2633 8.14484 13.6972 9.00066C13.6585 9.05785 13.5989 9.09756 13.5313 9.11126L4.62287 10.815C3.71295 10.9825 2.87989 11.4351 2.24414 12.1073C1.6084 12.7795 1.20293 13.6364 1.08637 14.5543L0.34378 20.3738C0.335786 20.4415 0.343906 20.5101 0.367479 20.574L1.85529 24.5371C1.93638 24.7509 2.08827 24.9305 2.28567 25.046C2.48307 25.1614 2.71407 25.2058 2.9402 25.1717C2.98913 25.1658 3.03839 25.1631 3.08766 25.1638Z" fill="#3F2355"/>
<path d="M46.9886 34.2345C45.5608 34.235 44.1649 33.8121 42.9775 33.0192C41.7902 32.2263 40.8646 31.099 40.318 29.78C39.7714 28.461 39.6282 27.0096 39.9066 25.6092C40.185 24.2088 40.8725 22.9225 41.8821 21.9129C42.8917 20.9033 44.1781 20.2158 45.5784 19.9374C46.9788 19.659 48.4303 19.8021 49.7493 20.3488C51.0683 20.8954 52.1955 21.8209 52.9884 23.0083C53.7813 24.1957 54.2043 25.5915 54.2038 27.0193C54.201 28.932 53.4399 30.7656 52.0874 32.1181C50.7349 33.4707 48.9013 34.2317 46.9886 34.2345ZM46.9886 20.9048C45.7792 20.9048 44.597 21.2634 43.5915 21.9353C42.586 22.6072 41.8023 23.5621 41.3395 24.6794C40.8767 25.7967 40.7556 27.0261 40.9915 28.2122C41.2275 29.3983 41.8098 30.4878 42.6649 31.3429C43.5201 32.198 44.6096 32.7804 45.7957 33.0163C46.9818 33.2522 48.2112 33.1311 49.3285 32.6684C50.4458 32.2056 51.4007 31.4219 52.0726 30.4163C52.7444 29.4108 53.1031 28.2286 53.1031 27.0193C53.1017 25.3981 52.457 23.8436 51.3106 22.6972C50.1642 21.5509 48.6098 20.9062 46.9886 20.9048Z" fill="#3F2355"/>
<path d="M46.9884 34.3533C45.5345 34.3538 44.1132 33.9232 42.9042 33.1158C41.6952 32.3084 40.7528 31.1606 40.1962 29.8176C39.6396 28.4745 39.4938 26.9965 39.7773 25.5706C40.0608 24.1447 40.7608 22.8349 41.7888 21.8069C42.8169 20.7789 44.1266 20.0789 45.5526 19.7954C46.9785 19.5119 48.4564 19.6577 49.7995 20.2143C51.1425 20.7708 52.2903 21.7133 53.0977 22.9223C53.9051 24.1313 54.3357 25.5526 54.3352 27.0064C54.3324 28.9541 53.5575 30.8212 52.1803 32.1984C50.8031 33.5756 48.936 34.3505 46.9884 34.3533ZM46.9884 19.9203C45.5867 19.9197 44.2164 20.3349 43.0508 21.1132C41.8851 21.8915 40.9765 22.9981 40.4397 24.2929C39.903 25.5876 39.7623 27.0125 40.0354 28.3873C40.3085 29.762 40.9832 31.0249 41.9741 32.0162C42.965 33.0075 44.2277 33.6826 45.6023 33.9563C46.977 34.2299 48.4019 34.0897 49.6969 33.5535C50.9919 33.0172 52.0987 32.109 52.8775 30.9436C53.6562 29.7782 54.0719 28.4081 54.0719 27.0064C54.067 25.13 53.3189 23.3319 51.9913 22.0058C50.6637 20.6797 48.8648 19.9336 46.9884 19.9308V19.9203ZM46.9884 33.25C45.7529 33.25 44.5451 32.8836 43.5179 32.1971C42.4907 31.5107 41.6901 30.535 41.2174 29.3935C40.7447 28.252 40.6212 26.996 40.8624 25.7843C41.1036 24.5726 41.6988 23.4596 42.5726 22.5862C43.4464 21.7127 44.5596 21.1181 45.7714 20.8773C46.9832 20.6366 48.2392 20.7607 49.3805 21.2339C50.5218 21.707 51.4971 22.508 52.1831 23.5355C52.8691 24.5631 53.235 25.771 53.2345 27.0064C53.2352 28.664 52.5776 30.2539 51.4063 31.4267C50.235 32.5995 48.6459 33.2591 46.9884 33.2605V33.25ZM46.9884 21.0236C45.8051 21.0236 44.6483 21.3745 43.6645 22.0319C42.6806 22.6893 41.9138 23.6237 41.461 24.7169C41.0081 25.8101 40.8897 27.0131 41.1205 28.1736C41.3513 29.3342 41.9212 30.4002 42.7579 31.2369C43.5946 32.0737 44.6606 32.6435 45.8212 32.8743C46.9817 33.1052 48.1847 32.9867 49.2779 32.5339C50.3711 32.081 51.3055 31.3142 51.9629 30.3303C52.6203 29.3465 52.9712 28.1897 52.9712 27.0064C52.967 25.422 52.335 23.9037 51.2136 22.7843C50.0922 21.6649 48.5728 21.0355 46.9884 21.0341V21.0236Z" fill="#3F2355"/>
<path d="M10.7874 34.2345C9.35959 34.235 7.96373 33.8121 6.77636 33.0192C5.58899 32.2263 4.66345 31.099 4.11683 29.78C3.5702 28.461 3.42704 27.0096 3.70546 25.6092C3.98388 24.2088 4.67136 22.9225 5.68095 21.9129C6.69054 20.9033 7.97688 20.2158 9.37725 19.9374C10.7776 19.659 12.2291 19.8021 13.5481 20.3488C14.8671 20.8954 15.9943 21.8209 16.7872 23.0083C17.5801 24.1957 18.0031 25.5915 18.0026 27.0193C17.9998 28.932 17.2387 30.7656 15.8862 32.1181C14.5337 33.4707 12.7001 34.2317 10.7874 34.2345ZM10.7874 20.9048C9.57804 20.9048 8.39586 21.2634 7.39034 21.9353C6.38482 22.6072 5.6011 23.5621 5.13831 24.6794C4.67552 25.7967 4.55444 27.0261 4.79036 28.2122C5.02629 29.3983 5.60864 30.4878 6.46377 31.3429C7.3189 32.198 8.40839 32.7804 9.59449 33.0163C10.7806 33.2522 12.01 33.1311 13.1273 32.6684C14.2446 32.2056 15.1995 31.4219 15.8714 30.4163C16.5432 29.4108 16.9019 28.2286 16.9019 27.0193C16.9005 25.3981 16.2558 23.8436 15.1094 22.6972C13.963 21.5509 12.4086 20.9062 10.7874 20.9048Z" fill="#3F2355"/>
<path d="M10.7867 34.3533C9.33289 34.3538 7.91157 33.9232 6.70255 33.1158C5.49353 32.3084 4.55112 31.1606 3.99452 29.8176C3.43793 28.4745 3.29217 26.9965 3.57566 25.5706C3.85916 24.1447 4.55919 22.8349 5.58719 21.8069C6.6152 20.7789 7.92499 20.0789 9.3509 19.7954C10.7768 19.5119 12.2548 19.6577 13.5978 20.2143C14.9409 20.7708 16.0887 21.7133 16.8961 22.9223C17.7034 24.1313 18.1341 25.5526 18.1336 27.0064C18.1315 28.9543 17.3568 30.8218 15.9794 32.1992C14.6021 33.5765 12.7346 34.3512 10.7867 34.3533ZM10.7867 19.9203C9.38508 19.9197 8.01478 20.3349 6.84912 21.1132C5.68346 21.8915 4.7748 22.9981 4.23806 24.2929C3.70132 25.5876 3.56061 27.0125 3.83374 28.3873C4.10686 29.762 4.78155 31.0249 5.77246 32.0162C6.76337 33.0075 8.02601 33.6826 9.40066 33.9563C10.7753 34.2299 12.2002 34.0897 13.4952 33.5535C14.7902 33.0172 15.8971 32.109 16.6758 30.9436C17.4546 29.7782 17.8702 28.4081 17.8702 27.0064C17.8661 25.1298 17.1182 23.3313 15.7904 22.005C14.4627 20.6788 12.6634 19.9329 10.7867 19.9308V19.9203ZM10.7867 33.25C9.55122 33.2479 8.34411 32.8794 7.31804 32.1913C6.29197 31.5031 5.49303 30.5261 5.02228 29.3838C4.55153 28.2415 4.43011 26.9852 4.67338 25.7739C4.91664 24.5627 5.51367 23.4507 6.38894 22.5787C7.26422 21.7068 8.37842 21.114 9.59063 20.8753C10.8028 20.6366 12.0586 20.7628 13.1991 21.2379C14.3396 21.713 15.3136 22.5156 15.9979 23.5443C16.6821 24.573 17.046 25.7815 17.0434 27.017C17.0413 28.6745 16.381 30.2633 15.2077 31.4342C14.0345 32.605 12.4442 33.2619 10.7867 33.2605V33.25ZM10.7867 21.0236C9.60431 21.0257 8.44905 21.3781 7.4668 22.0363C6.48454 22.6945 5.71934 23.629 5.26782 24.7218C4.8163 25.8146 4.69871 27.0166 4.9299 28.1762C5.16108 29.3358 5.73067 30.4009 6.56675 31.2369C7.40283 32.073 8.4679 32.6426 9.62747 32.8738C10.787 33.105 11.9891 32.9874 13.0819 32.5359C14.1747 32.0843 15.1092 31.3191 15.7674 30.3369C16.4256 29.3546 16.778 28.1994 16.7801 27.017C16.7794 26.2306 16.6238 25.4521 16.3222 24.7258C16.0207 23.9996 15.579 23.3399 15.0225 22.7843C14.4659 22.2287 13.8054 21.7882 13.0786 21.4879C12.3519 21.1877 11.5731 21.0335 10.7867 21.0341V21.0236Z" fill="#3F2355"/>
<path d="M35.782 21.9529C35.7495 21.9531 35.7172 21.9469 35.6872 21.9344C35.6523 21.9234 35.6201 21.9052 35.5927 21.881C35.5652 21.8568 35.5431 21.8272 35.5278 21.794C35.5124 21.7608 35.5041 21.7248 35.5035 21.6882C35.5028 21.6516 35.5098 21.6153 35.5239 21.5816C36.8748 17.9555 38.647 14.4717 40.5272 11.8042C40.5531 11.7634 40.5907 11.7313 40.6351 11.712C44.4665 9.93454 49.2223 8.66003 54.394 8.02541C54.4667 8.01668 54.5398 8.03716 54.5973 8.08235C54.6549 8.12753 54.6921 8.19372 54.7008 8.26636C54.7095 8.33899 54.6891 8.41211 54.6439 8.46965C54.5987 8.52718 54.5325 8.5644 54.4599 8.57313C49.375 9.19722 44.7009 10.4454 40.9353 12.1807C38.9239 15.1698 37.2828 18.3919 36.0479 21.7764C36.029 21.8309 35.9928 21.8777 35.9447 21.9095C35.8967 21.9414 35.8395 21.9566 35.782 21.9529Z" fill="#3F2355"/>
<path d="M34.4233 26.5422H23.2186C23.0874 26.5426 22.9604 26.4961 22.8605 26.4111C22.7605 26.3262 22.6942 26.2083 22.6735 26.0787C22.5392 25.2598 22.376 24.4514 22.189 23.6693C20.5063 23.7246 17.9204 23.8352 16.3589 23.9326C16.2129 23.9403 16.0699 23.8897 15.9612 23.7919C15.8526 23.6941 15.7873 23.5572 15.7796 23.4112C15.7719 23.2653 15.8225 23.1222 15.9203 23.0136C16.0181 22.9049 16.155 22.8396 16.301 22.8319C18.0126 22.7397 20.9566 22.616 22.5998 22.5686C22.7247 22.5651 22.8472 22.6041 22.9471 22.6792C23.0471 22.7543 23.1186 22.861 23.1501 22.982C23.3529 23.772 23.532 24.6094 23.6768 25.452H33.9861C34.1994 24.662 34.4496 23.8299 34.7313 22.9873C34.769 22.8738 34.8425 22.7757 34.9409 22.7078C35.0392 22.6398 35.157 22.6058 35.2764 22.6107L36.8775 22.6739C37.6332 22.7029 38.4443 22.7318 39.2027 22.7661C39.2749 22.7694 39.3459 22.7868 39.4114 22.8175C39.4769 22.8482 39.5357 22.8915 39.5845 22.9449C39.6333 22.9984 39.6711 23.0609 39.6957 23.1289C39.7203 23.197 39.7313 23.2692 39.728 23.3414C39.7247 23.4137 39.7072 23.4846 39.6765 23.5501C39.6459 23.6157 39.6026 23.6745 39.5491 23.7233C39.4957 23.7721 39.4332 23.8098 39.3652 23.8345C39.2971 23.8591 39.2249 23.8701 39.1526 23.8668C38.3969 23.8325 37.5911 23.8009 36.8353 23.7746L35.6451 23.7298C35.3818 24.5567 35.1421 25.3651 34.9473 26.1393C34.915 26.2539 34.8465 26.3551 34.7521 26.4277C34.6577 26.5002 34.5423 26.5404 34.4233 26.5422Z" fill="#3F2355"/>
<path d="M34.4233 26.6763H23.2187C23.0566 26.6771 22.8996 26.6199 22.776 26.5151C22.6524 26.4103 22.5703 26.2648 22.5445 26.1048C22.4155 25.3148 22.2628 24.5512 22.0864 23.806C20.3642 23.8639 17.8731 23.9719 16.3669 24.0535C16.186 24.0633 16.0086 24.0008 15.8738 23.8798C15.739 23.7588 15.6577 23.5892 15.648 23.4083C15.6382 23.2275 15.7007 23.0501 15.8217 22.9153C15.9427 22.7805 16.1122 22.6992 16.2931 22.6895C18.0074 22.5973 20.954 22.4735 22.5946 22.4261C22.7494 22.4212 22.9012 22.4691 23.0252 22.5619C23.1491 22.6548 23.2378 22.7871 23.2766 22.937C23.4741 23.7033 23.6453 24.5012 23.8033 25.3069H33.8966C34.102 24.5433 34.3443 23.7428 34.6182 22.937C34.6643 22.7961 34.7556 22.6743 34.8779 22.5905C35.0003 22.5067 35.1468 22.4656 35.2949 22.4735L36.8933 22.5341C37.6491 22.5631 38.4601 22.592 39.2211 22.6263C39.4018 22.6351 39.5717 22.7152 39.6936 22.8489C39.8154 22.9826 39.8794 23.1591 39.8716 23.3399C39.8607 23.5199 39.78 23.6885 39.6468 23.81C39.5135 23.9314 39.3382 23.9961 39.1579 23.9903C38.4022 23.9561 37.5964 23.9271 36.8433 23.8981H36.6958L35.7505 23.8613C35.4871 24.6513 35.2712 25.4412 35.0842 26.168C35.0458 26.3139 34.9601 26.4429 34.8405 26.5349C34.7209 26.6269 34.5742 26.6766 34.4233 26.6763ZM22.3102 23.5374L22.3339 23.6401C22.5235 24.4301 22.6867 25.2385 22.8237 26.0601C22.8383 26.1589 22.8882 26.2491 22.9642 26.314C23.0403 26.3789 23.1372 26.414 23.2371 26.4129H34.4233C34.5164 26.4128 34.6068 26.3817 34.6803 26.3245C34.7537 26.2673 34.806 26.1872 34.8288 26.0969C35.0263 25.3227 35.2607 24.517 35.5319 23.6796L35.5635 23.5821H35.6636L36.7169 23.6216H36.8617C37.6175 23.6506 38.4233 23.6796 39.179 23.7138C39.2898 23.7168 39.3975 23.6768 39.4794 23.6022C39.5614 23.5276 39.6113 23.4241 39.6188 23.3135C39.6213 23.2587 39.6129 23.2038 39.5939 23.1522C39.5749 23.1007 39.5457 23.0534 39.5082 23.0134C39.4718 22.9719 39.4274 22.9384 39.3775 22.9149C39.3277 22.8913 39.2736 22.8782 39.2185 22.8764C38.4601 22.8422 37.6385 22.8132 36.8933 22.7843L35.2923 22.7211C35.2013 22.7163 35.1113 22.7419 35.0365 22.7938C34.9616 22.8458 34.9062 22.9212 34.8789 23.0081C34.5945 23.8481 34.3522 24.675 34.1363 25.4649L34.1099 25.5624H23.5768L23.5584 25.4544C23.4083 24.6144 23.2292 23.7875 23.0317 22.9923C23.0092 22.8995 22.9551 22.8176 22.8787 22.7604C22.8023 22.7032 22.7083 22.6744 22.613 22.6789C20.9725 22.7263 18.0311 22.8501 16.3168 22.9423C16.2058 22.9485 16.1018 22.9987 16.0277 23.0816C15.9536 23.1646 15.9155 23.2736 15.9218 23.3846C15.9281 23.4957 15.9783 23.5997 16.0612 23.6738C16.1442 23.7478 16.2532 23.7859 16.3642 23.7796C17.9073 23.6954 20.4695 23.5874 22.1943 23.5163L22.3102 23.5374Z" fill="#3F2355"/>
<path d="M22.2296 22.0513C22.1612 22.051 22.0947 22.0288 22.0398 21.9881C21.9848 21.9474 21.9443 21.8902 21.9241 21.8248C20.381 16.79 17.7109 12.7926 13.7399 9.60111C13.706 9.575 13.6777 9.54239 13.6566 9.5052C13.6355 9.46801 13.622 9.42697 13.617 9.38451C13.6119 9.34204 13.6154 9.29899 13.6273 9.25789C13.6391 9.21679 13.659 9.17847 13.6858 9.14516C13.7126 9.11185 13.7458 9.08424 13.7834 9.06393C13.8211 9.04362 13.8624 9.03103 13.905 9.02689C13.9475 9.02276 13.9905 9.02717 14.0313 9.03986C14.0722 9.05254 14.1101 9.07326 14.1428 9.10078C18.1516 12.3271 21.0804 16.7 22.5377 21.6352C22.5503 21.6755 22.5547 21.7179 22.5507 21.7599C22.5468 21.8019 22.5345 21.8427 22.5147 21.8799C22.4949 21.9172 22.4678 21.9501 22.4352 21.9768C22.4025 22.0035 22.3648 22.0234 22.3244 22.0355C22.2939 22.0458 22.2618 22.0512 22.2296 22.0513Z" fill="#3F2355"/>
<path d="M36.3452 16.1615C34.4044 16.1615 31.6052 16.1062 30.5993 15.8086H30.573C29.1826 15.2662 28.0529 13.5308 26.7416 11.5216C25.3564 9.39394 23.7844 6.98448 21.7383 5.99173C21.6987 5.97323 21.6632 5.94712 21.6336 5.91487C21.6041 5.88263 21.5813 5.84488 21.5664 5.8038C21.5515 5.76272 21.5448 5.71911 21.5467 5.67545C21.5487 5.63179 21.5592 5.58894 21.5777 5.54934C21.5962 5.50975 21.6223 5.47418 21.6545 5.44468C21.6868 5.41518 21.7245 5.39232 21.7656 5.3774C21.8067 5.36249 21.8503 5.35581 21.894 5.35775C21.9376 5.35969 21.9805 5.37021 22.0201 5.38871C24.2268 6.46836 25.8489 8.95945 27.2866 11.1556C28.4822 12.9989 29.6092 14.7158 30.8021 15.1898C32.3004 15.6217 38.2622 15.4953 38.3228 15.4953C38.3649 15.4942 38.4069 15.5015 38.4463 15.5167C38.4857 15.5319 38.5217 15.5546 38.5523 15.5837C38.5828 15.6129 38.6074 15.6477 38.6245 15.6863C38.6416 15.7249 38.6509 15.7664 38.6519 15.8086C38.6533 15.8941 38.6209 15.9766 38.5617 16.0383C38.5025 16.1 38.4214 16.1357 38.3359 16.1378C38.2385 16.1431 37.4248 16.1615 36.3452 16.1615Z" fill="#3F2355"/>
<path d="M18.2265 6.39083C18.0764 6.39083 17.9105 6.70419 17.7815 6.60939C17.7034 6.55253 17.6374 6.48085 17.5871 6.39846C17.5368 6.31606 17.5032 6.22456 17.4883 6.12918C17.4734 6.03381 17.4774 5.93643 17.5002 5.84261C17.5229 5.74879 17.5639 5.66037 17.6208 5.58241L21.2864 0.552826C21.3543 0.459289 21.4434 0.383113 21.5464 0.330492C21.6493 0.277872 21.7632 0.250295 21.8789 0.25H26.9242C27.1191 0.25 27.306 0.327404 27.4437 0.465184C27.5815 0.602965 27.6589 0.789834 27.6589 0.984685C27.6589 1.17954 27.5815 1.36641 27.4437 1.50419C27.306 1.64197 27.1191 1.71937 26.9242 1.71937H22.2528L18.8295 6.09063C18.7607 6.18562 18.6699 6.26253 18.5649 6.31481C18.4599 6.36708 18.3438 6.39317 18.2265 6.39083Z" fill="#3F2355"/>
<path d="M46.9882 30.4087C46.1319 30.4073 45.3112 30.0663 44.706 29.4606C44.1007 28.8549 43.7605 28.0339 43.7598 27.1776C43.7599 26.9186 43.7908 26.6605 43.8519 26.4087C43.8617 26.3675 43.8796 26.3286 43.9044 26.2943C43.9293 26.26 43.9607 26.2309 43.9969 26.2088C44.033 26.1867 44.0732 26.172 44.1151 26.1654C44.157 26.1589 44.1997 26.1607 44.2409 26.1708C44.282 26.1809 44.3208 26.199 44.3549 26.2241C44.3891 26.2493 44.4179 26.2809 44.4398 26.3172C44.4616 26.3535 44.4761 26.3938 44.4823 26.4357C44.4885 26.4776 44.4864 26.5204 44.476 26.5615C44.4264 26.7631 44.4017 26.97 44.4023 27.1776C44.4023 27.6891 44.5539 28.189 44.8381 28.6143C45.1222 29.0395 45.5261 29.371 45.9986 29.5667C46.4711 29.7624 46.991 29.8136 47.4927 29.7138C47.9943 29.6141 48.455 29.3678 48.8167 29.0061C49.1783 28.6445 49.4246 28.1837 49.5244 27.6821C49.6241 27.1805 49.5729 26.6606 49.3772 26.1881C49.1815 25.7156 48.8501 25.3117 48.4248 25.0276C47.9996 24.7434 47.4996 24.5918 46.9882 24.5918C46.8113 24.5917 46.6349 24.6093 46.4615 24.6444C46.3786 24.6601 46.2929 24.6425 46.2229 24.5955C46.1528 24.5486 46.104 24.4759 46.0871 24.3933C46.0702 24.3106 46.0864 24.2247 46.1323 24.1539C46.1782 24.0831 46.2501 24.0333 46.3325 24.0151C46.5464 23.9707 46.7644 23.9486 46.9829 23.9492C47.8235 23.9732 48.6217 24.324 49.2077 24.9271C49.7938 25.5302 50.1217 26.338 50.1217 27.179C50.1217 28.0199 49.7938 28.8277 49.2077 29.4308C48.6217 30.0339 47.8235 30.3847 46.9829 30.4087H46.9882Z" fill="#3F2355"/>
<path d="M10.7887 30.408C10.1195 30.4096 9.46656 30.2015 8.92171 29.8129C8.85187 29.7636 8.80445 29.6887 8.78988 29.6045C8.77532 29.5203 8.79479 29.4337 8.84403 29.3639C8.89326 29.2941 8.96823 29.2466 9.05243 29.2321C9.13663 29.2175 9.22316 29.237 9.293 29.2862C9.76625 29.6209 10.3382 29.7869 10.9171 29.7575C11.496 29.7281 12.0482 29.5051 12.4851 29.1243C12.9221 28.7434 13.2184 28.2268 13.3266 27.6574C13.4347 27.088 13.3484 26.4987 13.0815 25.9842C12.8146 25.4697 12.3826 25.0597 11.8548 24.8202C11.3269 24.5807 10.734 24.5254 10.171 24.6633C9.60799 24.8011 9.10765 25.1241 8.75026 25.5805C8.39286 26.0368 8.19915 26.6 8.20019 27.1796C8.20221 27.5661 8.29227 27.947 8.46352 28.2935C8.4996 28.3703 8.50379 28.4583 8.47517 28.5383C8.44655 28.6182 8.38745 28.6836 8.31079 28.7201C8.23387 28.7564 8.14573 28.7611 8.06541 28.733C7.98509 28.7049 7.91905 28.6463 7.88156 28.57C7.5808 27.9376 7.49362 27.2246 7.63316 26.5384C7.77269 25.8522 8.13139 25.2299 8.65523 24.7652C9.17907 24.3005 9.83971 24.0185 10.5377 23.9618C11.2356 23.9051 11.9331 24.0766 12.5251 24.4506C13.1171 24.8247 13.5716 25.3809 13.8201 26.0356C14.0687 26.6902 14.0977 27.4079 13.903 28.0806C13.7084 28.7532 13.3004 29.3444 12.7406 29.7651C12.1808 30.1858 11.4995 30.4133 10.7992 30.4133L10.7887 30.408Z" fill="#3F2355"/>
<path d="M56.7146 13.9841L51.9326 13.9472C51.8474 13.9472 51.7657 13.9134 51.7054 13.8531C51.6452 13.7929 51.6113 13.7111 51.6113 13.6259C51.6113 13.5407 51.6452 13.459 51.7054 13.3988C51.7657 13.3385 51.8474 13.3047 51.9326 13.3047L56.7173 13.3416C56.8025 13.3416 56.8842 13.3754 56.9444 13.4356C57.0047 13.4959 57.0385 13.5776 57.0385 13.6628C57.0385 13.748 57.0047 13.8297 56.9444 13.89C56.8842 13.9502 56.8025 13.9841 56.7173 13.9841H56.7146Z" fill="#3F2355"/>
<path d="M4.8903 15.1058H4.86134C4.77181 15.1058 2.67044 15.0215 1.58816 14.1815C1.56533 14.1653 1.54592 14.1447 1.53105 14.1209C1.51618 14.0972 1.50613 14.0707 1.50149 14.0431C1.49684 14.0155 1.49769 13.9872 1.50397 13.9599C1.51026 13.9326 1.52186 13.9068 1.53813 13.8839C1.8601 13.4017 2.28312 12.9953 2.77785 12.693C3.27258 12.3906 3.82717 12.1994 4.40315 12.1328H4.45054C4.9772 12.1328 7.61049 12.2039 8.13715 12.3961C8.17649 12.4088 8.21204 12.4311 8.24055 12.461C8.26907 12.4909 8.28965 12.5274 8.30042 12.5673C8.30803 12.6068 8.30496 12.6477 8.29154 12.6856C8.27812 12.7236 8.25482 12.7573 8.22405 12.7832C8.13715 12.857 6.11742 14.6055 5.0009 15.0926C4.96494 15.1027 4.92763 15.1072 4.8903 15.1058ZM2.13325 13.9471C3.01013 14.4896 4.48214 14.6081 4.82184 14.6265C5.61182 14.2658 6.84684 13.2651 7.45513 12.7516C6.72044 12.6753 5.3485 12.6226 4.43738 12.6068C3.9827 12.663 3.54413 12.8108 3.14812 13.0411C2.75211 13.2715 2.40687 13.5797 2.13325 13.9471Z" fill="#3F2355"/>
<path d="M4.87344 15.2882H4.85501C4.76547 15.2882 2.60355 15.1987 1.4765 14.3244C1.39354 14.2624 1.33804 14.1705 1.32181 14.0682C1.30558 13.9659 1.3299 13.8614 1.3896 13.7767C1.72474 13.2752 2.16445 12.8522 2.67855 12.5368C3.19265 12.2213 3.76895 12.0209 4.36785 11.9492H4.44421C5.1868 11.965 7.65155 12.0256 8.19401 12.2125C8.26288 12.2357 8.3248 12.2758 8.37405 12.3292C8.4233 12.3826 8.45829 12.4475 8.47577 12.518C8.49014 12.5898 8.48529 12.6642 8.46171 12.7336C8.43813 12.8029 8.39665 12.8648 8.34147 12.913C8.12291 13.1 6.19798 14.7563 5.07094 15.2514C5.01686 15.2723 4.96014 15.2856 4.90241 15.2909H4.87344V15.2882ZM4.43631 12.3126H4.41788C3.86961 12.3786 3.34203 12.5621 2.8712 12.8507C2.40038 13.1393 1.9974 13.5261 1.6898 13.9848C1.6898 13.9848 1.674 14.0111 1.6898 14.0348C2.72468 14.8248 4.77074 14.9169 4.84974 14.9196C4.86365 14.9223 4.87796 14.9223 4.89187 14.9196C5.98732 14.4456 7.98335 12.7129 8.06761 12.6391C8.07338 12.6355 8.0781 12.6304 8.08133 12.6244C8.08456 12.6185 8.08619 12.6117 8.08605 12.6049C8.08205 12.5954 8.07595 12.5869 8.06819 12.58C8.06044 12.5732 8.05124 12.5682 8.04128 12.5654C7.64892 12.4285 5.83986 12.3468 4.40735 12.3205L4.43631 12.3126ZM4.85764 14.8116H4.81287C4.38892 14.7879 2.93797 14.6615 2.04002 14.1059L1.86623 13.9979L1.98999 13.8373C2.2777 13.449 2.64167 13.1235 3.05961 12.8808C3.47754 12.6381 3.94064 12.4833 4.42051 12.4258H4.44948C5.44749 12.4443 6.77204 12.4996 7.48566 12.5733L7.91751 12.6181L7.58309 12.8972C6.9195 13.4502 5.68712 14.4324 4.89977 14.7984L4.85764 14.8116ZM2.41658 13.8926C3.2329 14.3086 4.44158 14.4192 4.78654 14.4403C5.57116 13.995 6.31256 13.4775 7.00113 12.8946C6.26908 12.8419 5.23683 12.8024 4.45738 12.7866C3.66233 12.8858 2.93376 13.2806 2.41658 13.8926Z" fill="#3F2355"/>
<path d="M5.96663 12.418C5.87907 13.0375 5.98676 13.6689 6.27473 14.2244C6.27473 14.2244 7.66773 12.892 7.81783 12.5944L5.96663 12.418Z" fill="#3F2355"/>
<path d="M32.4652 23.5996H24.9683V23.9446H32.4652V23.5996Z" fill="#3F2355"/>
<path d="M32.4649 24.0371H24.968C24.944 24.0365 24.9212 24.0264 24.9045 24.0092C24.8878 23.992 24.8784 23.969 24.8785 23.945V23.6C24.8781 23.588 24.8802 23.5761 24.8845 23.5649C24.8888 23.5538 24.8954 23.5436 24.9037 23.535C24.9121 23.5264 24.9221 23.5196 24.9331 23.5149C24.9441 23.5102 24.956 23.5078 24.968 23.5079H32.4649C32.4771 23.5075 32.4893 23.5096 32.5006 23.5141C32.512 23.5186 32.5223 23.5254 32.5309 23.534C32.5396 23.5427 32.5463 23.553 32.5508 23.5643C32.5553 23.5757 32.5575 23.5878 32.5571 23.6V23.945C32.5571 23.9694 32.5474 23.9929 32.5301 24.0101C32.5128 24.0274 32.4894 24.0371 32.4649 24.0371ZM25.0602 23.8528H32.3728V23.6895H25.0602V23.8528Z" fill="#3F2355"/>
<path d="M24.969 24.0343C24.9092 24.0362 24.8506 24.0176 24.8027 23.9817C24.7548 23.9458 24.7206 23.8947 24.7057 23.8368C23.8376 20.3488 22.4709 17.0043 20.6478 13.9066C20.6236 13.8479 20.6214 13.7824 20.6417 13.7221C20.6621 13.6619 20.7035 13.6111 20.7583 13.579C20.8132 13.5469 20.8778 13.5357 20.9403 13.5476C21.0027 13.5594 21.0588 13.5934 21.0981 13.6433C22.9485 16.7838 24.3348 20.1755 25.2139 23.713C25.2316 23.7804 25.2218 23.852 25.1868 23.9123C25.1518 23.9725 25.0943 24.0163 25.027 24.0343C25.0077 24.0361 24.9883 24.0361 24.969 24.0343Z" fill="#3F2355"/>
</svg>
