<svg width="282" height="78" viewBox="0 0 282 78" fill="none" xmlns="http://www.w3.org/2000/svg">
<path d="M79.8998 49.9471H74.1743V26.4609H89.1289V31.4598H79.8998V35.9416H87.2061V40.8543H79.8998V49.9471Z" fill="#3F2355"/>
<path d="M91.3936 28.7864C91.3936 27.9245 91.7354 27.1919 92.3763 26.5886C93.0172 25.9853 93.7863 25.6836 94.6408 25.6836C95.5381 25.6836 96.3072 25.9853 96.9054 26.5886C97.5036 27.1919 97.8454 27.9245 97.8454 28.7864C97.8454 29.6482 97.5463 30.3808 96.9054 30.9841C96.3072 31.5875 95.5381 31.8891 94.6408 31.8891C93.7436 31.8891 93.0172 31.5875 92.3763 30.9841C91.7354 30.3808 91.3936 29.6482 91.3936 28.7864ZM91.9917 34.0869V49.9455H97.3754V34.0869H91.9917Z" fill="#3F2355"/>
<path d="M106.775 41.5854V49.9456H101.392V34.0871H106.775V36.5865C107.032 35.6815 107.63 34.9489 108.527 34.4749C109.467 33.9578 110.364 33.6992 111.176 33.6992C113.227 33.6992 114.808 34.3887 115.876 35.7246C116.944 37.0605 117.457 38.9998 117.457 41.5423V49.9887H112.073V41.6716C112.073 40.7235 111.817 40.034 111.304 39.56C110.792 39.1291 110.193 38.9136 109.51 38.9136C108.783 38.9136 108.143 39.1291 107.587 39.56C107.032 39.9909 106.775 40.6804 106.775 41.5854Z" fill="#3F2355"/>
<path d="M132.582 35.7679V34.0441H137.966V49.9027H132.582V48.0927C131.6 49.5148 130.147 50.2043 128.224 50.2043C126.173 50.2043 124.379 49.4286 122.84 47.9203C121.302 46.412 120.533 44.3866 120.533 41.9303C120.533 39.4739 121.302 37.4485 122.84 35.9402C124.379 34.3888 126.173 33.6562 128.224 33.6562C129.036 33.6562 129.89 33.8286 130.66 34.2165C131.471 34.5612 132.112 35.0783 132.582 35.7679ZM126.985 39.6894C126.344 40.3358 126.002 41.1115 126.002 42.0165C126.002 42.9214 126.344 43.6971 126.985 44.3435C127.626 44.99 128.395 45.3347 129.292 45.3347C130.19 45.3347 130.959 44.99 131.6 44.3435C132.24 43.6971 132.582 42.9214 132.582 42.0165C132.582 41.1115 132.24 40.3358 131.6 39.6894C130.959 39.043 130.19 38.6982 129.292 38.6982C128.395 38.6982 127.626 39.043 126.985 39.6894Z" fill="#3F2355"/>
<path d="M147.366 41.5854V49.9456H141.982V34.0871H147.366V36.5865C147.622 35.6815 148.221 34.9489 149.118 34.4749C150.015 34.0009 150.955 33.6992 151.767 33.6992C153.818 33.6992 155.399 34.3887 156.467 35.7246C157.535 37.0605 158.048 38.9998 158.048 41.5423V49.9887H152.664V41.6716C152.664 40.7235 152.408 40.034 151.895 39.56C151.382 39.1291 150.784 38.9136 150.101 38.9136C149.374 38.9136 148.733 39.1291 148.178 39.56C147.622 39.9909 147.366 40.6804 147.366 41.5854Z" fill="#3F2355"/>
<path d="M172.362 43.8264L176.848 46.3259C175.096 48.9546 172.789 50.2474 169.884 50.2474C167.448 50.2474 165.397 49.4717 163.688 47.9634C161.979 46.4121 161.125 44.4297 161.125 41.9734C161.125 39.517 161.979 37.5347 163.688 35.9833C165.397 34.4319 167.448 33.6562 169.884 33.6562C172.746 33.6562 175.054 34.9491 176.805 37.5778L172.405 40.2496C171.764 39.2154 170.866 38.6982 169.627 38.6982C168.73 38.6982 167.961 39.043 167.32 39.6894C166.679 40.3358 166.337 41.1115 166.337 42.0165C166.337 42.9214 166.679 43.6971 167.32 44.3435C167.961 44.99 168.73 45.3347 169.627 45.3347C170.781 45.2485 171.678 44.7745 172.362 43.8264Z" fill="#3F2355"/>
<path d="M195.221 41.7579C195.221 42.0165 195.178 42.6198 195.135 43.4817H183.855C183.941 44.2143 184.325 44.7745 185.052 45.2485C185.778 45.6795 186.547 45.8949 187.444 45.8949C188.684 45.8949 189.709 45.464 190.435 44.559C190.692 44.7745 191.333 45.2485 192.358 45.938C193.384 46.6706 193.982 47.1016 194.153 47.2308C192.657 49.2132 190.307 50.2043 187.017 50.2043C184.71 50.2043 182.744 49.4286 181.078 47.8772C179.454 46.3259 178.643 44.3004 178.643 41.8872C178.643 39.4739 179.454 37.4916 181.078 35.9402C182.702 34.3888 184.667 33.6562 187.017 33.6562C189.324 33.6562 191.29 34.3888 192.828 35.8971C194.409 37.3623 195.221 39.3446 195.221 41.7579ZM183.813 40.4651H190.093C189.88 39.5601 189.453 38.9568 188.812 38.6121C188.171 38.2673 187.573 38.0949 186.974 38.0949C186.633 38.0949 186.248 38.138 185.863 38.2242C185.479 38.3104 185.094 38.569 184.667 38.9568C184.24 39.3446 183.941 39.8618 183.813 40.4651Z" fill="#3F2355"/>
<path d="M196.887 26.4609H214.149V29.4775H207.099V49.9471H203.937V29.4775H196.887V26.4609Z" fill="#FE5600"/>
<path d="M220.772 41.3707V49.9463H217.695V25.3828H220.772V36.4149C221.199 35.5099 221.925 34.8635 222.951 34.3894C223.976 33.9154 225.002 33.6999 225.984 33.6999C227.95 33.6999 229.531 34.3033 230.684 35.553C231.838 36.8027 232.394 38.5265 232.394 40.7242V49.9033H229.317V40.9397C229.317 39.6469 228.975 38.6126 228.292 37.88C227.608 37.1044 226.711 36.7596 225.6 36.7596C224.318 36.7596 223.207 37.1475 222.267 37.88C221.284 38.6126 220.772 39.7762 220.772 41.3707Z" fill="#FE5600"/>
<path d="M249.869 49.9456V47.4893C249.356 48.3943 248.587 49.0407 247.562 49.5578C246.536 50.0749 245.468 50.2904 244.314 50.2904C242.093 50.2904 240.213 49.5147 238.632 47.9633C237.094 46.4119 236.282 44.4296 236.282 41.9733C236.282 39.5169 237.051 37.4915 238.632 35.9832C240.17 34.4749 242.093 33.6992 244.314 33.6992C245.468 33.6992 246.536 33.9578 247.562 34.4318C248.587 34.9059 249.356 35.5954 249.826 36.4572V34.044H252.86V49.9456H249.869ZM249.826 41.9302C249.826 40.3357 249.314 39.0429 248.245 38.1379C247.177 37.1898 245.981 36.7589 244.614 36.7589C243.161 36.7589 241.922 37.2329 240.939 38.2241C239.956 39.1722 239.486 40.4219 239.486 41.9733C239.486 43.5246 239.999 44.7744 240.982 45.7655C241.964 46.7567 243.204 47.2738 244.614 47.2738C246.066 47.2738 247.305 46.7998 248.331 45.8517C249.314 44.8606 249.826 43.5677 249.826 41.9302Z" fill="#FE5600"/>
<path d="M262.132 34.0447H265.464V36.6735H262.132V49.9464H259.055V36.6735H256.235V34.0447H259.055V28.0547H262.132V34.0447Z" fill="#FE5600"/>
<path d="M35.9337 72.785C53.9623 72.785 68.5773 58.0445 68.5773 39.8613C68.5773 21.678 53.9623 6.9375 35.9337 6.9375C17.9051 6.9375 3.29004 21.678 3.29004 39.8613C3.29004 58.0445 17.9051 72.785 35.9337 72.785Z" fill="url(#paint0_linear)"/>
<path d="M19.6543 41.1107L52.2125 24.5195L44.0943 52.272L19.6543 41.1107L52.2125 24.5195L19.6543 41.1107Z" fill="white"/>
<path d="M32.6006 46.9707L34.9506 48.0911L31.6606 52.8746L32.6006 46.9707Z" fill="#A97C57"/>
<path d="M28.5845 45.1609L51.999 24.7344L32.6008 46.9708L31.6608 52.8747L28.5845 45.1609Z" fill="#E9DDD4"/>
<defs>
<linearGradient id="paint0_linear" x1="14.7225" y1="58.9648" x2="63.7756" y2="15.5177" gradientUnits="userSpaceOnUse">
<stop stop-color="#E32738"/>
<stop offset="0.0549275" stop-color="#E72D30"/>
<stop offset="0.23" stop-color="#F03E1B"/>
<stop offset="0.425" stop-color="#F6490C"/>
<stop offset="0.654" stop-color="#FA5003"/>
<stop offset="1" stop-color="#FB5200"/>
</linearGradient>
</defs>
</svg>
