<svg width="282" height="78" viewBox="0 0 282 78" fill="none" xmlns="http://www.w3.org/2000/svg">
<path d="M79.9012 49.9093H74.1758V26.4414H89.1303V31.4364H79.9012V35.9147H87.2076V40.8236H79.9012V49.9093Z" fill="#3F2355"/>
<path d="M91.3945 28.7644C91.3945 27.9032 91.7364 27.1712 92.3773 26.5683C93.0182 25.9655 93.7873 25.6641 94.6418 25.6641C95.5391 25.6641 96.3082 25.9655 96.9064 26.5683C97.5045 27.1712 97.8464 27.9032 97.8464 28.7644C97.8464 29.6256 97.5473 30.3577 96.9064 30.9605C96.3082 31.5633 95.5391 31.8648 94.6418 31.8648C93.7445 31.8648 93.0182 31.5633 92.3773 30.9605C91.7364 30.3577 91.3945 29.6256 91.3945 28.7644ZM91.9927 34.0608V49.9071H97.3764V34.0608H91.9927Z" fill="#3F2355"/>
<path d="M106.778 41.5539V49.9076H101.395V34.0614H106.778V36.5589C107.035 35.6546 107.633 34.9226 108.53 34.4489C109.47 33.9322 110.367 33.6738 111.179 33.6738C113.23 33.6738 114.811 34.3628 115.879 35.6977C116.947 37.0325 117.46 38.9703 117.46 41.5108V49.9507H112.076V41.64C112.076 40.6927 111.82 40.0037 111.307 39.53C110.795 39.0994 110.196 38.8841 109.513 38.8841C108.786 38.8841 108.145 39.0994 107.59 39.53C107.035 39.9607 106.778 40.6496 106.778 41.5539Z" fill="#3F2355"/>
<path d="M132.584 35.7408V34.0184H137.968V49.8646H132.584V48.0561C131.602 49.4771 130.149 50.1661 128.226 50.1661C126.175 50.1661 124.381 49.391 122.842 47.8839C121.304 46.3767 120.535 44.3529 120.535 41.8985C120.535 39.444 121.304 37.4202 122.842 35.9131C124.381 34.3629 126.175 33.6309 128.226 33.6309C129.038 33.6309 129.892 33.8031 130.662 34.1906C131.473 34.5351 132.114 35.0519 132.584 35.7408ZM126.987 39.6593C126.346 40.3052 126.004 41.0803 126.004 41.9846C126.004 42.8889 126.346 43.6639 126.987 44.3098C127.628 44.9558 128.397 45.3002 129.294 45.3002C130.192 45.3002 130.961 44.9558 131.602 44.3098C132.242 43.6639 132.584 42.8889 132.584 41.9846C132.584 41.0803 132.242 40.3052 131.602 39.6593C130.961 39.0134 130.192 38.6689 129.294 38.6689C128.397 38.6689 127.628 39.0134 126.987 39.6593Z" fill="#3F2355"/>
<path d="M147.368 41.5539V49.9076H141.984V34.0614H147.368V36.5589C147.624 35.6546 148.223 34.9226 149.12 34.4489C150.017 33.9753 150.957 33.6738 151.769 33.6738C153.82 33.6738 155.401 34.3628 156.469 35.6977C157.537 37.0325 158.05 38.9703 158.05 41.5108V49.9507H152.666V41.64C152.666 40.6927 152.41 40.0037 151.897 39.53C151.384 39.0994 150.786 38.8841 150.103 38.8841C149.376 38.8841 148.735 39.0994 148.18 39.53C147.624 39.9607 147.368 40.6496 147.368 41.5539Z" fill="#3F2355"/>
<path d="M172.362 43.7931L176.849 46.2906C175.097 48.9173 172.79 50.2091 169.884 50.2091C167.449 50.2091 165.398 49.434 163.689 47.9269C161.98 46.3767 161.125 44.396 161.125 41.9415C161.125 39.4871 161.98 37.5063 163.689 35.9561C165.398 34.4059 167.449 33.6309 169.884 33.6309C172.747 33.6309 175.054 34.9227 176.806 37.5494L172.405 40.2191C171.764 39.1857 170.867 38.6689 169.628 38.6689C168.73 38.6689 167.961 39.0134 167.32 39.6593C166.68 40.3052 166.338 41.0803 166.338 41.9846C166.338 42.8889 166.68 43.6639 167.32 44.3098C167.961 44.9558 168.73 45.3002 169.628 45.3002C170.781 45.2141 171.679 44.7404 172.362 43.7931Z" fill="#3F2355"/>
<path d="M195.223 41.7262C195.223 41.9846 195.18 42.5874 195.137 43.4486H183.857C183.943 44.1807 184.327 44.7404 185.054 45.2141C185.78 45.6447 186.549 45.86 187.446 45.86C188.685 45.86 189.711 45.4294 190.437 44.5251C190.694 44.7404 191.335 45.2141 192.36 45.9031C193.385 46.6351 193.984 47.0657 194.155 47.1949C192.659 49.1757 190.309 50.1661 187.019 50.1661C184.712 50.1661 182.746 49.391 181.08 47.8408C179.456 46.2906 178.645 44.2668 178.645 41.8554C178.645 39.444 179.456 37.4632 181.08 35.9131C182.704 34.3629 184.669 33.6309 187.019 33.6309C189.326 33.6309 191.292 34.3629 192.83 35.87C194.411 37.3341 195.223 39.3148 195.223 41.7262ZM183.815 40.4344H190.095C189.882 39.5301 189.455 38.9273 188.814 38.5828C188.173 38.2383 187.575 38.0661 186.976 38.0661C186.635 38.0661 186.25 38.1091 185.865 38.1953C185.481 38.2814 185.096 38.5397 184.669 38.9273C184.242 39.3148 183.943 39.8316 183.815 40.4344Z" fill="#3F2355"/>
<path d="M196.887 26.4414H214.149V29.4556H207.099V49.9093H203.937V29.4556H196.887V26.4414Z" fill="#FE5600"/>
<path d="M220.772 41.3387V49.9077H217.695V25.3633H220.772V36.3868C221.199 35.4825 221.925 34.8366 222.951 34.3629C223.976 33.8892 225.002 33.6739 225.984 33.6739C227.95 33.6739 229.531 34.2768 230.684 35.5255C231.838 36.7743 232.394 38.4967 232.394 40.6928V49.8647H229.317V40.9081C229.317 39.6163 228.975 38.5828 228.292 37.8508C227.608 37.0757 226.711 36.7312 225.6 36.7312C224.318 36.7312 223.207 37.1188 222.267 37.8508C221.284 38.5828 220.772 39.7455 220.772 41.3387Z" fill="#FE5600"/>
<path d="M249.869 49.9076V47.4532C249.356 48.3574 248.587 49.0034 247.561 49.5201C246.536 50.0368 245.468 50.2521 244.314 50.2521C242.092 50.2521 240.212 49.477 238.631 47.9268C237.093 46.3767 236.281 44.3959 236.281 41.9414C236.281 39.487 237.05 37.4632 238.631 35.956C240.169 34.4489 242.092 33.6738 244.314 33.6738C245.468 33.6738 246.536 33.9322 247.561 34.4059C248.587 34.8795 249.356 35.5685 249.826 36.4297V34.0183H252.859V49.9076H249.869ZM249.826 41.8984C249.826 40.3051 249.313 39.0133 248.245 38.1091C247.177 37.1617 245.98 36.7311 244.613 36.7311C243.16 36.7311 241.921 37.2048 240.939 38.1952C239.956 39.1425 239.486 40.3913 239.486 41.9414C239.486 43.4916 239.999 44.7404 240.981 45.7308C241.964 46.7212 243.203 47.2379 244.613 47.2379C246.066 47.2379 247.305 46.7642 248.33 45.8169C249.313 44.8265 249.826 43.5347 249.826 41.8984Z" fill="#FE5600"/>
<path d="M262.135 34.0186H265.467V36.6453H262.135V49.9079H259.058V36.6453H256.238V34.0186H259.058V28.0332H262.135V34.0186Z" fill="#FE5600"/>
<path d="M35.9327 72.7299C53.9613 72.7299 68.5763 58.0009 68.5763 39.8318C68.5763 21.6626 53.9613 6.93359 35.9327 6.93359C17.9041 6.93359 3.28906 21.6626 3.28906 39.8318C3.28906 58.0009 17.9041 72.7299 35.9327 72.7299Z" fill="url(#paint0_linear)"/>
<path d="M19.6562 41.0802L52.2144 24.502L44.0962 52.2329L19.6562 41.0802L52.2144 24.502L19.6562 41.0802Z" fill="white"/>
<path d="M32.6041 46.9355L34.9541 48.0551L31.6641 52.8348L32.6041 46.9355Z" fill="#A97C57"/>
<path d="M28.5859 45.1274L52.0005 24.7168L32.6023 46.936L31.6623 52.8353L28.5859 45.1274Z" fill="#E9DDD4"/>
<defs>
<linearGradient id="paint0_linear" x1="14.7216" y1="58.9205" x2="63.7411" y2="15.4692" gradientUnits="userSpaceOnUse">
<stop stop-color="#E32738"/>
<stop offset="0.0549275" stop-color="#E72D30"/>
<stop offset="0.23" stop-color="#F03E1B"/>
<stop offset="0.425" stop-color="#F6490C"/>
<stop offset="0.654" stop-color="#FA5003"/>
<stop offset="1" stop-color="#FB5200"/>
</linearGradient>
</defs>
</svg>
