<svg width="202" height="161" viewBox="0 0 202 161" fill="none" xmlns="http://www.w3.org/2000/svg">
<path d="M86.2598 141.295C90.9255 144.273 94.0483 152.393 92.2149 155.993C89.0392 162.23 79.7077 161.652 68.4088 152.089C60.3608 145.277 47.7671 141.429 50.9985 136.936C54.389 132.223 72.9517 132.806 86.2598 141.295Z" fill="#EBFCF5"/>
<path d="M82.716 133.046C100.868 141.156 102.462 153.95 124.019 157.522C141.993 160.502 165.003 159.565 179.003 143.05C187.688 132.806 189.638 117.813 188.494 110.035C184.25 81.1673 175.379 84.6416 171.796 60.788C168.584 39.4041 172.85 35.7541 165.38 21.4135C164.175 19.1001 157.96 7.73139 145.662 2.6554C128.609 -4.37956 115.268 3.57623 88.4281 14.6798C62.37 25.4597 47.2342 4.48037 16.2871 23.3361C-5.50427 36.6134 -0.581684 68.0963 3.73807 82.5011C5.46542 88.2608 11.5739 99.2165 19.753 107.103C39.5631 126.207 60.5479 123.143 82.716 133.046Z" fill="#EBFCF5"/>
<path d="M182.143 59.3198C178.554 63.2405 177.647 60.8798 177.262 62.0853C174.731 69.9937 172.136 86.3294 177.552 90.0297C179.138 91.1124 180.187 91.2436 181.35 92.3598C185.168 96.0294 181.54 103.092 185.053 107.602C186.605 109.594 188.458 110.811 190.517 110.973C197.184 111.495 203.29 102.127 201.763 97.1372C200.742 93.797 195.825 90.5487 195.66 87.5182C195.607 86.5052 195.747 85.7631 195.747 85.7631C196.096 84.072 197.94 82.5539 197.843 79.8415C197.625 73.8195 193.406 68.5258 192.245 66.645C192.245 66.645 192.242 66.645 192.242 66.6394C192.111 66.4776 188.304 60.1235 182.143 59.3198Z" fill="url(#paint0_linear)"/>
<path opacity="0.7" d="M192.337 101.264C192.041 98.2505 191.578 95.0329 190.883 91.6452C189.052 82.7071 186.128 75.1002 183.173 68.9917C183.985 70.7107 185.64 74.8741 184.437 79.7157C184.027 81.3705 183.374 82.7295 182.737 83.7816" stroke="white" stroke-width="0.697" stroke-miterlimit="10"/>
<path d="M182.143 59.3198C178.554 63.2405 177.647 60.8798 177.262 62.0853C174.731 69.9937 172.136 86.3294 177.552 90.0297C179.138 91.1124 180.187 91.2436 181.35 92.3598C185.168 96.0294 181.54 103.092 185.053 107.602C186.605 109.594 188.458 110.811 190.517 110.973C197.184 111.495 203.29 102.127 201.763 97.1372C200.742 93.797 195.825 90.5487 195.66 87.5182C195.607 86.5052 195.747 85.7631 195.747 85.7631C196.096 84.072 197.94 82.5539 197.843 79.8415C197.625 73.8195 193.406 68.5258 192.245 66.645C192.245 66.645 192.242 66.645 192.242 66.6394C192.111 66.4776 188.304 60.1235 182.143 59.3198Z" fill="url(#paint1_linear)"/>
<path d="M174.738 60.6202C173.572 61.5466 171.78 61.2424 168.194 60.6341C163.668 59.8667 146.64 50.9677 143.978 43.8602C142.443 39.7609 145.281 38.1311 143.445 35.1481C140.688 30.672 136.432 31.8357 131.552 26.2657C130.818 25.4286 129.277 22.8445 129.66 20.1377C130.413 14.7994 140.64 9.94666 146.727 12.7316C152.383 15.3212 152.04 23.2073 157.434 23.6091C158.997 23.7263 160.007 23.5925 161.394 23.6735C169.324 24.1311 180.269 56.2251 174.738 60.6202Z" fill="url(#paint2_linear)"/>
<path opacity="0.7" d="M139.277 19.4683C144.356 22.3788 150.744 26.7098 157.173 33.0108C164.819 40.5034 172.387 56.7667 175.49 62.4455" stroke="white" stroke-width="0.9921" stroke-miterlimit="10"/>
<path d="M168.19 60.6341C163.664 59.8667 146.636 50.9677 143.974 43.8602C142.439 39.7609 145.277 38.1311 143.441 35.1481C140.684 30.672 136.428 31.8357 131.548 26.2657C130.814 25.4286 129.273 22.8446 129.656 20.1377C130.409 14.7994 140.637 9.94666 146.723 12.7316C152.379 15.3212 152.036 23.2073 157.43 23.6091C158.993 23.7263 160.003 23.5925 161.39 23.6735C169.323 24.1339 180.265 56.2278 174.734 60.6229C174.673 60.6731 174.606 60.7179 174.542 60.7597C174.876 61.3401 175.192 61.9039 175.49 62.4508L174.064 60.9969C172.892 61.4295 171.157 61.1364 168.19 60.6341Z" fill="url(#paint3_linear)"/>
<path d="M183.072 60.3356C183.597 60.0007 185.489 52.0113 186.298 48.1632C188.226 39.0158 188.759 34.4421 186.234 31.9669C184.01 29.7875 182.484 31.2023 180.918 29.0815C178.714 26.0956 182.135 21.9656 179.696 17.2998C179.383 16.7026 177.639 14.5958 175.689 13.9846C171.037 12.5308 164.147 19.0858 164.306 24.5357C164.454 29.5977 170.761 32.0394 169.669 36.1583C169.131 38.1954 167.769 38.2623 167.323 40.0901C165.989 45.554 178.647 63.1596 183.072 60.3356Z" fill="url(#paint4_linear)"/>
<path opacity="0.7" d="M172.499 23.8184C172.585 24.2872 172.727 25.0351 172.926 25.9476C175.127 36.055 178.362 39.6436 179.634 46.4581C180.053 48.7017 180.41 52.0922 179.782 56.4594" stroke="white" stroke-width="1.088" stroke-miterlimit="10"/>
<path d="M167.327 40.0945C167.773 38.2667 169.135 38.1997 169.674 36.1626C170.762 32.0438 164.458 29.602 164.31 24.5399C164.151 19.09 171.038 12.5378 175.693 13.9889C177.643 14.5972 179.385 16.7042 179.7 17.3041C182.139 21.9699 178.718 26.0998 180.922 29.0857C182.488 31.2065 184.011 29.7918 186.238 31.9712C188.764 34.4464 188.231 39.02 186.302 48.1674C185.49 52.0184 183.601 60.0049 183.077 60.3398C178.648 63.161 165.99 45.5555 167.327 40.0945Z" fill="url(#paint5_linear)"/>
<path d="M96.5573 88.7626L87.9959 113.9L84.8872 114.235L31.1581 120.031C29.7768 120.178 28.4513 119.858 27.3491 119.191C25.7612 118.239 24.6228 116.579 24.4107 114.597L16.6167 42.3308C16.4018 40.3467 17.1609 38.4826 18.5087 37.2101C19.1589 36.599 19.9429 36.1273 20.8219 35.8455C20.9057 35.8176 20.9923 35.7925 21.0788 35.7674C21.3913 35.6809 21.7178 35.6195 22.0499 35.5832L31.6437 34.5479L95.8345 27.6274L84.2482 53.7246L96.5573 88.7626Z" fill="url(#paint6_linear)"/>
<path opacity="0.8" d="M93.4207 89.1811L84.8872 114.234L31.1581 120.03C29.7768 120.178 28.4513 119.857 27.3491 119.19C25.7612 118.239 24.6228 116.578 24.4107 114.597L16.6167 42.3307C16.4018 40.3466 17.1609 38.4825 18.5087 37.21C19.1589 36.5989 19.9429 36.1272 20.8219 35.8454C20.9057 35.8175 20.9923 35.7924 21.0788 35.7673L28.5071 34.9664L92.698 28.0459L81.1117 54.143L93.4207 89.1811Z" fill="url(#paint7_linear)"/>
<path d="M185.748 62.0513L173.049 133.618C172.457 136.947 169.279 139.168 165.947 138.579L45.0606 117.125C41.7315 116.534 39.5102 113.355 40.099 110.024L52.7988 38.4574C53.3904 35.1282 56.5687 32.9041 59.9006 33.4957L180.787 54.9493C184.119 55.5409 186.34 58.7222 185.748 62.0513Z" fill="url(#paint8_linear)"/>
<path d="M182.745 61.522L170.046 133.088C169.454 136.417 166.276 138.641 162.944 138.05L42.0574 116.596C38.7255 116.005 36.5043 112.826 37.0959 109.494L49.7956 37.9279C50.3872 34.5988 53.5629 32.3748 56.8976 32.9664L177.784 54.4201C181.113 55.0116 183.334 58.1901 182.745 61.522Z" fill="url(#paint9_linear)"/>
<path opacity="0.7" d="M182.746 61.5207L171.263 126.233C164.585 125.96 160.695 123.881 158.292 121.461C151.305 114.421 157.078 104.668 149.134 95.4703C141.094 86.1611 134.316 92.4426 124.842 82.6841C116.443 74.0307 122.565 66.672 114.126 60.1254C105.626 53.5286 100.213 58.9673 94.3582 53.1742C91.9834 50.8217 89.9937 46.7057 90.51 38.9341L177.784 54.4216C181.113 55.0104 183.335 58.1888 182.746 61.5207Z" fill="url(#paint10_linear)"/>
<path opacity="0.7" d="M182.746 61.5207L176.3 97.8508C173.596 96.9606 171.667 95.6545 170.255 94.2314C163.265 87.1908 169.039 77.438 161.097 68.2404C153.057 58.9311 143.528 64.727 134.054 54.9657C130.92 51.7398 129.581 48.6507 128.69 45.7095L177.784 54.4216C181.113 55.0104 183.335 58.1888 182.746 61.5207Z" fill="url(#paint11_linear)"/>
<path d="M182.745 61.5209L170.046 133.087C169.7 135.032 168.472 136.6 166.845 137.449C167.811 136.572 168.505 135.378 168.751 133.991L181.451 62.4249C182.042 59.0958 179.821 55.9147 176.489 55.3231L55.6028 33.8693C54.2187 33.6237 52.8569 33.8638 51.7017 34.4694C53.0579 33.2332 54.9499 32.6192 56.8977 32.9653L177.784 54.4189C181.113 55.0105 183.334 58.189 182.745 61.5209Z" fill="url(#paint12_linear)"/>
<path d="M72.0729 90.9469L53.3762 87.629C51.8191 87.3528 50.7698 85.8514 51.0461 84.2943L51.0825 84.0906C51.3588 82.5335 52.86 81.4842 54.4171 81.7605L73.1137 85.0785C74.6708 85.3547 75.7201 86.8561 75.4439 88.4132L75.4076 88.6169C75.1313 90.174 73.63 91.2232 72.0729 90.9469Z" fill="url(#paint13_linear)"/>
<path d="M102.141 96.2824L83.4441 92.9644C81.887 92.6881 80.8377 91.1869 81.114 89.6297L81.1504 89.426C81.4266 87.8689 82.9279 86.8197 84.485 87.0959L103.182 90.4139C104.739 90.6902 105.788 92.1914 105.512 93.7485L105.475 93.9522C105.199 95.5093 103.701 96.5586 102.141 96.2824Z" fill="url(#paint14_linear)"/>
<path d="M132.212 101.618L113.515 98.2998C111.958 98.0235 110.909 96.5223 111.185 94.9652L111.222 94.7615C111.498 93.2044 112.999 92.1551 114.556 92.4314L133.253 95.7492C134.81 96.0255 135.859 97.5268 135.583 99.084L135.547 99.2877C135.27 100.845 133.769 101.894 132.212 101.618Z" fill="url(#paint15_linear)"/>
<path d="M162.283 106.953L143.586 103.635C142.029 103.359 140.98 101.858 141.256 100.301L141.292 100.097C141.569 98.5398 143.07 97.4905 144.627 97.7668L163.324 101.085C164.881 101.361 165.93 102.862 165.654 104.42L165.618 104.623C165.339 106.183 163.84 107.23 162.283 106.953Z" fill="url(#paint16_linear)"/>
<path d="M72.2682 89.8478L53.5716 86.5299C52.0144 86.2537 50.9652 84.7523 51.2414 83.1952L51.2777 82.9915C51.5539 81.4344 53.0553 80.3851 54.6124 80.6613L73.309 83.9793C74.8662 84.2556 75.9154 85.7568 75.6392 87.3139L75.6028 87.5177C75.3265 89.0748 73.8253 90.124 72.2682 89.8478Z" fill="url(#paint17_linear)"/>
<path d="M102.336 95.1832L83.6394 91.8652C82.0823 91.589 81.033 90.0877 81.3093 88.5306L81.3455 88.3269C81.6218 86.7698 83.1232 85.7205 84.6803 85.9968L103.377 89.3148C104.934 89.591 105.983 91.0923 105.707 92.6494L105.671 92.8531C105.394 94.4102 103.893 95.4595 102.336 95.1832Z" fill="url(#paint18_linear)"/>
<path d="M132.407 100.519L113.711 97.2007C112.154 96.9244 111.104 95.4231 111.381 93.8659L111.417 93.6622C111.693 92.1051 113.194 91.056 114.752 91.3322L133.448 94.6501C135.005 94.9264 136.055 96.4277 135.778 97.9849L135.742 98.1886C135.466 99.7485 133.964 100.795 132.407 100.519Z" fill="url(#paint19_linear)"/>
<path d="M162.475 105.854L143.779 102.536C142.221 102.26 141.172 100.759 141.448 99.2015L141.485 98.9978C141.761 97.4407 143.262 96.3914 144.819 96.6677L163.516 99.9857C165.073 100.262 166.122 101.763 165.846 103.32L165.81 103.524C165.534 105.084 164.035 106.131 162.475 105.854Z" fill="url(#paint20_linear)"/>
<path d="M79.755 49.3791L78.008 59.2242C77.955 59.5256 77.863 59.8102 77.7402 60.0753C77.0928 61.4594 75.5719 62.305 73.998 62.0259L58.9794 59.3609C57.4083 59.0818 56.2697 57.7647 56.1385 56.2439C56.1134 55.9509 56.1275 55.655 56.1805 55.3508L57.9273 45.5059C57.9776 45.224 58.0613 44.9534 58.1757 44.7022C58.8064 43.2874 60.3467 42.4196 61.9345 42.7014L76.9533 45.3663C78.5467 45.6482 79.6908 46.9933 79.7968 48.5392C79.8192 48.8155 79.8052 49.0973 79.755 49.3791Z" fill="url(#paint21_linear)"/>
<path d="M79.2611 48.9549L77.5589 58.5404C77.5059 58.8334 77.4193 59.1098 77.2993 59.3693C76.6686 60.7171 75.1841 61.5403 73.6521 61.2668L59.013 58.6688C57.4837 58.3981 56.3731 57.1145 56.2448 55.6327C56.2224 55.3481 56.2336 55.0579 56.2866 54.7649L57.9889 45.1794C58.0363 44.9059 58.1172 44.6407 58.2288 44.3979C58.8455 43.0194 60.344 42.1739 61.8927 42.4501L76.5319 45.0481C78.0835 45.3244 79.1997 46.6332 79.3057 48.1401C79.3252 48.4052 79.3114 48.6786 79.2611 48.9549Z" fill="url(#paint22_linear)"/>
<path d="M78.5354 53.1462L73.4761 52.2477C74.1738 50.0962 76.3698 48.7261 78.6608 49.1307C78.8506 49.1642 79.0348 49.2088 79.2162 49.2647L79.2721 48.9521C79.3195 48.6786 79.3362 48.4023 79.3139 48.1344C79.166 48.0898 79.0125 48.059 78.8562 48.0311C75.9569 47.5177 73.1776 49.2898 72.3655 52.0496L68.4921 51.3631L69.8261 43.8538L68.6233 43.6416L67.2894 51.151L63.4162 50.4645C63.6031 47.5931 61.6023 44.9727 58.7029 44.4593C58.5466 44.4314 58.3904 44.4091 58.2369 44.4007C58.1253 44.6435 58.0444 44.9085 57.9969 45.182L57.9411 45.4946C58.1308 45.5029 58.3179 45.5252 58.5076 45.5587C60.7987 45.9662 62.3893 48.006 62.3028 50.2691L57.2434 49.3707L57.0286 50.5734L62.0962 51.4719C61.4153 53.6513 59.2024 55.0439 56.8946 54.6364C56.7049 54.603 56.5208 54.5583 56.3394 54.5025L56.292 54.7704C56.2389 55.0634 56.2278 55.3536 56.2501 55.6382C56.3952 55.6773 56.5458 55.7107 56.6965 55.7386C59.6126 56.2549 62.4088 54.4606 63.2041 51.6729L67.0718 52.3593L65.738 59.8687L66.9406 60.0836L68.2745 52.5742L72.1422 53.2607C71.9273 56.1517 73.9365 58.7999 76.8526 59.3162C77.0033 59.3441 77.1569 59.3635 77.3075 59.3775C77.4275 59.118 77.5167 58.8418 77.567 58.5488L77.6144 58.2808C77.4246 58.2724 77.2377 58.2501 77.048 58.2166C74.7402 57.8064 73.1412 55.7387 73.2528 53.456L78.3205 54.3545L78.5354 53.1462Z" fill="url(#paint23_linear)"/>
<path d="M62.4095 104.3C61.6867 108.372 57.8943 111.104 53.9346 110.401C49.9776 109.697 47.3545 105.83 48.0773 101.755C48.8 97.6812 52.5923 94.9521 56.5521 95.6553C60.509 96.3586 63.1322 100.229 62.4095 104.3Z" fill="url(#paint24_linear)"/>
<path d="M73.6355 106.293C72.9128 110.364 69.1204 113.093 65.1606 112.393C63.6732 112.127 62.3756 111.416 61.371 110.417C61.0417 110.088 61.0334 109.549 61.3571 109.211C62.5459 107.972 63.3998 106.371 63.7235 104.534C64.1002 102.416 63.7095 100.349 62.7607 98.6185C64.2202 97.7172 65.981 97.3293 67.7781 97.6474C71.7351 98.3506 74.3583 102.221 73.6355 106.293Z" fill="url(#paint25_linear)"/>
<path d="M55.0924 109.8C59.0609 109.8 62.278 106.583 62.278 102.614C62.278 98.6458 59.0609 95.4287 55.0924 95.4287C51.1239 95.4287 47.9067 98.6458 47.9067 102.614C47.9067 106.583 51.1239 109.8 55.0924 109.8Z" fill="url(#paint26_linear)"/>
<path d="M73.2533 105.837C72.5584 109.744 68.8303 112.348 64.9208 111.656C63.146 111.34 61.6419 110.4 60.5898 109.102C62.0493 107.863 63.1041 106.133 63.464 104.099C63.824 102.067 63.4306 100.078 62.4846 98.4118C63.919 97.5523 65.6546 97.1868 67.4294 97.5021C71.3417 98.1997 73.9481 101.928 73.2533 105.837Z" fill="url(#paint27_linear)"/>
<path d="M158.083 130.014L124.702 124.09C123.089 123.803 122.004 122.248 122.289 120.635C122.576 119.022 124.13 117.937 125.743 118.222L159.124 124.146C160.737 124.433 161.822 125.988 161.537 127.601C161.25 129.216 159.696 130.302 158.083 130.014Z" fill="url(#paint28_linear)"/>
<path d="M111.804 121.802L94.2936 118.694C92.6807 118.406 91.5952 116.852 91.8798 115.239C92.1672 113.626 93.7215 112.54 95.3345 112.825L112.845 115.934C114.458 116.221 115.544 117.776 115.259 119.388C114.972 121.004 113.417 122.09 111.804 121.802Z" fill="url(#paint29_linear)"/>
<path d="M158.278 128.918L124.898 122.994C123.285 122.707 122.199 121.152 122.484 119.539C122.771 117.926 124.326 116.841 125.939 117.125L159.319 123.05C160.932 123.337 162.018 124.892 161.733 126.505C161.445 128.117 159.891 129.203 158.278 128.918Z" fill="url(#paint30_linear)"/>
<path d="M112 120.706L94.4894 117.597C92.8765 117.309 91.791 115.755 92.0756 114.142C92.363 112.529 93.9173 111.444 95.5303 111.728L113.041 114.837C114.654 115.125 115.739 116.679 115.455 118.292C115.167 119.905 113.613 120.99 112 120.706Z" fill="url(#paint31_linear)"/>
<path d="M160.083 118.752L156.363 118.091C154.75 117.803 153.665 116.249 153.95 114.636C154.237 113.023 155.791 111.937 157.404 112.222L161.124 112.883C162.737 113.171 163.823 114.725 163.538 116.338C163.25 117.951 161.696 119.037 160.083 118.752Z" fill="url(#paint32_linear)"/>
<path d="M145.037 116.082L141.317 115.42C139.704 115.133 138.619 113.578 138.903 111.965C139.191 110.353 140.745 109.267 142.358 109.552L146.078 110.213C147.691 110.5 148.776 112.055 148.492 113.668C148.204 115.281 146.65 116.366 145.037 116.082Z" fill="url(#paint33_linear)"/>
<path d="M160.279 117.652L156.559 116.991C154.946 116.704 153.86 115.149 154.145 113.536C154.432 111.923 155.987 110.838 157.6 111.122L161.319 111.784C162.932 112.071 164.018 113.626 163.733 115.239C163.446 116.851 161.891 117.937 160.279 117.652Z" fill="url(#paint34_linear)"/>
<path d="M145.232 114.982L141.512 114.321C139.899 114.033 138.814 112.479 139.099 110.866C139.386 109.253 140.94 108.167 142.553 108.452L146.273 109.113C147.886 109.401 148.972 110.955 148.687 112.568C148.4 114.181 146.845 115.269 145.232 114.982Z" fill="url(#paint35_linear)"/>
<path d="M153.897 27.5242L161.691 99.7908C162.054 103.153 159.621 106.176 156.258 106.538L34.1916 119.704C30.829 120.067 27.8067 117.634 27.444 114.271L19.6501 42.0044C19.2873 38.6418 21.7206 35.6196 25.0832 35.2568L147.15 22.091C150.515 21.7282 153.535 24.1616 153.897 27.5242Z" fill="url(#paint36_linear)"/>
<path d="M150.867 27.8533L158.661 100.12C159.024 103.482 156.59 106.505 153.228 106.867L31.1613 120.033C27.7959 120.396 24.7765 117.963 24.4137 114.6L16.6198 42.3334C16.2571 38.9708 18.6876 35.9487 22.053 35.5859L144.12 22.4201C147.482 22.0573 150.504 24.4907 150.867 27.8533Z" fill="url(#paint37_linear)"/>
<path opacity="0.7" d="M150.867 27.8536L157.913 93.1968C151.425 94.8013 147.108 93.8916 144.128 92.2369C135.452 87.426 138.27 76.4508 128.074 69.84C117.754 63.1483 112.999 71.0734 101.176 64.3482C90.6943 58.3848 94.5173 49.6086 84.583 45.6795C74.5789 41.7197 70.8982 48.4534 63.6595 44.5271C60.7239 42.9337 57.6626 39.5347 55.9883 31.9277L144.116 22.4231C147.482 22.0575 150.504 24.491 150.867 27.8536Z" fill="url(#paint38_linear)"/>
<path opacity="0.7" d="M150.867 27.8536L154.824 64.538C151.978 64.4376 149.762 63.7231 148.01 62.7492C139.331 57.9411 142.15 46.9659 131.956 40.3523C121.636 33.6606 114.105 41.8843 102.281 35.1591C98.3717 32.9379 96.223 30.3455 94.5459 27.7698L144.12 22.4231C147.482 22.0575 150.504 24.491 150.867 27.8536Z" fill="url(#paint39_linear)"/>
<path d="M150.867 27.8533L158.661 100.12C158.873 102.084 158.131 103.932 156.805 105.201C157.489 104.088 157.821 102.749 157.671 101.351L149.877 29.0839C149.514 25.7213 146.492 23.288 143.129 23.6508L21.0624 36.8165C19.6644 36.9671 18.4253 37.5783 17.4849 38.4825C18.442 36.917 20.0857 35.798 22.053 35.5859L144.12 22.4201C147.482 22.0573 150.504 24.4907 150.867 27.8533Z" fill="url(#paint40_linear)"/>
<path d="M52.8157 87.0188L33.9349 89.0558C32.361 89.2261 30.9378 88.0763 30.7676 86.5052L30.7452 86.2988C30.575 84.725 31.7247 83.3017 33.2958 83.1315L52.1767 81.0943C53.7505 80.9241 55.1737 82.0739 55.344 83.6449L55.3662 83.8515C55.5364 85.4226 54.3896 86.8486 52.8157 87.0188Z" fill="url(#paint41_linear)"/>
<path d="M83.1795 83.7452L64.2986 85.7824C62.7248 85.9526 61.3016 84.8029 61.1313 83.2318L61.109 83.0254C60.9388 81.4515 62.0885 80.0283 63.6596 79.8581L82.5404 77.8209C84.1143 77.6507 85.5374 78.8004 85.7076 80.3715L85.7299 80.5781C85.9002 82.1491 84.7533 83.575 83.1795 83.7452Z" fill="url(#paint42_linear)"/>
<path d="M113.543 80.4693L94.6624 82.5064C93.0885 82.6766 91.6653 81.527 91.4951 79.9559L91.4728 79.7494C91.3025 78.1755 92.4523 76.7523 94.0234 76.5821L112.904 74.545C114.478 74.3748 115.901 75.5246 116.071 77.0956L116.094 77.3021C116.264 78.8731 115.114 80.2991 113.543 80.4693Z" fill="url(#paint43_linear)"/>
<path d="M143.907 77.1959L125.027 79.2329C123.453 79.4032 122.03 78.2536 121.859 76.6825L121.837 76.4759C121.667 74.9021 122.817 73.4789 124.388 73.3086L143.268 71.2716C144.842 71.1014 146.265 72.2511 146.436 73.8222L146.458 74.0286C146.628 75.5997 145.478 77.0257 143.907 77.1959Z" fill="url(#paint44_linear)"/>
<path d="M52.6964 85.9078L33.8156 87.945C32.2417 88.1152 30.8187 86.9655 30.6484 85.3944L30.6261 85.188C30.4559 83.6141 31.6055 82.1909 33.1765 82.0207L52.0574 79.9835C53.6313 79.8133 55.0545 80.963 55.2247 82.5341L55.247 82.7407C55.4172 84.3145 54.2703 85.7404 52.6964 85.9078Z" fill="url(#paint45_linear)"/>
<path d="M83.0602 82.6344L64.1794 84.6716C62.6055 84.8418 61.1823 83.692 61.0121 82.121L60.9899 81.9145C60.8196 80.3407 61.9692 78.9175 63.5403 78.7472L82.4212 76.7101C83.995 76.5398 85.4182 77.6896 85.5884 79.2607L85.6108 79.4672C85.781 81.0383 84.6341 82.4642 83.0602 82.6344Z" fill="url(#paint46_linear)"/>
<path d="M113.424 79.3585L94.5433 81.3955C92.9694 81.5658 91.5462 80.4162 91.376 78.8451L91.3536 78.6385C91.1834 77.0647 92.3331 75.6415 93.9042 75.4712L112.785 73.4342C114.359 73.264 115.782 74.4137 115.952 75.9848L115.975 76.1912C116.145 77.7651 114.998 79.1911 113.424 79.3585Z" fill="url(#paint47_linear)"/>
<path d="M143.788 76.0851L124.908 78.1221C123.334 78.2923 121.91 77.1427 121.74 75.5717L121.718 75.3651C121.548 73.7912 122.697 72.368 124.268 72.1978L143.149 70.1608C144.723 69.9905 146.146 71.1403 146.317 72.7113L146.339 72.9178C146.509 74.4889 145.359 75.9148 143.788 76.0851Z" fill="url(#paint48_linear)"/>
<path d="M48.5828 44.963L49.6545 54.903C49.688 55.2072 49.6795 55.5058 49.6349 55.796C49.4005 57.3057 48.1754 58.5418 46.5876 58.712L31.4239 60.3474C29.8388 60.5176 28.3766 59.5715 27.8268 58.1484C27.7236 57.8749 27.651 57.5847 27.6175 57.2805L26.546 47.3406C26.5153 47.056 26.518 46.7742 26.5599 46.5007C26.772 44.9659 28.0055 43.7018 29.61 43.5288L44.7738 41.8935C46.3811 41.7204 47.8573 42.6916 48.3903 44.1455C48.488 44.4022 48.5521 44.6756 48.5828 44.963Z" fill="url(#paint49_linear)"/>
<path d="M47.9909 44.6886L49.0345 54.3691C49.0652 54.6649 49.0597 54.955 49.015 55.2396C48.7862 56.7103 47.5919 57.913 46.0431 58.0805L31.2616 59.6739C29.7156 59.8413 28.2925 58.9204 27.7539 57.5307C27.6507 57.2628 27.5837 56.981 27.5502 56.6852L26.5065 47.0048C26.4758 46.7286 26.4814 46.4523 26.5205 46.1872C26.727 44.6914 27.9296 43.4608 29.4951 43.2933L44.2767 41.6999C45.845 41.5297 47.2821 42.4758 47.804 43.8934C47.8989 44.1446 47.963 44.4123 47.9909 44.6886Z" fill="url(#paint50_linear)"/>
<path d="M48.4651 48.9192L43.3556 49.469C43.4254 47.2058 45.1528 45.2775 47.4633 45.0292C47.6559 45.0096 47.8457 44.9985 48.0326 45.0041L47.9991 44.6887C47.9684 44.4124 47.907 44.1418 47.8122 43.8935C47.6587 43.8935 47.5024 43.9045 47.3433 43.9213C44.416 44.2366 42.2422 46.7147 42.2338 49.5917L38.3216 50.013L37.5039 42.4312L36.29 42.5624L37.1077 50.1442L33.1953 50.5656C32.573 47.7555 29.9192 45.7994 26.9947 46.1147C26.8356 46.1315 26.6822 46.1537 26.5316 46.1872C26.4925 46.4523 26.4896 46.7286 26.5175 47.0049L26.551 47.3202C26.7352 47.2755 26.9221 47.2448 27.1119 47.2225C29.4252 46.9741 31.5238 48.4894 32.0735 50.6856L26.964 51.2353L27.0951 52.4492L32.2102 51.8966C32.1655 54.1793 30.4298 56.1356 28.0997 56.3867C27.9072 56.4062 27.7174 56.4174 27.5305 56.4118L27.5584 56.6797C27.5891 56.9755 27.6588 57.2573 27.7621 57.5251C27.9128 57.5224 28.0663 57.5112 28.2198 57.4945C31.1638 57.1764 33.3487 54.6732 33.332 51.7739L37.236 51.3526L38.0536 58.9344L39.2675 58.8032L38.4499 51.2214L42.3538 50.8C42.9566 53.6352 45.6244 55.6164 48.5684 55.2983C48.7219 55.2816 48.8726 55.2592 49.0205 55.2285C49.0623 54.9467 49.0707 54.6565 49.04 54.3607L49.012 54.0928C48.8279 54.1375 48.641 54.1682 48.4512 54.1905C46.1211 54.4417 44.0087 52.9013 43.4785 50.68L48.5935 50.1275L48.4651 48.9192Z" fill="url(#paint51_linear)"/>
<path d="M47.2683 102.539C47.712 106.65 44.8322 110.333 40.8361 110.763C36.8401 111.193 33.2403 108.21 32.7966 104.099C32.3529 99.989 35.2328 96.3054 39.2288 95.8756C43.2249 95.4459 46.8246 98.429 47.2683 102.539Z" fill="url(#paint52_linear)"/>
<path d="M58.6032 101.317C59.0469 105.43 56.1671 109.108 52.1682 109.541C50.6641 109.703 49.2214 109.382 47.9768 108.701C47.5666 108.478 47.4104 107.962 47.6253 107.549C48.4206 106.028 48.7917 104.25 48.5935 102.397C48.3619 100.26 47.4104 98.3816 46.0151 96.9863C47.1648 95.7138 48.7471 94.8488 50.5609 94.6535C54.5626 94.2209 58.1595 97.2068 58.6032 101.317Z" fill="url(#paint53_linear)"/>
<path d="M39.773 110.149C43.7416 110.149 46.9587 106.932 46.9587 102.963C46.9587 98.995 43.7416 95.7778 39.773 95.7778C35.8045 95.7778 32.5874 98.995 32.5874 102.963C32.5874 106.932 35.8045 110.149 39.773 110.149Z" fill="url(#paint54_linear)"/>
<path d="M58.1097 100.988C58.5338 104.934 55.6819 108.475 51.7361 108.902C49.9446 109.095 48.2368 108.612 46.8638 107.66C47.9214 106.064 48.4489 104.108 48.2284 102.054C48.008 100.003 47.0731 98.2029 45.7002 96.8663C46.8387 95.6412 48.4013 94.807 50.1929 94.6116C54.1415 94.1875 57.6855 97.0393 58.1097 100.988Z" fill="url(#paint55_linear)"/>
<path d="M146.316 100.511L112.611 104.147C110.982 104.323 109.506 103.134 109.33 101.504C109.154 99.8747 110.343 98.3985 111.972 98.2227L145.677 94.5866C147.306 94.4108 148.782 95.5996 148.958 97.2293C149.134 98.859 147.945 100.335 146.316 100.511Z" fill="url(#paint56_linear)"/>
<path d="M99.5851 105.55L81.9015 107.456C80.2719 107.632 78.7956 106.443 78.6198 104.814C78.444 103.184 79.6328 101.708 81.2625 101.532L98.9462 99.6261C100.576 99.4503 102.052 100.639 102.228 102.269C102.404 103.899 101.215 105.375 99.5851 105.55Z" fill="url(#paint57_linear)"/>
<path d="M146.198 99.4001L112.494 103.036C110.865 103.212 109.388 102.023 109.213 100.393C109.037 98.7638 110.226 97.2877 111.855 97.1119L145.559 93.4757C147.189 93.2999 148.665 94.4888 148.841 96.1184C149.017 97.7481 147.825 99.2242 146.198 99.4001Z" fill="url(#paint58_linear)"/>
<path d="M99.4655 104.443L81.7818 106.348C80.1521 106.524 78.676 105.335 78.5002 103.706C78.3243 102.076 79.513 100.6 81.1427 100.424L98.8235 98.5182C100.453 98.3424 101.929 99.5311 102.105 101.161C102.284 102.788 101.095 104.267 99.4655 104.443Z" fill="url(#paint59_linear)"/>
<path d="M145.09 89.1369L141.334 89.5414C139.704 89.7172 138.228 88.5285 138.052 86.8988C137.877 85.2692 139.065 83.7929 140.695 83.6171L144.451 83.2126C146.081 83.0368 147.557 84.2254 147.733 85.8551C147.909 87.4848 146.72 88.9611 145.09 89.1369Z" fill="url(#paint60_linear)"/>
<path d="M129.899 90.7751L126.143 91.1796C124.513 91.3554 123.037 90.1667 122.861 88.537C122.685 86.9074 123.874 85.4311 125.504 85.2553L129.26 84.8507C130.889 84.6749 132.366 85.8636 132.541 87.4933C132.717 89.123 131.528 90.5992 129.899 90.7751Z" fill="url(#paint61_linear)"/>
<path d="M144.97 88.026L141.214 88.4306C139.585 88.6064 138.109 87.4177 137.933 85.788C137.757 84.1583 138.946 82.6821 140.575 82.5063L144.331 82.1017C145.961 81.9259 147.437 83.1146 147.613 84.7443C147.789 86.374 146.6 87.8502 144.97 88.026Z" fill="url(#paint62_linear)"/>
<path d="M129.779 89.6642L126.023 90.0688C124.393 90.2446 122.917 89.0559 122.741 87.4262C122.565 85.7965 123.754 84.3203 125.384 84.1444L129.14 83.7399C130.769 83.5641 132.246 84.7528 132.421 86.3825C132.597 88.0121 131.408 89.4884 129.779 89.6642Z" fill="url(#paint63_linear)"/>
<defs>
<linearGradient id="paint0_linear" x1="207.152" y1="119.045" x2="176.702" y2="66.1451" gradientUnits="userSpaceOnUse">
<stop stop-color="#C4DFCC"/>
<stop offset="0.1682" stop-color="#BBDAC6"/>
<stop offset="0.6814" stop-color="#A3CCB6"/>
<stop offset="0.9991" stop-color="#9AC7B0"/>
</linearGradient>
<linearGradient id="paint1_linear" x1="177.475" y1="79.1023" x2="199.863" y2="94.011" gradientUnits="userSpaceOnUse">
<stop offset="0.176" stop-color="#9AC7B0"/>
<stop offset="0.5317" stop-color="#ADD2BD" stop-opacity="0.4913"/>
<stop offset="0.8752" stop-color="#C4DFCC" stop-opacity="0"/>
</linearGradient>
<linearGradient id="paint2_linear" x1="152.622" y1="46.2914" x2="153.644" y2="15.6282" gradientUnits="userSpaceOnUse">
<stop offset="0.000857915" stop-color="#9AC7B0"/>
<stop offset="0.3186" stop-color="#A3CCB6"/>
<stop offset="0.8318" stop-color="#BBDAC6"/>
<stop offset="1" stop-color="#C4DFCC"/>
</linearGradient>
<linearGradient id="paint3_linear" x1="168.646" y1="51.3208" x2="140.471" y2="19.4464" gradientUnits="userSpaceOnUse">
<stop stop-color="#9AC7B0"/>
<stop offset="0.1829" stop-color="#A3CCB6" stop-opacity="0.791"/>
<stop offset="0.8752" stop-color="#C4DFCC" stop-opacity="0"/>
</linearGradient>
<linearGradient id="paint4_linear" x1="164.843" y1="39.5016" x2="184.511" y2="35.8828" gradientUnits="userSpaceOnUse">
<stop stop-color="#C4DFCC"/>
<stop offset="0.1682" stop-color="#BBDAC6"/>
<stop offset="0.6814" stop-color="#A3CCB6"/>
<stop offset="0.9991" stop-color="#9AC7B0"/>
</linearGradient>
<linearGradient id="paint5_linear" x1="181.772" y1="55.0277" x2="174.974" y2="28.766" gradientUnits="userSpaceOnUse">
<stop stop-color="#9AC7B0"/>
<stop offset="0.1829" stop-color="#A3CCB6" stop-opacity="0.791"/>
<stop offset="0.8752" stop-color="#C4DFCC" stop-opacity="0"/>
</linearGradient>
<linearGradient id="paint6_linear" x1="18.0627" y1="36.4218" x2="91.5611" y2="98.9661" gradientUnits="userSpaceOnUse">
<stop offset="0.0104" stop-color="#47B9E1"/>
<stop offset="0.2703" stop-color="#43B1DC"/>
<stop offset="0.6777" stop-color="#369ACD"/>
<stop offset="1" stop-color="#2A84BE"/>
</linearGradient>
<linearGradient id="paint7_linear" x1="55.0018" y1="43.0398" x2="55.0018" y2="104.98" gradientUnits="userSpaceOnUse">
<stop stop-color="#ADE3FA"/>
<stop offset="0.9997" stop-color="#CFF1FF"/>
</linearGradient>
<linearGradient id="paint8_linear" x1="97.3928" y1="58.1021" x2="146.119" y2="145.444" gradientUnits="userSpaceOnUse">
<stop offset="0.0104" stop-color="#47B9E1"/>
<stop offset="0.2703" stop-color="#43B1DC"/>
<stop offset="0.6777" stop-color="#369ACD"/>
<stop offset="1" stop-color="#2A84BE"/>
</linearGradient>
<linearGradient id="paint9_linear" x1="60.5001" y1="25.5557" x2="151.986" y2="136.371" gradientUnits="userSpaceOnUse">
<stop offset="0.0104" stop-color="#A5E0F4"/>
<stop offset="1" stop-color="#77BCDD"/>
</linearGradient>
<linearGradient id="paint10_linear" x1="84.2182" y1="74.3633" x2="177.523" y2="90.9186" gradientUnits="userSpaceOnUse">
<stop stop-color="#ADE3FA"/>
<stop offset="0.9997" stop-color="#CFF1FF"/>
</linearGradient>
<linearGradient id="paint11_linear" x1="124.941" y1="66.8078" x2="180.066" y2="76.5886" gradientUnits="userSpaceOnUse">
<stop stop-color="#ADE3FA"/>
<stop offset="0.9997" stop-color="#CFF1FF"/>
</linearGradient>
<linearGradient id="paint12_linear" x1="84.0907" y1="6.08029" x2="175.576" y2="116.895" gradientUnits="userSpaceOnUse">
<stop stop-color="#ADE3FA"/>
<stop offset="0.9997" stop-color="#CFF1FF"/>
</linearGradient>
<linearGradient id="paint13_linear" x1="115.633" y1="145.037" x2="89.6907" y2="115.932" gradientUnits="userSpaceOnUse">
<stop offset="0.0104" stop-color="#A5E0F4"/>
<stop offset="1" stop-color="#77BCDD"/>
</linearGradient>
<linearGradient id="paint14_linear" x1="129.739" y1="132.464" x2="103.797" y2="103.359" gradientUnits="userSpaceOnUse">
<stop offset="0.0104" stop-color="#A5E0F4"/>
<stop offset="1" stop-color="#77BCDD"/>
</linearGradient>
<linearGradient id="paint15_linear" x1="143.846" y1="119.89" x2="117.903" y2="90.7854" gradientUnits="userSpaceOnUse">
<stop offset="0.0104" stop-color="#A5E0F4"/>
<stop offset="1" stop-color="#77BCDD"/>
</linearGradient>
<linearGradient id="paint16_linear" x1="157.952" y1="107.317" x2="132.009" y2="78.212" gradientUnits="userSpaceOnUse">
<stop offset="0.0104" stop-color="#A5E0F4"/>
<stop offset="1" stop-color="#77BCDD"/>
</linearGradient>
<linearGradient id="paint17_linear" x1="115.828" y1="143.939" x2="89.8857" y2="114.834" gradientUnits="userSpaceOnUse">
<stop stop-color="#ADE3FA"/>
<stop offset="0.9997" stop-color="#CFF1FF"/>
</linearGradient>
<linearGradient id="paint18_linear" x1="129.934" y1="131.365" x2="103.992" y2="102.26" gradientUnits="userSpaceOnUse">
<stop stop-color="#ADE3FA"/>
<stop offset="0.9997" stop-color="#CFF1FF"/>
</linearGradient>
<linearGradient id="paint19_linear" x1="144.041" y1="118.792" x2="118.098" y2="89.6866" gradientUnits="userSpaceOnUse">
<stop stop-color="#ADE3FA"/>
<stop offset="0.9997" stop-color="#CFF1FF"/>
</linearGradient>
<linearGradient id="paint20_linear" x1="158.147" y1="106.218" x2="132.204" y2="77.1133" gradientUnits="userSpaceOnUse">
<stop stop-color="#ADE3FA"/>
<stop offset="0.9997" stop-color="#CFF1FF"/>
</linearGradient>
<linearGradient id="paint21_linear" x1="69.104" y1="53.502" x2="76.5747" y2="61.5689" gradientUnits="userSpaceOnUse">
<stop stop-color="#F3A401"/>
<stop offset="0.4878" stop-color="#F39805"/>
<stop offset="1" stop-color="#F39007"/>
</linearGradient>
<linearGradient id="paint22_linear" x1="62.1952" y1="42.7472" x2="72.7066" y2="59.7371" gradientUnits="userSpaceOnUse">
<stop stop-color="#F9DE5B"/>
<stop offset="1" stop-color="#F3A401"/>
</linearGradient>
<linearGradient id="paint23_linear" x1="75.7546" y1="61.3954" x2="62.9324" y2="45.9575" gradientUnits="userSpaceOnUse">
<stop stop-color="#F9DE5B" stop-opacity="0.4"/>
<stop offset="1" stop-color="#FFE361"/>
</linearGradient>
<linearGradient id="paint24_linear" x1="60.7704" y1="110.845" x2="49.1309" y2="94.184" gradientUnits="userSpaceOnUse">
<stop offset="0.0104" stop-color="#A5E0F4"/>
<stop offset="1" stop-color="#77BCDD"/>
</linearGradient>
<linearGradient id="paint25_linear" x1="56.5554" y1="90.6454" x2="73.3596" y2="114.699" gradientUnits="userSpaceOnUse">
<stop offset="0.0104" stop-color="#A5E0F4"/>
<stop offset="1" stop-color="#77BCDD"/>
</linearGradient>
<linearGradient id="paint26_linear" x1="45.3743" y1="94.5857" x2="73.0064" y2="117.162" gradientUnits="userSpaceOnUse">
<stop offset="0.1011" stop-color="#228DF5"/>
<stop offset="0.1702" stop-color="#2083E6"/>
<stop offset="0.4512" stop-color="#1A5BAF"/>
<stop offset="0.693" stop-color="#163F86"/>
<stop offset="0.8836" stop-color="#132D6D"/>
<stop offset="0.9993" stop-color="#122764"/>
</linearGradient>
<linearGradient id="paint27_linear" x1="48.8487" y1="90.3338" x2="76.4805" y2="112.91" gradientUnits="userSpaceOnUse">
<stop offset="0.1011" stop-color="#228DF5"/>
<stop offset="0.1702" stop-color="#2083E6"/>
<stop offset="0.4512" stop-color="#1A5BAF"/>
<stop offset="0.693" stop-color="#163F86"/>
<stop offset="0.8836" stop-color="#132D6D"/>
<stop offset="0.9993" stop-color="#122764"/>
</linearGradient>
<linearGradient id="paint28_linear" x1="224.011" y1="216.132" x2="183.353" y2="170.518" gradientUnits="userSpaceOnUse">
<stop offset="0.0104" stop-color="#A5E0F4"/>
<stop offset="1" stop-color="#77BCDD"/>
</linearGradient>
<linearGradient id="paint29_linear" x1="153.772" y1="173.547" x2="128.912" y2="145.656" gradientUnits="userSpaceOnUse">
<stop offset="0.0104" stop-color="#A5E0F4"/>
<stop offset="1" stop-color="#77BCDD"/>
</linearGradient>
<linearGradient id="paint30_linear" x1="224.206" y1="215.034" x2="183.548" y2="169.42" gradientUnits="userSpaceOnUse">
<stop stop-color="#ADE3FA"/>
<stop offset="0.9997" stop-color="#CFF1FF"/>
</linearGradient>
<linearGradient id="paint31_linear" x1="153.967" y1="172.448" x2="129.107" y2="144.558" gradientUnits="userSpaceOnUse">
<stop stop-color="#ADE3FA"/>
<stop offset="0.9997" stop-color="#CFF1FF"/>
</linearGradient>
<linearGradient id="paint32_linear" x1="160.679" y1="117.567" x2="149.547" y2="105.079" gradientUnits="userSpaceOnUse">
<stop offset="0.0104" stop-color="#A5E0F4"/>
<stop offset="1" stop-color="#77BCDD"/>
</linearGradient>
<linearGradient id="paint33_linear" x1="145.634" y1="114.898" x2="134.503" y2="102.41" gradientUnits="userSpaceOnUse">
<stop offset="0.0104" stop-color="#A5E0F4"/>
<stop offset="1" stop-color="#77BCDD"/>
</linearGradient>
<linearGradient id="paint34_linear" x1="146.176" y1="102.911" x2="176.433" y2="129.911" gradientUnits="userSpaceOnUse">
<stop stop-color="#ADE3FA"/>
<stop offset="0.9997" stop-color="#CFF1FF"/>
</linearGradient>
<linearGradient id="paint35_linear" x1="140.833" y1="108.899" x2="171.09" y2="135.899" gradientUnits="userSpaceOnUse">
<stop stop-color="#ADE3FA"/>
<stop offset="0.9997" stop-color="#CFF1FF"/>
</linearGradient>
<linearGradient id="paint36_linear" x1="67.875" y1="48.4984" x2="139.052" y2="118.758" gradientUnits="userSpaceOnUse">
<stop offset="0.0104" stop-color="#47B9E1"/>
<stop offset="0.2703" stop-color="#43B1DC"/>
<stop offset="0.6777" stop-color="#369ACD"/>
<stop offset="1" stop-color="#2A84BE"/>
</linearGradient>
<linearGradient id="paint37_linear" x1="23.3625" y1="27.5484" x2="142.152" y2="108.406" gradientUnits="userSpaceOnUse">
<stop offset="0.0104" stop-color="#A5E0F4"/>
<stop offset="1" stop-color="#77BCDD"/>
</linearGradient>
<linearGradient id="paint38_linear" x1="59.7656" y1="67.7917" x2="153.98" y2="57.633" gradientUnits="userSpaceOnUse">
<stop stop-color="#ADE3FA"/>
<stop offset="0.9997" stop-color="#CFF1FF"/>
</linearGradient>
<linearGradient id="paint39_linear" x1="96.7586" y1="49.1652" x2="152.42" y2="43.1635" gradientUnits="userSpaceOnUse">
<stop stop-color="#ADE3FA"/>
<stop offset="0.9997" stop-color="#CFF1FF"/>
</linearGradient>
<linearGradient id="paint40_linear" x1="40.576" y1="2.26135" x2="159.365" y2="83.1187" gradientUnits="userSpaceOnUse">
<stop stop-color="#ADE3FA"/>
<stop offset="0.9997" stop-color="#CFF1FF"/>
</linearGradient>
<linearGradient id="paint41_linear" x1="109.666" y1="126.881" x2="76.6285" y2="106.179" gradientUnits="userSpaceOnUse">
<stop offset="0.0104" stop-color="#A5E0F4"/>
<stop offset="1" stop-color="#77BCDD"/>
</linearGradient>
<linearGradient id="paint42_linear" x1="119.7" y1="110.869" x2="86.6619" y2="90.1667" gradientUnits="userSpaceOnUse">
<stop offset="0.0104" stop-color="#A5E0F4"/>
<stop offset="1" stop-color="#77BCDD"/>
</linearGradient>
<linearGradient id="paint43_linear" x1="129.733" y1="94.8564" x2="96.6958" y2="74.1541" gradientUnits="userSpaceOnUse">
<stop offset="0.0104" stop-color="#A5E0F4"/>
<stop offset="1" stop-color="#77BCDD"/>
</linearGradient>
<linearGradient id="paint44_linear" x1="139.767" y1="78.8441" x2="106.73" y2="58.1419" gradientUnits="userSpaceOnUse">
<stop offset="0.0104" stop-color="#A5E0F4"/>
<stop offset="1" stop-color="#77BCDD"/>
</linearGradient>
<linearGradient id="paint45_linear" x1="109.547" y1="125.771" x2="76.5097" y2="105.069" gradientUnits="userSpaceOnUse">
<stop stop-color="#ADE3FA"/>
<stop offset="0.9997" stop-color="#CFF1FF"/>
</linearGradient>
<linearGradient id="paint46_linear" x1="119.581" y1="109.759" x2="86.5431" y2="89.0567" gradientUnits="userSpaceOnUse">
<stop stop-color="#ADE3FA"/>
<stop offset="0.9997" stop-color="#CFF1FF"/>
</linearGradient>
<linearGradient id="paint47_linear" x1="129.615" y1="93.7464" x2="96.577" y2="73.0441" gradientUnits="userSpaceOnUse">
<stop stop-color="#ADE3FA"/>
<stop offset="0.9997" stop-color="#CFF1FF"/>
</linearGradient>
<linearGradient id="paint48_linear" x1="139.649" y1="77.7342" x2="106.611" y2="57.0319" gradientUnits="userSpaceOnUse">
<stop stop-color="#ADE3FA"/>
<stop offset="0.9997" stop-color="#CFF1FF"/>
</linearGradient>
<linearGradient id="paint49_linear" x1="39.4284" y1="51.9819" x2="48.8546" y2="57.6415" gradientUnits="userSpaceOnUse">
<stop stop-color="#F3A401"/>
<stop offset="0.4878" stop-color="#F39805"/>
<stop offset="1" stop-color="#F39007"/>
</linearGradient>
<linearGradient id="paint50_linear" x1="29.791" y1="43.5835" x2="44.6284" y2="56.9619" gradientUnits="userSpaceOnUse">
<stop stop-color="#F9DE5B"/>
<stop offset="1" stop-color="#F3A401"/>
</linearGradient>
<linearGradient id="paint51_linear" x1="48.0181" y1="57.7032" x2="31.3953" y2="46.4602" gradientUnits="userSpaceOnUse">
<stop stop-color="#F9DE5B" stop-opacity="0.4"/>
<stop offset="1" stop-color="#FFE361"/>
</linearGradient>
<linearGradient id="paint52_linear" x1="47.4384" y1="109.369" x2="31.6095" y2="96.621" gradientUnits="userSpaceOnUse">
<stop offset="0.0104" stop-color="#A5E0F4"/>
<stop offset="1" stop-color="#77BCDD"/>
</linearGradient>
<linearGradient id="paint53_linear" x1="37.7507" y1="91.1503" x2="60.6033" y2="109.554" gradientUnits="userSpaceOnUse">
<stop offset="0.0104" stop-color="#A5E0F4"/>
<stop offset="1" stop-color="#77BCDD"/>
</linearGradient>
<linearGradient id="paint54_linear" x1="28.1154" y1="98.0561" x2="60.9521" y2="112.018" gradientUnits="userSpaceOnUse">
<stop offset="0.1011" stop-color="#228DF5"/>
<stop offset="0.1702" stop-color="#2083E6"/>
<stop offset="0.4512" stop-color="#1A5BAF"/>
<stop offset="0.693" stop-color="#163F86"/>
<stop offset="0.8836" stop-color="#132D6D"/>
<stop offset="0.9993" stop-color="#122764"/>
</linearGradient>
<linearGradient id="paint55_linear" x1="30.264" y1="93.0033" x2="63.1006" y2="106.965" gradientUnits="userSpaceOnUse">
<stop offset="0.1011" stop-color="#228DF5"/>
<stop offset="0.1702" stop-color="#2083E6"/>
<stop offset="0.4512" stop-color="#1A5BAF"/>
<stop offset="0.693" stop-color="#163F86"/>
<stop offset="0.8836" stop-color="#132D6D"/>
<stop offset="0.9993" stop-color="#122764"/>
</linearGradient>
<linearGradient id="paint56_linear" x1="233.584" y1="164.882" x2="181.807" y2="132.438" gradientUnits="userSpaceOnUse">
<stop offset="0.0104" stop-color="#A5E0F4"/>
<stop offset="1" stop-color="#77BCDD"/>
</linearGradient>
<linearGradient id="paint57_linear" x1="154.249" y1="143.605" x2="122.589" y2="123.767" gradientUnits="userSpaceOnUse">
<stop offset="0.0104" stop-color="#A5E0F4"/>
<stop offset="1" stop-color="#77BCDD"/>
</linearGradient>
<linearGradient id="paint58_linear" x1="233.464" y1="163.772" x2="181.687" y2="131.328" gradientUnits="userSpaceOnUse">
<stop stop-color="#ADE3FA"/>
<stop offset="0.9997" stop-color="#CFF1FF"/>
</linearGradient>
<linearGradient id="paint59_linear" x1="154.129" y1="142.495" x2="122.47" y2="122.656" gradientUnits="userSpaceOnUse">
<stop stop-color="#ADE3FA"/>
<stop offset="0.9997" stop-color="#CFF1FF"/>
</linearGradient>
<linearGradient id="paint60_linear" x1="145.248" y1="87.9251" x2="131.072" y2="79.0422" gradientUnits="userSpaceOnUse">
<stop offset="0.0104" stop-color="#A5E0F4"/>
<stop offset="1" stop-color="#77BCDD"/>
</linearGradient>
<linearGradient id="paint61_linear" x1="130.057" y1="89.5632" x2="115.881" y2="80.6804" gradientUnits="userSpaceOnUse">
<stop offset="0.0104" stop-color="#A5E0F4"/>
<stop offset="1" stop-color="#77BCDD"/>
</linearGradient>
<linearGradient id="paint62_linear" x1="127.23" y1="77.9016" x2="163.822" y2="95.3776" gradientUnits="userSpaceOnUse">
<stop stop-color="#ADE3FA"/>
<stop offset="0.9997" stop-color="#CFF1FF"/>
</linearGradient>
<linearGradient id="paint63_linear" x1="123.771" y1="85.1432" x2="160.364" y2="102.62" gradientUnits="userSpaceOnUse">
<stop stop-color="#ADE3FA"/>
<stop offset="0.9997" stop-color="#CFF1FF"/>
</linearGradient>
</defs>
</svg>
