<svg width="304" height="185" viewBox="0 0 304 185" fill="none" xmlns="http://www.w3.org/2000/svg">
<path d="M303.502 105.55C303.504 107.059 303.477 108.653 303.425 110.317C303.414 110.628 303.404 110.944 303.391 111.261C303.345 112.512 303.283 113.802 303.206 115.122C303.188 115.422 303.17 115.722 303.151 116.025C303.129 116.389 303.105 116.758 303.079 117.126C302.973 118.681 302.846 120.273 302.7 121.889C302.671 122.217 302.64 122.543 302.608 122.87C302.46 124.436 302.292 126.03 302.104 127.637C302.066 127.965 302.025 128.3 301.984 128.629C301.793 130.207 301.585 131.798 301.357 133.393C301.309 133.728 301.259 134.063 301.21 134.395C301.025 135.654 300.825 136.914 300.618 138.17C300.507 138.833 300.393 139.493 300.278 140.153C299.997 141.752 299.694 143.341 299.375 144.916C299.309 145.245 299.241 145.571 299.173 145.901C298.837 147.508 298.481 149.097 298.105 150.661C298.025 150.992 297.945 151.324 297.862 151.655C297.53 152.989 297.183 154.304 296.823 155.593C296.625 156.3 296.422 156.997 296.217 157.687C295.725 159.325 295.205 160.917 294.661 162.448C294.541 162.782 294.422 163.112 294.302 163.44C293.683 165.108 293.033 166.7 292.35 168.197C292.206 168.516 292.06 168.828 291.91 169.137C291.081 170.872 290.204 172.467 289.278 173.889C288.981 174.349 288.678 174.792 288.37 175.214C286.885 177.259 285.285 178.874 283.565 179.955C283.44 180.035 283.313 180.111 283.186 180.185C283.154 180.203 283.123 180.221 283.091 180.24C282.841 180.382 282.591 180.511 282.337 180.63L268.981 180.658L231.224 180.737L184.36 180.336L166.04 180.179L129.793 179.869L20.3071 178.932C20.3071 178.932 0 161.791 0 132.038C0 131.628 0.00321879 131.219 0.0107316 130.806C0.31017 114.903 3.29812 84.5941 28.9854 68.8596C30.8304 67.7314 32.7934 66.6752 34.8819 65.7047C36.7483 64.8383 38.7145 64.0408 40.787 63.3198C43.4208 62.4029 46.222 61.61 49.2045 60.9563C49.4965 60.8905 49.7916 60.8277 50.0878 60.7665C51.5131 60.4695 52.8783 60.1205 54.1877 59.718C88.7465 49.1313 84.5941 3.36505 130.176 0.176504C134.35 -0.1174 138.941 -0.0515787 144.017 0.429076C151.811 1.16996 158.233 3.87938 163.972 7.06486C170.044 10.4294 175.352 14.3252 180.714 16.9688L181.081 17.1494C186.341 19.6889 191.67 20.9901 197.84 19.3797C198.138 19.3047 198.442 19.2175 198.747 19.1256C205.578 17.056 211.959 15.5314 217.916 14.5028C218.04 14.4829 218.162 14.4599 218.285 14.44C232.606 12.0153 244.485 12.4822 254.36 15.1839C254.483 15.2176 254.607 15.2498 254.728 15.2865C258.994 16.4805 262.881 18.0954 266.43 20.0747C267.42 20.6273 268.383 21.2059 269.32 21.8151C269.348 21.8335 269.378 21.8503 269.406 21.8702C269.562 21.9728 269.718 22.0769 269.873 22.1795C270.022 22.279 270.171 22.38 270.32 22.4795C270.333 22.4887 270.347 22.4994 270.361 22.5086C271.516 23.2984 272.631 24.1312 273.708 25.0037C274.985 26.04 276.209 27.1314 277.377 28.2764C277.71 28.6025 278.04 28.9316 278.364 29.2668C279.836 30.7777 281.221 32.3788 282.526 34.0535C282.785 34.3826 283.037 34.7163 283.288 35.0515C284.436 36.5868 285.52 38.1819 286.545 39.8351C286.807 40.2576 287.064 40.6831 287.319 41.1117C288.237 42.6608 289.105 44.2544 289.925 45.8907C290.092 46.2214 290.255 46.5551 290.417 46.8888C291.175 48.4455 291.889 50.0406 292.568 51.6662C292.715 52.0183 292.86 52.375 293.003 52.7301C293.621 54.2578 294.203 55.81 294.755 57.3866C294.96 57.976 295.162 58.5638 295.359 59.1592C295.703 60.1879 296.032 61.2273 296.349 62.2743C296.615 63.1499 296.873 64.0301 297.123 64.9148C297.566 66.4915 297.985 68.082 298.379 69.6877C298.461 70.0183 298.542 70.3521 298.621 70.6827C298.887 71.794 299.144 72.9115 299.388 74.035C299.491 74.5065 299.592 74.981 299.692 75.4556C299.762 75.7862 299.831 76.126 299.901 76.4597C299.96 76.7506 300.017 77.0414 300.076 77.3307C300.307 78.4972 300.53 79.6697 300.743 80.8453C300.766 80.9724 300.789 81.101 300.812 81.2311C300.871 81.5617 300.929 81.8939 300.988 82.2245C301.263 83.8088 301.524 85.3993 301.768 86.9943C301.818 87.3219 301.866 87.651 301.917 87.9786C302.153 89.5675 302.375 91.158 302.583 92.7499C302.627 93.0806 302.67 93.4127 302.713 93.7434C302.839 94.7231 302.959 95.6997 303.075 96.6748C303.123 97.0789 303.167 97.5044 303.207 97.9468C303.223 98.1305 303.239 98.3203 303.254 98.5132C303.287 98.9234 303.317 99.3505 303.343 99.7883C303.431 101.238 303.483 102.836 303.499 104.555C303.5 104.884 303.502 105.216 303.502 105.55Z" fill="#EBF3FA"/>
<path d="M302.65 98.5705V115.698C302.631 115.997 302.614 116.296 302.595 116.599C302.572 116.962 302.549 117.33 302.523 117.696C302.417 119.247 302.291 120.835 302.145 122.447C302.116 122.774 302.085 123.099 302.053 123.426C301.905 124.987 301.738 126.577 301.549 128.18C301.512 128.506 301.471 128.841 301.43 129.169C301.24 130.743 301.032 132.329 300.804 133.92C300.757 134.254 300.706 134.589 300.657 134.92C300.473 136.175 300.273 137.431 300.067 138.684C299.955 139.346 299.842 140.003 299.727 140.661C299.446 142.257 299.144 143.841 298.826 145.412C298.76 145.741 298.692 146.066 298.624 146.394C298.288 147.997 297.934 149.582 297.558 151.142C297.479 151.472 297.398 151.803 297.316 152.133C296.985 153.464 296.638 154.775 296.279 156.061C296.08 156.766 295.878 157.461 295.673 158.149C295.183 159.783 294.663 161.37 294.12 162.897C294.001 163.23 293.882 163.56 293.762 163.886C293.144 165.55 292.496 167.138 291.814 168.631C291.67 168.949 291.524 169.26 291.374 169.568C290.547 171.298 289.672 172.889 288.747 174.307C288.451 174.767 288.149 175.208 287.841 175.629C286.359 177.669 284.761 179.279 283.045 180.357C282.92 180.437 282.793 180.513 282.667 180.586C282.635 180.604 282.604 180.623 282.572 180.641L184.022 180.737L165.736 180.58L129.555 180.272L20.2698 179.337C20.2698 179.337 0 162.242 0 132.569C0 132.16 0.00321288 131.752 0.0107119 131.34C0.309601 115.48 3.29207 85.2521 28.9323 69.5598V83.84H34.8179V66.4119C36.6809 65.5478 38.6435 64.7524 40.7122 64.0334C43.3411 63.1189 46.1372 62.3281 49.1143 61.6762C49.4057 61.6106 49.7003 61.548 49.9959 61.4869C51.4186 61.1908 52.7813 60.8427 54.0883 60.4412V81.6538H60.5931V76.6984L68.2657 76.7426V68.7125H69.8105V67.1233H70.014V68.7125H75.9372V68.7141H77.1231V67.1233H77.3266V68.7141H78.7558V84.6827H87.8895V90.5587H92.9653V87.1452H97.6736V73.5962H100.021V67.276H100.376V73.5962H106.005V61.7511H106.557V73.5962H110.279V73.4329H110.273V71.9292H110.279V70.5048H110.273V68.1385H110.279V66.6241H110.273V64.2578H110.279V62.7449H110.273V60.3771H110.279V58.7436H110.273V56.3819H110.279V54.3026H110.273V51.9348H110.279V50.3654H111.388V48.5945H111.566V50.3654H119.784V48.5945H119.961V50.3654H121.46V62.7495L122.517 62.7586V62.7495H122.508V60.3817H122.517V58.7482H122.508V56.3819H122.517V54.7545H122.508V52.3867H122.517V52.379H132.482V52.3867H134.195C134.284 52.4508 134.372 52.5118 134.461 52.576V66.0913H141.745V83.8385H147.63V51.0173H148.911V48.7212H149.14V51.0173H153.788V48.7212H154.018V51.0173H160.599V48.7212H160.829V51.0173H164.97V48.7212H165.199V51.0173H166.901V81.6538H173.405V76.6984L181.078 76.7426V68.7125H182.622V67.1233H182.826V68.7125H188.749V68.7141H189.933V67.1233H190.138V68.7141H191.567V84.6827H200.702V90.5587H205.777V87.1452H210.486V73.5962H212.833V67.276H213.188V73.5962H218.817V61.7511H219.369V73.5962H223.091V73.4329H223.085V71.9292H223.091V70.5048H223.085V68.1385H223.091V66.6241H223.085V64.2578H223.091V62.7449H223.085V60.3771H223.091V58.7436H223.085V56.3819H223.091V54.3026H223.085V51.9348H223.091V50.3654H224.201V48.5945H224.378V50.3654H232.595V48.5945H232.773V50.3654H234.272V62.7495L235.314 62.7586H235.329V62.7495H235.32V60.3817H235.329V58.7482H235.32V56.3819H235.329V54.7545H235.32V52.3867H235.329V52.379H245.294V52.3867H247.006C247.095 52.4508 247.183 52.5118 247.273 52.576V66.0913H259.5V83.84H265.386V51.0173H266.666V48.7212H266.896V51.0173H271.544V48.7212H271.773V51.0173H278.355V48.7212H278.584V51.0173H284.656V81.6554H291.161V76.6984L298.834 76.7426V74.7198C298.937 75.1901 299.037 75.6633 299.137 76.1366C299.206 76.4663 299.276 76.8052 299.346 77.138C299.405 77.4281 299.461 77.7182 299.52 78.0067C299.751 79.17 299.974 80.3394 300.186 81.5119C300.209 81.6386 300.232 81.7668 300.255 81.8966C300.314 82.2263 300.372 82.5576 300.431 82.8874C300.705 84.4674 300.966 86.0536 301.209 87.6444C301.259 87.9711 301.307 88.2993 301.358 88.626C301.593 90.2107 301.815 91.7968 302.023 93.3845C302.067 93.7143 302.11 94.0456 302.153 94.3753C302.278 95.3524 302.398 96.3264 302.514 97.2988C302.565 97.7049 302.609 98.1293 302.65 98.5705Z" fill="#D5E5FB"/>
<path d="M167.068 50.3574H152.351V55.5744H167.068V50.3574Z" fill="#E2EEFD"/>
<path d="M167.068 58.387H152.351V63.6039H167.068V58.387Z" fill="#E2EEFD"/>
<path d="M167.068 66.5835H152.351V71.8005H167.068V66.5835Z" fill="#E2EEFD"/>
<path d="M167.068 74.9102H152.351V80.1271H167.068V74.9102Z" fill="#E2EEFD"/>
<path d="M167.068 82.946H152.351V88.163H167.068V82.946Z" fill="#E2EEFD"/>
<path d="M230.199 49.7043H223.332V52.8725H230.199V49.7043Z" fill="#E2EEFD"/>
<path d="M230.198 54.5808H223.331V57.749H230.198V54.5808Z" fill="#E2EEFD"/>
<path d="M230.198 59.5581H223.331V62.7263H230.198V59.5581Z" fill="#E2EEFD"/>
<path d="M230.198 64.616H223.331V67.7842H230.198V64.616Z" fill="#E2EEFD"/>
<path d="M230.198 69.4951H223.331V72.6633H230.198V69.4951Z" fill="#E2EEFD"/>
<path d="M230.199 74.866H223.332V78.0342H230.199V74.866Z" fill="#E2EEFD"/>
<path d="M230.198 79.7424H223.331V82.9106H230.198V79.7424Z" fill="#E2EEFD"/>
<path d="M230.198 84.72H223.331V87.8882H230.198V84.72Z" fill="#E2EEFD"/>
<path d="M230.198 89.7776H223.331V92.9458H230.198V89.7776Z" fill="#E2EEFD"/>
<path d="M230.198 94.6572H223.331V97.8254H230.198V94.6572Z" fill="#E2EEFD"/>
<path d="M242.905 51.7817H235.546V54.9499H242.905V51.7817Z" fill="#E2EEFD"/>
<path d="M242.904 56.657H235.545V59.8252H242.904V56.657Z" fill="#E2EEFD"/>
<path d="M242.904 61.6365H235.545V64.8047H242.904V61.6365Z" fill="#E2EEFD"/>
<path d="M242.904 66.6936H235.545V69.8618H242.904V66.6936Z" fill="#E2EEFD"/>
<path d="M242.904 71.5732H235.545V74.7414H242.904V71.5732Z" fill="#E2EEFD"/>
<path d="M242.905 76.6602H235.546V79.8284H242.905V76.6602Z" fill="#E2EEFD"/>
<path d="M242.904 81.5369H235.545V84.7051H242.904V81.5369Z" fill="#E2EEFD"/>
<path d="M242.904 86.5144H235.545V89.6826H242.904V86.5144Z" fill="#E2EEFD"/>
<path d="M242.904 91.572H235.545V94.7402H242.904V91.572Z" fill="#E2EEFD"/>
<path d="M242.904 96.4517H235.545V99.6199H242.904V96.4517Z" fill="#E2EEFD"/>
<path d="M242.905 102.049H235.546V105.217H242.905V102.049Z" fill="#E2EEFD"/>
<path d="M242.904 106.926H235.545V110.094H242.904V106.926Z" fill="#E2EEFD"/>
<path d="M242.904 111.903H235.545V115.071H242.904V111.903Z" fill="#E2EEFD"/>
<path d="M242.904 116.961H235.545V120.129H242.904V116.961Z" fill="#E2EEFD"/>
<path d="M242.904 121.84H235.545V125.008H242.904V121.84Z" fill="#E2EEFD"/>
<path d="M284.936 50.3574H271.537V55.5744H284.936V50.3574Z" fill="#E2EEFD"/>
<path d="M284.936 58.387H271.537V63.6039H284.936V58.387Z" fill="#E2EEFD"/>
<path d="M284.936 66.5835H271.537V71.8005H284.936V66.5835Z" fill="#E2EEFD"/>
<path d="M284.936 74.9102H271.537V80.1271H284.936V74.9102Z" fill="#E2EEFD"/>
<path d="M284.936 82.946H271.537V88.163H284.936V82.946Z" fill="#E2EEFD"/>
<path d="M117.678 49.7043H110.319V52.8725H117.678V49.7043Z" fill="#E2EEFD"/>
<path d="M117.677 54.5808H110.318V57.749H117.677V54.5808Z" fill="#E2EEFD"/>
<path d="M117.677 59.5588H110.318V62.727H117.677V59.5588Z" fill="#E2EEFD"/>
<path d="M117.677 64.6162H110.318V67.7844H117.677V64.6162Z" fill="#E2EEFD"/>
<path d="M117.677 69.4956H110.318V72.6638H117.677V69.4956Z" fill="#E2EEFD"/>
<path d="M117.678 74.866H110.318V78.0342H117.678V74.866Z" fill="#E2EEFD"/>
<path d="M117.677 79.7424H110.317V82.9106H117.677V79.7424Z" fill="#E2EEFD"/>
<path d="M117.677 84.72H110.317V87.8882H117.677V84.72Z" fill="#E2EEFD"/>
<path d="M117.677 89.7776H110.317V92.9458H117.677V89.7776Z" fill="#E2EEFD"/>
<path d="M117.677 94.6572H110.317V97.8254H117.677V94.6572Z" fill="#E2EEFD"/>
<path d="M131.144 51.7822H122.78V54.9504H131.144V51.7822Z" fill="#E2EEFD"/>
<path d="M131.144 56.6572H122.78V59.8254H131.144V56.6572Z" fill="#E2EEFD"/>
<path d="M131.144 61.6367H122.78V64.8049H131.144V61.6367Z" fill="#E2EEFD"/>
<path d="M131.144 66.6941H122.78V69.8623H131.144V66.6941Z" fill="#E2EEFD"/>
<path d="M131.144 71.5737H122.78V74.7419H131.144V71.5737Z" fill="#E2EEFD"/>
<path d="M131.144 76.6602H122.78V79.8284H131.144V76.6602Z" fill="#E2EEFD"/>
<path d="M131.144 81.5369H122.78V84.7051H131.144V81.5369Z" fill="#E2EEFD"/>
<path d="M131.144 86.5144H122.78V89.6826H131.144V86.5144Z" fill="#E2EEFD"/>
<path d="M131.144 91.572H122.78V94.7402H131.144V91.572Z" fill="#E2EEFD"/>
<path d="M131.144 96.4517H122.78V99.6199H131.144V96.4517Z" fill="#E2EEFD"/>
<path d="M131.144 102.049H122.78V105.217H131.144V102.049Z" fill="#E2EEFD"/>
<path d="M131.144 106.926H122.78V110.094H131.144V106.926Z" fill="#E2EEFD"/>
<path d="M131.144 111.903H122.78V115.071H131.144V111.903Z" fill="#E2EEFD"/>
<path d="M131.144 116.961H122.78V120.129H131.144V116.961Z" fill="#E2EEFD"/>
<path d="M131.144 121.84H122.78V125.008H131.144V121.84Z" fill="#E2EEFD"/>
<path d="M60.5298 29.3524C60.5298 29.3524 63.697 24.1224 71.2692 24.7033C71.2692 24.7033 82.264 15.9875 93.9872 23.5414C93.9872 23.5414 106.45 21.6694 115.679 25.1622C121.833 27.4903 123.865 29.9334 123.865 29.9334L60.5298 29.3524Z" fill="#F8FCFF"/>
<path d="M119.355 46.969C119.355 46.969 121.407 43.4116 126.314 43.8074C126.314 43.8074 133.437 37.8785 141.034 43.0173C141.034 43.0173 149.109 41.7445 155.09 44.1203C159.077 45.7046 160.394 47.3661 160.394 47.3661L119.355 46.969Z" fill="#F8FCFF"/>
<path d="M185.853 32.3118C185.853 32.3118 187.72 28.8513 192.19 29.2358C192.19 29.2358 198.677 23.4683 205.594 28.4668C205.594 28.4668 212.947 27.2277 218.394 29.5389C222.024 31.0797 223.224 32.6963 223.224 32.6963L185.853 32.3118Z" fill="#F8FCFF"/>
<path d="M52.7825 75.8176H50.5391V177.975H52.7825V75.8176Z" fill="#AEC3FF"/>
<path d="M54.8423 179.639C54.8423 179.639 54.0025 180.382 51.6616 180.382C49.4614 180.382 48.481 179.639 48.481 179.639V155.64C48.481 153.982 49.8259 152.637 51.4844 152.637H51.6904C53.432 152.637 54.8434 154.048 54.8434 155.79V179.639H54.8423Z" fill="#9DB0F4"/>
<path d="M55.5208 97.8398H47.8023C46.9492 97.8398 46.2568 97.1474 46.2568 96.2943V67.6905C46.2568 66.8374 46.9481 66.145 47.8023 66.145H55.5208C56.3738 66.145 57.0662 66.8363 57.0662 67.6905V96.2943C57.0662 97.1474 56.3749 97.8398 55.5208 97.8398Z" fill="#AEC3FF"/>
<path d="M52.6889 85.7425C54.9151 85.2027 56.2823 82.9605 55.7426 80.7344C55.2029 78.5082 52.9607 77.141 50.7345 77.6807C48.5083 78.2204 47.1411 80.4626 47.6808 82.6888C48.2206 84.915 50.4627 86.2822 52.6889 85.7425Z" fill="#9DB0F4"/>
<path d="M55.8065 91.8139C56.2021 89.5574 54.6936 87.4075 52.4372 87.0119C50.1808 86.6163 48.0309 88.1248 47.6353 90.3812C47.2397 92.6376 48.7481 94.7875 51.0046 95.1831C53.261 95.5787 55.4109 94.0703 55.8065 91.8139Z" fill="#9DB0F4"/>
<path d="M55.8066 72.8899C56.1789 70.6296 54.6483 68.4955 52.388 68.1232C50.1277 67.751 47.9935 69.2815 47.6213 71.5419C47.249 73.8022 48.7796 75.9363 51.0399 76.3085C53.3002 76.6808 55.4344 75.1502 55.8066 72.8899Z" fill="#F99746"/>
<path d="M91.936 169.427H210.079L249.979 165.834C249.979 165.834 242.839 148.044 240.893 147.777C238.947 147.511 95.6786 147.777 95.6786 147.777L91.936 169.427Z" fill="#1D2949"/>
<path d="M267.026 167.675C264.086 168.878 246.313 169.146 246.313 169.146C246.313 169.146 246.715 147.364 228.407 149.902C210.101 152.441 213.301 170.519 213.301 170.519L125.288 172.091C125.288 172.091 126.717 149.129 107.285 151.544C91.1397 153.551 95.2879 172.004 95.2879 172.004C86.9579 172.434 82.4926 171.178 80.1253 169.867C80.1239 169.867 80.1239 169.865 80.1239 169.865C78.3501 167.365 79.3843 165.903 79.4868 165.644C79.5878 165.388 79.23 161.131 79.1795 160.517C79.15 160.17 79.8993 159.289 80.5617 158.583C81.1076 158.001 81.1441 157.107 80.6417 156.486L79.7618 155.4C78.7571 154.161 78.5283 152.466 79.1668 151.004L80.9153 146.999C80.9153 146.999 80.9153 146.999 80.9167 146.997C86.6197 137.2 131.34 134.525 131.34 134.525C138.132 130.621 143.763 127.719 148.168 125.611C155.195 122.249 163.206 118.971 170.959 118.205C191.95 116.129 209.21 118.48 213.441 119.166C218.385 119.967 243.24 130.792 245.112 131.727C246.981 132.663 262.239 133.93 264.2 134.168C266.16 134.406 266.101 136.366 266.101 136.366L266.371 138.105L267.395 144.727L267.645 146.343C269.071 147.056 269.072 149.097 269.072 149.097C269.072 149.097 269.964 166.472 267.026 167.675Z" fill="#739AF0"/>
<path d="M119.466 175.417C124.759 170.124 124.759 161.543 119.466 156.25C114.174 150.957 105.592 150.957 100.3 156.25C95.0069 161.543 95.0069 170.124 100.3 175.417C105.592 180.709 114.174 180.709 119.466 175.417Z" fill="#2C3A64"/>
<path d="M109.887 176.432C104.042 176.432 99.2876 171.677 99.2876 165.833C99.2876 159.988 104.042 155.234 109.887 155.234C115.731 155.234 120.486 159.988 120.486 165.833C120.486 171.677 115.731 176.432 109.887 176.432ZM109.887 156.215C104.582 156.215 100.267 160.53 100.267 165.834C100.267 171.139 104.582 175.454 109.887 175.454C115.191 175.454 119.506 171.139 119.506 165.834C119.506 160.53 115.191 156.215 109.887 156.215Z" fill="#AFCDFB"/>
<path d="M111.696 175.952H107.899L109.119 165.544L107.725 155.658L112.065 155.926L110.619 165.544L111.696 175.952Z" fill="#AFCDFB"/>
<path d="M102.008 172.439L100.109 169.15L109.733 165.003L117.598 158.854L119.536 162.746L110.482 166.301L102.008 172.439Z" fill="#AFCDFB"/>
<path d="M100.486 161.91L102.573 158.737L110.6 165.474L119.624 169.741L117.017 173.22L109.775 166.727L100.486 161.91Z" fill="#AFCDFB"/>
<path d="M106.33 165.814C106.33 163.861 107.912 162.278 109.866 162.278C111.819 162.278 113.402 163.861 113.402 165.814C113.402 167.767 111.819 169.35 109.866 169.35C107.914 169.35 106.33 167.767 106.33 165.814Z" fill="#AFCDFB"/>
<path d="M243.261 168.976C244.981 161.692 240.47 154.392 233.185 152.672C225.901 150.952 218.601 155.463 216.881 162.747C215.161 170.032 219.672 177.332 226.956 179.052C234.241 180.772 241.541 176.261 243.261 168.976Z" fill="#2C3A64"/>
<path d="M230.061 176.432C224.216 176.432 219.462 171.677 219.462 165.832C219.462 159.988 224.216 155.233 230.061 155.233C235.906 155.233 240.66 159.988 240.66 165.832C240.66 171.677 235.906 176.432 230.061 176.432ZM230.061 156.214C224.757 156.214 220.441 160.529 220.441 165.834C220.441 171.138 224.757 175.453 230.061 175.453C235.365 175.453 239.681 171.138 239.681 165.834C239.681 160.529 235.365 156.214 230.061 156.214Z" fill="#AFCDFB"/>
<path d="M231.871 175.953H228.074L229.293 165.545L227.9 155.659L232.24 155.927L230.794 165.545L231.871 175.953Z" fill="#AFCDFB"/>
<path d="M222.183 172.439L220.285 169.15L229.908 165.003L237.774 158.854L239.711 162.747L230.658 166.301L222.183 172.439Z" fill="#AFCDFB"/>
<path d="M220.661 161.91L222.748 158.738L230.775 165.475L239.799 169.742L237.192 173.221L229.95 166.728L220.661 161.91Z" fill="#AFCDFB"/>
<path d="M226.505 165.814C226.505 163.861 228.088 162.278 230.042 162.278C231.995 162.278 233.578 163.861 233.578 165.814C233.578 167.768 231.995 169.35 230.042 169.35C228.088 169.35 226.505 167.768 226.505 165.814Z" fill="#AFCDFB"/>
<path d="M96.7958 148.253L93.3171 152.024C92.8175 152.566 92.1144 152.873 91.3777 152.873H80.707C80.0784 152.873 79.6812 152.196 79.9872 151.646L80.2917 151.102C80.6691 150.428 81.1336 149.821 81.6683 149.293C81.6697 149.292 81.6711 149.292 81.6711 149.292C83.1656 147.817 85.2004 146.957 87.3615 146.957H96.2275C96.9025 146.957 97.2533 147.758 96.7958 148.253Z" fill="#AFCDFB"/>
<path d="M85.4612 165.832H82.4357C81.4338 165.832 80.5118 166.374 80.0235 167.248L79.9196 167.433C79.8144 167.621 79.9505 167.852 80.1652 167.852H83.8067C84.0579 167.852 84.2979 167.746 84.4691 167.561L85.6563 166.274C85.8107 166.106 85.6914 165.832 85.4612 165.832Z" fill="#1D2949"/>
<path d="M232.006 133.245L186.766 134.32C185.879 134.341 185.149 133.628 185.149 132.741V122.318C185.149 121.497 185.82 120.836 186.641 120.848C205.933 121.116 212.544 121.654 216.51 123.022C220.007 124.229 228.185 129.19 232.412 131.707C233.123 132.131 232.837 133.225 232.006 133.245Z" fill="#AFCDFB"/>
<path d="M181.211 120.78C181.945 120.788 182.663 120.797 183.366 120.805V134.4L139.721 135.436C139.153 135.45 138.917 134.713 139.389 134.394C144.488 130.958 161.569 120.557 181.211 120.78Z" fill="#AFCDFB"/>
<path d="M231.852 133.248L231.828 133.249V131.359C231.982 131.452 232.133 131.54 232.279 131.627C233.031 132.075 232.728 133.228 231.852 133.248Z" fill="#AFCDFB"/>
<path d="M185.149 134.948L179.804 134.525L180.16 119.985H185.149V134.948Z" fill="#739AF0"/>
<path d="M219.003 134.948H216.508V121.892L219.003 123.389V134.948Z" fill="#739AF0"/>
<path d="M145.168 130.866L146.498 135.274L139.218 135.447C138.792 135.456 138.61 134.912 138.954 134.665C140.599 133.483 143.645 131.377 145.168 130.866Z" fill="#2C3A64"/>
<path d="M138.902 135.812C138.605 135.812 138.345 135.624 138.251 135.34C138.156 135.051 138.261 134.74 138.511 134.566L138.662 134.461C138.819 134.351 138.996 134.23 139.19 134.1C139.35 133.992 139.521 133.878 139.704 133.758L139.979 133.577C140.188 133.439 140.409 133.297 140.644 133.147C140.811 133.04 140.983 132.931 141.163 132.817L141.192 132.799C141.218 132.784 141.244 132.767 141.27 132.751C141.421 132.657 141.58 132.558 141.744 132.457L141.78 132.434C141.834 132.401 141.89 132.367 141.945 132.333C142.026 132.283 142.112 132.231 142.197 132.179C142.318 132.106 142.439 132.033 142.563 131.959C142.913 131.748 143.289 131.526 143.68 131.3C143.801 131.23 143.925 131.159 144.05 131.087C144.297 130.945 144.551 130.801 144.81 130.656L144.994 130.554C145.52 130.262 146.052 129.971 146.578 129.692L146.751 129.601C146.831 129.559 146.911 129.517 146.991 129.473C147.991 128.948 149.02 128.435 150.049 127.944L150.369 127.792C150.69 127.641 151.015 127.489 151.347 127.337C151.456 127.287 151.568 127.236 151.681 127.186C151.901 127.085 152.126 126.985 152.353 126.884L152.694 126.734C153.033 126.584 153.395 126.428 153.801 126.258C154.01 126.171 154.222 126.083 154.433 125.996C155.86 125.408 157.313 124.855 158.755 124.353L159.07 124.243C159.19 124.203 159.309 124.162 159.428 124.121L159.877 123.971C159.999 123.93 160.12 123.891 160.242 123.852L160.256 123.847C160.382 123.805 160.51 123.765 160.639 123.724C160.871 123.65 161.104 123.575 161.338 123.504C161.497 123.453 161.659 123.404 161.821 123.355C162.068 123.281 162.316 123.206 162.565 123.133L162.979 123.014C163.24 122.94 163.501 122.867 163.764 122.795C164.285 122.652 164.817 122.513 165.342 122.381L165.373 122.373C165.419 122.361 165.465 122.349 165.513 122.338C165.736 122.281 165.965 122.227 166.195 122.172C166.33 122.14 166.469 122.107 166.607 122.075L166.711 122.051C166.814 122.027 166.918 122.004 167.02 121.981C167.158 121.95 167.295 121.919 167.434 121.888C167.573 121.858 167.712 121.828 167.851 121.799C167.991 121.769 168.131 121.74 168.27 121.712C168.408 121.682 168.55 121.654 168.691 121.626L168.714 121.622C168.847 121.595 168.98 121.57 169.112 121.545C169.244 121.519 169.378 121.494 169.511 121.469C169.661 121.441 169.811 121.414 169.961 121.387C170.057 121.371 170.154 121.352 170.25 121.336L170.387 121.312C170.671 121.263 170.955 121.215 171.24 121.171C171.382 121.149 171.526 121.126 171.669 121.104L171.692 121.101C171.944 121.063 172.197 121.027 172.449 120.992C172.921 120.927 173.394 120.867 173.858 120.812L173.889 120.808C174.02 120.793 174.149 120.778 174.279 120.764C174.369 120.755 174.466 120.743 174.56 120.735C174.653 120.724 174.754 120.714 174.855 120.704C174.961 120.693 175.072 120.682 175.184 120.672C175.33 120.658 175.479 120.644 175.628 120.631C175.768 120.618 175.911 120.607 176.054 120.596C176.168 120.586 176.276 120.578 176.386 120.571L177.019 120.527C177.143 120.519 177.268 120.512 177.393 120.505L177.448 120.502C177.584 120.494 177.726 120.487 177.865 120.481C177.976 120.475 178.088 120.47 178.2 120.466H178.211C178.312 120.461 178.412 120.457 178.512 120.453L178.76 120.444C178.858 120.442 178.958 120.439 179.056 120.436C179.446 120.423 179.808 120.568 180.086 120.839C180.363 121.108 180.516 121.469 180.516 121.856V133.123C180.516 134.059 179.754 134.839 178.818 134.862L138.919 135.809C138.913 135.812 138.908 135.812 138.902 135.812ZM145.491 131.095L145.244 131.233C144.956 131.393 144.677 131.552 144.405 131.707C144.28 131.779 144.158 131.849 144.038 131.919C143.65 132.144 143.278 132.363 142.93 132.572C142.805 132.646 142.684 132.719 142.566 132.791C142.482 132.841 142.398 132.893 142.315 132.944C142.259 132.977 142.207 133.01 142.155 133.042L142.117 133.066C141.954 133.165 141.796 133.264 141.643 133.359L141.542 133.422C141.365 133.533 141.192 133.642 141.027 133.749C140.795 133.896 140.576 134.038 140.37 134.173L140.096 134.353C139.915 134.472 139.747 134.584 139.588 134.691C139.398 134.82 139.224 134.938 139.068 135.047L138.995 135.098L146.49 134.919L178.801 134.152C179.354 134.139 179.803 133.679 179.803 133.126V121.859C179.803 121.667 179.727 121.487 179.589 121.352C179.452 121.218 179.269 121.148 179.076 121.152C178.979 121.155 178.881 121.157 178.784 121.16L178.536 121.169C178.437 121.171 178.34 121.176 178.242 121.18H178.231C178.12 121.184 178.009 121.19 177.9 121.195C177.762 121.201 177.625 121.208 177.489 121.216L177.434 121.219C177.312 121.226 177.19 121.233 177.066 121.242L176.438 121.284C176.331 121.292 176.224 121.3 176.116 121.309C175.969 121.32 175.829 121.331 175.69 121.344C175.542 121.357 175.396 121.369 175.25 121.383C175.14 121.393 175.033 121.403 174.925 121.416C174.825 121.425 174.73 121.434 174.637 121.445C174.539 121.455 174.448 121.465 174.356 121.475C174.225 121.489 174.098 121.503 173.971 121.518L173.941 121.521C173.484 121.574 173.015 121.633 172.549 121.698C172.299 121.733 172.049 121.768 171.801 121.806L171.78 121.808C171.638 121.831 171.495 121.852 171.353 121.874C171.07 121.919 170.789 121.966 170.51 122.013L170.374 122.037C170.279 122.054 170.185 122.071 170.089 122.088C169.939 122.114 169.79 122.141 169.643 122.169C169.511 122.194 169.38 122.218 169.249 122.245C169.115 122.27 168.985 122.297 168.853 122.322L168.83 122.326C168.691 122.353 168.554 122.381 168.418 122.41C168.277 122.44 168.139 122.468 168.001 122.497C167.863 122.527 167.727 122.556 167.59 122.586C167.452 122.615 167.316 122.646 167.179 122.677C167.076 122.7 166.975 122.723 166.874 122.746L166.769 122.77C166.633 122.801 166.498 122.833 166.363 122.865C166.135 122.918 165.909 122.973 165.686 123.029C165.639 123.041 165.596 123.052 165.554 123.063L165.52 123.071C164.999 123.202 164.473 123.339 163.957 123.481C163.696 123.553 163.436 123.624 163.179 123.699L162.768 123.817C162.523 123.888 162.277 123.963 162.031 124.036C161.871 124.083 161.713 124.132 161.554 124.181C161.321 124.254 161.09 124.327 160.86 124.4C160.733 124.44 160.608 124.48 160.484 124.522L160.468 124.528C160.347 124.567 160.228 124.607 160.107 124.646L159.66 124.796C159.542 124.835 159.424 124.876 159.308 124.915L158.993 125.025C157.563 125.523 156.122 126.07 154.708 126.654C154.497 126.741 154.288 126.828 154.08 126.915C153.68 127.083 153.321 127.238 152.984 127.387L152.645 127.537C152.42 127.636 152.197 127.735 151.978 127.836C151.866 127.886 151.756 127.935 151.648 127.986C151.319 128.136 150.996 128.286 150.677 128.438L150.359 128.589C149.34 129.076 148.32 129.586 147.328 130.105C147.248 130.147 147.168 130.19 147.086 130.232L146.915 130.322C146.442 130.575 145.964 130.833 145.491 131.095Z" fill="#1D2949"/>
<path d="M219.748 133.907C219.482 133.907 219.229 133.802 219.033 133.611C218.814 133.398 218.688 133.093 218.688 132.776V125.169C218.688 124.737 218.752 124.184 219.101 123.965C219.419 123.767 219.952 123.912 220.287 124.076C220.659 124.258 220.919 124.39 221.059 124.466C221.074 124.473 221.094 124.484 221.115 124.495L221.267 124.578C223.163 125.614 225.861 127.243 229.289 129.422C229.435 129.515 229.581 129.608 229.724 129.699C230.07 129.919 230.406 130.135 230.729 130.343L231.932 131.119C232.141 131.254 232.342 131.384 232.532 131.509C232.559 131.526 232.589 131.546 232.618 131.564L232.645 131.581C233.045 131.842 233.223 132.338 233.087 132.818C232.958 133.273 232.586 133.575 232.138 133.586L232.008 133.589L219.775 133.906C219.767 133.907 219.757 133.907 219.748 133.907ZM219.816 124.595C219.713 124.595 219.63 124.634 219.581 124.665C219.417 124.768 219.319 124.956 219.319 125.169V132.776C219.319 132.924 219.375 133.064 219.473 133.159C219.553 133.238 219.654 133.279 219.76 133.276L232.123 132.954C232.375 132.947 232.459 132.717 232.479 132.646C232.525 132.482 232.506 132.243 232.301 132.11L232.274 132.093C232.246 132.075 232.219 132.058 232.191 132.039C231.998 131.913 231.797 131.783 231.589 131.648L230.39 130.873C230.067 130.666 229.73 130.45 229.386 130.231C229.243 130.139 229.099 130.047 228.953 129.956C225.536 127.783 222.848 126.161 220.965 125.131L220.812 125.048C220.797 125.04 220.781 125.031 220.766 125.023C220.63 124.949 220.37 124.818 220.011 124.641C219.939 124.608 219.875 124.595 219.816 124.595Z" fill="#1D2949"/>
<path d="M145.168 130.866L146.498 135.274L139.218 135.447C138.792 135.456 138.61 134.912 138.954 134.665C140.599 133.483 143.645 131.377 145.168 130.866Z" fill="#2C3A64"/>
<path d="M186.725 134.675C186.219 134.675 185.74 134.481 185.375 134.125C184.999 133.757 184.792 133.266 184.792 132.74V122.316C184.792 121.824 184.985 121.362 185.336 121.017C185.687 120.67 186.153 120.486 186.645 120.491C206.558 120.767 212.724 121.219 216.635 122.687L216.867 122.774V133.961L186.774 134.675C186.758 134.675 186.742 134.675 186.725 134.675ZM186.619 121.203C186.324 121.203 186.046 121.317 185.836 121.525C185.622 121.735 185.504 122.017 185.504 122.318V132.741C185.504 133.074 185.635 133.384 185.873 133.616C186.111 133.847 186.428 133.972 186.756 133.962L216.152 133.265V123.27C212.347 121.92 205.821 121.47 186.634 121.203C186.63 121.203 186.624 121.203 186.619 121.203Z" fill="#1D2949"/>
<path d="M267.395 144.731H258.877C257.61 144.731 256.413 144.15 255.628 143.153L252.406 139.06C252.103 138.674 252.377 138.109 252.868 138.109H266.369L267.395 144.731Z" fill="#A9453D"/>
<path d="M182.986 120.674L182.461 166.318L182.817 166.322L183.342 120.678L182.986 120.674Z" fill="#1D2949"/>
<path d="M213.166 165.643L125.11 167.404L125.117 167.761L213.173 165.999L213.166 165.643Z" fill="#1D2949"/>
<path d="M177.763 143.857C177.763 144.339 175.609 144.731 172.952 144.731C170.296 144.731 168.142 144.339 168.142 143.857C168.142 143.374 170.296 142.982 172.952 142.982C175.609 142.982 177.763 143.374 177.763 143.857Z" fill="#2C3A64"/>
<path d="M222.566 143.857C222.566 144.339 220.412 144.731 217.756 144.731C215.099 144.731 212.945 144.339 212.945 143.857C212.945 143.374 215.099 142.982 217.756 142.982C220.412 142.982 222.566 143.374 222.566 143.857Z" fill="#2C3A64"/>
<path d="M209.736 165.842L209.379 165.823C209.625 161.284 210.971 157.46 213.377 154.456C215.303 152.052 217.906 150.168 221.115 148.854C225.997 146.856 230.832 146.804 231.828 146.819V133.247H232.184V147.187L231.999 147.179C231.946 147.176 226.62 146.983 221.24 149.188C218.09 150.479 215.537 152.329 213.651 154.685C211.296 157.629 209.979 161.383 209.736 165.842Z" fill="#1D2949"/>
<path d="M135.846 167.356C135.709 155.583 136.364 147.438 136.938 142.677C137.561 137.511 138.228 135.097 138.235 135.073L138.578 135.169C138.552 135.263 135.94 144.876 136.204 167.351L135.846 167.356Z" fill="#1D2949"/>
<path d="M186.64 120.669H179.67V121.025H186.64V120.669Z" fill="#1D2949"/>
<path d="M86.9222 152.874H80.707C80.0784 152.874 79.6812 152.198 79.9872 151.648L80.2917 151.103C80.6691 150.43 81.1336 149.822 81.6683 149.295C81.6697 149.293 81.6711 149.293 81.6711 149.293L85.4333 149.916L83.9472 151.544L85.7238 151.902L86.9222 152.874Z" fill="#2C3A64"/>
<path d="M84.922 142.824C84.7775 142.824 84.6357 142.756 84.5459 142.63C84.3986 142.422 84.4463 142.135 84.654 141.986C84.6834 141.965 85.4132 141.447 87.7595 140.019C90.2208 138.52 92.57 138.21 94.1234 138.106C95.0791 138.041 96.0221 136.658 96.5848 135.83C96.7911 135.527 96.9538 135.288 97.097 135.134C97.3201 134.892 97.5517 134.643 114.571 134.317C122.888 134.158 133.157 134.064 131.333 134.064C131.332 134.064 133.232 134.064 133.233 134.064C133.486 134.064 133.496 134.668 133.541 134.918C134.103 137.988 130.769 136.46 130.515 136.463C117.811 136.602 99.4335 135.465 97.7088 135.837C97.6134 135.959 97.4829 136.15 97.3468 136.349C96.6465 137.378 95.5884 138.932 94.1823 139.027C92.7257 139.123 90.5254 139.414 88.2366 140.806C85.9296 142.209 85.1942 142.731 85.1872 142.737C85.1086 142.796 85.0146 142.824 84.922 142.824Z" fill="#739AF0"/>
<path d="M151.665 137.157H146.011C144.995 137.157 144.165 136.327 144.165 135.311V133.773C144.165 132.757 144.995 131.926 146.011 131.926H151.665C152.681 131.926 153.512 132.757 153.512 133.773V135.311C153.512 136.327 152.681 137.157 151.665 137.157Z" fill="#6390E0"/>
<path d="M81.0801 102.391C81.0801 102.391 81.2014 100.422 81.1868 99.5705C81.1722 98.7189 79.0671 96.272 78.3513 96.272C77.6355 96.272 77.8751 98.526 77.9934 99.2258C78.1132 99.927 77.7553 100.562 78.1526 101.119C78.55 101.676 79.3315 102.854 79.3315 102.854L81.0801 102.391Z" fill="#D9935C"/>
<path d="M68.5172 105.636L71.8975 108.876C72.6937 108.211 73.3248 107.45 73.8273 106.705C73.9062 106.59 73.9807 106.473 74.0537 106.359C74.5051 105.637 74.8367 104.957 75.0748 104.432C75.1143 104.347 75.1508 104.267 75.1844 104.191C75.3714 103.783 73.3087 102.477 72.143 101.651C71.7807 101.383 71.5017 101.173 71.4082 101.044C71.4082 101.044 71.4885 101.591 71.4125 101.963C71.2329 102.837 70.8487 103.372 70.3943 103.871C69.2111 105.167 68.5172 105.636 68.5172 105.636Z" fill="#FFB27D"/>
<path d="M71.073 102.042C71.073 102.042 71.7435 105.604 73.8252 106.707C73.9041 106.591 73.9786 106.474 74.0516 106.36C74.503 105.639 74.8346 104.958 75.0728 104.434C74.8186 103.906 73.0831 102.797 72.0503 102.066C71.4689 102.054 71.073 102.042 71.073 102.042Z" fill="#ED975D"/>
<path d="M75.2147 105.995C75.2147 105.995 70.1559 104.306 71.2559 101.173C72.3559 98.0395 72.4435 95.711 75.7202 96.6561C78.9968 97.6013 79.2013 99.0168 79.0874 100.152C78.9763 101.288 76.5587 106.355 75.2147 105.995Z" fill="#FFB27D"/>
<path d="M70.8675 102.12C70.8675 102.12 71.3817 101.778 70.2496 99.9898C69.6652 99.068 69.1452 98.2003 69.972 96.7015C70.7988 95.2012 70.7462 93.9931 73.0251 93.9931C75.304 93.9931 75.5334 92.9384 76.6947 93.3065C77.8561 93.6746 78.8874 95.3809 79.8808 95.7008C80.8742 96.0207 81.628 101.229 79.3549 101.084C79.3549 101.084 78.5003 100.659 78.1176 99.9708C77.7348 99.2827 75.7963 97.7153 75.1799 98.2266C74.5634 98.7364 72.0917 102.143 70.8675 102.12Z" fill="#233862"/>
<path d="M67.6856 113.761C67.6856 113.761 77.663 118.225 83.7255 119.251C83.7255 119.251 85.6246 119.122 85.6888 116.785C85.7297 115.302 75.7333 108.024 72.0798 108.24C68.4262 108.457 66.4235 112.195 67.6856 113.761Z" fill="#ED823A"/>
<path d="M79.1109 102.676L79.9377 113.945L85.6904 116.783C85.6904 116.783 85.6013 112.575 83.9696 107.917C82.2034 102.876 81.2656 102.052 81.2656 102.052C81.2656 102.052 79.6777 101.694 79.1109 102.676Z" fill="#ED823A"/>
<path d="M69.9906 179.148C70.0359 179.647 70.144 180.068 70.369 180.174C70.4084 180.192 70.4727 180.21 70.5603 180.224H78.1552C78.3582 180.218 78.4736 180.214 78.4736 180.214C78.4736 180.214 78.4546 179.276 77.1633 179.093C76.1202 178.947 74.433 178.449 73.6032 177.368C73.4075 177.113 73.2585 176.823 73.1781 176.498C72.7603 174.802 70.0257 177.086 70.0257 177.086C70.0257 177.086 69.995 177.381 69.976 177.792C69.957 178.191 69.9482 178.701 69.9906 179.148Z" fill="#233862"/>
<path d="M62.8689 180.224H71.3096C71.2161 180.008 70.8713 179.373 69.9904 179.148C69.9057 179.124 69.8151 179.107 69.7202 179.093C68.8101 178.965 67.4106 178.572 66.5181 177.755C66.1441 177.415 65.8578 176.999 65.7351 176.498C65.3173 174.802 62.5826 177.086 62.5826 177.086C62.5826 177.086 62.5534 177.358 62.5329 177.742C62.4876 178.575 62.4774 179.939 62.8689 180.224Z" fill="#233862"/>
<path d="M66.4533 134.272C66.4533 134.272 66.4591 134.579 66.4723 135.13C66.5482 138.683 66.8521 152.416 67.1399 160.072C67.1516 160.351 67.1618 160.62 67.172 160.883C67.1779 161.022 67.1837 161.16 67.1881 161.298C67.3605 164.999 67.863 168.624 68.3699 171.524C69.017 175.221 69.6744 177.738 69.6744 177.738C72.1403 178.238 73.7384 177.3 73.7384 177.3C73.7384 177.3 74.4031 171.562 74.6558 168.089C74.7391 166.963 75.1452 163.118 75.6536 158.44C76.048 154.823 76.5052 150.708 76.9245 146.967C76.9464 146.768 76.9683 146.568 76.9902 146.373C77.6666 140.322 78.2275 135.394 78.2275 135.394L73.867 134.98L66.4533 134.272Z" fill="#2B478B"/>
<path d="M68.3709 171.524L75.656 158.442C76.0504 154.825 76.5077 150.71 76.9269 146.969C76.9488 146.77 76.9708 146.57 76.9927 146.374C77.669 140.323 78.23 135.396 78.23 135.396L73.8694 134.981L66.4718 135.133L68.3709 171.524Z" fill="#233862"/>
<path d="M77.4238 135.427C77.4238 135.427 73.3481 155.576 70.0262 165.299C66.7043 175.024 66.6634 177.725 66.6634 177.725C66.6634 177.725 63.6161 178.385 62.2736 177.618C62.2736 177.618 61.5067 159.184 63.5153 154.288C64.8447 151.049 65.8614 144.157 65.5152 141.675C65.169 139.193 64.8476 134.214 64.8476 134.214L77.4238 135.427Z" fill="#2B478B"/>
<path d="M64.3118 133.691C64.5411 134.924 65.0875 135.905 65.9319 136.504C66.8945 137.187 68.4138 137.432 70.085 137.407C72.0381 137.375 74.1987 136.972 75.9268 136.455C76.8559 136.177 77.6594 135.868 78.2379 135.565C80.8191 134.22 80.4539 132.427 80.3911 125.721C80.3283 118.877 76.1153 110.028 75.3571 108.547C74.0073 105.91 68.2779 106.778 68.2779 106.778C67.0216 107.931 65.9216 109.603 65.1722 112.277C64.8684 113.359 64.6916 114.873 64.5893 116.573C64.2796 121.768 64.6799 128.696 64.3775 130.315C64.1467 131.557 64.1277 132.703 64.3118 133.691Z" fill="#F99746"/>
<path d="M69.0266 104.165C69.0266 104.165 68.0888 106.384 68.2787 106.778C68.2787 106.778 73.4267 107.265 75.5215 108.756C75.5215 108.756 74.832 106.602 73.9949 106.066C73.1564 105.532 69.0266 104.165 69.0266 104.165Z" fill="#ED823A"/>
<path d="M64.3121 133.691C74.9733 129.634 68.886 114.63 68.886 114.63C67.3945 114.735 65.9337 115.46 64.5912 116.574C64.2815 121.769 64.6817 128.698 64.3794 130.316C64.1471 131.557 64.1281 132.703 64.3121 133.691Z" fill="#ED823A"/>
<path d="M69.1857 107.778C69.1857 107.778 60.0467 113.9 56.0806 118.599C56.0806 118.599 56.3216 120.474 57.6028 121.219C58.8839 121.964 70.0315 117.625 71.7027 114.37C73.3739 111.116 71.1768 107.487 69.1857 107.778Z" fill="#F99746"/>
<path d="M67.9152 127.56C67.9152 127.56 68.4995 128.572 69.0619 128.333C69.6243 128.095 70.7579 127.843 71.6023 128.385C72.4452 128.929 73.7176 130.394 72.9229 130.752C72.1282 131.11 70.6177 130.16 70.2612 130.001C69.9033 129.842 69.281 130.16 68.593 129.816C67.9049 129.471 67.1891 128.783 67.1891 128.783L67.9152 127.56Z" fill="#FFB27D"/>
<path d="M68.8327 127.833L61.3357 117.581L56.0811 118.599C56.0811 118.599 56.7823 122.061 60.5921 125.198C64.5188 128.429 66.6852 129.07 66.6852 129.07C66.6852 129.07 69.2885 129.517 68.8327 127.833Z" fill="#F99746"/>
<path d="M122.074 117.407C122.418 118.331 123.013 119.404 123.639 119.67C124.348 119.973 124.644 120.4 124.644 120.4L125.216 120.067L125.9 119.67C125.9 119.67 125.883 119.594 125.85 119.471C125.818 119.347 125.766 119.176 125.697 118.987C125.697 118.987 125.488 118.717 125.616 118.379C125.745 118.041 125.719 117.517 125.5 117.199C125.281 116.88 125.069 116.096 124.937 116.118C124.617 116.173 125.094 117.252 124.958 117.453C124.834 117.634 124.68 117.572 124.651 117.558C124.649 117.557 124.646 117.557 124.645 117.555C123.748 117.161 122.661 115.035 122.179 115.321C121.997 115.428 121.927 117.012 122.074 117.407Z" fill="#FFB27D"/>
<path d="M125.175 118.693L124.051 119.484C123.971 119.54 123.861 119.52 123.805 119.44L120.927 115.345C120.871 115.265 120.891 115.156 120.971 115.1L122.095 114.31C122.175 114.253 122.284 114.273 122.34 114.353L125.218 118.448C125.274 118.527 125.255 118.637 125.175 118.693Z" fill="#2B478B"/>
<path d="M124.146 119.416L123.488 119.879C123.428 119.921 123.344 119.907 123.302 119.847L120.376 115.683C120.334 115.623 120.348 115.539 120.408 115.497L121.066 115.034C121.127 114.992 121.211 115.006 121.253 115.066L124.179 119.23C124.222 119.29 124.208 119.374 124.146 119.416Z" fill="#233862"/>
<path d="M141.293 112.816C141.293 112.816 135.576 122.787 133.502 124.622L125.898 118.953C125.898 118.953 124.795 119.291 124.311 120.4C124.311 120.4 128.929 129.809 133.475 130.207C138.022 130.606 144.404 118.931 144.404 118.931L141.293 112.816Z" fill="#233862"/>
<path d="M154.231 180.635H157.534C157.949 180.409 158.32 179.893 158.438 179.121C158.599 178.057 159.792 177.476 160.05 176.606C160.308 175.736 158.986 174.511 158.986 174.511L158.765 174.226L158.535 173.93L156.343 174.446C156.343 174.446 156.288 174.968 156.256 175.634C156.232 176.113 156.219 176.668 156.246 177.155C156.31 178.315 155.922 179.566 154.89 179.791C154.127 179.958 154.161 180.41 154.231 180.635Z" fill="#233862"/>
<path d="M135.062 180.635H142.615C142.979 180.191 142.846 178.555 142.789 178.022C142.778 177.914 142.77 177.852 142.77 177.852C142.77 177.852 140.191 175.789 139.836 177.369C139.824 177.419 139.812 177.468 139.798 177.515C139.351 178.993 137.349 179.665 136.193 179.852C135.442 179.973 135.164 180.363 135.062 180.635Z" fill="#233862"/>
<path d="M136.5 138.47C136.5 138.47 136.891 143.356 137.351 149.23C137.977 157.21 138.729 167.012 138.804 168.868C138.933 172.093 139.449 177.25 139.449 177.25C139.449 177.25 140.673 178.475 143.124 177.959C143.124 177.959 145.308 170.596 145.932 162.806C145.942 162.678 145.952 162.549 145.962 162.421C146.542 154.491 147.444 137.792 147.444 137.792L136.5 138.47Z" fill="#FFA25C"/>
<path d="M136.5 138.47C136.5 138.47 136.891 143.357 137.351 149.231L145.931 162.808C145.941 162.68 145.951 162.551 145.961 162.423C146.54 154.493 147.442 137.794 147.442 137.794L136.5 138.47Z" fill="#EF8C48"/>
<path d="M138.289 139.051C138.289 139.051 145.349 156.749 149.991 165.067C154.633 173.384 156.084 175.705 156.084 175.705C156.084 175.705 158.743 174.642 158.986 173.916C158.986 173.916 157.211 157.86 154.102 153.944C152.345 151.733 150.283 145.095 150.186 142.774C150.089 140.453 149.557 135.859 149.557 135.859L138.289 139.051Z" fill="#FFA25C"/>
<path d="M140.046 113.25C142.805 114.12 147.579 111.771 147.579 111.771C147.579 111.771 145.035 109.863 145.168 105.893L143.035 107.612L141.585 108.779C141.585 108.779 141.591 109.468 141.75 110.674C141.792 110.991 141.844 111.344 141.909 111.732C140.725 112.381 140.046 113.25 140.046 113.25Z" fill="#FFB27D"/>
<path d="M141.586 108.779C141.586 108.779 141.592 109.468 141.751 110.674C143.356 110.399 145.177 107.802 145.177 107.802C144.359 107.567 143.644 107.525 143.035 107.61L141.586 108.779Z" fill="#ED975D"/>
<path d="M140.742 108.714C140.742 108.714 145.299 109.471 145.727 106.626C146.155 103.782 147.03 101.963 144.14 101.36C141.249 100.756 140.518 101.757 140.144 102.672C139.771 103.585 139.568 108.443 140.742 108.714Z" fill="#FFB27D"/>
<path d="M136.195 138.877C136.278 138.946 136.374 138.988 136.485 138.988C137.521 138.974 140.542 139.549 143.099 139.287C145.254 139.08 147.161 138.442 149.21 137.523C149.483 137.401 150.108 137.067 150.094 136.762C150.085 136.43 150.052 135.947 150.01 135.338C149.866 133.223 149.613 129.587 149.859 125.391C149.904 124.61 149.926 123.835 149.929 123.072C149.95 117.385 148.823 112.384 146.557 110.692C146.363 110.553 145.174 111.134 144.084 111.673C143.075 112.171 142.066 112.226 141.113 112.032L140.16 112.874C139 113.952 137.729 115.417 137.176 117.639C136.706 119.533 136.429 122.945 136.278 126.482C136.209 128.084 136.153 129.701 136.139 131.235V131.289C136.126 131.441 136.126 131.608 136.126 131.759C136.07 135.7 136.126 138.822 136.195 138.877Z" fill="#2B478B"/>
<path d="M150.009 135.339C149.865 133.224 149.612 129.588 149.858 125.392C149.903 124.611 149.925 123.836 149.928 123.073C148.984 120.783 148.213 119.123 148.213 119.123H145.835C145.835 119.124 144.09 131.037 150.009 135.339Z" fill="#233862"/>
<path d="M154.48 135.749C154.48 135.749 155.013 136.459 155.034 136.742C155.177 138.665 154.299 138.93 156.574 139.998C156.574 139.998 157.545 140.368 157.562 139.615C157.578 138.861 156.888 138.849 157.014 137.793C157.16 136.577 157.145 136.565 156.346 135.93L155.817 135.055L154.48 135.749Z" fill="#FFB27D"/>
<path d="M155.836 136.292C154.98 136.459 154.051 136.392 154.051 136.392C154.051 136.392 151.508 128.536 151.18 127.818C150.853 127.101 143.626 118.607 143.626 118.607L146.636 111.072C146.636 111.072 154.452 124.129 155.247 125.963C156.559 128.994 157.013 135.791 157.013 135.791C157.013 135.791 156.508 136.162 155.836 136.292Z" fill="#2B478B"/>
<path d="M145.731 106.353C145.731 106.353 145.263 106.274 145.339 105.63C145.415 104.986 145.414 104.144 144.89 104.301C144.367 104.458 144.34 104.878 144.125 104.632C143.911 104.387 143.906 103.355 142.347 103.284C140.79 103.212 140.155 103.754 139.431 103.435C138.707 103.117 138.668 102.019 138.668 102.019C138.668 102.019 138.874 102.411 139.186 102.536C139.186 102.536 137.978 100.883 139.377 99.7488C140.776 98.615 142.203 99.3573 143.014 99.4064C144.799 99.5145 145.951 99.6211 146.535 100.794C147.117 101.967 146.876 105.223 145.731 106.353Z" fill="#2B478B"/>
<path d="M155.321 136.594C155.321 136.594 154.807 137.128 154.775 137.352C154.671 138.066 154.432 138.375 154.552 138.452C154.8 138.613 155.13 138.084 155.286 137.61C155.444 137.135 155.321 136.594 155.321 136.594Z" fill="#FFB27D"/>
</svg>
