<svg width="294" height="158" viewBox="0 0 294 158" fill="none" xmlns="http://www.w3.org/2000/svg">
<path d="M271.391 157.629L78.2467 157.29C78.2467 157.29 78.2467 157.29 78.2454 157.29L68.0185 157.272H68.0173L66.877 157.271C66.877 157.271 66.877 157.271 66.8758 157.271L57.0763 157.253L53.1389 157.247L52.2614 157.246L41.8572 157.228H41.856L40.0532 157.224L36.3572 157.218L35.1353 157.216L28.2599 157.204C28.2599 157.204 25.997 155.083 23.1182 150.766C22.0031 149.098 20.7962 147.098 19.5931 144.769C19.3505 144.3 19.1079 143.817 18.8665 143.32C17.2259 139.947 15.6256 135.946 14.3106 131.311C14.2515 131.101 14.1924 130.89 14.1346 130.677V130.676C14.0504 130.37 13.9661 130.061 13.8857 129.751C13.4029 127.908 13.2244 126.065 13.3162 124.234C14.039 109.845 31.6039 96.2891 52.0401 90.696C85.9052 81.4283 74.5607 61.5566 91.9873 35.6857C103.221 19.0083 120.702 13.4505 143.011 18.1522C188.276 27.6927 155.477 79.1767 206.682 87.4086C301.288 102.618 271.391 157.629 271.391 157.629Z" fill="#D5E5FB"/>
<g opacity="0.5">
<path opacity="0.5" d="M86.2291 146.435C85.8029 151.299 83.0498 152.8 81.8404 152.672C80.6298 152.544 73.5508 149.846 73.3986 150.835C73.244 151.825 77.5045 155.058 80.4877 155.21C80.4877 155.21 79.5788 156.21 78.2487 157.291C78.2487 157.291 78.2487 157.291 78.2475 157.291L68.0206 157.273H68.0193C66.83 155.925 66.1575 154.589 64.7143 153.932C62.3797 152.868 60.3884 152.871 61.3514 153.955C62.1358 154.839 65.0914 155.704 66.8778 157.272L57.0783 157.254C56.5101 156.592 56.1468 155.889 56.0852 155.165C56.0726 155.024 56.0613 154.891 56.05 154.761V154.758C55.8073 151.926 55.8074 151.926 55.8074 151.926C55.8074 151.926 52.9976 148.655 53.278 145.304C53.3333 144.632 53.513 143.959 53.8625 143.306C54.2133 142.656 54.7312 142.029 55.4667 141.449C55.4667 141.449 59.2394 139.17 62.3156 139.355C62.3156 139.355 59.9308 143.344 59.2607 145.714C59.1991 145.93 59.1526 146.132 59.1237 146.317C59.0382 146.846 59.096 147.232 59.3676 147.372C59.7133 147.55 60.1495 147.125 60.6109 146.385C60.6826 146.268 60.7555 146.145 60.8284 146.013C62.1761 143.597 63.6369 138.896 63.6369 138.896C63.6369 138.896 64.004 138.86 64.6112 138.816C65.29 138.767 66.2668 138.705 67.3681 138.67H67.3693C67.7302 138.658 68.106 138.65 68.487 138.645C69.6448 138.63 70.8667 138.652 71.9743 138.749C73.1962 138.855 74.2786 139.053 74.9852 139.391C74.9852 139.391 74.8293 139.517 74.5716 139.733C74.4421 139.843 74.2887 139.971 74.1127 140.122C74.1127 140.122 74.1127 140.122 74.1114 140.122C73.7657 140.415 73.3396 140.779 72.8845 141.183C72.1201 141.857 71.269 142.635 70.5575 143.358C69.729 144.197 69.0891 144.959 68.9898 145.389C68.9471 145.575 69.0049 145.699 69.191 145.741C69.9918 145.927 72.5036 144.438 74.7413 142.959C76.8231 141.584 78.6648 140.216 78.6648 140.216C78.6648 140.216 86.6553 141.571 86.2291 146.435Z" fill="#6980E2"/>
<g opacity="0.5">
<path opacity="0.5" d="M56.0495 154.76C56.0432 155.016 56.0834 155.164 56.0834 155.164C55.4348 155.28 54.2216 156.262 53.1392 157.247L52.2617 157.245C54.9168 154.583 55.8069 151.925 55.8069 151.925C60.6004 145.732 82.3026 146.567 82.3026 146.567C57.9214 147.363 56.0872 153.158 56.0495 154.756C56.0483 154.758 56.0483 154.759 56.0495 154.76Z" fill="#6980E2"/>
</g>
</g>
<path d="M32.1149 143.867C32.1149 143.867 40.8709 138.974 36.7852 132.335C36.7852 132.335 33.5166 128.258 30.0142 127.21C30.0142 127.21 31.8823 137.111 30.0142 137.344C28.146 137.576 28.7294 126.161 28.7294 126.161C28.7294 126.161 19.5069 121.735 15.8876 122.084C15.8876 122.084 21.6076 131.753 19.7407 131.519C17.8726 131.287 11.4524 121.501 11.4524 121.501C11.4524 121.501 1.99608 119.753 0.4787 125.345C-1.03868 130.937 1.41276 133.732 2.81323 134.082C4.21369 134.432 13.2036 134.315 12.9697 135.48C12.7359 136.646 6.66513 138.509 3.27963 137.46C3.27963 137.46 7.01588 146.663 11.9188 146.198C16.8216 145.731 18.3403 142.703 21.375 142.47C24.4111 142.238 26.6287 143.052 25.1113 143.868C23.5939 144.684 18.4572 144.136 16.0045 146.215C13.5531 148.295 11.568 149.577 16.1214 150.508C20.6748 151.44 28.8463 150.858 30.4818 147.363C32.1149 143.867 32.1149 143.867 32.1149 143.867Z" fill="#6980E2"/>
<path d="M4.79688 127.093C4.79688 127.093 29.3138 135.014 32.116 143.867C32.116 143.867 31.9991 147.827 34.4505 152.37V154.118C34.4505 154.118 31.8822 148.176 30.4817 147.362C30.4804 147.362 35.9679 139.673 4.79688 127.093Z" fill="#6980E2"/>
<path d="M36.3558 157.217L35.1338 157.214C34.988 156.029 34.7428 154.873 34.3506 153.892C34.3506 153.89 34.3506 153.89 34.3506 153.89C34.3468 153.88 34.3431 153.871 34.338 153.86C34.2563 153.653 34.1658 153.455 34.0703 153.268C34.069 153.266 34.0678 153.263 34.0678 153.26C34.064 153.252 34.059 153.243 34.0552 153.235C33.7698 152.681 33.5787 152.269 33.4555 151.972L33.4543 151.971C33.4518 151.964 33.4492 151.958 33.4467 151.953C32.749 150.233 34.4512 152.37 34.4512 152.37C34.4512 152.37 35.7046 154.271 36.3558 157.217Z" fill="#6980E2"/>
<path d="M46.0461 137.12C46.0461 137.12 34.5042 130.67 39.8899 121.918C39.8899 121.918 44.1994 116.544 48.8156 115.162C48.8156 115.162 46.3529 128.214 48.8156 128.521C51.2784 128.828 50.5077 113.779 50.5077 113.779C50.5077 113.779 62.6656 107.945 67.4365 108.405C67.4365 108.405 59.8961 121.15 62.3576 120.843C64.8204 120.537 73.2848 107.638 73.2848 107.638C73.2848 107.638 85.7507 105.335 87.7508 112.706C89.7509 120.076 86.52 123.761 84.6733 124.223C82.8265 124.684 70.9766 124.529 71.2846 126.066C71.5926 127.601 79.5944 130.058 84.0585 128.675C84.0585 128.675 79.1343 140.806 72.67 140.192C66.207 139.577 64.2056 135.586 60.2041 135.278C56.2026 134.971 53.2785 136.046 55.2799 137.121C57.28 138.196 64.0523 137.473 67.2831 140.215C70.5153 142.957 73.1314 144.645 67.1298 145.873C61.1281 147.101 50.3556 146.335 48.2009 141.727C46.0461 137.12 46.0461 137.12 46.0461 137.12Z" fill="#6980E2"/>
<path d="M82.0578 115.008C82.0578 115.008 49.7402 125.45 46.0467 137.12C46.0467 137.12 46.2001 142.341 42.9692 148.33V150.633C42.9692 150.633 46.3547 142.802 48.2015 141.727C48.2015 141.726 40.9679 131.592 82.0578 115.008Z" fill="#6980E2"/>
<path d="M44.285 147.793C44.2837 147.796 44.2837 147.797 44.2825 147.799C44.2812 147.802 44.2812 147.802 44.2812 147.803C44.1165 148.204 43.8576 148.757 43.4729 149.508C43.4729 149.51 43.4716 149.51 43.4704 149.513C43.4678 149.518 43.4653 149.524 43.4628 149.529C43.3384 149.772 43.2227 150.028 43.1171 150.293C43.1121 150.306 43.107 150.317 43.102 150.33C43.1008 150.33 43.1008 150.331 43.1008 150.332C42.3062 152.317 41.9693 154.846 41.8587 157.227H41.8574L40.0547 157.223C40.5814 151.948 42.9688 148.329 42.9688 148.329C42.9688 148.329 42.9688 148.329 42.97 148.327C43.0178 148.266 45.2115 145.524 44.285 147.793Z" fill="#6980E2"/>
<path d="M130.968 45.818C130.968 45.818 122.618 45.0046 117.744 53.9744C112.87 62.9441 105.046 58.8282 99.7869 67.6056C94.5282 76.3818 111.074 81.8856 101.71 85.2133C92.3471 88.541 91.0974 105.066 108.332 107.298C125.567 109.529 152.886 105.946 154.426 103.002C155.965 100.059 160.623 96.603 154.703 90.2042C148.783 83.8053 158.72 87.3768 153.687 73.0554C148.655 58.7327 130.968 45.818 130.968 45.818Z" fill="#2C3A64"/>
<path d="M150.6 77.346L149.84 77.4994C146.512 78.1707 143.237 75.9971 142.563 72.6694L141.775 68.776C141.1 65.4433 143.275 62.166 146.609 61.4934L147.37 61.34C150.697 60.6687 153.972 62.8423 154.646 66.17L155.434 70.0621C156.109 73.3973 153.934 76.6747 150.6 77.346Z" fill="#ED7D2B"/>
<path d="M198.407 156.811H167.12C164.788 156.811 162.638 155.56 161.486 153.538C156.401 144.612 152.169 133.631 151.09 124.862C150.511 120.177 150.834 116.124 152.404 113.354C157.288 104.748 149.542 94.644 149.542 94.644C149.542 94.644 160.573 98.0673 164.432 106.329C168.254 114.51 171.33 128.225 172.917 136.226C173.696 140.153 176.53 143.359 180.339 144.614L197.949 150.421C199.169 153.466 198.407 156.811 198.407 156.811Z" fill="#F99746"/>
<path d="M198.408 156.812H166.466C164.558 156.812 162.794 155.796 161.838 154.148C156.597 145.116 152.196 133.832 151.092 124.862L156.278 123.278C156.278 123.278 163.728 145.043 167.704 149.458C171.447 153.613 198.408 156.812 198.408 156.812Z" fill="#ED7D2B"/>
<path d="M154.704 108.789C152.024 111.129 148.565 113.201 144.106 114.771C127.394 120.662 119.178 106.932 115.584 97.2756C117.773 95.6752 119.941 95.1334 121.196 94.838C122.42 94.5526 123.713 94.3087 124.788 94.1327C126.548 92.4431 128.736 86.092 128.313 76.6621L129.145 76.7866L143.088 78.9551C143.088 78.9551 142.955 83.315 143.109 87.4032C143.234 90.6026 143.711 93.1446 143.711 93.1446C144.793 93.254 145.958 94.4998 145.958 94.4998C145.958 94.4998 145.959 94.5048 145.967 94.5111C146.179 94.7902 150.832 100.787 154.704 108.789Z" fill="#FFB27D"/>
<path d="M143.087 78.9586C143.087 78.9586 142.95 83.3146 143.109 87.4067C135.36 87.5047 130.98 80.6269 129.143 76.79L143.087 78.9586Z" fill="#ED985F"/>
<path d="M161.35 123.277C161.311 123.576 157.586 135.665 157.547 135.968C156.253 146.088 153.912 156.886 153.912 156.886L148.793 156.877L115.008 156.81C115.008 156.81 119.084 144.539 108.333 125.726C107.981 125.11 107.613 124.486 107.228 123.857C105.697 121.347 115.358 94.5184 115.358 94.5184C115.358 94.5184 119.735 93.4172 125.669 92.9395C126.23 93.4511 130.236 103.127 137.71 103.127C148.142 103.127 143.71 93.1444 143.71 93.1444C147.677 93.9389 149.106 94.2293 154.199 96.6631C154.198 96.6644 161.556 121.626 161.35 123.277Z" fill="#F99746"/>
<path d="M145.635 82.9437C145.635 82.9437 127.321 83.7106 127.018 72.3221C126.715 60.9348 124.148 53.3643 135.828 52.3937C147.508 51.4232 149.897 55.7076 150.925 59.4841C151.951 63.2618 150.391 82.4509 145.635 82.9437Z" fill="#FFB27D"/>
<path d="M141.651 76.8406C141.651 76.8406 141.853 78.1945 144.865 78.2247C144.865 78.2247 147.394 78.2511 147.409 76.7815C147.409 76.7815 145.032 75.5482 141.651 76.8406Z" fill="white"/>
<path d="M142.925 81.3749C132.329 78.7374 129.174 69.0775 129.143 68.9794L130.234 68.6375L129.689 68.8085L130.234 68.6362C130.263 68.728 133.245 77.7883 143.203 80.2661C143.27 80.2825 143.336 80.2988 143.403 80.3151L143.138 81.4252C143.067 81.4101 142.997 81.3925 142.925 81.3749Z" fill="#122544"/>
<path d="M144.15 82.0715L143.151 81.8226C142.641 81.6956 142.33 81.1764 142.457 80.6698C142.584 80.1619 143.104 79.8501 143.612 79.9771L144.611 80.226C145.12 80.353 145.432 80.8722 145.305 81.3788C145.178 81.8867 144.658 82.1985 144.15 82.0715Z" fill="#ED7D2B"/>
<path d="M135.257 45.31C135.257 45.31 147.049 43.4733 151.928 53.269C155.642 60.7251 152.546 65.3816 151.09 66.8085C151.09 66.8085 149.164 56.0988 145.56 55.1849C145.56 55.1849 143.236 54.4771 141.651 56.315C140.067 58.153 137.775 66.3483 135.143 67.6042C135.143 67.6042 126.971 69.6169 126.57 66.772C126.169 63.9271 127.953 56.0938 128.452 53.6423C129.8 47.0322 135.257 45.31 135.257 45.31Z" fill="#2C3A64"/>
<path d="M131.535 77.346L130.775 77.4994C127.447 78.1707 124.172 75.9971 123.498 72.6694L122.71 68.776C122.035 65.4433 124.211 62.166 127.544 61.4934L128.305 61.34C131.632 60.6687 134.906 62.8423 135.581 66.17L136.369 70.0621C137.044 73.3973 134.868 76.6747 131.535 77.346Z" fill="#ED7D2B"/>
<path d="M125.707 63.2822C125.206 62.47 124.47 55.9366 126.472 50.7333C127.44 48.219 129.005 46.7846 130.968 45.8166C131.678 45.4671 132.474 45.2798 133.284 45.2798L135.257 45.3087C128.759 47.7765 127.253 60.9766 127.76 62.3846C127.745 62.3406 127.723 62.3091 127.709 62.2865L125.707 63.2822Z" fill="#ED7D2B"/>
<path d="M129.774 73.523L129.394 73.5997C127.736 73.9341 126.104 72.8504 125.769 71.1935L125.376 69.2537C125.041 67.593 126.124 65.96 127.785 65.6256L128.164 65.5489C129.822 65.2145 131.453 66.2981 131.789 67.9551L132.181 69.8949C132.518 71.5555 131.435 73.1873 129.774 73.523Z" fill="#F99746"/>
<path d="M115.008 156.812C115.008 156.812 114.665 147.965 108.333 125.727L116.647 122.176C116.647 122.176 119.427 140.773 128.287 146.616C137.13 152.445 147.535 151.229 148.791 156.878L115.008 156.812Z" fill="#ED7D2B"/>
<path d="M115.358 94.52C115.358 94.52 108.068 95.1536 103.185 103.759C98.3036 112.364 81.84 152.671 89.0346 156.811H128.053C128.053 156.811 128.816 153.465 127.595 150.42L106.201 144.465C106.201 144.465 117.984 124.237 118.136 114.951C118.289 105.667 115.358 94.52 115.358 94.52Z" fill="#F99746"/>
<path d="M128.288 152.857C128.288 152.857 135.89 152.115 137.15 152.457C138.408 152.799 142.012 154.283 142.813 154.798C143.614 155.312 145.159 156.812 145.159 156.812C145.159 156.812 144.186 156.995 143.614 156.867C143.042 156.739 141.326 156.624 140.868 156.587C140.411 156.549 138.77 156.887 138.77 156.887H126.984L128.288 152.857Z" fill="#FFB27D"/>
<path d="M204.772 156.886H159.66C159.66 154.904 161.266 153.298 163.248 153.298H204.771V156.886H204.772Z" fill="#233862"/>
<path d="M274.389 107.862L257.66 156.886H187.46L204.643 107.862H274.389Z" fill="#233862"/>
<path d="M276.868 107.862L260.294 156.432L260.14 156.886H190.967L208.15 107.862H276.868Z" fill="#2B478B"/>
<path d="M240.483 133.234C240.122 134.794 238.562 136.057 236.999 136.057C235.436 136.057 234.461 134.793 234.822 133.234C235.182 131.674 236.743 130.41 238.305 130.41C239.868 130.41 240.843 131.675 240.483 133.234Z" fill="#EBF3FA"/>
<path opacity="0.5" d="M276.868 107.862L260.294 156.432H228.512L267.263 107.862H276.868Z" fill="#233862"/>
<path d="M294.001 55.9316C294.001 58.9048 293.355 61.8214 292.147 64.6248C291.074 67.1152 285.867 69.5189 283.969 71.7918C272.691 85.2999 257.679 78.9475 229.422 80.2248C213.613 80.9401 199.256 80.9766 192.236 71.5215C190.603 69.3228 189.181 67.0121 187.959 64.6248C183.856 56.613 182.008 47.7564 182.008 39.4932C182.008 36.4936 182.699 33.6298 183.96 30.9357C191.649 14.4935 220.527 4.37092 242.864 8.28442C259.405 11.1822 275.061 20.5831 284.589 32.3777C285.699 33.7492 286.723 35.1535 287.657 36.5828C288.011 37.1234 288.35 37.6665 288.677 38.2134C292.06 43.8894 294.001 49.9237 294.001 55.9316Z" fill="#EBF3FA"/>
<path d="M294 55.9319C294 58.905 293.354 61.8216 292.146 64.6251C291.073 67.1155 289.557 69.5166 287.659 71.7896L242.175 71.821L232.642 71.7632L213.784 71.65L192.233 71.5205C190.6 69.3218 189.178 67.0111 187.956 64.6238C183.852 56.612 182.004 47.7554 182.004 39.4921C182.004 36.4926 182.696 33.6288 183.957 30.9347H185.835V30.936H186.453V30.3552H186.559V30.936H187.305V36.7641H192.065V38.9088H194.712V37.6617H197.166V32.7174H198.389V30.4105H198.574V32.7174H201.508V28.3965H201.796V32.7199H203.737V32.6595H203.734V32.1102H203.737V31.591H203.734V30.7286H203.737V30.1754H203.734V29.3118H203.737V28.7599H203.734V27.8962H203.737V27.3003H203.734V26.4367H203.737V25.6773H203.734V24.8137H203.737V24.2404H204.315V23.5942H204.407V24.2404H208.691V23.5942H208.783V24.2404H209.564V28.7611L210.114 28.7636V28.7611H210.11V27.8975H210.114V27.3016H210.11V26.4379H210.114V25.8433H210.11V24.9796H210.114V24.9771H215.309V24.9796H216.201C216.249 25.0035 216.293 25.0261 216.341 25.0488V29.9806H220.138V36.4586H223.205V24.4805H223.873V23.642H223.992V24.4805H226.416V23.642H226.536V24.4805H229.966V23.642H230.087V24.4805H232.245V23.642H232.365V24.4805H233.252V35.6616H236.641V33.8538L240.64 33.8689V30.936H241.445V30.3564H241.552V30.936H244.639V30.9373H245.257V30.3564H245.365V30.9373H246.109V36.7654H250.871V38.9101H253.517V37.663H255.971V32.7186H257.195V30.4118H257.379V32.7186H260.312V28.3965H260.601V32.7199H262.542V32.6595H262.539V32.1102H262.542V31.591H262.539V30.7286H262.542V30.1754H262.539V29.3118H262.542V28.7599H262.539V27.8962H262.542V27.3003H262.539V26.4367H262.542V25.6773H262.539V24.8137H262.542V24.2404H263.121V23.5942H263.214V24.2404H267.497V23.5942H267.589V24.2404H268.371V28.7611L268.914 28.7636H268.921V28.7611H268.917V27.8975H268.921V27.3016H268.917V26.4379H268.921V25.8433H268.917V24.9796H268.921V24.9771H274.116V24.9796H275.008C275.055 25.0035 275.1 25.0261 275.147 25.0488V29.9806H281.52V36.4586H284.588V32.3805C285.698 33.752 286.722 35.1562 287.656 36.5856C288.01 37.1262 288.349 37.6693 288.676 38.2161C292.059 43.8897 294 49.924 294 55.9319Z" fill="#ABB9FF"/>
<g opacity="0.5">
<path opacity="0.5" d="M233.252 24.478H225.589V26.3738H233.252V24.478Z" fill="#E2EEFD"/>
<path opacity="0.5" d="M233.252 27.3955H225.589V29.2913H233.252V27.3955Z" fill="#E2EEFD"/>
<path opacity="0.5" d="M233.252 30.374H225.589V32.2698H233.252V30.374Z" fill="#E2EEFD"/>
<path opacity="0.5" d="M233.252 33.3984H225.589V35.2942H233.252V33.3984Z" fill="#E2EEFD"/>
<path opacity="0.5" d="M233.252 36.3188H225.589V38.2146H233.252V36.3188Z" fill="#E2EEFD"/>
<g opacity="0.5">
<path opacity="0.5" d="M266.129 24.2402H262.553V25.3918H266.129V24.2402Z" fill="#E2EEFD"/>
<path opacity="0.5" d="M266.128 26.0127H262.551V27.1642H266.128V26.0127Z" fill="#E2EEFD"/>
<path opacity="0.5" d="M266.128 27.8208H262.551V28.9724H266.128V27.8208Z" fill="#E2EEFD"/>
<path opacity="0.5" d="M266.128 29.6587H262.551V30.8102H266.128V29.6587Z" fill="#E2EEFD"/>
<path opacity="0.5" d="M266.128 31.4312H262.551V32.5827H266.128V31.4312Z" fill="#E2EEFD"/>
</g>
<g opacity="0.5">
<path opacity="0.5" d="M266.129 33.3823H262.553V34.5339H266.129V33.3823Z" fill="#E2EEFD"/>
<path opacity="0.5" d="M266.128 35.1548H262.551V36.3063H266.128V35.1548Z" fill="#E2EEFD"/>
<path opacity="0.5" d="M266.128 36.9639H262.551V38.1154H266.128V36.9639Z" fill="#E2EEFD"/>
<path opacity="0.5" d="M266.128 38.8008H262.551V39.9523H266.128V38.8008Z" fill="#E2EEFD"/>
<path opacity="0.5" d="M266.128 40.5732H262.551V41.7248H266.128V40.5732Z" fill="#E2EEFD"/>
</g>
<g opacity="0.5">
<path opacity="0.5" d="M272.744 24.9956H268.912V26.1472H272.744V24.9956Z" fill="#E2EEFD"/>
<path opacity="0.5" d="M272.743 26.7671H268.911V27.9186H272.743V26.7671Z" fill="#E2EEFD"/>
<path opacity="0.5" d="M272.743 28.5762H268.911V29.7277H272.743V28.5762Z" fill="#E2EEFD"/>
<path opacity="0.5" d="M272.743 30.4126H268.911V31.5641H272.743V30.4126Z" fill="#E2EEFD"/>
<path opacity="0.5" d="M272.743 32.1865H268.911V33.3381H272.743V32.1865Z" fill="#E2EEFD"/>
</g>
<g opacity="0.5">
<path opacity="0.5" d="M272.744 34.0347H268.912V35.1862H272.744V34.0347Z" fill="#E2EEFD"/>
<path opacity="0.5" d="M272.743 35.8062H268.911V36.9577H272.743V35.8062Z" fill="#E2EEFD"/>
<path opacity="0.5" d="M272.743 37.6152H268.911V38.7668H272.743V37.6152Z" fill="#E2EEFD"/>
<path opacity="0.5" d="M272.743 39.4531H268.911V40.6047H272.743V39.4531Z" fill="#E2EEFD"/>
<path opacity="0.5" d="M272.743 41.2256H268.911V42.3771H272.743V41.2256Z" fill="#E2EEFD"/>
</g>
<g opacity="0.5">
<path opacity="0.5" d="M272.744 43.2583H268.912V44.4098H272.744V43.2583Z" fill="#E2EEFD"/>
<path opacity="0.5" d="M272.743 45.0308H268.911V46.1823H272.743V45.0308Z" fill="#E2EEFD"/>
<path opacity="0.5" d="M272.743 46.8389H268.911V47.9904H272.743V46.8389Z" fill="#E2EEFD"/>
<path opacity="0.5" d="M272.743 48.6768H268.911V49.8283H272.743V48.6768Z" fill="#E2EEFD"/>
<path opacity="0.5" d="M272.743 50.4492H268.911V51.6008H272.743V50.4492Z" fill="#E2EEFD"/>
</g>
<path opacity="0.5" d="M288.675 38.2145H287.655V36.584C288.007 37.1233 288.347 37.6677 288.675 38.2145Z" fill="#E2EEFD"/>
<g opacity="0.5">
<path opacity="0.5" d="M207.532 24.2402H203.7V25.3918H207.532V24.2402Z" fill="#E2EEFD"/>
<path opacity="0.5" d="M207.532 26.0127H203.701V27.1642H207.532V26.0127Z" fill="#E2EEFD"/>
<path opacity="0.5" d="M207.532 27.8208H203.701V28.9724H207.532V27.8208Z" fill="#E2EEFD"/>
<path opacity="0.5" d="M207.532 29.6587H203.701V30.8102H207.532V29.6587Z" fill="#E2EEFD"/>
<path opacity="0.5" d="M207.532 31.4312H203.701V32.5827H207.532V31.4312Z" fill="#E2EEFD"/>
</g>
<g opacity="0.5">
<path opacity="0.5" d="M207.532 33.3823H203.701V34.5339H207.532V33.3823Z" fill="#E2EEFD"/>
<path opacity="0.5" d="M207.533 35.1548H203.701V36.3063H207.533V35.1548Z" fill="#E2EEFD"/>
<path opacity="0.5" d="M207.533 36.9639H203.701V38.1154H207.533V36.9639Z" fill="#E2EEFD"/>
<path opacity="0.5" d="M207.533 38.8008H203.701V39.9523H207.533V38.8008Z" fill="#E2EEFD"/>
<path opacity="0.5" d="M207.533 40.5732H203.701V41.7248H207.533V40.5732Z" fill="#E2EEFD"/>
</g>
<g opacity="0.5">
<path opacity="0.5" d="M214.546 24.9956H210.191V26.1472H214.546V24.9956Z" fill="#E2EEFD"/>
<path opacity="0.5" d="M214.545 26.7671H210.19V27.9186H214.545V26.7671Z" fill="#E2EEFD"/>
<path opacity="0.5" d="M214.545 28.5762H210.19V29.7277H214.545V28.5762Z" fill="#E2EEFD"/>
<path opacity="0.5" d="M214.545 30.4126H210.19V31.5641H214.545V30.4126Z" fill="#E2EEFD"/>
<path opacity="0.5" d="M214.545 32.1865H210.19V33.3381H214.545V32.1865Z" fill="#E2EEFD"/>
</g>
<g opacity="0.5">
<path opacity="0.5" d="M214.546 34.0347H210.191V35.1862H214.546V34.0347Z" fill="#E2EEFD"/>
<path opacity="0.5" d="M214.545 35.8062H210.19V36.9577H214.545V35.8062Z" fill="#E2EEFD"/>
<path opacity="0.5" d="M214.545 37.6152H210.19V38.7668H214.545V37.6152Z" fill="#E2EEFD"/>
<path opacity="0.5" d="M214.545 39.4531H210.19V40.6047H214.545V39.4531Z" fill="#E2EEFD"/>
<path opacity="0.5" d="M214.545 41.2256H210.19V42.3771H214.545V41.2256Z" fill="#E2EEFD"/>
</g>
<g opacity="0.5">
<path opacity="0.5" d="M214.546 43.2583H210.191V44.4098H214.546V43.2583Z" fill="#E2EEFD"/>
<path opacity="0.5" d="M214.545 45.0308H210.19V46.1823H214.545V45.0308Z" fill="#E2EEFD"/>
<path opacity="0.5" d="M214.545 46.8389H210.19V47.9904H214.545V46.8389Z" fill="#E2EEFD"/>
<path opacity="0.5" d="M214.545 48.6768H210.19V49.8283H214.545V48.6768Z" fill="#E2EEFD"/>
<path opacity="0.5" d="M214.545 50.4492H210.19V51.6008H214.545V50.4492Z" fill="#E2EEFD"/>
</g>
</g>
<path d="M292.145 64.625C284.698 81.9108 255.431 84.0316 224.06 83.3213C204.559 82.8801 194.433 77.2744 187.957 64.625H292.145Z" fill="#6980E2"/>
<path d="M199.554 66.9057H258.951L279.01 65.1029C279.01 65.1029 275.421 56.1797 274.441 56.0451C273.463 55.9106 201.435 56.0451 201.435 56.0451L199.554 66.9057Z" fill="#1D2949"/>
<path d="M287.58 66.0268C286.102 66.6302 277.167 66.7648 277.167 66.7648C277.167 66.7648 277.368 55.8389 268.165 57.1124C258.961 58.3859 260.57 67.4549 260.57 67.4549L216.322 68.2432C216.322 68.2432 217.041 56.7252 207.272 57.9358C199.156 58.9428 201.24 68.1992 201.24 68.1992C193.149 68.6165 192.312 65.876 192.312 65.876V64.7445H192.82V61.7651H192.312V59.5462L194.014 55.6578C196.882 50.7424 219.365 49.4023 219.365 49.4023C222.779 47.4436 225.61 45.9879 227.825 44.9306C231.358 43.2435 235.386 41.5991 239.283 41.2145C249.837 40.1735 258.513 41.3527 260.642 41.6972C263.127 42.0995 275.623 47.5291 276.564 47.998C277.504 48.4669 285.175 49.1043 286.161 49.2225C287.146 49.3419 287.116 50.325 287.116 50.325L287.252 51.1975L287.767 54.5201L287.893 55.331C288.61 55.688 288.611 56.7126 288.611 56.7126C288.611 56.7126 289.057 65.4234 287.58 66.0268Z" fill="#F99746"/>
<path d="M201.766 65.1029C201.766 61.3478 204.817 58.3042 208.58 58.3042C212.343 58.3042 215.394 61.3478 215.394 65.1029C215.394 68.858 212.343 71.9015 208.58 71.9015C204.817 71.9015 201.766 68.8567 201.766 65.1029Z" fill="#2C3A64"/>
<path d="M208.581 70.4191C205.643 70.4191 203.251 68.0343 203.251 65.1026C203.251 62.1709 205.641 59.7861 208.581 59.7861C211.52 59.7861 213.91 62.1709 213.91 65.1026C213.91 68.0343 211.52 70.4191 208.581 70.4191ZM208.581 60.2764C205.914 60.2764 203.744 62.4412 203.744 65.1014C203.744 67.7615 205.914 69.9263 208.581 69.9263C211.247 69.9263 213.417 67.7615 213.417 65.1014C213.417 62.4412 211.247 60.2764 208.581 60.2764Z" fill="#AFCDFB"/>
<path d="M209.49 70.1794H207.581L208.194 64.9585L207.494 59.999L209.675 60.1335L208.949 64.9585L209.49 70.1794Z" fill="#AFCDFB"/>
<path d="M204.619 68.4158L203.665 66.7664L208.504 64.6858L212.458 61.6021L213.432 63.5544L208.881 65.3383L204.619 68.4158Z" fill="#AFCDFB"/>
<path d="M203.855 63.1358L204.903 61.543L208.939 64.9234L213.476 67.0631L212.165 68.808L208.524 65.552L203.855 63.1358Z" fill="#AFCDFB"/>
<path d="M206.792 65.0932C206.792 64.1139 207.588 63.3193 208.57 63.3193C209.552 63.3193 210.348 64.1139 210.348 65.0932C210.348 66.0725 209.552 66.867 208.57 66.867C207.588 66.867 206.792 66.0725 206.792 65.0932Z" fill="#AFCDFB"/>
<path d="M268.996 71.9015C272.759 71.9015 275.81 68.8577 275.81 65.1029C275.81 61.3481 272.759 58.3042 268.996 58.3042C265.233 58.3042 262.183 61.3481 262.183 65.1029C262.183 68.8577 265.233 71.9015 268.996 71.9015Z" fill="#2C3A64"/>
<path d="M268.996 70.4191C266.058 70.4191 263.667 68.0343 263.667 65.1026C263.667 62.1709 266.057 59.7861 268.996 59.7861C271.935 59.7861 274.325 62.1709 274.325 65.1026C274.325 68.0343 271.934 70.4191 268.996 70.4191ZM268.996 60.2764C266.33 60.2764 264.16 62.4412 264.16 65.1014C264.16 67.7615 266.33 69.9263 268.996 69.9263C271.662 69.9263 273.832 67.7615 273.832 65.1014C273.832 62.4412 271.662 60.2764 268.996 60.2764Z" fill="#AFCDFB"/>
<path d="M269.908 70.1794H267.998L268.61 64.9585L267.91 59.999L270.093 60.1335L269.365 64.9585L269.908 70.1794Z" fill="#AFCDFB"/>
<path d="M265.036 68.4158L264.082 66.7664L268.92 64.6858L272.875 61.6021L273.848 63.5544L269.297 65.3383L265.036 68.4158Z" fill="#AFCDFB"/>
<path d="M264.271 63.1358L265.319 61.543L269.354 64.9234L273.893 67.0631L272.582 68.808L268.941 65.552L264.271 63.1358Z" fill="#AFCDFB"/>
<path d="M267.208 65.0932C267.208 64.1139 268.004 63.3193 268.986 63.3193C269.968 63.3193 270.764 64.1139 270.764 65.0932C270.764 66.0725 269.968 66.867 268.986 66.867C268.006 66.867 267.208 66.0725 267.208 65.0932Z" fill="#AFCDFB"/>
<path d="M201.714 55.6328H197.256C195.781 55.6328 194.421 56.4286 193.702 57.7134L193.548 57.9862C193.394 58.2615 193.594 58.6009 193.911 58.6009H199.275C199.646 58.6009 199.999 58.4463 200.249 58.1748L201.999 56.2828C202.229 56.0351 202.052 55.6328 201.714 55.6328Z" fill="#F9DDBF"/>
<path d="M196.3 65.1025H194.779C194.276 65.1025 193.811 65.3741 193.566 65.8128L193.513 65.9059C193.461 66.0001 193.528 66.1158 193.637 66.1158H195.467C195.594 66.1158 195.713 66.063 195.8 65.97L196.397 65.325C196.476 65.2396 196.416 65.1025 196.3 65.1025Z" fill="#1D2949"/>
<path d="M269.974 48.7546L247.23 49.2939C246.784 49.3052 246.417 48.9469 246.417 48.5019V43.2734C246.417 42.8623 246.753 42.5304 247.166 42.5367C256.865 42.6712 260.189 42.9415 262.182 43.6267C263.94 44.2313 268.052 46.7205 270.177 47.9839C270.536 48.1964 270.392 48.7445 269.974 48.7546Z" fill="#AFCDFB"/>
<path d="M244.439 42.5017C244.807 42.5055 245.169 42.5105 245.522 42.5143V49.3343L223.58 49.8535C223.295 49.8598 223.177 49.4902 223.413 49.3306C225.976 47.6083 234.563 42.3911 244.439 42.5017Z" fill="#AFCDFB"/>
<path d="M269.897 48.7575H269.884V47.8096C269.962 47.8561 270.038 47.9013 270.111 47.9441C270.489 48.1691 270.337 48.7474 269.897 48.7575Z" fill="#AFCDFB"/>
<path d="M246.417 49.6097L243.729 49.3972L243.909 42.1045H246.417V49.6097Z" fill="#F99746"/>
<path d="M263.437 49.6098H262.183V43.0601L263.437 43.8118V49.6098Z" fill="#F99746"/>
<path d="M226.316 47.563L226.985 49.7743L223.325 49.8611C223.112 49.8661 223.02 49.5933 223.193 49.4688C224.019 48.8742 225.551 47.8182 226.316 47.563Z" fill="#2C3A64"/>
<path d="M223.168 50.042C223.018 50.042 222.887 49.9477 222.841 49.8057C222.793 49.6611 222.846 49.504 222.971 49.4172L223.048 49.3644C223.127 49.3091 223.217 49.2488 223.313 49.1834C223.394 49.1293 223.479 49.0728 223.571 49.0112L223.709 48.9206C223.814 48.8515 223.926 48.7798 224.044 48.7057C224.128 48.6529 224.215 48.5975 224.305 48.541L224.32 48.5322C224.333 48.5246 224.347 48.5158 224.359 48.5083C224.435 48.4605 224.515 48.4115 224.598 48.3612L224.616 48.3499C224.643 48.3335 224.67 48.3159 224.699 48.2996C224.739 48.2745 224.783 48.2481 224.826 48.2217C224.886 48.1852 224.946 48.1487 225.009 48.111C225.185 48.0054 225.374 47.8948 225.571 47.7804C225.632 47.7452 225.693 47.71 225.757 47.6735C225.882 47.6019 226.009 47.5302 226.139 47.4573L226.231 47.4058C226.495 47.2587 226.763 47.1141 227.027 46.9733L227.114 46.9281C227.154 46.9067 227.194 46.8853 227.234 46.8639C227.737 46.6012 228.255 46.3435 228.772 46.0971L228.933 46.0216C229.094 45.945 229.258 45.8695 229.424 45.7941C229.48 45.769 229.535 45.7438 229.592 45.7187C229.702 45.6684 229.815 45.6181 229.93 45.5678L230.102 45.4924C230.273 45.417 230.455 45.339 230.658 45.2535C230.763 45.2095 230.869 45.1655 230.976 45.1215C231.694 44.8261 232.424 44.5495 233.149 44.2981L233.308 44.2428C233.367 44.2227 233.427 44.2026 233.487 44.1812L233.714 44.1058C233.775 44.0856 233.836 44.0655 233.897 44.0454L233.905 44.0429C233.969 44.0215 234.033 44.0014 234.097 43.98C234.214 43.9436 234.331 43.9059 234.449 43.8694C234.53 43.8443 234.61 43.8191 234.692 43.7952C234.816 43.7575 234.941 43.7211 235.066 43.6846L235.275 43.6243C235.406 43.5865 235.538 43.5501 235.67 43.5136C235.931 43.442 236.199 43.3716 236.463 43.3062L236.479 43.3024C236.503 43.2961 236.526 43.2911 236.55 43.2848C236.662 43.2572 236.777 43.2295 236.893 43.2019C236.961 43.1855 237.03 43.1692 237.1 43.1528L237.153 43.1415C237.205 43.1302 237.256 43.1176 237.309 43.1063C237.378 43.0912 237.447 43.0749 237.517 43.0598C237.587 43.0447 237.656 43.0296 237.727 43.0145C237.797 42.9995 237.867 42.9856 237.938 42.9705C238.007 42.9555 238.079 42.9416 238.149 42.9278L238.16 42.9253C238.227 42.9127 238.294 42.8989 238.361 42.8863C238.428 42.8737 238.495 42.8612 238.561 42.8486C238.637 42.8348 238.712 42.8209 238.788 42.8071C238.835 42.7983 238.884 42.7895 238.933 42.782L239.001 42.7707C239.145 42.7455 239.287 42.7229 239.43 42.7003C239.502 42.6889 239.573 42.6776 239.646 42.6663L239.658 42.6651C239.785 42.6462 239.911 42.6273 240.038 42.6097C240.275 42.5771 240.514 42.5469 240.746 42.5205L240.761 42.5192C240.827 42.5117 240.892 42.5041 240.957 42.4979C241.003 42.4928 241.052 42.4878 241.098 42.4828C241.145 42.4777 241.195 42.4727 241.247 42.4677C241.299 42.4627 241.356 42.4564 241.413 42.4513C241.485 42.4438 241.561 42.4375 241.635 42.4312C241.705 42.4249 241.778 42.4187 241.85 42.4136C241.908 42.4086 241.962 42.4048 242.017 42.4011L242.335 42.3797C242.398 42.3759 242.461 42.3721 242.524 42.3684L242.552 42.3671C242.621 42.3633 242.691 42.3596 242.761 42.3558C242.817 42.3533 242.873 42.3508 242.93 42.3483H242.935C242.985 42.3457 243.036 42.3445 243.086 42.342L243.21 42.3369C243.259 42.3357 243.31 42.3332 243.359 42.3319C243.555 42.3256 243.737 42.3985 243.877 42.5331C244.016 42.6688 244.093 42.8499 244.093 43.0435V48.6956C244.093 49.1658 243.709 49.5568 243.239 49.5681L223.18 50.0433C223.173 50.042 223.17 50.042 223.168 50.042ZM226.48 47.6761L226.356 47.7452C226.211 47.8257 226.07 47.9049 225.933 47.9828C225.87 48.0193 225.809 48.0532 225.748 48.0884C225.554 48.2015 225.366 48.3109 225.192 48.4165C225.129 48.4542 225.068 48.4907 225.008 48.5259C224.965 48.551 224.924 48.5774 224.882 48.6026C224.855 48.6189 224.828 48.6353 224.802 48.6516L224.783 48.6629C224.701 48.7132 224.622 48.7622 224.544 48.81L224.493 48.8414C224.403 48.8967 224.317 48.9521 224.234 49.0049C224.117 49.079 224.007 49.1494 223.904 49.2173L223.766 49.3078C223.675 49.3682 223.59 49.4248 223.511 49.4776C223.415 49.5417 223.327 49.602 223.249 49.6561L223.213 49.6812L226.98 49.592L243.225 49.2073C243.503 49.201 243.729 48.9697 243.729 48.6931V43.0409C243.729 42.9441 243.692 42.8549 243.621 42.787C243.552 42.7191 243.46 42.6839 243.364 42.6864C243.315 42.6877 243.266 42.6889 243.217 42.6915L243.092 42.6965C243.043 42.6977 242.994 42.7003 242.945 42.7028H242.939C242.882 42.7053 242.827 42.7078 242.773 42.7103C242.704 42.7128 242.634 42.7166 242.565 42.7204L242.538 42.7216C242.476 42.7254 242.414 42.7292 242.353 42.7329L242.037 42.7543C241.983 42.7581 241.93 42.7631 241.876 42.7669C241.802 42.7719 241.732 42.7782 241.661 42.7845C241.587 42.7908 241.514 42.7971 241.441 42.8046C241.386 42.8096 241.332 42.8147 241.278 42.8209C241.228 42.826 241.18 42.8297 241.133 42.836C241.084 42.8411 241.038 42.8461 240.993 42.8511C240.926 42.8574 240.862 42.8649 240.799 42.8725L240.784 42.8737C240.554 42.9001 240.319 42.9303 240.084 42.963C239.958 42.9806 239.832 42.9982 239.708 43.0171L239.698 43.0183C239.626 43.0296 239.554 43.0397 239.483 43.0523C239.341 43.0749 239.199 43.0988 239.058 43.1227L238.99 43.134C238.942 43.1428 238.894 43.1503 238.847 43.1591C238.771 43.1729 238.697 43.1855 238.623 43.1993C238.556 43.2119 238.491 43.2245 238.424 43.2371C238.358 43.2496 238.291 43.2622 238.226 43.276L238.214 43.2785C238.145 43.2924 238.076 43.3062 238.007 43.32C237.936 43.3351 237.867 43.3489 237.797 43.3628C237.728 43.3779 237.659 43.3917 237.59 43.4068C237.52 43.4219 237.453 43.4369 237.383 43.452C237.332 43.4633 237.282 43.4747 237.23 43.4872L237.177 43.4998C237.109 43.5149 237.041 43.5312 236.974 43.5476C236.858 43.574 236.745 43.6016 236.633 43.6305C236.609 43.6368 236.588 43.6419 236.566 43.6469L236.55 43.6507C236.288 43.716 236.023 43.7852 235.764 43.8568C235.633 43.892 235.503 43.9285 235.373 43.9662L235.166 44.0253C235.043 44.0618 234.919 44.0982 234.796 44.1359C234.716 44.1598 234.636 44.185 234.556 44.2101C234.439 44.2466 234.322 44.283 234.207 44.3207C234.144 44.3408 234.081 44.361 234.018 44.3823L234.01 44.3848C233.95 44.405 233.89 44.4238 233.829 44.4439L233.604 44.5194C233.545 44.5395 233.486 44.5596 233.427 44.5797L233.269 44.635C232.55 44.8852 231.825 45.1592 231.114 45.4522C231.008 45.4962 230.903 45.5402 230.798 45.5829C230.597 45.6671 230.416 45.7451 230.248 45.8192L230.077 45.8947C229.964 45.945 229.852 45.994 229.741 46.0443C229.685 46.0694 229.631 46.0946 229.575 46.1197C229.409 46.1951 229.247 46.2706 229.087 46.346L228.928 46.4214C228.415 46.6653 227.902 46.9218 227.404 47.182C227.364 47.2034 227.324 47.2247 227.283 47.2461L227.198 47.2914C226.958 47.4158 226.718 47.5453 226.48 47.6761Z" fill="#1D2949"/>
<path d="M263.813 49.0881C263.68 49.0881 263.551 49.0353 263.453 48.9397C263.343 48.8329 263.28 48.6795 263.28 48.5211V44.7056C263.28 44.4882 263.312 44.2116 263.488 44.1022C263.648 44.0029 263.916 44.0758 264.084 44.1575C264.272 44.2493 264.402 44.3147 264.473 44.3524C264.48 44.3561 264.49 44.3624 264.5 44.3675L264.577 44.4089C265.53 44.9281 266.888 45.7466 268.61 46.839C268.683 46.8855 268.757 46.932 268.829 46.9773C269.002 47.0879 269.172 47.196 269.334 47.3004L269.939 47.6901C270.045 47.758 270.145 47.8234 270.241 47.8862C270.253 47.895 270.268 47.9038 270.283 47.9139L270.297 47.9227C270.498 48.0534 270.588 48.3023 270.52 48.5437C270.454 48.7713 270.268 48.9234 270.043 48.9284L269.978 48.9297L263.828 49.0893C263.822 49.0868 263.817 49.0881 263.813 49.0881ZM263.847 44.4165C263.795 44.4165 263.754 44.4354 263.729 44.4517C263.646 44.5032 263.597 44.5975 263.597 44.7044V48.5198C263.597 48.594 263.625 48.6644 263.675 48.7122C263.715 48.7511 263.765 48.7713 263.818 48.7713L270.033 48.6103C270.16 48.6066 270.203 48.4909 270.213 48.4557C270.236 48.374 270.227 48.2546 270.122 48.1867L270.11 48.1779C270.096 48.1691 270.082 48.1603 270.068 48.1515C269.97 48.0874 269.871 48.022 269.765 47.9554L269.162 47.5669C269 47.4626 268.831 47.3544 268.657 47.2438C268.585 47.1986 268.512 47.152 268.439 47.1055C266.721 46.0156 265.37 45.2022 264.424 44.6855L264.347 44.644C264.34 44.6403 264.332 44.6352 264.323 44.6315C264.254 44.595 264.125 44.5284 263.944 44.4404C263.908 44.4228 263.876 44.4165 263.847 44.4165Z" fill="#1D2949"/>
<path d="M226.316 47.563L226.985 49.7743L223.325 49.8611C223.112 49.8661 223.02 49.5933 223.193 49.4688C224.019 48.8742 225.551 47.8182 226.316 47.563Z" fill="#2C3A64"/>
<path d="M247.21 49.4724C246.954 49.4724 246.714 49.3744 246.531 49.1971C246.342 49.0123 246.238 48.7659 246.238 48.5019V43.2734C246.238 43.027 246.335 42.7944 246.511 42.621C246.687 42.4475 246.92 42.3557 247.168 42.3569C257.179 42.4965 260.279 42.7228 262.245 43.4595L262.361 43.5035V49.1154L247.232 49.4737C247.226 49.4724 247.218 49.4724 247.21 49.4724ZM247.157 42.7152C247.008 42.7152 246.869 42.7718 246.763 42.8761C246.655 42.9818 246.596 43.1226 246.596 43.2734V48.5019C246.596 48.6691 246.661 48.8237 246.781 48.9406C246.9 49.0576 247.059 49.1192 247.225 49.1141L262.004 48.7646V43.7511C260.09 43.0735 256.81 42.8485 247.164 42.714C247.162 42.7152 247.159 42.7152 247.157 42.7152Z" fill="#1D2949"/>
<path d="M287.766 54.5177H283.484C282.847 54.5177 282.244 54.226 281.851 53.7269L280.232 51.674C280.08 51.4804 280.217 51.1963 280.464 51.1963H287.252L287.766 54.5177Z" fill="#A9453D"/>
<path d="M245.328 42.4519L245.062 65.3486L245.242 65.3507L245.507 42.454L245.328 42.4519Z" fill="#1D2949"/>
<path d="M260.504 65.0041L216.234 65.8853L216.238 66.0637L260.507 65.1826L260.504 65.0041Z" fill="#1D2949"/>
<path d="M242.703 54.0789C242.703 54.3215 241.621 54.5176 240.284 54.5176C238.949 54.5176 237.866 54.3215 237.866 54.0789C237.866 53.8363 238.948 53.6401 240.284 53.6401C241.621 53.6401 242.703 53.8363 242.703 54.0789Z" fill="#ED823A"/>
<path d="M265.229 54.0789C265.229 54.3215 264.147 54.5176 262.81 54.5176C261.475 54.5176 260.392 54.3215 260.392 54.0789C260.392 53.8363 261.474 53.6401 262.81 53.6401C264.145 53.6401 265.229 53.8363 265.229 54.0789Z" fill="#ED823A"/>
<path d="M258.779 65.1066L258.601 65.0966C258.724 62.8199 259.4 60.9015 260.611 59.3941C261.579 58.1885 262.887 57.2419 264.502 56.5844C266.956 55.5825 269.387 55.5561 269.887 55.5636V48.7549H270.066V55.7484L269.973 55.7446C269.946 55.7434 267.269 55.6466 264.563 56.7529C262.979 57.4003 261.696 58.3281 260.748 59.5098C259.562 60.9869 258.901 62.8702 258.779 65.1066Z" fill="#1D2949"/>
<path d="M221.631 65.867C221.562 59.9609 221.891 55.8751 222.18 53.4866C222.493 50.8956 222.829 49.6849 222.831 49.6724L223.004 49.7201C222.991 49.7679 221.677 54.5891 221.809 65.8632L221.631 65.867Z" fill="#1D2949"/>
<path d="M247.169 42.4463H243.664V42.6248H247.169V42.4463Z" fill="#1D2949"/>
<path d="M249.158 41.4068L248.655 38.8862C248.581 38.5141 248.254 38.2476 247.875 38.2476H246.292C245.925 38.2476 245.606 38.4977 245.519 38.8522L244.892 41.4068H249.158Z" fill="#F99746"/>
<path d="M196.798 20.2301C195.735 2.88768 183.544 -0.00376777 172.341 3.68146e-06C161.139 0.00377513 150.185 5.80175 150.717 18.8447C150.947 24.4729 152.522 29.3595 156.258 32.8229L152.046 43.339L160.623 35.7294C164.069 37.3524 168.57 38.2626 174.358 38.2601C191.521 38.2551 197.48 31.3873 196.798 20.2301Z" fill="#F77D48"/>
<path d="M182.852 28.2002L182.82 25.936C181.552 25.931 180.238 25.5463 179.464 24.997L179.967 23.4884C180.76 24.0151 181.903 24.425 183.125 24.4074C184.675 24.386 185.711 23.4519 185.692 22.1734C185.675 20.9401 184.812 20.1909 183.187 19.5409C180.947 18.676 179.556 17.664 179.528 15.7142C179.502 13.8536 180.771 12.4229 182.774 12.0584L182.742 9.79425L184.096 9.77539L184.127 11.949C185.438 11.9754 186.338 12.3211 186.977 12.6932L186.453 14.1804C185.99 13.9177 185.088 13.4375 183.691 13.4576C182.009 13.4815 181.39 14.5211 181.404 15.4175C181.42 16.5829 182.238 17.1549 184.148 17.9343C186.411 18.8432 187.563 19.9935 187.592 21.9886C187.617 23.7587 186.439 25.4344 184.196 25.848L184.229 28.1788L182.852 28.2002Z" fill="white"/>
<path d="M170.785 15.4399H159.953V16.9083H170.785V15.4399Z" fill="white"/>
<path d="M177.255 18.9878H159.953V20.4561H177.255V18.9878Z" fill="white"/>
<path d="M173.454 22.5366H159.953V24.005H173.454V22.5366Z" fill="white"/>
</svg>
