<svg width="124" height="45" viewBox="0 0 124 45" fill="none" xmlns="http://www.w3.org/2000/svg">
<rect x="0.984375" y="0.607422" width="123.016" height="43.503" rx="10" fill="#3F2355"/>
<path d="M35.0274 21.4377C35.007 19.0716 37.0187 17.9216 37.107 17.8687C35.9653 16.2561 34.1983 16.0314 33.5799 16.0116C32.0983 15.8596 30.6575 16.8774 29.9032 16.8774C29.1352 16.8774 27.9663 16.0314 26.7158 16.0512C25.1052 16.0777 23.5896 16.9831 22.7673 18.3975C21.0615 21.2725 22.3324 25.5023 23.9702 27.8287C24.7925 28.9655 25.744 30.2411 27.0013 30.1948C28.2246 30.1486 28.6867 29.4348 30.1614 29.4348C31.6294 29.4348 32.0575 30.1948 33.3352 30.1684C34.6536 30.1486 35.476 29.025 36.2711 27.875C37.2157 26.573 37.5963 25.2842 37.6099 25.2181C37.5759 25.2049 35.0546 24.2664 35.0274 21.4377Z" fill="white"/>
<path d="M32.6133 14.483C33.2727 13.6833 33.7214 12.5928 33.599 11.4824C32.6473 11.5221 31.4509 12.1235 30.7644 12.91C30.1594 13.604 29.6156 14.7341 29.7515 15.7982C30.8256 15.8775 31.9268 15.2695 32.6133 14.483Z" fill="white"/>
<path d="M52.7843 30.0293H51.0717L50.1338 27.1609H46.8717L45.9814 30.0293H44.3164L47.5445 20.2676H49.5426L52.7843 30.0293ZM49.8552 25.9581L49.0057 23.4135C48.9173 23.1492 48.7474 22.5411 48.5028 21.5762H48.4688C48.3669 21.9926 48.2106 22.6072 47.9931 23.4135L47.1572 25.9581H49.8552Z" fill="white"/>
<path d="M61.0782 26.424C61.0782 27.6202 60.7452 28.5653 60.0724 29.2593C59.4744 29.8806 58.7268 30.1846 57.8433 30.1846C56.8851 30.1846 56.1987 29.8541 55.7773 29.1866V32.8811H54.1666V25.3004C54.1666 24.547 54.1462 23.7803 54.1055 22.9872H55.5191L55.6074 24.1041H55.6346C56.1715 23.2648 56.987 22.8418 58.0744 22.8418C58.9307 22.8418 59.6375 23.1723 60.2083 23.8266C60.7928 24.4875 61.0782 25.3467 61.0782 26.424ZM59.4404 26.4768C59.4404 25.7895 59.2841 25.2277 58.9647 24.7849C58.6181 24.3222 58.1491 24.0909 57.5647 24.0909C57.1705 24.0909 56.8103 24.2231 56.4841 24.4743C56.1647 24.732 55.9472 25.0625 55.8521 25.4789C55.8045 25.6705 55.7773 25.8291 55.7773 25.9547V27.1311C55.7773 27.64 55.9404 28.0763 56.2598 28.4265C56.5792 28.7768 57.0006 28.9553 57.5171 28.9553C58.1219 28.9553 58.5909 28.724 58.9307 28.2745C59.2705 27.8185 59.4404 27.2237 59.4404 26.4768Z" fill="white"/>
<path d="M69.3985 26.424C69.3985 27.6202 69.0655 28.5653 68.3927 29.2593C67.7947 29.8806 67.0471 30.1846 66.1636 30.1846C65.2054 30.1846 64.519 29.8541 64.0976 29.1866V32.8811H62.4869V25.3004C62.4869 24.547 62.4666 23.7803 62.4258 22.9872H63.8394L63.9277 24.1041H63.9549C64.4918 23.2648 65.3073 22.8418 66.3947 22.8418C67.251 22.8418 67.9578 23.1723 68.5286 23.8266C69.1131 24.4875 69.3985 25.3467 69.3985 26.424ZM67.7607 26.4768C67.7607 25.7895 67.6044 25.2277 67.285 24.7849C66.9384 24.3222 66.4694 24.0909 65.885 24.0909C65.4908 24.0909 65.1306 24.2231 64.8044 24.4743C64.485 24.732 64.2743 25.0625 64.1724 25.4789C64.1248 25.6705 64.0976 25.8291 64.0976 25.9547V27.1311C64.0976 27.64 64.2607 28.0763 64.5801 28.4265C64.8995 28.7768 65.3209 28.9553 65.8374 28.9553C66.4423 28.9553 66.918 28.724 67.251 28.2745C67.5976 27.8185 67.7607 27.2237 67.7607 26.4768Z" fill="white"/>
<path d="M78.7106 27.2913C78.7106 28.124 78.4116 28.7982 77.8203 29.3203C77.1679 29.8887 76.2572 30.1729 75.0883 30.1729C74.0077 30.1729 73.1446 29.968 72.4922 29.5648L72.866 28.2628C73.5728 28.666 74.3475 28.8709 75.1902 28.8709C75.7951 28.8709 76.2708 28.7387 76.6038 28.4743C76.9436 28.21 77.1135 27.8531 77.1135 27.4102C77.1135 27.0137 76.9708 26.6832 76.699 26.4123C76.4203 26.1413 75.9582 25.8901 75.3126 25.6588C73.5388 25.0177 72.6621 24.0858 72.6621 22.8631C72.6621 22.0634 72.9747 21.4091 73.5932 20.8936C74.2116 20.3847 75.0339 20.127 76.0601 20.127C76.9708 20.127 77.732 20.279 78.3368 20.5896L77.929 21.8586C77.3582 21.5611 76.7193 21.4091 75.999 21.4091C75.4349 21.4091 74.9863 21.5479 74.6669 21.8123C74.4019 22.0568 74.266 22.3476 74.266 22.6979C74.266 23.0812 74.4223 23.4051 74.7281 23.6496C74.9931 23.881 75.4825 24.1321 76.1892 24.4031C77.0523 24.7401 77.6844 25.1367 78.0921 25.5927C78.5067 26.0488 78.7106 26.6171 78.7106 27.2913Z" fill="white"/>
<path d="M84.0299 24.1661H82.2557V27.5831C82.2557 28.4489 82.5684 28.8851 83.1938 28.8851C83.4793 28.8851 83.7172 28.8586 83.9075 28.8124L83.9551 30.002C83.6356 30.1144 83.221 30.1739 82.7043 30.1739C82.0654 30.1739 81.5759 29.9822 81.2157 29.6055C80.8554 29.2288 80.6786 28.5943 80.6786 27.7087V24.1595H79.625V22.9897H80.6786V21.7009L82.2557 21.2383V22.9897H84.0299V24.1661Z" fill="white"/>
<path d="M92.018 26.4536C92.018 27.5375 91.6986 28.4231 91.0665 29.117C90.4005 29.8308 89.517 30.1877 88.4161 30.1877C87.3559 30.1877 86.5064 29.8441 85.8743 29.1633C85.2423 28.4826 84.9297 27.6168 84.9297 26.5725C84.9297 25.482 85.2559 24.5898 85.9015 23.8958C86.5539 23.2018 87.4306 22.8516 88.5316 22.8516C89.5918 22.8516 90.4481 23.1952 91.0937 23.8826C91.7122 24.5435 92.018 25.4027 92.018 26.4536ZM90.3529 26.4866C90.3529 25.8389 90.2102 25.2903 89.9248 24.8277C89.585 24.2659 89.1025 23.9883 88.4772 23.9883C87.8316 23.9883 87.3355 24.2659 87.0025 24.8277C86.7103 25.2903 86.5743 25.8521 86.5743 26.5196C86.5743 27.1673 86.7171 27.7225 87.0025 28.1785C87.3491 28.7403 87.8384 29.0179 88.4636 29.0179C89.0753 29.0179 89.5578 28.7337 89.9112 28.1653C90.2034 27.6895 90.3529 27.1343 90.3529 26.4866Z" fill="white"/>
<path d="M97.2486 24.3619C97.0923 24.3355 96.9224 24.3222 96.7388 24.3222C96.1746 24.3222 95.7328 24.5271 95.4269 24.9435C95.1618 25.307 95.0258 25.7763 95.0258 26.3314V30.026H93.4148V25.2013C93.4148 24.3883 93.4012 23.6481 93.3672 22.9872H94.7675L94.8287 24.3355H94.8763C95.0462 23.8728 95.3113 23.4961 95.6784 23.2185C96.0387 22.9674 96.4261 22.8418 96.8408 22.8418C96.9903 22.8418 97.1263 22.855 97.2419 22.8682L97.2486 24.3619Z" fill="white"/>
<path d="M104.432 26.1712C104.432 26.4487 104.412 26.6867 104.371 26.8783H99.5456C99.566 27.5723 99.797 28.1076 100.246 28.4711C100.653 28.795 101.177 28.9602 101.822 28.9602C102.536 28.9602 103.188 28.8479 103.773 28.6298L104.024 29.7137C103.338 30.0045 102.529 30.1499 101.598 30.1499C100.477 30.1499 99.5932 29.826 98.9543 29.1849C98.3155 28.5438 97.9961 27.678 97.9961 26.6008C97.9961 25.5433 98.2951 24.6577 98.8932 23.9505C99.5184 23.197 100.361 22.8203 101.421 22.8203C102.461 22.8203 103.256 23.197 103.786 23.9505C104.214 24.5585 104.432 25.2921 104.432 26.1712ZM102.896 25.768C102.91 25.3054 102.801 24.9022 102.583 24.5651C102.305 24.1289 101.877 23.9108 101.306 23.9108C100.782 23.9108 100.354 24.1223 100.028 24.5453C99.7631 24.8824 99.6 25.2921 99.5524 25.7614L102.896 25.768Z" fill="white"/>
<path d="M49.0771 16.7729H48.2342L47.772 15.3651H46.1677L45.7259 16.7729H44.9102L46.494 11.9746H47.4729L49.0771 16.7729ZM47.6292 14.7703L47.2146 13.5145C47.1738 13.389 47.0922 13.0849 46.963 12.6091H46.9495C46.8951 12.814 46.8271 13.1114 46.7115 13.5145L46.3037 14.7703H47.6292Z" fill="white"/>
<path d="M53.0442 13.3086L51.6983 16.7718H50.9302L49.625 13.3086H50.4747L51.0797 15.1393C51.1817 15.4434 51.27 15.7342 51.338 16.0117H51.3584C51.4196 15.7606 51.508 15.4698 51.6167 15.1393L52.2149 13.3086H53.0442Z" fill="white"/>
<path d="M55.9124 16.7727L55.8512 16.3761H55.8308C55.5861 16.6934 55.2394 16.852 54.7908 16.852C54.1518 16.852 53.7031 16.4158 53.7031 15.8342C53.7031 14.9816 54.4645 14.5388 55.7832 14.5388V14.4727C55.7832 14.0167 55.5317 13.792 55.0423 13.792C54.6888 13.792 54.3829 13.8779 54.111 14.0497L53.9478 13.5474C54.2741 13.3491 54.6888 13.25 55.1714 13.25C56.1027 13.25 56.5717 13.7259 56.5717 14.6842V15.9598C56.5717 16.31 56.5853 16.581 56.6261 16.7859L55.9124 16.7727ZM55.8036 15.0477C54.9267 15.0477 54.4849 15.2526 54.4849 15.7483C54.4849 16.1118 54.7092 16.2902 55.0287 16.2902C55.4297 16.2902 55.8036 15.9928 55.8036 15.583V15.0477Z" fill="white"/>
<path d="M58.3323 12.7429C58.0672 12.7429 57.8633 12.5446 57.8633 12.2803C57.8633 12.0159 58.074 11.8242 58.3459 11.8242C58.6178 11.8242 58.8353 12.0159 58.8285 12.2803C58.8285 12.5578 58.6246 12.7429 58.3323 12.7429ZM57.9517 13.3113H58.7402V16.7679H57.9517V13.3113Z" fill="white"/>
<path d="M60.1445 11.7285H60.9331V16.7713H60.1445V11.7285Z" fill="white"/>
<path d="M64.2913 16.7754L64.2301 16.3788H64.2097C63.965 16.6961 63.6183 16.8547 63.1697 16.8547C62.5307 16.8547 62.082 16.4185 62.082 15.8369C62.082 14.9843 62.8434 14.5415 64.1621 14.5415V14.4754C64.1621 14.0194 63.9106 13.7947 63.4212 13.7947C63.0677 13.7947 62.7618 13.8806 62.4899 14.0524L62.3267 13.5435C62.653 13.3452 63.0677 13.2461 63.5503 13.2461C64.4816 13.2461 64.9506 13.722 64.9506 14.6803V15.9558C64.9506 16.3061 64.9642 16.5771 64.9982 16.782H64.2913V16.7754ZM64.1825 15.0504C63.3056 15.0504 62.8638 15.2553 62.8638 15.751C62.8638 16.1145 63.0881 16.2929 63.4076 16.2929C63.8086 16.2929 64.1825 15.9955 64.1825 15.5857V15.0504Z" fill="white"/>
<path d="M68.1565 16.8572C67.6535 16.8572 67.2796 16.6523 67.0349 16.2426H67.0213L66.9737 16.7779H66.3008C66.3212 16.5003 66.328 16.1897 66.328 15.846V11.7285H67.1233V13.8236H67.1369C67.3748 13.4403 67.7487 13.2486 68.2721 13.2486C69.1286 13.2486 69.7268 13.9624 69.7268 15.0001C69.7268 16.0707 69.0606 16.8572 68.1565 16.8572ZM67.9934 13.8501C67.538 13.8501 67.1233 14.2334 67.1233 14.7687V15.3768C67.1233 15.8526 67.4972 16.2426 67.9798 16.2426C68.5712 16.2426 68.9247 15.7733 68.9247 15.0265C68.9247 14.3259 68.5576 13.8501 67.9934 13.8501Z" fill="white"/>
<path d="M70.8984 11.7285H71.687V16.7713H70.8984V11.7285Z" fill="white"/>
<path d="M75.9892 15.2342H73.6168C73.6304 15.8886 74.079 16.2587 74.7384 16.2587C75.0919 16.2587 75.4114 16.1992 75.6969 16.0934L75.8192 16.6288C75.4862 16.7742 75.0919 16.8403 74.6297 16.8403C73.5148 16.8403 72.8555 16.1595 72.8555 15.0955C72.8555 14.038 73.5284 13.2383 74.5413 13.2383C75.4454 13.2383 76.0232 13.8926 76.0232 14.884C76.0232 15.0228 76.0164 15.1417 75.9892 15.2342ZM75.2686 14.6857C75.2686 14.1503 74.9899 13.7736 74.4869 13.7736C74.0315 13.7736 73.678 14.157 73.6236 14.6857H75.2686Z" fill="white"/>
<path d="M80.7755 16.8547C79.7355 16.8547 79.0625 16.1013 79.0625 15.0768C79.0625 14.0061 79.7491 13.2461 80.8367 13.2461C81.8631 13.2461 82.5497 13.9665 82.5497 15.0173C82.5497 16.0946 81.8427 16.8547 80.7755 16.8547ZM80.8095 13.8079C80.2385 13.8079 79.8714 14.33 79.8714 15.0504C79.8714 15.7642 80.2453 16.2797 80.8027 16.2797C81.3601 16.2797 81.734 15.7245 81.734 15.0306C81.7272 14.33 81.3669 13.8079 80.8095 13.8079Z" fill="white"/>
<path d="M86.8047 16.7742H86.0162V14.7848C86.0162 14.1702 85.7715 13.8662 85.2957 13.8662C84.8266 13.8662 84.5071 14.2561 84.5071 14.7121V16.7676H83.7186V14.3024C83.7186 13.9983 83.7118 13.6679 83.6914 13.311H84.3848L84.4188 13.8463H84.4391C84.6499 13.4762 85.0849 13.2383 85.5676 13.2383C86.3153 13.2383 86.8047 13.7935 86.8047 14.6989V16.7742Z" fill="white"/>
<path d="M91.9713 13.8959H91.1012V15.5746C91.1012 16.0042 91.2575 16.2157 91.5634 16.2157C91.6994 16.2157 91.8217 16.2025 91.9169 16.1826L91.9373 16.7643C91.7809 16.8237 91.577 16.8502 91.3255 16.8502C90.7001 16.8502 90.333 16.5131 90.333 15.6407V13.8959H89.8164V13.3209H90.333V12.6864L91.108 12.4551V13.3143H91.9781V13.8959" fill="white"/>
<path d="M96.1525 16.7779H95.364V14.8018C95.364 14.1805 95.1193 13.8699 94.6435 13.8699C94.2356 13.8699 93.8549 14.1409 93.8549 14.6894V16.7713H93.0664V11.7285H93.8549V13.8038H93.8685C94.12 13.4271 94.4735 13.242 94.9358 13.242C95.6903 13.242 96.1525 13.8104 96.1525 14.7159V16.7779Z" fill="white"/>
<path d="M100.192 15.2342H97.8199C97.8335 15.8886 98.2822 16.2587 98.9415 16.2587C99.295 16.2587 99.6145 16.1992 99.9 16.0934L100.022 16.6288C99.6893 16.7742 99.295 16.8403 98.8328 16.8403C97.718 16.8403 97.0586 16.1595 97.0586 15.0955C97.0586 14.038 97.7316 13.2383 98.7444 13.2383C99.6485 13.2383 100.226 13.8926 100.226 14.884C100.226 15.0228 100.22 15.1417 100.192 15.2342ZM99.4718 14.6857C99.4718 14.1503 99.1931 13.7736 98.69 13.7736C98.2346 13.7736 97.8743 14.157 97.8267 14.6857H99.4718Z" fill="white"/>
</svg>
