<svg width="133" height="45" viewBox="0 0 133 45" fill="none" xmlns="http://www.w3.org/2000/svg">
<rect y="0.607422" width="132.802" height="43.9658" rx="10" fill="#3F2355"/>
<path d="M59.9238 15.7401C59.9238 16.4417 59.7437 17.0557 59.2933 17.4942C58.7529 18.0205 58.1224 18.2836 57.3118 18.2836C56.5011 18.2836 55.8706 18.0205 55.3302 17.4942C54.7897 16.968 54.5195 16.354 54.5195 15.5646C54.5195 14.7753 54.7897 14.1613 55.3302 13.6351C55.8706 13.1088 56.5011 12.8457 57.3118 12.8457C57.672 12.8457 58.0323 12.9334 58.3926 13.1088C58.7529 13.2842 59.0231 13.4597 59.2033 13.7228L58.7529 14.1613C58.3926 13.7228 57.9423 13.5474 57.3118 13.5474C56.7713 13.5474 56.2309 13.7228 55.8706 14.1613C55.4202 14.5121 55.2401 15.0384 55.2401 15.6523C55.2401 16.2663 55.4202 16.7925 55.8706 17.1434C56.321 17.4942 56.7713 17.7573 57.3118 17.7573C57.9423 17.7573 58.3926 17.5819 58.843 17.1434C59.1132 16.8803 59.2933 16.5294 59.2933 16.0909H57.3118V15.3892H59.9238V15.7401ZM64.0671 13.5474H61.6352V15.2138H63.887V15.8278H61.6352V17.4942H64.0671V18.1959H60.9146V12.9334H64.0671V13.5474ZM67.0395 18.1959H66.3189V13.5474H64.7877V12.9334H68.5707V13.5474H67.0395V18.1959ZM71.1828 18.1959V12.9334H71.9034V18.1959H71.1828ZM74.9658 18.1959H74.2453V13.5474H72.714V12.9334H76.407V13.5474H74.8758V18.1959H74.9658ZM83.5226 17.4942C82.9822 18.0205 82.3517 18.2836 81.5411 18.2836C80.7304 18.2836 80.0999 18.0205 79.5595 17.4942C79.0191 16.968 78.7488 16.354 78.7488 15.5646C78.7488 14.7753 79.0191 14.1613 79.5595 13.6351C80.0999 13.1088 80.7304 12.8457 81.5411 12.8457C82.3517 12.8457 82.9822 13.1088 83.5226 13.6351C84.0631 14.1613 84.3333 14.7753 84.3333 15.5646C84.3333 16.354 84.0631 16.968 83.5226 17.4942ZM80.0999 17.0557C80.4602 17.4065 81.0006 17.6696 81.5411 17.6696C82.0815 17.6696 82.6219 17.4942 82.9822 17.0557C83.3425 16.7048 83.6127 16.1786 83.6127 15.5646C83.6127 14.9507 83.4326 14.4244 82.9822 14.0736C82.6219 13.7228 82.0815 13.4597 81.5411 13.4597C81.0006 13.4597 80.4602 13.6351 80.0999 14.0736C79.7396 14.4244 79.4694 14.9507 79.4694 15.5646C79.4694 16.1786 79.6496 16.7048 80.0999 17.0557ZM85.3241 18.1959V12.9334H86.1347L88.7468 17.0557V12.9334H89.4674V18.1959H88.7468L85.9546 13.8982V18.1959H85.3241Z" fill="white" stroke="white" stroke-width="0.370767" stroke-miterlimit="10"/>
<path d="M72.8114 25.384C71.1854 25.384 69.8982 26.5424 69.8982 28.1512C69.8982 29.6957 71.1854 30.9184 72.8114 30.9184C74.4373 30.9184 75.7245 29.76 75.7245 28.1512C75.7245 26.478 74.4373 25.384 72.8114 25.384ZM72.8114 29.76C71.9307 29.76 71.1854 29.0521 71.1854 28.0868C71.1854 27.1215 71.9307 26.4136 72.8114 26.4136C73.6921 26.4136 74.4373 27.0572 74.4373 28.0868C74.4373 29.0521 73.6921 29.76 72.8114 29.76ZM66.5109 25.384C64.8849 25.384 63.5977 26.5424 63.5977 28.1512C63.5977 29.6957 64.8849 30.9184 66.5109 30.9184C68.1368 30.9184 69.424 29.76 69.424 28.1512C69.424 26.478 68.1368 25.384 66.5109 25.384ZM66.5109 29.76C65.6301 29.76 64.8849 29.0521 64.8849 28.0868C64.8849 27.1215 65.6301 26.4136 66.5109 26.4136C67.3916 26.4136 68.1368 27.0572 68.1368 28.0868C68.1368 29.0521 67.3916 29.76 66.5109 29.76ZM58.9909 26.2206V27.379H61.904C61.8363 28.0225 61.5653 28.5373 61.2265 28.8591C60.8201 29.2452 60.1426 29.6957 58.9909 29.6957C57.1617 29.6957 55.8067 28.3443 55.8067 26.6067C55.8067 24.8692 57.2294 23.5177 58.9909 23.5177C59.9393 23.5177 60.6846 23.9039 61.2265 24.3543L62.1073 23.5177C61.362 22.8742 60.4136 22.3594 59.0586 22.3594C56.6197 22.3594 54.5195 24.29 54.5195 26.6067C54.5195 28.9234 56.6197 30.854 59.0586 30.854C60.4136 30.854 61.362 30.4679 62.175 29.6313C62.988 28.8591 63.259 27.7651 63.259 26.9285C63.259 26.6711 63.259 26.4136 63.1912 26.2206H58.9909ZM89.7483 27.1215C89.4773 26.478 88.7998 25.384 87.3094 25.384C85.8189 25.384 84.5995 26.478 84.5995 28.1512C84.5995 29.6957 85.8189 30.9184 87.4449 30.9184C88.7321 30.9184 89.545 30.1462 89.816 29.6957L88.8676 29.0521C88.5288 29.5026 88.1223 29.8244 87.4449 29.8244C86.7674 29.8244 86.3609 29.567 86.0222 28.9878L89.8838 27.4433L89.7483 27.1215ZM85.8189 28.0225C85.8189 26.9928 86.6996 26.4136 87.3094 26.4136C87.7836 26.4136 88.2578 26.6711 88.3933 26.9928L85.8189 28.0225ZM82.6348 30.661H83.922V22.6168H82.6348V30.661ZM80.6024 25.9632C80.2636 25.6414 79.7216 25.3196 79.0442 25.3196C77.6215 25.3196 76.2665 26.5424 76.2665 28.0868C76.2665 29.6313 77.5537 30.7897 79.0442 30.7897C79.7216 30.7897 80.2636 30.4679 80.5346 30.1462H80.6024V30.5323C80.6024 31.5619 79.9926 32.1411 79.0442 32.1411C78.2989 32.1411 77.757 31.6263 77.6215 31.1758L76.5375 31.6263C76.8762 32.3342 77.6892 33.2351 79.1119 33.2351C80.6024 33.2351 81.8218 32.3985 81.8218 30.4036V25.5127H80.6024V25.9632ZM79.1119 29.76C78.2312 29.76 77.486 29.0521 77.486 28.0868C77.486 27.1215 78.2312 26.4136 79.1119 26.4136C79.9926 26.4136 80.6701 27.1215 80.6701 28.0868C80.6701 29.0521 79.9926 29.76 79.1119 29.76ZM95.6423 22.6168H92.5937V30.661H93.8809V27.6364H95.6423C97.065 27.6364 98.42 26.6711 98.42 25.1266C98.42 23.5821 97.065 22.6168 95.6423 22.6168ZM95.7101 26.478H93.8809V23.7108H95.7101C96.6585 23.7108 97.2005 24.483 97.2005 25.0622C97.1328 25.7701 96.5908 26.478 95.7101 26.478ZM103.501 25.3196C102.553 25.3196 101.604 25.7058 101.265 26.5424L102.417 26.9928C102.688 26.5424 103.095 26.4136 103.569 26.4136C104.246 26.4136 104.856 26.7998 104.924 27.4433V27.5077C104.721 27.379 104.179 27.1859 103.637 27.1859C102.417 27.1859 101.198 27.8294 101.198 28.9878C101.198 30.0818 102.214 30.7897 103.298 30.7897C104.179 30.7897 104.585 30.4036 104.924 30.0174H104.992V30.661H106.211V27.572C106.075 26.1562 104.924 25.3196 103.501 25.3196ZM103.366 29.76C102.959 29.76 102.349 29.567 102.349 29.0521C102.349 28.4086 103.095 28.2155 103.704 28.2155C104.246 28.2155 104.517 28.3443 104.856 28.473C104.721 29.2452 104.043 29.76 103.366 29.76ZM110.479 25.5127L109.056 28.9878H108.989L107.498 25.5127H106.143L108.379 30.4036L107.092 33.1064H108.379L111.834 25.5127H110.479ZM99.0975 30.661H100.385V22.6168H99.0975V30.661Z" fill="white"/>
<path d="M21.3804 10.4727C21.0746 10.7701 20.9727 11.2658 20.9727 11.8606V33.77C20.9727 34.3648 21.1765 34.8605 21.4824 35.1579L21.5843 35.257L34.225 22.964V22.7657L21.3804 10.4727Z" fill="url(#paint0_linear)"/>
<path d="M38.3046 27.1337L34.125 23.0691V22.7717L38.3046 18.707L38.4065 18.8062L43.4016 21.582C44.8288 22.3751 44.8288 23.6639 43.4016 24.457L38.3046 27.1337Z" fill="url(#paint1_linear)"/>
<path d="M38.407 27.029L34.1254 22.8652L21.3828 35.2574C21.8925 35.7531 22.6061 35.7531 23.5236 35.3566L38.407 27.029Z" fill="url(#paint2_linear)"/>
<path d="M38.407 18.7027L23.5236 10.4743C22.6061 9.97864 21.8925 10.0778 21.3828 10.5735L34.1254 22.8665L38.407 18.7027Z" fill="url(#paint3_linear)"/>
<path opacity="0.2" d="M38.305 26.9277L23.5236 35.057C22.708 35.5527 21.9945 35.4536 21.4848 35.057L21.3828 35.1561L21.4848 35.2553C21.9945 35.6518 22.708 35.751 23.5236 35.2553L38.305 26.9277Z" fill="white"/>
<path opacity="0.2" d="M21.3804 35.0591C21.0746 34.7617 20.9727 34.266 20.9727 33.6712V33.7704C20.9727 34.3652 21.1765 34.8609 21.4824 35.1583V35.0591H21.3804ZM43.3997 24.154L38.3026 26.9299L38.4046 27.029L43.3997 24.2532C44.1133 23.8566 44.4191 23.3609 44.4191 22.8652C44.4191 23.3609 44.0113 23.7575 43.3997 24.154Z" fill="white"/>
<path opacity="0.2" d="M23.5212 10.5759L43.3997 21.5801C44.0113 21.9767 44.4191 22.3732 44.4191 22.8689C44.4191 22.3732 44.1133 21.8775 43.3997 21.481L23.5212 10.4767C22.094 9.68362 20.9727 10.2784 20.9727 11.8646V11.9638C20.9727 10.4767 22.094 9.78276 23.5212 10.5759Z" fill="white"/>
<defs>
<linearGradient id="paint0_linear" x1="33.0017" y1="11.6722" x2="16.3699" y2="28.7733" gradientUnits="userSpaceOnUse">
<stop stop-color="#00A0FF"/>
<stop offset="0.007" stop-color="#00A1FF"/>
<stop offset="0.26" stop-color="#00BEFF"/>
<stop offset="0.512" stop-color="#00D2FF"/>
<stop offset="0.76" stop-color="#00DFFF"/>
<stop offset="1" stop-color="#00E3FF"/>
</linearGradient>
<linearGradient id="paint1_linear" x1="45.2712" y1="22.8718" x2="20.6046" y2="22.8718" gradientUnits="userSpaceOnUse">
<stop stop-color="#FFE000"/>
<stop offset="0.409" stop-color="#FFBD00"/>
<stop offset="0.775" stop-color="#FFA500"/>
<stop offset="1" stop-color="#FF9C00"/>
</linearGradient>
<linearGradient id="paint2_linear" x1="36.0898" y1="25.1414" x2="13.5369" y2="48.3321" gradientUnits="userSpaceOnUse">
<stop stop-color="#FF3A44"/>
<stop offset="1" stop-color="#C31162"/>
</linearGradient>
<linearGradient id="paint3_linear" x1="18.2196" y1="3.2135" x2="28.291" y2="13.5697" gradientUnits="userSpaceOnUse">
<stop stop-color="#32A071"/>
<stop offset="0.069" stop-color="#2DA771"/>
<stop offset="0.476" stop-color="#15CF74"/>
<stop offset="0.801" stop-color="#06E775"/>
<stop offset="1" stop-color="#00F076"/>
</linearGradient>
</defs>
</svg>
