<svg width="69" height="24" viewBox="0 0 69 24" fill="none" xmlns="http://www.w3.org/2000/svg">
<g clip-path="url(#clip0_13603:4006)">
<path d="M29.2041 12.14C29.2041 15.3413 26.6836 17.7002 23.5903 17.7002C20.4971 17.7002 17.9766 15.3413 17.9766 12.14C17.9766 8.91622 20.4971 6.57983 23.5903 6.57983C26.6836 6.57983 29.2041 8.91622 29.2041 12.14ZM26.7466 12.14C26.7466 10.1396 25.2858 8.77082 23.5903 8.77082C21.8948 8.77082 20.434 10.1396 20.434 12.14C20.434 14.1204 21.8948 15.5092 23.5903 15.5092C25.2858 15.5092 26.7466 14.1179 26.7466 12.14Z" fill="#EA4335"/>
<path d="M41.3147 12.14C41.3147 15.3413 38.7942 17.7002 35.7009 17.7002C32.6077 17.7002 30.0872 15.3413 30.0872 12.14C30.0872 8.91873 32.6077 6.57983 35.7009 6.57983C38.7942 6.57983 41.3147 8.91622 41.3147 12.14ZM38.8572 12.14C38.8572 10.1396 37.3964 8.77082 35.7009 8.77082C34.0054 8.77082 32.5446 10.1396 32.5446 12.14C32.5446 14.1204 34.0054 15.5092 35.7009 15.5092C37.3964 15.5092 38.8572 14.1179 38.8572 12.14Z" fill="#FBBC05"/>
<path d="M52.9207 6.91575V16.898C52.9207 21.0043 50.4834 22.6813 47.6021 22.6813C44.8899 22.6813 43.2575 20.8789 42.6418 19.4049L44.7814 18.52C45.1624 19.4249 46.0959 20.4929 47.5996 20.4929C49.444 20.4929 50.5869 19.3623 50.5869 17.234V16.4343H50.5011C49.9511 17.1086 48.8914 17.6977 47.5542 17.6977C44.7562 17.6977 42.1927 15.2761 42.1927 12.1601C42.1927 9.02151 44.7562 6.57983 47.5542 6.57983C48.8889 6.57983 49.9486 7.16894 50.5011 7.82323H50.5869V6.91826H52.9207V6.91575ZM50.761 12.1601C50.761 10.2022 49.4465 8.77082 47.7737 8.77082C46.0782 8.77082 44.6578 10.2022 44.6578 12.1601C44.6578 14.0979 46.0782 15.5092 47.7737 15.5092C49.4465 15.5092 50.761 14.0979 50.761 12.1601Z" fill="#4285F4"/>
<path d="M56.7683 1.0647V17.3592H54.3715V1.0647H56.7683Z" fill="#34A853"/>
<path d="M66.1086 13.97L68.0161 15.2334C67.4004 16.1384 65.9169 17.6977 63.3535 17.6977C60.1745 17.6977 57.8003 15.256 57.8003 12.1375C57.8003 8.83093 60.1947 6.57727 63.0785 6.57727C65.9825 6.57727 67.403 8.87355 67.8672 10.1144L68.122 10.7462L60.6412 13.8246C61.214 14.9401 62.1046 15.5092 63.3535 15.5092C64.6049 15.5092 65.4728 14.8975 66.1086 13.97ZM60.2375 11.9695L65.2382 9.90637C64.9632 9.21197 64.1356 8.72815 63.1617 8.72815C61.9128 8.72815 60.1745 9.82364 60.2375 11.9695Z" fill="#EA4335"/>
<path d="M8.90379 10.6936V8.33464H16.9043C16.9825 8.74577 17.0229 9.2321 17.0229 9.75854C17.0229 11.5284 16.536 13.7169 14.9666 15.2761C13.4402 16.8554 11.4899 17.6977 8.90631 17.6977C4.11759 17.6977 0.0908203 13.8221 0.0908203 9.06414C0.0908203 4.30613 4.11759 0.430542 8.90631 0.430542C11.5555 0.430542 13.4427 1.46336 14.8607 2.80954L13.1854 4.47409C12.1686 3.5265 10.791 2.78949 8.90379 2.78949C5.40686 2.78949 2.67189 5.58964 2.67189 9.06414C2.67189 12.5386 5.40686 15.3388 8.90379 15.3388C11.172 15.3388 12.4638 14.4338 13.2913 13.6116C13.9625 12.9447 14.404 11.9921 14.5781 10.6911L8.90379 10.6936Z" fill="#4285F4"/>
</g>
<defs>
<clipPath id="clip0_13603:4006">
<rect width="68.6266" height="23.063" fill="white" transform="translate(0 0.312622)"/>
</clipPath>
</defs>
</svg>
