<svg width="28" height="28" viewBox="0 0 28 28" fill="none" xmlns="http://www.w3.org/2000/svg">
<circle cx="13.75" cy="13.75" r="12.5" stroke="#644E77" stroke-width="2.5"/>
<path d="M20.0736 11.6682H19.8013L18.9888 8.66111C18.8837 8.27202 18.5144 8 18.0915 8H8.9086C8.48558 8 8.11635 8.27208 8.01123 8.66111L7.19878 11.6682H6.92646C6.41481 11.6682 6 12.0621 6 12.5479V17.1572C6 17.6431 6.41481 18.037 6.92646 18.037H7.85305V18.7869C7.85305 19.2728 8.26786 19.6667 8.77951 19.6667C9.29117 19.6667 9.70598 19.2728 9.70598 18.7869V18.037H17.294V18.7869C17.294 19.2728 17.7088 19.6667 18.2205 19.6667C18.7321 19.6667 19.147 19.2728 19.147 18.7869V18.037H20.0735C20.5852 18.037 21 17.6431 21 17.1572V12.5479C21.0001 12.0621 20.5853 11.6682 20.0736 11.6682ZM9.62741 9.75952H17.3727L17.8884 11.6682H9.11168L9.62741 9.75952ZM19.1471 16.2775H7.85293V13.4277H7.91753H19.0825H19.1471V16.2775Z" fill="#644E77"/>
<path d="M9.33333 15.5002C9.79357 15.5002 10.1667 15.1271 10.1667 14.6668C10.1667 14.2066 9.79357 13.8335 9.33333 13.8335C8.8731 13.8335 8.5 14.2066 8.5 14.6668C8.5 15.1271 8.8731 15.5002 9.33333 15.5002Z" fill="#644E77"/>
<path d="M17.6666 15.5002C18.1268 15.5002 18.4999 15.1271 18.4999 14.6668C18.4999 14.2066 18.1268 13.8335 17.6666 13.8335C17.2063 13.8335 16.8333 14.2066 16.8333 14.6668C16.8333 15.1271 17.2063 15.5002 17.6666 15.5002Z" fill="#644E77"/>
</svg>
