<svg width="24" height="24" viewBox="0 0 24 24" fill="none" xmlns="http://www.w3.org/2000/svg">
<circle cx="11.915" cy="11.915" r="10.865" fill="#644E77" stroke="#644E77" stroke-width="2.1"/>
<path d="M17.3946 10.1108H17.1587L16.4546 7.50501C16.3635 7.16785 16.0435 6.93213 15.677 6.93213H7.71965C7.35309 6.93213 7.03313 7.1679 6.94204 7.50501L6.23802 10.1108H6.00204C5.55867 10.1108 5.19922 10.4521 5.19922 10.8731V14.8673C5.19922 15.2883 5.55867 15.6296 6.00204 15.6296H6.80497V16.2795C6.80497 16.7005 7.16442 17.0418 7.60779 17.0418C8.05117 17.0418 8.41062 16.7005 8.41062 16.2795V15.6296H14.986V16.2795C14.986 16.7005 15.3455 17.0418 15.7888 17.0418C16.2322 17.0418 16.5916 16.7005 16.5916 16.2795V15.6296H17.3946C17.8379 15.6296 18.1974 15.2883 18.1974 14.8673V10.8731C18.1975 10.4521 17.838 10.1108 17.3946 10.1108ZM8.34254 8.45683H15.0541L15.501 10.1108H7.89563L8.34254 8.45683Z" fill="white"/>
<path d="M8.08736 13.4315C8.48617 13.4315 8.80948 13.1082 8.80948 12.7094C8.80948 12.3106 8.48617 11.9873 8.08736 11.9873C7.68854 11.9873 7.36523 12.3106 7.36523 12.7094C7.36523 13.1082 7.68854 13.4315 8.08736 13.4315Z" fill="#644E77"/>
<path d="M15.3081 13.4315C15.7069 13.4315 16.0302 13.1082 16.0302 12.7094C16.0302 12.3106 15.7069 11.9873 15.3081 11.9873C14.9092 11.9873 14.5859 12.3106 14.5859 12.7094C14.5859 13.1082 14.9092 13.4315 15.3081 13.4315Z" fill="#644E77"/>
</svg>
