<svg width="12" height="11" viewBox="0 0 12 11" fill="none" xmlns="http://www.w3.org/2000/svg">
<path d="M-nan -nanL10.3789 1.80414C10.1306 1.5492 9.83573 1.34697 9.51123 1.20899C9.18673 1.07102 8.83892 1 8.48767 1C8.13642 1 7.78861 1.07102 7.46411 1.20899C7.13961 1.34697 6.84478 1.5492 6.59646 1.80414V1.80414C6.31403 2.09397 5.84821 2.09397 5.56578 1.80414V1.80414C5.0642 1.28943 4.38391 1.00027 3.67457 1.00027C2.96523 1.00027 2.28494 1.28943 1.78336 1.80414C1.28178 2.31885 1 3.01694 1 3.74485C1 4.47276 1.28178 5.17085 1.78336 5.68556L2.29871 6.21439V6.21439C4.37168 8.34163 7.79056 8.34163 9.86353 6.21439V6.21439L10.3789 5.68556C10.6273 5.43075 10.8244 5.1282 10.9588 4.79521C11.0933 4.46221 11.1625 4.1053 11.1625 3.74485C11.1625 3.3844 11.0933 3.02749 10.9588 2.69449C10.8244 2.3615 10.6273 2.05895 10.3789 1.80414L-nan -nanL-nan -nanZ" stroke="#3F2355" stroke-width="1.355" stroke-linecap="round" stroke-linejoin="round"/>
</svg>
