<svg width="1920" height="768" viewBox="0 0 1920 768" fill="none" xmlns="http://www.w3.org/2000/svg">
<path opacity="0.4" d="M2225.69 581.736C2094.3 501.4 1792.11 380.381 1634.45 538.996C1437.36 737.264 1191.83 763.823 996.325 530.681C856.843 364.348 651.571 21.715 482.984 144C314.397 266.285 268.484 492.667 138.984 597.5C39.2568 678.232 -81.1058 568.674 -224.761 440.453C-368.416 312.232 -527.505 226.751 -716.275 427.393C-826.778 544.845 -1157.93 549.678 -1216.1 549.678" stroke="#FAB799"/>
<path opacity="0.4" d="M2243.5 409.22C2112.12 328.884 1823.47 185.563 1638.02 384.636C1427.88 610.208 1208.88 664.839 1007.59 409.226C846.133 204.185 591.484 -44.5 451.984 72.5C312.484 189.5 238.381 401.153 156.349 499.814C68.4937 605.478 -70.4127 584.107 -214.068 455.886C-357.723 327.665 -552.381 220.153 -694.897 419.082C-808.872 578.171 -1146.05 628.035 -1204.22 628.035" stroke="#A8CAF8"/>
<path opacity="0.4" d="M2229.25 507.759C2097.86 427.423 1849.97 295.716 1639.2 467.757C1361.38 694.518 1186.61 700.699 989.779 441.638C828.315 229.123 621.737 -5.94878 453.15 116.336C284.563 238.621 225.885 521.017 109.484 575C27.5653 612.991 -71.6074 529.493 -195.08 455.885C-360.474 357.284 -525.74 232.684 -681.845 442.825C-805.317 609.038 -1156.74 663.65 -1214.91 663.65" stroke="#AFA5BB"/>
<path opacity="0.4" d="M2262.49 300.345C2121.21 235.411 1837.46 116.323 1660.57 280.162C1397.46 523.839 1281.84 630.391 1000.46 332.4C808.138 128.716 601.554 -85.5111 432.967 36.7739C264.379 159.059 210.954 527.079 38.8053 537.768C-51.3211 543.364 -106.037 497.435 -230.697 426.204C-397.883 330.673 -496.637 233.874 -724.585 448.759C-830.003 548.135 -1091.44 566.299 -1207.79 576.984" stroke="#C9EE9F"/>
<circle cx="852.621" cy="758.638" r="6.63722" transform="rotate(-180 852.621 758.638)" fill="#FA6300" stroke="white" stroke-width="4"/>
<circle cx="75.1253" cy="35.4163" r="14.6833" transform="rotate(-180 75.1253 35.4163)" fill="#64BFCA"/>
<circle cx="255.646" cy="67.3766" r="12.0921" transform="rotate(-180 255.646 67.3766)" fill="#FA6300"/>
<circle cx="1421.98" cy="162" r="12" transform="rotate(-180 1421.98 162)" fill="#5DBB2C"/>
<circle cx="1559.87" cy="665.068" r="5.18233" transform="rotate(-180 1559.87 665.068)" fill="#FA6300"/>
<circle cx="971.279" cy="420.027" r="5.18233" transform="rotate(-180 971.279 420.027)" fill="#FA6300"/>
<rect x="1501.55" y="570.553" width="24.1842" height="24.1842" transform="rotate(-82.6775 1501.55 570.553)" fill="#32C5FF"/>
<rect x="-17.3359" y="230.01" width="85.9272" height="87.9314" transform="rotate(-139.639 -17.3359 230.01)" fill="#FB5100" fill-opacity="0.19"/>
<rect x="-17.3477" y="207.551" width="54.4008" height="53.5152" transform="rotate(-139.639 -17.3477 207.551)" fill="#3F2355" fill-opacity="0.2"/>
<rect x="1895.46" y="659.648" width="85.9272" height="87.9314" transform="rotate(-139.639 1895.46 659.648)" fill="#FFCD00" fill-opacity="0.2"/>
<rect x="1895.45" y="637.189" width="54.4008" height="53.5152" transform="rotate(-139.639 1895.45 637.189)" fill="#00BB96" fill-opacity="0.1"/>
<rect x="1893.66" y="616.41" width="24.1842" height="24.1842" transform="rotate(-139.639 1893.66 616.41)" fill="white" fill-opacity="0.9"/>
</svg>
