<svg width="19" height="19" viewBox="0 0 19 19" fill="none" xmlns="http://www.w3.org/2000/svg">
<mask id="path-1-inside-1" fill="white">
<path d="M7.50291 11.6905L5.56341 9.75095C5.27056 9.4581 4.79575 9.4581 4.50291 9.75095V9.75095C4.21006 10.0438 4.21006 10.5186 4.50291 10.8115L5.73778 12.0463L6.87473 13.1833C7.22166 13.5302 7.78415 13.5302 8.13108 13.1833L14.2529 7.06145C14.5458 6.7686 14.5458 6.2938 14.2529 6.00095V6.00095C13.9601 5.7081 13.4853 5.7081 13.1924 6.00095L7.50291 11.6905Z"/>
</mask>
<path d="M7.50291 11.6905L5.56341 9.75095C5.27056 9.4581 4.79575 9.4581 4.50291 9.75095V9.75095C4.21006 10.0438 4.21006 10.5186 4.50291 10.8115L5.73778 12.0463L6.87473 13.1833C7.22166 13.5302 7.78415 13.5302 8.13108 13.1833L14.2529 7.06145C14.5458 6.7686 14.5458 6.2938 14.2529 6.00095V6.00095C13.9601 5.7081 13.4853 5.7081 13.1924 6.00095L7.50291 11.6905Z" fill="white"/>
<path d="M7.50291 11.6905L6.24656 12.9468L7.50291 14.2031L8.75925 12.9468L7.50291 11.6905ZM13.1924 6.00095L11.9361 4.74461L13.1924 6.00095ZM6.87473 13.1833L5.61839 14.4396L6.87473 13.1833ZM4.50291 10.8115L3.24656 12.0678L4.50291 10.8115ZM5.56341 9.75095L4.30706 11.0073L5.56341 9.75095ZM8.75925 10.4341L6.81975 8.49461L4.30706 11.0073L6.24656 12.9468L8.75925 10.4341ZM9.38742 14.4396L15.5092 8.3178L12.9966 5.80511L6.87473 11.9269L9.38742 14.4396ZM11.9361 4.74461L6.24656 10.4341L8.75925 12.9468L14.4487 7.2573L11.9361 4.74461ZM3.24656 12.0678L4.48144 13.3027L6.99413 10.79L5.75925 9.55511L3.24656 12.0678ZM4.48144 13.3027L5.61839 14.4396L8.13108 11.9269L6.99413 10.79L4.48144 13.3027ZM15.5092 4.74461C14.5225 3.7579 12.9228 3.7579 11.9361 4.74461L14.4487 7.2573C14.0477 7.65831 13.3976 7.65831 12.9966 7.2573L15.5092 4.74461ZM15.5092 8.3178C16.496 7.33109 16.496 5.73131 15.5092 4.74461L12.9966 7.2573C12.5955 6.85629 12.5955 6.20612 12.9966 5.80511L15.5092 8.3178ZM6.87473 11.9269C7.22166 11.58 7.78415 11.58 8.13108 11.9269L5.61839 14.4396C6.65918 15.4804 8.34663 15.4804 9.38742 14.4396L6.87473 11.9269ZM3.24656 8.49461C2.25985 9.48132 2.25985 11.0811 3.24656 12.0678L5.75925 9.55511C6.16026 9.95612 6.16026 10.6063 5.75925 11.0073L3.24656 8.49461ZM6.81975 8.49461C5.83304 7.5079 4.23327 7.5079 3.24656 8.49461L5.75925 11.0073C5.35824 11.4083 4.70807 11.4083 4.30706 11.0073L6.81975 8.49461Z" fill="white" mask="url(#path-1-inside-1)"/>
</svg>
