<svg width="176" height="109" viewBox="0 0 176 109" fill="none" xmlns="http://www.w3.org/2000/svg">
<path d="M24.6462 63.8421C24.9939 65.0172 25.5665 66.5458 25.5283 67.755C25.0703 68.1169 24.6801 68.3894 24.3748 68.6066C24.2136 67.4697 23.8913 65.2003 23.5859 63.3184C23.9523 63.4652 24.3067 63.6403 24.6462 63.8421Z" fill="white"/>
<path d="M149.017 49.3906C149.28 51.5579 149.615 52.7969 149.959 53.5633C149.208 53.3376 148.61 53.163 148.19 53.0438C148.053 53.0049 147.931 52.9257 147.838 52.8165C147.746 52.7073 147.689 52.573 147.673 52.4307C147.608 51.8564 147.423 51.3023 147.131 50.8042C146.838 50.3062 146.445 49.8753 145.977 49.5396C146.992 49.563 148.009 49.5132 149.017 49.3906Z" fill="white"/>
<path d="M144.395 65.4473C145.932 65.4421 147.466 65.2996 148.979 65.0215C148.56 66.0372 148.275 67.1036 148.131 68.1936C147.283 68.3468 146.188 68.5171 144.819 68.696C144.716 68.7077 144.617 68.738 144.526 68.7854C144.641 67.6721 144.597 66.548 144.395 65.4473Z" fill="white"/>
<path d="M63.0398 69.4401C62.8435 69.4405 62.6524 69.5034 62.4939 69.6197C62.3355 69.7359 62.2177 69.8996 62.1577 70.0873L61.4961 69.9382C61.7425 68.7615 61.8054 67.5535 61.6827 66.3574H121.124C121.083 66.7606 121.063 67.1656 121.065 67.5709C121.069 68.8337 121.277 70.0875 121.68 71.2837L121.612 71.305L120.484 69.8275C120.469 69.8044 120.452 69.783 120.433 69.7637C120.319 69.607 120.157 69.4919 119.971 69.4359C119.786 69.3798 119.588 69.3857 119.406 69.4528L63.0398 69.4401Z" fill="white"/>
<path d="M151.704 56.1177V61.2653C150.819 62.0116 150.078 62.9151 149.52 63.9307C148.96 64.1223 147.535 64.4544 144.201 64.5226C143.522 61.9212 141.979 59.6307 139.826 58.0302C137.674 56.4297 135.041 55.6152 132.365 55.7214C129.688 55.8277 127.128 56.8485 125.108 58.6147C123.089 60.3809 121.73 62.7867 121.258 65.4337H102.352C103.675 63.1686 105.46 59.8347 105.545 58.2253C105.672 55.7387 103.849 50.1354 103.764 49.9012L103.713 49.765L102.402 49.0497C102.558 49.0113 102.711 48.963 102.86 48.9049C103.072 48.8186 103.262 48.6853 103.416 48.515C103.569 48.3447 103.682 48.1418 103.747 47.9214L105.579 47.6446C105.714 47.6265 105.838 47.5625 105.932 47.4633C106.025 47.3641 106.082 47.2357 106.092 47.0996L106.478 42.8418L128.747 47.8107C128.885 47.848 129.028 47.8638 129.171 47.8575H129.201C133.692 47.7638 139.413 47.9682 142.573 48.7729L143.879 49.352C146.224 50.3866 146.682 51.7619 146.746 52.49C146.776 52.82 146.906 53.1329 147.117 53.3875C147.328 53.6422 147.611 53.8265 147.929 53.9164C148.536 54.0909 149.524 54.3805 150.788 54.7679L150.953 54.819C151.248 55.2243 151.499 55.6596 151.704 56.1177Z" fill="white"/>
<path d="M103.11 50.2671C103.394 51.1527 104.925 56.045 104.807 58.1866C104.726 59.728 102.796 63.2321 101.499 65.4249H67.2445C66.2775 57.3351 67.7407 53.635 68.0036 53.0517C68.2157 52.9197 68.7458 52.5834 69.4201 52.0937C69.6905 52.312 70.0273 52.4307 70.3743 52.4301C70.8875 52.4301 71.5999 52.4045 72.4651 52.3577C72.5787 52.4682 72.731 52.5294 72.8892 52.528H77.8172C77.9379 52.5283 78.0559 52.4928 78.1565 52.4258C78.4012 52.2629 78.6337 52.0822 78.852 51.8851C86.7317 51.2038 97.3256 50.0329 101.329 49.2793L103.11 50.2671ZM100.812 52.5323C100.811 52.4099 100.761 52.293 100.675 52.2068C100.588 52.1207 100.471 52.0724 100.349 52.0724H95.4426C95.3282 52.0835 95.222 52.1369 95.1447 52.2223C95.0674 52.3077 95.0246 52.419 95.0246 52.5344C95.0246 52.6498 95.0674 52.7611 95.1447 52.8465C95.222 52.9319 95.3282 52.9853 95.4426 52.9964H100.349C100.471 52.9942 100.588 52.9446 100.674 52.858C100.76 52.7714 100.81 52.6547 100.812 52.5323Z" fill="white"/>
<path d="M38.2361 67.5715C38.2386 68.4196 38.3339 69.2649 38.5203 70.0921L38.1216 70.1816C38.078 69.973 37.9646 69.7858 37.8002 69.651C37.6359 69.5162 37.4305 69.442 37.2183 69.4407H25.28C26.2175 68.8016 27.0935 68.0761 27.8966 67.2735C27.9665 67.2039 28.0184 67.1183 28.048 67.0241C28.0775 66.9299 28.0838 66.8299 28.0663 66.7327C27.4853 63.4755 24.4233 62.2535 23.3546 61.9214C23.2867 61.5467 23.2231 61.2104 23.168 60.9336C24.9025 58.9793 36.0605 51.9922 53.3085 51.5664C53.4687 51.6692 53.6573 51.7184 53.8471 51.7069C58.6821 51.4821 63.5265 51.5646 68.3512 51.9539C67.8635 52.286 67.5454 52.4776 67.5369 52.4818L67.4479 52.5372L67.4012 52.6266C67.3037 52.8012 65.4334 56.4586 66.5106 65.4298H61.5614L61.5232 65.2297C60.9928 62.5305 59.5398 60.1022 57.4153 58.3643C55.2909 56.6265 52.6285 55.6884 49.8882 55.7121C47.148 55.7358 44.5021 56.7199 42.4078 58.4943C40.3135 60.2687 38.9024 62.7218 38.4185 65.4298H32.655C32.5909 65.4237 32.5261 65.431 32.465 65.4514C32.4039 65.4718 32.3476 65.5048 32.2999 65.5483C32.2522 65.5918 32.2141 65.6448 32.1881 65.704C32.162 65.7631 32.1485 65.8271 32.1485 65.8918C32.1485 65.9565 32.162 66.0205 32.1881 66.0796C32.2141 66.1388 32.2522 66.1918 32.2999 66.2353C32.3476 66.2788 32.4039 66.3118 32.465 66.3322C32.5261 66.3526 32.5909 66.36 32.655 66.3538H38.2912C38.2531 66.7583 38.2361 67.167 38.2361 67.5715Z" fill="white"/>
<path d="M148.98 65.0215C149.139 64.6488 149.317 64.2849 149.515 63.9315C149.627 63.8963 149.734 63.8462 149.833 63.7824C149.877 63.7417 149.928 63.7101 149.984 63.6896C150.04 63.669 150.1 63.6598 150.159 63.6626C150.219 63.6654 150.277 63.68 150.331 63.7057C150.385 63.7314 150.433 63.7676 150.473 63.8122C150.555 63.905 150.598 64.0264 150.593 64.1504C150.587 64.2744 150.534 64.3914 150.444 64.4764C150.367 64.5531 150.041 64.7958 148.98 65.0215Z" fill="#3F2355"/>
<path d="M153.025 55.4704L151.201 53.9674C150.798 53.6395 150.323 50.8677 150.132 48.4833L150.077 47.8574L150.153 47.9128C150.342 48.0577 150.5 48.2397 150.616 48.4475C150.733 48.6554 150.806 48.8848 150.832 49.122C151.256 52.5666 151.79 53.0903 151.812 53.1116C152.588 53.6566 153.271 55.1255 153.457 55.5598L153.538 55.7386V62.2062L153.152 62.483C152.304 63.1089 150.242 64.9994 149.865 69.0656L149.806 69.7426L149.144 69.8873C148.224 70.0875 146.841 70.3131 145.039 70.543H144.916C144.791 70.5428 144.667 70.5166 144.552 70.466C144.438 70.4155 144.335 70.3417 144.25 70.2493C144.369 69.769 144.454 69.281 144.504 68.7888C144.596 68.7415 144.695 68.7112 144.797 68.6994C146.167 68.5206 147.274 68.3503 148.109 68.197C148.253 67.107 148.538 66.0407 148.957 65.0249C150.018 64.7992 150.344 64.5566 150.425 64.4799C150.515 64.3949 150.568 64.2779 150.574 64.1539C150.58 64.0298 150.537 63.9085 150.455 63.8157C150.415 63.7711 150.366 63.7349 150.313 63.7092C150.259 63.6835 150.2 63.6688 150.141 63.6661C150.081 63.6633 150.021 63.6724 149.965 63.693C149.909 63.7136 149.858 63.7452 149.814 63.7859C149.715 63.8496 149.608 63.8997 149.496 63.9349C150.055 62.9193 150.795 62.0157 151.68 61.2695V56.1176C151.479 55.6674 151.231 55.2394 150.942 54.8402L153.025 55.4704Z" fill="#3F2355"/>
<path d="M145.891 49.4633C147.031 49.4845 148.169 49.3716 149.283 49.127C149.393 50.6343 149.649 52.1273 150.047 53.5849H149.979C149.635 52.8312 149.3 51.5795 149.037 49.4122C148.029 49.5348 147.012 49.5846 145.997 49.5613C145.95 49.5102 145.916 49.4889 145.891 49.4633Z" fill="#3F2355"/>
<path d="M149.499 48.1135C149.499 48.1135 148.227 48.6159 145.258 48.5393C145.312 48.4013 145.312 48.2484 145.258 48.1104C145.205 47.9725 145.102 47.8597 144.97 47.7941C144.902 47.7558 144.83 47.7218 144.758 47.6877L144.783 47.6409V47.6153L144.843 47.6451C146.173 47.7446 147.509 47.7132 148.833 47.5514C149.269 47.4912 149.712 47.5993 150.072 47.8537L149.499 48.1135Z" fill="#3F2355"/>
<path d="M144.681 49.4847C145.126 49.5145 145.559 49.5315 145.979 49.54C146.447 49.8757 146.841 50.3066 147.133 50.8046C147.425 51.3027 147.61 51.8568 147.675 52.4311C147.691 52.5734 147.748 52.7077 147.841 52.8169C147.933 52.9261 148.055 53.0053 148.192 53.0442C148.617 53.1634 149.21 53.338 149.961 53.5637C150.126 53.9775 150.4 54.3382 150.754 54.6068C150.836 54.6742 150.907 54.7531 150.966 54.841L150.801 54.7899C149.528 54.3982 148.549 54.1087 147.942 53.9384C147.625 53.8485 147.341 53.6642 147.13 53.4095C146.919 53.1549 146.79 52.842 146.759 52.512C146.695 51.7839 146.237 50.4086 143.892 49.374L142.586 48.7949C143.108 48.9198 143.615 49.0996 144.1 49.3314C144.283 49.4181 144.48 49.4701 144.681 49.4847Z" fill="#3F2254"/>
<path d="M144.454 48.8834L144.221 48.7684C144.099 48.7042 144.002 48.6008 143.945 48.4746H144.102C144.526 48.5002 144.9 48.5172 145.26 48.5214C145.264 48.5396 145.264 48.5586 145.26 48.5768C145.193 48.7202 145.074 48.8317 144.926 48.8875C144.779 48.9432 144.615 48.9386 144.471 48.8748L144.454 48.8834Z" fill="#3F2355"/>
<path d="M148.979 65.0216C147.467 65.2998 145.932 65.4423 144.395 65.4474L144.356 65.2345C144.356 65.1494 144.323 65.0685 144.306 64.9876C144.272 64.8343 144.233 64.6768 144.195 64.5235C147.529 64.4554 148.954 64.1232 149.513 63.9316C149.316 64.2851 149.138 64.649 148.979 65.0216Z" fill="#3F2355"/>
<path d="M144.513 68.7852C144.463 69.2773 144.378 69.7653 144.259 70.2456C144.123 70.1073 144.036 69.9276 144.013 69.7346C143.986 69.5436 144.02 69.349 144.11 69.1785C144.2 69.0079 144.341 68.8703 144.513 68.7852Z" fill="#3F2355"/>
<path d="M144.098 49.3276C143.614 49.0959 143.106 48.916 142.584 48.7911L141.516 48.3185L143.946 48.4761C144.002 48.6022 144.099 48.7057 144.221 48.7698L144.455 48.8848C144.599 48.9486 144.762 48.9531 144.91 48.8974C145.057 48.8417 145.177 48.7302 145.243 48.5868C145.248 48.5686 145.248 48.5496 145.243 48.5314C148.212 48.5995 149.484 48.1056 149.484 48.1056L150.065 47.8672L150.121 48.4931C150.311 50.8775 150.786 53.6493 151.189 53.9771L153.013 55.4802L150.977 54.8415C150.918 54.7536 150.847 54.6747 150.765 54.6073C150.411 54.3387 150.137 53.978 149.972 53.5641H150.04C149.642 52.1065 149.387 50.6135 149.277 49.1062C148.163 49.3509 147.024 49.4638 145.884 49.4426C145.914 49.4681 145.947 49.4894 145.977 49.5192C145.553 49.5192 145.129 49.4937 144.679 49.4639C144.479 49.4547 144.282 49.4085 144.098 49.3276Z" fill="#3F2355"/>
<path d="M144.016 69.7355C144.04 69.9284 144.126 70.1082 144.262 70.2464C144.121 70.868 143.927 71.4763 143.681 72.0645C142.785 74.222 141.27 76.0638 139.33 77.3569C139.05 77.5443 138.766 77.7146 138.482 77.8764C137.487 77.8253 136.441 77.7756 135.344 77.7274C137.611 77.155 139.622 75.8384 141.058 73.987C142.494 72.1355 143.273 69.8553 143.27 67.5086C143.272 66.7205 143.183 65.9348 143.007 65.1668L143.346 65.0859C143.369 65.1885 143.426 65.2801 143.508 65.3458C143.59 65.4116 143.691 65.4475 143.796 65.4479H144.402C144.601 66.5492 144.641 67.6733 144.521 68.786C144.348 68.8705 144.206 69.0078 144.115 69.1784C144.025 69.349 143.99 69.544 144.016 69.7355Z" fill="#3F2355"/>
<path d="M143.962 47.9603C144.033 47.8185 144.155 47.7099 144.304 47.6574C144.453 47.605 144.616 47.6128 144.76 47.6793C144.832 47.7133 144.904 47.7474 144.972 47.7857C145.104 47.8512 145.207 47.9641 145.26 48.102C145.313 48.2399 145.313 48.3929 145.26 48.5308C144.9 48.5308 144.514 48.5308 144.102 48.484H143.945C143.909 48.4009 143.892 48.3108 143.895 48.2202C143.898 48.1296 143.921 48.0408 143.962 47.9603Z" fill="#3F2355"/>
<path d="M144.357 65.2348L144.395 65.4477H143.789C143.684 65.4474 143.582 65.4114 143.501 65.3457C143.419 65.28 143.362 65.1883 143.339 65.0858C143.335 65.0547 143.335 65.0232 143.339 64.9921C143.338 64.9312 143.349 64.8706 143.371 64.8139C143.393 64.7571 143.426 64.7054 143.468 64.6615C143.511 64.6176 143.561 64.5824 143.617 64.5581C143.672 64.5337 143.732 64.5206 143.793 64.5195H144.217C144.255 64.6728 144.293 64.8304 144.327 64.9836C144.323 65.0688 144.344 65.1454 144.357 65.2348Z" fill="#3F2355"/>
<path d="M141.325 63.9443C142.108 65.7744 142.284 67.8092 141.826 69.7473C141.367 71.6855 140.3 73.424 138.781 74.7055C137.262 75.987 135.372 76.7434 133.391 76.8626C131.411 76.9819 129.445 76.4577 127.784 75.3677C126.123 74.2777 124.856 72.6797 124.171 70.8104C123.485 68.9412 123.417 66.8999 123.977 64.9889C124.537 63.0778 125.695 61.3986 127.279 60.1997C128.864 59.0009 130.791 58.3462 132.775 58.3325V58.2814C134.599 58.2716 136.385 58.8052 137.907 59.8147C139.429 60.8243 140.618 62.2644 141.325 63.9528V63.9443ZM138.882 70.1309C139.43 68.8149 139.541 67.3568 139.198 65.9726C138.856 64.5884 138.079 63.3516 136.982 62.4455C136.017 61.637 134.843 61.1203 133.598 60.9556C132.352 60.7909 131.085 60.985 129.944 61.5152C128.804 62.0454 127.837 62.8899 127.156 63.9504C126.476 65.011 126.109 66.2439 126.099 67.5055C126.089 68.7672 126.436 70.0057 127.101 71.0768C127.765 72.148 128.718 73.0077 129.85 73.5558C130.982 74.104 132.246 74.318 133.494 74.1729C134.742 74.0279 135.924 73.5298 136.901 72.7367C137.023 72.6267 137.099 72.4746 137.113 72.3109C137.131 72.1521 137.092 71.9922 137.003 71.8595L136.974 71.8255C137.383 71.4274 137.731 70.9712 138.008 70.4715C138.087 70.5133 138.174 70.5366 138.263 70.5396C138.351 70.5427 138.439 70.5268 138.521 70.4931C138.603 70.4593 138.677 70.4084 138.738 70.3438C138.8 70.2834 138.849 70.211 138.882 70.1309Z" fill="#DEDEDF"/>
<path d="M138.473 77.8746C146.28 78.2706 150.937 78.7773 150.937 79.3223C150.937 80.5996 124.825 81.6641 92.6108 81.6641C60.3964 81.6641 34.2891 80.6166 34.2891 79.3223C34.2891 78.8284 38.1059 78.3685 44.5776 77.9938C46.234 78.8619 48.074 79.3175 49.9425 79.3223C52.1936 79.3345 54.4011 78.6991 56.3039 77.4914C66.2702 77.1721 78.8955 76.9805 92.6278 76.9805C105.236 76.9805 116.907 77.1423 126.445 77.4062C128.224 78.568 130.283 79.2242 132.404 79.3052C134.525 79.3862 136.628 78.8888 138.49 77.8661L138.473 77.8746Z" fill="#DEDFE0"/>
<path d="M138.004 70.4793C137.727 70.9791 137.379 71.4352 136.97 71.8333C136.94 71.7914 136.902 71.7554 136.859 71.7269L137.869 70.3984C137.91 70.4318 137.956 70.4591 138.004 70.4793Z" fill="white"/>
<path d="M136.559 71.608C136.472 71.5954 136.383 71.6041 136.301 71.6336C136.218 71.6608 136.143 71.7058 136.08 71.7655C135.069 72.5878 133.795 73.0113 132.495 72.9567C131.195 72.9021 129.96 72.3731 129.022 71.469C128.083 70.5649 127.506 69.3478 127.397 68.0464C127.289 66.745 127.658 65.4488 128.434 64.401C129.211 63.3533 130.342 62.6261 131.614 62.3561C132.887 62.0861 134.214 62.2917 135.346 62.9345C136.479 63.5773 137.338 64.6129 137.764 65.8469C138.189 67.081 138.152 68.4286 137.658 69.6366C137.624 69.7161 137.607 69.8015 137.607 69.8878C137.607 69.9751 137.623 70.0616 137.653 70.1433C137.688 70.2237 137.737 70.2972 137.798 70.3605L137.865 70.4158L136.856 71.7443C136.84 71.7301 136.823 71.7173 136.805 71.7059C136.731 71.656 136.647 71.6226 136.559 71.608Z" fill="white"/>
<path d="M129.473 77.4922C131.551 77.5603 133.51 77.6327 135.334 77.7093C133.399 78.1994 131.366 78.1241 129.473 77.4922Z" fill="#3F2355"/>
<path d="M129.316 76.0696C130.577 76.5914 131.937 76.8257 133.299 76.7557C134.66 76.6856 135.99 76.3129 137.19 75.6644C138.391 75.016 139.434 74.108 140.243 73.0059C141.051 71.9039 141.606 70.6353 141.868 69.2917C142.129 67.9481 142.09 66.5631 141.753 65.2365C141.417 63.91 140.791 62.675 139.921 61.6207C139.051 60.5665 137.959 59.7192 136.724 59.1401C135.488 58.561 134.14 58.2645 132.777 58.272V58.3316C130.652 58.3372 128.595 59.0825 126.956 60.4405C125.317 61.7985 124.198 63.6851 123.79 65.7786C123.382 67.8722 123.71 70.0431 124.717 71.9212C125.725 73.7994 127.35 75.2685 129.316 76.0782V76.0696ZM135.334 77.7259C133.51 77.6493 131.551 77.5769 129.473 77.5088C127.382 76.8131 125.563 75.4734 124.274 73.6802C122.985 71.8869 122.292 69.7314 122.293 67.52C122.293 67.0643 122.322 66.6091 122.382 66.1575C122.439 66.0814 122.469 65.9885 122.467 65.8935C122.467 65.8454 122.459 65.7977 122.441 65.753C122.848 63.3526 124.072 61.1682 125.903 59.5719C127.734 57.9756 130.06 57.066 132.484 56.9982C134.909 56.9304 137.281 57.7086 139.198 59.2001C141.115 60.6917 142.458 62.8043 142.997 65.1782C143.174 65.9461 143.262 66.7318 143.26 67.52C143.26 69.8644 142.48 72.1417 141.044 73.9905C139.608 75.8394 137.599 77.154 135.334 77.7259Z" fill="#3F2355"/>
<path d="M136.986 71.8343C135.993 72.8125 134.694 73.4145 133.309 73.5374C134.478 73.4253 135.588 72.9707 136.502 72.2302L136.875 71.7363C136.917 71.7623 136.955 71.7954 136.986 71.8343Z" fill="#3F2254"/>
<path d="M136.559 62.8758C135.629 62.1024 134.488 61.629 133.285 61.5176C134.783 61.6466 136.177 62.335 137.193 63.4466C138.209 64.5583 138.773 66.0123 138.773 67.5211C138.775 68.5585 138.508 69.5785 137.997 70.4803C137.948 70.46 137.902 70.4328 137.861 70.3994L138.26 69.8714C138.765 68.6774 138.873 67.3516 138.567 66.0912C138.261 64.8308 137.559 63.7031 136.563 62.8758H136.559Z" fill="#3F2254"/>
<path d="M133.293 61.5168H133.047C133.129 61.5126 133.211 61.5126 133.293 61.5168Z" fill="#3F2254"/>
<path d="M132.398 61.5052H132.203C132.268 61.5009 132.333 61.5009 132.398 61.5052Z" fill="#3F2254"/>
<path d="M132.776 79.3235C130.516 79.3213 128.305 78.6585 126.414 77.416L129.459 77.5097C131.352 78.1416 133.386 78.2169 135.32 77.7268C136.414 77.7723 137.46 77.8219 138.458 77.8759C136.716 78.8325 134.761 79.3306 132.776 79.3235Z" fill="#3F2355"/>
<path d="M131.855 73.4805L132.152 73.5188C132.055 73.5103 131.953 73.4975 131.855 73.4805Z" fill="#3F2254"/>
<path d="M131.27 61.678C131.531 61.6068 131.797 61.5583 132.067 61.5332C131.798 61.5638 131.532 61.6122 131.27 61.678Z" fill="#3F2254"/>
<path d="M127.383 68.0693C127.468 69.0408 127.814 69.9707 128.386 70.7593C128.958 71.5478 129.732 72.1652 130.627 72.5451C131.521 72.9251 132.502 73.0532 133.464 72.9158C134.426 72.7783 135.332 72.3805 136.085 71.7651C136.148 71.7053 136.224 71.6603 136.306 71.6331C136.389 71.6036 136.477 71.5949 136.565 71.6075C136.651 71.6169 136.735 71.6445 136.81 71.6884C136.828 71.6998 136.845 71.7126 136.861 71.7267L136.488 72.2206C135.574 72.9611 134.464 73.4157 133.295 73.5278H133.083H132.773H132.743H132.472C132.37 73.5278 132.264 73.5278 132.162 73.5065L131.866 73.4682C130.499 73.2554 129.248 72.5759 128.322 71.5445C127.396 70.5131 126.854 69.1927 126.785 67.8062C126.716 66.4196 127.126 65.0517 127.945 63.933C128.764 62.8144 129.942 62.0136 131.28 61.6655C131.543 61.5997 131.809 61.5514 132.078 61.5208H132.213H132.408C132.489 61.5165 132.57 61.5165 132.65 61.5208H132.743H133.057H133.303C134.242 61.6109 135.146 61.9217 135.942 62.428C136.739 62.9344 137.405 63.622 137.888 64.4352C138.37 65.2483 138.655 66.1642 138.719 67.1085C138.783 68.0528 138.625 68.999 138.257 69.8703L137.858 70.3983L137.79 70.3429C137.73 70.2796 137.681 70.2061 137.646 70.1258C137.615 70.0441 137.6 69.9576 137.599 69.8703C137.599 69.784 137.617 69.6986 137.65 69.6191C137.952 68.8675 138.08 68.057 138.026 67.2484C137.971 66.4399 137.734 65.6543 137.334 64.9507C136.933 64.2471 136.379 63.6437 135.713 63.1859C135.047 62.7281 134.286 62.4278 133.488 62.3074C132.69 62.1871 131.875 62.2499 131.104 62.4911C130.333 62.7323 129.627 63.1456 129.038 63.7001C128.45 64.2546 127.994 64.9357 127.705 65.6925C127.416 66.4492 127.301 67.2618 127.37 68.0693H127.383Z" fill="#3F2254"/>
<path d="M126.998 69.2841C126.619 68.0445 126.649 66.7153 127.083 65.4941C127.517 64.2729 128.332 63.2249 129.407 62.5057C129.976 62.1233 130.607 61.8438 131.273 61.6797C129.934 62.0277 128.756 62.8286 127.937 63.9472C127.118 65.0658 126.708 66.4338 126.777 67.8203C126.846 69.2069 127.389 70.5272 128.314 71.5587C129.24 72.5901 130.491 73.2695 131.858 73.4823C130.735 73.317 129.682 72.8346 128.821 72.0913C127.961 71.348 127.328 70.3744 126.998 69.2841Z" fill="#3F2254"/>
<path d="M126.547 65.3315C126.852 64.5062 127.318 63.75 127.916 63.1069C128.515 62.4638 129.235 61.9465 130.035 61.5853C130.834 61.224 131.697 61.0258 132.574 61.0024C133.45 60.9789 134.322 61.1306 135.14 61.4486C135.958 61.7666 136.704 62.2445 137.336 62.8547C137.968 63.4649 138.473 64.1951 138.821 65.0029C139.17 65.8106 139.354 66.6799 139.365 67.5601C139.376 68.4403 139.213 69.3138 138.884 70.13C138.856 70.2155 138.81 70.2938 138.749 70.3599C138.688 70.4246 138.614 70.4755 138.532 70.5093C138.45 70.543 138.362 70.5589 138.274 70.5558C138.185 70.5528 138.098 70.5295 138.019 70.4877C138.53 69.5859 138.797 68.5659 138.795 67.5285C138.795 66.0197 138.232 64.5657 137.216 63.454C136.199 62.3424 134.805 61.654 133.307 61.525C133.225 61.5208 133.143 61.5208 133.061 61.525H132.748H132.654C132.574 61.5207 132.493 61.5207 132.413 61.525C132.348 61.5206 132.282 61.5206 132.217 61.525H132.082C131.812 61.5501 131.546 61.5985 131.284 61.6697C130.619 61.8338 129.988 62.1134 129.418 62.4958C128.408 63.1707 127.625 64.1374 127.173 65.2682C126.721 66.399 126.622 67.6408 126.887 68.8298C127.153 70.0187 127.771 71.0989 128.66 71.9277C129.55 72.7566 130.669 73.2952 131.87 73.4724C131.967 73.4724 132.069 73.5022 132.167 73.5107C132.264 73.5192 132.374 73.5107 132.476 73.532C132.578 73.5533 132.659 73.532 132.748 73.532H132.786H133.095H133.307C134.693 73.4092 135.992 72.8072 136.984 71.8289L137.014 71.863C137.103 71.9956 137.142 72.1555 137.124 72.3143C137.11 72.478 137.034 72.6301 136.912 72.7401C135.791 73.6485 134.405 74.1638 132.965 74.2074C131.526 74.2509 130.111 73.8202 128.938 72.9811C127.765 72.142 126.897 70.9405 126.468 69.56C126.039 68.1796 126.071 66.696 126.56 65.3357L126.547 65.3315Z" fill="#3F2254"/>
<path d="M132.776 56.9956C130.3 56.9955 127.905 57.8748 126.013 59.4778C124.122 61.0808 122.856 63.304 122.44 65.7539C122.412 65.6628 122.356 65.5829 122.28 65.5256C122.203 65.4683 122.111 65.4365 122.016 65.4346H121.266C121.742 62.7906 123.102 60.3887 125.122 58.6257C127.141 56.8627 129.699 55.8439 132.373 55.7377C135.047 55.6315 137.678 56.4442 139.83 58.0416C141.982 59.639 143.527 61.9254 144.209 64.5234H143.785C143.724 64.5245 143.665 64.5376 143.609 64.562C143.553 64.5863 143.503 64.6215 143.461 64.6653C143.419 64.7092 143.385 64.761 143.363 64.8178C143.341 64.8745 143.33 64.9351 143.331 64.996C143.327 65.0271 143.327 65.0586 143.331 65.0897L142.992 65.1706C142.462 62.8482 141.163 60.775 139.307 59.29C137.451 57.8051 135.149 56.9962 132.776 56.9956Z" fill="#3F2355"/>
<path d="M122.442 65.7539C122.46 65.7987 122.468 65.8464 122.468 65.8944C122.469 65.9895 122.44 66.0824 122.383 66.1584C122.4 66.0222 122.417 65.8859 122.442 65.7539Z" fill="#3F2355"/>
<path d="M122.292 67.5202C122.294 69.7287 122.989 71.8804 124.278 73.6703C125.567 75.4601 127.384 76.7972 129.472 77.492L126.427 77.3983C125.736 76.9521 125.095 76.4325 124.514 75.8484C122.32 73.6487 121.081 70.6674 121.066 67.5542C121.065 67.149 121.085 66.7439 121.126 66.3407H122.004C122.078 66.3407 122.151 66.3224 122.217 66.2875C122.283 66.2527 122.339 66.2022 122.381 66.1406C122.321 66.5979 122.291 67.0588 122.292 67.5202Z" fill="#3F2355"/>
<path d="M120.486 69.8272L121.614 71.3174H119.739H63.0417C62.7969 71.3163 62.5624 71.2181 62.3892 71.0443C62.2161 70.8705 62.1183 70.635 62.1172 70.3892C62.1185 70.2954 62.1328 70.2023 62.1596 70.1124C62.2197 69.9248 62.3374 69.7611 62.4958 69.6448C62.6543 69.5286 62.8454 69.4657 63.0417 69.4652H119.408C119.59 69.3981 119.788 69.3922 119.973 69.4483C120.158 69.5043 120.32 69.6194 120.435 69.7761C120.453 69.7914 120.47 69.8085 120.486 69.8272Z" fill="#3F2355"/>
<path d="M122.003 66.3576H121.125C121.125 66.2 121.159 66.0467 121.18 65.8934C121.201 65.7402 121.227 65.5869 121.252 65.4336H122.003C122.098 65.4355 122.19 65.4673 122.266 65.5246C122.342 65.5819 122.399 65.6618 122.427 65.7529C122.402 65.8849 122.385 66.0212 122.368 66.1574C122.327 66.2173 122.273 66.2666 122.209 66.3014C122.146 66.3362 122.075 66.3554 122.003 66.3576Z" fill="#3F2355"/>
<path d="M102.353 65.4336H121.255C121.23 65.5869 121.205 65.7402 121.183 65.8934C121.162 66.0467 121.141 66.2 121.128 66.3576H102.082V65.8934L102.353 65.4336Z" fill="#3F2355"/>
<path d="M106.127 40.904L102.734 40.1504L129.139 46.0432C131.993 45.9836 141.306 45.9325 144.784 47.6228V47.6484L144.758 47.6952C144.646 47.6446 144.522 47.6289 144.401 47.6502C144.28 47.6716 144.169 47.7289 144.081 47.8149C143.993 47.9008 143.933 48.0113 143.908 48.132C143.884 48.2526 143.896 48.3779 143.944 48.4914L141.514 48.3339L142.582 48.8065C139.423 48.0018 133.702 47.7974 129.211 47.8911H129.181C129.038 47.8974 128.895 47.8816 128.757 47.8443L106.488 42.8754L106.543 42.258L106.606 41.5682C106.622 41.4177 106.582 41.2665 106.494 41.1438C106.405 41.0212 106.275 40.9358 106.127 40.904Z" fill="#3F2355"/>
<path d="M106.126 40.904C106.269 40.9373 106.396 41.0216 106.482 41.1413C106.569 41.2611 106.609 41.4081 106.596 41.5555L106.533 42.2452L106.478 42.8626L106.079 42.7732L106.21 41.3468L102.818 40.5932C102.782 40.5443 102.744 40.4974 102.703 40.4527L102.733 40.1504L106.126 40.904Z" fill="#3F2355"/>
<path d="M105.341 41.9786L105.286 42.5917L104.077 42.3235C103.897 42.4532 103.678 42.515 103.458 42.498C103.227 42.4784 103.012 42.3719 102.855 42.2L102.906 41.4336L105.341 41.9786Z" fill="#DEDFE0"/>
<path d="M106.078 42.7745L105.705 46.8876L103.855 47.1643L103.885 46.9174C103.896 46.8354 103.896 46.7524 103.885 46.6704L104.933 46.5171L105.289 42.5957L106.078 42.7745Z" fill="#3F2355"/>
<path d="M106.48 42.8638L106.094 47.1216C106.08 47.2508 106.024 47.3719 105.935 47.4664C105.846 47.5609 105.729 47.6238 105.602 47.6453L103.77 47.922C103.795 47.8417 103.812 47.759 103.82 47.6751C103.82 47.5388 103.854 47.3941 103.871 47.2493V47.1769L105.72 46.9002L106.094 42.7871L106.48 42.8638Z" fill="#3F2355"/>
<path d="M103.904 46.6699C103.914 46.7519 103.914 46.8349 103.904 46.9169L103.874 47.1638L102.551 47.3639V47.1042V46.8658L103.904 46.6699Z" fill="#3F2355"/>
<path d="M103.075 45.8904C102.921 45.8712 102.765 45.8917 102.621 45.95L102.74 44.0851V44.0595L102.854 42.2031C103.011 42.3751 103.226 42.4815 103.457 42.5012C103.677 42.5181 103.896 42.4563 104.076 42.3266L105.284 42.5948L104.928 46.5163L103.881 46.6696C103.85 46.4691 103.754 46.2844 103.608 46.1437C103.463 46.003 103.276 45.914 103.075 45.8904Z" fill="#DEDFE0"/>
<path d="M102.629 45.9494C102.773 45.8911 102.929 45.8706 103.083 45.8898C103.284 45.9134 103.471 46.0024 103.617 46.1431C103.762 46.2838 103.858 46.4685 103.889 46.669L102.574 46.8648L102.629 45.9494Z" fill="#DEDFE0"/>
<path d="M102.514 47.7336L102.535 47.3759L103.858 47.1758V47.2482C103.858 47.4057 103.825 47.5505 103.808 47.6739C103.799 47.7578 103.782 47.8406 103.757 47.9209L102.484 48.1125V47.7336H102.514Z" fill="#3F2355"/>
<path d="M102.908 41.4368L102.95 40.7513C102.916 40.6963 102.878 40.6436 102.836 40.5938L106.229 41.3474L106.097 42.7738L105.304 42.5949L105.359 41.9818L102.908 41.4368Z" fill="#3F2355"/>
<path d="M102.906 41.437L102.855 42.2034C102.819 42.1622 102.787 42.1181 102.758 42.0714C102.758 41.8287 102.804 41.6073 102.821 41.4199L102.906 41.437Z" fill="#3F2355"/>
<path d="M102.834 40.5936L102.707 40.5638V40.4531C102.752 40.4975 102.795 40.5444 102.834 40.5936Z" fill="#3F2355"/>
<path d="M102.402 45.368C102.448 44.9422 102.499 44.4739 102.546 44.0311C102.575 43.7373 102.609 43.4435 102.635 43.1795C102.635 43.0432 102.664 42.9155 102.677 42.7835C102.69 42.706 102.698 42.6278 102.703 42.5493C102.703 42.4897 102.703 42.4386 102.724 42.379C102.745 42.3194 102.745 42.1832 102.758 42.0938C102.787 42.1405 102.819 42.1846 102.855 42.2257L102.741 44.0821V44.1077L102.622 45.9726C102.504 46.0207 102.398 46.0949 102.312 46.1898C102.338 45.913 102.372 45.6448 102.402 45.368Z" fill="#3F2355"/>
<path d="M102.949 40.7523L102.906 41.4379H102.821C102.821 41.6252 102.779 41.8636 102.758 42.0893C102.647 41.9196 102.597 41.7166 102.618 41.5145C102.618 41.4421 102.618 41.3697 102.639 41.3016L102.707 40.582L102.834 40.6118C102.875 40.6562 102.913 40.7031 102.949 40.7523Z" fill="#3F2355"/>
<path d="M102.311 46.1683C102.397 46.0735 102.503 45.9993 102.621 45.9512L102.566 46.8666L102.227 46.9177C102.252 46.7048 102.277 46.4919 102.303 46.2322C102.307 46.2109 102.307 46.1896 102.311 46.1683Z" fill="#3F2355"/>
<path d="M102.43 40.0784L102.753 40.1507L102.723 40.453C102.664 40.3874 102.602 40.3249 102.536 40.2657C102.457 40.1904 102.368 40.1246 102.273 40.0698C102.326 40.0663 102.379 40.0691 102.43 40.0784Z" fill="#3F2355"/>
<path d="M101.506 65.4336H102.354L102.083 65.8934H101.234L101.506 65.4336Z" fill="#3F2355"/>
<path d="M102.312 46.1668C102.167 46.3087 102.076 46.4969 102.053 46.699L101.99 47.244H101.93L101.773 47.2823C102.028 45.0555 102.507 40.5039 102.507 40.5039L102.706 40.5465L102.63 41.3001C102.63 41.3682 102.63 41.4406 102.609 41.513C102.588 41.7151 102.638 41.9181 102.749 42.0878C102.749 42.1772 102.723 42.2752 102.715 42.3731C102.706 42.471 102.715 42.4838 102.694 42.5434C102.689 42.6219 102.681 42.7 102.668 42.7776C102.668 42.9096 102.643 43.0373 102.626 43.1736C102.6 43.4461 102.566 43.7398 102.537 44.0251C102.49 44.4509 102.439 44.9193 102.393 45.3621C102.371 45.6431 102.337 45.9113 102.312 46.1668Z" fill="#3F2355"/>
<path d="M102.056 46.7002C102.078 46.498 102.169 46.3099 102.314 46.168C102.314 46.168 102.314 46.2105 102.314 46.2318C102.289 46.4745 102.263 46.7045 102.238 46.9173L102.577 46.8663V47.1047V47.3644L102.009 47.4538L101.797 47.4836C101.797 47.424 101.797 47.3644 101.797 47.3005L101.954 47.2622H102.013L102.056 46.7002Z" fill="#3F2355"/>
<path d="M100.934 47.4754C101.26 47.4157 101.54 47.3561 101.761 47.3008C101.761 47.3646 101.761 47.4243 101.761 47.4839L101.973 47.4541L102.541 47.3646L102.52 47.7223V48.1012L101.727 48.2205H101.663H101.574C101.417 48.218 101.266 48.1573 101.15 48.0502C101.084 47.9838 101.034 47.9034 101.003 47.815C100.972 47.7266 100.961 47.6323 100.972 47.5392L100.934 47.4754Z" fill="#3F2355"/>
<path d="M103.111 50.2685L101.312 49.2892C101.766 49.2041 102.131 49.1232 102.402 49.0508L103.713 49.7661L103.764 49.9023C103.84 50.1365 105.672 55.7398 105.545 58.2264C105.46 59.8358 103.675 63.1697 102.352 65.4348H101.503C102.801 63.2336 104.731 59.7294 104.811 58.1966C104.926 56.0464 103.395 51.1541 103.111 50.2685Z" fill="#3F2355"/>
<path d="M101.836 48.7442L101.188 48.3908H101.959H102.464V48.1311L103.736 47.9395C103.672 48.1598 103.559 48.3628 103.405 48.5331C103.252 48.7034 103.062 48.8367 102.85 48.923C102.701 48.9811 102.548 49.0294 102.392 49.0678L101.836 48.7442Z" fill="#3F2355"/>
<path d="M100.934 47.4739C101.158 45.5366 101.57 41.6195 101.655 40.7764C101.655 40.6742 101.676 40.6189 101.676 40.6146C101.686 40.5301 101.713 40.4486 101.756 40.3753C101.799 40.302 101.857 40.2385 101.926 40.1888C102.022 40.1172 102.138 40.0784 102.257 40.0781C102.352 40.1329 102.44 40.1987 102.52 40.274C102.585 40.3332 102.647 40.3957 102.706 40.4613V40.572L102.507 40.5295C102.507 40.5295 102.028 45.0811 101.773 47.3079C101.553 47.3547 101.273 47.4143 100.934 47.4739Z" fill="#3F2355"/>
<path d="M99.9128 47.6875L101.164 48.3687H101.189C100.922 48.3687 100.659 48.3687 100.409 48.3475C100.116 48.3475 99.8365 48.3177 99.582 48.2964L99.9128 47.6875Z" fill="#3F2355"/>
<path d="M100.41 48.368C100.66 48.368 100.923 48.368 101.19 48.3893L101.839 48.7427L102.403 49.0493C102.132 49.1217 101.767 49.2026 101.313 49.2877L100.287 48.7257L100.02 48.5809L99.5742 48.334C99.8287 48.334 100.109 48.3723 100.401 48.3851L100.41 48.368Z" fill="#3F2355"/>
<path d="M101.313 49.288C97.3181 50.0416 86.7241 51.2125 78.8359 51.8937C79.1553 51.6169 79.4176 51.2799 79.6078 50.9017C79.748 50.6276 79.8221 50.3242 79.8241 50.0161C79.8261 49.992 79.8261 49.9678 79.8241 49.9437C85.8378 49.4072 93.1365 48.6195 97.7761 47.9766C98.3349 48.1834 98.9237 48.297 99.5191 48.3129H99.5742L100.02 48.5599L100.287 48.7046L101.313 49.288Z" fill="#3F2355"/>
<path d="M100.937 47.5685C100.926 47.6616 100.937 47.7558 100.968 47.8443C100.999 47.9327 101.049 48.0131 101.115 48.0794C101.23 48.1866 101.381 48.2472 101.539 48.2497H101.628H101.691L102.484 48.1305V48.3902H101.98H101.191H101.166L99.9145 47.709L99.5794 48.3349H99.5243C98.9289 48.319 98.3401 48.2054 97.7812 47.9985C99.0535 47.8154 100.156 47.6494 100.949 47.4961L100.937 47.5685Z" fill="#3F2355"/>
<path d="M100.088 43.183C100.219 42.1185 100.342 41.2073 100.966 40.492C101.313 40.1003 101.631 39.9172 101.928 39.9513C102.046 39.9665 102.159 40.0072 102.259 40.0705C102.14 40.0708 102.024 40.1096 101.928 40.1812C101.859 40.2308 101.802 40.2943 101.759 40.3676C101.716 40.441 101.688 40.5225 101.678 40.607C101.678 40.607 101.678 40.6666 101.657 40.7688C101.572 41.6203 101.161 45.529 100.936 47.4663C100.143 47.6196 99.0572 47.7857 97.768 47.9687H97.7383C97.8163 47.8701 97.906 47.7815 98.0055 47.7048C99.6976 46.3167 99.9139 44.6519 100.088 43.183Z" fill="#3F2355"/>
<path d="M95.4219 52.0938H100.329C100.451 52.0937 100.568 52.1421 100.654 52.2282C100.741 52.3143 100.79 52.4312 100.791 52.5536C100.79 52.6767 100.741 52.7946 100.655 52.8821C100.568 52.9695 100.451 53.0197 100.329 53.0219H95.4219C95.3075 53.0109 95.2013 52.9575 95.124 52.8721C95.0467 52.7866 95.0039 52.6754 95.0039 52.56C95.0039 52.4446 95.0467 52.3333 95.124 52.2479C95.2013 52.1625 95.3075 52.109 95.4219 52.098V52.0938Z" fill="#3F2355"/>
<path d="M81.6884 40.2363C81.7308 40.594 81.769 40.9346 81.7944 41.271C79.9327 41.9437 75.556 44.2089 71.3108 46.3804C68.6941 47.7343 66.1962 49.0287 64.4998 49.842C62.4853 49.7483 60.0595 49.6844 57.5065 49.7142L56.7812 49.6035C66.8875 44.9838 76.4508 41.3859 81.6884 40.2363Z" fill="#DEDFE0"/>
<path d="M79.8312 50.0163C79.8292 50.3244 79.7551 50.6278 79.6149 50.9019C79.4247 51.2801 79.1625 51.6171 78.8431 51.894L77.8125 51.9834V51.9451C78.7681 51.3036 79.2403 50.6606 79.229 50.0163L79.8312 49.9609C79.8324 49.9794 79.8324 49.9979 79.8312 50.0163Z" fill="#3F2355"/>
<path d="M78.8439 51.8945C78.6256 52.0916 78.3931 52.2724 78.1484 52.4353C78.0478 52.5022 77.9298 52.5378 77.8091 52.5375H72.8811C72.723 52.5388 72.5706 52.4776 72.457 52.3671C73.882 52.2905 75.7268 52.1585 77.8049 51.9839L78.8439 51.8945Z" fill="#3F2355"/>
<path d="M78.6166 50.0502C76.4749 50.2375 74.5453 50.3866 73.0228 50.476L72.675 49.4839C72.6433 49.3967 72.6333 49.303 72.6459 49.211C72.6585 49.1189 72.6932 49.0314 72.7471 48.9559C72.8001 48.8799 72.8706 48.8178 72.9525 48.7748C73.0344 48.7318 73.1254 48.7093 73.2179 48.709H77.6115C78.0992 49.0624 78.6124 49.5605 78.6124 50.0119C78.6164 50.0242 78.6179 50.0373 78.6166 50.0502Z" fill="#EBECE6"/>
<path d="M73.0195 50.4805C74.542 50.3868 76.4717 50.2378 78.6134 50.0547C78.5331 50.4561 78.3024 50.8113 77.9687 51.0468C77.8542 51.1447 77.7355 51.2384 77.6167 51.3235H73.3122L73.0195 50.4805Z" fill="#EBECE6"/>
<path d="M77.8067 51.9453H72.8829L72.3867 50.5317L73.0186 50.4977L73.3112 51.3492H77.6073C77.7261 51.2641 77.8448 51.1704 77.9593 51.0725C78.293 50.837 78.5237 50.4818 78.604 50.0804L79.2147 50.0293C79.2288 50.6538 78.7595 51.2924 77.8067 51.9453Z" fill="#3F2355"/>
<path d="M72.8862 51.9448H77.81V52.0002C75.7319 52.1748 73.8871 52.3068 72.4621 52.3834C72.3928 52.3192 72.3404 52.2387 72.3095 52.1492L72.0762 51.4765L71.7539 50.5611C71.9532 50.5611 72.178 50.5611 72.3858 50.5312L72.8862 51.9448Z" fill="#3F2355"/>
<path d="M73.2161 48.714C73.1236 48.7143 73.0326 48.7369 72.9507 48.7798C72.8688 48.8228 72.7983 48.8849 72.7453 48.961C72.6914 49.0364 72.6567 49.124 72.6441 49.216C72.6315 49.308 72.6415 49.4017 72.6732 49.4889L73.021 50.481L72.3891 50.5151L72.1007 49.6933C72.0366 49.5141 72.0165 49.3221 72.042 49.1335C72.0676 48.9448 72.1381 48.7652 72.2475 48.6097C72.357 48.4543 72.5022 48.3276 72.6708 48.2405C72.8394 48.1534 73.0265 48.1084 73.2161 48.1094H77.809C78.742 48.7395 79.2142 49.3697 79.2255 49.9999L78.6148 50.051C78.6169 50.0397 78.6169 50.0282 78.6148 50.0169C78.6148 49.5485 78.1017 49.0674 77.6139 48.714H73.2161Z" fill="#3F2355"/>
<path d="M71.5286 49.8972C71.4327 49.6254 71.4033 49.3343 71.4429 49.0487C71.4826 48.7631 71.5901 48.4912 71.7565 48.2561C71.9229 48.021 72.1432 47.8296 72.3988 47.698C72.6544 47.5664 72.9378 47.4985 73.225 47.5H77.818C77.938 47.5003 78.0555 47.5343 78.1573 47.598C79.2387 48.3346 79.807 49.118 79.8537 49.944L79.2514 49.9994C79.2514 49.3692 78.7793 48.739 77.835 48.1089H73.2165C73.0269 48.108 72.8399 48.1529 72.6713 48.24C72.5027 48.3271 72.3575 48.4538 72.248 48.6092C72.1386 48.7647 72.0681 48.9443 72.0425 49.133C72.0169 49.3216 72.0371 49.5136 72.1012 49.6928L72.3896 50.5146C72.169 50.5146 71.9655 50.5401 71.7577 50.5444L71.5286 49.8972Z" fill="#3F2355"/>
<path d="M70.4635 50.4932C70.4227 50.4541 70.3787 50.4185 70.332 50.3867C70.3804 50.4161 70.4246 50.4519 70.4635 50.4932Z" fill="#3F2355"/>
<path d="M70.1242 50.2853C70.0958 50.2729 70.0658 50.2643 70.0352 50.2598C70.0658 50.2643 70.0958 50.2729 70.1242 50.2853Z" fill="#3F2355"/>
<path d="M70.2273 51.4941C69.9686 51.6943 69.7226 51.8816 69.4894 52.0519H69.3494C69.1928 51.9089 69.0671 51.735 68.9805 51.541C69.1501 51.4175 69.3282 51.2855 69.5106 51.145C69.6929 51.0045 69.9347 50.8214 70.1467 50.6426L70.609 51.2046L70.2273 51.4941Z" fill="#3F2355"/>
<path d="M69.4866 52.0515C69.7198 51.8812 69.9658 51.6938 70.2245 51.4937L70.6019 51.1829L70.1397 50.6209C69.9234 50.7997 69.7156 50.97 69.5035 51.1233C69.2915 51.2766 69.143 51.3958 68.9734 51.5193C68.8777 51.2961 68.8735 51.044 68.9616 50.8177C69.0497 50.5913 69.2231 50.409 69.4442 50.31C69.5885 50.2431 69.7483 50.2167 69.9064 50.2334C69.9482 50.2374 69.9895 50.246 70.0294 50.259C70.0601 50.2635 70.09 50.2721 70.1185 50.2845C70.1934 50.3054 70.2639 50.3401 70.3263 50.3867C70.3729 50.4185 70.4169 50.4541 70.4578 50.4931C70.4892 50.5213 70.5176 50.5527 70.5426 50.5868C70.6891 50.7736 70.7576 51.0102 70.7334 51.2468C70.7143 51.478 70.6097 51.6936 70.4402 51.8512C70.2706 52.0088 70.0484 52.097 69.8174 52.0983H69.7198L69.4866 52.0515Z" fill="#3F2355"/>
<path d="M70.3722 52.4395C70.0252 52.4401 69.6884 52.3214 69.418 52.1031L69.4858 52.052L69.7233 52.0775H69.8209C70.0519 52.0762 70.2741 51.988 70.4437 51.8304C70.6132 51.6728 70.7178 51.4572 70.7369 51.226C70.7611 50.9895 70.6926 50.7528 70.5461 50.566C70.8769 50.566 71.284 50.566 71.7547 50.5234L72.077 51.4389L72.3103 52.1116C72.3412 52.2011 72.3936 52.2815 72.463 52.3458C71.5978 52.4139 70.8853 52.4395 70.3722 52.4395Z" fill="#3F2355"/>
<path d="M69.4876 52.0515L69.4197 52.1026L69.3477 52.043L69.4876 52.0515Z" fill="#3F2355"/>
<path d="M68.9792 51.5195C69.0659 51.7135 69.1915 51.8874 69.3482 52.0305C69.1149 52.0049 68.7757 51.9794 68.3516 51.9453C68.5382 51.8176 68.746 51.6728 68.975 51.5195H68.9792Z" fill="#3F2355"/>
<path d="M69.4223 52.1038C68.7479 52.5934 68.2178 52.9298 68.0058 53.0618C67.7428 53.6451 66.2797 57.3536 67.2466 65.435H66.513C65.4358 56.4552 67.306 52.8063 67.4036 52.6317L67.4502 52.5423L67.5393 52.487C67.5393 52.487 67.8658 52.2911 68.3535 51.959C68.7776 51.993 69.1169 52.0186 69.3502 52.0441L69.4223 52.1038Z" fill="#3F2355"/>
<path d="M67.2441 65.4336C67.2441 65.5869 67.278 65.7402 67.2992 65.8934H66.5825C66.5613 65.7402 66.5443 65.5869 66.5273 65.4336H67.2441Z" fill="#3F2355"/>
<path d="M64.5012 49.8623C64.1576 50.0283 63.8438 50.1731 63.5724 50.288C61.7403 50.2157 59.2975 49.9857 57.5078 49.7303C60.0609 49.7047 62.4867 49.7686 64.5012 49.8623Z" fill="#3F2355"/>
<path d="M61.6866 66.3574C61.8093 67.5535 61.7464 68.7615 61.5 69.9382C61.3478 70.6665 61.1292 71.3791 60.8469 72.0671C59.95 74.2246 58.4357 76.0665 56.4957 77.3596L56.2879 77.4959C55.1343 77.5299 54.0175 77.5682 52.9375 77.6108C55.1013 76.9634 56.9991 75.632 58.3486 73.8145C59.698 71.9971 60.427 69.7909 60.427 67.5241C60.4279 67.1356 60.4053 66.7474 60.3592 66.3617L61.6866 66.3574Z" fill="#3F2355"/>
<path d="M61.631 65.8934C61.6522 66.0467 61.6692 66.2043 61.6861 66.3576H60.3587C60.3293 66.0472 60.2826 65.7387 60.2188 65.4336H61.5631C61.5886 65.5698 61.614 65.7402 61.631 65.8934Z" fill="#3F2355"/>
<path d="M102.081 66.3576H61.6855C61.6855 66.2043 61.6516 66.0467 61.6304 65.8934C61.6092 65.7402 61.5879 65.5869 61.5625 65.4336H66.5117C66.5117 65.5869 66.5456 65.7402 66.5668 65.8934H67.3005C67.2793 65.7402 67.2624 65.5869 67.2454 65.4336H101.508L101.237 65.8934H102.085L102.081 66.3576Z" fill="#3F2355"/>
<path d="M60.3559 66.3576H59.1302C59.109 66.2043 59.0878 66.0467 59.0581 65.8934C59.0285 65.7402 59.003 65.5869 58.9648 65.4336H60.2371C60.2938 65.7391 60.3335 66.0476 60.3559 66.3576Z" fill="#3F2355"/>
<path d="M59.1322 66.3578C59.308 67.7532 59.1649 69.1705 58.7137 70.5022C58.2625 71.8338 57.5151 73.0447 56.5283 74.0431C55.2416 75.3424 53.5997 76.2289 51.8106 76.5903C50.0215 76.9517 48.1658 76.7716 46.4788 76.073C44.7918 75.3743 43.3493 74.1885 42.3343 72.6659C41.3193 71.1432 40.7774 69.3523 40.7773 67.5202C40.7786 67.1313 40.8055 66.743 40.8579 66.3578H43.4364C43.1805 67.6912 43.3394 69.0713 43.8916 70.3109C44.4438 71.5505 45.3625 72.5896 46.5231 73.287C47.6836 73.9844 49.0298 74.3064 50.3789 74.2094C51.728 74.1123 53.0146 73.6009 54.0643 72.7445C54.178 72.6371 54.2505 72.4929 54.2691 72.3373C54.2877 72.1816 54.2513 72.0243 54.1661 71.8929L54.1364 71.8589C54.5454 71.4608 54.8941 71.0046 55.1712 70.5049C55.2514 70.5428 55.339 70.5625 55.4278 70.5625C55.5165 70.5625 55.6041 70.5428 55.6843 70.5049C55.7672 70.4709 55.8423 70.4202 55.9049 70.3559C55.9646 70.2896 56.0095 70.2112 56.0363 70.1259C56.5309 68.9339 56.6695 67.6232 56.435 66.3535L59.1322 66.3578Z" fill="#DEDEDF"/>
<path d="M59.1294 66.3576H56.4449C56.4194 66.2298 56.394 66.0978 56.36 65.9701C56.3261 65.8424 56.2625 65.6082 56.2031 65.4336H58.947C58.9852 65.5869 59.0149 65.7402 59.0403 65.8934C59.0658 66.0467 59.1082 66.2043 59.1294 66.3576Z" fill="#DEDEDF"/>
<path d="M63.6886 50.901C60.9847 50.8041 58.2916 50.5081 55.6308 50.0154C55.6308 50.0154 55.5884 49.9302 55.5078 49.7812C56.1821 49.7812 56.8522 49.7429 57.5095 49.7344C59.2992 49.9898 61.7505 50.2198 63.5741 50.2921C63.8455 50.1729 64.1594 50.0282 64.5029 49.8664C64.927 49.8664 65.3511 49.9089 65.754 49.9302C64.9312 50.3305 64.2272 50.6668 63.6886 50.901Z" fill="#3F2355"/>
<path d="M55.3906 49.5861C66.5274 44.4213 77.0195 40.5127 82.2105 39.5078C82.2995 40.1678 82.3886 40.9257 82.4353 41.7006C80.4038 42.2115 70.8405 47.4103 65.7513 49.9267C65.3569 49.9054 64.937 49.8798 64.5002 49.8628C66.1966 49.0496 68.6945 47.7339 71.3112 46.4012C75.5522 44.2084 79.9331 41.9433 81.7949 41.2918C81.7694 40.9555 81.7312 40.6148 81.6888 40.2572C76.4512 41.4068 66.8879 45.0047 56.7689 49.6244L57.4941 49.7351C56.8368 49.7351 56.1667 49.7606 55.4924 49.7819L55.3906 49.5861Z" fill="#3F2355"/>
<path d="M55.5781 65.4336H56.2058C56.2652 65.6082 56.316 65.787 56.3627 65.9701C56.4093 66.1532 56.4221 66.2298 56.4475 66.3576H55.8326C55.7743 66.0428 55.6892 65.7337 55.5781 65.4336Z" fill="#3F2254"/>
<path d="M55.5574 50.1781C55.4852 50.0217 55.3706 49.8888 55.2266 49.7949H55.4895C55.5701 49.9439 55.6125 50.0291 55.6125 50.0291C58.2732 50.5218 60.9664 50.8178 63.6703 50.9147C64.2089 50.6805 64.9129 50.3442 65.7357 49.9397C66.1598 49.9397 66.5839 49.9865 66.9613 50.0121C66.3506 50.3186 65.7908 50.5997 65.2649 50.8423C64.739 51.085 64.2768 51.315 63.8951 51.4768C63.8172 51.5094 63.7335 51.5253 63.6491 51.5236C61.0457 51.4217 58.4517 51.1486 55.8839 50.7061L55.6379 50.6593C55.6556 50.4945 55.6277 50.328 55.5574 50.1781Z" fill="#3F2355"/>
<path d="M55.5772 65.4336C55.6883 65.7337 55.7734 66.0428 55.8317 66.3576H55.7978C55.7978 66.2681 55.7596 66.1787 55.7384 66.0893C55.6848 65.867 55.6183 65.648 55.5391 65.4336H55.5772Z" fill="#3F2254"/>
<path d="M54.9147 65.8253C54.8681 65.6933 54.8172 65.5613 54.7578 65.4336H55.5551C55.6343 65.648 55.7009 65.867 55.7544 66.0893C55.7544 66.1787 55.7969 66.2681 55.8138 66.3576H55.0844C55.025 66.1787 54.9741 65.9956 54.9147 65.8253Z" fill="#3F2254"/>
<path d="M55.1719 70.479C55.6826 69.5772 55.9502 68.5572 55.948 67.5198C55.949 67.1295 55.9106 66.74 55.8335 66.3574H56.4484C56.6829 67.6271 56.5444 68.9378 56.0498 70.1298C56.0229 70.2151 55.9781 70.2935 55.9183 70.3598C55.8557 70.4241 55.7807 70.4748 55.6978 70.5088C55.6175 70.5467 55.5299 70.5664 55.4412 70.5664C55.3525 70.5664 55.2649 70.5467 55.1846 70.5088L55.1719 70.479Z" fill="#3F2254"/>
<path d="M55.947 67.5198C55.9491 68.5572 55.6816 69.5772 55.1709 70.479C55.122 70.4587 55.0763 70.4315 55.0352 70.3981L55.4338 69.8701C55.9022 68.7621 56.0292 67.5386 55.7985 66.3574H55.8325C55.9096 66.74 55.9479 67.1295 55.947 67.5198Z" fill="#3F2254"/>
<path d="M55.1346 51.4086C54.9351 51.5012 54.7183 51.5505 54.4985 51.5534H53.328C53.164 51.4496 53.0369 51.2965 52.9647 51.1159C52.8925 50.9353 52.8789 50.7365 52.9259 50.5477C52.9729 50.3589 53.0781 50.1899 53.2265 50.0646C53.3748 49.9394 53.5587 49.8644 53.7521 49.8503L54.8378 49.7949C54.8444 49.8155 54.8529 49.8355 54.8632 49.8545L55.088 50.2803C55.1279 50.3569 55.1837 50.4239 55.2518 50.4769C55.3199 50.5298 55.3985 50.5673 55.4824 50.5869L55.652 50.6252C55.6426 50.7901 55.5898 50.9495 55.4988 51.0872C55.4079 51.2248 55.2822 51.3357 55.1346 51.4086Z" fill="#3F2355"/>
<path d="M54.832 49.8164H55.2307C55.3747 49.9103 55.4893 50.0432 55.5615 50.1996C55.631 50.3453 55.6603 50.507 55.6463 50.668L55.4766 50.6296C55.3928 50.6101 55.3142 50.5725 55.2461 50.5196C55.178 50.4667 55.1221 50.3997 55.0822 50.3231L54.8575 49.8973C54.8458 49.8714 54.8373 49.8443 54.832 49.8164Z" fill="#3F2355"/>
<path d="M55.4347 69.8701L55.036 70.3981L54.9682 70.3427C54.8471 70.2152 54.7789 70.0463 54.7773 69.8701C54.7775 69.7838 54.7948 69.6984 54.8282 69.6189C55.2458 68.5837 55.3303 67.4433 55.07 66.3574H55.7994C56.0301 67.5386 55.903 68.7621 55.4347 69.8701Z" fill="#3F2254"/>
<path d="M55.0704 66.3576H44.6758C44.7515 66.041 44.8551 65.7317 44.9854 65.4336H54.7608C54.8202 65.5613 54.8711 65.6933 54.9177 65.8253C54.9644 65.9573 55.028 66.1787 55.0704 66.3576Z" fill="white"/>
<path d="M54.7891 49.6465C54.941 49.658 55.0872 49.7094 55.2132 49.7955H54.8145C54.7991 49.7473 54.7905 49.6971 54.7891 49.6465Z" fill="#3F2355"/>
<path d="M55.2281 49.816C55.1022 49.7299 54.9559 49.6785 54.804 49.667C54.795 49.5806 54.8051 49.4934 54.8337 49.4115C54.8596 49.3338 54.9013 49.2623 54.956 49.2015C55.0107 49.1407 55.0774 49.0919 55.1517 49.0581C66.1782 43.9487 76.7807 39.9634 82.1073 38.933C82.1878 38.9159 82.2709 38.9156 82.3515 38.9321C82.4321 38.9487 82.5085 38.9818 82.5757 39.0294C82.643 39.077 82.6998 39.1379 82.7425 39.2085C82.7852 39.2791 82.813 39.3578 82.824 39.4397C82.9343 40.2359 83.0106 40.9895 83.0615 41.6878C83.0679 41.8296 83.0254 41.9692 82.9412 42.0832C82.857 42.1972 82.7362 42.2786 82.5993 42.3137C81.2846 42.6416 76.2929 45.2261 71.8823 47.504C70.1351 48.4109 68.4387 49.288 66.9967 50.0204C66.6151 49.9948 66.2079 49.9693 65.7711 49.948C70.8603 47.4316 80.4236 42.2328 82.4551 41.7219C82.4084 40.947 82.3193 40.1891 82.2303 39.5291C77.0266 40.5339 66.5387 44.4426 55.4104 49.6073L55.5122 49.8032L55.2281 49.816Z" fill="#3F2355"/>
<path d="M54.7598 65.4332H44.9844C45.1461 65.0762 45.3436 64.7366 45.5739 64.4198C46.1294 63.664 46.8728 63.0678 47.7298 62.6909C48.5868 62.3141 49.5273 62.1697 50.4573 62.2723C51.3873 62.3749 52.2742 62.7209 53.0292 63.2756C53.7843 63.8303 54.381 64.5743 54.7598 65.4332Z" fill="white"/>
<path d="M68.3513 51.9451C63.5266 51.5558 58.6822 51.4733 53.8472 51.6982C53.6574 51.7097 53.4688 51.6605 53.3086 51.5577H54.4791C54.6989 51.5548 54.9157 51.5055 55.1152 51.4129C55.2623 51.3435 55.3886 51.2366 55.4816 51.1029C55.5747 50.9691 55.6311 50.8132 55.6454 50.6507L55.8913 50.6976C58.4633 51.1421 61.0615 51.4166 63.6693 51.5193C63.7536 51.5211 63.8374 51.5051 63.9153 51.4725C64.2969 51.3107 64.7634 51.0936 65.2851 50.8381C65.8067 50.5826 66.3496 50.3144 66.9815 50.0078C68.7203 50.1228 69.8229 50.2335 69.9077 50.242C69.7496 50.2252 69.5899 50.2517 69.4455 50.3186C69.2244 50.4175 69.051 50.5999 68.9629 50.8262C68.8748 51.0526 68.879 51.3046 68.9747 51.5278C68.7457 51.6854 68.5379 51.8302 68.3513 51.9451Z" fill="#3F2355"/>
<path d="M55.1685 70.4793C54.8914 70.9791 54.5427 71.4352 54.1337 71.8333C54.1037 71.7914 54.0663 71.7554 54.0234 71.7269L55.0328 70.3984C55.0739 70.4318 55.1196 70.4591 55.1685 70.4793Z" fill="white"/>
<path d="M55.0354 70.3981L54.0261 71.7265C54.0101 71.7124 53.9931 71.6996 53.9752 71.6882C53.9 71.6437 53.8161 71.616 53.7292 71.6073C53.6436 71.5943 53.5561 71.6031 53.4747 71.6329C53.3907 71.6589 53.3138 71.7041 53.25 71.7648C52.3837 72.4747 51.3175 72.8939 50.2014 72.9633C49.0853 73.0328 47.9757 72.7489 47.0288 72.1518C46.0819 71.5547 45.3454 70.6744 44.9231 69.6349C44.5008 68.5954 44.4139 67.4491 44.6747 66.3574H55.0693C55.3297 67.4433 55.2452 68.5837 54.8276 69.6189C54.7941 69.6991 54.7769 69.7853 54.7769 69.8722C54.7769 69.9592 54.7941 70.0453 54.8276 70.1256C54.8594 70.2066 54.907 70.2804 54.9676 70.3427L55.0354 70.3981Z" fill="white"/>
<path d="M55.0715 59.8047C53.5495 58.7956 51.7638 58.2622 49.9399 58.2718V58.3315C47.8769 58.3448 45.878 59.0527 44.2633 60.3419C42.6486 61.6311 41.5114 63.427 41.0339 65.442H39.6641C40.1435 63.0607 41.4287 60.9191 43.3017 59.3808C45.1746 57.8424 47.52 57.002 49.9399 57.002C52.3598 57.002 54.7052 57.8424 56.5782 59.3808C58.4511 60.9191 59.7363 63.0607 60.2158 65.442H58.9435C58.8275 64.9321 58.6671 64.4335 58.4643 63.9518C57.7654 62.2638 56.585 60.8209 55.0715 59.8047Z" fill="#3F2355"/>
<path d="M47.7891 77.8246C49.3893 77.7479 51.1041 77.6755 52.9334 77.6074C51.2629 78.1062 49.4953 78.1808 47.7891 77.8246Z" fill="#3F2355"/>
<path d="M50.4688 73.5276C51.6391 73.4153 52.7508 72.9608 53.6664 72.2205L54.0396 71.7266C54.0825 71.755 54.1199 71.7911 54.1499 71.833C53.1561 72.8099 51.8546 73.4091 50.4688 73.5276Z" fill="#3F2254"/>
<path d="M53.7348 62.8753C52.7405 62.0468 51.5054 61.5643 50.2148 61.5C51.3956 61.5525 52.5346 61.9539 53.489 62.6538C54.4434 63.3537 55.1707 64.3209 55.5797 65.4342H55.5585C55.1871 64.4341 54.5578 63.551 53.7348 62.8753Z" fill="#3F2254"/>
<path d="M52.9362 77.6066C51.1097 77.6747 49.395 77.7471 47.7919 77.8237C45.4328 77.3307 43.3148 76.0371 41.7941 74.1606C40.2733 72.2841 39.4425 69.939 39.4414 67.5198C39.4405 67.1313 39.4632 66.7431 39.5093 66.3574H40.841C40.7885 66.7427 40.7616 67.131 40.7604 67.5198C40.7798 69.8046 41.6411 72.0013 43.1781 73.6864C44.7152 75.3715 46.8191 76.4257 49.0844 76.6457C51.3497 76.8657 53.6159 76.236 55.4462 74.878C57.2764 73.5199 58.5411 71.5298 58.9965 69.2911C59.1856 68.3248 59.2186 67.3342 59.0941 66.3574H60.3197C60.3658 66.7431 60.3884 67.1313 60.3875 67.5198C60.39 69.7818 59.6665 71.9843 58.3244 73.8011C56.9823 75.6179 55.0929 76.9523 52.9362 77.6066Z" fill="#3F2355"/>
<path d="M49.8972 73.5486C49.7372 73.5501 49.5772 73.543 49.418 73.5273C49.5749 73.5401 49.736 73.5486 49.8972 73.5486Z" fill="#3F2254"/>
<path d="M49.5714 61.5052H49.3594C49.43 61.5009 49.5008 61.5009 49.5714 61.5052Z" fill="#3F2254"/>
<path d="M49.9429 79.323C48.0745 79.3182 46.2345 78.8626 44.5781 77.9946C45.5875 77.935 46.659 77.8782 47.7928 77.8243C49.499 78.1806 51.2666 78.106 52.9371 77.6072C54.0199 77.5646 55.1367 77.5263 56.2874 77.4922C54.3895 78.6968 52.1883 79.332 49.9429 79.323Z" fill="#3F2355"/>
<path d="M50.2727 60.9413C48.8547 60.8694 47.4513 61.2573 46.2698 62.0478C45.0883 62.8383 44.1915 63.9895 43.7119 65.3311C43.6987 65.3645 43.6873 65.3986 43.6779 65.4333H41.0273C41.5049 63.4183 42.642 61.6224 44.2567 60.3332C45.8715 59.044 47.8704 58.3361 49.9334 58.3227V58.2716C51.7571 58.261 53.5429 58.7943 55.0643 59.804C56.5857 60.8137 57.7741 62.2543 58.4789 63.943C58.6818 64.4248 58.8421 64.9234 58.9582 65.4333H56.1973C55.7698 64.1735 54.9752 63.0718 53.9165 62.2708C52.8578 61.4699 51.5839 61.0067 50.2599 60.9413H50.2727Z" fill="#DEDEDF"/>
<path d="M44.3047 65.4346C44.6893 64.3923 45.3528 63.4767 46.2223 62.7886C47.0917 62.1005 48.1334 61.6665 49.2327 61.5344H49.3599H49.572C49.6454 61.5302 49.719 61.5302 49.7925 61.5344H49.8985H50.2123C51.3853 61.5888 52.5166 61.9873 53.4664 62.6805C54.4161 63.3737 55.1426 64.3312 55.556 65.4346H54.7756C54.3978 64.5747 53.8015 63.8297 53.0464 63.2742C52.2914 62.7187 51.4041 62.3722 50.4736 62.2696C49.5431 62.1669 48.6021 62.3117 47.7449 62.6893C46.8877 63.067 46.1445 63.6642 45.5897 64.4212C45.3595 64.7381 45.1619 65.0776 45.0002 65.4346H44.3047Z" fill="#3F2254"/>
<path d="M44.3052 65.4336H44.9838C44.8535 65.7317 44.7499 66.041 44.6742 66.3576H44.0508C44.1091 66.0428 44.1942 65.7337 44.3052 65.4336Z" fill="#3F2254"/>
<path d="M49.3278 73.5191C47.8494 73.3653 46.4803 72.667 45.4848 71.559C44.4892 70.451 43.938 69.012 43.9375 67.5198C43.9365 67.1295 43.9749 66.74 44.052 66.3574H44.6754C44.4175 67.4485 44.5062 68.5933 44.9293 69.6311C45.3523 70.6689 46.0884 71.5477 47.0343 72.1442C47.9801 72.7406 49.0883 73.0248 50.2032 72.9567C51.3181 72.8887 52.3837 72.4719 53.2507 71.7648C53.3145 71.7041 53.3914 71.6589 53.4755 71.6328C53.5568 71.6031 53.6443 71.5943 53.7299 71.6073C53.8168 71.616 53.9007 71.6436 53.9759 71.6882C53.9938 71.6996 54.0109 71.7124 54.0268 71.7265L53.6536 72.2204C52.738 72.9608 51.6262 73.4153 50.4559 73.5276H50.2523H49.9003C49.7392 73.5276 49.578 73.5276 49.4211 73.5063L49.3278 73.5191Z" fill="#3F2254"/>
<path d="M44.2656 65.4333C44.6515 64.3847 45.3204 63.4645 46.1974 62.7757C47.0745 62.0869 48.1251 61.6567 49.2318 61.5332C48.1325 61.6653 47.0908 62.0993 46.2214 62.7874C45.3519 63.4755 44.6884 64.3911 44.3038 65.4333H44.2656Z" fill="#3F2254"/>
<path d="M44.0117 66.3584C44.0668 66.0688 44.1448 65.784 44.245 65.5069V65.4473H44.2831C44.1721 65.7474 44.087 66.0565 44.0287 66.3712L44.0117 66.3584Z" fill="#3F2254"/>
<path d="M43.4336 66.3576C43.4907 66.0438 43.5715 65.735 43.6753 65.4336H44.2648V65.4932C44.1646 65.7704 44.0866 66.0551 44.0316 66.3448L43.4336 66.3576Z" fill="#3F2254"/>
<path d="M46.5759 62.5043C45.5173 63.2108 44.7094 64.2365 44.2688 65.4337H43.6836C43.693 65.399 43.7043 65.3649 43.7175 65.3315C44.182 64.0355 45.0361 62.9164 46.1617 62.129C47.2873 61.3415 48.6287 60.9245 50.0005 60.9358C51.3724 60.947 52.7069 61.3858 53.8195 62.1916C54.9322 62.9974 55.768 64.1303 56.2114 65.4337H55.5837C55.1748 64.3204 54.4475 63.3531 53.4931 62.6532C52.5387 61.9533 51.3997 61.552 50.2189 61.4995H49.9051H49.7991C49.7256 61.4952 49.652 61.4952 49.5785 61.4995C49.5079 61.4951 49.4371 61.4951 49.3665 61.4995H49.2393C48.2835 61.6128 47.3695 61.9576 46.5759 62.5043Z" fill="#3F2254"/>
<path d="M46.3441 72.3838C45.4265 71.7058 44.7199 70.7797 44.3069 69.7137C43.8939 68.6476 43.7915 67.4856 44.0116 66.3633H44.0497C43.9726 66.7459 43.9343 67.1353 43.9352 67.5257C43.9357 69.0178 44.487 70.4569 45.4825 71.5649C46.478 72.6729 47.8471 73.3712 49.3255 73.5249C48.2469 73.4235 47.2162 73.029 46.3441 72.3838Z" fill="#3F2254"/>
<path d="M43.6087 69.4997C43.3018 68.4812 43.2422 67.4038 43.4348 66.3574H44.0116C43.8489 67.1829 43.8605 68.0334 44.0454 68.8541C44.2304 69.6749 44.5846 70.4475 45.0853 71.1223C45.586 71.7971 46.222 72.3591 46.9524 72.7719C47.6827 73.1847 48.4912 73.4392 49.3255 73.519H49.4188C49.5781 73.5347 49.738 73.5418 49.898 73.5403H50.25H50.4536C51.8405 73.4195 53.1422 72.8173 54.1348 71.8372L54.1644 71.8713C54.2496 72.0027 54.2861 72.1599 54.2675 72.3156C54.2489 72.4713 54.1764 72.6154 54.0627 72.7228C53.2226 73.4061 52.2279 73.8713 51.1664 74.0773C50.1049 74.2833 49.0093 74.2237 47.9761 73.9039C46.9429 73.5841 46.0041 73.0139 45.2424 72.2435C44.4807 71.4732 43.9196 70.5265 43.6087 69.4869V69.4997Z" fill="#3F2254"/>
<path d="M43.6799 65.4336C43.5761 65.735 43.4953 66.0438 43.4382 66.3576H40.8555C40.8555 66.2 40.8979 66.0467 40.9276 65.8934C40.9573 65.7402 40.9869 65.5869 41.0251 65.4336H43.6799Z" fill="#DEDEDF"/>
<path d="M39.6673 65.4336H41.0286C40.9905 65.5869 40.9608 65.7402 40.9311 65.8934C40.9014 66.0467 40.8802 66.2 40.859 66.3576H39.5273C39.5567 66.0472 39.6035 65.7387 39.6673 65.4336Z" fill="#3F2355"/>
<path d="M49.9407 56.996C47.5211 56.9967 45.1763 57.8374 43.3035 59.3754C41.4307 60.9134 40.1452 63.0542 39.6648 65.435H38.418C38.9019 62.727 40.313 60.2738 42.4073 58.4994C44.5016 56.7251 47.1475 55.741 49.8877 55.7172C52.628 55.6935 55.2904 56.6316 57.4148 58.3695C59.5393 60.1073 60.9923 62.5356 61.5227 65.2349L61.5609 65.435H60.2208C59.7402 63.0535 58.4541 60.9121 56.5804 59.374C54.7068 57.8359 52.3609 56.9958 49.9407 56.996Z" fill="#3F2355"/>
<path d="M38.4202 65.4336H39.667C39.6032 65.7387 39.5565 66.0472 39.5271 66.3576H38.293C38.293 66.2 38.3269 66.0467 38.3481 65.8934C38.3693 65.7402 38.3947 65.5698 38.4202 65.4336Z" fill="#3F2355"/>
<path d="M39.4401 67.5198C39.4404 69.9366 40.2688 72.2798 41.7862 74.156C43.3036 76.0322 45.4177 77.3272 47.7737 77.8237C46.6427 77.8776 45.5712 77.9344 44.559 77.994C43.0346 77.2026 41.702 76.0846 40.6555 74.719C39.6089 73.3535 38.8741 71.7737 38.5029 70.0915C38.3165 69.2643 38.2212 68.419 38.2188 67.5709C38.2188 67.1664 38.2187 66.7577 38.2739 66.3574H39.525C39.4732 66.7428 39.4449 67.131 39.4401 67.5198Z" fill="#3F2355"/>
<path d="M32.6549 65.4338H38.4184C38.393 65.5871 38.3675 65.7403 38.3463 65.8936C38.3251 66.0469 38.3081 66.2002 38.2912 66.3577H32.6549C32.5908 66.3639 32.5261 66.3566 32.4649 66.3362C32.4038 66.3158 32.3476 66.2828 32.2999 66.2393C32.2522 66.1958 32.2141 66.1427 32.188 66.0836C32.1619 66.0244 32.1484 65.9604 32.1484 65.8957C32.1484 65.8311 32.1619 65.7671 32.188 65.7079C32.2141 65.6488 32.2522 65.5957 32.2999 65.5522C32.3476 65.5087 32.4038 65.4757 32.4649 65.4553C32.5261 65.4349 32.5908 65.4276 32.6549 65.4338Z" fill="#3F2355"/>
<path d="M24.6445 63.8418C25.6967 64.4566 26.4717 65.4558 26.8074 66.6307C26.3452 67.0564 25.9126 67.4482 25.5351 67.7547C25.5648 66.5455 24.9923 65.017 24.6445 63.8418Z" fill="#3F2355"/>
<path d="M24.4023 62.8457C25.6195 63.4375 27.248 64.6084 27.634 66.7586C26.9206 67.4706 26.1504 68.1228 25.3311 68.7087C25.4592 68.4071 25.5255 68.0828 25.5262 67.755C25.9121 67.4484 26.3447 67.078 26.7985 66.6309C26.4627 65.456 25.6878 64.4568 24.6356 63.842C24.5365 63.5153 24.4586 63.1825 24.4023 62.8457Z" fill="#3F2355"/>
<path d="M24.4803 69.4398H25.2776C24.9336 69.6844 24.5705 69.9008 24.1919 70.087C24.1191 70.1266 24.039 70.1507 23.9565 70.158C23.874 70.1653 23.7909 70.1555 23.7123 70.1294C23.6337 70.1032 23.5613 70.0611 23.4995 70.0057C23.4377 69.9504 23.3879 69.8829 23.3531 69.8074C23.3183 69.732 23.2992 69.6502 23.2971 69.5671C23.295 69.484 23.3098 69.4013 23.3407 69.3242C23.3716 69.2471 23.418 69.1771 23.4768 69.1186C23.5357 69.0602 23.6059 69.0144 23.683 68.9842C23.683 68.9842 23.9375 68.8607 24.3701 68.584C24.4167 68.9076 24.4464 69.1418 24.4634 69.2482C24.4732 69.3116 24.4789 69.3756 24.4803 69.4398Z" fill="#3F2355"/>
<path d="M27.8962 67.2737C27.0935 68.0793 26.2174 68.8077 25.2795 69.4495H24.4822C24.4864 69.3857 24.4864 69.3217 24.4822 69.2579C24.4822 69.1514 24.4356 68.9173 24.3889 68.5937C24.6943 68.3978 25.0844 68.1253 25.5425 67.7421C25.5418 68.0699 25.4755 68.3943 25.3474 68.6959C26.1666 68.1099 26.9368 67.4577 27.6502 66.7458C27.2643 64.6169 25.6358 63.4247 24.4186 62.8329C24.4777 63.1699 24.5584 63.5027 24.6603 63.8292C24.3216 63.6201 23.9671 63.4379 23.6001 63.2842C23.5238 62.7903 23.4432 62.3177 23.3711 61.9004C24.4398 62.2325 27.5018 63.4545 28.0828 66.7117C28.1019 66.8136 28.0948 66.9187 28.0622 67.0171C28.0295 67.1154 27.9724 67.2038 27.8962 67.2737Z" fill="#3F2355"/>
<path d="M23.3543 61.9137C23.4263 62.3395 23.5069 62.8036 23.5833 63.2975C23.3077 63.1797 23.0243 63.0815 22.7351 63.0037C22.6177 62.9771 22.5109 62.9159 22.4285 62.8279C22.3461 62.7398 22.2919 62.629 22.2728 62.5098C22.258 62.4324 22.258 62.3529 22.2728 62.2756C22.2903 62.1976 22.323 62.1238 22.3689 62.0585C22.4149 61.9932 22.4732 61.9376 22.5405 61.8949C22.6079 61.8522 22.6829 61.8232 22.7614 61.8096C22.8399 61.796 22.9203 61.7981 22.998 61.8157C23.1184 61.8419 23.2374 61.8746 23.3543 61.9137Z" fill="#3F2355"/>
<path d="M22.6204 69.3544C22.5101 68.5624 22.0012 64.9433 21.6068 62.6185L22.2641 62.5078C22.2809 62.6294 22.334 62.743 22.4166 62.8335C22.4992 62.924 22.6072 62.9871 22.7264 63.0145C23.0156 63.0923 23.2991 63.1905 23.5746 63.3083C23.8799 65.203 24.2023 67.4596 24.3634 68.5965C23.9393 68.8732 23.6806 68.9925 23.6764 68.9967C23.5992 69.0269 23.5291 69.0727 23.4702 69.1311C23.4113 69.1896 23.365 69.2596 23.3341 69.3367C23.3032 69.4138 23.2883 69.4965 23.2904 69.5796C23.2926 69.6627 23.3116 69.7445 23.3464 69.8199C23.3812 69.8954 23.4311 69.9629 23.4929 70.0182C23.5546 70.0736 23.627 70.1157 23.7056 70.1419C23.7842 70.168 23.8673 70.1778 23.9498 70.1705C24.0323 70.1632 24.1125 70.1391 24.1853 70.0995C24.5639 69.9133 24.927 69.6969 25.271 69.4523H37.2178C37.43 69.4536 37.6354 69.5278 37.7997 69.6626C37.9641 69.7974 38.0775 69.9846 38.1211 70.1932C38.1276 70.2554 38.1276 70.3182 38.1211 70.3805C38.1211 70.6256 38.0241 70.8606 37.8516 71.0338C37.679 71.2071 37.4449 71.3045 37.2008 71.3045H20.8477L22.6204 69.3544Z" fill="#3F2355"/>
<path d="M21.6018 62.6202C21.4788 61.8963 21.3643 61.296 21.2795 60.9468L21.2031 60.6233L21.3431 60.3252C22.3609 58.1963 35.0159 49.8382 54.4226 49.6807C54.5444 49.635 54.6746 49.6161 54.8043 49.6253C54.8099 49.6811 54.8242 49.7357 54.8467 49.7871L53.761 49.8425C53.5677 49.8566 53.3838 49.9316 53.2354 50.0568C53.0871 50.182 52.9819 50.3511 52.9349 50.5399C52.8879 50.7287 52.9014 50.9275 52.9736 51.1081C53.0458 51.2887 53.1729 51.4418 53.3369 51.5456C36.0889 51.9714 24.9225 58.9457 23.1964 60.9128C23.2515 61.1895 23.3151 61.5259 23.383 61.9006C23.2647 61.8613 23.1444 61.8286 23.0225 61.8027C22.9448 61.785 22.8644 61.783 22.7859 61.7965C22.7074 61.8101 22.6324 61.8391 22.565 61.8818C22.4977 61.9245 22.4394 61.9801 22.3934 62.0454C22.3475 62.1107 22.3148 62.1845 22.2973 62.2625C22.2825 62.3399 22.2825 62.4193 22.2973 62.4967L21.6399 62.6074L21.6018 62.6202Z" fill="#3F2355"/>
</svg>
