<svg width="177" height="109" viewBox="0 0 177 109" fill="none" xmlns="http://www.w3.org/2000/svg">
<path d="M139.54 75.0688L139.114 80.6039C131.931 80.5401 128.733 82.2602 125.638 83.9336C122.887 85.4153 120.269 86.8033 114.887 86.748C109.033 86.6756 105.017 85.0746 101.13 83.5291C97.132 81.9366 93.351 80.4294 87.8925 80.5486C82.8811 80.5486 79.0235 82.1708 75.2937 83.7462C71.5638 85.3216 67.8042 86.9013 62.8779 86.9013C58.1943 86.9013 54.7199 85.3727 51.0369 83.7547C47.1197 82.0516 43.0791 80.2633 37.2373 80.0802L36.5391 74.5195C42.4361 74.5749 46.4896 76.3546 50.4153 78.0748C51.1434 78.3941 51.897 78.7262 52.6506 79.0328L52.9614 79.1648C55.7333 80.2974 58.8543 81.3491 62.8779 81.3491C68.115 81.3491 72.0662 79.6843 75.8898 78.0705C79.6452 76.4909 83.1919 74.9964 87.9181 74.9921C93.07 74.8857 96.7147 76.3206 100.568 77.8534C104.579 79.4501 108.726 81.1021 114.866 81.1788C120.665 81.2426 123.564 79.6928 126.362 78.1983C129.372 76.5973 132.442 74.9368 139.54 75.0688Z" fill="#DEDFE0"/>
<path d="M140.445 75.092H140.406C140.112 75.092 139.823 75.092 139.555 75.0707L139.699 73.0312H140.496C140.755 73.0522 140.996 73.1712 141.171 73.364C141.346 73.5568 141.44 73.809 141.435 74.069C141.43 74.3291 141.326 74.5775 141.145 74.7636C140.963 74.9497 140.717 75.0596 140.457 75.0707L140.445 75.092Z" fill="#3F2355"/>
<path d="M139.137 80.6172H139.941C140.068 80.6288 140.186 80.6874 140.272 80.7816C140.358 80.8757 140.406 80.9986 140.406 81.126C140.406 81.2534 140.358 81.3763 140.272 81.4704C140.186 81.5646 140.068 81.6232 139.941 81.6348H139.09L139.137 80.6172Z" fill="#3F2355"/>
<path d="M132.248 65.7618C131.647 68.0056 129.868 73 125.35 76.4489C122.685 77.888 120.156 79.2377 114.914 79.1696C109.153 79.093 105.185 77.5133 101.345 75.9848C97.504 74.4562 93.4846 72.8595 87.9154 72.983C82.806 72.983 78.8973 74.6308 75.1419 76.2189C71.3865 77.8071 67.7461 79.3357 62.922 79.3357C59.3284 79.3357 56.4799 78.4032 53.9465 77.3728C51.7921 75.3504 50.0762 70.8924 49.4375 65.7618H57.4464L57.7913 64.7441H60.9549C60.9549 64.811 60.9681 64.8773 60.9939 64.939C61.0196 65.0008 61.0573 65.0568 61.1048 65.1039C61.1523 65.151 61.2087 65.1883 61.2706 65.2135C61.3326 65.2387 61.3989 65.2514 61.4658 65.2508H110.648C110.715 65.2514 110.781 65.2387 110.843 65.2135C110.905 65.1883 110.961 65.151 111.009 65.1039C111.056 65.0568 111.094 65.0008 111.12 64.939C111.146 64.8773 111.159 64.811 111.159 64.7441H113.803L114.399 65.4084L114.748 65.7618H132.248Z" fill="white"/>
<path d="M128.554 74.8555C127.757 75.7553 126.874 76.5753 125.918 77.3037L125.441 76.4266C126.395 75.8859 127.396 75.3621 128.554 74.8555Z" fill="#3F2355"/>
<path d="M125.918 77.3051C126.874 76.5766 127.757 75.7567 128.554 74.8568C129.137 74.6056 129.763 74.3714 130.444 74.1543C129.333 75.6519 128.017 76.9862 126.535 78.1183L125.931 77.3264L125.918 77.3051Z" fill="#3F2355"/>
<path d="M125.931 77.3264L126.535 78.1184C128.017 76.9863 129.333 75.6519 130.444 74.1543C132.718 73.4348 135.609 72.9494 139.688 73.0303L139.543 75.0698C132.445 74.9335 129.375 76.5983 126.403 78.2035L125.918 77.3094L125.931 77.3264Z" fill="#3F2355"/>
<path d="M125.906 77.3125L126.391 78.2066C126.244 78.2844 126.08 78.3253 125.914 78.3259C125.73 78.3266 125.549 78.2771 125.39 78.1825C125.232 78.088 125.102 77.9521 125.016 77.7894L125.906 77.3125Z" fill="#3F2355"/>
<path d="M125.912 77.31L125.907 77.3143L125.895 77.293L125.912 77.31Z" fill="#3F2355"/>
<path d="M125.895 77.2924V77.3137L125.005 77.7905C124.902 77.5984 124.862 77.3783 124.893 77.1622C124.924 76.9461 125.023 76.7456 125.175 76.5898L125.895 77.2924Z" fill="#3F2355"/>
<path d="M125.418 76.4141L125.895 77.2912L125.18 76.5886L125.286 76.495H125.312L125.401 76.4396L125.418 76.4141Z" fill="#3F2355"/>
<path d="M125.41 76.418L125.32 76.4733C125.332 76.4672 125.342 76.4585 125.35 76.4478L125.41 76.418Z" fill="#3F2355"/>
<path d="M125.294 76.4961L125.188 76.5898C125.219 76.5541 125.255 76.5227 125.294 76.4961Z" fill="#3F2355"/>
<path d="M114.397 65.4084L113.801 64.7441H115.138H133.489C132.741 68.4909 131.027 71.977 128.516 74.8564C127.358 75.3461 126.357 75.8868 125.395 76.4063L125.335 76.4361C129.853 72.966 131.632 67.9929 132.233 65.749H114.746L114.397 65.4084Z" fill="#3F2355"/>
<path d="M124.029 77.1936L125.221 76.2781C129.568 72.94 131.352 68.1457 131.97 65.9742H114.658L114.232 65.5484L113.316 64.5308H115.045L115.13 64.4414L115.241 64.5308H133.767L133.728 64.7778C132.964 68.5606 131.233 72.0811 128.704 74.9965L128.627 75.0519C127.486 75.533 126.499 76.0652 125.549 76.5804L125.455 76.6315H125.421L124.029 77.1936ZM114.836 65.5697H132.528L132.455 65.838C131.486 69.4595 129.577 72.7602 126.92 75.4053C127.401 75.1626 127.899 74.9241 128.432 74.6985C130.832 71.9059 132.495 68.5568 133.269 64.9566H114.279L114.836 65.5697Z" fill="#3F2355"/>
<path d="M106.598 56.7057L113.802 64.7445H111.158C111.158 64.609 111.104 64.479 111.009 64.3832C110.913 64.2874 110.783 64.2336 110.647 64.2336H61.444C61.3768 64.233 61.3101 64.2458 61.2478 64.2713C61.1856 64.2968 61.129 64.3344 61.0815 64.3819C61.0339 64.4295 60.9963 64.4861 60.9708 64.5483C60.9453 64.6105 60.9325 64.6772 60.9331 64.7445H57.7695L63.4409 47.9219H95.9366L96.2857 48.4158H99.1555L105.653 55.6541L94.5826 55.6115C94.4471 55.6115 94.3171 55.6653 94.2213 55.7611C94.1255 55.857 94.0716 55.9869 94.0716 56.1224C94.0716 56.2579 94.1255 56.3879 94.2213 56.4837C94.3171 56.5795 94.4471 56.6334 94.5826 56.6334L106.598 56.7057ZM86.7865 58.8943C87.3301 58.8959 87.8618 58.7363 88.3146 58.4356C88.7673 58.1348 89.1207 57.7065 89.3298 57.2048C89.539 56.7032 89.5946 56.1507 89.4896 55.6174C89.3846 55.0841 89.1237 54.594 88.74 54.2091C88.3562 53.8242 87.8669 53.5617 87.334 53.4551C86.801 53.3484 86.2484 53.4023 85.7461 53.6099C85.2437 53.8175 84.8143 54.1695 84.5122 54.6213C84.21 55.0731 84.0488 55.6044 84.0487 56.148C84.0487 56.8749 84.3369 57.5721 84.8501 58.0869C85.3633 58.6017 86.0596 58.892 86.7865 58.8943ZM78.5349 58.8943C79.078 58.8943 79.609 58.7332 80.0606 58.4314C80.5123 58.1297 80.8643 57.7007 81.0721 57.1989C81.28 56.6971 81.3344 56.1449 81.2284 55.6122C81.1224 55.0795 80.8609 54.5901 80.4768 54.206C80.0927 53.822 79.6034 53.5604 79.0707 53.4544C78.5379 53.3485 77.9857 53.4029 77.4839 53.6107C76.9821 53.8186 76.5532 54.1706 76.2514 54.6222C75.9497 55.0738 75.7886 55.6048 75.7886 56.148C75.7886 56.8763 76.0779 57.5749 76.593 58.0899C77.108 58.6049 77.8065 58.8943 78.5349 58.8943ZM70.2832 58.8943C70.8264 58.8943 71.3574 58.7332 71.809 58.4314C72.2606 58.1297 72.6126 57.7007 72.8205 57.1989C73.0283 56.6971 73.0827 56.1449 72.9768 55.6122C72.8708 55.0795 72.6092 54.5901 72.2252 54.206C71.8411 53.822 71.3518 53.5604 70.819 53.4544C70.2863 53.3485 69.7341 53.4029 69.2323 53.6107C68.7305 53.8186 68.3016 54.1706 67.9998 54.6222C67.698 55.0738 67.537 55.6048 67.537 56.148C67.537 56.8763 67.8263 57.5749 68.3413 58.0899C68.8564 58.6049 69.5549 58.8943 70.2832 58.8943Z" fill="white"/>
<path d="M110.648 65.2508H61.4445C61.3776 65.2514 61.3113 65.2387 61.2493 65.2135C61.1874 65.1883 61.131 65.151 61.0835 65.1039C61.036 65.0568 60.9983 65.0008 60.9726 64.939C60.9468 64.8773 60.9336 64.811 60.9336 64.7441H111.176C111.176 64.8125 111.162 64.8802 111.135 64.9431C111.109 65.006 111.069 65.0628 111.02 65.1102C110.971 65.1575 110.912 65.1944 110.848 65.2185C110.784 65.2427 110.716 65.2537 110.648 65.2508Z" fill="#3F2355"/>
<path d="M111.16 64.7453H60.918C60.9174 64.6781 60.9302 64.6114 60.9557 64.5491C60.9812 64.4869 61.0188 64.4303 61.0664 64.3828C61.1139 64.3352 61.1705 64.2976 61.2327 64.2721C61.295 64.2467 61.3617 64.2338 61.4289 64.2344H110.649C110.785 64.2344 110.915 64.2882 111.011 64.384C111.106 64.4799 111.16 64.6098 111.16 64.7453Z" fill="#3F2355"/>
<path d="M108.217 55.457L115.626 63.7214H134.713L134.535 64.8966C133.884 68.2505 132.485 71.4146 130.443 74.1531C129.762 74.3702 129.136 74.6044 128.552 74.8556C131.063 71.9762 132.778 68.4901 133.525 64.7433H115.174L107.834 56.5513C107.92 56.4539 107.965 56.3276 107.961 56.1979C107.957 56.0683 107.904 55.9449 107.812 55.853L108.217 55.457Z" fill="#3F2355"/>
<path d="M107.438 55.6878C107.505 55.6884 107.571 55.7022 107.633 55.7284C107.695 55.7546 107.751 55.7927 107.798 55.8405C107.845 55.8883 107.882 55.945 107.907 56.0072C107.932 56.0694 107.945 56.1359 107.945 56.203C107.945 56.3259 107.9 56.4444 107.817 56.5352L107.055 55.6836L107.438 55.6878Z" fill="#3F2355"/>
<path d="M107.052 55.6875L107.814 56.5391C107.768 56.594 107.71 56.6382 107.644 56.6683C107.579 56.6985 107.507 56.7139 107.435 56.7136H106.584L105.664 55.6875H107.052Z" fill="#3F2355"/>
<path d="M107.439 56.7097C107.511 56.71 107.582 56.6946 107.648 56.6644C107.713 56.6343 107.771 56.5901 107.818 56.5352L115.158 64.7187H113.821L106.617 56.6799H107.469L107.439 56.7097Z" fill="#3F2355"/>
<path d="M106.599 56.7054L94.6086 56.6586C94.4731 56.6586 94.3431 56.6048 94.2473 56.5089C94.1515 56.4131 94.0977 56.2832 94.0977 56.1477C94.0977 56.0121 94.1515 55.8822 94.2473 55.7864C94.3431 55.6905 94.4731 55.6367 94.6086 55.6367L105.679 55.6793L106.599 56.7054Z" fill="#3F2355"/>
<path d="M96.7633 47.4113H95.6137L95.2773 46.9004H96.4993L96.8144 47.3773L96.7633 47.4113Z" fill="#3F2355"/>
<path d="M96.7629 47.922H95.9497L95.6133 47.411H96.7629L96.814 47.377L96.8395 47.411H97.2653C97.2653 47.5451 97.2127 47.6737 97.1187 47.7693C97.0247 47.8649 96.8969 47.9197 96.7629 47.922Z" fill="#3F2355"/>
<path d="M96.8151 47.3773L96.5 46.9004H96.764C96.8311 46.9004 96.8975 46.9136 96.9595 46.9393C97.0215 46.965 97.0778 47.0026 97.1253 47.05C97.1727 47.0975 97.2104 47.1538 97.236 47.2158C97.2617 47.2778 97.2749 47.3442 97.2749 47.4113H96.8491L96.8151 47.3773Z" fill="#3F2355"/>
<path d="M99.1837 48.4326H96.314L95.9648 47.9387H96.7781C96.9136 47.9387 97.0436 47.8848 97.1394 47.789C97.2352 47.6932 97.289 47.5632 97.289 47.4277H99.6351L107.052 55.7049H105.677L99.1837 48.4326Z" fill="#3F2355"/>
<path d="M95.6127 47.4102L95.9491 47.9211H63.4534L63.5173 47.738L62.5508 47.4102H63.5727H95.6127Z" fill="#3F2355"/>
<path d="M95.2779 46.9004L95.6143 47.4113H63.5742V46.9004H95.2779Z" fill="#3F2355"/>
<path d="M91.9696 41.8617L95.2949 46.8987H63.5742V36.5905C63.5742 36.5758 63.5801 36.5617 63.5904 36.5514C63.6008 36.541 63.6149 36.5352 63.6296 36.5352H88.4398L91.2841 40.8441H80.2138C80.143 40.8376 80.0717 40.8459 80.0044 40.8686C79.9371 40.8912 79.8752 40.9276 79.8227 40.9755C79.7703 41.0233 79.7284 41.0816 79.6997 41.1466C79.671 41.2116 79.6562 41.2818 79.6562 41.3529C79.6562 41.4239 79.671 41.4941 79.6997 41.5591C79.7284 41.6241 79.7703 41.6824 79.8227 41.7303C79.8752 41.7782 79.9371 41.8146 80.0044 41.8372C80.0717 41.8598 80.143 41.8682 80.2138 41.8617H91.9696ZM72.8094 44.3738C73.3526 44.3738 73.8835 44.2127 74.3352 43.911C74.7868 43.6092 75.1388 43.1803 75.3467 42.6785C75.5545 42.1766 75.6089 41.6245 75.5029 41.0917C75.397 40.559 75.1354 40.0697 74.7513 39.6856C74.3673 39.3015 73.8779 39.0399 73.3452 38.934C72.8125 38.828 72.2603 38.8824 71.7585 39.0903C71.2566 39.2981 70.8277 39.6501 70.526 40.1017C70.2242 40.5534 70.0631 41.0843 70.0631 41.6275C70.0631 42.3559 70.3525 43.0544 70.8675 43.5694C71.3825 44.0845 72.0811 44.3738 72.8094 44.3738Z" fill="white"/>
<path d="M96.764 46.9004H96.5L93.0938 41.7059C93.139 41.6598 93.1748 41.6052 93.1989 41.5453C93.223 41.4854 93.235 41.4213 93.2343 41.3567C93.2353 41.2552 93.2057 41.1557 93.1491 41.0714L93.6728 40.7266L97.3899 46.4107H100.094L108.217 55.4756L107.792 55.8546C107.745 55.8071 107.689 55.7694 107.628 55.7439C107.567 55.7183 107.501 55.7052 107.434 55.7055H107.051L99.6337 47.4113H97.2707C97.2707 47.2765 97.2174 47.1472 97.1225 47.0515C97.0276 46.9558 96.8988 46.9015 96.764 46.9004Z" fill="#3F2355"/>
<path d="M107.616 56.2845L107.471 56.1397C107.444 56.1123 107.411 56.0907 107.375 56.076C107.339 56.0614 107.301 56.0541 107.262 56.0546H106.785L99.3683 47.7774H96.886V47.5645C96.8866 47.5252 96.8793 47.4862 96.8645 47.4498C96.8497 47.4133 96.8278 47.3803 96.8 47.3525C96.7722 47.3247 96.7391 47.3027 96.7027 47.288C96.6663 47.2732 96.6273 47.2659 96.588 47.2664H96.226L92.6367 41.8292L92.7602 41.7057C92.7857 41.6801 92.8057 41.6495 92.8189 41.6158C92.832 41.5821 92.8382 41.546 92.8368 41.5099C92.8396 41.4509 92.8232 41.3926 92.79 41.3438L92.6708 41.165L93.5521 40.5859L97.3416 46.334H100.028L100.092 46.4021L108.357 55.6288L107.616 56.2845ZM106.977 55.6288H107.262C107.383 55.6281 107.501 55.6574 107.607 55.714L107.743 55.5947L99.8239 46.7598H97.1032L93.4159 41.1735L93.2456 41.3013C93.2627 41.3695 93.2713 41.4395 93.2711 41.5099C93.2723 41.6348 93.2415 41.7579 93.1817 41.8675L96.4432 46.8364H96.588C96.7433 46.8353 96.8948 46.8844 97.0199 46.9765C97.145 47.0686 97.2369 47.1987 97.282 47.3473H99.5599L99.6238 47.4155L106.977 55.6288Z" fill="#3F2355"/>
<path d="M93.1255 41.0707C93.1821 41.155 93.2118 41.2545 93.2107 41.356C93.2115 41.4206 93.1995 41.4847 93.1753 41.5446C93.1512 41.6045 93.1155 41.6591 93.0702 41.7051L92.5039 40.8536H92.6998C92.7831 40.8523 92.8654 40.8714 92.9396 40.9093C93.0138 40.9471 93.0777 41.0026 93.1255 41.0707Z" fill="#3F2355"/>
<path d="M92.5058 40.8445L93.072 41.696C93.0242 41.746 92.9667 41.7857 92.903 41.8128C92.8393 41.8399 92.7708 41.8537 92.7016 41.8536H91.9693L91.3008 40.8359L92.5058 40.8445Z" fill="#3F2355"/>
<path d="M92.7011 41.8626C92.7703 41.8628 92.8388 41.8489 92.9025 41.8219C92.9662 41.7948 93.0237 41.7551 93.0715 41.7051L96.4778 46.8996H95.2558L91.9688 41.8626H92.7011Z" fill="#3F2355"/>
<path d="M96.895 47.1133H95.1664L91.543 41.6505H92.6883C92.729 41.6508 92.7694 41.6426 92.8067 41.6265C92.8441 41.6104 92.8777 41.5866 92.9055 41.5568L93.0928 41.3652L96.895 47.1133ZM95.392 46.6875H96.1073L93.0162 42.0039C92.9179 42.0513 92.8102 42.0761 92.7011 42.0763H92.3477L95.392 46.6875Z" fill="#3F2355"/>
<path d="M91.2834 40.8439L91.9689 41.8615H80.2216C80.1509 41.868 80.0796 41.8597 80.0122 41.8371C79.9449 41.8144 79.883 41.778 79.8306 41.7301C79.7781 41.6823 79.7362 41.624 79.7075 41.559C79.6789 41.494 79.6641 41.4238 79.6641 41.3527C79.6641 41.2817 79.6789 41.2115 79.7075 41.1465C79.7362 41.0815 79.7781 41.0232 79.8306 40.9753C79.883 40.9275 79.9449 40.891 80.0122 40.8684C80.0796 40.8458 80.1509 40.8374 80.2216 40.8439H91.2834Z" fill="#3F2355"/>
<path d="M88.9861 35.5144H77.375V34.4883H89.5353L93.6696 40.726L93.1459 41.0709C93.099 41.0011 93.0356 40.944 92.9613 40.9047C92.8871 40.8653 92.8042 40.8449 92.7202 40.8452H92.5243L88.9861 35.5144Z" fill="#3F2355"/>
<path d="M86.7891 54.424C87.131 54.4197 87.4665 54.5173 87.7528 54.7042C88.0392 54.8911 88.2635 55.1589 88.3973 55.4736C88.5311 55.7883 88.5683 56.1357 88.5042 56.4715C88.4401 56.8074 88.2775 57.1167 88.0372 57.36C87.797 57.6033 87.4897 57.7696 87.1547 57.8379C86.8196 57.9062 86.4718 57.8733 86.1555 57.7435C85.8391 57.6136 85.5685 57.3926 85.3781 57.1086C85.1877 56.8246 85.086 56.4903 85.0859 56.1484C85.0859 55.6947 85.2647 55.2593 85.5835 54.9365C85.9023 54.6137 86.3354 54.4296 86.7891 54.424Z" fill="#DEDFE0"/>
<path d="M86.7858 54.423C86.4438 54.4188 86.1084 54.5164 85.822 54.7033C85.5357 54.8901 85.3113 55.158 85.1775 55.4727C85.0437 55.7874 85.0065 56.1347 85.0707 56.4706C85.1348 56.8065 85.2973 57.1158 85.5376 57.3591C85.7779 57.6024 86.0851 57.7687 86.4202 57.837C86.7552 57.9053 87.103 57.8724 87.4194 57.7425C87.7357 57.6127 88.0063 57.3917 88.1967 57.1077C88.3872 56.8236 88.4889 56.4894 88.4889 56.1475C88.4878 55.6941 88.3087 55.2593 87.9902 54.9368C87.6716 54.6142 87.2391 54.4297 86.7858 54.423ZM84.5547 56.1475C84.5547 55.7052 84.6859 55.2728 84.9317 54.9051C85.1775 54.5374 85.5269 54.2509 85.9356 54.0819C86.3443 53.9128 86.794 53.8688 87.2277 53.9554C87.6614 54.042 88.0597 54.2553 88.3722 54.5683C88.6846 54.8814 88.8972 55.2801 88.9829 55.714C89.0687 56.1479 89.0238 56.5975 88.854 57.0058C88.6842 57.4142 88.397 57.763 88.0288 58.0082C87.6607 58.2533 87.2281 58.3837 86.7858 58.3828C86.1937 58.3817 85.6262 58.1457 85.2079 57.7266C84.7896 57.3075 84.5547 56.7396 84.5547 56.1475Z" fill="#3F2355"/>
<path d="M84.0508 56.1479C84.0516 55.6056 84.2133 55.0757 84.5153 54.6253C84.8173 54.1748 85.2461 53.824 85.7474 53.6173C86.2488 53.4105 86.8002 53.3571 87.3319 53.4637C87.8637 53.5703 88.3518 53.8322 88.7347 54.2163C89.1176 54.6004 89.378 55.0894 89.483 55.6214C89.5879 56.1535 89.5328 56.7047 89.3245 57.2054C89.1162 57.7062 88.764 58.1339 88.3127 58.4345C87.8613 58.7351 87.3309 58.8951 86.7886 58.8942C86.0617 58.892 85.3653 58.6016 84.8521 58.0868C84.339 57.5721 84.0508 56.8748 84.0508 56.1479ZM84.5575 56.1479C84.5575 56.5902 84.6887 57.0226 84.9345 57.3903C85.1803 57.758 85.5297 58.0445 85.9384 58.2135C86.3471 58.3826 86.7967 58.4266 87.2305 58.34C87.6642 58.2534 88.0625 58.0401 88.3749 57.7271C88.6874 57.414 88.9 57.0153 88.9857 56.5814C89.0715 56.1475 89.0266 55.6979 88.8568 55.2895C88.6869 54.8812 88.3998 54.5323 88.0316 54.2872C87.6634 54.0421 87.2308 53.9117 86.7886 53.9126C86.1964 53.9137 85.629 54.1497 85.2107 54.5688C84.7924 54.9879 84.5575 55.5558 84.5575 56.1479Z" fill="#3F2355"/>
<path d="M78.5369 57.8727C79.4893 57.8727 80.2613 57.1006 80.2613 56.1482C80.2613 55.1959 79.4893 54.4238 78.5369 54.4238C77.5845 54.4238 76.8125 55.1959 76.8125 56.1482C76.8125 57.1006 77.5845 57.8727 78.5369 57.8727Z" fill="#DEDFE0"/>
<path d="M77.3773 26.2969H76.3555V34.4974H77.3773V26.2969Z" fill="#3F2355"/>
<path d="M77.3773 25.7852V26.2961H76.3555V25.7852H76.8664H77.3773Z" fill="#3F2355"/>
<path d="M77.3773 34.4961H76.3555V35.5137H77.3773V34.4961Z" fill="#3F2355"/>
<path d="M78.5361 54.423C78.1951 54.423 77.8617 54.5242 77.5781 54.7137C77.2945 54.9031 77.0735 55.1725 76.943 55.4876C76.8125 55.8027 76.7783 56.1494 76.8449 56.4839C76.9114 56.8184 77.0756 57.1256 77.3168 57.3668C77.558 57.608 77.8652 57.7722 78.1997 57.8387C78.5342 57.9053 78.8809 57.8711 79.196 57.7406C79.5111 57.6101 79.7805 57.3891 79.9699 57.1055C80.1594 56.8219 80.2605 56.4885 80.2605 56.1475C80.2594 55.6905 80.0774 55.2525 79.7542 54.9294C79.4311 54.6062 78.9931 54.4242 78.5361 54.423ZM78.5361 58.3828C78.094 58.3828 77.6618 58.2517 77.2942 58.0061C76.9266 57.7605 76.6401 57.4113 76.4709 57.0029C76.3018 56.5944 76.2575 56.145 76.3437 55.7114C76.43 55.2778 76.6429 54.8794 76.9555 54.5668C77.2681 54.2542 77.6664 54.0413 78.1 53.9551C78.5337 53.8688 78.9831 53.9131 79.3916 54.0823C79.8 54.2515 80.1491 54.538 80.3948 54.9056C80.6404 55.2732 80.7715 55.7053 80.7715 56.1475C80.7715 56.7403 80.536 57.3089 80.1168 57.7281C79.6976 58.1473 79.129 58.3828 78.5361 58.3828Z" fill="#3F2355"/>
<path d="M76.3554 22.0684V25.2745H67.7461L69.1937 23.6736L67.7461 22.0684H76.3554Z" fill="#DEDFE0"/>
<path d="M75.7891 56.1486C75.7891 55.6055 75.9501 55.0745 76.2519 54.6229C76.5537 54.1713 76.9826 53.8193 77.4844 53.6114C77.9862 53.4035 78.5384 53.3491 79.0711 53.4551C79.6038 53.5611 80.0932 53.8226 80.4773 54.2067C80.8613 54.5908 81.1229 55.0801 81.2289 55.6129C81.3348 56.1456 81.2804 56.6978 81.0726 57.1996C80.8647 57.7014 80.5127 58.1303 80.0611 58.4321C79.6095 58.7339 79.0785 58.8949 78.5353 58.8949C77.8077 58.8927 77.1105 58.6026 76.5959 58.0881C76.0814 57.5735 75.7913 56.8763 75.7891 56.1486ZM76.3 56.1486C76.3 56.5907 76.4311 57.0229 76.6767 57.3905C76.9223 57.7581 77.2715 58.0446 77.6799 58.2138C78.0884 58.383 78.5378 58.4273 78.9714 58.341C79.4051 58.2548 79.8034 58.0419 80.116 57.7293C80.4286 57.4166 80.6415 57.0183 80.7277 56.5847C80.814 56.1511 80.7697 55.7017 80.6005 55.2932C80.4314 54.8847 80.1448 54.5356 79.7772 54.29C79.4096 54.0444 78.9775 53.9133 78.5353 53.9133C77.9425 53.9133 77.3739 54.1488 76.9547 54.568C76.5355 54.9872 76.3 55.5558 76.3 56.1486Z" fill="#3F2355"/>
<path d="M72.8069 39.9043C73.1487 39.9052 73.4825 40.0076 73.766 40.1985C74.0494 40.3895 74.2698 40.6604 74.399 40.9768C74.5282 41.2932 74.5605 41.6408 74.4917 41.9756C74.4229 42.3104 74.2562 42.6172 74.0128 42.8571C73.7693 43.097 73.4601 43.2591 73.1243 43.3228C72.7885 43.3866 72.4414 43.3492 72.1269 43.2153C71.8125 43.0813 71.5449 42.857 71.3582 42.5707C71.1715 42.2845 71.074 41.9492 71.0783 41.6074C71.085 41.1534 71.27 40.7202 71.5935 40.4015C71.917 40.0829 72.3529 39.9042 72.8069 39.9043Z" fill="#DEDFE0"/>
<path d="M70.2852 54.424C70.6271 54.4197 70.9626 54.5173 71.2489 54.7042C71.5353 54.8911 71.7596 55.1589 71.8934 55.4736C72.0272 55.7883 72.0644 56.1357 72.0003 56.4715C71.9362 56.8074 71.7736 57.1167 71.5333 57.36C71.293 57.6033 70.9858 57.7696 70.6508 57.8379C70.3157 57.9062 69.9679 57.8733 69.6516 57.7435C69.3352 57.6136 69.0646 57.3926 68.8742 57.1086C68.6838 56.8246 68.5821 56.4903 68.582 56.1484C68.582 55.6947 68.7607 55.2593 69.0795 54.9365C69.3983 54.6137 69.8315 54.4296 70.2852 54.424Z" fill="#DEDFE0"/>
<path d="M72.8071 39.9042C72.4702 39.9042 72.1409 40.0041 71.8609 40.1912C71.5808 40.3784 71.3625 40.6444 71.2336 40.9556C71.1047 41.2668 71.071 41.6092 71.1367 41.9396C71.2024 42.27 71.3646 42.5735 71.6028 42.8116C71.841 43.0498 72.1444 43.212 72.4748 43.2777C72.8052 43.3435 73.1476 43.3097 73.4588 43.1808C73.77 43.0519 74.036 42.8336 74.2232 42.5536C74.4103 42.2735 74.5102 41.9442 74.5102 41.6073C74.5036 41.1577 74.322 40.7283 74.0041 40.4103C73.6861 40.0924 73.2567 39.9108 72.8071 39.9042ZM70.5717 41.6073C70.5742 41.1658 70.7075 40.7349 70.9546 40.369C71.2018 40.003 71.5518 39.7185 71.9604 39.5513C72.3691 39.384 72.8182 39.3416 73.2509 39.4293C73.6837 39.517 74.0808 39.7309 74.3922 40.044C74.7035 40.3571 74.9151 40.7554 75.0004 41.1887C75.0856 41.622 75.0406 42.0708 74.871 42.4785C74.7015 42.8862 74.4149 43.2346 74.0476 43.4796C73.6803 43.7247 73.2486 43.8555 72.8071 43.8555C72.5128 43.8577 72.221 43.8018 71.9484 43.691C71.6758 43.5802 71.4277 43.4167 71.2184 43.2098C71.0092 43.0029 70.8428 42.7567 70.7289 42.4854C70.615 42.2141 70.5558 41.9229 70.5547 41.6286L70.5717 41.6073Z" fill="#3F2355"/>
<path d="M70.5543 41.6291C70.5543 42.0705 70.685 42.502 70.9298 42.8692C71.1747 43.2364 71.5228 43.5229 71.9303 43.6926C72.3378 43.8623 72.7863 43.9075 73.2195 43.8227C73.6526 43.7378 74.051 43.5266 74.3642 43.2157C74.6775 42.9047 74.8918 42.508 74.9799 42.0755C75.0681 41.6431 75.0262 41.1941 74.8597 40.7854C74.6931 40.3767 74.4092 40.0264 74.0439 39.7787C73.6785 39.5311 73.248 39.3971 72.8066 39.3937C72.5117 39.3915 72.2192 39.4477 71.946 39.559C71.6728 39.6703 71.4244 39.8346 71.215 40.0424C71.0056 40.2502 70.8394 40.4974 70.726 40.7697C70.6126 41.042 70.5543 41.3341 70.5543 41.6291ZM72.7896 44.3754C72.2463 44.3762 71.7149 44.2159 71.2627 43.9146C70.8105 43.6134 70.4579 43.1848 70.2493 42.683C70.0408 42.1813 69.9858 41.6289 70.0913 41.0959C70.1968 40.5629 70.458 40.0732 70.8419 39.6887C71.2258 39.3042 71.7152 39.0422 72.248 38.9359C72.7809 38.8296 73.3333 38.8837 73.8353 39.0915C74.3374 39.2992 74.7666 39.6512 75.0685 40.1029C75.3705 40.5546 75.5316 41.0858 75.5316 41.6291C75.5317 42.3538 75.2453 43.0491 74.7348 43.5635C74.2244 44.078 73.5313 44.3698 72.8066 44.3754H72.7896Z" fill="#3F2355"/>
<path d="M70.2822 54.423C69.9403 54.4188 69.6048 54.5164 69.3185 54.7033C69.0321 54.8902 68.8078 55.158 68.674 55.4727C68.5402 55.7874 68.503 56.1347 68.5671 56.4706C68.6312 56.8065 68.7937 57.1158 69.034 57.3591C69.2743 57.6024 69.5815 57.7687 69.9166 57.837C70.2517 57.9053 70.5995 57.8724 70.9158 57.7425C71.2322 57.6127 71.5027 57.3917 71.6932 57.1077C71.8836 56.8236 71.9853 56.4894 71.9853 56.1475C71.9843 55.6941 71.8052 55.2593 71.4866 54.9368C71.168 54.6142 70.7355 54.4297 70.2822 54.423ZM68.0469 56.1475C68.0469 55.7053 68.178 55.2732 68.4236 54.9056C68.6692 54.538 69.0183 54.2515 69.4268 54.0823C69.8352 53.9131 70.2847 53.8688 70.7183 53.9551C71.1519 54.0413 71.5502 54.2542 71.8629 54.5668C72.1755 54.8794 72.3884 55.2778 72.4746 55.7114C72.5609 56.145 72.5166 56.5944 72.3474 57.0029C72.1782 57.4113 71.8917 57.7605 71.5241 58.0061C71.1565 58.2517 70.7243 58.3828 70.2822 58.3828C69.6894 58.3828 69.1208 58.1473 68.7016 57.7281C68.2824 57.3089 68.0469 56.7403 68.0469 56.1475Z" fill="#3F2355"/>
<path d="M67.5352 56.1486C67.5352 55.6055 67.6962 55.0745 67.998 54.6229C68.2998 54.1713 68.7287 53.8193 69.2305 53.6114C69.7323 53.4035 70.2845 53.3491 70.8172 53.4551C71.3499 53.5611 71.8393 53.8226 72.2234 54.2067C72.6074 54.5908 72.869 55.0801 72.975 55.6129C73.0809 56.1456 73.0265 56.6978 72.8187 57.1996C72.6108 57.7014 72.2588 58.1303 71.8072 58.4321C71.3556 58.7339 70.8246 58.8949 70.2814 58.8949C69.5538 58.8927 68.8565 58.6026 68.342 58.0881C67.8275 57.5735 67.5374 56.8763 67.5352 56.1486ZM70.2814 53.9133C69.8392 53.9124 69.4066 54.0428 69.0384 54.2879C68.6702 54.533 68.3831 54.8819 68.2132 55.2902C68.0434 55.6986 67.9985 56.1482 68.0843 56.5821C68.17 57.016 68.3826 57.4147 68.695 57.7278C69.0075 58.0408 69.4058 58.2541 69.8395 58.3407C70.2732 58.4273 70.7229 58.3833 71.1316 58.2142C71.5403 58.0452 71.8897 57.7587 72.1355 57.391C72.3813 57.0233 72.5125 56.5909 72.5125 56.1486C72.5125 55.5565 72.2776 54.9886 71.8593 54.5695C71.441 54.1504 70.8736 53.9144 70.2814 53.9133Z" fill="#3F2355"/>
<path d="M66.6016 21.5566H76.8671V25.7846H66.6016L68.5091 23.6557L66.6016 21.5566ZM67.7469 25.2737H76.3562V22.0676H67.7469L69.1946 23.6728L67.7469 25.2737Z" fill="#3F2355"/>
<path d="M68.5102 23.6697L66.6027 25.7858H76.3574V26.2968H65.4531L67.8205 23.6739L65.4531 21.0469H77.3793V25.7858H76.8683V21.5578H66.6027L68.5102 23.6697Z" fill="#3F2355"/>
<path d="M63.5727 46.9004H62.5508V47.4113H63.5727V46.9004Z" fill="#3F2355"/>
<path d="M88.4383 36.5355H63.628C63.6133 36.5355 63.5993 36.5414 63.5889 36.5518C63.5785 36.5621 63.5727 36.5762 63.5727 36.5909V46.8991H62.5508V36.5909C62.5508 36.3052 62.6643 36.0312 62.8663 35.8292C63.0683 35.6272 63.3423 35.5137 63.628 35.5137H88.9875L92.5045 40.8445H91.2825L88.4383 36.5355Z" fill="#3F2355"/>
<path d="M63.7875 47.1129H62.3398V36.5918C62.3398 36.253 62.4744 35.9281 62.714 35.6886C62.9535 35.449 63.2784 35.3145 63.6172 35.3145H89.0917L92.8897 41.071H91.161L88.3125 36.7621H63.7875V47.1129ZM62.7656 46.6871H63.3617V36.5918C63.3617 36.5207 63.39 36.4524 63.4403 36.4021C63.4906 36.3518 63.5588 36.3236 63.63 36.3236H88.5637L91.4079 40.6325H92.119L88.883 35.7275H63.63C63.4041 35.7275 63.1875 35.8172 63.0278 35.9769C62.8681 36.1366 62.7784 36.3532 62.7784 36.579L62.7656 46.6871Z" fill="#3F2355"/>
<path d="M63.5189 47.738L63.4551 47.9211H62.5524C62.4975 47.9213 62.4428 47.9126 62.3906 47.8955L62.5524 47.4102L63.5189 47.738Z" fill="#3F2355"/>
<path d="M63.4411 47.922L57.7569 64.7446H56.6797L62.3766 47.8965C62.4289 47.9136 62.4835 47.9222 62.5384 47.922H63.4411Z" fill="#3F2355"/>
<path d="M62.9018 79.336C67.7259 79.336 71.3195 77.8245 75.1217 76.2193C78.924 74.6141 82.7858 72.9833 87.8952 72.9833C93.4644 72.8599 97.4497 74.4438 101.324 75.9851C105.199 77.5264 109.133 79.0933 114.894 79.1699C120.135 79.2381 122.664 77.8926 125.33 76.4492C125.322 76.4599 125.312 76.4687 125.3 76.4748H125.275C125.235 76.5013 125.199 76.5328 125.168 76.5684C125.015 76.7241 124.916 76.9247 124.886 77.1408C124.855 77.3568 124.894 77.577 124.998 77.7691C122.498 79.0848 119.837 80.2301 114.881 80.1705C103.006 80.0173 98.6547 73.7285 87.8952 73.9839C78.0384 73.9839 72.9034 80.3366 62.8805 80.3366C59.1805 80.3366 56.2213 79.4041 53.3516 78.229L54.0286 77.4668L53.9051 77.3519C56.4598 78.4035 59.3082 79.336 62.9018 79.336Z" fill="#3F2355"/>
<path d="M61.5352 36.5916C61.5346 36.316 61.5883 36.0429 61.6933 35.788C61.7983 35.5331 61.9524 35.3014 62.147 35.1061C62.3415 34.9108 62.5726 34.7557 62.827 34.6497C63.0815 34.5437 63.3543 34.4888 63.63 34.4883H76.3566V35.5059H63.63C63.3443 35.5059 63.0703 35.6194 62.8683 35.8214C62.6663 36.0234 62.5528 36.2974 62.5528 36.5831V46.8913C62.4463 46.8921 62.3426 46.9256 62.2558 46.9873C62.1689 47.049 62.1032 47.1359 62.0674 47.2362L61.5863 47.0744L61.5352 47.2277V36.5916Z" fill="#3F2355"/>
<path d="M62.5518 46.9004V47.4113L62.0664 47.2453C62.1022 47.145 62.168 47.0581 62.2548 46.9964C62.3416 46.9347 62.4453 46.9012 62.5518 46.9004Z" fill="#3F2355"/>
<path d="M62.55 47.4102L62.3882 47.8955C62.2864 47.8616 62.1979 47.7964 62.1352 47.7093C62.0725 47.6221 62.0389 47.5175 62.0391 47.4102H62.55Z" fill="#3F2355"/>
<path d="M62.55 47.4102H62.0391C62.0386 47.3538 62.0472 47.2978 62.0646 47.2441L62.55 47.4102Z" fill="#3F2355"/>
<path d="M61.5862 47.082L62.0674 47.2438C62.05 47.2974 62.0414 47.3535 62.0418 47.4099H61.5352V47.2353L61.5862 47.082Z" fill="#3F2355"/>
<path d="M56.6908 64.7441H57.768L57.4231 65.7618H49.4142C50.0529 70.8924 51.7688 75.3504 53.9232 77.3728L53.7572 77.3047C53.1313 77.0492 52.5181 76.7852 51.8922 76.5127C50.0145 73.7324 48.6989 69.3341 48.2773 64.7441H56.6908Z" fill="#3F2355"/>
<path d="M54.049 77.4926L53.372 78.2548C52.8082 77.7404 52.3117 77.1567 51.8945 76.5176C52.5204 76.7901 53.1336 77.0541 53.7595 77.3095L53.9255 77.3777L54.049 77.4926Z" fill="#3F2355"/>
<path d="M53.3731 78.251L52.6961 79.0131C51.7107 78.0897 50.8912 77.0037 50.2734 75.8027L51.257 76.2285L51.8957 76.5095C52.3126 77.1501 52.809 77.7353 53.3731 78.251Z" fill="#3F2355"/>
<path d="M53.3734 78.2487C56.2431 79.4239 59.2023 80.3563 62.9023 80.3563C72.9252 80.3563 78.0602 74.0037 87.917 74.0037C98.6765 73.7482 103.028 80.037 114.903 80.1903C119.859 80.2499 122.52 79.1045 125.02 77.7889C125.106 77.9516 125.236 78.0875 125.394 78.182C125.552 78.2766 125.734 78.3261 125.918 78.3254C126.084 78.3248 126.248 78.2839 126.395 78.2061C123.589 79.7177 120.689 81.2675 114.899 81.1866C108.759 81.11 104.612 79.4579 100.601 77.8612C96.7477 76.3284 93.103 74.8808 87.9511 75C83.2249 75 79.6781 76.4988 75.9227 78.0784C72.0907 79.6921 68.148 81.3569 62.9109 81.3569C58.8872 81.3569 55.7662 80.3052 52.9944 79.1727L52.6836 79.0407L52.7049 78.9896L53.3734 78.2487Z" fill="#3F2355"/>
<path d="M62.9021 81.5912C58.8487 81.5912 55.7021 80.5352 52.9048 79.3899L52.8452 79.3643L52.5897 79.2579L52.4023 79.1727L52.5386 78.8704L53.3178 77.9933L53.454 78.0529C56.1109 79.1387 59.0914 80.1435 62.9021 80.1435C67.8923 80.1435 71.7286 78.5255 75.4371 76.9629C79.1457 75.4003 82.9692 73.7909 87.9168 73.7909C93.3242 73.6631 97.0753 75.1534 101.048 76.7373C105.02 78.3212 108.997 79.9008 114.907 79.9775C119.855 80.0456 122.477 78.8875 124.921 77.6016L125.109 77.5037L125.211 77.691C125.315 77.8747 125.486 78.0112 125.688 78.0723C125.89 78.1333 126.108 78.1142 126.297 78.0189L126.607 77.8528V78.3425L126.497 78.4063C123.678 79.9264 120.744 81.4932 114.89 81.4294C108.712 81.3527 104.548 79.6965 100.52 78.0913C96.6879 76.5712 93.0943 75.1321 87.9466 75.2428C83.263 75.2428 79.7418 76.7288 76.0247 78.2999C72.1586 79.9179 68.1903 81.5912 62.9021 81.5912ZM53.0155 78.9769H53.0708C55.8256 80.1009 58.9211 81.1441 62.9021 81.1441C68.1052 81.1441 72.0351 79.4878 75.8331 77.8826C79.6311 76.2774 83.1821 74.7914 87.9423 74.7872C93.1752 74.6807 96.8156 76.1284 100.673 77.6655C104.671 79.2536 108.797 80.8972 114.894 80.9738C120.089 81.0334 122.942 79.7773 125.483 78.4191C125.271 78.3418 125.085 78.206 124.947 78.0274C122.503 79.3047 119.838 80.4373 114.903 80.3649C108.912 80.2883 104.833 78.6618 100.89 77.0949C96.9476 75.5281 93.2475 74.0847 87.9253 74.2166C83.0543 74.2166 79.2649 75.8133 75.6032 77.3547C71.8563 78.9343 67.9774 80.5693 62.9021 80.5693C59.0701 80.5693 56.0896 79.5857 53.4327 78.5043L53.0155 78.9769Z" fill="#3F2355"/>
<path d="M52.693 79.0118L52.6717 79.0629C51.9181 78.7563 51.1645 78.4242 50.4364 78.1049C46.5107 76.4018 42.4572 74.605 36.5602 74.5496L36.3047 72.5059C42.2656 72.5059 46.3957 74.1196 50.2703 75.8014C50.888 77.0024 51.7075 78.0883 52.693 79.0118Z" fill="#3F2355"/>
<path d="M62.3904 47.8959L56.6934 64.7441H48.28C48.7057 69.334 50.0171 73.7323 51.8948 76.5127L51.2562 76.2317L50.2726 75.8059C48.7441 72.983 47.6541 69.1084 47.2623 64.8378L47.1602 63.7265H55.9611L61.5345 47.2402V47.4148H62.0412C62.042 47.5214 62.076 47.6251 62.1386 47.7114C62.2012 47.7976 62.2892 47.8622 62.3904 47.8959Z" fill="#3F2355"/>
<path d="M52.4861 77.0021L50.123 75.9675L50.0847 75.9036C48.5179 73.0041 47.4406 69.0911 47.0532 64.8333L46.9297 63.4878H55.8115L61.7384 45.9414V47.1975H62.245V47.4103C62.2458 47.4731 62.2658 47.5341 62.3024 47.5851C62.3389 47.6361 62.3903 47.6747 62.4494 47.6956L62.6538 47.7595L56.8376 64.9568H48.5136C48.9394 69.4871 50.2848 73.7449 52.0731 76.3933L52.4861 77.0021ZM50.4254 75.6354L51.3408 76.0356C49.6802 73.268 48.471 69.1209 48.0708 64.7652L48.0495 64.531H56.5651L62.1514 47.9979C62.0226 47.9065 61.9282 47.7746 61.8831 47.6232H61.6489L56.1138 63.9349H47.3938L47.4747 64.812C47.8536 68.9762 48.9011 72.8082 50.4254 75.6354Z" fill="#3F2355"/>
<path d="M37.2578 80.1113C43.0995 80.2944 47.1402 82.0699 51.0574 83.7858C54.7404 85.4038 58.219 86.9323 62.8984 86.9323C67.8246 86.9323 71.6311 85.3271 75.3141 83.7773C78.9971 82.2275 82.9016 80.5797 87.913 80.5797C93.3715 80.4434 97.1525 81.9507 101.151 83.5602C105.038 85.1057 109.053 86.7067 114.908 86.7791C120.289 86.8344 122.908 85.4464 125.659 83.9646C128.754 82.2913 131.952 80.5584 139.134 80.635L139.058 81.6527C132.181 81.6058 129.116 83.2579 126.144 84.863C123.274 86.4129 120.575 87.8691 114.895 87.8009C108.849 87.7243 104.744 86.0978 100.776 84.5096C96.8757 82.9555 93.1884 81.4951 87.9258 81.6143C83.1059 81.6143 79.5166 83.1301 75.7101 84.7311C71.9036 86.332 68.046 87.9713 62.8984 87.9713C58.0061 87.9713 54.4338 86.4001 50.6486 84.7396C46.8634 83.079 42.9505 81.3589 37.3898 81.1545L37.2578 80.1113Z" fill="#3F2355"/>
<path d="M36.7737 80.0977C36.9355 80.0977 37.0973 80.0977 37.2591 80.0977L37.3911 81.1238H36.7609C36.6254 81.1238 36.4955 81.07 36.3996 80.9741C36.3038 80.8783 36.25 80.7484 36.25 80.6129C36.25 80.4773 36.3038 80.3474 36.3996 80.2516C36.4955 80.1557 36.6254 80.1019 36.7609 80.1019L36.7737 80.0977Z" fill="#3F2355"/>
<path d="M36.3069 72.5059L36.5623 74.5496H36.2558C36.1163 74.5586 35.9765 74.5389 35.8449 74.4918C35.7134 74.4446 35.5929 74.371 35.491 74.2754C35.389 74.1798 35.3077 74.0643 35.2522 73.9361C35.1966 73.8079 35.168 73.6696 35.168 73.5299C35.168 73.3901 35.1966 73.2519 35.2522 73.1236C35.3077 72.9954 35.389 72.8799 35.491 72.7843C35.5929 72.6888 35.7134 72.6151 35.8449 72.568C35.9765 72.5208 36.1163 72.5011 36.2558 72.5101L36.3069 72.5059Z" fill="#3F2355"/>
</svg>
