<svg width="177" height="109" viewBox="0 0 177 109" fill="none" xmlns="http://www.w3.org/2000/svg">
<path d="M109.136 64.9324C108.942 65.0734 108.701 65.1339 108.463 65.1014C108.225 65.0689 108.009 64.9458 107.859 64.7578L104.551 60.4021L116.566 51.4607C116.856 51.2455 117.217 51.1483 117.576 51.1886C117.934 51.2289 118.264 51.4037 118.499 51.6778L118.981 52.2313L119.249 52.5421L119.415 52.7337L120.692 54.2282C120.82 54.3745 120.916 54.5459 120.974 54.7314C121.032 54.9169 121.05 55.1124 121.029 55.3055C121.01 55.5011 120.95 55.6907 120.854 55.8623C120.758 56.0338 120.628 56.1835 120.471 56.3018L111.58 63.0462L111.836 63.3825L111.58 63.0462L109.136 64.9324Z" fill="white"/>
<path d="M126.939 59.6908C127.875 60.4395 128.641 61.377 129.19 62.4421C129.738 63.5073 130.055 64.6761 130.121 65.8722C130.186 67.0683 129.999 68.2648 129.57 69.3836C129.142 70.5023 128.483 71.5181 127.635 72.3645C126.787 73.211 125.771 73.8691 124.651 74.2958C123.532 74.7225 122.335 74.9083 121.139 74.841C119.943 74.7736 118.775 74.4547 117.71 73.905C116.646 73.3553 115.71 72.5873 114.962 71.651L114.63 71.915C114.157 71.3151 113.764 70.6568 113.459 69.9564H122.52C123.211 69.9583 123.888 69.7543 124.463 69.3704C125.038 68.9864 125.486 68.44 125.749 67.8007C126.013 67.1614 126.08 66.4581 125.942 65.7804C125.805 65.1028 125.469 64.4814 124.977 63.9955C124.655 63.6712 124.272 63.4141 123.851 63.2394C123.429 63.0647 122.976 62.9758 122.52 62.9779H113.102L120.233 57.5705C120.709 57.4894 121.19 57.4495 121.673 57.4512C123.672 57.4488 125.614 58.1192 127.186 59.3545L126.939 59.6908Z" fill="white"/>
<path d="M122.34 80.23H121.688C121.052 80.2299 120.416 80.1844 119.785 80.0938L122.34 80.23Z" fill="#DEDFE0"/>
<path d="M119.578 51.6524C123.242 51.1313 126.969 51.9923 130.034 54.0679C133.098 56.1435 135.28 59.285 136.156 62.8811C137.031 66.4771 136.537 70.2703 134.77 73.5222C133.003 76.7741 130.089 79.252 126.595 80.4736L124.662 80.3543C128.104 79.6136 131.151 77.6263 133.216 74.7746C135.281 71.923 136.219 68.4084 135.849 64.907C135.479 61.4055 133.828 58.1644 131.213 55.8072C128.597 53.45 125.202 52.143 121.681 52.1378C121.145 52.1371 120.609 52.1683 120.076 52.2315L119.578 51.6524Z" fill="#3F2355"/>
<path d="M119.258 57.7949L120.744 56.6666C120.946 56.5127 121.114 56.3192 121.238 56.0978C121.363 55.8765 121.44 55.6321 121.467 55.3797C121.493 55.1272 121.467 54.872 121.391 54.6298C121.315 54.3877 121.191 54.1636 121.025 53.9714L119.905 52.694C120.08 52.694 120.25 52.6514 120.424 52.6387L121.348 53.7074C121.55 53.9392 121.702 54.21 121.795 54.5029C121.888 54.7958 121.92 55.1047 121.889 55.4105C121.857 55.7219 121.761 56.0233 121.608 56.2964C121.455 56.5695 121.248 56.8085 120.999 56.9987L120.25 57.5692C119.915 57.6243 119.584 57.6996 119.258 57.7949Z" fill="#3F2355"/>
<path d="M108.575 69.956H113.493C113.798 70.6564 114.191 71.3146 114.664 71.9146L114.323 72.1786C115.143 73.2146 116.173 74.0653 117.346 74.6749C118.518 75.2846 119.806 75.6393 121.125 75.7159C122.444 75.7924 123.764 75.5891 124.999 75.1191C126.234 74.6492 127.356 73.9233 128.29 72.9891C129.225 72.055 129.951 70.9337 130.421 69.6989C130.892 68.4642 131.095 67.1439 131.019 65.8248C130.943 64.5057 130.589 63.2176 129.98 62.0451C129.37 60.8727 128.52 59.8424 127.484 59.0219L127.22 59.3583C125.648 58.123 123.706 57.4526 121.706 57.4551C121.224 57.4533 120.743 57.4932 120.267 57.5743L121.017 57.0037C121.265 56.8135 121.472 56.5746 121.625 56.3015C121.778 56.0284 121.874 55.7269 121.906 55.4156C121.938 55.1098 121.906 54.8009 121.813 54.508C121.72 54.215 121.568 53.9443 121.366 53.7124L120.442 52.6437C120.868 52.6054 121.293 52.5841 121.719 52.5841C125.389 52.4955 128.944 53.8684 131.602 56.4008C134.26 58.9332 135.803 62.4177 135.891 66.0878C135.98 69.7578 134.607 73.3127 132.075 75.9705C129.542 78.6283 126.058 80.1713 122.388 80.2599L119.833 80.1364C117.251 79.7672 114.826 78.6795 112.833 76.9976C110.84 75.3156 109.36 73.1072 108.562 70.6245H108.575V69.956Z" fill="#DEDFE0"/>
<path d="M121.69 52.5684C121.264 52.5684 120.838 52.5897 120.412 52.628L120.242 52.4321C120.719 52.381 121.198 52.3554 121.677 52.3555C125.229 52.3494 128.651 53.6884 131.255 56.1031C133.859 58.5179 135.452 61.8292 135.714 65.371C135.976 68.9129 134.886 72.4224 132.665 75.1936C130.444 77.9649 127.256 79.7922 123.742 80.308L122.354 80.2314C126.024 80.1427 129.509 78.5998 132.041 75.942C134.573 73.2842 135.946 69.7293 135.858 66.0593C135.769 62.3892 134.226 58.9047 131.568 56.3723C128.911 53.8399 125.356 52.467 121.686 52.5556L121.69 52.5684Z" fill="#3F2355"/>
<path d="M120.07 52.2343C120.603 52.1712 121.139 52.1399 121.676 52.1406C125.196 52.1459 128.591 53.4528 131.207 55.81C133.822 58.1673 135.473 61.4083 135.843 64.9098C136.213 68.4113 135.275 71.9258 133.21 74.7775C131.145 77.6291 128.098 79.6164 124.656 80.3572C124.358 80.3572 124.056 80.3188 123.749 80.3061C127.239 79.7652 130.398 77.9297 132.596 75.1651C134.794 72.4005 135.87 68.9096 135.61 65.3873C135.35 61.8651 133.773 58.5699 131.193 56.1577C128.614 53.7456 125.22 52.3935 121.688 52.3706C121.209 52.3705 120.73 52.3961 120.253 52.4472L120.07 52.2343Z" fill="#3F2355"/>
<path d="M119.904 52.6809L119.738 52.4893C119.909 52.4637 120.079 52.4425 120.253 52.4297L120.424 52.6255C120.249 52.6383 120.07 52.6596 119.904 52.6809Z" fill="#3F2355"/>
<path d="M119.523 52.2337L119.356 52.0464L119.297 51.6972L119.582 51.6504L120.085 52.2337C119.914 52.2337 119.744 52.272 119.578 52.2976L119.523 52.2337Z" fill="#3F2355"/>
<path d="M120.255 52.4302C120.081 52.4302 119.91 52.4643 119.74 52.4898L119.578 52.2982C119.744 52.2727 119.914 52.2471 120.085 52.2344L120.255 52.4302Z" fill="#3F2355"/>
<path d="M121.688 75.7893C120.264 75.7935 118.859 75.4718 117.579 74.8489C116.3 74.226 115.179 73.3184 114.305 72.1957L114.645 71.9317C115.427 72.9245 116.41 73.7404 117.53 74.3257C118.649 74.911 119.88 75.2523 121.142 75.3271C122.403 75.402 123.666 75.2087 124.847 74.76C126.028 74.3113 127.1 73.6174 127.994 72.724C128.887 71.8305 129.581 70.7579 130.03 69.5768C130.479 68.3957 130.672 67.1329 130.597 65.8717C130.522 64.6104 130.181 63.3794 129.596 62.2596C129.01 61.1399 128.194 60.1569 127.202 59.3754L127.466 59.0391C129.004 60.2401 130.128 61.8916 130.682 63.7629C131.236 65.6342 131.192 67.6318 130.556 69.4766C129.919 71.3215 128.723 72.9216 127.133 74.0533C125.543 75.1851 123.639 75.792 121.688 75.7893Z" fill="#3F2355"/>
<path d="M119.767 80.1068C120.397 80.1974 121.033 80.243 121.67 80.2431H122.321L123.709 80.3197C123.028 80.419 122.341 80.4688 121.653 80.4688C120.534 80.464 119.42 80.321 118.336 80.043L119.767 80.1068Z" fill="#3F2355"/>
<path d="M121.687 75.3631C120.329 75.365 118.989 75.0569 117.769 74.4621C116.548 73.8674 115.48 73.0018 114.645 71.9313L114.977 71.6673C115.722 72.6112 116.658 73.3866 117.724 73.9425C118.79 74.4984 119.962 74.8223 121.162 74.8927C122.363 74.9632 123.564 74.7787 124.688 74.3513C125.812 73.9239 126.833 73.2634 127.683 72.4132C128.533 71.563 129.193 70.5424 129.621 69.4185C130.048 68.2946 130.233 67.093 130.162 65.8927C130.092 64.6924 129.768 63.5206 129.212 62.4545C128.656 61.3883 127.881 60.452 126.937 59.7071L127.201 59.375C128.669 60.5215 129.742 62.0978 130.271 63.8837C130.799 65.6696 130.757 67.5761 130.15 69.3369C129.542 71.0976 128.401 72.6248 126.883 73.7052C125.366 74.7856 123.549 75.3652 121.687 75.3631Z" fill="#3F2355"/>
<path d="M121.688 51.5195C120.982 51.5195 120.278 51.5693 119.58 51.6686L119.209 51.2428L119.18 51.081C120.009 50.9481 120.848 50.8812 121.688 50.8809C125.244 50.8777 128.695 52.0947 131.463 54.3288C134.23 56.5629 136.148 59.6787 136.895 63.1562C137.643 66.6337 137.175 70.2624 135.569 73.4363C133.964 76.6103 131.318 79.1376 128.074 80.5961L126.614 80.494C129.924 79.3242 132.715 77.0234 134.495 73.997C136.274 70.9707 136.928 67.4132 136.341 63.9518C135.754 60.4904 133.964 57.3473 131.287 55.0768C128.609 52.8062 125.215 51.554 121.705 51.5408L121.688 51.5195Z" fill="#3F2355"/>
<path d="M119.581 51.6504L119.296 51.6972L119.211 51.2246L119.581 51.6504Z" fill="#3F2355"/>
<path d="M119.52 52.2344L119.575 52.2982H119.571L119.52 52.2344Z" fill="#3F2355"/>
<path d="M119.522 52.2342L119.573 52.2981L119.407 52.3236L119.355 52.0469L119.522 52.2342Z" fill="#3F2355"/>
<path d="M119.906 52.6818C119.74 52.6818 119.578 52.7287 119.412 52.7585L119.246 52.5669C119.408 52.5371 119.574 52.5115 119.74 52.4902L119.906 52.6818Z" fill="#3F2355"/>
<path d="M119.219 52.5457L119.074 51.7324L119.347 52.0475L119.398 52.3243L119.564 52.2987L119.726 52.4903C119.56 52.4903 119.394 52.5371 119.232 52.567L119.219 52.5457Z" fill="#3F2355"/>
<path d="M119.082 51.7333L119.295 51.6992L119.355 52.0484L119.082 51.7333Z" fill="#3F2355"/>
<path d="M119.227 52.5449L119.244 52.5662H119.231L119.227 52.5449Z" fill="#3F2355"/>
<path d="M119.18 51.0631L119.21 51.2249L119.12 51.1227C119.064 51.0572 119.004 50.9947 118.941 50.9353V50.8928C122.691 50.2273 126.555 50.9429 129.819 52.907C133.082 54.8712 135.523 57.9509 136.69 61.5762C137.857 65.2015 137.671 69.1269 136.167 72.6259C134.663 76.1249 131.943 78.9606 128.509 80.608L128.083 80.5782C131.327 79.1197 133.973 76.5924 135.578 73.4184C137.183 70.2444 137.652 66.6158 136.904 63.1383C136.157 59.6608 134.239 56.5449 131.471 54.3109C128.703 52.0768 125.253 50.8598 121.696 50.863C120.853 50.8628 120.012 50.9298 119.18 51.0631Z" fill="#3F2355"/>
<path d="M119.12 51.1229L119.21 51.2251L119.295 51.6977L119.082 51.7318L118.941 50.9355C119.004 50.9949 119.064 51.0574 119.12 51.1229Z" fill="#3F2355"/>
<path d="M119.085 51.7318L119.23 52.545L118.962 52.2342L118.812 51.4082L119.085 51.7318Z" fill="#3F2355"/>
<path d="M118.943 50.9356C118.865 50.8641 118.781 50.7999 118.691 50.744V50.7184L118.904 50.6801C122.674 50.0127 126.558 50.722 129.849 52.6787C133.139 54.6355 135.617 57.7094 136.831 61.3403C138.045 64.9712 137.914 68.9174 136.461 72.4596C135.009 76.0019 132.332 78.9043 128.919 80.6381L128.493 80.6083C131.927 78.9608 134.647 76.1251 136.152 72.6261C137.656 69.1271 137.841 65.2017 136.674 61.5764C135.507 57.9511 133.066 54.8714 129.803 52.9073C126.54 50.9431 122.676 50.2275 118.926 50.893L118.943 50.9356Z" fill="#3F2355"/>
<path d="M118.795 51.4084L118.676 50.7441C118.765 50.8001 118.849 50.8642 118.927 50.9357L119.068 51.732L118.795 51.4084Z" fill="#3F2355"/>
<path d="M121.688 80.6694C120.243 80.6686 118.807 80.4475 117.43 80.0137L118.366 80.0477C119.45 80.3257 120.564 80.4688 121.683 80.4735C122.371 80.4735 123.059 80.4237 123.74 80.3245C124.046 80.3245 124.349 80.3586 124.647 80.3756C123.673 80.5765 122.681 80.675 121.688 80.6694Z" fill="#3F2355"/>
<path d="M121.688 81.3241C119.53 81.3274 117.396 80.8595 115.438 79.9531L117.417 80.0255C119.76 80.762 122.253 80.8808 124.656 80.3704L126.589 80.4896C125.014 81.0408 123.357 81.3229 121.688 81.3241Z" fill="#3F2355"/>
<path d="M121.69 81.9452C118.991 81.9424 116.34 81.2334 114 79.8887L115.439 79.9355C118.949 81.5517 122.95 81.744 126.599 80.472L128.059 80.5742C126.058 81.4786 123.886 81.946 121.69 81.9452Z" fill="#3F2355"/>
<path d="M116.287 51.1229L104.791 59.6811L104.531 59.3405L116.027 50.7823C116.41 50.5003 116.872 50.345 117.348 50.3381C117.823 50.3313 118.289 50.4732 118.68 50.744L118.799 51.4082C118.493 51.053 118.065 50.8263 117.599 50.7734C117.133 50.7205 116.665 50.8453 116.287 51.1229Z" fill="#3F2355"/>
<path d="M113.996 79.8901C116.116 81.1081 118.496 81.8058 120.938 81.9257C123.381 82.0456 125.817 81.5844 128.046 80.5798L128.472 80.6097C126.117 81.743 123.516 82.2692 120.906 82.1406C118.296 82.0119 115.759 81.2324 113.527 79.873L113.996 79.8901Z" fill="#3F2355"/>
<path d="M113.125 79.8604H113.551C115.783 81.2198 118.319 81.9993 120.93 82.128C123.54 82.2566 126.141 81.7303 128.496 80.597L128.921 80.6268C126.452 81.8863 123.695 82.4771 120.926 82.3404C118.157 82.2037 115.472 81.3443 113.138 79.8477L113.125 79.8604Z" fill="#3F2355"/>
<path d="M113.305 69.5293C113.36 69.6741 113.415 69.8146 113.475 69.9551H108.574V69.5293H113.305Z" fill="#3F2355"/>
<path d="M122.531 63.416H113.257H112.555L113.117 62.9902H122.535C123.457 62.9914 124.341 63.3582 124.994 64.0103C125.646 64.6625 126.012 65.5466 126.014 66.4689C126.012 67.3919 125.646 68.2769 124.994 68.9304C124.342 69.5839 123.458 69.9526 122.535 69.956H113.474C113.415 69.8155 113.359 69.675 113.304 69.5302H122.531C123.342 69.5291 124.119 69.2061 124.693 68.6321C125.266 68.0581 125.588 67.2801 125.588 66.4689C125.586 65.6592 125.263 64.8833 124.69 64.3112C124.117 63.739 123.34 63.4171 122.531 63.416Z" fill="#3F2355"/>
<path d="M113.305 69.5302H108.574V69.1045H122.553C123.25 69.1022 123.918 68.8235 124.411 68.3295C124.903 67.8355 125.18 67.1664 125.18 66.4689C125.179 65.7717 124.901 65.1035 124.407 64.611C123.914 64.1184 123.245 63.8418 122.548 63.8418H112.01L112.121 63.7566L111.866 63.4203L112.125 63.7566L112.572 63.416H113.258H122.531C123.341 63.4171 124.117 63.739 124.69 64.3112C125.263 64.8833 125.586 65.6592 125.588 66.4689C125.588 67.2801 125.266 68.0581 124.693 68.6321C124.12 69.2061 123.343 69.5291 122.531 69.5302H113.305Z" fill="#3F2355"/>
<path d="M120.249 57.5742L113.117 62.9816H112.406L114.046 61.7384L119.249 57.7956C119.577 57.7015 119.911 57.6275 120.249 57.5742Z" fill="#3F2355"/>
<path d="M113.116 62.9824L112.554 63.4082H111.852L112.409 62.9824H112.414H113.116Z" fill="#3F2355"/>
<path d="M112.41 62.9824L111.852 63.4082H111.848L111.852 62.9824H112.41Z" fill="#3F2355"/>
<path d="M112.103 63.7485L111.993 63.8336H111.844L111.848 63.4121L112.103 63.7485Z" fill="#3F2355"/>
<path d="M111.853 62.9813V63.4071L111.598 63.0707L120.496 56.3263C120.653 56.208 120.784 56.0583 120.88 55.8868C120.976 55.7153 121.035 55.5257 121.054 55.33C121.076 55.1369 121.058 54.9414 121 54.7559C120.942 54.5704 120.846 54.399 120.718 54.2528L119.441 52.7583C119.607 52.7285 119.768 52.7029 119.934 52.6816L121.054 53.959C121.22 54.1512 121.345 54.3753 121.421 54.6175C121.497 54.8597 121.522 55.1148 121.496 55.3673C121.47 55.6197 121.392 55.8642 121.268 56.0855C121.143 56.3068 120.975 56.5003 120.773 56.6542L119.287 57.7825L114.054 61.738L112.407 62.9813H111.853Z" fill="#3F2355"/>
<path d="M111.852 63.4082H112.554L112.107 63.7488L111.848 63.4125V63.4082H111.852Z" fill="#3F2355"/>
<path d="M111.848 63.4082V63.4125L111.844 63.4082H111.848Z" fill="white"/>
<path d="M108.572 69.9551V70.5938H108.513C108.457 70.4234 108.402 70.2489 108.359 70.0743V69.9551H108.572Z" fill="#3F2355"/>
<path d="M108.557 69.5293H108.344V69.9551H108.557V69.5293Z" fill="#3F2355"/>
<path d="M108.557 69.1035H108.344V69.5293H108.557V69.1035Z" fill="#3F2355"/>
<path d="M118.368 80.0461C116.018 79.467 113.855 78.2936 112.089 76.6384C110.323 74.9831 109.012 72.9017 108.281 70.5938H108.507C109.305 73.0765 110.784 75.2849 112.777 76.9669C114.77 78.6488 117.196 79.7365 119.777 80.1057L118.368 80.0461Z" fill="#3F2355"/>
<path d="M108.271 70.5937C108.245 70.5241 108.224 70.453 108.207 70.3808H108.343V70.0742C108.386 70.2488 108.441 70.4234 108.497 70.5937H108.271Z" fill="#3F2355"/>
<path d="M108.347 69.9551V70.0743C108.347 70.036 108.321 69.9934 108.312 69.9551H108.347Z" fill="#3F2355"/>
<path d="M108.207 69.5293H108.343V69.9551H108.309C108.271 69.8273 108.237 69.6741 108.207 69.5293Z" fill="#3F2355"/>
<path d="M108.209 70.3809C108.179 70.2942 108.154 70.2061 108.133 70.1169V69.9551H108.312C108.312 69.9934 108.333 70.036 108.346 70.0743V70.3809H108.209Z" fill="#3F2355"/>
<path d="M117.418 80.0078C115.214 79.3082 113.212 78.0871 111.581 76.4481C109.95 74.8092 108.739 72.8009 108.051 70.5938H108.272C109.003 72.9027 110.316 74.9848 112.084 76.6401C113.852 78.2955 116.015 79.4683 118.367 80.0461L117.435 80.012L117.418 80.0078Z" fill="#3F2355"/>
<path d="M108.208 69.5293C108.238 69.6741 108.272 69.8146 108.31 69.9551H108.148V69.5293H108.208Z" fill="#3F2355"/>
<path d="M108.048 70.5938C108.022 70.5242 108.001 70.4531 107.984 70.3809H108.206C108.223 70.4531 108.244 70.5242 108.27 70.5938H108.048Z" fill="#3F2355"/>
<path d="M108.148 69.1035H108.361V69.5293H108.225C108.225 69.4569 108.187 69.3803 108.17 69.3036V69.21L108.148 69.1035Z" fill="#3F2355"/>
<path d="M108.148 69.3046C108.148 69.3813 108.183 69.4579 108.204 69.5303H108.148V69.2109V69.3046Z" fill="#3F2355"/>
<path d="M108.131 69.1035V69.21L108.105 69.1035H108.131Z" fill="#3F2355"/>
<path d="M108.082 69.9551C108.048 69.8146 108.014 69.6698 107.984 69.5293H108.146V69.9551H108.082Z" fill="#3F2355"/>
<path d="M108.148 69.9551V70.1169C108.148 70.0615 108.119 70.0062 108.102 69.9551H108.148Z" fill="#3F2355"/>
<path d="M108.146 70.1172C108.167 70.2064 108.193 70.2945 108.223 70.3812H108.001L107.938 70.1683H108.146V70.1172Z" fill="#3F2355"/>
<path d="M108.103 69.0996V69.1039H108.082L108.103 69.0996Z" fill="#3F2355"/>
<path d="M108.084 69.1035L107.109 69.3121V69.1035H108.084Z" fill="#3F2355"/>
<path d="M108.146 70.168H107.938L107.887 69.9551H108.1C108.1 70.0062 108.129 70.0615 108.146 70.1169V70.168Z" fill="#3F2355"/>
<path d="M115.439 79.9354C113.508 79.042 111.79 77.7464 110.401 76.1353C109.012 74.5242 107.983 72.6348 107.383 70.5938H108.051C108.74 72.8009 109.951 74.8092 111.582 76.4481C113.213 78.0871 115.215 79.3082 117.418 80.0078L115.439 79.9354Z" fill="#3F2355"/>
<path d="M107.384 70.5938C107.36 70.5239 107.34 70.4529 107.324 70.3809H107.988C108.005 70.4531 108.027 70.5242 108.052 70.5938H107.384Z" fill="#3F2355"/>
<path d="M107.944 69.3516C107.944 69.4112 107.969 69.4708 107.986 69.5304H107.109L107.944 69.3516Z" fill="#3F2355"/>
<path d="M107.945 69.3505L107.094 69.5293V69.3121L108.069 69.1035H108.09L108.116 69.21V69.5293H107.971C107.971 69.4697 107.958 69.4016 107.945 69.3505Z" fill="#3F2355"/>
<path d="M107.922 70.168L107.986 70.3809H107.321C107.297 70.3112 107.277 70.2401 107.262 70.168H107.922Z" fill="#3F2355"/>
<path d="M107.871 69.9551L107.922 70.168H107.262C107.241 70.098 107.224 70.0269 107.211 69.9551H107.871Z" fill="#3F2355"/>
<path d="M107.211 69.955C107.19 69.8823 107.173 69.8083 107.16 69.7336L107.782 69.6016C107.807 69.7208 107.837 69.84 107.871 69.955H107.211Z" fill="#3F2355"/>
<path d="M113.996 79.8886C110.445 77.8634 107.831 74.526 106.715 70.5938H107.383C107.983 72.6348 109.012 74.5242 110.401 76.1353C111.791 77.7464 113.508 79.042 115.439 79.9354L114 79.8886H113.996Z" fill="#3F2355"/>
<path d="M106.712 70.5938C106.712 70.5256 106.673 70.4532 106.656 70.3809H107.32C107.336 70.4529 107.356 70.5239 107.38 70.5938H106.712Z" fill="#3F2355"/>
<path d="M106.657 70.3809C106.636 70.3127 106.619 70.2404 106.602 70.168H107.262C107.277 70.2401 107.297 70.3112 107.321 70.3809H106.657Z" fill="#3F2355"/>
<path d="M107.109 69.5293H107.986C108.016 69.6698 108.05 69.8146 108.084 69.9551H107.872C107.837 69.8401 107.808 69.7209 107.782 69.6017L107.16 69.7337C107.139 69.6655 107.122 69.5974 107.109 69.5293Z" fill="#3F2355"/>
<path d="M107.16 69.7344C107.173 69.8091 107.19 69.8831 107.212 69.9558H107.109V69.7471H107.156L107.16 69.7344Z" fill="#3F2355"/>
<path d="M107.109 69.7464V69.5293C107.109 69.5974 107.139 69.6655 107.156 69.7337L107.109 69.7464Z" fill="#3F2355"/>
<path d="M107.11 69.9547H107.212C107.225 70.0266 107.243 70.0977 107.264 70.1676H106.604C106.578 70.0697 106.553 69.9718 106.531 69.8696L107.11 69.7461V69.9547Z" fill="#3F2355"/>
<path d="M107.104 69.5297H106.086L107.112 69.3125V69.5297H107.104Z" fill="#3F2355"/>
<path d="M113.555 79.8715C110.104 77.7946 107.579 74.4746 106.5 70.5938H106.713C107.829 74.526 110.443 77.8634 113.994 79.8886L113.555 79.8715Z" fill="#3F2355"/>
<path d="M106.659 70.3809C106.659 70.4532 106.697 70.5256 106.714 70.5938H106.501C106.501 70.5256 106.458 70.4532 106.441 70.3809H106.659Z" fill="#3F2355"/>
<path d="M106.603 70.168C106.603 70.2404 106.637 70.3127 106.659 70.3809H106.446C106.424 70.311 106.407 70.2399 106.395 70.168H106.603Z" fill="#3F2355"/>
<path d="M106.392 70.168C106.349 70.0147 106.315 69.8614 106.281 69.7039L107.103 69.5293V69.7464L106.524 69.8699C106.545 69.9721 106.571 70.07 106.596 70.168H106.392Z" fill="#3F2355"/>
<path d="M113.128 79.8587C109.771 77.7309 107.33 74.427 106.281 70.5938H106.503C107.582 74.4746 110.107 77.7946 113.558 79.8715L113.128 79.8587Z" fill="#3F2355"/>
<path d="M106.278 70.5938C106.255 70.5239 106.235 70.4529 106.219 70.3809H106.444C106.444 70.4532 106.483 70.5256 106.504 70.5938H106.278Z" fill="#3F2355"/>
<path d="M106.219 70.3809C106.198 70.3109 106.181 70.2398 106.168 70.168H106.389C106.402 70.2399 106.419 70.311 106.44 70.3809H106.219Z" fill="#3F2355"/>
<path d="M106.279 69.7035C106.313 69.8611 106.347 70.0143 106.39 70.1676H106.168C106.13 70.0314 106.1 69.8909 106.07 69.7418L106.023 69.5332H106.083H107.101L106.279 69.7035Z" fill="#3F2355"/>
<path d="M105.967 63.0156L106.937 64.293L107.5 65.0338C107.717 65.3173 108.038 65.5032 108.392 65.551C108.746 65.5989 109.105 65.5048 109.39 65.2893L111.842 63.4244V63.8502H111.979L109.633 65.6299C109.325 65.8634 108.95 65.9892 108.564 65.9876C108.29 65.9886 108.019 65.926 107.773 65.8049C107.527 65.6838 107.312 65.5073 107.146 65.2893L105.66 63.335L105.916 63.0497L105.967 63.0156Z" fill="#3F2355"/>
<path d="M105.168 62.6289L105.696 63.3187L103.077 66.214H92.556C92.551 66.0513 92.5353 65.8892 92.5092 65.7286C92.5092 65.6051 92.4709 65.4816 92.4453 65.3624H102.664L105.168 62.6289Z" fill="#3F2355"/>
<path d="M105.302 62.4629L105.932 63.0334L105.676 63.3187L105.148 62.6289L105.302 62.4629Z" fill="#3F2355"/>
<path d="M116.546 51.4648L104.53 60.4062L104.398 60.2359L104.905 59.8484L104.782 59.6866L116.278 51.1284C116.654 50.8498 117.122 50.7236 117.588 50.7749C118.054 50.8262 118.483 51.0513 118.79 51.4052L118.939 52.2312L118.458 51.6777C118.223 51.4101 117.897 51.2399 117.543 51.2005C117.189 51.1611 116.834 51.2554 116.546 51.4648Z" fill="#3F2355"/>
<path d="M104.78 59.6816L104.904 59.8434L104.397 60.2309L104.27 60.0606L104.38 59.9754L104.78 59.6816Z" fill="#3F2355"/>
<path d="M104.782 59.6824L104.381 59.9762C104.441 59.9306 104.48 59.8636 104.49 59.7895C104.5 59.7155 104.481 59.6403 104.437 59.5802L104.352 59.4695L104.522 59.3418L104.782 59.6824Z" fill="#3F2355"/>
<path d="M104.531 60.4008L104.288 60.5796L104.16 60.4093L104.399 60.2305L104.531 60.4008Z" fill="#3F2355"/>
<path d="M104.269 60.0605L104.397 60.2309L104.159 60.4097L104.035 60.2394L104.039 60.2351L104.193 60.1202L104.269 60.0605Z" fill="#3F2355"/>
<path d="M104.285 60.5812L104.527 60.4023L107.836 64.7581C107.985 64.9461 108.201 65.0692 108.439 65.1017C108.677 65.1342 108.919 65.0737 109.113 64.9327L111.565 63.072L111.821 63.4084L109.368 65.2733C109.083 65.4888 108.725 65.5829 108.371 65.535C108.016 65.4872 107.696 65.3012 107.478 65.0178L106.937 64.294L105.966 63.0166L104.055 60.5003L104.157 60.4236L104.285 60.5812Z" fill="#3F2355"/>
<path d="M103.715 60.7461L104.055 60.4863L105.967 63.0027L105.929 63.0325L105.299 62.462L105.145 62.628L103.715 60.7461Z" fill="#3F2355"/>
<path d="M104.039 60.2361L104.192 60.1211L104.039 60.2361Z" fill="#3F2355"/>
<path d="M104.437 59.5795C104.482 59.6395 104.501 59.7147 104.491 59.7888C104.48 59.8628 104.441 59.9299 104.382 59.9754L104.271 60.0606L104.195 60.1202L104.041 60.2352L103.918 60.0691L104.318 59.7625L104.19 59.5965L104.361 59.4688L104.437 59.5795Z" fill="#3F2355"/>
<path d="M104.035 60.2344H104.031V60.2386H104.035V60.2344Z" fill="#3F2355"/>
<path d="M104.036 60.2383L104.16 60.4086L104.057 60.4852L103.93 60.3192L104.036 60.2383Z" fill="#3F2355"/>
<path d="M104.032 60.2344L104.036 60.2386L103.93 60.3195L104.032 60.2344Z" fill="#3F2355"/>
<path d="M103.781 59.8937L104.181 59.5957L104.309 59.7618L103.909 60.0683L103.781 59.8937Z" fill="#3F2355"/>
<path d="M103.718 60.7461L103.59 60.58L103.93 60.3203L104.058 60.4864L103.718 60.7461Z" fill="#3F2355"/>
<path d="M103.929 60.3196L103.797 60.1493L103.908 60.0684L104.031 60.2344L103.929 60.3196Z" fill="#3F2355"/>
<path d="M96.619 43.1623C102.784 43.9798 107.4 42.0596 110.282 40.7695C113.233 39.4538 115.741 35.592 117.248 34.0762C118.755 32.5604 128.548 28.1152 128.548 28.1152L127.531 35.8219L102.529 56.3105C102.255 56.5341 102.079 56.8551 102.037 57.206C101.995 57.5569 102.09 57.9104 102.303 58.1924L103.798 60.151C103.731 60.2023 103.655 60.24 103.574 60.2618C103.493 60.2836 103.409 60.2891 103.326 60.278C103.243 60.2669 103.162 60.2395 103.09 60.1972C103.018 60.1549 102.954 60.0987 102.904 60.0318L101.797 58.5799C101.481 58.1671 101.339 57.6477 101.4 57.1317C101.461 56.6158 101.721 56.144 102.124 55.8166L126.884 35.5366C126.903 35.5225 126.918 35.5047 126.93 35.4842C126.942 35.4636 126.949 35.4409 126.952 35.4174L127.778 29.1797L127.424 29.3457C123.511 31.1681 118.619 33.6036 117.712 34.5275C117.329 34.915 116.861 35.4727 116.333 36.1199C114.842 37.8954 112.833 40.3309 110.542 41.3528C108.09 42.4513 102.997 44.7292 96.2656 43.7584C96.3636 43.6222 96.4615 43.4774 96.5552 43.3327C96.5885 43.2811 96.6103 43.2231 96.619 43.1623Z" fill="#3F2355"/>
<path d="M95.9727 44.146C96.0238 44.0822 96.0748 44.0226 96.1217 43.9544C102.968 44.9721 108.141 42.6771 110.632 41.5488C112.966 40.5056 114.992 38.0531 116.474 36.2648C117.011 35.6176 117.475 35.0599 117.854 34.6809C118.705 33.8294 123.367 31.479 127.038 29.7546C127.084 29.7332 127.135 29.7247 127.186 29.7301C127.236 29.7354 127.284 29.7544 127.325 29.785C127.366 29.8156 127.397 29.8567 127.416 29.9038C127.435 29.9509 127.441 30.0024 127.434 30.0527L126.744 35.2685C126.736 35.3398 126.701 35.4053 126.646 35.4516L101.989 55.6506C101.544 56.0137 101.257 56.5356 101.19 57.106C101.122 57.6764 101.279 58.2508 101.627 58.7078L103.083 60.6153C103.129 60.6739 103.197 60.7121 103.271 60.7216C103.345 60.7312 103.42 60.7113 103.479 60.6663L103.59 60.5812L103.718 60.7472C103.583 60.8498 103.414 60.8948 103.246 60.8725C103.078 60.8501 102.926 60.7622 102.823 60.628L101.461 58.8355C101.078 58.3363 100.905 57.7075 100.978 57.0827C101.051 56.4579 101.365 55.8862 101.853 55.4888L126.459 35.3153C126.478 35.3013 126.493 35.2834 126.505 35.2629C126.517 35.2424 126.524 35.2196 126.527 35.1961L127.195 30.2315C127.2 30.1982 127.195 30.1643 127.182 30.1333C127.169 30.1023 127.148 30.0754 127.121 30.0553C127.094 30.0353 127.062 30.0229 127.029 30.0194C126.996 30.016 126.962 30.0216 126.931 30.0356C122.933 31.9346 118.795 34.0635 118.003 34.8299C117.632 35.2004 117.177 35.7539 116.636 36.4011C115.141 38.2064 113.098 40.6802 110.705 41.7276C108.193 42.8517 102.964 45.1892 96.0238 44.1375L95.9727 44.146Z" fill="#3F2355"/>
<path d="M96.0391 42.7092C96.1017 42.6837 96.1695 42.6734 96.2369 42.6794C96.3043 42.6853 96.3693 42.7072 96.4265 42.7432C96.4965 42.7878 96.5519 42.8519 96.5859 42.9275C96.6199 43.0032 96.6311 43.0871 96.6181 43.169L96.1923 43.1094C96.1923 43.1094 96.1455 42.9561 96.0391 42.7092Z" fill="#3F2355"/>
<path d="M96.2659 43.7584C102.997 44.7292 108.09 42.4513 110.542 41.3528C112.833 40.3309 114.843 37.9039 116.32 36.1199C116.857 35.4727 117.316 34.915 117.7 34.5275C118.607 33.6206 123.499 31.1681 127.412 29.3457L127.765 29.1797L126.939 35.4174C126.937 35.4409 126.929 35.4636 126.918 35.4842C126.906 35.5047 126.89 35.5225 126.871 35.5366L102.125 55.8166C101.721 56.144 101.461 56.6158 101.4 57.1317C101.339 57.6477 101.481 58.1671 101.797 58.5799L102.904 60.0318C102.954 60.0987 103.018 60.1549 103.09 60.1972C103.163 60.2395 103.243 60.2669 103.326 60.278C103.409 60.2891 103.494 60.2836 103.575 60.2618C103.656 60.24 103.732 60.2023 103.798 60.151L103.93 60.3213L103.589 60.5811L103.479 60.6662C103.419 60.7112 103.344 60.731 103.27 60.7215C103.196 60.7119 103.129 60.6737 103.083 60.6151L101.626 58.7076C101.278 58.2506 101.122 57.6763 101.189 57.1059C101.257 56.5354 101.543 56.0136 101.988 55.6505L126.645 35.4514C126.7 35.4052 126.735 35.3397 126.743 35.2684L127.433 30.0525C127.441 30.0023 127.435 29.9508 127.416 29.9037C127.397 29.8565 127.365 29.8155 127.324 29.7849C127.284 29.7543 127.236 29.7353 127.185 29.7299C127.134 29.7246 127.083 29.7331 127.037 29.7545C123.367 31.4789 118.717 33.8122 117.853 34.6808C117.474 35.0597 117.001 35.6175 116.473 36.2647C114.992 38.053 112.965 40.5225 110.632 41.5486C108.141 42.6599 102.968 44.9549 96.1211 43.9543C96.1679 43.8904 96.219 43.8266 96.2616 43.7584H96.2659Z" fill="#3F2355"/>
<path d="M95.7232 43.6755L95.5955 43.3136C95.5895 43.2933 95.5824 43.2734 95.5742 43.254C95.6636 43.1305 95.7488 43.0028 95.8339 42.8708C95.8808 42.7944 95.9532 42.7371 96.0383 42.709C96.1448 42.9559 96.1959 43.1007 96.1959 43.1007L96.6216 43.1603C96.6129 43.221 96.5911 43.2791 96.5578 43.3306C96.4641 43.4754 96.3662 43.6202 96.2682 43.7564L96.1064 43.7309L95.7232 43.6755Z" fill="#3F2355"/>
<path d="M95.5965 43.3148L95.7242 43.6767L96.0989 43.732L96.2607 43.7576C96.2181 43.8257 96.167 43.8896 96.1202 43.9534H96.0691L95.7327 43.8981C95.6821 43.8906 95.6345 43.8696 95.5948 43.8374C95.5551 43.8052 95.5248 43.7629 95.507 43.715L95.4219 43.4723L95.473 43.4042L95.5752 43.2637C95.5831 43.2803 95.5902 43.2974 95.5965 43.3148Z" fill="#3F2355"/>
<path d="M95.5748 43.2554L95.4727 43.3959L95.5195 43.1191L95.5748 43.2554Z" fill="#3F2355"/>
<path d="M95.41 44.0547L95.2695 43.6587L95.4228 43.4629L95.508 43.7056C95.5257 43.7535 95.556 43.7958 95.5957 43.828C95.6354 43.8602 95.6831 43.8812 95.7336 43.8887L96.07 43.944H96.1211C96.0743 44.0121 96.0232 44.0718 95.9721 44.1356L95.41 44.0547Z" fill="#3F2355"/>
<path d="M95.2578 42.5488L95.2962 42.6255L95.2578 42.5488Z" fill="#3F2355"/>
<path d="M95.0973 42.2238L95.0547 42.1387L95.0973 42.2238Z" fill="#3F2355"/>
<path d="M93.0034 54.5723H83.4531C83.3402 54.5723 83.2319 54.5274 83.1521 54.4476C83.0722 54.3677 83.0273 54.2594 83.0273 54.1465C83.0273 54.0336 83.0722 53.9253 83.1521 53.8454C83.2319 53.7656 83.3402 53.7207 83.4531 53.7207H93.2461C93.3147 53.7208 93.3823 53.7375 93.4431 53.7694C93.5039 53.8013 93.5561 53.8474 93.5952 53.9038L97.9297 60.15C97.9939 60.2427 98.0188 60.357 97.9988 60.4679C97.9789 60.5789 97.9157 60.6774 97.8233 60.7418C97.7521 60.7915 97.6674 60.8183 97.5806 60.8185C97.5112 60.8191 97.4427 60.8027 97.3812 60.7708C97.3196 60.7389 97.2667 60.6924 97.2272 60.6354L93.0034 54.5723Z" fill="#3F2355"/>
<path d="M92.5075 65.7275C92.5336 65.8881 92.5493 66.0502 92.5543 66.2129H92.1285C92.1285 66.0724 92.1285 65.9276 92.0859 65.7871V65.3613H92.4436C92.4691 65.4805 92.4904 65.604 92.5075 65.7275Z" fill="#3F2355"/>
<path d="M92.0859 66.2129V65.7871C92.1072 65.9276 92.12 66.0724 92.1285 66.2129H92.0859Z" fill="#3F2355"/>
<path d="M91.8553 37.9454L91.668 37.7793L91.8553 37.9454Z" fill="#3F2355"/>
<path d="M91.6636 65.8471C91.6961 66.0556 91.7118 66.2663 91.7104 66.4773C91.7157 67.6537 91.2641 68.7862 90.4507 69.6361C89.6373 70.486 88.5257 70.9869 87.3502 71.0331C86.1747 71.0794 85.0272 70.6675 84.1495 69.8842C83.2718 69.1009 82.7325 68.0074 82.6453 66.8342C82.5581 65.6611 82.9298 64.4999 83.6821 63.5954C84.4343 62.691 85.5084 62.1139 86.6778 61.9859C87.8472 61.8579 89.0207 62.189 89.9508 62.9093C90.8809 63.6296 91.4949 64.6829 91.6636 65.8471Z" fill="white"/>
<path d="M90.4234 36.8555C90.3084 36.7831 90.1934 36.7107 90.0742 36.6426C90.1934 36.7107 90.3084 36.7788 90.4234 36.8555Z" fill="#3F2355"/>
<path d="M89.8155 36.4942L89.5898 36.375L89.8155 36.4942Z" fill="#3F2355"/>
<path d="M89.5893 36.3747L89.3594 36.2598C89.436 36.2938 89.5127 36.3321 89.5893 36.3747Z" fill="#3F2355"/>
<path d="M89.3578 36.2604L89.1406 36.1582L89.3578 36.2604Z" fill="#3F2355"/>
<path d="M88.6376 35.9491L88.3906 35.8555L88.6376 35.9491Z" fill="#3F2355"/>
<path d="M88.3922 35.855L88.1367 35.7656L88.3922 35.855Z" fill="#3F2355"/>
<path d="M87.8773 35.6896L87.6133 35.6172L87.8773 35.6896Z" fill="#3F2355"/>
<path d="M87.422 35.5697C87.3283 35.5442 87.2346 35.5229 87.1367 35.5059C87.2346 35.5229 87.3283 35.5442 87.422 35.5697Z" fill="#3F2355"/>
<path d="M87.1372 35.5065L86.8477 35.4512L87.1372 35.5065Z" fill="#3F2355"/>
<path d="M86.8605 35.4511L86.5625 35.4043L86.8605 35.4511Z" fill="#3F2355"/>
<path d="M86.5488 35.4036C86.4466 35.3865 86.3444 35.3738 86.2422 35.3652C86.3444 35.3738 86.4466 35.3865 86.5488 35.4036Z" fill="#3F2355"/>
<path d="M85.6211 35.3145C85.8212 35.3145 86.0171 35.34 86.2087 35.3613C86.0086 35.34 85.8212 35.34 85.6211 35.3145Z" fill="#3F2355"/>
<path d="M85.6036 35.7402C92.4161 36.0638 95.1666 43.4043 95.1964 43.4639L95.2688 43.6598C93.2761 46.1463 90.3127 47.1938 88.0773 47.6366C83.5811 48.5265 78.4675 47.6621 75.355 45.4821C75.309 45.4497 75.257 45.4267 75.202 45.4144C75.147 45.4022 75.0902 45.401 75.0347 45.4109C74.9793 45.4208 74.9264 45.4416 74.879 45.4721C74.8317 45.5026 74.7908 45.5422 74.7589 45.5886C74.6947 45.6812 74.6698 45.7955 74.6898 45.9065C74.7097 46.0174 74.7729 46.1159 74.8654 46.1804C77.3008 47.8835 80.8816 48.833 84.4838 48.833C85.7458 48.8349 87.0049 48.7137 88.2434 48.4711C90.6363 47.9985 93.8169 46.8659 95.9713 44.1452H96.0352C102.975 45.1968 108.204 42.8678 110.716 41.7352C113.096 40.6708 115.14 38.197 116.634 36.3917C117.175 35.7445 117.631 35.191 118.001 34.8206C118.772 34.0542 122.932 31.9167 126.943 30.0348C126.973 30.0207 127.007 30.0151 127.04 30.0186C127.074 30.022 127.106 30.0344 127.133 30.0545C127.16 30.0745 127.181 30.1014 127.194 30.1324C127.207 30.1634 127.211 30.1973 127.207 30.2306L126.551 35.1867C126.548 35.2102 126.541 35.233 126.529 35.2535C126.518 35.274 126.502 35.2919 126.483 35.3059L101.864 55.4795C101.376 55.8768 101.063 56.4485 100.99 57.0733C100.916 57.6982 101.09 58.3269 101.472 58.8261L102.835 60.6186C102.938 60.7528 103.09 60.8408 103.257 60.8631C103.425 60.8855 103.595 60.8404 103.729 60.7379L105.16 62.6198L102.69 65.3533H92.4714C92.1832 64.0085 91.3899 62.8256 90.2551 62.0485C89.1203 61.2715 87.7305 60.9595 86.3725 61.177C85.0145 61.3945 83.7916 62.1248 82.9563 63.2174C82.1209 64.31 81.7367 65.6815 81.8828 67.0491C82.029 68.4166 82.6944 69.676 83.7418 70.5674C84.7892 71.4587 86.1387 71.9142 87.512 71.8398C88.8854 71.7654 90.1778 71.1668 91.1227 70.1674C92.0677 69.1681 92.5931 67.8442 92.5906 66.4689C92.5906 66.3795 92.5906 66.2901 92.5906 66.2049H103.039L105.658 63.3096L107.144 65.2639C107.31 65.4819 107.525 65.6584 107.771 65.7795C108.017 65.9007 108.287 65.9632 108.562 65.9622C108.948 65.9638 109.323 65.8381 109.63 65.6045L111.976 63.8248H122.515C123.212 63.8248 123.88 64.1014 124.374 64.594C124.867 65.0865 125.145 65.7547 125.146 66.4519C125.146 67.1494 124.869 67.8185 124.377 68.3125C123.885 68.8065 123.216 69.0852 122.519 69.0874H108.574V68.4488H102.567L99.748 75.0824H79.1104C78.859 75.0846 78.6099 75.035 78.3784 74.9369C78.147 74.8387 77.9381 74.6941 77.7649 74.5119C77.5882 74.3298 77.4505 74.1135 77.3605 73.8763C77.2704 73.639 77.2298 73.3859 77.2412 73.1324C77.4073 69.0236 77.2412 63.1478 75.4998 58.5025C73.1409 52.1839 66.6478 48.5648 64.5742 47.5472L67.5802 39.2913C68.9475 39.462 70.2802 39.8426 71.5315 40.4196L72.1063 40.7091C72.1427 40.7262 72.1834 40.7317 72.223 40.7249C72.2626 40.718 72.2992 40.6991 72.3277 40.6708L72.7535 40.211C76.2805 37.0859 80.8985 35.4792 85.6036 35.7402ZM97.815 60.7421C97.9074 60.6777 97.9706 60.5792 97.9905 60.4682C98.0105 60.3573 97.9856 60.2429 97.9214 60.1503L93.5742 53.9041C93.5351 53.8477 93.4829 53.8016 93.4221 53.7697C93.3613 53.7378 93.2937 53.7211 93.225 53.721H83.4534C83.3404 53.721 83.2321 53.7658 83.1523 53.8457C83.0724 53.9255 83.0276 54.0338 83.0276 54.1468C83.0276 54.2597 83.0724 54.368 83.1523 54.4478C83.2321 54.5277 83.3404 54.5726 83.4534 54.5726H93.0121L97.2274 60.6357C97.2669 60.6927 97.3198 60.7391 97.3814 60.7711C97.443 60.803 97.5114 60.8193 97.5808 60.8188C97.6647 60.8169 97.7462 60.7902 97.815 60.7421Z" fill="white"/>
<path d="M82.2429 66.4814C82.2467 65.232 82.723 64.0304 83.5762 63.1177C84.4294 62.205 85.5962 61.6489 86.8425 61.5611C88.0888 61.4732 89.3221 61.8601 90.2949 62.644C91.2677 63.428 91.9079 64.5509 92.087 65.7874V66.2131H92.1295C92.1295 66.3026 92.1295 66.392 92.1295 66.4814C92.1295 67.7936 91.6083 69.052 90.6804 69.9798C89.7526 70.9077 88.4941 71.429 87.182 71.429C85.8698 71.429 84.6113 70.9077 83.6835 69.9798C82.7556 69.052 82.2344 67.7936 82.2344 66.4814H82.2429ZM82.6687 66.4814C82.6687 67.6806 83.1451 68.8308 83.9931 69.6788C84.8411 70.5268 85.9912 71.0032 87.1905 71.0032C88.3897 71.0032 89.5399 70.5268 90.3879 69.6788C91.2359 68.8308 91.7123 67.6806 91.7123 66.4814C91.7136 66.2704 91.698 66.0597 91.6654 65.8512C91.5017 64.7217 90.9168 63.6959 90.0282 62.9796C89.1396 62.2634 88.013 61.9096 86.8745 61.9893C85.7359 62.0691 84.6697 62.5764 83.8896 63.4096C83.1095 64.2427 82.6734 65.3401 82.6687 66.4814Z" fill="#3F2355"/>
<path d="M87.1912 61.535C86.2126 61.535 85.2561 61.8251 84.4425 62.3688C83.6288 62.9124 82.9947 63.6852 82.6202 64.5892C82.2457 65.4933 82.1478 66.488 82.3387 67.4478C82.5296 68.4075 83.0008 69.2891 83.6927 69.981C84.3846 70.673 85.2662 71.1442 86.226 71.3351C87.1857 71.526 88.1805 71.428 89.0845 71.0535C89.9886 70.6791 90.7613 70.0449 91.3049 69.2313C91.8486 68.4177 92.1388 67.4611 92.1388 66.4826C92.1388 66.3931 92.1388 66.3037 92.1388 66.2143H92.5645C92.5645 66.2995 92.5645 66.3889 92.5645 66.4783C92.5674 67.857 92.0409 69.1843 91.0938 70.1863C90.1468 71.1882 88.8512 71.7885 87.4745 71.8633C86.0978 71.938 84.7449 71.4816 83.6949 70.5881C82.6449 69.6946 81.9778 68.4322 81.8313 67.0612C81.6848 65.6903 82.07 64.3154 82.9075 63.2202C83.745 62.125 84.9709 61.3929 86.3323 61.1751C87.6937 60.9572 89.0868 61.2701 90.2243 62.0493C91.3617 62.8285 92.1567 64.0146 92.4453 65.3628H92.0877V65.7885C91.9214 64.6084 91.3343 63.528 90.4346 62.7464C89.5348 61.9648 88.383 61.5346 87.1912 61.535Z" fill="#3F2355"/>
<path d="M84.4843 48.8334C80.8822 48.8334 77.3014 47.8839 74.8659 46.1808C74.7734 46.1163 74.7103 46.0178 74.6903 45.9069C74.6704 45.7959 74.6952 45.6816 74.7594 45.5889C74.7914 45.5426 74.8322 45.503 74.8796 45.4725C74.9269 45.442 74.9798 45.4212 75.0353 45.4113C75.0907 45.4014 75.1476 45.4026 75.2025 45.4148C75.2575 45.427 75.3095 45.45 75.3555 45.4825C78.468 47.6625 83.5816 48.5268 88.0779 47.637C90.3132 47.2112 93.2767 46.1467 95.2693 43.6602L95.4098 44.0561L95.9718 44.1455C93.8174 46.8663 90.6368 47.9776 88.2439 48.4715C87.0055 48.7141 85.7463 48.8353 84.4843 48.8334Z" fill="#3F2355"/>
<path d="M78.2325 28.1023C78.2599 28.2108 78.2657 28.3236 78.2495 28.4343C78.2334 28.545 78.1955 28.6515 78.1382 28.7476C78.0809 28.8437 78.0051 28.9275 77.9154 28.9943C77.8256 29.0611 77.7236 29.1096 77.6151 29.137C75.2994 29.7039 73.0371 30.4704 70.8537 31.4277C70.6977 31.498 70.5578 31.5997 70.4428 31.7264C70.3278 31.8532 70.2401 32.0022 70.1852 32.1643L68.3288 37.2736C67.9498 37.214 67.5581 37.1672 67.1536 37.1416L66.5703 37.1118L68.5843 31.5767C68.7197 31.2019 68.9288 30.8581 69.1994 30.5655C69.47 30.273 69.7965 30.0377 70.1596 29.8736C72.4328 28.878 74.7876 28.0803 77.1978 27.4892C77.4163 27.4336 77.6479 27.4669 77.8419 27.5819C78.0358 27.6968 78.1763 27.884 78.2325 28.1023Z" fill="#3F2355"/>
<path d="M75.0564 57.9836C75.0181 57.8985 74.984 57.8133 74.9414 57.7324C74.984 57.8133 75.0181 57.907 75.0564 57.9836Z" fill="#3F2355"/>
<path d="M74.9377 57.7324C74.8781 57.5905 74.8142 57.4486 74.7461 57.3066C74.8171 57.4542 74.8809 57.5962 74.9377 57.7324Z" fill="#3F2355"/>
<path d="M74.6795 57.174C74.6029 57.0207 74.5262 56.8717 74.4453 56.7227C74.5134 56.8717 74.6071 57.0207 74.6795 57.174Z" fill="#3F2355"/>
<path d="M74.0059 55.9647L73.8867 55.7773L74.0059 55.9647Z" fill="#3F2355"/>
<path d="M73.7773 55.6152C73.8157 55.6663 73.8497 55.7217 73.8838 55.777C73.8497 55.7217 73.8157 55.6663 73.7773 55.6152Z" fill="#3F2355"/>
<path d="M72.875 54.3516L72.9261 54.4154C72.9078 54.3952 72.8907 54.3739 72.875 54.3516Z" fill="#3F2355"/>
<path d="M72.7515 54.2021C72.6536 54.0786 72.5557 53.9552 72.4492 53.8359C72.5557 53.9552 72.6536 54.0744 72.7515 54.2021Z" fill="#3F2355"/>
<path d="M71.9575 53.2603C71.8468 53.1369 71.7361 53.0177 71.6211 52.8984C71.719 53.0177 71.8297 53.1369 71.9575 53.2603Z" fill="#3F2355"/>
<path d="M69.1797 50.7188L69.6055 51.0764L69.1797 50.7188Z" fill="#3F2355"/>
<path d="M85.6928 33.8281C80.7072 33.544 75.7991 35.1597 71.9571 38.3499C71.9185 38.3832 71.8715 38.4052 71.8211 38.4135C71.7708 38.4217 71.7191 38.4159 71.6719 38.3967C70.5755 37.9577 69.4327 37.6449 68.2656 37.4642L68.3423 37.2599C69.4934 37.442 70.6212 37.749 71.7059 38.1753C71.7341 38.1875 71.7653 38.1911 71.7956 38.1858C71.8258 38.1805 71.8539 38.1665 71.8762 38.1455C75.7598 34.9687 80.6916 33.3602 85.7014 33.6365C92.6629 33.9643 95.9499 39.921 96.9122 42.0627C96.925 42.0902 96.9446 42.1141 96.9692 42.132C96.9938 42.1498 97.0225 42.1612 97.0527 42.1649C103.014 42.8759 107.45 40.8875 109.847 39.8188C111.772 38.9672 113.637 36.7063 114.995 35.0628C115.561 34.3816 116.051 33.7855 116.494 33.3597C118.099 31.7545 127.087 27.6457 128.109 27.1816L129.544 26.5302C129.575 26.5165 129.609 26.5112 129.642 26.5148C129.676 26.5183 129.708 26.5307 129.735 26.5505C129.762 26.5704 129.784 26.5971 129.797 26.6279C129.811 26.6587 129.816 26.6925 129.812 26.726L128.535 36.3402C128.533 36.3637 128.525 36.3864 128.513 36.4069C128.502 36.4275 128.486 36.4453 128.467 36.4594L103.201 57.1651C103.169 57.189 103.142 57.2191 103.121 57.2536C103.101 57.2882 103.088 57.3265 103.083 57.3662C103.078 57.406 103.08 57.4464 103.091 57.485C103.102 57.5236 103.121 57.5596 103.146 57.5909L104.517 59.3877L104.346 59.5154L102.98 57.7186C102.898 57.6133 102.861 57.4801 102.877 57.3478C102.893 57.2155 102.96 57.0948 103.065 57.0118L128.237 36.387C128.293 36.3412 128.33 36.2757 128.339 36.2039L129.523 27.2625C129.528 27.2129 129.521 27.1627 129.501 27.117C129.481 27.0712 129.449 27.0315 129.409 27.0018C129.369 26.9721 129.322 26.9534 129.272 26.9476C129.223 26.9417 129.173 26.949 129.127 26.9687L128.19 27.3945C127.177 27.8543 118.218 31.9504 116.643 33.5257C115.753 34.4199 114.659 35.9272 113.13 37.5834C112.045 38.7566 110.731 39.6943 109.268 40.3382C106.714 41.4538 102.503 43.076 96.959 42.399C96.9106 42.3923 96.8645 42.3736 96.8251 42.3446C96.7857 42.3156 96.7542 42.2773 96.7334 42.233C95.852 40.1765 92.6161 34.1559 85.6928 33.8281Z" fill="#3F2355"/>
<path d="M71.9571 38.3499C75.8001 35.1587 80.7099 33.5429 85.697 33.8281C92.6202 34.1559 95.8562 40.1765 96.7418 42.1819C96.7626 42.2262 96.7942 42.2646 96.8336 42.2936C96.873 42.3226 96.919 42.3412 96.9675 42.3479C102.503 43.0249 106.731 41.4027 109.277 40.2872C110.739 39.6432 112.054 38.7055 113.139 37.5324C114.667 35.8761 115.761 34.3688 116.651 33.4747C118.227 31.8993 127.185 27.8033 128.199 27.3434L129.135 26.9176C129.181 26.898 129.231 26.8907 129.281 26.8965C129.33 26.9023 129.378 26.921 129.418 26.9507C129.458 26.9804 129.489 27.0202 129.509 27.0659C129.529 27.1117 129.537 27.1618 129.531 27.2114L128.348 36.1528C128.338 36.2246 128.301 36.2901 128.245 36.3359L103.073 56.9608C102.969 57.0437 102.901 57.1644 102.886 57.2967C102.87 57.429 102.906 57.5622 102.988 57.6676L104.355 59.4644L104.184 59.5921L102.818 57.7995C102.704 57.65 102.652 57.4619 102.675 57.2751C102.697 57.0883 102.791 56.9176 102.937 56.799L128.058 36.1997C128.077 36.1856 128.093 36.1677 128.105 36.1472C128.116 36.1267 128.124 36.104 128.126 36.0804L129.318 27.0581L128.271 27.5308C127.258 27.9906 118.333 32.0696 116.775 33.6194C116.349 34.0452 115.864 34.637 115.302 35.3226C113.918 37.0001 112.019 39.2951 110.001 40.1978C107.535 41.2963 102.95 43.3485 96.7546 42.5481H96.6311L96.5843 42.4374C95.8008 40.5299 92.6288 34.3688 85.6843 34.0622C80.6954 33.7778 75.7859 35.4072 71.9571 38.6181L71.8591 38.7075L71.7357 38.6564C70.5921 38.1833 69.3954 37.8502 68.1719 37.6644L68.2443 37.4642C69.4114 37.6449 70.5541 37.9577 71.6505 38.3967C71.7004 38.4204 71.7563 38.4286 71.811 38.4203C71.8656 38.4119 71.9165 38.3874 71.9571 38.3499Z" fill="#3F2355"/>
<path d="M85.6528 34.6804C77.0393 34.2546 71.9938 39.4705 71.9938 39.4705C70.7138 38.8748 69.3518 38.4744 67.9531 38.2825L68.1788 37.6652C69.4024 37.851 70.599 38.1841 71.7426 38.6572L71.866 38.7083L71.964 38.6189C75.7906 35.41 80.6967 33.7808 85.6827 34.063C92.6271 34.3909 95.7992 40.552 96.6039 42.4339L96.6508 42.5446H96.7743C102.969 43.3451 107.555 41.2928 110.02 40.1943C112.039 39.2916 113.937 36.9967 115.321 35.3191C115.883 34.6464 116.364 34.0418 116.794 33.616C118.344 32.0661 127.269 27.9871 128.291 27.5273L129.338 27.0547L128.159 36.0855C128.156 36.109 128.149 36.1318 128.137 36.1523C128.125 36.1728 128.109 36.1907 128.09 36.2047L102.969 56.804C102.823 56.9226 102.729 57.0934 102.707 57.2802C102.685 57.4669 102.736 57.655 102.85 57.8046L104.217 59.5971L103.817 59.8952L103.944 60.0698L103.834 60.1507L102.339 58.1921C102.126 57.9101 102.031 57.5565 102.073 57.2056C102.115 56.8547 102.291 56.5338 102.565 56.3101L127.567 35.8258L128.546 28.1021C128.546 28.1021 118.753 32.5473 117.246 34.063C115.739 35.5788 113.231 39.4534 110.276 40.7691C107.393 42.0464 102.778 43.9795 96.6125 43.162C96.6255 43.0801 96.6143 42.9961 96.5802 42.9205C96.5462 42.8449 96.4908 42.7808 96.4209 42.7362C96.3636 42.7002 96.2986 42.6783 96.2312 42.6723C96.1639 42.6664 96.096 42.6766 96.0334 42.7021C95.3436 41.0927 92.2908 34.9912 85.6528 34.6804Z" fill="#3F2355"/>
<path d="M85.6221 35.3136C80.7967 35.0424 76.0606 36.6961 72.4527 39.912L72.1249 40.2484L71.6991 40.0397C70.4416 39.4561 69.1017 39.0698 67.7266 38.8944L67.948 38.2813C69.3466 38.4731 70.7087 38.8735 71.9886 39.4692C71.9886 39.4692 77.0341 34.2704 85.6477 34.6791C92.2856 34.99 95.3385 41.0914 96.0325 42.7094C95.9474 42.7375 95.875 42.7948 95.8281 42.8712C95.743 43.0032 95.6578 43.1309 95.5684 43.2544L95.513 43.1181C95.4662 43.0074 95.3981 42.8542 95.3129 42.6668V42.637L95.2746 42.5604C95.2278 42.4582 95.1724 42.3517 95.1128 42.2368L95.0702 42.1516C94.5267 41.1053 93.8683 40.1228 93.1074 39.2222C92.7272 38.7779 92.3175 38.3597 91.8811 37.9704L91.6938 37.8044C91.3025 37.4664 90.8869 37.1576 90.4505 36.8804C90.3355 36.8038 90.2206 36.7357 90.1014 36.6676C89.9821 36.5994 89.931 36.5654 89.8416 36.5185L89.616 36.3993C89.5393 36.3567 89.4627 36.3184 89.386 36.2843L89.1689 36.1822C89.0028 36.1055 88.8368 36.0374 88.6665 35.9735L88.4195 35.8799L88.1385 35.7649L87.8788 35.684L87.6148 35.6116L87.4232 35.5648C87.3295 35.5392 87.2358 35.5179 87.1379 35.5009L86.8484 35.4456L86.5503 35.3987C86.4482 35.3817 86.346 35.3689 86.2438 35.3604H86.2097C86.0096 35.3391 85.8223 35.3391 85.6221 35.3136Z" fill="#3F2355"/>
<path d="M61.9596 54.7511C64.5281 55.8541 66.6855 57.7359 68.127 60.1309C69.5686 62.5259 70.2216 65.3132 69.9939 68.0993C69.7662 70.8854 68.6693 73.5296 66.8579 75.6588C65.0466 77.788 62.6124 79.2945 59.8988 79.9658C58.0509 80.034 56.2924 80.1063 54.6361 80.1872C51.3239 79.6597 48.3319 77.9038 46.2562 75.2693C44.1804 72.6348 43.1733 69.3151 43.4353 65.9713C43.6974 62.6276 45.2094 59.5053 47.6702 57.2263C50.131 54.9473 53.3599 53.6789 56.7139 53.6738C57.9482 53.6727 59.1764 53.8447 60.3629 54.1848L58.8982 58.2084C57.6544 57.9069 56.3609 57.872 55.1027 58.106C53.8445 58.3401 52.65 58.8378 51.5979 59.5664C50.5458 60.2951 49.6598 61.2381 48.9981 62.3336C48.3365 63.4291 47.9142 64.6523 47.7591 65.9226C47.6039 67.193 47.7194 68.4818 48.0979 69.7044C48.4764 70.9269 49.1093 72.0555 49.9551 73.016C50.801 73.9764 51.8405 74.747 53.0054 75.277C54.1703 75.8071 55.4341 76.0845 56.7139 76.0912C58.9077 76.0872 61.0261 75.2903 62.6787 73.8474C64.3312 72.4046 65.4065 70.413 65.7064 68.2398L65.2807 68.1802C65.2807 68.0695 65.3105 67.9545 65.319 67.8396C65.3275 67.7246 65.3403 67.5969 65.3445 67.4734C65.3488 67.3499 65.3445 67.1754 65.3445 67.0263C65.346 66.7846 65.3346 66.543 65.3105 66.3025C65.3105 66.206 65.3019 66.1081 65.2849 66.0087C65.2446 65.6602 65.1821 65.3146 65.0976 64.9741C65.0805 64.8946 65.0592 64.8137 65.0337 64.7314C64.9403 64.38 64.8222 64.0357 64.6803 63.701C64.6292 63.5732 64.5696 63.4455 64.51 63.322C64.4504 63.1986 64.4035 63.1006 64.3482 62.9942C64.246 62.7983 64.1353 62.6067 64.0161 62.4194C63.9352 62.2916 63.85 62.1639 63.7649 62.0447L63.6542 61.8914C63.5775 61.7892 63.5009 61.687 63.4157 61.5849C63.3306 61.4827 63.2923 61.4316 63.2199 61.3549C63.1475 61.2783 62.9942 61.0952 62.8707 60.9717L63.173 60.6737C62.4019 59.8861 61.4927 59.2467 60.4906 58.7875L61.9596 54.7511Z" fill="#DEDFE0"/>
<path d="M72.4495 39.9124C76.0574 36.6965 80.7934 35.0428 85.6189 35.3139C85.819 35.3139 86.0148 35.3395 86.2064 35.3608H86.2405C86.3427 35.3608 86.4449 35.3735 86.5471 35.3991L86.8451 35.4459L87.1346 35.5013C87.2326 35.5013 87.3263 35.5396 87.4199 35.5651L87.6115 35.612L87.8755 35.6844L88.1352 35.7653L88.3907 35.8504L88.6376 35.9441C88.808 36.0079 88.974 36.0761 89.1401 36.1527L89.3572 36.2549L89.5871 36.3699L89.8128 36.4891C89.9022 36.5359 89.9874 36.5828 90.0725 36.6381C90.1577 36.6935 90.3067 36.7786 90.4217 36.851C90.8581 37.1282 91.2737 37.437 91.665 37.7749L91.8523 37.941C92.2887 38.3302 92.6984 38.7485 93.0786 39.1928C93.8458 40.1021 94.5085 41.0947 95.0542 42.152L95.0968 42.2371C95.1564 42.3521 95.2117 42.4585 95.2586 42.5607L95.2969 42.6374V42.6672C95.382 42.8545 95.4501 43.0078 95.497 43.1185L95.4501 43.3953L95.3991 43.4634L95.3693 43.3867C95.3437 43.3144 92.5761 35.8589 85.5763 35.5268C80.8119 35.2625 76.1362 36.8925 72.5687 40.0614L72.2791 40.3594C72.2368 40.4027 72.1818 40.4314 72.1221 40.4413C72.0624 40.4513 72.0011 40.442 71.947 40.4148L71.5766 40.2274C70.3235 39.6522 68.9894 39.2731 67.6211 39.1034L67.6935 38.8947C69.0808 39.0609 70.4339 39.4416 71.7043 40.0231L72.1301 40.2317L72.4495 39.9124Z" fill="#3F2355"/>
<path d="M85.6039 35.7407C80.9003 35.4808 76.2841 37.0873 72.7581 40.2114L72.3323 40.6712C72.3038 40.6996 72.2673 40.7184 72.2277 40.7253C72.1881 40.7321 72.1473 40.7266 72.1109 40.7095L71.5319 40.42C70.285 39.8505 68.9582 39.4757 67.5977 39.3087L67.6743 39.1043C69.0426 39.2741 70.3767 39.6532 71.6298 40.2284L72.0002 40.4158C72.0543 40.443 72.1156 40.4522 72.1753 40.4423C72.235 40.4323 72.29 40.4037 72.3323 40.3604L72.6219 40.0624C76.1894 36.8934 80.8651 35.2634 85.6295 35.5278C92.6166 35.8599 95.3841 43.3153 95.4225 43.3877L95.4523 43.4644L95.299 43.6602L95.2266 43.4644C95.167 43.3877 92.4164 36.0643 85.6039 35.7407Z" fill="#3F2355"/>
<path d="M67.0825 38.1895C67.3806 38.1895 67.6744 38.2405 67.9341 38.2831L67.7127 38.8962C67.487 38.8664 67.2571 38.8452 67.0229 38.8281H66.8398L66.9122 38.6195L67.0825 38.1895Z" fill="#3F2355"/>
<path d="M67.125 49.2539C67.2953 49.3604 67.4656 49.4753 67.6445 49.5988C67.4699 49.4753 67.2953 49.3646 67.125 49.2539Z" fill="#3F2355"/>
<path d="M67.0413 38.8281C67.2755 38.8281 67.5054 38.8664 67.7311 38.8962L67.6587 39.1049C67.4543 39.0751 67.2329 39.0538 67.0286 39.041H66.7773L66.837 38.875V38.8281H67.0413Z" fill="#3F2355"/>
<path d="M67.0267 39.041C67.2396 39.041 67.4525 39.0751 67.6569 39.1049L67.5802 39.3093C67.3971 39.2837 67.2055 39.2667 67.0139 39.2539H66.7031L66.7755 39.0453L67.0267 39.041Z" fill="#3F2355"/>
<path d="M66.9282 38.6055L66.8558 38.8141H66.8516L66.9282 38.6055Z" fill="#3F2355"/>
<path d="M66.7031 39.2365C66.388 39.2365 66.09 39.2109 65.8047 39.2067L65.8813 38.998C66.1666 38.998 66.4646 38.998 66.7755 39.0279L66.7031 39.2365Z" fill="#3F2355"/>
<path d="M67.1429 37.3404L66.5 37.3063L66.5724 37.0977L67.1557 37.1275C67.5602 37.153 67.9519 37.1998 68.3309 37.2595L68.2542 37.4638C67.8966 37.4085 67.5261 37.3659 67.1429 37.3404Z" fill="#3F2355"/>
<path d="M66.4219 37.5153L66.4985 37.3066L67.1414 37.3407C67.5247 37.3662 67.8951 37.4088 68.2527 37.4642L68.1804 37.6643C67.8397 37.6132 67.4863 37.5749 67.1244 37.5493C66.8817 37.5323 66.6475 37.5195 66.4219 37.5153Z" fill="#3F2355"/>
<path d="M66.4196 37.5156C66.6452 37.5156 66.8794 37.5156 67.1221 37.5497C67.484 37.5752 67.8374 37.6136 68.178 37.6646L67.9524 38.282C67.6714 38.2395 67.3776 38.2096 67.1008 38.1884C66.8241 38.1671 66.509 38.1543 66.2109 38.1458L66.4196 37.5156Z" fill="#3F2355"/>
<path d="M65.958 38.7852C66.2433 38.7852 66.5414 38.7852 66.8522 38.815V38.8618L66.7926 39.0279C66.4818 39.0279 66.1837 38.998 65.8984 38.998L65.958 38.7852Z" fill="#3F2355"/>
<path d="M66.8473 38.815C66.5364 38.815 66.2384 38.7852 65.9531 38.7852L66.1873 38.1465C66.4854 38.1465 66.7834 38.1465 67.0772 38.1891L66.9239 38.6148L66.8473 38.815Z" fill="#3F2355"/>
<path d="M65.3125 66.289C65.3367 66.5295 65.3481 66.7711 65.3466 67.0129C65.3466 67.1633 65.3466 67.3123 65.3466 67.4599C65.3466 67.5791 65.3466 67.7026 65.321 67.8261C65.2955 67.9496 65.321 68.056 65.2827 68.1667L64.8569 68.1114C64.6451 69.6752 63.9875 71.145 62.9627 72.3451C61.9379 73.5452 60.5891 74.4248 59.0777 74.8788C57.5663 75.3328 55.9561 75.342 54.4396 74.9053C52.9231 74.4686 51.5645 73.6044 50.526 72.4161C49.4875 71.2278 48.8132 69.7656 48.5836 68.2043C48.3539 66.6429 48.5787 65.0485 49.2311 63.6115C49.8835 62.1746 50.9359 60.9558 52.2624 60.101C53.589 59.2462 55.1336 58.7914 56.7117 58.791C57.3486 58.7912 57.9832 58.867 58.6022 59.0167L55.7154 66.9405C55.6737 67.0464 55.6536 67.1596 55.6564 67.2734C55.6591 67.3873 55.6847 67.4994 55.7316 67.6031C55.7784 67.7069 55.8456 67.8002 55.9292 67.8776C56.0127 67.9549 56.111 68.0147 56.218 68.0534C56.3251 68.0922 56.4388 68.109 56.5525 68.103C56.6662 68.097 56.7776 68.0683 56.88 68.0185C56.9824 67.9687 57.0737 67.8989 57.1487 67.8132C57.2236 67.7275 57.2807 67.6277 57.3163 67.5195L60.2074 59.5787C61.0902 59.9923 61.892 60.5604 62.5747 61.2563L62.8813 60.9582C63.0048 61.0817 63.1197 61.2095 63.2304 61.3414C63.3002 61.4142 63.3656 61.4909 63.4263 61.5714C63.5072 61.6693 63.5881 61.7715 63.6647 61.8779L63.7754 62.0312C63.8606 62.1547 63.9457 62.2782 64.0266 62.4059C64.1075 62.5336 64.2566 62.7848 64.3588 62.9807C64.4141 63.0914 64.4695 63.1979 64.5205 63.3086C64.5716 63.4193 64.6398 63.5598 64.6909 63.6875C64.8327 64.0222 64.9508 64.3665 65.0443 64.7179C65.0698 64.7974 65.0911 64.8783 65.1081 64.9606C65.1926 65.3011 65.2552 65.6467 65.2955 65.9952C65.304 66.0917 65.3097 66.1897 65.3125 66.289Z" fill="white"/>
<path d="M65.2305 68.4492C65.2305 68.364 65.2603 68.2789 65.2688 68.1895C65.2605 68.2766 65.2477 68.3633 65.2305 68.4492Z" fill="#3F2355"/>
<path d="M65.1914 68.6664L65.2297 68.4492L65.1914 68.6664Z" fill="#3F2355"/>
<path d="M64.9297 69.6798C64.9637 69.5861 64.9935 69.4925 65.0191 69.3945C64.9935 69.4925 64.9637 69.5861 64.9297 69.6798Z" fill="#3F2355"/>
<path d="M64.7891 70.0658C64.8316 69.9593 64.87 69.8529 64.9083 69.7422C64.87 69.8529 64.8316 69.9593 64.7891 70.0658Z" fill="#3F2355"/>
<path d="M75.2986 58.5922C75.2219 58.3878 75.141 58.1664 75.0559 57.9833C75.0175 57.8982 74.9835 57.813 74.9409 57.7321C74.8983 57.6512 74.8174 57.4596 74.7493 57.3063C74.7277 57.2554 74.7036 57.2057 74.6769 57.1573C74.6045 57.004 74.5236 56.855 74.4427 56.706C74.3022 56.4462 74.1575 56.195 74.0169 55.9481L73.8977 55.7607C73.8637 55.7054 73.8296 55.65 73.7913 55.5989C73.523 55.1732 73.2335 54.7857 72.9397 54.3982L72.8886 54.3344L72.7652 54.1854C72.6672 54.0619 72.5693 53.9384 72.4629 53.8192C72.3011 53.6233 72.1307 53.4317 71.9562 53.2444C71.7816 53.057 71.7348 53.0017 71.6198 52.8825C70.9973 52.2356 70.3361 51.627 69.6399 51.0601L69.2141 50.7025C68.6862 50.2767 68.171 49.9148 67.6771 49.5827C67.4982 49.4592 67.3279 49.3442 67.1576 49.2378C66.2379 48.6417 65.4289 48.1989 64.8456 47.8966L64.6285 47.7859H64.5944L64.5391 47.7603L64.6072 47.5645C66.6807 48.5821 73.1739 52.2012 75.5327 58.5198C77.2742 63.1651 77.4402 69.0409 77.2742 73.1496C77.2628 73.4032 77.3034 73.6563 77.3934 73.8936C77.4835 74.1308 77.6211 74.3471 77.7979 74.5292C77.9711 74.7114 78.1799 74.856 78.4114 74.9542C78.6428 75.0523 78.892 75.1019 79.1434 75.0997H99.781L102.6 68.4661H108.573V69.1047H108.36V68.6789H102.706L99.8874 75.3126H79.1093C78.8295 75.3144 78.5522 75.2591 78.2945 75.15C78.0368 75.0409 77.8041 74.8804 77.6105 74.6782C77.4141 74.475 77.261 74.2339 77.1608 73.9697C77.0605 73.7054 77.015 73.4235 77.0272 73.1411C77.1933 69.0494 77.0272 63.2077 75.2986 58.5922Z" fill="#3F2355"/>
<path d="M64.5938 47.8027L64.8109 47.9134L64.5938 47.8027Z" fill="#3F2355"/>
<path d="M64.6859 63.6895C64.6348 63.5618 64.5752 63.434 64.5156 63.3105C64.5752 63.4425 64.6348 63.5618 64.6859 63.6895Z" fill="#DEDFE0"/>
<path d="M75.0985 58.6679C76.8016 63.2493 76.9805 69.0612 76.8016 73.1445C76.7878 73.4541 76.837 73.7634 76.9462 74.0535C77.0553 74.3436 77.2223 74.6086 77.4368 74.8323C77.6514 75.056 77.9091 75.2338 78.1944 75.355C78.4797 75.4762 78.7866 75.5383 79.0966 75.5374H100.015L102.838 68.9037H108.148V69.1166H107.126V69.3252L106.1 69.5424H103.289L100.467 76.176H79.1094C78.7135 76.1764 78.3217 76.0966 77.9574 75.9415C77.5932 75.7864 77.2642 75.5592 76.9901 75.2736C76.716 74.988 76.5025 74.6498 76.3626 74.2795C76.2226 73.9092 76.1591 73.5145 76.1757 73.1189C76.3205 69.5466 76.2396 63.5389 74.5024 58.9021C72.3267 53.0732 66.255 49.6073 64.207 48.5812L64.4284 47.9766C66.4935 48.9857 72.8078 52.5282 75.0985 58.6679Z" fill="#3F2355"/>
<path d="M63.8008 47.207L66.7004 39.2363H67.0112C67.2028 39.2363 67.3944 39.2661 67.5775 39.2917L64.5714 47.5476C64.2138 47.3687 63.9881 47.2708 63.937 47.2495L63.8008 47.207Z" fill="#3F2355"/>
<path d="M75.0998 58.6683C72.8091 52.5285 66.4947 48.986 64.4297 47.9641L64.5063 47.7598L64.5617 47.7853H64.5957L64.8129 47.896C65.3962 48.1983 66.2052 48.6411 67.1249 49.2372C67.2952 49.3479 67.4698 49.4586 67.6443 49.5821C68.1382 49.9142 68.6534 50.2847 69.1814 50.7019L69.6072 51.0596C70.3033 51.6265 70.9645 52.235 71.5871 52.8819C71.702 53.0011 71.8127 53.1204 71.9234 53.2438C72.0341 53.3673 72.2683 53.6228 72.4301 53.8186C72.5366 53.9379 72.6345 54.0613 72.7324 54.1848L72.8559 54.3338C72.8716 54.3561 72.8887 54.3775 72.907 54.3977C73.205 54.7852 73.4946 55.1811 73.7585 55.5984C73.7969 55.6495 73.8309 55.7048 73.865 55.7602L73.9842 55.9475C74.1375 56.1945 74.2823 56.4457 74.41 56.7054C74.4909 56.8545 74.5675 57.0035 74.6442 57.1568C74.6708 57.2052 74.695 57.2549 74.7166 57.3058C74.7847 57.4392 74.8485 57.5811 74.9082 57.7316C74.9507 57.8125 74.9848 57.8976 75.0231 57.9828C75.1083 58.1829 75.1892 58.3873 75.2658 58.5916C76.9945 63.2071 77.1605 69.0488 76.9945 73.1406C76.9823 73.423 77.0277 73.7049 77.128 73.9691C77.2283 74.2334 77.3813 74.4745 77.5778 74.6777C77.7713 74.8798 78.004 75.0403 78.2618 75.1494C78.5195 75.2585 78.7967 75.3139 79.0766 75.3121H99.8547L102.673 68.6784H108.311V69.1042H108.149V68.8913H102.869L100.046 75.525H79.1106C78.8006 75.5259 78.4937 75.4638 78.2084 75.3426C77.9231 75.2214 77.6654 75.0436 77.4508 74.8199C77.2363 74.5961 77.0693 74.3312 76.9602 74.0411C76.851 73.751 76.8018 73.4417 76.8157 73.1321C76.9817 69.0616 76.8157 63.2497 75.0998 58.6683Z" fill="#3F2355"/>
<path d="M64.5134 63.3103C64.4623 63.1996 64.4069 63.0931 64.3516 62.9824C64.4069 63.0889 64.4623 63.1996 64.5134 63.3103Z" fill="#DEDFE0"/>
<path d="M74.5097 58.8896C76.2469 63.5264 76.3278 69.5342 76.183 73.1065C76.1663 73.502 76.2299 73.8968 76.3699 74.2671C76.5098 74.6374 76.7233 74.9755 76.9973 75.2612C77.2714 75.5468 77.6005 75.774 77.9647 75.9291C78.3289 76.0842 78.7208 76.1639 79.1166 76.1636H100.457L103.28 69.5299H106.09H106.03L106.077 69.7386C106.107 69.8791 106.137 70.0196 106.175 70.1643H103.701L100.878 76.798H79.1081C78.6262 76.7984 78.1492 76.7013 77.7057 76.5126C77.2623 76.3238 76.8617 76.0472 76.5279 75.6996C76.1942 75.3519 75.9343 74.9403 75.7638 74.4895C75.5933 74.0388 75.5157 73.5582 75.5358 73.0767C75.6678 69.8365 75.6295 63.7095 73.9008 59.1111C71.84 53.5759 66.0239 50.2122 63.9844 49.1733L64.2058 48.5645C66.2538 49.5948 72.3254 53.0607 74.5097 58.8896Z" fill="#3F2355"/>
<path d="M64.1523 71.4041C64.2716 71.204 64.378 70.9996 64.4802 70.791C64.3823 70.9996 64.2929 71.204 64.1523 71.4041Z" fill="#3F2355"/>
<path d="M75.325 73.0731C75.457 69.85 75.4187 63.7655 73.707 59.1884C71.6761 53.7554 65.9536 50.4216 63.9141 49.3954L63.9864 49.1953C66.0259 50.2342 71.8421 53.6149 73.9029 59.133C75.6316 63.7443 75.6699 69.8585 75.5379 73.0987C75.5178 73.5802 75.5953 74.0608 75.7658 74.5115C75.9363 74.9623 76.1963 75.3739 76.53 75.7216C76.8638 76.0692 77.2644 76.3458 77.7078 76.5346C78.1512 76.7233 78.6283 76.8204 79.1102 76.82H100.872L103.695 70.1863H106.169C106.182 70.2582 106.199 70.3293 106.22 70.3992H103.835L101.017 77.0329H79.1102C78.6005 77.0354 78.0955 76.934 77.6263 76.7349C77.157 76.5358 76.7333 76.2431 76.3809 75.8748C76.0243 75.5037 75.7468 75.064 75.5652 74.5824C75.3837 74.1008 75.302 73.5873 75.325 73.0731Z" fill="#3F2355"/>
<path d="M75.1103 73.0632C75.2423 69.857 75.2039 63.8024 73.5051 59.2636C71.5082 53.92 65.8708 50.6202 63.8398 49.5771L63.9122 49.377C65.9517 50.4201 71.6742 53.754 73.7052 59.1699C75.4083 63.7471 75.4552 69.8145 75.3232 73.0547C75.3025 73.566 75.3854 74.0763 75.5668 74.5548C75.7483 75.0333 76.0246 75.4702 76.3791 75.8393C76.7315 76.2076 77.1552 76.5003 77.6245 76.6994C78.0937 76.8985 78.5986 76.9999 79.1084 76.9974H101.015L103.833 70.3637H106.218C106.234 70.4357 106.254 70.5068 106.277 70.5766H103.974L101.155 77.2103H79.1084C78.5689 77.2113 78.0348 77.1031 77.5383 76.8921C77.0418 76.6811 76.5932 76.3716 76.2196 75.9825C75.8459 75.5933 75.555 75.1325 75.3643 74.6279C75.1737 74.1232 75.0873 73.5851 75.1103 73.0461V73.0632Z" fill="#3F2355"/>
<path d="M63.7528 47.3389L63.7911 47.2324L63.9274 47.292C63.9785 47.292 64.2041 47.4112 64.5618 47.5901L64.4937 47.7859C64.1275 47.6071 63.8976 47.5049 63.8465 47.4836L63.7188 47.4283L63.7528 47.3389Z" fill="#3F2355"/>
<path d="M63.8008 47.207H63.805L63.8008 47.2155V47.207Z" fill="#3F2355"/>
<path d="M63.7305 49.2846H63.7688L63.739 49.0547L63.9859 49.1824L63.9136 49.3825L63.7305 49.2846Z" fill="#3F2355"/>
<path d="M63.6641 48.4541V48.3008C63.779 48.3519 63.9706 48.4413 64.2176 48.569L63.9962 49.1779L63.7492 49.0502L63.6683 48.4626L63.6641 48.4541Z" fill="#3F2355"/>
<path d="M63.8419 49.5772L63.3438 49.3302H63.5566L63.7269 49.3047L63.91 49.3984L63.8419 49.5772Z" fill="#3F2355"/>
<path d="M63.6562 47.6027L63.6861 47.5132V47.4834L63.7073 47.4238L63.8351 47.4792C63.8862 47.5005 64.1161 47.6027 64.4823 47.7815L64.4056 47.9859C64.0352 47.7985 63.801 47.6963 63.7499 47.675L63.6562 47.6027Z" fill="#3F2355"/>
<path d="M63.6445 47.6399V47.6016L63.7595 47.6527C63.8105 47.6527 64.0447 47.7761 64.4152 47.9635L64.1938 48.5681C63.9468 48.4404 63.768 48.3509 63.6402 48.2998L63.5977 47.725L63.6232 47.6527L63.6445 47.6399Z" fill="#3F2355"/>
<path d="M63.4975 48.8418L63.6593 48.4629L63.7402 49.0505L63.5103 48.9398H63.4805C63.4853 48.9144 63.4853 48.8884 63.4805 48.8631L63.4975 48.8418Z" fill="#3F2355"/>
<path d="M63.4688 72.3822C63.5411 72.2928 63.6135 72.1991 63.6816 72.1055C63.6135 72.2077 63.5454 72.3013 63.4688 72.3822Z" fill="#3F2355"/>
<path d="M63.6603 61.8788C63.5837 61.7724 63.5028 61.6702 63.4219 61.5723C63.507 61.6745 63.5837 61.7766 63.6603 61.8788Z" fill="#DEDFE0"/>
<path d="M63.614 47.7268L63.6055 47.582L63.6608 47.6033L63.648 47.6416L63.6395 47.6544L63.614 47.7268Z" fill="#3F2355"/>
<path d="M63.5142 47.3771L63.4844 47.1685L63.6547 47.1387L63.7994 47.2068V47.2153L63.7611 47.3218L63.7569 47.3303L63.7526 47.3388L63.7313 47.4027H63.7271L63.7228 47.3984L63.6249 47.3601L63.5653 47.3729L63.5142 47.3771Z" fill="#3F2355"/>
<path d="M63.6381 48.2929L63.5742 47.833L63.6125 47.7266L63.6551 48.3014L63.6381 48.2929Z" fill="#3F2355"/>
<path d="M63.5117 47.3807L63.5628 47.3721L63.6224 47.3594L63.7204 47.3977L63.7246 47.402H63.7289L63.7076 47.4616L63.6948 47.4914L63.665 47.5808L63.6565 47.6021L63.6011 47.5808L63.6096 47.7255L63.5713 47.832L63.5117 47.3807Z" fill="#3F2355"/>
<path d="M63.5628 47.373L63.5117 47.3816V47.3773L63.5628 47.373Z" fill="#3F2355"/>
<path d="M63.5112 47.3809L63.5709 47.8322L63.4303 48.2154L63.375 47.4021L63.5112 47.3809Z" fill="#3F2355"/>
<path d="M63.3398 49.0961C63.374 49.0793 63.4042 49.0554 63.4284 49.0261C63.4527 48.9967 63.4704 48.9625 63.4804 48.9258H63.5102L63.7401 49.0365L63.7699 49.2664H63.7273L63.3398 49.0961Z" fill="#3F2355"/>
<path d="M63.6582 48.4634L63.4964 48.8424C63.4985 48.8283 63.4985 48.8139 63.4964 48.7998L63.4453 48.4251V48.3016V48.2676H63.5347L63.6497 48.3187L63.6582 48.4634Z" fill="#3F2355"/>
<path d="M63.4922 48.8496C63.497 48.8749 63.497 48.9009 63.4922 48.9263V48.8496Z" fill="#3F2355"/>
<path d="M63.2656 72.6333C63.3338 72.5567 63.4019 72.4758 63.4657 72.3906C63.4037 72.4753 63.3369 72.5563 63.2656 72.6333Z" fill="#3F2355"/>
<path d="M63.4418 48.4277L63.4375 48.432V48.4277H63.4418Z" fill="#3F2355"/>
<path d="M63.4414 48.225L63.5819 47.8418L63.6458 48.3016L63.5308 48.2505H63.4414V48.225Z" fill="#3F2355"/>
<path d="M63.4347 48.2246V48.2544H63.4219L63.4347 48.2246Z" fill="#3F2355"/>
<path d="M63.442 61.5717C63.3813 61.4913 63.3159 61.4145 63.2461 61.3418C63.2972 61.4184 63.3611 61.4951 63.442 61.5717Z" fill="#DEDFE0"/>
<path d="M63.4311 48.2582L63.4354 48.2922L63.4439 48.4157L63.4396 48.4285H63.4354L63.4141 48.2539H63.4183H63.4311V48.2582Z" fill="#3F2355"/>
<path d="M63.4146 48.2539L63.4359 48.4285L63.2741 48.8032L63.2188 48.3774V48.2752L63.4146 48.2539Z" fill="#3F2355"/>
<path d="M63.4813 48.9268C63.4713 48.9635 63.4536 48.9977 63.4294 49.0271C63.4051 49.0564 63.3749 49.0803 63.3408 49.0971L63.1875 49.0247L63.2343 48.914H63.2939V48.8161L63.4557 48.4414L63.5068 48.8161C63.5089 48.8302 63.5089 48.8446 63.5068 48.8587L63.477 48.9268H63.4813Z" fill="#3F2355"/>
<path d="M63.3429 49.332L63.8411 49.579L62.6872 52.7511C62.4232 52.6361 62.155 52.5339 61.8825 52.436C61.61 52.338 61.3503 52.2529 61.082 52.1805L62.1039 49.3789C62.5175 49.3862 62.9311 49.3706 63.3429 49.332Z" fill="#3F2355"/>
<path d="M63.7255 49.2848L63.5552 49.3103H63.3423L63.0996 49.1996L62.9336 49.1273L63.2316 49.106C63.2674 49.1032 63.3022 49.0931 63.3338 49.0762L63.7255 49.2848Z" fill="#3F2355"/>
<path d="M63.2745 48.8105V48.9085H63.2148L63.2745 48.8105Z" fill="#3F2355"/>
<path d="M63.2267 48.9131H62.9883L63.2182 48.3809L63.2736 48.8066L63.2267 48.9131Z" fill="#3F2355"/>
<path d="M63.0156 72.9139C63.0752 72.8543 63.1306 72.7904 63.1859 72.7266C63.1306 72.8075 63.0752 72.8543 63.0156 72.9139Z" fill="#3F2355"/>
<path d="M63.1787 60.6616L62.8764 60.9597C62.7232 60.8021 62.5614 60.6531 62.3953 60.5083C62.3359 60.4523 62.2733 60.3997 62.208 60.3508C62.1442 60.2933 62.0774 60.2393 62.0078 60.189C61.9142 60.1123 61.8205 60.0442 61.7226 59.9761C61.2929 59.6638 60.8337 59.3943 60.3516 59.1714L60.4963 58.7754C61.4984 59.2347 62.4076 59.874 63.1787 60.6616Z" fill="#3F2355"/>
<path d="M63.2194 48.2745L63.1641 47.457C63.2103 47.4749 63.2509 47.5049 63.2817 47.5438C63.3124 47.5828 63.332 47.6293 63.3386 47.6784L63.4153 48.2532L63.2194 48.2745Z" fill="#3F2355"/>
<path d="M63.4426 48.2159V48.2457L63.366 47.6709C63.3594 47.6218 63.3397 47.5753 63.309 47.5363C63.2783 47.4974 63.2377 47.4674 63.1914 47.4495V47.424V47.2196L63.383 47.1855H63.4937H63.5235L63.5533 47.3942H63.4171L63.4426 48.2159Z" fill="#3F2355"/>
<path d="M63.2032 48.2789C63.0244 48.2789 62.7775 48.3087 62.4922 48.313L62.7264 47.6701C62.8711 47.6701 63.0031 47.6701 63.1181 47.6445L63.2032 48.2789Z" fill="#3F2355"/>
<path d="M63.24 79.8515C65.6833 78.6055 67.7202 76.6881 69.1114 74.3245C70.5026 71.9609 71.1904 69.2493 71.0938 66.5083C70.9972 63.7674 70.1203 61.111 68.5662 58.8511C67.0121 56.5913 64.8452 54.822 62.3203 53.7511L62.5417 53.1465C65.0869 54.2195 67.2875 55.9727 68.9023 58.2137C70.517 60.4546 71.4836 63.0969 71.696 65.8509C71.9084 68.6049 71.3585 71.3642 70.1065 73.8263C68.8545 76.2884 66.9488 78.3582 64.5982 79.8089L63.24 79.8515Z" fill="#3F2355"/>
<path d="M62.9914 48.9316H63.2298L63.183 49.0423L63.3363 49.1147C63.3046 49.1316 63.2699 49.1418 63.2341 49.1445L62.9361 49.1658H62.9062L62.9914 48.9316Z" fill="#3F2355"/>
<path d="M63.4842 47.1677H63.4416H63.3309H63.2586L62.8711 47.206L65.792 39.1758C66.0772 39.1758 66.3753 39.1758 66.6904 39.2056L63.7908 47.1762L63.646 47.1081L63.4842 47.1677Z" fill="#3F2355"/>
<path d="M62.8047 47.4527L62.8856 47.2356L63.2731 47.1973H63.3454L63.1538 47.2313V47.4357V47.4613C63.1117 47.4524 63.0682 47.4524 63.0261 47.4613L62.8047 47.4527Z" fill="#3F2355"/>
<path d="M63.3445 49.3305C62.9327 49.369 62.519 49.3847 62.1055 49.3773L62.1821 49.1602C62.4716 49.1602 62.7271 49.1602 62.9357 49.1602L63.1018 49.2325L63.3445 49.3305Z" fill="#3F2355"/>
<path d="M62.7266 47.6867L62.8032 47.4695H63.0374C63.0795 47.4607 63.123 47.4607 63.1651 47.4695L63.2205 48.287L63.1353 47.6526C63.0161 47.6569 62.8713 47.6867 62.7266 47.6867Z" fill="#3F2355"/>
<path d="M63.9458 39.3071C64.5628 39.2288 65.1846 39.1946 65.8065 39.2049L62.8856 47.2351C61.9319 47.299 60.1862 47.2351 59.0195 46.4815C59.8782 45.8388 60.4755 44.9072 60.7014 43.8587C60.8835 42.7069 60.6576 41.5277 60.0627 40.5248C61.2765 39.8963 62.5905 39.4843 63.9458 39.3071Z" fill="white"/>
<path d="M62.8731 60.9596L62.5666 61.2577C61.8838 60.5618 61.082 59.9936 60.1992 59.5801L60.3482 59.1543C60.8304 59.3772 61.2896 59.6467 61.7193 59.959C61.8172 60.0272 61.9109 60.0953 62.0045 60.1719C62.0741 60.2222 62.1409 60.2762 62.2047 60.3337C62.27 60.3826 62.3326 60.4352 62.392 60.4913C62.558 60.6531 62.7198 60.8021 62.8731 60.9596Z" fill="#3F2355"/>
<path d="M71.1049 67.0143C71.1051 69.6711 70.3706 72.2763 68.9828 74.5418C67.5949 76.8073 65.6077 78.6449 63.2407 79.8516L61.5078 79.907C64.0847 78.9458 66.3144 77.2345 67.9094 74.994C69.5043 72.7534 70.3913 70.0863 70.456 67.3368C70.5206 64.5873 69.7598 61.8814 68.2719 59.5684C66.7839 57.2554 64.637 55.4413 62.1082 54.3601L62.3253 53.7598C64.9283 54.8632 67.1489 56.7085 68.7101 59.0656C70.2714 61.4226 71.1043 64.1871 71.1049 67.0143Z" fill="#3F2355"/>
<path d="M71.9588 67.0146C71.9532 64.0141 71.0643 61.0817 69.403 58.583C67.7418 56.0844 65.3818 54.13 62.6172 52.9638L62.6896 52.7637C65.2551 53.84 67.4827 55.5885 69.1377 57.8249C70.7926 60.0613 71.8136 62.7027 72.0931 65.4707C72.3725 68.2388 71.9 71.031 70.7253 73.553C69.5507 76.075 67.7175 78.2334 65.4188 79.8008H65.0186C67.1494 78.4168 68.9005 76.5222 70.1126 74.2891C71.3247 72.056 71.9593 69.5554 71.9588 67.0146Z" fill="#3F2355"/>
<path d="M71.7441 67.0147C71.7418 64.0551 70.868 61.1616 69.2317 58.6954C67.5954 56.2292 65.2691 54.2995 62.543 53.147L62.6154 52.9512C65.1707 54.0247 67.3851 55.7745 69.0204 58.0123C70.6557 60.2502 71.6501 62.8915 71.8966 65.6522C72.1431 68.4129 71.6324 71.1886 70.4195 73.6808C69.2066 76.173 67.3372 78.2874 65.0125 79.7967H64.5867C66.7701 78.4527 68.5738 76.5729 69.8265 74.3358C71.0792 72.0988 71.7392 69.5786 71.7441 67.0147Z" fill="#3F2355"/>
<path d="M62.4258 73.4861C62.5136 73.4126 62.5975 73.3344 62.677 73.252C62.5975 73.3344 62.5136 73.4126 62.4258 73.4861Z" fill="#3F2355"/>
<path d="M62.3944 60.5071C62.335 60.4511 62.2724 60.3985 62.207 60.3496C62.2724 60.3985 62.335 60.4511 62.3944 60.5071Z" fill="#3F2355"/>
<path d="M62.2578 48.9657L62.492 48.327C62.7815 48.327 63.0242 48.327 63.203 48.293V48.4122L62.9731 48.9444C62.79 48.9657 62.5431 48.9657 62.2578 48.9657Z" fill="#3F2355"/>
<path d="M62.2563 48.9648C62.5416 48.9648 62.7886 48.9648 62.9887 48.9648L62.9035 49.1692H62.9333C62.7247 49.1692 62.4692 49.1692 62.1797 49.1692L62.2563 48.9648Z" fill="#3F2355"/>
<path d="M62.0079 60.1895C61.9143 60.1128 61.8206 60.0447 61.7227 59.9766C61.8206 60.0362 61.9143 60.1128 62.0079 60.1895Z" fill="#3F2355"/>
<path d="M61.9605 54.7513L60.4958 58.7579C60.2364 58.6358 59.9706 58.5278 59.6996 58.4343C59.4314 58.3406 59.1631 58.2597 58.8906 58.1916L60.3553 54.168C60.6278 54.2404 60.9003 54.3298 61.1728 54.4234C61.4453 54.5171 61.7008 54.6363 61.9605 54.7513Z" fill="#3F2355"/>
<path d="M61.6875 74.0855L61.8748 73.9492L61.6875 74.0855Z" fill="#3F2355"/>
<path d="M61.5117 74.1915L61.6863 74.0723C61.6309 74.1148 61.5713 74.1532 61.5117 74.1915Z" fill="#3F2355"/>
<path d="M70.2535 67.0143C70.2518 64.3606 69.472 61.7657 68.0107 59.5506C66.5493 57.3355 64.4706 55.5975 62.0316 54.5517L62.104 54.3516C64.6329 55.4327 66.7798 57.2468 68.2678 59.5599C69.7557 61.8729 70.5164 64.5787 70.4518 67.3282C70.3872 70.0778 69.5002 72.7449 67.9053 74.9854C66.3103 77.226 64.0805 78.9373 61.5037 79.8984H60.7969C63.5334 79.0274 65.9231 77.3108 67.6224 74.9957C69.3217 72.6805 70.2428 69.8861 70.2535 67.0143Z" fill="#3F2355"/>
<path d="M61.0117 52.372L61.0841 52.1719C61.3524 52.2443 61.6206 52.3337 61.8846 52.4273C62.1486 52.521 62.4253 52.6275 62.6893 52.7424L62.6169 52.9425C62.3529 52.8276 62.0889 52.7254 61.8164 52.6275C61.5439 52.5295 61.2842 52.4571 61.0117 52.372Z" fill="#3F2355"/>
<path d="M60.8203 74.6102C61.0162 74.5037 61.2078 74.393 61.3909 74.2695C61.2072 74.3936 61.0167 74.5074 60.8203 74.6102Z" fill="#3F2355"/>
<path d="M61.0099 52.3711C61.2824 52.4477 61.5464 52.5329 61.8146 52.6266C62.0828 52.7202 62.3511 52.8267 62.6151 52.9416L62.5427 53.1375C62.2787 53.0268 62.0147 52.9246 61.7422 52.8267C61.4697 52.7287 61.21 52.6479 60.9375 52.5712L61.0099 52.3711Z" fill="#3F2355"/>
<path d="M60.9398 52.5801C61.2237 52.6567 61.4919 52.7419 61.7445 52.8355C62.017 52.9335 62.281 53.0357 62.545 53.1464L62.3236 53.751C62.0639 53.6403 61.7999 53.5338 61.5316 53.4402C61.2634 53.3465 60.9952 53.2571 60.7227 53.1804L60.9398 52.5801Z" fill="#3F2355"/>
<path d="M60.3555 54.1848L60.4279 53.9805C60.7004 54.0571 60.9771 54.1465 61.2453 54.2402C61.5136 54.3339 61.7776 54.4403 62.033 54.551L61.9607 54.7511C61.7009 54.6362 61.4412 54.534 61.173 54.4403C60.9047 54.3466 60.628 54.2572 60.3555 54.1848Z" fill="#3F2355"/>
<path d="M62.0312 54.5508C64.5747 55.6392 66.7242 57.48 68.1908 59.8259C69.6574 62.1717 70.371 64.9103 70.2357 67.6735C70.1003 70.4368 69.1225 73.0925 67.4336 75.2838C65.7447 77.475 63.4257 79.0969 60.788 79.9316L59.9023 79.9657C62.6159 79.2944 65.0502 77.7878 66.8615 75.6587C68.6728 73.5295 69.7698 70.8852 69.9975 68.0991C70.2252 65.313 69.5722 62.5258 68.1306 60.1307C66.689 57.7357 64.5317 55.8539 61.9631 54.7509L62.0312 54.5508Z" fill="#3F2355"/>
<path d="M61.3136 54.0398C61.0454 53.9461 60.7729 53.8567 60.4961 53.7843L60.7175 53.1797C60.99 53.2563 61.2625 53.3457 61.5265 53.4394C61.7905 53.5331 62.0587 53.6395 62.3184 53.7502L62.1013 54.3506C61.8501 54.2356 61.5861 54.1334 61.3136 54.0398Z" fill="#3F2355"/>
<path d="M60.4258 53.981L60.4982 53.7852C60.7749 53.8575 61.0474 53.947 61.3157 54.0406C61.5839 54.1343 61.8479 54.2365 62.1034 54.3514L62.031 54.5516C61.7755 54.4409 61.5115 54.3344 61.2433 54.2407C60.975 54.1471 60.6983 54.0747 60.4258 53.981Z" fill="#3F2355"/>
<path d="M65.8037 39.2069C65.1818 39.1966 64.56 39.2307 63.943 39.309C62.5877 39.4862 61.2737 39.8983 60.0599 40.5268C60.0272 40.4633 59.9902 40.4022 59.9492 40.3437C61.1879 39.7013 62.5295 39.2805 63.9132 39.1004C64.5653 39.0158 65.223 38.9816 65.8803 38.9982L65.8037 39.2069Z" fill="#3F2355"/>
<path d="M60.2029 59.5796L57.3118 67.5204C57.2305 67.7267 57.0721 67.8931 56.87 67.9843C56.668 68.0756 56.4384 68.0844 56.2299 68.009C56.0214 67.9336 55.8506 67.7799 55.7537 67.5806C55.6567 67.3812 55.6414 67.1519 55.7109 66.9414L58.5977 59.0176C58.8756 59.0827 59.1499 59.1623 59.4194 59.256C59.6866 59.3488 59.9481 59.4568 60.2029 59.5796Z" fill="#3F2355"/>
<path d="M60.1706 74.9375L59.9023 75.0482C59.9918 75.0056 60.0812 74.9716 60.1706 74.9375Z" fill="#3F2355"/>
<path d="M59.2383 40.8078C59.4651 40.638 59.7026 40.483 59.9493 40.3438C59.9903 40.4022 60.0273 40.4634 60.06 40.5268C59.8123 40.666 59.5747 40.8225 59.349 40.9952C59.3021 40.9143 59.2681 40.8504 59.2383 40.8078Z" fill="#3F2355"/>
<path d="M63.8862 38.8865C64.5723 38.7996 65.2641 38.7655 65.9555 38.7843L65.8788 38.9972C65.2215 38.9806 64.5638 39.0148 63.9117 39.0994C62.528 39.2795 61.1864 39.7003 59.9477 40.3427C59.9051 40.2746 59.8796 40.232 59.8711 40.2235L59.8242 40.1681C61.0919 39.5045 62.4672 39.0706 63.8862 38.8865Z" fill="#3F2355"/>
<path d="M59.3511 40.9941C59.8247 41.8139 60.0063 42.77 59.8663 43.7064C59.6603 44.6009 59.1272 45.3861 58.3718 45.9077C57.9258 45.3225 57.712 44.593 57.7715 43.8597C57.7899 43.2912 57.9426 42.7352 58.2172 42.2372C58.4917 41.7391 58.8803 41.3132 59.3511 40.9941Z" fill="white"/>
<path d="M59.8916 79.9648C58.1692 80.3854 56.3805 80.4607 54.6289 80.1862C56.2852 80.1054 58.0437 80.0457 59.8916 79.9648Z" fill="#DEDFE0"/>
<path d="M59.1289 40.6193C59.351 40.4551 59.5828 40.3044 59.8229 40.168L59.8698 40.2233C59.8698 40.2233 59.9038 40.2744 59.9464 40.3425C59.6996 40.4818 59.4621 40.6368 59.2354 40.8066C59.2136 40.7781 59.1937 40.7483 59.1757 40.7172C59.156 40.6867 59.1403 40.6538 59.1289 40.6193Z" fill="#3F2355"/>
<path d="M58.3711 45.9073C59.1265 45.3857 59.6595 44.6005 59.8656 43.706C60.0056 42.7697 59.8239 41.8135 59.3504 40.9937C59.5761 40.8211 59.8137 40.6645 60.0615 40.5254C60.6564 41.5283 60.8823 42.7075 60.7001 43.8593C60.4743 44.9078 59.877 45.8393 59.0183 46.4821C58.8878 46.398 58.7639 46.3041 58.6479 46.2011C58.5447 46.114 58.4519 46.0154 58.3711 45.9073Z" fill="#3F2355"/>
<path d="M59.332 75.2453L59.5918 75.1602L59.332 75.2453Z" fill="#3F2355"/>
<path d="M59.2809 40.1261C59.3619 40.0692 59.4603 40.0424 59.5589 40.0501C59.6576 40.0579 59.7505 40.0998 59.8217 40.1687C59.5815 40.3051 59.3498 40.4559 59.1276 40.62C59.0954 40.5323 59.093 40.4364 59.1207 40.3471C59.1484 40.2579 59.2047 40.1802 59.2809 40.1261Z" fill="#3F2355"/>
<path d="M59.2214 58.7581L59.0469 58.707L59.2214 58.7581Z" fill="#3F2355"/>
<path d="M58.9297 75.3637L59.2064 75.2871L58.9297 75.3637Z" fill="#3F2355"/>
<path d="M59.2233 58.7588L59.0487 58.7077L58.7422 58.6311L58.8912 58.2266C59.1637 58.2947 59.432 58.3756 59.7002 58.4693C59.9712 58.5628 60.237 58.6708 60.4964 58.7929L60.3516 59.1888C60.0905 59.0696 59.8265 58.9632 59.5597 58.8695L59.2233 58.7588Z" fill="#3F2355"/>
<path d="M59.0487 58.6899L58.7422 58.6133L59.0487 58.6899Z" fill="#3F2355"/>
<path d="M59.0183 46.4819C60.185 47.2312 61.9307 47.2994 62.8844 47.2355L62.8035 47.4527C61.7859 47.508 60.0189 47.4101 58.8438 46.6011L59.0141 46.4648L59.0183 46.4819Z" fill="#3F2355"/>
<path d="M62.7264 47.6884C61.6491 47.731 59.8566 47.6075 58.6602 46.7687L58.8432 46.6367C60.0184 47.4287 61.7854 47.5266 62.803 47.4883L62.7264 47.6884Z" fill="#3F2355"/>
<path d="M59.4155 59.256C59.1459 59.1623 58.8716 59.0827 58.5938 59.0176L58.7385 58.5918L59.0451 58.6684L59.2196 58.7195L59.556 58.8302C59.8228 58.9239 60.0868 59.0304 60.348 59.1496L60.1989 59.5754C59.9441 59.454 59.6825 59.3474 59.4155 59.256Z" fill="#3F2355"/>
<path d="M58.7578 58.6132C58.613 58.5749 58.464 58.5451 58.332 58.5195C58.447 58.5451 58.596 58.5749 58.7578 58.6132Z" fill="#3F2355"/>
<path d="M58.1755 46.9842C58.2567 46.9852 58.3364 46.9631 58.4054 46.9203C58.4906 46.865 58.5757 46.8096 58.6566 46.75C59.8531 47.6016 61.6371 47.7123 62.7229 47.6697L62.4887 48.3126C61.2411 48.3126 59.142 48.1508 57.8477 46.9118L57.886 46.8735C57.9651 46.9454 58.0685 46.985 58.1755 46.9842Z" fill="#3F2355"/>
<path d="M58.332 75.5049L58.6088 75.4453L58.332 75.5049Z" fill="#3F2355"/>
<path d="M58.5019 46.3595C58.3889 46.2609 58.2862 46.151 58.1953 46.0317L58.3699 45.9082C58.4493 46.0161 58.5407 46.1147 58.6424 46.202C58.7585 46.305 58.8823 46.399 59.0128 46.483L58.8425 46.6193C58.7219 46.5424 58.6079 46.4555 58.5019 46.3595Z" fill="#3F2355"/>
<path d="M57.9062 75.5674L58.2809 75.5078L57.9062 75.5674Z" fill="#3F2355"/>
<path d="M58.1937 46.0312C58.2846 46.1506 58.3873 46.2604 58.5003 46.3591C58.6064 46.4551 58.7203 46.5419 58.8409 46.6188L58.6579 46.7508C58.5531 46.6799 58.4535 46.6017 58.3598 46.5166C58.2357 46.4077 58.123 46.2864 58.0234 46.1547L58.1937 46.0312Z" fill="#3F2355"/>
<path d="M57.9041 46.8739C57.8765 46.8486 57.8522 46.82 57.8317 46.7887C57.8018 46.7415 57.7815 46.6888 57.7719 46.6337C57.7623 46.5786 57.7637 46.5221 57.776 46.4676C57.7882 46.413 57.8111 46.3614 57.8433 46.3157C57.8755 46.27 57.9164 46.231 57.9637 46.2011L58.0361 46.1543C58.1357 46.286 58.2484 46.4073 58.3724 46.5162C58.4661 46.6012 58.5657 46.6795 58.6705 46.7504C58.5896 46.81 58.5044 46.8653 58.4193 46.9207C58.3503 46.9635 58.2705 46.9856 58.1893 46.9846C58.0838 46.9843 57.9822 46.9448 57.9041 46.8739Z" fill="#3F2355"/>
<path d="M57.5566 43.8552C57.5763 43.2504 57.7389 42.6588 58.0313 42.1289C58.3236 41.599 58.7373 41.1459 59.2384 40.8066C59.2682 40.8492 59.3023 40.9131 59.3491 40.994C58.8783 41.313 58.4897 41.739 58.2151 42.237C57.9406 42.7351 57.7878 43.2911 57.7695 43.8595C57.7099 44.5929 57.9238 45.3223 58.3698 45.9075L58.1952 46.031C57.723 45.4085 57.4957 44.6342 57.5566 43.8552Z" fill="#3F2355"/>
<path d="M57.64 58.4204C57.5328 58.4042 57.4248 58.3942 57.3164 58.3906C57.4248 58.394 57.5328 58.404 57.64 58.4204Z" fill="#3F2355"/>
<path d="M57.5195 75.6132C57.6515 75.6132 57.7835 75.5877 57.9155 75.5664C57.7878 75.5877 57.6558 75.6005 57.5195 75.6132Z" fill="#3F2355"/>
<path d="M57.3453 43.8547C57.3643 43.213 57.536 42.585 57.8463 42.023C58.1566 41.4609 58.5964 40.981 59.1294 40.623C59.1421 40.6578 59.1592 40.6907 59.1805 40.721C59.1984 40.752 59.2183 40.7819 59.2401 40.8104C58.7389 41.1496 58.3253 41.6028 58.0329 42.1326C57.7406 42.6625 57.5779 43.2541 57.5582 43.859C57.4974 44.638 57.7247 45.4122 58.1969 46.0347L58.0223 46.1582C57.5246 45.498 57.284 44.6793 57.3453 43.8547Z" fill="#3F2355"/>
<path d="M56.7064 43.8557C56.7831 40.5559 60.1127 38.7889 63.7999 38.278C64.5932 38.1762 65.3935 38.1392 66.1928 38.1673L65.9587 38.806C65.2673 38.7871 64.5755 38.8213 63.8894 38.9081C62.4706 39.0909 61.0954 39.5234 59.8274 40.1855C59.7563 40.1166 59.6634 40.0747 59.5647 40.067C59.466 40.0592 59.3677 40.086 59.2867 40.1429C59.2104 40.197 59.1541 40.2747 59.1264 40.3639C59.0987 40.4532 59.1012 40.5491 59.1334 40.6368C58.6004 40.9948 58.1606 41.4747 57.8503 42.0368C57.54 42.5988 57.3683 43.2268 57.3494 43.8685C57.288 44.693 57.5286 45.5118 58.0263 46.172L57.954 46.2188C57.9067 46.2487 57.8658 46.2876 57.8336 46.3334C57.8014 46.3791 57.7785 46.4307 57.7663 46.4853C57.754 46.5398 57.7526 46.5963 57.7622 46.6514C57.7717 46.7065 57.7921 46.7591 57.822 46.8064C57.8425 46.8377 57.8668 46.8663 57.8944 46.8915L57.856 46.9299C57.453 46.5314 57.1414 46.0501 56.9429 45.5193C56.7444 44.9885 56.6637 44.4208 56.7064 43.8557Z" fill="#3F2355"/>
<path d="M57.1484 75.6406C57.0037 75.6406 56.8546 75.6406 56.7227 75.6406C56.8546 75.6534 57.0037 75.6491 57.1484 75.6406Z" fill="#3F2355"/>
<path d="M56.7188 58.3652C56.872 58.3652 57.0253 58.3652 57.1786 58.3652C57.0253 58.3695 56.872 58.3652 56.7188 58.3652Z" fill="#3F2355"/>
<path d="M63.7988 38.2551C60.1115 38.766 56.7819 40.533 56.7053 43.8328C56.6614 44.3983 56.7411 44.9666 56.9389 45.4982C57.1367 46.0297 57.4478 46.5119 57.8506 46.9112C59.128 48.1502 61.2569 48.3333 62.4916 48.312L62.2574 48.9507C60.9503 48.9507 58.8895 48.708 57.5057 47.469C57.0075 47.0077 56.6194 46.4402 56.3703 45.8085C56.1212 45.1769 56.0174 44.4973 56.0666 43.82C56.1432 40.5926 59.0002 38.2849 63.7094 37.6207C64.6086 37.506 65.5161 37.4704 66.4216 37.5142L66.1917 38.1444C65.3924 38.1163 64.5921 38.1533 63.7988 38.2551Z" fill="#3F2355"/>
<path d="M66.4217 37.5156C65.5162 37.4718 64.6087 37.5074 63.7095 37.6221C59.0003 38.2778 56.1433 40.6025 56.0667 43.8214C56.0175 44.4986 56.1213 45.1783 56.3704 45.8099C56.6195 46.4416 57.0076 47.0091 57.5058 47.4704C58.8896 48.7094 60.9504 48.9436 62.2575 48.9521L62.1809 49.1607C60.8397 49.1607 58.7747 48.8925 57.3653 47.6279C56.8395 47.1455 56.4302 46.5498 56.1683 45.8859C55.9065 45.2221 55.7989 44.5074 55.8538 43.7959C55.9347 40.4535 58.8598 38.0606 63.6797 37.4092C64.6138 37.2859 65.5575 37.2503 66.4983 37.3027L66.4217 37.5156Z" fill="#3F2355"/>
<path d="M63.6504 37.2011C64.6189 37.0793 65.5965 37.0451 66.5712 37.0989L66.4988 37.3075C65.558 37.2551 64.6143 37.2907 63.6802 37.4139C58.8603 38.0824 55.9352 40.4753 55.8543 43.8007C55.7994 44.5122 55.907 45.2269 56.1688 45.8907C56.4307 46.5546 56.84 47.1502 57.3658 47.6327C58.7794 48.91 60.8402 49.1527 62.1814 49.1655L62.1048 49.3827C60.7252 49.3827 58.6687 49.0846 57.2253 47.7945C56.6786 47.293 56.2521 46.6745 55.9779 45.9852C55.7036 45.2958 55.5886 44.5535 55.6414 43.8134C55.7223 40.3561 58.7198 37.8951 63.6504 37.2011Z" fill="#3F2355"/>
<path d="M56.707 80.5618C55.7042 80.5629 54.7045 80.4515 53.7266 80.2297L54.6207 80.1871C56.3723 80.4615 58.161 80.3863 59.8834 79.9657L60.769 79.9316C59.4552 80.3483 58.0853 80.5608 56.707 80.5618Z" fill="#3F2355"/>
<path d="M56.7032 80.7747C55.4553 80.7765 54.213 80.606 53.0117 80.268L53.727 80.2297C56.0622 80.7576 58.4957 80.6548 60.778 79.9316H61.4848C59.9541 80.496 58.3346 80.7816 56.7032 80.7747Z" fill="#3F2355"/>
<path d="M56.7032 81.4138C54.8542 81.4169 53.0221 81.0612 51.3086 80.3664L53.0117 80.2685C55.8055 81.0502 58.7752 80.9249 61.4933 79.9108L63.2262 79.8555C61.2058 80.8838 58.9702 81.4179 56.7032 81.4138Z" fill="#3F2355"/>
<path d="M51.3121 80.3664C53.221 81.136 55.2725 81.4882 57.3288 81.3993C59.3851 81.3104 61.3985 80.7826 63.2339 79.8512L64.5922 79.8086C62.4091 81.1586 59.9164 81.9262 57.352 82.038C54.7877 82.1498 52.2376 81.6021 49.9453 80.4473L51.3121 80.3664Z" fill="#3F2355"/>
<path d="M56.7036 82.0525C59.4928 82.0562 62.2273 81.2789 64.5975 79.8086H65.0233C62.7418 81.296 60.103 82.1438 57.3821 82.2637C54.6613 82.3835 51.9581 81.7709 49.5547 80.4898L49.9805 80.46C52.0662 81.509 54.3689 82.0544 56.7036 82.0525Z" fill="#3F2355"/>
<path d="M65.0131 79.7949H65.4133C63.038 81.4176 60.2566 82.3443 57.3828 82.4707C54.509 82.5971 51.657 81.9181 49.1484 80.5102L49.5402 80.4847C51.9436 81.7658 54.6467 82.3783 57.3676 82.2585C60.0885 82.1387 62.7273 81.2908 65.0088 79.8034L65.0131 79.7949Z" fill="#3F2355"/>
<path d="M49.1468 80.5032C51.6553 81.9111 54.5073 82.5901 57.3811 82.4637C60.255 82.3374 63.0363 81.4106 65.4116 79.7879C72.2241 79.6006 79.8882 79.4941 88.0589 79.4941C97.1962 79.4941 105.759 79.6261 113.12 79.8603C115.454 81.357 118.139 82.2164 120.908 82.3531C123.678 82.4898 126.434 81.899 128.904 80.6395C134.588 81.0653 137.926 81.6103 137.926 82.1851C137.926 83.6711 115.598 84.876 88.0546 84.876C60.5109 84.876 38.1914 83.6711 38.1914 82.1766C38.1914 81.5507 42.2917 80.9673 49.1468 80.5032Z" fill="#DEDFE0"/>
<path d="M47.641 67.0129C47.639 65.6357 47.9511 64.2761 48.5534 63.0376C49.1557 61.7991 50.0324 60.7141 51.1169 59.8652C52.2014 59.0164 53.4651 58.4259 54.8121 58.1387C56.159 57.8515 57.5537 57.8751 58.8901 58.2077L58.7411 58.6122C58.5963 58.5739 58.4473 58.5441 58.3153 58.5186C58.0989 58.4731 57.8799 58.4404 57.6596 58.4206C57.5525 58.4042 57.4444 58.3942 57.336 58.3908C57.2893 58.3866 57.2423 58.3866 57.1955 58.3908C57.0422 58.3908 56.889 58.3908 56.7357 58.3908C54.4433 58.3908 52.2448 59.3015 50.6239 60.9224C49.0029 62.5433 48.0923 64.7418 48.0923 67.0342C48.0923 69.3265 49.0029 71.525 50.6239 73.146C52.2448 74.7669 54.4433 75.6775 56.7357 75.6775C56.8847 75.6775 57.0337 75.6775 57.1615 75.6775L57.5319 75.652C57.6681 75.652 57.8001 75.6264 57.9279 75.6052L58.3025 75.5455H58.3324L58.6091 75.4859C58.7241 75.4646 58.8348 75.4348 58.9455 75.405L59.2222 75.3284L59.35 75.2858L59.6097 75.2007L59.9205 75.0814L60.1888 74.9707C60.4116 74.8764 60.6291 74.7697 60.8402 74.6514C61.0366 74.5486 61.2271 74.4349 61.4108 74.3108C61.452 74.2877 61.4919 74.2621 61.53 74.2341C61.5896 74.1958 61.6492 74.1575 61.7045 74.1149L61.8919 73.9787C62.0849 73.8389 62.2697 73.6882 62.4454 73.5273C62.5333 73.4538 62.6171 73.3756 62.6966 73.2932C62.815 73.1875 62.9273 73.0752 63.033 72.9568C63.0926 72.8972 63.1479 72.8333 63.2033 72.7694C63.2325 72.7402 63.2595 72.7089 63.2842 72.6758C63.3555 72.5988 63.4223 72.5177 63.4843 72.4331C63.561 72.3437 63.6291 72.25 63.6972 72.1563C63.8684 71.9287 64.0262 71.6912 64.1698 71.4453C64.289 71.2452 64.3997 71.0408 64.4977 70.8321C64.6151 70.597 64.7188 70.3554 64.8085 70.1083C64.8511 70.0019 64.8894 69.8954 64.9277 69.7847C64.9277 69.7634 64.9277 69.7464 64.9277 69.7209C64.9618 69.6272 64.9916 69.5335 65.0171 69.4356C65.0852 69.1971 65.1449 68.9544 65.1917 68.7075L65.23 68.4903C65.2472 68.4045 65.26 68.3178 65.2683 68.2306C65.2703 68.2237 65.2703 68.2163 65.2683 68.2093L65.6941 68.2689C65.3875 70.5493 64.2256 72.6278 62.4438 74.0835C60.662 75.5393 58.3935 76.2633 56.0978 76.109C53.8021 75.9548 51.6509 74.9337 50.0799 73.2527C48.5088 71.5716 47.6355 69.3563 47.6367 67.0555L47.641 67.0129Z" fill="#3F2355"/>
<path d="M48.0664 67.0141C48.0658 65.879 48.2889 64.7549 48.7227 63.7061C49.1566 62.6572 49.7928 61.7041 50.595 60.901C51.3972 60.098 52.3497 59.4609 53.3982 59.026C54.4466 58.5911 55.5704 58.367 56.7055 58.3665C56.8588 58.3665 57.0121 58.3665 57.1654 58.3665C57.2121 58.3622 57.2591 58.3622 57.3059 58.3665C57.4142 58.3701 57.5223 58.38 57.6295 58.3963C57.8498 58.4161 58.0687 58.4488 58.2852 58.4942C58.4342 58.5197 58.5832 58.5495 58.7109 58.5879L58.5662 59.0136C57.9472 58.864 57.3126 58.7882 56.6757 58.788C55.0997 58.7945 53.5588 59.2541 52.2367 60.112C50.9146 60.9699 49.8671 62.1898 49.2191 63.6265C48.571 65.0631 48.3498 66.6558 48.5817 68.2146C48.8136 69.7735 49.4888 71.2328 50.527 72.4186C51.5652 73.6044 52.9224 74.4666 54.437 74.9025C55.9515 75.3384 57.5595 75.3296 59.0691 74.8771C60.5788 74.4246 61.9265 73.5475 62.9516 72.3504C63.9767 71.1533 64.6359 69.6867 64.8507 68.1254L65.2765 68.1807C65.2785 68.1877 65.2785 68.195 65.2765 68.202C65.2765 68.2914 65.2509 68.3766 65.2382 68.4617L65.1999 68.6789C65.153 68.9258 65.0934 69.1685 65.0253 69.407C64.9997 69.5049 64.9699 69.5986 64.9359 69.6922C64.9359 69.7178 64.9359 69.7348 64.9359 69.7561C64.8975 69.8668 64.8592 69.9732 64.8167 70.0797C64.727 70.3267 64.6232 70.5684 64.5058 70.8035C64.4036 71.0122 64.2972 71.2293 64.178 71.4166C64.0343 71.6626 63.8765 71.9 63.7054 72.1277C63.6372 72.2214 63.5649 72.315 63.4925 72.4045C63.4201 72.4939 63.3605 72.5705 63.2924 72.6472C63.2677 72.6803 63.2407 72.7116 63.2115 72.7408C63.1561 72.8047 63.1008 72.8686 63.0411 72.9282C62.9355 73.0466 62.8232 73.1589 62.7048 73.2645C62.6253 73.347 62.5414 73.4252 62.4536 73.4987C62.2778 73.6596 62.093 73.8103 61.9001 73.95L61.7127 74.0863L61.5381 74.2055C61.5 74.2335 61.4602 74.2591 61.4189 74.2822C61.2358 74.4056 61.0442 74.5163 60.8484 74.6228C60.6373 74.7411 60.4198 74.8477 60.1969 74.9421C60.1075 74.9847 60.0181 75.0188 59.9287 75.0528L59.6179 75.172L59.3581 75.2572L59.2304 75.2998L58.9536 75.3764C58.8429 75.4062 58.7322 75.436 58.6173 75.4573L58.3405 75.5169H58.315L57.9403 75.5765C57.8083 75.5978 57.6763 75.6106 57.5443 75.6234L57.1739 75.6489C57.0291 75.6489 56.8801 75.6489 56.7481 75.6489C55.6102 75.6551 54.4823 75.4363 53.4293 75.0051C52.3763 74.5739 51.4188 73.9389 50.612 73.1364C49.8052 72.334 49.165 71.38 48.7281 70.3293C48.2913 69.2786 48.0664 68.152 48.0664 67.0141Z" fill="#3F2355"/>
<path d="M43.1563 67.0138C43.1562 64.9166 43.6429 62.8481 44.5779 60.9709C45.513 59.0937 46.8709 57.4592 48.5449 56.1958C50.2189 54.9325 52.1632 54.0749 54.2248 53.6905C56.2865 53.3061 58.4092 53.4055 60.4259 53.9806L60.3536 54.185C59.1671 53.8449 57.9388 53.673 56.7046 53.6741C53.3506 53.6792 50.1216 54.9476 47.6609 57.2265C45.2001 59.5055 43.688 62.6278 43.426 65.9716C43.164 69.3153 44.1711 72.6351 46.2468 75.2696C48.3226 77.904 51.3146 79.6599 54.6268 80.1875L53.7327 80.2301C50.7326 79.5524 48.0519 77.8753 46.1302 75.474C44.2085 73.0726 43.1598 70.0894 43.1563 67.0138Z" fill="#3F2355"/>
<path d="M43.1575 67.013C43.1647 70.0851 44.2145 73.0639 46.135 75.4617C48.0556 77.8595 50.7332 79.5344 53.7296 80.2122L53.0143 80.2505C49.8072 79.3593 47.0319 77.3359 45.2024 74.5551C43.3729 71.7744 42.6134 68.4247 43.0645 65.1268C43.5156 61.8289 45.1467 58.8063 47.6557 56.6189C50.1647 54.4316 53.3815 53.2277 56.7101 53.2305C57.9936 53.2293 59.2709 53.4099 60.5038 53.767L60.4314 53.9628C58.4147 53.3876 56.2919 53.2883 54.2303 53.6727C52.1687 54.0571 50.2243 54.9147 48.5504 56.178C46.8764 57.4413 45.5185 59.0759 44.5834 60.9531C43.6483 62.8302 43.1617 64.8988 43.1617 66.996L43.1575 67.013Z" fill="#3F2355"/>
<path d="M56.7071 53.2488C53.3785 53.2461 50.1617 54.4499 47.6527 56.6373C45.1437 58.8247 43.5126 61.8473 43.0615 65.1452C42.6104 68.4431 43.3699 71.7927 45.1994 74.5735C47.0289 77.3543 49.8042 79.3777 53.0113 80.2689L51.3082 80.3669C47.8902 78.9786 45.1351 76.3319 43.6109 72.9722C42.0868 69.6126 41.9099 65.7962 43.1165 62.31C44.3232 58.8237 46.8215 55.9334 50.0964 54.2348C53.3713 52.5362 57.1731 52.1589 60.718 53.1807L60.4965 53.7853C59.265 53.4287 57.9892 53.248 56.7071 53.2488Z" fill="#3F2355"/>
<path d="M42.3039 67.0137C42.3042 69.8831 43.1616 72.6871 44.766 75.0661C46.3705 77.4451 48.6489 79.2907 51.3092 80.3662L49.951 80.4471C46.5975 78.761 43.9959 75.8818 42.6571 72.3752C41.3183 68.8686 41.3392 64.9881 42.7157 61.4962C44.0922 58.0042 46.7248 55.1532 50.0962 53.5034C53.4676 51.8535 57.3342 51.524 60.9361 52.5797L60.719 53.18C58.5731 52.557 56.3118 52.4419 54.1138 52.8438C51.9158 53.2457 49.8415 54.1536 48.0549 55.4957C46.2684 56.8377 44.8188 58.5771 43.8206 60.5762C42.8224 62.5753 42.3032 64.7792 42.3039 67.0137Z" fill="#3F2355"/>
<path d="M49.541 80.4726C46.1977 78.7025 43.6315 75.7531 42.3409 72.1971C41.0502 68.6411 41.1272 64.7324 42.5568 61.23C43.9864 57.7276 46.6667 54.8814 50.0771 53.2443C53.4874 51.6072 57.3845 51.296 61.0115 52.371L60.9391 52.5711C57.3372 51.5155 53.4707 51.845 50.0992 53.4948C46.7278 55.1447 44.0953 57.9957 42.7188 61.4876C41.3422 64.9796 41.3213 68.86 42.6601 72.3666C43.9989 75.8732 46.6005 78.7524 49.954 80.4385L49.5282 80.4683L49.541 80.4726Z" fill="#3F2355"/>
<path d="M41.4532 67.0132C41.4563 69.7795 42.2106 72.493 43.6353 74.8641C45.0601 77.2352 47.102 79.175 49.543 80.4764L49.1513 80.502C46.1678 78.8292 43.8231 76.2144 42.4842 73.067C41.1452 69.9195 40.8875 66.417 41.7514 63.1074C42.6153 59.7979 44.552 56.8682 47.2585 54.7767C49.965 52.6852 53.2885 51.5501 56.7089 51.5489C58.191 51.5462 59.6656 51.7599 61.0859 52.1833L61.0135 52.3834C58.7389 51.7133 56.3394 51.5829 54.0056 52.0027C51.6718 52.4224 49.468 53.3807 47.5695 54.8014C45.6709 56.2221 44.1299 58.0661 43.0689 60.1867C42.0079 62.3073 41.4561 64.6462 41.4574 67.0175L41.4532 67.0132Z" fill="#3F2355"/>
</svg>
