<svg width="178" height="109" viewBox="0 0 178 109" fill="none" xmlns="http://www.w3.org/2000/svg">
<path d="M89.0015 85.215C111.195 85.215 129.187 84.0655 129.187 82.6475C129.187 81.2296 111.195 80.0801 89.0015 80.0801C66.8079 80.0801 48.8164 81.2296 48.8164 82.6475C48.8164 84.0655 66.8079 85.215 89.0015 85.215Z" fill="#DEDFE0"/>
<path d="M117.2 75.8661C119.815 75.8661 121.935 73.7615 121.935 71.1655C121.935 68.5694 119.815 66.4648 117.2 66.4648C114.585 66.4648 112.465 68.5694 112.465 71.1655C112.465 73.7615 114.585 75.8661 117.2 75.8661Z" fill="white"/>
<path d="M58.2352 75.8661C60.8504 75.8661 62.9704 73.7615 62.9704 71.1655C62.9704 68.5694 60.8504 66.4648 58.2352 66.4648C55.62 66.4648 53.5 68.5694 53.5 71.1655C53.5 73.7615 55.62 75.8661 58.2352 75.8661Z" fill="white"/>
<path d="M52.6526 44.5449L50.611 51.566C50.5165 51.895 50.34 52.195 50.0979 52.4383C49.8558 52.6817 49.5557 52.8605 49.2256 52.9583L42.6203 54.951H42.5859L43.1092 50.855C43.2799 49.5116 43.8763 48.2568 44.8122 47.2719C45.7482 46.2869 46.9752 45.6227 48.3163 45.3752L52.6526 44.5449Z" fill="white"/>
<path d="M77.4719 64.459V64.5867C74.7569 64.6676 70.026 64.8677 67.3195 65.0125C66.2113 63.3308 64.6514 61.9903 62.8161 61.1422C60.9809 60.2942 58.9433 59.9725 56.9335 60.2134C54.9238 60.4543 53.0219 61.2483 51.4427 62.5056C49.8636 63.7629 48.67 65.4336 47.9969 67.3288L47.8253 67.2692C47.3964 67.3288 45.7536 67.1925 45.3462 67.2692C45.1327 67.3034 44.9139 67.2631 44.727 67.1552C44.5401 67.0473 44.3966 66.8784 44.321 66.6773L41.9062 60.2523L42.5882 54.9257H42.6225C43.1372 47.6875 46.8903 44.7836 52.6549 44.5196L62.8288 42.5866C63.0322 42.5501 63.2211 42.4571 63.3735 42.3184C70.6951 48.1941 75.1815 55.6666 77.4719 64.459Z" fill="white"/>
<path d="M67.3391 65.0116C68.2633 66.4162 68.8444 68.0156 69.0362 69.6824C69.2279 71.3493 69.0249 73.0376 68.4434 74.6128C67.8619 76.1881 66.918 77.6068 65.6867 78.756C64.4555 79.9052 62.9709 80.7532 61.3513 81.2325C59.7317 81.7117 58.0217 81.8089 56.3576 81.5164C54.6934 81.2239 53.1211 80.5497 51.7657 79.5475C50.4103 78.5454 49.3094 77.2429 48.5505 75.7439C47.7916 74.2448 47.3958 72.5906 47.3945 70.9129C47.3931 69.6913 47.6035 68.4786 48.0165 67.3279C48.6896 65.4326 49.8832 63.762 51.4623 62.5047C53.0415 61.2474 54.9434 60.4534 56.9531 60.2125C58.9629 59.9716 61.0005 60.2933 62.8357 61.1413C64.671 61.9894 66.2309 63.3299 67.3391 65.0116ZM58.452 75.869C59.7084 75.869 60.9134 75.3736 61.8018 74.4916C62.6902 73.6097 63.1893 72.4135 63.1893 71.1663C63.1893 69.919 62.6902 68.7229 61.8018 67.8409C60.9134 66.959 59.7084 66.4635 58.452 66.4635H58.2547C56.9983 66.4635 55.7933 66.959 54.9049 67.8409C54.0164 68.7229 53.5173 69.919 53.5173 71.1663C53.5173 72.4135 54.0164 73.6097 54.9049 74.4916C55.7933 75.3736 56.9983 75.869 58.2547 75.869H58.452Z" fill="#DEDFE0"/>
<path d="M117.197 60.1367C119.955 60.136 122.61 61.1774 124.622 63.0494C126.635 64.9213 127.854 67.4835 128.033 70.2156C128.211 72.9477 127.336 75.6448 125.584 77.7592C123.831 79.8736 121.334 81.2468 118.599 81.5998C115.864 81.9528 113.097 81.2593 110.858 79.66C108.62 78.0607 107.078 75.6756 106.547 72.989C106.016 70.3025 106.535 67.5159 107.998 65.1953C109.461 62.8746 111.76 61.1939 114.426 60.4944C115.33 60.2557 116.262 60.1355 117.197 60.1367ZM121.936 71.1645C121.932 70.24 121.652 69.3374 121.132 68.5704C120.612 67.8035 119.875 67.2065 119.014 66.8547C118.153 66.5028 117.206 66.4118 116.293 66.5932C115.379 66.7746 114.541 67.2203 113.882 67.874C113.224 68.5277 112.775 69.3603 112.592 70.2668C112.409 71.1734 112.501 72.1133 112.855 72.9683C113.21 73.8232 113.811 74.5549 114.584 75.0711C115.356 75.5874 116.266 75.8651 117.197 75.8693C117.82 75.8722 118.438 75.7524 119.014 75.5169C119.59 75.2815 120.114 74.9351 120.555 74.4976C120.995 74.0601 121.344 73.5404 121.581 72.9683C121.819 72.3962 121.939 71.7831 121.936 71.1645Z" fill="#DEDFE0"/>
<path d="M135.652 52.1366C135.693 52.2488 135.707 52.3693 135.691 52.4878C135.676 52.6063 135.631 52.7193 135.562 52.8172C135.493 52.9151 135.401 52.995 135.294 53.0499C135.187 53.1049 135.069 53.1333 134.948 53.1329H118.954L115.806 57.974L114.36 60.2903L114.416 60.4946C111.774 61.1889 109.492 62.8459 108.025 65.1357C105.568 64.8972 101.034 64.7865 98.1602 64.663V64.4289C99.5241 60.4505 101.199 56.584 103.17 52.8646C104.328 50.6904 105.617 48.5874 107.03 46.5673C113.202 43.7231 120.876 41.6879 129.136 40.666C129.321 40.7311 129.485 40.8426 129.613 40.9896C132.105 43.8551 134.013 47.6871 135.652 52.1366Z" fill="white"/>
<path d="M128.838 40.6077C128.94 40.611 129.04 40.6312 129.134 40.6673C120.873 41.6891 113.2 43.7244 107.028 46.5686C105.615 48.5887 104.326 50.6916 103.168 52.8659L103.069 52.8148C103.069 52.8148 93.1482 53.032 90.6305 52.2954C86.1354 50.5411 82.7813 39.573 76.3047 36.418C83.7078 37.3419 87.0705 43.8053 92.2475 44.4354C102.083 44.8995 106.753 39.5304 128.838 40.6077Z" fill="#DEDFE0"/>
<path d="M77.4992 64.5874H77.4735V64.4597C75.1831 55.6673 70.6966 48.1949 63.375 42.3446C63.439 42.284 63.4965 42.2169 63.5466 42.1445C65.1847 39.7292 67.5691 37.9077 70.3406 36.9542C71.5264 36.5632 72.7632 36.3452 74.0121 36.3071C74.7801 36.2811 75.5489 36.3167 76.3111 36.4135C82.7963 39.5685 86.1418 50.5367 90.6626 52.2909C93.1718 53.0275 103.101 52.8103 103.101 52.8103L103.2 52.8614C101.229 56.5808 99.5541 60.4473 98.1901 64.4256V64.6598H98.1215C97.5896 66.2352 97.1264 67.7808 96.7532 69.254H78.49C78.2241 67.6502 77.8938 66.0947 77.4992 64.5874Z" fill="white"/>
<path d="M47.663 68.4232C47.4271 68.4232 47.1268 68.4232 46.758 68.4232C46.3891 68.4232 45.8272 68.3891 45.6814 68.4232C45.265 68.4864 44.8394 68.4059 44.4756 68.1951C44.1119 67.9843 43.8319 67.6561 43.6826 67.2651L41.2593 60.8145C41.2073 60.6789 41.191 60.5323 41.2121 60.3887L42.4173 50.9832C42.6101 49.4523 43.289 48.022 44.3555 46.8997C45.4221 45.7775 46.8209 45.0214 48.3492 44.7412L62.8595 41.9864C62.9131 41.9759 62.9607 41.9455 62.9924 41.9013C63.9317 40.492 67.5132 35.885 74.1742 35.6678C79.7888 35.4762 83.3445 38.1757 86.4798 40.5473C88.5901 42.144 90.413 43.5278 92.519 43.7875C96.3106 43.9663 99.2658 43.2553 103.002 42.3611C108.659 41.0029 115.698 39.3125 129.075 39.964C129.345 39.9796 129.608 40.0491 129.85 40.1684C130.092 40.2876 130.307 40.4542 130.482 40.658C132.833 43.3617 134.862 47.1001 136.693 52.0775C136.784 52.3241 136.814 52.5889 136.78 52.8494C136.746 53.11 136.649 53.3585 136.497 53.5738C136.346 53.7891 136.144 53.9649 135.909 54.0861C135.674 54.2074 135.414 54.2706 135.149 54.2702H119.639L117.293 57.8894C117.151 58.0519 116.955 58.1579 116.741 58.1879C116.526 58.2179 116.308 58.1697 116.126 58.0524C115.945 57.935 115.812 57.7564 115.753 57.5496C115.694 57.3427 115.712 57.1216 115.805 56.9271L118.417 52.8992C118.496 52.7709 118.607 52.6645 118.739 52.5901C118.871 52.5156 119.02 52.4755 119.172 52.4734H134.956C133.219 47.7898 131.319 44.307 129.144 41.8034C129.129 41.782 129.109 41.7642 129.086 41.751C129.063 41.7378 129.037 41.7295 129.011 41.7267C115.886 41.088 108.989 42.7443 103.448 44.0728C99.7119 44.9712 96.4864 45.7461 92.4203 45.5502H92.356C89.7525 45.2352 87.6379 43.6385 85.4118 41.9524C82.3751 39.6489 79.2226 37.2688 74.26 37.4348C68.4568 37.6222 65.3343 41.6458 64.5151 42.8721C64.3692 43.0926 64.1801 43.2816 63.959 43.4279C63.738 43.5742 63.4894 43.6748 63.2283 43.7236L48.7138 46.4784C47.5583 46.69 46.5006 47.2612 45.6939 48.1094C44.8873 48.9576 44.3737 50.0387 44.2274 51.1961L43.0478 60.3845L45.3897 66.5881C45.3935 66.597 45.4002 66.6045 45.4088 66.6091C45.4174 66.6137 45.4273 66.6153 45.4369 66.6136C45.908 66.5772 46.3812 66.5772 46.8523 66.6136C47.2212 66.6136 47.7831 66.6477 47.9289 66.6136C48.1642 66.5833 48.402 66.6463 48.5907 66.789C48.7794 66.9317 48.9038 67.1426 48.9369 67.3758C48.9713 67.6067 48.912 67.8417 48.7721 68.0293C48.6322 68.2168 48.4231 68.3417 48.1905 68.3764C48.0163 68.4063 47.8398 68.422 47.663 68.4232Z" fill="#3F2355"/>
<path d="M47.6656 68.6353C47.4254 68.6353 47.1252 68.6353 46.752 68.6353C46.3789 68.6353 45.8384 68.6012 45.714 68.6353C45.2487 68.7052 44.7732 68.6143 44.3673 68.378C43.9613 68.1416 43.6494 67.774 43.4837 67.3367L41.0603 60.8861C40.9997 60.717 40.9791 60.5363 41.0003 60.3581L42.2098 50.9526C42.4081 49.3771 43.1065 47.9051 44.2038 46.7499C45.3012 45.5948 46.7405 44.8164 48.3133 44.5275L62.8192 41.7727C63.7714 40.3506 67.4043 35.6713 74.1683 35.4499C79.8514 35.2498 83.4329 37.9663 86.6069 40.3591C88.7128 41.9516 90.5143 43.3141 92.5602 43.5738C96.3089 43.7484 99.2427 43.0416 102.966 42.1474C108.64 40.7849 115.696 39.0946 129.104 39.746C129.402 39.7638 129.693 39.8408 129.961 39.9725C130.228 40.1041 130.466 40.2877 130.661 40.5124C133.028 43.2374 135.07 46.9971 136.91 52.0085C137.016 52.289 137.052 52.5909 137.014 52.888C136.976 53.1852 136.865 53.4686 136.692 53.7139C136.519 53.9592 136.288 54.1589 136.02 54.2958C135.751 54.4326 135.453 54.5025 135.152 54.4993H119.758L117.476 58.0206C117.398 58.1432 117.296 58.249 117.176 58.3317C117.056 58.4143 116.92 58.4721 116.777 58.5017C116.562 58.548 116.338 58.5302 116.134 58.4503C115.93 58.3705 115.754 58.2323 115.628 58.0533C115.503 57.8742 115.434 57.6622 115.43 57.4442C115.426 57.2262 115.487 57.0119 115.606 56.8284L118.218 52.8005C118.319 52.6453 118.457 52.5176 118.621 52.4291C118.784 52.3406 118.967 52.2941 119.153 52.2938H134.628C132.913 47.789 131.077 44.4083 128.967 41.9771C115.893 41.3001 109.009 42.9692 103.476 44.2806C99.7188 45.1832 96.4805 45.9582 92.3929 45.7623H92.3072C89.6436 45.4515 87.5205 43.8548 85.2644 42.1517C82.2619 39.878 79.1437 37.5234 74.2412 37.681C68.5409 37.8683 65.4742 41.8153 64.6721 43.0203C64.5088 43.2646 64.2979 43.4741 64.0519 43.6364C63.8059 43.7987 63.5297 43.9106 63.2395 43.9655L48.725 46.7203C47.6186 46.9281 46.6071 47.4791 45.8363 48.294C45.0655 49.1089 44.5752 50.1456 44.4359 51.2549L43.2607 60.3922L45.5167 66.4212C45.9553 66.3959 46.395 66.3959 46.8335 66.4212C47.1724 66.4212 47.7471 66.4553 47.8715 66.4212C48.1633 66.3789 48.4601 66.4533 48.6965 66.6282C48.933 66.8031 49.0898 67.064 49.1325 67.3537C49.1752 67.6433 49.1002 67.9379 48.924 68.1727C48.7479 68.4075 48.485 68.5631 48.1932 68.6055C48.0181 68.6264 47.8419 68.6363 47.6656 68.6353ZM45.8942 68.1627C46.1044 68.1627 46.4046 68.1627 46.752 68.1882C47.209 68.2201 47.6676 68.2201 48.1246 68.1882C48.2126 68.1757 48.2973 68.146 48.3737 68.1009C48.4501 68.0557 48.5167 67.996 48.5698 67.9252C48.6228 67.8543 48.6612 67.7737 48.6827 67.688C48.7042 67.6024 48.7084 67.5133 48.695 67.4261C48.6684 67.2484 48.5726 67.0881 48.4282 66.9799C48.2839 66.8716 48.1024 66.8239 47.923 66.847C47.7771 66.847 47.3482 66.847 46.8421 66.847C46.3738 66.8131 45.9036 66.8131 45.4353 66.847C45.3776 66.8563 45.3186 66.8452 45.2684 66.8156C45.2182 66.786 45.1801 66.7399 45.1607 66.6852L42.7974 60.4347L43.9855 51.1953C44.136 49.9928 44.6688 48.8694 45.5065 47.988C46.3441 47.1067 47.443 46.5135 48.6435 46.2945L63.1538 43.5397C63.3877 43.496 63.6104 43.4059 63.8086 43.275C64.0068 43.1441 64.1765 42.9749 64.3075 42.7776C65.1439 41.53 68.3179 37.4383 74.2241 37.2424C79.281 37.0764 82.4507 39.4778 85.5217 41.8025C87.7263 43.4716 89.8109 45.0513 92.3586 45.3578H92.4058C96.4376 45.5537 99.6459 44.783 103.356 43.8889C108.932 42.5519 115.846 40.9084 128.997 41.5343C129.053 41.5395 129.108 41.5557 129.158 41.582C129.208 41.6083 129.252 41.6442 129.288 41.6876C131.476 44.2082 133.389 47.7209 135.134 52.4215L135.237 52.7068H119.153C119.039 52.7066 118.926 52.735 118.826 52.7893C118.725 52.8436 118.64 52.9221 118.578 53.0176L115.966 57.054C115.918 57.129 115.885 57.2126 115.869 57.3002C115.853 57.3879 115.855 57.4777 115.874 57.5647C115.893 57.6517 115.929 57.7341 115.98 57.8072C116.031 57.8803 116.097 57.9427 116.172 57.9907C116.248 58.0388 116.332 58.0717 116.42 58.0874C116.508 58.1032 116.599 58.1015 116.686 58.0826C116.774 58.0636 116.857 58.0277 116.931 57.9768C117.004 57.926 117.067 57.8613 117.116 57.7864L119.526 54.0693H135.152C135.381 54.0694 135.608 54.0145 135.811 53.9092C136.015 53.804 136.19 53.6515 136.322 53.4647C136.454 53.2779 136.538 53.0624 136.568 52.8363C136.598 52.6102 136.573 52.3803 136.494 52.1661C134.671 47.21 132.634 43.4929 130.326 40.8105C130.17 40.6275 129.978 40.478 129.762 40.3711C129.546 40.2642 129.311 40.2022 129.07 40.1888C115.722 39.5374 108.705 41.2235 103.06 42.5775C99.2985 43.4801 96.3347 44.1912 92.513 44.0123C90.3341 43.7398 88.4898 42.3433 86.3538 40.7296C83.2313 38.3665 79.7099 35.7096 74.1855 35.8927C67.6231 36.1056 64.0974 40.6444 63.1752 42.0282C63.1122 42.1207 63.0152 42.1849 62.905 42.207L48.3948 44.9618C46.9127 45.2327 45.5558 45.9644 44.5202 47.0513C43.4847 48.1382 42.8243 49.5239 42.6344 51.0079L41.4249 60.4177C41.4119 60.5271 41.4251 60.638 41.4635 60.7413L43.8869 67.1493C44.019 67.4951 44.2664 67.7855 44.5879 67.9722C44.9094 68.1589 45.2857 68.2306 45.654 68.1754C45.7337 68.1659 45.8139 68.1616 45.8942 68.1627Z" fill="#3F2355"/>
<path d="M117.398 82.8316C115.072 82.8324 112.798 82.1485 110.864 80.8665C108.93 79.5844 107.423 77.7618 106.532 75.629C105.642 73.4963 105.409 71.1494 105.862 68.8851C106.316 66.6208 107.436 64.5409 109.08 62.9085C110.725 61.2761 112.82 60.1645 115.101 59.7143C117.382 59.2641 119.746 59.4956 121.894 60.3794C124.043 61.2633 125.879 62.7598 127.17 64.6797C128.462 66.5996 129.151 68.8566 129.15 71.1652C129.145 74.2579 127.906 77.2227 125.703 79.4096C123.5 81.5965 120.513 82.8271 117.398 82.8316ZM117.398 61.2785C115.428 61.2785 113.502 61.8584 111.864 62.9447C110.227 64.0311 108.95 65.5752 108.196 67.3817C107.442 69.1883 107.245 71.1761 107.63 73.094C108.014 75.0118 108.962 76.7734 110.355 78.1561C111.748 79.5387 113.523 80.4804 115.455 80.8618C117.387 81.2433 119.389 81.0475 121.209 80.2992C123.029 79.5509 124.584 78.2837 125.679 76.6579C126.773 75.032 127.357 73.1206 127.357 71.1652C127.355 68.5438 126.305 66.0304 124.437 64.1767C122.57 62.3231 120.038 61.2808 117.398 61.2785Z" fill="#3F2355"/>
<path d="M117.397 83.0269C115.029 83.0277 112.714 82.3314 110.745 81.0259C108.776 79.7205 107.241 77.8645 106.334 75.6929C105.427 73.5213 105.19 71.1316 105.652 68.826C106.113 66.5204 107.254 64.4026 108.928 62.7404C110.603 61.0782 112.736 59.9463 115.059 59.4879C117.381 59.0295 119.788 59.2652 121.976 60.1652C124.164 61.0651 126.033 62.5889 127.348 64.5438C128.663 66.4987 129.365 68.7969 129.364 71.1476C129.359 74.2968 128.097 77.3157 125.854 79.5425C123.611 81.7694 120.57 83.0224 117.397 83.0269ZM117.397 59.6898C115.114 59.689 112.882 60.3602 110.984 61.6187C109.085 62.8772 107.605 64.6664 106.731 66.7599C105.856 68.8535 105.627 71.1574 106.072 73.3803C106.517 75.6032 107.616 77.6451 109.23 79.248C110.844 80.8508 112.901 81.9425 115.14 82.3849C117.379 82.8273 119.7 82.6007 121.809 81.7336C123.918 80.8665 125.721 79.3979 126.99 77.5136C128.258 75.6293 128.935 73.4139 128.935 71.1476C128.927 68.1135 127.709 65.2062 125.546 63.062C123.384 60.9177 120.454 59.7113 117.397 59.7068V59.6898ZM117.397 81.2429C115.385 81.2429 113.418 80.6504 111.744 79.5405C110.071 78.4306 108.767 76.853 107.997 75.0073C107.227 73.1616 107.026 71.1307 107.419 69.1714C107.812 67.2122 108.781 65.4127 110.205 64.0004C111.628 62.5881 113.441 61.6265 115.415 61.2373C117.389 60.8481 119.435 61.0487 121.294 61.8138C123.153 62.5789 124.741 63.874 125.859 65.5354C126.976 67.1968 127.572 69.1499 127.571 71.1476C127.572 73.8277 126.501 76.3985 124.593 78.2948C122.685 80.1911 120.097 81.2576 117.397 81.2599V81.2429ZM117.397 61.4738C115.47 61.4738 113.586 62.0412 111.983 63.1042C110.381 64.1671 109.132 65.678 108.394 67.4456C107.656 69.2132 107.463 71.1583 107.839 73.0348C108.216 74.9114 109.144 76.6351 110.506 77.988C111.869 79.3409 113.606 80.2622 115.496 80.6355C117.386 81.0087 119.346 80.8172 121.126 80.085C122.907 79.3528 124.429 78.1129 125.5 76.522C126.571 74.9312 127.142 73.0609 127.142 71.1476C127.135 68.5856 126.106 66.1307 124.279 64.3207C122.453 62.5107 119.978 61.4931 117.397 61.4909V61.4738Z" fill="#3F2355"/>
<path d="M58.4367 82.8316C56.1111 82.8324 53.8374 82.1485 51.9034 80.8665C49.9694 79.5844 48.4619 77.7618 47.5715 75.629C46.6812 73.4963 46.448 71.1494 46.9015 68.8851C47.355 66.6208 48.4748 64.5409 50.1192 62.9085C51.7637 61.2761 53.8589 60.1645 56.1398 59.7143C58.4208 59.2641 60.785 59.4956 62.9334 60.3794C65.0818 61.2633 66.9179 62.7598 68.2094 64.6797C69.5009 66.5996 70.1898 68.8566 70.1889 71.1652C70.1844 74.2579 68.9448 77.2227 66.7418 79.4096C64.5388 81.5965 61.5522 82.8271 58.4367 82.8316ZM58.4367 61.2785C56.4669 61.2785 54.5413 61.8584 52.9035 62.9447C51.2657 64.0311 49.9892 65.5752 49.2353 67.3817C48.4815 69.1883 48.2843 71.1761 48.6686 73.094C49.0529 75.0118 50.0014 76.7734 51.3943 78.1561C52.7871 79.5387 54.5617 80.4804 56.4937 80.8618C58.4256 81.2433 60.4281 81.0475 62.248 80.2992C64.0678 79.5509 65.6233 78.2837 66.7176 76.6579C67.812 75.032 68.3961 73.1206 68.3961 71.1652C68.3938 68.5438 67.3438 66.0304 65.4765 64.1767C63.6093 62.3231 61.0774 61.2808 58.4367 61.2785Z" fill="#3F2355"/>
<path d="M58.4363 83.0269C56.0683 83.0277 53.7532 82.3314 51.7839 81.0259C49.8146 79.7205 48.2796 77.8645 47.373 75.6929C46.4664 73.5213 46.229 71.1316 46.6908 68.826C47.1525 66.5204 48.2927 64.4026 49.9672 62.7404C51.6416 61.0782 53.775 59.9463 56.0976 59.4879C58.4201 59.0295 60.8275 59.2652 63.0151 60.1652C65.2027 61.0651 67.0723 62.5889 68.3873 64.5438C69.7024 66.4987 70.4039 68.7969 70.403 71.1476C70.3996 74.2971 69.1377 77.3167 66.8943 79.5438C64.6508 81.7709 61.609 83.0235 58.4363 83.0269ZM58.4363 59.6898C56.1533 59.689 53.9213 60.3602 52.0226 61.6187C50.124 62.8772 48.6439 64.6664 47.7697 66.7599C46.8954 68.8535 46.6662 71.1574 47.1111 73.3803C47.556 75.6032 48.6549 77.6451 50.2689 79.248C51.883 80.8508 53.9396 81.9425 56.1786 82.3849C58.4177 82.8273 60.7387 82.6007 62.848 81.7336C64.9573 80.8665 66.7601 79.3979 68.0286 77.5136C69.2971 75.6293 69.9741 73.4139 69.9741 71.1476C69.9673 68.1132 68.7491 65.2052 66.5864 63.0607C64.4238 60.9163 61.493 59.7102 58.4363 59.7068V59.6898ZM58.4363 81.2429C56.4239 81.2395 54.4577 80.6438 52.7864 79.531C51.1151 78.4183 49.8138 76.8385 49.047 74.9915C48.2803 73.1446 48.0825 71.1133 48.4787 69.1547C48.875 67.1962 49.8474 65.3982 51.2731 63.9884C52.6988 62.5785 54.5136 61.62 56.4881 61.234C58.4626 60.8481 60.508 61.0522 62.3656 61.8203C64.2233 62.5885 65.8097 63.8863 66.9243 65.5496C68.0389 67.2129 68.6315 69.1669 68.6273 71.1646C68.6239 73.8447 67.5484 76.4137 65.6373 78.3068C63.7263 80.2 61.1361 81.2622 58.4363 81.2599V81.2429ZM58.4363 61.4738C56.5104 61.4772 54.6286 62.047 53.0287 63.1113C51.4288 64.1755 50.1824 65.6865 49.447 67.4535C48.7115 69.2204 48.52 71.1641 48.8966 73.039C49.2731 74.9139 50.2009 76.6361 51.5627 77.988C52.9245 79.3398 54.6593 80.2608 56.5481 80.6346C58.4368 81.0084 60.3948 80.8183 62.1747 80.0882C63.9547 79.3581 65.4768 78.1209 66.5489 76.5327C67.621 74.9444 68.195 73.0765 68.1984 71.1646C68.1973 69.8931 67.9439 68.6343 67.4527 67.46C66.9615 66.2857 66.2421 65.219 65.3356 64.3207C64.4291 63.4224 63.3532 62.7102 62.1694 62.2246C60.9857 61.7391 59.7171 61.4897 58.4363 61.4909V61.4738Z" fill="#3F2355"/>
<path d="M99.1412 62.9739C99.0882 62.9744 99.0357 62.9643 98.9868 62.9441C98.93 62.9263 98.8776 62.8968 98.8329 62.8577C98.7882 62.8186 98.7522 62.7707 98.7271 62.717C98.7021 62.6634 98.6887 62.6051 98.6876 62.546C98.6865 62.4868 98.6978 62.4281 98.7209 62.3736C100.921 56.5106 103.808 50.8775 106.87 46.5643C106.913 46.4983 106.974 46.4464 107.046 46.4153C113.287 43.5413 121.033 41.4805 129.457 40.4544C129.575 40.4402 129.694 40.4734 129.788 40.5464C129.882 40.6195 129.942 40.7265 129.957 40.844C129.971 40.9614 129.938 41.0796 129.864 41.1727C129.79 41.2657 129.682 41.3259 129.564 41.34C121.282 42.3491 113.669 44.3673 107.535 47.1732C104.259 52.0062 101.586 57.2161 99.5744 62.6887C99.5436 62.7767 99.4846 62.8523 99.4063 62.9039C99.3281 62.9554 99.2349 62.98 99.1412 62.9739Z" fill="#3F2355"/>
<path d="M96.9349 70.3941H78.6845C78.4708 70.3948 78.264 70.3196 78.1012 70.1822C77.9384 70.0448 77.8304 69.8542 77.7967 69.6448C77.5779 68.3206 77.312 67.0134 77.0075 65.7489C74.2667 65.8383 70.0547 66.0171 67.5113 66.1746C67.2735 66.1871 67.0405 66.1052 66.8636 65.9471C66.6866 65.789 66.5802 65.5676 66.5676 65.3316C66.5551 65.0956 66.6376 64.8643 66.7968 64.6886C66.9561 64.513 67.1792 64.4073 67.4169 64.3949C70.2049 64.2458 75.0001 64.0457 77.6766 63.9691C77.8801 63.9635 78.0795 64.0266 78.2423 64.148C78.4051 64.2694 78.5217 64.442 78.573 64.6376C78.9033 65.9149 79.1949 67.2689 79.4308 68.6314H96.2229C96.5703 67.354 96.9778 66.0086 97.4367 64.6461C97.498 64.4626 97.6178 64.304 97.778 64.1942C97.9382 64.0843 98.1301 64.0292 98.3246 64.0372L100.932 64.1394C102.163 64.1862 103.484 64.2331 104.72 64.2884C104.837 64.2937 104.953 64.322 105.06 64.3716C105.166 64.4213 105.262 64.4913 105.342 64.5777C105.421 64.6641 105.483 64.7651 105.523 64.8751C105.563 64.9851 105.581 65.1019 105.575 65.2188C105.57 65.3356 105.542 65.4503 105.492 65.5562C105.442 65.6622 105.371 65.7573 105.284 65.8362C105.197 65.915 105.095 65.9761 104.984 66.0159C104.874 66.0557 104.756 66.0735 104.638 66.0682C103.407 66.0128 102.095 65.9617 100.864 65.9192L98.9251 65.8468C98.4961 67.1837 98.1058 68.4909 97.7884 69.7427C97.7358 69.928 97.6243 70.0916 97.4705 70.2089C97.3167 70.3263 97.1289 70.3913 96.9349 70.3941Z" fill="#3F2355"/>
<path d="M96.9349 70.6071H78.6845C78.4206 70.6084 78.1648 70.5159 77.9635 70.3465C77.7621 70.1771 77.6284 69.9418 77.5865 69.6831C77.3763 68.4058 77.1275 67.171 76.8402 65.966C74.0351 66.0597 69.9775 66.2343 67.5241 66.3663C67.2295 66.3821 66.9406 66.2811 66.721 66.0854C66.5014 65.8898 66.3691 65.6156 66.3532 65.3231C66.3373 65.0306 66.439 64.7439 66.6361 64.5259C66.8332 64.3079 67.1094 64.1765 67.404 64.1607C70.1963 64.0117 74.9958 63.8116 77.668 63.7349C77.9201 63.727 78.1675 63.8044 78.3694 63.9545C78.5713 64.1046 78.7157 64.3185 78.7789 64.561C79.1006 65.8 79.3794 67.0901 79.6367 68.393H96.077C96.4116 67.1582 96.8062 65.8638 97.2523 64.561C97.3274 64.3331 97.4761 64.1362 97.6754 64.0007C97.8747 63.8652 98.1134 63.7987 98.3546 63.8116L100.958 63.9095C102.189 63.9563 103.51 64.0032 104.75 64.0585C105.044 64.0729 105.321 64.2023 105.519 64.4185C105.718 64.6347 105.822 64.9201 105.809 65.2124C105.791 65.5034 105.66 65.7761 105.443 65.9725C105.226 66.1689 104.94 66.2735 104.647 66.2641C103.416 66.2087 102.103 66.1619 100.877 66.1151H100.636L99.0966 66.0554C98.6677 67.3328 98.316 68.6101 98.0114 69.7853C97.9488 70.0212 97.8092 70.2298 97.6144 70.3785C97.4196 70.5272 97.1806 70.6076 96.9349 70.6071ZM77.2048 65.5317L77.2434 65.6978C77.5522 66.9751 77.8181 68.2823 78.0411 69.6107C78.065 69.7706 78.1463 69.9164 78.2701 70.0213C78.3939 70.1262 78.5518 70.183 78.7145 70.1813H96.9349C97.0865 70.1811 97.2338 70.1308 97.3534 70.0383C97.4731 69.9458 97.5582 69.8163 97.5954 69.6703C97.9171 68.4185 98.2988 67.1156 98.7406 65.7617L98.7921 65.6041H98.9551L100.671 65.668H100.907C102.138 65.7148 103.45 65.7617 104.681 65.817C104.862 65.8218 105.037 65.7571 105.17 65.6365C105.304 65.5159 105.385 65.3486 105.397 65.1698C105.402 65.0811 105.388 64.9924 105.357 64.909C105.326 64.8256 105.278 64.7493 105.217 64.6844C105.158 64.6175 105.086 64.5633 105.004 64.5252C104.923 64.4871 104.835 64.4659 104.745 64.463C103.51 64.4077 102.172 64.3608 100.958 64.314L98.3503 64.2118C98.2021 64.2041 98.0555 64.2455 97.9336 64.3295C97.8117 64.4135 97.7214 64.5354 97.6769 64.6759C97.2137 66.0342 96.8191 67.3711 96.4674 68.6485L96.4245 68.806H79.2678L79.2378 68.6314C78.9933 67.2732 78.7017 65.9362 78.38 64.6504C78.3433 64.5004 78.2552 64.3678 78.1307 64.2754C78.0063 64.1829 77.8533 64.1364 77.698 64.1437C75.0259 64.2203 70.2349 64.4204 67.4426 64.5695C67.2618 64.5796 67.0924 64.6607 66.9717 64.7948C66.8511 64.929 66.789 65.1052 66.7993 65.2848C66.8095 65.4643 66.8912 65.6325 67.0263 65.7523C67.1614 65.872 67.339 65.9336 67.5198 65.9235C70.0333 65.7872 74.2066 65.6126 77.016 65.4977L77.2048 65.5317Z" fill="#3F2355"/>
<path d="M77.0711 63.1263C76.9597 63.1258 76.8514 63.09 76.7619 63.0241C76.6724 62.9582 76.6065 62.8658 76.5736 62.7601C74.0601 54.6192 69.7109 48.1558 63.2429 42.9953C63.1877 42.9531 63.1416 42.9004 63.1072 42.8403C63.0728 42.7801 63.0509 42.7138 63.0427 42.6451C63.0345 42.5764 63.0402 42.5068 63.0594 42.4404C63.0787 42.3739 63.1111 42.312 63.1548 42.2581C63.1985 42.2043 63.2525 42.1596 63.3138 42.1268C63.3751 42.0939 63.4424 42.0736 63.5118 42.0669C63.5811 42.0602 63.6511 42.0673 63.7176 42.0878C63.7841 42.1084 63.8458 42.1418 63.8991 42.1864C70.4288 47.4031 75.1992 54.4737 77.573 62.4535C77.5934 62.5187 77.6007 62.5872 77.5942 62.6551C77.5878 62.723 77.5679 62.789 77.5355 62.8492C77.5032 62.9094 77.4592 62.9627 77.406 63.0058C77.3527 63.049 77.2914 63.0813 77.2255 63.1007C77.1758 63.1175 77.1237 63.1261 77.0711 63.1263Z" fill="#3F2355"/>
<path d="M100.065 53.6099C96.9044 53.6099 92.345 53.5205 90.7066 53.0394H90.6637C88.399 52.1623 86.5589 49.3564 84.4229 46.1077C82.1668 42.6674 79.6062 38.7715 76.2735 37.1663C76.2091 37.1363 76.1511 37.0941 76.1031 37.042C76.055 36.9898 76.0178 36.9288 75.9935 36.8624C75.9692 36.796 75.9583 36.7254 75.9615 36.6548C75.9646 36.5843 75.9818 36.515 76.0119 36.4509C76.042 36.3869 76.0846 36.3294 76.1371 36.2817C76.1896 36.234 76.2511 36.1971 76.318 36.1729C76.3849 36.1488 76.456 36.138 76.5271 36.1412C76.5982 36.1443 76.668 36.1613 76.7325 36.1912C80.3268 37.9369 82.9689 41.9648 85.3108 45.5158C87.2581 48.4963 89.0938 51.2724 91.0368 52.0388C93.4774 52.7371 103.188 52.5327 103.287 52.5327C103.355 52.531 103.424 52.5428 103.488 52.5673C103.552 52.5919 103.611 52.6287 103.66 52.6758C103.71 52.7228 103.75 52.7792 103.778 52.8415C103.806 52.9039 103.821 52.9712 103.823 53.0394C103.825 53.1776 103.772 53.311 103.676 53.4107C103.579 53.5104 103.447 53.5683 103.308 53.5716C103.149 53.5801 101.824 53.6099 100.065 53.6099Z" fill="#3F2355"/>
<path d="M70.5527 37.8101C70.3082 37.8101 70.038 38.3168 69.8278 38.1635C69.7007 38.0715 69.5931 37.9556 69.5112 37.8224C69.4293 37.6892 69.3746 37.5412 69.3503 37.387C69.326 37.2328 69.3326 37.0754 69.3696 36.9237C69.4066 36.772 69.4734 36.629 69.5662 36.5029L75.5367 28.3705C75.6474 28.2193 75.7925 28.0961 75.9602 28.011C76.1278 27.9259 76.3134 27.8813 76.5017 27.8809H84.7198C85.0371 27.8809 85.3415 28.006 85.5659 28.2288C85.7903 28.4516 85.9164 28.7537 85.9164 29.0688C85.9164 29.3838 85.7903 29.686 85.5659 29.9088C85.3415 30.1316 85.0371 30.2567 84.7198 30.2567H77.1108L71.5349 37.3247C71.4228 37.4783 71.2749 37.6026 71.1038 37.6872C70.9328 37.7717 70.7437 37.8139 70.5527 37.8101Z" fill="#3F2355"/>
<path d="M117.399 76.6397C116.004 76.6375 114.668 76.0862 113.682 75.1068C112.696 74.1274 112.142 72.7999 112.141 71.4154C112.141 70.9965 112.191 70.5792 112.291 70.1721C112.307 70.1055 112.336 70.0426 112.376 69.9871C112.417 69.9316 112.468 69.8846 112.527 69.8489C112.586 69.8131 112.651 69.7893 112.719 69.7788C112.788 69.7682 112.857 69.7712 112.924 69.7875C112.991 69.8037 113.054 69.833 113.11 69.8737C113.166 69.9143 113.213 69.9654 113.248 70.0241C113.284 70.0828 113.307 70.148 113.317 70.2157C113.328 70.2835 113.324 70.3526 113.307 70.4191C113.226 70.7451 113.186 71.0797 113.187 71.4154C113.187 72.2424 113.434 73.0508 113.897 73.7383C114.36 74.4259 115.018 74.9618 115.787 75.2783C116.557 75.5948 117.404 75.6776 118.221 75.5162C119.038 75.3549 119.788 74.9567 120.377 74.3719C120.966 73.7872 121.368 73.0422 121.53 72.2311C121.693 71.42 121.609 70.5794 121.29 69.8153C120.972 69.0513 120.432 68.3983 119.739 67.9389C119.047 67.4795 118.232 67.2342 117.399 67.2342C117.111 67.2342 116.824 67.2627 116.541 67.3194C116.406 67.3447 116.267 67.3163 116.153 67.2404C116.038 67.1644 115.959 67.0469 115.931 66.9133C115.904 66.7797 115.93 66.6407 116.005 66.5263C116.08 66.4118 116.197 66.3312 116.331 66.3018C116.68 66.23 117.035 66.1944 117.391 66.1953C118.76 66.2341 120.06 66.8014 121.014 67.7765C121.969 68.7516 122.503 70.0578 122.503 71.4175C122.503 72.7773 121.969 74.0835 121.014 75.0586C120.06 76.0337 118.76 76.6009 117.391 76.6397H117.399Z" fill="#3F2355"/>
<path d="M58.4329 76.6413C57.3428 76.6439 56.2793 76.3074 55.3919 75.6791C55.2781 75.5995 55.2009 75.4782 55.1771 75.3421C55.1534 75.206 55.1851 75.066 55.2653 74.9531C55.3455 74.8402 55.4676 74.7635 55.6048 74.74C55.7419 74.7164 55.8829 74.7479 55.9966 74.8275C56.7675 75.3686 57.6991 75.637 58.642 75.5895C59.5849 75.542 60.4843 75.1815 61.196 74.5657C61.9078 73.9499 62.3904 73.1146 62.5666 72.1938C62.7427 71.2731 62.6021 70.3203 62.1674 69.4884C61.7327 68.6564 61.029 67.9936 60.1693 67.6063C59.3096 67.219 58.3437 67.1296 57.4267 67.3526C56.5097 67.5755 55.6947 68.0978 55.1126 68.8356C54.5305 69.5735 54.2149 70.4841 54.2166 71.4213C54.2199 72.0462 54.3666 72.6621 54.6456 73.2223C54.7043 73.3466 54.7111 73.4889 54.6645 73.6181C54.6179 73.7474 54.5217 73.8531 54.3968 73.9121C54.2715 73.9709 54.1279 73.9784 53.9971 73.933C53.8663 73.8876 53.7587 73.7929 53.6976 73.6694C53.2078 72.6469 53.0658 71.4941 53.293 70.3845C53.5203 69.2749 54.1046 68.2687 54.9578 67.5173C55.8111 66.7659 56.8871 66.3101 58.024 66.2183C59.1608 66.1266 60.2969 66.404 61.2612 67.0088C62.2255 67.6135 62.9657 68.5129 63.3705 69.5714C63.7753 70.63 63.8227 71.7905 63.5056 72.8781C63.1884 73.9657 62.524 74.9216 61.6122 75.6019C60.7004 76.2821 59.5906 76.6499 58.45 76.6499L58.4329 76.6413Z" fill="#3F2355"/>
<path d="M133.242 50.0848L125.453 50.0252C125.314 50.0252 125.181 49.9705 125.083 49.8731C124.985 49.7757 124.93 49.6435 124.93 49.5058C124.93 49.368 124.985 49.2359 125.083 49.1385C125.181 49.0411 125.314 48.9863 125.453 48.9863L133.246 49.0459C133.385 49.0459 133.518 49.1007 133.616 49.1981C133.715 49.2955 133.77 49.4276 133.77 49.5654C133.77 49.7032 133.715 49.8353 133.616 49.9327C133.518 50.0301 133.385 50.0848 133.246 50.0848H133.242Z" fill="#3F2355"/>
<path d="M48.8332 51.9028H48.786C48.6402 51.9028 45.2174 51.7665 43.4546 50.4083C43.4174 50.382 43.3858 50.3487 43.3616 50.3103C43.3373 50.2719 43.321 50.2292 43.3134 50.1845C43.3058 50.1398 43.3072 50.0941 43.3175 50.0499C43.3277 50.0058 43.3466 49.964 43.3731 49.9271C43.8975 49.1475 44.5865 48.4904 45.3924 48.0014C46.1982 47.5125 47.1015 47.2034 48.0397 47.0957H48.1169C48.9747 47.0957 53.2639 47.2107 54.1217 47.5215C54.1858 47.5419 54.2437 47.5779 54.2901 47.6263C54.3366 47.6746 54.3701 47.7337 54.3876 47.7982C54.4 47.8622 54.3951 47.9282 54.3732 47.9896C54.3513 48.0509 54.3134 48.1054 54.2633 48.1474C54.1217 48.2666 50.8319 51.0938 49.0133 51.8815C48.9547 51.8978 48.894 51.905 48.8332 51.9028ZM44.3424 50.0293C45.7707 50.9064 48.1684 51.098 48.7217 51.1278C50.0084 50.5445 52.02 48.9266 53.0108 48.0963C51.8141 47.9728 49.5795 47.8877 48.0954 47.8621C47.3549 47.953 46.6405 48.1919 45.9955 48.5644C45.3504 48.9369 44.7881 49.4352 44.3424 50.0293Z" fill="#3F2355"/>
<path d="M48.8008 52.2016H48.7708C48.6249 52.2016 45.1035 52.0569 43.2678 50.6433C43.1326 50.543 43.0422 50.3944 43.0158 50.229C42.9894 50.0636 43.029 49.8945 43.1262 49.7577C43.6721 48.9468 44.3883 48.2628 45.2257 47.7527C46.0631 47.2427 47.0018 46.9186 47.9773 46.8027H48.1017C49.3112 46.8283 53.3259 46.9262 54.2094 47.2285C54.3216 47.2659 54.4225 47.3307 54.5027 47.4171C54.5829 47.5034 54.6399 47.6084 54.6684 47.7224C54.6918 47.8386 54.6839 47.9588 54.6455 48.0709C54.607 48.1831 54.5395 48.2832 54.4496 48.3611C54.0936 48.6634 50.9582 51.3416 49.1225 52.142C49.0344 52.1758 48.942 52.1973 48.848 52.2059H48.8008V52.2016ZM48.0888 47.3903H48.0588C47.1657 47.497 46.3064 47.7938 45.5395 48.2604C44.7726 48.727 44.1162 49.3525 43.6152 50.094C43.6152 50.094 43.5895 50.1366 43.6152 50.1749C45.3008 51.4523 48.6335 51.6013 48.7622 51.6055C48.7848 51.61 48.8082 51.61 48.8308 51.6055C50.6151 50.8391 53.8663 48.0375 54.0035 47.9183C54.0129 47.9124 54.0206 47.9042 54.0259 47.8945C54.0312 47.8848 54.0338 47.8739 54.0336 47.8629C54.0271 47.8475 54.0171 47.8338 54.0045 47.8227C53.9919 47.8116 53.9769 47.8036 53.9607 47.7991C53.3216 47.5777 50.3749 47.4457 48.0416 47.4031L48.0888 47.3903ZM48.7751 51.431H48.7021C48.0116 51.3927 45.6483 51.1883 44.1857 50.2899L43.9026 50.1153L44.1042 49.8556C44.5728 49.2277 45.1656 48.7014 45.8464 48.309C46.5271 47.9165 47.2814 47.6662 48.0631 47.5734H48.1102C49.7358 47.6032 51.8933 47.6926 53.0556 47.8118L53.7591 47.8842L53.2143 48.3355C52.1335 49.2297 50.1261 50.8179 48.8437 51.4097L48.7751 51.431ZM44.799 49.945C46.1287 50.6177 48.0974 50.7966 48.6593 50.8306C49.9373 50.1106 51.1449 49.2738 52.2664 48.3313C51.074 48.2461 49.3927 48.1823 48.1231 48.1567C46.8281 48.3171 45.6414 48.9555 44.799 49.945Z" fill="#3F2355"/>
<path d="M50.5834 47.5605C50.4408 48.5623 50.6162 49.5832 51.0852 50.4814C51.0852 50.4814 53.3542 48.327 53.5987 47.8458L50.5834 47.5605Z" fill="#3F2355"/>
<path d="M93.7425 65.6348H81.5312V66.1925H93.7425V65.6348Z" fill="#3F2355"/>
<path d="M93.7438 66.3403H81.5326C81.4935 66.3391 81.4565 66.323 81.4292 66.2951C81.402 66.2673 81.3868 66.23 81.3868 66.1912V65.6335C81.3862 65.6141 81.3896 65.5948 81.3966 65.5768C81.4037 65.5587 81.4143 65.5422 81.4279 65.5283C81.4415 65.5144 81.4578 65.5034 81.4758 65.4958C81.4938 65.4883 81.5131 65.4844 81.5326 65.4844H93.7438C93.7637 65.4839 93.7835 65.4873 93.802 65.4946C93.8205 65.5019 93.8372 65.5128 93.8513 65.5268C93.8654 65.5407 93.8764 65.5574 93.8837 65.5757C93.8911 65.5941 93.8945 65.6137 93.894 65.6335V66.1912C93.894 66.2308 93.8781 66.2687 93.85 66.2966C93.8218 66.3246 93.7836 66.3403 93.7438 66.3403ZM81.6827 66.0422H93.5937V65.7782H81.6827V66.0422Z" fill="#3F2355"/>
<path d="M81.5318 66.3366C81.4344 66.3397 81.3389 66.3097 81.2609 66.2517C81.1829 66.1936 81.1272 66.111 81.1029 66.0173C79.6889 60.3776 77.4628 54.9698 74.4933 49.9611C74.4539 49.8661 74.4504 49.7601 74.4834 49.6627C74.5165 49.5654 74.584 49.4832 74.6733 49.4313C74.7627 49.3794 74.8679 49.3614 74.9697 49.3805C75.0714 49.3996 75.1627 49.4546 75.2267 49.5353C78.2407 54.6132 80.4988 60.0973 81.9307 65.8172C81.9595 65.9261 81.9436 66.042 81.8865 66.1393C81.8294 66.2367 81.7358 66.3077 81.6262 66.3366C81.5948 66.3396 81.5632 66.3396 81.5318 66.3366Z" fill="#3F2355"/>
</svg>
