<svg width="177" height="109" viewBox="0 0 177 109" fill="none" xmlns="http://www.w3.org/2000/svg">
<path d="M140.509 71.4375L138.584 78.2968L125.309 78.2713V79.3272H123.605C124.651 76.8012 124.651 73.9635 123.605 71.4375H140.509Z" fill="white"/>
<path d="M69.9036 43.5448H60.8472C60.4419 43.545 60.0451 43.6609 59.7035 43.8789C59.3618 44.0969 59.0894 44.4078 58.9184 44.7753L54.8011 53.6486C54.6346 54.0106 54.5475 54.404 54.5456 54.8024V61.5638C54.5437 61.9592 54.6566 62.3466 54.8705 62.6791C55.0843 63.0117 55.3901 63.275 55.7506 63.4373C57.1819 64.1178 58.3158 65.2972 58.9397 66.7541C59.119 67.1428 59.4051 67.4725 59.7648 67.7047C60.1244 67.9369 60.5426 68.0621 60.9707 68.0655H69.8014C70.3924 68.0655 70.9592 67.831 71.3775 67.4135C71.7958 66.996 72.0313 66.4297 72.0325 65.8387V45.6737C72.0321 45.1691 71.8525 44.6811 71.5257 44.2967C71.199 43.9122 70.7463 43.6563 70.2484 43.5746C70.1344 43.5562 70.0191 43.5462 69.9036 43.5448ZM49.3894 55.7775C49.9028 55.699 50.3892 55.4957 50.8056 55.1854C51.2221 54.8751 51.556 54.4672 51.7781 53.9977L57.2408 42.4463C57.267 42.3922 57.2983 42.3409 57.3345 42.293H72.3816C72.8092 42.3008 73.2164 42.4777 73.514 42.7848C73.8116 43.092 73.9755 43.5046 73.9698 43.9322L74.0336 70.8544C74.0348 71.0671 74.12 71.2707 74.2708 71.4207C74.4216 71.5706 74.6257 71.6548 74.8384 71.6548H104.383C103.42 74.1236 103.446 76.8687 104.456 79.3189H101.761V78.2119L57.9561 78.1182C57.2791 78.1182 56.3382 77.9223 56.0486 77.6924C56.5213 74.2862 56.2743 71.08 55.7974 69.7686C55.278 68.0655 52.9745 62.5303 45.1529 62.0152C40.712 61.7171 34.9597 62.6964 32.6094 68.9724V66.1112H33.38C33.7094 66.1115 34.0262 65.9845 34.2642 65.7568C34.5023 65.5291 34.6431 65.2183 34.6574 64.8892L34.9214 62.3345V62.2664C34.9214 61.6064 34.4104 61.27 33.3928 61.27H32.6647C33.6355 59.3838 40.282 57.1825 49.3894 55.7775Z" fill="white"/>
<path d="M145.803 55.0117V55.8633H145.479L145.355 55.0117H145.803Z" fill="#3F2355"/>
<path d="M145.027 52.6133H145.577V53.4648H145.142L145.027 52.6133Z" fill="#3F2355"/>
<path d="M144.807 51.0723L144.684 50.2207H145.169V51.0723H144.807Z" fill="#3F2355"/>
<path d="M143.887 59.5625L144.738 59.439L144.696 59.1367C144.769 59.1371 144.841 59.1442 144.913 59.158L144.981 59.6136C144.885 59.5789 144.785 59.5616 144.683 59.5625H143.887Z" fill="#3F2355"/>
<path d="M144.417 63.2029L143.953 59.9883H144.677C144.799 59.9894 144.915 60.0382 145.001 60.1242C145.087 60.2102 145.136 60.3265 145.137 60.4481V63.3264C145.137 63.4484 145.088 63.5653 145.002 63.6516C144.916 63.7378 144.799 63.7863 144.677 63.7863H144.468C144.462 63.591 144.445 63.3963 144.417 63.2029Z" fill="white"/>
<path d="M145.324 64.2381L144.473 64.2126H144.677C144.912 64.2126 145.137 64.1193 145.303 63.9532C145.469 63.7871 145.563 63.5618 145.563 63.327V60.4614C145.566 60.2758 145.512 60.0937 145.406 59.9409C145.301 59.7881 145.15 59.6723 144.975 59.6099L144.907 59.1543C145.208 59.2079 145.481 59.3648 145.678 59.598C145.875 59.8312 145.985 60.1261 145.988 60.4316V63.3099C145.988 63.545 145.925 63.7758 145.805 63.978C145.685 64.1803 145.513 64.3466 145.307 64.4595C145.316 64.3957 145.32 64.319 145.324 64.2381Z" fill="#3F2355"/>
<path d="M144.729 59.439L143.877 59.5625L143.848 59.3496L144.478 59.2602V59.1367H144.695L144.729 59.439Z" fill="#3F2355"/>
<path d="M144.441 64.6367C144.441 64.4962 144.467 64.3514 144.471 64.2109L145.323 64.2365C145.323 64.3174 145.323 64.394 145.323 64.4749C145.13 64.5811 144.913 64.6368 144.693 64.6367H144.441Z" fill="#3F2355"/>
<path d="M144.463 48.6074L144.34 47.7559H144.77V48.6074H144.463Z" fill="#3F2355"/>
<path d="M144.297 55.0117H145.357L145.481 55.8633H144.42L144.297 55.0117Z" fill="#3F2355"/>
<path d="M144.688 59.1375L144.211 55.8633H144.424L144.905 59.1588C144.833 59.145 144.761 59.1379 144.688 59.1375Z" fill="#3F2355"/>
<path d="M143.621 64.2127V64.1914L144.396 64.2127H143.621Z" fill="#3F2355"/>
<path d="M144.209 55.8633L144.086 55.0117H144.299L144.422 55.8633H144.209Z" fill="#3F2355"/>
<path d="M144.473 59.1375L143.996 55.8633H144.213L144.69 59.1375H144.473Z" fill="#3F2355"/>
<path d="M144.107 46.0742L143.992 45.2227H144.239V46.0742H144.107Z" fill="#3F2355"/>
<path d="M143.949 52.6133H145.026L145.141 53.4648H144.077L143.949 52.6133Z" fill="#3F2355"/>
<path d="M144.085 55.0104L143.863 53.4648H144.076L144.298 55.0104H144.085Z" fill="#3F2355"/>
<path d="M143.941 55.4707L143.997 55.8624H143.941V55.4707Z" fill="#3F2355"/>
<path d="M143.596 63.7872C143.536 63.7872 143.476 63.7752 143.421 63.7521C143.365 63.7289 143.315 63.695 143.273 63.6522C143.23 63.6095 143.197 63.5587 143.174 63.503C143.151 63.4472 143.14 63.3875 143.141 63.3273V60.4618C143.141 60.3406 143.189 60.2243 143.274 60.1381C143.359 60.052 143.475 60.0031 143.596 60.002H143.954L144.418 63.2166C144.445 63.41 144.462 63.6047 144.469 63.7999L143.596 63.7872Z" fill="white"/>
<path d="M144.083 55.0117L144.206 55.8633H143.993L143.938 55.4716L143.934 55.0117H144.083Z" fill="#3F2355"/>
<path d="M143.914 59.7763L144.97 59.623C145.145 59.6855 145.296 59.8013 145.401 59.9541C145.507 60.1069 145.561 60.289 145.558 60.4746V63.3529C145.558 63.5878 145.464 63.813 145.298 63.9791C145.132 64.1452 144.907 64.2385 144.672 64.2385H144.468C144.468 64.098 144.468 63.9532 144.468 63.8127H144.676C144.798 63.8127 144.915 63.7643 145.001 63.6781C145.088 63.5918 145.136 63.4748 145.136 63.3529V60.4618C145.135 60.3402 145.086 60.2239 145 60.1379C144.914 60.0519 144.798 60.0031 144.676 60.002H143.952L143.914 59.7763Z" fill="#3F2355"/>
<path d="M143.887 59.5625H144.674C144.776 59.5616 144.877 59.5789 144.972 59.6136L143.917 59.7669L143.887 59.5625Z" fill="#3F2355"/>
<path d="M143.887 59.5625L143.176 59.6647C143.307 59.5967 143.453 59.5616 143.602 59.5625H143.887Z" fill="#3F2355"/>
<path d="M143.734 52.6133H143.947L144.075 53.4648H143.862L143.734 52.6133Z" fill="#3F2355"/>
<path d="M143.824 59.1367H144.471L144.488 59.2602L143.858 59.3496L143.824 59.1367Z" fill="#3F2355"/>
<path d="M143.225 59.4433L143.191 59.2049C143.321 59.1586 143.458 59.1355 143.596 59.1368H143.826L143.86 59.3497L143.225 59.4433Z" fill="#3F2355"/>
<path d="M143.818 44.0039L143.703 43.1523H144.014V44.0039H143.818Z" fill="#3F2355"/>
<path d="M143.737 52.6133L143.865 53.4648H143.703V52.6133H143.737Z" fill="#3F2355"/>
<path d="M143.602 50.2207H144.683L144.807 51.0723H143.725L143.602 50.2207Z" fill="#3F2355"/>
<path d="M143.737 52.6136L143.516 51.0723H143.729L143.95 52.6136H143.737Z" fill="#3F2355"/>
<path d="M143.62 64.2109H144.471C144.471 64.3514 144.471 64.4962 144.441 64.6367H143.59C143.608 64.4955 143.618 64.3533 143.62 64.2109Z" fill="#3F2355"/>
<path d="M143.514 51.0723L143.387 50.2207H143.604L143.727 51.0723H143.514Z" fill="#3F2355"/>
<path d="M143.301 51.0723H143.514L143.735 52.6136H143.701V53.4652H143.863L144.085 55.0107H143.936L143.94 55.4706L143.297 51.0723H143.301Z" fill="#3F2355"/>
<path d="M143.467 41.5215L143.352 40.6699H143.658V41.5215H143.467Z" fill="#3F2355"/>
<path d="M143.386 50.2207L143.514 51.0723H143.301V50.2207H143.386Z" fill="#3F2355"/>
<path d="M143.246 47.7559H144.34L144.464 48.6074H143.374L143.246 47.7559Z" fill="#3F2355"/>
<path d="M143.387 50.2211L143.152 48.6074H143.374L143.604 50.2211H143.387Z" fill="#3F2355"/>
<path d="M142.883 59.9241C142.96 59.8195 143.059 59.7324 143.172 59.6686L143.883 59.5664L143.913 59.7793L142.883 59.9241Z" fill="#3F2355"/>
<path d="M143.15 48.6074L143.031 47.7559H143.244L143.372 48.6074H143.15Z" fill="#3F2355"/>
<path d="M143.295 51.0727L142.934 48.6074H143.151L143.385 50.2211H143.3V51.0727H143.295Z" fill="#3F2355"/>
<path d="M143.064 59.6862L143.004 59.286C143.07 59.2539 143.138 59.2269 143.208 59.2051L143.242 59.4435L143.877 59.3498L143.907 59.5627H143.613C143.465 59.5619 143.319 59.5969 143.187 59.6649L143.064 59.6862Z" fill="#3F2355"/>
<path d="M143.596 64.2129C143.362 64.2118 143.138 64.118 142.973 63.952C142.808 63.7861 142.715 63.5614 142.715 63.3273V60.4618C142.715 60.2737 142.775 60.0904 142.885 59.9381L143.92 59.7891L143.954 60.002H143.596C143.475 60.0031 143.359 60.052 143.274 60.1381C143.188 60.2243 143.141 60.3406 143.141 60.4618V63.3401C143.14 63.4003 143.151 63.46 143.174 63.5157C143.197 63.5715 143.23 63.6222 143.273 63.665C143.315 63.7077 143.365 63.7417 143.421 63.7648C143.476 63.788 143.536 63.7999 143.596 63.7999H144.469C144.469 63.9404 144.469 64.0852 144.469 64.2257H144.392L143.617 64.2044V64.2257L143.596 64.2129Z" fill="#3F2355"/>
<path d="M143.008 38.1921L143.276 38.1836L143.297 39.0352L143.123 39.0394L143.008 38.1921Z" fill="#3F2355"/>
<path d="M142.695 70.1522C142.927 69.929 143.106 69.657 143.219 69.356L144.262 65.6177C144.35 65.2969 144.409 64.9693 144.441 64.6384H144.675C144.896 64.6384 145.112 64.5827 145.305 64.4766C145.28 64.9387 145.206 65.3968 145.084 65.8433L144.041 69.5859C143.901 70.0041 143.666 70.3843 143.355 70.6972C143.249 70.8164 143.138 70.9442 143.027 71.0932L142.772 71.4381H142.734L142.891 70.8803L143.061 70.2544L142.695 70.1522Z" fill="#3F2355"/>
<path d="M143.003 46.0742L142.875 45.2227H143.991L144.106 46.0742H143.003Z" fill="#3F2355"/>
<path d="M143.032 47.7561L142.785 46.0742H143.002L143.245 47.7561H143.032Z" fill="#3F2355"/>
<path d="M142.906 48.377L142.936 48.6069H142.906V48.377Z" fill="#3F2355"/>
<path d="M142.906 47.7559H143.034L143.153 48.6074H142.936L142.906 48.3775V48.3732V47.7559Z" fill="#3F2355"/>
<path d="M142.866 59.9281L142.789 59.4129C142.851 59.3654 142.917 59.3227 142.985 59.2852L143.045 59.6854H143.172C143.059 59.7492 142.96 59.8363 142.883 59.9409L142.866 59.9281Z" fill="#3F2355"/>
<path d="M142.672 35.8301H142.983L143.013 36.6816H142.795L142.672 35.8301Z" fill="#3F2355"/>
<path d="M142.788 46.0742L142.664 45.2227H142.877L143.005 46.0742H142.788Z" fill="#3F2355"/>
<path d="M142.902 48.3734L142.57 46.0742H142.783L143.03 47.7561H142.902V48.3734Z" fill="#3F2355"/>
<path d="M142.287 60.4604C142.287 60.2612 142.332 60.0647 142.419 59.8855C142.506 59.7063 142.633 59.5492 142.789 59.4258L142.866 59.941C142.755 60.0933 142.696 60.2765 142.695 60.4647V61.0736H142.27L142.287 60.4604Z" fill="#3F2355"/>
<path d="M143.588 64.6375C143.242 64.6341 142.912 64.4944 142.669 64.2489C142.425 64.0033 142.289 63.6717 142.289 63.3261V61.0566H142.715V63.3261C142.715 63.5602 142.808 63.7848 142.973 63.9508C143.138 64.1167 143.362 64.2106 143.596 64.2117H143.622C143.619 64.3542 143.608 64.4963 143.588 64.6375Z" fill="#3F2355"/>
<path d="M142.578 43.1523H143.702L143.817 44.0039H142.697L142.578 43.1523Z" fill="#3F2355"/>
<path d="M88.7266 68.3929C88.9837 68.3929 89.2369 68.3306 89.4646 68.2112C89.6923 68.0918 89.8876 67.9189 90.0337 67.7073C90.4595 67.5651 90.8301 67.2932 91.0935 66.9298C91.3569 66.5663 91.5 66.1295 91.5027 65.6806V61.0566H142.286V63.3261C142.286 63.6717 142.422 64.0033 142.665 64.2489C142.908 64.4944 143.239 64.6341 143.584 64.6375C143.555 64.8919 143.507 65.1439 143.439 65.3911L142.396 69.1295C142.309 69.287 142.198 69.4305 142.068 69.5552L141.932 69.7128H141.242L141.021 69.6489V69.7128H122.712V69.6872C122.585 69.4914 122.448 69.2955 122.287 69.0996C121.463 68.018 120.434 67.1092 119.258 66.4253C118.083 65.7414 116.785 65.2958 115.437 65.1139C114.09 64.932 112.719 65.0175 111.405 65.3653C110.09 65.7131 108.857 66.3165 107.776 67.1411C106.904 67.8004 106.145 68.597 105.528 69.4999H88.7266V68.3929Z" fill="white"/>
<path d="M142.663 45.2216L142.484 44.0039H142.697L142.876 45.2216H142.663Z" fill="#3F2355"/>
<path d="M142.806 70.4036L142.546 70.3312L142.695 70.1523L143.069 70.2588L142.891 70.8804L142.733 71.4382H142.512L142.686 70.8208L142.806 70.4036Z" fill="#3F2355"/>
<path d="M142.445 45.2227H142.662L142.786 46.0742H142.573L142.445 45.2227Z" fill="#3F2355"/>
<path d="M142.514 71.4371H142.297L142.544 70.5515L142.403 70.5089C142.448 70.4466 142.496 70.3869 142.548 70.3301L142.808 70.4025L142.689 70.8282L142.514 71.4371Z" fill="#3F2355"/>
<path d="M142.483 44.0039L142.363 43.1523H142.576L142.695 44.0039H142.483Z" fill="#3F2355"/>
<path d="M142.455 34.2578L142.34 33.4062H142.642V34.2578H142.455Z" fill="#3F2355"/>
<path d="M142.444 45.2216L142.266 44.0039H142.483L142.662 45.2216H142.444Z" fill="#3F2355"/>
<path d="M142.572 46.0742H142.367V45.2227H142.444L142.572 46.0742Z" fill="#3F2355"/>
<path d="M141.931 70.377L142.403 70.5089L142.344 70.5856H141.871L141.931 70.377Z" fill="#3F2355"/>
<path d="M142.211 40.6699H143.352L143.467 41.5215H142.339L142.211 40.6699Z" fill="#3F2355"/>
<path d="M142.363 43.1522L142.125 41.5215H142.338L142.576 43.1522H142.363Z" fill="#3F2355"/>
<path d="M125.746 79.3272V78.6971L138.916 78.7226L140.964 71.4375H142.292L139.887 80L125.742 79.9744L125.746 79.3272Z" fill="#3F2355"/>
<path d="M94.0074 50.2419C94.0074 50.5807 94.1419 50.9056 94.3815 51.1451C94.621 51.3847 94.9459 51.5193 95.2847 51.5193H105.81C106.149 51.5193 106.474 51.3847 106.713 51.1451C106.953 50.9056 107.087 50.5807 107.087 50.2419V39.227H111.345L111.409 50.2419C111.409 50.5807 111.544 50.9056 111.783 51.1451C112.023 51.3847 112.348 51.5193 112.686 51.5193H137.033C137.371 51.5193 137.696 51.3847 137.936 51.1451C138.175 50.9056 138.31 50.5807 138.31 50.2419L138.225 38.5968H138.169V37.9496H94.0074V50.2419ZM142.287 61.0568H91.5038V40.3127C91.4904 39.7303 91.2467 39.177 90.8261 38.774C90.4055 38.371 89.8423 38.1511 89.2599 38.1625H81.3233C80.7409 38.1511 80.1778 38.371 79.7572 38.774C79.3366 39.177 79.0929 39.7303 79.0795 40.3127V61.0568H76.1501L76.1118 43.9233C76.114 43.4313 76.0193 42.9436 75.8331 42.4882C75.6469 42.0327 75.3727 41.6184 75.0264 41.2689C74.68 40.9194 74.2682 40.6415 73.8145 40.4511C73.3608 40.2608 72.874 40.1616 72.3819 40.1594H53.5922C53.1573 40.1598 52.728 40.0611 52.337 39.8708C51.946 39.6804 51.6035 39.4035 51.3356 39.0609C51.0519 38.701 50.8538 38.2813 50.7564 37.8335C50.6591 37.3857 50.6649 36.9216 50.7735 36.4764C50.7871 36.4131 50.8042 36.3505 50.8246 36.2891H139.43L142.789 59.4132C142.633 59.5366 142.506 59.6938 142.419 59.873C142.332 60.0521 142.287 60.2487 142.287 60.4479V61.0568Z" fill="white"/>
<path d="M142.145 43.1523H142.362L142.481 44.0039H142.264L142.145 43.1523Z" fill="#3F2355"/>
<path d="M142.149 43.1523L142.268 44.0039H142.141V43.1523H142.149Z" fill="#3F2355"/>
<path d="M142 40.6699H142.213L142.341 41.5215H142.128L142 40.6699Z" fill="#3F2355"/>
<path d="M142.127 41.5215L142.366 43.1522H142.149L141.91 41.5215H142.127Z" fill="#3F2355"/>
<path d="M141.991 70.1678H141.105L141.174 69.9336L141.991 70.1678Z" fill="#3F2355"/>
<path d="M142 40.6716L141.766 39.0749L141.979 39.0664L142.213 40.6716H142Z" fill="#3F2355"/>
<path d="M141.975 39.0662L141.855 38.2189L143.005 38.1934L143.12 39.0407L141.975 39.0662Z" fill="#3F2355"/>
<path d="M141.93 70.3766L141.989 70.168L142.547 70.3298C142.495 70.3866 142.447 70.4463 142.402 70.5086L141.93 70.3766Z" fill="#3F2355"/>
<path d="M141.246 69.7355H141.936L142.072 69.5779C142.202 69.4532 142.313 69.3097 142.4 69.1521L143.443 65.4138C143.51 65.1666 143.559 64.9146 143.588 64.6602H144.439C144.408 64.9911 144.348 65.3187 144.261 65.6395L143.217 69.3778C143.104 69.6788 142.925 69.9508 142.694 70.174L141.246 69.7355Z" fill="#3F2355"/>
<path d="M141.203 70.5867L141.314 70.1992L141.927 70.378L141.867 70.5867H141.203Z" fill="#3F2355"/>
<path d="M141.855 41.1562L141.907 41.5224H141.855V41.1562Z" fill="#3F2355"/>
<path d="M142.297 71.438H140.969L141.207 70.5864H142.344L142.404 70.5098L142.544 70.5523L142.297 71.438Z" fill="#3F2355"/>
<path d="M141.911 41.5215L141.86 41.1553L141.852 40.6699H142.001L142.128 41.5215H141.911Z" fill="#3F2355"/>
<path d="M141.977 39.0661L141.764 39.0746L141.645 38.223L141.857 38.2188L141.977 39.0661Z" fill="#3F2355"/>
<path d="M141.998 40.6709H141.849L141.858 41.1563L141.547 39.0785L141.764 39.0742L141.998 40.6709Z" fill="#3F2355"/>
<path d="M141.631 36.6816L141.512 35.8301H142.67L142.793 36.6816H141.631Z" fill="#3F2355"/>
<path d="M141.418 36.6816H141.631L141.857 38.2187L141.644 38.223L141.418 36.6816Z" fill="#3F2355"/>
<path d="M141.509 39.0784L141.496 38.7207L141.547 39.0784H141.509Z" fill="#3F2355"/>
<path d="M141.492 38.2269L141.645 38.2227L141.765 39.0742L141.548 39.0785L141.496 38.7208L141.492 38.2269Z" fill="#3F2355"/>
<path d="M141.309 35.9316L141.419 36.681H141.309V35.9316Z" fill="#3F2355"/>
<path d="M141.513 35.8301L141.632 36.6816H141.419L141.309 35.9323V35.8301H141.513Z" fill="#3F2355"/>
<path d="M141.156 33.4062H142.34L142.455 34.2578H141.28L141.156 33.4062Z" fill="#3F2355"/>
<path d="M141.066 34.2578H141.279L141.513 35.8289H141.309V35.9311L141.066 34.2578Z" fill="#3F2355"/>
<path d="M141.242 69.7338H141.004L141.017 69.6699L141.242 69.7338Z" fill="#3F2355"/>
<path d="M140.988 70.5852L141.103 70.168H141.989L141.925 70.3766L141.312 70.1978L141.201 70.5852H140.988Z" fill="#3F2355"/>
<path d="M140.989 70.5859H141.202L140.963 71.4375H140.746L140.989 70.5859Z" fill="#3F2355"/>
<path d="M141.016 33.8828L141.067 34.2575H141.016V33.8828Z" fill="#3F2355"/>
<path d="M141.156 33.4062L141.28 34.2578H141.067L141.016 33.8831V33.4062H141.156Z" fill="#3F2355"/>
<path d="M141.108 70.168H140.883L141.006 69.7422H141.245L142.697 70.168L142.548 70.3468L141.99 70.185L141.172 69.9508L141.108 70.168Z" fill="#3F2355"/>
<path d="M141.106 70.168L140.991 70.5852H140.77L140.885 70.168H141.106Z" fill="#3F2355"/>
<path d="M140.758 30.6563H141.558C141.911 30.6615 142.25 30.7934 142.513 31.0279C142.777 31.2625 142.947 31.584 142.993 31.9337L146.723 58.6174L145.871 58.7323L145.471 55.8668H145.795V55.0153H145.369L145.152 53.4697H145.578V52.6181H145.024L144.807 51.0938H145.19V50.2423H144.705L144.479 48.6286H144.764V47.777H144.339L144.104 46.0739H144.236V45.2223H143.985L143.815 44.0046H144.007V43.153H143.696L143.487 41.5223H143.679V40.6707H143.368L143.142 39.04H143.312V38.1884H143.04L142.827 36.6769H143.044L143.019 35.8253H142.708L142.491 34.2542H142.636V33.4026H142.329L142.137 32.0444C142.121 31.9004 142.054 31.7671 141.947 31.6686C141.841 31.5701 141.703 31.5131 141.558 31.5079H140.886L140.762 30.6563C140.761 30.6562 140.759 30.6562 140.758 30.6563Z" fill="#3F2355"/>
<path d="M141.017 33.8846L140.672 31.5215H140.885L141.157 33.4077H141.017V33.8846Z" fill="#3F2355"/>
<path d="M140.523 71.4375L140.766 70.5859H140.988L140.745 71.4375H140.523Z" fill="#3F2355"/>
<path d="M140.59 30.6562H140.761L140.884 31.5078H140.667L140.586 30.9415L140.59 30.6562Z" fill="#3F2355"/>
<path d="M140.59 30.9551L140.671 31.5214H140.59V30.9551Z" fill="#3F2355"/>
<path d="M143.189 59.2046L139.859 36.2891H140.507L140.532 36.4679L140.877 38.8437L141.23 41.3005L141.592 43.7828L141.89 45.8521L142.261 48.4068L142.618 50.8763L142.968 53.2777L143.312 55.6578L143.823 59.1663H143.593C143.457 59.1554 143.321 59.1684 143.189 59.2046Z" fill="#3F2355"/>
<path d="M139.862 36.2891L143.191 59.2046C143.121 59.2264 143.053 59.2534 142.987 59.2855L139.645 36.2933L139.862 36.2891Z" fill="#3F2355"/>
<path d="M139.658 36.2894L143.001 59.2816C142.932 59.3192 142.867 59.3619 142.805 59.4093L139.445 36.2852L139.658 36.2894Z" fill="#3F2355"/>
<path d="M77.9933 24.5972C78.4029 24.5475 78.8163 24.536 79.2281 24.5631L135.857 28.3611C136.553 28.4162 137.209 28.7069 137.718 29.1853C138.227 29.6637 138.557 30.3011 138.654 30.9924L139.425 36.2891H50.8242C50.8412 36.2466 50.8583 36.1997 50.8753 36.1486L53.0042 30.3708C53.2966 29.5532 53.8092 28.8323 54.4854 28.2876C55.1616 27.7428 55.9752 27.3955 56.8363 27.2839L77.9933 24.5972Z" fill="white"/>
<path d="M137.613 38.5882L138.197 38.584V39.2269H137.618L137.613 38.5882Z" fill="#3F2355"/>
<path d="M136.977 39.2266L136.973 38.5921L137.611 38.5879L137.616 39.2266H136.977Z" fill="#3F2355"/>
<path d="M136.977 39.2266L137.058 50.2458L112.72 50.2373L112.652 39.2266H136.977Z" fill="#DEDFE0"/>
<path d="M133.348 26.4886V26.2715L135.992 26.4503C137.123 26.5353 138.192 27.0034 139.022 27.7775C139.852 28.5515 140.393 29.5852 140.556 30.7081L140.59 30.9423V31.5086H140.671L141.016 33.8717V34.2464H141.071L141.314 35.9197V36.6691H141.425L141.646 38.2104H141.493V38.7043L140.335 30.7337C140.182 29.6571 139.666 28.6651 138.872 27.9218C138.078 27.1785 137.055 26.7285 135.97 26.6462L133.348 26.4886Z" fill="#3F2355"/>
<path d="M133.348 26.2715V26.0586L136.009 26.2374C137.185 26.3253 138.296 26.8107 139.16 27.6139C140.023 28.4172 140.588 29.4903 140.761 30.657H140.59V30.9423L140.556 30.7081C140.393 29.5852 139.852 28.5515 139.022 27.7775C138.192 27.0034 137.123 26.5353 135.992 26.4503L133.348 26.2715Z" fill="#3F2355"/>
<path d="M133.348 24.7598V26.0584L132.496 26.003V24.764L133.348 24.7598Z" fill="#3F2355"/>
<path d="M133.348 24.291V24.7594L132.496 24.7636V24.291H133.348Z" fill="#3F2355"/>
<path d="M132.91 27.0931L132.484 27.0633V26.9355H133.336V26.5098L135.967 26.6843C137.052 26.7666 138.075 27.2167 138.869 27.96C139.662 28.7033 140.178 29.6953 140.332 30.7718L141.49 38.7425V39.1001H141.532L141.839 41.1779V41.5441H141.89L142.128 43.1748V44.0264H142.256L142.431 45.2441H142.354V46.0957H142.558L142.89 48.3949V48.6248H142.925L143.282 51.0901L143.925 55.4884V55.8802H143.98L144.457 59.1544H143.81L143.299 55.646L142.954 53.2659L142.605 50.8645L142.248 48.3949L141.877 45.8402L141.579 43.7709L141.234 41.3014L140.877 38.8574L140.532 36.4816L140.506 36.3027L139.765 31.1934L139.714 30.8357C139.586 29.9019 139.141 29.0404 138.453 28.3956C137.766 27.7507 136.878 27.3615 135.937 27.2932L132.91 27.0931Z" fill="#3F2355"/>
<path d="M133.348 26.4873V26.9344H132.496V26.4277L133.348 26.4873Z" fill="#3F2355"/>
<path d="M133.348 26.0573V26.2702L132.496 26.2148V26.002L133.348 26.0573Z" fill="#3F2355"/>
<path d="M133.348 26.2702V26.4873L132.496 26.4277V26.2148L133.348 26.2702Z" fill="#3F2355"/>
<path d="M125.748 78.6971V79.3272H125.535V78.4842L138.756 78.5097L140.748 71.4375H140.965L138.917 78.7226L125.748 78.6971Z" fill="#3F2355"/>
<path d="M125.74 79.9744L139.885 80L142.29 71.4375H142.507L140.046 80.2171L125.527 80.1873L125.532 79.3272H125.744L125.74 79.9744Z" fill="#3F2355"/>
<path d="M138.754 78.5097L125.533 78.4842V79.3272H125.32V78.2713L138.596 78.2968L140.525 71.4375H140.746L138.754 78.5097Z" fill="#3F2355"/>
<path d="M125.529 80.1873L140.048 80.2171L142.509 71.4375H142.735L140.21 80.43L125.316 80.4002L125.321 79.3272H125.534L125.529 80.1873Z" fill="#3F2355"/>
<path d="M123.599 71.4375C123.481 71.1469 123.347 70.8627 123.199 70.5859H140.767L140.524 71.4375H123.599Z" fill="#3F2355"/>
<path d="M122.676 71.4375H123.6C124.645 73.9635 124.645 76.8012 123.6 79.3272H122.672C123.239 78.0895 123.532 76.7442 123.533 75.3828C123.534 74.0215 123.242 72.6759 122.676 71.4375Z" fill="#3F2355"/>
<path d="M122.969 70.168H140.881L140.766 70.5938H123.199C123.126 70.4447 123.05 70.3042 122.969 70.168Z" fill="#3F2355"/>
<path d="M122.23 70.5859V70.1602H122.971C123.052 70.2964 123.129 70.4369 123.201 70.5859H122.23Z" fill="#3F2355"/>
<path d="M122.703 69.7344H141.012L140.888 70.1602H122.971C122.889 70.0138 122.8 69.8717 122.703 69.7344Z" fill="#3F2355"/>
<path d="M122.971 70.168H122.23V69.7422H122.703C122.798 69.8796 122.886 70.0217 122.967 70.168H122.971Z" fill="#3F2355"/>
<path d="M121.73 79.3223L122.68 79.3265H121.73V79.3223Z" fill="#3F2355"/>
<path d="M122.678 71.4375C122.541 71.148 122.392 70.8627 122.23 70.5859H123.201C123.349 70.8627 123.483 71.1469 123.601 71.4375H122.678Z" fill="#3F2355"/>
<path d="M122.23 70.5859C122.392 70.8627 122.541 71.148 122.678 71.4375H122.23V70.5859Z" fill="#3F2355"/>
<path d="M121.969 70.168H122.228V70.5938C122.148 70.4447 122.062 70.3042 121.969 70.168Z" fill="#3F2355"/>
<path d="M120.977 83.0703C131.984 83.4152 138.928 83.9219 138.928 84.4839C138.928 85.1566 128.995 85.7612 114.062 86.0806V85.757C116.324 85.7548 118.521 85.0064 120.313 83.6281C120.534 83.4535 120.76 83.2747 120.977 83.0703Z" fill="#DEDFE0"/>
<path d="M121.496 71.0195C122.198 72.2164 122.602 73.565 122.672 74.9511C122.743 76.3371 122.478 77.7197 121.9 78.9816C121.849 79.0966 121.794 79.2116 121.734 79.3223H118.004C118.95 78.3671 119.518 77.1022 119.604 75.761C119.69 74.4197 119.288 73.0926 118.473 72.0244C118.036 71.4459 117.489 70.9597 116.863 70.5938H121.223L121.266 70.6576C121.347 70.7683 121.419 70.8875 121.496 71.0195Z" fill="#DEDFE0"/>
<path d="M121.223 70.5859H122.228V71.4375H122.675C123.241 72.6756 123.534 74.021 123.534 75.3824C123.534 76.7437 123.241 78.0891 122.675 79.3272H121.729C121.789 79.2165 121.844 79.1016 121.895 78.9866C122.473 77.7247 122.738 76.3421 122.668 74.956C122.597 73.57 122.194 72.2213 121.491 71.0245C121.414 70.8925 121.342 70.7733 121.261 70.6541L121.223 70.5859Z" fill="#3F2355"/>
<path d="M121.224 70.5859C121.122 70.4369 121.028 70.3007 120.926 70.1602H121.969C122.063 70.2964 122.148 70.4369 122.229 70.5859H121.224Z" fill="#3F2355"/>
<path d="M120.719 25.4281V25.2109L132.496 26.0029V26.2158L120.719 25.4281Z" fill="#3F2355"/>
<path d="M120.719 25.6364V25.4277L132.496 26.2154V26.4283L120.719 25.6364Z" fill="#3F2355"/>
<path d="M119.871 24.8262H120.723V25.2179L119.871 25.1625V24.8262Z" fill="#3F2355"/>
<path d="M120.718 26.2498V25.6367L132.495 26.4287V26.9354L132.482 27.0631L120.348 26.2498H120.718Z" fill="#3F2355"/>
<path d="M120.297 24.8223H119.871V24.3965H120.723V24.8223H120.297Z" fill="#3F2355"/>
<path d="M119.867 25.5801L120.719 25.6354V26.2486H120.348H120.327H120.293L119.867 26.2187V25.5801Z" fill="#3F2355"/>
<path d="M119.867 25.1543L120.719 25.2096V25.4268L119.867 25.3672V25.1543Z" fill="#3F2355"/>
<path d="M119.867 25.3672L120.719 25.4268V25.6354L119.867 25.5801V25.3672Z" fill="#3F2355"/>
<path d="M119.867 26.2188L120.293 26.2486L119.867 26.2528V26.2188Z" fill="#3F2355"/>
<path d="M119.789 82.9581C121.042 82.0092 122.036 80.7602 122.68 79.3262H123.608C123.561 79.4454 123.51 79.5604 123.455 79.6796C122.875 80.9753 122.031 82.1356 120.977 83.0858L119.699 83.0475L119.789 82.9581Z" fill="#3F2355"/>
<path d="M119.691 83.0266L118.184 82.984C119.71 82.1514 120.947 80.8743 121.73 79.3223H122.68C122.036 80.7563 121.042 82.0053 119.789 82.9542L119.691 83.0266Z" fill="#3F2355"/>
<path d="M116.865 70.5854C116.604 70.4314 116.331 70.299 116.048 70.1895H115.988H120.923C121.025 70.3214 121.119 70.4577 121.221 70.6152L116.865 70.5854Z" fill="#DEDFE0"/>
<path d="M115.895 70.5859H116.865C117.491 70.9519 118.038 71.4381 118.475 72.0166C119.29 73.0848 119.692 74.4119 119.606 75.7531C119.52 77.0944 118.952 78.3593 118.006 79.3145H117.389C118.067 78.7343 118.583 77.9881 118.887 77.1487C119.19 76.3094 119.27 75.4056 119.12 74.5259C118.969 73.6462 118.593 72.8207 118.027 72.1301C117.462 71.4394 116.727 70.9074 115.895 70.5859Z" fill="#3F2355"/>
<path d="M116.686 79.3146H116.665H111.402L111.359 79.2891L116.686 79.3146Z" fill="white"/>
<path d="M119.871 25.3684L112.25 24.8574H115.265L119.871 25.1682V25.3684Z" fill="#3F2355"/>
<path d="M115.892 70.5852C115.297 70.3553 114.665 70.237 114.027 70.2361V70.168H115.986H116.046C116.328 70.2775 116.602 70.4099 116.863 70.5639L115.892 70.5852Z" fill="#3F2355"/>
<path d="M116.665 79.3262C115.887 79.8479 114.971 80.1264 114.034 80.1264C113.097 80.1264 112.181 79.8479 111.402 79.3262H116.665Z" fill="white"/>
<path d="M107.145 70.168C107.951 69.1096 108.992 68.2516 110.184 67.6608C111.377 67.07 112.69 66.7623 114.021 66.7617C114.414 66.7611 114.807 66.7882 115.196 66.8426C116.322 66.9871 117.408 67.3539 118.392 67.9219C119.375 68.4898 120.235 69.2475 120.923 70.1509H115.984C114.722 69.6784 113.332 69.6784 112.071 70.1509L107.145 70.168Z" fill="#DEDFE0"/>
<path d="M109.447 76.5729L109.022 76.6836C108.82 75.8989 108.806 75.0779 108.98 74.2866C109.154 73.4954 109.511 72.7559 110.022 72.1278L110.35 72.4003C110.466 72.259 110.591 72.1253 110.725 72.0001L110.929 71.8084C110.997 71.7488 111.07 71.6935 111.151 71.6339C111.502 71.3631 111.891 71.1438 112.304 70.9824C113.347 70.5797 114.497 70.5584 115.554 70.9223C116.61 71.2862 117.503 72.0119 118.076 72.971C118.649 73.9302 118.864 75.061 118.684 76.1635C118.503 77.266 117.939 78.2691 117.09 78.9956L116.882 79.1659L116.669 79.315H111.342C111.194 79.2161 111.051 79.1081 110.916 78.9914C110.667 78.7782 110.441 78.5383 110.244 78.2761C110.201 78.2164 110.154 78.1611 110.095 78.0632C110.06 78.0166 110.027 77.9683 109.997 77.9184L109.975 77.8886C109.784 77.577 109.63 77.244 109.516 76.8965C109.503 76.7816 109.473 76.6751 109.447 76.5729Z" fill="white"/>
<path d="M110.066 79.3262C110.169 79.4326 110.275 79.5305 110.382 79.6242C111.352 80.4582 112.578 80.9349 113.857 80.9752C115.136 81.0155 116.39 80.6169 117.411 79.8456C117.501 79.7775 117.59 79.7051 117.667 79.637C117.783 79.5411 117.893 79.4372 117.995 79.3262H121.733C120.949 80.8782 119.712 82.1553 118.186 82.9879C115.499 82.9155 112.608 82.8516 109.551 82.7963C108.622 82.2379 107.808 81.5065 107.154 80.6418C106.841 80.2281 106.565 79.7879 106.328 79.3262H110.066Z" fill="#DEDFE0"/>
<path d="M115.894 70.5875H112.168C113.366 70.1219 114.695 70.1219 115.894 70.5875Z" fill="#3F2355"/>
<path d="M112.648 38.5879H137.612L136.973 38.5921L136.978 39.2266H112.653L112.648 38.5879Z" fill="#3F2355"/>
<path d="M112.083 50.2422L112.02 39.2273H112.658L112.722 50.238H137.064L136.983 39.2188H137.622L137.703 50.2252C137.704 50.31 137.688 50.3942 137.657 50.4729C137.625 50.5516 137.578 50.6233 137.519 50.6838C137.46 50.7444 137.389 50.7926 137.311 50.8257C137.233 50.8588 137.149 50.8761 137.064 50.8766H112.718C112.55 50.8755 112.389 50.8083 112.27 50.6896C112.152 50.5709 112.085 50.4101 112.083 50.2422Z" fill="#3F2355"/>
<path d="M112.074 70.1688C113.336 69.6963 114.726 69.6963 115.987 70.1688H112.074Z" fill="#3F2355"/>
<path d="M112.655 39.2266H112.016L112.012 38.5879H112.65L112.655 39.2266Z" fill="#3F2355"/>
<path d="M111.443 50.2419L111.379 39.2269H112.018L112.081 50.2419C112.081 50.3257 112.097 50.4089 112.128 50.4866C112.16 50.5643 112.207 50.635 112.265 50.6947C112.324 50.7544 112.395 50.8019 112.472 50.8346C112.549 50.8672 112.632 50.8842 112.716 50.8848H137.062C137.147 50.8842 137.231 50.8669 137.309 50.8338C137.387 50.8007 137.458 50.7525 137.517 50.692C137.576 50.6314 137.623 50.5597 137.655 50.481C137.686 50.4023 137.702 50.3181 137.701 50.2334L137.62 39.2269H138.199V38.584H138.254L138.339 50.2291C138.339 50.5679 138.205 50.8928 137.965 51.1323C137.726 51.3719 137.401 51.5064 137.062 51.5064H112.716C112.38 51.5053 112.058 51.372 111.82 51.1353C111.582 50.8987 111.446 50.5777 111.443 50.2419Z" fill="#3F2355"/>
<path d="M111.199 70.5854C111.458 70.4289 111.73 70.2963 112.012 70.1895H112.072H114.026V70.2533C113.39 70.2537 112.759 70.3721 112.166 70.6025L111.199 70.5854Z" fill="#3F2355"/>
<path d="M112.014 39.2264H111.375L111.371 38.4473H112.648V38.5878H112.01L112.014 39.2264Z" fill="#3F2355"/>
<path d="M111.375 39.2266H107.121V37.9492H138.195V38.5836L137.611 38.5879H112.648V38.4474H111.37L111.375 39.2266Z" fill="#3F2355"/>
<path d="M111.4 79.3263H110.702L110.672 79.3008H111.37L111.4 79.3263Z" fill="#3F2355"/>
<path d="M117.159 79.5007C116.223 80.2134 115.071 80.5847 113.894 80.5529C112.718 80.5212 111.588 80.0883 110.691 79.3262H111.402C112.181 79.8479 113.097 80.1264 114.034 80.1264C114.971 80.1264 115.887 79.8479 116.665 79.3262H117.372C117.304 79.3858 117.236 79.4454 117.159 79.5007Z" fill="#3F2355"/>
<path d="M110.378 79.6203C110.271 79.5266 110.165 79.4287 110.062 79.3223H110.701C111.598 80.0844 112.728 80.5172 113.904 80.549C115.081 80.5807 116.232 80.2095 117.169 79.4968C117.245 79.4415 117.314 79.3819 117.382 79.3223H118.003C117.901 79.4333 117.792 79.5372 117.675 79.6331C117.599 79.7012 117.509 79.7736 117.42 79.8417C116.399 80.613 115.145 81.0116 113.866 80.9713C112.587 80.931 111.361 80.4543 110.39 79.6203H110.378Z" fill="#3F2355"/>
<path d="M109.551 82.7969C112.608 82.8522 115.512 82.9161 118.186 82.9885C116.856 83.7166 115.358 84.0822 113.843 84.0485C112.327 84.0149 110.847 83.5832 109.551 82.7969Z" fill="#DEDFE0"/>
<path d="M110.703 79.3263H110.065L110.039 79.3008H110.661L110.703 79.3263Z" fill="#3F2355"/>
<path d="M110.039 72.1269C110.164 71.9769 110.297 71.8347 110.439 71.7011L110.52 71.6245L110.665 71.4925C110.742 71.4244 110.823 71.3605 110.908 71.2966C111.298 71.0015 111.728 70.7635 112.185 70.5898H115.911C116.743 70.9113 117.478 71.4434 118.043 72.134C118.609 72.8246 118.985 73.6501 119.136 74.5298C119.286 75.4095 119.206 76.3133 118.903 77.1526C118.599 77.992 118.083 78.7382 117.405 79.3184H116.703L116.915 79.1693L117.124 78.999C118.044 78.2144 118.628 77.1074 118.757 75.9054C118.886 74.7035 118.55 73.4977 117.818 72.5357C117.196 71.7184 116.325 71.1254 115.337 70.8458C114.349 70.5663 113.296 70.6154 112.338 70.9858C111.925 71.1472 111.536 71.3665 111.184 71.6373C111.104 71.6969 111.031 71.7522 110.963 71.8118L110.759 72.0034C110.625 72.1287 110.5 72.2624 110.384 72.4037L110.039 72.1269Z" fill="#3F2355"/>
<path d="M110.151 71.3864C110.219 71.3183 110.3 71.2416 110.389 71.165L110.653 70.9521C110.829 70.8189 111.012 70.6966 111.203 70.5859H112.169C111.712 70.7596 111.282 70.9976 110.892 71.2927C110.807 71.3566 110.726 71.4205 110.649 71.4886L110.504 71.6206L110.423 71.6972C110.281 71.8308 110.148 71.973 110.023 72.123L109.695 71.8505C109.837 71.6865 109.99 71.5315 110.151 71.3864Z" fill="#3F2355"/>
<path d="M110.066 79.327H106.328C106.328 79.327 106.328 79.3057 106.328 79.293H110.058L110.066 79.327Z" fill="#DEDFE0"/>
<path d="M119.872 25.582L108.934 24.8496H109.785H112.246L119.868 25.3605L119.872 25.582Z" fill="#3F2355"/>
<path d="M119.693 83.0273C117.997 84.2856 115.93 84.9431 113.818 84.8961C111.706 84.8491 109.67 84.1002 108.031 82.7676L109.551 82.7931C110.847 83.5795 112.327 84.0112 113.843 84.0448C115.359 84.0784 116.856 83.7128 118.186 82.9847L119.693 83.0273Z" fill="#3F2355"/>
<path d="M110.037 79.3019H106.307C106.248 79.1869 106.192 79.0677 106.137 78.9485C105.569 77.685 105.314 76.3036 105.393 74.9208C105.471 73.5381 105.881 72.1944 106.588 71.0034C106.653 70.8847 106.724 70.7696 106.801 70.6585L106.835 70.6074H111.191C111.001 70.7181 110.817 70.8404 110.642 70.9736L110.378 71.1865C110.288 71.2631 110.207 71.3398 110.139 71.4079C109.988 71.5552 109.846 71.7116 109.714 71.8762L110.041 72.1487C109.53 72.7769 109.173 73.5164 108.999 74.3076C108.825 75.0989 108.84 75.9199 109.041 76.7046L108.615 76.8153C108.649 76.9345 108.687 77.0623 108.726 77.173C108.859 77.5867 109.042 77.9828 109.271 78.3524L109.296 78.3864L109.407 78.5525C109.462 78.6377 109.518 78.7186 109.582 78.8037C109.724 78.9782 109.876 79.1445 110.037 79.3019Z" fill="#DEDFE0"/>
<path d="M109.039 76.683L109.465 76.5723C109.49 76.6745 109.52 76.7809 109.554 76.8831C109.668 77.2306 109.823 77.5636 110.014 77.8752L110.035 77.905C110.066 77.9549 110.098 78.0032 110.133 78.0497C110.193 78.1477 110.24 78.203 110.282 78.2626C110.48 78.5249 110.705 78.7648 110.955 78.9779C111.09 79.0946 111.232 79.2027 111.381 79.3015H110.661C110.391 79.0681 110.145 78.807 109.929 78.5223C109.874 78.4527 109.823 78.3802 109.776 78.3052C109.725 78.2371 109.682 78.1689 109.635 78.0966C109.426 77.7589 109.259 77.3972 109.137 77.0193C109.099 76.9086 109.069 76.7979 109.039 76.683Z" fill="#3F2355"/>
<path d="M109.038 76.6836C109.068 76.7986 109.098 76.9093 109.136 77.02C109.258 77.3978 109.426 77.7595 109.634 78.0972C109.681 78.1696 109.724 78.2377 109.775 78.3058C109.822 78.3809 109.873 78.4533 109.928 78.523C110.144 78.8076 110.39 79.0688 110.661 79.3021H110.039C109.879 79.1378 109.728 78.9644 109.588 78.7827C109.524 78.6975 109.468 78.6166 109.413 78.5315L109.302 78.3654L109.277 78.3314C109.048 77.9618 108.865 77.5657 108.732 77.1519C108.693 77.0412 108.655 76.9135 108.621 76.7943L109.038 76.6836Z" fill="#3F2355"/>
<path d="M115.266 24.8446L105.66 24.2016C107.03 23.9881 108.419 23.9238 109.803 24.01C111.391 24.01 114.487 24.01 117.982 23.9845H120.299L130.547 23.9377L134.767 23.9121V24.7637H133.34V24.2953H132.489V24.7679H130.543L120.716 24.8105V24.3847H119.864V24.8105H117.978L115.266 24.8446Z" fill="#3F2355"/>
<path d="M112.639 85.6581C110.408 85.3621 108.336 84.3402 106.742 82.75L108.02 82.7713C109.658 84.1039 111.694 84.8528 113.806 84.8998C115.918 84.9469 117.985 84.2893 119.682 83.031L120.959 83.0693C120.742 83.2737 120.533 83.4568 120.286 83.6356C118.494 85.014 116.297 85.7623 114.036 85.7645C113.568 85.76 113.102 85.7244 112.639 85.6581Z" fill="#3F2355"/>
<path d="M107.142 70.168H112.072H112.013C111.73 70.2749 111.458 70.4074 111.2 70.5639H106.844C106.937 70.4405 107.035 70.3042 107.142 70.168Z" fill="#DEDFE0"/>
<path d="M106.484 38.5879V37.9492H107.123V39.2266H106.484V38.5879Z" fill="#3F2355"/>
<path d="M106.102 70.168H107.145C107.038 70.3042 106.94 70.4405 106.847 70.5938H106.055V70.2531C106.068 70.2237 106.084 70.1952 106.102 70.168Z" fill="#3F2355"/>
<path d="M106.473 81.1528C106.042 80.5868 105.676 79.9741 105.383 79.3262H106.328C106.565 79.7879 106.841 80.2281 107.154 80.6418C107.808 81.5065 108.622 82.2379 109.551 82.7963L108.031 82.7707C107.45 82.2947 106.927 81.7517 106.473 81.1528Z" fill="#3F2355"/>
<path d="M107.145 70.1686H106.102C106.688 69.2737 107.424 68.4859 108.277 67.8396C110.282 66.3119 112.811 65.6429 115.309 65.9799C117.806 66.3168 120.068 67.6321 121.596 69.6364C121.728 69.811 121.855 69.9898 121.97 70.1686H120.923C120.236 69.2628 119.377 68.5027 118.393 67.9325C117.41 67.3624 116.323 66.9935 115.196 66.8475C114.807 66.7931 114.414 66.766 114.021 66.7666C112.69 66.7672 111.377 67.0749 110.185 67.6657C108.992 68.2565 107.952 69.1144 107.145 70.1729V70.1686Z" fill="#3F2355"/>
<path d="M106.328 79.3274H105.383V79.2891H106.328C106.328 79.2891 106.324 79.3146 106.328 79.3274Z" fill="#3F2355"/>
<path d="M106.102 70.168C106.084 70.1911 106.069 70.2153 106.055 70.2403V70.168H106.102Z" fill="#3F2355"/>
<path d="M105.84 70.5851C105.904 70.4702 105.976 70.3509 106.053 70.2402V70.5851H105.84Z" fill="#3F2355"/>
<path d="M105.305 71.6504C105.334 71.578 105.364 71.5056 105.398 71.4375H105.824V70.5859H106.037V71.6504H105.305Z" fill="#3F2355"/>
<path d="M106.053 70.2528C105.976 70.3635 105.904 70.4827 105.84 70.5977V70.1719H106.053V70.2528Z" fill="#3F2355"/>
<path d="M105.845 39.2266L105.824 50.2458L95.2812 50.2288V39.2266H105.845Z" fill="#DEDFE0"/>
<path d="M105.842 70.168H105.629V70.5852H105.842V70.168Z" fill="#3F2355"/>
<path d="M105.842 70.5859C105.769 70.7137 105.697 70.8414 105.629 70.9691V70.5859H105.842Z" fill="#3F2355"/>
<path d="M106.052 69.5219H105.512C106.128 68.6191 106.888 67.8224 107.76 67.1631C108.841 66.3386 110.074 65.7352 111.389 65.3873C112.703 65.0395 114.073 64.9541 115.421 65.136C116.769 65.3179 118.067 65.7635 119.242 66.4474C120.418 67.1313 121.447 68.04 122.27 69.1217C122.42 69.3176 122.556 69.5134 122.696 69.7093V69.7348H122.224V70.1606H121.964C121.849 69.9818 121.721 69.803 121.589 69.6284C120.061 67.6241 117.8 66.3088 115.302 65.9719C112.804 65.6349 110.275 66.3039 108.271 67.8316C107.418 68.4779 106.682 69.2657 106.095 70.1606H106.048L106.052 69.5219Z" fill="#3F2355"/>
<path d="M112.249 24.8569L105.066 24.3757C105.258 24.2989 105.456 24.2404 105.658 24.2012L115.264 24.8441L112.249 24.8569Z" fill="#3F2355"/>
<path d="M105.628 70.9688V71.2242H105.496C105.539 71.1391 105.594 71.0539 105.628 70.9688Z" fill="#3F2355"/>
<path d="M105.367 69.7344H105.84V70.1602H105.627V69.9387H105.227L105.367 69.7344Z" fill="#3F2355"/>
<path d="M105.101 70.168H105.629V70.5938H104.871C104.943 70.4447 105.02 70.3042 105.101 70.168Z" fill="#3F2355"/>
<path d="M105.627 71.2246V70.9691C105.695 70.8414 105.767 70.7137 105.84 70.5859V71.4375H105.414C105.444 71.3651 105.478 71.297 105.512 71.2246H105.627Z" fill="#3F2355"/>
<path d="M105.495 71.2246H104.559C104.657 71.0075 104.759 70.7988 104.869 70.5859H105.627V70.9691C105.593 71.0543 105.538 71.1395 105.495 71.2246Z" fill="#3F2355"/>
<path d="M104.559 71.2246H105.495C105.461 71.297 105.427 71.3651 105.397 71.4375H104.465C104.499 71.3651 104.529 71.297 104.559 71.2246Z" fill="#3F2355"/>
<path d="M105.393 69.6961C105.431 69.6364 105.469 69.5768 105.512 69.5215H106.053V70.1687H105.84V69.7429H105.367L105.393 69.6961Z" fill="#3F2355"/>
<path d="M105.366 79.2889C104.826 78.0896 104.542 76.7911 104.532 75.4759C104.521 74.1608 104.785 72.8579 105.306 71.6504H106.056V70.5859H106.847L106.813 70.637C106.736 70.7481 106.665 70.8632 106.601 70.9819C105.894 72.173 105.484 73.5166 105.405 74.8994C105.326 76.2822 105.582 77.6636 106.149 78.927C106.205 79.0462 106.26 79.1654 106.319 79.2804L105.366 79.2889Z" fill="#3F2355"/>
<path d="M104.464 71.4375H105.396C105.362 71.5056 105.332 71.578 105.302 71.6504H104.383C104.408 71.578 104.438 71.5312 104.464 71.4375Z" fill="#3F2355"/>
<path d="M105.294 25.2114C105.379 25.1603 105.992 24.8197 108.93 24.8495L119.868 25.5818V26.2205L105.285 25.2455V25.2199L105.294 25.2114Z" fill="#3F2355"/>
<path d="M105.794 81.668C105.317 81.038 104.911 80.3568 104.585 79.637C104.538 79.5348 104.495 79.4284 104.457 79.3262H105.381C105.988 80.662 106.895 81.8404 108.029 82.7707L106.752 82.7495C106.408 82.4115 106.088 82.0501 105.794 81.668Z" fill="#3F2355"/>
<path d="M105.63 70.1676H105.102C105.136 70.1038 105.174 70.0356 105.221 69.959H105.621L105.63 70.1676Z" fill="#3F2355"/>
<path d="M105.066 24.375L112.249 24.8561H109.788H108.936L104.742 24.5623C104.841 24.4854 104.95 24.4224 105.066 24.375Z" fill="#3F2355"/>
<path d="M105.367 25.0243L104.516 24.9562C104.522 24.8792 104.545 24.8045 104.582 24.737C104.62 24.6694 104.671 24.6106 104.733 24.5645L108.931 24.8497C105.993 24.8199 105.38 25.1605 105.295 25.2116C105.339 25.1588 105.364 25.093 105.367 25.0243Z" fill="#3F2355"/>
<path d="M105.305 71.6504C104.784 72.8579 104.52 74.1608 104.53 75.4759C104.54 76.7911 104.825 78.0896 105.364 79.2889V79.3272H104.44C103.431 76.8771 103.405 74.132 104.368 71.6632L105.305 71.6504Z" fill="#3F2355"/>
<path d="M95.2871 39.2266V50.2415H105.829V39.2223L95.2871 39.2266ZM94.6484 38.5879H106.485V50.2415C106.485 50.4154 106.416 50.5822 106.293 50.7052C106.17 50.8281 106.003 50.8972 105.829 50.8972H95.3041C95.1302 50.8972 94.9635 50.8281 94.8405 50.7052C94.7175 50.5822 94.6484 50.4154 94.6484 50.2415V38.5879Z" fill="#3F2355"/>
<path d="M94.6444 38.1621V38.5879V39.0137H94.0312V38.1621H94.6444Z" fill="#3F2355"/>
<path d="M94.649 50.2415C94.649 50.4154 94.7181 50.5822 94.841 50.7052C94.964 50.8281 95.1308 50.8972 95.3047 50.8972H105.83C106.004 50.8972 106.171 50.8281 106.294 50.7052C106.417 50.5822 106.486 50.4154 106.486 50.2415V39.2266H107.124V50.2415C107.124 50.5803 106.99 50.9052 106.75 51.1447C106.511 51.3843 106.186 51.5189 105.847 51.5189H95.3047C94.9659 51.5189 94.641 51.3843 94.4015 51.1447C94.1619 50.9052 94.0273 50.5803 94.0273 50.2415V39.0137H94.666L94.649 50.2415Z" fill="#3F2355"/>
<path d="M106.484 38.5879H94.6426V38.1621H94.0295V39.0137H94.0039V37.9492H106.484V38.5879Z" fill="#3F2355"/>
<path d="M81.6038 41.2498C81.1826 41.2498 80.7786 41.4171 80.4808 41.715C80.183 42.0128 80.0156 42.4168 80.0156 42.838V40.3131C80.032 39.9855 80.1738 39.6768 80.4116 39.4509C80.6494 39.225 80.965 39.0992 81.293 39.0996H89.2423C89.5724 39.0993 89.8898 39.2269 90.1279 39.4555C90.3661 39.6841 90.5064 39.996 90.5197 40.3259V61.0571H90.2812V42.838C90.2812 42.4168 90.1139 42.0128 89.8161 41.715C89.5182 41.4171 89.1143 41.2498 88.693 41.2498H81.6038Z" fill="white"/>
<path d="M90.3164 61.0566H90.5548V65.6934C90.5539 65.9473 90.4702 66.1939 90.3164 66.3959V61.0566Z" fill="white"/>
<path d="M90.3167 61.0566V66.3959C90.1927 66.5578 90.0327 66.6885 89.8494 66.778C89.6662 66.8674 89.4647 66.913 89.2608 66.9111H81.3242C80.9955 66.9115 80.6793 66.7851 80.4414 66.5583C80.2035 66.3315 80.0622 66.0217 80.0469 65.6934V61.0566H90.3167Z" fill="white"/>
<path d="M90.0352 67.6988C90.2195 67.4341 90.3177 67.1188 90.3162 66.7962V66.3704C90.47 66.1684 90.5537 65.9217 90.5546 65.6679V61.0566H91.5041V65.6806C91.4997 66.128 91.3558 66.5629 91.0925 66.9247C90.8292 67.2865 90.4596 67.5571 90.0352 67.6988Z" fill="#3F2355"/>
<path d="M88.3516 56.5739V54.3301C88.3516 54.2172 88.3964 54.1089 88.4763 54.029C88.5561 53.9492 88.6644 53.9043 88.7773 53.9043C88.8903 53.9043 88.9986 53.9492 89.0784 54.029C89.1583 54.1089 89.2031 54.2172 89.2031 54.3301V56.5739C89.2031 56.6869 89.1583 56.7952 89.0784 56.875C88.9986 56.9549 88.8903 56.9997 88.7773 56.9997C88.6644 56.9997 88.5561 56.9549 88.4763 56.875C88.3964 56.7952 88.3516 56.6869 88.3516 56.5739Z" fill="#3F2355"/>
<path d="M88.7271 41.25C89.1483 41.25 89.5523 41.4173 89.8501 41.7152C90.148 42.013 90.3153 42.417 90.3153 42.8382V61.0573H80.0156V42.8382C80.0156 42.417 80.183 42.013 80.4808 41.7152C80.7786 41.4173 81.1826 41.25 81.6038 41.25H88.7271ZM89.1997 56.5781V54.33C89.1997 54.2171 89.1549 54.1088 89.075 54.0289C88.9952 53.9491 88.8869 53.9042 88.774 53.9042C88.661 53.9042 88.5527 53.9491 88.4729 54.0289C88.393 54.1088 88.3482 54.2171 88.3482 54.33V56.5739C88.3482 56.6868 88.393 56.7951 88.4729 56.8749C88.5527 56.9548 88.661 56.9997 88.774 56.9997C88.8869 56.9997 88.9952 56.9548 89.075 56.8749C89.1549 56.7951 89.1997 56.6868 89.1997 56.5739V56.5781Z" fill="white"/>
<path d="M88.7271 69.5212H76.439C76.3645 69.5212 76.293 69.4916 76.2403 69.4389C76.1876 69.3862 76.158 69.3147 76.158 69.2402L76.1367 61.0566H79.0661V65.6934C79.0691 66.0791 79.1769 66.4567 79.3779 66.786C79.5788 67.1152 79.8655 67.3836 80.2072 67.5626C80.3446 67.8128 80.5467 68.0215 80.7924 68.1668C81.0381 68.3121 81.3183 68.3887 81.6038 68.3886H88.7271V69.5212Z" fill="white"/>
<path d="M81.6075 68.3944C81.3221 68.3945 81.0418 68.3179 80.7961 68.1726C80.5504 68.0273 80.3483 67.8186 80.2109 67.5684C80.549 67.7529 80.9286 67.8481 81.3137 67.8451H89.263C89.5274 67.846 89.7898 67.7998 90.038 67.7089C89.8918 67.9204 89.6966 68.0933 89.4689 68.2127C89.2412 68.3321 88.9879 68.3945 88.7308 68.3944H81.6075Z" fill="white"/>
<path d="M81.3256 67.8432C80.9405 67.8462 80.5609 67.751 80.2229 67.5664C80.0963 67.3339 80.0304 67.0733 80.0313 66.8086V65.6973C80.0466 66.0256 80.1879 66.3354 80.4258 66.5622C80.6637 66.789 80.9799 66.9154 81.3086 66.915H89.2579C89.4618 66.9168 89.6634 66.8712 89.8466 66.7818C90.0299 66.6924 90.1898 66.5616 90.3139 66.3998V66.8256C90.3154 67.1482 90.2172 67.4635 90.0329 67.7282C89.7847 67.8192 89.5223 67.8653 89.2579 67.8645L81.3256 67.8432Z" fill="#3F2355"/>
<path d="M79.0664 40.313C79.073 40.0235 79.1367 39.7382 79.2538 39.4734C79.3708 39.2086 79.539 38.9695 79.7486 38.7697C79.9582 38.57 80.2052 38.4136 80.4754 38.3094C80.7455 38.2053 81.0336 38.1555 81.323 38.1628H89.2724C89.8548 38.1514 90.418 38.3713 90.8386 38.7743C91.2592 39.1773 91.5028 39.7307 91.5163 40.313V61.0571H90.5668V40.3258C90.5536 39.996 90.4132 39.684 90.175 39.4554C89.9369 39.2268 89.6195 39.0993 89.2894 39.0995H81.323C80.9951 39.0991 80.6795 39.2249 80.4417 39.4508C80.2039 39.6767 80.0621 39.9854 80.0457 40.313V61.0571H79.0664V40.313Z" fill="#3F2355"/>
<path d="M80.2075 67.5626C79.8658 67.3836 79.5792 67.1152 79.3782 66.786C79.1772 66.4567 79.0694 66.0791 79.0664 65.6934V61.0566H80.0159V66.8047C80.0151 67.0694 80.081 67.3301 80.2075 67.5626Z" fill="#3F2355"/>
<path d="M76.16 69.2402C76.16 69.3147 76.1896 69.3862 76.2423 69.4389C76.295 69.4916 76.3664 69.5212 76.441 69.5212H105.513C105.471 69.5765 105.432 69.6361 105.394 69.6957L105.369 69.7341H76.441C76.3107 69.7341 76.1857 69.6826 76.0932 69.5909C76.0007 69.4992 75.9482 69.3747 75.9471 69.2444L75.9258 61.0566H76.1387L76.16 69.2402Z" fill="#3F2355"/>
<path d="M76.439 69.947C76.2523 69.947 76.0732 69.8731 75.9407 69.7414C75.8083 69.6098 75.7333 69.4311 75.7322 69.2444L75.7109 61.0566H75.9238L75.9451 69.2444C75.9462 69.3747 75.9988 69.4992 76.0913 69.5909C76.1838 69.6826 76.3088 69.7341 76.439 69.7341H105.367L105.226 69.947H76.439Z" fill="#3F2355"/>
<path d="M105.102 70.1684H75.1484V61.0566H75.7147L75.736 69.2444C75.7371 69.4311 75.8121 69.6098 75.9445 69.7414C76.077 69.8731 76.2561 69.947 76.4428 69.947H105.23C105.183 70.0236 105.145 70.0917 105.111 70.1556L105.102 70.1684Z" fill="#3F2355"/>
<path d="M75.1484 70.1696H105.102C105.021 70.3059 104.945 70.4464 104.872 70.5954H75.1016V61.0664H75.1697L75.1484 70.1696Z" fill="#3F2355"/>
<path d="M75.1487 42.8759C75.1497 42.3434 74.9453 41.831 74.5781 41.4453C74.9256 41.7575 75.2031 42.1398 75.3925 42.5668C75.5818 42.9939 75.6786 43.4562 75.6766 43.9234L75.715 61.0568H75.1487V42.8759Z" fill="#3F2355"/>
<path d="M74.543 41.4121C74.5564 41.4212 74.5679 41.4328 74.577 41.4462L74.543 41.4121Z" fill="#3F2355"/>
<path d="M73.9492 40.9902C74.1425 41.0794 74.3195 41.2003 74.4729 41.3479C74.3108 41.2114 74.1353 41.0916 73.9492 40.9902Z" fill="#3F2355"/>
<path d="M72.3816 42.2891H57.3516C57.4072 42.2071 57.4763 42.1351 57.5559 42.0762H72.3816C72.8657 42.084 73.327 42.2833 73.6646 42.6304C74.0021 42.9775 74.1884 43.4442 74.1827 43.9283L74.2466 70.8505C74.2466 70.928 74.2619 71.0047 74.2917 71.0763C74.3215 71.1479 74.3652 71.2128 74.4202 71.2675C74.4752 71.3221 74.5405 71.3653 74.6122 71.3946C74.684 71.4238 74.7609 71.4386 74.8384 71.438H104.464C104.439 71.5104 104.409 71.5786 104.383 71.6509H74.8384C74.6257 71.6509 74.4217 71.5667 74.2709 71.4167C74.1201 71.2667 74.0348 71.0632 74.0337 70.8505L73.9698 43.9283C73.9755 43.5006 73.8116 43.0881 73.514 42.7809C73.2164 42.4738 72.8093 42.2969 72.3816 42.2891Z" fill="#3F2355"/>
<path d="M71.3454 54.8398H71.3965C71.5094 54.8398 71.6177 54.8847 71.6976 54.9646C71.7774 55.0444 71.8223 55.1527 71.8223 55.2656C71.8223 55.3785 71.7774 55.4868 71.6976 55.5667C71.6177 55.6465 71.5094 55.6914 71.3965 55.6914H70.7578V55.3125L70.8941 55.2656C71.0878 55.178 71.2466 55.0281 71.3454 54.8398Z" fill="#3F2355"/>
<path d="M71.3454 54.8398C71.2466 55.0281 71.0878 55.178 70.8941 55.2656H70.7578V54.8398H71.3454Z" fill="#3F2355"/>
<path d="M70.8941 55.2656L70.7578 55.3125V55.2656H70.8941Z" fill="#3F2355"/>
<path d="M70.7574 55.6914V65.8293C70.7563 66.0815 70.6553 66.323 70.4766 66.5009C70.2979 66.6789 70.0559 66.7788 69.8037 66.7787H60.973C60.7921 66.7721 60.6166 66.7152 60.4662 66.6144C60.3158 66.5136 60.1964 66.373 60.1214 66.2082C59.3671 64.4699 58.0046 63.0665 56.2894 62.2612C56.1581 62.1967 56.0481 62.0957 55.9726 61.9704C55.8971 61.8451 55.8593 61.7007 55.8636 61.5544V55.6914H70.7574ZM69.9059 56.9986H67.9601C67.8966 56.98 67.8297 56.9766 67.7647 56.9884C67.6996 57.0002 67.6383 57.027 67.5854 57.0667C67.5325 57.1063 67.4896 57.1578 67.46 57.2169C67.4305 57.276 67.4151 57.3412 67.4151 57.4073C67.4151 57.4734 67.4305 57.5386 67.46 57.5977C67.4896 57.6568 67.5325 57.7083 67.5854 57.7479C67.6383 57.7876 67.6996 57.8144 67.7647 57.8262C67.8297 57.838 67.8966 57.8346 67.9601 57.8161H69.9059C69.9693 57.8346 70.0362 57.838 70.1013 57.8262C70.1663 57.8144 70.2277 57.7876 70.2806 57.7479C70.3335 57.7083 70.3764 57.6568 70.4059 57.5977C70.4355 57.5386 70.4509 57.4734 70.4509 57.4073C70.4509 57.3412 70.4355 57.276 70.4059 57.2169C70.3764 57.1578 70.3335 57.1063 70.2806 57.0667C70.2277 57.027 70.1663 57.0002 70.1013 56.9884C70.0362 56.9766 69.9693 56.98 69.9059 56.9986Z" fill="white"/>
<path d="M56.3008 55.2656H70.7773V55.3125C70.6969 55.3348 70.6139 55.3462 70.5304 55.3465H56.684C56.552 55.3469 56.4214 55.3193 56.3008 55.2656Z" fill="#3F2355"/>
<path d="M70.1484 44.2051H70.2549C70.5703 44.2051 70.8729 44.3301 71.0964 44.5528C71.3198 44.7754 71.4459 45.0776 71.4471 45.393V54.4068C71.4463 54.5142 71.4276 54.6207 71.3917 54.7219V45.674C71.3924 45.3215 71.2677 44.9802 71.04 44.7111C70.8122 44.442 70.4962 44.2627 70.1484 44.2051Z" fill="#3F2355"/>
<path d="M69.9166 56.9995C69.9801 56.9809 70.0469 56.9775 70.112 56.9893C70.177 57.0011 70.2384 57.0279 70.2913 57.0676C70.3442 57.1072 70.3871 57.1587 70.4166 57.2178C70.4462 57.2769 70.4616 57.3421 70.4616 57.4082C70.4616 57.4743 70.4462 57.5395 70.4166 57.5986C70.3871 57.6577 70.3442 57.7092 70.2913 57.7488C70.2384 57.7885 70.177 57.8153 70.112 57.8271C70.0469 57.8389 69.9801 57.8355 69.9166 57.817H67.9708C67.9073 57.8355 67.8404 57.8389 67.7754 57.8271C67.7104 57.8153 67.649 57.7885 67.5961 57.7488C67.5432 57.7092 67.5003 57.6577 67.4707 57.5986C67.4412 57.5395 67.4258 57.4743 67.4258 57.4082C67.4258 57.3421 67.4412 57.2769 67.4707 57.2178C67.5003 57.1587 67.5432 57.1072 67.5961 57.0676C67.649 57.0279 67.7104 57.0011 67.7754 56.9893C67.8404 56.9775 67.9073 56.9809 67.9708 56.9995H69.9166Z" fill="#3F2355"/>
<path d="M57.6732 41.8633H72.3839C72.9245 41.8711 73.4399 42.0928 73.8174 42.4799C74.1948 42.8669 74.4036 43.3877 74.3979 43.9283L74.4618 70.8505C74.4618 70.9 74.4716 70.9491 74.4907 70.9948C74.5098 71.0406 74.5378 71.0821 74.573 71.1169C74.6082 71.1518 74.6501 71.1793 74.696 71.1979C74.742 71.2164 74.7911 71.2257 74.8407 71.2252H104.56C104.53 71.2975 104.501 71.3657 104.467 71.438H74.8407C74.7632 71.4386 74.6863 71.4238 74.6145 71.3946C74.5428 71.3653 74.4775 71.3221 74.4225 71.2675C74.3675 71.2128 74.3238 71.1479 74.294 71.0763C74.2642 71.0047 74.2489 70.928 74.2489 70.8505L74.185 43.9283C74.1907 43.4442 74.0044 42.9775 73.6669 42.6304C73.3293 42.2833 72.868 42.084 72.3839 42.0762H57.5625L57.7328 41.9442L57.6732 41.8633Z" fill="#3F2355"/>
<path d="M72.384 41.8633H57.6732L57.1836 41.2246H72.384C73.0935 41.2314 73.7714 41.5194 74.2688 42.0255C74.7661 42.5317 75.0423 43.2145 75.0366 43.9241L75.0792 61.0575V70.5865H104.871C104.76 70.7951 104.658 71.0123 104.56 71.2252H74.8407C74.7912 71.2257 74.742 71.2164 74.696 71.1979C74.6501 71.1793 74.6083 71.1518 74.573 71.1169C74.5378 71.0821 74.5098 71.0406 74.4907 70.9948C74.4716 70.9491 74.4618 70.9 74.4618 70.8505L74.3979 43.9283C74.4036 43.3877 74.1949 42.8669 73.8174 42.4799C73.44 42.0928 72.9245 41.8711 72.384 41.8633Z" fill="#3F2355"/>
<path d="M57.4331 41.9016L57.4033 41.8633H57.6715L57.7311 41.9399L57.5608 42.0719H57.25C57.3038 42.0079 57.3653 41.9507 57.4331 41.9016Z" fill="#3F2355"/>
<path d="M57.1055 42.2891C57.1432 42.2115 57.192 42.1398 57.2502 42.0762H57.5568C57.4772 42.1351 57.4081 42.2071 57.3524 42.2891H57.1055Z" fill="#3F2355"/>
<path d="M57.2526 42.0751H56.9844C57.0312 42.0029 57.0854 41.9359 57.1462 41.875H57.4144L57.4442 41.9133C57.374 41.9592 57.3096 42.0135 57.2526 42.0751Z" fill="#3F2355"/>
<path d="M57.0898 41.1003C57.4201 40.8928 57.8026 40.7835 58.1926 40.7852H73.0524C73.3602 40.7847 73.6643 40.8531 73.9423 40.9853C74.1284 41.0866 74.3038 41.2065 74.466 41.3429L74.5341 41.4068L74.5682 41.4409C74.9353 41.8266 75.1397 42.339 75.1387 42.8715V61.0524H75.0706L75.028 43.9189C75.0326 43.2116 74.7571 42.5311 74.2617 42.0261C73.7663 41.5212 73.0912 41.2327 72.3839 41.2237H57.1835L57.0898 41.1003Z" fill="#3F2355"/>
<path d="M57.0886 41.1016L57.1823 41.225H56.9141L57.0886 41.1016Z" fill="#3F2355"/>
<path d="M57.3998 41.8633L56.9102 41.2246H57.1784L57.668 41.8633H57.3998Z" fill="#3F2355"/>
<path d="M56.8761 42.2593C56.9074 42.1959 56.943 42.1347 56.9825 42.0762H57.2507C57.1925 42.1398 57.1437 42.2115 57.106 42.2891H56.8633L56.8761 42.2593Z" fill="#3F2355"/>
<path d="M57.0913 41.1011L56.6953 40.5859H72.3854C72.9303 40.5855 73.4664 40.7232 73.9437 40.9862C73.6657 40.854 73.3617 40.7856 73.0538 40.7861H58.1941C57.804 40.7844 57.4216 40.8937 57.0913 41.1011Z" fill="#3F2355"/>
<path d="M57.1345 41.8633L56.6406 41.2246H56.9089L57.3985 41.8633H57.1345Z" fill="#3F2355"/>
<path d="M56.693 40.5859L56.5312 40.373H72.3831C73.3185 40.3798 74.213 40.7576 74.87 41.4234C75.5271 42.0892 75.8929 42.9887 75.8873 43.9241L75.9256 61.0575H75.7127L75.6744 43.9241C75.6764 43.4569 75.5795 42.9946 75.3902 42.5675C75.2009 42.1405 74.9233 41.7583 74.5759 41.446C74.5668 41.4326 74.5552 41.421 74.5418 41.412L74.4737 41.3481C74.3203 41.2005 74.1433 41.0796 73.95 40.9904C73.4727 40.7274 72.9365 40.5897 72.3916 40.5902L56.693 40.5859Z" fill="#3F2355"/>
<path d="M56.4258 40.5859H56.694L57.09 41.1011L56.9154 41.2246L56.4258 40.5859Z" fill="#3F2355"/>
<path d="M57.1344 41.8633H55.6484L55.7208 41.71C55.8043 41.538 55.9056 41.3753 56.0231 41.2246H56.6277L57.1344 41.8633Z" fill="#3F2355"/>
<path d="M56.4345 40.25L56.5282 40.3735H56.2812L56.4345 40.25Z" fill="#3F2355"/>
<path d="M56.3945 40.5469L56.4243 40.5852H56.3477L56.3945 40.5469Z" fill="#3F2355"/>
<path d="M56.0234 41.2239C56.1219 41.0887 56.2347 40.9645 56.3598 40.8535L56.6451 41.2239H56.0234Z" fill="#3F2355"/>
<path d="M55.7773 41.2246C55.9384 40.9835 56.1351 40.7681 56.3607 40.5859H56.4373L56.927 41.2246H56.6289L56.3436 40.8542C56.2185 40.9652 56.1057 41.0894 56.0073 41.2246H55.7773Z" fill="#3F2355"/>
<path d="M56.3008 55.2656C56.1145 55.1763 55.9643 55.0261 55.875 54.8398H70.7773V55.2656H56.3008Z" fill="#3F2355"/>
<path d="M56.3467 40.5852H56.0273C56.104 40.5129 56.1849 40.4447 56.2658 40.3809H56.517L56.6788 40.5938H56.4106L56.3807 40.5554L56.3467 40.5852Z" fill="#3F2355"/>
<path d="M55.5039 41.2246C55.6486 40.9889 55.8248 40.774 56.0276 40.5859H56.347C56.1214 40.7681 55.9247 40.9835 55.7636 41.2246H55.5039Z" fill="#3F2355"/>
<path d="M55.9605 54.1767L60.0778 45.3119C60.1465 45.1656 60.2555 45.0418 60.3919 44.9551C60.5284 44.8684 60.6867 44.8223 60.8484 44.8223H69.9048C69.9516 44.8223 69.9985 44.8223 70.0453 44.8223C70.246 44.8558 70.4281 44.9602 70.5585 45.1164C70.689 45.2726 70.7591 45.4703 70.7564 45.6738V54.8409H55.854C55.8416 54.8224 55.8316 54.8024 55.8242 54.7813C55.8252 54.5723 55.8717 54.3659 55.9605 54.1767Z" fill="#DEDFE0"/>
<path d="M70.7564 55.6914H55.8242V54.8398H55.854C55.9433 55.0261 56.0935 55.1763 56.2798 55.2656C56.4004 55.3193 56.531 55.3469 56.663 55.3465H70.5094C70.5929 55.3462 70.6759 55.3348 70.7564 55.3125V55.6914Z" fill="#3F2355"/>
<path d="M55.826 54.7815C55.7733 54.6628 55.7461 54.5345 55.7461 54.4047C55.7461 54.2749 55.7733 54.1465 55.826 54.0278L59.8113 44.9161C59.9053 44.7044 60.0587 44.5245 60.253 44.3983C60.4472 44.2721 60.6739 44.2049 60.9056 44.2051H70.1493C70.4979 44.2617 70.8149 44.4407 71.0435 44.7099C71.2721 44.9791 71.3974 45.3209 71.3968 45.674V54.7219C71.3842 54.7634 71.3671 54.8033 71.3458 54.8411H70.7582V45.674C70.761 45.4705 70.6908 45.2728 70.5604 45.1166C70.4299 44.9604 70.2478 44.856 70.0471 44.8225C70.0003 44.8225 69.9534 44.8225 69.9066 44.8225H60.8502C60.6886 44.8225 60.5302 44.8686 60.3937 44.9553C60.2573 45.042 60.1483 45.1657 60.0796 45.3121L55.9623 54.1769C55.8735 54.3661 55.827 54.5724 55.826 54.7815Z" fill="#3F2355"/>
<path d="M55.3516 55.6914C55.2386 55.6914 55.1303 55.6465 55.0505 55.5667C54.9706 55.4868 54.9258 55.3785 54.9258 55.2656C54.9258 55.1527 54.9706 55.0444 55.0505 54.9646C55.1303 54.8847 55.2386 54.8398 55.3516 54.8398H55.8412V55.6914H55.3516Z" fill="#3F2355"/>
<path d="M56.9818 42.0762H55.5469L55.6491 41.8633H57.135C57.0765 41.9286 57.0251 41.9999 56.9818 42.0762Z" fill="#3F2355"/>
<path d="M55.5461 42.0762H56.981C56.9414 42.1347 56.9059 42.1959 56.8745 42.2593V42.2891H55.4609L55.5461 42.0762Z" fill="#3F2355"/>
<path d="M55.5467 42.0762H55.3125L55.4147 41.8633H55.6446L55.5467 42.0762Z" fill="#3F2355"/>
<path d="M55.5329 41.6206C55.6003 41.4834 55.6772 41.3511 55.7629 41.2246H56.0268C55.9093 41.3753 55.808 41.538 55.7245 41.71L55.6522 41.8633H55.418L55.5329 41.6206Z" fill="#3F2355"/>
<path d="M55.3128 42.0762H55.547L55.4448 42.2891H55.2148L55.3128 42.0762Z" fill="#3F2355"/>
<path d="M55.4139 41.8633H55.1797L55.3372 41.5269C55.3883 41.4247 55.4437 41.3225 55.5033 41.2246H55.7587C55.6731 41.3511 55.5962 41.4834 55.5288 41.6206L55.4139 41.8633Z" fill="#3F2355"/>
<path d="M55.1764 41.8633H55.4148L55.3127 42.0762H55.0742L55.1764 41.8633Z" fill="#3F2355"/>
<path d="M55.215 42.2891H54.9766L55.0745 42.0762H55.3129L55.215 42.2891Z" fill="#3F2355"/>
<path d="M54.5469 54.7941C54.5488 54.3956 54.6359 54.0022 54.8023 53.6402L58.9197 44.7754C59.0907 44.408 59.363 44.097 59.7047 43.8791C60.0464 43.6611 60.4432 43.5452 60.8484 43.5449H69.9048C70.0203 43.5464 70.1356 43.5564 70.2497 43.5747C70.7476 43.6565 71.2002 43.9124 71.527 44.2968C71.8537 44.6813 72.0333 45.1693 72.0337 45.6738V55.2667H71.8208C71.8208 55.1538 71.776 55.0455 71.6961 54.9656C71.6163 54.8858 71.508 54.8409 71.395 54.8409H71.3439C71.3653 54.8032 71.3824 54.7632 71.395 54.7217C71.4309 54.6205 71.4496 54.514 71.4504 54.4066V45.3928C71.4493 45.0774 71.3232 44.7752 71.0997 44.5526C70.8762 44.3299 70.5737 44.2049 70.2582 44.2049H60.8868C60.6551 44.2047 60.4284 44.2719 60.2341 44.3981C60.0399 44.5243 59.8865 44.7042 59.7925 44.9159L55.8072 54.0277C55.7545 54.1463 55.7273 54.2747 55.7273 54.4045C55.7273 54.5343 55.7545 54.6627 55.8072 54.7813V54.8409H55.3516C55.2387 54.8409 55.1304 54.8858 55.0505 54.9656C54.9707 55.0455 54.9258 55.1538 54.9258 55.2667H54.5639L54.5469 54.7941Z" fill="#3F2355"/>
<path d="M54.5469 61.5544V55.2656H54.9258C54.9258 55.3785 54.9707 55.4868 55.0506 55.5667C55.1304 55.6465 55.2387 55.6914 55.3516 55.6914H55.8413V61.5544C55.8369 61.7007 55.8747 61.8451 55.9502 61.9704C56.0257 62.0957 56.1357 62.1967 56.2671 62.2612C57.9823 63.0665 59.3448 64.4699 60.0991 66.2082C60.1741 66.373 60.2934 66.5136 60.4438 66.6144C60.5942 66.7152 60.7697 66.7721 60.9506 66.7787H69.7814C70.0336 66.7787 70.2755 66.6789 70.4543 66.5009C70.633 66.323 70.734 66.0815 70.7351 65.8293V55.6914H71.3738C71.4867 55.6914 71.595 55.6465 71.6749 55.5667C71.7547 55.4868 71.7996 55.3785 71.7996 55.2656H72.0125V65.8293C72.0113 66.4202 71.7758 66.9866 71.3575 67.4041C70.9392 67.8216 70.3723 68.0561 69.7814 68.0561H60.9719C60.5439 68.0526 60.1256 67.9275 59.766 67.6953C59.4064 67.4631 59.1202 67.1334 58.941 66.7447C58.3171 65.2877 57.1832 64.1084 55.7519 63.4279C55.3913 63.2656 55.0856 63.0022 54.8717 62.6697C54.6578 62.3372 54.545 61.9498 54.5469 61.5544Z" fill="#3F2355"/>
<path d="M50.7739 36.4764C50.6653 36.9216 50.6594 37.3857 50.7568 37.8335C50.8542 38.2813 51.0523 38.701 51.336 39.0609C51.6039 39.4035 51.9464 39.6804 52.3374 39.8708C52.7284 40.0611 53.1577 40.1598 53.5926 40.1594H72.3823C73.3738 40.1673 74.3218 40.5679 75.0185 41.2734C75.7153 41.9789 76.1039 42.9318 76.0994 43.9233L76.1377 61.0568H75.9248L75.8865 43.9233C75.8922 42.9879 75.5263 42.0885 74.8692 41.4227C74.2122 40.7568 73.3177 40.3791 72.3823 40.3723H56.5305L56.4368 40.2488L56.2793 40.3723H53.5926C53.1257 40.3729 52.6648 40.267 52.2449 40.0626C51.8251 39.8582 51.4574 39.5608 51.1699 39.1929C50.8648 38.809 50.6517 38.3604 50.5468 37.8814C50.442 37.4024 50.4484 36.9058 50.5653 36.4296C50.5653 36.3827 50.5653 36.3359 50.6036 36.2891H50.825C50.8046 36.3505 50.7875 36.4131 50.7739 36.4764Z" fill="#3F2355"/>
<path d="M50.823 36.2892H50.6016C50.6212 36.2168 50.6454 36.1457 50.6739 36.0763L52.8029 30.2942C53.1086 29.4409 53.6441 28.6888 54.3504 28.1207C55.0567 27.5527 55.9062 27.1909 56.8052 27.0753L77.9708 24.3886C78.3944 24.3352 78.8221 24.3224 79.2481 24.3503L135.877 28.1483C136.62 28.2088 137.32 28.5206 137.861 29.0322C138.403 29.5438 138.755 30.2247 138.858 30.9627L139.654 36.2892H139.441L138.67 30.9925C138.573 30.3011 138.242 29.6637 137.734 29.1854C137.225 28.707 136.569 28.4163 135.873 28.3611L79.2439 24.5632C78.8321 24.5361 78.4187 24.5475 78.0091 24.5972L56.8435 27.2839C55.9824 27.3956 55.1689 27.7429 54.4927 28.2876C53.8165 28.8323 53.3039 29.5533 53.0115 30.3708L50.8826 36.1487C50.8599 36.1998 50.84 36.2466 50.823 36.2892Z" fill="#3F2355"/>
<path d="M51.0013 39.3249C50.6765 38.9162 50.45 38.4383 50.3392 37.9282C50.2285 37.4181 50.2365 36.8893 50.3626 36.3827C50.3626 36.3529 50.3626 36.3231 50.3882 36.2891H50.6053C50.6053 36.3359 50.5798 36.3827 50.567 36.4296C50.45 36.9058 50.4437 37.4024 50.5485 37.8814C50.6533 38.3604 50.8665 38.809 51.1716 39.1929C51.4591 39.5608 51.8268 39.8582 52.2466 40.0626C52.6664 40.267 53.1274 40.3729 53.5943 40.3723H56.281C56.2001 40.4362 56.1192 40.5043 56.0425 40.5767H53.6071C53.1061 40.5798 52.6111 40.4687 52.1596 40.2518C51.7081 40.0348 51.3119 39.7179 51.0013 39.3249Z" fill="#3F2355"/>
<path d="M50.3867 36.2906C50.4105 36.1937 50.4404 36.0985 50.4761 36.0053L52.605 30.2232C52.9218 29.3313 53.4801 28.545 54.2176 27.9518C54.9551 27.3586 55.8429 26.982 56.782 26.8638L77.9433 24.1771C78.381 24.1216 78.823 24.1088 79.2632 24.1388L135.892 27.9368C136.683 27.9988 137.429 28.3275 138.008 28.8689C138.588 29.4104 138.966 30.1326 139.081 30.9173L139.86 36.2778H139.656L138.881 30.9513C138.778 30.2133 138.427 29.5324 137.885 29.0208C137.343 28.5093 136.643 28.1975 135.901 28.1369L79.2717 24.3389C78.8457 24.311 78.418 24.3238 77.9944 24.3772L56.8288 27.0639C55.9298 27.1795 55.0803 27.5413 54.374 28.1094C53.6677 28.6774 53.1322 29.4296 52.8264 30.2828L50.6975 36.0649C50.669 36.1343 50.6448 36.2054 50.6252 36.2778L50.3867 36.2906Z" fill="#3F2355"/>
<path d="M50.4752 36.0052C50.4395 36.0983 50.4096 36.1936 50.3858 36.2905H49.8919L49.7344 36.2522C49.7694 36.0928 49.8164 35.9362 49.8749 35.7838L52.0038 30.0017C52.3646 29.0046 52.9921 28.1255 53.8179 27.4604C54.6437 26.7952 55.6363 26.3694 56.6874 26.2293L77.853 23.5426C78.3303 23.4837 78.8121 23.4694 79.2921 23.5L104.916 25.2031L105.278 25.2287L119.861 26.2037V26.2378H120.342L132.476 27.051L132.902 27.0808L135.93 27.2852C136.87 27.3535 137.758 27.7427 138.445 28.3876C139.133 29.0324 139.578 29.8939 139.706 30.8277L139.757 31.1854L140.498 36.2947H139.855L139.076 30.9342C138.961 30.1495 138.582 29.4273 138.003 28.8859C137.424 28.3444 136.678 28.0157 135.887 27.9537L79.258 24.1557C78.8179 24.1257 78.3758 24.1386 77.9381 24.194L56.7768 26.8807C55.8387 26.9982 54.9516 27.3736 54.2142 27.9651C53.4768 28.5567 52.9179 29.3413 52.5999 30.2316L50.4752 36.0052Z" fill="#3F2355"/>
<path d="M50.3591 36.3825C50.233 36.8891 50.225 37.4179 50.3357 37.928C50.4465 38.4381 50.673 38.916 50.9978 39.3247C51.3045 39.7206 51.6975 40.0415 52.1468 40.2628C52.5961 40.4842 53.0899 40.6002 53.5908 40.602H56.0263C55.8234 40.7901 55.6472 41.0049 55.5025 41.2407H53.5908C52.9855 41.2344 52.3895 41.0914 51.8473 40.8223C51.3051 40.5532 50.8307 40.165 50.4597 39.6867C50.0887 39.2084 49.8307 38.6524 49.7049 38.0604C49.5791 37.4683 49.5887 36.8554 49.7332 36.2676L49.8907 36.3059H50.3846C50.3719 36.3229 50.3676 36.3527 50.3591 36.3825Z" fill="#3F2355"/>
<path d="M53.5918 41.863C52.8994 41.8648 52.2158 41.7085 51.593 41.406C50.9702 41.1034 50.4247 40.6627 49.9982 40.1173C49.5542 39.559 49.2437 38.9067 49.0902 38.2102C48.9367 37.5136 48.9443 36.7911 49.1125 36.098C49.1552 35.9141 49.2107 35.7334 49.2786 35.5572L51.4075 29.7794C51.8084 28.6691 52.5078 27.6909 53.4288 26.9524C54.3498 26.214 55.4567 25.7439 56.6276 25.5939L77.7932 22.9073C78.1338 22.8681 78.4764 22.8482 78.8193 22.8477C78.9981 22.8477 79.1727 22.8477 79.3515 22.8477L104.745 24.5508C104.683 24.597 104.632 24.6558 104.594 24.7233C104.557 24.7908 104.534 24.8656 104.528 24.9425L105.38 25.0106C105.376 25.0793 105.351 25.1451 105.307 25.198V25.2235L104.945 25.198L79.3217 23.4948C78.8417 23.4643 78.3599 23.4785 77.8826 23.5374L56.6957 26.2284C55.6446 26.3684 54.6521 26.7943 53.8262 27.4594C53.0004 28.1246 52.3729 29.0036 52.0121 30.0008L49.8832 35.7829C49.8247 35.9353 49.7777 36.0918 49.7427 36.2512C49.5982 36.8391 49.5885 37.4519 49.7144 38.044C49.8402 38.6361 50.0982 39.1921 50.4692 39.6704C50.8402 40.1487 51.3146 40.5369 51.8568 40.806C52.399 41.0751 52.995 41.2181 53.6003 41.2244H55.512C55.4524 41.3223 55.3971 41.4245 55.346 41.5267L55.1884 41.863H53.5918Z" fill="#3F2355"/>
<path d="M49.8174 40.2495C49.3547 39.6667 49.0306 38.9862 48.8698 38.2596C48.709 37.5329 48.7156 36.7793 48.8892 36.0556C48.9333 35.8614 48.9917 35.6707 49.0638 35.485L51.1927 29.7072C51.6058 28.5601 52.3278 27.5495 53.279 26.7869C54.2302 26.0243 55.3736 25.5393 56.5831 25.3855L77.7487 22.6988C78.2783 22.634 78.8128 22.6183 79.3453 22.652L105.058 24.3551C104.939 24.4018 104.828 24.4649 104.726 24.5425L79.3326 22.8393C79.1537 22.8393 78.9792 22.8393 78.8003 22.8393C78.4574 22.8398 78.1148 22.8597 77.7742 22.8989L56.6299 25.5941C55.4597 25.7448 54.3538 26.2152 53.4336 26.9536C52.5134 27.692 51.8146 28.6698 51.4141 29.7796L49.2852 35.5574C49.2173 35.7336 49.1618 35.9143 49.1191 36.0982C48.9509 36.7913 48.9433 37.5138 49.0968 38.2103C49.2502 38.9069 49.5608 39.5592 50.0047 40.1175C50.4313 40.6629 50.9768 41.1036 51.5996 41.4062C52.2223 41.7087 52.906 41.865 53.5983 41.8632H55.1865L55.0843 42.0761H53.5983C52.8704 42.081 52.151 41.9189 51.4956 41.6023C50.8401 41.2856 50.266 40.8228 49.8174 40.2495Z" fill="#3F2355"/>
<path d="M48.904 36.0555C48.7281 36.7779 48.7187 37.5309 48.8766 38.2574C49.0344 38.984 49.3554 39.6652 49.8152 40.2494C50.2616 40.8199 50.8323 41.2809 51.4838 41.5975C52.1353 41.914 52.8505 42.0777 53.5748 42.0761H55.0608L54.9586 42.2889H53.5748C52.8178 42.2908 52.0704 42.1199 51.3894 41.7894C50.7084 41.4588 50.1118 40.9773 49.6449 40.3814C49.1624 39.773 48.825 39.0625 48.6582 38.3041C48.4915 37.5456 48.4998 36.7591 48.6826 36.0044C48.7275 35.8016 48.7872 35.6023 48.8614 35.4083L50.9903 29.6347C51.4183 28.4514 52.1641 27.4089 53.1458 26.6217C54.1275 25.8345 55.3072 25.3331 56.5553 25.1725L77.7166 22.4859C78.2605 22.4212 78.8092 22.4055 79.3559 22.439L105.648 24.2018C105.446 24.241 105.247 24.2995 105.056 24.3763L79.3431 22.6732C78.8106 22.6395 78.2761 22.6552 77.7464 22.72L56.5808 25.4067C55.3714 25.5605 54.228 26.0455 53.2768 26.8081C52.3256 27.5707 51.6036 28.5814 51.1905 29.7284L49.0616 35.5062C48.9962 35.6854 48.9436 35.8689 48.904 36.0555Z" fill="#3F2355"/>
<path d="M46.7018 83.2363C44.9565 83.9229 43.0337 84.0157 41.2305 83.5003C42.8399 83.4066 44.675 83.3215 46.7018 83.2363Z" fill="#3F2355"/>
<path d="M43.5576 84.6794C45.3711 84.6761 47.1451 84.1498 48.667 83.1636C58.2343 82.8145 71.5314 82.6016 86.1911 82.6016C93.4805 82.6016 100.429 82.6569 106.744 82.7506C108.337 84.3408 110.409 85.3627 112.641 85.6587C113.109 85.7229 113.581 85.7556 114.054 85.7566V86.0802C105.964 86.259 96.4141 86.3655 86.1826 86.3655C57.0549 86.3655 33.4453 85.5139 33.4453 84.4835C33.4453 84.1727 35.5316 83.8832 39.2317 83.632C40.567 84.3202 42.0469 84.6807 43.5491 84.6836L43.5576 84.6794Z" fill="#DEDFE0"/>
<path d="M40.9981 78.6253L40.798 78.9957L40.7554 78.9617C40.7082 78.9286 40.6627 78.893 40.6191 78.8552C40.5468 78.7956 40.4744 78.736 40.4062 78.6722L40.6958 78.3613L40.8874 78.5274C40.9223 78.5622 40.9593 78.5949 40.9981 78.6253Z" fill="#3F2355"/>
<path d="M40.3496 84.1136C39.969 83.9761 39.5978 83.8139 39.2383 83.6282L41.2267 83.5004C43.0299 84.0158 44.9527 83.923 46.698 83.2364L48.6736 83.1641C47.1517 84.1503 45.3777 84.6766 43.5642 84.6799C42.4676 84.6826 41.3792 84.4908 40.3496 84.1136Z" fill="#3F2355"/>
<path d="M39.1133 73.9504C39.1388 73.8653 39.1601 73.7844 39.1942 73.6992C39.1729 73.7801 39.1388 73.8653 39.1133 73.9504Z" fill="#3F2355"/>
<path d="M38.9456 74.7419L39.3714 74.7802C39.3714 74.7291 39.3714 74.6738 39.3714 74.6227V74.5588C39.3714 74.4779 39.4012 74.397 39.4225 74.3118C39.4438 74.2267 39.4608 74.1628 39.4906 74.0691C39.5204 73.9755 39.5417 73.9073 39.5673 73.8307C39.8523 73.0464 40.3636 72.3643 41.0364 71.8705C41.7091 71.3768 42.5132 71.0936 43.3469 71.0568C44.1806 71.0201 45.0064 71.2313 45.7201 71.6639C46.4337 72.0964 47.0031 72.7309 47.3561 73.487C47.7092 74.2432 47.8301 75.087 47.7036 75.9119C47.5771 76.7367 47.2088 77.5056 46.6454 78.1211C46.082 78.7367 45.3487 79.1714 44.5382 79.3702C43.7277 79.569 42.8765 79.5231 42.0921 79.2381L41.8452 79.1445L41.7558 79.1019L41.5131 78.9827C41.4024 78.9188 41.3002 78.8549 41.1639 78.7655C41.1237 78.7414 41.0852 78.7144 41.049 78.6846L41.0107 78.6591L40.768 78.9954L40.9681 78.625C40.928 78.5975 40.8897 78.5676 40.8531 78.5356L40.6615 78.3695L40.372 78.6804C39.8449 78.1796 39.4415 77.5631 39.194 76.8795C38.9464 76.1959 38.8614 75.464 38.9456 74.7419Z" fill="white"/>
<path d="M38.9453 74.7418C38.9453 74.6524 38.9709 74.563 38.9836 74.4778C38.9964 74.3927 39.0177 74.3033 39.039 74.2138C39.0586 74.1247 39.0828 74.0366 39.1114 73.9499C39.1369 73.8647 39.1625 73.7795 39.1923 73.6986C39.5076 72.8361 40.0715 72.0864 40.8128 71.5443C41.5541 71.0021 42.4394 70.6918 43.3569 70.6527C44.2745 70.6135 45.183 70.8472 45.9678 71.3242C46.7526 71.8012 47.3784 72.5001 47.7661 73.3326C48.1538 74.1651 48.2861 75.0939 48.1461 76.0015C48.0062 76.9092 47.6004 77.755 46.9799 78.432C46.3595 79.1091 45.5522 79.5871 44.6602 79.8056C43.7682 80.0241 42.8315 79.9733 41.9684 79.6596C41.8534 79.617 41.7427 79.5744 41.632 79.5233C41.5316 79.4802 41.4335 79.4319 41.3382 79.3786C41.219 79.3104 41.104 79.2423 40.9933 79.1657C40.9339 79.1298 40.877 79.09 40.823 79.0465L41.0657 78.7101L41.104 78.7356C41.1403 78.7654 41.1787 78.7925 41.219 78.8165C41.3552 78.906 41.4574 78.9698 41.5681 79.0337L41.8108 79.1529L41.9002 79.1955L42.1472 79.2892C42.6675 79.4785 43.2199 79.5635 43.7731 79.5393C44.3262 79.5151 44.8692 79.3822 45.3709 79.1481C45.8727 78.9141 46.3234 78.5834 46.6973 78.1751C47.0713 77.7668 47.3611 77.2889 47.5503 76.7685C47.7432 76.2463 47.8314 75.6912 47.8098 75.1349C47.7881 74.5785 47.6571 74.0319 47.4243 73.5263C47.1914 73.0206 46.8612 72.5657 46.4525 72.1876C46.0439 71.8096 45.5647 71.5157 45.0425 71.3228C44.5203 71.1299 43.9651 71.0417 43.4088 71.0634C42.8525 71.085 42.3059 71.216 41.8002 71.4489C41.2945 71.6817 40.8397 72.0119 40.4616 72.4206C40.0835 72.8293 39.7897 73.3084 39.5968 73.8306C39.5712 73.9073 39.5414 73.9882 39.5201 74.0691C39.4988 74.15 39.469 74.2394 39.452 74.3118C39.435 74.3842 39.4179 74.4778 39.4009 74.5587V74.6226C39.4009 74.6737 39.4009 74.729 39.4009 74.7801L38.9453 74.7418Z" fill="#3F2355"/>
<path d="M39.039 74.2134C39.039 74.3029 39.0007 74.388 38.9836 74.4774C38.9666 74.5668 38.9538 74.652 38.9453 74.7414L38.5195 74.7031C38.5195 74.6307 38.5195 74.5541 38.5493 74.4817V74.4136C38.5706 74.3029 38.5919 74.2049 38.6132 74.1113C38.6347 74.0091 38.6617 73.9082 38.6941 73.809C38.6941 73.7366 38.7495 73.6386 38.7835 73.545C39.1031 72.6774 39.6542 71.914 40.3769 71.3374C41.0996 70.7609 41.9664 70.3932 42.8833 70.2744C43.8002 70.1556 44.732 70.2901 45.5779 70.6634C46.4237 71.0366 47.1512 71.6344 47.6814 72.3918C48.2115 73.1492 48.5242 74.0373 48.5854 74.9598C48.6466 75.8823 48.454 76.804 48.0285 77.6248C47.6031 78.4456 46.961 79.1342 46.1718 79.6159C45.3827 80.0977 44.4768 80.3541 43.5523 80.3575C42.9596 80.3554 42.3717 80.2502 41.8151 80.0466C41.6873 79.9998 41.5639 79.953 41.4446 79.8976L41.385 79.8678L41.1125 79.7316C40.9806 79.659 40.8527 79.5794 40.7293 79.4931C40.6661 79.4554 40.6049 79.4142 40.5462 79.3697L40.4696 79.3101C40.4159 79.2723 40.3647 79.231 40.3163 79.1866C40.2405 79.1282 40.168 79.0656 40.0992 78.9992L40.3887 78.6884C40.4568 78.7523 40.5292 78.8119 40.6016 78.8715C40.6451 78.9093 40.6906 78.9448 40.7378 78.9779L40.7804 79.012C40.8344 79.0556 40.8913 79.0954 40.9507 79.1312C41.0614 79.2079 41.1764 79.276 41.2956 79.3441C41.391 79.3974 41.489 79.4458 41.5894 79.4889C41.7001 79.54 41.8108 79.5825 41.9258 79.6251C42.7889 79.9388 43.7257 79.9896 44.6177 79.7712C45.5097 79.5527 46.3169 79.0747 46.9373 78.3976C47.5578 77.7205 47.9636 76.8747 48.1036 75.9671C48.2435 75.0594 48.1112 74.1306 47.7235 73.2981C47.3358 72.4656 46.71 71.7667 45.9252 71.2897C45.1405 70.8127 44.2319 70.579 43.3144 70.6182C42.3968 70.6574 41.5115 70.9676 40.7702 71.5098C40.029 72.0519 39.465 72.8017 39.1497 73.6642C39.1156 73.7493 39.0943 73.8302 39.0688 73.9154C39.0533 74.0141 39.0434 74.1136 39.039 74.2134Z" fill="#3F2355"/>
<path d="M38.9467 74.7412C38.8662 75.4657 38.9559 76.199 39.2087 76.8827C39.4615 77.5665 39.8704 78.1818 40.4029 78.6796L40.1134 78.9905C40.1822 79.0569 40.2547 79.1194 40.3305 79.1778C40.3789 79.2223 40.4301 79.2635 40.4838 79.3013L40.5604 79.3609C40.6191 79.4054 40.6803 79.4466 40.7435 79.4844C40.8669 79.5707 40.9948 79.6503 41.1267 79.7228L41.3992 79.8591L41.4588 79.8889C41.5781 79.9442 41.7015 79.9911 41.8293 80.0379C42.3859 80.2415 42.9738 80.3467 43.5665 80.3487C44.4936 80.3476 45.4027 80.0923 46.1949 79.6107C46.987 79.129 47.632 78.4394 48.0597 77.6168C48.4874 76.7942 48.6813 75.8701 48.6205 74.945C48.5597 74.0199 48.2464 73.1291 47.7147 72.3696C47.1831 71.6101 46.4534 71.0108 45.6049 70.637C44.7565 70.2632 43.8218 70.1292 42.9025 70.2495C41.9832 70.3697 41.1145 70.7397 40.3908 71.3192C39.6671 71.8987 39.1161 72.6655 38.7977 73.5362C38.7637 73.6299 38.7296 73.7278 38.7083 73.8002C38.6759 73.8994 38.6489 74.0003 38.6274 74.1025C38.6274 74.1962 38.5848 74.2941 38.5635 74.4048V74.4729C38.5635 74.5453 38.5422 74.622 38.5337 74.6943L38.9467 74.7412ZM46.185 68.0309C47.9841 68.6904 49.4708 70 50.3521 71.7014C51.2335 73.4029 51.4455 75.3727 50.9464 77.2228C50.4473 79.0728 49.2734 80.6687 47.6559 81.696C46.0384 82.7234 44.0947 83.1075 42.208 82.7728C40.3214 82.438 38.6285 81.4087 37.4631 79.8877C36.2978 78.3666 35.7445 76.4642 35.9123 74.5554C36.0801 72.6466 36.9568 70.8699 38.3697 69.5755C39.7825 68.2811 41.629 67.5629 43.5452 67.5625C44.45 67.562 45.3479 67.7205 46.1978 68.0309H46.185Z" fill="#DEDFE0"/>
<path d="M46.4865 67.2296C48.1192 67.8234 49.5325 68.9 50.5386 70.3163C51.5447 71.7326 52.0959 73.4216 52.119 75.1587C52.1422 76.8958 51.636 78.5989 50.668 80.0414C49.6999 81.484 48.3157 82.5978 46.6994 83.2348C44.6727 83.3199 42.8375 83.4051 41.2281 83.4987C41.0322 83.4434 40.8364 83.3838 40.6405 83.3114C38.5079 82.5362 36.7707 80.9455 35.8109 78.8894C34.8511 76.8333 34.7474 74.4801 35.5226 72.3475C36.2978 70.215 37.8885 68.4777 39.9446 67.5179C42.0007 66.5581 44.3539 66.4544 46.4865 67.2296ZM40.93 82.5109C42.4686 83.0695 44.1451 83.1232 45.7162 82.6641C47.2873 82.205 48.6712 81.2571 49.6669 79.958C50.6627 78.6589 51.2184 77.0763 51.2535 75.4398C51.2885 73.8034 50.8011 72.1984 49.8619 70.8579C48.9227 69.5173 47.5807 68.511 46.0307 67.9851C44.4807 67.4591 42.8034 67.4409 41.2424 67.9331C39.6813 68.4252 38.3178 69.4021 37.3497 70.722C36.3816 72.0418 35.8595 73.6359 35.859 75.2727C35.8603 76.8535 36.3476 78.3957 37.2546 79.6904C38.1617 80.9851 39.4447 81.9697 40.93 82.5109Z" fill="#3F2355"/>
<path d="M52.4049 78.4882C51.7105 80.4171 50.3996 82.0632 48.675 83.1717L46.6994 83.2441C48.5633 82.5115 50.1112 81.1485 51.0737 79.3923C52.0362 77.6361 52.3524 75.598 51.9671 73.6328C51.5819 71.6675 50.5196 69.8996 48.9653 68.6368C47.411 67.374 45.463 66.6962 43.4605 66.7216C41.458 66.7469 39.5278 67.4737 38.0059 68.7754C36.484 70.0771 35.4668 71.8714 35.1314 73.8457C34.796 75.8201 35.1636 77.8496 36.1702 79.5808C37.1769 81.3121 38.7588 82.6356 40.6405 83.3208C40.8364 83.3932 41.0323 83.4528 41.2281 83.5081L39.2397 83.6358C37.2126 82.5837 35.6368 80.8308 34.8058 78.7035C33.9747 76.5761 33.945 74.2193 34.7222 72.0716C34.8809 71.6325 35.0716 71.2056 35.2927 70.7943C36.3695 68.8117 38.1223 67.2815 40.2321 66.4821C42.3419 65.6827 44.6686 65.6672 46.7888 66.4385C48.7341 67.1476 50.3916 68.4777 51.5052 70.2232C52.6189 71.9687 53.1266 74.0323 52.9499 76.0953C52.9499 76.1975 52.9499 76.2954 52.9201 76.3976C52.8279 77.1117 52.655 77.813 52.4049 78.4882Z" fill="#3F2355"/>
<path d="M32.85 62.5645V64.8339H33.3652L33.5993 62.5815H32.85V62.5645ZM34.9065 62.3516L34.6425 64.9063C34.6282 65.2353 34.4874 65.5462 34.2494 65.7739C34.0113 66.0016 33.6946 66.1286 33.3652 66.1282H32.6328V61.3552L32.6669 61.2871H33.3822C34.3998 61.2871 34.9107 61.6235 34.9107 62.2834L34.9065 62.3516Z" fill="#3F2355"/>
<path d="M49.3886 55.5649C49.8674 55.4904 50.3209 55.3002 50.7097 55.0108C51.0984 54.7215 51.4108 54.3417 51.6196 53.9044L57.0526 42.3529C57.0622 42.3299 57.0751 42.3084 57.0909 42.2891H57.3379C57.3017 42.337 57.2704 42.3883 57.2442 42.4423L51.7814 53.9938C51.5596 54.4647 51.2253 54.8737 50.8079 55.1848C50.3906 55.496 49.9032 55.6996 49.3886 55.7778C40.2811 57.1829 33.6346 59.3842 32.6639 61.2874H32.4297C33.2557 59.2948 39.9958 57.0126 49.3886 55.5649Z" fill="#3F2355"/>
<path d="M32.418 66.1112V61.3127V61.2871H32.6521L32.6181 61.3552V66.1112H32.418Z" fill="#3F2355"/>
<path d="M55.6096 69.8284C55.0859 68.1252 52.825 62.7348 45.1652 62.2282C40.703 61.9301 35.006 62.935 32.7579 69.2493H32.4258V66.1283H32.6387V68.9768C34.989 62.7008 40.7285 61.7385 45.1822 62.0195C52.991 62.539 55.2945 68.0827 55.8267 69.773C56.3036 71.0844 56.5505 74.3033 56.0779 77.6968C56.3675 77.9352 57.3084 78.1226 57.9854 78.1226L101.79 78.2162V79.3233H101.577V78.4291L57.9641 78.344C57.2829 78.344 56.1801 78.1439 55.8736 77.8118C55.848 77.782 55.8395 77.7692 55.8395 77.7564C56.3079 74.4694 56.0907 71.1653 55.6096 69.8284Z" fill="#3F2355"/>
<path d="M32.2188 61.2871H32.4316V61.3127V66.1112H32.223L32.2188 61.2871Z" fill="#3F2355"/>
<path d="M55.4068 69.9005C54.9001 68.2698 52.6861 62.939 45.1497 62.4409C40.8068 62.1513 35.1652 63.1093 32.9596 69.3215L32.9085 69.462H32.4827H32.2188V66.1281H32.4274V69.2491H32.7595C35.0076 62.9348 40.7046 61.9299 45.1668 62.228C52.8308 62.7346 55.0875 68.1421 55.6112 69.8282C56.0923 71.1651 56.3095 74.4692 55.8411 77.7519C55.8411 77.7519 55.8411 77.7775 55.8752 77.8073C56.1817 78.1394 57.2845 78.331 57.9657 78.3395L101.561 78.4289V79.3273H101.336V78.6418L57.953 78.5524C57.3909 78.5524 56.1093 78.3864 55.7048 77.9521C55.6548 77.9032 55.6232 77.8385 55.6154 77.769V77.7221C56.088 74.4862 55.8752 71.2034 55.4068 69.9005Z" fill="#3F2355"/>
<path d="M51.6046 53.9044C51.3957 54.3417 51.0834 54.7215 50.6946 55.0108C50.3058 55.3002 49.8523 55.4904 49.3735 55.5649C40.0063 57.0126 33.2577 59.2948 32.4316 61.2874H32.2188V61.2363C33.0362 59.1415 39.7593 56.8338 49.3437 55.352C49.7883 55.2839 50.2095 55.1078 50.5703 54.8391C50.931 54.5704 51.2204 54.2172 51.413 53.8107L56.863 42.2891H57.1057C57.0898 42.3084 57.0769 42.3299 57.0673 42.3529L51.6046 53.9044Z" fill="#3F2355"/>
<path d="M32.2178 61.2871L32.2051 66.1112H31.5664V61.2871H32.2178Z" fill="#3F2355"/>
<path d="M45.1337 62.4408C52.6701 62.939 54.8841 68.2697 55.3908 69.9005C55.8592 71.2034 56.0721 74.4861 55.608 77.7221V77.7689C55.6157 77.8385 55.6473 77.9032 55.6974 77.952C56.1232 78.3778 57.4005 78.5438 57.9455 78.5524L101.337 78.6418V79.9191L57.9455 79.8297C57.5708 79.8297 55.642 79.7573 54.7734 78.8206C54.6258 78.6643 54.5119 78.4793 54.4387 78.2772C54.3654 78.075 54.3344 77.86 54.3477 77.6454V77.5858C54.8118 74.3754 54.5563 71.3056 54.1944 70.3476V70.305C53.7686 68.8743 51.8143 64.178 45.0741 63.7309C44.6484 63.7011 44.2226 63.6883 43.7968 63.6883C38.6363 63.6883 35.3408 65.9109 34.0038 70.305L33.9442 70.4923C33.9212 70.5691 33.8739 70.6363 33.8094 70.6839C33.7449 70.7315 33.6667 70.7569 33.5866 70.7563H31.3214C31.2175 70.7563 31.1179 70.715 31.0444 70.6416C30.971 70.5681 30.9297 70.4685 30.9297 70.3646V66.1281H32.207V69.4619H32.471H32.8968L32.9479 69.3214C35.1662 63.1093 40.8078 62.164 45.1337 62.4408Z" fill="#3F2355"/>
<path d="M50.2431 53.2657L55.4334 42.2891H56.847L51.397 53.8107C51.2044 54.2172 50.9151 54.5703 50.5543 54.8391C50.1935 55.1078 49.7724 55.2839 49.3277 55.352C39.7434 56.8337 33.0203 59.1415 32.2028 61.2363V61.2874H31.5726V66.1115H30.9297V61.083L30.9552 60.9936C32.0452 57.2638 42.8218 55.0668 49.1489 54.0917C49.3843 54.0524 49.6068 53.9567 49.7973 53.8129C49.9878 53.6691 50.1408 53.4813 50.2431 53.2657Z" fill="#3F2355"/>
<path d="M53.9838 70.3523C53.558 68.9557 51.6548 64.3658 45.0424 63.9273C39.2518 63.5483 35.5943 65.7028 34.1764 70.3523L34.1211 70.5396C34.0867 70.6622 34.0132 70.7702 33.9117 70.8471C33.8102 70.9239 33.6864 70.9655 33.5591 70.9654H31.3195C31.1591 70.9654 31.0053 70.9017 30.8919 70.7883C30.7785 70.675 30.7148 70.5212 30.7148 70.3608V61.0532L30.7489 60.934C31.8687 57.102 42.7346 54.8666 49.1129 53.8831C49.3168 53.8502 49.5098 53.7683 49.6751 53.6445C49.8405 53.5206 49.9734 53.3585 50.0623 53.172L55.2143 42.2891H55.4485L50.2412 53.2657C50.1372 53.4835 49.9816 53.6725 49.788 53.8165C49.5943 53.9605 49.3684 54.0549 49.1299 54.0917C42.8028 55.0668 32.0263 57.2638 30.9363 60.9936L30.9107 61.083V70.348C30.9107 70.4519 30.952 70.5516 31.0254 70.625C31.0989 70.6985 31.1985 70.7398 31.3024 70.7398H33.5505C33.6307 70.7404 33.7089 70.715 33.7734 70.6674C33.8379 70.6198 33.8852 70.5525 33.9082 70.4758L33.9678 70.2884C35.3048 65.8944 38.6003 63.6718 43.7608 63.6718C44.1866 63.6718 44.6123 63.6718 45.0381 63.7144C51.7782 64.1614 53.7241 68.8578 54.1584 70.2884V70.331C54.5203 71.306 54.7757 74.3759 54.3116 77.5693V77.6289C54.2984 77.8435 54.3294 78.0585 54.4026 78.2606C54.4759 78.4628 54.5898 78.6477 54.7374 78.8041C55.589 79.7408 57.5348 79.8089 57.9095 79.8132L101.335 79.9196V79.3278H101.548V80.1325L57.9478 80.0473C57.5476 80.0473 55.5464 79.9664 54.6225 78.9701C54.4525 78.7926 54.3212 78.5818 54.2369 78.3509C54.1526 78.12 54.1172 77.8742 54.1328 77.6289V77.5565C54.5927 74.3844 54.3457 71.3614 53.988 70.4034L53.9838 70.3523Z" fill="#3F2355"/>
<path d="M34.1869 70.3509C35.6048 65.7013 39.2622 63.5384 45.0529 63.9258C51.6567 64.3516 53.5685 68.9543 53.9943 70.3509V70.3977C54.3519 71.3557 54.5989 74.3787 54.139 77.5508V77.6232C54.1234 77.8685 54.1588 78.1143 54.2431 78.3452C54.3274 78.5761 54.4587 78.7869 54.6287 78.9644C55.5526 79.9607 57.5538 80.0374 57.954 80.0416L101.558 80.1311V79.3263H101.771V80.3482L57.9498 80.2545C57.524 80.2545 55.459 80.1694 54.4711 79.1092C54.2816 78.9107 54.1352 78.6749 54.0414 78.417C53.9476 78.159 53.9084 77.8844 53.9261 77.6104V77.5295C53.9772 77.1846 54.0198 76.8398 54.0496 76.5034C54.0496 76.3842 54.0752 76.2692 54.0837 76.1543C54.3136 73.5485 54.0837 71.2705 53.7984 70.4701V70.419C53.3726 69.048 51.5247 64.5688 45.0529 64.1387C39.3772 63.764 35.7921 65.8759 34.4083 70.4105L34.353 70.5978C34.3404 70.6407 34.3232 70.6821 34.3019 70.7213C34.2339 70.8517 34.131 70.9605 34.0047 71.0357C33.8783 71.1109 33.7336 71.1495 33.5866 71.1471H31.3214C31.214 71.1471 31.1077 71.1259 31.0086 71.0848C30.9094 71.0438 30.8193 70.9835 30.7433 70.9076C30.6674 70.8317 30.6072 70.7416 30.5661 70.6424C30.5251 70.5432 30.5039 70.4369 30.5039 70.3296V60.9624L30.538 60.8432C31.6918 56.8877 42.6472 54.631 49.0765 53.6389C49.2458 53.6129 49.4062 53.5457 49.5435 53.4433C49.6809 53.3408 49.791 53.2063 49.8642 53.0514L54.9736 42.2578H55.212L50.06 53.1408C49.9711 53.3273 49.8382 53.4894 49.6728 53.6132C49.5075 53.7371 49.3145 53.8189 49.1105 53.8518C42.7238 54.8354 31.8664 57.058 30.7466 60.9028L30.7125 61.022V70.3168C30.7125 70.4771 30.7762 70.6309 30.8896 70.7443C31.003 70.8577 31.1568 70.9214 31.3172 70.9214H33.5653C33.6926 70.9215 33.8164 70.8799 33.9179 70.803C34.0194 70.7262 34.0929 70.6182 34.1273 70.4956L34.1869 70.3509Z" fill="#3F2355"/>
</svg>
