<svg width="177" height="109" viewBox="0 0 177 109" fill="none" xmlns="http://www.w3.org/2000/svg">
<path d="M139.48 45.6738V45.4609C139.48 45.3886 139.48 45.3204 139.48 45.248H139.693C139.693 45.3162 139.693 45.3886 139.693 45.4609V45.6738H139.48Z" fill="#3F2355"/>
<path d="M139.477 45.248C139.477 45.3204 139.477 45.3886 139.477 45.4609H138.625C138.629 45.39 138.629 45.3189 138.625 45.248H139.477Z" fill="#3F2355"/>
<path d="M138.625 45.4609H139.477V45.6738H139.264H138.625V45.5589V45.4609Z" fill="#3F2355"/>
<path d="M138.631 45.9844H137.992V46.4102H138.631V45.9844Z" fill="#3F2355"/>
<path d="M138.631 45.6738H137.992V45.9846H138.631V45.6738Z" fill="#3F2355"/>
<path d="M138.629 45.4609H137.777V45.5589H138.629V45.4609Z" fill="#3F2355"/>
<path d="M137.773 45.6736V45.5586H138.625V45.6736H137.986H137.773Z" fill="#3F2355"/>
<path d="M137.99 45.9844H137.777V46.4102H137.99V45.9844Z" fill="#3F2355"/>
<path d="M137.99 45.6738H137.777V45.9846H137.99V45.6738Z" fill="#3F2355"/>
<path d="M137.779 45.9844H137.566V46.4102H137.779V45.9844Z" fill="#3F2355"/>
<path d="M138.617 45.248C138.621 45.3189 138.621 45.39 138.617 45.4609H137.766C137.77 45.39 137.77 45.3189 137.766 45.248H138.617Z" fill="#3F2355"/>
<path d="M137.779 45.6738H137.566V45.9846H137.779V45.6738Z" fill="#3F2355"/>
<path d="M137.779 45.4609V45.5589H137.566V45.248H137.767C137.775 45.3187 137.779 45.3898 137.779 45.4609Z" fill="#3F2355"/>
<path d="M137.779 45.5586H137.566V45.6736H137.779V45.5586Z" fill="#3F2355"/>
<path d="M137.569 58.7587C137.571 60.3362 137.262 61.8986 136.659 63.3565C136.057 64.8145 135.173 66.1395 134.059 67.2557C132.944 68.372 131.62 69.2576 130.163 69.8621C128.706 70.4665 127.144 70.778 125.567 70.7785H111.656C112.231 70.0245 112.756 69.2337 113.227 68.4112L113.368 68.1642V46.4238H137.574L137.569 58.7587Z" fill="white"/>
<path d="M137.565 45.9883H113.359V46.4141H137.565V45.9883Z" fill="#3F2355"/>
<path d="M137.561 45.9844L113.36 45.9971L113.355 45.5714L137.561 45.5586V45.6736V45.9844Z" fill="#3F2355"/>
<path d="M137.565 45.4612V45.5592H113.355V43.3834L135.394 43.2813C135.969 43.2812 136.521 43.5094 136.928 43.9158C137.335 44.3221 137.564 44.8733 137.565 45.4485V45.4612Z" fill="#DEDFE0"/>
<path d="M138.131 42.7224C138.808 43.3943 139.211 44.2946 139.259 45.2473H138.616C138.564 44.4291 138.203 43.6615 137.605 43.1007C137.007 42.5398 136.217 42.228 135.397 42.2285L113.363 42.3265V41.6878L135.397 41.5899C135.905 41.5881 136.409 41.6873 136.878 41.8817C137.347 42.0761 137.773 42.3619 138.131 42.7224Z" fill="#3F2355"/>
<path d="M137.076 43.7741C137.473 44.1676 137.718 44.6899 137.766 45.2473H137.565V45.4602C137.564 44.885 137.335 44.3338 136.928 43.9275C136.521 43.5212 135.969 43.293 135.394 43.293L113.355 43.3952V43.178L135.394 43.0801C135.706 43.0791 136.016 43.14 136.304 43.2591C136.593 43.3782 136.855 43.5532 137.076 43.7741Z" fill="#3F2355"/>
<path d="M135.398 43.0801L113.359 43.178V42.9651L135.394 42.8672C136.046 42.866 136.674 43.1101 137.155 43.551C137.635 43.992 137.932 44.5975 137.987 45.2473H137.769C137.716 44.6551 137.443 44.1043 137.004 43.7032C136.566 43.3021 135.992 43.0798 135.398 43.0801Z" fill="#3F2355"/>
<path d="M137.229 43.6251C136.987 43.3839 136.701 43.1928 136.385 43.0627C136.069 42.9327 135.731 42.8662 135.39 42.8672L113.355 42.9651V42.3265L135.398 42.2285C136.219 42.2258 137.011 42.5367 137.611 43.0977C138.21 43.6588 138.574 44.4277 138.626 45.2473H137.991C137.938 44.6331 137.668 44.0578 137.229 43.6251Z" fill="#3F2355"/>
<path d="M138.131 42.7225C137.773 42.3619 137.347 42.0762 136.878 41.8817C136.409 41.6873 135.905 41.5881 135.397 41.5899L113.363 41.6878V41.4749L135.397 41.377C135.934 41.3741 136.466 41.4781 136.963 41.6827C137.459 41.8874 137.91 42.1887 138.289 42.5692C139.007 43.2817 139.434 44.2368 139.485 45.2474H139.268C139.217 44.2935 138.811 43.393 138.131 42.7225Z" fill="#3F2355"/>
<path d="M135.4 41.377L113.366 41.4749V41.3003H112.434L135.4 41.1641C136.505 41.1626 137.567 41.5856 138.368 42.3456C139.17 43.1056 139.648 44.1444 139.705 45.2473H139.492C139.441 44.2367 139.014 43.2817 138.296 42.5691C137.917 42.1887 137.466 41.8874 136.97 41.6827C136.473 41.478 135.941 41.3741 135.404 41.377H135.4Z" fill="#3F2355"/>
<path d="M132.845 9.13776C133.005 9.29672 133.096 9.51263 133.097 9.73811C133.097 9.96396 133.007 10.1806 132.847 10.3403C132.688 10.5 132.471 10.5897 132.245 10.5897H127.561L110.93 41.3013C110.343 41.3268 109.751 41.3822 109.159 41.4588L108.887 41.5014L126.544 8.89081H132.228C132.342 8.88845 132.456 8.90911 132.562 8.95153C132.668 8.99396 132.764 9.05729 132.845 9.13776Z" fill="#3F2355"/>
<path d="M125.568 72.6854C129.26 72.6831 132.801 71.2148 135.411 68.6032C138.021 65.9915 139.487 62.4504 139.487 58.7581V45.6738H139.7V58.7581C139.702 60.6152 139.337 62.4544 138.628 64.1706C137.919 65.8869 136.878 67.4465 135.566 68.7605C134.253 70.0744 132.695 71.1169 130.979 71.8283C129.264 72.5398 127.425 72.9062 125.568 72.9068H109.84L110.023 72.7152L110.044 72.6939L125.568 72.6854Z" fill="#3F2355"/>
<path d="M125.567 72.4725C129.203 72.4702 132.689 71.0243 135.259 68.4526C137.829 65.8809 139.273 62.3939 139.273 58.7581V45.6738H139.486V58.7581C139.487 60.587 139.128 62.3983 138.429 64.0885C137.73 65.7787 136.705 67.3146 135.413 68.6087C134.12 69.9027 132.585 70.9296 130.896 71.6305C129.207 72.3314 127.396 72.6928 125.567 72.6939H110.043L110.162 72.5619C110.189 72.537 110.213 72.5099 110.235 72.481L125.567 72.4725Z" fill="#3F2355"/>
<path d="M135.261 68.4489C133.992 69.7273 132.481 70.7411 130.817 71.4318C129.153 72.1225 127.368 72.4762 125.566 72.4725H110.238C110.617 72.0467 110.979 71.6209 111.328 71.1952H125.571C128.867 71.1918 132.027 69.88 134.357 67.5479C136.686 65.2159 137.995 62.0544 137.995 58.7581V46.4104H138.634V45.6738H139.272V58.7581C139.277 60.5583 138.925 62.3415 138.237 64.0049C137.548 65.6682 136.537 67.1786 135.261 68.4489Z" fill="#3F2355"/>
<path d="M134.359 67.5459C133.207 68.7046 131.837 69.6235 130.328 70.2498C128.819 70.8761 127.201 71.1973 125.567 71.1949H111.324L111.49 70.982H125.567C128.807 70.9797 131.914 69.6908 134.205 67.3986C136.496 65.1064 137.782 61.9984 137.782 58.7578V46.4102H137.995V58.7578C138 60.3903 137.681 62.0075 137.057 63.516C136.433 65.0245 135.516 66.3942 134.359 67.5459Z" fill="#3F2355"/>
<path d="M125.565 70.7691C127.141 70.7685 128.703 70.4574 130.159 69.8535C131.616 69.2496 132.939 68.3647 134.054 67.2493C135.168 66.134 136.052 64.81 136.655 63.353C137.258 61.8961 137.568 60.3346 137.567 58.7578V46.4102H137.78V58.7578C137.781 60.3631 137.466 61.9529 136.853 63.4365C136.24 64.92 135.34 66.2682 134.206 67.4041C133.072 68.54 131.725 69.4414 130.242 70.0567C128.759 70.6721 127.17 70.9894 125.565 70.9905H111.488L111.654 70.7776L125.565 70.7691Z" fill="#3F2355"/>
<path d="M113.356 41.4746V41.6875H113.143V41.5002L112.309 41.4789L113.356 41.4746Z" fill="#3F2355"/>
<path d="M113.361 45.998H113.148V46.4238H113.361V45.998Z" fill="#3F2355"/>
<path d="M113.147 45.998V46.4238H112.934L112.93 45.998H113.147Z" fill="#3F2355"/>
<path d="M113.145 45.5723H113.357L113.362 45.998H113.149L113.145 45.5723Z" fill="#3F2355"/>
<path d="M113.143 45.5723L113.147 45.998H112.93V45.5723H113.143Z" fill="#3F2355"/>
<path d="M113.357 43.3965H113.145V45.5722H113.357V43.3965Z" fill="#3F2355"/>
<path d="M113.143 43.3965H112.93V45.5722H113.143V43.3965Z" fill="#3F2355"/>
<path d="M113.357 43.1777H113.145V43.3949H113.357V43.1777Z" fill="#3F2355"/>
<path d="M113.143 43.1777H112.93V43.3949H113.143V43.1777Z" fill="#3F2355"/>
<path d="M113.357 42.9648H113.145V43.1777H113.357V42.9648Z" fill="#3F2355"/>
<path d="M113.143 42.9648V43.1777H112.93V42.9691L113.143 42.9648Z" fill="#3F2355"/>
<path d="M113.357 42.3262H113.145V42.9648H113.357V42.3262Z" fill="#3F2355"/>
<path d="M113.143 42.3262V42.9648L112.93 42.9691V42.3262H113.143Z" fill="#3F2355"/>
<path d="M113.357 41.6875H113.145V42.3262H113.357V41.6875Z" fill="#3F2355"/>
<path d="M112.93 41.7088L112.504 41.696V41.6918L113.143 41.6875V42.3262H112.93V41.7088Z" fill="#3F2355"/>
<path d="M112.931 45.5723H112.297V45.998H112.931V45.5723Z" fill="#3F2355"/>
<path d="M112.932 43.3965V45.5722H112.297L112.293 43.4007L112.932 43.3965Z" fill="#3F2355"/>
<path d="M112.93 42.3262V42.9691H112.508L112.504 42.3304L112.93 42.3262Z" fill="#3F2355"/>
<path d="M112.93 41.71V42.3274L112.504 42.3317V41.6973L112.93 41.71Z" fill="#3F2355"/>
<path d="M113.359 46.4102V68.1505L113.218 68.3975C112.747 69.2201 112.222 70.0109 111.647 70.7648H111.379C111.986 69.9783 112.539 69.1518 113.035 68.2911L113.146 68.0952V46.4102H113.359Z" fill="#3F2355"/>
<path d="M112.297 43.1836L112.293 42.332H112.506L112.51 42.9707H112.932V43.1793L112.297 43.1836Z" fill="#3F2355"/>
<path d="M112.309 41.6934V41.4805H113.16V41.6678H112.309V41.6934Z" fill="#3F2355"/>
<path d="M112.293 41.6934H112.506V42.3278H112.293V41.6934Z" fill="#3F2355"/>
<path d="M112.215 46.4238V45.5723H112.296V45.998H112.93L112.934 46.4238H112.296H112.215Z" fill="#3F2355"/>
<path d="M112.293 43.4007V42.332L112.297 43.1836L112.932 43.1793V43.3965L112.293 43.4007Z" fill="#3F2355"/>
<path d="M112.078 41.6875V41.4746H112.295V41.6875H112.078Z" fill="#3F2355"/>
<path d="M112.075 41.4759V41.2715H112.407H113.34V41.4546H112.062L112.075 41.4759Z" fill="#3F2355"/>
<path d="M112.086 43.4004V41.6973H112.299V43.4004H112.086Z" fill="#3F2355"/>
<path d="M111.389 70.7785H111.129C111.771 69.9608 112.354 69.0985 112.875 68.1983L112.956 68.0493V46.4238H113.168V68.1089L113.058 68.3047C112.558 69.1659 112 69.9923 111.389 70.7785Z" fill="#3F2355"/>
<path d="M111.657 70.7773L111.491 70.9902H111.227L111.388 70.7773H111.657Z" fill="#3F2355"/>
<path d="M111.229 70.9902H111.493L111.327 71.2031H111.059L111.229 70.9902Z" fill="#3F2355"/>
<path d="M111.226 70.9902H110.949C111.009 70.9179 111.064 70.8497 111.115 70.7773H111.388L111.226 70.9902Z" fill="#3F2355"/>
<path d="M112.079 41.6883C111.62 41.6883 111.156 41.6883 110.691 41.7266L110.811 41.5095C111.236 41.4839 111.662 41.4712 112.088 41.4754L112.079 41.6883Z" fill="#3F2355"/>
<path d="M112.074 41.4762C111.648 41.4762 111.223 41.4762 110.797 41.5102L110.916 41.2931C111.384 41.2633 111.844 41.259 112.304 41.2675H112.061L112.074 41.4762Z" fill="#3F2355"/>
<path d="M111.058 71.2031H110.781L110.952 70.9902H111.228L111.058 71.2031Z" fill="#3F2355"/>
<path d="M111.128 70.7773C111.077 70.8497 111.021 70.9179 110.962 70.9902H109.297L109.48 70.7773H111.128Z" fill="#3F2355"/>
<path d="M109.967 43.0721L110.704 41.7266C111.168 41.6968 111.632 41.684 112.092 41.6883V43.3914H112.296V45.5586H112.215V46.4102H112.935V68.0356L112.854 68.1847C112.334 69.0849 111.75 69.9472 111.108 70.7649H109.469C110.279 69.8248 111.004 68.8146 111.636 67.7461L111.666 67.695V42.9529H111.444C110.95 43.004 110.457 43.004 109.967 43.0721Z" fill="#3F2355"/>
<path d="M110.236 72.4805C110.214 72.5094 110.19 72.5364 110.163 72.5614L110.044 72.6934H109.746C109.814 72.6252 109.882 72.5529 109.946 72.4805H110.236Z" fill="#3F2355"/>
<path d="M110.02 72.7146L109.837 72.9062H109.543C109.611 72.8339 109.679 72.7657 109.743 72.6934H110.041L110.02 72.7146Z" fill="#3F2355"/>
<path d="M110.235 72.4801H109.945L110.005 72.4162C110.371 72.0245 110.716 71.62 111.052 71.207H111.321C110.976 71.6413 110.614 72.0671 110.235 72.4801Z" fill="#3F2355"/>
<path d="M109.852 72.2715L110.009 72.412V72.4163H110.005L109.852 72.2715Z" fill="#3F2355"/>
<path d="M109.747 72.6934H109.457L109.661 72.4805H109.947C109.883 72.5529 109.815 72.6252 109.747 72.6934Z" fill="#3F2355"/>
<path d="M109.852 72.2718L109.379 71.8461L109.524 71.6885L109.996 72.1143C110.265 71.8162 110.529 71.5139 110.78 71.2031H111.056C110.72 71.6289 110.375 72.0206 110.009 72.4123L109.852 72.2718Z" fill="#3F2355"/>
<path d="M109.707 72.429L109.234 72.0032L109.379 71.8457L109.852 72.2715L110.005 72.4162L109.945 72.4801H109.66L109.707 72.429Z" fill="#3F2355"/>
<path d="M109.544 72.9062H109.25L109.454 72.6934H109.744C109.68 72.7657 109.612 72.8339 109.544 72.9062Z" fill="#3F2355"/>
<path d="M111.635 67.7593C111.004 68.8278 110.279 69.838 109.468 70.7781H109.191C110.037 69.8061 110.794 68.7602 111.452 67.6529V43.1875C110.924 43.1875 110.388 43.2386 109.851 43.2982L109.975 43.0725C110.464 43.0172 110.958 42.9874 111.444 42.9746H111.665V67.7168L111.635 67.7593Z" fill="#3F2355"/>
<path d="M109.526 71.6846L109.381 71.8421L109.236 71.9997L109.709 72.4255L109.662 72.4766H109.211V71.1992H110.782C110.531 71.51 110.267 71.8123 109.999 72.1104L109.526 71.6846Z" fill="#3F2355"/>
<path d="M109.192 70.7773H109.468L109.285 70.9902H109L109.192 70.7773Z" fill="#3F2355"/>
<path d="M109.425 43.3499L109.851 43.2988L109.728 43.5288L109.451 43.5586C108.833 43.6437 108.212 43.7544 107.586 43.8992L107.722 43.6565C108.29 43.5287 108.858 43.4266 109.425 43.3499Z" fill="#3F2355"/>
<path d="M109.384 43.1361C109.58 43.1106 109.771 43.0893 109.967 43.0723L109.844 43.2979L109.418 43.349C108.85 43.4257 108.283 43.5278 107.715 43.6556L107.847 43.4044C108.362 43.2937 108.873 43.2043 109.384 43.1361Z" fill="#3F2355"/>
<path d="M108.902 70.7781C109.781 69.7934 110.564 68.727 111.24 67.5933V43.4046C110.742 43.4046 110.235 43.4643 109.728 43.5281L109.852 43.2982C110.388 43.2386 110.925 43.2003 111.453 43.1875V67.6529C110.794 68.7602 110.038 69.8061 109.192 70.7781H108.902Z" fill="#3F2355"/>
<path d="M109.212 41.8717C109.016 41.8972 108.825 41.927 108.629 41.9611L108.757 41.7269L109.182 41.663C109.722 41.5864 110.262 41.5353 110.805 41.5098L110.702 41.7269C110.196 41.7567 109.706 41.8036 109.212 41.8717Z" fill="#3F2355"/>
<path d="M109 72.6934V71.3096L109.29 70.9902H110.954L110.784 71.2031H109.213V72.4805H109.664L109.46 72.6934H109Z" fill="#3F2355"/>
<path d="M108.758 41.7273L108.886 41.4931L109.158 41.4505C109.75 41.3739 110.342 41.3185 110.929 41.293L110.81 41.5101C110.271 41.5357 109.73 41.5868 109.188 41.6634L108.758 41.7273Z" fill="#3F2355"/>
<path d="M109 71.3092V70.9941H109.29L109 71.3092Z" fill="#3F2355"/>
<path d="M109.254 72.9063H108.785V71.5311L108.904 71.4033L108.938 71.365L108.998 71.2969V72.6807H109.458L109.254 72.9063Z" fill="#3F2355"/>
<path d="M109.002 70.9906L108.789 71.2248V70.9097C108.832 70.8671 108.87 70.8203 108.908 70.7734H109.198L109.002 70.9906Z" fill="#3F2355"/>
<path d="M108.938 71.3773L108.904 71.4157L108.785 71.5434V71.2283L108.998 70.9941V71.3092L108.938 71.3773Z" fill="#3F2355"/>
<path d="M108.631 41.9607C108.827 41.9267 109.019 41.8969 109.214 41.8713C109.708 41.8032 110.198 41.7564 110.692 41.7266L109.968 43.072C109.772 43.072 109.581 43.1103 109.385 43.1359C108.874 43.204 108.363 43.2934 107.848 43.4041L108.631 41.9607Z" fill="#3F2355"/>
<path d="M108.904 70.7773C108.866 70.8242 108.828 70.871 108.785 70.9136V70.7773H108.904Z" fill="#3F2355"/>
<path d="M108.573 71.1051C107.844 71.9094 107.05 72.6541 106.202 73.3319C105.862 71.244 104.988 69.2795 103.664 67.6292C102.34 65.9789 100.613 64.699 98.6484 63.9136L109.719 43.5102C110.225 43.4463 110.732 43.408 111.23 43.3867V67.5754C110.554 68.709 109.772 69.7755 108.893 70.7602H108.774V70.8964L108.616 71.071L108.573 71.1051Z" fill="white"/>
<path d="M108.781 70.9129V71.2279L108.751 71.262C107.93 72.165 107.031 72.9942 106.064 73.74C105.794 71.6106 104.955 69.5933 103.636 67.9C102.316 66.2068 100.565 64.9002 98.5664 64.1174L98.6686 63.9258C100.633 64.7111 102.361 65.9911 103.684 67.6414C105.008 69.2916 105.882 71.2561 106.222 73.3441C107.064 72.6613 107.85 71.9124 108.572 71.1045L108.606 71.0704L108.781 70.9129Z" fill="#3F2355"/>
<path d="M108.778 71.2327V71.5307C107.983 72.3928 107.115 73.1848 106.185 73.8981L105.891 74.1237L105.844 73.7576C105.587 71.6588 104.764 69.6694 103.464 68.0021C102.163 66.3349 100.434 65.0526 98.4609 64.2925L98.5631 64.1094C100.562 64.8922 102.313 66.1988 103.632 67.892C104.952 69.5853 105.791 71.6026 106.061 73.732C107.027 72.9862 107.926 72.157 108.748 71.254L108.778 71.2327Z" fill="#3F2355"/>
<path d="M98.1986 64.7953C98.1229 64.9265 98.0135 65.0352 97.8818 65.11C97.75 65.1849 97.6007 65.2232 97.4492 65.2211C97.3623 65.2215 97.2759 65.2071 97.1938 65.1785C97.1418 65.1649 97.0917 65.1449 97.0447 65.1189C96.9463 65.0658 96.8593 64.9938 96.7888 64.9071C96.7182 64.8203 96.6653 64.7205 96.6333 64.6134C96.6013 64.5063 96.5907 64.3938 96.6021 64.2826C96.6135 64.1714 96.6467 64.0634 96.6999 63.965L96.802 63.7734L97.0745 63.8373L97.4109 63.9267L97.5429 63.965C97.858 64.0587 98.1603 64.1652 98.4626 64.2844L98.1986 64.7953Z" fill="#3F2355"/>
<path d="M97.6589 63.5774L97.5227 63.5391L97.1735 63.4454L97.0117 63.4071L107.575 43.8978C108.201 43.753 108.823 43.6423 109.44 43.5571L109.717 43.5273L98.6467 63.9308C98.3529 63.7988 97.9995 63.6796 97.6589 63.5774Z" fill="#3F2355"/>
<path d="M108.782 71.5304V72.8929H109.25C108.164 74.0051 106.958 74.992 105.652 75.835L104.668 76.4567V75.2943C104.678 73.0296 103.955 70.8225 102.606 69.0029C101.258 67.1833 99.357 65.8488 97.1875 65.199C97.2696 65.2276 97.356 65.242 97.443 65.2416C97.5945 65.2437 97.7438 65.2054 97.8755 65.1305C98.0072 65.0557 98.1166 64.947 98.1923 64.8158L98.4563 64.3262C100.43 65.0857 102.16 66.3677 103.462 68.035C104.763 69.7023 105.586 71.692 105.844 73.7913L105.89 74.1575L106.184 73.9318C107.118 73.2079 107.987 72.4044 108.782 71.5304Z" fill="#3F2355"/>
<path d="M97.6009 63.782C97.9287 63.8799 98.2481 63.9949 98.5632 64.1226L98.461 64.3057C98.1587 64.1865 97.8564 64.08 97.5413 63.9864L97.4093 63.948L97.0772 63.8671L96.8047 63.8033L96.9111 63.6074L97.1283 63.6585L97.4732 63.7522L97.6009 63.782Z" fill="#3F2355"/>
<path d="M97.6599 63.5785C98.0005 63.6807 98.3369 63.7999 98.6647 63.9319L98.5625 64.1235C98.2474 63.9958 97.9281 63.8808 97.6003 63.7829L97.4683 63.7446L97.1234 63.6509L96.9062 63.5998L97.0127 63.4082L97.1745 63.4465L97.5236 63.5402L97.6599 63.5785Z" fill="#3F2355"/>
<path d="M94.25 82.998C95.6833 83.0019 97.0885 82.6004 98.3034 81.8398L99.3764 81.8696C97.921 83.0175 96.1206 83.6401 94.267 83.6366L94.25 82.998Z" fill="#3F2355"/>
<path d="M108.76 41.7266L108.632 41.9607C103.582 42.7825 98.2641 45.4862 93.5422 49.6248C93.5166 49.5567 93.4868 49.4928 93.457 49.4247C98.2428 45.2393 103.637 42.5185 108.76 41.7266Z" fill="#3F2355"/>
<path d="M94.2461 82.3595C93.2154 82.364 92.1969 82.137 91.2656 81.6953C93.2526 81.7237 95.1615 81.7606 96.9924 81.806C96.1238 82.1745 95.1895 82.3628 94.2461 82.3595Z" fill="#DEDFE0"/>
<path d="M94.2526 82.9968V83.6354C92.2822 83.6414 90.3747 82.9422 88.875 81.6641H89.9437C91.2138 82.5304 92.7152 82.9948 94.2526 82.9968Z" fill="#3F2355"/>
<path d="M107.845 43.4033C103.162 44.4039 98.2652 47.065 93.9095 51.0248C93.893 51.0426 93.8745 51.0583 93.8541 51.0716C93.8442 50.5773 93.7371 50.0897 93.5391 49.6367C98.261 45.4854 103.579 42.7816 108.629 41.9727L107.845 43.4033Z" fill="#3F2355"/>
<path d="M93.9098 51.0258C98.2655 47.066 103.153 44.4049 107.846 43.4043L107.714 43.6555C103.115 44.6689 98.3464 47.3002 94.0545 51.1833L93.8672 51.3536V51.1407C93.8693 51.1195 93.8693 51.0981 93.8672 51.0769C93.8833 51.0615 93.8975 51.0444 93.9098 51.0258Z" fill="#3F2355"/>
<path d="M108.884 41.4922L108.757 41.7264C103.647 42.5183 98.2399 45.2391 93.4541 49.4373C93.4158 49.3734 93.3817 49.3095 93.3477 49.2457C98.2101 44.9964 103.686 42.2586 108.884 41.4922Z" fill="#3F2355"/>
<path d="M93.8584 51.1365V51.3494H93.5391C93.6455 51.2557 93.7519 51.162 93.8499 51.0684C93.8551 51.0907 93.858 51.1135 93.8584 51.1365Z" fill="#3F2355"/>
<path d="M93.372 49.791C93.5472 50.2182 93.6396 50.6748 93.6445 51.1365H92.793C92.7973 51.0656 92.7973 50.9945 92.793 50.9236H93.4359C93.4121 50.5855 93.339 50.2527 93.2188 49.9358L93.372 49.791Z" fill="#3F2355"/>
<path d="M93.5404 49.6367C93.7384 50.0897 93.8454 50.5773 93.8554 51.0716C93.7575 51.1653 93.6511 51.2589 93.5446 51.3526H92.5312L92.7952 51.1397H93.6468C93.6419 50.678 93.5494 50.2215 93.3743 49.7943L93.5404 49.6367Z" fill="#3F2355"/>
<path d="M93.5406 49.6376L93.3746 49.7909C93.3491 49.7223 93.3192 49.6555 93.2852 49.5908C93.3405 49.5354 93.3959 49.4886 93.4555 49.4375C93.4853 49.5056 93.5151 49.5695 93.5406 49.6376Z" fill="#3F2355"/>
<path d="M93.4522 49.4377C93.3926 49.4888 93.3372 49.5356 93.2819 49.591C93.2521 49.5229 93.2137 49.4547 93.1797 49.3866L93.3457 49.2461C93.3798 49.31 93.4139 49.3909 93.4522 49.4377Z" fill="#3F2355"/>
<path d="M93.2073 49.9395C93.3275 50.2564 93.4007 50.5892 93.4245 50.9273H92.7815C92.7681 50.7455 92.7353 50.5656 92.6836 50.3908C92.8071 50.2886 92.9305 50.1821 93.0455 50.0757L93.2073 49.9395Z" fill="#3F2355"/>
<path d="M93.3727 49.79L93.2066 49.939C93.1811 49.8704 93.1513 49.8036 93.1172 49.7389C93.1725 49.6835 93.2279 49.6367 93.2832 49.5898C93.3173 49.6546 93.3472 49.7214 93.3727 49.79Z" fill="#3F2355"/>
<path d="M93.2839 49.5911C93.2285 49.6379 93.1732 49.6848 93.1178 49.7401C93.0915 49.6697 93.0572 49.6026 93.0156 49.54L93.1817 49.3867C93.2157 49.4548 93.2455 49.523 93.2839 49.5911Z" fill="#3F2355"/>
<path d="M92.9818 79.0596L92.8455 79.4641C92.2805 79.2711 91.7608 78.965 91.3179 78.5646C90.8751 78.1642 90.5184 77.6778 90.2695 77.1351L90.657 76.9605C90.6439 76.9358 90.6325 76.9102 90.6229 76.8839L90.6016 76.8285C90.5838 76.7911 90.5682 76.7528 90.5548 76.7136C90.4338 76.396 90.3551 76.0639 90.3206 75.7257C90.3206 75.5895 90.2993 75.4532 90.2993 75.3C90.2977 74.5173 90.5282 73.7517 90.9618 73.1001C91.3954 72.4485 92.0126 71.9402 92.7352 71.6395C93.4579 71.3388 94.2534 71.2592 95.0213 71.4109C95.7891 71.5626 96.4947 71.9386 97.0488 72.4915C97.6028 73.0443 97.9804 73.7491 98.1337 74.5166C98.287 75.2842 98.2092 76.0799 97.9101 76.8032C97.6109 77.5265 97.104 78.1447 96.4533 78.5797C95.8026 79.0148 95.0375 79.247 94.2548 79.247C94.041 79.2443 93.8277 79.2272 93.6162 79.1959H93.5693L93.2926 79.1363L92.9818 79.0596Z" fill="white"/>
<path d="M92.9063 49.9265L92.6168 50.1863C92.5914 50.1149 92.5615 50.0452 92.5273 49.9776L92.7615 49.769L93.017 49.5391C93.0586 49.6017 93.0928 49.6688 93.1192 49.7392L92.9063 49.9265Z" fill="#3F2355"/>
<path d="M92.8408 79.4628L92.7046 79.863C92.828 79.9056 92.9473 79.9396 93.0963 79.978C93.2453 80.0163 93.3177 80.0291 93.4369 80.0461H93.5093C93.7516 80.0833 93.9965 80.1018 94.2416 80.1014C95.2126 80.1024 96.1611 79.809 96.962 79.26C97.7629 78.711 98.3786 77.9321 98.7278 77.0261C99.0771 76.12 99.1435 75.1294 98.9183 74.1849C98.6931 73.2404 98.187 72.3862 97.4665 71.7352C96.7461 71.0842 95.8453 70.6668 94.8828 70.5382C93.9204 70.4095 92.9415 70.5756 92.0754 71.0145C91.2092 71.4535 90.4965 72.1446 90.0311 72.9968C89.5658 73.8491 89.3696 74.8223 89.4686 75.7883C89.5081 76.1965 89.6026 76.5976 89.7496 76.9805C89.7688 77.0447 89.793 77.1074 89.822 77.1678L89.8731 77.2913L90.2648 77.1167C90.5118 77.6626 90.8677 78.1523 91.3106 78.5557C91.7536 78.9591 92.2743 79.2678 92.8408 79.4628ZM101.297 75.3114C101.296 76.6963 100.888 78.0505 100.124 79.2051C99.359 80.3598 98.2714 81.2638 96.9964 81.8046C95.1656 81.762 93.2567 81.7251 91.2697 81.6939C90.0526 81.1285 89.0227 80.2268 88.3015 79.0951C87.5803 77.9635 87.1978 76.6491 87.1992 75.3071C87.2003 73.4385 87.9423 71.6466 89.2624 70.3241C90.5825 69.0016 92.373 68.2565 94.2416 68.252C96.1117 68.252 97.9051 68.9948 99.2274 70.3171C100.55 71.6394 101.293 73.4329 101.293 75.3029L101.297 75.3114Z" fill="#DEDFE0"/>
<path d="M92.6853 50.4004C92.7369 50.5752 92.7698 50.7551 92.7832 50.9369H92.1445V50.856C92.2297 50.7907 92.3148 50.7226 92.4 50.6516C92.4894 50.575 92.5873 50.4898 92.6853 50.4004Z" fill="#3F2355"/>
<path d="M92.6172 50.1873L92.9067 49.9276L93.1196 49.7402C93.1537 49.805 93.1836 49.8718 93.209 49.9404L93.0472 50.0851C92.9323 50.1916 92.8088 50.298 92.6853 50.4002C92.6691 50.3273 92.6463 50.2561 92.6172 50.1873Z" fill="#3F2355"/>
<path d="M92.6182 50.1875C92.6472 50.2563 92.67 50.3275 92.6863 50.4004C92.5884 50.4898 92.4904 50.575 92.3882 50.6559C92.2861 50.7368 92.2179 50.7964 92.1328 50.8602C92.1237 50.7824 92.1081 50.7055 92.0859 50.6303C92.1455 50.5877 92.2009 50.5409 92.2562 50.4941L92.6182 50.1875Z" fill="#3F2355"/>
<path d="M92.1426 50.9406H92.7813C92.7856 51.0115 92.7856 51.0826 92.7813 51.1535H91.9297C91.9297 51.1067 91.9297 51.0598 91.9297 51.013C91.9936 50.9662 92.0617 50.9108 92.1255 50.8555L92.1426 50.9406Z" fill="#3F2355"/>
<path d="M92.5265 49.9785C92.5607 50.0461 92.5906 50.1158 92.616 50.1872L92.2541 50.4937C92.1987 50.5405 92.1434 50.5874 92.0837 50.63C92.0675 50.5543 92.0447 50.4802 92.0156 50.4086L92.1178 50.3277C92.2583 50.2127 92.3946 50.0977 92.5265 49.9785Z" fill="#3F2355"/>
<path d="M92.0812 50.6289C92.1033 50.7041 92.119 50.781 92.128 50.8588C92.0641 50.9142 91.996 50.9695 91.9321 51.0164C91.9269 50.935 91.917 50.8539 91.9023 50.7737L92.0812 50.6289Z" fill="#3F2355"/>
<path d="M92.0825 50.6296L91.9037 50.7744C91.8875 50.6978 91.8662 50.6224 91.8398 50.5487C91.9009 50.5055 91.9592 50.4586 92.0144 50.4082C92.0435 50.4799 92.0663 50.554 92.0825 50.6296Z" fill="#3F2355"/>
<path d="M92.7946 51.1483L92.5306 51.3612H91.7344V51.1654L91.9387 51.0078C91.9387 51.0546 91.9387 51.1015 91.9387 51.1483H92.7946Z" fill="#3F2355"/>
<path d="M91.9029 50.7734C91.9175 50.8537 91.9275 50.9347 91.9327 51.0161L91.7283 51.1737C91.7297 51.0965 91.7225 51.0194 91.707 50.9438C91.7756 50.8909 91.841 50.834 91.9029 50.7734Z" fill="#3F2355"/>
<path d="M91.839 50.5488C91.8653 50.6225 91.8866 50.6979 91.9028 50.7745C91.8405 50.8292 91.7751 50.8804 91.707 50.9278C91.6984 50.8485 91.6827 50.7701 91.6602 50.6936L91.839 50.5488Z" fill="#3F2355"/>
<path d="M94.2507 82.359C95.1941 82.3622 96.1284 82.1739 96.9969 81.8055L98.3041 81.8395C97.0428 82.6233 95.5816 83.0251 94.0969 82.9964C92.6122 82.9677 91.1675 82.5097 89.9375 81.6777H91.2702C92.2014 82.1194 93.22 82.3464 94.2507 82.342V82.359Z" fill="#3F2355"/>
<path d="M94.2485 70.9258C94.8239 70.9258 95.3936 71.0391 95.9252 71.2593C96.4567 71.4795 96.9397 71.8022 97.3466 72.209C97.7534 72.6159 98.0761 73.0989 98.2963 73.6304C98.5165 74.162 98.6298 74.7317 98.6298 75.3071C98.6298 75.8824 98.5165 76.4522 98.2963 76.9837C98.0761 77.5153 97.7534 77.9983 97.3466 78.4051C96.9397 78.812 96.4567 79.1347 95.9252 79.3549C95.3936 79.575 94.8239 79.6884 94.2485 79.6884C94.0119 79.6872 93.7757 79.6687 93.5417 79.633H93.5034C93.3927 79.633 93.2863 79.5904 93.1798 79.5649C93.0734 79.5393 92.9541 79.5053 92.8434 79.467L92.9797 79.0625L93.2863 79.1519L93.563 79.2115H93.6099C93.8214 79.2428 94.0347 79.2599 94.2485 79.2626C95.03 79.2617 95.7937 79.0292 96.443 78.5943C97.0923 78.1594 97.5981 77.5418 97.8964 76.8195C98.1946 76.0972 98.272 75.3026 98.1187 74.5363C97.9655 73.77 97.5884 73.0664 97.0352 72.5144C96.482 71.9624 95.7776 71.5868 95.0109 71.4352C94.2443 71.2835 93.4499 71.3626 92.7283 71.6625C92.0066 71.9623 91.39 72.4694 90.9566 73.1197C90.5231 73.7699 90.2922 74.5341 90.293 75.3156C90.293 75.4518 90.293 75.5881 90.3143 75.7414C90.3488 76.0795 90.4275 76.4116 90.5485 76.7292C90.5618 76.7684 90.5775 76.8068 90.5953 76.8441L90.6166 76.8995C90.6262 76.9258 90.6376 76.9514 90.6507 76.9761L90.2632 77.1507L90.2121 77.0357C90.1872 76.9848 90.1659 76.9321 90.1483 76.8782C90.0139 76.525 89.9266 76.1557 89.8885 75.7797C89.8885 75.6307 89.8672 75.4816 89.8672 75.3326C89.8644 74.7553 89.9757 74.183 90.1945 73.6488C90.4134 73.1145 90.7356 72.6287 91.1427 72.2193C91.5497 71.8099 92.0336 71.4848 92.5666 71.2629C93.0996 71.0409 93.6712 70.9263 94.2485 70.9258Z" fill="#3F2355"/>
<path d="M89.9198 49.1602C90.3451 49.1608 90.7593 49.2952 91.104 49.5443C91.4486 49.7934 91.7061 50.1446 91.8401 50.5482L91.6613 50.693C91.5546 50.3132 91.3267 49.9788 91.0123 49.7405C90.6979 49.5022 90.3143 49.3732 89.9198 49.373H79.8203V49.1602H89.9198Z" fill="#3F2355"/>
<path d="M89.9156 48.9648C90.3726 48.9656 90.8184 49.1058 91.1935 49.3668C91.5686 49.6278 91.8551 49.9971 92.0147 50.4253C91.9595 50.4757 91.9012 50.5226 91.8401 50.5658C91.7061 50.1622 91.4486 49.811 91.104 49.5619C90.7593 49.3128 90.3451 49.1784 89.9198 49.1777H79.8203V48.9648H89.9156Z" fill="#3F2355"/>
<path d="M89.9156 48.3086C90.4649 48.3074 91.0029 48.4641 91.4656 48.76C91.9284 49.0559 92.2963 49.4786 92.5256 49.9777C92.3936 50.0969 92.2574 50.2118 92.0999 50.3268L91.9977 50.4077C91.8381 49.9795 91.5516 49.6102 91.1765 49.3492C90.8014 49.0882 90.3555 48.948 89.8986 48.9473H79.8203V48.3086H89.9156Z" fill="#3F2355"/>
<path d="M92.7607 49.7696L92.5265 49.9782C92.2972 49.4791 91.9292 49.0564 91.4665 48.7605C91.0038 48.4646 90.4657 48.3079 89.9165 48.3091H80.0469V47.6875H89.9335C90.5708 47.6877 91.1958 47.862 91.7413 48.1914C92.2868 48.5208 92.732 48.9928 93.0289 49.5567L92.7607 49.7696Z" fill="#3F2355"/>
<path d="M89.9207 47.457C90.5869 47.4588 91.2405 47.6385 91.814 47.9776C92.3874 48.3167 92.8598 48.8029 93.1822 49.3858L93.0162 49.5391C92.7193 48.9753 92.274 48.5032 91.7286 48.1738C91.1831 47.8444 90.558 47.6702 89.9207 47.6699H80.0469V47.457H89.9335H89.9207Z" fill="#3F2355"/>
<path d="M89.9165 47.2617C90.6141 47.2634 91.2989 47.4494 91.9015 47.8008C92.5041 48.1522 93.0032 48.6566 93.3483 49.2629L93.1822 49.4034C92.8598 48.8205 92.3874 48.3343 91.814 47.9952C91.2405 47.6561 90.5869 47.4763 89.9207 47.4746H80.0469V47.2617H89.9165Z" fill="#3F2355"/>
<path d="M94.2531 79.6891C95.12 79.6891 95.9675 79.4319 96.6881 78.9501C97.4088 78.4683 97.9704 77.7835 98.3017 76.9824C98.6331 76.1814 98.7194 75.3 98.5496 74.4499C98.3799 73.5998 97.9617 72.8191 97.3482 72.2067C96.7346 71.5943 95.9531 71.1777 95.1027 71.0096C94.2522 70.8415 93.371 70.9295 92.5706 71.2624C91.7702 71.5954 91.0865 72.1582 90.6061 72.8799C90.1257 73.6015 89.8702 74.4494 89.8719 75.3163C89.8719 75.4653 89.8719 75.6143 89.8931 75.7634C89.9312 76.1393 90.0185 76.5087 90.1529 76.8619C90.1705 76.9158 90.1918 76.9684 90.2167 77.0194L90.2678 77.1344L89.8761 77.3089L89.825 77.1855C89.796 77.125 89.7718 77.0624 89.7526 76.9981C89.6056 76.6152 89.5111 76.2142 89.4716 75.8059C89.37 74.8381 89.5643 73.8621 90.0288 73.007C90.4933 72.1518 91.2062 71.4576 92.0735 71.016C92.9407 70.5744 93.9214 70.4062 94.8863 70.5336C95.8511 70.6609 96.7546 71.0779 97.4775 71.7293C98.2005 72.3808 98.7089 73.2362 98.9356 74.1826C99.1623 75.129 99.0967 76.122 98.7474 77.0303C98.3981 77.9387 97.7816 78.7197 96.9792 79.2704C96.1768 79.8211 95.2263 80.1155 94.2531 80.1148C94.008 80.1152 93.7631 80.0967 93.5208 80.0595H93.4484C93.3292 80.0595 93.2185 80.0169 93.1078 79.9914C92.9971 79.9658 92.8395 79.919 92.7161 79.8764L92.8523 79.4762C92.963 79.5145 93.0737 79.5443 93.1887 79.5741C93.3037 79.6039 93.4016 79.6252 93.5123 79.6422H93.5506C93.7833 79.6749 94.0181 79.6905 94.2531 79.6891Z" fill="#3F2355"/>
<path d="M94.24 67.6231C95.9121 67.6205 97.5394 68.1634 98.8751 69.1693C100.211 70.1752 101.182 71.5893 101.641 73.1971C102.101 74.8049 102.023 76.5186 101.421 78.0783C100.818 79.638 99.723 80.9587 98.3019 81.8399L96.9948 81.8058C98.4929 81.1717 99.7256 80.0391 100.484 78.5999C101.242 77.1608 101.48 75.5036 101.156 73.9094C100.832 72.3152 99.9673 70.8819 98.7076 69.8526C97.4479 68.8233 95.871 68.2613 94.2442 68.2617C92.8498 68.2622 91.4869 68.6763 90.328 69.4517C89.169 70.2271 88.2662 71.3289 87.7337 72.6176C87.2013 73.9064 87.0631 75.3241 87.3368 76.6914C87.6105 78.0587 88.2836 79.314 89.2711 80.2986C89.851 80.8779 90.5284 81.3507 91.2723 81.6951H89.9396C88.5801 80.7718 87.5522 79.4372 87.0065 77.8871C86.4609 76.3369 86.4262 74.6528 86.9076 73.0815C87.389 71.5102 88.3611 70.1344 89.6815 69.1559C91.0018 68.1775 92.6009 67.6477 94.2442 67.6443L94.24 67.6231Z" fill="#3F2355"/>
<path d="M102.577 75.3073C102.581 76.4012 102.368 77.4849 101.95 78.4957C101.531 79.5064 100.917 80.4242 100.142 81.1959C99.9021 81.436 99.6476 81.6607 99.3796 81.8686L98.3066 81.8388C99.7077 80.964 100.789 79.6599 101.388 78.1209C101.988 76.5818 102.075 74.8902 101.635 73.298C101.195 71.7058 100.253 70.2983 98.9486 69.2851C97.6441 68.2719 96.0471 67.7073 94.3957 67.6753C92.7442 67.6434 91.1266 68.1459 89.7839 69.1079C88.4412 70.0699 87.4452 71.4399 86.9443 73.0139C86.4434 74.5879 86.4645 76.2816 87.0043 77.8427C87.5441 79.4038 88.5738 80.7487 89.94 81.677H88.8713C88.6968 81.5323 88.5307 81.379 88.3689 81.2172C87.2037 80.0534 86.4096 78.5704 86.0871 76.9554C85.7645 75.3405 85.928 73.6661 86.5569 72.1441C87.1858 70.6221 88.2518 69.3206 89.6202 68.4043C90.9885 67.488 92.5979 66.9979 94.2447 66.9961C95.3382 66.9955 96.4211 67.2104 97.4315 67.6285C98.4419 68.0466 99.36 68.6596 100.133 69.4326C100.907 70.2056 101.52 71.1235 101.939 72.1337C102.358 73.1439 102.573 74.2266 102.573 75.3201L102.577 75.3073Z" fill="#3F2355"/>
<path d="M80.0332 47.6738H79.8203V48.3125H80.0332V47.6738Z" fill="#3F2355"/>
<path d="M80.0332 47.4609H79.8203V47.6738H80.0332V47.4609Z" fill="#3F2355"/>
<path d="M80.0332 47.248H79.8203V47.4609H80.0332V47.248Z" fill="#3F2355"/>
<path d="M79.8223 47.248H79.6094V47.4609H79.8223V47.248Z" fill="#3F2355"/>
<path d="M79.8223 47.6738V48.3125H79.6094V47.4609H79.8223V47.6738Z" fill="#3F2355"/>
<path d="M79.8223 48.9512V49.1641H79.6094V48.3125H79.8223V48.9512Z" fill="#3F2355"/>
<path d="M79.8203 49.1641V49.377H79.3945V49.1641H79.6074H79.8203Z" fill="#3F2355"/>
<path d="M79.6074 47.248H79.3945V47.4609H79.6074V47.248Z" fill="#3F2355"/>
<path d="M79.6074 47.4609V48.3125H79.3945V47.6738V47.4609H79.6074Z" fill="#3F2355"/>
<path d="M79.6074 48.3125V49.1641H79.3945V48.9512V48.3125H79.6074Z" fill="#3F2355"/>
<path d="M79.3968 48.957H59.5938V49.1699H79.3968V48.957Z" fill="#3F2355"/>
<path d="M79.3965 47.4609H79.1836V47.6738H79.3965V47.4609Z" fill="#3F2355"/>
<path d="M79.3965 47.6738H79.1836V48.3125H79.3965V47.6738Z" fill="#3F2355"/>
<path d="M79.3965 47.248H79.1836V47.4609H79.3965V47.248Z" fill="#3F2355"/>
<path d="M79.3968 48.9512L59.5938 48.9597V48.321H59.8066L79.1839 48.3125H79.3968V48.9512Z" fill="#3F2355"/>
<path d="M79.182 47.6797H59.8047V48.3184H79.182V47.6797Z" fill="#3F2355"/>
<path d="M79.182 47.4668H59.8047V47.6797H79.182V47.4668Z" fill="#3F2355"/>
<path d="M79.182 47.248V47.4609L59.8047 47.4695V47.2608L79.182 47.248Z" fill="#3F2355"/>
<path d="M79.1976 46.8565V47.261H59.8203V46.865C59.8203 46.1129 60.1191 45.3917 60.6509 44.8599C61.1827 44.3281 61.9039 44.0293 62.656 44.0293H76.3662C76.7382 44.0287 77.1066 44.1016 77.4504 44.2437C77.7942 44.3858 78.1065 44.5943 78.3696 44.8574C78.6326 45.1204 78.8411 45.4328 78.9832 45.7765C79.1253 46.1203 79.1982 46.4888 79.1976 46.8607V46.8565Z" fill="#DEDFE0"/>
<path d="M78.9516 44.2524C79.2956 44.5933 79.5684 44.9993 79.7541 45.4466C79.9397 45.894 80.0346 46.3738 80.0331 46.8581V47.2626H79.6073V46.8709C79.6073 46.0066 79.2643 45.1777 78.6536 44.5662C78.0428 43.9547 77.2143 43.6105 76.3501 43.6094H73.7188V43.1836H76.3501C76.8336 43.1812 77.3127 43.2753 77.7593 43.4602C78.206 43.6452 78.6114 43.9174 78.9516 44.2609V44.2524Z" fill="#3F2355"/>
<path d="M79.619 46.8577V47.2622H79.1932V46.8705C79.1938 46.4985 79.1209 46.1301 78.9789 45.7863C78.8368 45.4425 78.6282 45.1302 78.3652 44.8671C78.1021 44.6041 77.7898 44.3955 77.446 44.2535C77.1022 44.1114 76.7338 44.0385 76.3618 44.0391H73.7305V43.6133H76.3618C77.2231 43.6144 78.049 43.9562 78.6593 44.564C79.2695 45.1719 79.6145 45.9964 79.619 46.8577Z" fill="#3F2355"/>
<path d="M73.7188 43.5996H73.293V44.0254H73.7188V43.5996Z" fill="#3F2355"/>
<path d="M73.7188 43.1738H73.293V43.5996H73.7188V43.1738Z" fill="#3F2355"/>
<path d="M73.295 43.6035H65.9844V44.0293H73.295V43.6035Z" fill="#3F2355"/>
<path d="M72.8639 42.1732V43.1738H66.4219V42.1775C66.4219 41.9336 66.5188 41.6997 66.6912 41.5272C66.8637 41.3547 67.0976 41.2578 67.3416 41.2578H71.957C72.198 41.2612 72.428 41.3589 72.5976 41.5301C72.7672 41.7013 72.8629 41.9323 72.8639 42.1732Z" fill="#DEDFE0"/>
<path d="M71.7825 59.7971C77.0962 59.1925 86.9786 57.3659 93.4717 51.9712C93.723 51.7669 93.9657 51.5455 94.1956 51.3411C98.3853 47.5346 103.073 44.9544 107.578 43.8984L97.0143 63.4077C96.0682 63.1672 95.0951 63.0498 94.1189 63.0586C91.0436 63.0661 88.083 64.2274 85.8226 66.3127C83.5622 68.3981 82.1666 71.2557 81.9118 74.3205H66.2899C66.0339 71.2579 64.6365 68.4033 62.3747 66.3226C60.1128 64.242 57.1518 63.0872 54.0785 63.0872C51.0052 63.0872 48.0441 64.242 45.7823 66.3226C43.5205 68.4033 42.123 71.2579 41.8671 74.3205H39.1719C39.2357 72.6472 39.5721 68.879 41.2114 65.5409C41.7702 64.4205 42.5479 63.4235 43.4986 62.6088C44.4493 61.7941 45.5537 61.1783 46.7465 60.7977C47.6886 60.4994 48.6707 60.3472 49.6589 60.3464C57.5273 60.3634 67.7759 60.2612 71.7825 59.7971Z" fill="white"/>
<path d="M72.8639 42.1733C72.864 41.9315 72.7688 41.6995 72.5991 41.5274C72.4294 41.3553 72.1987 41.2569 71.957 41.2536H67.3245C67.0828 41.258 66.8526 41.3575 66.6837 41.5304C66.5148 41.7033 66.4207 41.9358 66.4219 42.1775V43.1781H72.8852L72.8639 42.1733ZM73.2897 43.1738V43.5996H65.9961V42.1775C65.9961 41.8207 66.1378 41.4784 66.3902 41.2261C66.6425 40.9738 66.9847 40.832 67.3416 40.832H71.957C72.1339 40.8315 72.3091 40.8659 72.4726 40.9333C72.6361 41.0007 72.7846 41.0998 72.9097 41.2249C73.0347 41.3499 73.1338 41.4985 73.2012 41.662C73.2686 41.8254 73.3031 42.0007 73.3025 42.1775L73.2897 43.1738Z" fill="#3F2355"/>
<path d="M73.2003 40.9172C73.3671 41.0849 73.4987 41.2843 73.5872 41.5037C73.6756 41.7231 73.7193 41.958 73.7155 42.1945V43.1951H73.2897V42.1732C73.2909 41.8183 73.1512 41.4773 72.9014 41.2251C72.6516 40.9729 72.312 40.83 71.957 40.8278H67.3245C66.9699 40.8323 66.6314 40.9766 66.3826 41.2293C66.1339 41.4821 65.9949 41.8229 65.9961 42.1775V43.1781H65.5703V42.1775C65.5703 41.7077 65.7569 41.2572 66.0891 40.925C66.4213 40.5929 66.8718 40.4062 67.3416 40.4062H71.957C72.4225 40.4066 72.8691 40.5901 73.2003 40.9172Z" fill="#3F2355"/>
<path d="M65.9844 43.6035H65.5586V44.0293H65.9844V43.6035Z" fill="#3F2355"/>
<path d="M65.9844 43.6035H65.5586V43.1777H65.9801L65.9844 43.6035Z" fill="#3F2355"/>
<path d="M61.1253 75.3253C61.1254 76.8096 60.6571 78.256 59.7871 79.4586C58.9171 80.6612 57.6897 81.5585 56.2799 82.0228C54.9387 82.0781 53.6656 82.1335 52.4734 82.1931C51.1823 81.8921 50.0021 81.2331 49.0685 80.2919C48.1348 79.3506 47.4854 78.1651 47.1948 76.8716C46.9043 75.578 46.9843 74.2287 47.4258 72.9786C47.8672 71.7285 48.6522 70.6281 49.6906 69.8038C50.729 68.9795 51.9788 68.4647 53.2965 68.3184C54.6142 68.1722 55.9464 68.4004 57.1403 68.9769C58.3342 69.5534 59.3414 70.4548 60.0463 71.5777C60.7511 72.7006 61.1251 73.9995 61.1253 75.3253ZM58.8814 75.3253C58.8814 74.6942 58.7571 74.0693 58.5154 73.4863C58.2738 72.9033 57.9197 72.3737 57.4732 71.9277C57.0268 71.4816 56.4968 71.1279 55.9136 70.8868C55.3304 70.6457 54.7054 70.5219 54.0744 70.5225C54.0275 70.5225 53.9807 70.5225 53.9339 70.5225C53.8257 70.5226 53.7176 70.5297 53.6103 70.5437C53.4181 70.5591 53.2274 70.589 53.0397 70.6332C52.975 70.6433 52.911 70.6575 52.8481 70.6757H52.7885C52.6975 70.6988 52.6079 70.7272 52.5203 70.7609L52.3159 70.8375C52.2577 70.8565 52.2008 70.8793 52.1456 70.9057L52.086 70.9312L52.2563 71.3229C51.7117 71.5707 51.2236 71.9275 50.8223 72.3713C50.421 72.8151 50.1149 73.3364 49.923 73.9032L49.5228 73.7669C49.4802 73.8904 49.4461 74.0096 49.4121 74.1373C49.378 74.2651 49.3652 74.3502 49.3439 74.4609C49.3439 74.4992 49.3439 74.5376 49.3439 74.5674C49.3221 74.6768 49.3093 74.7879 49.3056 74.8995C49.2894 75.0408 49.2823 75.183 49.2843 75.3253C49.2854 76.5973 49.7898 77.8172 50.6872 78.7186C51.5847 79.6201 52.8024 80.1298 54.0744 80.1366C55.3489 80.1355 56.571 79.6286 57.4722 78.7274C58.3735 77.8261 58.8803 76.6041 58.8814 75.3295V75.3253Z" fill="#DEDFE0"/>
<path d="M59.3789 46.865C59.3789 46 59.7225 45.1704 60.3342 44.5588C60.9458 43.9471 61.7754 43.6035 62.6404 43.6035H65.5698V44.0293H62.6532C61.9011 44.0293 61.1798 44.3281 60.648 44.8599C60.1162 45.3917 59.8175 46.1129 59.8175 46.865V47.261H59.3917L59.3789 46.865Z" fill="#3F2355"/>
<path d="M59.8066 47.6836H59.5938V48.3223H59.8066V47.6836Z" fill="#3F2355"/>
<path d="M59.8066 47.4707H59.5938V47.6836H59.8066V47.4707Z" fill="#3F2355"/>
<path d="M59.8066 47.2617H59.5938V47.4704H59.8066V47.2617Z" fill="#3F2355"/>
<path d="M59.5918 47.2617H59.3789V47.4704H59.5918V47.2617Z" fill="#3F2355"/>
<path d="M59.5918 47.2578H59.3789V47.2621H59.5918V47.2578Z" fill="#3F2355"/>
<path d="M59.3789 47.4707H59.5918V47.6836V48.3223H59.3789V47.4707Z" fill="#3F2355"/>
<path d="M59.5918 48.9609V49.1738H59.3789V48.3265V48.3223H59.5918V48.9609Z" fill="#3F2355"/>
<path d="M59.3809 48.3223H59.168V48.3265H59.3809V48.3223Z" fill="#3F2355"/>
<path d="M59.168 47.6879V47.4707H59.3809V48.3223H59.168V47.6879Z" fill="#3F2355"/>
<path d="M58.9531 46.8693C58.9531 45.8909 59.3415 44.9526 60.0328 44.2605C60.7242 43.5683 61.6621 43.1789 62.6404 43.1777H65.5698V43.6035H62.6532C61.7882 43.6035 60.9586 43.9471 60.3469 44.5588C59.7353 45.1704 59.3917 46 59.3917 46.865V47.261H58.9659L58.9531 46.8693Z" fill="#3F2355"/>
<path d="M59.3809 47.2617H59.168V47.4704H59.3809V47.2617Z" fill="#3F2355"/>
<path d="M59.168 48.9648V48.3262H59.3809V49.1735H59.168V48.9648Z" fill="#3F2355"/>
<path d="M59.5938 49.3867H59.168V49.1738H59.3809H59.5938V49.3867Z" fill="#3F2355"/>
<path d="M59.168 49.3855H59.5938V49.1726L79.3968 49.1641V49.377L59.168 49.3897V49.3855Z" fill="#3F2355"/>
<path d="M59.166 48.3223H58.9531V48.3265H59.166V48.3223Z" fill="#3F2355"/>
<path d="M59.166 47.4707H58.9531V47.6879H59.166V47.4707Z" fill="#3F2355"/>
<path d="M58.9531 47.4707V47.2578H59.3789V47.2621H59.166V47.4707H58.9531Z" fill="#3F2355"/>
<path d="M59.166 47.6875H58.9531V48.3219H59.166V47.6875Z" fill="#3F2355"/>
<path d="M54.0742 82.3802C54.8226 82.3816 55.5661 82.2608 56.2755 82.0225L57.9786 81.9629C56.7968 82.6629 55.4478 83.0307 54.0742 83.0274V82.3802Z" fill="#3F2355"/>
<path d="M56.2788 82.0215C55.5694 82.2598 54.8258 82.3806 54.0775 82.3791C53.5383 82.3798 53.001 82.3169 52.4766 82.1918C53.6475 82.1322 54.9248 82.0768 56.2788 82.0215Z" fill="#DEDFE0"/>
<path d="M79.8083 85.3814C58.6725 85.3814 41.5391 84.5554 41.5391 83.5165C41.5391 83.0907 44.5536 82.665 49.6289 82.3541C50.9554 83.2048 52.4982 83.657 54.0741 83.657C55.9134 83.6597 57.7011 83.0483 59.1536 81.9198C65.1146 81.7325 72.1953 81.6175 79.7998 81.6133C82.925 81.6133 85.9608 81.6133 88.8647 81.6644C90.3643 82.9425 92.2718 83.6418 94.2423 83.6357C96.0958 83.6392 97.8962 83.0166 99.3516 81.8688C110.55 82.1923 118.048 82.7884 118.048 83.4782C118.073 84.5214 100.94 85.3729 79.8083 85.3814Z" fill="#DEDFE0"/>
<path d="M54.0757 83.0272C52.9406 83.0307 51.819 82.7805 50.793 82.2948L52.4705 82.2012C52.995 82.3263 53.5323 82.3892 54.0715 82.3885L54.0757 83.0272Z" fill="#3F2355"/>
<path d="M52.3721 71.2969L52.2656 71.3437L52.3721 71.2969Z" fill="#3F2355"/>
<path d="M49.9225 73.924C50.1144 73.3573 50.4205 72.8359 50.8218 72.3921C51.2231 71.9483 51.7112 71.5915 52.2558 71.3438L52.4219 71.7355L52.49 71.7057C52.5326 71.7057 52.5709 71.6673 52.6262 71.6503L52.8221 71.5779C52.886 71.5524 52.9498 71.5354 53.0052 71.5183H53.0648C53.1148 71.5015 53.166 71.4886 53.2181 71.48C53.3779 71.4432 53.5401 71.4176 53.7035 71.4034C53.7872 71.399 53.871 71.399 53.9547 71.4034H54.0739C55.123 71.4034 56.1291 71.8201 56.8709 72.5619C57.6127 73.3037 58.0294 74.3098 58.0294 75.3589C58.0294 76.4079 57.6127 77.414 56.8709 78.1558C56.1291 78.8976 55.123 79.3144 54.0739 79.3144C53.0259 79.3133 52.0211 78.8967 51.2797 78.1561C50.5383 77.4155 50.1206 76.4111 50.1184 75.3631C50.1125 75.2468 50.1125 75.1303 50.1184 75.014C50.1215 74.931 50.1315 74.8484 50.1482 74.767V74.6691C50.1482 74.5797 50.1823 74.486 50.2036 74.3966C50.2248 74.3072 50.2589 74.1965 50.293 74.0943L49.8672 73.958L49.9225 73.924Z" fill="white"/>
<path d="M54.0751 83.6571C52.4949 83.6595 50.9474 83.2073 49.6172 82.3542L50.7966 82.2861C51.9282 82.8183 53.1724 83.0669 54.4217 83.0105C55.6709 82.9541 56.8877 82.5944 57.9668 81.9625L59.1589 81.9199C57.7052 83.0493 55.916 83.6607 54.0751 83.6571Z" fill="#3F2355"/>
<path d="M51.3445 50.3652V51.2168H47.4571C47.4544 50.92 47.5261 50.6272 47.6657 50.3652H51.3445Z" fill="#3F2355"/>
<path d="M51.2674 55.9043V56.7559L47.4609 56.7601V55.9086L51.2674 55.9043Z" fill="#3F2355"/>
<path d="M51.2681 53.1895V54.041L47.4531 54.0453V53.1937L51.2681 53.1895Z" fill="#3F2355"/>
<path d="M49.8164 74.2598C49.8426 74.1473 49.8753 74.0364 49.9143 73.9277C49.8845 74.0384 49.8547 74.1449 49.8164 74.2598Z" fill="#3F2355"/>
<path d="M58.4549 75.3302C58.4549 76.4922 57.9933 77.6066 57.1717 78.4282C56.35 79.2499 55.2356 79.7115 54.0736 79.7115C52.9116 79.7115 51.7973 79.2499 50.9756 78.4282C50.1539 77.6066 49.6924 76.4922 49.6924 75.3302C49.6859 75.2082 49.6859 75.086 49.6924 74.964C49.6972 74.8626 49.7085 74.7617 49.7264 74.6617C49.7244 74.6305 49.7244 74.5993 49.7264 74.5681C49.7264 74.4659 49.7647 74.3594 49.7903 74.2615C49.8201 74.1465 49.8499 74.0401 49.8882 73.9294L50.314 74.0656C50.2799 74.1678 50.2501 74.2658 50.2246 74.3679C50.199 74.4701 50.182 74.551 50.1692 74.6404V74.7384C50.1525 74.8197 50.1425 74.9023 50.1394 74.9853C50.1336 75.1016 50.1336 75.2182 50.1394 75.3345C50.1417 76.3824 50.5593 77.3868 51.3007 78.1274C52.0421 78.8681 53.0469 79.2846 54.0949 79.2857C55.144 79.2857 56.1501 78.869 56.8919 78.1272C57.6337 77.3854 58.0504 76.3793 58.0504 75.3302C58.0504 74.2811 57.6337 73.275 56.8919 72.5332C56.1501 71.7914 55.144 71.3747 54.0949 71.3747H53.9757C53.892 71.3704 53.8082 71.3704 53.7245 71.3747C53.5611 71.389 53.3989 71.4146 53.2391 71.4513C53.1871 71.46 53.1358 71.4728 53.0858 71.4897H53.0262C52.9709 71.4897 52.907 71.5237 52.8431 71.5493L52.6473 71.6217C52.5919 71.6217 52.5536 71.66 52.511 71.677L52.4429 71.7068L52.2768 71.3151L52.3833 71.2683L52.4855 71.2257L52.7026 71.1448L52.924 71.0767C52.9922 71.0767 53.0645 71.0383 53.1369 71.0256C53.3134 70.9841 53.4927 70.9556 53.6734 70.9404C53.7741 70.9339 53.875 70.9339 53.9757 70.9404H54.0736C54.6497 70.9404 55.2201 71.054 55.7523 71.2747C56.2844 71.4954 56.7677 71.8189 57.1747 72.2267C57.5816 72.6344 57.9042 73.1184 58.1239 73.6509C58.3435 74.1835 58.456 74.7541 58.4549 75.3302Z" fill="#3F2355"/>
<path d="M58.4543 75.3286C58.4543 74.1666 57.9927 73.0522 57.1711 72.2305C56.3494 71.4089 55.235 70.9473 54.073 70.9473H53.9538C53.8532 70.9408 53.7522 70.9408 53.6515 70.9473C53.4708 70.9625 53.2915 70.991 53.115 71.0324C53.0426 71.0324 52.9703 71.0665 52.9021 71.0835L52.6807 71.1516L52.4636 71.2325L52.3614 71.2751L52.255 71.3219L52.0846 70.9302L52.1443 70.9047C52.1995 70.8783 52.2564 70.8556 52.3146 70.8366L52.5189 70.7599C52.6066 70.7263 52.6962 70.6978 52.7872 70.6748H52.8468C52.9097 70.6565 52.9737 70.6423 53.0384 70.6322C53.2261 70.5881 53.4168 70.5582 53.6089 70.5428C53.7162 70.5288 53.8243 70.5217 53.9325 70.5215C53.9794 70.5215 54.0262 70.5215 54.073 70.5215C55.348 70.5215 56.5706 71.0279 57.4721 71.9294C58.3736 72.8309 58.8801 74.0536 58.8801 75.3286C58.8801 76.6035 58.3736 77.8262 57.4721 78.7277C56.5706 79.6292 55.348 80.1356 54.073 80.1356C52.7996 80.1334 51.5788 79.6268 50.6779 78.7267C49.777 77.8266 49.2693 76.6063 49.266 75.3328C49.2639 75.1906 49.271 75.0483 49.2873 74.907C49.2909 74.7955 49.3037 74.6844 49.3256 74.5749C49.3256 74.5451 49.3256 74.5068 49.3256 74.4685C49.3256 74.3578 49.3682 74.2471 49.3937 74.1449C49.4193 74.0427 49.4618 73.8979 49.5044 73.7745L49.9046 73.9107C49.8656 74.0194 49.8329 74.1303 49.8067 74.2428C49.7812 74.3407 49.7599 74.4472 49.7428 74.5494C49.7408 74.5806 49.7408 74.6119 49.7428 74.643C49.725 74.743 49.7136 74.844 49.7088 74.9454C49.7023 75.0673 49.7023 75.1896 49.7088 75.3115C49.7088 76.4735 50.1704 77.5879 50.992 78.4096C51.8137 79.2312 52.9281 79.6928 54.0901 79.6928C55.2521 79.6928 56.3665 79.2312 57.1881 78.4096C58.0098 77.5879 58.4714 76.4735 58.4714 75.3115L58.4543 75.3286Z" fill="#3F2355"/>
<path d="M49.6282 58.6642C48.9007 58.6634 48.1749 58.7332 47.4609 58.8728V58.6599C48.1749 58.5203 48.9007 58.4505 49.6282 58.4513C56.0532 58.4513 67.4386 58.3704 71.5602 57.8935C76.5163 57.3272 85.6109 55.6752 91.7081 50.9277C91.7236 51.0034 91.7308 51.0805 91.7294 51.1577C85.5769 55.8753 76.5333 57.5231 71.5857 58.0894C67.4514 58.5833 56.0532 58.6599 49.6282 58.6642Z" fill="#3F2355"/>
<path d="M49.6282 59.3039C48.8999 59.3037 48.1736 59.3793 47.4609 59.5296V58.8739C48.1749 58.7343 48.9007 58.6644 49.6282 58.6653C56.0532 58.6653 67.4514 58.5844 71.5857 58.1075C76.5333 57.5412 85.5769 55.8934 91.7294 51.1758V51.3716H92.5256C86.4114 56.2852 77.2529 58.1075 71.6623 58.7504C67.3918 59.2358 55.7381 59.2997 49.6282 59.3039Z" fill="#3F2355"/>
<path d="M51.3448 50.3657H47.6873C47.7752 50.2085 47.8856 50.065 48.0152 49.9399C48.182 49.7708 48.3809 49.6366 48.6003 49.5452C48.8196 49.4538 49.0549 49.4071 49.2925 49.4077L59.1834 49.3906H79.4123H89.9376C90.332 49.3908 90.7156 49.5198 91.03 49.7581C91.3444 49.9963 91.5723 50.3308 91.679 50.7105C85.5818 55.458 76.4957 57.1143 71.5311 57.6848C67.418 58.1575 56.0369 58.2341 49.6204 58.2384C48.8931 58.2382 48.1675 58.3066 47.4531 58.4427V56.7609H51.2596V55.9093H47.4531V54.0444H51.2852V53.1929H47.4531V51.2215H51.3405L51.3448 50.3657Z" fill="white"/>
<path d="M47.4609 59.5278C48.1736 59.3775 48.8999 59.3019 49.6282 59.3022C55.7381 59.3022 67.3918 59.234 71.6581 58.7401C77.2571 58.0972 86.4157 56.2748 92.5214 51.3613H93.5347C93.424 51.4593 93.3091 51.5572 93.1898 51.6509C86.8031 56.9731 77.0102 58.7827 71.722 59.3831C67.7409 59.8429 57.5051 59.9451 49.6239 59.9493C48.9081 59.9497 48.1944 60.0268 47.495 60.1793L47.4609 60.026V59.5278Z" fill="#3F2355"/>
<path d="M47.4258 50.3696C47.5866 50.0146 47.8466 49.7136 48.1744 49.5028C48.5022 49.2921 48.8839 49.1806 49.2737 49.1816H59.1646V49.3945H49.2737C49.0361 49.3939 48.8008 49.4407 48.5814 49.5321C48.3621 49.6235 48.1632 49.7576 47.9963 49.9268C47.8668 50.0519 47.7563 50.1953 47.6685 50.3525L47.4258 50.3696Z" fill="#3F2355"/>
<path d="M49.6282 58.4511C48.9007 58.4503 48.1749 58.5201 47.4609 58.6597V58.4426C48.1753 58.3065 48.9009 58.2381 49.6282 58.2382C56.0447 58.2382 67.4258 58.1573 71.5389 57.6847C76.495 57.1141 85.5896 55.4579 91.6613 50.6934C91.6838 50.7699 91.6995 50.8482 91.7081 50.9275C85.5896 55.675 76.5162 57.3143 71.5602 57.8933C67.4386 58.3702 56.0532 58.4468 49.6282 58.4511Z" fill="#3F2355"/>
<path d="M46.5234 50.3525C46.7067 49.7664 47.0723 49.2541 47.5671 48.8903C48.0618 48.5265 48.6599 48.3302 49.274 48.3301H58.952H59.1649V48.9645H49.274C48.8276 48.9648 48.3914 49.0983 48.0213 49.3478C47.6512 49.5974 47.3639 49.9516 47.1962 50.3653H46.6214L46.5234 50.3525Z" fill="#3F2355"/>
<path d="M47.8393 49.7735C47.6623 49.9447 47.5181 50.1467 47.4135 50.3696H47.1836C47.3513 49.9559 47.6386 49.6016 48.0087 49.3521C48.3789 49.1025 48.815 48.9691 49.2614 48.9688H59.1821V49.1774H49.2912C49.0216 49.1745 48.7542 49.2258 48.5048 49.3282C48.2554 49.4306 48.0291 49.582 47.8393 49.7735Z" fill="#3F2355"/>
<path d="M47.4629 58.873V59.5287L47.25 59.5756V58.9199L47.4629 58.873Z" fill="#3F2355"/>
<path d="M47.4629 58.6602V58.873L47.25 58.9199V58.7027L47.4629 58.6602Z" fill="#3F2355"/>
<path d="M47.4629 56.7598V58.4416L47.25 58.4842V56.7598H47.4629Z" fill="#3F2355"/>
<path d="M47.4629 55.9082H47.25V56.7598H47.4629V55.9082Z" fill="#3F2355"/>
<path d="M47.4551 54.0449L47.4636 55.9098H47.2507L47.2422 54.0449H47.4551Z" fill="#3F2355"/>
<path d="M47.459 53.1934H47.2461V54.0449H47.459V53.1934Z" fill="#3F2355"/>
<path d="M47.459 51.2207H47.2461V53.1921H47.459V51.2207Z" fill="#3F2355"/>
<path d="M47.2618 51.209C47.2598 50.9152 47.3223 50.6245 47.4448 50.3574H47.6875C47.5479 50.6194 47.4762 50.9122 47.4789 51.209H47.2618Z" fill="#3F2355"/>
<path d="M47.2617 58.7031V58.4859L47.4746 58.4434V58.6605L47.2617 58.7031Z" fill="#3F2355"/>
<path d="M47.2617 59.5762V59.8061H46.4102C46.6784 59.7167 46.9594 59.64 47.2617 59.5762Z" fill="#3F2355"/>
<path d="M47.2617 58.9199V59.5756C46.9722 59.6395 46.6912 59.7161 46.4102 59.8055V59.6097H47.0488V58.9838L47.2617 58.9199Z" fill="#3F2355"/>
<path d="M47.2598 56.7598V58.4842L47.0469 58.531V56.7598H47.2598Z" fill="#3F2355"/>
<path d="M47.248 55.9082H47.0352V56.7598H47.248V55.9082Z" fill="#3F2355"/>
<path d="M47.2402 54.0449L47.2488 55.9098H47.0359L47.0273 54.0449H47.2402Z" fill="#3F2355"/>
<path d="M47.0352 58.7581V58.541L47.248 58.4941V58.7113L47.0352 58.7581Z" fill="#3F2355"/>
<path d="M47.2441 53.1934H47.0312V54.0449H47.2441V53.1934Z" fill="#3F2355"/>
<path d="M47.2441 51.2207H47.0312V53.1921H47.2441V51.2207Z" fill="#3F2355"/>
<path d="M47.0314 51.209C47.0283 50.9168 47.0848 50.627 47.1974 50.3574H47.4273C47.3048 50.6245 47.2423 50.9152 47.2443 51.209H47.0314Z" fill="#3F2355"/>
<path d="M47.2598 58.9196L47.0469 58.9664V58.7578L47.2598 58.7109V58.9196Z" fill="#3F2355"/>
<path d="M47.0361 58.9668V59.6097H46.4102V59.1541C46.6103 59.0732 46.8359 59.0179 47.0361 58.9668Z" fill="#3F2355"/>
<path d="M47.0337 55.9082H46.625V56.7598H47.0337V55.9082Z" fill="#3F2355"/>
<path d="M47.0324 53.1934H46.7344V54.0449H47.0324V53.1934Z" fill="#3F2355"/>
<path d="M46.625 51.2207V50.3691H47.1998C47.0872 50.6388 47.0307 50.9285 47.0337 51.2207H46.625Z" fill="#3F2355"/>
<path d="M54.0756 67.6445C55.7633 67.6446 57.404 68.1999 58.7448 69.2247C60.0856 70.2495 61.0521 71.6869 61.4951 73.3154C61.9382 74.9438 61.8333 76.6727 61.1965 78.2356C60.5597 79.7985 59.4265 81.1085 57.9715 81.9636L56.2684 82.0232C57.8851 81.4901 59.2542 80.3899 60.1227 78.9257C60.9911 77.4616 61.3002 75.7325 60.9927 74.0582C60.6853 72.3839 59.7821 70.8774 58.4502 69.8173C57.1183 68.7572 55.4476 68.2151 53.747 68.2912C52.0463 68.3673 50.4308 69.0564 49.1988 70.2313C47.9669 71.4061 47.2019 72.9872 47.0452 74.6823C46.8885 76.3774 47.3507 78.0719 48.3465 79.4526C49.3422 80.8333 50.8041 81.807 52.4619 82.1935L50.7844 82.2871C49.2042 81.5408 47.9254 80.2784 47.1586 78.708C46.3918 77.1376 46.1829 75.3528 46.5661 73.6478C46.9494 71.9427 47.902 70.4191 49.267 69.3279C50.632 68.2366 52.3281 67.6429 54.0756 67.6445Z" fill="#3F2355"/>
<path d="M46.623 50.3702V51.2218H47.0488V53.1931H46.7508V54.0447H47.0488V55.9096H46.623V56.7612H47.0488V58.5324C46.8359 58.5807 46.623 58.636 46.4102 58.6985V51.209C46.4108 50.9201 46.4553 50.633 46.5421 50.3574L46.623 50.3702Z" fill="#3F2355"/>
<path d="M46.4102 59.1375V58.9203C46.623 58.8564 46.8359 58.8011 47.0488 58.75V58.9672C46.8359 59.0182 46.6103 59.0736 46.4102 59.1375Z" fill="#3F2355"/>
<path d="M47.0371 58.7582C46.8242 58.8093 46.6113 58.8646 46.3984 58.9285V58.7071C46.6113 58.6418 46.8242 58.5864 47.0371 58.541V58.7582Z" fill="#3F2355"/>
<path d="M49.2751 48.3301C48.5117 48.3312 47.7798 48.6347 47.2396 49.1741C46.6994 49.7135 46.3948 50.4449 46.3926 51.2084V58.6979C46.2861 58.7234 46.1754 58.7575 46.069 58.7915C45.9625 58.8256 45.8604 58.8597 45.7539 58.9022V51.2084C45.7562 50.2756 46.128 49.3817 46.788 48.7225C47.448 48.0633 48.3423 47.6925 49.2751 47.6914H58.9531V48.3258L49.2751 48.3301Z" fill="#3F2355"/>
<path d="M46.4121 59.1367V59.6093H45.7734V59.3666C45.9182 59.3113 46.0672 59.2602 46.1992 59.2134L46.4121 59.1367Z" fill="#3F2355"/>
<path d="M61.7652 75.3258C61.7641 73.9492 61.3935 72.598 60.692 71.4135C59.9906 70.2289 58.984 69.2544 57.7773 68.5917C56.5706 67.929 55.2082 67.6023 53.8322 67.6459C52.4562 67.6895 51.1172 68.1016 49.9549 68.8394C48.7926 69.5771 47.8496 70.6133 47.2245 71.8399C46.5993 73.0664 46.315 74.4383 46.401 75.8123C46.487 77.1863 46.9404 78.5119 47.7136 79.6509C48.4869 80.7899 49.5518 81.7004 50.7971 82.2873L49.6176 82.3555C48.1043 81.3874 46.9449 79.9554 46.313 78.2737C45.681 76.592 45.6104 74.7509 46.1117 73.0257C46.6129 71.3005 47.6591 69.7839 49.0939 68.7027C50.5286 67.6215 52.2748 67.0338 54.0713 67.0273C55.8068 67.0282 57.4986 67.5718 58.9098 68.582C60.321 69.5921 61.3809 71.0183 61.9413 72.6609C62.5016 74.3034 62.5343 76.0801 62.0347 77.7421C61.5351 79.4041 60.5283 80.8683 59.1551 81.9297L57.963 81.9723C59.1238 81.2951 60.0862 80.3245 60.7536 79.1579C61.421 77.9913 61.7698 76.6698 61.7652 75.3258Z" fill="#3F2355"/>
<path d="M46.1354 58.9966L46.3951 58.9199V59.1371L46.1992 59.1967C46.0502 59.2435 45.9012 59.2946 45.7734 59.35V59.1286L46.1354 58.9966Z" fill="#3F2355"/>
<path d="M46.4121 58.9206L46.1524 58.9973L45.7734 59.1293V58.9036C45.8799 58.861 45.9821 58.827 46.0885 58.7929C46.195 58.7588 46.3057 58.7248 46.4121 58.6992V58.9206Z" fill="#3F2355"/>
<path d="M45.5586 59.8052V59.4348C45.628 59.4027 45.6991 59.3743 45.7715 59.3496V59.6093H46.4102V59.8222L45.5586 59.8052Z" fill="#3F2355"/>
<path d="M45.56 51.2084C45.5611 50.2187 45.955 49.2701 46.6552 48.5707C47.3554 47.8713 48.3045 47.4785 49.2941 47.4785H58.9721V47.6871H49.2771C48.3443 47.6883 47.4499 48.059 46.7899 48.7182C46.13 49.3774 45.7581 50.2713 45.7559 51.2041V58.898C45.6834 58.919 45.6123 58.9446 45.543 58.9746L45.56 51.2084Z" fill="#3F2355"/>
<path d="M45.7598 59.3503C45.6874 59.375 45.6163 59.4034 45.5469 59.4355V59.2056C45.615 59.18 45.6874 59.1502 45.7598 59.1289V59.3503Z" fill="#3F2355"/>
<path d="M45.7598 59.128C45.6874 59.128 45.615 59.1791 45.5469 59.2047V58.979C45.6162 58.949 45.6873 58.9234 45.7598 58.9023V59.128Z" fill="#3F2355"/>
<path d="M46.4082 59.8046H47.2598V59.5746L47.4727 59.5278V60.0345H45.3438V59.5363C45.4129 59.5036 45.484 59.4751 45.5566 59.4512V59.8216L46.4082 59.8046Z" fill="#3F2355"/>
<path d="M45.5566 59.2051V59.435C45.484 59.4589 45.4129 59.4874 45.3438 59.5202V59.2945C45.3991 59.2604 45.4715 59.2349 45.5566 59.2051Z" fill="#3F2355"/>
<path d="M46.4863 48.4195C46.8519 48.0525 47.2866 47.7616 47.7652 47.5635C48.2439 47.3655 48.7571 47.2642 49.2751 47.2656H58.9531V47.4785H49.2751C48.2855 47.4785 47.3364 47.8714 46.6362 48.5707C45.9361 49.2701 45.5421 50.2188 45.541 51.2084V58.9789C45.4684 59.0028 45.3973 59.0313 45.3281 59.064V51.2084C45.3275 50.6901 45.4295 50.1768 45.6283 49.6981C45.8271 49.2195 46.1187 48.7849 46.4863 48.4195Z" fill="#3F2355"/>
<path d="M45.5566 59.2061C45.4843 59.2359 45.4119 59.2615 45.3438 59.2955V59.0656C45.4129 59.0329 45.484 59.0044 45.5566 58.9805V59.2061Z" fill="#3F2355"/>
<path d="M47.4956 60.171C47.1933 60.2391 46.891 60.32 46.5929 60.4137C45.3497 60.8143 44.1992 61.4595 43.2092 62.3113C42.2191 63.1632 41.4094 64.2045 40.8278 65.374C39.0694 68.9421 38.7798 72.9785 38.733 74.5454V74.7668H42.267V74.5709C42.4561 71.5697 43.7817 68.7534 45.974 66.6949C48.1662 64.6365 51.0604 63.4908 54.0675 63.4908C57.0746 63.4908 59.9688 64.6365 62.161 66.6949C64.3533 68.7534 65.6789 71.5697 65.868 74.5709V74.771H82.2861V74.5709C82.4846 71.5744 83.8131 68.7648 86.0031 66.71C88.1931 64.6551 91.0814 63.508 94.0845 63.5006C94.9882 63.4918 95.8893 63.5962 96.767 63.8114L96.6648 64.003C96.6117 64.1014 96.5784 64.2093 96.567 64.3206C96.5556 64.4318 96.5662 64.5442 96.5982 64.6514C96.6303 64.7585 96.6831 64.8583 96.7537 64.945C96.8243 65.0318 96.9113 65.1038 97.0097 65.1569C97.0567 65.1829 97.1067 65.2029 97.1587 65.2165L96.9926 65.1697L96.7329 65.1015C95.1728 64.6961 93.5405 64.6537 91.9614 64.9775C90.3824 65.3014 88.8985 65.9829 87.6239 66.9696C86.3493 67.9564 85.3179 69.2222 84.6088 70.6699C83.8998 72.1175 83.532 73.7083 83.5337 75.3203V76.0228H64.5864V75.3203C64.6146 73.9172 64.3626 72.5225 63.8451 71.218C63.3277 69.9135 62.5552 68.7253 61.5728 67.7231C60.5905 66.7208 59.4181 65.9246 58.1242 65.381C56.8304 64.8375 55.4411 64.5575 54.0377 64.5575C52.6343 64.5575 51.245 64.8375 49.9512 65.381C48.6573 65.9246 47.4849 66.7208 46.5026 67.7231C45.5202 68.7253 44.7477 69.9135 44.2302 71.218C43.7128 72.5225 43.4608 73.9172 43.489 75.3203V76.0228H37.4684V75.431C37.4684 75.1968 37.2768 69.7255 39.6995 64.8077C40.8854 62.4227 42.8914 60.5451 45.3496 59.5195V60.0347H47.4785L47.4956 60.171Z" fill="#3F2355"/>
<path d="M46.6562 60.6194C47.6194 60.3102 48.6251 60.1536 49.6367 60.1553C57.5222 60.1553 67.7664 60.0488 71.7773 59.589C77.0698 58.9844 86.9053 57.1663 93.3559 51.8057C93.539 51.6567 93.7178 51.5034 93.8881 51.3544L94.0755 51.1841C98.3333 47.3009 103.136 44.6696 107.735 43.6562L107.598 43.8989C103.094 44.9379 98.4057 47.5351 94.216 51.3416C93.9861 51.5545 93.7434 51.7674 93.4922 51.9718C86.999 57.3664 77.1166 59.21 71.8029 59.7976C67.7963 60.2617 57.5477 60.3639 49.6622 60.3682C48.6741 60.369 47.6919 60.5212 46.7499 60.8195C45.5571 61.2001 44.4527 61.8159 43.502 62.6306C42.5513 63.4453 41.7735 64.4423 41.2147 65.5627C39.5755 68.9008 39.2391 72.669 39.1752 74.3423H41.8747C42.1307 71.2797 43.5281 68.4251 45.7899 66.3444C48.0517 64.2638 51.0128 63.109 54.0861 63.109C57.1594 63.109 60.1205 64.2638 62.3823 66.3444C64.6441 68.4251 66.0415 71.2797 66.2975 74.3423H81.9194C82.1743 71.2775 83.5699 68.4199 85.8302 66.3346C88.0906 64.2492 91.0512 63.0879 94.1266 63.0804C95.1027 63.0716 96.0758 63.189 97.0219 63.4295L96.9154 63.6211C96.0022 63.4011 95.0659 63.291 94.1266 63.2933C91.0702 63.2995 88.1302 64.4657 85.9006 66.5562C83.671 68.6467 82.3181 71.5056 82.1153 74.5552H66.0974C65.9004 71.5012 64.5475 68.6369 62.3139 66.5449C60.0803 64.4529 57.1336 63.2902 54.0733 63.2933C51.0181 63.2995 48.0792 64.4652 45.8504 66.5549C43.6216 68.6446 42.2691 71.5025 42.0663 74.5509H38.9453C38.9921 72.8819 39.2945 68.9604 41.0146 65.4648C41.5847 64.322 42.3775 63.3047 43.3463 62.4726C44.3151 61.6405 45.4405 61.0104 46.6562 60.6194Z" fill="#3F2355"/>
<path d="M54.0742 63.2931C57.131 63.292 60.0737 64.4539 62.3052 66.543C64.5367 68.6322 65.8897 71.492 66.0898 74.5423H82.1077C82.3105 71.4927 83.6634 68.6337 85.893 66.5432C88.1226 64.4527 91.0626 63.2866 94.119 63.2804C95.0583 63.2781 95.9946 63.3881 96.9078 63.6082L96.8014 63.8041C95.9237 63.5889 95.0226 63.4845 94.119 63.4932C91.1158 63.5007 88.2275 64.6477 86.0375 66.7026C83.8475 68.7575 82.519 71.567 82.3206 74.5636V74.7637H65.9024V74.5636C65.7133 71.5624 64.3877 68.746 62.1954 66.6876C60.0032 64.6292 57.109 63.4834 54.1019 63.4834C51.0947 63.4834 48.2006 64.6292 46.0083 66.6876C43.8161 68.746 42.4905 71.5624 42.3014 74.5636V74.7594H38.7461V74.538C38.7929 72.9711 39.0825 68.9347 40.8409 65.3667C41.4225 64.1972 42.2322 63.1559 43.2223 62.304C44.2124 61.4521 45.3628 60.8069 46.606 60.4063C46.9041 60.3127 47.2064 60.2318 47.5087 60.1636C48.2081 60.0112 48.9218 59.9341 49.6376 59.9337C57.5188 59.9337 67.7546 59.8273 71.7356 59.3674C77.0025 58.7671 86.7955 56.9575 93.2035 51.6352C93.3227 51.5416 93.4377 51.4436 93.5484 51.3457H93.872C93.7017 51.4947 93.5229 51.648 93.3398 51.797C86.8849 57.1661 77.0664 58.9842 71.7569 59.6101C67.7631 60.07 57.5188 60.1722 49.6163 60.1764C48.6047 60.1747 47.599 60.3313 46.6358 60.6405C45.4197 61.032 44.2941 61.6628 43.3253 62.4956C42.3564 63.3285 41.5639 64.3466 40.9942 65.4902C39.2911 68.9858 38.9718 72.9073 38.9249 74.5763H42.0416C42.2385 71.5189 43.5919 68.6511 45.8268 66.5554C48.0616 64.4597 51.0105 63.2933 54.0742 63.2931Z" fill="#3F2355"/>
<path d="M54.0733 64.7816C56.8712 64.7816 59.5547 65.8925 61.5339 67.8701C63.5131 69.8478 64.6262 72.5303 64.6284 75.3282V76.0308H83.5757V75.3197C83.574 73.7078 83.9418 72.1169 84.6508 70.6693C85.3599 69.2217 86.3913 67.9559 87.6659 66.9691C88.9405 65.9823 90.4243 65.3008 92.0034 64.977C93.5825 64.6531 95.2148 64.6955 96.7749 65.101L97.0346 65.1691L97.2007 65.2159C99.3702 65.8657 101.271 67.2002 102.62 69.0198C103.968 70.8394 104.691 73.0465 104.682 75.3112V76.4736L105.665 75.8519C106.971 75.0089 108.178 74.022 109.263 72.9098H109.557C108.426 74.0981 107.157 75.1459 105.776 76.0308L104.469 76.8611V75.3112C104.478 73.0927 103.769 70.9308 102.448 69.1481C101.128 67.3655 99.266 66.0578 97.1411 65.4203L97.0133 65.3863L96.7238 65.3054C95.8779 65.0886 95.0083 64.9784 94.1351 64.9775C91.3939 64.9831 88.7668 66.0754 86.8297 68.0149C84.8926 69.9544 83.8036 72.5828 83.8013 75.324V76.2394H64.4283V75.324C64.4272 73.9657 64.1584 72.6209 63.6373 71.3665C63.1162 70.1121 62.353 68.9727 61.3913 68.0134C60.4297 67.0541 59.2884 66.2938 58.0327 65.7758C56.7771 65.2578 55.4316 64.9923 54.0733 64.9945C51.3333 65.0002 48.7073 66.092 46.771 68.0307C44.8347 69.9694 43.7461 72.5967 43.7438 75.3368V76.2522H37.272L37.2379 75.4347C37.2379 75.2005 37.0463 69.6696 39.4903 64.7093C40.7115 62.2507 42.789 60.3231 45.332 59.2891V59.5147C42.873 60.5414 40.8669 62.4205 39.6819 64.8072C37.2592 69.725 37.4423 75.1962 37.4508 75.4304L37.4678 76.0436H43.5182V75.341C43.5193 72.5416 44.6316 69.8571 46.6107 67.8772C48.5898 65.8973 51.2739 64.7839 54.0733 64.7816Z" fill="#3F2355"/>
<path d="M43.7378 75.3376C43.74 72.5969 44.8292 69.9689 46.7664 68.0301C48.7036 66.0912 51.3307 64.9999 54.0715 64.9954C56.8125 64.9954 59.4414 66.084 61.38 68.0218C63.3186 69.9596 64.4083 72.588 64.4094 75.3291V76.2445H83.7825V75.3206C83.7847 72.5794 84.8738 69.951 86.8109 68.0115C88.748 66.072 91.3751 64.9797 94.1162 64.9741C94.9894 64.9751 95.8591 65.0852 96.705 65.302L96.9945 65.3829L97.1222 65.4169C99.2472 66.0544 101.109 67.3621 102.43 69.1447C103.75 70.9274 104.459 73.0893 104.45 75.3078V76.8577L105.757 76.0274C107.138 75.1425 108.407 74.0947 109.538 72.9064H109.849C108.671 74.1661 107.341 75.2746 105.889 76.2062L104.258 77.2451V75.3078C104.267 73.1343 103.572 71.0163 102.277 69.2704C100.983 67.5245 99.1577 66.2444 97.0754 65.6213L96.9519 65.5872L96.6709 65.5106C95.8363 65.2959 94.978 65.1872 94.1162 65.187C91.4308 65.1915 88.8567 66.2609 86.9587 68.1606C85.0606 70.0602 83.9934 72.6352 83.9911 75.3206V76.4489H64.1923V75.3206C64.2199 73.9738 63.9785 72.6349 63.4822 71.3826C62.9859 70.1302 62.2446 68.9895 61.3019 68.0272C60.3592 67.065 59.2339 66.3005 57.992 65.7786C56.75 65.2567 55.4165 64.9879 54.0694 64.9879C52.7222 64.9879 51.3887 65.2567 50.1467 65.7786C48.9048 66.3005 47.7795 67.065 46.8368 68.0272C45.8941 68.9895 45.1528 70.1302 44.6565 71.3826C44.1602 72.6349 43.9188 73.9738 43.9464 75.3206V76.4489H37.0658L37.0232 75.4228C37.0232 75.1886 36.8273 69.6151 39.2969 64.5994C40.5531 62.066 42.7021 60.0868 45.3302 59.043V59.2729C42.7829 60.3132 40.7048 62.2505 39.4885 64.7186C37.0445 69.679 37.2276 75.2099 37.2361 75.4441L37.2702 76.2616H43.7378V75.3376Z" fill="#3F2355"/>
</svg>
