<svg width="178" height="107" viewBox="0 0 178 107" fill="none" xmlns="http://www.w3.org/2000/svg">
<path d="M132.685 68.6896H121.051V67.8086H132.37C132.382 68.1278 132.492 68.4355 132.685 68.6896Z" fill="#3F2355"/>
<path d="M132.359 67.8086H133.677V68.6896H132.683C132.487 68.4365 132.374 68.1287 132.359 67.8086Z" fill="#3F2355"/>
<path d="M96.4936 49.4482C96.4936 50.0334 96.7261 50.5947 97.1399 51.0085C97.5536 51.4223 98.1148 51.6547 98.7 51.6547H120.502C121.087 51.6547 121.649 51.4223 122.062 51.0085C122.476 50.5947 122.709 50.0334 122.709 49.4482V44.2789C122.706 42.0012 121.8 39.8176 120.189 38.2078C118.578 36.598 116.393 35.6938 114.116 35.6938H98.7C98.1145 35.6949 97.5533 35.9283 97.1396 36.3427C96.7259 36.7572 96.4936 37.3189 96.4936 37.9045V49.4482ZM66.2231 68.6878H90.5849V67.8068H84.9173V36.7285C84.9162 36.3684 84.7726 36.0234 84.5181 35.7688C84.2635 35.5143 83.9185 35.3707 83.5585 35.3696H67.586C67.2252 35.3696 66.8792 35.5127 66.6237 35.7674C66.3682 36.0221 66.2242 36.3677 66.2231 36.7285V67.8068H54.9085V33.2421C54.9107 31.3938 55.6461 29.622 56.9533 28.3155C58.2605 27.009 60.0327 26.2745 61.8809 26.2734H111.901C117.324 26.28 122.524 28.4375 126.358 32.2725C130.193 36.1075 132.35 41.307 132.357 46.7306V67.732C132.355 67.7611 132.355 67.7903 132.357 67.8193H121.042V68.7003H132.677C132.816 68.8921 132.996 69.0507 133.204 69.165C133.411 69.2792 133.641 69.3461 133.878 69.361V72.9139H118.861C118.799 69.3473 117.338 65.948 114.794 63.4478C112.25 60.9477 108.826 59.5468 105.259 59.5468C101.692 59.5468 98.268 60.9477 95.7239 63.4478C93.1798 65.948 91.7193 69.3473 91.657 72.9139H54.6758V68.6878H66.2231Z" fill="white"/>
<path d="M114.113 37.0156C116.039 37.0178 117.885 37.7838 119.247 39.1455C120.608 40.5073 121.374 42.3535 121.377 44.2793V49.4486C121.375 49.683 121.282 49.9075 121.116 50.0733C120.95 50.239 120.726 50.3326 120.492 50.3337H98.6976C98.4632 50.3326 98.2387 50.239 98.0729 50.0733C97.9072 49.9075 97.8136 49.683 97.8125 49.4486V37.9049C97.8125 37.6698 97.9056 37.4442 98.0715 37.2775C98.2373 37.1109 98.4624 37.0167 98.6976 37.0156H114.113Z" fill="#DEDFE0"/>
<path d="M111.773 79.4727C125.402 79.8633 134.519 80.5697 134.519 81.3758C134.519 82.3108 122.369 83.1128 105.154 83.4535L105.129 82.1321C107.602 82.1289 109.98 81.1771 111.773 79.4727Z" fill="#DEDFE0"/>
<path d="M105.127 64.9609C106.86 64.9673 108.536 65.575 109.871 66.6805C111.205 67.7859 112.114 69.3204 112.443 71.0218C112.772 72.7232 112.5 74.486 111.673 76.0089C110.846 77.5319 109.517 78.7206 107.911 79.3719C106.037 79.3304 104.092 79.2888 102.094 79.2597C100.537 78.5582 99.2675 77.3453 98.4956 75.8224C97.7238 74.2996 97.496 72.5585 97.8503 70.8883C98.2046 69.2182 99.1196 67.7195 100.443 66.6412C101.767 65.563 103.42 64.9701 105.127 64.9609ZM105.127 77.3441C106.428 77.3419 107.676 76.8236 108.596 75.9028C109.516 74.982 110.033 73.734 110.034 72.4324C110.037 72.1537 110.013 71.8755 109.964 71.6013L109.548 71.6802C109.55 71.6982 109.55 71.7163 109.548 71.7343C109.433 70.9822 109.129 70.2718 108.663 69.6699C108.198 69.068 107.587 68.5944 106.889 68.2936L107.055 67.8988C106.387 67.6237 105.666 67.4996 104.944 67.5354C104.222 67.5711 103.518 67.7658 102.88 68.1056C102.242 68.4453 101.687 68.9217 101.255 69.5008C100.822 70.0799 100.523 70.7473 100.379 71.4553C100.234 72.1634 100.248 72.8946 100.419 73.5968C100.589 74.299 100.913 74.9548 101.367 75.5174C101.82 76.0799 102.393 76.5354 103.043 76.8511C103.693 77.1669 104.404 77.3352 105.127 77.3441Z" fill="white"/>
<path d="M109.597 72.2754C109.601 72.3279 109.601 72.3807 109.597 72.4333C109.596 72.8636 109.535 73.2917 109.414 73.7049C109.534 73.2916 109.594 72.8635 109.593 72.4333C109.601 72.3834 109.601 72.3294 109.597 72.2754Z" fill="white"/>
<path d="M109.592 72.1388C109.592 72.0973 109.592 72.0516 109.592 72.0059C109.588 72.0516 109.592 72.0973 109.592 72.1388Z" fill="white"/>
<path d="M109.401 73.7676C109.335 73.9733 109.256 74.1746 109.164 74.3701C109.256 74.1746 109.335 73.9733 109.401 73.7676Z" fill="#3F2355"/>
<path d="M108.957 74.7485C109.028 74.6321 109.094 74.5116 109.161 74.3828C109.099 74.5082 109.031 74.6303 108.957 74.7485Z" fill="#3F2355"/>
<path d="M107.924 79.3691C109.246 79.3982 110.534 79.4273 111.784 79.4688C109.942 81.2101 107.49 82.1583 104.956 82.1093C102.422 82.0604 100.008 81.0181 98.2344 79.207L102.103 79.2569C103.016 79.6633 104.001 79.8826 105 79.9019C105.999 79.9212 106.992 79.74 107.92 79.3691H107.924Z" fill="#3F2355"/>
<path d="M105.127 79.908C104.08 79.9109 103.045 79.6899 102.09 79.2598C104.093 79.2889 106.037 79.3304 107.907 79.372C107.024 79.7284 106.08 79.9104 105.127 79.908Z" fill="#DEDFE0"/>
<path d="M105.126 76.9034C104.462 76.9043 103.807 76.7577 103.208 76.4741C102.608 76.1905 102.079 75.7771 101.659 75.2638C101.239 74.7505 100.939 74.1502 100.779 73.5064C100.62 72.8626 100.606 72.1914 100.738 71.5414C100.87 70.8915 101.145 70.279 101.543 69.7485C101.941 69.218 102.452 68.7827 103.04 68.4742C103.627 68.1657 104.275 67.9916 104.938 67.9646C105.6 67.9377 106.261 68.0585 106.871 68.3183C107.57 68.6191 108.18 69.0927 108.646 69.6946C109.111 70.2966 109.415 71.007 109.53 71.759C109.549 71.8424 109.562 71.9271 109.568 72.0125C109.568 72.0582 109.568 72.1039 109.568 72.1454C109.572 72.191 109.572 72.2369 109.568 72.2826C109.568 72.3366 109.568 72.3906 109.568 72.4405C109.569 72.8706 109.508 73.2988 109.389 73.712C109.389 73.712 109.389 73.7536 109.389 73.7744C109.323 73.9801 109.244 74.1813 109.152 74.3769C109.086 74.5057 109.019 74.6262 108.948 74.7426C108.551 75.4012 107.99 75.9461 107.321 76.3246C106.651 76.7032 105.895 76.9025 105.126 76.9034Z" fill="white"/>
<path d="M98.2312 79.2106C99.1297 80.1321 100.204 80.8643 101.39 81.3639C102.576 81.8635 103.85 82.1204 105.137 82.1194L105.162 83.4409C99.7603 83.5489 93.8433 83.6029 87.6562 83.6029C61.7652 83.6029 40.7773 82.6056 40.7773 81.3798C40.7773 80.1539 61.7652 79.1608 87.6562 79.1608C91.292 79.1566 94.8322 79.1732 98.2312 79.2106Z" fill="#DEDFE0"/>
<path d="M97.649 72.4338C97.6502 73.8789 98.0699 75.2927 98.8575 76.5043C99.645 77.7159 100.767 78.6734 102.087 79.2611L98.2183 79.2112C96.871 77.8388 95.9629 76.0962 95.6098 74.2056C95.2568 72.315 95.4748 70.3621 96.236 68.5959C96.9972 66.8297 98.2672 65.3302 99.884 64.2887C101.501 63.2471 103.391 62.7108 105.314 62.7479C107.237 62.7851 109.105 63.3941 110.68 64.4973C112.256 65.6005 113.467 67.1479 114.159 68.9422C114.852 70.7364 114.994 72.6963 114.568 74.5719C114.142 76.4474 113.168 78.1537 111.768 79.473C110.522 79.4315 109.23 79.4024 107.908 79.3733C109.169 78.8684 110.269 78.0296 111.089 76.9469C111.91 75.8642 112.42 74.5785 112.565 73.2278C112.71 71.8771 112.484 70.5124 111.913 69.2802C111.341 68.048 110.444 66.9949 109.319 66.2338C108.194 65.4727 106.882 65.0324 105.526 64.9602C104.169 64.888 102.819 65.1866 101.619 65.8239C100.42 66.4612 99.4164 67.4133 98.7169 68.5778C98.0174 69.7423 97.6482 71.0753 97.649 72.4338Z" fill="#3F2355"/>
<path d="M100.677 72.4322C100.676 73.4073 100.994 74.3559 101.583 75.133C102.172 75.9101 102.999 76.4729 103.938 76.7354C104.877 76.9978 105.876 76.9455 106.783 76.5864C107.689 76.2273 108.453 75.5811 108.958 74.7467C108.514 75.4822 107.867 76.0744 107.096 76.4527C106.325 76.831 105.461 76.9795 104.607 76.8804C103.754 76.7813 102.947 76.4389 102.283 75.8939C101.619 75.3489 101.125 74.6244 100.861 73.8068C100.597 72.9891 100.574 72.1128 100.794 71.2823C101.015 70.4518 101.469 69.7022 102.103 69.1228C102.738 68.5434 103.526 68.1588 104.372 68.0146C105.219 67.8705 106.09 67.973 106.88 68.31C106.201 68.0225 105.461 67.9077 104.727 67.9758C103.993 68.0438 103.287 68.2927 102.672 68.7001C102.057 69.1074 101.553 69.6607 101.204 70.3105C100.855 70.9603 100.673 71.6863 100.673 72.4238L100.677 72.4322Z" fill="#3F2355"/>
<path d="M98.6981 50.3301H120.5C120.735 50.329 120.959 50.2354 121.125 50.0697C121.291 49.9039 121.384 49.6794 121.385 49.445V44.2798C121.383 42.3541 120.617 40.5078 119.256 39.1461C117.894 37.7844 116.048 37.0184 114.122 37.0162H98.7064C98.4713 37.0173 98.2462 37.1115 98.0803 37.2781C97.9144 37.4448 97.8213 37.6703 97.8213 37.9054V49.4492C97.8235 49.6814 97.9164 49.9036 98.0802 50.0683C98.2441 50.2329 98.4658 50.3269 98.6981 50.3301ZM98.6981 50.9908C98.2885 50.9897 97.8959 50.8265 97.6063 50.5369C97.3166 50.2472 97.1534 49.8547 97.1523 49.445V37.9054C97.1523 37.4951 97.3151 37.1015 97.6048 36.8109C97.8946 36.5204 98.2877 36.3566 98.6981 36.3555H114.114C116.215 36.3555 118.231 37.1904 119.717 38.6765C121.203 40.1626 122.038 42.1782 122.038 44.2798V49.4492C122.038 49.8592 121.875 50.2523 121.585 50.5422C121.295 50.8321 120.902 50.995 120.492 50.995L98.6981 50.9908Z" fill="#3F2355"/>
<path d="M120.501 51.6521H98.6986C98.1134 51.6521 97.5522 51.4196 97.1384 51.0058C96.7246 50.592 96.4922 50.0308 96.4922 49.4456V37.906C96.4922 37.3204 96.7245 36.7587 97.1382 36.3443C97.5518 35.9298 98.113 35.6964 98.6986 35.6953H114.114C116.39 35.6975 118.573 36.6027 120.182 38.2123C121.792 39.8218 122.697 42.0042 122.699 44.2804V49.4497C122.698 50.0328 122.466 50.5917 122.054 51.0044C121.642 51.417 121.084 51.6499 120.501 51.6521ZM98.6986 36.356C98.2883 36.3571 97.8951 36.5209 97.6053 36.8115C97.3156 37.102 97.1529 37.4956 97.1529 37.906V49.4497C97.154 49.8594 97.3172 50.2519 97.6068 50.5416C97.8965 50.8313 98.289 50.9945 98.6986 50.9956H120.501C120.909 50.9934 121.3 50.8295 121.588 50.5399C121.877 50.2502 122.038 49.8583 122.038 49.4497V44.2804C122.038 42.1787 121.203 40.1631 119.717 38.677C118.231 37.1909 116.216 36.356 114.114 36.356H98.6986Z" fill="#3F2355"/>
<path d="M90.5817 67.8086H84.9141V68.6896H90.5817V67.8086Z" fill="#3F2355"/>
<path d="M84.9131 67.8086H84.4727V68.6896H84.9131V67.8086Z" fill="#3F2355"/>
<path d="M80.3397 54.1163H80.7802C80.8093 54.1169 80.8382 54.1116 80.8651 54.1007C80.8921 54.0899 80.9166 54.0737 80.9372 54.0531C80.9577 54.0325 80.9739 54.008 80.9848 53.9811C80.9957 53.9541 81.001 53.9252 81.0004 53.8961V49.7407C81.001 49.7114 80.9957 49.6823 80.9849 49.6551C80.974 49.6279 80.9579 49.6032 80.9374 49.5823C80.9169 49.5614 80.8924 49.5448 80.8654 49.5334C80.8384 49.5221 80.8095 49.5163 80.7802 49.5163H80.3397C80.3105 49.5163 80.2815 49.5221 80.2545 49.5334C80.2275 49.5448 80.203 49.5614 80.1825 49.5823C80.162 49.6032 80.1459 49.6279 80.1351 49.6551C80.1243 49.6823 80.119 49.7114 80.1195 49.7407V53.8961C80.119 53.9252 80.1243 53.9541 80.1351 53.9811C80.146 54.008 80.1622 54.0325 80.1828 54.0531C80.2033 54.0737 80.2278 54.0899 80.2548 54.1007C80.2818 54.1116 80.3107 54.1169 80.3397 54.1163ZM83.5559 36.248C83.6815 36.248 83.802 36.298 83.8908 36.3868C83.9796 36.4756 84.0295 36.5961 84.0295 36.7218V67.8001H67.1055V36.7301C67.1066 36.6041 67.1574 36.4836 67.2469 36.3948C67.3364 36.3061 67.4573 36.2564 67.5833 36.2564L83.5559 36.248Z" fill="white"/>
<path d="M80.7803 49.7578H80.3398V53.9008H80.7803V49.7578Z" fill="#3F2355"/>
<path d="M80.3414 49.7576V53.913H80.7818V49.7576H80.3414ZM80.7818 49.5332C80.8111 49.5332 80.8401 49.539 80.8671 49.5504C80.894 49.5617 80.9185 49.5783 80.939 49.5992C80.9595 49.6201 80.9757 49.6448 80.9865 49.672C80.9973 49.6992 81.0026 49.7283 81.002 49.7576V53.913C81.0026 53.9421 80.9973 53.971 80.9864 53.998C80.9756 54.0249 80.9594 54.0494 80.9388 54.07C80.9182 54.0906 80.8937 54.1068 80.8668 54.1176C80.8398 54.1285 80.8109 54.1338 80.7818 54.1333H80.3414C80.3123 54.1338 80.2834 54.1285 80.2564 54.1176C80.2294 54.1068 80.2049 54.0906 80.1844 54.07C80.1638 54.0494 80.1476 54.0249 80.1367 53.998C80.1259 53.971 80.1206 53.9421 80.1211 53.913V49.7576C80.1206 49.7283 80.1259 49.6992 80.1367 49.672C80.1475 49.6448 80.1636 49.6201 80.1841 49.5992C80.2046 49.5783 80.2291 49.5617 80.2561 49.5504C80.2831 49.539 80.3121 49.5332 80.3414 49.5332H80.7818Z" fill="#3F2355"/>
<path d="M66.2188 36.7299C66.2198 36.3692 66.3639 36.0235 66.6194 35.7688C66.8749 35.5141 67.2209 35.3711 67.5817 35.3711H83.5542C83.9142 35.3722 84.2592 35.5157 84.5138 35.7703C84.7683 36.0249 84.9119 36.3699 84.9129 36.7299V67.8083H84.0279V36.7299C84.0279 36.6043 83.978 36.4838 83.8892 36.3949C83.8003 36.3061 83.6798 36.2562 83.5542 36.2562H67.5817C67.4556 36.2562 67.3347 36.306 67.2452 36.3947C67.1557 36.4834 67.1049 36.6039 67.1038 36.7299V67.8083H66.2188V36.7299Z" fill="#3F2355"/>
<path d="M84.4732 67.8086V68.6937H66.6641V67.8086H67.1045H84.0286H84.4732Z" fill="#3F2355"/>
<path d="M66.6592 67.8086H66.2188V68.6896H66.6592V67.8086Z" fill="#3F2355"/>
<path d="M66.2223 67.8086V68.6937H54.6875V68.2491H54.9077V67.8086H66.2223Z" fill="#3F2355"/>
<path d="M54.9058 67.8086V68.2491H54.6856H53.8047V67.8086H54.9058Z" fill="#3F2355"/>
<path d="M54.686 68.6895H54.3203V72.903H54.686V68.6895Z" fill="#3F2355"/>
<path d="M54.686 72.9023H54.3203V74.0077H54.686V72.9023Z" fill="#3F2355"/>
<path d="M54.6856 68.248V68.6927H54.3199V68.4724H53.8047V68.248H54.6856Z" fill="#3F2355"/>
<path d="M54.3199 68.4727H53.8047V68.6887H54.3199V68.4727Z" fill="#3F2355"/>
<path d="M54.3199 72.9023H53.8047V74.0077H54.3199V72.9023Z" fill="#3F2355"/>
<path d="M54.3199 74.0078H53.8047V75.0965H54.3199V74.0078Z" fill="#3F2355"/>
<path d="M54.6856 74.0076V72.9022H91.6668C91.7291 69.3357 93.1896 65.9364 95.7337 63.4362C98.2778 60.9361 101.702 59.5352 105.269 59.5352C108.836 59.5352 112.26 60.9361 114.804 63.4362C117.348 65.9364 118.808 69.3357 118.871 72.9022H133.896V69.3494C133.659 69.3345 133.429 69.2676 133.222 69.1534C133.014 69.0391 132.834 68.8804 132.695 68.6886H133.688V67.8077L134.573 67.2259C135.013 67.3506 135.4 67.6152 135.676 67.9796C135.952 68.344 136.102 68.7884 136.102 69.2455V73.0103C136.101 73.5672 135.879 74.101 135.485 74.4944C135.091 74.8878 134.557 75.1088 134 75.1088H116.49L116.606 73.8954C116.64 73.5738 116.655 73.2505 116.652 72.9272C116.595 69.9424 115.369 67.0991 113.238 65.0084C111.108 62.9177 108.241 61.7465 105.256 61.7465C102.271 61.7465 99.4051 62.9177 97.2743 65.0084C95.1434 67.0991 93.9177 69.9424 93.8607 72.9272C93.8597 73.2505 93.875 73.5736 93.9064 73.8954L94.0269 75.1088H53.8047H54.3199V74.0076H54.6856Z" fill="#3F2355"/>
<path d="M52.6992 68.2487V33.2435C52.7124 30.8165 53.6848 28.4932 55.4044 26.7805C57.124 25.0678 59.4511 24.1048 61.878 24.1016H111.898C117.907 24.1093 123.667 26.5001 127.916 30.7496C132.164 34.9991 134.554 40.7602 134.561 46.7694V67.2473L133.676 67.829H132.358C132.356 67.8 132.356 67.7708 132.358 67.7418V46.7486C132.352 41.3243 130.194 36.1242 126.358 32.289C122.522 28.4539 117.322 26.297 111.898 26.2915H61.878C60.0328 26.2926 58.2631 27.0247 56.9563 28.3276C55.6496 29.6305 54.9122 31.3981 54.9056 33.2435V67.7916H53.8045V68.2321H52.6992V68.2487Z" fill="#3F2355"/>
<path d="M53.8028 68.248H52.9219V68.4724H53.8028V68.248Z" fill="#3F2355"/>
<path d="M52.9219 74.0077V73.7708H52.9967V69.7982H52.9219V68.4727H53.8069V68.6929H54.3222V72.9023H53.8069V74.0077H52.9219Z" fill="#3F2355"/>
<path d="M52.9967 69.7988H52.9219V73.7714H52.9967V69.7988Z" fill="#3F2355"/>
<path d="M52.9177 69.8116V73.7842H40.502C40.4456 73.7843 40.3898 73.7729 40.338 73.7507C40.2862 73.7285 40.2394 73.696 40.2006 73.6552C40.1617 73.6144 40.1315 73.5661 40.1119 73.5133C40.0923 73.4604 40.0836 73.4042 40.0865 73.3479V62.8887H44.0422V68.0746C44.0422 68.532 44.2239 68.9706 44.5473 69.294C44.8707 69.6174 45.3093 69.7991 45.7666 69.7991L52.9177 69.8116Z" fill="white"/>
<path d="M46.22 58.2715C46.2411 58.271 46.262 58.2747 46.2817 58.2823C46.3013 58.29 46.3192 58.3016 46.3343 58.3163C46.3494 58.331 46.3614 58.3486 46.3696 58.368C46.3778 58.3875 46.382 58.4084 46.382 58.4294V61.5668H40.0703V58.4294C40.0703 58.4084 40.0745 58.3875 40.0827 58.368C40.0909 58.3486 40.1029 58.331 40.118 58.3163C40.1331 58.3016 40.151 58.29 40.1707 58.2823C40.1903 58.2747 40.2113 58.271 40.2324 58.2715H46.22Z" fill="#DEDFE0"/>
<path d="M45.7713 69.8116C45.3139 69.8116 44.8753 69.6299 44.5519 69.3065C44.2286 68.9831 44.0469 68.5445 44.0469 68.0871V62.8887H45.3682V68.0746C45.3682 68.1849 45.412 68.2905 45.4899 68.3685C45.5679 68.4464 45.6735 68.4902 45.7837 68.4902H52.9348V69.8116H45.7713Z" fill="#3F2355"/>
<path d="M44.1406 62.2271C44.2275 62.0307 44.3696 61.8636 44.5495 61.7463C44.7295 61.6291 44.9397 61.5666 45.1545 61.5664V62.2271H44.1406Z" fill="#3F2355"/>
<path d="M44.043 62.6753C44.0426 62.5207 44.0752 62.3677 44.1385 62.2266H45.1524V62.8873H44.043V62.6753Z" fill="#3F2355"/>
<path d="M44.1424 62.2271H40.0703V61.5664H45.1563C44.9414 61.5666 44.7313 61.6291 44.5513 61.7463C44.3713 61.8636 44.2293 62.0307 44.1424 62.2271Z" fill="#3F2355"/>
<path d="M44.0468 62.8873H40.0703V62.2266H44.1424C44.079 62.3677 44.0464 62.5207 44.0468 62.6753V62.8873Z" fill="#3F2355"/>
<path d="M40.072 61.5664H39.457V62.2271H40.072V61.5664Z" fill="#3F2355"/>
<path d="M40.072 62.2266H39.457V62.8873H40.072V62.2266Z" fill="#3F2355"/>
<path d="M39.4062 62.2268V58.4287C39.4062 58.2083 39.4938 57.9969 39.6497 57.8411C39.8055 57.6852 40.0169 57.5977 40.2373 57.5977H46.2249C46.4453 57.5977 46.6567 57.6852 46.8126 57.8411C46.9684 57.9969 47.056 58.2083 47.056 58.4287V61.6367C47.0549 61.7929 46.9924 61.9423 46.8819 62.0528C46.7715 62.1632 46.6221 62.2257 46.4659 62.2268H45.1695V61.5661H46.4161V58.4287C46.4161 58.4076 46.4118 58.3868 46.4037 58.3673C46.3955 58.3479 46.3835 58.3303 46.3684 58.3156C46.3532 58.3009 46.3353 58.2893 46.3157 58.2816C46.2961 58.274 46.2751 58.2703 46.254 58.2708H40.229C40.2079 58.2703 40.1869 58.274 40.1673 58.2816C40.1476 58.2893 40.1297 58.3009 40.1146 58.3156C40.0995 58.3303 40.0875 58.3479 40.0793 58.3673C40.0711 58.3868 40.0669 58.4076 40.0669 58.4287V61.5661H39.4727V62.2268H39.4062Z" fill="#3F2355"/>
<path d="M40.5038 75.0972C40.0373 75.0961 39.5902 74.91 39.2607 74.5797C38.9312 74.2494 38.7461 73.8018 38.7461 73.3353V58.4298C38.7445 58.2337 38.7816 58.0393 38.8554 57.8576C38.9292 57.676 39.0381 57.5107 39.1759 57.3713C39.3138 57.2319 39.4779 57.1211 39.6587 57.0453C39.8395 56.9695 40.0335 56.9302 40.2295 56.9297H46.2172C46.6103 56.9308 46.9869 57.0874 47.2649 57.3654C47.5428 57.6434 47.6995 58.0201 47.7006 58.4132V61.6212C47.7006 61.9518 47.5692 62.2689 47.3355 62.5027C47.1017 62.7364 46.7846 62.8678 46.454 62.8678H45.1576V62.2071H46.454C46.6102 62.206 46.7596 62.1435 46.87 62.033C46.9805 61.9226 47.043 61.7732 47.0441 61.617V58.409C47.0441 58.1886 46.9565 57.9772 46.8007 57.8213C46.6448 57.6655 46.4334 57.5779 46.213 57.5779H40.2295C40.0091 57.5779 39.7978 57.6655 39.6419 57.8213C39.4861 57.9772 39.3985 58.1886 39.3985 58.409V62.2071H39.4733V62.8678H40.0841V73.3145C40.0813 73.3708 40.09 73.4271 40.1096 73.4799C40.1292 73.5327 40.1594 73.5811 40.1982 73.6219C40.2371 73.6627 40.2839 73.6952 40.3357 73.7173C40.3875 73.7395 40.4433 73.7509 40.4996 73.7508H52.9153V73.9877H53.8004V75.0764L40.5038 75.0972Z" fill="#3F2355"/>
</svg>
