<svg width="32" height="32" viewBox="0 0 32 32" fill="none" xmlns="http://www.w3.org/2000/svg">
<path d="M15.5108 2.57642C8.38298 2.57771 2.584 8.37669 2.584 15.5045C2.584 22.6324 8.38298 28.4314 15.5121 28.4314C22.6387 28.4314 28.4377 22.6324 28.439 15.5045C28.439 8.37669 22.64 2.57771 15.5108 2.57642ZM15.5121 25.846C9.80881 25.846 5.16937 21.2066 5.16937 15.5045C5.16937 9.80252 9.80881 5.16307 15.5108 5.16178C21.2141 5.16307 25.8536 9.80252 25.8536 15.5045C25.8523 21.2066 21.2129 25.846 15.5121 25.846Z" fill="#3F2355"/>
<path d="M15.5121 14.2118H10.3414V16.7971H15.5121V20.6829L20.6893 15.5057L15.5121 10.3298V14.2118Z" fill="#3F2355"/>
</svg>
