<svg width="75" height="75" viewBox="0 0 75 75" fill="none" xmlns="http://www.w3.org/2000/svg">
<path d="M42.3 23.6H11.7C10.4 23.6 9.40002 22.6 9.40002 21.3C9.40002 20 10.4 19 11.7 19H42.4C43.7 19 44.7 20 44.7 21.3C44.7 22.6 43.6 23.6 42.3 23.6Z" fill="#FB625B"/>
<path d="M30.4 37.7H11.7C10.4 37.7 9.40002 36.7 9.40002 35.4C9.40002 34.1 10.4 33.1 11.7 33.1H30.5C31.8 33.1 32.8 34.1 32.8 35.4C32.8 36.7 31.7 37.7 30.4 37.7Z" fill="#FB625B"/>
<path d="M30.4 51.7H11.7C10.4 51.7 9.40002 50.7 9.40002 49.4C9.40002 48.1 10.4 47.1 11.7 47.1H30.5C31.8 47.1 32.8 48.1 32.8 49.4C32.8 50.7 31.7 51.7 30.4 51.7Z" fill="#FB625B"/>
<path d="M45.1 74.8C44.6 74.8 44.1 74.6 43.7 74.3C43 73.8 42.7 73 42.8 72.2L45 50.7C45.1 49.4 46.3 48.5 47.6 48.6C48.9 48.7 49.8 49.9 49.7 51.2L47.9 68.9L55.9 65.6C56.5 65.4 57.1 65.4 57.7 65.6L65.3 68.8L63.5 50.2C63.4 48.9 64.3 47.8 65.6 47.6C66.9 47.5 68 48.4 68.2 49.7L70.4 72.2C70.5 73 70.1 73.8 69.5 74.3C68.8 74.8 68 74.9 67.2 74.6L56.9 70.2L46 74.7C45.7 74.8 45.4 74.8 45.1 74.8Z" fill="#FB625B"/>
<path d="M35.2 65.8H7.1C3.3 65.8 0 62.6 0 58.7V7.19998C0 3.39998 3.2 0.0999756 7.1 0.0999756H40.2C42.1 0.0999756 44.2 0.999976 45.6 2.29998C45.7 2.39998 45.7 2.39998 45.8 2.49998L54.9 13.5L55 13.6C55.9 14.8 56.3 16.3 56.3 18V25.8C56.3 27.1 55.3 28.1 54 28.1C52.7 28.1 51.7 27.1 51.7 25.8V18C51.7 17.3 51.6 16.8 51.3 16.4L42.1 5.59998C41.6 5.19998 40.7 4.79998 40.1 4.79998H7.1C5.8 4.79998 4.7 5.99998 4.7 7.19998V58.7C4.7 60 5.8 61.1 7.1 61.1H35.2C36.5 61.1 37.5 62.1 37.5 63.4C37.5 64.7 36.5 65.8 35.2 65.8Z" fill="#FB625B"/>
<path d="M56.5 60.7C55.1 60.7 53.9 60 53.3 59.4L40.8 46.5C37.1 42.8 37.1 37 40.7 33.3C42.3 31.4 44.7 30.4 47.4 30.4C49.8 30.4 52.2 31.4 54 33.3L56.3 35.9L58.6 33.4C60.2 31.5 62.6 30.4 65.3 30.4C67.7 30.4 70.1 31.4 71.9 33.2C74 35.1 75 37.5 75 40C75 42.5 74 44.8 72.2 46.6L59.8 59.2C59.1 60.1 57.9 60.7 56.5 60.7ZM47.4 35.1C46 35.1 45 35.5 44.2 36.4C44.2 36.5 44.1 36.5 44.1 36.6C42.2 38.5 42.2 41.4 44.1 43.2L56.5 55.8L68.9 43.2C69.8 42.3 70.3 41.2 70.3 40C70.3 38.7 69.8 37.5 68.8 36.6C67.9 35.7 66.6 35.1 65.5 35.1C64.1 35.1 63.1 35.5 62.3 36.4L62.2 36.5L58.1 40.8C57.7 41.3 57 41.5 56.4 41.5C55.7 41.5 55.1 41.2 54.7 40.7L50.7 36.4C49.8 35.7 48.6 35.1 47.4 35.1Z" fill="#FB625B"/>
</svg>
