<svg width="75" height="75" viewBox="0 0 75 75" fill="none" xmlns="http://www.w3.org/2000/svg">
<g clip-path="url(#clip0_101_97)">
<path d="M29.8 65.7H23.4C21.4 65.7 19.6 64.7 18.5 62.9C17.5 61.2 17.4 59.1 18.3 57.3L24.5 44.6H15.6C11.9 44.6 8.49999 42.3 7.19999 38.9L0.499992 24.4C-0.300008 22.8 -0.200008 20.8 0.899992 19L0.999992 18.9C2.09999 17.3 3.89999 16.4 5.69999 16.4L12.9 16.7C13.8 16.7 14.5 17.2 14.9 18L17.7 23.6L64 23.5C67 23.5 69.9 24.7 71.7 26.7C73.8 28.8 74.9 31.4 74.9 34.3C74.9 37.2 73.7 40 71.6 41.9C69.5 43.8 66.7 44.8 63.9 44.7H49.7L34.3 63.7C33.2 64.9 31.5 65.7 29.8 65.7ZM4.89999 21.5C4.69999 21.8 4.69999 22.1 4.79999 22.3L11.4 37C12.1 38.7 13.8 39.8 15.5 39.8H28.2C29 39.8 29.8 40.2 30.2 40.9C30.6 41.6 30.7 42.4 30.3 43.2L22.5 59.3C22.3 59.7 22.3 60.1 22.5 60.4C22.8 60.9 23.2 61 23.5 61H29.9C30.2 61 30.6 60.8 30.8 60.6L46.9 40.8C47.3 40.3 48 39.9 48.7 39.9H64.2H64.3C65.8 40 67.4 39.4 68.6 38.3C69.7 37.2 70.4 35.7 70.4 34.1C70.4 32.5 69.8 31 68.5 29.7C67.5 28.6 65.9 28 64.2 28L16.5 28.1C15.6 28.1 14.8 27.6 14.4 26.8L11.6 21.1L5.69999 21C5.39999 21 5.09999 21.3 4.89999 21.5Z" fill="#FB625B"/>
<path d="M32 28.1C31.1 28.1 30.3 27.6 29.9 26.8L25.4 17.7C24.5 15.9 24.6 13.8 25.6 12.1C26.7 10.4 28.6 9.30005 30.5 9.30005H37C38.8 9.30005 40.5 10.2 41.6 11.7L51 24.2C51.8 25.2 51.6 26.7001 50.5 27.5C49.5 28.3 48 28.1 47.2 27L37.9 14.5C37.7 14.2 37.4 14 37.1 14H30.6C30.2 14 29.9 14.2 29.6 14.6C29.4 14.9 29.4 15.3 29.6 15.6L34.1 24.7C34.7 25.9 34.2 27.3 33 27.8C32.7 28 32.3 28.1 32 28.1Z" fill="#FB625B"/>
</g>
<defs>
<clipPath id="clip0_101_97">
<rect width="75" height="75" fill="white"/>
</clipPath>
</defs>
</svg>
