<svg width="75" height="75" viewBox="0 0 75 75" fill="none" xmlns="http://www.w3.org/2000/svg">
<path d="M18.7 32.7H14C11.4 32.7 9.4 30.6 9.4 28.1V23.4H4.6C2 23.4 0 21.3 0 18.8V14C0 11.4 2.1 9.4 4.6 9.4H9.4V4.6C9.4 2 11.5 0 14 0H18.7C21.3 0 23.3 2.1 23.3 4.6V9.3H28C29.3 9.3 30.5 9.9 31.4 10.8C32.2 11.7 32.6 12.9 32.5 14V18.6C32.5 21.2 30.4 23.2 27.9 23.2H23.2V28C23.4 30.6 21.3 32.7 18.7 32.7ZM11.7 18.7C13 18.7 14 19.7 14 21V28H18.7V21C18.7 19.7 19.7 18.7 21 18.7H28V14.1H21.1C19.8 14.1 18.8 13.1 18.8 11.8V4.8H14.1V11.8C14.1 13.1 13.1 14.1 11.8 14.1H4.6V18.8L11.7 18.7Z" fill="#FB625B"/>
<path d="M46.1 65.9H44.6C44.2 65.9 43.9 65.8 43.5 65.6H16.4C10 65.7 4.7 60.4 4.7 54V49.3C4.7 42.9 9.9 37.6 16.4 37.6H40.3C42.7 37.6 45 36.3 46.2 34.3C46.7 33.5 47.1 32.6 47.5 31.8C48.8 28.4 52.3 26.1 56.1 26C58.8 25.8 61.3 26.8 63 28.7C64.8 30.4 65.7 32.9 65.5 35.5C65.5 36.8 66.6 37.8 67.9 37.8C71.8 37.8 75 41 75 44.9C75 48.8 71.8 52 67.9 52H62.1L56.2 60.3C54.1 63.8 50.3 65.9 46.1 65.9ZM45.6 61.2H46.1C48.7 61.2 51 59.9 52.2 57.7C52.2 57.6 52.3 57.6 52.3 57.5L58.9 48.2C59.3 47.6 60.1 47.2 60.8 47.2H67.8C69.1 47.2 70.2 46.1 70.2 44.8C70.2 43.5 69.1 42.4 67.8 42.4C63.9 42.4 60.7 39.2 60.7 35.3C60.7 35.2 60.7 35.2 60.7 35.1C60.8 33.8 60.4 32.7 59.5 31.8C58.7 30.9 57.5 30.5 56.2 30.6C56.1 30.6 56.1 30.6 56 30.6C54.1 30.6 52.3 31.7 51.7 33.4C51.2 34.5 50.7 35.6 50.1 36.5C48 40 44.2 42.2 40.1 42.2H16.4C12.6 42.2 9.4 45.4 9.4 49.2V54C9.4 57.9 12.5 61 16.4 61H44.5C44.9 61 45.3 61.1 45.6 61.2Z" fill="#FB625B"/>
<path d="M9.5 44.5C7.3 44.5 5.3 43.8 3.7 42.4C0.1 39.1 0 33.4 0 32.8C0 31.5 1 30.5 2.3 30.5C3.6 30.5 4.6 31.5 4.6 32.8C4.6 34 5 37.3 6.8 38.9C7.6 39.6 8.6 39.9 10 39.8C11.3 39.7 12.4 40.6 12.6 41.9C12.8 43.2 11.8 44.3 10.5 44.5C10.1 44.5 9.8 44.5 9.5 44.5Z" fill="#FB625B"/>
<path d="M44.5 75C43.2 75 42.2 74 42.2 72.7V63.4C42.2 62.1 43.2 61.1 44.5 61.1C45.8 61.1 46.8 62.1 46.8 63.4V72.7C46.9 74 45.8 75 44.5 75Z" fill="#FB625B"/>
<path d="M53.9 75C52.8 75 51.8 74.2 51.6 73.1L49.3 62C49 60.7 49.9 59.5 51.1 59.2C52.4 58.9 53.6 59.8 53.9 61L56.2 72.1C56.5 73.4 55.6 74.6 54.4 74.9C54.2 75 54 75 53.9 75Z" fill="#FB625B"/>
<path d="M11.7 75C10.4 75 9.4 73.9999 9.4 72.6999V62C9.4 60.7 10.4 59.7 11.7 59.7C13 59.7 14 60.7 14 62V72.5999C14 73.9999 13 75 11.7 75Z" fill="#FB625B"/>
<path d="M21.1 75C19.8 75 18.8 74 18.8 72.7V63.4C18.8 62.1 19.8 61.1 21.1 61.1C22.4 61.1 23.4 62.1 23.4 63.4V72.7C23.5 74 22.4 75 21.1 75Z" fill="#FB625B"/>
<path d="M57.8 56C57.2 56 56.6 55.8 56.1 55.3L42.3 40.6C41.4 39.7 41.4 38.2 42.4 37.3C43.3 36.4 44.8 36.4 45.7 37.4L59.5 52C60.4 52.9 60.4 54.4 59.4 55.3C59 55.7 58.4 56 57.8 56Z" fill="#FB625B"/>
</svg>
