<svg width="24" height="24" viewBox="0 0 24 24" fill="none" xmlns="http://www.w3.org/2000/svg">
<path d="M21 3.9996C20.9896 3.90773 20.9695 3.81723 20.94 3.7296V3.6396C20.892 3.5283 20.8243 3.42665 20.74 3.3396C20.6551 3.25986 20.557 3.19556 20.45 3.1496H20.36C20.2678 3.07921 20.1624 3.02818 20.05 2.9996H20C19.9006 2.98451 19.7994 2.98451 19.7 2.9996L1.69999 8.9996C1.49992 9.06535 1.32572 9.1926 1.20222 9.36319C1.07873 9.53377 1.01224 9.739 1.01224 9.94959C1.01224 10.1602 1.07873 10.3654 1.20222 10.536C1.32572 10.7066 1.49992 10.8338 1.69999 10.8996L10.23 13.7396L13.07 22.2696C13.1357 22.4697 13.263 22.6439 13.4336 22.7674C13.6042 22.8909 13.8094 22.9573 14.02 22.9573C14.2306 22.9573 14.4358 22.8909 14.6064 22.7674C14.777 22.6439 14.9042 22.4697 14.97 22.2696L20.97 4.2696C20.9922 4.18138 21.0023 4.09054 21 3.9996ZM16.3 6.2896L10.73 11.8596L5.15999 9.9996L16.3 6.2896ZM14 18.8396L12.14 13.2696L17.71 7.69959L14 18.8396Z" fill="white"/>
</svg>
