<svg width="75" height="75" viewBox="0 0 75 75" fill="none" xmlns="http://www.w3.org/2000/svg">
<g clip-path="url(#clip0_101_103)">
<path d="M58.3 73.3999H16.4C12.6 73.3999 9.3 70.0999 9.3 66.2999V33.5999C9.3 32.2999 10.3 31.2999 11.6 31.2999C12.9 31.2999 13.9 32.2999 13.9 33.5999V66.2999C13.9 67.4999 15.1 68.6999 16.3 68.6999H58.2C59.4 68.6999 60.6 67.4999 60.6 66.2999V33.5999C60.6 32.2999 61.6 31.2999 62.9 31.2999C64.2 31.2999 65.2 32.2999 65.2 33.5999V66.2999C65.4 70.0999 62.1 73.3999 58.3 73.3999Z" fill="#FB625B"/>
<path d="M72.7 30.9C72.2 30.9 71.7 30.8 71.3 30.4L38.9 6.79998C37.9 6.19999 36.9 6.09998 36.1 6.69998L36 6.79998L3.7 30.5C2.7 31.3 1.2 31 0.400004 30C-0.399996 29 -0.0999963 27.5 0.900004 26.7L33.3 3.09998C35.6 1.19998 38.9 1.19998 41.7 2.99998L74 26.7C75 27.5 75.3 28.9 74.5 30C74.1 30.6 73.4 30.9 72.7 30.9Z" fill="#FB625B"/>
<path d="M67.7 17.1999C66.4 17.1999 65.4 16.1999 65.4 14.8999V7.89993H58.4C57.1 7.89993 56.1 6.89993 56.1 5.59993C56.1 4.29993 57.1 3.29993 58.4 3.29993H67.7C69 3.29993 70 4.29993 70 5.59993V14.8999C70 16.1999 69 17.1999 67.7 17.1999Z" fill="#FB625B"/>
<path d="M41.8 63.9C40.5 63.9 39.5 62.9 39.5 61.6V53.8C39.5 52.8 40.1 51.9 41.1 51.6C44.2 50.5 46.9 48 48.1 44.9C49 42.8 49.1 40.5 48.6 38.4C46.8 40.2 44.7 42.5 44 43.2C42.9 44.6 41 45.5 39.2 45.5C37.1 45.5 35.4 44.8 34.1 43.5C32.8 42.2 32.1 40.4 32.1 38.4C32.1 36.4 33.1 34.5 34.6 33.4C35 33.1 37 31.2 39.2 29C37 28.5 34.7 28.7 32.5 29.7C27.9 31.6 24.9 36.1 25.2 40.8V40.9C25.2 45.7 28.2 49.9 33 51.5C33.9 51.8 34.6 52.7 34.6 53.7V61.5C34.6 62.8 33.6 63.8 32.3 63.8C31 63.8 30 62.8 30 61.5V55.3C24.3 52.7 20.7 47.3 20.7 41C20.3 34.3 24.4 28 30.8 25.3C35.5 23.4 40.5 23.7 44.6 26.1C45.2 26.5 45.6 27.1 45.7 27.8C45.8 28.5 45.5 29.2 45 29.7C43 31.7 38.2 36.4 37.3 37.1C37 37.3 36.7 37.7 36.7 38.3C36.7 39.1 36.9 39.7 37.3 40.1C37.6 40.4 38 40.7 39.1 40.7C39.5 40.7 40.1 40.4 40.3 40.1C40.4 40 40.5 39.9 40.5 39.8C41.4 38.9 47.6 32.5 47.6 32.4C48.1 31.9 48.8 31.6 49.5 31.7C50.2 31.8 50.9 32.2 51.2 32.8C53.7 36.8 54.1 41.9 52.3 46.4C50.7 50.2 47.7 53.4 44 55.1V61.3C44.2 62.9 43.1 63.9 41.8 63.9Z" fill="#FB625B"/>
</g>
<defs>
<clipPath id="clip0_101_103">
<rect width="75" height="75" fill="white"/>
</clipPath>
</defs>
</svg>
