<svg width="75" height="75" viewBox="0 0 75 75" fill="none" xmlns="http://www.w3.org/2000/svg">
<g clip-path="url(#clip0_101_65)">
<path d="M39.4 37.7H32.2C30.7 37.7 29.6 36.5 29.6 35.1C29.6 33.6 30.8 32.5 32.2 32.5H39.4C40.3 32.5 41.3 32 41.5 30.9C41.7 29.8 41.2 28.9 40.2 28.5L32.9 25.6C29.6 24.2 27.8 20.9 28.3 17.4C28.3 17.3 28.3 17.3 28.3 17.2C29.1 13.8 32.1 11.4 35.6 11.4H42.8C44.3 11.4 45.4 12.6 45.4 14C45.4 15.4 44.2 16.6 42.8 16.6H35.6C34.6 16.6 33.8 17.3 33.5 18.3C33.4 19.4 33.9 20.3 34.8 20.6L42.1 23.5C45.4 24.9 47.2 28.2 46.7 31.7C46.1 35.2 43.1 37.7 39.4 37.7Z" fill="#FB625B"/>
<path d="M37.5 16.6C36 16.6 34.9 15.4 34.9 14V8.69998C34.9 7.19998 36.1 6.09998 37.5 6.09998C39 6.09998 40.1 7.29998 40.1 8.69998V13.9C40.1 15.4 39 16.6 37.5 16.6Z" fill="#FB625B"/>
<path d="M37.5 43.1C36 43.1 34.9 41.9 34.9 40.5V35.2C34.9 33.7 36.1 32.6 37.5 32.6C39 32.6 40.1 33.8 40.1 35.2V40.5C40.1 41.9 39 43.1 37.5 43.1Z" fill="#FB625B"/>
<path d="M30.8 68.8999C29.3 68.8999 28.2 67.7 28.2 66.2999V53.8999L0.399972 11.1999C-0.400028 9.99995 -2.80142e-05 8.29995 1.19997 7.49995C2.39997 6.69995 4.09997 7.09995 4.89997 8.29995L33 51.5999C33.3 51.9999 33.4 52.4999 33.4 52.9999V66.1999C33.4 67.6999 32.2 68.8999 30.8 68.8999Z" fill="#FB625B"/>
<path d="M44.2 68.8999C42.7 68.8999 41.6 67.7 41.6 66.2999V53.0999C41.6 52.5999 41.7 52.0999 42 51.6999L70.1 8.29995C70.9 7.09995 72.5 6.69995 73.8 7.49995C75 8.29995 75.4 9.89995 74.6 11.1999L46.9 53.8999V66.2999C46.9 67.7 45.7 68.8999 44.2 68.8999Z" fill="#FB625B"/>
</g>
<defs>
<clipPath id="clip0_101_65">
<rect width="75" height="75" fill="white"/>
</clipPath>
</defs>
</svg>
