<svg width="75" height="75" viewBox="0 0 75 75" fill="none" xmlns="http://www.w3.org/2000/svg">
<path d="M37.5 63.3C35.5 63.3 34 61.7 34 59.8C34 57.8 35.6 56.3 37.5 56.3C39.5 56.3 41 57.9 41 59.8C41 61.8 39.4 63.3 37.5 63.3Z" fill="#FB625B"/>
<path d="M37.5 51.5C36.2 51.5 35.1 50.5 35.1 49.1V25.8C35.1 24.5 36.1 23.4 37.5 23.4C38.8 23.4 39.9 24.4 39.9 25.8V49.2C39.9 50.5 38.7 51.5 37.5 51.5Z" fill="#FB625B"/>
<path d="M67.9 75H7.1C4.6 75 2.3 73.7 1.1 71.6C-0.0999991 69.5 -0.299999 67 0.700001 64.7L30.4 4.5C31.6 1.8 34.5 0 37.5 0C40.5 0 43.4 1.8 44.6 4.5L74.2 64.8C75.3 67.1 75.2 69.6 73.8 71.7C72.6 73.8 70.4 75 67.9 75ZM37.5 4.8C36.2 4.8 35.1 5.6 34.5 6.7L5 66.9C4.6 67.7 4.6 68.5 5.1 69.3C5.6 70.1 6.4 70.4 7.1 70.4H67.9C68.8 70.4 69.5 70 69.9 69.3C70.4 68.5 70.4 67.7 70 66.9L40.5 6.5C39.9 5.4 38.7 4.8 37.5 4.8Z" fill="#FB625B"/>
</svg>
