<svg width="17" height="10" viewBox="0 0 17 10" fill="none" xmlns="http://www.w3.org/2000/svg">
<path d="M16.5334 0.444114C16.3929 0.303332 16.226 0.19164 16.0423 0.115433C15.8586 0.0392264 15.6616 -5.76053e-08 15.4627 -6.62992e-08C15.2639 -7.49931e-08 15.0669 0.0392264 14.8832 0.115433C14.6995 0.19164 14.5326 0.303332 14.3921 0.444114L8.49983 6.33639L2.60755 0.444114C2.3236 0.160164 1.93848 0.000642378 1.53692 0.00064236C1.13535 0.000642343 0.750229 0.160164 0.46628 0.444114C0.182331 0.728063 0.0228118 1.11318 0.0228118 1.51475C0.0228118 1.91631 0.182331 2.30143 0.46628 2.58538L7.43679 9.55589C7.57728 9.69667 7.74416 9.80836 7.92788 9.88457C8.11159 9.96077 8.30853 10 8.50742 10C8.70631 10 8.90325 9.96078 9.08697 9.88457C9.27068 9.80836 9.43756 9.69667 9.57806 9.55589L16.5486 2.58538C17.1256 2.0083 17.1256 1.03638 16.5334 0.444114Z" fill="#3F2355"/>
</svg>
