<svg width="25" height="24" viewBox="0 0 25 24" fill="none" xmlns="http://www.w3.org/2000/svg">
<path d="M12.0039 2C10.0261 2 8.0927 2.58649 6.44821 3.6853C4.80372 4.78412 3.52199 6.3459 2.76512 8.17317C2.00824 10.0004 1.81021 12.0111 2.19606 13.9509C2.58191 15.8907 3.53432 17.6725 4.93284 19.0711C6.33137 20.4696 8.1132 21.422 10.053 21.8079C11.9928 22.1937 14.0035 21.9957 15.8307 21.2388C17.658 20.4819 19.2198 19.2002 20.3186 17.5557C21.4174 15.9112 22.0039 13.9778 22.0039 12C22.0039 10.6868 21.7453 9.38642 21.2427 8.17317C20.7402 6.95991 20.0036 5.85752 19.075 4.92893C18.1464 4.00035 17.044 3.26375 15.8307 2.7612C14.6175 2.25866 13.3171 2 12.0039 2ZM12.0039 20C10.4217 20 8.87494 19.5308 7.55935 18.6518C6.24376 17.7727 5.21838 16.5233 4.61287 15.0615C4.00737 13.5997 3.84895 11.9911 4.15763 10.4393C4.46631 8.88743 5.22824 7.46197 6.34706 6.34315C7.46588 5.22433 8.89134 4.4624 10.4432 4.15372C11.995 3.84504 13.6036 4.00346 15.0654 4.60896C16.5272 5.21447 17.7766 6.23984 18.6557 7.55544C19.5347 8.87103 20.0039 10.4177 20.0039 12C20.0039 14.1217 19.1611 16.1566 17.6608 17.6569C16.1605 19.1571 14.1256 20 12.0039 20Z" fill="#3F2355"/>
<path d="M12.0039 9C12.5562 9 13.0039 8.55228 13.0039 8C13.0039 7.44772 12.5562 7 12.0039 7C11.4516 7 11.0039 7.44772 11.0039 8C11.0039 8.55228 11.4516 9 12.0039 9Z" fill="#3F2355"/>
<path d="M12.0039 10C11.7387 10 11.4843 10.1054 11.2968 10.2929C11.1093 10.4804 11.0039 10.7348 11.0039 11V16C11.0039 16.2652 11.1093 16.5196 11.2968 16.7071C11.4843 16.8946 11.7387 17 12.0039 17C12.2691 17 12.5235 16.8946 12.711 16.7071C12.8985 16.5196 13.0039 16.2652 13.0039 16V11C13.0039 10.7348 12.8985 10.4804 12.711 10.2929C12.5235 10.1054 12.2691 10 12.0039 10Z" fill="#3F2355"/>
</svg>
