<svg width="24" height="24" viewBox="0 0 24 24" fill="none" xmlns="http://www.w3.org/2000/svg">
<path d="M13.4981 6.99983C13.6297 6.99907 13.7602 7.02429 13.882 7.07405C14.0039 7.12382 14.1147 7.19715 14.2081 7.28983C14.3018 7.38279 14.3762 7.49339 14.427 7.61525C14.4778 7.73711 14.5039 7.86782 14.5039 7.99983C14.5039 8.13184 14.4778 8.26254 14.427 8.3844C14.3762 8.50626 14.3018 8.61686 14.2081 8.70983L10.8981 11.9998L14.0781 15.3098C14.2644 15.4972 14.3689 15.7506 14.3689 16.0148C14.3689 16.279 14.2644 16.5325 14.0781 16.7198C13.9851 16.8136 13.8745 16.8879 13.7527 16.9387C13.6308 16.9895 13.5001 17.0156 13.3681 17.0156C13.2361 17.0156 13.1054 16.9895 12.9835 16.9387C12.8617 16.8879 12.7511 16.8136 12.6581 16.7198L8.79811 12.7198C8.61488 12.5329 8.51225 12.2816 8.51225 12.0198C8.51225 11.7581 8.61488 11.5068 8.79811 11.3198L12.7981 7.31983C12.8879 7.22289 12.9959 7.14471 13.1161 7.08978C13.2362 7.03486 13.3661 7.00428 13.4981 6.99983Z" fill="#F5F7FA"/>
</svg>
