<svg width="21" height="19" viewBox="0 0 21 19" fill="none" xmlns="http://www.w3.org/2000/svg">
<path d="M21 10.9619C21 8.09338 19.8433 5.49028 17.9724 3.59332C17.9578 3.57391 17.9423 3.5549 17.9246 3.53721C17.9069 3.51951 17.8879 3.50395 17.8685 3.48943C15.9716 1.6185 13.3685 0.461914 10.5 0.461914C7.63154 0.461914 5.02843 1.61857 3.13141 3.48943C3.11199 3.50402 3.09306 3.51958 3.07536 3.53721C3.05767 3.5549 3.04211 3.57384 3.02751 3.59332C1.15665 5.49028 0 8.09338 0 10.9619C0 13.7662 1.09193 16.4025 3.07461 18.3857C3.07488 18.3859 3.07516 18.3863 3.07543 18.3866C3.07564 18.3867 3.07578 18.3869 3.07598 18.387C3.07626 18.3873 3.07653 18.3876 3.07681 18.3879C3.17761 18.4887 3.30974 18.539 3.44187 18.539C3.57406 18.539 3.70626 18.4886 3.80706 18.3877C3.81567 18.3791 3.82345 18.37 3.8313 18.3609L5.42261 16.7695C5.62428 16.5677 5.62428 16.2408 5.42261 16.0392C5.22094 15.8376 4.89396 15.8376 4.69236 16.0392L3.45054 17.281C2.00251 15.6696 1.16244 13.6417 1.0469 11.4783H2.80312C3.08831 11.4783 3.31951 11.2472 3.31951 10.9619C3.31951 10.6767 3.08831 10.4455 2.80312 10.4455H1.04704C1.16712 8.22352 2.05697 6.20297 3.45391 4.64615L4.69236 5.8846C4.79316 5.9854 4.92536 6.0358 5.05749 6.0358C5.18962 6.0358 5.32181 5.9854 5.42261 5.8846C5.62428 5.68286 5.62428 5.35595 5.42261 5.15428L4.18423 3.91576C5.74112 2.51881 7.7616 1.62896 9.98361 1.50895V3.2651C9.98361 3.55036 10.2148 3.7815 10.5 3.7815C10.7852 3.7815 11.0164 3.55036 11.0164 3.2651V1.50895C13.2384 1.62896 15.2589 2.51888 16.8158 3.91583L15.5773 5.15428C15.3757 5.35602 15.3757 5.68293 15.5773 5.8846C15.6781 5.9854 15.8103 6.0358 15.9424 6.0358C16.0746 6.0358 16.2068 5.9854 16.3076 5.8846L17.546 4.64615C18.943 6.20304 19.8329 8.22352 19.9529 10.4455H18.1967C17.9116 10.4455 17.6803 10.6767 17.6803 10.9619C17.6803 11.2472 17.9116 11.4783 18.1967 11.4783H19.953C19.8374 13.6417 18.9974 15.6697 17.5494 17.2811L16.3076 16.0392C16.106 15.8376 15.779 15.8376 15.5773 16.0392C15.3757 16.2409 15.3757 16.5678 15.5773 16.7695L17.1943 18.3865C17.2951 18.4873 17.4273 18.5377 17.5594 18.5377C17.6255 18.5377 17.6916 18.5251 17.7537 18.4999C17.8159 18.4747 17.8742 18.4369 17.9246 18.3865C19.9078 16.4033 21 13.7665 21 10.9619Z" fill="#3F2355"/>
<path d="M12.8737 5.03976C12.6089 4.93366 12.3084 5.06228 12.2024 5.32708L10.7101 9.052C10.6406 9.04457 10.571 9.03947 10.5014 9.03947C9.77463 9.03947 9.11812 9.44205 8.78797 10.0901C8.44288 10.7675 8.53129 11.577 9.02427 12.2552C9.07467 12.3245 9.13802 12.3879 9.20783 12.4387C9.60835 12.7298 10.0557 12.8837 10.5014 12.8837C11.2282 12.8837 11.8848 12.4811 12.2149 11.8331C12.56 11.1557 12.4716 10.3463 11.9789 9.66858C11.9285 9.59904 11.8651 9.53542 11.795 9.48447C11.7574 9.45706 11.7189 9.43207 11.6804 9.40715L13.1611 5.71107C13.2671 5.44641 13.1385 5.1458 12.8737 5.03976ZM11.2945 11.3643C11.1416 11.6644 10.8377 11.8509 10.5014 11.8509C10.2808 11.8509 10.0587 11.7738 9.84114 11.6218C9.59327 11.2659 9.54459 10.88 9.70825 10.5588C9.86111 10.2587 10.165 10.0723 10.5014 10.0723C10.6087 10.0723 10.7163 10.0909 10.8235 10.127C10.827 10.1284 10.8303 10.1303 10.8339 10.1317C10.8451 10.1362 10.8565 10.1399 10.8679 10.1435C10.9663 10.1813 11.0644 10.2334 11.1616 10.3013C11.4094 10.6572 11.4581 11.0431 11.2945 11.3643Z" fill="#3F2355"/>
</svg>
