<svg width="19" height="16" viewBox="0 0 19 16" fill="none" xmlns="http://www.w3.org/2000/svg">
<path d="M19 9.19673C19 6.68425 17.9535 4.40424 16.2608 2.74274C16.2476 2.72573 16.2335 2.70909 16.2175 2.69359C16.2015 2.67809 16.1843 2.66446 16.1668 2.65173C14.4505 1.01303 12.0953 0 9.5 0C6.90472 0 4.54953 1.01309 2.83318 2.65173C2.81561 2.66452 2.79848 2.67815 2.78247 2.69359C2.76646 2.70909 2.75238 2.72567 2.73918 2.74274C1.0465 4.40424 0 6.68425 0 9.19673C0 11.653 0.987938 13.962 2.78179 15.699C2.78204 15.6993 2.78229 15.6996 2.78253 15.6998C2.78272 15.6999 2.78285 15.7001 2.78303 15.7002C2.78328 15.7005 2.78353 15.7007 2.78378 15.701C2.87498 15.7893 2.99452 15.8333 3.11407 15.8333C3.23368 15.8333 3.35328 15.7892 3.44448 15.7008C3.45227 15.6933 3.45931 15.6853 3.46641 15.6773L4.90617 14.2835C5.08864 14.1068 5.08864 13.8204 4.90617 13.6438C4.72371 13.4672 4.42787 13.4672 4.24547 13.6438L3.12192 14.7315C1.81179 13.3201 1.05173 11.5439 0.947197 9.64903H2.53616C2.79418 9.64903 3.00337 9.44658 3.00337 9.19673C3.00337 8.94688 2.79418 8.74443 2.53616 8.74443H0.947321C1.05596 6.79822 1.86107 5.02847 3.12497 3.66488L4.24547 4.74961C4.33667 4.8379 4.45628 4.88205 4.57582 4.88205C4.69537 4.88205 4.81497 4.8379 4.90617 4.74961C5.08864 4.57292 5.08864 4.28658 4.90617 4.10994L3.78573 3.02515C5.19435 1.80159 7.0224 1.02219 9.03279 0.91708V2.45526C9.03279 2.70511 9.24197 2.90755 9.5 2.90755C9.75803 2.90755 9.96721 2.70511 9.96721 2.45526V0.91708C11.9776 1.02219 13.8056 1.80165 15.2143 3.02521L14.0938 4.10994C13.9113 4.28664 13.9113 4.57298 14.0938 4.74961C14.185 4.8379 14.3046 4.88205 14.4241 4.88205C14.5437 4.88205 14.6633 4.8379 14.7545 4.74961L15.875 3.66488C17.1389 5.02853 17.944 6.79822 18.0526 8.74443H16.4637C16.2057 8.74443 15.9965 8.94688 15.9965 9.19673C15.9965 9.44658 16.2057 9.64903 16.4637 9.64903H18.0527C17.9481 11.5439 17.1881 13.3202 15.878 14.7315L14.7545 13.6438C14.5721 13.4672 14.2762 13.4672 14.0938 13.6438C13.9113 13.8205 13.9113 14.1068 14.0938 14.2835L15.5568 15.6998C15.648 15.788 15.7676 15.8322 15.8871 15.8322C15.9469 15.8322 16.0067 15.8212 16.0629 15.7991C16.1192 15.777 16.1719 15.7439 16.2175 15.6998C18.0118 13.9627 19 11.6532 19 9.19673Z" fill="#3F2355"/>
<path d="M11.6489 4.01152C11.4093 3.91859 11.1374 4.03124 11.0415 4.26318L9.69135 7.52576C9.62843 7.51925 9.56551 7.51479 9.50253 7.51479C8.84494 7.51479 8.25096 7.8674 7.95226 8.435C7.64003 9.02836 7.72002 9.73732 8.16605 10.3313C8.21165 10.3921 8.26896 10.4476 8.33213 10.4921C8.6945 10.7471 9.09923 10.8819 9.50253 10.8819C10.1601 10.8819 10.7542 10.5293 11.0528 9.96166C11.365 9.36831 11.285 8.6594 10.8393 8.06581C10.7937 8.0049 10.7363 7.94918 10.6729 7.90455C10.6389 7.88055 10.604 7.85865 10.5692 7.83682L11.9089 4.59951C12.0048 4.36769 11.8884 4.1044 11.6489 4.01152ZM10.2201 9.55104C10.0817 9.81391 9.80678 9.97722 9.50247 9.97722C9.30287 9.97722 9.10197 9.90974 8.90512 9.77658C8.68086 9.46486 8.63682 9.1269 8.78489 8.84557C8.92319 8.58269 9.19816 8.41938 9.50253 8.41938C9.59959 8.41938 9.69689 8.43567 9.79395 8.46733C9.79712 8.46859 9.80005 8.47022 9.80329 8.47149C9.81351 8.47541 9.82379 8.4786 9.83406 8.4818C9.92315 8.51491 10.0119 8.5605 10.0998 8.61996C10.324 8.93169 10.3681 9.26971 10.2201 9.55104Z" fill="#3F2355"/>
</svg>
