<svg width="150" height="20" viewBox="0 0 150 20" fill="none" xmlns="http://www.w3.org/2000/svg">
<path fill-rule="evenodd" clip-rule="evenodd" d="M38.7563 13.2231C38.7587 14.2689 38.7537 15.1936 38.7413 15.9963C38.7287 16.7991 38.6934 17.4262 38.6354 17.8779C38.5957 18.1973 38.5422 18.4563 38.4751 18.6557C38.4084 18.8551 38.2763 18.9751 38.0796 19.0163C37.9799 19.0314 37.871 19.0511 37.7531 19.076C37.6351 19.1013 37.5266 19.1145 37.4266 19.1173C37.3669 19.1197 37.3237 19.14 37.2969 19.1769C37.2701 19.2142 37.2572 19.2526 37.2575 19.2929C37.2616 19.4139 37.3746 19.4726 37.596 19.4683C37.7698 19.4677 37.966 19.4625 38.1851 19.4529C38.4043 19.4428 38.6187 19.4311 38.8287 19.4179C39.0646 19.4056 39.2687 19.3982 39.441 19.3957C39.6137 19.3933 39.7151 19.3914 39.7457 19.3926C39.9007 19.3911 40.1219 19.3936 40.4099 19.3988C40.6975 19.404 41.064 19.4185 41.5096 19.4428C41.9449 19.4576 42.4707 19.4729 43.0878 19.4908C43.7046 19.5077 44.4119 19.5173 45.2101 19.5185C45.6087 19.5305 45.8896 19.5071 46.0537 19.4496C46.2175 19.3914 46.3301 19.2302 46.3916 18.9643C46.4334 18.7988 46.4763 18.5634 46.5204 18.2588C46.5649 17.9542 46.6025 17.6665 46.6334 17.3954C46.6643 17.1243 46.6804 16.9563 46.6816 16.8914C46.6831 16.8111 46.6743 16.7369 46.6546 16.6693C46.6349 16.6013 46.5954 16.5649 46.5366 16.5609C46.4778 16.5588 46.4325 16.5822 46.4007 16.6314C46.369 16.68 46.3419 16.7668 46.319 16.8914C46.2607 17.3139 46.154 17.6388 45.999 17.8653C45.8443 18.092 45.6293 18.2646 45.3543 18.3837C45.0575 18.4929 44.7031 18.5594 44.291 18.5831C43.879 18.6068 43.524 18.6163 43.2269 18.6117C42.2034 18.6299 41.5231 18.5237 41.186 18.2923C40.8487 18.0609 40.6825 17.5939 40.6869 16.8914C40.6796 16.724 40.6757 16.3979 40.6763 15.912C40.6766 15.4265 40.6787 14.924 40.6816 14.4046C40.6849 13.8853 40.6866 13.4914 40.6869 13.2231V11.4268C40.6854 11.3874 40.6946 11.3523 40.7143 11.3225C40.734 11.2923 40.7731 11.2766 40.8322 11.2751C40.9754 11.2748 41.264 11.2779 41.6984 11.2843C42.1328 11.2908 42.5793 11.3013 43.0378 11.3163C43.4963 11.3311 43.8334 11.3511 44.0493 11.3763C44.4499 11.4289 44.7249 11.5133 44.8746 11.6293C45.0243 11.7453 45.1119 11.88 45.1375 12.0339C45.184 12.1726 45.2122 12.3 45.2222 12.4166C45.2325 12.5329 45.2363 12.6416 45.2343 12.7425C45.2343 12.8062 45.2463 12.8557 45.2701 12.8908C45.2943 12.9262 45.3301 12.9443 45.3781 12.9446C45.449 12.9391 45.499 12.8936 45.5278 12.8086C45.5569 12.724 45.5707 12.6342 45.5698 12.54C45.5707 12.4425 45.581 12.2453 45.6001 11.9486C45.619 11.652 45.6413 11.3853 45.6666 11.1489C45.6946 10.7991 45.729 10.5289 45.7693 10.3388C45.8093 10.1489 45.8316 10.0237 45.8357 9.9631C45.8351 9.90033 45.824 9.8551 45.8025 9.8271C45.7807 9.7991 45.7516 9.78525 45.7148 9.78587C45.6793 9.78802 45.6357 9.81541 45.5851 9.86802C45.5346 9.92095 45.4734 9.98618 45.4022 10.064C45.296 10.1733 45.1596 10.2459 44.9925 10.2825C44.8251 10.3188 44.6157 10.3471 44.3637 10.3677C44.1725 10.3843 43.8131 10.396 43.2857 10.4034C42.7587 10.4105 42.2437 10.4151 41.7404 10.4163C41.2375 10.4182 40.9266 10.4188 40.8081 10.4185C40.7501 10.4185 40.7148 10.3994 40.7022 10.3616C40.6896 10.3237 40.6846 10.2668 40.6869 10.1908V4.34618C40.686 4.27048 40.694 4.21356 40.711 4.17541C40.7284 4.13756 40.7604 4.11879 40.8081 4.11879C40.9154 4.11879 41.1899 4.12125 41.6313 4.1271C42.0728 4.13264 42.521 4.14095 42.976 4.15233C43.431 4.16372 43.7322 4.17756 43.8798 4.19448C44.4422 4.26618 44.8231 4.35048 45.0225 4.44741C45.2219 4.54433 45.3484 4.67941 45.4022 4.85233C45.449 4.98525 45.481 5.12433 45.4978 5.26987C45.5149 5.41541 45.5228 5.52895 45.5219 5.61141C45.5213 5.70033 45.5343 5.76895 45.561 5.81695C45.5875 5.86495 45.6307 5.88925 45.6907 5.88956C45.7396 5.88648 45.7807 5.86125 45.8146 5.81356C45.8481 5.76618 45.8713 5.71571 45.884 5.66187C45.9087 5.50618 45.9319 5.26433 45.9537 4.93695C45.9751 4.60956 45.9925 4.38002 46.0049 4.24833C46.0331 3.95018 46.0672 3.72464 46.1075 3.57172C46.1478 3.4191 46.1701 3.3071 46.174 3.23664C46.1746 3.18402 46.1675 3.13756 46.1528 3.09756C46.1384 3.05756 46.1131 3.03664 46.0775 3.03448C46.0293 3.03725 45.9807 3.05079 45.9322 3.07572C45.884 3.10033 45.8357 3.12033 45.7875 3.13541C45.6987 3.15048 45.5684 3.17141 45.396 3.19879C45.2237 3.22618 45.0325 3.24741 44.8231 3.26187C44.6807 3.26802 44.3551 3.27172 43.846 3.27264C43.3372 3.27356 42.7743 3.27325 42.1575 3.27141C41.5404 3.26956 40.9987 3.26772 40.5322 3.26556C40.0657 3.26341 39.8037 3.26218 39.7457 3.26187C39.6507 3.26002 39.346 3.25141 38.831 3.23664C38.3163 3.22218 37.8001 3.21356 37.2819 3.21141C37.1619 3.21079 37.0754 3.22464 37.0219 3.25264C36.9687 3.28033 36.9425 3.32556 36.9434 3.38802C36.946 3.42833 36.9651 3.4671 37.0007 3.50464C37.0366 3.54187 37.074 3.56187 37.1128 3.56433C37.2169 3.56372 37.3407 3.56864 37.4843 3.57848C37.6278 3.58833 37.7454 3.59972 37.8378 3.61295C38.1778 3.66095 38.4043 3.78002 38.5175 3.97018C38.631 4.16064 38.6946 4.43787 38.7078 4.80187C38.7237 5.01233 38.7351 5.26618 38.7419 5.56372C38.749 5.86125 38.7531 6.30648 38.7546 6.8991C38.756 7.49172 38.7566 8.33602 38.7563 9.43172V13.2231Z" fill="#1A4179"/>
<path fill-rule="evenodd" clip-rule="evenodd" d="M52.7249 6.39541C53.0858 6.81202 53.777 7.58464 54.7993 8.71294C55.8214 9.84094 56.9658 11.1003 58.2326 12.4911C59.004 13.3314 59.799 14.1828 60.617 15.0446C61.4352 15.9065 62.1402 16.6434 62.7329 17.2554C63.3258 17.8671 63.6693 18.2182 63.7646 18.3083C64.3376 18.86 64.7287 19.2206 64.939 19.3902C65.1493 19.56 65.2984 19.6366 65.3879 19.62C65.4587 19.6446 65.5049 19.5646 65.5273 19.3809C65.5496 19.1966 65.5593 18.7634 65.5576 18.0806L65.6061 5.48494C65.5932 4.85202 65.6308 4.39787 65.7176 4.12218C65.8049 3.84648 66.0176 3.67694 66.3552 3.61325C66.4761 3.58894 66.579 3.57418 66.6637 3.56894C66.7479 3.56371 66.8143 3.56156 66.8629 3.56248C66.9364 3.55879 66.9949 3.53479 67.0381 3.49048C67.0817 3.44618 67.104 3.40341 67.1049 3.36218C67.102 3.30094 67.0646 3.26033 66.9929 3.24002C66.9211 3.21941 66.8293 3.21018 66.7182 3.21171C66.277 3.21356 65.8955 3.22156 65.5746 3.23541C65.254 3.24925 65.0299 3.25725 64.9026 3.2591C64.7643 3.25725 64.4834 3.24925 64.0614 3.23541C63.639 3.22156 63.1782 3.21356 62.6779 3.21171C62.5546 3.21018 62.4561 3.21941 62.3817 3.24002C62.3076 3.26033 62.2687 3.30094 62.2667 3.36218C62.2649 3.40341 62.2752 3.44618 62.297 3.49048C62.3193 3.53479 62.3655 3.55879 62.4358 3.56248C62.529 3.56218 62.6752 3.56925 62.874 3.58464C63.0729 3.60002 63.2732 3.62618 63.4749 3.66371C63.7917 3.71541 64.0032 3.89048 64.1087 4.18864C64.2146 4.48679 64.269 4.97818 64.2717 5.66187L64.4899 16.4366C64.2614 16.1874 63.8861 15.7726 63.364 15.1917C62.8417 14.6108 62.2396 13.9428 61.5567 13.188C60.8734 12.4329 60.1764 11.6696 59.4643 10.8976C58.3537 9.69941 57.3117 8.56802 56.3384 7.50279C55.3652 6.43725 54.5558 5.54894 53.9102 4.83756C53.2646 4.12618 52.8776 3.70218 52.749 3.56587C52.6349 3.43879 52.5014 3.30064 52.3482 3.15171C52.1949 3.00248 52.0552 2.92125 51.929 2.90833C51.8432 2.89971 51.774 2.97356 51.7211 3.12956C51.6684 3.28556 51.6414 3.57418 51.6399 3.99571V16.3108C51.6479 17.2649 51.6137 17.936 51.537 18.3243C51.4605 18.7123 51.2934 18.9348 51.0355 18.9914C50.8726 19.0406 50.709 19.0745 50.5461 19.0926C50.3829 19.1102 50.2558 19.1185 50.1652 19.1176C50.1161 19.1185 50.0758 19.1357 50.0446 19.1677C50.0134 19.2 49.9973 19.2419 49.9961 19.2933C49.9967 19.3665 50.0258 19.4142 50.0837 19.4369C50.1417 19.4603 50.2252 19.4708 50.3346 19.4686C50.8311 19.4656 51.2699 19.4536 51.6511 19.4323C52.0326 19.4111 52.2779 19.3985 52.3873 19.396C52.4899 19.3985 52.7373 19.4111 53.1296 19.4323C53.522 19.4536 54.0232 19.4656 54.6332 19.4686C54.7549 19.4693 54.8496 19.4557 54.917 19.4274C54.9843 19.4 55.0184 19.3551 55.0196 19.2933C55.0184 19.2419 55.0026 19.2 54.9714 19.1677C54.9402 19.1357 54.8999 19.1185 54.8505 19.1176C54.7458 19.1185 54.5929 19.1102 54.3917 19.0926C54.1902 19.0745 53.9887 19.0406 53.7876 18.9914C53.5029 18.9333 53.2993 18.7268 53.1776 18.3717C53.0558 18.0166 52.9852 17.4056 52.9661 16.5382L52.7249 6.39541Z" fill="#1A4179"/>
<path fill-rule="evenodd" clip-rule="evenodd" d="M73.6579 4.57417C73.657 4.45048 73.6773 4.35633 73.7185 4.29264C73.7597 4.22894 73.8282 4.1794 73.9238 4.14433C74.0364 4.10463 74.2226 4.06987 74.4829 4.04002C74.7432 4.00987 74.9844 3.99417 75.2053 3.99233C76.4776 3.95971 77.6929 4.09448 78.85 4.39725C80.0079 4.69971 81.09 5.36556 82.0961 6.3951C82.5608 6.8474 83.0041 7.51756 83.4261 8.40617C83.8482 9.29448 84.0741 10.42 84.1035 11.7828C84.1035 12.7908 83.9644 13.7529 83.6864 14.6693C83.4079 15.5856 82.9911 16.3265 82.435 16.892C81.7891 17.5262 81.0435 18.0089 80.1982 18.34C79.3529 18.6708 78.4382 18.8373 77.4538 18.8394C76.2235 18.8289 75.3544 18.736 74.8458 18.5613C74.3373 18.3865 74.0303 18.1923 73.9238 17.9794C73.8414 17.8489 73.7829 17.6296 73.7488 17.3219C73.7144 17.0142 73.6923 16.7191 73.6823 16.4366C73.6703 16.2068 73.6635 15.6609 73.6608 14.7988C73.6585 13.9369 73.6576 12.9231 73.6579 11.7576V4.57417ZM71.7273 13.2243C71.7297 14.2705 71.7247 15.1945 71.7117 15.9973C71.6994 16.7997 71.6644 17.4268 71.6061 17.8782C71.5667 18.196 71.5132 18.452 71.4461 18.6465C71.3791 18.8409 71.2473 18.9643 71.0506 19.0166C70.9508 19.0428 70.8417 19.0662 70.7241 19.0859C70.6061 19.1062 70.4976 19.1163 70.3976 19.1176C70.3379 19.12 70.2944 19.1403 70.2676 19.1769C70.2411 19.2145 70.2279 19.2529 70.2285 19.2933C70.2323 19.4142 70.3453 19.4726 70.567 19.4686C70.7411 19.468 70.9423 19.4628 71.1708 19.4529C71.4 19.4431 71.625 19.4314 71.8476 19.4182C72.0709 19.4173 72.2641 19.4126 72.4267 19.4053C72.59 19.3982 72.6867 19.3939 72.717 19.3929C72.7741 19.3936 72.9608 19.4046 73.2782 19.4274C73.595 19.4499 73.9876 19.4806 74.4556 19.5188C74.9244 19.5465 75.42 19.5739 75.9429 19.6013C76.4658 19.6289 76.9614 19.6434 77.4297 19.6453C79.2279 19.604 80.6426 19.3145 81.6732 18.7779C82.7041 18.2406 83.4414 17.7046 83.8856 17.1702C84.4988 16.5342 85.0291 15.7068 85.4764 14.6883C85.9229 13.6696 86.1573 12.4819 86.1791 11.1253C86.1591 9.84956 85.9456 8.75848 85.5391 7.85264C85.1332 6.94679 84.6541 6.21663 84.1035 5.66187C83.2456 4.79663 82.2929 4.19171 81.2456 3.84771C80.1982 3.50371 79.1723 3.30679 78.1679 3.25756C77.1635 3.20802 76.2967 3.19294 75.5679 3.21171C74.9144 3.21356 74.312 3.22156 73.7617 3.2354C73.2106 3.24925 72.8626 3.25725 72.717 3.2591C72.6217 3.25725 72.3167 3.24925 71.802 3.2354C71.2873 3.22156 70.7708 3.21356 70.2526 3.21171C70.1326 3.2111 70.0464 3.22494 69.9929 3.25263C69.9394 3.28033 69.9132 3.32556 69.9141 3.38802C69.917 3.42833 69.9358 3.4671 69.9714 3.50433C70.0073 3.54187 70.045 3.56156 70.0838 3.56433C70.1879 3.56402 70.3117 3.56863 70.455 3.57848C70.5988 3.58833 70.7164 3.59971 70.8085 3.61294C71.1485 3.66094 71.3753 3.78002 71.4882 3.97048C71.6017 4.16064 71.6653 4.43787 71.6788 4.80187C71.6947 5.01202 71.7058 5.26617 71.7129 5.5634C71.72 5.86094 71.7238 6.30587 71.7253 6.89848C71.7267 7.49079 71.7273 8.3351 71.7273 9.43048V13.2243Z" fill="#1A4179"/>
<path fill-rule="evenodd" clip-rule="evenodd" d="M112.044 12.5933C111.972 12.5933 111.948 12.5425 111.972 12.4416L113.954 6.54956C114.075 6.22095 114.195 6.22095 114.316 6.54956L116.419 12.4416C116.432 12.492 116.436 12.5299 116.428 12.5551C116.421 12.5806 116.393 12.5933 116.347 12.5933H112.044ZM108.975 17.0933C108.781 17.6437 108.553 18.0929 108.29 18.4406C108.026 18.7886 107.658 18.9973 107.187 19.0671C107.096 19.08 106.988 19.092 106.864 19.1016C106.739 19.1117 106.638 19.1166 106.559 19.1173C106.508 19.1185 106.464 19.1354 106.426 19.1677C106.387 19.1997 106.367 19.2416 106.365 19.2929C106.369 19.4139 106.506 19.4726 106.776 19.4683C107.233 19.4653 107.673 19.4533 108.096 19.432C108.52 19.4108 108.796 19.3985 108.927 19.3957C109.081 19.3985 109.366 19.4108 109.782 19.432C110.198 19.4533 110.55 19.4653 110.836 19.4683C110.934 19.469 111.01 19.4554 111.066 19.4274C111.121 19.4 111.149 19.3548 111.151 19.2929C111.152 19.2416 111.137 19.1997 111.105 19.1677C111.073 19.1354 111.016 19.1185 110.933 19.1173H110.739C110.551 19.1197 110.384 19.077 110.241 18.9877C110.097 18.8988 110.022 18.748 110.015 18.5354C110.016 18.3428 110.044 18.1213 110.099 17.8714C110.154 17.6216 110.231 17.3622 110.328 17.0933L111.537 13.6523C111.561 13.5896 111.591 13.5443 111.628 13.5163C111.664 13.4883 111.706 13.4745 111.754 13.4751H116.661C116.718 13.4742 116.76 13.4825 116.784 13.5003C116.809 13.5182 116.832 13.552 116.854 13.6016L118.763 18.5354C118.826 18.7117 118.827 18.8465 118.766 18.9403C118.705 19.0342 118.64 19.0933 118.57 19.1173C118.521 19.1394 118.485 19.1582 118.461 19.1739C118.437 19.1893 118.424 19.2209 118.424 19.2677C118.431 19.3274 118.504 19.3646 118.645 19.3809C118.787 19.3963 118.963 19.4086 119.174 19.4182C119.939 19.4419 120.644 19.4569 121.288 19.4622C121.933 19.4674 122.348 19.4696 122.533 19.4683C122.659 19.469 122.77 19.4554 122.866 19.4274C122.961 19.4 123.012 19.3548 123.017 19.2929C123.013 19.2308 122.984 19.1859 122.929 19.1582C122.874 19.1308 122.814 19.1166 122.751 19.1173C122.64 19.1185 122.511 19.1099 122.364 19.0923C122.217 19.0742 122.064 19.0406 121.905 18.9908C121.677 18.9465 121.414 18.776 121.116 18.4785C120.819 18.1813 120.478 17.5677 120.092 16.6379C119.753 15.7865 119.322 14.6908 118.799 13.3505C118.277 12.0102 117.743 10.6373 117.198 9.23203C116.653 7.82649 116.177 6.60064 115.769 5.5548C115.362 4.50833 115.103 3.85387 114.993 3.5908C114.891 3.34803 114.806 3.15726 114.739 3.0188C114.673 2.88033 114.588 2.80956 114.486 2.8068C114.417 2.79756 114.348 2.84803 114.277 2.9588C114.206 3.06926 114.107 3.29695 113.978 3.64156L108.975 17.0933Z" fill="#1A4179"/>
<path fill-rule="evenodd" clip-rule="evenodd" d="M127.657 4.34646C127.658 4.28369 127.675 4.232 127.706 4.19138C127.737 4.15077 127.777 4.11815 127.827 4.09354C127.946 4.06584 128.149 4.03877 128.434 4.01138C128.72 3.98369 129.025 3.96892 129.35 3.96707C130.498 3.97538 131.395 4.3443 132.041 5.07384C132.687 5.80307 133.016 6.84246 133.027 8.19169C133.019 9.0163 132.896 9.70677 132.658 10.2631C132.42 10.8191 132.116 11.2246 131.745 11.4803C131.488 11.6511 131.222 11.7588 130.947 11.8028C130.671 11.8471 130.406 11.8662 130.148 11.8597C129.658 11.8572 129.188 11.8246 128.74 11.7618C128.291 11.6991 127.979 11.6222 127.803 11.5311C127.754 11.4938 127.718 11.4542 127.693 11.4108C127.669 11.3674 127.657 11.3148 127.657 11.2526V4.34646ZM125.823 13.2225C125.826 14.2689 125.821 15.1932 125.808 15.996C125.795 16.7988 125.76 17.4258 125.703 17.8778C125.663 18.1954 125.609 18.4517 125.542 18.6462C125.475 18.8406 125.343 18.964 125.147 19.0163C125.047 19.0425 124.938 19.0658 124.82 19.0855C124.702 19.1058 124.594 19.116 124.494 19.1172C124.434 19.1197 124.39 19.14 124.364 19.1769C124.337 19.2142 124.324 19.2526 124.325 19.2929C124.329 19.4138 124.441 19.4726 124.663 19.4683C124.894 19.4674 125.17 19.4612 125.493 19.4489C125.814 19.4375 126.102 19.4258 126.354 19.4145C126.606 19.4031 126.743 19.3963 126.764 19.3957C126.843 19.3988 127.145 19.4108 127.67 19.432C128.196 19.4532 128.764 19.4652 129.374 19.4683C129.494 19.4674 129.581 19.4508 129.635 19.4178C129.688 19.3858 129.714 19.344 129.713 19.2929C129.715 19.2526 129.705 19.2142 129.683 19.1769C129.661 19.14 129.614 19.1197 129.544 19.1172C129.438 19.116 129.293 19.1058 129.109 19.0855C128.924 19.0658 128.754 19.0425 128.6 19.0163C128.284 18.964 128.07 18.8406 127.96 18.6462C127.849 18.4517 127.78 18.1954 127.754 17.8778C127.708 17.4271 127.68 16.804 127.669 16.0086C127.659 15.2132 127.655 14.2929 127.657 13.2477V12.7418C127.657 12.6791 127.669 12.6338 127.693 12.6058C127.718 12.5778 127.754 12.5643 127.803 12.5649L130.511 12.6154C130.58 12.6142 130.635 12.6225 130.674 12.6406C130.714 12.6585 130.756 12.6923 130.801 12.7418C131.042 13.0542 131.371 13.5046 131.787 14.092C132.203 14.6797 132.64 15.2757 133.099 15.8788C133.69 16.6874 134.209 17.3538 134.656 17.8778C135.102 18.4015 135.55 18.7895 135.997 19.0415C136.248 19.1914 136.543 19.2997 136.879 19.3677C137.215 19.4357 137.679 19.4692 138.269 19.4683H139.599C139.788 19.4689 139.922 19.4554 139.997 19.4274C140.073 19.3997 140.109 19.3548 140.106 19.2929C140.105 19.2526 140.088 19.2142 140.055 19.1769C140.021 19.14 139.973 19.1197 139.912 19.1172C139.855 19.1188 139.766 19.1157 139.647 19.108C139.528 19.1 139.367 19.0775 139.163 19.0415C138.903 19.0218 138.583 18.9157 138.205 18.7222C137.828 18.5286 137.357 18.1375 136.794 17.5489C136.178 16.8723 135.501 16.0618 134.762 15.1172C134.023 14.1726 133.218 13.1286 132.349 11.9858C133.325 11.1065 134.007 10.2665 134.396 9.46584C134.785 8.66554 134.973 7.86954 134.957 7.07846C134.929 6.32861 134.75 5.70369 134.42 5.20338C134.09 4.70307 133.778 4.35015 133.485 4.144C132.918 3.7523 132.288 3.496 131.594 3.37538C130.899 3.25446 130.208 3.19969 129.52 3.21138C129.285 3.212 128.975 3.216 128.588 3.22369C128.202 3.23138 127.84 3.23907 127.502 3.24646C127.163 3.25415 126.95 3.25815 126.861 3.25877C126.764 3.25692 126.451 3.24892 125.923 3.23507C125.393 3.22123 124.869 3.21323 124.349 3.21138C124.229 3.21107 124.143 3.22461 124.089 3.2523C124.035 3.2803 124.01 3.32523 124.011 3.38769C124.013 3.428 124.032 3.46707 124.068 3.5043C124.103 3.54154 124.141 3.56123 124.18 3.564C124.284 3.56369 124.408 3.56861 124.551 3.57846C124.695 3.5883 124.813 3.59969 124.905 3.61292C125.245 3.66092 125.471 3.78 125.585 3.97015C125.698 4.16061 125.761 4.43754 125.775 4.80184C125.79 5.0123 125.802 5.26615 125.809 5.56369C125.816 5.86092 125.82 6.30615 125.821 6.89877C125.823 7.49138 125.824 8.33538 125.823 9.43138V13.2225Z" fill="#1A4179"/>
<path fill-rule="evenodd" clip-rule="evenodd" d="M142.068 13.2231C142.07 14.2689 142.065 15.1936 142.053 15.9963C142.04 16.7991 142.005 17.4262 141.947 17.8779C141.907 18.1973 141.854 18.4563 141.787 18.6557C141.72 18.8551 141.588 18.9751 141.391 19.0163C141.291 19.0314 141.183 19.0511 141.065 19.076C140.947 19.1013 140.838 19.1145 140.738 19.1173C140.678 19.1197 140.635 19.14 140.608 19.1769C140.581 19.2142 140.569 19.2526 140.569 19.2929C140.573 19.4139 140.686 19.4726 140.908 19.4683C141.081 19.4677 141.278 19.4625 141.497 19.4529C141.716 19.4428 141.93 19.4311 142.14 19.4179C142.376 19.4056 142.58 19.3982 142.753 19.3957C142.925 19.3933 143.026 19.3914 143.057 19.3926C143.212 19.3911 143.434 19.3936 143.721 19.3988C144.009 19.404 144.376 19.4185 144.821 19.4428C145.256 19.4576 145.782 19.4729 146.399 19.4908C147.016 19.5077 147.723 19.5173 148.521 19.5185C148.92 19.5305 149.201 19.5071 149.365 19.4496C149.529 19.3914 149.642 19.2302 149.703 18.9643C149.745 18.7988 149.788 18.5634 149.832 18.2588C149.876 17.9542 149.914 17.6665 149.945 17.3954C149.976 17.1243 149.992 16.9563 149.993 16.8914C149.995 16.8111 149.986 16.7369 149.966 16.6693C149.946 16.6013 149.907 16.5649 149.848 16.5609C149.789 16.5588 149.744 16.5822 149.712 16.6314C149.68 16.68 149.653 16.7668 149.631 16.8914C149.572 17.3139 149.466 17.6388 149.311 17.8653C149.156 18.092 148.941 18.2646 148.666 18.3837C148.369 18.4929 148.014 18.5594 147.602 18.5831C147.19 18.6068 146.836 18.6163 146.538 18.6117C145.515 18.6299 144.835 18.5237 144.498 18.2923C144.16 18.0609 143.994 17.5939 143.998 16.8914C143.991 16.724 143.987 16.3979 143.988 15.912C143.988 15.4265 143.99 14.924 143.993 14.4046C143.996 13.8853 143.998 13.4914 143.998 13.2231V11.4268C143.997 11.3874 144.006 11.3523 144.026 11.3225C144.046 11.2923 144.084 11.2766 144.144 11.2751C144.287 11.2748 144.575 11.2779 145.01 11.2843C145.444 11.2908 145.891 11.3013 146.35 11.3163C146.808 11.3311 147.145 11.3511 147.361 11.3763C147.761 11.4289 148.036 11.5133 148.186 11.6293C148.336 11.7453 148.423 11.88 148.449 12.0339C148.495 12.1726 148.523 12.3 148.534 12.4166C148.544 12.5329 148.548 12.6416 148.546 12.7425C148.546 12.8062 148.558 12.8557 148.581 12.8908C148.606 12.9262 148.642 12.9443 148.69 12.9446C148.761 12.9391 148.81 12.8936 148.839 12.8086C148.868 12.724 148.882 12.6342 148.881 12.54C148.882 12.4425 148.892 12.2453 148.911 11.9486C148.931 11.652 148.953 11.3853 148.978 11.1489C149.006 10.7991 149.04 10.5289 149.081 10.3388C149.121 10.1489 149.143 10.0237 149.147 9.9631C149.147 9.90033 149.135 9.8551 149.114 9.8271C149.092 9.7991 149.063 9.78525 149.026 9.78587C148.991 9.78802 148.948 9.81541 148.896 9.86802C148.846 9.92095 148.785 9.98618 148.713 10.064C148.607 10.1733 148.471 10.2459 148.304 10.2825C148.137 10.3188 147.927 10.3471 147.675 10.3677C147.484 10.3843 147.124 10.396 146.597 10.4034C146.07 10.4105 145.555 10.4151 145.052 10.4163C144.549 10.4182 144.238 10.4188 144.119 10.4185C144.062 10.4185 144.026 10.3994 144.013 10.3616C144.001 10.3237 143.996 10.2668 143.998 10.1908V4.34618C143.997 4.27048 144.006 4.21356 144.022 4.17541C144.04 4.13756 144.072 4.11879 144.119 4.11879C144.227 4.11879 144.501 4.12125 144.943 4.1271C145.384 4.13264 145.832 4.14095 146.288 4.15233C146.742 4.16372 147.043 4.17756 147.191 4.19448C147.753 4.26618 148.134 4.35048 148.334 4.44741C148.533 4.54433 148.66 4.67941 148.713 4.85233C148.761 4.98525 148.792 5.12433 148.809 5.26987C148.826 5.41541 148.835 5.52895 148.833 5.61141C148.833 5.70033 148.846 5.76895 148.872 5.81695C148.899 5.86495 148.942 5.88925 149.002 5.88956C149.051 5.88648 149.092 5.86125 149.126 5.81356C149.16 5.76618 149.183 5.71571 149.195 5.66187C149.22 5.50618 149.243 5.26433 149.265 4.93695C149.287 4.60956 149.304 4.38002 149.316 4.24833C149.345 3.95018 149.379 3.72464 149.419 3.57172C149.459 3.4191 149.481 3.3071 149.486 3.23664C149.486 3.18402 149.479 3.13756 149.465 3.09756C149.45 3.05756 149.425 3.03664 149.389 3.03448C149.341 3.03725 149.292 3.05079 149.244 3.07572C149.195 3.10033 149.147 3.12033 149.099 3.13541C149.01 3.15048 148.88 3.17141 148.708 3.19879C148.535 3.22618 148.344 3.24741 148.135 3.26187C147.992 3.26802 147.666 3.27172 147.158 3.27264C146.649 3.27356 146.086 3.27325 145.469 3.27141C144.852 3.26956 144.31 3.26772 143.843 3.26556C143.377 3.26341 143.115 3.26218 143.057 3.26187C142.962 3.26002 142.658 3.25141 142.143 3.23664C141.628 3.22218 141.112 3.21356 140.593 3.21141C140.473 3.21079 140.387 3.22464 140.333 3.25264C140.28 3.28033 140.254 3.32556 140.255 3.38802C140.257 3.42833 140.277 3.4671 140.312 3.50464C140.348 3.54187 140.385 3.56187 140.424 3.56433C140.528 3.56372 140.652 3.56864 140.796 3.57848C140.939 3.58833 141.057 3.59972 141.149 3.61295C141.489 3.66095 141.716 3.78002 141.829 3.97018C141.942 4.16064 142.006 4.43787 142.019 4.80187C142.036 5.01233 142.047 5.26618 142.053 5.56372C142.06 5.86125 142.065 6.30648 142.066 6.8991C142.068 7.49172 142.068 8.33602 142.068 9.43172V13.2231Z" fill="#1A4179"/>
<path fill-rule="evenodd" clip-rule="evenodd" d="M27.0297 7.68552C27.0294 6.39075 27.03 5.39414 27.0315 4.69537C27.033 3.9966 27.0371 3.47198 27.0441 3.12152C27.0509 2.77137 27.0624 2.47167 27.0782 2.22244C27.0947 1.78275 27.1703 1.44798 27.3047 1.21721C27.4391 0.986136 27.678 0.840598 28.0209 0.780598C28.1703 0.755367 28.3182 0.736598 28.465 0.723982C28.6115 0.711059 28.7294 0.704905 28.8185 0.704905C28.8688 0.704905 28.9132 0.69229 28.9515 0.667367C28.9897 0.642136 29.0097 0.604598 29.0118 0.554444C29.0124 0.48029 28.9812 0.42829 28.9182 0.397828C28.8553 0.367674 28.7577 0.352905 28.625 0.354136C28.3668 0.355059 28.043 0.361213 27.6532 0.372905C27.2635 0.384598 26.9074 0.39629 26.585 0.407982C26.2624 0.419674 26.073 0.425828 26.0162 0.426751C25.9174 0.423674 25.5835 0.411674 25.0138 0.390444C24.4441 0.369213 23.8682 0.357213 23.2862 0.354136C23.1535 0.352905 23.0559 0.367674 22.993 0.397828C22.93 0.42829 22.8988 0.48029 22.8994 0.554444C22.9015 0.604598 22.9215 0.642136 22.9597 0.667367C22.998 0.69229 23.0424 0.704905 23.0927 0.704905C23.21 0.704905 23.35 0.711059 23.5127 0.723982C23.6753 0.736598 23.8094 0.755367 23.9147 0.780598C24.3038 0.864598 24.5709 1.01937 24.7153 1.24552C24.86 1.47137 24.9394 1.79721 24.9538 2.22244C24.9697 2.47167 24.9812 2.77137 24.988 3.12152C24.995 3.47198 24.9991 3.9966 25.0006 4.69537C25.0021 5.39414 25.0027 6.39075 25.0024 7.68552V12.1369C25.0047 13.3603 24.9997 14.4449 24.9874 15.3911C24.9747 16.3369 24.9394 17.0806 24.8815 17.6224C24.8403 17.9948 24.7718 18.3058 24.6762 18.5548C24.5803 18.804 24.415 18.9569 24.1803 19.0132C24.0688 19.0409 23.9477 19.0649 23.818 19.0855C23.688 19.1058 23.5671 19.1166 23.4553 19.1172C23.3838 19.1188 23.3335 19.1348 23.3041 19.1646C23.275 19.1941 23.2609 19.2289 23.2618 19.2677C23.2615 19.3418 23.2927 19.3941 23.3556 19.4243C23.4185 19.4548 23.5162 19.4695 23.6485 19.4683C23.8344 19.468 24.0491 19.4628 24.2924 19.4529C24.5356 19.4431 24.7803 19.4311 25.0265 19.4181C25.2729 19.4169 25.4859 19.4123 25.6659 19.4052C25.8462 19.3978 25.9627 19.3938 26.0162 19.3926C26.3615 19.3926 26.7327 19.3991 27.1297 19.4114C27.5268 19.4237 27.9771 19.4431 28.48 19.4683C28.9827 19.4824 29.5606 19.4984 30.2144 19.5157C30.8679 19.5332 31.6274 19.5428 32.4927 19.5443C33.1059 19.552 33.4988 19.5111 33.6709 19.4212C33.8432 19.3317 33.958 19.1458 34.0153 18.8637C34.0809 18.6071 34.1409 18.3006 34.1953 17.9443C34.25 17.5883 34.2938 17.2575 34.3271 16.9517C34.36 16.6461 34.3771 16.4406 34.378 16.3354C34.3794 16.1978 34.3703 16.1 34.3509 16.0415C34.3312 15.9831 34.2918 15.9544 34.2329 15.956C34.1621 15.9572 34.1106 15.9868 34.0788 16.0446C34.0471 16.1024 34.0262 16.1828 34.0153 16.2849C33.9774 16.5329 33.9027 16.7954 33.7918 17.072C33.6809 17.3486 33.5462 17.5923 33.3871 17.8024C33.0912 18.1548 32.6915 18.3729 32.1874 18.4569C31.6832 18.5406 31.1082 18.5754 30.4621 18.5612C29.5406 18.5621 28.8697 18.5157 28.45 18.4221C28.0297 18.3283 27.7338 18.1806 27.5615 17.9794C27.3488 17.7714 27.2062 17.2138 27.1324 16.3071C27.0588 15.4 27.0247 14.0271 27.0297 12.1874V7.68552Z" fill="#1A4179"/>
<path fill-rule="evenodd" clip-rule="evenodd" d="M99.9827 19.8222C100.781 19.8231 101.578 19.7769 102.376 19.6837C103.175 19.5902 103.827 19.4431 104.335 19.2422C104.542 19.1536 104.683 19.0662 104.758 18.9806C104.832 18.8948 104.9 18.7382 104.962 18.5105C105.045 18.2031 105.126 17.8089 105.207 17.3283C105.287 16.8477 105.355 16.4049 105.408 16C105.462 15.5951 105.49 15.3529 105.492 15.2729C105.492 15.1686 105.479 15.0797 105.453 15.0065C105.426 14.9332 105.383 14.8951 105.323 14.892C105.253 14.8905 105.201 14.9191 105.167 14.9782C105.133 15.0372 105.105 15.1354 105.083 15.2729C105.046 15.5262 104.952 15.8674 104.8 16.2972C104.648 16.7274 104.445 17.0942 104.19 17.3976C103.704 17.904 103.11 18.2443 102.403 18.4188C101.698 18.5932 100.891 18.6745 99.9827 18.6622C98.246 18.6372 96.7254 18.1951 95.4204 17.3357C94.1154 16.4763 93.098 15.3483 92.3675 13.9523C91.6377 12.556 91.2669 11.0403 91.2545 9.40524C91.2351 8.11201 91.3769 6.91078 91.6807 5.80125C91.9845 4.6914 92.568 3.69232 93.4307 2.80401C93.8319 2.35078 94.4622 1.93571 95.3227 1.55848C96.183 1.18124 97.406 0.980937 98.9919 0.957552C100.071 0.970475 101.037 1.11571 101.89 1.39386C102.743 1.67201 103.388 2.0074 103.827 2.39909C104.144 2.68863 104.392 3.06494 104.571 3.52801C104.749 3.99109 104.84 4.47478 104.842 4.97909C104.84 5.15601 104.851 5.28894 104.876 5.37755C104.9 5.46586 104.953 5.51017 105.035 5.51017C105.105 5.51201 105.156 5.47078 105.188 5.38678C105.219 5.30309 105.24 5.1674 105.251 4.97909C105.261 4.75663 105.27 4.3794 105.278 3.8474C105.285 3.31509 105.3 2.82401 105.323 2.37386C105.349 1.92924 105.375 1.60463 105.402 1.40032C105.427 1.19571 105.442 1.04832 105.444 0.957552C105.447 0.881552 105.428 0.819706 105.386 0.771706C105.345 0.724014 105.259 0.693552 105.13 0.680629C104.747 0.65386 104.355 0.606475 103.954 0.538783C103.552 0.470783 103.123 0.392322 102.667 0.302475C102.063 0.190475 101.451 0.111706 100.832 0.0661677C100.213 0.0206293 99.6563 -0.00152456 99.1607 1.39004e-05C97.3154 0.0178601 95.8022 0.278475 94.6216 0.782475C93.4407 1.28617 92.496 1.92617 91.7866 2.70278C90.7339 3.86924 90.0142 5.08986 89.6286 6.36401C89.2425 7.63786 89.0604 8.7194 89.0822 9.60771C89.0575 10.8332 89.2522 12.1062 89.6651 13.4268C90.0778 14.7471 90.8575 15.9696 92.0042 17.0942C92.9457 17.9932 94.0607 18.6723 95.3498 19.1311C96.6386 19.5902 98.183 19.8206 99.9827 19.8222Z" fill="#1A4179"/>
<path d="M1.99029 1.2892C1.97529 0.975663 1.95412 0.653816 1.83559 0.361816H0V7.35905C0.667647 7.35689 1.33588 7.36489 2.00353 7.35566C2.00559 7.31474 2.00706 7.27412 2.00794 7.23351C2.00559 5.47135 2.00794 3.70951 2.00647 1.94735C2.005 1.72797 2.01647 1.50766 1.99029 1.2892Z" fill="#1A4179"/>
<path d="M3.87567 0.361816C3.71273 0.620278 3.69126 0.941201 3.68038 1.24335C3.67685 1.36089 3.65803 1.4772 3.65803 1.59443C3.65891 3.2812 3.65803 4.96735 3.65803 6.65382C3.66155 6.88766 3.65214 7.12182 3.66155 7.35536C4.3295 7.3652 4.99773 7.35659 5.66538 7.35935C7.32597 7.35935 8.98656 7.35966 10.6474 7.35935C10.7145 7.3692 10.7498 7.30366 10.7877 7.25689C10.8498 7.17289 10.9251 7.1012 11.0024 7.03382C11.9271 6.10428 13.1571 5.53412 14.4224 5.42305C15.311 5.32582 16.2221 5.47412 17.0436 5.84766C17.2398 5.93782 17.4357 6.02951 17.6254 6.13474C17.761 6.20736 17.9145 6.27843 18.0692 6.23997C18.1916 6.21474 18.2907 6.12982 18.388 6.05259C18.3871 6.73259 18.3898 7.41289 18.3866 8.09259C18.246 7.86582 18.1171 7.62982 17.9518 7.42151C17.7066 7.11936 17.4271 6.8452 17.1039 6.63966C16.4295 6.19566 15.6163 6.02736 14.8307 6.08305C14.0236 6.14428 13.221 6.46151 12.6154 7.04182C12.3348 7.30089 12.1124 7.6252 11.918 7.96059C11.6677 8.42212 11.4663 8.91566 11.3407 9.43289C11.1427 10.1824 11.0763 10.9627 11.046 11.7381C11.0527 12.032 11.0318 12.327 11.0642 12.62C11.118 13.6677 11.3542 14.7292 11.8924 15.6187C12.0301 15.8295 12.1716 16.0397 12.3507 16.2129C12.6327 16.5363 12.981 16.784 13.3445 16.9907C13.9977 17.339 14.7342 17.4889 15.4618 17.4775C15.9777 17.4612 16.4954 17.3643 16.973 17.151C17.3892 16.9766 17.7542 16.6898 18.0771 16.364C18.1795 16.2554 18.2777 16.1412 18.3866 16.039C18.3921 16.2621 18.3807 16.4855 18.396 16.7083C18.5433 16.5877 18.6636 16.4363 18.7971 16.3C18.9427 16.1529 19.066 15.9834 19.2071 15.8326C19.4236 15.563 19.6421 15.2947 19.8521 15.0194V0.361816H3.87567Z" fill="#1A4179"/>
<path d="M1.64206 11.174C1.80412 11.0331 1.90059 10.822 1.93559 10.6044C1.98471 10.3731 1.97971 10.1349 2.00088 9.90014C2.01471 9.67398 2.00265 9.44752 2.00618 9.22106C2.00324 8.80321 2.01412 8.38537 2.00118 7.96752C1.94794 7.96444 1.89471 7.96137 1.84088 7.96106C1.22735 7.96444 0.613235 7.96168 0 7.9626V11.4361C0.322353 11.4364 0.645 11.4352 0.967941 11.4374C1.21353 11.4411 1.45206 11.3355 1.64206 11.174Z" fill="#8B97B9"/>
<path d="M3.67431 10.0032C3.68813 10.2122 3.70783 10.426 3.78813 10.6192C3.88548 10.8279 4.09695 10.9512 4.30931 10.9709C4.47078 10.9842 4.63078 11.0066 4.79195 11.0091C5.49254 11.0072 6.19313 11.0103 6.89372 11.0076C7.36519 10.9679 7.85431 10.9503 8.29254 10.7386C8.65431 10.5645 8.95107 10.2694 9.20695 9.95155C9.32754 9.77432 9.45989 9.59955 9.53107 9.39124C9.62195 9.13709 9.73695 8.89401 9.85195 8.65155C9.96136 8.41001 10.1061 8.18971 10.2417 7.96509C8.70872 7.95894 7.1746 7.96448 5.64166 7.96263C4.98166 7.96571 4.32195 7.95647 3.66225 7.96724C3.65225 8.40171 3.66195 8.83678 3.65872 9.27155C3.66313 9.51555 3.64519 9.76047 3.67431 10.0032Z" fill="#8B97B9"/>
<path d="M9.10588 12.7214C9.07588 12.4968 9.09618 12.27 9.08471 12.0442C8.06294 12.0352 7.04059 12.0429 6.01882 12.0408H0V15.5137C3.31059 15.5131 6.62176 15.5155 9.93265 15.5125C9.45412 14.6694 9.18029 13.702 9.10588 12.7214Z" fill="#8B97B9"/>
<path d="M19.2068 15.8328C19.0656 15.9835 18.9424 16.1531 18.7968 16.3001C18.6629 16.4361 18.5426 16.5878 18.3953 16.7085C18.2791 16.8177 18.1785 16.9445 18.0591 17.05C17.9332 17.1592 17.8282 17.2934 17.6932 17.3909C17.0021 17.9088 16.1712 18.1918 15.3332 18.2703C15.1003 18.2811 14.8679 18.3158 14.635 18.3081C14.2609 18.2805 13.8844 18.2675 13.5159 18.1915C12.68 18.0349 11.8744 17.6675 11.2132 17.0974C10.9035 16.8263 10.6171 16.5235 10.3712 16.1854C10.3429 16.1408 10.2974 16.1128 10.2459 16.1168C6.83059 16.1183 3.415 16.1171 0 16.1177V19.49H19.8515V15.0195C19.6418 15.2949 19.4232 15.5632 19.2068 15.8328Z" fill="#8B97B9"/>
</svg>
