<svg width="231" height="200" viewBox="0 0 231 200" fill="none" xmlns="http://www.w3.org/2000/svg">
<circle cx="108.172" cy="96" r="40" fill="#81DB0F"/>
<g clip-path="url(#clip0_14292_10470)">
<path d="M110.9 80.092C108.988 79.614 107.212 81.06 107.084 82.932C106.94 85.034 106.624 86.964 106.228 88.112C105.978 88.832 105.27 90.138 104.148 91.39C103.034 92.636 101.584 93.746 99.8859 94.21C98.5419 94.576 97.1719 95.74 97.1719 97.44V105.442C97.1719 107.132 98.5359 108.37 100.068 108.532C102.208 108.76 103.196 109.362 104.204 109.978L104.3 110.038C104.844 110.368 105.456 110.734 106.24 111.006C107.034 111.278 107.962 111.44 109.172 111.44H116.172C118.046 111.44 119.37 110.486 120.04 109.312C120.364 108.758 120.539 108.13 120.548 107.488C120.548 107.184 120.502 106.864 120.394 106.56C120.796 106.034 121.154 105.404 121.37 104.758C121.59 104.098 121.714 103.234 121.378 102.46C121.516 102.2 121.618 101.922 121.696 101.654C121.85 101.114 121.922 100.518 121.922 99.94C121.922 99.364 121.85 98.77 121.696 98.228C121.626 97.9788 121.534 97.7365 121.42 97.504C121.77 97.0057 121.995 96.4306 122.077 95.8271C122.158 95.2235 122.093 94.6093 121.888 94.036C121.476 92.852 120.524 91.836 119.488 91.492C117.794 90.928 115.882 90.94 114.456 91.07C114.16 91.0966 113.864 91.13 113.57 91.17C114.264 88.1988 114.221 85.103 113.446 82.152C113.311 81.6792 113.052 81.251 112.696 80.9117C112.341 80.5723 111.901 80.3343 111.422 80.222L110.9 80.092ZM116.172 109.442H109.172C108.152 109.442 107.446 109.304 106.892 109.114C106.33 108.92 105.88 108.658 105.34 108.328L105.26 108.28C104.15 107.602 102.864 106.818 100.28 106.544C99.6139 106.472 99.1719 105.964 99.1719 105.444V97.44C99.1719 96.932 99.6239 96.354 100.412 96.14C102.602 95.54 104.366 94.148 105.64 92.724C106.91 91.304 107.768 89.774 108.116 88.768C108.602 87.368 108.93 85.232 109.08 83.068C109.13 82.344 109.8 81.88 110.414 82.032L110.938 82.164C111.258 82.244 111.454 82.45 111.514 82.674C112.331 85.786 112.23 89.0679 111.224 92.124C111.167 92.294 111.157 92.4761 111.194 92.6514C111.232 92.8267 111.316 92.9886 111.438 93.1203C111.559 93.252 111.714 93.3485 111.886 93.3998C112.058 93.4511 112.24 93.4553 112.414 93.412L112.42 93.41L112.448 93.404L112.564 93.376C113.248 93.2308 113.94 93.1259 114.636 93.062C115.962 92.942 117.55 92.954 118.856 93.39C119.206 93.506 119.756 93.99 119.996 94.69C120.21 95.306 120.17 96.03 119.464 96.734L118.758 97.44L119.464 98.148C119.55 98.234 119.674 98.43 119.772 98.778C119.868 99.112 119.922 99.518 119.922 99.94C119.922 100.364 119.868 100.768 119.772 101.104C119.672 101.452 119.55 101.648 119.464 101.734L118.758 102.44L119.464 103.148C119.558 103.242 119.682 103.502 119.474 104.124C119.257 104.727 118.913 105.276 118.464 105.734L117.758 106.44L118.464 107.148C118.476 107.158 118.546 107.248 118.546 107.488C118.537 107.781 118.454 108.068 118.304 108.32C117.974 108.896 117.298 109.44 116.172 109.44V109.442Z" fill="white"/>
</g>
<path d="M229.388 119.573L221.918 122.23C221.538 122.365 221.249 122.68 221.144 123.072L219.099 130.756C218.837 131.741 217.561 131.997 216.941 131.187L212.104 124.876C211.858 124.555 211.47 124.375 211.067 124.396L203.148 124.809C202.133 124.862 201.496 123.723 202.071 122.881L206.552 116.323C206.78 115.99 206.83 115.564 206.684 115.184L203.836 107.755C203.471 106.802 204.352 105.845 205.327 106.134L212.933 108.392C213.321 108.508 213.74 108.424 214.053 108.168L220.21 103.163C220.999 102.521 222.182 103.069 222.209 104.089L222.43 112.043C222.44 112.448 222.65 112.823 222.99 113.044L229.644 117.38C230.497 117.936 230.347 119.232 229.388 119.573Z" fill="#F7CC7F"/>
<path d="M14.136 152.069L10.5953 153.329C10.415 153.393 10.2779 153.542 10.2281 153.728L9.25876 157.37C9.1347 157.837 8.52956 157.959 8.236 157.575L5.94309 154.583C5.82624 154.431 5.64231 154.346 5.45117 154.356L1.69768 154.551C1.21659 154.576 0.914384 154.037 1.18702 153.637L3.31116 150.529C3.41935 150.371 3.44316 150.169 3.37392 149.989L2.0237 146.467C1.85059 146.016 2.26821 145.562 2.73054 145.699L6.33617 146.769C6.5201 146.824 6.71845 146.784 6.86703 146.663L9.78529 144.291C10.1596 143.986 10.7201 144.246 10.733 144.729L10.8376 148.5C10.8427 148.692 10.9422 148.869 11.103 148.974L14.2572 151.03C14.6618 151.293 14.5904 151.907 14.136 152.069Z" fill="#F7CC7F"/>
<path d="M173.47 14.4128L169.929 15.6723C169.749 15.7366 169.612 15.886 169.562 16.0715L168.593 19.7142C168.469 20.1812 167.864 20.3024 167.57 19.9185L165.277 16.9268C165.16 16.7745 164.976 16.6893 164.785 16.6994L161.032 16.895C160.551 16.9203 160.248 16.3804 160.521 15.9812L162.645 12.8726C162.753 12.7145 162.777 12.5124 162.708 12.3327L161.358 8.81123C161.185 8.35941 161.602 7.90543 162.065 8.04256L165.67 9.11293C165.854 9.16779 166.052 9.12809 166.201 9.00684L169.119 6.6344C169.494 6.32981 170.054 6.58965 170.067 7.07323L170.172 10.8437C170.177 11.0357 170.276 11.2133 170.437 11.3179L173.591 13.3735C173.996 13.637 173.924 14.2512 173.47 14.4128Z" fill="#F7CC7F"/>
<path d="M166.966 133.643L163.425 134.902C163.245 134.966 163.108 135.116 163.058 135.301L162.089 138.944C161.965 139.411 161.36 139.532 161.066 139.148L158.773 136.157C158.656 136.004 158.472 135.919 158.281 135.929L154.528 136.125C154.047 136.15 153.744 135.61 154.017 135.211L156.141 132.102C156.249 131.944 156.273 131.742 156.204 131.563L154.854 128.041C154.681 127.589 155.098 127.135 155.561 127.272L159.166 128.343C159.35 128.398 159.549 128.358 159.697 128.237L162.615 125.864C162.99 125.56 163.55 125.819 163.563 126.303L163.668 130.074C163.673 130.266 163.772 130.443 163.933 130.548L167.087 132.603C167.492 132.867 167.42 133.481 166.966 133.643Z" fill="#F7CC7F"/>
<path d="M224.413 162.908L220.873 164.168C220.692 164.232 220.555 164.381 220.505 164.567L219.536 168.21C219.412 168.676 218.807 168.798 218.513 168.414L216.22 165.422C216.104 165.27 215.92 165.185 215.729 165.195L211.975 165.39C211.494 165.416 211.192 164.876 211.464 164.477L213.589 161.368C213.697 161.21 213.721 161.008 213.651 160.828L212.301 157.307C212.128 156.855 212.546 156.401 213.008 156.538L216.614 157.608C216.797 157.663 216.996 157.623 217.144 157.502L220.063 155.13C220.437 154.825 220.997 155.085 221.01 155.569L221.115 159.339C221.12 159.531 221.22 159.709 221.38 159.813L224.535 161.869C224.939 162.132 224.868 162.746 224.413 162.908Z" fill="#F7CC7F"/>
<path d="M16.5088 125.505C16.5088 125.505 15.7586 126.007 15.1211 125.846C14.4836 125.683 14.1914 125.447 14.1914 125.447C14.1914 125.447 14.5429 126.09 15.0633 126.37C15.961 126.851 16.5088 125.505 16.5088 125.505Z" fill="#F47458"/>
<path d="M1.70449 121.947L8.64598 120.514C8.99898 120.441 9.36569 120.555 9.62436 120.817L14.7004 125.981C15.3516 126.644 16.4456 126.24 16.5521 125.298L17.3799 117.954C17.4225 117.58 17.6385 117.252 17.9566 117.077L24.2179 113.638C25.0213 113.196 24.9893 111.984 24.1646 111.585L17.7344 108.48C17.4073 108.322 17.1745 108.005 17.1136 107.635L15.907 100.345C15.7518 99.4101 14.638 99.0645 14.0233 99.7603L9.22113 105.184C8.97616 105.459 8.61706 105.594 8.26101 105.539L1.25411 104.473C0.354849 104.336 -0.300954 105.335 0.141827 106.163L3.60344 112.62C3.77994 112.949 3.79059 113.348 3.63082 113.685L0.507002 120.316C0.106825 121.167 0.814362 122.131 1.70449 121.947Z" fill="#F2C94C"/>
<path d="M14.0465 199.015C14.0465 199.015 13.4536 199.412 12.9497 199.285C12.4458 199.156 12.2148 198.969 12.2148 198.969C12.2148 198.969 12.4927 199.477 12.904 199.699C13.6136 200.079 14.0465 199.015 14.0465 199.015Z" fill="#F47458"/>
<path d="M33.8668 178.245L39.3534 177.113C39.6324 177.055 39.9222 177.145 40.1267 177.352L44.1388 181.434C44.6536 181.958 45.5183 181.639 45.6025 180.894L46.2567 175.089C46.2904 174.793 46.4612 174.535 46.7125 174.396L51.6615 171.678C52.2966 171.329 52.2713 170.371 51.6195 170.055L46.537 167.601C46.2784 167.476 46.0944 167.226 46.0463 166.933L45.0925 161.171C44.9699 160.432 44.0895 160.159 43.6036 160.709L39.808 164.996C39.6144 165.214 39.3305 165.32 39.0491 165.276L33.5108 164.434C32.8 164.325 32.2817 165.115 32.6316 165.77L35.3677 170.874C35.5072 171.134 35.5156 171.449 35.3894 171.715L32.9203 176.956C32.604 177.629 33.1632 178.391 33.8668 178.245Z" fill="#F7CC7F"/>
<path d="M153.578 197.931C153.578 197.931 152.985 198.328 152.481 198.201C151.977 198.072 151.746 197.885 151.746 197.885C151.746 197.885 152.024 198.393 152.435 198.615C153.145 198.995 153.578 197.931 153.578 197.931Z" fill="#F47458"/>
<path d="M173.398 177.161L178.885 176.029C179.164 175.971 179.453 176.061 179.658 176.268L183.67 180.35C184.185 180.874 185.05 180.555 185.134 179.81L185.788 174.006C185.822 173.71 185.992 173.451 186.244 173.312L191.193 170.594C191.828 170.245 191.803 169.287 191.151 168.971L186.068 166.517C185.81 166.392 185.626 166.142 185.578 165.85L184.624 160.087C184.501 159.348 183.621 159.075 183.135 159.625L179.339 163.912C179.146 164.13 178.862 164.236 178.58 164.192L173.042 163.35C172.331 163.242 171.813 164.031 172.163 164.686L174.899 169.79C175.038 170.05 175.047 170.365 174.921 170.631L172.452 175.872C172.135 176.545 172.694 177.307 173.398 177.161Z" fill="#F7CC7F"/>
<path d="M37.6012 88.4564C37.6012 88.4564 37.0083 88.8536 36.5044 88.726C36.0005 88.5972 35.7695 88.4107 35.7695 88.4107C35.7695 88.4107 36.0474 88.9185 36.4587 89.14C37.1682 89.5203 37.6012 88.4564 37.6012 88.4564Z" fill="#F47458"/>
<path d="M57.4215 67.6865L62.9081 66.554C63.1871 66.4962 63.4769 66.5865 63.6814 66.7935L67.6935 70.8758C68.2083 71.3993 69.073 71.0804 69.1572 70.3354L69.8114 64.5309C69.8451 64.2349 70.0159 63.9761 70.2672 63.8377L75.2162 61.119C75.8512 60.77 75.826 59.812 75.1741 59.4967L70.0916 57.0428C69.8331 56.9176 69.6491 56.6673 69.6009 56.3748L68.6472 50.6125C68.5246 49.8735 67.6442 49.6003 67.1583 50.1503L63.3627 54.4372C63.169 54.655 62.8852 54.7609 62.6038 54.7176L57.0655 53.8752C56.3547 53.7669 55.8363 54.5563 56.1863 55.2111L58.9224 60.3151C59.0619 60.575 59.0703 60.8904 58.9441 61.1563L56.475 66.3976C56.1587 67.0703 56.7179 67.8321 57.4215 67.6865Z" fill="#F7CC7F"/>
<path d="M169.184 97.6463C169.184 97.6463 164.633 98.3482 161.272 101.703C157.911 105.057 155.902 110.444 155.902 110.444L162.786 112.452C162.786 112.454 160.035 106.03 169.184 97.6463Z" fill="#FAE0B2"/>
<path d="M170.443 100.951L169.95 97.0713L166.476 95.2792C166.081 95.0752 166.091 94.5057 166.493 94.3154L170.028 92.6466L170.658 88.7867C170.729 88.3467 171.274 88.1807 171.578 88.505L174.256 91.3539L178.119 90.7616C178.559 90.6946 178.886 91.1605 178.672 91.5518L176.793 94.9808L178.55 98.4737C178.749 98.8711 178.407 99.3264 177.97 99.2426L174.13 98.5133L171.353 101.265C171.038 101.578 170.499 101.393 170.443 100.951Z" fill="#F7CC7F"/>
<path d="M49.4395 118.3C49.4395 118.3 53.9905 119.002 57.3517 122.356C60.7129 125.711 62.7199 131.098 62.7199 131.098L55.8362 133.106C55.8377 133.106 58.5888 126.684 49.4395 118.3Z" fill="#FAE0B2"/>
<path d="M48.1791 121.605L48.6721 117.725L52.1459 115.933C52.5415 115.729 52.5308 115.159 52.1291 114.969L48.5945 113.3L47.9645 109.44C47.893 109 47.3483 108.834 47.044 109.159L44.366 112.008L40.5027 111.415C40.0629 111.348 39.7358 111.814 39.9503 112.206L41.8295 115.634L40.0721 119.127C39.8712 119.525 40.2151 119.98 40.6518 119.896L44.4908 119.167L47.2676 121.918C47.5857 122.232 48.1228 122.046 48.1791 121.605Z" fill="#F7CC7F"/>
<path d="M77.6654 160.027L78.1584 156.147L81.6322 154.355C82.0278 154.151 82.0171 153.582 81.6154 153.391L78.0808 151.723L77.4509 147.863C77.3794 147.423 76.8346 147.257 76.5303 147.581L73.8523 150.43L69.989 149.838C69.5493 149.771 69.2221 150.237 69.4367 150.628L71.3158 154.057L69.5584 157.55C69.3575 157.947 69.7014 158.402 70.1381 158.319L73.9771 157.589L76.754 160.341C77.072 160.654 77.6091 160.469 77.6654 160.027Z" fill="#F7CC7F"/>
<path d="M199.97 101.036L201.035 99.2363L200.157 97.3391C200.057 97.1229 200.248 96.8854 200.48 96.9387L202.519 97.3955L204.051 95.9733C204.226 95.8119 204.51 95.9201 204.532 96.1576L204.728 98.239L206.552 99.2577C206.761 99.3734 206.745 99.6779 206.526 99.7723L204.609 100.602L204.204 102.653C204.159 102.886 203.865 102.967 203.707 102.787L202.325 101.219L200.251 101.469C200.016 101.496 199.85 101.24 199.97 101.036Z" fill="#2F80ED"/>
<path d="M97.591 189.404L98.6561 187.604L97.7781 185.707C97.6777 185.491 97.8694 185.253 98.1007 185.306L100.14 185.763L101.672 184.341C101.847 184.18 102.131 184.288 102.153 184.525L102.349 186.607L104.173 187.625C104.382 187.741 104.367 188.046 104.147 188.14L102.23 188.97L101.826 191.021C101.78 191.254 101.486 191.334 101.328 191.155L99.9464 189.586L97.8724 189.836C97.6366 189.864 97.4707 189.608 97.591 189.404Z" fill="#2F80ED"/>
<path d="M88.3282 25.0813L89.6717 22.811L88.564 20.4174C88.4378 20.1449 88.6797 19.8449 88.9718 19.9119L91.5448 20.489L93.4772 18.6954C93.6979 18.4913 94.0554 18.6284 94.0843 18.9268L94.3309 21.5533L96.633 22.8384C96.8947 22.9846 96.8765 23.3683 96.5995 23.4886L94.1802 24.5346L93.6705 27.1231C93.6127 27.4185 93.2414 27.5175 93.0436 27.2921L91.3014 25.3127L88.6842 25.6264C88.386 25.6614 88.176 25.3401 88.3282 25.0813Z" fill="#F79C8D"/>
<path d="M67.254 186.412L68.5975 184.141L67.4898 181.748C67.3635 181.475 67.6055 181.175 67.8976 181.242L70.4706 181.819L72.403 180.026C72.6236 179.822 72.9812 179.959 73.0101 180.257L73.2566 182.884L75.5588 184.169C75.8205 184.315 75.8022 184.699 75.5253 184.819L73.106 185.865L72.5963 188.453C72.5384 188.749 72.1672 188.848 71.9694 188.622L70.2272 186.643L67.61 186.957C67.3118 186.992 67.1018 186.67 67.254 186.412Z" fill="#F79C8D"/>
<path d="M195.827 25.2797L192.28 27.6473L194.263 31.0931L190.873 33.581L192.363 37.1074L190.129 39.3838L191.281 40.5151L194.268 37.4698L192.857 34.1277L196.384 31.5407L194.433 28.1529L197.647 26.006L195.827 25.2797Z" fill="#F48C7F"/>
<path d="M201.276 82.3594L198.767 78.9091L195.407 81.0332L192.785 77.7428L189.325 79.375L186.961 77.2357L185.879 78.4325L189.039 81.295L192.32 79.7481L195.046 83.1694L198.351 81.0819L200.625 84.2078L201.276 82.3594Z" fill="#F48C7F"/>
<path d="M157.096 49.228L154.587 45.7777L151.227 47.9018L148.606 44.6114L145.146 46.2436L142.781 44.1043L141.699 45.3011L144.86 48.1637L148.14 46.6167L150.867 50.038L154.172 47.9505L156.445 51.0765L157.096 49.228Z" fill="#F48C7F"/>
<path d="M111.864 150.367L109.355 146.917L105.995 149.041L103.373 145.751L99.9132 147.383L97.5487 145.244L96.4668 146.44L99.6271 149.303L102.908 147.756L105.634 151.177L108.939 149.09L111.212 152.216L111.864 150.367Z" fill="#F48C7F"/>
<path d="M72.8321 14.0295L73.6842 9.84988L69.8513 8.80079L70.5087 4.64554L66.9695 3.18991L66.9527 0L65.3398 0.0091354L65.3611 4.27554L68.7147 5.65352L68.0315 9.97626L71.8005 11.0086L71.029 14.7969L72.8321 14.0295Z" fill="#F48C7F"/>
<path d="M44.6181 14.8793L46.2416 17.9109L49.7428 17.716L51.3207 21.2439L54.9846 19.8842L56.946 23.7958L60.4745 22.9614L62.976 26.4163L61.6705 27.3634L59.7989 24.781L56.0756 25.6611L54.1904 21.9017L50.4655 23.2842L48.7233 19.3894L45.3043 19.5812L43.801 16.7704L41.581 17.3658L41.1641 15.8066L44.6181 14.8793Z" fill="#F7CC7F"/>
<path d="M131.354 187.516L132.978 190.548L136.479 190.353L138.057 193.881L141.721 192.521L143.682 196.432L147.211 195.598L149.712 199.053L148.407 200L146.535 197.418L142.812 198.298L140.927 194.538L137.202 195.921L135.46 192.026L132.041 192.218L130.537 189.407L128.317 190.002L127.9 188.443L131.354 187.516Z" fill="#F7CC7F"/>
<path d="M35.4518 40.4201L32.8682 40.682L31.9872 36.5694L28.1619 36.4872L26.9994 33.5165L25.4961 34.1042L27.0512 38.0783L30.6756 38.156L31.5931 42.4345L35.4807 42.0402L35.4518 40.4201Z" fill="#50BFA5"/>
<path d="M200.723 143.476L198.14 143.738L197.259 139.625L193.433 139.543L192.271 136.572L190.768 137.16L192.323 141.134L195.947 141.212L196.865 145.49L200.752 145.096L200.723 143.476Z" fill="#50BFA5"/>
<path d="M156.284 173.825L153.7 174.087L152.819 169.975L148.994 169.892L147.831 166.922L146.328 167.509L147.883 171.484L151.508 171.561L152.425 175.84L156.313 175.445L156.284 173.825Z" fill="#50BFA5"/>
<path d="M30.8016 85.0149L29.8354 87.4267L25.785 86.2985L23.9362 89.6498L20.7683 89.3011L20.5918 90.9074L24.8294 91.3734L26.5808 88.1956L30.794 89.3696L32.2502 85.7412L30.8016 85.0149Z" fill="#50BFA5"/>
<path d="M37.3075 141.992L36.3413 144.404L32.2908 143.275L30.4421 146.627L27.2742 146.278L27.0977 147.884L31.3353 148.35L33.0866 145.173L37.2999 146.347L38.756 142.718L37.3075 141.992Z" fill="#50BFA5"/>
<path d="M140.28 140.908L139.314 143.32L135.263 142.192L133.415 145.543L130.247 145.194L130.07 146.801L134.308 147.266L136.059 144.089L140.273 145.263L141.729 141.634L140.28 140.908Z" fill="#50BFA5"/>
<path d="M37.6688 58.0397C40.5355 60.7911 40.6314 65.3484 37.8803 68.217C35.1308 71.0856 30.5767 71.1815 27.7101 68.4286C24.8434 65.6772 24.7475 61.12 27.4986 58.2514C30.2481 55.3828 34.8022 55.2884 37.6688 58.0397Z" fill="#FFF3D9"/>
<path d="M37.5102 64.0568L34.4503 64.9977L33.4902 68.0552C33.4126 68.3018 33.0854 68.3536 32.9363 68.1404L31.0952 65.5185L27.8938 65.5489C27.6351 65.552 27.486 65.2566 27.6412 65.0495L29.5645 62.4869L28.5465 59.4493C28.4644 59.2041 28.6987 58.9712 28.9437 59.0549L31.9732 60.0934L34.5462 58.1855C34.7546 58.0317 35.0483 58.1825 35.0437 58.4413L34.992 61.6449L37.6 63.5025C37.81 63.6548 37.7567 63.9806 37.5102 64.0568Z" fill="#FED333"/>
<path d="M225.577 70.0209C228.444 72.7723 228.54 77.3295 225.789 80.1982C223.039 83.0668 218.485 83.1627 215.618 80.4098C212.752 77.6584 212.656 73.1012 215.407 70.2326C218.158 67.3639 222.709 67.2695 225.577 70.0209Z" fill="#FFF3D9"/>
<path d="M225.416 76.0365L222.355 76.9775L221.395 80.0349C221.317 80.2816 220.99 80.3333 220.843 80.1202L219.001 77.4982L215.8 77.5286C215.541 77.5317 215.392 77.2363 215.547 77.0292L217.471 74.4666L216.453 71.429C216.371 71.1839 216.605 70.9509 216.85 71.0346L219.879 72.0731L222.451 70.1652C222.659 70.0114 222.953 70.1622 222.948 70.421L222.897 73.6246L225.505 75.4838C225.718 75.633 225.664 75.9603 225.416 76.0365Z" fill="#FED333"/>
<path d="M120.479 33.1029C123.346 35.8543 123.442 40.4115 120.691 43.2802C117.941 46.1488 113.387 46.2447 110.521 43.4918C107.654 40.7404 107.558 36.1832 110.309 33.3146C113.06 30.4459 117.611 30.3515 120.479 33.1029Z" fill="#FFF3D9"/>
<path d="M120.325 39.1207L117.263 40.0616L116.303 43.1191C116.225 43.3657 115.898 43.4175 115.751 43.2043L113.91 40.5824L110.708 40.6128C110.45 40.6159 110.3 40.3205 110.456 40.1134L112.379 37.5508L111.361 34.5132C111.279 34.268 111.513 34.0351 111.758 34.1188L114.788 35.1573L117.359 33.2494C117.568 33.0956 117.861 33.2464 117.857 33.5052L117.805 36.7088L120.413 38.5679C120.626 38.7172 120.573 39.0445 120.325 39.1207Z" fill="#FED333"/>
<path d="M101.054 161.338C103.92 164.089 104.016 168.646 101.265 171.515C98.5156 174.383 93.9615 174.479 91.0948 171.727C88.2282 168.975 88.1323 164.418 90.8833 161.549C93.6343 158.681 98.1854 158.586 101.054 161.338Z" fill="#FFF3D9"/>
<path d="M100.897 167.355L97.8355 168.296L96.8754 171.354C96.7978 171.6 96.4706 171.652 96.323 171.439L94.4819 168.817L91.2805 168.848C91.0218 168.851 90.8727 168.555 91.0279 168.348L92.9512 165.786L91.9333 162.748C91.8511 162.503 92.0854 162.27 92.3304 162.354L95.3599 163.392L97.9314 161.484C98.1398 161.33 98.4335 161.481 98.4289 161.74L98.3772 164.944L100.985 166.803C101.198 166.952 101.145 167.279 100.897 167.355Z" fill="#FED333"/>
<path d="M193.117 60.9881L194.374 63.0787C194.509 63.3056 194.847 63.2766 194.943 63.0315L195.836 60.7613L198.211 60.2101C198.468 60.1507 198.546 59.8218 198.342 59.6528L196.46 58.1012L196.67 55.6711C196.692 55.4077 196.403 55.2326 196.181 55.3742L194.125 56.6852L191.88 55.7335C191.636 55.63 191.381 55.8508 191.448 56.1066L192.059 58.4682L190.462 60.3106C190.288 60.51 190.419 60.8222 190.682 60.8374L193.117 60.9881Z" fill="#F47458"/>
<path d="M148.933 27.8533L150.19 29.9439C150.325 30.1707 150.663 30.1418 150.759 29.8967L151.652 27.6264L154.027 27.0752C154.285 27.0159 154.362 26.687 154.158 26.518L152.276 24.9664L152.486 22.5363C152.509 22.2729 152.22 22.0978 151.998 22.2394L149.942 23.5504L147.696 22.5987C147.453 22.4952 147.197 22.716 147.264 22.9718L147.876 25.3334L146.278 27.1757C146.104 27.3752 146.235 27.6873 146.499 27.7026L148.933 27.8533Z" fill="#F47458"/>
<path d="M155.564 69.6149L156.821 71.7054C156.956 71.9323 157.294 71.9034 157.39 71.6582L158.283 69.388L160.658 68.8368C160.915 68.7774 160.993 68.4485 160.789 68.2795L158.907 66.728L159.117 64.2979C159.14 64.0344 158.851 63.8593 158.628 64.0009L156.573 65.3119L154.327 64.3603C154.083 64.2567 153.828 64.4775 153.895 64.7333L154.506 67.0949L152.909 68.9373C152.735 69.1368 152.866 69.4489 153.129 69.4641L155.564 69.6149Z" fill="#F47458"/>
<path d="M155.564 157.411L156.821 159.502C156.956 159.729 157.294 159.7 157.39 159.455L158.283 157.184L160.658 156.633C160.915 156.574 160.993 156.245 160.789 156.076L158.907 154.524L159.117 152.094C159.14 151.831 158.851 151.656 158.628 151.797L156.573 153.108L154.327 152.157C154.083 152.053 153.828 152.274 153.895 152.53L154.506 154.891L152.909 156.734C152.735 156.933 152.866 157.245 153.129 157.261L155.564 157.411Z" fill="#F47458"/>
<path d="M188.702 108.869C188.702 109.674 188.05 110.327 187.245 110.327C186.44 110.327 185.787 109.674 185.787 108.869C185.787 108.063 186.44 107.41 187.245 107.41C188.05 107.411 188.702 108.063 188.702 108.869Z" fill="#50BFA5"/>
<path d="M18.1534 64.6646C18.1534 65.4701 17.4474 66.1233 16.5755 66.1233C15.7036 66.1233 14.9961 65.4701 14.9961 64.6646C14.9961 63.8591 15.7021 63.2059 16.5755 63.2059C17.4458 63.2059 18.1534 63.8591 18.1534 64.6646Z" fill="#50BFA5"/>
<path d="M112.669 5.62488L114.581 6.00249C114.581 6.00249 117.378 4.69608 117.591 4.06571C117.804 3.43534 117.707 1.98428 118.116 1.89292C118.525 1.80156 119.344 1.83658 119.657 2.80041C119.884 3.49929 119.094 5.69949 119.284 5.90048C119.405 6.02534 120.497 6.27505 121.299 6.44253C121.826 6.55369 122.247 6.95413 122.39 7.48096V7.48249C122.487 7.83878 122.326 8.21792 122.002 8.3915L121.498 8.661L121.734 9.18631C121.911 9.57762 121.742 10.042 121.357 10.2263L120.964 10.4151L121.136 10.7318C121.358 11.1398 121.18 11.6545 120.757 11.8372L120.413 11.9849L120.439 12.0793C120.55 12.4691 120.348 12.8832 119.975 13.0325L119.631 13.1695L114.537 12.1615C114.059 12.0671 113.607 11.8737 113.207 11.5951L111.476 10.9389C111.29 10.8688 111.184 10.6693 111.226 10.4714L112.194 5.94159C112.244 5.72385 112.454 5.58225 112.669 5.62488Z" fill="#81DB0F"/>
<path d="M123.934 168.519L125.847 168.897C125.847 168.897 128.644 167.59 128.857 166.96C129.07 166.33 128.972 164.879 129.381 164.787C129.791 164.696 130.609 164.731 130.923 165.695C131.15 166.394 130.36 168.594 130.55 168.795C130.67 168.92 131.763 169.169 132.565 169.337C133.091 169.448 133.513 169.849 133.656 170.375V170.377C133.753 170.733 133.592 171.112 133.268 171.286L132.764 171.555L133 172.081C133.176 172.472 133.007 172.936 132.622 173.121L132.23 173.309L132.402 173.626C132.624 174.034 132.446 174.549 132.023 174.732L131.679 174.879L131.705 174.974C131.816 175.364 131.614 175.778 131.241 175.927L130.897 176.064L125.803 175.056C125.325 174.962 124.873 174.768 124.473 174.49L122.741 173.833C122.556 173.763 122.449 173.564 122.492 173.366L123.459 168.836C123.51 168.618 123.72 168.477 123.934 168.519Z" fill="#81DB0F"/>
<defs>
<clipPath id="clip0_14292_10470">
<rect width="32" height="32" fill="white" transform="translate(93.1719 80)"/>
</clipPath>
</defs>
</svg>
