<svg width="36" height="10" viewBox="0 0 36 10" fill="none" xmlns="http://www.w3.org/2000/svg">
<path d="M6.22936 4.38269C6.22064 3.37129 7.08053 2.87972 7.1183 2.85712C6.63025 2.16779 5.87495 2.07173 5.61059 2.06326C4.97729 1.99828 4.36143 2.43335 4.03897 2.43335C3.7107 2.43335 3.21104 2.07173 2.67652 2.08021C1.98802 2.09151 1.3402 2.47855 0.988697 3.08313C0.259536 4.31206 0.802775 6.12014 1.50289 7.11459C1.85439 7.60051 2.2611 8.14576 2.79853 8.12599C3.32143 8.10621 3.51897 7.8011 4.14936 7.8011C4.77685 7.8011 4.95986 8.12599 5.50601 8.11469C6.06958 8.10621 6.42109 7.62594 6.76098 7.13437C7.16478 6.57781 7.32746 6.02691 7.33327 5.99866C7.31874 5.99301 6.24098 5.59184 6.22936 4.38269Z" fill="white"/>
<path d="M5.19641 1.40956C5.47827 1.06772 5.67004 0.601575 5.61774 0.126953C5.21094 0.143904 4.69954 0.400991 4.40606 0.737181C4.14746 1.03382 3.915 1.51692 3.97311 1.97176C4.43221 2.00566 4.90294 1.74575 5.19641 1.40956Z" fill="white"/>
<path d="M13.8196 8.05553H13.0875L12.6867 6.82942H11.2922L10.9117 8.05553H10.2L11.5798 3.88281H12.4339L13.8196 8.05553ZM12.5675 6.31525L12.2044 5.22757C12.1667 5.11457 12.094 4.85466 11.9894 4.44219H11.9749C11.9313 4.62017 11.8645 4.88291 11.7716 5.22757L11.4143 6.31525H12.5675Z" fill="white"/>
<path d="M17.3646 6.51364C17.3646 7.02499 17.2222 7.42899 16.9346 7.72562C16.679 7.99119 16.3594 8.12114 15.9818 8.12114C15.5722 8.12114 15.2788 7.97989 15.0987 7.69455V9.2738H14.4102V6.03337C14.4102 5.71131 14.4015 5.38359 14.384 5.04457H14.9883L15.026 5.52202H15.0377C15.2672 5.16323 15.6158 4.98242 16.0806 4.98242C16.4466 4.98242 16.7487 5.12368 16.9927 5.40337C17.2426 5.68588 17.3646 6.05315 17.3646 6.51364ZM16.6645 6.53624C16.6645 6.24243 16.5977 6.00229 16.4611 5.81301C16.313 5.61525 16.1125 5.51637 15.8627 5.51637C15.6942 5.51637 15.5402 5.57287 15.4008 5.68023C15.2643 5.79041 15.1713 5.93167 15.1306 6.10965C15.1103 6.19158 15.0987 6.25938 15.0987 6.31306V6.81593C15.0987 7.03347 15.1684 7.21993 15.3049 7.36966C15.4415 7.51939 15.6216 7.59567 15.8424 7.59567C16.1009 7.59567 16.3013 7.49679 16.4466 7.30468C16.5919 7.10975 16.6645 6.85548 16.6645 6.53624Z" fill="white"/>
<path d="M20.9215 6.51364C20.9215 7.02499 20.7791 7.42899 20.4915 7.72562C20.2359 7.99119 19.9163 8.12114 19.5387 8.12114C19.1291 8.12114 18.8357 7.97989 18.6556 7.69455V9.2738H17.9671V6.03337C17.9671 5.71131 17.9583 5.38359 17.9409 5.04457H18.5452L18.5829 5.52202H18.5945C18.824 5.16323 19.1726 4.98242 19.6375 4.98242C20.0035 4.98242 20.3056 5.12368 20.5496 5.40337C20.7995 5.68588 20.9215 6.05315 20.9215 6.51364ZM20.2214 6.53624C20.2214 6.24243 20.1545 6.00229 20.018 5.81301C19.8699 5.61525 19.6694 5.51637 19.4196 5.51637C19.2511 5.51637 19.0971 5.57287 18.9577 5.68023C18.8211 5.79041 18.7311 5.93167 18.6875 6.10965C18.6672 6.19158 18.6556 6.25938 18.6556 6.31306V6.81593C18.6556 7.03347 18.7253 7.21993 18.8618 7.36966C18.9983 7.51939 19.1785 7.59567 19.3992 7.59567C19.6578 7.59567 19.8611 7.49679 20.0035 7.30468C20.1516 7.10975 20.2214 6.85548 20.2214 6.53624Z" fill="white"/>
<path d="M24.9015 6.88471C24.9015 7.24067 24.7737 7.52884 24.5209 7.75202C24.2421 7.99498 23.8528 8.11646 23.3531 8.11646C22.8912 8.11646 22.5223 8.02888 22.2434 7.85655L22.4032 7.3C22.7053 7.47233 23.0365 7.55991 23.3967 7.55991C23.6553 7.55991 23.8586 7.50341 24.0009 7.39041C24.1462 7.2774 24.2188 7.12484 24.2188 6.93556C24.2188 6.76605 24.1578 6.62479 24.0416 6.50896C23.9225 6.39313 23.725 6.28578 23.449 6.1869C22.6908 5.91286 22.316 5.51452 22.316 4.99187C22.316 4.65003 22.4497 4.37034 22.714 4.14998C22.9784 3.93245 23.3299 3.82227 23.7685 3.82227C24.1578 3.82227 24.4832 3.88724 24.7417 4.02002L24.5674 4.56245C24.3234 4.43532 24.0503 4.37034 23.7424 4.37034C23.5013 4.37034 23.3096 4.42967 23.173 4.54267C23.0597 4.6472 23.0016 4.77151 23.0016 4.92124C23.0016 5.0851 23.0684 5.22353 23.1992 5.32806C23.3125 5.42694 23.5216 5.53429 23.8237 5.65013C24.1927 5.79421 24.4628 5.96371 24.6371 6.15865C24.8144 6.35358 24.9015 6.59654 24.9015 6.88471Z" fill="white"/>
<path d="M27.1759 5.54841H26.4175V7.009C26.4175 7.37909 26.5511 7.56555 26.8185 7.56555C26.9405 7.56555 27.0422 7.55425 27.1236 7.53447L27.1439 8.043C27.0073 8.09103 26.8301 8.11645 26.6093 8.11645C26.3361 8.11645 26.1269 8.03452 25.9729 7.87349C25.8189 7.71246 25.7434 7.44125 25.7434 7.06268V5.54558H25.293V5.04553H25.7434V4.49463L26.4175 4.29688V5.04553H27.1759V5.54841Z" fill="white"/>
<path d="M30.591 6.52602C30.591 6.98935 30.4544 7.36791 30.1843 7.66455C29.8996 7.96967 29.5219 8.12222 29.0513 8.12222C28.5981 8.12222 28.235 7.97532 27.9648 7.68433C27.6947 7.39334 27.561 7.02325 27.561 6.57688C27.561 6.11073 27.7005 5.72934 27.9765 5.4327C28.2553 5.13606 28.6301 4.98633 29.1007 4.98633C29.5539 4.98633 29.9199 5.13323 30.1959 5.42705C30.4602 5.70956 30.591 6.07683 30.591 6.52602ZM29.8792 6.54015C29.8792 6.26329 29.8182 6.0288 29.6962 5.83104C29.551 5.59091 29.3447 5.47225 29.0775 5.47225C28.8015 5.47225 28.5894 5.59091 28.4471 5.83104C28.3222 6.0288 28.2641 6.26894 28.2641 6.55428C28.2641 6.83114 28.3251 7.06845 28.4471 7.26338C28.5952 7.50352 28.8044 7.62217 29.0716 7.62217C29.3331 7.62217 29.5394 7.50069 29.6904 7.25773C29.8153 7.05432 29.8792 6.81701 29.8792 6.54015Z" fill="white"/>
<path d="M32.8261 5.6322C32.7593 5.6209 32.6867 5.61525 32.6082 5.61525C32.367 5.61525 32.1782 5.70283 32.0474 5.88081C31.9341 6.0362 31.876 6.23678 31.876 6.47409V8.05334H31.1873V5.99099C31.1873 5.6435 31.1815 5.32709 31.167 5.04457H31.7656L31.7917 5.6209H31.8121C31.8847 5.42314 31.998 5.26211 32.1549 5.14345C32.3089 5.0361 32.4746 4.98242 32.6518 4.98242C32.7157 4.98242 32.7738 4.98807 32.8232 4.99372L32.8261 5.6322Z" fill="white"/>
<path d="M35.8958 6.40695C35.8958 6.52561 35.8871 6.62731 35.8697 6.70924H33.8071C33.8158 7.00588 33.9146 7.23471 34.1063 7.3901C34.2806 7.52853 34.5043 7.59916 34.7803 7.59916C35.0853 7.59916 35.3642 7.55113 35.614 7.4579L35.7215 7.92122C35.4281 8.04553 35.0824 8.10768 34.6844 8.10768C34.2051 8.10768 33.8275 7.96925 33.5544 7.69521C33.2813 7.42117 33.1448 7.05108 33.1448 6.59058C33.1448 6.13856 33.2726 5.76 33.5282 5.45771C33.7955 5.13564 34.1557 4.97461 34.6089 4.97461C35.0534 4.97461 35.3933 5.13564 35.6199 5.45771C35.8029 5.71762 35.8958 6.03121 35.8958 6.40695ZM35.2393 6.23462C35.2451 6.03686 35.1986 5.86453 35.1057 5.72044C34.9866 5.53399 34.8035 5.44076 34.5595 5.44076C34.3358 5.44076 34.1528 5.53116 34.0134 5.71197C33.9001 5.85605 33.8304 6.03121 33.81 6.23179L35.2393 6.23462Z" fill="white"/>
<path d="M12.2351 2.38894H11.8747L11.6772 1.78718H10.9914L10.8025 2.38894H10.4539L11.1309 0.337891H11.5493L12.2351 2.38894ZM11.6161 1.53292L11.4389 0.996146C11.4215 0.942469 11.3866 0.812513 11.3314 0.609103H11.3256C11.3023 0.696682 11.2733 0.823813 11.2239 0.996146L11.0495 1.53292H11.6161Z" fill="white"/>
<path d="M13.9313 0.908203L13.356 2.38857H13.0276L12.4697 0.908203H12.8329L13.0915 1.69076C13.1351 1.82072 13.1729 1.94503 13.202 2.06368H13.2107C13.2368 1.95633 13.2746 1.83202 13.3211 1.69076L13.5768 0.908203H13.9313Z" fill="white"/>
<path d="M15.1568 2.38861L15.1306 2.2191H15.1219C15.0173 2.35471 14.8691 2.42251 14.6773 2.42251C14.4042 2.42251 14.2124 2.23605 14.2124 1.98744C14.2124 1.623 14.5378 1.43371 15.1015 1.43371V1.40546C15.1015 1.21053 14.994 1.11447 14.7848 1.11447C14.6337 1.11447 14.503 1.1512 14.3867 1.22465L14.317 1.00994C14.4565 0.925189 14.6337 0.882812 14.84 0.882812C15.2381 0.882812 15.4386 1.08622 15.4386 1.49587V2.04112C15.4386 2.19085 15.4444 2.30668 15.4619 2.39426L15.1568 2.38861ZM15.1103 1.65125C14.7354 1.65125 14.5466 1.73883 14.5466 1.95071C14.5466 2.10609 14.6424 2.18237 14.779 2.18237C14.9505 2.18237 15.1103 2.05524 15.1103 1.88008V1.65125Z" fill="white"/>
<path d="M16.1912 0.666131C16.0779 0.666131 15.9907 0.581377 15.9907 0.468371C15.9907 0.355366 16.0808 0.273438 16.197 0.273438C16.3133 0.273438 16.4062 0.355366 16.4033 0.468371C16.4033 0.587027 16.3162 0.666131 16.1912 0.666131ZM16.0285 0.909092H16.3656V2.38663H16.0285V0.909092Z" fill="white"/>
<path d="M16.9663 0.230469H17.3034V2.38604H16.9663V0.230469Z" fill="white"/>
<path d="M18.7383 2.38948L18.7121 2.21997H18.7034C18.5988 2.35558 18.4506 2.42338 18.2589 2.42338C17.9857 2.42338 17.7939 2.23692 17.7939 1.98831C17.7939 1.62387 18.1194 1.43458 18.6831 1.43458V1.40633C18.6831 1.2114 18.5756 1.11535 18.3664 1.11535C18.2153 1.11535 18.0845 1.15207 17.9683 1.22553L17.8986 1.00799C18.038 0.923236 18.2153 0.880859 18.4216 0.880859C18.8197 0.880859 19.0202 1.08427 19.0202 1.49391V2.03916C19.0202 2.18889 19.026 2.30472 19.0405 2.3923H18.7383V2.38948ZM18.6918 1.65212C18.317 1.65212 18.1281 1.7397 18.1281 1.95158C18.1281 2.10697 18.224 2.18324 18.3606 2.18324C18.532 2.18324 18.6918 2.05611 18.6918 1.88096V1.65212Z" fill="white"/>
<path d="M20.3907 2.42277C20.1756 2.42277 20.0158 2.33519 19.9112 2.16003H19.9054L19.8851 2.38887H19.5974C19.6061 2.27021 19.609 2.13743 19.609 1.99053V0.230469H19.949V1.12604H19.9548C20.0565 0.962178 20.2163 0.880249 20.4401 0.880249C20.8062 0.880249 21.0619 1.18536 21.0619 1.62891C21.0619 2.08658 20.7771 2.42277 20.3907 2.42277ZM20.3209 1.13734C20.1263 1.13734 19.949 1.30119 19.949 1.53003V1.78994C19.949 1.99335 20.1088 2.16003 20.3151 2.16003C20.5679 2.16003 20.719 1.95945 20.719 1.64021C20.719 1.34074 20.5621 1.13734 20.3209 1.13734Z" fill="white"/>
<path d="M21.5623 0.230469H21.8993V2.38604H21.5623V0.230469Z" fill="white"/>
<path d="M23.7394 1.73014H22.7253C22.7312 2.00983 22.9229 2.16804 23.2048 2.16804C23.3559 2.16804 23.4924 2.14261 23.6145 2.09741L23.6668 2.32624C23.5244 2.3884 23.3559 2.41665 23.1583 2.41665C22.6818 2.41665 22.3999 2.12566 22.3999 1.67081C22.3999 1.21879 22.6876 0.876953 23.1205 0.876953C23.507 0.876953 23.754 1.15664 23.754 1.58041C23.754 1.63974 23.7511 1.69059 23.7394 1.73014ZM23.4314 1.49566C23.4314 1.26682 23.3123 1.10579 23.0973 1.10579C22.9026 1.10579 22.7515 1.26965 22.7282 1.49566H23.4314Z" fill="white"/>
<path d="M25.7855 2.42338C25.3409 2.42338 25.0532 2.10132 25.0532 1.66342C25.0532 1.20575 25.3467 0.880859 25.8116 0.880859C26.2504 0.880859 26.5438 1.1888 26.5438 1.63799C26.5438 2.09849 26.2417 2.42338 25.7855 2.42338ZM25.8 1.121C25.5559 1.121 25.399 1.34418 25.399 1.65212C25.399 1.95723 25.5588 2.17759 25.7971 2.17759C26.0354 2.17759 26.1952 1.94028 26.1952 1.64364C26.1923 1.34418 26.0383 1.121 25.8 1.121Z" fill="white"/>
<path d="M28.3618 2.3884H28.0248V1.53803C28.0248 1.2753 27.9202 1.14534 27.7168 1.14534C27.5163 1.14534 27.3797 1.31202 27.3797 1.50696V2.38557H27.0426V1.3318C27.0426 1.20184 27.0397 1.06059 27.031 0.90803H27.3274L27.3419 1.13687H27.3506C27.4407 0.978658 27.6267 0.876953 27.833 0.876953C28.1526 0.876953 28.3618 1.11426 28.3618 1.50131V2.3884Z" fill="white"/>
<path d="M30.5703 1.15885H30.1983V1.87643C30.1983 2.06006 30.2652 2.15047 30.3959 2.15047C30.4541 2.15047 30.5064 2.14482 30.547 2.13634L30.5557 2.38495C30.4889 2.41038 30.4017 2.42168 30.2942 2.42168C30.0269 2.42168 29.87 2.2776 29.87 1.90468V1.15885H29.6492V0.913061H29.87V0.641848L30.2013 0.542969V0.910236H30.5732V1.15885" fill="white"/>
<path d="M32.3578 2.38887H32.0207V1.54415C32.0207 1.27859 31.9161 1.14581 31.7127 1.14581C31.5384 1.14581 31.3756 1.26164 31.3756 1.49613V2.38604H31.0386V0.230469H31.3756V1.11756H31.3814C31.489 0.956527 31.6401 0.877424 31.8376 0.877424C32.1602 0.877424 32.3578 1.12038 32.3578 1.50743V2.38887Z" fill="white"/>
<path d="M34.0832 1.73014H33.0691C33.0749 2.00983 33.2667 2.16804 33.5485 2.16804C33.6996 2.16804 33.8362 2.14261 33.9582 2.09741L34.0105 2.32624C33.8682 2.3884 33.6996 2.41665 33.502 2.41665C33.0255 2.41665 32.7437 2.12566 32.7437 1.67081C32.7437 1.21879 33.0313 0.876953 33.4643 0.876953C33.8507 0.876953 34.0977 1.15664 34.0977 1.58041C34.0977 1.63974 34.0948 1.69059 34.0832 1.73014ZM33.7752 1.49566C33.7752 1.26682 33.656 1.10579 33.441 1.10579C33.2463 1.10579 33.0923 1.26965 33.072 1.49566H33.7752Z" fill="white"/>
</svg>
