<svg width="54" height="20" viewBox="0 0 54 20" fill="none" xmlns="http://www.w3.org/2000/svg">
<rect x="0.678223" y="0.478516" width="52.5842" height="18.5957" rx="4.27457" fill="#3F2355"/>
<path d="M15.2294 9.38269C15.2206 8.37129 16.0805 7.87972 16.1183 7.85712C15.6303 7.16779 14.8749 7.07173 14.6106 7.06326C13.9773 6.99828 13.3614 7.43335 13.039 7.43335C12.7107 7.43335 12.211 7.07173 11.6765 7.08021C10.988 7.09151 10.3402 7.47855 9.9887 8.08313C9.25954 9.31206 9.80278 11.1201 10.5029 12.1146C10.8544 12.6005 11.2611 13.1458 11.7985 13.126C12.3214 13.1062 12.519 12.8011 13.1494 12.8011C13.7768 12.8011 13.9599 13.126 14.506 13.1147C15.0696 13.1062 15.4211 12.6259 15.761 12.1344C16.1648 11.5778 16.3275 11.0269 16.3333 10.9987C16.3187 10.993 15.241 10.5918 15.2294 9.38269Z" fill="white"/>
<path d="M14.1964 6.40956C14.4783 6.06772 14.67 5.60157 14.6177 5.12695C14.2109 5.1439 13.6995 5.40099 13.4061 5.73718C13.1475 6.03382 12.915 6.51692 12.9731 6.97176C13.4322 7.00566 13.9029 6.74575 14.1964 6.40956Z" fill="white"/>
<path d="M22.8196 13.0555H22.0875L21.6867 11.8294H20.2922L19.9117 13.0555H19.2L20.5798 8.88281H21.4339L22.8196 13.0555ZM21.5675 11.3152L21.2044 10.2276C21.1667 10.1146 21.094 9.85466 20.9894 9.44219H20.9749C20.9313 9.62017 20.8645 9.88291 20.7716 10.2276L20.4143 11.3152H21.5675Z" fill="white"/>
<path d="M26.3646 11.5136C26.3646 12.025 26.2222 12.429 25.9346 12.7256C25.679 12.9912 25.3594 13.1211 24.9818 13.1211C24.5722 13.1211 24.2788 12.9799 24.0987 12.6945V14.2738H23.4102V11.0334C23.4102 10.7113 23.4015 10.3836 23.384 10.0446H23.9883L24.026 10.522H24.0377C24.2672 10.1632 24.6158 9.98242 25.0806 9.98242C25.4466 9.98242 25.7487 10.1237 25.9927 10.4034C26.2426 10.6859 26.3646 11.0531 26.3646 11.5136ZM25.6645 11.5362C25.6645 11.2424 25.5977 11.0023 25.4611 10.813C25.313 10.6153 25.1125 10.5164 24.8627 10.5164C24.6942 10.5164 24.5402 10.5729 24.4008 10.6802C24.2643 10.7904 24.1713 10.9317 24.1306 11.1096C24.1103 11.1916 24.0987 11.2594 24.0987 11.3131V11.8159C24.0987 12.0335 24.1684 12.2199 24.3049 12.3697C24.4415 12.5194 24.6216 12.5957 24.8424 12.5957C25.1009 12.5957 25.3013 12.4968 25.4466 12.3047C25.5919 12.1097 25.6645 11.8555 25.6645 11.5362Z" fill="white"/>
<path d="M29.9215 11.5136C29.9215 12.025 29.7791 12.429 29.4915 12.7256C29.2359 12.9912 28.9163 13.1211 28.5387 13.1211C28.1291 13.1211 27.8357 12.9799 27.6556 12.6945V14.2738H26.9671V11.0334C26.9671 10.7113 26.9583 10.3836 26.9409 10.0446H27.5452L27.5829 10.522H27.5945C27.824 10.1632 28.1726 9.98242 28.6375 9.98242C29.0035 9.98242 29.3056 10.1237 29.5496 10.4034C29.7995 10.6859 29.9215 11.0531 29.9215 11.5136ZM29.2214 11.5362C29.2214 11.2424 29.1545 11.0023 29.018 10.813C28.8699 10.6153 28.6694 10.5164 28.4196 10.5164C28.2511 10.5164 28.0971 10.5729 27.9577 10.6802C27.8211 10.7904 27.7311 10.9317 27.6875 11.1096C27.6672 11.1916 27.6556 11.2594 27.6556 11.3131V11.8159C27.6556 12.0335 27.7253 12.2199 27.8618 12.3697C27.9983 12.5194 28.1785 12.5957 28.3992 12.5957C28.6578 12.5957 28.8611 12.4968 29.0035 12.3047C29.1516 12.1097 29.2214 11.8555 29.2214 11.5362Z" fill="white"/>
<path d="M33.9015 11.8847C33.9015 12.2407 33.7737 12.5288 33.5209 12.752C33.2421 12.995 32.8528 13.1165 32.3531 13.1165C31.8912 13.1165 31.5223 13.0289 31.2434 12.8566L31.4032 12.3C31.7053 12.4723 32.0365 12.5599 32.3967 12.5599C32.6553 12.5599 32.8586 12.5034 33.0009 12.3904C33.1462 12.2774 33.2188 12.1248 33.2188 11.9356C33.2188 11.7661 33.1578 11.6248 33.0416 11.509C32.9225 11.3931 32.725 11.2858 32.449 11.1869C31.6908 10.9129 31.316 10.5145 31.316 9.99187C31.316 9.65003 31.4497 9.37034 31.714 9.14998C31.9784 8.93245 32.3299 8.82227 32.7685 8.82227C33.1578 8.82227 33.4832 8.88724 33.7417 9.02002L33.5674 9.56245C33.3234 9.43532 33.0503 9.37034 32.7424 9.37034C32.5013 9.37034 32.3096 9.42967 32.173 9.54267C32.0597 9.6472 32.0016 9.77151 32.0016 9.92124C32.0016 10.0851 32.0684 10.2235 32.1992 10.3281C32.3125 10.4269 32.5216 10.5343 32.8237 10.6501C33.1927 10.7942 33.4628 10.9637 33.6371 11.1586C33.8144 11.3536 33.9015 11.5965 33.9015 11.8847Z" fill="white"/>
<path d="M36.1759 10.5484H35.4175V12.009C35.4175 12.3791 35.5511 12.5656 35.8185 12.5656C35.9405 12.5656 36.0422 12.5543 36.1236 12.5345L36.1439 13.043C36.0073 13.091 35.8301 13.1165 35.6093 13.1165C35.3361 13.1165 35.1269 13.0345 34.9729 12.8735C34.8189 12.7125 34.7434 12.4412 34.7434 12.0627V10.5456H34.293V10.0455H34.7434V9.49463L35.4175 9.29688V10.0455H36.1759V10.5484Z" fill="white"/>
<path d="M39.591 11.526C39.591 11.9893 39.4544 12.3679 39.1843 12.6646C38.8996 12.9697 38.5219 13.1222 38.0513 13.1222C37.5981 13.1222 37.235 12.9753 36.9648 12.6843C36.6947 12.3933 36.561 12.0232 36.561 11.5769C36.561 11.1107 36.7005 10.7293 36.9765 10.4327C37.2553 10.1361 37.6301 9.98633 38.1007 9.98633C38.5539 9.98633 38.9199 10.1332 39.1959 10.427C39.4602 10.7096 39.591 11.0768 39.591 11.526ZM38.8792 11.5401C38.8792 11.2633 38.8182 11.0288 38.6962 10.831C38.551 10.5909 38.3447 10.4723 38.0775 10.4723C37.8015 10.4723 37.5894 10.5909 37.4471 10.831C37.3222 11.0288 37.2641 11.2689 37.2641 11.5543C37.2641 11.8311 37.3251 12.0684 37.4471 12.2634C37.5952 12.5035 37.8044 12.6222 38.0716 12.6222C38.3331 12.6222 38.5394 12.5007 38.6904 12.2577C38.8153 12.0543 38.8792 11.817 38.8792 11.5401Z" fill="white"/>
<path d="M41.8261 10.6322C41.7593 10.6209 41.6867 10.6153 41.6082 10.6153C41.367 10.6153 41.1782 10.7028 41.0474 10.8808C40.9341 11.0362 40.876 11.2368 40.876 11.4741V13.0533H40.1873V10.991C40.1873 10.6435 40.1815 10.3271 40.167 10.0446H40.7656L40.7917 10.6209H40.8121C40.8847 10.4231 40.998 10.2621 41.1549 10.1435C41.3089 10.0361 41.4746 9.98242 41.6518 9.98242C41.7157 9.98242 41.7738 9.98807 41.8232 9.99372L41.8261 10.6322Z" fill="white"/>
<path d="M44.8958 11.407C44.8958 11.5256 44.8871 11.6273 44.8697 11.7092H42.8071C42.8158 12.0059 42.9146 12.2347 43.1063 12.3901C43.2806 12.5285 43.5043 12.5992 43.7803 12.5992C44.0853 12.5992 44.3642 12.5511 44.614 12.4579L44.7215 12.9212C44.4281 13.0455 44.0824 13.1077 43.6844 13.1077C43.2051 13.1077 42.8275 12.9692 42.5544 12.6952C42.2813 12.4212 42.1448 12.0511 42.1448 11.5906C42.1448 11.1386 42.2726 10.76 42.5282 10.4577C42.7955 10.1356 43.1557 9.97461 43.6089 9.97461C44.0534 9.97461 44.3933 10.1356 44.6199 10.4577C44.8029 10.7176 44.8958 11.0312 44.8958 11.407ZM44.2393 11.2346C44.2451 11.0369 44.1986 10.8645 44.1057 10.7204C43.9866 10.534 43.8035 10.4408 43.5595 10.4408C43.3358 10.4408 43.1528 10.5312 43.0134 10.712C42.9001 10.8561 42.8304 11.0312 42.81 11.2318L44.2393 11.2346Z" fill="white"/>
<path d="M21.2351 7.38894H20.8747L20.6772 6.78718H19.9914L19.8025 7.38894H19.4539L20.1309 5.33789H20.5493L21.2351 7.38894ZM20.6161 6.53292L20.4389 5.99615C20.4215 5.94247 20.3866 5.81251 20.3314 5.6091H20.3256C20.3023 5.69668 20.2733 5.82381 20.2239 5.99615L20.0495 6.53292H20.6161Z" fill="white"/>
<path d="M22.9313 5.9082L22.356 7.38857H22.0276L21.4697 5.9082H21.8329L22.0915 6.69076C22.1351 6.82072 22.1729 6.94503 22.202 7.06368H22.2107C22.2368 6.95633 22.2746 6.83202 22.3211 6.69076L22.5768 5.9082H22.9313Z" fill="white"/>
<path d="M24.1568 7.38861L24.1306 7.2191H24.1219C24.0173 7.35471 23.8691 7.42251 23.6773 7.42251C23.4042 7.42251 23.2124 7.23605 23.2124 6.98744C23.2124 6.623 23.5378 6.43371 24.1015 6.43371V6.40546C24.1015 6.21053 23.994 6.11447 23.7848 6.11447C23.6337 6.11447 23.503 6.1512 23.3867 6.22465L23.317 6.00994C23.4565 5.92519 23.6337 5.88281 23.84 5.88281C24.2381 5.88281 24.4386 6.08622 24.4386 6.49587V7.04112C24.4386 7.19085 24.4444 7.30668 24.4619 7.39426L24.1568 7.38861ZM24.1103 6.65125C23.7354 6.65125 23.5466 6.73883 23.5466 6.95071C23.5466 7.10609 23.6424 7.18237 23.779 7.18237C23.9505 7.18237 24.1103 7.05524 24.1103 6.88008V6.65125Z" fill="white"/>
<path d="M25.1912 5.66613C25.0779 5.66613 24.9907 5.58138 24.9907 5.46837C24.9907 5.35537 25.0808 5.27344 25.197 5.27344C25.3133 5.27344 25.4062 5.35537 25.4033 5.46837C25.4033 5.58703 25.3162 5.66613 25.1912 5.66613ZM25.0285 5.90909H25.3656V7.38663H25.0285V5.90909Z" fill="white"/>
<path d="M25.9663 5.23047H26.3034V7.38604H25.9663V5.23047Z" fill="white"/>
<path d="M27.7383 7.38948L27.7121 7.21997H27.7034C27.5988 7.35558 27.4506 7.42338 27.2589 7.42338C26.9857 7.42338 26.7939 7.23692 26.7939 6.98831C26.7939 6.62387 27.1194 6.43458 27.6831 6.43458V6.40633C27.6831 6.2114 27.5756 6.11535 27.3664 6.11535C27.2153 6.11535 27.0845 6.15207 26.9683 6.22553L26.8986 6.00799C27.038 5.92324 27.2153 5.88086 27.4216 5.88086C27.8197 5.88086 28.0202 6.08427 28.0202 6.49391V7.03916C28.0202 7.18889 28.026 7.30472 28.0405 7.3923H27.7383V7.38948ZM27.6918 6.65212C27.317 6.65212 27.1281 6.7397 27.1281 6.95158C27.1281 7.10697 27.224 7.18324 27.3606 7.18324C27.532 7.18324 27.6918 7.05611 27.6918 6.88096V6.65212Z" fill="white"/>
<path d="M29.3907 7.42277C29.1756 7.42277 29.0158 7.33519 28.9112 7.16003H28.9054L28.8851 7.38887H28.5974C28.6061 7.27021 28.609 7.13743 28.609 6.99053V5.23047H28.949V6.12604H28.9548C29.0565 5.96218 29.2163 5.88025 29.4401 5.88025C29.8062 5.88025 30.0619 6.18536 30.0619 6.62891C30.0619 7.08658 29.7771 7.42277 29.3907 7.42277ZM29.3209 6.13734C29.1263 6.13734 28.949 6.30119 28.949 6.53003V6.78994C28.949 6.99335 29.1088 7.16003 29.3151 7.16003C29.5679 7.16003 29.719 6.95945 29.719 6.64021C29.719 6.34074 29.5621 6.13734 29.3209 6.13734Z" fill="white"/>
<path d="M30.5623 5.23047H30.8993V7.38604H30.5623V5.23047Z" fill="white"/>
<path d="M32.7394 6.73014H31.7253C31.7312 7.00983 31.9229 7.16804 32.2048 7.16804C32.3559 7.16804 32.4924 7.14261 32.6145 7.09741L32.6668 7.32624C32.5244 7.3884 32.3559 7.41665 32.1583 7.41665C31.6818 7.41665 31.3999 7.12566 31.3999 6.67081C31.3999 6.21879 31.6876 5.87695 32.1205 5.87695C32.507 5.87695 32.754 6.15664 32.754 6.58041C32.754 6.63974 32.7511 6.69059 32.7394 6.73014ZM32.4314 6.49566C32.4314 6.26682 32.3123 6.10579 32.0973 6.10579C31.9026 6.10579 31.7515 6.26965 31.7282 6.49566H32.4314Z" fill="white"/>
<path d="M34.7855 7.42338C34.3409 7.42338 34.0532 7.10132 34.0532 6.66342C34.0532 6.20575 34.3467 5.88086 34.8116 5.88086C35.2504 5.88086 35.5438 6.1888 35.5438 6.63799C35.5438 7.09849 35.2417 7.42338 34.7855 7.42338ZM34.8 6.121C34.5559 6.121 34.399 6.34418 34.399 6.65212C34.399 6.95723 34.5588 7.17759 34.7971 7.17759C35.0354 7.17759 35.1952 6.94028 35.1952 6.64364C35.1923 6.34418 35.0383 6.121 34.8 6.121Z" fill="white"/>
<path d="M37.3618 7.3884H37.0248V6.53803C37.0248 6.2753 36.9202 6.14534 36.7168 6.14534C36.5163 6.14534 36.3797 6.31202 36.3797 6.50696V7.38557H36.0426V6.3318C36.0426 6.20184 36.0397 6.06059 36.031 5.90803H36.3274L36.3419 6.13687H36.3506C36.4407 5.97866 36.6267 5.87695 36.833 5.87695C37.1526 5.87695 37.3618 6.11426 37.3618 6.50131V7.3884Z" fill="white"/>
<path d="M39.5703 6.15885H39.1983V6.87643C39.1983 7.06006 39.2652 7.15047 39.3959 7.15047C39.4541 7.15047 39.5064 7.14482 39.547 7.13634L39.5557 7.38495C39.4889 7.41038 39.4017 7.42168 39.2942 7.42168C39.0269 7.42168 38.87 7.2776 38.87 6.90468V6.15885H38.6492V5.91306H38.87V5.64185L39.2013 5.54297V5.91024H39.5732V6.15885" fill="white"/>
<path d="M41.3578 7.38887H41.0207V6.54415C41.0207 6.27859 40.9161 6.14581 40.7127 6.14581C40.5384 6.14581 40.3756 6.26164 40.3756 6.49613V7.38604H40.0386V5.23047H40.3756V6.11756H40.3814C40.489 5.95653 40.6401 5.87742 40.8376 5.87742C41.1602 5.87742 41.3578 6.12038 41.3578 6.50743V7.38887Z" fill="white"/>
<path d="M43.0832 6.73014H42.0691C42.0749 7.00983 42.2667 7.16804 42.5485 7.16804C42.6996 7.16804 42.8362 7.14261 42.9582 7.09741L43.0105 7.32624C42.8682 7.3884 42.6996 7.41665 42.502 7.41665C42.0255 7.41665 41.7437 7.12566 41.7437 6.67081C41.7437 6.21879 42.0313 5.87695 42.4643 5.87695C42.8507 5.87695 43.0977 6.15664 43.0977 6.58041C43.0977 6.63974 43.0948 6.69059 43.0832 6.73014ZM42.7752 6.49566C42.7752 6.26682 42.656 6.10579 42.441 6.10579C42.2463 6.10579 42.0923 6.26965 42.072 6.49566H42.7752Z" fill="white"/>
</svg>
