<svg width="57" height="20" viewBox="0 0 57 20" fill="none" xmlns="http://www.w3.org/2000/svg">
<rect x="0.131104" y="0.478516" width="56.767" height="18.7935" rx="4.27457" fill="#3F2355"/>
<path d="M25.7449 6.9501C25.7449 7.25003 25.6679 7.51247 25.4754 7.69993C25.2444 7.92487 24.9749 8.03735 24.6284 8.03735C24.2819 8.03735 24.0123 7.92487 23.7813 7.69993C23.5503 7.47498 23.4348 7.21254 23.4348 6.87512C23.4348 6.5377 23.5503 6.27526 23.7813 6.05031C24.0123 5.82536 24.2819 5.71289 24.6284 5.71289C24.7824 5.71289 24.9364 5.75038 25.0904 5.82536C25.2444 5.90035 25.3599 5.97533 25.4369 6.0878L25.2444 6.27526C25.0904 6.0878 24.8979 6.01282 24.6284 6.01282C24.3974 6.01282 24.1663 6.0878 24.0123 6.27526C23.8198 6.42522 23.7428 6.65017 23.7428 6.91261C23.7428 7.17505 23.8198 7.4 24.0123 7.54996C24.2049 7.69993 24.3974 7.8124 24.6284 7.8124C24.8979 7.8124 25.0904 7.73742 25.2829 7.54996C25.3984 7.43749 25.4754 7.28752 25.4754 7.10007H24.6284V6.80014H25.7449V6.9501ZM27.516 6.01282H26.4765V6.72515H27.439V6.98759H26.4765V7.69993H27.516V7.99986H26.1684V5.75038H27.516V6.01282ZM28.7866 7.99986H28.4785V6.01282H27.824V5.75038H29.4411V6.01282H28.7866V7.99986ZM30.5576 7.99986V5.75038H30.8657V7.99986H30.5576ZM32.1747 7.99986H31.8667V6.01282H31.2122V5.75038H32.7907V6.01282H32.1362V7.99986H32.1747ZM35.8324 7.69993C35.6014 7.92487 35.3319 8.03735 34.9854 8.03735C34.6388 8.03735 34.3693 7.92487 34.1383 7.69993C33.9073 7.47498 33.7918 7.21254 33.7918 6.87512C33.7918 6.5377 33.9073 6.27526 34.1383 6.05031C34.3693 5.82536 34.6388 5.71289 34.9854 5.71289C35.3319 5.71289 35.6014 5.82536 35.8324 6.05031C36.0634 6.27526 36.1789 6.5377 36.1789 6.87512C36.1789 7.21254 36.0634 7.47498 35.8324 7.69993ZM34.3693 7.51247C34.5233 7.66243 34.7543 7.77491 34.9854 7.77491C35.2164 7.77491 35.4474 7.69993 35.6014 7.51247C35.7554 7.3625 35.8709 7.13756 35.8709 6.87512C35.8709 6.61268 35.7939 6.38773 35.6014 6.23777C35.4474 6.0878 35.2164 5.97533 34.9854 5.97533C34.7543 5.97533 34.5233 6.05031 34.3693 6.23777C34.2153 6.38773 34.0998 6.61268 34.0998 6.87512C34.0998 7.13756 34.1768 7.3625 34.3693 7.51247ZM36.6024 7.99986V5.75038H36.9489L38.0655 7.51247V5.75038H38.3735V7.99986H38.0655L36.8719 6.16279V7.99986H36.6024Z" fill="white" stroke="white" stroke-width="0.158487" stroke-miterlimit="10"/>
<path d="M31.2538 11.0702C30.5588 11.0702 30.0085 11.5654 30.0085 12.2531C30.0085 12.9133 30.5588 13.436 31.2538 13.436C31.9488 13.436 32.499 12.9408 32.499 12.2531C32.499 11.5379 31.9488 11.0702 31.2538 11.0702ZM31.2538 12.9408C30.8773 12.9408 30.5588 12.6382 30.5588 12.2256C30.5588 11.813 30.8773 11.5104 31.2538 11.5104C31.6303 11.5104 31.9488 11.7855 31.9488 12.2256C31.9488 12.6382 31.6303 12.9408 31.2538 12.9408ZM28.5606 11.0702C27.8656 11.0702 27.3153 11.5654 27.3153 12.2531C27.3153 12.9133 27.8656 13.436 28.5606 13.436C29.2556 13.436 29.8058 12.9408 29.8058 12.2531C29.8058 11.5379 29.2556 11.0702 28.5606 11.0702ZM28.5606 12.9408C28.1841 12.9408 27.8656 12.6382 27.8656 12.2256C27.8656 11.813 28.1841 11.5104 28.5606 11.5104C28.9371 11.5104 29.2556 11.7855 29.2556 12.2256C29.2556 12.6382 28.9371 12.9408 28.5606 12.9408ZM25.3461 11.4278V11.923H26.5914C26.5624 12.1981 26.4466 12.4181 26.3018 12.5557C26.128 12.7207 25.8384 12.9133 25.3461 12.9133C24.5642 12.9133 23.985 12.3356 23.985 11.5929C23.985 10.8502 24.5932 10.2725 25.3461 10.2725C25.7515 10.2725 26.0701 10.4375 26.3018 10.6301L26.6782 10.2725C26.3597 9.99741 25.9543 9.77734 25.3751 9.77734C24.3325 9.77734 23.4348 10.6026 23.4348 11.5929C23.4348 12.5832 24.3325 13.4084 25.3751 13.4084C25.9543 13.4084 26.3597 13.2434 26.7072 12.8858C27.0547 12.5557 27.1705 12.088 27.1705 11.7304C27.1705 11.6204 27.1705 11.5104 27.1416 11.4278H25.3461ZM38.4936 11.813C38.3777 11.5379 38.0882 11.0702 37.4511 11.0702C36.814 11.0702 36.2927 11.5379 36.2927 12.2531C36.2927 12.9133 36.814 13.436 37.509 13.436C38.0592 13.436 38.4067 13.1059 38.5225 12.9133L38.1171 12.6382C37.9723 12.8308 37.7986 12.9683 37.509 12.9683C37.2194 12.9683 37.0456 12.8583 36.9008 12.6107L38.5515 11.9505L38.4936 11.813ZM36.814 12.1981C36.814 11.7579 37.1904 11.5104 37.4511 11.5104C37.6538 11.5104 37.8565 11.6204 37.9144 11.7579L36.814 12.1981ZM35.4529 13.3259H36.0031V9.88738H35.4529V13.3259ZM34.5841 11.3178C34.4393 11.1803 34.2076 11.0427 33.918 11.0427C33.3099 11.0427 32.7307 11.5654 32.7307 12.2256C32.7307 12.8858 33.2809 13.3809 33.918 13.3809C34.2076 13.3809 34.4393 13.2434 34.5551 13.1059H34.5841V13.2709C34.5841 13.711 34.3235 13.9586 33.918 13.9586C33.5995 13.9586 33.3678 13.7385 33.3099 13.546L32.8465 13.7385C32.9913 14.0411 33.3389 14.4263 33.947 14.4263C34.5841 14.4263 35.1054 14.0686 35.1054 13.2159V11.1253H34.5841V11.3178ZM33.947 12.9408C33.5705 12.9408 33.252 12.6382 33.252 12.2256C33.252 11.813 33.5705 11.5104 33.947 11.5104C34.3235 11.5104 34.6131 11.813 34.6131 12.2256C34.6131 12.6382 34.3235 12.9408 33.947 12.9408ZM41.013 9.88738H39.7099V13.3259H40.2601V12.033H41.013C41.6212 12.033 42.2004 11.6204 42.2004 10.9602C42.2004 10.3 41.6212 9.88738 41.013 9.88738ZM41.042 11.5379H40.2601V10.355H41.042C41.4474 10.355 41.6791 10.6851 41.6791 10.9327C41.6501 11.2353 41.4185 11.5379 41.042 11.5379ZM44.3723 11.0427C43.9669 11.0427 43.5614 11.2078 43.4166 11.5654L43.909 11.7579C44.0248 11.5654 44.1985 11.5104 44.4013 11.5104C44.6908 11.5104 44.9515 11.6754 44.9804 11.9505V11.978C44.8936 11.923 44.6619 11.8405 44.4302 11.8405C43.9089 11.8405 43.3877 12.1156 43.3877 12.6107C43.3877 13.0783 43.8221 13.3809 44.2854 13.3809C44.6619 13.3809 44.8356 13.2159 44.9804 13.0508H45.0094V13.3259H45.5307V12.0055C45.4727 11.4003 44.9804 11.0427 44.3723 11.0427ZM44.3144 12.9408C44.1406 12.9408 43.88 12.8583 43.88 12.6382C43.88 12.3631 44.1985 12.2806 44.4592 12.2806C44.6908 12.2806 44.8067 12.3356 44.9515 12.3906C44.8936 12.7207 44.604 12.9408 44.3144 12.9408ZM47.3551 11.1253L46.7469 12.6107H46.718L46.0809 11.1253H45.5017L46.4574 13.2159L45.9071 14.3712H46.4574L47.9343 11.1253H47.3551ZM42.49 13.3259H43.0402V9.88738H42.49V13.3259Z" fill="white"/>
<path d="M9.26976 4.69922C9.13903 4.82635 9.09546 5.03823 9.09546 5.2925V14.6578C9.09546 14.9121 9.18261 15.124 9.31334 15.2511L9.35691 15.2935L14.7603 10.0387V9.95396L9.26976 4.69922Z" fill="url(#paint0_linear)"/>
<path d="M16.5041 11.8188L14.7175 10.0814V9.95425L16.5041 8.2168L16.5477 8.25917L18.6829 9.44573C19.2929 9.78475 19.2929 10.3356 18.6829 10.6747L16.5041 11.8188Z" fill="url(#paint1_linear)"/>
<path d="M16.5491 11.7759L14.7189 9.99609L9.27197 15.2932C9.48985 15.5051 9.79488 15.5051 10.1871 15.3356L16.5491 11.7759Z" fill="url(#paint2_linear)"/>
<path d="M16.5483 8.21519L10.1863 4.6979C9.79414 4.48601 9.48912 4.52839 9.27124 4.74027L14.7182 9.99502L16.5483 8.21519Z" fill="url(#paint3_linear)"/>
<path opacity="0.2" d="M16.5055 11.7305L10.1871 15.2054C9.83845 15.4173 9.53343 15.3749 9.31555 15.2054L9.27197 15.2478L9.31555 15.2901C9.53343 15.4596 9.83845 15.502 10.1871 15.2901L16.5055 11.7305Z" fill="white"/>
<path opacity="0.2" d="M9.26976 15.2085C9.13903 15.0813 9.09546 14.8694 9.09546 14.6152V14.6576C9.09546 14.9118 9.18261 15.1237 9.31334 15.2508V15.2085H9.26976ZM18.682 10.547L16.5033 11.7336L16.5469 11.7759L18.682 10.5894C18.9871 10.4199 19.1178 10.208 19.1178 9.99609C19.1178 10.208 18.9435 10.3775 18.682 10.547Z" fill="white"/>
<path opacity="0.2" d="M10.1848 4.74072L18.682 9.44456C18.9435 9.61407 19.1178 9.78358 19.1178 9.99546C19.1178 9.78358 18.9871 9.57169 18.682 9.40218L10.1848 4.69834C9.57479 4.35932 9.09546 4.61358 9.09546 5.29162V5.33399C9.09546 4.69834 9.57479 4.4017 10.1848 4.74072Z" fill="white"/>
<defs>
<linearGradient id="paint0_linear" x1="14.2374" y1="5.21198" x2="7.12798" y2="12.522" gradientUnits="userSpaceOnUse">
<stop stop-color="#00A0FF"/>
<stop offset="0.007" stop-color="#00A1FF"/>
<stop offset="0.26" stop-color="#00BEFF"/>
<stop offset="0.512" stop-color="#00D2FF"/>
<stop offset="0.76" stop-color="#00DFFF"/>
<stop offset="1" stop-color="#00E3FF"/>
</linearGradient>
<linearGradient id="paint1_linear" x1="19.4821" y1="9.99705" x2="8.93813" y2="9.99705" gradientUnits="userSpaceOnUse">
<stop stop-color="#FFE000"/>
<stop offset="0.409" stop-color="#FFBD00"/>
<stop offset="0.775" stop-color="#FFA500"/>
<stop offset="1" stop-color="#FF9C00"/>
</linearGradient>
<linearGradient id="paint2_linear" x1="15.5586" y1="10.9691" x2="5.91819" y2="20.8821" gradientUnits="userSpaceOnUse">
<stop stop-color="#FF3A44"/>
<stop offset="1" stop-color="#C31162"/>
</linearGradient>
<linearGradient id="paint3_linear" x1="7.9191" y1="1.59421" x2="12.2242" y2="6.02105" gradientUnits="userSpaceOnUse">
<stop stop-color="#32A071"/>
<stop offset="0.069" stop-color="#2DA771"/>
<stop offset="0.476" stop-color="#15CF74"/>
<stop offset="0.801" stop-color="#06E775"/>
<stop offset="1" stop-color="#00F076"/>
</linearGradient>
</defs>
</svg>
