<svg width="39" height="12" viewBox="0 0 39 12" fill="none" xmlns="http://www.w3.org/2000/svg">
<path d="M16.7449 2.9501C16.7449 3.25003 16.6679 3.51247 16.4754 3.69993C16.2444 3.92487 15.9749 4.03735 15.6284 4.03735C15.2819 4.03735 15.0123 3.92487 14.7813 3.69993C14.5503 3.47498 14.4348 3.21254 14.4348 2.87512C14.4348 2.5377 14.5503 2.27526 14.7813 2.05031C15.0123 1.82536 15.2819 1.71289 15.6284 1.71289C15.7824 1.71289 15.9364 1.75038 16.0904 1.82536C16.2444 1.90035 16.3599 1.97533 16.4369 2.0878L16.2444 2.27526C16.0904 2.0878 15.8979 2.01282 15.6284 2.01282C15.3974 2.01282 15.1663 2.0878 15.0123 2.27526C14.8198 2.42522 14.7428 2.65017 14.7428 2.91261C14.7428 3.17505 14.8198 3.4 15.0123 3.54996C15.2049 3.69993 15.3974 3.8124 15.6284 3.8124C15.8979 3.8124 16.0904 3.73742 16.2829 3.54996C16.3984 3.43749 16.4754 3.28752 16.4754 3.10007H15.6284V2.80014H16.7449V2.9501ZM18.516 2.01282H17.4765V2.72515H18.439V2.98759H17.4765V3.69993H18.516V3.99986H17.1684V1.75038H18.516V2.01282ZM19.7866 3.99986H19.4785V2.01282H18.824V1.75038H20.4411V2.01282H19.7866V3.99986ZM21.5576 3.99986V1.75038H21.8657V3.99986H21.5576ZM23.1747 3.99986H22.8667V2.01282H22.2122V1.75038H23.7907V2.01282H23.1362V3.99986H23.1747ZM26.8324 3.69993C26.6014 3.92487 26.3319 4.03735 25.9854 4.03735C25.6388 4.03735 25.3693 3.92487 25.1383 3.69993C24.9073 3.47498 24.7918 3.21254 24.7918 2.87512C24.7918 2.5377 24.9073 2.27526 25.1383 2.05031C25.3693 1.82536 25.6388 1.71289 25.9854 1.71289C26.3319 1.71289 26.6014 1.82536 26.8324 2.05031C27.0634 2.27526 27.1789 2.5377 27.1789 2.87512C27.1789 3.21254 27.0634 3.47498 26.8324 3.69993ZM25.3693 3.51247C25.5233 3.66243 25.7543 3.77491 25.9854 3.77491C26.2164 3.77491 26.4474 3.69993 26.6014 3.51247C26.7554 3.3625 26.8709 3.13756 26.8709 2.87512C26.8709 2.61268 26.7939 2.38773 26.6014 2.23777C26.4474 2.0878 26.2164 1.97533 25.9854 1.97533C25.7543 1.97533 25.5233 2.05031 25.3693 2.23777C25.2153 2.38773 25.0998 2.61268 25.0998 2.87512C25.0998 3.13756 25.1768 3.3625 25.3693 3.51247ZM27.6024 3.99986V1.75038H27.9489L29.0655 3.51247V1.75038H29.3735V3.99986H29.0655L27.8719 2.16279V3.99986H27.6024Z" fill="white" stroke="white" stroke-width="0.158487" stroke-miterlimit="10"/>
<path d="M22.2538 7.07024C21.5588 7.07024 21.0085 7.56539 21.0085 8.2531C21.0085 8.9133 21.5588 9.43596 22.2538 9.43596C22.9488 9.43596 23.499 8.94081 23.499 8.2531C23.499 7.53788 22.9488 7.07024 22.2538 7.07024ZM22.2538 8.94081C21.8773 8.94081 21.5588 8.63821 21.5588 8.22559C21.5588 7.81296 21.8773 7.51037 22.2538 7.51037C22.6303 7.51037 22.9488 7.78545 22.9488 8.22559C22.9488 8.63821 22.6303 8.94081 22.2538 8.94081ZM19.5606 7.07024C18.8656 7.07024 18.3153 7.56539 18.3153 8.2531C18.3153 8.9133 18.8656 9.43596 19.5606 9.43596C20.2556 9.43596 20.8058 8.94081 20.8058 8.2531C20.8058 7.53788 20.2556 7.07024 19.5606 7.07024ZM19.5606 8.94081C19.1841 8.94081 18.8656 8.63821 18.8656 8.22559C18.8656 7.81296 19.1841 7.51037 19.5606 7.51037C19.9371 7.51037 20.2556 7.78545 20.2556 8.22559C20.2556 8.63821 19.9371 8.94081 19.5606 8.94081ZM16.3461 7.42785V7.923H17.5914C17.5624 8.19808 17.4466 8.41815 17.3018 8.55569C17.128 8.72074 16.8384 8.9133 16.3461 8.9133C15.5642 8.9133 14.985 8.33562 14.985 7.5929C14.985 6.85017 15.5932 6.27249 16.3461 6.27249C16.7515 6.27249 17.0701 6.43754 17.3018 6.6301L17.6782 6.27249C17.3597 5.99741 16.9543 5.77734 16.3751 5.77734C15.3325 5.77734 14.4348 6.60259 14.4348 7.5929C14.4348 8.5832 15.3325 9.40845 16.3751 9.40845C16.9543 9.40845 17.3597 9.2434 17.7072 8.88579C18.0547 8.55569 18.1705 8.08805 18.1705 7.73044C18.1705 7.6204 18.1705 7.51037 18.1416 7.42785H16.3461ZM29.4936 7.81296C29.3777 7.53788 29.0882 7.07024 28.4511 7.07024C27.814 7.07024 27.2927 7.53788 27.2927 8.2531C27.2927 8.9133 27.814 9.43596 28.509 9.43596C29.0592 9.43596 29.4067 9.10586 29.5225 8.9133L29.1171 8.63821C28.9723 8.83077 28.7986 8.96831 28.509 8.96831C28.2194 8.96831 28.0456 8.85828 27.9008 8.61071L29.5515 7.9505L29.4936 7.81296ZM27.814 8.19808C27.814 7.75795 28.1904 7.51037 28.4511 7.51037C28.6538 7.51037 28.8565 7.6204 28.9144 7.75795L27.814 8.19808ZM26.4529 9.32592H27.0031V5.88738H26.4529V9.32592ZM25.5841 7.31781C25.4393 7.18027 25.2076 7.04273 24.918 7.04273C24.3099 7.04273 23.7307 7.56539 23.7307 8.22559C23.7307 8.88579 24.2809 9.38094 24.918 9.38094C25.2076 9.38094 25.4393 9.2434 25.5551 9.10586H25.5841V9.27091C25.5841 9.71104 25.3235 9.95862 24.918 9.95862C24.5995 9.95862 24.3678 9.73855 24.3099 9.54599L23.8465 9.73855C23.9913 10.0411 24.3389 10.4263 24.947 10.4263C25.5841 10.4263 26.1054 10.0686 26.1054 9.21589V7.12525H25.5841V7.31781ZM24.947 8.94081C24.5705 8.94081 24.252 8.63821 24.252 8.22559C24.252 7.81296 24.5705 7.51037 24.947 7.51037C25.3235 7.51037 25.6131 7.81296 25.6131 8.22559C25.6131 8.63821 25.3235 8.94081 24.947 8.94081ZM32.013 5.88738H30.7099V9.32592H31.2601V8.03303H32.013C32.6212 8.03303 33.2004 7.6204 33.2004 6.9602C33.2004 6.3 32.6212 5.88738 32.013 5.88738ZM32.042 7.53788H31.2601V6.35502H32.042C32.4474 6.35502 32.6791 6.68512 32.6791 6.93269C32.6501 7.23529 32.4185 7.53788 32.042 7.53788ZM35.3723 7.04273C34.9669 7.04273 34.5614 7.20778 34.4166 7.56539L34.909 7.75795C35.0248 7.56539 35.1985 7.51037 35.4013 7.51037C35.6908 7.51037 35.9515 7.67542 35.9804 7.9505V7.97801C35.8936 7.923 35.6619 7.84047 35.4302 7.84047C34.9089 7.84047 34.3877 8.11555 34.3877 8.61071C34.3877 9.07835 34.8221 9.38094 35.2854 9.38094C35.6619 9.38094 35.8356 9.21589 35.9804 9.05084H36.0094V9.32592H36.5307V8.00552C36.4727 7.40034 35.9804 7.04273 35.3723 7.04273ZM35.3144 8.94081C35.1406 8.94081 34.88 8.85828 34.88 8.63821C34.88 8.36313 35.1985 8.28061 35.4592 8.28061C35.6908 8.28061 35.8067 8.33562 35.9515 8.39064C35.8936 8.72074 35.604 8.94081 35.3144 8.94081ZM38.3551 7.12525L37.7469 8.61071H37.718L37.0809 7.12525H36.5017L37.4574 9.21589L36.9071 10.3712H37.4574L38.9343 7.12525H38.3551ZM33.49 9.32592H34.0402V5.88738H33.49V9.32592Z" fill="white"/>
<path d="M0.26976 0.699219C0.139034 0.82635 0.095459 1.03823 0.095459 1.2925V10.6578C0.095459 10.9121 0.18261 11.124 0.313336 11.2511L0.356911 11.2935L5.76026 6.03872V5.95396L0.26976 0.699219Z" fill="url(#paint0_linear)"/>
<path d="M7.50412 7.81884L5.71753 6.08138V5.95425L7.50412 4.2168L7.5477 4.25917L9.68289 5.44573C10.2929 5.78475 10.2929 6.33565 9.68289 6.67466L7.50412 7.81884Z" fill="url(#paint1_linear)"/>
<path d="M7.54906 7.77593L5.71889 5.99609L0.271973 11.2932C0.48985 11.5051 0.794877 11.5051 1.18706 11.3356L7.54906 7.77593Z" fill="url(#paint2_linear)"/>
<path d="M7.54833 4.21519L1.18632 0.697898C0.794145 0.486013 0.489117 0.52839 0.27124 0.740275L5.71816 5.99502L7.54833 4.21519Z" fill="url(#paint3_linear)"/>
<path opacity="0.2" d="M7.50549 7.73047L1.18706 11.2054C0.838453 11.4173 0.533425 11.3749 0.315548 11.2054L0.271973 11.2478L0.315548 11.2901C0.533425 11.4596 0.838453 11.502 1.18706 11.2901L7.50549 7.73047Z" fill="white"/>
<path opacity="0.2" d="M0.26976 11.2085C0.139034 11.0813 0.095459 10.8694 0.095459 10.6152V10.6576C0.095459 10.9118 0.18261 11.1237 0.313336 11.2508V11.2085H0.26976ZM9.68204 6.54699L7.50327 7.73355L7.54685 7.77593L9.68204 6.58937C9.98707 6.41986 10.1178 6.20798 10.1178 5.99609C10.1178 6.20798 9.9435 6.37749 9.68204 6.54699Z" fill="white"/>
<path opacity="0.2" d="M1.18484 0.740715L9.68204 5.44456C9.9435 5.61407 10.1178 5.78358 10.1178 5.99546C10.1178 5.78358 9.98707 5.57169 9.68204 5.40218L1.18484 0.698338C0.574788 0.359322 0.095459 0.613584 0.095459 1.29162V1.33399C0.095459 0.698338 0.574788 0.401699 1.18484 0.740715Z" fill="white"/>
<defs>
<linearGradient id="paint0_linear" x1="5.23735" y1="1.21198" x2="-1.87202" y2="8.52197" gradientUnits="userSpaceOnUse">
<stop stop-color="#00A0FF"/>
<stop offset="0.007" stop-color="#00A1FF"/>
<stop offset="0.26" stop-color="#00BEFF"/>
<stop offset="0.512" stop-color="#00D2FF"/>
<stop offset="0.76" stop-color="#00DFFF"/>
<stop offset="1" stop-color="#00E3FF"/>
</linearGradient>
<linearGradient id="paint1_linear" x1="10.4821" y1="5.99705" x2="-0.0618727" y2="5.99705" gradientUnits="userSpaceOnUse">
<stop stop-color="#FFE000"/>
<stop offset="0.409" stop-color="#FFBD00"/>
<stop offset="0.775" stop-color="#FFA500"/>
<stop offset="1" stop-color="#FF9C00"/>
</linearGradient>
<linearGradient id="paint2_linear" x1="6.55859" y1="6.96907" x2="-3.08181" y2="16.8821" gradientUnits="userSpaceOnUse">
<stop stop-color="#FF3A44"/>
<stop offset="1" stop-color="#C31162"/>
</linearGradient>
<linearGradient id="paint3_linear" x1="-1.0809" y1="-2.40579" x2="3.22419" y2="2.02105" gradientUnits="userSpaceOnUse">
<stop stop-color="#32A071"/>
<stop offset="0.069" stop-color="#2DA771"/>
<stop offset="0.476" stop-color="#15CF74"/>
<stop offset="0.801" stop-color="#06E775"/>
<stop offset="1" stop-color="#00F076"/>
</linearGradient>
</defs>
</svg>
