<svg width="10" height="9" viewBox="0 0 10 9" fill="none" xmlns="http://www.w3.org/2000/svg">
<path d="M8.01917 1.89258H1.60732C1.46561 1.89258 1.3297 1.94887 1.2295 2.04908C1.12929 2.14928 1.073 2.28519 1.073 2.4269V6.70147C1.073 6.84318 1.12929 6.97908 1.2295 7.07929C1.3297 7.17949 1.46561 7.23579 1.60732 7.23579H8.01917C8.16088 7.23579 8.29679 7.17949 8.39699 7.07929C8.4972 6.97908 8.55349 6.84318 8.55349 6.70147V2.4269C8.55349 2.28519 8.4972 2.14928 8.39699 2.04908C8.29679 1.94887 8.16088 1.89258 8.01917 1.89258ZM7.43142 2.4269L4.81324 4.23825L2.19507 2.4269H7.43142ZM1.60732 6.70147V2.67002L4.66096 4.78325C4.70568 4.81428 4.75882 4.8309 4.81324 4.8309C4.86767 4.8309 4.9208 4.81428 4.96553 4.78325L8.01917 2.67002V6.70147H1.60732Z" fill="#3F2355"/>
</svg>
