<svg width="5" height="7" viewBox="0 0 5 7" fill="none" xmlns="http://www.w3.org/2000/svg">
<path d="M1.25363 0.357422C0.814151 0.357422 0.452148 0.719424 0.452148 1.1589V5.96779C0.452148 6.40727 0.814151 6.76927 1.25363 6.76927H3.92523C4.36471 6.76927 4.72672 6.40727 4.72672 5.96779V1.1589C4.72672 0.719424 4.36471 0.357422 3.92523 0.357422H1.25363ZM1.25363 0.891743H3.92523C4.07351 0.891743 4.1924 1.01063 4.1924 1.1589V5.96779C4.1924 6.11607 4.07351 6.23495 3.92523 6.23495H1.25363C1.10536 6.23495 0.986469 6.11607 0.986469 5.96779V1.1589C0.986469 1.01063 1.10536 0.891743 1.25363 0.891743ZM2.58943 5.43347C2.51858 5.43347 2.45062 5.46162 2.40052 5.51172C2.35042 5.56182 2.32227 5.62978 2.32227 5.70063C2.32227 5.77149 2.35042 5.83944 2.40052 5.88954C2.45062 5.93965 2.51858 5.96779 2.58943 5.96779C2.66029 5.96779 2.72824 5.93965 2.77834 5.88954C2.82845 5.83944 2.85659 5.77149 2.85659 5.70063C2.85659 5.62978 2.82845 5.56182 2.77834 5.51172C2.72824 5.46162 2.66029 5.43347 2.58943 5.43347Z" fill="#3F2355"/>
</svg>
