<svg id="Layer_1" data-name="Layer 1" xmlns="http://www.w3.org/2000/svg" viewBox="0 0 736.92 383.86"><defs><style>.cls-1{fill:#dedfe0;}.cls-2{fill:#fff;}.cls-3{fill:#3f2355;}</style></defs><ellipse class="cls-1" cx="423.82" cy="320.07" rx="162.1" ry="7.85"/><path class="cls-2" d="M579,124.92c-3.33-.45-6.77-.9-10.27-1.35h9.77Z"/><polygon class="cls-2" points="578.26 103.07 578.26 121.84 568.6 121.84 568.6 99.74 578.26 103.07"/><path class="cls-2" d="M582.76,83.52V97.16a5.37,5.37,0,0,0-4.37,4.12l-9.11-3.14Z"/><rect class="cls-2" x="404.04" y="262.37" width="36.08" height="17.74"/><path class="cls-2" d="M524.33,229.55A25.42,25.42,0,1,1,498.91,255,25.45,25.45,0,0,1,524.33,229.55ZM538.19,255a13.86,13.86,0,1,0-13.86,13.84A13.88,13.88,0,0,0,538.19,255Z"/><path class="cls-2" d="M596.64,209.11v30.42l-13.13,3.61a52.48,52.48,0,0,0-1.27-5.12,2.27,2.27,0,0,0-1.28-1.41l-2-.86,1.08-2a2.27,2.27,0,0,0,.1-1.92,60.64,60.64,0,0,0-4.2-8.21,2.25,2.25,0,0,0-1.61-1.06l-2.22-.31.51-2.16a2.25,2.25,0,0,0-.39-1.88,59,59,0,0,0-6.16-6.86,2.25,2.25,0,0,0-1.83-.61L562,211l0-2.22a2.25,2.25,0,0,0-.88-1.72,62.52,62.52,0,0,0-7.71-5.05,2.26,2.26,0,0,0-2-.12l-2.09.85-.64-2.14a2.26,2.26,0,0,0-1.28-1.42,56.15,56.15,0,0,0-8.73-2.88,2.23,2.23,0,0,0-1.9.39L535,198.09l-1.17-1.88a2.23,2.23,0,0,0-1.57-1,52.87,52.87,0,0,0-7.9-.55c-.48,0-1,0-1.49,0a2.27,2.27,0,0,0-1.62.87l-1.34,1.74-1.6-1.51a2.24,2.24,0,0,0-1.82-.59,52.55,52.55,0,0,0-9.08,1.9,2.23,2.23,0,0,0-1.41,1.27l-.87,2.06-2-1.07a2.22,2.22,0,0,0-1.9-.1,54.9,54.9,0,0,0-8.23,4.18,2.26,2.26,0,0,0-1.06,1.61l-.3,2.21-2.17-.51a2.27,2.27,0,0,0-1.88.4,58.8,58.8,0,0,0-6.87,6.2,2.27,2.27,0,0,0-.6,1.82l.28,2.19-2.22.07a2.28,2.28,0,0,0-1.7.85,59.36,59.36,0,0,0-5.06,7.7,2.23,2.23,0,0,0-.13,2l.86,2.09-2.16.64a2.27,2.27,0,0,0-1.44,1.3,60,60,0,0,0-2.85,8.72,2.21,2.21,0,0,0,.4,1.89l1.36,1.8-1.87,1.16a2.27,2.27,0,0,0-1,1.58c0,.32-.09.64-.12,1H458.6l-7.87-11.18,26.06-57h37.79a2.25,2.25,0,0,0,4.14,0h59.79l15.6,26.45a.41.41,0,0,0,.1.13Z"/><polygon class="cls-2" points="656.06 207.87 656.06 228.75 606.05 243.78 601.14 240.13 601.14 198.07 648.02 198.07 656.06 207.87"/><path class="cls-2" d="M584.49,130.21c9.67,1.39,18.35,2.81,25.51,4.26l.19,0A40.47,40.47,0,0,1,646,174.72v18.86h-47.1a2.24,2.24,0,0,0-2.25,2.24v10.73l-1.09-1.22-15.8-26.8a.88.88,0,0,0-.75-.42H566.8l17.63-45.43a.77.77,0,0,0,.06-.3Z"/><polygon class="cls-2" points="567 154.26 563.01 164 514.28 164 511.22 154.26 567 154.26"/><polygon class="cls-2" points="570.97 144.59 567.7 152.53 510.68 152.53 508.18 144.59 570.97 144.59"/><polygon class="cls-2" points="573.36 138.74 571.67 142.86 507.63 142.86 503.94 131.11 573.36 138.74"/><path class="cls-2" d="M582.76,130v2.25L565,178.11H518.72l-3.89-12.39h48.76a.86.86,0,0,0,.8-.54l4.69-11.45,4-9.67,2.35-5.72a.85.85,0,0,0-.06-.76.89.89,0,0,0-.65-.43l-71.31-7.84-2.72-8.65c21.65,2.13,44.33,4.48,64.59,7C571.33,128.41,577.2,129.19,582.76,130Z"/><path class="cls-2" d="M495.37,118.85,499,130.53l4.34,13.78,3.05,9.67,3.6,11.47,4,12.66H476.23a.84.84,0,0,0-.78.51l-25.87,56.6-.65-.92a2.17,2.17,0,0,0-.62-.59l11-59.42a.87.87,0,0,0-.18-.71,1,1,0,0,0-.67-.31l-9.72,0V125.86l9.62-10a2.55,2.55,0,0,0,.23-.24l10.33-10.74H491l4.34,13.78A1.39,1.39,0,0,0,495.37,118.85Z"/><polygon class="cls-2" points="447.14 207.01 443.19 227.97 405.36 227.97 405.36 207.01 447.14 207.01"/><polygon class="cls-2" points="442.13 234.11 438.39 256.27 405.36 256.27 405.36 234.11 442.13 234.11"/><rect class="cls-2" x="377.78" y="237.3" width="16.68" height="12.12"/><rect class="cls-2" x="377.78" y="223.29" width="16.68" height="12.28"/><rect class="cls-2" x="377.78" y="210.28" width="16.68" height="11.27"/><path class="cls-2" d="M394.45,179.87v28.68H377.78v-7.49a2.25,2.25,0,0,0-2.25-2.25H367.9a17.21,17.21,0,0,1-17.18-17.18V148.26h2.18a2.26,2.26,0,0,0,1.21,1.22V179a.86.86,0,0,0,.86.87h39.48Z"/><polygon class="cls-2" points="450.31 182.89 446.96 200.19 405.36 200.19 405.36 182.89 450.31 182.89"/><polygon class="cls-2" points="440.11 141.25 440.11 168.54 406.11 168.54 406.11 155.26 440.11 141.25"/><path class="cls-2" d="M385.05,147.8v30.34H355.84V149.47a2.23,2.23,0,0,0,1.21-1.22l24.13-.07C382.49,148.07,383.78,147.93,385.05,147.8Z"/><path class="cls-2" d="M441.84,169.4V140a.85.85,0,0,0-.39-.72.89.89,0,0,0-.81-.08l-35.72,14.72a.87.87,0,0,0-.53.8V169.4a.85.85,0,0,0,.86.86H441A.86.86,0,0,0,441.84,169.4ZM441,260.64H396.19V179a.87.87,0,0,0-.86-.86h-8.55V147.6c35.79-4.24,53.67-16,53.17-35.11-.24-9.12-1.35-32.51-1.57-36.94h10.14v38.06a2.25,2.25,0,0,0,2,2.24L452,116l-7.13,7.42a2.23,2.23,0,0,0-.63,1.55v48.37l-49.89.18a.88.88,0,0,0-.87.87.86.86,0,0,0,.87.86h0l50.06-.18a2.25,2.25,0,0,0,4.16,0l8.85,0-10.8,58.39a2.39,2.39,0,0,0-.82.36,2.23,2.23,0,0,0-.54,3.13l.56.81-4.24,22.95ZM404.5,232.39a.86.86,0,0,0-.87.86v23.89a.87.87,0,0,0,.87.86h34.62a.87.87,0,0,0,.85-.72l4-23.89a.87.87,0,0,0-.86-1Zm0-2.69h39.41a.86.86,0,0,0,.84-.7L449,206.31a.82.82,0,0,0-.18-.71.84.84,0,0,0-.66-.32H404.5a.87.87,0,0,0-.87.86v22.69A.87.87,0,0,0,404.5,229.7Zm47.71-47.52a.87.87,0,0,0-.19-.71.89.89,0,0,0-.67-.31H404.5a.87.87,0,0,0-.87.86v19a.87.87,0,0,0,.87.86h43.18a.87.87,0,0,0,.84-.7Z"/><path class="cls-2" d="M448.52,68.28v5.91H438a.79.79,0,0,0-.56-.18.78.78,0,0,0-.47.18H386.44a.87.87,0,0,0-.53-.18.91.91,0,0,0-.53.18H371.12l1.12-5.91Z"/><path class="cls-2" d="M438.23,112.54c.46,18-16.85,29.2-51.45,33.32V75.55h49.86C436.85,79.74,438,103.37,438.23,112.54Z"/><path class="cls-2" d="M385.05,75.55v70.5c-1.29.15-2.62.28-4,.41l-23.66.06,13.43-71Z"/><path class="cls-2" d="M282.07,230.6a26.54,26.54,0,1,1-26.54,26.54A26.57,26.57,0,0,1,282.07,230.6Zm14.48,26.54a14.49,14.49,0,1,0-14.48,14.48A14.5,14.5,0,0,0,296.55,257.14Z"/><path class="cls-2" d="M275.68,195.36a2.27,2.27,0,0,0-1.82-.6l-.38.06v0a1,1,0,0,0,.42-.2,227.53,227.53,0,0,1,19.6-14.88c6.64-4.32,17.07-13,22.43-17.6l-2.73,16h-9.25a.87.87,0,0,0,0,1.73h9.31a2.25,2.25,0,0,0,4.15,0h3.34l30.37,31.72V225.8a.87.87,0,1,0,1.73,0V211.21a.85.85,0,0,0-.24-.6l-30.87-32.24a.84.84,0,0,0-.62-.26h-3.35L321,158.87l4.65-27.23h20.54v50A21.7,21.7,0,0,0,367.9,203.3h5.38v56H345c0-.69,0-1.41,0-2.12,0-.51,0-1.05,0-1.55a2.26,2.26,0,0,0-.86-1.62l-1.91-1.47,1.65-1.75a2.22,2.22,0,0,0,.59-1.82,55.94,55.94,0,0,0-2-9.47,2.2,2.2,0,0,0-1.27-1.41l-2.23-.94,1.18-2.17a2.29,2.29,0,0,0,.09-1.93,61.8,61.8,0,0,0-4.38-8.56,2.23,2.23,0,0,0-1.61-1.06l-2.42-.34.56-2.37a2.23,2.23,0,0,0-.4-1.88,63,63,0,0,0-6.42-7.15,2.26,2.26,0,0,0-1.83-.61l-2.41.3-.06-2.42a2.28,2.28,0,0,0-.88-1.72,64.6,64.6,0,0,0-8.05-5.27,2.22,2.22,0,0,0-1.93-.12l-2.3.94-.7-2.34a2.24,2.24,0,0,0-1.27-1.42,59.29,59.29,0,0,0-9.11-3,2.22,2.22,0,0,0-1.9.39l-2,1.49-1.27-2.05a2.23,2.23,0,0,0-1.58-1,54.41,54.41,0,0,0-8.22-.57c-.51,0-1.05,0-1.55,0a2.28,2.28,0,0,0-1.62.86L277.42,197Z"/><polygon class="cls-2" points="218 156.95 218 162.61 214.08 162.61 214.02 162.61 214.02 156.48 218 156.48 218 156.95"/><rect class="cls-2" x="219.72" y="157.81" width="18.82" height="4.4"/><path class="cls-2" d="M259.84,154.26h28.64c-5.81,3.17-12.24,6.48-19.18,9.74h-29v-9.74Z"/><path class="cls-2" d="M307.64,139.77V143c-4.44,2.79-9.84,6-16,9.52H269.37A22.22,22.22,0,0,0,286,136a9.54,9.54,0,0,1,9.32-7.37h1.24A11.14,11.14,0,0,1,307.64,139.77Z"/><path class="cls-2" d="M208.91,203.89a2.33,2.33,0,1,1-2.32,2.33A2.34,2.34,0,0,1,208.91,203.89Z"/><path class="cls-2" d="M214.09,209.58c-.52.85-1,1.71-1.51,2.59h-3.67v-1.89a4.05,4.05,0,0,0,3.37-1.79Z"/><path class="cls-2" d="M207.35,212.17a5.95,5.95,0,0,1,0-11.89h1.56v1.88a4.06,4.06,0,0,0,0,8.12v1.89Z"/><path class="cls-2" d="M214.08,200.28h6.23a106.73,106.73,0,0,0-6.22,9.3l-1.81-1.09a4,4,0,0,0,.7-2.27,4.08,4.08,0,0,0-4.07-4.06v-1.88Z"/><path class="cls-2" d="M199.12,218.06a31.07,31.07,0,0,1-2.67-17.72c1.6-11.1,4.45-30.62,5.69-36.69,1.36-6.72,7.88-7.24,10.15-7.21v7a.87.87,0,0,0,.87.86h.06v34.22h-5.87a7.67,7.67,0,1,0,0,15.33h4.27a136,136,0,0,0-7.2,15.43Z"/><path class="cls-2" d="M273.48,194.82a55.12,55.12,0,0,0-9.1,1.93A2.26,2.26,0,0,0,263,198l-.94,2.23-2.18-1.16A2.2,2.2,0,0,0,258,199a56,56,0,0,0-8.6,4.36,2.21,2.21,0,0,0-1,1.6l-.34,2.41-2.37-.55a2.22,2.22,0,0,0-1.88.4,60.53,60.53,0,0,0-7.17,6.47,2.24,2.24,0,0,0-.59,1.82l.3,2.38-2.43.08a2.29,2.29,0,0,0-1.69.87,59.93,59.93,0,0,0-5.29,8,2.26,2.26,0,0,0-.12,1.95l.93,2.28-2.37.71a2.26,2.26,0,0,0-1.43,1.29,62.67,62.67,0,0,0-3,9.09,2.26,2.26,0,0,0,.39,1.9l1.51,2-2.06,1.27a2.25,2.25,0,0,0-1,1.58,54.71,54.71,0,0,0-.55,6.49,68.65,68.65,0,0,0-6.49,10.73c-3.59,7.59-10.35,12.2-17.51,17.09-1.1.75-2.2,1.5-3.29,2.26-.78.55-1.58,1.14-2.41,1.78l-2.53-5.57v-4.46a2.21,2.21,0,0,0,.86-.63c9.08-10.75,12.21-20.34,15.84-31.43,1.15-3.52,2.35-7.17,3.81-11.14l0-.05a130.38,130.38,0,0,1,9.14-19.75,107.67,107.67,0,0,1,8.53-12.85,95,95,0,0,1,37.59-29.45q5.75-2.52,11.11-5.11c8.13-3.9,15.53-7.84,22-11.52,5.16-2.92,9.73-5.67,13.61-8.1,4.26-2.67,7.7-4.95,10.16-6.63l-3.22,18.87c-4.59,3.95-16.55,14.06-23.83,18.81a231.65,231.65,0,0,0-19.78,15,.86.86,0,0,0-.09,1.21.85.85,0,0,0,.66.31h.14Z"/><path class="cls-2" d="M185.2,250.65v22l-.86,1a2.2,2.2,0,0,0-.5,1.19l-15.87-35C176.43,242.59,183.77,249.29,185.2,250.65Z"/><path class="cls-2" d="M147.1,221.78H132.92a2.5,2.5,0,0,0-.47.05c-3.29-4.48-6.34-6.15-7.63-6.7v-2.52h.37C138.3,212.61,144.53,218.32,147.1,221.78Z"/><path class="cls-2" d="M103.94,307.16v.54H77.74v-2.41l11.47-7.8h1a2.27,2.27,0,0,0,1,1.28,2.17,2.17,0,0,0,1.09.29,2.24,2.24,0,0,0,2-1.15l.24-.42h3.87l4.09,6.05a2.27,2.27,0,0,0-.48,1.39A2.25,2.25,0,0,0,103.94,307.16Z"/><path class="cls-2" d="M140.32,226.27l-36,76.41h-.1a2.52,2.52,0,0,0-.63.09l-4.28-6.35a.7.7,0,0,0-.57-.3H95.26l39-69.85Z"/><path class="cls-2" d="M185.2,288.77v2c-5.54,4.75-10.88,10.06-12.73,11.94H106.23l36-76.41h14.6L163,239.74Z"/><path class="cls-3" d="M599.53,209.73a.86.86,0,1,1-1.28,1.16l-1.61-1.78v-2.56Z"/><path class="cls-3" d="M584.43,132.68,566.8,178.11H565l17.8-45.89V130l1.73.24v2.17A.77.77,0,0,1,584.43,132.68Z"/><path class="cls-3" d="M584.14,247.1c0,.17,0,.34,0,.52l-3,.81a2,2,0,0,1-.59.08,2.23,2.23,0,0,1-1.88-1l.83-.88c-.1-.71-.21-1.41-.35-2.11a2.1,2.1,0,0,1,.8-.41l3.53-1C583.76,244.42,584,245.75,584.14,247.1Z"/><path class="cls-3" d="M581.17,248.43l3-.81a2.31,2.31,0,0,1-.61,1.31L582,250.52l1.75,1.35a2.29,2.29,0,0,1,.87,1.62c0,.48,0,1,0,1.49a52.78,52.78,0,0,1-.56,7.89,1.05,1.05,0,0,1-.06.24l-2.15-.58h0l-2.09-1.35a50.18,50.18,0,0,0,.37-6.2v-.21l-2.87-2.22a2.25,2.25,0,0,1-.25-3.32l1.63-1.73a2.23,2.23,0,0,0,1.88,1A2,2,0,0,0,581.17,248.43Z"/><path class="cls-3" d="M583.62,127a.86.86,0,0,1,.87.86v2.39l-1.73-.24v-2.15a.88.88,0,0,1,0-.17A.86.86,0,0,1,583.62,127Z"/><path class="cls-3" d="M601.14,198.07v42.06l4.91,3.66,50-15V207.87l-8-9.8Zm-19.41-70.51a.78.78,0,0,0-.05-.42l-.73-2c11.4,1.57,21.6,3.2,29.85,4.87a45,45,0,0,1,39.68,44.67v19.34a2.81,2.81,0,0,1,.35.34L660,205.64a2.25,2.25,0,0,1,.51,1.43v23.35a2.24,2.24,0,0,1-1.6,2.15l-52.7,15.85a2.2,2.2,0,0,1-2-.36l-5.84-4.36-14.28,3.92c0-.18,0-.35,0-.52-.17-1.35-.38-2.68-.63-4l13.13-3.61V209.11l1.61,1.78a.86.86,0,1,0,1.28-1.16l-2.89-3.18V195.82a2.24,2.24,0,0,1,2.25-2.24H646V174.72a40.47,40.47,0,0,0-35.8-40.21l-.19,0c-7.16-1.45-15.84-2.87-25.51-4.26v-2.39a.86.86,0,0,0-1.71-.17Z"/><path class="cls-3" d="M580.06,127.73l-1-2.81,1.93.26.73,2a.78.78,0,0,1,.05.42.84.84,0,0,1-.55.68.85.85,0,0,1-.31.06A.88.88,0,0,1,580.06,127.73Z"/><path class="cls-3" d="M580,122.58l1,2.6-1.93-.26-.5-1.35h.6a.87.87,0,0,0,.87-.86Z"/><path class="cls-1" d="M580.19,254.77V255a50.18,50.18,0,0,1-.37,6.2l-3.07,1.91a2.24,2.24,0,0,0-1,1.51,2.29,2.29,0,0,0,.42,1.77l2.22,2.89a57.83,57.83,0,0,1-2,6.05l-3.5,1.06a2.24,2.24,0,0,0-1.38,1.17,2.33,2.33,0,0,0-.06,1.83l1.38,3.37a50.6,50.6,0,0,1-3.52,5.35l-3.63.12a2.25,2.25,0,0,0-2.15,2.53l.45,3.57a47.35,47.35,0,0,1-4.78,4.3l-3.51-.83a2.22,2.22,0,0,0-2.74,1.87l-.5,3.6a52.67,52.67,0,0,1-5.7,2.9l-3.23-1.73a2.28,2.28,0,0,0-1.81-.13,2.26,2.26,0,0,0-1.32,1.25l-1.4,3.33a50.06,50.06,0,0,1-6.28,1.31l-2.62-2.47a2.24,2.24,0,0,0-3.32.26l-2.22,2.85h0a49,49,0,0,1-6.36-.35l-1.9-3.08a2.26,2.26,0,0,0-3.28-.61L510,309a52.89,52.89,0,0,1-6.05-2l-1.05-3.49a2.21,2.21,0,0,0-1.19-1.38,2.16,2.16,0,0,0-1.81-.05l-3.38,1.37a60.28,60.28,0,0,1-5.37-3.52l-.09-3.61a2.25,2.25,0,0,0-2.54-2.16l-3.56.45a53.94,53.94,0,0,1-4.3-4.78l.83-3.51a2.23,2.23,0,0,0-1.88-2.74l-3.59-.51a51.16,51.16,0,0,1-2.91-5.7l1.73-3.22a2.24,2.24,0,0,0,.13-1.81,2.2,2.2,0,0,0-1.25-1.32l-3.33-1.41a48,48,0,0,1-1.3-6.28l2.47-2.62a2.23,2.23,0,0,0,.6-1.71,2.2,2.2,0,0,0-.86-1.6l-2.86-2.22V255c0-1.09,0-2.13.09-3.14a2.25,2.25,0,0,0,.62-1.55,2.33,2.33,0,0,0-.38-1.25l0-.27,3.08-1.91a2.24,2.24,0,0,0,.6-3.27l-2.21-2.91a56.24,56.24,0,0,1,2-6.05l3.5-1a2.25,2.25,0,0,0,1.44-3l-1.38-3.37a51.65,51.65,0,0,1,3.52-5.35l3.63-.13a2.23,2.23,0,0,0,1.63-.78,2.26,2.26,0,0,0,.53-1.74l-.45-3.56a52.86,52.86,0,0,1,4.76-4.31l3.52.84a2.28,2.28,0,0,0,2.75-1.88l.49-3.6a48.62,48.62,0,0,1,5.71-2.9l3.22,1.72a2.24,2.24,0,0,0,3.13-1.11l1.41-3.34a47.86,47.86,0,0,1,6.27-1.3l2.62,2.47a2.27,2.27,0,0,0,3.33-.26l2.21-2.86h0a50.19,50.19,0,0,1,6.36.36l1.91,3.09a2.25,2.25,0,0,0,3.27.6l2.9-2.21a51,51,0,0,1,6,2l1.05,3.49a2.25,2.25,0,0,0,3,1.43l3.38-1.38a59,59,0,0,1,5.37,3.53l.1,3.6a2.27,2.27,0,0,0,.78,1.65,2.31,2.31,0,0,0,1.75.53l3.58-.46a55.82,55.82,0,0,1,4.28,4.77l-.82,3.52a2.22,2.22,0,0,0,.32,1.79,2.25,2.25,0,0,0,1.55,1l3.59.5a53.1,53.1,0,0,1,2.92,5.71l-1.73,3.21a2.27,2.27,0,0,0-.14,1.82,2.24,2.24,0,0,0,1.24,1.32l3.34,1.41c.37,1.33.69,2.73.95,4.17a2.23,2.23,0,0,0-.77,2.35,2.07,2.07,0,0,0,.29.64l-1.63,1.73a2.25,2.25,0,0,0,.25,3.32Zm-28.81.21a27.05,27.05,0,1,0-27,27A27.07,27.07,0,0,0,551.38,255Z"/><path class="cls-3" d="M579.53,246.62l-.83.88a2.07,2.07,0,0,1-.29-.64,2.23,2.23,0,0,1,.77-2.35C579.32,245.21,579.43,245.91,579.53,246.62Z"/><path class="cls-3" d="M578.31,123a.88.88,0,0,1,.18-.89.81.81,0,0,1,.33-.21.86.86,0,0,1,1.11.5l.06.17h0v.13a.87.87,0,0,1-.87.86h-.6Z"/><path class="cls-3" d="M578.82,121.9a.81.81,0,0,0-.33.21l-.23-.27V103.07l.58.2a1,1,0,0,0,.28,0,.87.87,0,0,0,.82-.58.92.92,0,0,0,0-.28v20.12l-.06-.17A.86.86,0,0,0,578.82,121.9Z"/><path class="cls-3" d="M578.26,103.07v-.62a5.06,5.06,0,0,1,.13-1.17l1,.35a.86.86,0,0,1,.58.81h0a.92.92,0,0,1,0,.28.87.87,0,0,1-.82.58,1,1,0,0,1-.28,0Z"/><path class="cls-3" d="M578.51,179.84h-13a.86.86,0,0,0,.8-.56l.45-1.17H579a.88.88,0,0,1,.75.42l15.8,26.8,1.09,1.22v2.56l-2.43-2.69a.41.41,0,0,1-.1-.13Z"/><path class="cls-3" d="M569.28,98.14l9.11,3.14a5.06,5.06,0,0,0-.13,1.17v.62l-9.66-3.33v-.88Z"/><path class="cls-3" d="M573.36,138.74l-69.42-7.63-.57-1.8,71.31,7.84a.89.89,0,0,1,.65.43.85.85,0,0,1,.06.76L573,144.06a.77.77,0,0,0,.07-.34.86.86,0,0,0-.86-.86h-.58Z"/><path class="cls-3" d="M572.25,142.86a.86.86,0,0,1,.86.86.77.77,0,0,1-.07.34.84.84,0,0,1-.79.53H571l.7-1.73Z"/><polygon class="cls-3" points="571.67 142.86 570.97 144.59 508.18 144.59 507.63 142.86 571.67 142.86"/><path class="cls-3" d="M573,144.06l-4,9.67a.88.88,0,0,0,.07-.33.86.86,0,0,0-.86-.86h-.59l3.27-7.95h1.28A.84.84,0,0,0,573,144.06Z"/><path class="cls-3" d="M578.52,123.57h-9.77l-2.56-.32.68-.85V98.53a.86.86,0,0,0,.58.81l1.15.4v22.1h9.66l.23.27a.88.88,0,0,0-.18.89Z"/><path class="cls-3" d="M568.29,152.54a.86.86,0,0,1,.86.86.88.88,0,0,1-.07.33.84.84,0,0,1-.79.53H567l.7-1.72Z"/><path class="cls-3" d="M568,97.7l1.26.44-.68.72v.88l-1.15-.4a.86.86,0,0,1-.58-.81v0c0-.05,0-.1,0-.15a.56.56,0,0,1,0-.12l.05-.12a.54.54,0,0,1,.09-.12s.05-.07.08-.1A.89.89,0,0,1,568,97.7Z"/><path class="cls-3" d="M582.76,83.52,569.28,98.14,568,97.7a.89.89,0,0,0-.88.2L583,80.72a.87.87,0,0,1,1.5.6V98a.87.87,0,0,1-.87.86,3.64,3.64,0,0,0-3.63,3.63.86.86,0,0,0-.58-.81l-1-.35a5.37,5.37,0,0,1,4.37-4.12Z"/><polygon class="cls-3" points="567.7 152.53 567 154.26 511.22 154.26 510.68 152.53 567.7 152.53"/><path class="cls-3" d="M567.06,98a.54.54,0,0,0-.09.12A.47.47,0,0,1,567.06,98Z"/><path class="cls-3" d="M567,98.12l-.05.12A.61.61,0,0,1,567,98.12Z"/><path class="cls-3" d="M566.88,98.36s0,.1,0,.15S566.88,98.41,566.88,98.36Z"/><path class="cls-3" d="M566.19,123.25l2.56.32h-.37a1,1,0,0,1-.44.26L566.23,126a.85.85,0,0,1-.68.33h-.14a.8.8,0,0,1-.4-.18.86.86,0,0,1-.13-1.21Z"/><path class="cls-3" d="M582.76,130c-5.56-.78-11.43-1.56-17.52-2.31l.17-1.37h.14a.85.85,0,0,0,.68-.33l1.71-2.14a1,1,0,0,0,.44-.26h.37c3.5.45,6.94.9,10.27,1.35l1,2.81a.88.88,0,0,0,.81.57.85.85,0,0,0,.31-.06.84.84,0,0,0,.55-.68l1,.09a.88.88,0,0,0,0,.17Z"/><path class="cls-3" d="M565,178.11h1.84l-.45,1.17a.86.86,0,1,1-1.6-.62Z"/><path class="cls-3" d="M565.55,179.84H518.72a2.26,2.26,0,0,0,.07-1.54l-.07-.19H565l-.21.55a.87.87,0,0,0,.8,1.18Z"/><path class="cls-3" d="M563.59,165.72H514.83l-.55-1.72H563l4-9.74h1.29a.84.84,0,0,0,.79-.53l-4.69,11.45A.86.86,0,0,1,563.59,165.72Z"/><path class="cls-1" d="M524.33,242.75A12.23,12.23,0,1,1,512.11,255,12.24,12.24,0,0,1,524.33,242.75Z"/><path class="cls-3" d="M518.79,178.3a2.26,2.26,0,0,1-.07,1.54h-4.14a.77.77,0,0,1-.08-.19l-.49-1.54h4.71Z"/><path class="cls-3" d="M514.58,179.84h4.14a2.25,2.25,0,0,1-4.14,0Z"/><path class="cls-3" d="M511.33,164.86a.87.87,0,0,1,.88-.86h2.07l.55,1.72h-2.62a.87.87,0,0,1-.86-.69A.88.88,0,0,1,511.33,164.86Z"/><path class="cls-3" d="M512.21,165.72h2.62l3.89,12.39H514l-4-12.66,1.32-.42A.87.87,0,0,0,512.21,165.72Z"/><path class="cls-3" d="M512.11,255a12.23,12.23,0,1,0,12.22-12.23A12.24,12.24,0,0,0,512.11,255Zm12.22,13.84A13.85,13.85,0,1,1,538.19,255,13.86,13.86,0,0,1,524.33,268.82Z"/><path class="cls-3" d="M511.33,164.86a.88.88,0,0,0,0,.17l-1.32.42L506.43,154l1.32-.41a.87.87,0,0,0,.84.69h2.63l3.06,9.74h-2.07A.87.87,0,0,0,511.33,164.86Z"/><path class="cls-3" d="M508.59,152.54h2.09l.54,1.72h-2.63a.87.87,0,0,1-.84-.69.88.88,0,0,1,0-.17A.86.86,0,0,1,508.59,152.54Z"/><path class="cls-3" d="M506.43,154l-3.05-9.67,1.33-.41a.87.87,0,0,0,.84.69h2.63l2.5,7.95h-2.09a.86.86,0,0,0-.86.86.88.88,0,0,0,0,.17Z"/><path class="cls-3" d="M504.69,143.72a.87.87,0,0,1,.86-.86h2.08l.55,1.73h-2.63a.87.87,0,0,1-.84-.69A1,1,0,0,1,504.69,143.72Z"/><path class="cls-3" d="M503.38,144.31,499,130.53l1.33-.42a.88.88,0,0,0,.75.7l2.82.3,3.69,11.75h-2.08a.87.87,0,0,0-.86.86,1,1,0,0,0,0,.18Z"/><path class="cls-3" d="M501.31,129.09l2.06.22.57,1.8-2.82-.3a.88.88,0,0,1-.75-.7.76.76,0,0,1,0-.26A.86.86,0,0,1,501.31,129.09Z"/><path class="cls-3" d="M500.65,120.66l2.72,8.65-2.06-.22a.86.86,0,0,0-.95.76.76.76,0,0,0,0,.26l-1.33.42-3.67-11.68a1.39,1.39,0,0,1-.06-.19L491,104.88H468.92l-10.33,10.74a2.55,2.55,0,0,1-.23.24l-9.62,10V173.3l-4.5,0V125a2.23,2.23,0,0,1,.63-1.55L452,116l-1.44-.13a2.25,2.25,0,0,1-2-2.24V75.55h2.83a.68.68,0,0,0,.69-.68h1v36.7l3,.28,10.36-10.77a2.28,2.28,0,0,1,1.63-.7h24.66a2.25,2.25,0,0,1,2.14,1.58l4.41,14c22.39,2.2,46,4.65,67,7.26l-1.31,1.65a.86.86,0,0,0,.13,1.21.8.8,0,0,0,.4.18l-.17,1.37C545,125.14,522.3,122.79,500.65,120.66Z"/><path class="cls-3" d="M524.33,282a27,27,0,1,1,27-27A27.08,27.08,0,0,1,524.33,282Zm0-52.47A25.42,25.42,0,1,0,549.75,255,25.45,25.45,0,0,0,524.33,229.55Z"/><path class="cls-3" d="M476.79,179.84l-26.06,57-1.15-1.64,25.87-56.6a.84.84,0,0,1,.78-.51H514l.49,1.54a.77.77,0,0,0,.08.19Z"/><path class="cls-3" d="M468.81,249a2.33,2.33,0,0,1,.38,1.25,2.25,2.25,0,0,1-.62,1.55C468.61,250.88,468.69,249.94,468.81,249Z"/><path class="cls-3" d="M466.94,248a2.22,2.22,0,0,1,1.87,1c-.12.9-.2,1.84-.24,2.8a2.3,2.3,0,0,1-1.63.69H464c.06-1.56.19-3,.38-4.49Z"/><path class="cls-3" d="M468.57,251.84c-.06,1-.09,2-.09,3.14v.2l2.86,2.22a2.2,2.2,0,0,1,.86,1.6,2.23,2.23,0,0,1-.6,1.71l-2.47,2.62a48,48,0,0,0,1.3,6.28l3.33,1.41a2.2,2.2,0,0,1,1.25,1.32,2.24,2.24,0,0,1-.13,1.81l-1.73,3.22a51.16,51.16,0,0,0,2.91,5.7l3.59.51a2.23,2.23,0,0,1,1.88,2.74l-.83,3.51a53.94,53.94,0,0,0,4.3,4.78l3.56-.45a2.25,2.25,0,0,1,2.54,2.16l.09,3.61a60.28,60.28,0,0,0,5.37,3.52l3.38-1.37a2.16,2.16,0,0,1,1.81.05,2.21,2.21,0,0,1,1.19,1.38L504,307a52.89,52.89,0,0,0,6.05,2l2.9-2.21a2.26,2.26,0,0,1,3.28.61l1.9,3.08a49,49,0,0,0,6.36.35h0l2.22-2.85a2.24,2.24,0,0,1,3.32-.26l2.62,2.47a50.06,50.06,0,0,0,6.28-1.31l1.4-3.33a2.26,2.26,0,0,1,1.32-1.25,2.28,2.28,0,0,1,1.81.13l3.23,1.73a52.67,52.67,0,0,0,5.7-2.9l.5-3.6a2.22,2.22,0,0,1,2.74-1.87l3.51.83a47.35,47.35,0,0,0,4.78-4.3l-.45-3.57a2.25,2.25,0,0,1,2.15-2.53l3.63-.12a50.6,50.6,0,0,0,3.52-5.35l-1.38-3.37a2.33,2.33,0,0,1,.06-1.83,2.24,2.24,0,0,1,1.38-1.17l3.5-1.06a57.83,57.83,0,0,0,2-6.05l-2.22-2.89a2.29,2.29,0,0,1-.42-1.77,2.24,2.24,0,0,1,1-1.51l3.07-1.91,2.09,1.35h0l2.15.58a2.2,2.2,0,0,1-1,1.33l-1.87,1.16,1.36,1.8a2.23,2.23,0,0,1,.4,1.9,60,60,0,0,1-2.85,8.72,2.24,2.24,0,0,1-1.43,1.29l-2.17.65.86,2.09a2.26,2.26,0,0,1-.12,1.95,59.24,59.24,0,0,1-5.07,7.69,2.25,2.25,0,0,1-1.69.86l-2.23.07.28,2.18a2.26,2.26,0,0,1-.59,1.81,50.43,50.43,0,0,1-6.94,6.23,2.21,2.21,0,0,1-1.86.39l-2.13-.51-.31,2.21a2.27,2.27,0,0,1-1,1.61,55.47,55.47,0,0,1-8.24,4.18,2.3,2.3,0,0,1-1.9-.1l-2-1.07-.87,2.06a2.18,2.18,0,0,1-1.41,1.26,52,52,0,0,1-9.08,1.91,2.24,2.24,0,0,1-1.82-.59l-1.6-1.51-1.34,1.74a2.26,2.26,0,0,1-1.61.86c-.49,0-1,0-1.5,0a52.64,52.64,0,0,1-7.89-.55,2.24,2.24,0,0,1-1.58-1l-1.16-1.88-1.8,1.37a2.26,2.26,0,0,1-1.9.39,58.35,58.35,0,0,1-8.73-2.88,2.26,2.26,0,0,1-1.27-1.43l-.65-2.14-2.09.86a2.27,2.27,0,0,1-1.95-.12,62.82,62.82,0,0,1-7.7-5.05,2.26,2.26,0,0,1-.89-1.73l-.05-2.21-2.17.28a2.28,2.28,0,0,1-1.83-.59,56.66,56.66,0,0,1-6.19-6.88,2.22,2.22,0,0,1-.4-1.88l.51-2.17-2.21-.3a2.29,2.29,0,0,1-1.61-1.06,55,55,0,0,1-4.18-8.23,2.22,2.22,0,0,1,.1-1.9l1.07-2-2.05-.86a2.2,2.2,0,0,1-1.28-1.42,53.69,53.69,0,0,1-1.91-9.08,2.26,2.26,0,0,1,.6-1.82l1.51-1.59-1.75-1.35a2.26,2.26,0,0,1-.86-1.62c0-.48,0-1,0-1.48,0-.84,0-1.66,0-2.45h2.91A2.3,2.3,0,0,0,468.57,251.84Z"/><path class="cls-3" d="M466.94,248h-2.53c0-.32.08-.64.12-1a2.27,2.27,0,0,1,1-1.58l1.87-1.16-1.36-1.8a2.21,2.21,0,0,1-.4-1.89,60,60,0,0,1,2.85-8.72,2.27,2.27,0,0,1,1.44-1.3l2.16-.64-.86-2.09a2.23,2.23,0,0,1,.13-2,59.36,59.36,0,0,1,5.06-7.7,2.28,2.28,0,0,1,1.7-.85l2.22-.07-.28-2.19a2.27,2.27,0,0,1,.6-1.82,58.8,58.8,0,0,1,6.87-6.2,2.27,2.27,0,0,1,1.88-.4l2.17.51.3-2.21a2.26,2.26,0,0,1,1.06-1.61,54.9,54.9,0,0,1,8.23-4.18,2.22,2.22,0,0,1,1.9.1l2,1.07.87-2.06a2.23,2.23,0,0,1,1.41-1.27,52.55,52.55,0,0,1,9.08-1.9,2.24,2.24,0,0,1,1.82.59l1.6,1.51,1.34-1.74a2.27,2.27,0,0,1,1.62-.87c.49,0,1,0,1.49,0a52.87,52.87,0,0,1,7.9.55,2.23,2.23,0,0,1,1.57,1l1.17,1.88,1.79-1.37a2.23,2.23,0,0,1,1.9-.39,56.15,56.15,0,0,1,8.73,2.88,2.26,2.26,0,0,1,1.28,1.42l.64,2.14,2.09-.85a2.26,2.26,0,0,1,2,.12,62.52,62.52,0,0,1,7.71,5.05,2.25,2.25,0,0,1,.88,1.72l0,2.22,2.21-.28a2.25,2.25,0,0,1,1.83.61,59,59,0,0,1,6.16,6.86,2.25,2.25,0,0,1,.39,1.88l-.51,2.16,2.22.31a2.25,2.25,0,0,1,1.61,1.06,60.64,60.64,0,0,1,4.2,8.21,2.27,2.27,0,0,1-.1,1.92l-1.08,2,2,.86a2.27,2.27,0,0,1,1.28,1.41,52.48,52.48,0,0,1,1.27,5.12l-3.53,1a2.1,2.1,0,0,0-.8.41c-.26-1.44-.58-2.84-.95-4.17l-3.34-1.41a2.24,2.24,0,0,1-1.24-1.32,2.27,2.27,0,0,1,.14-1.82l1.73-3.21a53.1,53.1,0,0,0-2.92-5.71l-3.59-.5a2.25,2.25,0,0,1-1.55-1,2.22,2.22,0,0,1-.32-1.79l.82-3.52a55.82,55.82,0,0,0-4.28-4.77l-3.58.46a2.31,2.31,0,0,1-1.75-.53,2.27,2.27,0,0,1-.78-1.65l-.1-3.6a59,59,0,0,0-5.37-3.53l-3.38,1.38a2.25,2.25,0,0,1-3-1.43L544.67,203a51,51,0,0,0-6-2l-2.9,2.21a2.25,2.25,0,0,1-3.27-.6l-1.91-3.09a50.19,50.19,0,0,0-6.36-.36h0L521.92,202a2.27,2.27,0,0,1-3.33.26L516,199.77a47.86,47.86,0,0,0-6.27,1.3l-1.41,3.34a2.24,2.24,0,0,1-3.13,1.11l-3.22-1.72a48.62,48.62,0,0,0-5.71,2.9l-.49,3.6a2.28,2.28,0,0,1-2.75,1.88l-3.52-.84a52.86,52.86,0,0,0-4.76,4.31l.45,3.56a2.26,2.26,0,0,1-.53,1.74,2.23,2.23,0,0,1-1.63.78l-3.63.13a51.65,51.65,0,0,0-3.52,5.35l1.38,3.37a2.25,2.25,0,0,1-1.44,3l-3.5,1a56.24,56.24,0,0,0-2,6.05l2.21,2.91a2.24,2.24,0,0,1-.6,3.27l-3.08,1.91,0,.27A2.22,2.22,0,0,0,466.94,248Z"/><path class="cls-3" d="M458.6,248h5.81c-.19,1.45-.32,2.93-.38,4.49h-6.59a2.26,2.26,0,0,1-1.84-.95l-7.3-10.37a.85.85,0,0,0,.67-.49l1.76-3.86Z"/><path class="cls-3" d="M459.13,173.58a.87.87,0,0,1,.18.71l-11,59.42a2.24,2.24,0,0,0-1.69-.32L457.42,175l-8.85,0a2.48,2.48,0,0,0,.17-.86v-.88l9.72,0A1,1,0,0,1,459.13,173.58Z"/><path class="cls-3" d="M451.35,74.19a.68.68,0,1,1,0,1.36h-2.83V74.19Z"/><path class="cls-3" d="M449.58,235.22l1.15,1.64L449,240.72a.85.85,0,0,1-.67.49l-.89-1.25Z"/><path class="cls-3" d="M449.58,235.22,447.41,240l-.19-.29,1.09-6a2.17,2.17,0,0,1,.62.59Z"/><path class="cls-3" d="M448.74,173.3v.88a2.48,2.48,0,0,1-.17.86h-4.16a2.29,2.29,0,0,1-.17-.87v-.86Z"/><path class="cls-3" d="M444.41,175.05h4.16a2.25,2.25,0,0,1-4.16,0Z"/><path d="M448.52,74.19v1.36H438.38c0-.45,0-.7,0-.73a.8.8,0,0,0-.34-.63Z"/><path class="cls-3" d="M448.31,233.71l-1.09,6-1.4-2,.8-4.3A2.24,2.24,0,0,1,448.31,233.71Z"/><path class="cls-3" d="M447.41,240l.89,1.25h-.11a.85.85,0,0,1-.79-1.22Z"/><path class="cls-3" d="M446.62,233.39l-.8,4.3-.56-.81a2.23,2.23,0,0,1,.54-3.13A2.39,2.39,0,0,1,446.62,233.39Z"/><path class="cls-3" d="M443.14,261.67a.87.87,0,0,1-.85.7h-.45v-.87a.87.87,0,0,0-.86-.86h.6l4.24-22.95,1.4,2Z"/><path class="cls-3" d="M441.84,262.37V281a.86.86,0,0,0-.86-.86h-.87V262.37Z"/><path class="cls-3" d="M441.84,261.5v.87h-1.73v-.87a.87.87,0,0,1,1.73,0Z"/><path class="cls-3" d="M441,281.83h-.87v-1.72H441a.86.86,0,1,1,0,1.72Z"/><path class="cls-3" d="M403.17,260.64H441a.87.87,0,0,0-.87.86v.87H404v-.87A.87.87,0,0,0,403.17,260.64Z"/><path class="cls-3" d="M440.11,281.83H441a.86.86,0,0,0,.86-.86v3.65a.87.87,0,0,1-1.73,0Z"/><rect class="cls-3" x="404.04" y="280.11" width="36.08" height="1.73"/><path class="cls-3" d="M386.78,145.86c34.6-4.12,51.91-15.32,51.45-33.32-.25-9.17-1.38-32.8-1.59-37h1.74c.22,4.43,1.33,27.82,1.57,36.94.5,19.06-17.38,30.87-53.17,35.11Z"/><path class="cls-3" d="M438.34,74.82s0,.28,0,.73h-1.74c0-.39,0-.61,0-.64a.83.83,0,0,1,.35-.72h1A.8.8,0,0,1,438.34,74.82Z"/><path class="cls-3" d="M438,74.19h-1a.78.78,0,0,1,.47-.18A.79.79,0,0,1,438,74.19Z"/><path d="M436.64,75.55H386.78v-.68a.84.84,0,0,0-.34-.68H437a.83.83,0,0,0-.35.72S436.63,75.16,436.64,75.55Z"/><path class="cls-3" d="M440.11,141.25l-34,14v13.28h34Zm-35.72,13.43a.87.87,0,0,1,.53-.8l35.72-14.72a.89.89,0,0,1,.81.08.85.85,0,0,1,.39.72V169.4a.86.86,0,0,1-.86.86H405.25a.85.85,0,0,1-.86-.86Z"/><path class="cls-3" d="M450.31,182.89H405.36v17.3H447Zm-46.68,18.17V182a.87.87,0,0,1,.87-.86h46.85a.89.89,0,0,1,.67.31.87.87,0,0,1,.19.71l-3.69,19a.87.87,0,0,1-.84.7H404.5A.87.87,0,0,1,403.63,201.06Z"/><path class="cls-3" d="M447.14,207H405.36v21h37.83Zm-3.23,22.69H404.5a.87.87,0,0,1-.87-.87V206.14a.87.87,0,0,1,.87-.86h43.69a.84.84,0,0,1,.66.32.82.82,0,0,1,.18.71L444.75,229A.86.86,0,0,1,443.91,229.7Z"/><path class="cls-3" d="M438.39,256.27l3.74-22.16H405.36v22.16Zm-34.76.87V233.25a.86.86,0,0,1,.87-.86h38.64a.87.87,0,0,1,.86,1l-4,23.89a.87.87,0,0,1-.85.72H404.5A.87.87,0,0,1,403.63,257.14Z"/><path class="cls-3" d="M404,281.83v2.79a.87.87,0,0,1-1.73,0V281a.86.86,0,0,0,.86.86Z"/><path class="cls-3" d="M404,280.11v1.72h-.87a.86.86,0,1,1,0-1.72Z"/><path class="cls-3" d="M404,262.37v17.74h-.87a.86.86,0,0,0-.86.86v-18.6Z"/><path class="cls-3" d="M404,261.5v.87h-1.73v-.87a.87.87,0,0,1,1.73,0Z"/><path class="cls-3" d="M395.32,249.42a.87.87,0,0,1,0,1.73h-.87v-1.73Z"/><path class="cls-3" d="M395.32,235.57a.87.87,0,0,1,0,1.73h-.87v-1.73Z"/><path class="cls-3" d="M395.32,221.55a.87.87,0,0,1,0,1.74h-.87v-1.74Z"/><path class="cls-3" d="M395.32,208.55a.87.87,0,0,1,0,1.73h-.87v-1.73Z"/><path class="cls-3" d="M396.19,209.42v13h0a.87.87,0,0,0-.86-.87h-.87V210.28h.87a.87.87,0,0,0,.86-.86Z"/><path class="cls-3" d="M396.19,222.42v14h0a.86.86,0,0,0-.86-.86h-.87V223.29h.87a.87.87,0,0,0,.86-.87Z"/><path class="cls-3" d="M396.19,236.43v13.86h0a.87.87,0,0,0-.86-.87h-.87V237.3h.87a.87.87,0,0,0,.86-.87Z"/><path class="cls-3" d="M396.19,260.64h7a.87.87,0,0,0-.86.86v.87h-7a.87.87,0,0,1-.88-.87V251.15h.87a.87.87,0,0,0,.86-.86h0Z"/><rect class="cls-3" x="377.78" y="249.42" width="16.68" height="1.73"/><rect class="cls-3" x="377.78" y="235.57" width="16.68" height="1.74"/><rect class="cls-3" x="377.78" y="221.55" width="16.68" height="1.74"/><rect class="cls-3" x="377.78" y="208.55" width="16.68" height="1.73"/><path class="cls-3" d="M394.45,179.87h-8.54v0a.87.87,0,0,0,.87-.86v-.84h8.55a.87.87,0,0,1,.86.86v30.42h0a.87.87,0,0,0-.86-.87h-.87Z"/><path class="cls-3" d="M394.35,175.23h0a.86.86,0,0,1-.87-.86.88.88,0,0,1,.87-.87l49.89-.18v.86a2.29,2.29,0,0,0,.17.87Z"/><path class="cls-3" d="M386.78,178.14V179a.87.87,0,0,1-1.73,0v-.84Z"/><path class="cls-3" d="M386.78,147.6v30.54h-1.73V147.8Z"/><path class="cls-3" d="M386.78,145.86v1.74l-1.73.2v-1.75Z"/><path class="cls-3" d="M386.78,75.55v70.31l-1.73.19V75.55Z"/><path class="cls-3" d="M386.78,74.87v.68h-1.73v-.68a.86.86,0,0,1,.33-.68h1.06A.84.84,0,0,1,386.78,74.87Z"/><path class="cls-3" d="M386.44,74.19h-1.06a.91.91,0,0,1,.53-.18A.87.87,0,0,1,386.44,74.19Z"/><path d="M371.12,74.19h14.26a.86.86,0,0,0-.33.68v.68H370.86Z"/><path class="cls-3" d="M381.18,148.18l-24.13.07a2.13,2.13,0,0,0,.13-.43l.25-1.3,23.66-.06c1.34-.13,2.67-.26,4-.41v1.75C383.78,147.93,382.49,148.07,381.18,148.18Z"/><path class="cls-3" d="M377.78,249.42v1.73h-2.25a.87.87,0,0,1,0-1.73Z"/><path class="cls-3" d="M377.78,235.57v1.73h-2.25a.87.87,0,0,1,0-1.73Z"/><path class="cls-3" d="M377.78,221.55v1.74h-2.25a.87.87,0,0,1,0-1.74Z"/><path class="cls-3" d="M377.78,208.55v1.73h-2.25a.87.87,0,0,1,0-1.73Z"/><path class="cls-3" d="M375.53,210.28h2.25v11.27h-2.25a.86.86,0,0,0-.86.87h-1.39v-13h1.39A.86.86,0,0,0,375.53,210.28Z"/><path class="cls-3" d="M375.53,223.29h2.25v12.28h-2.25a.85.85,0,0,0-.86.86h-1.39v-14h1.39A.86.86,0,0,0,375.53,223.29Z"/><path class="cls-3" d="M375.53,237.3h2.25v12.12h-2.25a.86.86,0,0,0-.86.87h-1.39V236.43h1.39A.86.86,0,0,0,375.53,237.3Z"/><path class="cls-3" d="M375.53,251.15h2.25V261.5a2.25,2.25,0,0,1-2.25,2.25H344.64c.17-1.44.28-2.93.32-4.49h28.32v-9h1.39A.86.86,0,0,0,375.53,251.15Z"/><path class="cls-3" d="M368.7,74.19a.67.67,0,0,0-.67.54l-1.54-.28,1.68-8.83a2.24,2.24,0,0,1,2.21-1.84h80.39A2.25,2.25,0,0,1,453,66v8.84h-1a.68.68,0,0,0-.69-.68h-2.83V68.28H372.24l-1.12,5.91Z"/><path class="cls-3" d="M368.7,75.55a.68.68,0,0,1-.69-.68.71.71,0,0,1,.69-.68h2.42l-.26,1.36Z"/><path class="cls-3" d="M368,74.87a.68.68,0,0,0,.69.68h2.16l-13.43,71h-4.57l13.63-72.08,1.54.28A.68.68,0,0,0,368,74.87Z"/><path class="cls-3" d="M355.84,148.25h1.21a2.23,2.23,0,0,1-1.21,1.22Z"/><path class="cls-3" d="M355.84,148.25v1.22a2.14,2.14,0,0,1-1.28.14,2,2,0,0,1-.45-.13v-1.23Z"/><path class="cls-3" d="M355.84,147.4v.85h-1.73v-.85a.87.87,0,0,1,1.73,0Z"/><path class="cls-3" d="M355,146.52h2.46l-.25,1.3a2.13,2.13,0,0,1-.13.43h-1.21v-.85a.87.87,0,0,0-.87-.86Z"/><path class="cls-3" d="M355.84,178.14h29.21V179a.87.87,0,0,0,.86.86v0H355a.86.86,0,0,1-.86-.87V149.48a2,2,0,0,0,.45.13,2.14,2.14,0,0,0,1.28-.14Z"/><path class="cls-3" d="M354.11,148.25v1.23a2.26,2.26,0,0,1-1.21-1.22Z"/><path class="cls-3" d="M352.86,146.53H355v0a.86.86,0,0,0-.86.86v.85H352.9a2.19,2.19,0,0,1-.13-1.27Z"/><path class="cls-3" d="M352.77,147a2.19,2.19,0,0,0,.13,1.27h-2.18v-1.73h2.14Z"/><path class="cls-3" d="M350.72,146.53v1.73h-2.25a.86.86,0,1,1,0-1.72Z"/><path class="cls-3" d="M346.22,181.63V147.4h1.39a.85.85,0,0,0,.86.86h2.25v33.37a17.21,17.21,0,0,0,17.18,17.18h7.63a2.25,2.25,0,0,1,2.25,2.25v7.49h-2.25a.86.86,0,0,0-.86.87h-1.39V203.3H367.9A21.7,21.7,0,0,1,346.22,181.63Z"/><path class="cls-1" d="M340.5,256.87v.27c0,.72,0,1.43,0,2.12h-2.59a2.25,2.25,0,1,0,0,4.49H340l-3.15,1.95a2.26,2.26,0,0,0-.6,3.28L338.6,272a58.21,58.21,0,0,1-2.11,6.43l-3.69,1.11a2.22,2.22,0,0,0-1.39,1.17,2.29,2.29,0,0,0-.05,1.83l1.46,3.57a63.57,63.57,0,0,1-3.73,5.68l-3.84.12a2.26,2.26,0,0,0-2.16,2.53l.48,3.79a50.8,50.8,0,0,1-5.08,4.55l-3.71-.88a2.27,2.27,0,0,0-2.75,1.88l-.52,3.8a53.1,53.1,0,0,1-6.06,3.08L302,308.88a2.24,2.24,0,0,0-1.81-.13,2.17,2.17,0,0,0-1.31,1.24l-1.5,3.53a51.13,51.13,0,0,1-6.66,1.39L288,312.29a2.26,2.26,0,0,0-3.32.26l-2.35,3h-.25a51.51,51.51,0,0,1-6.55-.39l-2-3.26a2.24,2.24,0,0,0-1.5-1,2.28,2.28,0,0,0-1.77.42l-3.07,2.34a55.66,55.66,0,0,1-6.43-2.13l-1.1-3.68a2.29,2.29,0,0,0-1.19-1.38,2.24,2.24,0,0,0-1.81-.05l-3.57,1.46a63.54,63.54,0,0,1-5.71-3.74l-.1-3.82a2.31,2.31,0,0,0-.78-1.65,2.34,2.34,0,0,0-1.76-.52l-3.76.47a54.63,54.63,0,0,1-4.57-5.06l.88-3.72a2.23,2.23,0,0,0-1.88-2.74l-3.8-.53a54.81,54.81,0,0,1-3.08-6.05l1.82-3.42a2.24,2.24,0,0,0-1.11-3.13l-3.53-1.48a53.76,53.76,0,0,1-1.39-6.67l2.61-2.77a2.27,2.27,0,0,0,.62-1.72,2.23,2.23,0,0,0-.87-1.6l-3-2.34v-.46c2.37-3.11,4.22-5.06,4.25-5.1a2.24,2.24,0,0,0-.07-3.18,1.79,1.79,0,0,0-.31-.25,2.18,2.18,0,0,0,.8-1.34,2.24,2.24,0,0,0-.42-1.77l-2.34-3.07a58.85,58.85,0,0,1,2.1-6.43l3.71-1.1a2.29,2.29,0,0,0,1.38-1.19,2.26,2.26,0,0,0,.05-1.82l-1.45-3.57a55.88,55.88,0,0,1,3.73-5.68l3.84-.12a2.24,2.24,0,0,0,1.63-.79,2.29,2.29,0,0,0,.53-1.74l-.49-3.77a56.67,56.67,0,0,1,5.07-4.57l3.72.88a2.25,2.25,0,0,0,2.74-1.88l.53-3.8a53.1,53.1,0,0,1,6.06-3.08l3.41,1.82a2.26,2.26,0,0,0,3.13-1.11l1.48-3.53a53.38,53.38,0,0,1,6.67-1.39l2.76,2.62a2.27,2.27,0,0,0,3.33-.26l2.35-3h.1a53.73,53.73,0,0,1,6.7.39l2,3.26a2.28,2.28,0,0,0,1.5,1,2.32,2.32,0,0,0,1.77-.43L297,200.6a55.5,55.5,0,0,1,6.42,2.13l1.12,3.68a2.23,2.23,0,0,0,3,1.43l3.57-1.45a61.94,61.94,0,0,1,5.7,3.74l.11,3.81a2.19,2.19,0,0,0,.78,1.65,2.23,2.23,0,0,0,1.74.52l3.8-.47a58.08,58.08,0,0,1,4.54,5.06l-.88,3.72a2.24,2.24,0,0,0,1.87,2.74l3.81.53a58.78,58.78,0,0,1,3.1,6.06l-1.84,3.4a2.28,2.28,0,0,0-.14,1.81,2.25,2.25,0,0,0,1.25,1.33l3.52,1.48a50.66,50.66,0,0,1,1.4,6.67l-2.62,2.77a2.26,2.26,0,0,0-.61,1.72,2.29,2.29,0,0,0,.86,1.6Zm-30.17.27a28.27,28.27,0,1,0-28.26,28.26A28.3,28.3,0,0,0,310.33,257.14Z"/><path class="cls-3" d="M337.87,259.26h2.59c0,1.54-.16,3-.33,4.42l-.12.07h-2.14a2.25,2.25,0,1,1,0-4.49Z"/><path class="cls-3" d="M340.13,263.68c.17-1.41.28-2.88.33-4.42H345c0,1.56-.15,3.05-.32,4.49H340Z"/><path class="cls-3" d="M325.68,131.64,321,158.87l-1.37-.23a.85.85,0,0,0-.18-.74.88.88,0,0,0-1.23-.08l-1.88,1.62,3.22-18.87c-2.46,1.68-5.9,4-10.16,6.63l-.75-1.21a.88.88,0,0,0,.7-.84v-3.23c5.83-3.72,9.74-6.48,11.27-7.58l.91-5.32a2.25,2.25,0,0,1,2.22-1.87h24.69a2.24,2.24,0,0,1,2.25,2.24v17.14h-2.25a.86.86,0,0,0-.86.86h-1.39V131.64Z"/><path class="cls-3" d="M319.39,159.12a.81.81,0,0,0,.27-.48l1.37.23-3.27,19.24h-4.57l2.73-16C318,160.31,319.34,159.15,319.39,159.12Z"/><path class="cls-3" d="M321.73,178.37l30.87,32.24a.85.85,0,0,1,.24.6V225.8a.87.87,0,1,1-1.73,0V211.56l-30.37-31.72H317.4a2,2,0,0,0,.14-.49l.22-1.24h3.35A.84.84,0,0,1,321.73,178.37Z"/><path class="cls-3" d="M319.48,157.9a.85.85,0,0,1,.18.74.81.81,0,0,1-.27.48c-.05,0-1.37,1.19-3.47,3l.45-2.65,1.88-1.62A.88.88,0,0,1,319.48,157.9Z"/><path class="cls-3" d="M313.25,179.84h4.15a2.25,2.25,0,0,1-4.15,0Z"/><path class="cls-3" d="M313.25,179.84h-9.31a.87.87,0,0,1,0-1.73h9.25l-.08.49A2.26,2.26,0,0,0,313.25,179.84Z"/><path class="cls-3" d="M313.19,178.11h4.57l-.22,1.24a2,2,0,0,1-.14.49h-4.15a2.26,2.26,0,0,1-.14-1.24Z"/><path class="cls-3" d="M309.38,141.92v3.23a.88.88,0,0,1-.7.84l-.17,0a.87.87,0,0,1-.87-.86V143Z"/><path class="cls-3" d="M308.51,146l.17,0,.75,1.21c-3.88,2.43-8.45,5.18-13.61,8.1l-.66-1.18a.9.9,0,0,0,.37-.72.85.85,0,0,0-.86-.86H291.6c6.2-3.47,11.6-6.73,16-9.52v2.13A.87.87,0,0,0,308.51,146Z"/><path class="cls-3" d="M295.53,153.4a.9.9,0,0,1-.37.72.93.93,0,0,1-.49.14h-6.19l3.12-1.72h3.07A.85.85,0,0,1,295.53,153.4Z"/><circle class="cls-1" cx="282.07" cy="257.14" r="12.76"/><path class="cls-3" d="M295.82,155.3c-6.47,3.68-13.87,7.62-22,11.52l-.6-1.24a.87.87,0,0,0,.38-.72.86.86,0,0,0-.86-.86H269.3c6.94-3.26,13.37-6.57,19.18-9.74h6.19a.93.93,0,0,0,.49-.14Z"/><path class="cls-3" d="M273.86,194.76a2.27,2.27,0,0,1,1.82.6l1.74,1.65,1.48-1.91a2.28,2.28,0,0,1,1.62-.86c.5,0,1,0,1.55,0a54.41,54.41,0,0,1,8.22.57,2.23,2.23,0,0,1,1.58,1l1.27,2.05,2-1.49A2.22,2.22,0,0,1,297,196a59.29,59.29,0,0,1,9.11,3,2.24,2.24,0,0,1,1.27,1.42l.7,2.34,2.3-.94a2.22,2.22,0,0,1,1.93.12,64.6,64.6,0,0,1,8.05,5.27,2.28,2.28,0,0,1,.88,1.72l.06,2.42,2.41-.3a2.26,2.26,0,0,1,1.83.61A63,63,0,0,1,332,218.8a2.23,2.23,0,0,1,.4,1.88l-.56,2.37,2.42.34a2.23,2.23,0,0,1,1.61,1.06,61.8,61.8,0,0,1,4.38,8.56,2.29,2.29,0,0,1-.09,1.93L339,237.11l2.23.94a2.2,2.2,0,0,1,1.27,1.41,55.94,55.94,0,0,1,2,9.47,2.22,2.22,0,0,1-.59,1.82l-1.65,1.75L344.1,254a2.26,2.26,0,0,1,.86,1.62c0,.5,0,1,0,1.55,0,.71,0,1.43,0,2.12h-4.5c0-.69,0-1.4,0-2.12v-.27l-3-2.34a2.29,2.29,0,0,1-.86-1.6,2.26,2.26,0,0,1,.61-1.72l2.62-2.77a50.66,50.66,0,0,0-1.4-6.67l-3.52-1.48a2.25,2.25,0,0,1-1.25-1.33,2.28,2.28,0,0,1,.14-1.81l1.84-3.4a58.78,58.78,0,0,0-3.1-6.06l-3.81-.53a2.24,2.24,0,0,1-1.87-2.74l.88-3.72a58.08,58.08,0,0,0-4.54-5.06l-3.8.47a2.23,2.23,0,0,1-1.74-.52,2.19,2.19,0,0,1-.78-1.65l-.11-3.81a61.94,61.94,0,0,0-5.7-3.74l-3.57,1.45a2.23,2.23,0,0,1-3-1.43l-1.12-3.68A55.5,55.5,0,0,0,297,200.6l-3.07,2.34a2.32,2.32,0,0,1-1.77.43,2.28,2.28,0,0,1-1.5-1l-2-3.26a53.73,53.73,0,0,0-6.7-.39h-.1l-2.35,3a2.27,2.27,0,0,1-3.33.26l-2.76-2.62a53.38,53.38,0,0,0-6.67,1.39l-1.48,3.53a2.26,2.26,0,0,1-3.13,1.11l-3.41-1.82a53.1,53.1,0,0,0-6.06,3.08l-.53,3.8a2.25,2.25,0,0,1-2.74,1.88l-3.72-.88a56.67,56.67,0,0,0-5.07,4.57l.49,3.77a2.29,2.29,0,0,1-.53,1.74,2.24,2.24,0,0,1-1.63.79l-3.84.12a55.88,55.88,0,0,0-3.73,5.68l1.45,3.57a2.26,2.26,0,0,1-.05,1.82,2.29,2.29,0,0,1-1.38,1.19l-3.71,1.1a58.85,58.85,0,0,0-2.1,6.43l2.34,3.07a2.24,2.24,0,0,1,.42,1.77,2.18,2.18,0,0,1-.8,1.34,2.24,2.24,0,0,0-2.86.32,71.42,71.42,0,0,0-5.48,6.67,54.71,54.71,0,0,1,.55-6.49,2.25,2.25,0,0,1,1-1.58l2.06-1.27-1.51-2a2.26,2.26,0,0,1-.39-1.9,62.67,62.67,0,0,1,3-9.09,2.26,2.26,0,0,1,1.43-1.29l2.37-.71-.93-2.28a2.26,2.26,0,0,1,.12-1.95,59.93,59.93,0,0,1,5.29-8,2.29,2.29,0,0,1,1.69-.87l2.43-.08-.3-2.38a2.24,2.24,0,0,1,.59-1.82,60.53,60.53,0,0,1,7.17-6.47,2.22,2.22,0,0,1,1.88-.4l2.37.55.34-2.41a2.21,2.21,0,0,1,1-1.6A56,56,0,0,1,258,199a2.2,2.2,0,0,1,1.89.09l2.18,1.16L263,198a2.26,2.26,0,0,1,1.41-1.28,55.12,55.12,0,0,1,9.1-1.93Z"/><path class="cls-3" d="M272.76,193.26a231.65,231.65,0,0,1,19.78-15c7.28-4.75,19.24-14.86,23.83-18.81l-.45,2.65c-5.36,4.58-15.79,13.28-22.43,17.6a227.53,227.53,0,0,0-19.6,14.88,1,1,0,0,1-.42.2h-.14a.85.85,0,0,1-.66-.31A.86.86,0,0,1,272.76,193.26Z"/><path class="cls-3" d="M273.82,166.82q-5.35,2.58-11.11,5.11a95,95,0,0,0-37.59,29.45L223.38,200a.87.87,0,0,0,.25-.61.86.86,0,0,0-.86-.86h-1.16a99.25,99.25,0,0,1,39.3-30.75c1.59-.69,3.14-1.39,4.68-2.09h7.15a.87.87,0,0,0,.48-.14Z"/><path class="cls-3" d="M273.6,164.86a.85.85,0,0,1-.86.86h-7.15c1.26-.57,2.49-1.15,3.71-1.72h3.44A.86.86,0,0,1,273.6,164.86Z"/><path class="cls-3" d="M282.07,244.38a12.76,12.76,0,1,0,12.75,12.76A12.78,12.78,0,0,0,282.07,244.38Zm-14.49,12.76a14.49,14.49,0,1,1,14.49,14.48A14.51,14.51,0,0,1,267.58,257.14Z"/><path class="cls-3" d="M288.48,154.26H259.84l.16,0,8.21-1.46c.39-.07.78-.15,1.16-.24H291.6Z"/><path class="cls-3" d="M267.92,151.08a20.5,20.5,0,0,0,16.35-15.47,11.27,11.27,0,0,1,11-8.71h1.24a12.89,12.89,0,0,1,12.87,12.87v2.15l-1.74,1.1v-3.25a11.14,11.14,0,0,0-11.13-11.14h-1.24A9.54,9.54,0,0,0,286,136a22.22,22.22,0,0,1-16.58,16.54h-9.63Z"/><path class="cls-3" d="M259.74,152.54h9.63c-.38.09-.77.17-1.16.24L260,154.24l-.16,0a.87.87,0,0,1-.15-1.72Z"/><path class="cls-3" d="M253.79,257.14a28.27,28.27,0,1,1,28.28,28.26A28.31,28.31,0,0,1,253.79,257.14Zm28.28-26.54a26.54,26.54,0,1,0,26.54,26.54A26.56,26.56,0,0,0,282.07,230.6Z"/><path class="cls-3" d="M239.4,152.54h20.29a.87.87,0,0,0,.15,1.72H240.26V157a.86.86,0,0,0-.86-.87h-.86V153.4A.85.85,0,0,1,239.4,152.54Z"/><path class="cls-3" d="M239.4,162.21a.86.86,0,0,1,0,1.72h-.86v-1.72Z"/><path class="cls-3" d="M239.4,156.08a.87.87,0,0,1,0,1.73h-.86v-1.73Z"/><path class="cls-3" d="M239.4,157.81a.85.85,0,0,0,.86-.86v6.12a.86.86,0,0,0-.86-.86h-.86v-4.4Z"/><path class="cls-3" d="M240.26,164h29c-1.22.57-2.45,1.15-3.71,1.72H239.4a.85.85,0,0,1-.86-.86v-.93h.86a.85.85,0,0,0,.86-.86Z"/><path class="cls-3" d="M238.54,162.21v1.72H219.59a.77.77,0,0,0,.13-.45v-1.27Z"/><rect class="cls-3" x="219.72" y="156.08" width="18.82" height="1.74"/><path class="cls-3" d="M227.8,248.66a2.24,2.24,0,0,1,.07,3.18s-1.88,2-4.25,5.1a52.55,52.55,0,0,1,.39-6.35l3.25-2a1.88,1.88,0,0,0,.23-.16A1.79,1.79,0,0,1,227.8,248.66Z"/><path class="cls-3" d="M225.12,201.38a107.67,107.67,0,0,0-8.53,12.85l-1.26-.71a.94.94,0,0,0,.15-.49.86.86,0,0,0-.87-.86h-2c.49-.88,1-1.74,1.51-2.59a106.73,106.73,0,0,1,6.22-9.3h2.46a.91.91,0,0,0,.61-.25Z"/><path class="cls-3" d="M227.26,248.57l-3.25,2a52.55,52.55,0,0,0-.39,6.35c-.89,1.18-1.85,2.51-2.81,4l-.78-.6a2.27,2.27,0,0,1-.87-1.62c0-.5,0-1,0-1.54s0-1.17,0-1.74a71.42,71.42,0,0,1,5.48-6.67,2.24,2.24,0,0,1,2.86-.32A1.88,1.88,0,0,1,227.26,248.57Z"/><path class="cls-3" d="M223.62,257.4l3,2.34a2.23,2.23,0,0,1,.87,1.6,2.27,2.27,0,0,1-.62,1.72l-2.61,2.77a53.76,53.76,0,0,0,1.39,6.67l3.53,1.48a2.24,2.24,0,0,1,1.11,3.13l-1.82,3.42a54.81,54.81,0,0,0,3.08,6.05l3.8.53a2.23,2.23,0,0,1,1.88,2.74l-.88,3.72a54.63,54.63,0,0,0,4.57,5.06l3.76-.47a2.34,2.34,0,0,1,1.76.52,2.31,2.31,0,0,1,.78,1.65l.1,3.82a63.54,63.54,0,0,0,5.71,3.74l3.57-1.46a2.24,2.24,0,0,1,1.81.05,2.29,2.29,0,0,1,1.19,1.38l1.1,3.68a55.66,55.66,0,0,0,6.43,2.13l3.07-2.34a2.28,2.28,0,0,1,1.77-.42,2.24,2.24,0,0,1,1.5,1l2,3.26a51.51,51.51,0,0,0,6.55.39h.25l2.35-3a2.26,2.26,0,0,1,3.32-.26l2.77,2.62a51.13,51.13,0,0,0,6.66-1.39l1.5-3.53a2.17,2.17,0,0,1,1.31-1.24,2.24,2.24,0,0,1,1.81.13l3.41,1.82a53.1,53.1,0,0,0,6.06-3.08l.52-3.8a2.27,2.27,0,0,1,2.75-1.88l3.71.88a50.8,50.8,0,0,0,5.08-4.55l-.48-3.79a2.26,2.26,0,0,1,2.16-2.53l3.84-.12a63.57,63.57,0,0,0,3.73-5.68l-1.46-3.57a2.29,2.29,0,0,1,.05-1.83,2.22,2.22,0,0,1,1.39-1.17l3.69-1.11A58.21,58.21,0,0,0,338.6,272L336.26,269a2.26,2.26,0,0,1,.6-3.28l3.15-1.95h4.63c-.06.54-.13,1.08-.21,1.61a2.25,2.25,0,0,1-1,1.58l-2.05,1.28,1.49,2a2.23,2.23,0,0,1,.4,1.9,63.13,63.13,0,0,1-3,9.09,2.21,2.21,0,0,1-1.43,1.29l-2.36.71.93,2.28a2.29,2.29,0,0,1-.12,2,62.27,62.27,0,0,1-5.29,8,2.22,2.22,0,0,1-1.69.86l-2.44.08.31,2.38a2.29,2.29,0,0,1-.58,1.82,53.5,53.5,0,0,1-7.24,6.49,2.25,2.25,0,0,1-1.86.38l-2.33-.55-.34,2.42a2.21,2.21,0,0,1-1.05,1.6,58.17,58.17,0,0,1-8.58,4.36,2.28,2.28,0,0,1-1.91-.1L302.1,314l-1,2.24a2.25,2.25,0,0,1-1.41,1.27,55.81,55.81,0,0,1-9.46,2,2.28,2.28,0,0,1-1.83-.6l-1.74-1.65-1.49,1.91a2.27,2.27,0,0,1-1.62.87c-.5,0-1,0-1.53,0a54.45,54.45,0,0,1-8.24-.58,2.26,2.26,0,0,1-1.57-1l-1.28-2-2,1.49a2.25,2.25,0,0,1-1.89.4,58.73,58.73,0,0,1-9.12-3,2.24,2.24,0,0,1-1.27-1.42l-.71-2.33-2.28.93a2.21,2.21,0,0,1-1.94-.12,65.55,65.55,0,0,1-8-5.26,2.26,2.26,0,0,1-.89-1.73l-.06-2.42-2.37.3a2.25,2.25,0,0,1-1.82-.6,60,60,0,0,1-6.48-7.16,2.3,2.3,0,0,1-.39-1.88l.56-2.37-2.42-.34a2.23,2.23,0,0,1-1.61-1.06,58.69,58.69,0,0,1-4.36-8.57,2.26,2.26,0,0,1,.11-1.9l1.16-2.18-2.25-.95a2.24,2.24,0,0,1-1.28-1.41,56.72,56.72,0,0,1-2-9.47,2.27,2.27,0,0,1,.6-1.82l1.65-1.75-1.13-.87c1-1.45,1.92-2.78,2.81-4v.46Z"/><path class="cls-3" d="M223.63,199.42a.87.87,0,0,1-.25.61.91.91,0,0,1-.61.25h-2.46c.42-.58.85-1.16,1.3-1.72h1.16A.86.86,0,0,1,223.63,199.42Z"/><path class="cls-3" d="M215,198.56h6.65c-.45.56-.88,1.14-1.3,1.72h-6.23a.87.87,0,0,0,.88-.86Z"/><path class="cls-3" d="M219.72,162.21v1.27a.77.77,0,0,1-.13.45h-.26a.86.86,0,1,1,0-1.72Z"/><path class="cls-3" d="M219.72,156.08v1.73h-.39a.87.87,0,0,1,0-1.73Z"/><path class="cls-3" d="M212.66,266.13a68.65,68.65,0,0,1,6.49-10.73c0,.57,0,1.14,0,1.74s0,1,0,1.54a2.27,2.27,0,0,0,.87,1.62l.78.6a58.07,58.07,0,0,0-4.08,7.15c-4.12,8.69-11.71,13.87-19,18.88-1.09.75-2.18,1.48-3.25,2.24-1.38,1-2.85,2.1-4.35,3.34h0a2.23,2.23,0,0,0,.57-2.61l-1.2-2.63c.83-.64,1.63-1.23,2.41-1.78,1.09-.76,2.19-1.51,3.29-2.26C202.31,278.33,209.07,273.72,212.66,266.13Z"/><path class="cls-3" d="M219.33,162.21a.86.86,0,1,0,0,1.72h.26a.87.87,0,0,1-.73.41H215v-.86a.88.88,0,0,0-.88-.87H218V157h.48a.86.86,0,0,0,.86.86h.39v4.4Z"/><path class="cls-3" d="M215,198.56v.86a.87.87,0,0,1-.88.86.86.86,0,0,1-.86-.86v-.86Z"/><rect class="cls-3" x="213.22" y="164.34" width="1.74" height="34.22"/><path class="cls-3" d="M215,163.48v.86h-1.74v-.86a.87.87,0,0,1,.86-.87A.88.88,0,0,1,215,163.48Z"/><path class="cls-3" d="M214.61,212.17a.86.86,0,0,1,.87.86.94.94,0,0,1-.15.49.89.89,0,0,1-.72.37h-3c.31-.58.63-1.16,1-1.72Z"/><path class="cls-3" d="M219.33,156.08a.86.86,0,0,0-.86.87H218v-.47h-4v6.13h.06a.87.87,0,0,0-.86.87v.86h-.06a.87.87,0,0,1-.87-.86v-7l.79,0a.86.86,0,0,0,.94-.77.85.85,0,0,0-.77-.94h5.61a.87.87,0,0,1,.86.87v.46Z"/><path class="cls-3" d="M213.25,154.76a.85.85,0,0,1,.77.94.86.86,0,0,1-.94.77l-.79,0v-.82a.87.87,0,0,1,.87-.87h.09Z"/><path class="cls-3" d="M207.43,234c-1.46,4-2.66,7.62-3.81,11.14-3.63,11.09-6.76,20.68-15.84,31.43a2.21,2.21,0,0,1-.86.63v-6.77c6.57-8.77,9.19-16.8,12.42-26.68,1.17-3.57,2.37-7.27,3.87-11.31.12-.31.23-.61.36-.92l1,2.07a.86.86,0,0,0,.78.49,1,1,0,0,0,.37-.08.9.9,0,0,0,.46-.55l1.3.5Z"/><path class="cls-3" d="M208.91,208.55a2.33,2.33,0,1,0-2.32-2.33A2.33,2.33,0,0,0,208.91,208.55Zm0-6.39a4.08,4.08,0,0,1,4.07,4.06,4.06,4.06,0,1,1-4.07-4.06Z"/><path class="cls-3" d="M214.61,213.89a.89.89,0,0,0,.72-.37l1.26.71A130.38,130.38,0,0,0,207.45,234l-1.3-.5a.79.79,0,0,0-.05-.6l-1.68-3.56a136,136,0,0,1,7.2-15.43Z"/><path class="cls-3" d="M205.32,234.11a.86.86,0,0,1-.78-.49l-1-2.07c.27-.75.55-1.49.85-2.23l1.68,3.56a.79.79,0,0,1,.05.6.9.9,0,0,1-.46.55A1,1,0,0,1,205.32,234.11Z"/><path class="cls-3" d="M199.68,206.22a7.67,7.67,0,0,1,7.67-7.66h5.87v.86a.86.86,0,0,0,.86.86h-6.73a5.95,5.95,0,0,0,0,11.89h5.23c-.33.56-.65,1.14-1,1.72h-4.27A7.68,7.68,0,0,1,199.68,206.22Z"/><path class="cls-3" d="M194.75,200.1c1.59-11.12,4.45-30.68,5.7-36.79,1.83-9.08,11.66-8.64,12.71-8.56a.87.87,0,0,0-.87.87v.82c-2.27,0-8.79.49-10.15,7.21-1.24,6.07-4.09,25.59-5.69,36.69a31.07,31.07,0,0,0,2.67,17.72l5.3,11.26c-.3.74-.58,1.48-.85,2.23l-6-12.75A32.81,32.81,0,0,1,194.75,200.1Z"/><path class="cls-3" d="M190.65,289.89a2.23,2.23,0,0,1-.57,2.61,2.15,2.15,0,0,1-.56.36,2.23,2.23,0,0,1-2.65-.6.71.71,0,0,0,0-.29v-2.69c.85-.71,1.7-1.38,2.53-2Z"/><path class="cls-3" d="M186.92,281.69l2.53,5.57c-.83.64-1.68,1.31-2.53,2Z"/><path class="cls-3" d="M189.52,292.86a2.15,2.15,0,0,0,.56-.36h0c-7.19,5.9-15,13.88-15.07,14a2.27,2.27,0,0,1-1.61.68H105.3v-1.66a.65.65,0,0,0-.11-.38l-.07-.09,1.11-2.36h66.24c1.85-1.88,7.19-7.19,12.73-11.94V292a.86.86,0,0,0,1.67.29A2.23,2.23,0,0,0,189.52,292.86Z"/><path class="cls-3" d="M186.92,289.28V292a.71.71,0,0,1,0,.29,2.2,2.2,0,0,1-.32-.51l-.71-1.56Z"/><path class="cls-3" d="M186.92,281.69v7.59l-1.08.91-.64-1.42V277.88Z"/><path class="cls-3" d="M186.92,277.23v4.46l-1.72-3.81v-.66a2,2,0,0,0,.86.18A2.1,2.1,0,0,0,186.92,277.23Z"/><path class="cls-3" d="M186.92,270.46v6.77a2.1,2.1,0,0,1-.86.17,2,2,0,0,1-.86-.18v-4.56C185.8,271.92,186.38,271.19,186.92,270.46Z"/><path class="cls-3" d="M186.55,291.75a2.2,2.2,0,0,0,.32.51.86.86,0,0,1-1.67-.29v-1.23l.64-.55Z"/><path class="cls-3" d="M185.2,288.77l.64,1.42-.64.55Z"/><path class="cls-3" d="M185.2,272.66v4.56a1.44,1.44,0,0,1-.4-.22l-1-2.11a2.2,2.2,0,0,1,.5-1.19Z"/><path class="cls-3" d="M184.8,277a.8.8,0,0,1-.19-.13,2.18,2.18,0,0,1-.77-2Z"/><path class="cls-3" d="M185.2,250.65c-1.43-1.36-8.77-8.06-17.23-10.72l-.94-2.07c10.42,2.67,19.26,11.44,19.64,11.81a.89.89,0,0,1,.25.62v20.17c-.54.73-1.12,1.46-1.72,2.2Z"/><path class="cls-3" d="M165.83,237.58c.4.08.8.18,1.2.28l.94,2.07a23.38,23.38,0,0,0-2.49-.66.86.86,0,0,1-.66-1A.85.85,0,0,1,165.83,237.58Z"/><path class="cls-3" d="M165.48,239.27a23.38,23.38,0,0,1,2.49.66l15.87,35a2.18,2.18,0,0,0,.77,2,.8.8,0,0,0,.19.13l.4.88v10.89l-22.25-49,2-.89A.83.83,0,0,0,165.48,239.27Z"/><path class="cls-3" d="M150.24,223.7a.87.87,0,0,1-.48,1.13,1,1,0,0,1-.32.06.84.84,0,0,1-.8-.54,13.68,13.68,0,0,0-1.54-2.57h2.1A12.75,12.75,0,0,1,150.24,223.7Z"/><path class="cls-3" d="M160.33,223.1l6.7,14.76c-.4-.1-.8-.2-1.2-.28a.85.85,0,0,0-1,.67.83.83,0,0,0,.09.6l-2,.89-6.12-13.47h-7.39v-1.38a1,1,0,0,0,.32-.06.87.87,0,0,0,.48-1.13,12.75,12.75,0,0,0-1-1.92h9.08A2.24,2.24,0,0,1,160.33,223.1Z"/><path class="cls-3" d="M143.12,224.39l-.89,1.88h-1.91l1.23-2.61a.86.86,0,0,1,.78-.5.91.91,0,0,1,.37.08A.88.88,0,0,1,143.12,224.39Z"/><path class="cls-3" d="M148.64,224.35a.84.84,0,0,0,.8.54v1.38h-7.21l.89-1.88a.88.88,0,0,0-.42-1.15.91.91,0,0,0-.37-.08v-1.38h4.77A13.68,13.68,0,0,1,148.64,224.35Z"/><polygon class="cls-3" points="142.24 226.27 106.23 302.68 104.32 302.68 140.32 226.27 142.24 226.27"/><path class="cls-3" d="M132.92,221.78h9.41v1.38a.86.86,0,0,0-.78.5l-1.23,2.61h-6.08l-1.32-1.38a.92.92,0,0,0,.47-.14.86.86,0,0,0,.26-1.19c-.4-.62-.79-1.2-1.2-1.73A2.5,2.5,0,0,1,132.92,221.78Z"/><path class="cls-3" d="M132.19,224.49c-.38-.6-.77-1.16-1.16-1.68a2.23,2.23,0,0,1,1.42-1c.41.53.8,1.11,1.2,1.73a.86.86,0,0,1-.26,1.19.92.92,0,0,1-.47.14A.87.87,0,0,1,132.19,224.49Z"/><path class="cls-3" d="M90.34,295.71,131,222.93l.07-.12c.39.52.78,1.08,1.16,1.68a.87.87,0,0,0,.73.4l1.32,1.38-39,69.85H90.17A2.37,2.37,0,0,1,90.34,295.71Z"/><path class="cls-3" d="M124.82,215.13c1.29.55,4.34,2.22,7.63,6.7a2.23,2.23,0,0,0-1.42,1c-3.84-5.21-7.26-6.23-7.31-6.24a.89.89,0,0,1-.63-.83v-4a.87.87,0,0,1,.84-.86c16.08-.41,22.91,7.2,25.27,10.89h-2.1c-2.57-3.46-8.8-9.17-21.91-9.17h-.37Z"/><polygon class="cls-3" points="106.23 302.68 105.12 305.04 104 303.37 104.32 302.68 106.23 302.68"/><path class="cls-3" d="M104.32,302.68l-.32.69-.41-.6a2.52,2.52,0,0,1,.63-.09Z"/><path d="M104.22,307.17h-.28v-1.42a.92.92,0,0,0,.28.05.89.89,0,0,0,.78-.49l.12-.26.07.09a.65.65,0,0,1,.11.38v1.66Z"/><path class="cls-3" d="M104.22,305.79a.92.92,0,0,1-.28-.05h0l-.58-.85a1.16,1.16,0,0,1,.08-.32l.56-1.19,1.12,1.67-.12.26A.89.89,0,0,1,104.22,305.79Z"/><path d="M104,303.37l-.56,1.19a1.16,1.16,0,0,0-.08.32l-.9-1.34a2.1,2.1,0,0,1,1.13-.77Z"/><path class="cls-3" d="M103.86,305.71a.86.86,0,0,1-.5-.83l.58.85h0A.19.19,0,0,1,103.86,305.71Z"/><path class="cls-3" d="M103.36,304.88a.86.86,0,0,0,.5.83.19.19,0,0,0,.08,0v1.42a2.25,2.25,0,0,1-2-2.23,2.27,2.27,0,0,1,.48-1.39Z"/><path d="M99.31,296.42l4.28,6.35a2.1,2.1,0,0,0-1.13.77l-4.09-6.05H94.5l.76-1.37h3.48A.7.7,0,0,1,99.31,296.42Z"/><path d="M95.26,296.12l-.76,1.37H90.16a2.29,2.29,0,0,1,0-1.37Z"/><path class="cls-3" d="M94.5,297.49l-.24.42a2.24,2.24,0,0,1-2,1.15,2.17,2.17,0,0,1-1.09-.29,2.27,2.27,0,0,1-1-1.28Z"/><path d="M90.17,296.12a2.29,2.29,0,0,0,0,1.37h-1l-11.47,7.8v2.41h26.2v-.54h1.36v1.22a.67.67,0,0,1-.68.68H77.05a.68.68,0,0,1-.69-.68v-3.46a.7.7,0,0,1,.3-.57l12-8.12a.68.68,0,0,1,.38-.12Z"/></svg>