<svg width="10" height="12" viewBox="0 0 10 12" fill="none" xmlns="http://www.w3.org/2000/svg">
<path fill-rule="evenodd" clip-rule="evenodd" d="M5.55941 11.559C6.79942 10.5266 9.66537 7.80133 9.66537 4.66667C9.66537 2.08934 7.57603 0 4.9987 0C2.42137 0 0.332031 2.08934 0.332031 4.66667C0.332031 7.80133 3.19798 10.5266 4.43799 11.559C4.76636 11.8324 5.23104 11.8324 5.55941 11.559ZM5 6.66602C6.10457 6.66602 7 5.77059 7 4.66602C7 3.56145 6.10457 2.66602 5 2.66602C3.89543 2.66602 3 3.56145 3 4.66602C3 5.77059 3.89543 6.66602 5 6.66602Z" fill="#3F2355"/>
</svg>
