<svg width="206" height="57" viewBox="0 0 206 57" fill="none" xmlns="http://www.w3.org/2000/svg">
<path d="M58.3669 36.4989H54.1844V19.3359H65.1087V22.989H58.3669V26.2641H63.7042V29.8542H58.3669V36.4989Z" fill="#3F2355"/>
<path d="M66.7631 21.0364C66.7631 20.4066 67.0128 19.8713 67.4809 19.4304C67.9491 18.9895 68.5109 18.769 69.1352 18.769C69.7906 18.769 70.3525 18.9895 70.7894 19.4304C71.2264 19.8713 71.4761 20.4066 71.4761 21.0364C71.4761 21.6663 71.2576 22.2016 70.7894 22.6425C70.3525 23.0834 69.7906 23.3038 69.1352 23.3038C68.4797 23.3038 67.9491 23.0834 67.4809 22.6425C67.0128 22.2016 66.7631 21.6663 66.7631 21.0364ZM67.2 24.9099V36.4989H71.1328V24.9099H67.2Z" fill="#3F2355"/>
<path d="M77.9995 30.3894V36.4988H74.0668V24.9099H77.9995V26.7364C78.1868 26.0751 78.6237 25.5397 79.2792 25.1933C79.9659 24.8154 80.6213 24.6265 81.2143 24.6265C82.7125 24.6265 83.8674 25.1303 84.6477 26.1066C85.428 27.0828 85.8025 28.4999 85.8025 30.358V36.5303H81.8698V30.4524C81.8698 29.7596 81.6825 29.2557 81.308 28.9093C80.9334 28.5944 80.4965 28.437 79.9971 28.437C79.4665 28.437 78.9983 28.5944 78.5925 28.9093C78.1868 29.2243 77.9995 29.7281 77.9995 30.3894Z" fill="#3F2355"/>
<path d="M96.8514 26.1381V24.8784H100.784V36.4673H96.8514V35.1447C96.1335 36.1839 95.0723 36.6878 93.6677 36.6878C92.1696 36.6878 90.8586 36.1209 89.735 35.0187C88.6114 33.9165 88.0496 32.4364 88.0496 30.6414C88.0496 28.8464 88.6114 27.3662 89.735 26.264C90.8586 25.1303 92.1696 24.595 93.6677 24.595C94.2608 24.595 94.885 24.7209 95.4468 25.0044C96.0399 25.2563 96.508 25.6342 96.8514 26.1381ZM92.7626 29.0038C92.2944 29.4762 92.0447 30.043 92.0447 30.7044C92.0447 31.3657 92.2944 31.9325 92.7626 32.4049C93.2308 32.8773 93.7926 33.1292 94.448 33.1292C95.1035 33.1292 95.6653 32.8773 96.1335 32.4049C96.6017 31.9325 96.8514 31.3657 96.8514 30.7044C96.8514 30.043 96.6017 29.4762 96.1335 29.0038C95.6653 28.5314 95.1035 28.2795 94.448 28.2795C93.7926 28.2795 93.2308 28.5314 92.7626 29.0038Z" fill="#3F2355"/>
<path d="M107.651 30.3894V36.4988H103.718V24.9099H107.651V26.7364C107.838 26.0751 108.275 25.5397 108.93 25.1933C109.586 24.8469 110.272 24.6265 110.865 24.6265C112.364 24.6265 113.519 25.1303 114.299 26.1066C115.079 27.0828 115.454 28.4999 115.454 30.358V36.5303H111.521V30.4524C111.521 29.7596 111.334 29.2557 110.959 28.9093C110.585 28.5944 110.148 28.437 109.648 28.437C109.118 28.437 108.649 28.5944 108.244 28.9093C107.838 29.2243 107.651 29.7281 107.651 30.3894Z" fill="#3F2355"/>
<path d="M125.91 32.027L129.187 33.8535C127.908 35.7745 126.222 36.7193 124.1 36.7193C122.321 36.7193 120.823 36.1524 119.574 35.0502C118.326 33.9165 117.701 32.4679 117.701 30.6729C117.701 28.8778 118.326 27.4292 119.574 26.2955C120.823 25.1618 122.321 24.595 124.1 24.595C126.191 24.595 127.877 25.5397 129.156 27.4607L125.941 29.4132C125.473 28.6574 124.818 28.2795 123.913 28.2795C123.257 28.2795 122.695 28.5314 122.227 29.0038C121.759 29.4762 121.509 30.043 121.509 30.7044C121.509 31.3657 121.759 31.9325 122.227 32.4049C122.695 32.8773 123.257 33.1292 123.913 33.1292C124.755 33.0662 125.411 32.7198 125.91 32.027Z" fill="#3F2355"/>
<path d="M142.608 30.5154C142.608 30.7044 142.577 31.1452 142.546 31.7751H134.306C134.368 32.3104 134.649 32.7198 135.18 33.0662C135.71 33.3812 136.272 33.5386 136.928 33.5386C137.833 33.5386 138.582 33.2237 139.112 32.5624C139.3 32.7198 139.768 33.0662 140.517 33.5701C141.266 34.1055 141.703 34.4204 141.828 34.5149C140.736 35.9635 139.019 36.6878 136.616 36.6878C134.93 36.6878 133.494 36.1209 132.277 34.9872C131.091 33.8535 130.498 32.3734 130.498 30.6099C130.498 28.8464 131.091 27.3977 132.277 26.264C133.463 25.1303 134.899 24.595 136.616 24.595C138.301 24.595 139.737 25.1303 140.86 26.2325C142.015 27.3033 142.608 28.7519 142.608 30.5154ZM134.275 29.5707H138.863C138.707 28.9093 138.395 28.4685 137.926 28.2165C137.458 27.9646 137.021 27.8386 136.584 27.8386C136.335 27.8386 136.054 27.8701 135.773 27.9331C135.492 27.9961 135.211 28.185 134.899 28.4685C134.587 28.7519 134.368 29.1298 134.275 29.5707Z" fill="#3F2355"/>
<path d="M143.826 19.3359H156.435V21.5404H151.285V36.4989H148.976V21.5404H143.826V19.3359Z" fill="#FE5600"/>
<path d="M161.273 30.232V36.4989H159.026V18.5486H161.273V26.6105C161.585 25.9491 162.116 25.4768 162.865 25.1304C163.614 24.7839 164.363 24.6265 165.081 24.6265C166.517 24.6265 167.672 25.0674 168.514 25.9806C169.357 26.8939 169.763 28.1536 169.763 29.7596V36.4674H167.516V29.9171C167.516 28.9723 167.266 28.2165 166.766 27.6812C166.267 27.1143 165.612 26.8624 164.8 26.8624C163.864 26.8624 163.052 27.1458 162.366 27.6812C161.648 28.2165 161.273 29.0668 161.273 30.232Z" fill="#FE5600"/>
<path d="M182.529 36.4989V34.7038C182.154 35.3651 181.592 35.8375 180.843 36.2154C180.094 36.5933 179.314 36.7508 178.471 36.7508C176.848 36.7508 175.475 36.1839 174.32 35.0502C173.196 33.9165 172.603 32.4679 172.603 30.6729C172.603 28.8779 173.165 27.3977 174.32 26.2955C175.443 25.1933 176.848 24.6265 178.471 24.6265C179.314 24.6265 180.094 24.8154 180.843 25.1618C181.592 25.5082 182.154 26.0121 182.497 26.6419V24.8784H184.713V36.4989H182.529ZM182.497 30.6414C182.497 29.4762 182.123 28.5314 181.343 27.8701C180.562 27.1773 179.688 26.8624 178.69 26.8624C177.628 26.8624 176.723 27.2088 176.005 27.9331C175.287 28.6259 174.944 29.5392 174.944 30.6729C174.944 31.8066 175.319 32.7198 176.036 33.4442C176.754 34.1685 177.66 34.5464 178.69 34.5464C179.751 34.5464 180.656 34.2 181.405 33.5071C182.123 32.7828 182.497 31.8381 182.497 30.6414Z" fill="#FE5600"/>
<path d="M191.487 24.8783H193.921V26.7993H191.487V36.4988H189.239V26.7993H187.179V24.8783H189.239V20.501H191.487V24.8783Z" fill="#FE5600"/>
<path d="M26.2491 53.1894C39.419 53.1894 50.0952 42.4175 50.0952 29.1297C50.0952 15.842 39.419 5.07007 26.2491 5.07007C13.0793 5.07007 2.40308 15.842 2.40308 29.1297C2.40308 42.4175 13.0793 53.1894 26.2491 53.1894Z" fill="url(#paint0_linear_318_3)"/>
<path d="M14.3577 30.043L38.1413 17.9187L32.211 38.1994L14.3577 30.043L38.1413 17.9187L14.3577 30.043Z" fill="white"/>
<path d="M23.8151 34.3259L25.5318 35.1447L23.1284 38.6403L23.8151 34.3259Z" fill="#A97C57"/>
<path d="M20.8811 33.0032L37.9853 18.0762L23.815 34.3259L23.1284 38.6403L20.8811 33.0032Z" fill="#E9DDD4"/>
<defs>
<linearGradient id="paint0_linear_318_3" x1="10.7545" y1="43.09" x2="46.5994" y2="11.3535" gradientUnits="userSpaceOnUse">
<stop stop-color="#E32738"/>
<stop offset="0.0549275" stop-color="#E72D30"/>
<stop offset="0.23" stop-color="#F03E1B"/>
<stop offset="0.425" stop-color="#F6490C"/>
<stop offset="0.654" stop-color="#FA5003"/>
<stop offset="1" stop-color="#FB5200"/>
</linearGradient>
</defs>
</svg>
