<svg width="24" height="20" viewBox="0 0 24 20" fill="none" xmlns="http://www.w3.org/2000/svg">
<path d="M21.2336 0.967773H9.36423C7.97951 0.967773 6.85288 2.09431 6.85288 3.47913V6.49279H2.51135C1.12654 6.49269 0 7.61928 0 9.00405V14.2135C0 15.3538 0.763827 16.319 1.80684 16.6243V18.9729C1.80684 19.248 1.96707 19.4981 2.21714 19.613C2.31119 19.6563 2.41155 19.6774 2.51117 19.6774C2.67641 19.6774 2.83984 19.6192 2.97007 19.5075L6.21255 16.7248H12.1565C13.5412 16.7248 14.6678 15.5982 14.6678 14.2135V12.68H16.9316L20.4519 15.9402C20.5847 16.0633 20.7565 16.1279 20.9307 16.1279C21.0259 16.1279 21.1219 16.1086 21.2125 16.0689C21.4691 15.9568 21.635 15.7034 21.635 15.4233V12.648C22.8297 12.4553 23.7449 11.4168 23.7449 10.1687V3.47913C23.7449 2.09436 22.6184 0.967773 21.2336 0.967773ZM13.2589 14.2135C13.2589 14.8213 12.7643 15.3158 12.1565 15.3158H5.95177C5.78343 15.3158 5.62074 15.3761 5.49297 15.4857L3.21582 17.4399V16.0203C3.21582 15.6313 2.90041 15.3158 2.51135 15.3158C1.90349 15.3158 1.40898 14.8213 1.40898 14.2135V9.00405C1.40898 8.39623 1.90349 7.90167 2.51135 7.90167H6.85288V10.1687C6.85288 11.5534 7.97946 12.6801 9.36423 12.6801H13.2589V14.2135ZM22.336 10.1687C22.336 10.7765 21.8415 11.2711 21.2336 11.2711H20.9305C20.5414 11.2711 20.226 11.5865 20.226 11.9756V13.8107L17.6864 11.4586C17.5561 11.338 17.3852 11.271 17.2077 11.271H9.36423C8.75641 11.271 8.26185 10.7765 8.26185 10.1686V3.47913C8.26185 2.87131 8.75637 2.37675 9.36423 2.37675H21.2336C21.8414 2.37675 22.336 2.87127 22.336 3.47913V10.1687Z" fill="#644E77"/>
<path d="M19.3781 4.82764H11.202C10.813 4.82764 10.4976 5.14305 10.4976 5.5321C10.4976 5.92116 10.813 6.23657 11.202 6.23657H19.3781C19.7672 6.23657 20.0826 5.92116 20.0826 5.5321C20.0826 5.14305 19.7672 4.82764 19.3781 4.82764Z" fill="#644E77"/>
<path d="M19.3781 7.73975H11.202C10.813 7.73975 10.4976 8.05516 10.4976 8.44421C10.4976 8.83327 10.813 9.14868 11.202 9.14868H19.3781C19.7672 9.14868 20.0826 8.83327 20.0826 8.44421C20.0826 8.05516 19.7672 7.73975 19.3781 7.73975Z" fill="#644E77"/>
</svg>
