<svg width="25" height="23" viewBox="0 0 25 23" fill="none" xmlns="http://www.w3.org/2000/svg">
<path d="M6.25 22.4375C6.13516 22.4375 6.01953 22.4117 5.91094 22.3602C5.64141 22.2297 5.46875 21.957 5.46875 21.6562V17.75H3.125C1.83281 17.75 0.78125 16.6984 0.78125 15.4062V2.90625C0.78125 1.61406 1.83281 0.5625 3.125 0.5625H21.875C23.1672 0.5625 24.2188 1.61406 24.2188 2.90625V15.4062C24.2188 16.6984 23.1672 17.75 21.875 17.75H12.3836L6.73828 22.2664C6.59688 22.3797 6.42422 22.4375 6.25 22.4375ZM3.125 2.125C2.69375 2.125 2.34375 2.47578 2.34375 2.90625V15.4062C2.34375 15.8367 2.69375 16.1875 3.125 16.1875H6.25C6.68203 16.1875 7.03125 16.5367 7.03125 16.9688V20.0312L11.6211 16.3586C11.7602 16.2477 11.9312 16.1875 12.1094 16.1875H21.875C22.3062 16.1875 22.6562 15.8367 22.6562 15.4062V2.90625C22.6562 2.47578 22.3062 2.125 21.875 2.125H3.125Z" fill="#644E77"/>
<path d="M18.75 8.375H6.25C5.81797 8.375 5.46875 8.025 5.46875 7.59375C5.46875 7.1625 5.81797 6.8125 6.25 6.8125H18.75C19.182 6.8125 19.5312 7.1625 19.5312 7.59375C19.5312 8.025 19.182 8.375 18.75 8.375Z" fill="#644E77"/>
<path d="M12.5 11.5H6.25C5.81797 11.5 5.46875 11.15 5.46875 10.7188C5.46875 10.2875 5.81797 9.9375 6.25 9.9375H12.5C12.932 9.9375 13.2812 10.2875 13.2812 10.7188C13.2812 11.15 12.932 11.5 12.5 11.5Z" fill="#644E77"/>
</svg>
