<svg id="Layer_1" data-name="Layer 1" xmlns="http://www.w3.org/2000/svg" viewBox="0 0 571.71 383.86"><defs><style>.cls-1{fill:#dedfe0;}.cls-2{fill:#3f2355;}.cls-3{fill:#fff;}</style></defs><ellipse class="cls-1" cx="382.92" cy="323.63" rx="106.74" ry="6.45"/><ellipse class="cls-1" cx="130.71" cy="323.63" rx="48.66" ry="6.45"/><path class="cls-2" d="M473.52,168.54c3.05,4,10.13,15.7,9.76,38.69-.43,27-3.07,49.7-31.26,54.1l-.12,0-4.4.43-.12-1.22a.9.9,0,0,0,.68-.32,9.57,9.57,0,0,0,1.5-2.9l1.87-.18c22.75-3.58,27.16-19.65,27.64-50,.34-21.67-6.11-32.43-8.9-36.06a5.17,5.17,0,0,1-.7-5.05c.88-2.12,1.54-6,2.36-13.82,1-9.53,1.68-61.72,1.69-62.25a1.87,1.87,0,0,1,0-.34c0,.5,0,.78,0,.8a2.12,2.12,0,0,0,1.94,2.27h.16a2.11,2.11,0,0,0,2.1-1.94.46.46,0,0,1,0-.1c-.09,6.29-.73,52.75-1.71,62-.87,8.35-1.6,12.41-2.64,15A.86.86,0,0,0,473.52,168.54Z"/><path class="cls-1" d="M470.17,171.11c2.79,3.63,9.24,14.39,8.9,36.06-.48,30.34-4.89,46.41-27.64,50l-1.87.18c1.42-3.9,2.66-10.94,3.76-21.27,6.29-1.71,6.58-8.9,6.87-15.88.07-1.85.15-3.76.33-5.62.85-8.86,3.44-25.25,7.05-34a28,28,0,0,0,2.39-6.12,3.79,3.79,0,0,0-.66-3.2Z"/><path class="cls-2" d="M477.74,90.05a2.11,2.11,0,0,0-2.09-2.13h0a2.11,2.11,0,0,0-2.08,1.73,68.53,68.53,0,0,0-2.13-20c-3.69-13.45-11.44-20.82-23-21.9-.11,0-14.35-1.1-20.28-1.19h.07l.2,0a.73.73,0,0,0,.2-.05.84.84,0,0,0,.2-.08.71.71,0,0,0,.18-.08,2.21,2.21,0,0,0,.85-.84,1.42,1.42,0,0,0,.08-.18.73.73,0,0,0,.07-.19.54.54,0,0,0,0-.21.65.65,0,0,0,0-.2,1.36,1.36,0,0,0,0-.2v0a.91.91,0,0,0,0-.17.75.75,0,0,0,0-.2,1.42,1.42,0,0,0,0-.2,1.66,1.66,0,0,0-.14-.37,1,1,0,0,0-.1-.17.57.57,0,0,0-.11-.16.44.44,0,0,0-.12-.15.93.93,0,0,0-.14-.14.53.53,0,0,0-.14-.12.57.57,0,0,0-.16-.11.56.56,0,0,0-.2-.11l-.15-.07a1,1,0,0,0-.21-.08,3.43,3.43,0,0,0-.34-.06H428c5.95.06,20.16,1.15,20.77,1.2,13.38,1.25,22.62,9.92,26.75,25.08a72.9,72.9,0,0,1,2.22,22C477.74,90.35,477.74,90.15,477.74,90.05Z"/><path class="cls-2" d="M475.65,87.92a2.11,2.11,0,0,1,2.09,2.13c0,.1,0,.3,0,.61v0a.46.46,0,0,0,0,.1,2.11,2.11,0,0,1-2.1,1.94h-.16a2.12,2.12,0,0,1-1.94-2.27s0-.3,0-.8a2.11,2.11,0,0,1,2.08-1.73Z"/><path class="cls-2" d="M459.59,271.2a21.44,21.44,0,0,1,2.89,42.69l-.16-1.26a.84.84,0,0,0,.68-1l-.37-2.07a17.22,17.22,0,0,0-3-34.18h-.77V273.3a.84.84,0,0,0-.84-.84V271.2Z"/><path class="cls-3" d="M471.42,69.66a68.53,68.53,0,0,1,2.13,20,1.87,1.87,0,0,0,0,.34c0,.53-.68,52.72-1.69,62.25-.82,7.82-1.48,11.7-2.36,13.82a5.17,5.17,0,0,0,.7,5.05l-.87.14a3.84,3.84,0,0,0-3-1.53l-19.91-.59a3.39,3.39,0,0,0-3.4,2.66c-1.24,5.87-5.39,25.6-6.66,33.21a167.6,167.6,0,0,1-7.86,30.32h-.08l-33.57,3.39-9.26.94-8-1.85c.06-5.87.2-11.82.39-17.69v0c.23-7,.54-13.69.91-19.94l2.1.14a1.85,1.85,0,0,0,2.28-1.33,0,0,0,0,1,0,0,2,2,0,0,0-1.53-2.36H380c1-16.54,2.59-33,4.65-48.9.26-1.95.51-3.88.78-5.81,1.86-13.48,4-26.59,6.88-41.23a2.3,2.3,0,0,0,0-.26h0a1.85,1.85,0,0,0,.68-3.61q1.08-5.4,2-10.13l.85-4.23a63.89,63.89,0,0,1,3.3-11.78.19.19,0,0,0,0-.08,46.65,46.65,0,0,1,5-9.47c7.08-10.12,16.36-13.59,21.55-14.32l2.26-.17h0c5.93.09,20.17,1.18,20.28,1.19C460,48.84,467.73,56.21,471.42,69.66Zm.2,47.2c.41-7.67.9-27.54-.13-40.08A33.11,33.11,0,0,0,465.9,60.7a24.76,24.76,0,0,0-15.61-10.26,1.76,1.76,0,0,0-1.44.32,1.79,1.79,0,0,0-.71,1.31c-.32,5-1.18,29.22-1.81,46.89L446,109.17c-.53,14.78-1,43.22-1.2,51.59a3.12,3.12,0,0,0,2.91,3.18c3.56.24,12.39.85,17.54,1.4l.45,0a4,4,0,0,0,4-3.79c.29-5.49.77-16.84,1.2-26.87C471.18,126.59,471.48,119.57,471.62,116.86ZM444,59.69a2.83,2.83,0,0,0-2.32-2.88l-.64-.12c-6.06-1.12-22.16-4.1-29.89,9.4-5.41,9.47-6.92,18.39-8.83,29.69-.51,3.07-1,6.25-1.71,9.7-2.05,10.77-6.7,41.9-7.06,51.2a4,4,0,0,0,2.67,4.12c5.83,1.85,8.47,5.51,8.82,12.21a.9.9,0,0,0,.32.64.92.92,0,0,0,.57.2H406l27-3.42a8.17,8.17,0,0,0,7.16-7.83Zm-5.88,119.8a3.39,3.39,0,0,0-4.13-4l-27.54,6.91a3.67,3.67,0,0,0-2.65,2.6c-2.08,7.84-5.43,11.81-10.26,12.15a.87.87,0,0,0-.81.75,156.31,156.31,0,0,0-2.26,23.8,4.24,4.24,0,0,0,1.27,3.1,4.14,4.14,0,0,0,2.9,1.19h.17c10.52-.41,20.7-1.11,30.25-2.09a5.4,5.4,0,0,0,4.77-4.33Zm-37.14,6.59c.41-4.49.62-8.62.62-12.28a3.69,3.69,0,0,0-1.14-2.66,3.73,3.73,0,0,0-2.74-1l-3.66.17a3.72,3.72,0,0,0-3.43,2.92,39.2,39.2,0,0,0-.87,13.53,3.71,3.71,0,0,0,3.67,3.24l.5,0,3.87-.53A3.7,3.7,0,0,0,400.94,186.08Z"/><path class="cls-1" d="M459.59,275.41a17.22,17.22,0,0,1,3,34.18l-.48-2.69a.84.84,0,0,0-.83-.69l-.15-1.26a12.42,12.42,0,0,0-1.57-24.73,10.91,10.91,0,0,0-1.29.07l-.16-1.34a.86.86,0,0,0,.67-.83v-2.71Z"/><path class="cls-2" d="M471.49,76.78c1,12.54.54,32.41.13,40.08-.14,2.71-.44,9.73-.78,17.85-.43,10-.91,21.38-1.2,26.87a4,4,0,0,1-4,3.79l-.45,0c-5.15-.55-14-1.16-17.54-1.4a3.12,3.12,0,0,1-2.91-3.18c.15-8.37.67-36.81,1.2-51.59L446.33,99c.63-17.67,1.49-41.86,1.81-46.89a1.79,1.79,0,0,1,.71-1.31,1.76,1.76,0,0,1,1.44-.32A24.76,24.76,0,0,1,465.9,60.7,33.11,33.11,0,0,1,471.49,76.78Zm-1.66,40c.4-7.63.9-27.39-.13-39.84-.84-10.12-6.48-21.92-19.77-24.73-.32,5-1.18,29.18-1.81,46.82l-.36,10.22c-.53,14.77-1.06,43.2-1.21,51.56a1.33,1.33,0,0,0,1.24,1.36c3.57.23,12.43.85,17.62,1.41a2.18,2.18,0,0,0,2.43-2.07c.29-5.48.78-16.84,1.2-26.86C469.39,126.5,469.68,119.49,469.83,116.76Z"/><path class="cls-2" d="M469.3,171.25a3.79,3.79,0,0,1,.66,3.2,28,28,0,0,1-2.39,6.12c-3.61,8.75-6.2,25.14-7.05,34-.18,1.86-.26,3.77-.33,5.62-.29,7-.58,14.17-6.87,15.88,0-.21.05-.43.07-.64a.9.9,0,0,0-.8-1,.7.7,0,0,0-.25,0c5.23-1,5.73-6.24,6.05-14.33.08-1.88.16-3.82.34-5.72.86-9,3.5-25.58,7.22-34.58a27,27,0,0,0,2.27-5.8,2,2,0,0,0-.35-1.69,2,2,0,0,0-1.59-.81l-19.9-.6h-.06a1.56,1.56,0,0,0-1.54,1.25c-1.24,5.85-5.38,25.55-6.64,33.13a168.66,168.66,0,0,1-8,30.68,2.14,2.14,0,0,0-1.67-.66A167.6,167.6,0,0,0,436.37,205c1.27-7.61,5.42-27.34,6.66-33.21a3.39,3.39,0,0,1,3.4-2.66l19.91.59A3.84,3.84,0,0,1,469.3,171.25Z"/><path class="cls-3" d="M469.7,76.92c1,12.45.53,32.21.13,39.84-.15,2.73-.44,9.74-.79,17.87-.42,10-.91,21.38-1.2,26.86a2.18,2.18,0,0,1-2.43,2.07c-5.19-.56-14.05-1.18-17.62-1.41a1.33,1.33,0,0,1-1.24-1.36c.15-8.36.68-36.79,1.21-51.56L448.12,99c.63-17.64,1.49-41.81,1.81-46.82C463.22,55,468.86,66.8,469.7,76.92Z"/><path class="cls-2" d="M459.6,280.22A12.42,12.42,0,0,1,461.17,305a11.72,11.72,0,0,1-1.57.1,12.41,12.41,0,0,1-1.29-24.76A10.91,10.91,0,0,1,459.6,280.22Zm10.72,12.42a10.73,10.73,0,1,0-10.72,10.73A10.74,10.74,0,0,0,470.32,292.64Z"/><path class="cls-3" d="M467.87,172.33a2,2,0,0,1,.35,1.69,27,27,0,0,1-2.27,5.8c-3.72,9-6.36,25.61-7.22,34.58-.18,1.9-.26,3.84-.34,5.72-.32,8.09-.82,13.28-6.05,14.33h0a11.11,11.11,0,0,1-1.25.17c-7.17.5-16.63,1.36-20.62,1.73a1.59,1.59,0,0,0-.27-.37,168.66,168.66,0,0,0,8-30.68c1.26-7.58,5.4-27.28,6.64-33.13a1.56,1.56,0,0,1,1.54-1.25h.06l19.9.6A2,2,0,0,1,467.87,172.33Z"/><path class="cls-3" d="M459.6,281.91a10.73,10.73,0,1,1-10.74,10.73A10.74,10.74,0,0,1,459.6,281.91ZM466,292.64A6.36,6.36,0,1,0,459.6,299,6.36,6.36,0,0,0,466,292.64Z"/><path class="cls-2" d="M459.6,286.28a6.36,6.36,0,1,1-6.36,6.36A6.36,6.36,0,0,1,459.6,286.28Zm4.67,6.36a4.67,4.67,0,1,0-4.67,4.67A4.68,4.68,0,0,0,464.27,292.64Z"/><circle class="cls-1" cx="459.6" cy="292.64" r="4.67"/><path class="cls-2" d="M463,311.66a.84.84,0,0,1-.68,1h-.15a.84.84,0,0,1-.83-.69l-.39-2.14a13.3,13.3,0,0,0,1.68-.22Z"/><path class="cls-2" d="M462.15,306.9l.48,2.69a13.3,13.3,0,0,1-1.68.22l-.46-2.61a.84.84,0,0,1,.68-1h.15A.84.84,0,0,1,462.15,306.9Z"/><path class="cls-2" d="M462.32,312.63l.16,1.26a21.15,21.15,0,0,1-2.89.19H417v-1.26a.84.84,0,0,0,.84-.84v-2.11h41.78c.45,0,.91,0,1.36-.06l.39,2.14a.84.84,0,0,0,.83.69Z"/><path class="cls-1" d="M461.17,305l.15,1.26h-.15a.84.84,0,0,0-.68,1l.46,2.61c-.45,0-.91.06-1.36.06H417.81v-2.71a.84.84,0,0,0-1.68,0v2.71h-39v-2.71a.84.84,0,1,0-1.68,0v2.71H331.47v-2.71a.85.85,0,0,0-1.69,0v2.71h-16a17,17,0,0,1-7.57-1.76l1.9-1.73a.85.85,0,0,0-1.13-1.26l-2.33,2.12a17.24,17.24,0,0,1-8.1-14.6,17.72,17.72,0,0,1,.55-4.33,17.26,17.26,0,0,1,12.71-12.43v2.58a.84.84,0,0,0,1.68,0v-2.89a15.83,15.83,0,0,1,2.29-.16h25.18v2.71a.84.84,0,0,0,.84.84.85.85,0,0,0,.85-.84v-2.71h40v2.71a.84.84,0,0,0,1.68,0v-2.71h38v2.71a.85.85,0,0,0,1.69,0v-2.71h35.21v2.71a.84.84,0,0,0,.84.84h.17l.16,1.34a12.41,12.41,0,0,0,1.29,24.76A11.72,11.72,0,0,0,461.17,305ZM444,297V288.6a6.7,6.7,0,0,0-6.68-6.68H309.77a6.69,6.69,0,0,0-6.68,6.68V297a6.68,6.68,0,0,0,6.68,6.67h127.5A6.69,6.69,0,0,0,444,297Z"/><path class="cls-2" d="M458.82,275.41v2.71a.86.86,0,0,1-.67.83H458a.84.84,0,0,1-.84-.84v-2.71Z"/><path class="cls-2" d="M458.82,273.3v2.11h-1.68V273.3a.84.84,0,0,1,1.68,0Z"/><path class="cls-2" d="M458,271.2v1.26a.83.83,0,0,0-.84.84v2.11H442.83v-1.52a.59.59,0,0,0,.59-.59v-2.1Z"/><path class="cls-2" d="M452.59,234.44a.9.9,0,0,1,.8,1c0,.21,0,.43-.07.64a11,11,0,0,1-1.84.32l.12-1.16a.92.92,0,0,1,.72-.78h0A.7.7,0,0,1,452.59,234.44Z"/><path class="cls-2" d="M451.48,236.39a11,11,0,0,0,1.84-.32c-1.1,10.33-2.34,17.37-3.76,21.27l-2,.19C448.71,254.87,450.11,249,451.48,236.39Z"/><path class="cls-2" d="M451.07,234.62a11.11,11.11,0,0,0,1.25-.17.92.92,0,0,0-.72.78l-.12,1.16-.28,0c-7.15.5-16.6,1.36-20.58,1.72a1.89,1.89,0,0,0,.12-.92,2,2,0,0,0-.29-.86C434.44,236,443.9,235.12,451.07,234.62Z"/><path class="cls-1" d="M451.2,236.41l.28,0c-1.37,12.6-2.77,18.48-3.91,21.14l-4.9.46c-2.92.27-5.2.46-7.09.63-4.51.39-6.78.59-10.28,1.09-1.11.16-2.82.47-5,.87-6.33,1.14-17.15,3.09-27.53,3.88,1.7-4.1,2.66-11,3-21.6l33.07-3.34a2.09,2.09,0,0,0,1.77-1.39C434.6,237.77,444.05,236.91,451.2,236.41Zm-5,8.88a2.68,2.68,0,0,0-3-3l-27,3.51-7.94,1a2.67,2.67,0,0,0-2.31,2.3l-.68,5.12a2.69,2.69,0,0,0,2.64,3,2.33,2.33,0,0,0,.38,0l7.61-1a1,1,0,0,0,.48.13.88.88,0,0,0,.66-.29l26.35-3.65a2.67,2.67,0,0,0,2.29-2.35Z"/><path class="cls-2" d="M447.57,257.53l2-.19a9.57,9.57,0,0,1-1.5,2.9.9.9,0,0,1-.68.32.87.87,0,0,1-.58-.21.9.9,0,0,1-.1-1.26A6,6,0,0,0,447.57,257.53Z"/><path class="cls-2" d="M447.38,260.56l.12,1.22-4.08.38v-1.93a.6.6,0,0,0-.59-.59l-.16-1.65,4.9-.46a6,6,0,0,1-.87,1.56.9.9,0,0,0,.1,1.26A.87.87,0,0,0,447.38,260.56Z"/><path class="cls-2" d="M445.46,243.07a2.71,2.71,0,0,1,.78,2.22l-.56,4.78a2.67,2.67,0,0,1-2.29,2.35L417,256.07a.92.92,0,0,0,.23-.61v-1.23l25.88-3.59a.87.87,0,0,0,.75-.77l.55-4.79a.84.84,0,0,0-.25-.72.83.83,0,0,0-.73-.25l-26.2,3.39v-.79a.9.9,0,0,0-.89-.9l-.18,0,27-3.51A2.68,2.68,0,0,1,445.46,243.07Z"/><path class="cls-3" d="M444.2,244.36a.84.84,0,0,1,.25.72l-.55,4.79a.87.87,0,0,1-.75.77l-25.88,3.59V247.5l26.2-3.39A.83.83,0,0,1,444.2,244.36Z"/><path class="cls-2" d="M441.64,56.81A2.83,2.83,0,0,1,444,59.69L440.17,162.6a8.17,8.17,0,0,1-7.16,7.83l-27,3.42h-.12a.92.92,0,0,1-.57-.2A.9.9,0,0,1,405,173c-.35-6.7-3-10.36-8.82-12.21a4,4,0,0,1-2.67-4.12c.36-9.3,5-40.43,7.06-51.2.66-3.45,1.2-6.63,1.71-9.7,1.91-11.3,3.42-20.22,8.83-29.69,7.73-13.5,23.83-10.52,29.89-9.4Zm.53,2.81a1,1,0,0,0-.85-1l-.65-.12A52.38,52.38,0,0,0,431,57.38c-6.46,0-13.89,1.83-18.34,9.61-5.25,9.18-6.74,18-8.62,29.09-.52,3.08-1.06,6.27-1.72,9.74-2,10.73-6.67,41.71-7,50.92a2.25,2.25,0,0,0,1.42,2.35c6.28,2,9.39,6,10,12.86l26-3.3a6.37,6.37,0,0,0,5.59-6.11Z"/><path class="cls-2" d="M444,288.6V297a6.69,6.69,0,0,1-6.68,6.67H309.77a6.68,6.68,0,0,1-6.68-6.67V288.6a6.69,6.69,0,0,1,6.68-6.68h127.5A6.7,6.7,0,0,1,444,288.6ZM442.18,297V288.6a4.92,4.92,0,0,0-4.91-4.92H309.77a4.93,4.93,0,0,0-4.92,4.92V297a4.93,4.93,0,0,0,4.92,4.91h127.5A4.92,4.92,0,0,0,442.18,297Z"/><path d="M443.42,271.2v2.1a.6.6,0,0,1-1.19,0v-2.1Z"/><path d="M443.42,262.16v9h-1.19v-8.93Z"/><path d="M443.42,260.23v1.93l-1.19.11v-2a.6.6,0,0,1,1.19,0Z"/><path class="cls-2" d="M442.83,273.89v1.52h-20.9V273.3a.84.84,0,0,0-.84-.84V271.2h21.14v2.1A.59.59,0,0,0,442.83,273.89Z"/><path class="cls-2" d="M442.67,258l.16,1.65a.6.6,0,0,0-.6.59v2l-6.29.55c-4.43.38-6.66.58-10,1.07-1.05.15-2.73.45-4.87.84-6.91,1.25-19.1,3.45-30.49,4.1l-.06-1.25a.92.92,0,0,0,.69-.32,10.51,10.51,0,0,0,1.59-2.8c10.38-.79,21.2-2.74,27.53-3.88,2.18-.4,3.89-.71,5-.87,3.5-.5,5.77-.7,10.28-1.09C437.47,258.45,439.75,258.26,442.67,258Z"/><path class="cls-3" d="M442.18,288.6V297a4.92,4.92,0,0,1-4.91,4.91H309.77a4.93,4.93,0,0,1-4.92-4.91V288.6a4.93,4.93,0,0,1,4.92-4.92h127.5A4.92,4.92,0,0,1,442.18,288.6Z"/><path class="cls-3" d="M441.32,58.57a1,1,0,0,1,.85,1l-3.8,102.92a6.37,6.37,0,0,1-5.59,6.11l-26,3.3c-.61-6.88-3.72-10.86-10-12.86a2.25,2.25,0,0,1-1.42-2.35c.35-9.21,5-40.19,7-50.92.66-3.47,1.2-6.66,1.72-9.74C405.93,85,407.42,76.17,412.67,67c4.45-7.78,11.88-9.61,18.34-9.61a52.38,52.38,0,0,1,9.66,1.07Z"/><path class="cls-2" d="M437.11,176.37a3.37,3.37,0,0,1,1,3.12l-8.29,40.1a5.4,5.4,0,0,1-4.77,4.33c-9.55,1-19.73,1.68-30.25,2.09h-.17a4.14,4.14,0,0,1-2.9-1.19,4.24,4.24,0,0,1-1.27-3.1,156.31,156.31,0,0,1,2.26-23.8.87.87,0,0,1,.81-.75c4.83-.34,8.18-4.31,10.26-12.15a3.67,3.67,0,0,1,2.65-2.6L434,175.52A3.38,3.38,0,0,1,437.11,176.37Zm-.79,2.75a1.58,1.58,0,0,0-1.94-1.85l-27.53,6.9a1.84,1.84,0,0,0-1.36,1.32c-2.16,8.19-5.91,12.7-11.15,13.41a156,156,0,0,0-2.12,22.87,2.42,2.42,0,0,0,.74,1.77,2.33,2.33,0,0,0,1.73.68c10.49-.41,20.64-1.11,30.14-2.08a3.63,3.63,0,0,0,3.2-2.91Z"/><path class="cls-3" d="M435.86,177.66a1.55,1.55,0,0,1,.46,1.46L428,219.23a3.63,3.63,0,0,1-3.2,2.91c-9.5,1-19.65,1.67-30.14,2.08a2.33,2.33,0,0,1-1.73-.68,2.42,2.42,0,0,1-.74-1.77,156,156,0,0,1,2.12-22.87c5.24-.71,9-5.22,11.15-13.41a1.84,1.84,0,0,1,1.36-1.32l27.53-6.9A1.55,1.55,0,0,1,435.86,177.66Z"/><path class="cls-2" d="M430.74,237.21a1.89,1.89,0,0,1-.12.92l-1.89.19h-.09a.93.93,0,0,1-.72-.37.91.91,0,0,1-.1-.89s.26-.62.69-1.75a2.14,2.14,0,0,1,1.67.66l-.16.42.43-.05A2,2,0,0,1,430.74,237.21Z"/><path class="cls-2" d="M430.45,236.35l-.43.05.16-.42A1.59,1.59,0,0,1,430.45,236.35Z"/><path class="cls-2" d="M430.07,44.31a.91.91,0,0,1,0,.17v0a1.36,1.36,0,0,1,0,.2.65.65,0,0,1,0,.2.8.8,0,0,1,0,.21.73.73,0,0,1-.07.19l-.08.18a2.21,2.21,0,0,1-.85.84l-.18.08a.84.84,0,0,1-.2.08l-.2.05-.2,0h-.31a2.09,2.09,0,0,1-2-2.12,2.13,2.13,0,0,1,1.79-2.08h.54a3.43,3.43,0,0,1,.34.06,1,1,0,0,1,.21.08l.15.07a.56.56,0,0,1,.2.11.76.76,0,0,1,.16.11l.14.12a.93.93,0,0,1,.14.14.44.44,0,0,1,.12.15l.11.16a1,1,0,0,1,.1.17,1.66,1.66,0,0,1,.14.37,1.42,1.42,0,0,1,0,.2Z"/><path class="cls-2" d="M430.06,44.7a1.36,1.36,0,0,0,0-.2A1.36,1.36,0,0,1,430.06,44.7Z"/><path class="cls-2" d="M430,44.11a.75.75,0,0,1,0,.2Z"/><path class="cls-2" d="M430,44.11a1.42,1.42,0,0,0,0-.2A1.42,1.42,0,0,1,430,44.11Z"/><path class="cls-2" d="M430,45.11a.8.8,0,0,0,0-.21A.54.54,0,0,1,430,45.11Z"/><path class="cls-2" d="M430,43.91a1.66,1.66,0,0,0-.14-.37A1.66,1.66,0,0,1,430,43.91Z"/><path class="cls-2" d="M429.82,45.48l.08-.18A1.42,1.42,0,0,1,429.82,45.48Z"/><path class="cls-2" d="M429.76,43.37l-.11-.16A.57.57,0,0,1,429.76,43.37Z"/><path class="cls-2" d="M429.53,43.06a.93.93,0,0,0-.14-.14A.93.93,0,0,1,429.53,43.06Z"/><path class="cls-2" d="M429.39,42.92l-.14-.12A.53.53,0,0,1,429.39,42.92Z"/><path class="cls-2" d="M429.25,42.8a.76.76,0,0,0-.16-.11A.57.57,0,0,1,429.25,42.8Z"/><path class="cls-2" d="M430.62,238.13a2.09,2.09,0,0,1-1.77,1.39l-33.07,3.34q0-1.1.06-2.25a.9.9,0,0,0-.88-.92l-.1-1,33.57-3.39h.08c-.43,1.13-.69,1.72-.69,1.75a.91.91,0,0,0,.1.89.93.93,0,0,0,.72.37h.09Z"/><path class="cls-2" d="M428.79,46.4l.18-.08A.71.71,0,0,1,428.79,46.4Z"/><path class="cls-2" d="M428.89,42.58l-.15-.07Z"/><path class="cls-2" d="M428.39,46.53l.2-.05A.73.73,0,0,1,428.39,46.53Z"/><path class="cls-2" d="M428.19,42.37a3.43,3.43,0,0,1,.34.06A3.43,3.43,0,0,0,428.19,42.37Z"/><path class="cls-2" d="M428.19,46.56l.2,0Z"/><path class="cls-2" d="M428.19,46.56h0Z"/><path class="cls-2" d="M428.09,46.57l-2.26.17a13.83,13.83,0,0,1,2.05-.17h.21Z"/><path class="cls-2" d="M427.78,42.37h0Z"/><path class="cls-2" d="M427.65,42.37l-1.27.1C427,42.41,427.38,42.38,427.65,42.37Z"/><path class="cls-2" d="M426.38,42.47l1.27-.1a2.13,2.13,0,0,0-1.79,2.08,2.09,2.09,0,0,0,2,2.12,13.83,13.83,0,0,0-2.05.17l-13.92,1a34.6,34.6,0,0,1,14.43-5.27Z"/><path class="cls-2" d="M355.55,47.64l70.79-5.16a34.6,34.6,0,0,0-14.43,5.27l-56.05,4.09A21.71,21.71,0,0,0,338,64c-.13.29-.29.61-.45.94l-.08.17a2.25,2.25,0,0,1-.37.54h-.46l-.7-6.29a.58.58,0,0,0,0-.19A26,26,0,0,1,355.55,47.64Z"/><path class="cls-2" d="M411.91,47.75l13.92-1c-5.19.73-14.47,4.2-21.55,14.32l-1.67,0a.92.92,0,0,0-.12-1,6.32,6.32,0,0,0-1.7-1.46A39.11,39.11,0,0,1,411.91,47.75Z"/><path class="cls-2" d="M421.93,275.41v2.71a.85.85,0,0,1-1.69,0v-2.71Z"/><path class="cls-2" d="M421.93,273.3v2.11h-1.69V273.3a.85.85,0,0,1,1.69,0Z"/><path class="cls-2" d="M421.09,271.2v1.26a.84.84,0,0,0-.85.84v2.11h-38V273.3a.84.84,0,0,0-.84-.84V271.2h39.66Z"/><path class="cls-2" d="M417.81,309.87V312a.84.84,0,0,1-1.68,0v-2.11Z"/><path class="cls-2" d="M417.81,307.16v2.71h-1.68v-2.71a.84.84,0,0,1,1.68,0Z"/><path class="cls-2" d="M417.27,254.23v1.23a.92.92,0,0,1-.23.61l-1.14.16a.92.92,0,0,1-.42-.77v-1Z"/><polygon class="cls-2" points="417.27 247.5 417.27 254.23 415.48 254.48 415.48 247.74 417.27 247.5"/><path class="cls-2" d="M417.27,246.71v.79l-1.79.24v-1a.91.91,0,0,1,.72-.88l.18,0A.9.9,0,0,1,417.27,246.71Z"/><path class="cls-2" d="M415.9,256.23l1.14-.16a.88.88,0,0,1-.66.29A1,1,0,0,1,415.9,256.23Z"/><path class="cls-2" d="M417,312.82v1.26H376.26v-1.26a.84.84,0,0,0,.84-.84v-2.11h39V312A.85.85,0,0,0,417,312.82Z"/><path class="cls-2" d="M408.26,246.86l7.94-1a.91.91,0,0,0-.72.88v1l-7,.9a.89.89,0,0,0-.77.76l-.68,5.12a.87.87,0,0,0,.25.74.88.88,0,0,0,.74.25l7.44-1v1a.92.92,0,0,0,.42.77l-7.61,1a2.33,2.33,0,0,1-.38,0,2.69,2.69,0,0,1-2.64-3l.68-5.12A2.67,2.67,0,0,1,408.26,246.86Z"/><path class="cls-3" d="M415.48,247.74v6.74l-7.44,1a.88.88,0,0,1-.74-.25.87.87,0,0,1-.25-.74l.68-5.12a.89.89,0,0,1,.77-.76Z"/><path class="cls-2" d="M402.61,61l1.67,0a46.65,46.65,0,0,0-5,9.47l-1.13-.46a.57.57,0,0,0,0-.18.9.9,0,0,0-.85-1l-1.92-.08a51.61,51.61,0,0,1,4.41-8.74,4.35,4.35,0,0,1,1.3,1.09.91.91,0,0,0,.7.34.92.92,0,0,0,.57-.2A1.07,1.07,0,0,0,402.61,61Z"/><path class="cls-2" d="M402.49,60.08a.92.92,0,0,1,.12,1,1.07,1.07,0,0,1-.25.32.92.92,0,0,1-.57.2.91.91,0,0,1-.7-.34,4.35,4.35,0,0,0-1.3-1.09c.33-.52.66-1,1-1.5A6.32,6.32,0,0,1,402.49,60.08Z"/><path class="cls-2" d="M401.56,173.8c0,3.66-.21,7.79-.62,12.28a3.7,3.7,0,0,1-3.18,3.35l-3.87.53-.5,0a3.71,3.71,0,0,1-3.67-3.24,39.2,39.2,0,0,1,.87-13.53A3.72,3.72,0,0,1,394,170.3l3.66-.17a3.73,3.73,0,0,1,2.74,1A3.69,3.69,0,0,1,401.56,173.8Zm-1.8,0a1.86,1.86,0,0,0-.58-1.36,1.91,1.91,0,0,0-1.42-.53l-3.65.19a1.92,1.92,0,0,0-1.77,1.5,37.64,37.64,0,0,0-.84,12.91,1.9,1.9,0,0,0,2.15,1.67l3.87-.53a1.9,1.9,0,0,0,1.63-1.73C399.55,181.48,399.76,177.41,399.76,173.8Z"/><path class="cls-2" d="M400.79,58.62c-.34.48-.67,1-1,1.5a9.11,9.11,0,0,0-5.31-.9l-.15-1.79A10.9,10.9,0,0,1,400.79,58.62Z"/><path class="cls-1" d="M399.18,172.44a1.86,1.86,0,0,1,.58,1.36c0,3.61-.21,7.68-.61,12.12a1.9,1.9,0,0,1-1.63,1.73l-3.87.53a1.9,1.9,0,0,1-2.15-1.67,37.64,37.64,0,0,1,.84-12.91,1.92,1.92,0,0,1,1.77-1.5l3.65-.19A1.91,1.91,0,0,1,399.18,172.44Z"/><path class="cls-2" d="M399.25,70.53a.19.19,0,0,1,0,.08,63.89,63.89,0,0,0-3.3,11.78l-.85,4.23q-.94,4.74-2,10.13a2.14,2.14,0,0,0-.44-.08,18.75,18.75,0,0,0-3.77.08,1.71,1.71,0,0,1,0-.55q1.09-5.55,2.08-10.42l.84-4.19a69.16,69.16,0,0,1,2.93-11l2.5.11h.05a.9.9,0,0,0,.86-.67Z"/><path class="cls-2" d="M397.3,68.94a.9.9,0,0,1,.85,1,.57.57,0,0,1,0,.18.9.9,0,0,1-.86.67h-.05l-2.5-.11c.19-.52.38-1,.58-1.56l.09-.21Z"/><path class="cls-2" d="M395,239.69a.9.9,0,0,1,.88.92q0,1.15-.06,2.25l-1.81.19c0-.85.06-1.68.07-2.48a.91.91,0,0,1,.9-.88Z"/><path class="cls-2" d="M394,243.05l1.81-.19c-.35,10.57-1.31,17.5-3,21.6l-2,.14C393,260,393.71,250.76,394,243.05Z"/><path class="cls-2" d="M395.38,68.86l-.09.21c-.2.52-.39,1-.58,1.56l-3.49-.16a.9.9,0,0,1-.85-.9v-.91l1.79-.83v.89Z"/><path class="cls-2" d="M395,65a2.11,2.11,0,0,1-1.22,2.09l-1.61.74v-.57a.89.89,0,0,0-1.24-.83l2.1-1a.3.3,0,0,0,.18-.3l-.56-6.53a.9.9,0,0,0,1.06.7s.3-.06.78-.11Z"/><path class="cls-2" d="M394.86,238.71l.1,1h0a.91.91,0,0,0-.9.88c0,.8,0,1.63-.07,2.48l-8.29.83h-.21a1.58,1.58,0,0,1-.48-.06l-9.08-2.1.16-.74a1.09,1.09,0,0,0,.26,0,1.26,1.26,0,0,0,1.26-1.27v-.07l0-1.88,8,1.85Z"/><path class="cls-3" d="M391.22,70.47l3.49.16a69.16,69.16,0,0,0-2.93,11l-.84,4.19q-1,4.88-2.08,10.42a1.71,1.71,0,0,0,0,.55,9.25,9.25,0,0,0-6.31,3.16c-1.91,2.44-5.9,23.45-8.51,46h0l-53.7-3.73a.89.89,0,0,0-1,.8l-5.08,50.7c-1.32-3.45-2.73-7.1-4.17-10.81,1.55-11.38,3.41-25.13,5.87-44.08a250.47,250.47,0,0,1,18.18-66.25h3a1.57,1.57,0,0,0,1.43-1l1.16.42-13.57,38.53,0,.11L320.29,138A.89.89,0,0,0,321,139a.58.58,0,0,0,.19,0,.91.91,0,0,0,.88-.71l5.82-27.27,14.9-42.3c13-5.26,32.46-5.61,36.56-5.63l.08,4.94a1.89,1.89,0,0,0,1.88,1.85h5.37a.87.87,0,0,0,.45.13,1,1,0,0,0,.38-.09l.14-.06a1.82,1.82,0,0,0,.94-.44l1.8-.82v.91A.9.9,0,0,0,391.22,70.47Z"/><path class="cls-2" d="M394.33,57.43l.15,1.79c-.48.05-.77.11-.78.11a.9.9,0,0,1-1.06-.7,1.11,1.11,0,0,1,0-.17.9.9,0,0,1,.72-.89A9.42,9.42,0,0,1,394.33,57.43Z"/><path class="cls-2" d="M393,96.75a1.85,1.85,0,0,1-.68,3.61h0a2.08,2.08,0,0,0-.75-1.76A2.08,2.08,0,0,0,393,97C393,96.93,393,96.84,393,96.75Z"/><path class="cls-2" d="M394.31,57.26l0,.17a9.42,9.42,0,0,0-1,.14.9.9,0,0,0-.72.89l-.09-1a.64.64,0,0,0-.22-.41.58.58,0,0,0-.44-.12l-3.22.48a1,1,0,0,0-.2-.22,1.84,1.84,0,0,0-1.34-.53l-6,.14-.3,0a1.12,1.12,0,0,1,.4-.16l10.43-1.51a2.35,2.35,0,0,1,1.81.48A2.44,2.44,0,0,1,394.31,57.26Z"/><path class="cls-1" d="M385.68,243.88l8.29-.83c-.26,7.71-.94,17-3.22,21.55a77.89,77.89,0,0,1-13.23-.15,95.83,95.83,0,0,1-21.23-4.59,39.7,39.7,0,0,1-5.24-2.27c-3-1.61-5-3.35-5.7-5.15a29.89,29.89,0,0,1-2.14-11.36,2.16,2.16,0,0,0-.19-1l28.28,6.78.21,0a.9.9,0,0,0,.21-1.77l-31.94-7.64-.18,0-6.93-.21-10-.33,1.79-3.57h4.7a2.12,2.12,0,0,0,2.05-1.59c0-.1.05-.2.06-.3l44.6,10.31,9.08,2.1a1.58,1.58,0,0,0,.48.06Z"/><path class="cls-2" d="M393,96.75c0,.09,0,.18-.05.27a2.08,2.08,0,0,1-1.42,1.58,1.91,1.91,0,0,0-.95-.45,2,2,0,0,0-1.06.07,2.07,2.07,0,0,1-.73-1.47,18.75,18.75,0,0,1,3.77-.08A2.14,2.14,0,0,1,393,96.75Z"/><path class="cls-2" d="M391.57,98.6a2.08,2.08,0,0,1,.75,1.76l-1.68-.12a4.55,4.55,0,0,0-2.68.64l.2-1.06a2.1,2.1,0,0,1,1.4-1.6,2.1,2.1,0,0,0,.95.45,2,2,0,0,0,.41,0A1.78,1.78,0,0,0,391.57,98.6Z"/><path class="cls-2" d="M392.32,100.36a2.3,2.3,0,0,1,0,.26c-2.83,14.64-5,27.75-6.88,41.23-.27,1.93-.52,3.86-.78,5.81l-1.63-.22a.59.59,0,0,0-.55-.63l-1.93-.14q.35-2.7.71-5.4c1.83-13.23,4-26.1,6.73-40.39a4.55,4.55,0,0,1,2.68-.64Z"/><path class="cls-2" d="M392.16,67.26v.57l-1.79.83v-1.4a.9.9,0,1,1,1.79,0Z"/><path class="cls-2" d="M390.75,264.6l2-.14a10.51,10.51,0,0,1-1.59,2.8.92.92,0,0,1-.69.32,1,1,0,0,1-.58-.2.9.9,0,0,1-.12-1.27A7.83,7.83,0,0,0,390.75,264.6Z"/><path class="cls-2" d="M391.57,98.6a1.78,1.78,0,0,1-.65.11,2,2,0,0,1-.41,0,2.1,2.1,0,0,1-.95-.45,2,2,0,0,1,1.06-.07A1.91,1.91,0,0,1,391.57,98.6Z"/><path class="cls-2" d="M389.21,67.21l1.71-.78a.9.9,0,0,0-.55.83v1.4l-1.8.82a.63.63,0,0,0,.13-.11,1.89,1.89,0,0,0,.53-1.35Z"/><path class="cls-2" d="M390.49,267.58l.06,1.25c-2.09.12-4.15.19-6.14.19a65.8,65.8,0,0,1-7.36-.38,108.6,108.6,0,0,1-20.9-4.38v-2.43a.6.6,0,0,0-.36-.55l.5-1.42a95.83,95.83,0,0,0,21.23,4.59,77.89,77.89,0,0,0,13.23.15,7.83,7.83,0,0,1-1,1.51.9.9,0,0,0,.12,1.27A1,1,0,0,0,390.49,267.58Z"/><path class="cls-2" d="M389.23,68a1.89,1.89,0,0,1-.53,1.35.63.63,0,0,1-.13.11l-.94.44-.28,0h-.69a.88.88,0,0,1-.36-.4.9.9,0,0,1,.44-1.19l.44-.21h.17l.08-.09v0l1.78-.82Z"/><path class="cls-2" d="M389,58.47l.18,8.74-1.78.82-.19-9.52s-.05-.08-.09-.09l-5.84.13v-.13h.13l7.21-1A1.81,1.81,0,0,1,389,58.47Z"/><path class="cls-2" d="M388.83,96.75a2.07,2.07,0,0,0,.73,1.47,2.1,2.1,0,0,0-1.4,1.6l-.2,1.06a4.64,4.64,0,0,0-2.18,2.93,384.67,384.67,0,0,0-7.92,42.67h0a.59.59,0,0,0-.64.56l-2.4-.16a.9.9,0,0,0-.79-.95c2.61-22.57,6.6-43.58,8.51-46A9.25,9.25,0,0,1,388.83,96.75Z"/><path class="cls-2" d="M388.65,57.37l-7.21,1h-.13a.89.89,0,0,1-.89-.77.92.92,0,0,1,.36-.86l.3,0,6-.14a1.84,1.84,0,0,1,1.34.53A1,1,0,0,1,388.65,57.37Z"/><path class="cls-2" d="M387.63,69.92l.94-.44A1.82,1.82,0,0,1,387.63,69.92Z"/><path class="cls-2" d="M387.63,69.92l-.14.06a1,1,0,0,1-.38.09.87.87,0,0,1-.45-.13h.69Z"/><polygon class="cls-2" points="387.43 68.03 387.43 68.05 387.35 68.14 387.18 68.14 387.43 68.03"/><path class="cls-2" d="M387.18,68.14l-.44.21a.9.9,0,0,0-.44,1.19.88.88,0,0,0,.36.4h-5.37a1.89,1.89,0,0,1-1.88-1.85l-.08-4.94h.77a.93.93,0,0,0,.92-.88h.08l.1,5.79a.1.1,0,0,0,.09.08Z"/><path class="cls-3" d="M385.78,103.81a4.64,4.64,0,0,1,2.18-2.93c-2.76,14.29-4.9,27.16-6.73,40.39q-.36,2.7-.71,5.4l-2.66-.19A384.67,384.67,0,0,1,385.78,103.81Z"/><path class="cls-2" d="M383,147.44l1.63.22C382.57,163.6,381,180,380,196.56l-1.84,0a3.54,3.54,0,0,1-2.26-2c1-15.81,2.51-31.51,4.48-46.77l2,.14h.05A.6.6,0,0,0,383,147.44Z"/><path class="cls-2" d="M381.78,196.55a2,2,0,0,1,1.53,2.36,0,0,0,0,0,0,0,1.85,1.85,0,0,1-2.28,1.33l-2.1-.14h0a1.25,1.25,0,0,0-1.18-1.34h-.09l0-.18h.19a2.11,2.11,0,0,0,2.1-2,.22.22,0,0,1,0-.08Z"/><path d="M382.45,146.81a.59.59,0,0,1,.55.63.6.6,0,0,1-.59.56h-.05l-2-.14c.05-.4.1-.8.16-1.19Z"/><path class="cls-2" d="M382.27,275.41v2.71a.84.84,0,0,1-1.68,0v-2.71Z"/><path class="cls-2" d="M382.27,273.3v2.11h-1.68V273.3a.84.84,0,0,1,1.68,0Z"/><path class="cls-2" d="M381.43,271.2v1.26a.83.83,0,0,0-.84.84v2.11h-25v-1.52a.58.58,0,0,0,.59-.59v-2.1Z"/><path class="cls-2" d="M381.31,58.55h-.18c-.06,0-.1,0-.09.08l.06,3.63H381a.9.9,0,0,0-.89-.91h-.83l-.06-2.69a1.9,1.9,0,0,1,1.54-1.88.92.92,0,0,0-.36.86.89.89,0,0,0,.89.77Z"/><path class="cls-2" d="M380.13,61.36a.9.9,0,0,1,.89.91.93.93,0,0,1-.92.88h-.77l0-1.79Z"/><path d="M380.52,146.67c-.06.39-.11.79-.16,1.19l-2.61-.19h0c0-.4.09-.79.14-1.18Z"/><path class="cls-3" d="M377.75,147.67l2.61.19c-2,15.26-3.47,31-4.48,46.77a5,5,0,0,1-.62-2.29,332.37,332.37,0,0,1,2.46-44.68Z"/><path class="cls-2" d="M380,196.56a.22.22,0,0,0,0,.08,2.11,2.11,0,0,1-2.1,2h-.19a2.11,2.11,0,0,1-1.92-2.22l.12-1.75a3.54,3.54,0,0,0,2.26,2Z"/><path class="cls-2" d="M379.3,61.36l0,1.79c-4.1,0-23.56.37-36.56,5.63l-14.9,42.3-5.82,27.27a.91.91,0,0,1-.88.71.58.58,0,0,1-.19,0,.89.89,0,0,1-.69-1.06l5.84-27.33,0-.11L339.73,72l1.48-4.21a.92.92,0,0,1,.51-.53C355.14,61.68,375,61.36,379.3,61.36Z"/><path class="cls-2" d="M377.74,198.78a1.25,1.25,0,0,1,1.18,1.34h0L376.4,200a1.24,1.24,0,0,1,1.25-1.17Z"/><path class="cls-2" d="M376.4,200l2.52.18c-.37,6.25-.68,13-.91,19.94h-.33a.91.91,0,0,0-1.13-.87l-.09,0-1,.31c.23-6.85.53-13.43.9-19.56Z"/><path class="cls-2" d="M378,220.07v0c-.19,5.87-.33,11.82-.39,17.69l-2.52-.58c.06-5.25.18-10.55.34-15.8.52-.15,1-.32,1.55-.49a.89.89,0,0,0,.69-.87Z"/><path class="cls-2" d="M377.84,146.48h0c-.05.39-.09.78-.14,1.18a.58.58,0,0,1-.52-.62A.59.59,0,0,1,377.84,146.48Z"/><path class="cls-2" d="M377.68,198.6l0,.18A1.24,1.24,0,0,0,376.4,200l-.3,0a5.21,5.21,0,0,1-3.8-4.26c-1.64-10.8-.53-29.74,1.51-48h0a.88.88,0,0,0,.95-.83l2.4.16a.58.58,0,0,0,.52.62,332.37,332.37,0,0,0-2.46,44.68,5,5,0,0,0,.62,2.29l-.12,1.75A2.11,2.11,0,0,0,377.68,198.6Z"/><path class="cls-2" d="M377.62,237.8l0,1.88v.07a1.26,1.26,0,0,1-1.26,1.27,1.09,1.09,0,0,1-.26,0,1.26,1.26,0,0,1-1-1.24v-.08c0-.81,0-1.63,0-2.45Z"/><path class="cls-2" d="M377.68,220.06a.89.89,0,0,1-.69.87c-.51.17-1,.34-1.55.49,0-.46,0-.93,0-1.39,0-.17,0-.33,0-.5l1-.31.09,0A.91.91,0,0,1,377.68,220.06Z"/><path class="cls-2" d="M377.1,309.87V312a.84.84,0,1,1-1.68,0v-2.11Z"/><path class="cls-2" d="M377.1,307.16v2.71h-1.68v-2.71a.84.84,0,1,1,1.68,0Z"/><path class="cls-3" d="M376.4,200v0c-.37,6.13-.67,12.71-.9,19.56-16.05,5-34.59,1.65-55.15-10-.13-.35-.28-.71-.42-1.09l-.6-1.56c-.85-2.22-1.8-4.7-2.84-7.37a.28.28,0,0,0,0-.11c-.25-.67-.52-1.34-.79-2L321,144l52.8,3.67c-2,18.22-3.15,37.16-1.51,48a5.21,5.21,0,0,0,3.8,4.26Z"/><path class="cls-2" d="M376.26,312.82v1.26H330.62v-1.26a.84.84,0,0,0,.85-.84v-2.11h43.95V312A.85.85,0,0,0,376.26,312.82Z"/><path class="cls-2" d="M376.07,241l-.16.74-44.6-10.31a17.39,17.39,0,0,0,.46-4.22l43.33,10c0,.82,0,1.64,0,2.45v.08A1.26,1.26,0,0,0,376.07,241Z"/><path class="cls-2" d="M375.5,219.53c0,.17,0,.33,0,.5,0,.46,0,.93,0,1.39a52.41,52.41,0,0,1-15,2.15c-12,0-25.09-3.81-39.06-11.39-.31-.79-.64-1.66-1-2.61C340.91,221.18,359.45,224.52,375.5,219.53Z"/><path class="cls-2" d="M374,145.93a.9.9,0,0,1,.79.95.88.88,0,0,1-.95.83h0C373.87,147.11,373.94,146.52,374,145.93Z"/><path class="cls-2" d="M374,145.92h0c-.07.59-.14,1.18-.2,1.78L321,144l-5.35,53.36-1.43-3.71,5.08-50.7a.89.89,0,0,1,1-.8Z"/><path class="cls-2" d="M371.72,245.09a.9.9,0,0,1-.21,1.77l-.21,0L343,240.06a2.09,2.09,0,0,0-3.23-.76l-.34-.09-5.14-.16-.87-1.41a.89.89,0,0,0-.77-.43l6.93.21.18,0Z"/><path class="cls-2" d="M351.05,257.59a39.7,39.7,0,0,0,5.24,2.27l-.5,1.42a.59.59,0,0,0-.23,0,.59.59,0,0,0-.6.59v2a37.25,37.25,0,0,1-8.42-4.09l3.39.21a.59.59,0,0,0,.64-.55.6.6,0,0,0-.25-.52Z"/><path d="M356.15,271.2v2.1a.58.58,0,0,1-.59.59.59.59,0,0,1-.6-.59v-2.1Z"/><path d="M356.15,264.26v6.94H355v-7.35C355.36,264,355.75,264.13,356.15,264.26Z"/><path d="M356.15,261.83v2.43c-.4-.13-.79-.26-1.19-.41v-2a.59.59,0,0,1,.6-.59.59.59,0,0,1,.23,0A.6.6,0,0,1,356.15,261.83Z"/><path class="cls-2" d="M355.56,273.89v1.52H340.62V273.3a.84.84,0,0,0-.85-.84V271.2H355v2.1A.59.59,0,0,0,355.56,273.89Z"/><path class="cls-2" d="M351.05,257.59l-.73,1.31a.54.54,0,0,0-.31-.12l-5.18-.31a11.62,11.62,0,0,1-3.4-4.49A33.59,33.59,0,0,1,339,240.81a2,2,0,0,1,.78-1.51l3.23.76a2.16,2.16,0,0,1,.19,1,29.89,29.89,0,0,0,2.14,11.36C346.06,254.24,348,256,351.05,257.59Z"/><path d="M350.32,258.9a.6.6,0,0,1,.25.52.59.59,0,0,1-.64.55l-3.39-.21a17.77,17.77,0,0,1-1.71-1.29l5.18.31A.54.54,0,0,1,350.32,258.9Z"/><path d="M346.54,259.76l-5-.31-11,.89a2,2,0,0,0-.09-1.19l11.11-.88,3.29.2A17.77,17.77,0,0,0,346.54,259.76Z"/><path class="cls-2" d="M343,240.06l-3.23-.76a2.09,2.09,0,0,1,3.23.76Z"/><path class="cls-2" d="M340.62,275.41v2.71a.85.85,0,0,1-.85.84.84.84,0,0,1-.84-.84v-2.71Z"/><path class="cls-2" d="M340.62,273.3v2.11h-1.69V273.3a.83.83,0,0,1,.84-.84A.84.84,0,0,1,340.62,273.3Z"/><path class="cls-2" d="M339.77,271.2v1.26a.83.83,0,0,0-.84.84v2.11H313.75a15.83,15.83,0,0,0-2.29.16v-2a.84.84,0,0,0-.84-.84h-.17l-.22-1.23a21.35,21.35,0,0,1,3.52-.29h26Z"/><path class="cls-2" d="M338.69,67.19V71a1.5,1.5,0,0,1-.12.6,1.57,1.57,0,0,1-1.43,1h-3l.78-1.8h2V67.44h-.07L336.67,66a2,2,0,0,0,.43-.34h0A1.56,1.56,0,0,1,338.69,67.19Z"/><path class="cls-2" d="M336.64,65.64h.46a2,2,0,0,1-.43.34Z"/><path class="cls-2" d="M336.88,67.87a2,2,0,0,1-.45,1.49,2,2,0,0,1-1.24.71,2.11,2.11,0,0,0-.2-1.8.11.11,0,0,0,.05,0,.18.18,0,0,0,0-.16l-.21-1.89.22.07a.93.93,0,0,0-.05.29.9.9,0,0,0,.89.9h.89Z"/><path class="cls-2" d="M336.67,66l.16,1.46h-.89a.9.9,0,0,1-.89-.9.93.93,0,0,1,.05-.29,2.42,2.42,0,0,0,.47,0A2,2,0,0,0,336.67,66Z"/><path class="cls-2" d="M336.64,65.64l0,.34a2,2,0,0,1-1.1.32,2.42,2.42,0,0,1-.47,0,.89.89,0,0,1,.84-.61Z"/><path class="cls-2" d="M335.94,59.35l.7,6.29h-.7a.89.89,0,0,0-.84.61l-.22-.07-.48-4.41a24.22,24.22,0,0,1,1.51-2.61A.58.58,0,0,1,335.94,59.35Z"/><path class="cls-2" d="M336.47,242.81v10.86a.89.89,0,0,1-.69.88l-10.56,2.5h-.3l-4.72-.45.06-1.8,4.69.45,9.72-2.29v-9.9l-2.5-4.09,2.14.07,2,3.29A.89.89,0,0,1,336.47,242.81Z"/><path class="cls-2" d="M335,68.27a2.11,2.11,0,0,1,.2,1.8l-.12,0-4.68.43.82-1.88,3.69-.34A.14.14,0,0,0,335,68.27Z"/><path class="cls-2" d="M335.19,70.07l-.06.15-.24.53H332.3a.89.89,0,0,0-.9.89.9.9,0,0,0,.9.91h1.81a250.47,250.47,0,0,0-18.18,66.25c-2.46,18.95-4.32,32.7-5.87,44.08-.06-.17-.13-.34-.2-.51-1-2.67-2-5.2-2.95-7.61,1.33-9.86,2.89-21.57,4.83-36.5a255.49,255.49,0,0,1,18.65-67.74l4.68-.43Z"/><path class="cls-2" d="M334.91,57.57a2.63,2.63,0,0,1,1,1.59,24.22,24.22,0,0,0-1.51,2.61l-.24-2.21a.86.86,0,0,0-.33-.56.82.82,0,0,0-.64-.16l-4.15.72a2,2,0,0,0-1.39-.59l-5.26-.09,10.51-1.81A2.66,2.66,0,0,1,334.91,57.57Z"/><path class="cls-2" d="M335,68.27a.14.14,0,0,1-.09,0l-3.69.34a.5.5,0,0,0,.05-.13,2.11,2.11,0,0,1,2.79-1.07A2,2,0,0,1,335,68.27Z"/><path class="cls-2" d="M332.3,70.75h2.59l-.78,1.8H332.3a.9.9,0,0,1-.9-.91A.89.89,0,0,1,332.3,70.75Z"/><path class="cls-2" d="M334.4,61.77l.48,4.41-.23-.09a2.11,2.11,0,0,1-1-2.82l.07-.18c.15-.3.31-.6.44-.91Z"/><path class="cls-2" d="M333.44,237.64l.87,1.41-2.14-.07-.26-.41a.89.89,0,0,1,.29-1.23.9.9,0,0,1,.47-.13A.89.89,0,0,1,333.44,237.64Z"/><path class="cls-2" d="M322.71,236.88l10,.33a.9.9,0,0,0-.47.13.89.89,0,0,0-.29,1.23l.26.41-10.34-.32Z"/><path class="cls-2" d="M331.77,227.2a17.39,17.39,0,0,1-.46,4.22l-2.13-.49a2.11,2.11,0,0,1-1.62-2.28c0-.09,0-.17,0-.25a2.11,2.11,0,0,1,2.53-1.58Z"/><path class="cls-2" d="M331.77,227.2l-1.64-.38a2.11,2.11,0,0,0-2.53,1.58c0,.08,0,.16,0,.25h-.07a17.32,17.32,0,0,0-.29-4.94c-1.2.12-2.79.26-4.24.34a1.14,1.14,0,0,0,.25-.06,2.12,2.12,0,0,0,1.45-2.6c-.17-.58-.34-1.14-.5-1.64,2.24-.18,4.43-.4,4.46-.41a2.11,2.11,0,0,1,2.26,1.57A25,25,0,0,1,331.77,227.2Z"/><path class="cls-2" d="M331.47,309.87V312a.85.85,0,0,1-1.69,0v-2.11Z"/><path class="cls-2" d="M331.47,307.16v2.71h-1.69v-2.71a.85.85,0,0,1,1.69,0Z"/><path class="cls-2" d="M331.31,231.42c0,.1,0,.2-.06.3a2.12,2.12,0,0,1-2.05,1.59h-4.7l-1.79,3.57L320,236.8a.9.9,0,0,0-.84.52l-1.09-.54,3.25-6.52a2.14,2.14,0,0,1,1.89-1.17h4.25a3.42,3.42,0,0,0,0-.45h.07a2.11,2.11,0,0,0,1.62,2.28Z"/><path class="cls-2" d="M331,68.66l.19,0-.82,1.88-1.08.1a2.27,2.27,0,0,0,1.25-.78A2.13,2.13,0,0,0,331,68.66Z"/><path class="cls-2" d="M331,68.05a2.08,2.08,0,0,1,0,.61l-2,.19a.38.38,0,0,0,.18-.13.41.41,0,0,0,.09-.35L327.88,61a.28.28,0,0,0-.27-.23l-5-.09L329,59.56a2.1,2.1,0,0,1,.61,1.11Z"/><path class="cls-2" d="M329,68.85l2-.19a2.13,2.13,0,0,1-.46,1.18,2.27,2.27,0,0,1-1.25.78l-.21,0H329a.91.91,0,0,1-.89-.82.9.9,0,0,1,.63-.94h.08A.29.29,0,0,0,329,68.85Z"/><path class="cls-2" d="M330.62,312.82v1.26H313.75a21.23,21.23,0,0,1-11-3l.64-1.09a1,1,0,0,0,.34.07.87.87,0,0,0,.57-.21l1.88-1.7a17,17,0,0,0,7.57,1.76h16V312A.85.85,0,0,0,330.62,312.82Z"/><path d="M330.43,259.15a2,2,0,0,1,.09,1.19l-2,.16h-.05a.6.6,0,0,1,0-1.19Z"/><path class="cls-2" d="M330.52,260.34a1.36,1.36,0,0,1,0,.17l-2,6.65a2.05,2.05,0,0,1-1.28,1.35,19.22,19.22,0,0,1-6.41,1,19.46,19.46,0,0,1-9.45-2.38c-2.17-1.09-3.58-3.11-5.07-5.25a31.29,31.29,0,0,0-3-3.88l-.94-1c-3-3-6.39-6.47-6.67-11.47a2.14,2.14,0,0,1,.05-.62s0,0,0,0l1.05.63a.9.9,0,0,0,.47.13.88.88,0,0,0,.44-.12l2.36.32-.1.11c.45,3.09,2.86,5.53,5.39,8.1.32.33.64.66,1,1a35.27,35.27,0,0,1,3.46,4.41c1.23,1.77,2.29,3.29,3.52,3.9l.09.05a16.3,16.3,0,0,0,11.44,1.4l.81-2.67-7.5.4a2.11,2.11,0,0,1-2.23-2.18l.18-5,1.21,0a.89.89,0,0,0,.81,1l2.16.2-.06,1.63,8.21-.44a2.08,2.08,0,0,1,1.78.8,2,2,0,0,1,.3.55l-2,.16a.6.6,0,0,0,0,1.19h.05Z"/><path class="cls-2" d="M329.1,70.64l.21,0a2.57,2.57,0,0,1-.4,0l-4.61.22h-.11A2.34,2.34,0,0,1,321.9,69l-1.51-8a1.79,1.79,0,0,1,.4-1.49,1.76,1.76,0,0,1,1.37-.63h.23l-.71.12a.91.91,0,0,0-.74,1,.89.89,0,0,0,1,.73l.19,0,1.5,7.93a.52.52,0,0,0,.54.43l4.54-.21a.9.9,0,0,0-.63.94.91.91,0,0,0,.89.82Z"/><path class="cls-2" d="M329,59.56l-6.47,1.11h-.41v.08l-.19,0a.89.89,0,0,1-1-.73.91.91,0,0,1,.74-1l.71-.12,5.26.09A2,2,0,0,1,329,59.56Z"/><path class="cls-2" d="M328.93,68.85h0a.29.29,0,0,1-.14,0h-.07Z"/><path class="cls-2" d="M324.66,221.38a2.12,2.12,0,0,1-1.45,2.6,1.14,1.14,0,0,1-.25.06l-.37,0a2.11,2.11,0,0,1-2-1.54c-.52-1.78-1.1-3.34-1.11-3.36s-.05-.15-.15-.41a7.47,7.47,0,0,0,2.17,1.14c.79,0,1.72-.09,2.64-.16C324.32,220.24,324.49,220.8,324.66,221.38Z"/><path class="cls-2" d="M323.45,217.68s.33.89.71,2.06c-.92.07-1.85.13-2.64.16a7.47,7.47,0,0,1-2.17-1.14c-.16-.42-.43-1.12-.79-2.08-.61-1.59-1.49-3.89-2.57-6.69l0-.1,1.13-.44a.93.93,0,0,0,.41.56c1.29.75,2.57,1.48,3.85,2.17C322.66,215.63,323.45,217.68,323.45,217.68Z"/><path class="cls-2" d="M323,224a1.84,1.84,0,0,1-.33,0h0Z"/><path class="cls-2" d="M322.71,236.88l-.88,1.78-1.9-.06a.9.9,0,0,1-.87-.93.86.86,0,0,1,.09-.35.9.9,0,0,1,.84-.52Z"/><polygon class="cls-2" points="322.57 60.67 322.17 60.74 322.16 60.66 322.57 60.67"/><path class="cls-2" d="M322.59,224.07l-1.18.05a1.53,1.53,0,0,1-.43,0,11.93,11.93,0,0,1-4.76-2.38c-.87-.63-2.07-1.48-2.56-1.38-2,.42-2.43,5.2-2.64,8h-.21a2.13,2.13,0,0,0-.16-.81L308,221c.82-2.33,2.24-4.26,4.79-4.81,2.32-.48,4.21.87,5.88,2.06l.68.49c.1.26.15.41.15.41s.59,1.58,1.11,3.36A2.11,2.11,0,0,0,322.59,224.07Z"/><path class="cls-2" d="M321.83,238.66l-1.09,2.18-.48,14-2.05-.19a.9.9,0,0,0-1,.81l-1.21,0,.52-15.16a2.25,2.25,0,0,1,.23-.87l1.29-2.58,1.09.54a.86.86,0,0,0-.09.35.9.9,0,0,0,.87.93Z"/><path class="cls-2" d="M320.35,209.57c.36,1,.69,1.82,1,2.61-1.28-.69-2.56-1.42-3.85-2.17a.92.92,0,0,1-.32-1.23.9.9,0,0,1,1.23-.32Z"/><path class="cls-2" d="M319.93,208.48c.14.38.29.74.42,1.09l-1.94-1.11a.9.9,0,0,0-1.23.32.93.93,0,0,0-.09.67l-1.13.44-.57-1.46c-.86-2.25-1.83-4.76-2.87-7.47a.34.34,0,0,1,0-.12l1.16-.31a.93.93,0,0,0,.75.57h.09a.91.91,0,0,0,.9-.81l.28-2.89c.27.7.54,1.37.79,2a.28.28,0,0,1,0,.11c1,2.67,2,5.15,2.84,7.37Z"/><path class="cls-2" d="M320.26,254.81l-.06,1.8-2.16-.2a.9.9,0,1,1,.17-1.79Z"/><path class="cls-3" d="M319.35,218.76l-.68-.49c-1.67-1.19-3.56-2.54-5.88-2.06-2.55.55-4,2.48-4.79,4.81l-20.85-50.73a2.1,2.1,0,0,0-1.35-1.22l-2-.58c-1.05-4-5.49-16-22.4-24.37,0,0,0,0,0,0-.63-.3-1.23-.6-1.84-.87-2-3.33-11.81-18.58-28.61-25.34l-1.09-.63a2.35,2.35,0,0,0-.9-.27l-92.41-6-.81,0a6.31,6.31,0,0,1-5.89-6.27c0-.09,0-.17,0-.3A6.24,6.24,0,0,1,134,98.69a2.08,2.08,0,0,0,.84-.24,6.46,6.46,0,0,1,1.4-.13l74.5,1.71,2.59.14h.1A59,59,0,0,0,229.19,98l.08,0a83.58,83.58,0,0,0,18.31-7.48l.32-.18a2.74,2.74,0,0,1,1.82-.31l4.19.72a2.88,2.88,0,0,1,1.47.75c10.34,9.85,27.82,36.25,34.64,52.33,2.7,6.34,7.89,19.44,15.9,40.07a.19.19,0,0,0,0,.07c2.31,6,4.56,11.8,6.54,16.93a.34.34,0,0,0,0,.12c1,2.71,2,5.22,2.87,7.47l.57,1.46,0,.1c1.08,2.8,2,5.1,2.57,6.69C318.92,217.64,319.19,218.34,319.35,218.76Zm-63.1-121A4.44,4.44,0,0,0,252,93.15a4.42,4.42,0,1,0-.39,8.84h.2A4.44,4.44,0,0,0,256.25,97.77Zm-114.73,7.15a4.42,4.42,0,1,0-4.62,4.22h.2a4.43,4.43,0,0,0,4.42-4.22Z"/><path class="cls-2" d="M317.05,222.71a2.93,2.93,0,0,1-2.14,5h-.06a3,3,0,0,1-2.88-3,2.95,2.95,0,0,1,5.08-2Zm-1,2.06v0a1.15,1.15,0,0,0-.31-.78,1.13,1.13,0,0,0-.81-.36h0a1.14,1.14,0,0,0-1.14,1.12,1.09,1.09,0,0,0,.32.82,1.15,1.15,0,0,0,.8.36,1.14,1.14,0,0,0,1.17-1.12Z"/><path class="cls-2" d="M315.66,197.4l-.28,2.89a.91.91,0,0,1-.9.81h-.09a.93.93,0,0,1-.75-.57,1,1,0,0,1-.05-.42l.64-6.42Z"/><path class="cls-2" d="M314.23,193.69l-.64,6.42a1,1,0,0,0,.05.42l-1.16.31c-2-5.13-4.23-11-6.54-16.93a2.12,2.12,0,0,0,1.67,1.32h.29a2.1,2.1,0,0,0,2.09-1.83c0-.17.05-.35.07-.53C311.5,186.59,312.91,190.24,314.23,193.69Z"/><path class="cls-2" d="M311.46,275.57v2.89a.84.84,0,0,1-1.68,0v-2.58A13.44,13.44,0,0,1,311.46,275.57Z"/><path class="cls-2" d="M311.46,273.55v2a13.44,13.44,0,0,0-1.68.31v-2.33a.84.84,0,0,1,.67-.83h.17A.84.84,0,0,1,311.46,273.55Z"/><path class="cls-2" d="M311,228.29c0,.2,0,.38,0,.56l-.06,1c-.25,3.71-.55,8.32-6.4,12.37l-1,.72-.69-1.48a1,1,0,0,0,.33-.07.9.9,0,0,0,.49-1.17l-.81-2c3.51-2.73,3.7-5.5,3.9-8.67l0-.52a2.1,2.1,0,0,0,1.95,1.3,2,2,0,0,0,.8-.16,2.09,2.09,0,0,0,1.31-1.94Z"/><path class="cls-2" d="M310.65,227.47a2.13,2.13,0,0,1,.16.81,2.09,2.09,0,0,1-1.31,1.94,2,2,0,0,1-.8.16,2.1,2.1,0,0,1-1.95-1.3h0l0-.51A29.05,29.05,0,0,1,308,221Z"/><path class="cls-2" d="M310.23,271.49l.22,1.23a.84.84,0,0,0-.67.83v2.33a17.2,17.2,0,0,0-8.78,5.18l-1.24-1a.9.9,0,0,0,.63-1.11.88.88,0,0,0-1.1-.62l-2,.54A21.35,21.35,0,0,1,310.23,271.49Z"/><path class="cls-2" d="M309.86,182.37c.07.17.14.34.2.51s-.05.36-.07.53a2.1,2.1,0,0,1-2.09,1.83h-.29a2.12,2.12,0,0,1-1.67-1.32.19.19,0,0,1,0-.07,1.94,1.94,0,0,1-.11-1c.35-2.56.71-5.25,1.1-8.09C307.85,177.17,308.83,179.7,309.86,182.37Z"/><path class="cls-2" d="M308.14,305.19a.84.84,0,0,1-.06,1.19l-1.9,1.73a14.81,14.81,0,0,1-1.56-.87l2.33-2.12A.84.84,0,0,1,308.14,305.19Z"/><path class="cls-2" d="M308,221a29.05,29.05,0,0,0-1.22,7.54l0,.51-23.1-56.24-2.22-.64a2.09,2.09,0,0,1-1.49-1.72c-.08-.51-2-11.84-16.86-20.65l-1.79-4.17a.88.88,0,0,0-.45-.46l.54-1.09s0,0,0,0c16.91,8.39,21.35,20.34,22.4,24.37l2,.58a2.1,2.1,0,0,1,1.35,1.22Z"/><path class="cls-2" d="M306.3,245.66a2.9,2.9,0,0,1,.82,2.1,2.87,2.87,0,0,1-.91,2.06,2.93,2.93,0,0,1-2,.82h-.08a2.93,2.93,0,0,1-2.86-3,2.85,2.85,0,0,1,.91-2.06,2.93,2.93,0,0,1,4.15.1Zm-1,2.06a1.17,1.17,0,0,0-.32-.82,1.15,1.15,0,0,0-.81-.36h0a1.15,1.15,0,0,0-.79.32,1.09,1.09,0,0,0-.36.8,1.15,1.15,0,0,0,1.12,1.18A1.13,1.13,0,0,0,305.33,247.72Z"/><path class="cls-2" d="M306.18,308.11l-1.88,1.7a.87.87,0,0,1-.57.21,1,1,0,0,1-.34-.07,1.15,1.15,0,0,1-.29-.2.85.85,0,0,1,.07-1.2l1.45-1.31A14.81,14.81,0,0,0,306.18,308.11Z"/><path class="cls-2" d="M306.91,174.76c-.39,2.84-.75,5.53-1.1,8.09a1.94,1.94,0,0,0,.11,1c-8-20.63-13.2-33.73-15.9-40.07-6.82-16.08-24.3-42.48-34.64-52.33a2.88,2.88,0,0,0-1.47-.75L249.72,90a2.74,2.74,0,0,0-1.82.31l-.32.18-.72-1.12a.9.9,0,0,0,.88-.72.92.92,0,0,0-.71-1.06l-2.17-.42,1-.53a7,7,0,0,1,4.62-.8l4.17.72a6.93,6.93,0,0,1,3.68,1.86c10.65,10.14,28.62,37.26,35.61,53.73C296.27,147.69,300.54,158.4,306.91,174.76Z"/><path class="cls-1" d="M305,246.9a1.17,1.17,0,0,1,.32.82,1.13,1.13,0,0,1-1.18,1.12,1.15,1.15,0,0,1-1.12-1.18,1.09,1.09,0,0,1,.36-.8,1.15,1.15,0,0,1,.79-.32h0A1.15,1.15,0,0,1,305,246.9Z"/><path class="cls-2" d="M304.62,307.24l-1.45,1.31a.85.85,0,0,0-.07,1.2,1.15,1.15,0,0,0,.29.2l-.64,1.09a21.5,21.5,0,0,1-9.39-11.76l1.34-.16a.9.9,0,0,0,.78-1,.84.84,0,0,0-.19-.44l1.83-.54A17.23,17.23,0,0,0,304.62,307.24Z"/><path class="cls-2" d="M303.62,240.25a.9.9,0,0,1-.49,1.17,1,1,0,0,1-.33.07.9.9,0,0,1-.84-.56l-.65-1.57.81-.58c.25-.17.47-.34.69-.51Z"/><path class="cls-2" d="M302.8,241.49l.69,1.48a23.83,23.83,0,0,0-3.5,2.92l-2.36-.32a1.11,1.11,0,0,0,.33-.32.91.91,0,0,0-.31-1.23l-1.06-.63a26.23,26.23,0,0,1,4.72-4l.65,1.57A.9.9,0,0,0,302.8,241.49Z"/><path class="cls-2" d="M278.33,178.48l24.48,59.79c-.22.17-.44.34-.69.51l-.81.58L276.8,179.49,273.44,178a.83.83,0,0,1-.46-.46l-12.46-29.13c.89.48,1.75,1,2.56,1.43l11.42,26.67,3.36,1.51A.92.92,0,0,1,278.33,178.48Z"/><path class="cls-3" d="M276.8,179.49l24.51,59.87a26.23,26.23,0,0,0-4.72,4l-1.89-1.13-19.76-47a1.81,1.81,0,0,0,.18-.23,3.85,3.85,0,0,0,.4-3.74l-18.89-44.84a2.15,2.15,0,0,0,.57.37c.78.35,1.54.71,2.33,1.11l1,.49L273,177.52a.83.83,0,0,0,.46.46Z"/><path class="cls-2" d="M299.76,280.08l1.24,1a17.16,17.16,0,0,0-3.93,7.25l-1.15-.32a.9.9,0,0,0-1-1.06l-1.92.24a21.28,21.28,0,0,1,2.61-6Z"/><path class="cls-2" d="M300.39,279a.9.9,0,0,1-.63,1.11l-4.14,1.12a19.27,19.27,0,0,1,1.69-2.31l2-.54A.88.88,0,0,1,300.39,279Z"/><path class="cls-2" d="M297.65,244a.91.91,0,0,1,.31,1.23,1.11,1.11,0,0,1-.33.32.88.88,0,0,1-.44.12.9.9,0,0,1-.47-.13l-1.05-.63a4.25,4.25,0,0,1,.92-1.54Z"/><path class="cls-2" d="M269.94,286.32l27.37-7.43a19.27,19.27,0,0,0-1.69,2.31l-25.68,7Z"/><path class="cls-2" d="M297.12,297.13l-1.83.54a.85.85,0,0,0-.81-.33l-1.6.2a20.86,20.86,0,0,1-.57-4.9,20.45,20.45,0,0,1,.31-3.61l2.53-.32a.87.87,0,0,0,.77-.72l1.15.32a17.72,17.72,0,0,0-.55,4.33A17.07,17.07,0,0,0,297.12,297.13Z"/><path class="cls-2" d="M294.7,242.26l1.89,1.13a4.25,4.25,0,0,0-.92,1.54l-2.14-1.28a.86.86,0,0,1-.36-.42l-19.7-46.89a3.55,3.55,0,0,0,1.47-1.11Z"/><path class="cls-2" d="M295.93,287.71a.89.89,0,0,1,0,.28.87.87,0,0,1-.77.72l-2.53.32a18.57,18.57,0,0,1,.39-1.86l1.92-.24A.89.89,0,0,1,295.93,287.71Z"/><path class="cls-2" d="M295.48,298.11a.9.9,0,0,1-.78,1l-1.34.16a17.21,17.21,0,0,1-.48-1.74l1.6-.2a.85.85,0,0,1,.81.33A.84.84,0,0,1,295.48,298.11Z"/><path class="cls-2" d="M293.36,299.28l-23.42,2.92v-1.8l22.94-2.86A17.21,17.21,0,0,0,293.36,299.28Z"/><path class="cls-2" d="M269.94,290.05,293,287.17a18.57,18.57,0,0,0-.39,1.86l-22.68,2.83Z"/><path class="cls-2" d="M275.52,191.26a3.85,3.85,0,0,1-.4,3.74,1.81,1.81,0,0,1-.18.23l-.22-.54a.89.89,0,0,0-1.18-.48.64.64,0,0,0-.22.14,2.5,2.5,0,0,0,.33-.38,2,2,0,0,0,.21-2L253.45,143.5a1.09,1.09,0,0,0-.89-.67l-3.12-.4a2,2,0,0,0,.61-1.73l2.73.34.21,0a52.35,52.35,0,0,1,3.23,4.81,2.15,2.15,0,0,0,.41.53Z"/><path class="cls-2" d="M274.72,194.69l.22.54a3.55,3.55,0,0,1-1.47,1.11l-.41-1a.88.88,0,0,1,.26-1,.64.64,0,0,1,.22-.14A.89.89,0,0,1,274.72,194.69Z"/><path class="cls-3" d="M273.86,192a2,2,0,0,1-.21,2,2.5,2.5,0,0,1-.33.38,2.09,2.09,0,0,1-1.49.52l-3.13-.14a1.66,1.66,0,0,1-1.46-1L245.3,143.61a1.09,1.09,0,0,1,.12-1.12,1.19,1.19,0,0,1,.76-.44,2.1,2.1,0,0,0,2.25.95,2.07,2.07,0,0,0,1-.57l3.12.4a1.09,1.09,0,0,1,.89.67Z"/><path class="cls-2" d="M273.06,195.38l.41,1a3.79,3.79,0,0,1-1.54.32h-.18l-3.14-.14a3.44,3.44,0,0,1-3-2.08l-21.94-50.11a2.88,2.88,0,0,1,.34-2.91,2.85,2.85,0,0,1,1.58-1.07c.24.66.33,1,.34,1.06a1.74,1.74,0,0,0,.27.64,1.19,1.19,0,0,0-.76.44,1.09,1.09,0,0,0-.12,1.12l21.94,50.12a1.66,1.66,0,0,0,1.46,1l3.13.14a2.09,2.09,0,0,0,1.49-.52A.88.88,0,0,0,273.06,195.38Z"/><path class="cls-2" d="M269.94,302.2v1a9.21,9.21,0,0,1-3.21,7l-10.38,8.93a5.88,5.88,0,0,1-3.82,1.42h-5.35a2.11,2.11,0,0,1-1.8-3.2l7.24-11.93a15.31,15.31,0,0,0,2.34-8.77,6.54,6.54,0,0,0-.83-3.27,6.22,6.22,0,0,1-1.26-3.63v-11a5.65,5.65,0,0,1,5.64-5.65h5.79a5.65,5.65,0,0,1,5.64,5.65v7.53l-2.34.64a.88.88,0,0,0-.63,1.09.89.89,0,0,0,.87.67.91.91,0,0,0,.23,0l1.87-.51v1.87l-2.21.28a.89.89,0,0,0-.8.88h-1.2V278.79a1.43,1.43,0,0,0-1.43-1.43h-5.79a1.43,1.43,0,0,0-1.43,1.43v11a2.05,2.05,0,0,0,.47,1.16,10.38,10.38,0,0,1,1.63,5.52,19.66,19.66,0,0,1-2.95,11.18l-5.3,8.72h1.6a1.64,1.64,0,0,0,1.07-.39L264,307a5,5,0,0,0,1.75-3.81v-1.64h1.2a.41.41,0,0,0,0,.11.91.91,0,0,0,.9.78h.1Z"/><path class="cls-2" d="M269.94,300.4v1.8l-2,.26h-.1a.91.91,0,0,1-.9-.78.41.41,0,0,1,0-.11.88.88,0,0,1,.8-.89Z"/><path class="cls-2" d="M269.94,291.86v8.54l-2.21.28a.88.88,0,0,0-.8.89h-1.2V291.21h1.2a.37.37,0,0,0,0,.11.91.91,0,0,0,.9.8h.1Z"/><path class="cls-2" d="M269.94,290.05v1.81l-2,.25h-.1a.91.91,0,0,1-.9-.8.37.37,0,0,1,0-.11.89.89,0,0,1,.8-.88Z"/><path class="cls-2" d="M269.94,286.32v1.86l-1.87.51a.91.91,0,0,1-.23,0,.89.89,0,0,1-.87-.67.88.88,0,0,1,.63-1.09Z"/><path class="cls-2" d="M261.29,145.65l1.79,4.17c-.81-.48-1.67-.95-2.56-1.43l-.88-2a.9.9,0,0,1,.47-1.17.9.9,0,0,1,1.18.47Z"/><path class="cls-2" d="M261.38,144.1l-.54,1.09a.88.88,0,0,0-.73,0,.9.9,0,0,0-.47,1.17l.88,2-1-.49c-.79-.4-1.55-.76-2.33-1.11a2.15,2.15,0,0,1-.57-.37l-1.53-3.62a3,3,0,0,0-2.11-1.72,68.31,68.31,0,0,0-5.27-6.29c-2.46-4.62-7.34-11.25-16.66-16.82l-.13-.08c16.8,6.76,26.63,22,28.61,25.34C260.15,143.5,260.75,143.8,261.38,144.1Z"/><path class="cls-2" d="M255.1,142.8l1.53,3.62a2.15,2.15,0,0,1-.41-.53,52.35,52.35,0,0,0-3.23-4.81A3,3,0,0,1,255.1,142.8Z"/><path d="M255.09,94.59a4.35,4.35,0,0,1,1.16,3.18,4.44,4.44,0,0,1-4.42,4.23h-.2a4.42,4.42,0,1,1,.39-8.84A4.35,4.35,0,0,1,255.09,94.59Zm-.65,3.1a2.63,2.63,0,0,0-2.5-2.73h-.12a2.61,2.61,0,0,0-.12,5.22,2.63,2.63,0,0,0,2.74-2.49Z"/><path class="cls-3" d="M253.75,95.81a2.6,2.6,0,0,1,.69,1.88,2.63,2.63,0,0,1-2.74,2.49,2.61,2.61,0,0,1,.12-5.22h.12A2.6,2.6,0,0,1,253.75,95.81Z"/><path class="cls-2" d="M250.05,140.7a2,2,0,0,1-.61,1.73l-3-.38h-.28a1.74,1.74,0,0,1-.27-.64s-.1-.4-.34-1.06a2.8,2.8,0,0,1,1.12-.08Z"/><path class="cls-2" d="M250,140.47l0,.23-3.36-.43a2.8,2.8,0,0,0-1.12.08c-1.07-3-5-11.81-16.62-18.74l.27.14a53,53,0,0,1,18.5,13A24.81,24.81,0,0,1,250,140.47Z"/><path class="cls-2" d="M246.46,142.05l3,.38a2.07,2.07,0,0,1-1,.57,2.1,2.1,0,0,1-2.25-.95h.28Z"/><path class="cls-2" d="M247,87.56a.92.92,0,0,1,.71,1.06.9.9,0,0,1-.88.72h-.17l-4.4-.86c1-.5,1.87-1,2.57-1.33Z"/><path class="cls-2" d="M246.86,89.34l.72,1.12a83.58,83.58,0,0,1-18.31,7.48l-.08,0-.31-1.18a.88.88,0,0,0,.72-.7.9.9,0,0,0-.71-1.06l-3-.59c.75-.17,1.49-.36,2.23-.56a80.35,80.35,0,0,0,14.12-5.41h0l4.4.86Z"/><path class="cls-2" d="M231.06,118c9.32,5.57,14.2,12.2,16.66,16.82a53,53,0,0,0-18.5-13l-.27-.14,0,0a2.11,2.11,0,0,1,1.87-3.76.76.76,0,0,1,.16.06Z"/><path class="cls-2" d="M174.7,73.49l70.16,13.65c-.7.37-1.56.83-2.57,1.33h0L174.36,75.25a1.61,1.61,0,0,0-1.21.25,1.62,1.62,0,0,0-.64.9h0a.91.91,0,0,0-.72-1.06l-.72-.13a3.36,3.36,0,0,1,1.08-1.2A3.41,3.41,0,0,1,174.7,73.49Z"/><path class="cls-3" d="M174.36,75.25l67.92,13.22a80.35,80.35,0,0,1-14.12,5.41c-.74.2-1.48.39-2.23.56l-53.21-10.6a1.62,1.62,0,0,1-1.28-1.8.19.19,0,0,1,0-.08l1-5.43a.5.5,0,0,1,0-.13,1.62,1.62,0,0,1,.64-.9A1.61,1.61,0,0,1,174.36,75.25Z"/><path class="cls-2" d="M137.6,115.21l-.08,0-1-4.1V111l92.41,6a2.35,2.35,0,0,1,.9.27l1.09.63a.76.76,0,0,0-.16-.06,2.11,2.11,0,0,0-1.87,3.76c-.22-.14-.48-.27-.72-.42l-90.65-5.93Z"/><path class="cls-2" d="M228.89,95a.9.9,0,0,1,.71,1.06.88.88,0,0,1-.72.7l-.15,0a.55.55,0,0,1-.18,0l-7.25-1.44c1.51-.23,3.07-.53,4.63-.91Z"/><path class="cls-2" d="M228.88,96.79l.31,1.18a59,59,0,0,1-15.73,2.2h-.1l-2.59-.14-74.5-1.71a6.46,6.46,0,0,0-1.4.13,1.92,1.92,0,0,0,.35-.23,2.11,2.11,0,0,0,.29-3s-.32-.38-.81-1a10.33,10.33,0,0,1,1.67-.1l74.56,1.71,2.6.13a47.8,47.8,0,0,0,7.77-.6l7.25,1.44a.55.55,0,0,0,.18,0Z"/><path class="cls-2" d="M172.72,83.84l53.21,10.6c-1.56.38-3.12.68-4.63.91l-48.94-9.76a3.42,3.42,0,0,1-2.68-2.75l.36.07.17,0a.91.91,0,0,0,.88-.74,1.1,1.1,0,0,0,0-.18l.33,0A1.62,1.62,0,0,0,172.72,83.84Z"/><path class="cls-2" d="M180.47,309.5a2.1,2.1,0,0,1-1.42,2.1l-18.72,6.45a2.11,2.11,0,0,0,.76-3.26l-.94-1.14L170.69,310l-13.25-3,1.14-.27a2.11,2.11,0,0,0,1.17-3.35l-.17-.21,19.25,4.4A2.11,2.11,0,0,1,180.47,309.5Z"/><path class="cls-2" d="M171.78,75.34a.91.91,0,0,1,.72,1.06.9.9,0,0,1-.89.72h-.17l-.86-.17.13-.74a3.64,3.64,0,0,1,.35-1Z"/><path class="cls-2" d="M172.51,76.4a.5.5,0,0,0,0,.13l-1,5.43a.19.19,0,0,0,0,.08l-.33,0a.88.88,0,0,0-.73-.86L169.8,81l.78-4.1.86.17h.17a.9.9,0,0,0,.89-.72Z"/><path class="cls-2" d="M171.11,82a1.1,1.1,0,0,1,0,.18.91.91,0,0,1-.88.74l-.17,0-.36-.07a3.29,3.29,0,0,1,0-1.21l.11-.59.58.11A.88.88,0,0,1,171.11,82Z"/><path class="cls-2" d="M123.35,66.09l47.71,9.12a3.64,3.64,0,0,0-.35,1l-.13.74L123.94,68C123.75,67.34,123.56,66.69,123.35,66.09Z"/><polygon class="cls-3" points="170.69 310.02 160.15 313.64 155.15 307.52 157.44 306.99 170.69 310.02"/><path class="cls-3" d="M170.58,76.94,169.8,81l-44.89-8.68c-.3-1.57-.62-3-1-4.33Z"/><path class="cls-2" d="M169.8,81l-.11.59a3.29,3.29,0,0,0,0,1.21l-44.4-8.58c-.12-.65-.24-1.28-.37-1.9Z"/><path class="cls-2" d="M161.09,314.79a2.11,2.11,0,0,1-.76,3.26h0l-.17.05a2,2,0,0,1-.69.12,2.11,2.11,0,0,1-2-1.42,2.09,2.09,0,0,1,0-1.33,2.07,2.07,0,0,1,1.32-1.35l1.38-.48Z"/><path class="cls-2" d="M160.31,318.06l-.22.08-30.69,9.49a22,22,0,0,1-6.43,1,21.62,21.62,0,0,1-21.54-21.36l-.08-7L99.26,282a2.11,2.11,0,0,1,.63-1.76l.17-.17.43,1.88a.89.89,0,0,0,.87.7.65.65,0,0,0,.2,0,.89.89,0,0,0,.68-1.07l-.67-2.95,1.8-1.72.41,1.88a.91.91,0,0,0,.88.7.58.58,0,0,0,.19,0,.9.9,0,0,0,.69-1.07l-.26-1.16a2.1,2.1,0,0,0,1.84,1.09h0a2.1,2.1,0,0,0,1.32-.49l-4.91,4.73.32,2.76a1.92,1.92,0,0,0,.05.41h0l1.09,9.54,13.12-14.72.1-3.76a3.38,3.38,0,0,0,.07-2.85l.15-5.73.23-1.21h.18A2.11,2.11,0,0,0,121,265c.09-1.09.2-2.42.33-4l.26.09a2.13,2.13,0,0,1,1.25,2l-.4,15.71L135.93,275a2.11,2.11,0,0,1,2.24.72l21.41,27.48-1.67-.38A2.09,2.09,0,0,0,155.5,304l-1.11-.64-18.67-24L121,283.64,105.58,301l.07,6.25a17.39,17.39,0,0,0,22.5,16.4L155.84,315l1.61.44a2.09,2.09,0,0,0,0,1.33,2.11,2.11,0,0,0,2,1.42,2,2,0,0,0,.69-.12Z"/><path class="cls-2" d="M159.75,303.37a2.11,2.11,0,0,1-1.17,3.35l-1.14.27-.47-.11a2.1,2.1,0,0,1-1.58-2.52,1.79,1.79,0,0,1,.11-.35,2.09,2.09,0,0,1,2.41-1.23l1.67.38Z"/><path class="cls-2" d="M160.15,313.65l-1.38.48a2.07,2.07,0,0,0-1.32,1.35l-1.61-.44-6.09-7.47a2.17,2.17,0,0,1-.37-2,2.12,2.12,0,0,1,1.52-1.37l3.49-.81,1.11.64a1.79,1.79,0,0,0-.11.35,2.1,2.1,0,0,0,1.58,2.52l.47.11-2.29.53Z"/><path class="cls-3" d="M149.75,307.57l6.09,7.47-27.69,8.56a17.39,17.39,0,0,1-22.5-16.4l-.07-6.25L121,283.64l14.72-4.24,18.67,24-3.49.81a2.12,2.12,0,0,0-1.52,1.37A2.17,2.17,0,0,0,149.75,307.57Z"/><path d="M137.29,100.3a4.42,4.42,0,0,1-.19,8.84h-.2a4.42,4.42,0,1,1,.39-8.84Zm2.41,4.53a2.61,2.61,0,0,0-2.48-2.72h-.12a2.63,2.63,0,0,0-2.62,2.49,2.66,2.66,0,0,0,.69,1.88,2.6,2.6,0,0,0,1.81.85A2.64,2.64,0,0,0,139.7,104.83Z"/><path class="cls-3" d="M137.22,102.11a2.61,2.61,0,0,1,2.48,2.72,2.64,2.64,0,0,1-2.72,2.5,2.6,2.6,0,0,1-1.81-.85,2.66,2.66,0,0,1-.69-1.88,2.63,2.63,0,0,1,2.62-2.49Z"/><path class="cls-2" d="M137.6,115.21l-.07,0s0,0,0,0l-2.07-.14a10.38,10.38,0,0,1-3.07-.66,7.75,7.75,0,0,1,4.14-3.31l1,4.1Z"/><path class="cls-2" d="M135.45,115.1l2.07.14c-.56.28-3.58,2.17-4.55,10.74-1.13,10.07-9.39,107.4-11.67,135.08a2.13,2.13,0,0,0-2.06.51l-2.41,2.32c1.82-22.3,10.77-127.84,12-138.38.63-5.54,2.1-9,3.6-11.07A10.38,10.38,0,0,0,135.45,115.1Z"/><path class="cls-2" d="M136.53,111v.18a7.75,7.75,0,0,0-4.14,3.31,10.54,10.54,0,0,1-6.77-9.81,4.87,4.87,0,0,1,0-.54,10.45,10.45,0,0,1,4.93-8.39c.95,1.32,1.61,2.11,1.7,2.23a2.1,2.1,0,0,0,1.77.76,6.24,6.24,0,0,0-4.19,5.64c0,.13,0,.21,0,.3a6.31,6.31,0,0,0,5.89,6.27Z"/><path class="cls-2" d="M135.51,95.25a2.11,2.11,0,0,1-.29,3,1.92,1.92,0,0,1-.35.23l-.44.11a2.67,2.67,0,0,0-.4.13,2.1,2.1,0,0,1-1.77-.76c-.09-.12-.75-.91-1.7-2.23a10.1,10.1,0,0,1,4.14-1.49C135.19,94.87,135.5,95.24,135.51,95.25Z"/><path class="cls-2" d="M134.43,98.56l.44-.11a2.08,2.08,0,0,1-.84.24A2.67,2.67,0,0,1,134.43,98.56Z"/><path class="cls-2" d="M134.7,94.21a10.1,10.1,0,0,0-4.14,1.49c-2.7-3.74-7.81-11.65-9.27-19.77-.17-1-.33-1.83-.5-2.65l.88-.17a.94.94,0,0,0,.67.58l2.94.57c.06.3.11.61.17.92C126.89,83.2,132.58,91.37,134.7,94.21Z"/><path class="cls-3" d="M132.38,114.44c-1.5,2.11-3,5.53-3.6,11.07-1.18,10.54-10.13,116.08-12,138.38l-7.65,7.37c-.19-18.28-.73-72.7-.65-78.83,0-1,.07-2.29.14-3.79.43-8.55,1.2-23.79-7.32-27.14a9.47,9.47,0,0,0-2.94-.64c-4.22-.29-5.56-1.38-6.21-2.17-.88-1.09-1.23-2.8-1.23-5.12l.06-.66a.9.9,0,0,0,0-.4h0c.11-3,.68-6.9,1.36-11.62,2.36-16.21,7.72-47.81,11.21-62.52,3.57-15.07,8.65-15,11.69-14.93,1.74,0,2.93.54,4.1,4a46.19,46.19,0,0,1,1.45,5.83c.17.82.33,1.69.5,2.65,1.46,8.12,6.57,16,9.27,19.77a10.45,10.45,0,0,0-4.93,8.39,4.87,4.87,0,0,0,0,.54A10.54,10.54,0,0,0,132.38,114.44Z"/><path class="cls-2" d="M125.28,74.26l-2.94-.57a.94.94,0,0,1-.67-.58.89.89,0,0,1,1-1.18l2.22.43C125,73,125.16,73.61,125.28,74.26Z"/><path class="cls-2" d="M124.91,72.36l-2.22-.43a.89.89,0,0,0-1,1.18l-.88.17a46.19,46.19,0,0,0-1.45-5.83l1.16-.4a.92.92,0,0,0,.61.44l2.83.54C124.29,69.34,124.61,70.79,124.91,72.36Z"/><path class="cls-2" d="M123.94,68l-2.83-.54a.92.92,0,0,1-.61-.44.9.9,0,0,1,1-1.33l1.9.37C123.56,66.69,123.75,67.34,123.94,68Z"/><path class="cls-2" d="M123.35,66.09l-1.9-.37a.9.9,0,0,0-1,1.33l-1.16.4c-1.17-3.48-2.36-4-4.1-4-3-.06-8.12-.14-11.69,14.93-3.49,14.71-8.85,46.31-11.21,62.52-.68,4.72-1.25,8.6-1.36,11.62a.92.92,0,0,0-.76-.56.9.9,0,0,0-1,.8l-.79,7.94c-2.66-4-1.75-10.34-.28-20.41C90.54,124,95.92,92.21,99.45,77.38c3.83-16.18,10.15-18.25,15.86-18.17C119.65,59.28,121.86,61.74,123.35,66.09Z"/><path class="cls-2" d="M121.3,261.06c-.13,1.55-.24,2.88-.33,4a2.11,2.11,0,0,1-2.1,1.93h-.18a2.12,2.12,0,0,1-1.93-2.27c0-.26,0-.52.07-.8l2.41-2.32A2.13,2.13,0,0,1,121.3,261.06Z"/><path class="cls-2" d="M118.69,267l-.23,1.21-3.94,3.8a3.36,3.36,0,0,0-2.56,2.46l-3.3,3.18a2.08,2.08,0,0,0,.57-1.47c0-1,0-2.68,0-4.88l7.65-7.37c0,.28,0,.54-.07.8A2.12,2.12,0,0,0,118.69,267Z"/><path class="cls-2" d="M118.31,273.9a3.38,3.38,0,0,1-.07,2.85Z"/><path class="cls-2" d="M118.31,273.9l-.07,2.85a3.35,3.35,0,0,1-.92,1.13,3.31,3.31,0,0,1-2.09.74l-.38,0a3.37,3.37,0,0,1-3-3.73,2.14,2.14,0,0,1,.08-.44l2.56-2.46a3.23,3.23,0,0,1,1.08-.07A3.39,3.39,0,0,1,118.31,273.9Zm-1.52,1.53v-.19a1.57,1.57,0,0,0-1.39-1.55h-.17a1.56,1.56,0,0,0-1.56,1.4,1.49,1.49,0,0,0,.32,1.15,1.58,1.58,0,0,0,2.21.25A1.58,1.58,0,0,0,116.79,275.43Z"/><path class="cls-3" d="M118.24,276.75l-.1,3.76L105,295.23l-1.09-9.54a3.24,3.24,0,0,0,.68,1.51,3.31,3.31,0,0,0,2.26,1.25,2.42,2.42,0,0,0,.38,0,3.36,3.36,0,0,0,3.34-3,3.37,3.37,0,1,0-6.69-.75,4.87,4.87,0,0,0,0,.54l-.32-2.76,4.91-4.73.19-.17,3.3-3.18a2.14,2.14,0,0,0-.08.44,3.37,3.37,0,0,0,3,3.73l.38,0a3.31,3.31,0,0,0,2.09-.74A3.35,3.35,0,0,0,118.24,276.75Z"/><path class="cls-3" d="M116.79,275.24v.19a1.58,1.58,0,0,1-.59,1.05,1.58,1.58,0,0,1-2.21-.25,1.49,1.49,0,0,1-.32-1.15,1.56,1.56,0,0,1,1.56-1.4h.17A1.57,1.57,0,0,1,116.79,275.24Z"/><path class="cls-2" d="M114.52,272,112,274.43A3.36,3.36,0,0,1,114.52,272Z"/><path class="cls-2" d="M107.62,281.76a3.37,3.37,0,0,1,1.72,6,3.32,3.32,0,0,1-2.09.73,2.42,2.42,0,0,1-.38,0,3.31,3.31,0,0,1-2.26-1.25,3.24,3.24,0,0,1-.68-1.51h0l-.05-.41a4.87,4.87,0,0,1,0-.54,3.37,3.37,0,0,1,3.72-3Zm1.19,3.52a1.59,1.59,0,0,0-1.39-1.74h-.18a1.57,1.57,0,0,0-1,.35,1.55,1.55,0,0,0-.58,1.05,1.61,1.61,0,0,0,.34,1.16,1.55,1.55,0,0,0,1,.58,1.63,1.63,0,0,0,1.16-.34A1.55,1.55,0,0,0,108.81,285.28Z"/><path class="cls-2" d="M109.23,276.14a2.08,2.08,0,0,1-.57,1.47l-.19.17a2.1,2.1,0,0,1-1.32.49h0a2.1,2.1,0,0,1-1.84-1.09h0L105,276v-.67l4.17-4C109.2,273.46,109.22,275.13,109.23,276.14Z"/><path class="cls-2" d="M109.18,271.26l-4.17,4c-.12-12.16-.78-76.18-.7-82.89,0-1.08.08-2.41.16-4,.32-6.58.89-17.85-3.12-21.88l.23-2.94a.89.89,0,0,0-.65-.94l.42-1.17c8.52,3.35,7.75,18.59,7.32,27.14-.07,1.5-.13,2.79-.14,3.79C108.45,198.56,109,253,109.18,271.26Z"/><path class="cls-3" d="M107.42,283.54a1.59,1.59,0,0,1,1.39,1.74,1.55,1.55,0,0,1-.58,1.05,1.63,1.63,0,0,1-1.16.34,1.55,1.55,0,0,1-1-.58,1.61,1.61,0,0,1-.34-1.16,1.55,1.55,0,0,1,.58-1.05,1.57,1.57,0,0,1,1-.35Z"/><path class="cls-2" d="M105.54,278.34a.9.9,0,0,1-.69,1.07.58.58,0,0,1-.19,0,.91.91,0,0,1-.88-.7l-.41-1.88,1.52-1.46.12.56v.24a2.17,2.17,0,0,0,.26,1h0Z"/><path class="cls-2" d="M105,276l.26,1.22a2.17,2.17,0,0,1-.26-1Z"/><path class="cls-2" d="M105,276l-.12-.56.12-.11Z"/><path class="cls-2" d="M94.73,229.44l10.16,45.95-1.52,1.46L93,230a4.75,4.75,0,0,0,1.61-.83A.76.76,0,0,1,94.73,229.44Z"/><path class="cls-2" d="M103.88,285.27l.05.41A1.92,1.92,0,0,1,103.88,285.27Z"/><path class="cls-3" d="M93,230l10.36,46.84-1.8,1.72L90.62,230.16l.27.05.6,0A5.13,5.13,0,0,0,93,230Z"/><path class="cls-2" d="M102.24,281.52a.89.89,0,0,1-.68,1.07.65.65,0,0,1-.2,0,.89.89,0,0,1-.87-.7l-.43-1.88,1.51-1.46Z"/><path class="cls-2" d="M100.93,162.67a.89.89,0,0,1,.65.94l-.23,2.94a4.83,4.83,0,0,0-1.71-1.15l.15-1.94a.88.88,0,0,1,1-.81Z"/><path class="cls-2" d="M90.62,230.16l10.95,48.41L100.06,280,88.6,229.39A5.21,5.21,0,0,0,90.62,230.16Z"/><path class="cls-2" d="M101.35,161.5l-.42,1.17-.17,0a.88.88,0,0,0-1,.81l-.15,1.94a4.89,4.89,0,0,0-1.52-.33c-3.62-.25-6.24-1.08-8.05-2.58l.9-8.92c0,2.32.35,4,1.23,5.12.65.79,2,1.88,6.21,2.17A9.47,9.47,0,0,1,101.35,161.5Z"/><path class="cls-2" d="M101.35,166.55,96.72,225.4a5.2,5.2,0,0,1-1.9,3.63c-.07.05-.13.11-.2.15a.88.88,0,0,0-1-.42.9.9,0,0,0-.69,1.07l0,.18a5.13,5.13,0,0,1-1.52.23l-.6,0-.27-.05-.28-1.22a1,1,0,0,0-.44-.59l.11-.23a3.27,3.27,0,0,0,1.08.3,3.39,3.39,0,0,0,2.59-.77,3.44,3.44,0,0,0,1.25-2.39l4.71-59.86A4.83,4.83,0,0,1,101.35,166.55Z"/><path class="cls-3" d="M99.64,165.4l-4.71,59.86a3.44,3.44,0,0,1-1.25,2.39,3.39,3.39,0,0,1-2.59.77,3.27,3.27,0,0,1-1.08-.3,3.48,3.48,0,0,1-2-3.51L91.94,178a5.34,5.34,0,0,0-.92-3.62L90,173c-.92-1.34-.67-3.66-.47-5.53l.5-4.95c1.81,1.5,4.43,2.33,8.05,2.58A4.89,4.89,0,0,1,99.64,165.4Zm-5.45,59.12a2.54,2.54,0,1,0-2.8,2.24h.28a2.47,2.47,0,0,0,1.68-.64A2.51,2.51,0,0,0,94.19,224.52Z"/><path class="cls-2" d="M93.65,222.66a2.55,2.55,0,0,1,.54,1.86,2.51,2.51,0,0,1-.84,1.61,2.47,2.47,0,0,1-1.68.64h-.28a2.54,2.54,0,1,1,2.26-4.1Zm-1.25,1.66s0-.06,0-.09a.75.75,0,0,0-.16-.45.84.84,0,0,0-.5-.28h-.09a.69.69,0,0,0-.45.16.77.77,0,0,0-.28.5.75.75,0,0,0,.16.54.79.79,0,0,0,.5.28.74.74,0,0,0,.81-.66Z"/><path class="cls-2" d="M93.66,228.76a.88.88,0,0,1,1,.42A4.75,4.75,0,0,1,93,230l0-.18A.9.9,0,0,1,93.66,228.76Z"/><path class="cls-1" d="M92.41,224.23s0,.06,0,.09a.74.74,0,0,1-.81.66.79.79,0,0,1-.5-.28.75.75,0,0,1-.16-.54.77.77,0,0,1,.28-.5.69.69,0,0,1,.45-.16h.09a.84.84,0,0,1,.5.28A.75.75,0,0,1,92.41,224.23Z"/><path class="cls-2" d="M91,174.41a5.34,5.34,0,0,1,.92,3.62L88,224.61a3.48,3.48,0,0,0,2,3.51l-.11.23a.9.9,0,0,0-1.3,1v0a5.3,5.3,0,0,1-2.35-4.95l3.91-46.58a3.62,3.62,0,0,0-.62-2.44l-1-1.43c-1.29-1.88-1-4.58-.76-6.75l.07-.67.59-5.89c.15.23.31.45.47.66a7.36,7.36,0,0,0,1.15,1.15l-.5,4.95c-.2,1.87-.45,4.19.47,5.53Z"/><path class="cls-2" d="M91,152.51a.9.9,0,0,1,0,.4l-.06.66C91,153.24,91,152.88,91,152.51Z"/><path class="cls-2" d="M91,152.5h0c0,.37,0,.73,0,1.06l-.9,8.92a7.36,7.36,0,0,1-1.15-1.15c-.16-.21-.32-.43-.47-.66l.79-7.94a.9.9,0,0,1,1-.8A.92.92,0,0,1,91,152.5Z"/><path class="cls-2" d="M90.34,228.94l.28,1.22a5.21,5.21,0,0,1-2-.77v0a.9.9,0,0,1,1.3-1A1,1,0,0,1,90.34,228.94Z"/></svg>