<svg width="266" height="78" viewBox="0 0 266 78" fill="none" xmlns="http://www.w3.org/2000/svg">
<path d="M75.5083 49.9471H70.1328V26.4609H84.1732V31.4598H75.5083V35.9416H82.368V40.8543H75.5083V49.9471Z" fill="white"/>
<path d="M86.3008 28.7864C86.3008 27.9245 86.6217 27.1919 87.2234 26.5886C87.8252 25.9853 88.5473 25.6836 89.3496 25.6836C90.192 25.6836 90.9141 25.9853 91.4757 26.5886C92.0373 27.1919 92.3582 27.9245 92.3582 28.7864C92.3582 29.6482 92.0774 30.3808 91.4757 30.9841C90.9141 31.5875 90.192 31.8891 89.3496 31.8891C88.5071 31.8891 87.8252 31.5875 87.2234 30.9841C86.6217 30.3808 86.3008 29.6482 86.3008 28.7864ZM86.8624 34.0869V49.9455H91.917V34.0869H86.8624Z" fill="white"/>
<path d="M100.742 41.5854V49.9456H95.6875V34.0871H100.742V36.5865C100.983 35.6815 101.544 34.9489 102.387 34.4749C103.269 33.9578 104.112 33.6992 104.874 33.6992C106.799 33.6992 108.284 34.3887 109.287 35.7246C110.29 37.0605 110.771 38.9998 110.771 41.5423V49.9887H105.716V41.6716C105.716 40.7235 105.476 40.034 104.994 39.56C104.513 39.1291 103.951 38.9136 103.309 38.9136C102.627 38.9136 102.026 39.1291 101.504 39.56C100.983 39.9909 100.742 40.6804 100.742 41.5854Z" fill="white"/>
<path d="M124.969 35.7679V34.0441H130.023V49.9027H124.969V48.0927C124.046 49.5148 122.682 50.2043 120.877 50.2043C118.951 50.2043 117.267 49.4286 115.822 47.9203C114.378 46.412 113.656 44.3866 113.656 41.9303C113.656 39.4739 114.378 37.4485 115.822 35.9402C117.267 34.3888 118.951 33.6562 120.877 33.6562C121.639 33.6562 122.442 33.8286 123.164 34.2165C123.926 34.5612 124.528 35.0783 124.969 35.7679ZM119.714 39.6894C119.112 40.3358 118.791 41.1115 118.791 42.0165C118.791 42.9214 119.112 43.6971 119.714 44.3435C120.315 44.99 121.038 45.3347 121.88 45.3347C122.722 45.3347 123.444 44.99 124.046 44.3435C124.648 43.6971 124.969 42.9214 124.969 42.0165C124.969 41.1115 124.648 40.3358 124.046 39.6894C123.444 39.043 122.722 38.6982 121.88 38.6982C121.038 38.6982 120.315 39.043 119.714 39.6894Z" fill="white"/>
<path d="M138.851 41.5854V49.9456H133.797V34.0871H138.851V36.5865C139.092 35.6815 139.654 34.9489 140.496 34.4749C141.339 34.0009 142.221 33.6992 142.983 33.6992C144.909 33.6992 146.393 34.3887 147.396 35.7246C148.399 37.0605 148.88 38.9998 148.88 41.5423V49.9887H143.826V41.6716C143.826 40.7235 143.585 40.034 143.104 39.56C142.622 39.1291 142.061 38.9136 141.419 38.9136C140.737 38.9136 140.135 39.1291 139.614 39.56C139.092 39.9909 138.851 40.6804 138.851 41.5854Z" fill="white"/>
<path d="M162.32 43.8264L166.532 46.3259C164.887 48.9546 162.721 50.2474 159.993 50.2474C157.707 50.2474 155.781 49.4717 154.176 47.9634C152.572 46.4121 151.77 44.4297 151.77 41.9734C151.77 39.517 152.572 37.5347 154.176 35.9833C155.781 34.4319 157.707 33.6562 159.993 33.6562C162.681 33.6562 164.847 34.9491 166.492 37.5778L162.36 40.2496C161.758 39.2154 160.916 38.6982 159.753 38.6982C158.91 38.6982 158.188 39.043 157.586 39.6894C156.985 40.3358 156.664 41.1115 156.664 42.0165C156.664 42.9214 156.985 43.6971 157.586 44.3435C158.188 44.99 158.91 45.3347 159.753 45.3347C160.836 45.2485 161.678 44.7745 162.32 43.8264Z" fill="white"/>
<path d="M183.78 41.7579C183.78 42.0165 183.74 42.6198 183.699 43.4817H173.109C173.189 44.2143 173.55 44.7745 174.232 45.2485C174.914 45.6795 175.636 45.8949 176.479 45.8949C177.642 45.8949 178.605 45.464 179.287 44.559C179.527 44.7745 180.129 45.2485 181.092 45.938C182.055 46.6706 182.616 47.1016 182.777 47.2308C181.373 49.2132 179.166 50.2043 176.077 50.2043C173.911 50.2043 172.066 49.4286 170.501 47.8772C168.977 46.3259 168.215 44.3004 168.215 41.8872C168.215 39.4739 168.977 37.4916 170.501 35.9402C172.026 34.3888 173.871 33.6562 176.077 33.6562C178.244 33.6562 180.089 34.3888 181.533 35.8971C183.017 37.3623 183.78 39.3446 183.78 41.7579ZM173.069 40.4651H178.966C178.765 39.5601 178.364 38.9568 177.762 38.6121C177.161 38.2673 176.599 38.0949 176.037 38.0949C175.716 38.0949 175.355 38.138 174.994 38.2242C174.633 38.3104 174.272 38.569 173.871 38.9568C173.47 39.3446 173.189 39.8618 173.069 40.4651Z" fill="white"/>
<path d="M185.344 26.4609H201.55V29.4775H194.931V49.9471H191.963V29.4775H185.344V26.4609Z" fill="#FE5600"/>
<path d="M207.771 41.3707V49.9463H204.883V25.3828H207.771V36.4149C208.172 35.5099 208.854 34.8635 209.817 34.3894C210.78 33.9154 211.743 33.6999 212.665 33.6999C214.511 33.6999 215.995 34.3033 217.078 35.553C218.161 36.8027 218.683 38.5265 218.683 40.7242V49.9033H215.794V40.9397C215.794 39.6469 215.473 38.6126 214.831 37.88C214.19 37.1044 213.347 36.7596 212.304 36.7596C211.101 36.7596 210.058 37.1475 209.175 37.88C208.253 38.6126 207.771 39.7762 207.771 41.3707Z" fill="#FE5600"/>
<path d="M235.089 49.9456V47.4893C234.607 48.3943 233.885 49.0407 232.923 49.5578C231.96 50.0749 230.957 50.2904 229.874 50.2904C227.788 50.2904 226.023 49.5147 224.538 47.9633C223.094 46.4119 222.332 44.4296 222.332 41.9733C222.332 39.5169 223.054 37.4915 224.538 35.9832C225.983 34.4749 227.788 33.6992 229.874 33.6992C230.957 33.6992 231.96 33.9578 232.923 34.4318C233.885 34.9059 234.607 35.5954 235.049 36.4572V34.044H237.897V49.9456H235.089ZM235.049 41.9302C235.049 40.3357 234.567 39.0429 233.564 38.1379C232.561 37.1898 231.438 36.7589 230.155 36.7589C228.791 36.7589 227.627 37.2329 226.705 38.2241C225.782 39.1722 225.341 40.4219 225.341 41.9733C225.341 43.5246 225.822 44.7744 226.745 45.7655C227.667 46.7567 228.831 47.2738 230.155 47.2738C231.518 47.2738 232.682 46.7998 233.645 45.8517C234.567 44.8606 235.049 43.5677 235.049 41.9302Z" fill="#FE5600"/>
<path d="M246.602 34.0447H249.731V36.6735H246.602V49.9464H243.714V36.6735H241.066V34.0447H243.714V28.0547H246.602V34.0447Z" fill="#FE5600"/>
<path d="M34.2303 72.785C51.1568 72.785 64.8785 58.0445 64.8785 39.8613C64.8785 21.678 51.1568 6.9375 34.2303 6.9375C17.3037 6.9375 3.58203 21.678 3.58203 39.8613C3.58203 58.0445 17.3037 72.785 34.2303 72.785Z" fill="url(#paint0_linear)"/>
<path d="M18.9453 41.1107L49.5133 24.5195L41.8914 52.272L18.9453 41.1107L49.5133 24.5195L18.9453 41.1107Z" fill="white"/>
<path d="M31.1013 46.9727L33.3076 48.0931L30.2188 52.8765L31.1013 46.9727Z" fill="#A97C57"/>
<path d="M27.3281 45.1609L49.3114 24.7344L31.099 46.9708L30.2164 52.8747L27.3281 45.1609Z" fill="#E9DDD4"/>
<defs>
<linearGradient id="paint0_linear" x1="14.3157" y1="58.9648" x2="62.9018" y2="18.5618" gradientUnits="userSpaceOnUse">
<stop stop-color="#E32738"/>
<stop offset="0.0549275" stop-color="#E72D30"/>
<stop offset="0.23" stop-color="#F03E1B"/>
<stop offset="0.425" stop-color="#F6490C"/>
<stop offset="0.654" stop-color="#FA5003"/>
<stop offset="1" stop-color="#FB5200"/>
</linearGradient>
</defs>
</svg>
