<svg width="69" height="41" viewBox="0 0 69 41" fill="none" xmlns="http://www.w3.org/2000/svg">
<path d="M49.0812 26.5785C48.9467 26.6761 48.7797 26.718 48.6151 26.6955C48.4505 26.673 48.3009 26.5878 48.1975 26.4578L45.9087 23.4443L54.2214 17.2584C54.422 17.1095 54.6715 17.0423 54.9197 17.0701C55.1679 17.098 55.3963 17.219 55.5588 17.4086L55.8917 17.7915L56.0772 18.0066L56.1921 18.1391L57.0758 19.1731C57.1643 19.2743 57.2307 19.3928 57.2708 19.5211C57.3109 19.6495 57.3237 19.7847 57.3085 19.9183C57.2955 20.0537 57.2545 20.1849 57.1881 20.3035C57.1216 20.4222 57.0312 20.5257 56.9227 20.6076L50.772 25.2736L50.9488 25.5063L50.772 25.2736L49.0812 26.5785Z" fill="white"/>
<path d="M61.3968 22.9523C62.0438 23.4702 62.5742 24.1188 62.9534 24.8557C63.3327 25.5926 63.5522 26.4013 63.5976 27.2288C63.643 28.0563 63.5133 28.8841 63.217 29.6581C62.9206 30.432 62.4643 31.1348 61.8779 31.7204C61.2915 32.306 60.5881 32.7613 59.8137 33.0565C59.0393 33.3517 58.2113 33.4803 57.3838 33.4337C56.5564 33.3871 55.7481 33.1664 55.0117 32.7862C54.2754 32.4059 53.6275 31.8745 53.1105 31.2268L52.8807 31.4094C52.5537 30.9943 52.2815 30.5389 52.0707 30.0544H58.3391C58.8175 30.0557 59.2855 29.9145 59.6834 29.6489C60.0813 29.3833 60.3911 29.0053 60.5734 28.563C60.7557 28.1207 60.8022 27.6341 60.707 27.1653C60.6118 26.6965 60.3792 26.2666 60.0388 25.9304C59.8165 25.706 59.5517 25.5282 59.2598 25.4073C58.968 25.2864 58.655 25.2249 58.3391 25.2264H51.8232L56.7573 21.4854C57.0862 21.4293 57.4193 21.4017 57.7529 21.4029C59.1362 21.4012 60.4799 21.865 61.5676 22.7196L61.3968 22.9523Z" fill="white"/>
<path d="M58.2157 37.1621H57.765C57.3244 37.1621 56.8844 37.1306 56.4482 37.0679L58.2157 37.1621Z" fill="#DEDFE0"/>
<path d="M56.3066 17.3908C58.8417 17.0303 61.4201 17.626 63.5401 19.0619C65.6601 20.4979 67.17 22.6713 67.7757 25.1592C68.3814 27.6471 68.0396 30.2713 66.8169 32.5211C65.5943 34.7708 63.5782 36.4851 61.1611 37.3303L59.8238 37.2478C62.2052 36.7353 64.313 35.3604 65.7418 33.3875C67.1706 31.4147 67.8194 28.9832 67.5636 26.5608C67.3077 24.1383 66.1651 21.8961 64.3557 20.2653C62.5463 18.6344 60.1977 17.7303 57.7618 17.7266C57.3907 17.7261 57.0198 17.7478 56.6513 17.7914L56.3066 17.3908Z" fill="#644E77"/>
<path d="M56.083 21.6415L57.1111 20.8608C57.2507 20.7544 57.3671 20.6205 57.4531 20.4674C57.5391 20.3143 57.5929 20.1452 57.6111 19.9705C57.6293 19.7959 57.6116 19.6193 57.559 19.4518C57.5065 19.2842 57.4202 19.1292 57.3055 18.9962L56.5308 18.1125C56.6515 18.1125 56.7694 18.0831 56.8901 18.0742L57.5293 18.8136C57.6689 18.974 57.7742 19.1613 57.8385 19.364C57.9028 19.5666 57.9249 19.7803 57.9034 19.9919C57.881 20.2073 57.8149 20.4158 57.709 20.6048C57.6031 20.7937 57.4598 20.959 57.2878 21.0906L56.7694 21.4853C56.5376 21.5234 56.3084 21.5756 56.083 21.6415Z" fill="#644E77"/>
<path d="M48.6924 30.0544H52.0947C52.3055 30.539 52.5778 30.9944 52.9048 31.4095L52.6691 31.5921C53.2365 32.3088 53.9491 32.8974 54.7601 33.3192C55.5711 33.7409 56.4622 33.9864 57.3748 34.0393C58.2874 34.0923 59.2008 33.9516 60.0552 33.6265C60.9095 33.3013 61.6854 32.7991 62.3319 32.1529C62.9784 31.5066 63.4808 30.7308 63.8062 29.8766C64.1316 29.0224 64.2727 28.1089 64.22 27.1963C64.1673 26.2837 63.9222 25.3926 63.5007 24.5814C63.0792 23.7703 62.4908 23.0575 61.7743 22.4899L61.5916 22.7226C60.5039 21.868 59.1603 21.4042 57.777 21.4059C57.4433 21.4047 57.1102 21.4323 56.7813 21.4884L57.2998 21.0936C57.4718 20.962 57.6151 20.7967 57.721 20.6078C57.8268 20.4189 57.893 20.2103 57.9154 19.9949C57.9369 19.7833 57.9148 19.5696 57.8504 19.367C57.7861 19.1643 57.6809 18.977 57.5413 18.8166L56.9021 18.0772C57.1967 18.0507 57.4912 18.036 57.7858 18.036C60.3248 17.9747 62.7843 18.9245 64.623 20.6765C66.4618 22.4285 67.5292 24.8392 67.5905 27.3783C67.6519 29.9173 66.7021 32.3768 64.95 34.2155C63.198 36.0542 60.7873 37.1217 58.2483 37.183L56.4809 37.0976C54.6949 36.8422 53.0167 36.0897 51.638 34.926C50.2593 33.7624 49.2355 32.2346 48.6836 30.5169H48.6924V30.0544Z" fill="#DEDFE0"/>
<path d="M57.7652 18.0243C57.4706 18.0243 57.1761 18.039 56.8815 18.0655L56.7637 17.93C57.0934 17.8946 57.4248 17.8769 57.7564 17.877C60.2134 17.8727 62.5809 18.7991 64.3826 20.4697C66.1843 22.1403 67.2865 24.4312 67.4675 26.8816C67.6485 29.3319 66.8949 31.7599 65.3583 33.6772C63.8217 35.5944 61.616 36.8586 59.185 37.2155L58.2247 37.1624C60.7638 37.1011 63.1745 36.0337 64.9265 34.1949C66.6785 32.3562 67.6283 29.8967 67.567 27.3577C67.5057 24.8186 66.4382 22.4079 64.5995 20.6559C62.7607 18.9039 60.3013 17.9541 57.7623 18.0154L57.7652 18.0243Z" fill="#644E77"/>
<path d="M56.6455 17.7948C57.0141 17.7511 57.3849 17.7295 57.756 17.73C60.1919 17.7336 62.5405 18.6378 64.3499 20.2686C66.1594 21.8994 67.3019 24.1417 67.5578 26.5641C67.8136 28.9865 67.1648 31.418 65.736 33.3909C64.3072 35.3638 62.1994 36.7387 59.818 37.2511C59.6118 37.2511 59.4027 37.2246 59.1906 37.2158C61.6052 36.8416 63.7903 35.5717 65.3109 33.6591C66.8315 31.7465 67.5761 29.3313 67.3963 26.8945C67.2165 24.4577 66.1257 22.1779 64.3409 20.5091C62.5561 18.8403 60.2083 17.9049 57.7649 17.8891C57.4333 17.889 57.1019 17.9067 56.7722 17.9421L56.6455 17.7948Z" fill="#644E77"/>
<path d="M56.5309 18.104L56.416 17.9714C56.5338 17.9537 56.6517 17.939 56.7724 17.9302L56.8903 18.0657C56.7695 18.0745 56.6458 18.0892 56.5309 18.104Z" fill="#644E77"/>
<path d="M56.266 17.7947L56.1511 17.6651L56.1099 17.4235L56.3072 17.3911L56.6548 17.7947C56.537 17.7947 56.4192 17.8212 56.3043 17.8389L56.266 17.7947Z" fill="#644E77"/>
<path d="M56.7726 17.9304C56.6518 17.9304 56.534 17.954 56.4161 17.9717L56.3042 17.8391C56.4191 17.8214 56.5369 17.8038 56.6547 17.7949L56.7726 17.9304Z" fill="#644E77"/>
<path d="M57.7651 34.0903C56.7804 34.0932 55.8081 33.8707 54.9228 33.4397C54.0374 33.0088 53.2624 32.3809 52.6572 31.6042L52.8929 31.4215C53.4335 32.1084 54.1136 32.6729 54.8883 33.0778C55.6629 33.4827 56.5146 33.7188 57.3872 33.7706C58.2598 33.8224 59.1334 33.6886 59.9506 33.3782C60.7677 33.0678 61.5097 32.5877 62.1278 31.9696C62.7459 31.3515 63.226 30.6095 63.5364 29.7923C63.8469 28.9752 63.9806 28.1016 63.9288 27.229C63.877 26.3564 63.6409 25.5047 63.236 24.73C62.8311 23.9554 62.2666 23.2753 61.5797 22.7347L61.7624 22.502C62.8265 23.3329 63.6046 24.4755 63.9879 25.7701C64.3712 27.0647 64.3406 28.4467 63.9003 29.723C63.46 30.9994 62.6321 32.1063 61.5322 32.8893C60.4322 33.6723 59.1152 34.0922 57.7651 34.0903Z" fill="#644E77"/>
<path d="M56.4365 37.0769C56.8726 37.1396 57.3127 37.1711 57.7533 37.1712H58.204L59.1642 37.2242C58.6931 37.2928 58.2176 37.3273 57.7415 37.3273C56.9674 37.324 56.1966 37.2251 55.4468 37.0327L56.4365 37.0769Z" fill="#644E77"/>
<path d="M57.7648 33.7955C56.8255 33.7968 55.8983 33.5836 55.0539 33.1721C54.2096 32.7607 53.4703 32.1618 52.8926 31.4212L53.1223 31.2386C53.6377 31.8916 54.2855 32.428 55.0231 32.8126C55.7606 33.1973 56.5713 33.4213 57.4017 33.4701C58.2322 33.5188 59.0635 33.3911 59.841 33.0955C60.6185 32.7998 61.3246 32.3428 61.9128 31.7546C62.501 31.1664 62.958 30.4603 63.2537 29.6828C63.5493 28.9053 63.677 28.074 63.6283 27.2435C63.5795 26.4131 63.3555 25.6024 62.9708 24.8649C62.5862 24.1273 62.0498 23.4795 61.3968 22.9641L61.5794 22.7344C62.595 23.5276 63.3374 24.6181 63.7032 25.8536C64.0689 27.0892 64.0397 28.4082 63.6196 29.6263C63.1995 30.8445 62.4095 31.901 61.3598 32.6485C60.3102 33.3959 59.0533 33.7969 57.7648 33.7955Z" fill="#644E77"/>
<path d="M57.7653 17.2998C57.2774 17.2998 56.7902 17.3342 56.3072 17.4029L56.0509 17.1083L56.0303 16.9964C56.604 16.9044 57.1842 16.8581 57.7653 16.8579C60.2261 16.8557 62.6131 17.6977 64.528 19.2433C66.4428 20.7889 67.7695 22.9446 68.2866 25.3504C68.8037 27.7563 68.4799 30.2667 67.3692 32.4625C66.2585 34.6584 64.4282 36.4068 62.1838 37.4159L61.1735 37.3452C63.4636 36.536 65.3945 34.9442 66.6257 32.8504C67.8569 30.7567 68.3093 28.2955 67.9033 25.9008C67.4972 23.5061 66.2588 21.3316 64.4062 19.7608C62.5536 18.1899 60.2059 17.3236 57.7771 17.3145L57.7653 17.2998Z" fill="#644E77"/>
<path d="M56.3071 17.3912L56.1097 17.4237L56.0508 17.0967L56.3071 17.3912Z" fill="#644E77"/>
<path d="M56.2656 17.7949L56.3034 17.8385H56.3005L56.2656 17.7949Z" fill="#644E77"/>
<path d="M56.2658 17.7947L56.3011 17.8388L56.1862 17.8565L56.1509 17.665L56.2658 17.7947Z" fill="#644E77"/>
<path d="M56.5308 18.1037C56.4159 18.1037 56.304 18.1362 56.1891 18.1568L56.0742 18.0242C56.1862 18.0036 56.301 17.9859 56.4159 17.9712L56.5308 18.1037Z" fill="#644E77"/>
<path d="M56.0567 18.0094L55.9565 17.4468L56.1451 17.6648L56.1804 17.8562L56.2953 17.8386L56.4072 17.9711C56.2924 17.9711 56.1775 18.0035 56.0655 18.0241L56.0567 18.0094Z" fill="#644E77"/>
<path d="M55.9624 17.4469L56.1097 17.4233L56.1509 17.6649L55.9624 17.4469Z" fill="#644E77"/>
<path d="M56.0625 18.0098L56.0738 18.0239H56.0653L56.0625 18.0098Z" fill="#644E77"/>
<path d="M56.0297 16.9842L56.0503 17.0962L55.9885 17.0255C55.9495 16.9802 55.9082 16.9369 55.8647 16.8959V16.8664C58.4591 16.406 61.1324 16.9011 63.3899 18.2599C65.6474 19.6188 67.3362 21.7495 68.1437 24.2576C68.9512 26.7657 68.8228 29.4814 67.7822 31.9021C66.7416 34.3228 64.8593 36.2846 62.4837 37.4244L62.1892 37.4038C64.4335 36.3947 66.2638 34.6463 67.3745 32.4504C68.4852 30.2545 68.809 27.7441 68.2919 25.3383C67.7748 22.9324 66.4481 20.7768 64.5333 19.2312C62.6185 17.6856 60.2314 16.8436 57.7706 16.8458C57.1876 16.8457 56.6054 16.892 56.0297 16.9842Z" fill="#644E77"/>
<path d="M55.9885 17.0256L56.0503 17.0963L56.1092 17.4233L55.962 17.4468L55.8647 16.896C55.9082 16.937 55.9495 16.9803 55.9885 17.0256Z" fill="#644E77"/>
<path d="M55.9624 17.447L56.0626 18.0096L55.877 17.7946L55.7739 17.2231L55.9624 17.447Z" fill="#644E77"/>
<path d="M55.8652 16.8962C55.8115 16.8468 55.7533 16.8024 55.6914 16.7637V16.746L55.8387 16.7195C58.4468 16.2577 61.1339 16.7484 63.4104 18.1022C65.687 19.4559 67.4013 21.5826 68.241 24.0946C69.0807 26.6066 68.9899 29.3367 67.9851 31.7873C66.9803 34.2379 65.1284 36.2459 62.767 37.4454L62.4724 37.4248C64.848 36.285 66.7303 34.3232 67.7709 31.9025C68.8115 29.4818 68.9399 26.766 68.1324 24.2579C67.3248 21.7498 65.636 19.6192 63.3786 18.2603C61.1211 16.9014 58.4478 16.4064 55.8534 16.8668L55.8652 16.8962Z" fill="#644E77"/>
<path d="M55.7622 17.2227L55.6797 16.7632C55.7416 16.8019 55.7998 16.8463 55.8535 16.8957L55.9507 17.4466L55.7622 17.2227Z" fill="#644E77"/>
<path d="M57.765 37.4658C56.7658 37.4653 55.7724 37.3124 54.8193 37.0122L55.4674 37.0358C56.2172 37.2281 56.988 37.327 57.7621 37.3303C58.2382 37.3304 58.7137 37.2959 59.1849 37.2272C59.397 37.2272 59.6061 37.2508 59.8123 37.2626C59.1388 37.4016 58.4527 37.4697 57.765 37.4658Z" fill="#644E77"/>
<path d="M57.7652 37.9192C56.2719 37.9215 54.7961 37.5978 53.4409 36.9707L54.8107 37.0208C56.4315 37.5303 58.1564 37.6125 59.8183 37.2594L61.1557 37.3419C60.0659 37.7232 58.9198 37.9184 57.7652 37.9192Z" fill="#644E77"/>
<path d="M57.7652 38.3495C55.8982 38.3476 54.0641 37.8571 52.4453 36.9268L53.441 36.9592C55.8695 38.0773 58.637 38.2103 61.1616 37.3303L62.172 37.401C60.7872 38.0267 59.2849 38.3501 57.7652 38.3495Z" fill="#644E77"/>
<path d="M54.03 17.0255L46.0767 22.9464L45.897 22.7107L53.8504 16.7899C54.1153 16.5948 54.4347 16.4873 54.7637 16.4826C55.0927 16.4778 55.415 16.576 55.6855 16.7634L55.768 17.2229C55.5564 16.9771 55.2599 16.8203 54.9377 16.7837C54.6155 16.7471 54.2913 16.8335 54.03 17.0255Z" fill="#644E77"/>
<path d="M52.4422 36.9268C53.9093 37.7695 55.5553 38.2522 57.2452 38.3351C58.935 38.4181 60.6204 38.099 62.163 37.404L62.4576 37.4246C60.8284 38.2087 59.0289 38.5728 57.2231 38.4838C55.4173 38.3948 53.6624 37.8555 52.1182 36.915L52.4422 36.9268Z" fill="#644E77"/>
<path d="M51.8413 36.9063H52.1359C53.6801 37.8468 55.435 38.386 57.2408 38.475C59.0467 38.5641 60.8461 38.2 62.4753 37.4159L62.7698 37.4365C61.0611 38.3079 59.1539 38.7166 57.2382 38.622C55.3224 38.5275 53.4648 37.9329 51.8501 36.8975L51.8413 36.9063Z" fill="#644E77"/>
<path d="M51.965 29.7598C52.0033 29.8599 52.0416 29.9571 52.0829 30.0543H48.6924V29.7598H51.965Z" fill="#644E77"/>
<path d="M58.3481 25.5299H51.9323H51.4463L51.8351 25.2354H58.351C58.989 25.2361 59.6007 25.4899 60.0519 25.9411C60.5031 26.3923 60.7569 27.0039 60.7576 27.642C60.7569 28.2806 60.5032 28.8929 60.0522 29.345C59.6013 29.7971 58.9896 30.0522 58.351 30.0545H52.0826C52.0413 29.9573 52.003 29.8601 51.9647 29.7599H58.3481C58.9093 29.7592 59.4472 29.5357 59.8438 29.1386C60.2403 28.7415 60.4631 28.2032 60.4631 27.642C60.4615 27.0818 60.2381 26.545 59.8417 26.1492C59.4453 25.7534 58.9082 25.5307 58.3481 25.5299Z" fill="#644E77"/>
<path d="M51.965 29.7598H48.6924V29.4652H58.3631C58.8457 29.4637 59.3079 29.2709 59.6486 28.9291C59.9893 28.5873 60.1806 28.1244 60.1806 27.6418C60.1798 27.1595 59.9877 26.6973 59.6464 26.3565C59.3051 26.0157 58.8425 25.8244 58.3602 25.8244H51.0696L51.1461 25.7654L50.9694 25.5327L51.1491 25.7654L51.4584 25.5298H51.9326H58.3484C58.9086 25.5306 59.4456 25.7532 59.842 26.1491C60.2384 26.5449 60.4618 27.0817 60.4634 27.6418C60.4634 28.2031 60.2407 28.7413 59.8441 29.1384C59.4475 29.5355 58.9096 29.759 58.3484 29.7598H51.965Z" fill="#644E77"/>
<path d="M56.7697 21.4883L51.8357 25.2293H51.3438L52.4778 24.3692L56.0775 21.6415C56.3049 21.5763 56.5361 21.5252 56.7697 21.4883Z" fill="#644E77"/>
<path d="M51.8353 25.2295L51.4465 25.5241H50.9604L51.3463 25.2295H51.3493H51.8353Z" fill="#644E77"/>
<path d="M51.3464 25.2295L50.9605 25.5241H50.9575L50.9605 25.2295H51.3464Z" fill="#644E77"/>
<path d="M51.1343 25.7596L51.0577 25.8185H50.9546L50.9575 25.5269L51.1343 25.7596Z" fill="#644E77"/>
<path d="M50.9609 25.2292V25.5237L50.7842 25.291L56.9407 20.625C57.0493 20.5432 57.1397 20.4396 57.2061 20.3209C57.2725 20.2023 57.3135 20.0711 57.3266 19.9357C57.3418 19.8022 57.3289 19.6669 57.2888 19.5386C57.2488 19.4102 57.1824 19.2917 57.0939 19.1905L56.2101 18.1565C56.325 18.1359 56.437 18.1182 56.5518 18.1035L57.3266 18.9872C57.4413 19.1202 57.5276 19.2752 57.5801 19.4428C57.6327 19.6103 57.6504 19.7869 57.6322 19.9615C57.614 20.1362 57.5602 20.3053 57.4742 20.4584C57.3882 20.6115 57.2718 20.7454 57.1322 20.8518L56.1041 21.6325L52.4838 24.369L51.3439 25.2292H50.9609Z" fill="#644E77"/>
<path d="M50.9605 25.5239H51.4465L51.1372 25.7596L50.9575 25.5269V25.5239H50.9605Z" fill="#644E77"/>
<path d="M50.9575 25.5239V25.5269L50.9546 25.5239H50.9575Z" fill="white"/>
<path d="M48.6922 30.0547V30.4965H48.651C48.6127 30.3787 48.5744 30.2579 48.5449 30.1372V30.0547H48.6922Z" fill="#644E77"/>
<path d="M48.6805 29.7598H48.5332V30.0543H48.6805V29.7598Z" fill="#644E77"/>
<path d="M48.6805 29.4653H48.5332V29.7599H48.6805V29.4653Z" fill="#644E77"/>
<path d="M55.4676 37.036C53.8415 36.6354 52.3457 35.8236 51.1237 34.6784C49.9017 33.5333 48.9945 32.0933 48.4893 30.4966H48.6454C49.1973 32.2142 50.221 33.7421 51.5998 34.9057C52.9785 36.0693 54.6567 36.8218 56.4426 37.0773L55.4676 37.036Z" fill="#644E77"/>
<path d="M48.4831 30.4966C48.4653 30.4485 48.4506 30.3993 48.439 30.3493H48.5332V30.1372C48.5627 30.258 48.601 30.3788 48.6393 30.4966H48.4831Z" fill="#644E77"/>
<path d="M48.5333 30.0547V30.1372C48.5333 30.1107 48.5157 30.0812 48.5098 30.0547H48.5333Z" fill="#644E77"/>
<path d="M48.439 29.7598H48.5332V30.0543H48.5097C48.4832 29.966 48.4596 29.8599 48.439 29.7598Z" fill="#644E77"/>
<path d="M48.4388 30.3493C48.418 30.2893 48.4003 30.2284 48.3857 30.1666V30.0547H48.5095C48.5095 30.0812 48.5242 30.1107 48.533 30.1372V30.3493H48.4388Z" fill="#644E77"/>
<path d="M54.8106 37.0095C53.286 36.5255 51.9008 35.6807 50.7726 34.5468C49.6443 33.413 48.8065 32.0235 48.3301 30.4966H48.4833C48.989 32.094 49.8971 33.5345 51.1202 34.6797C52.3433 35.8249 53.8403 36.6363 55.4675 37.036L54.8224 37.0125L54.8106 37.0095Z" fill="#644E77"/>
<path d="M48.4392 29.7598C48.4598 29.8599 48.4834 29.9571 48.5099 30.0543H48.3979V29.7598H48.4392Z" fill="#644E77"/>
<path d="M48.3298 30.4959C48.312 30.4478 48.2973 30.3986 48.2856 30.3486H48.4388C48.4504 30.3986 48.4652 30.4478 48.483 30.4959H48.3298Z" fill="#644E77"/>
<path d="M48.3979 29.4653H48.5452V29.7599H48.451C48.451 29.7098 48.4245 29.6568 48.4127 29.6038V29.539L48.3979 29.4653Z" fill="#644E77"/>
<path d="M48.3979 29.6039C48.3979 29.6569 48.4215 29.7099 48.4362 29.76H48.3979V29.5391V29.6039Z" fill="#644E77"/>
<path d="M48.3858 29.4653V29.539L48.3682 29.4653H48.3858Z" fill="#644E77"/>
<path d="M48.3534 30.0543C48.3298 29.9571 48.3063 29.857 48.2856 29.7598H48.3976V30.0543H48.3534Z" fill="#644E77"/>
<path d="M48.3976 30.0547V30.1666C48.3976 30.1283 48.377 30.09 48.3652 30.0547H48.3976Z" fill="#644E77"/>
<path d="M48.3978 30.1665C48.4123 30.2282 48.43 30.2892 48.4508 30.3491H48.2976L48.2534 30.2019H48.3978V30.1665Z" fill="#644E77"/>
<path d="M48.3676 29.4624V29.4652H48.3535L48.3676 29.4624Z" fill="#644E77"/>
<path d="M48.3538 29.4653L47.6792 29.6097V29.4653H48.3538Z" fill="#644E77"/>
<path d="M48.3979 30.202H48.2536L48.2183 30.0547H48.3655C48.3655 30.09 48.3862 30.1283 48.3979 30.1666V30.202Z" fill="#644E77"/>
<path d="M53.4409 36.9594C52.1052 36.3414 50.9169 35.445 49.9557 34.3304C48.9946 33.2158 48.2826 31.9087 47.8677 30.4966H48.3302C48.8065 32.0235 49.6444 33.413 50.7726 34.5468C51.9009 35.6807 53.2861 36.5255 54.8107 37.0095L53.4409 36.9594Z" fill="#644E77"/>
<path d="M47.8674 30.4959C47.8509 30.4476 47.8372 30.3985 47.8262 30.3486H48.2857C48.2973 30.3986 48.3121 30.4478 48.3299 30.4959H47.8674Z" fill="#644E77"/>
<path d="M48.2566 29.6362C48.2566 29.6775 48.2742 29.7187 48.286 29.7599H47.6792L48.2566 29.6362Z" fill="#644E77"/>
<path d="M48.2566 29.6362L47.6675 29.7599V29.6097L48.342 29.4653H48.3568L48.3744 29.539V29.7599H48.2743C48.2743 29.7187 48.2655 29.6715 48.2566 29.6362Z" fill="#644E77"/>
<path d="M48.2417 30.2017L48.2859 30.3489H47.8264C47.8096 30.3008 47.7958 30.2516 47.7852 30.2017H48.2417Z" fill="#644E77"/>
<path d="M48.2061 30.0547L48.2414 30.202H47.7849C47.7703 30.1536 47.7585 30.1044 47.7495 30.0547H48.2061Z" fill="#644E77"/>
<path d="M47.7497 30.0546C47.7348 30.0043 47.723 29.9531 47.7144 29.9014L48.1444 29.8101C48.1621 29.8925 48.1827 29.975 48.2063 30.0546H47.7497Z" fill="#644E77"/>
<path d="M52.4419 36.927C49.9855 35.526 48.1768 33.2171 47.4048 30.4966H47.8673C48.2822 31.9087 48.9941 33.2158 49.9553 34.3304C50.9165 35.445 52.1048 36.3414 53.4405 36.9594L52.4449 36.927H52.4419Z" fill="#644E77"/>
<path d="M47.405 30.4959C47.405 30.4488 47.3785 30.3987 47.3667 30.3486H47.8262C47.8372 30.3985 47.851 30.4476 47.8675 30.4959H47.405Z" fill="#644E77"/>
<path d="M47.3669 30.3489C47.3522 30.3018 47.3404 30.2517 47.3286 30.2017H47.7852C47.7958 30.2516 47.8096 30.3008 47.8264 30.3489H47.3669Z" fill="#644E77"/>
<path d="M47.6792 29.7598H48.286C48.3066 29.857 48.3302 29.9571 48.3538 30.0543H48.2065C48.1829 29.9748 48.1623 29.8923 48.1446 29.8098L47.7145 29.9012C47.6998 29.854 47.688 29.8069 47.6792 29.7598Z" fill="#644E77"/>
<path d="M47.7145 29.9014C47.7232 29.9531 47.735 30.0043 47.7499 30.0545H47.6792V29.9102H47.7116L47.7145 29.9014Z" fill="#644E77"/>
<path d="M47.6792 29.91V29.7598C47.6792 29.8069 47.6998 29.854 47.7116 29.9012L47.6792 29.91Z" fill="#644E77"/>
<path d="M47.6789 30.0545H47.7496C47.7586 30.1042 47.7704 30.1534 47.785 30.2018H47.3284C47.3107 30.134 47.293 30.0663 47.2783 29.9956L47.6789 29.9102V30.0545Z" fill="#644E77"/>
<path d="M47.6733 29.7601H46.9692L47.6792 29.6099V29.7601H47.6733Z" fill="#644E77"/>
<path d="M52.1388 36.9153C49.7511 35.4784 48.0044 33.1815 47.2578 30.4966H47.4051C48.1771 33.2171 49.9858 35.526 52.4422 36.927L52.1388 36.9153Z" fill="#644E77"/>
<path d="M47.367 30.3486C47.367 30.3987 47.3935 30.4488 47.4053 30.4959H47.258C47.258 30.4488 47.2286 30.3987 47.2168 30.3486H47.367Z" fill="#644E77"/>
<path d="M47.3284 30.2017C47.3284 30.2517 47.352 30.3018 47.3667 30.3489H47.2194C47.2045 30.3006 47.1927 30.2515 47.1841 30.2017H47.3284Z" fill="#644E77"/>
<path d="M47.1811 30.2016C47.1516 30.0956 47.1281 29.9895 47.1045 29.8805L47.673 29.7598V29.91L47.2724 29.9954C47.2871 30.0661 47.3048 30.1339 47.3225 30.2016H47.1811Z" fill="#644E77"/>
<path d="M51.8412 36.9064C49.5191 35.4343 47.8299 33.1486 47.1045 30.4966H47.2577C48.0043 33.1815 49.7509 35.4784 52.1387 36.9153L51.8412 36.9064Z" fill="#644E77"/>
<path d="M47.1047 30.4959C47.0882 30.4476 47.0745 30.3985 47.0635 30.3486H47.2196C47.2196 30.3987 47.2461 30.4488 47.2608 30.4959H47.1047Z" fill="#644E77"/>
<path d="M47.0632 30.3489C47.0486 30.3006 47.0368 30.2514 47.0278 30.2017H47.181C47.1897 30.2515 47.2015 30.3006 47.2164 30.3489H47.0632Z" fill="#644E77"/>
<path d="M47.1045 29.881C47.128 29.99 47.1516 30.096 47.1811 30.2021H47.0279C47.0014 30.1078 46.9808 30.0106 46.9601 29.9075L46.9277 29.7632H46.969H47.673L47.1045 29.881Z" fill="#644E77"/>
<path d="M46.8898 25.2529L47.5614 26.1366L47.9503 26.6492C48.1008 26.8453 48.3228 26.9739 48.5678 27.007C48.8128 27.0401 49.061 26.975 49.2582 26.8259L50.9549 25.5357V25.8303H51.0491L49.4261 27.0616C49.2135 27.2231 48.9537 27.3101 48.6867 27.309C48.497 27.3097 48.3097 27.2665 48.1395 27.1826C47.9693 27.0988 47.8209 26.9767 47.7058 26.8259L46.6777 25.4739L46.8545 25.2765L46.8898 25.2529Z" fill="#644E77"/>
<path d="M46.3359 24.9849L46.7012 25.4621L44.8896 27.4651H37.6108C37.6073 27.3526 37.5965 27.2404 37.5784 27.1293C37.5784 27.0439 37.5519 26.9585 37.5342 26.876H44.6039L46.3359 24.9849Z" fill="#644E77"/>
<path d="M46.4273 24.8701L46.8633 25.2648L46.6866 25.4622L46.3213 24.985L46.4273 24.8701Z" fill="#644E77"/>
<path d="M54.2068 17.2614L45.8941 23.4474L45.8027 23.3296L46.1533 23.0615L46.0678 22.9496L54.0212 17.0287C54.2818 16.836 54.6055 16.7486 54.9277 16.7841C55.2499 16.8196 55.5468 16.9753 55.7592 17.2202L55.8623 17.7917L55.5294 17.4087C55.3671 17.2236 55.1414 17.1058 54.8967 17.0786C54.652 17.0513 54.4059 17.1165 54.2068 17.2614Z" fill="#644E77"/>
<path d="M46.0678 22.9468L46.1533 23.0587L45.8027 23.3268L45.7144 23.2089L45.7909 23.15L46.0678 22.9468Z" fill="#644E77"/>
<path d="M46.068 22.9466L45.7911 23.1498C45.8321 23.1183 45.8591 23.0719 45.8663 23.0207C45.8735 22.9695 45.8602 22.9175 45.8294 22.8759L45.7705 22.7993L45.8883 22.7109L46.068 22.9466Z" fill="#644E77"/>
<path d="M45.894 23.4445L45.7261 23.5682L45.6377 23.4504L45.8027 23.3267L45.894 23.4445Z" fill="#644E77"/>
<path d="M45.7143 23.209L45.8026 23.3268L45.6377 23.4505L45.5522 23.3327L45.5552 23.3298L45.6612 23.2502L45.7143 23.209Z" fill="#644E77"/>
<path d="M45.726 23.5681L45.8939 23.4443L48.1827 26.4578C48.2861 26.5878 48.4357 26.673 48.6003 26.6955C48.7649 26.718 48.9319 26.6761 49.0664 26.5786L50.7631 25.2913L50.9398 25.524L49.2431 26.8142C49.0459 26.9633 48.7978 27.0284 48.5528 26.9953C48.3078 26.9622 48.0858 26.8336 47.9352 26.6375L47.5611 26.1367L46.8895 25.253L45.5669 23.5121L45.6376 23.4591L45.726 23.5681Z" fill="#644E77"/>
<path d="M45.3311 23.6826L45.5667 23.5029L46.8893 25.2438L46.8628 25.2645L46.4269 24.8697L46.3208 24.9846L45.3311 23.6826Z" fill="#644E77"/>
<path d="M45.5552 23.3295L45.6612 23.25L45.5552 23.3295Z" fill="#644E77"/>
<path d="M45.8291 22.8759C45.8599 22.9175 45.8731 22.9695 45.866 23.0207C45.8588 23.0719 45.8318 23.1183 45.7908 23.1499L45.7142 23.2088L45.6612 23.25L45.5552 23.3295L45.4697 23.2147L45.7466 23.0026L45.6583 22.8877L45.7761 22.7993L45.8291 22.8759Z" fill="#644E77"/>
<path d="M45.5523 23.3296H45.5493V23.3325H45.5523V23.3296Z" fill="#644E77"/>
<path d="M45.5522 23.3325L45.6376 23.4504L45.5669 23.5034L45.4785 23.3885L45.5522 23.3325Z" fill="#644E77"/>
<path d="M45.5492 23.3296L45.5522 23.3325L45.4785 23.3885L45.5492 23.3296Z" fill="#644E77"/>
<path d="M45.3755 23.0939L45.6524 22.8877L45.7408 23.0026L45.4639 23.2147L45.3755 23.0939Z" fill="#644E77"/>
<path d="M45.3315 23.6828L45.2432 23.5679L45.4788 23.3882L45.5672 23.5031L45.3315 23.6828Z" fill="#644E77"/>
<path d="M45.4785 23.3886L45.3872 23.2708L45.4638 23.2148L45.5492 23.3297L45.4785 23.3886Z" fill="#644E77"/>
<path d="M40.4208 11.5175C44.6861 12.0831 47.8793 10.7546 49.8735 9.86203C51.9149 8.95181 53.6499 6.28007 54.6927 5.2314C55.7354 4.18273 62.5105 1.10742 62.5105 1.10742L61.8065 6.43913L44.5094 20.6138C44.3201 20.7686 44.1981 20.9906 44.169 21.2334C44.1399 21.4761 44.2059 21.7207 44.3533 21.9158L45.3872 23.2708C45.3413 23.3064 45.2888 23.3324 45.2328 23.3475C45.1767 23.3626 45.1182 23.3664 45.0607 23.3587C45.0032 23.351 44.9477 23.332 44.8976 23.3028C44.8475 23.2736 44.8036 23.2347 44.7686 23.1884L44.0027 22.1839C43.7844 21.8983 43.686 21.5389 43.7283 21.182C43.7707 20.825 43.9505 20.4987 44.2296 20.2721L61.3588 6.24177C61.3719 6.23205 61.3829 6.21969 61.391 6.20549C61.3991 6.19129 61.4042 6.17556 61.4059 6.15929L61.9774 1.84385L61.7329 1.95873C59.0258 3.21949 55.6412 4.90442 55.0137 5.54364C54.7486 5.8117 54.4246 6.19759 54.0593 6.64533C53.0283 7.87369 51.638 9.55863 50.0532 10.2656C48.3565 11.0256 44.8334 12.6015 40.1763 11.9299C40.244 11.8356 40.3118 11.7355 40.3766 11.6353C40.3996 11.5997 40.4147 11.5595 40.4208 11.5175Z" fill="#644E77"/>
<path d="M39.9731 12.1977C40.0085 12.1535 40.0438 12.1122 40.0762 12.0651C44.8129 12.7691 48.3919 11.1814 50.1152 10.4008C51.7294 9.67909 53.1316 7.98237 54.1567 6.74518C54.5278 6.29743 54.8489 5.91155 55.1111 5.64938C55.7002 5.06024 58.9258 3.43422 61.4649 2.24121C61.4969 2.22639 61.5322 2.22052 61.5672 2.22422C61.6022 2.22792 61.6356 2.24106 61.6637 2.26223C61.6918 2.2834 61.7137 2.3118 61.7269 2.34442C61.7402 2.37703 61.7443 2.41263 61.7389 2.44741L61.2617 6.05589C61.2561 6.10521 61.2319 6.15053 61.1939 6.18255L44.1354 20.1569C43.8275 20.4081 43.6292 20.7692 43.5825 21.1638C43.5358 21.5584 43.6443 21.9558 43.885 22.2719L44.8925 23.5916C44.9244 23.6322 44.971 23.6586 45.0222 23.6652C45.0734 23.6718 45.1252 23.6581 45.1664 23.627L45.243 23.5681L45.3314 23.6829C45.2383 23.7539 45.121 23.785 45.005 23.7696C44.8891 23.7541 44.784 23.6933 44.7128 23.6005L43.7701 22.3603C43.5053 22.0149 43.3855 21.58 43.4361 21.1477C43.4867 20.7154 43.7037 20.3199 44.0412 20.045L61.0643 6.08829C61.0775 6.07857 61.0885 6.06621 61.0966 6.05201C61.1047 6.03781 61.1098 6.02208 61.1115 6.00581L61.5739 2.57113C61.5771 2.54809 61.5741 2.52462 61.5651 2.50318C61.5561 2.48173 61.5415 2.4631 61.5228 2.44925C61.5041 2.43539 61.482 2.42681 61.4589 2.42442C61.4358 2.42202 61.4124 2.42589 61.3913 2.43563C58.6253 3.74941 55.7621 5.22226 55.2142 5.75248C54.9579 6.00876 54.6427 6.3917 54.2686 6.83944C53.2347 8.08842 51.8207 9.79987 50.1653 10.5245C48.4273 11.3022 44.81 12.9194 40.0085 12.1918L39.9731 12.1977Z" fill="#644E77"/>
<path d="M40.02 11.2053C40.0634 11.1877 40.1103 11.1806 40.1569 11.1847C40.2035 11.1888 40.2485 11.204 40.2881 11.2289C40.3365 11.2598 40.3748 11.3041 40.3983 11.3564C40.4219 11.4087 40.4296 11.4668 40.4206 11.5235L40.1261 11.4822C40.1261 11.4822 40.0937 11.3762 40.02 11.2053Z" fill="#644E77"/>
<path d="M40.1763 11.9293C44.8335 12.6009 48.3565 11.025 50.0532 10.265C51.638 9.55804 53.0284 7.879 54.0506 6.64475C54.4217 6.197 54.7398 5.81111 55.005 5.54306C55.6324 4.91562 59.017 3.2189 61.7241 1.95814L61.9686 1.84326L61.3971 6.15871C61.3954 6.17497 61.3904 6.19071 61.3822 6.20491C61.3741 6.21911 61.3631 6.23146 61.35 6.24119L44.2296 20.2715C43.9505 20.4981 43.7707 20.8245 43.7284 21.1814C43.686 21.5384 43.7845 21.8977 44.0028 22.1833L44.7687 23.1878C44.8037 23.2341 44.8475 23.273 44.8976 23.3022C44.9478 23.3314 45.0032 23.3505 45.0608 23.3581C45.1183 23.3658 45.1768 23.362 45.2328 23.3469C45.2889 23.3318 45.3414 23.3058 45.3873 23.2703L45.4786 23.3881L45.2429 23.5678L45.1663 23.6267C45.1251 23.6578 45.0734 23.6715 45.0221 23.6649C44.9709 23.6583 44.9243 23.6319 44.8924 23.5913L43.885 22.2717C43.6442 21.9555 43.5357 21.5582 43.5824 21.1635C43.6291 20.7689 43.8274 20.4079 44.1353 20.1567L61.1939 6.18227C61.2318 6.15025 61.256 6.10493 61.2616 6.05561L61.7388 2.44713C61.7442 2.41235 61.7401 2.37675 61.7268 2.34414C61.7136 2.31152 61.6918 2.28312 61.6636 2.26195C61.6355 2.24078 61.6022 2.22765 61.5672 2.22394C61.5322 2.22024 61.4968 2.22611 61.4649 2.24093C58.9257 3.43394 55.709 5.04818 55.111 5.6491C54.8488 5.91127 54.5219 6.29715 54.1566 6.7449C53.1315 7.98209 51.7293 9.6906 50.1151 10.4005C48.3919 11.1693 44.8129 12.7571 40.0762 12.0648C40.1086 12.0206 40.1439 11.9765 40.1734 11.9293H40.1763Z" fill="#644E77"/>
<path d="M39.8023 11.8738L39.7139 11.6234C39.7098 11.6094 39.7049 11.5956 39.6992 11.5821C39.7611 11.4967 39.82 11.4083 39.8789 11.317C39.9113 11.2642 39.9614 11.2245 40.0203 11.2051C40.0939 11.3759 40.1293 11.4761 40.1293 11.4761L40.4239 11.5173C40.4178 11.5593 40.4027 11.5995 40.3797 11.6351C40.3149 11.7353 40.2471 11.8355 40.1794 11.9297L40.0674 11.912L39.8023 11.8738Z" fill="#644E77"/>
<path d="M39.714 11.6232L39.8024 11.8736L40.0616 11.9119L40.1736 11.9296C40.1441 11.9767 40.1088 12.0209 40.0764 12.0651H40.041L39.8083 12.0268C39.7733 12.0216 39.7404 12.0071 39.7129 11.9848C39.6854 11.9626 39.6645 11.9333 39.6522 11.9001L39.5933 11.7322L39.6286 11.6851L39.6993 11.5879C39.7048 11.5994 39.7097 11.6112 39.714 11.6232Z" fill="#644E77"/>
<path d="M39.6991 11.5821L39.6284 11.6793L39.6608 11.4878L39.6991 11.5821Z" fill="#644E77"/>
<path d="M39.584 12.136L39.4868 11.8621L39.5929 11.7266L39.6518 11.8945C39.6641 11.9276 39.685 11.9569 39.7125 11.9792C39.74 12.0015 39.7729 12.0159 39.8079 12.0211L40.0406 12.0594H40.076C40.0436 12.1066 40.0082 12.1478 39.9729 12.192L39.584 12.136Z" fill="#644E77"/>
<path d="M39.481 11.0928L39.5071 11.145L39.481 11.0928Z" fill="#644E77"/>
<path d="M39.3689 10.8686L39.3398 10.8105L39.3689 10.8686Z" fill="#644E77"/>
<path d="M37.9198 19.4114H31.3126C31.2345 19.4114 31.1596 19.3804 31.1043 19.3251C31.0491 19.2699 31.0181 19.195 31.0181 19.1168C31.0181 19.0387 31.0491 18.9638 31.1043 18.9085C31.1596 18.8533 31.2345 18.8223 31.3126 18.8223H38.0877C38.1352 18.8223 38.182 18.8339 38.2241 18.856C38.2661 18.878 38.3022 18.9099 38.3293 18.9489L41.328 23.2703C41.3724 23.3344 41.3896 23.4135 41.3758 23.4902C41.362 23.567 41.3183 23.6351 41.2544 23.6797C41.2051 23.7141 41.1465 23.7326 41.0865 23.7327C41.0385 23.7331 40.9911 23.7218 40.9485 23.6997C40.9059 23.6777 40.8693 23.6455 40.842 23.6061L37.9198 19.4114Z" fill="#644E77"/>
<path d="M37.5782 27.1293C37.5963 27.2404 37.6072 27.3526 37.6106 27.4651H37.3161C37.3161 27.3679 37.3161 27.2678 37.2866 27.1705V26.876H37.5341C37.5517 26.9585 37.5665 27.0439 37.5782 27.1293Z" fill="#644E77"/>
<path d="M37.2866 27.465V27.1704C37.3013 27.2676 37.3102 27.3678 37.3161 27.465H37.2866Z" fill="#644E77"/>
<path d="M37.1247 7.90883L36.9951 7.79395L37.1247 7.90883Z" fill="#644E77"/>
<path d="M36.9949 27.2119C37.0174 27.3561 37.0282 27.5019 37.0273 27.6479C37.0309 28.4618 36.7185 29.2453 36.1558 29.8333C35.593 30.4212 34.824 30.7678 34.0107 30.7998C33.1975 30.8318 32.4036 30.5468 31.7964 30.0049C31.1891 29.463 30.816 28.7065 30.7557 27.8948C30.6954 27.0832 30.9526 26.2799 31.473 25.6541C31.9934 25.0284 32.7365 24.6292 33.5455 24.5406C34.3546 24.4521 35.1664 24.6811 35.8099 25.1794C36.4533 25.6778 36.8782 26.4065 36.9949 27.2119Z" fill="white"/>
<path d="M36.1346 7.15461C36.0551 7.10453 35.9755 7.05446 35.8931 7.00732C35.9755 7.05446 36.0551 7.10159 36.1346 7.15461Z" fill="#644E77"/>
<path d="M35.7137 6.90426L35.5576 6.82178L35.7137 6.90426Z" fill="#644E77"/>
<path d="M35.5575 6.82172L35.3984 6.74219C35.4515 6.76575 35.5045 6.79226 35.5575 6.82172Z" fill="#644E77"/>
<path d="M35.3983 6.74209L35.248 6.67139L35.3983 6.74209Z" fill="#644E77"/>
<path d="M34.9008 6.52721L34.73 6.4624L34.9008 6.52721Z" fill="#644E77"/>
<path d="M34.7295 6.46274L34.5527 6.40088L34.7295 6.46274Z" fill="#644E77"/>
<path d="M34.3735 6.34744L34.1909 6.29736L34.3735 6.34744Z" fill="#644E77"/>
<path d="M34.0577 6.26489C33.9929 6.24721 33.9281 6.23249 33.8604 6.2207C33.9281 6.23249 33.9929 6.24721 34.0577 6.26489Z" fill="#644E77"/>
<path d="M33.8609 6.22091L33.6606 6.18262L33.8609 6.22091Z" fill="#644E77"/>
<path d="M33.6691 6.18279L33.4629 6.15039L33.6691 6.18279Z" fill="#644E77"/>
<path d="M33.4543 6.15005C33.3836 6.13826 33.3129 6.12943 33.2422 6.12354C33.3129 6.12943 33.3836 6.13826 33.4543 6.15005Z" fill="#644E77"/>
<path d="M32.812 6.08838C32.9505 6.08838 33.086 6.10605 33.2185 6.12078C33.0801 6.10605 32.9505 6.10605 32.812 6.08838Z" fill="#644E77"/>
<path d="M32.8003 6.38296C37.5134 6.60683 39.4163 11.6852 39.4369 11.7265L39.487 11.862C38.1084 13.5822 36.0582 14.3069 34.5117 14.6132C31.4011 15.2289 27.8633 14.6309 25.71 13.1227C25.6781 13.1003 25.6422 13.0843 25.6041 13.0759C25.5661 13.0674 25.5268 13.0666 25.4884 13.0734C25.45 13.0803 25.4134 13.0947 25.3807 13.1158C25.3479 13.1369 25.3197 13.1643 25.2976 13.1964C25.2531 13.2605 25.2359 13.3396 25.2498 13.4163C25.2636 13.4931 25.3072 13.5612 25.3712 13.6058C27.0562 14.7841 29.5335 15.441 32.0255 15.441C32.8986 15.4423 33.7698 15.3584 34.6266 15.1906C36.2821 14.8636 38.4825 14.0801 39.973 12.1978H40.0172C44.8187 12.9254 48.436 11.3141 50.174 10.5305C51.8206 9.79408 53.2346 8.08263 54.2685 6.83365C54.6426 6.38591 54.9578 6.00297 55.2141 5.74669C55.7472 5.21647 58.6252 3.73773 61.4 2.43573C61.4212 2.42599 61.4445 2.42212 61.4676 2.42452C61.4908 2.42691 61.5128 2.43549 61.5315 2.44935C61.5502 2.46321 61.5648 2.48183 61.5738 2.50328C61.5828 2.52472 61.5859 2.54819 61.5827 2.57123L61.129 6.00002C61.1273 6.01629 61.1223 6.03202 61.1141 6.04622C61.106 6.06042 61.095 6.07278 61.0819 6.0825L44.0499 20.0392C43.7124 20.3141 43.4954 20.7096 43.4448 21.1419C43.3942 21.5742 43.514 22.0092 43.7789 22.3545L44.7215 23.5947C44.7927 23.6875 44.8978 23.7483 45.0137 23.7638C45.1297 23.7793 45.2471 23.7481 45.3401 23.6771L46.3298 24.9791L44.6213 26.8703H37.5517C37.3523 25.9399 36.8034 25.1215 36.0183 24.5839C35.2332 24.0463 34.2718 23.8305 33.3322 23.9809C32.3927 24.1314 31.5467 24.6367 30.9688 25.3926C30.3908 26.1485 30.125 27.0973 30.2261 28.0435C30.3273 28.9896 30.7876 29.8608 31.5122 30.4775C32.2368 31.0942 33.1705 31.4093 34.1206 31.3578C35.0707 31.3063 35.9649 30.8922 36.6186 30.2008C37.2724 29.5095 37.6359 28.5936 37.6341 27.6421C37.6341 27.5802 37.6341 27.5183 37.6341 27.4594H44.8629L46.6745 25.4563L47.7025 26.8084C47.8176 26.9592 47.9661 27.0813 48.1363 27.1651C48.3065 27.2489 48.4938 27.2922 48.6835 27.2915C48.9504 27.2926 49.2103 27.2056 49.4228 27.0441L51.0459 25.8128H58.3365C58.8188 25.8128 59.2814 26.0042 59.6227 26.3449C59.964 26.6857 60.1562 27.148 60.1569 27.6303C60.157 28.1128 59.9657 28.5757 59.625 28.9175C59.2843 29.2593 58.822 29.4521 58.3395 29.4537H48.6923V29.0118H44.5359L42.5859 33.6012H28.3081C28.1342 33.6027 27.9618 33.5684 27.8017 33.5005C27.6415 33.4326 27.4971 33.3325 27.3772 33.2065C27.2549 33.0805 27.1597 32.9309 27.0974 32.7667C27.0351 32.6026 27.007 32.4275 27.0149 32.2521C27.1298 29.4095 27.0149 25.3444 25.8101 22.1307C24.1782 17.7592 19.686 15.2554 18.2515 14.5514L20.3311 8.83967C21.277 8.95778 22.1991 9.22108 23.0647 9.62028L23.4624 9.82059C23.4876 9.83242 23.5158 9.83623 23.5432 9.83148C23.5706 9.82674 23.5959 9.81368 23.6156 9.79408L23.9101 9.47594C26.3503 7.31389 29.5451 6.20236 32.8003 6.38296ZM41.2485 23.6801C41.3125 23.6355 41.3562 23.5673 41.37 23.4906C41.3838 23.4138 41.3666 23.3347 41.3222 23.2706L38.3146 18.9493C38.2875 18.9103 38.2514 18.8784 38.2094 18.8563C38.1673 18.8343 38.1205 18.8227 38.0731 18.8226H31.3127C31.2346 18.8226 31.1596 18.8537 31.1044 18.9089C31.0491 18.9642 31.0181 19.0391 31.0181 19.1172C31.0181 19.1953 31.0491 19.2703 31.1044 19.3255C31.1596 19.3807 31.2346 19.4118 31.3127 19.4118H37.9258L40.842 23.6065C40.8694 23.6459 40.9059 23.678 40.9485 23.7001C40.9912 23.7222 41.0385 23.7335 41.0865 23.7331C41.1446 23.7318 41.2009 23.7133 41.2485 23.6801Z" fill="white"/>
<path d="M30.4761 27.6508C30.4787 26.7865 30.8083 25.9551 31.3985 25.3237C31.9888 24.6923 32.7961 24.3075 33.6583 24.2468C34.5205 24.186 35.3738 24.4536 36.0468 24.996C36.7198 25.5383 37.1627 26.3152 37.2866 27.1706V27.4652H37.316C37.316 27.5271 37.316 27.5889 37.316 27.6508C37.316 28.5586 36.9554 29.4292 36.3135 30.0711C35.6716 30.7131 34.8009 31.0737 33.8931 31.0737C32.9853 31.0737 32.1147 30.7131 31.4728 30.0711C30.8308 29.4292 30.4702 28.5586 30.4702 27.6508H30.4761ZM30.7707 27.6508C30.7707 28.4805 31.1003 29.2762 31.6869 29.8629C32.2736 30.4495 33.0693 30.7791 33.899 30.7791C34.7287 30.7791 35.5244 30.4495 36.1111 29.8629C36.6977 29.2762 37.0273 28.4805 37.0273 27.6508C37.0283 27.5048 37.0174 27.359 36.9949 27.2148C36.8816 26.4334 36.477 25.7237 35.8622 25.2282C35.2475 24.7326 34.4681 24.4879 33.6804 24.543C32.8927 24.5982 32.155 24.9492 31.6154 25.5256C31.0757 26.102 30.7739 26.8612 30.7707 27.6508Z" fill="#644E77"/>
<path d="M33.8992 24.2279C33.2222 24.2279 32.5604 24.4287 31.9975 24.8048C31.4346 25.1809 30.9959 25.7155 30.7368 26.3409C30.4778 26.9664 30.41 27.6546 30.542 28.3186C30.6741 28.9826 31.0001 29.5925 31.4788 30.0712C31.9575 30.5499 32.5674 30.8759 33.2314 31.008C33.8954 31.14 34.5836 31.0722 35.2091 30.8132C35.8345 30.5541 36.3691 30.1154 36.7452 29.5525C37.1213 28.9896 37.3221 28.3278 37.3221 27.6508C37.3221 27.589 37.3221 27.5271 37.3221 27.4652H37.6166C37.6166 27.5242 37.6166 27.586 37.6166 27.6479C37.6186 28.6017 37.2544 29.52 36.5992 30.2132C35.9439 30.9064 35.0477 31.3217 34.0952 31.3734C33.1428 31.4251 32.2068 31.1093 31.4803 30.4912C30.7539 29.873 30.2924 28.9996 30.191 28.0512C30.0897 27.1027 30.3562 26.1515 30.9356 25.3938C31.515 24.6361 32.3631 24.1296 33.305 23.9789C34.2468 23.8282 35.2106 24.0447 35.9976 24.5838C36.7845 25.1229 37.3345 25.9434 37.5342 26.8761H37.2867V27.1707C37.1717 26.3542 36.7655 25.6068 36.1431 25.0661C35.5206 24.5253 34.7237 24.2277 33.8992 24.2279Z" fill="#644E77"/>
<path d="M32.0256 15.4408C29.5335 15.4408 27.0562 14.7839 25.3712 13.6057C25.3073 13.5611 25.2636 13.4929 25.2498 13.4162C25.236 13.3394 25.2532 13.2603 25.2976 13.1962C25.3197 13.1641 25.3479 13.1367 25.3807 13.1156C25.4134 13.0945 25.4501 13.0802 25.4884 13.0733C25.5268 13.0665 25.5661 13.0673 25.6041 13.0757C25.6422 13.0842 25.6781 13.1001 25.71 13.1226C27.8633 14.6308 31.4011 15.2287 34.5117 14.6131C36.0582 14.3185 38.1084 13.5821 39.487 11.8618L39.5842 12.1358L39.973 12.1976C38.4825 14.0799 36.2821 14.8488 34.6266 15.1905C33.7698 15.3583 32.8987 15.4422 32.0256 15.4408Z" fill="#644E77"/>
<path d="M27.7011 1.09813C27.7201 1.17317 27.7241 1.25123 27.7129 1.32783C27.7017 1.40443 27.6755 1.47807 27.6359 1.54455C27.5962 1.61103 27.5438 1.66903 27.4817 1.71526C27.4196 1.76148 27.349 1.79501 27.2739 1.81393C25.6719 2.20619 24.1068 2.73643 22.5962 3.39872C22.4883 3.4474 22.3915 3.51776 22.312 3.60543C22.2324 3.6931 22.1717 3.7962 22.1337 3.90832L20.8494 7.44316C20.5872 7.40192 20.3162 7.36952 20.0364 7.35184L19.6328 7.33122L21.0261 3.50182C21.1198 3.24253 21.2645 3.00466 21.4517 2.80228C21.6389 2.59989 21.8648 2.4371 22.116 2.32354C23.6887 1.63481 25.3178 1.0829 26.9853 0.673947C27.1364 0.635494 27.2967 0.658555 27.4309 0.738072C27.565 0.817588 27.6622 0.947071 27.7011 1.09813Z" fill="#644E77"/>
<path d="M25.5039 21.771C25.4773 21.712 25.4538 21.6531 25.4243 21.5972C25.4538 21.6531 25.4773 21.7179 25.5039 21.771Z" fill="#644E77"/>
<path d="M25.4211 21.5973C25.3799 21.4991 25.3357 21.4009 25.2886 21.3027C25.3377 21.4049 25.3819 21.503 25.4211 21.5973Z" fill="#644E77"/>
<path d="M25.2416 21.2117C25.1886 21.1056 25.1356 21.0025 25.0796 20.8994C25.1267 21.0025 25.1915 21.1056 25.2416 21.2117Z" fill="#644E77"/>
<path d="M24.7763 20.3747L24.6938 20.2451L24.7763 20.3747Z" fill="#644E77"/>
<path d="M24.6201 20.1333C24.6466 20.1686 24.6702 20.2069 24.6938 20.2452C24.6702 20.2069 24.6466 20.1686 24.6201 20.1333Z" fill="#644E77"/>
<path d="M23.9927 19.2583L24.0275 19.3018C24.015 19.2881 24.0034 19.2735 23.9927 19.2583Z" fill="#644E77"/>
<path d="M23.9074 19.1552C23.8396 19.0698 23.7719 18.9843 23.6982 18.9019C23.7719 18.9843 23.8396 19.0668 23.9074 19.1552Z" fill="#644E77"/>
<path d="M23.3592 18.5043C23.2826 18.4189 23.206 18.3364 23.1265 18.2539C23.1942 18.3364 23.2708 18.4189 23.3592 18.5043Z" fill="#644E77"/>
<path d="M21.439 16.7461L21.7335 16.9935L21.439 16.7461Z" fill="#644E77"/>
<path d="M32.8619 5.06033C29.4127 4.8638 26.0171 5.98163 23.3591 8.18866C23.3324 8.21173 23.2998 8.22696 23.265 8.23268C23.2302 8.2384 23.1944 8.23438 23.1617 8.22107C22.4032 7.91736 21.6126 7.70093 20.8052 7.57596L20.8582 7.43457C21.6546 7.56061 22.4349 7.77297 23.1853 8.06789C23.2048 8.07632 23.2264 8.07885 23.2473 8.07519C23.2682 8.07152 23.2876 8.06182 23.3031 8.04727C25.9899 5.84946 29.4019 4.73666 32.8678 4.92778C37.684 5.1546 39.9581 9.27563 40.6238 10.7573C40.6327 10.7764 40.6463 10.7929 40.6633 10.8053C40.6803 10.8176 40.7002 10.8255 40.721 10.828C44.845 11.3199 47.9144 9.9443 49.5728 9.20493C50.9043 8.61579 52.1945 7.05162 53.1342 5.91459C53.526 5.44327 53.8647 5.03088 54.1711 4.73631C55.2816 3.62578 61.5 0.783182 62.2069 0.462101L63.1996 0.0114097C63.2209 0.00195246 63.2443 -0.00172455 63.2675 0.000749241C63.2907 0.00322303 63.3128 0.0117595 63.3316 0.0254997C63.3504 0.03924 63.3653 0.0576982 63.3747 0.0790134C63.3841 0.100329 63.3877 0.123748 63.3852 0.146912L62.5015 6.79829C62.4998 6.81456 62.4947 6.83029 62.4866 6.84449C62.4785 6.85869 62.4675 6.87105 62.4544 6.88077L44.9746 21.2057C44.9523 21.2222 44.9336 21.243 44.9195 21.2669C44.9055 21.2908 44.8964 21.3173 44.8928 21.3448C44.8893 21.3723 44.8913 21.4003 44.8987 21.427C44.9062 21.4537 44.919 21.4786 44.9363 21.5003L45.8848 22.7433L45.767 22.8317L44.8214 21.5886C44.765 21.5158 44.7395 21.4236 44.7505 21.3321C44.7616 21.2405 44.8082 21.157 44.8804 21.0996L62.2953 6.8307C62.3341 6.79898 62.3594 6.7537 62.366 6.70403L63.1849 0.518069C63.1887 0.48376 63.1835 0.449047 63.1697 0.417396C63.1559 0.385745 63.1341 0.358263 63.1064 0.337693C63.0786 0.317124 63.046 0.304187 63.0117 0.300172C62.9774 0.296158 62.9427 0.301207 62.911 0.314816L62.2629 0.609385C61.5618 0.92752 55.3641 3.76128 54.2742 4.85119C53.6585 5.46978 52.9015 6.51256 51.844 7.65844C51.0934 8.47006 50.184 9.11876 49.1722 9.5643C47.4048 10.3361 44.4915 11.4584 40.6562 10.99C40.6227 10.9854 40.5909 10.9725 40.5636 10.9524C40.5363 10.9323 40.5145 10.9058 40.5001 10.8751C39.8903 9.45237 37.6516 5.28715 32.8619 5.06033Z" fill="#644E77"/>
<path d="M23.359 8.18885C26.0177 5.98111 29.4145 4.86324 32.8647 5.06052C37.6544 5.28734 39.8932 9.45256 40.5059 10.84C40.5203 10.8706 40.5421 10.8972 40.5693 10.9172C40.5966 10.9373 40.6285 10.9502 40.662 10.9549C44.4914 11.4232 47.4165 10.3009 49.178 9.52914C50.1897 9.0836 51.0991 8.4349 51.8497 7.62328C52.9072 6.4774 53.6643 5.43463 54.2799 4.81603C55.3698 3.72612 61.5676 0.892361 62.2687 0.574226L62.9167 0.279656C62.9484 0.266047 62.9832 0.260996 63.0175 0.265011C63.0518 0.269025 63.0844 0.281963 63.1121 0.302533C63.1398 0.323103 63.1617 0.350585 63.1755 0.382236C63.1893 0.413887 63.1945 0.448599 63.1907 0.482909L62.3718 6.66887C62.3651 6.71854 62.3399 6.76382 62.3011 6.79554L44.8861 21.0645C44.814 21.1219 44.7673 21.2054 44.7563 21.2969C44.7453 21.3884 44.7707 21.4806 44.8272 21.5535L45.7728 22.7966L45.6549 22.8849L44.7094 21.6448C44.6305 21.5413 44.595 21.4112 44.6104 21.282C44.6258 21.1528 44.6909 21.0346 44.7918 20.9526L62.1715 6.70127C62.1846 6.69155 62.1956 6.67919 62.2037 6.66499C62.2118 6.65079 62.2169 6.63506 62.2186 6.61879L63.0434 0.376863L62.3187 0.703837C61.6177 1.02197 55.4435 3.84395 54.3654 4.91618C54.0708 5.21075 53.735 5.6202 53.3461 6.09446C52.3888 7.25506 51.075 8.8428 49.6788 9.46728C47.9732 10.2273 44.8007 11.6471 40.5147 11.0933H40.4293L40.3969 11.0167C39.8549 9.69705 37.6603 5.43462 32.8559 5.22253C29.4044 5.02573 26.0079 6.153 23.359 8.37443L23.2912 8.43629L23.2058 8.40094C22.4146 8.07363 21.5867 7.84317 20.7402 7.71459L20.7903 7.57615C21.5978 7.70112 22.3884 7.91754 23.1469 8.22125C23.1814 8.23765 23.2201 8.24332 23.2579 8.23755C23.2957 8.23177 23.3309 8.21481 23.359 8.18885Z" fill="#644E77"/>
<path d="M32.8356 5.64977C26.8764 5.3552 23.3858 8.96367 23.3858 8.96367C22.5003 8.55159 21.558 8.27456 20.5903 8.14183L20.7465 7.7147C21.593 7.84328 22.4208 8.07373 23.212 8.40105L23.2974 8.4364L23.3652 8.37453C26.0126 6.15454 29.4067 5.02736 32.8562 5.22264C37.6606 5.44946 39.8552 9.71188 40.4119 11.0139L40.4443 11.0905H40.5297C44.8157 11.6443 47.9883 10.2244 49.6938 9.46444C51.0901 8.83996 52.4039 7.25222 53.3612 6.09162C53.75 5.6262 54.0829 5.20791 54.3804 4.91334C55.4527 3.84111 61.6268 1.01913 62.3338 0.700996L63.0584 0.374023L62.2425 6.62185C62.2408 6.63811 62.2357 6.65385 62.2276 6.66805C62.2195 6.68225 62.2085 6.6946 62.1954 6.70433L44.8157 20.9556C44.7147 21.0377 44.6497 21.1558 44.6343 21.285C44.6189 21.4142 44.6544 21.5444 44.7333 21.6478L45.6788 22.888L45.4019 23.0942L45.4903 23.215L45.4137 23.2709L44.3798 21.9159C44.2324 21.7208 44.1664 21.4762 44.1955 21.2334C44.2246 20.9907 44.3466 20.7686 44.5359 20.6139L61.833 6.44216L62.5105 1.09866C62.5105 1.09866 55.7354 4.17397 54.6927 5.22264C53.6499 6.27131 51.9149 8.95189 49.8706 9.86211C47.8763 10.7458 44.6832 12.0832 40.4178 11.5176C40.4268 11.4609 40.4191 11.4029 40.3955 11.3505C40.372 11.2982 40.3336 11.2539 40.2853 11.223C40.2457 11.1981 40.2007 11.1829 40.1541 11.1788C40.1075 11.1747 40.0605 11.1818 40.0172 11.1995C39.54 10.086 37.4279 5.8648 32.8356 5.64977Z" fill="#644E77"/>
<path d="M32.8119 6.08854C29.4735 5.90096 26.1969 7.04505 23.7009 9.26989L23.4741 9.5026L23.1795 9.35826C22.3095 8.95452 21.3825 8.68725 20.4312 8.56587L20.5843 8.14169C21.552 8.27443 22.4943 8.55145 23.3798 8.96354C23.3798 8.96354 26.8704 5.36684 32.8296 5.64963C37.4219 5.86467 39.534 10.0859 40.0141 11.2052C39.9553 11.2246 39.9052 11.2643 39.8728 11.3172C39.8138 11.4085 39.7549 11.4968 39.6931 11.5823L39.6548 11.488C39.6224 11.4114 39.5752 11.3054 39.5163 11.1758V11.1551L39.4898 11.1021C39.4574 11.0314 39.4191 10.9578 39.3779 10.8782L39.3484 10.8193C38.9724 10.0955 38.5169 9.41575 37.9904 8.79269C37.7274 8.48528 37.444 8.19595 37.1421 7.92666L37.0125 7.81177C36.7418 7.57797 36.4543 7.36433 36.1523 7.17256C36.0728 7.11954 35.9933 7.0724 35.9108 7.02527C35.8283 6.97814 35.793 6.95458 35.7311 6.92217L35.575 6.83969C35.522 6.81024 35.4689 6.78373 35.4159 6.76016L35.2657 6.68946C35.1508 6.63644 35.0359 6.58931 34.9181 6.54512L34.7472 6.48032L34.5528 6.40078L34.3731 6.34482L34.1905 6.29474L34.0579 6.26234C33.9931 6.24466 33.9283 6.22993 33.8606 6.21815L33.6603 6.17986L33.4541 6.14745C33.3834 6.13567 33.3127 6.12684 33.242 6.12094H33.2184C33.08 6.10622 32.9504 6.10622 32.8119 6.08854Z" fill="#644E77"/>
<path d="M16.443 19.5353C18.2201 20.2984 19.7126 21.6003 20.7099 23.2573C21.7072 24.9142 22.159 26.8425 22.0015 28.7701C21.8439 30.6976 21.085 32.527 19.8319 34C18.5788 35.473 16.8947 36.5153 15.0173 36.9797C13.7389 37.0269 12.5223 37.0769 11.3764 37.1329C9.08491 36.7679 7.01496 35.5531 5.5789 33.7305C4.14284 31.9079 3.44606 29.6112 3.62735 27.2979C3.80864 24.9846 4.8547 22.8244 6.55716 21.2478C8.25962 19.6711 10.4935 18.7936 12.8139 18.79C13.6678 18.7893 14.5176 18.9083 15.3384 19.1435L14.3251 21.9272C13.4646 21.7186 12.5697 21.6944 11.6992 21.8564C10.8287 22.0183 10.0024 22.3626 9.27449 22.8667C8.54659 23.3708 7.93363 24.0233 7.47589 24.7812C7.01815 25.5391 6.726 26.3853 6.61865 27.2642C6.5113 28.1431 6.59118 29.0347 6.85304 29.8805C7.1149 30.7263 7.5528 31.5071 8.13797 32.1716C8.72314 32.8361 9.44231 33.3692 10.2482 33.7359C11.0541 34.1025 11.9285 34.2945 12.8139 34.2991C14.3317 34.2963 15.7972 33.745 16.9405 32.7468C18.0838 31.7486 18.8278 30.3708 19.0352 28.8673L18.7407 28.826C18.7407 28.7494 18.7613 28.6699 18.7672 28.5904C18.7731 28.5108 18.7819 28.4225 18.7849 28.337C18.7878 28.2516 18.7849 28.1308 18.7849 28.0277C18.7859 27.8605 18.778 27.6934 18.7613 27.527C18.7613 27.4602 18.7554 27.3925 18.7436 27.3237C18.7158 27.0826 18.6725 26.8435 18.614 26.6079C18.6022 26.5529 18.5875 26.497 18.5698 26.44C18.5052 26.1969 18.4235 25.9587 18.3253 25.7272C18.29 25.6388 18.2487 25.5504 18.2075 25.465C18.1663 25.3796 18.1339 25.3118 18.0956 25.2382C18.0249 25.1027 17.9483 24.9701 17.8658 24.8405C17.8098 24.7521 17.7509 24.6638 17.692 24.5813L17.6154 24.4752C17.5624 24.4045 17.5094 24.3338 17.4505 24.2631C17.3915 24.1925 17.365 24.1571 17.315 24.1041C17.2649 24.0511 17.1588 23.9244 17.0734 23.839L17.2826 23.6328C16.749 23.0879 16.12 22.6456 15.4268 22.3278L16.443 19.5353Z" fill="#DEDFE0"/>
<path d="M23.7013 9.26962C26.1973 7.04478 29.4739 5.90069 32.8123 6.08826C32.9507 6.08826 33.0862 6.10594 33.2188 6.12067H33.2424C33.3131 6.12067 33.3838 6.1295 33.4545 6.14718L33.6607 6.17958L33.861 6.21787C33.9287 6.21787 33.9935 6.24439 34.0583 6.26206L34.1909 6.29446L34.3735 6.34454L34.5532 6.40051L34.7299 6.45942L34.9008 6.52423C35.0186 6.56841 35.1335 6.61554 35.2484 6.66857L35.3986 6.73926L35.5577 6.8188L35.7138 6.90128C35.7757 6.93368 35.8346 6.96608 35.8935 7.00438C35.9524 7.04267 36.0555 7.10158 36.135 7.15166C36.437 7.34343 36.7245 7.55708 36.9952 7.79088L37.1248 7.90576C37.4267 8.17505 37.7101 8.46439 37.9732 8.77179C38.504 9.40088 38.9625 10.0876 39.34 10.8191L39.3694 10.878C39.4107 10.9575 39.449 11.0311 39.4814 11.1018L39.5079 11.1549V11.1755C39.5668 11.3051 39.6139 11.4111 39.6463 11.4877L39.6139 11.6792L39.5786 11.7263L39.5579 11.6733C39.5403 11.6232 37.6256 6.46531 32.7828 6.23555C29.4867 6.05267 26.2519 7.18035 23.7837 9.37271L23.5834 9.57891C23.5541 9.60885 23.5161 9.62869 23.4748 9.63557C23.4335 9.64246 23.3911 9.63602 23.3537 9.61721L23.0974 9.4876C22.2305 9.08965 21.3075 8.82736 20.3608 8.70993L20.4109 8.56559C21.3707 8.68056 22.3068 8.9439 23.1858 9.3462L23.4803 9.49054L23.7013 9.26962Z" fill="#644E77"/>
<path d="M32.8001 6.38282C29.546 6.203 26.3523 7.31449 23.913 9.4758L23.6184 9.79393C23.5987 9.81354 23.5734 9.8266 23.546 9.83134C23.5186 9.83608 23.4904 9.83228 23.4652 9.82044L23.0646 9.62014C22.202 9.22615 21.284 8.96686 20.3428 8.85131L20.3958 8.70992C21.3424 8.82734 22.2654 9.08963 23.1323 9.48758L23.3886 9.61719C23.426 9.63601 23.4685 9.64244 23.5098 9.63555C23.5511 9.62867 23.5891 9.60883 23.6184 9.5789L23.8187 9.3727C26.2868 7.18033 29.5216 6.05265 32.8178 6.23553C37.6517 6.4653 39.5664 11.6232 39.5929 11.6733L39.6135 11.7263L39.5075 11.8618L39.4574 11.7263C39.4162 11.6733 37.5132 6.60669 32.8001 6.38282Z" fill="#644E77"/>
<path d="M19.9868 8.07666C20.193 8.07666 20.3962 8.11201 20.5759 8.14147L20.4227 8.56564C20.2666 8.54502 20.1075 8.5303 19.9455 8.51851H19.8188L19.8689 8.37417L19.9868 8.07666Z" fill="#644E77"/>
<path d="M20.0161 15.7324C20.1339 15.8061 20.2518 15.8856 20.3755 15.971C20.2547 15.8856 20.1339 15.809 20.0161 15.7324Z" fill="#644E77"/>
<path d="M19.957 8.51855C20.1191 8.51855 20.2781 8.54506 20.4343 8.56568L20.3842 8.71002C20.2428 8.6894 20.0896 8.67468 19.9482 8.66584H19.7744L19.8157 8.55096V8.51855H19.957Z" fill="#644E77"/>
<path d="M19.9485 8.66602C20.0958 8.66602 20.243 8.68958 20.3844 8.7102L20.3314 8.85159C20.2048 8.83392 20.0722 8.82214 19.9396 8.8133H19.7246L19.7747 8.66896L19.9485 8.66602Z" fill="#644E77"/>
<path d="M19.8802 8.36523L19.8301 8.50958H19.8271L19.8802 8.36523Z" fill="#644E77"/>
<path d="M19.7241 8.80119C19.5061 8.80119 19.2999 8.78352 19.1025 8.78057L19.1556 8.63623C19.3529 8.63623 19.5591 8.63623 19.7742 8.65685L19.7241 8.80119Z" fill="#644E77"/>
<path d="M20.0278 7.49017L19.583 7.46661L19.6331 7.32227L20.0366 7.34289C20.3165 7.36056 20.5875 7.39296 20.8497 7.4342L20.7966 7.5756C20.5492 7.5373 20.2929 7.50784 20.0278 7.49017Z" fill="#644E77"/>
<path d="M19.5298 7.61162L19.5828 7.46729L20.0276 7.49085C20.2927 7.50852 20.549 7.53798 20.7964 7.57627L20.7464 7.71472C20.5107 7.67937 20.2662 7.65286 20.0158 7.63519C19.8479 7.62341 19.6859 7.61457 19.5298 7.61162Z" fill="#644E77"/>
<path d="M19.5301 7.61084C19.6862 7.61084 19.8482 7.61084 20.0161 7.63441C20.2665 7.65208 20.511 7.67859 20.7467 7.71394L20.5905 8.14107C20.3961 8.11161 20.1929 8.09099 20.0014 8.07626C19.8099 8.06153 19.5919 8.05269 19.3857 8.0468L19.5301 7.61084Z" fill="#644E77"/>
<path d="M19.2087 8.48926C19.4061 8.48926 19.6123 8.48926 19.8273 8.50988V8.54228L19.7861 8.65716C19.571 8.65716 19.3648 8.63654 19.1675 8.63654L19.2087 8.48926Z" fill="#644E77"/>
<path d="M19.8247 8.50984C19.6096 8.50984 19.4034 8.48922 19.2061 8.48922L19.3681 8.04736C19.5743 8.04736 19.7805 8.04737 19.9837 8.07682L19.8777 8.37139L19.8247 8.50984Z" fill="#644E77"/>
<path d="M18.764 27.5184C18.7808 27.6848 18.7886 27.852 18.7876 28.0192C18.7876 28.1233 18.7876 28.2264 18.7876 28.3285C18.7876 28.411 18.7876 28.4964 18.7699 28.5818C18.7523 28.6672 18.7699 28.7409 18.7434 28.8175L18.4489 28.7792C18.3023 29.8611 17.8474 30.878 17.1384 31.7082C16.4293 32.5385 15.4963 33.147 14.4506 33.4611C13.405 33.7752 12.291 33.7816 11.2418 33.4794C10.1927 33.1773 9.25269 32.5794 8.53424 31.7573C7.81578 30.9352 7.34925 29.9236 7.19039 28.8435C7.03153 27.7633 7.18706 26.6602 7.6384 25.6661C8.08974 24.6719 8.81779 23.8288 9.73554 23.2373C10.6533 22.6459 11.7219 22.3313 12.8137 22.3311C13.2543 22.3312 13.6934 22.3836 14.1216 22.4872L12.1244 27.9691C12.0956 28.0424 12.0817 28.1207 12.0836 28.1995C12.0855 28.2782 12.1032 28.3558 12.1356 28.4276C12.1681 28.4994 12.2145 28.5639 12.2723 28.6174C12.3302 28.6709 12.3981 28.7123 12.4722 28.7391C12.5462 28.7659 12.6249 28.7776 12.7036 28.7734C12.7823 28.7693 12.8593 28.7494 12.9301 28.7149C13.001 28.6805 13.0642 28.6322 13.116 28.5729C13.1679 28.5136 13.2073 28.4445 13.232 28.3697L15.2322 22.876C15.8429 23.1621 16.3976 23.5552 16.87 24.0366L17.082 23.8304C17.1675 23.9158 17.247 24.0042 17.3236 24.0955C17.3719 24.1458 17.4171 24.1989 17.4591 24.2546C17.5151 24.3223 17.571 24.393 17.6241 24.4667L17.7006 24.5727C17.7596 24.6582 17.8185 24.7436 17.8744 24.832C17.9304 24.9203 18.0335 25.0941 18.1042 25.2296C18.1425 25.3062 18.1808 25.3799 18.2161 25.4564C18.2515 25.533 18.2986 25.6302 18.334 25.7186C18.4321 25.9502 18.5138 26.1884 18.5785 26.4315C18.5961 26.4865 18.6109 26.5424 18.6226 26.5994C18.6811 26.835 18.7244 27.074 18.7523 27.3152C18.7581 27.3819 18.7621 27.4497 18.764 27.5184Z" fill="white"/>
<path d="M18.7051 29.0117C18.7051 28.9528 18.7257 28.8939 18.7316 28.832C18.7258 28.8923 18.717 28.9523 18.7051 29.0117Z" fill="#644E77"/>
<path d="M18.6787 29.162L18.7052 29.0117L18.6787 29.162Z" fill="#644E77"/>
<path d="M18.4961 29.8634C18.5197 29.7986 18.5403 29.7338 18.558 29.666C18.5403 29.7338 18.5197 29.7986 18.4961 29.8634Z" fill="#644E77"/>
<path d="M18.4014 30.1311C18.4308 30.0575 18.4573 29.9838 18.4838 29.9072C18.4573 29.9838 18.4308 30.0575 18.4014 30.1311Z" fill="#644E77"/>
<path d="M25.6713 22.1923C25.6183 22.0509 25.5623 21.8978 25.5034 21.7711C25.4769 21.7122 25.4533 21.6533 25.4239 21.5973C25.3944 21.5413 25.3384 21.4088 25.2913 21.3027C25.2764 21.2675 25.2597 21.2331 25.2412 21.1996C25.1912 21.0936 25.1352 20.9905 25.0792 20.8874C24.982 20.7077 24.8819 20.5339 24.7847 20.3631L24.7022 20.2335C24.6786 20.1952 24.655 20.1569 24.6285 20.1215C24.443 19.8269 24.2427 19.5589 24.0394 19.2908L24.0041 19.2466L23.9186 19.1435C23.8509 19.0581 23.7831 18.9727 23.7095 18.8902C23.5975 18.7547 23.4797 18.6222 23.3589 18.4925C23.2382 18.3629 23.2058 18.3246 23.1262 18.2422C22.6955 17.7946 22.2381 17.3736 21.7565 16.9814L21.4619 16.734C21.0966 16.4394 20.7402 16.189 20.3985 15.9592C20.2748 15.8738 20.157 15.7943 20.0391 15.7206C19.4029 15.3082 18.8432 15.0019 18.4396 14.7928L18.2894 14.7162H18.2658L18.2275 14.6985L18.2747 14.563C19.7092 15.267 24.2014 17.7709 25.8333 22.1423C27.0381 25.356 27.153 29.4211 27.0381 32.2637C27.0302 32.4391 27.0583 32.6142 27.1206 32.7783C27.1829 32.9425 27.2782 33.0921 27.4004 33.2181C27.5203 33.3441 27.6647 33.4442 27.8249 33.5121C27.985 33.58 28.1574 33.6143 28.3313 33.6128H42.6091L44.5591 29.0234H48.6919V29.4653H48.5446V29.1707H44.6328L42.6827 33.7601H28.3077C28.1141 33.7613 27.9223 33.723 27.744 33.6476C27.5657 33.5721 27.4047 33.461 27.2708 33.3212C27.1349 33.1806 27.029 33.0138 26.9596 32.831C26.8903 32.6482 26.8588 32.4531 26.8673 32.2578C26.9822 29.427 26.8673 25.3855 25.6713 22.1923Z" fill="#644E77"/>
<path d="M18.2661 14.728L18.4163 14.8046L18.2661 14.728Z" fill="#644E77"/>
<path d="M18.3283 25.7182C18.2929 25.6299 18.2517 25.5415 18.2104 25.4561C18.2517 25.5474 18.2929 25.6299 18.3283 25.7182Z" fill="#DEDFE0"/>
<path d="M25.5331 22.2458C26.7114 25.4153 26.8351 29.4362 26.7114 32.2611C26.7019 32.4754 26.7359 32.6893 26.8114 32.89C26.8869 33.0907 27.0024 33.274 27.1509 33.4288C27.2993 33.5836 27.4776 33.7066 27.675 33.7905C27.8724 33.8743 28.0847 33.9172 28.2991 33.9166H42.7714L44.7244 29.3272H48.3976V29.4745H47.6907V29.6188L46.9808 29.7691H45.0366L43.0836 34.3585H28.308C28.0341 34.3587 27.763 34.3035 27.511 34.1962C27.2591 34.0889 27.0314 33.9317 26.8418 33.7341C26.6522 33.5365 26.5045 33.3026 26.4077 33.0464C26.3108 32.7902 26.2669 32.5171 26.2784 32.2435C26.3786 29.772 26.3226 25.6156 25.1207 22.4078C23.6155 18.3751 19.4149 15.9773 17.998 15.2674L18.1512 14.8491C19.5799 15.5473 23.9484 17.9981 25.5331 22.2458Z" fill="#644E77"/>
<path d="M17.7183 14.3156L19.7243 8.80127H19.9393C20.0719 8.80127 20.2044 8.82189 20.3311 8.83956L18.2514 14.5513C18.004 14.4275 17.8479 14.3598 17.8125 14.3451L17.7183 14.3156Z" fill="#644E77"/>
<path d="M25.5333 22.2456C23.9485 17.9979 19.58 15.5471 18.1514 14.8401L18.2044 14.6987L18.2427 14.7164H18.2662L18.4165 14.793C18.82 15.0021 19.3797 15.3085 20.016 15.7209C20.1338 15.7975 20.2546 15.8741 20.3754 15.9595C20.7171 16.1893 21.0735 16.4455 21.4388 16.7342L21.7333 16.9816C22.215 17.3738 22.6724 17.7949 23.1031 18.2424C23.1826 18.3249 23.2592 18.4074 23.3358 18.4928C23.4124 18.5782 23.5744 18.755 23.6863 18.8905C23.76 18.9729 23.8277 19.0584 23.8955 19.1438L23.9809 19.2469C23.9918 19.2623 24.0036 19.2771 24.0162 19.2911C24.2224 19.5591 24.4228 19.8331 24.6054 20.1218C24.6319 20.1571 24.6555 20.1954 24.679 20.2337L24.7615 20.3633C24.8676 20.5342 24.9677 20.708 25.0561 20.8876C25.112 20.9907 25.1651 21.0938 25.2181 21.1999C25.2365 21.2334 25.2533 21.2678 25.2682 21.303C25.3153 21.3953 25.3595 21.4935 25.4007 21.5976C25.4302 21.6535 25.4537 21.7124 25.4803 21.7713C25.5392 21.9098 25.5951 22.0512 25.6482 22.1926C26.8441 25.3857 26.959 29.4272 26.8441 32.258C26.8357 32.4534 26.8671 32.6484 26.9365 32.8312C27.0059 33.0141 27.1118 33.1808 27.2477 33.3214C27.3816 33.4613 27.5426 33.5723 27.7209 33.6478C27.8991 33.7233 28.091 33.7616 28.2846 33.7603H42.6596L44.6096 29.1709H48.5097V29.4655H48.3978V29.3182H44.7451L42.7921 33.9076H28.3081C28.0937 33.9082 27.8813 33.8653 27.684 33.7815C27.4866 33.6976 27.3083 33.5746 27.1598 33.4198C27.0114 33.265 26.8959 33.0817 26.8204 32.881C26.7448 32.6803 26.7108 32.4664 26.7204 32.2521C26.8353 29.436 26.7204 25.4152 25.5333 22.2456Z" fill="#644E77"/>
<path d="M18.2101 25.4563C18.1747 25.3797 18.1364 25.3061 18.0981 25.2295C18.1364 25.3031 18.1747 25.3797 18.2101 25.4563Z" fill="#DEDFE0"/>
<path d="M25.1265 22.3987C26.3283 25.6065 26.3843 29.7629 26.2841 32.2344C26.2726 32.508 26.3166 32.7811 26.4134 33.0373C26.5102 33.2935 26.6579 33.5274 26.8475 33.725C27.0372 33.9227 27.2648 34.0798 27.5168 34.1871C27.7688 34.2944 28.0399 34.3496 28.3137 34.3494H43.0776L45.0306 29.76H46.9747H46.9335L46.9659 29.9043C46.9865 30.0015 47.0071 30.0987 47.0336 30.1989H45.3222L43.3692 34.7883H28.3078C27.9744 34.7886 27.6444 34.7214 27.3376 34.5908C27.0309 34.4602 26.7537 34.2689 26.5228 34.0284C26.2919 33.7878 26.1121 33.5031 25.9941 33.1912C25.8761 32.8794 25.8225 32.5469 25.8364 32.2137C25.9277 29.9721 25.9012 25.7332 24.7053 22.5519C23.2795 18.7225 19.2557 16.3954 17.8447 15.6766L17.9979 15.2554C19.4148 15.9682 23.6153 18.366 25.1265 22.3987Z" fill="#644E77"/>
<path d="M17.96 31.056C18.0424 30.9176 18.1161 30.7762 18.1868 30.6318C18.119 30.7762 18.0572 30.9176 17.96 31.056Z" fill="#644E77"/>
<path d="M25.6894 32.2109C25.7807 29.981 25.7542 25.7716 24.57 22.605C23.1649 18.8462 19.2059 16.5398 17.7949 15.8299L17.845 15.6914C19.256 16.4102 23.2798 18.749 24.7055 22.5667C25.9015 25.7569 25.928 29.9869 25.8367 32.2285C25.8228 32.5617 25.8764 32.8942 25.9944 33.206C26.1123 33.5179 26.2922 33.8026 26.5231 34.0432C26.7539 34.2837 27.0311 34.475 27.3379 34.6056C27.6447 34.7362 27.9747 34.8034 28.3081 34.8031H43.3636L45.3166 30.2137H47.028C47.037 30.2634 47.0488 30.3126 47.0634 30.361H45.4138L43.4637 34.9504H28.3081C27.9555 34.9521 27.6061 34.882 27.2815 34.7442C26.9569 34.6065 26.6637 34.404 26.4199 34.1491C26.1732 33.8924 25.9812 33.5882 25.8556 33.255C25.73 32.9218 25.6735 32.5666 25.6894 32.2109Z" fill="#644E77"/>
<path d="M25.5419 32.2048C25.6332 29.9867 25.6067 25.7979 24.4314 22.6578C23.0498 18.9609 19.1497 16.678 17.7446 15.9563L17.7947 15.8179C19.2057 16.5396 23.1647 18.846 24.5698 22.593C25.7481 25.7596 25.7805 29.9572 25.6892 32.1989C25.6749 32.5527 25.7322 32.9057 25.8577 33.2367C25.9833 33.5678 26.1744 33.87 26.4197 34.1254C26.6635 34.3802 26.9566 34.5827 27.2813 34.7205C27.6059 34.8582 27.9552 34.9284 28.3079 34.9266H43.4635L45.4136 30.3372H47.0631C47.0742 30.387 47.0879 30.4362 47.1044 30.4845H45.5108L43.5607 35.0739H28.3079C27.9347 35.0746 27.5652 34.9997 27.2217 34.8538C26.8782 34.7078 26.5678 34.4937 26.3093 34.2245C26.0508 33.9552 25.8496 33.6364 25.7177 33.2873C25.5858 32.9381 25.526 32.5659 25.5419 32.193V32.2048Z" fill="#644E77"/>
<path d="M17.6827 14.4071L17.7093 14.3335L17.8035 14.3747C17.8389 14.3747 17.995 14.4572 18.2424 14.5809L18.1953 14.7164C17.942 14.5927 17.7829 14.522 17.7476 14.5073L17.6592 14.469L17.6827 14.4071Z" fill="#644E77"/>
<path d="M17.7153 14.3154H17.7179L17.7153 14.3206V14.3154Z" fill="#644E77"/>
<path d="M17.668 15.7533H17.6945L17.6739 15.5942L17.8447 15.6826L17.7946 15.8211L17.668 15.7533Z" fill="#644E77"/>
<path d="M17.6211 15.1788V15.0728C17.7006 15.1081 17.8332 15.17 18.004 15.2583L17.8509 15.6796L17.68 15.5912L17.624 15.1847L17.6211 15.1788Z" fill="#644E77"/>
<path d="M17.7445 15.9566L17.3999 15.7857H17.5472L17.665 15.7681L17.7917 15.8329L17.7445 15.9566Z" fill="#644E77"/>
<path d="M17.6182 14.5895L17.6388 14.5277V14.5071L17.6535 14.4658L17.7419 14.5041C17.7772 14.5188 17.9363 14.5895 18.1896 14.7133L18.1366 14.8547C17.8803 14.725 17.7183 14.6543 17.683 14.6396L17.6182 14.5895Z" fill="#644E77"/>
<path d="M17.6096 14.6159V14.5894L17.6891 14.6247C17.7244 14.6247 17.8864 14.7101 18.1427 14.8397L17.9895 15.258C17.8187 15.1697 17.695 15.1078 17.6066 15.0724L17.5771 14.6748L17.5948 14.6247L17.6096 14.6159Z" fill="#644E77"/>
<path d="M17.5059 15.4467L17.6179 15.1846L17.6738 15.5911L17.5148 15.5145H17.4941C17.4975 15.497 17.4975 15.479 17.4941 15.4615L17.5059 15.4467Z" fill="#644E77"/>
<path d="M17.4854 31.7339C17.5354 31.6721 17.5855 31.6073 17.6326 31.5425C17.5855 31.6132 17.5384 31.678 17.4854 31.7339Z" fill="#644E77"/>
<path d="M17.6181 24.4665C17.5651 24.3928 17.5091 24.3221 17.4531 24.2544C17.512 24.3251 17.5651 24.3958 17.6181 24.4665Z" fill="#DEDFE0"/>
<path d="M17.5855 14.6749L17.5796 14.5747L17.6179 14.5894L17.609 14.6159L17.6032 14.6248L17.5855 14.6749Z" fill="#644E77"/>
<path d="M17.5182 14.4335L17.4976 14.2892L17.6154 14.2686L17.7155 14.3157V14.3216L17.689 14.3952L17.6861 14.4011L17.6831 14.407L17.6684 14.4512H17.6655L17.6625 14.4482L17.5948 14.4217L17.5535 14.4306L17.5182 14.4335Z" fill="#644E77"/>
<path d="M17.6033 15.0666L17.5591 14.7484L17.5856 14.6748L17.6151 15.0725L17.6033 15.0666Z" fill="#644E77"/>
<path d="M17.5181 14.4366L17.5534 14.4307L17.5947 14.4219L17.6624 14.4484L17.6654 14.4513H17.6683L17.6536 14.4926L17.6447 14.5132L17.6241 14.5751L17.6182 14.5898L17.5799 14.5751L17.5858 14.6752L17.5593 14.7488L17.5181 14.4366Z" fill="#644E77"/>
<path d="M17.5529 14.4307L17.5181 14.4365V14.4336L17.5529 14.4307Z" fill="#644E77"/>
<path d="M17.5181 14.436L17.5593 14.7483L17.4621 15.0134L17.4238 14.4508L17.5181 14.436Z" fill="#644E77"/>
<path d="M17.397 15.6237C17.4206 15.6121 17.4415 15.5956 17.4583 15.5752C17.475 15.5549 17.4873 15.5313 17.4942 15.5059H17.5148L17.6739 15.5824L17.6945 15.7415H17.665L17.397 15.6237Z" fill="#644E77"/>
<path d="M17.618 15.1843L17.5061 15.4465C17.5075 15.4367 17.5075 15.4268 17.5061 15.417L17.4707 15.1578V15.0724V15.0488H17.5326L17.6121 15.0842L17.618 15.1843Z" fill="#644E77"/>
<path d="M17.5034 15.4526C17.5067 15.4699 17.5067 15.4876 17.5034 15.5049V15.4526Z" fill="#644E77"/>
<path d="M17.3472 31.9072C17.3943 31.8541 17.4414 31.7982 17.4856 31.7393C17.4427 31.7978 17.3965 31.8539 17.3472 31.9072Z" fill="#644E77"/>
<path d="M17.4678 15.1611L17.4648 15.1641V15.1611H17.4678Z" fill="#644E77"/>
<path d="M17.4678 15.0195L17.565 14.7544L17.6092 15.0725L17.5296 15.0372H17.4678V15.0195Z" fill="#644E77"/>
<path d="M17.4616 15.0195V15.0393H17.4531L17.4616 15.0195Z" fill="#644E77"/>
<path d="M17.468 24.2543C17.426 24.1986 17.3808 24.1455 17.3325 24.0952C17.3679 24.1482 17.4121 24.2013 17.468 24.2543Z" fill="#DEDFE0"/>
<path d="M17.462 15.043L17.4649 15.0665L17.4708 15.152L17.4679 15.1608H17.4649L17.4502 15.04H17.4531H17.462V15.043Z" fill="#644E77"/>
<path d="M17.4504 15.04L17.4652 15.1608L17.3532 15.42L17.3149 15.1255V15.0548L17.4504 15.04Z" fill="#644E77"/>
<path d="M17.4943 15.5057C17.4874 15.5311 17.4751 15.5548 17.4584 15.5751C17.4416 15.5954 17.4207 15.6119 17.3971 15.6236L17.291 15.5735L17.3234 15.4969H17.3647V15.4291L17.4766 15.1699L17.5119 15.4291C17.5134 15.4389 17.5134 15.4488 17.5119 15.4586L17.4913 15.5057H17.4943Z" fill="#644E77"/>
<path d="M17.4001 15.7856L17.7447 15.9565L16.9465 18.151C16.7638 18.0715 16.5782 18.0008 16.3897 17.9331C16.2012 17.8653 16.0215 17.8064 15.8359 17.7563L16.5429 15.818C16.829 15.8231 17.1152 15.8123 17.4001 15.7856Z" fill="#644E77"/>
<path d="M17.6651 15.7532L17.5473 15.7709H17.4L17.2321 15.6943L17.1172 15.6442L17.3234 15.6295C17.3481 15.6276 17.3722 15.6206 17.3941 15.6089L17.6651 15.7532Z" fill="#644E77"/>
<path d="M17.3522 15.4263V15.493H17.3115L17.3522 15.4263Z" fill="#644E77"/>
<path d="M17.3207 15.4966H17.1558L17.3148 15.1284L17.3531 15.423L17.3207 15.4966Z" fill="#644E77"/>
<path d="M17.1733 32.1018C17.2146 32.0605 17.2529 32.0164 17.2912 31.9722C17.2529 32.0281 17.2146 32.0605 17.1733 32.1018Z" fill="#644E77"/>
<path d="M17.2855 23.6238L17.0764 23.83C16.9703 23.721 16.8584 23.6179 16.7435 23.5177C16.7024 23.479 16.6591 23.4426 16.6139 23.4088C16.5698 23.369 16.5236 23.3316 16.4755 23.2968C16.4107 23.2438 16.3459 23.1967 16.2781 23.1495C15.9808 22.9335 15.6631 22.747 15.3296 22.5928L15.4297 22.3188C16.123 22.6366 16.752 23.0789 17.2855 23.6238Z" fill="#644E77"/>
<path d="M17.3147 15.0548L17.2764 14.4893C17.3084 14.5016 17.3365 14.5224 17.3577 14.5493C17.379 14.5763 17.3926 14.6084 17.3971 14.6424L17.4502 15.0401L17.3147 15.0548Z" fill="#644E77"/>
<path d="M17.4682 15.0136V15.0343L17.4152 14.6366C17.4107 14.6026 17.397 14.5704 17.3758 14.5435C17.3545 14.5165 17.3264 14.4958 17.2944 14.4834V14.4657V14.3243L17.427 14.3008H17.5036H17.5242L17.5448 14.4451H17.4506L17.4682 15.0136Z" fill="#644E77"/>
<path d="M17.303 15.0576C17.1792 15.0576 17.0084 15.0782 16.811 15.0811L16.973 14.6363C17.0732 14.6363 17.1645 14.6363 17.2441 14.6187L17.303 15.0576Z" fill="#644E77"/>
<path d="M17.3296 36.9002C19.02 36.0382 20.4292 34.7117 21.3917 33.0764C22.3542 31.4412 22.83 29.5653 22.7631 27.669C22.6963 25.7727 22.0897 23.9349 21.0145 22.3715C19.9393 20.8081 18.4402 19.584 16.6934 18.8431L16.8465 18.4248C18.6074 19.1672 20.1298 20.3801 21.247 21.9304C22.3641 23.4808 23.0328 25.3089 23.1798 27.2142C23.3268 29.1194 22.9463 31.0284 22.0801 32.7318C21.2139 34.4351 19.8955 35.8671 18.2693 36.8708L17.3296 36.9002Z" fill="#644E77"/>
<path d="M17.1556 15.5088H17.3206L17.2881 15.5854L17.3942 15.6355C17.3723 15.6471 17.3482 15.6542 17.3235 15.6561L17.1173 15.6708H17.0967L17.1556 15.5088Z" fill="#644E77"/>
<path d="M17.4974 14.2893H17.468H17.3914H17.3413L17.0732 14.3158L19.094 8.76025C19.2914 8.76025 19.4976 8.76025 19.7155 8.78087L17.7095 14.2952L17.6094 14.2481L17.4974 14.2893Z" fill="#644E77"/>
<path d="M17.0264 14.4863L17.0823 14.3361L17.3504 14.3096H17.4005L17.2679 14.3331V14.4745V14.4922C17.2388 14.4861 17.2087 14.4861 17.1795 14.4922L17.0264 14.4863Z" fill="#644E77"/>
<path d="M17.4002 15.7853C17.1153 15.812 16.8291 15.8228 16.543 15.8177L16.596 15.6675C16.7963 15.6675 16.973 15.6675 17.1174 15.6675L17.2323 15.7176L17.4002 15.7853Z" fill="#644E77"/>
<path d="M16.9731 14.6485L17.0262 14.4982H17.1882C17.2173 14.4921 17.2474 14.4921 17.2766 14.4982L17.3148 15.0638L17.2559 14.6249C17.1734 14.6279 17.0733 14.6485 16.9731 14.6485Z" fill="#644E77"/>
<path d="M17.8154 8.85123C18.2423 8.79704 18.6724 8.77341 19.1027 8.78053L17.0819 14.3361C16.4221 14.3803 15.2143 14.3361 14.4072 13.8147C15.0013 13.3701 15.4145 12.7256 15.5708 12.0002C15.6968 11.2034 15.5405 10.3875 15.1289 9.6937C15.9686 9.25889 16.8777 8.9738 17.8154 8.85123Z" fill="white"/>
<path d="M17.0765 23.8305L16.8644 24.0367C16.392 23.5553 15.8373 23.1622 15.2266 22.8761L15.3297 22.5815C15.6632 22.7358 15.9809 22.9222 16.2782 23.1383C16.3459 23.1854 16.4107 23.2325 16.4755 23.2856C16.5237 23.3204 16.5699 23.3577 16.614 23.3975C16.6592 23.4314 16.7025 23.4677 16.7436 23.5065C16.8585 23.6184 16.9704 23.7215 17.0765 23.8305Z" fill="#644E77"/>
<path d="M22.7705 28.0191C22.7706 29.8571 22.2625 31.6595 21.3023 33.2268C20.3421 34.7942 18.9673 36.0655 17.3298 36.9003L16.1309 36.9386C17.9136 36.2737 19.4562 35.0898 20.5597 33.5397C21.6631 31.9896 22.2768 30.1444 22.3215 28.2422C22.3662 26.3399 21.8399 24.468 20.8105 22.8677C19.7811 21.2675 18.2958 20.0124 16.5462 19.2645L16.6964 18.8491C18.4973 19.6125 20.0335 20.8892 21.1137 22.5199C22.1938 24.1505 22.77 26.0631 22.7705 28.0191Z" fill="#644E77"/>
<path d="M23.3593 28.0189C23.3554 25.9431 22.7405 23.9143 21.5912 22.1857C20.4419 20.457 18.8091 19.105 16.8965 18.2981L16.9466 18.1597C18.7215 18.9043 20.2626 20.114 21.4076 21.6612C22.5525 23.2084 23.2589 25.0358 23.4522 26.9508C23.6455 28.8659 23.3186 30.7976 22.506 32.5424C21.6933 34.2872 20.425 35.7805 18.8348 36.8648H18.5579C20.032 35.9074 21.2435 34.5966 22.082 33.0517C22.9206 31.5068 23.3597 29.7767 23.3593 28.0189Z" fill="#644E77"/>
<path d="M23.2118 28.0192C23.2103 25.9716 22.6058 23.9698 21.4737 22.2636C20.3416 20.5574 18.7322 19.2223 16.8462 18.4251L16.8963 18.2896C18.6641 19.0323 20.1961 20.2428 21.3275 21.791C22.4589 23.3393 23.1468 25.1666 23.3173 27.0765C23.4879 28.9865 23.1346 30.9068 22.2954 32.631C21.4563 34.3552 20.163 35.818 18.5547 36.8622H18.2601C19.7707 35.9323 21.0185 34.6319 21.8852 33.0842C22.7518 31.5365 23.2085 29.793 23.2118 28.0192Z" fill="#644E77"/>
<path d="M16.7671 32.4965C16.8279 32.4456 16.8859 32.3915 16.9409 32.3345C16.8859 32.3915 16.8279 32.4456 16.7671 32.4965Z" fill="#644E77"/>
<path d="M16.7434 23.5182C16.7023 23.4794 16.659 23.443 16.6138 23.4092C16.659 23.443 16.7023 23.4794 16.7434 23.5182Z" fill="#644E77"/>
<path d="M16.6494 15.5323L16.8114 15.0905C17.0117 15.0905 17.1796 15.0905 17.3034 15.0669V15.1494L17.1443 15.5176C17.0176 15.5323 16.8468 15.5323 16.6494 15.5323Z" fill="#644E77"/>
<path d="M16.6492 15.5322C16.8466 15.5322 17.0174 15.5322 17.1559 15.5322L17.097 15.6736H17.1176C16.9732 15.6736 16.7965 15.6736 16.5962 15.6736L16.6492 15.5322Z" fill="#644E77"/>
<path d="M16.4752 23.2972C16.4104 23.2442 16.3456 23.197 16.2778 23.1499C16.3456 23.1911 16.4104 23.2442 16.4752 23.2972Z" fill="#644E77"/>
<path d="M16.4427 19.5354L15.4294 22.3073C15.2499 22.2229 15.066 22.1481 14.8785 22.0834C14.693 22.0186 14.5074 21.9626 14.3188 21.9155L15.3322 19.1318C15.5207 19.1819 15.7092 19.2438 15.8977 19.3086C16.0863 19.3734 16.263 19.4559 16.4427 19.5354Z" fill="#644E77"/>
<path d="M16.2544 32.9116L16.384 32.8174L16.2544 32.9116Z" fill="#644E77"/>
<path d="M16.1338 32.9853L16.2546 32.9028C16.2163 32.9323 16.175 32.9588 16.1338 32.9853Z" fill="#644E77"/>
<path d="M22.1811 28.0188C22.1799 26.1829 21.6404 24.3876 20.6294 22.8551C19.6184 21.3227 18.1803 20.1203 16.4929 19.3967L16.543 19.2583C18.2926 20.0063 19.7779 21.2613 20.8073 22.8616C21.8367 24.4618 22.363 26.3338 22.3183 28.236C22.2736 30.1382 21.6599 31.9834 20.5565 33.5335C19.453 35.0836 17.9104 36.2675 16.1277 36.9325H15.6387C17.5319 36.3298 19.1852 35.1423 20.3608 33.5406C21.5364 31.9389 22.1737 30.0056 22.1811 28.0188Z" fill="#644E77"/>
<path d="M15.7861 17.8889L15.8362 17.7505C16.0218 17.8006 16.2074 17.8624 16.39 17.9272C16.5726 17.992 16.7641 18.0657 16.9467 18.1452L16.8967 18.2837C16.714 18.2041 16.5314 18.1334 16.3429 18.0657C16.1543 17.9979 15.9747 17.9479 15.7861 17.8889Z" fill="#644E77"/>
<path d="M15.6562 33.2742C15.7918 33.2006 15.9243 33.124 16.051 33.0386C15.9239 33.1244 15.7921 33.2031 15.6562 33.2742Z" fill="#644E77"/>
<path d="M15.7859 17.8887C15.9744 17.9417 16.1571 18.0006 16.3427 18.0654C16.5282 18.1302 16.7138 18.2039 16.8964 18.2834L16.8464 18.4189C16.6637 18.3423 16.4811 18.2716 16.2926 18.2039C16.1041 18.1361 15.9244 18.0801 15.7358 18.0271L15.7859 17.8887Z" fill="#644E77"/>
<path d="M15.7357 18.0332C15.9321 18.0862 16.1176 18.1451 16.2924 18.2099C16.4809 18.2777 16.6636 18.3484 16.8462 18.425L16.693 18.8433C16.5133 18.7667 16.3307 18.693 16.1451 18.6282C15.9596 18.5634 15.774 18.5016 15.5854 18.4485L15.7357 18.0332Z" fill="#644E77"/>
<path d="M15.3325 19.1438L15.3826 19.0024C15.5711 19.0555 15.7626 19.1173 15.9482 19.1821C16.1337 19.2469 16.3164 19.3206 16.4931 19.3972L16.443 19.5356C16.2634 19.4561 16.0837 19.3854 15.8981 19.3206C15.7125 19.2558 15.521 19.1939 15.3325 19.1438Z" fill="#644E77"/>
<path d="M16.4929 19.397C18.2525 20.15 19.7396 21.4235 20.7543 23.0465C21.7689 24.6694 22.2626 26.564 22.169 28.4757C22.0753 30.3875 21.3988 32.2247 20.2304 33.7407C19.062 35.2567 17.4576 36.3788 15.6327 36.9563L15.02 36.9798C16.8974 36.5154 18.5815 35.4731 19.8346 34.0001C21.0877 32.5271 21.8466 30.6977 22.0042 28.7702C22.1617 26.8427 21.7099 24.9143 20.7126 23.2574C19.7153 21.6004 18.2228 20.2985 16.4457 19.5354L16.4929 19.397Z" fill="#644E77"/>
<path d="M15.9953 19.0433C15.8097 18.9785 15.6212 18.9166 15.4297 18.8665L15.5829 18.4482C15.7714 18.5013 15.9599 18.5631 16.1425 18.6279C16.3252 18.6927 16.5108 18.7664 16.6904 18.843L16.5402 19.2583C16.3664 19.1788 16.1838 19.1081 15.9953 19.0433Z" fill="#644E77"/>
<path d="M15.3823 19.0022L15.4324 18.8667C15.6239 18.9168 15.8124 18.9786 15.998 19.0434C16.1836 19.1082 16.3662 19.1789 16.5429 19.2585L16.4929 19.3969C16.3161 19.3203 16.1335 19.2467 15.9479 19.1819C15.7623 19.1171 15.5708 19.067 15.3823 19.0022Z" fill="#644E77"/>
<path d="M19.1026 8.78046C18.6724 8.77335 18.2422 8.79697 17.8153 8.85116C16.8777 8.97373 15.9686 9.25882 15.1288 9.69363C15.1062 9.64973 15.0806 9.60741 15.0522 9.56697C15.9092 9.12252 16.8374 8.83142 17.7947 8.70682C18.2458 8.64826 18.7008 8.62463 19.1556 8.63612L19.1026 8.78046Z" fill="#644E77"/>
<path d="M15.2263 22.8761L13.2261 28.3699C13.1699 28.5125 13.0603 28.6277 12.9205 28.6908C12.7807 28.7539 12.6218 28.7601 12.4776 28.7079C12.3334 28.6557 12.2152 28.5494 12.1482 28.4115C12.0811 28.2735 12.0705 28.1149 12.1185 27.9692L14.1157 22.4873C14.308 22.5323 14.4977 22.5874 14.6843 22.6523C14.8691 22.7165 15.05 22.7912 15.2263 22.8761Z" fill="#644E77"/>
<path d="M15.2056 33.501L15.02 33.5776C15.0819 33.5481 15.1437 33.5245 15.2056 33.501Z" fill="#644E77"/>
<path d="M14.5605 9.88846C14.7174 9.77095 14.8818 9.6637 15.0525 9.56738C15.0808 9.60783 15.1064 9.65015 15.1291 9.69405C14.9577 9.79032 14.7933 9.8986 14.6371 10.0181C14.6047 9.96211 14.5812 9.91792 14.5605 9.88846Z" fill="#644E77"/>
<path d="M17.777 8.56002C18.2517 8.49991 18.7303 8.47627 19.2086 8.48933L19.1556 8.63661C18.7008 8.62511 18.2458 8.64875 17.7947 8.70731C16.8374 8.8319 15.9092 9.12301 15.0522 9.56745C15.0228 9.52032 15.0051 9.49086 14.9992 9.48497L14.9668 9.44668C15.8439 8.98758 16.7953 8.6874 17.777 8.56002Z" fill="#644E77"/>
<path d="M14.6372 10.0176C14.9648 10.5847 15.0905 11.2462 14.9936 11.894C14.8511 12.5128 14.4823 13.056 13.9597 13.4169C13.6511 13.0121 13.5032 12.5074 13.5444 12C13.5571 11.6068 13.6628 11.2221 13.8527 10.8776C14.0427 10.533 14.3115 10.2383 14.6372 10.0176Z" fill="white"/>
<path d="M15.011 36.9795C13.8194 37.2705 12.582 37.3225 11.3701 37.1327C12.516 37.0767 13.7326 37.0355 15.011 36.9795Z" fill="#DEDFE0"/>
<path d="M14.4839 9.75853C14.6376 9.64497 14.7979 9.5407 14.964 9.44629L14.9964 9.48458C14.9964 9.48458 15.02 9.51993 15.0495 9.56706C14.8787 9.66338 14.7144 9.77063 14.5575 9.88814C14.5425 9.86841 14.5287 9.84775 14.5163 9.82628C14.5026 9.80518 14.4918 9.78241 14.4839 9.75853Z" fill="#644E77"/>
<path d="M13.9595 13.4172C14.4821 13.0563 14.8508 12.5131 14.9934 11.8943C15.0902 11.2465 14.9646 10.585 14.637 10.0179C14.7931 9.8984 14.9575 9.79012 15.1289 9.69385C15.5405 10.3877 15.6968 11.2035 15.5708 12.0003C15.4145 12.7257 15.0013 13.3702 14.4072 13.8149C14.3169 13.7567 14.2313 13.6918 14.1509 13.6205C14.0796 13.5602 14.0153 13.492 13.9595 13.4172Z" fill="#644E77"/>
<path d="M14.6255 33.7132L14.8052 33.6543L14.6255 33.7132Z" fill="#644E77"/>
<path d="M14.5899 9.41674C14.646 9.3774 14.714 9.35881 14.7822 9.36419C14.8505 9.36957 14.9148 9.39856 14.964 9.4462C14.7979 9.54061 14.6375 9.64488 14.4839 9.75844C14.4616 9.69774 14.4599 9.6314 14.4791 9.56965C14.4982 9.5079 14.5372 9.45416 14.5899 9.41674Z" fill="#644E77"/>
<path d="M14.549 22.3073L14.4282 22.272L14.549 22.3073Z" fill="#644E77"/>
<path d="M14.3452 33.7957L14.5367 33.7427L14.3452 33.7957Z" fill="#644E77"/>
<path d="M14.5487 22.3072L14.4279 22.2718L14.2158 22.2188L14.3189 21.939C14.5074 21.9861 14.693 22.0421 14.8786 22.1069C15.0661 22.1716 15.25 22.2463 15.4294 22.3307L15.3293 22.6047C15.1486 22.5222 14.966 22.4486 14.7814 22.3838L14.5487 22.3072Z" fill="#644E77"/>
<path d="M14.4279 22.2601L14.2158 22.207L14.4279 22.2601Z" fill="#644E77"/>
<path d="M14.4074 13.815C15.2145 14.3334 16.4223 14.3806 17.0821 14.3364L17.0261 14.4866C16.3221 14.5249 15.0996 14.4572 14.2866 13.8975L14.4045 13.8032L14.4074 13.815Z" fill="#644E77"/>
<path d="M16.9733 14.6485C16.228 14.6779 14.9879 14.5925 14.1602 14.0122L14.2868 13.9209C15.0998 14.4688 16.3223 14.5365 17.0263 14.51L16.9733 14.6485Z" fill="#644E77"/>
<path d="M14.6842 22.6519C14.4977 22.5871 14.308 22.532 14.1157 22.487L14.2159 22.1924L14.428 22.2454L14.5487 22.2808L14.7815 22.3573C14.966 22.4221 15.1487 22.4958 15.3294 22.5783L15.2263 22.8728C15.0499 22.7889 14.869 22.7151 14.6842 22.6519Z" fill="#644E77"/>
<path d="M14.2277 22.2074C14.1275 22.1809 14.0244 22.1603 13.9331 22.1426C14.0126 22.1603 14.1157 22.1809 14.2277 22.2074Z" fill="#644E77"/>
<path d="M13.824 14.1625C13.8801 14.1632 13.9353 14.1479 13.9831 14.1183C14.042 14.08 14.1009 14.0417 14.1568 14.0005C14.9846 14.5896 16.2188 14.6662 16.97 14.6368L16.808 15.0816C15.9449 15.0816 14.4927 14.9696 13.5972 14.1124L13.6237 14.0859C13.6785 14.1357 13.75 14.163 13.824 14.1625Z" fill="#644E77"/>
<path d="M13.9331 33.8928L14.1246 33.8516L13.9331 33.8928Z" fill="#644E77"/>
<path d="M14.051 13.7292C13.9728 13.661 13.9017 13.585 13.8389 13.5024L13.9596 13.417C14.0146 13.4917 14.0778 13.5598 14.1482 13.6202C14.2285 13.6915 14.3142 13.7565 14.4044 13.8147L14.2866 13.9089C14.2032 13.8557 14.1243 13.7956 14.051 13.7292Z" fill="#644E77"/>
<path d="M13.6387 33.9367L13.8979 33.8955L13.6387 33.9367Z" fill="#644E77"/>
<path d="M13.8385 13.5024C13.9014 13.585 13.9725 13.661 14.0506 13.7293C14.124 13.7956 14.2028 13.8558 14.2863 13.9089L14.1596 14.0003C14.0871 13.9512 14.0182 13.8971 13.9534 13.8383C13.8676 13.7629 13.7896 13.679 13.7207 13.5879L13.8385 13.5024Z" fill="#644E77"/>
<path d="M13.6388 14.0857C13.6197 14.0682 13.6029 14.0484 13.5887 14.0268C13.568 13.9941 13.5539 13.9577 13.5473 13.9195C13.5407 13.8814 13.5417 13.8424 13.5501 13.8046C13.5586 13.7669 13.5744 13.7312 13.5967 13.6995C13.619 13.6679 13.6473 13.641 13.68 13.6203L13.7301 13.5879C13.799 13.679 13.8769 13.7629 13.9628 13.8383C14.0276 13.8971 14.0965 13.9512 14.169 14.0003C14.113 14.0415 14.0541 14.0798 13.9952 14.1181C13.9475 14.1477 13.8923 14.163 13.8361 14.1623C13.7631 14.1621 13.6928 14.1348 13.6388 14.0857Z" fill="#644E77"/>
<path d="M13.3973 11.9973C13.411 11.5788 13.5235 11.1696 13.7257 10.803C13.928 10.4364 14.2142 10.1229 14.5609 9.88818C14.5815 9.91764 14.6051 9.96183 14.6375 10.0178C14.3117 10.2385 14.0429 10.5332 13.853 10.8778C13.663 11.2223 13.5573 11.607 13.5446 12.0002C13.5034 12.5076 13.6514 13.0123 13.96 13.4171L13.8392 13.5026C13.5125 13.0719 13.3552 12.5362 13.3973 11.9973Z" fill="#644E77"/>
<path d="M13.4563 22.0748C13.3821 22.0636 13.3074 22.0567 13.2324 22.0542C13.3074 22.0565 13.3822 22.0634 13.4563 22.0748Z" fill="#644E77"/>
<path d="M13.3706 33.9694C13.4619 33.9694 13.5532 33.9517 13.6446 33.937C13.5562 33.9517 13.4649 33.9606 13.3706 33.9694Z" fill="#644E77"/>
<path d="M13.2497 11.9975C13.2628 11.5535 13.3816 11.1191 13.5962 10.7303C13.8109 10.3414 14.1152 10.0094 14.4839 9.76172C14.4927 9.78574 14.5046 9.80852 14.5193 9.82947C14.5317 9.85094 14.5455 9.8716 14.5605 9.89133C14.2138 10.126 13.9276 10.4395 13.7254 10.8061C13.5231 11.1727 13.4106 11.582 13.397 12.0004C13.3549 12.5394 13.5121 13.075 13.8388 13.5057L13.718 13.5911C13.3737 13.1344 13.2072 12.5679 13.2497 11.9975Z" fill="#644E77"/>
<path d="M12.808 11.9974C12.861 9.71449 15.1645 8.49202 17.7155 8.13854C18.2643 8.06814 18.818 8.04252 19.371 8.06195L19.209 8.5038C18.7307 8.49075 18.2521 8.51438 17.7774 8.5745C16.7958 8.70095 15.8444 9.00014 14.9672 9.45821C14.918 9.41058 14.8537 9.38158 14.7854 9.3762C14.7171 9.37083 14.6491 9.38941 14.5931 9.42875C14.5403 9.46618 14.5014 9.51991 14.4822 9.58166C14.4631 9.64341 14.4648 9.70976 14.487 9.77046C14.1183 10.0181 13.814 10.3501 13.5993 10.739C13.3847 11.1278 13.2659 11.5623 13.2528 12.0062C13.2103 12.5767 13.3768 13.1431 13.7211 13.5999L13.6711 13.6323C13.6384 13.653 13.6101 13.6799 13.5878 13.7115C13.5655 13.7431 13.5497 13.7789 13.5412 13.8166C13.5327 13.8544 13.5318 13.8934 13.5384 13.9315C13.545 13.9696 13.5591 14.0061 13.5798 14.0388C13.5939 14.0604 13.6108 14.0802 13.6298 14.0977L13.6033 14.1242C13.3245 13.8485 13.1089 13.5156 12.9716 13.1483C12.8343 12.7811 12.7784 12.3884 12.808 11.9974Z" fill="#644E77"/>
<path d="M13.1144 33.9868C13.0142 33.9868 12.9111 33.9868 12.8198 33.9868C12.9111 33.9957 13.0142 33.9927 13.1144 33.9868Z" fill="#644E77"/>
<path d="M12.8164 22.0361C12.9225 22.0361 13.0285 22.0361 13.1345 22.0361C13.0285 22.0391 12.9225 22.0361 12.8164 22.0361Z" fill="#644E77"/>
<path d="M17.715 8.12372C15.1641 8.47721 12.8605 9.69967 12.8075 11.9826C12.7771 12.3738 12.8323 12.767 12.9691 13.1347C13.106 13.5025 13.3212 13.8361 13.5999 14.1123C14.4836 14.9695 15.9565 15.0962 16.8107 15.0815L16.6487 15.5233C15.7444 15.5233 14.3186 15.3554 13.3613 14.4982C13.0166 14.1791 12.7481 13.7864 12.5758 13.3494C12.4034 12.9124 12.3316 12.4423 12.3656 11.9737C12.4187 9.74091 14.3952 8.14434 17.6532 7.68481C18.2753 7.60551 18.9032 7.58087 19.5296 7.61117L19.3705 8.04713C18.8175 8.02771 18.2639 8.05332 17.715 8.12372Z" fill="#644E77"/>
<path d="M19.5299 7.61124C18.9034 7.58094 18.2756 7.60558 17.6534 7.68489C14.3955 8.13852 12.4189 9.74687 12.3659 11.9738C12.3319 12.4423 12.4037 12.9125 12.5761 13.3495C12.7484 13.7865 13.0169 14.1791 13.3616 14.4983C14.3189 15.3555 15.7446 15.5175 16.649 15.5234L16.5959 15.6677C15.668 15.6677 14.2394 15.4821 13.2644 14.6073C12.9006 14.2735 12.6174 13.8614 12.4362 13.4021C12.2551 12.9428 12.1807 12.4484 12.2186 11.9561C12.2746 9.64377 14.2983 7.98829 17.6328 7.5376C18.2791 7.45234 18.932 7.42769 19.5829 7.46396L19.5299 7.61124Z" fill="#644E77"/>
<path d="M17.6125 7.39342C18.2826 7.30919 18.9589 7.28553 19.6332 7.32272L19.5832 7.46706C18.9323 7.43079 18.2794 7.45544 17.6331 7.5407C14.2986 8.00317 12.2749 9.65866 12.2189 11.9592C12.1809 12.4515 12.2554 12.9459 12.4365 13.4052C12.6177 13.8645 12.9008 14.2766 13.2646 14.6104C14.2426 15.4941 15.6683 15.662 16.5962 15.6708L16.5432 15.8211C15.5888 15.8211 14.166 15.6149 13.1674 14.7223C12.7892 14.3754 12.4942 13.9475 12.3044 13.4706C12.1147 12.9937 12.0351 12.48 12.0716 11.9681C12.1276 9.57618 14.2014 7.87356 17.6125 7.39342Z" fill="#644E77"/>
<path d="M12.8076 37.392C12.1138 37.3928 11.4222 37.3157 10.7456 37.1623L11.3642 37.1328C12.576 37.3227 13.8135 37.2706 15.0051 36.9796L15.6178 36.9561C14.7089 37.2443 13.7611 37.3914 12.8076 37.392Z" fill="#644E77"/>
<path d="M12.8078 37.5393C11.9444 37.5406 11.085 37.4226 10.2539 37.1888L10.7488 37.1623C12.3643 37.5275 14.0479 37.4563 15.6269 36.9561H16.1158C15.0569 37.3465 13.9365 37.5441 12.8078 37.5393Z" fill="#644E77"/>
<path d="M12.8074 37.9814C11.5282 37.9836 10.2607 37.7375 9.0752 37.2568L10.2535 37.1891C12.1863 37.7299 14.2409 37.6432 16.1213 36.9416L17.3202 36.9033C15.9224 37.6148 14.3758 37.9843 12.8074 37.9814Z" fill="#644E77"/>
<path d="M9.07545 37.2565C10.3961 37.7889 11.8154 38.0326 13.238 37.9711C14.6606 37.9096 16.0536 37.5444 17.3234 36.9001L18.2631 36.8706C16.7528 37.8046 15.0282 38.3356 13.2541 38.413C11.48 38.4903 9.71575 38.1114 8.12988 37.3125L9.07545 37.2565Z" fill="#644E77"/>
<path d="M12.8081 38.423C14.7378 38.4256 16.6297 37.8878 18.2695 36.8706H18.564C16.9856 37.8996 15.16 38.4862 13.2776 38.5691C11.3952 38.652 9.52506 38.2282 7.8623 37.3419L8.15687 37.3213C9.59988 38.047 11.1929 38.4243 12.8081 38.423Z" fill="#644E77"/>
<path d="M18.5548 36.8618H18.8317C17.1884 37.9844 15.2641 38.6256 13.2759 38.713C11.2877 38.8005 9.3146 38.3307 7.5791 37.3567L7.85011 37.339C9.51286 38.2253 11.383 38.6491 13.2654 38.5662C15.1478 38.4833 16.9734 37.8967 18.5518 36.8677L18.5548 36.8618Z" fill="#644E77"/>
<path d="M7.57928 37.351C9.31478 38.325 11.2879 38.7947 13.2761 38.7073C15.2643 38.6199 17.1886 37.9787 18.8318 36.8561C23.545 36.7265 28.8472 36.6528 34.5 36.6528C40.8215 36.6528 46.7453 36.7441 51.8384 36.9062C53.453 37.9416 55.3106 38.5362 57.2264 38.6307C59.1422 38.7253 61.0493 38.3166 62.7581 37.4452C66.6906 37.7398 69 38.1168 69 38.5145C69 39.5426 53.5528 40.3762 34.4971 40.3762C15.4413 40.3762 0 39.5426 0 38.5086C0 38.0756 2.83671 37.672 7.57928 37.351Z" fill="#DEDFE0"/>
<path d="M6.53615 28.019C6.5348 27.0662 6.75068 26.1256 7.16737 25.2688C7.58406 24.4119 8.1906 23.6613 8.94089 23.074C9.69118 22.4867 10.5655 22.0782 11.4973 21.8795C12.4292 21.6808 13.3941 21.6972 14.3187 21.9273L14.2156 22.2071C14.1154 22.1806 14.0123 22.16 13.921 22.1423C13.7713 22.1109 13.6198 22.0883 13.4674 22.0746C13.3932 22.0632 13.3185 22.0563 13.2435 22.054C13.2112 22.051 13.1786 22.051 13.1463 22.054C13.0402 22.054 12.9342 22.054 12.8282 22.054C11.2422 22.054 9.72125 22.684 8.59983 23.8054C7.4784 24.9268 6.84839 26.4478 6.84839 28.0337C6.84839 29.6197 7.4784 31.1406 8.59983 32.2621C9.72125 33.3835 11.2422 34.0135 12.8282 34.0135C12.9313 34.0135 13.0344 34.0135 13.1227 34.0135L13.379 33.9958C13.4733 33.9958 13.5646 33.9782 13.653 33.9634L13.9122 33.9222H13.9328L14.1243 33.8809C14.2038 33.8662 14.2804 33.8456 14.357 33.825L14.5484 33.772L14.6368 33.7425L14.8165 33.6836L15.0315 33.6011L15.2171 33.5245C15.3713 33.4592 15.5218 33.3855 15.6678 33.3036C15.8037 33.2325 15.9355 33.1538 16.0625 33.0679C16.0911 33.052 16.1186 33.0343 16.145 33.0149C16.1863 32.9884 16.2275 32.9619 16.2658 32.9324L16.3954 32.8382C16.5289 32.7415 16.6568 32.6372 16.7783 32.5259C16.8391 32.4751 16.8971 32.421 16.9521 32.3639C17.0341 32.2908 17.1118 32.2131 17.1848 32.1312C17.2261 32.09 17.2644 32.0458 17.3027 32.0016C17.3229 31.9814 17.3416 31.9597 17.3586 31.9368C17.408 31.8835 17.4542 31.8274 17.4971 31.7689C17.5501 31.707 17.5972 31.6422 17.6444 31.5774C17.7628 31.4199 17.872 31.2556 17.9713 31.0855C18.0538 30.947 18.1304 30.8056 18.1982 30.6613C18.2794 30.4986 18.3512 30.3314 18.4132 30.1605C18.4427 30.0869 18.4692 30.0132 18.4957 29.9367C18.4957 29.9219 18.4957 29.9101 18.4957 29.8925C18.5192 29.8277 18.5399 29.7629 18.5575 29.6951C18.6047 29.5301 18.6459 29.3622 18.6783 29.1914L18.7048 29.0412C18.7167 28.9818 18.7256 28.9218 18.7313 28.8615C18.7327 28.8567 18.7327 28.8516 18.7313 28.8467L19.0259 28.888C18.8138 30.4656 18.0099 31.9036 16.7772 32.9107C15.5445 33.9178 13.9751 34.4188 12.3868 34.312C10.7986 34.2053 9.31032 33.4989 8.22344 32.3359C7.13656 31.1729 6.53235 29.6403 6.5332 28.0485L6.53615 28.019Z" fill="#644E77"/>
<path d="M6.83106 28.0191C6.83067 27.2338 6.98496 26.4561 7.28511 25.7305C7.58526 25.0049 8.02541 24.3454 8.5804 23.7899C9.1354 23.2343 9.79439 22.7936 10.5197 22.4927C11.2451 22.1918 12.0226 22.0368 12.8079 22.0364C12.9139 22.0364 13.02 22.0364 13.126 22.0364C13.1583 22.0334 13.1909 22.0334 13.2232 22.0364C13.2982 22.0389 13.3729 22.0457 13.4471 22.057C13.5995 22.0707 13.751 22.0933 13.9007 22.1247C14.0038 22.1424 14.1069 22.163 14.1953 22.1896L14.0951 22.4841C13.6669 22.3806 13.2279 22.3282 12.7873 22.328C11.6969 22.3325 10.6309 22.6505 9.71621 23.244C8.80155 23.8375 8.07685 24.6815 7.62851 25.6754C7.18016 26.6693 7.02709 27.7712 7.18752 28.8497C7.34796 29.9282 7.81514 30.9378 8.53338 31.7581C9.25162 32.5785 10.1906 33.175 11.2384 33.4766C12.2862 33.7781 13.3987 33.772 14.4431 33.459C15.4876 33.1459 16.4199 32.5391 17.1291 31.7109C17.8383 30.8828 18.2944 29.8681 18.443 28.7879L18.7376 28.8262C18.739 28.831 18.739 28.8361 18.7376 28.8409C18.7376 28.9028 18.7199 28.9617 18.7111 29.0206L18.6845 29.1709C18.6521 29.3417 18.6109 29.5096 18.5638 29.6746C18.5461 29.7423 18.5255 29.8071 18.5019 29.8719C18.5019 29.8896 18.5019 29.9014 18.5019 29.9161C18.4754 29.9927 18.4489 30.0663 18.4194 30.14C18.3574 30.3109 18.2856 30.4781 18.2044 30.6408C18.1337 30.7851 18.0601 30.9353 17.9776 31.0649C17.8782 31.2351 17.769 31.3994 17.6506 31.5569C17.6035 31.6217 17.5534 31.6865 17.5033 31.7483C17.4532 31.8102 17.412 31.8632 17.3649 31.9162C17.3478 31.9392 17.3291 31.9608 17.3089 31.981C17.2706 32.0252 17.2323 32.0694 17.1911 32.1107C17.118 32.1926 17.0403 32.2703 16.9584 32.3434C16.9034 32.4004 16.8453 32.4545 16.7846 32.5054C16.663 32.6167 16.5351 32.7209 16.4016 32.8176L16.272 32.9119L16.1512 32.9944C16.1249 33.0137 16.0973 33.0314 16.0688 33.0474C15.9421 33.1328 15.8095 33.2094 15.674 33.283C15.528 33.3649 15.3775 33.4387 15.2233 33.504C15.1615 33.5334 15.0996 33.557 15.0378 33.5806L14.8227 33.663L14.643 33.722L14.5547 33.7514L14.3632 33.8044C14.2866 33.8251 14.21 33.8457 14.1305 33.8604L13.939 33.9016H13.9213L13.6621 33.9429C13.5708 33.9576 13.4795 33.9664 13.3882 33.9753L13.1319 33.993C13.0317 33.993 12.9286 33.993 12.8373 33.993C12.0501 33.9972 11.2698 33.8459 10.5413 33.5476C9.81275 33.2493 9.15037 32.8099 8.5922 32.2547C8.03404 31.6996 7.59111 31.0396 7.28887 30.3127C6.98663 29.5858 6.83104 28.8063 6.83106 28.0191Z" fill="#644E77"/>
<path d="M3.43457 28.0189C3.43454 26.568 3.77123 25.1369 4.41814 23.8382C5.06504 22.5395 6.00451 21.4087 7.16262 20.5347C8.32072 19.6607 9.66586 19.0674 11.0922 18.8014C12.5185 18.5355 13.9871 18.6042 15.3823 19.0021L15.3322 19.1435C14.5114 18.9082 13.6616 18.7893 12.8078 18.79C10.4874 18.7936 8.25346 19.6711 6.551 21.2477C4.84854 22.8244 3.80249 24.9845 3.6212 27.2979C3.43991 29.6112 4.13669 31.9079 5.57275 33.7305C7.00881 35.5531 9.07876 36.7679 11.3703 37.1329L10.7517 37.1623C8.67614 36.6935 6.82154 35.5333 5.49203 33.8719C4.16252 32.2106 3.43704 30.1467 3.43457 28.0189Z" fill="#644E77"/>
<path d="M3.43441 28.0191C3.4394 30.1445 4.16567 32.2053 5.49439 33.8642C6.8231 35.5231 8.67555 36.6818 10.7486 37.1508L10.2537 37.1773C8.03493 36.5607 6.11484 35.1608 4.84916 33.237C3.58348 31.3132 3.058 28.9958 3.37008 26.7142C3.68215 24.4326 4.81063 22.3414 6.54643 20.8281C8.28224 19.3149 10.5077 18.482 12.8106 18.4839C13.6986 18.4831 14.5822 18.608 15.4352 18.855L15.3851 18.9906C13.9898 18.5926 12.5213 18.5239 11.095 18.7898C9.66865 19.0558 8.32351 19.6491 7.16541 20.5231C6.0073 21.3971 5.06783 22.5279 4.42092 23.8266C3.77402 25.1253 3.43733 26.5564 3.43736 28.0073L3.43441 28.0191Z" fill="#644E77"/>
<path d="M12.808 18.4956C10.5051 18.4937 8.27965 19.3266 6.54384 20.8398C4.80804 22.3531 3.67956 24.4443 3.36748 26.7259C3.05541 29.0075 3.58089 31.3249 4.84657 33.2487C6.11225 35.1725 8.03234 36.5724 10.2511 37.189L9.07283 37.2567C6.70812 36.2963 4.80206 34.4652 3.74762 32.1409C2.69318 29.8166 2.57075 27.1763 3.40557 24.7644C4.24039 22.3525 5.96881 20.3528 8.23449 19.1777C10.5002 18.0026 13.1304 17.7416 15.5828 18.4485L15.4296 18.8668C14.5776 18.62 13.695 18.495 12.808 18.4956Z" fill="#644E77"/>
<path d="M2.84574 28.0192C2.84596 30.0044 3.4391 31.9442 4.54911 33.5901C5.65912 35.236 7.23541 36.5128 9.07588 37.2569L8.13621 37.3128C5.8162 36.1463 4.01627 34.1544 3.09006 31.7284C2.16386 29.3024 2.17834 26.6178 3.13065 24.202C4.08296 21.7861 5.90426 19.8137 8.23671 18.6723C10.5692 17.5309 13.2442 17.3029 15.7361 18.0332L15.5859 18.4486C14.1013 18.0176 12.5368 17.9379 11.0162 18.216C9.49553 18.494 8.06045 19.1221 6.82449 20.0506C5.58852 20.9791 4.58558 22.1824 3.89502 23.5655C3.20445 24.9485 2.84522 26.4733 2.84574 28.0192Z" fill="#644E77"/>
<path d="M7.85019 37.3303C5.53719 36.1057 3.76185 34.0652 2.86893 31.605C1.97602 29.1449 2.02926 26.4407 3.01832 24.0176C4.00738 21.5945 5.86167 19.6254 8.22108 18.4928C10.5805 17.3602 13.2766 17.1449 15.7859 17.8887L15.7358 18.0271C13.2439 17.2968 10.5689 17.5247 8.23643 18.6662C5.90397 19.8076 4.08267 21.78 3.13036 24.1958C2.17805 26.6117 2.16357 29.2963 3.08978 31.7223C4.01598 34.1483 5.81591 36.1402 8.13592 37.3067L7.84135 37.3273L7.85019 37.3303Z" fill="#644E77"/>
<path d="M2.25627 28.0191C2.25848 29.9329 2.78028 31.8102 3.76599 33.4506C4.7517 35.091 6.16432 36.433 7.8531 37.3334L7.58209 37.3511C5.51804 36.1938 3.89591 34.3848 2.96956 32.2073C2.04321 30.0298 1.86492 27.6066 2.46259 25.3169C3.06025 23.0273 4.40015 21.0004 6.27258 19.5535C8.14502 18.1065 10.4443 17.3212 12.8107 17.3203C13.8361 17.3185 14.8562 17.4663 15.8389 17.7592L15.7888 17.8977C14.2152 17.4341 12.5551 17.3439 10.9405 17.6343C9.32585 17.9247 7.80123 18.5877 6.48776 19.5706C5.17428 20.5535 4.10816 21.8292 3.37411 23.2963C2.64006 24.7634 2.25832 26.3815 2.25922 28.022L2.25627 28.0191Z" fill="#644E77"/>
</svg>
