<?xml version="1.0" encoding="utf-8"?>
<!-- Generator: Adobe Illustrator 25.0.0, SVG Export Plug-In . SVG Version: 6.00 Build 0)  -->
<svg version="1.1" id="Layer_1" xmlns="http://www.w3.org/2000/svg" xmlns:xlink="http://www.w3.org/1999/xlink" x="0px" y="0px"
	 viewBox="0 0 415 256" style="enable-background:new 0 0 415 256;" xml:space="preserve">
<style type="text/css">
	.st0{fill:#FFFFFF;}
	.st1{fill:#DEDFE0;}
	.st2{fill:none;stroke:#3F2355;stroke-width:4;stroke-linecap:round;stroke-linejoin:round;stroke-miterlimit:10;}
	.st3{fill:none;stroke:#3F2355;stroke-width:3;stroke-linecap:round;stroke-linejoin:round;stroke-miterlimit:10;}
	.st4{fill:none;stroke:#3F2355;stroke-width:2;stroke-linecap:round;stroke-linejoin:round;stroke-miterlimit:10;}
	.st5{fill-rule:evenodd;clip-rule:evenodd;fill:#3F2355;}
	.st6{fill:#3F2355;}
	.st7{fill:none;stroke:#3F2355;stroke-width:2;stroke-miterlimit:10;}
	.st8{fill:none;stroke:#3F2355;stroke-width:4;stroke-miterlimit:10;}
	.st9{fill:none;stroke:#3F2355;stroke-width:3;stroke-miterlimit:10;}
	.st10{fill:none;stroke:#000000;stroke-miterlimit:10;}
	.st11{fill:#3F2254;}
	.st12{fill:#DEDEDF;}
	.st13{fill:#EBECE6;}
</style>
<g>
	<ellipse class="st1" cx="199.07" cy="190.28" rx="147.89" ry="7.49"/>
	<g>
		<g>
			<path class="st0" d="M271.04,155.58c4.14,0,7.49,3.35,7.49,7.49c0,2.82-1.55,5.27-3.85,6.56h-0.01c-1.08,0.6-2.32,0.94-3.64,0.94
				c-1.17,0-2.27-0.26-3.26-0.75h-0.01c-2.5-1.22-4.23-3.78-4.23-6.75C263.54,158.94,266.9,155.58,271.04,155.58z"/>
			<path class="st0" d="M48.06,149.57h22.73c-3.32,3.53-5.35,8.28-5.35,13.51c0,3.16,0.74,6.15,2.07,8.79
				c-4.59,0.01-7.76,0.01-9.22,0.01c-0.73,0-1.46-0.19-2.06-0.58c-2.31-1.48-7.31-6.41-8.26-21.72L48.06,149.57z"/>
			<path class="st0" d="M85.16,155.58c4.14,0,7.5,3.35,7.5,7.49s-3.36,7.5-7.5,7.5s-7.49-3.36-7.49-7.5S81.02,155.58,85.16,155.58z"
				/>
			<path class="st1" d="M104.88,163.07c0,3.12-0.72,6.08-2.02,8.7c-3.21,6.54-9.92,11.02-17.7,11.02c-7.73,0-14.42-4.44-17.65-10.93
				c-1.33-2.64-2.07-5.63-2.07-8.79c0-5.23,2.03-9.98,5.35-13.51c3.59-3.82,8.71-6.21,14.37-6.21c5.67,0,10.77,2.39,14.37,6.21
				C102.84,153.1,104.88,157.85,104.88,163.07z M92.66,163.07c0-4.14-3.36-7.49-7.5-7.49s-7.49,3.35-7.49,7.49s3.35,7.5,7.49,7.5
				S92.66,167.21,92.66,163.07z"/>
			<path class="st0" d="M219.07,149.57h37.61c-3.33,3.53-5.35,8.28-5.35,13.51c0,2.5,0.46,4.9,1.32,7.1
				c-48.08,1.02-108.91,1.43-149.79,1.59c1.3-2.62,2.02-5.57,2.02-8.7c0-5.23-2.03-9.98-5.35-13.51h90.27v13.51h29.28V149.57z"/>
			<path class="st0" d="M366.5,149.57h0.05c-0.03,1.18-0.05,1.84-0.05,1.84s-1.99,11.73-46.91,16.09
				c-6.61,0.64-16.94,1.18-29.78,1.66c0.63-1.92,0.96-3.96,0.96-6.08c0-5.23-2.03-9.98-5.35-13.51H366.5z"/>
			<path class="st1" d="M290.77,163.07c0,2.12-0.34,4.16-0.96,6.08c-2.56,7.92-9.99,13.64-18.76,13.64
				c-8.39,0-15.55-5.23-18.4-12.62c-0.86-2.2-1.32-4.6-1.32-7.1c0-5.23,2.02-9.98,5.35-13.51c3.59-3.82,8.7-6.21,14.37-6.21
				c5.66,0,10.77,2.39,14.37,6.21C288.73,153.1,290.77,157.85,290.77,163.07z M278.54,163.07c0-4.14-3.35-7.49-7.49-7.49
				s-7.5,3.35-7.5,7.49c0,2.97,1.73,5.53,4.23,6.75h0.01c0.99,0.49,2.09,0.75,3.26,0.75c1.32,0,2.56-0.35,3.64-0.94h0.01
				C276.99,168.35,278.54,165.89,278.54,163.07z"/>
			<path class="st0" d="M339.65,64.52v2.75h-40.1l4.17-4.18c3.1-3.1,7.31-4.85,11.72-4.85h17.94
				C336.84,58.23,339.65,61.05,339.65,64.52z"/>
			<path class="st0" d="M274.69,64.63v2.63h-33.84l3.51-4c2.62-2.98,6.17-4.65,9.88-4.65h15.14
				C272.32,58.61,274.69,61.3,274.69,64.63z"/>
			<path class="st0" d="M184.84,64.52v2.75h-40.1l4.17-4.18c3.1-3.1,7.31-4.85,11.72-4.85h17.94
				C182.03,58.23,184.84,61.05,184.84,64.52z"/>
			<path class="st0" d="M106.59,90.39v31.35c0,2.96-2.4,5.34-5.34,5.34H51.18c3.16-11.5,8.55-26.88,16.21-42.03h0.01h33.84
				C104.19,85.06,106.59,87.45,106.59,90.39z"/>
			<path class="st0" d="M169.46,101.89v20.56c0,3.25-2.63,5.88-5.88,5.88h-32.32c-3.24,0-5.87-2.63-5.87-5.88v-20.56
				c0-3.25,2.63-5.88,5.87-5.88h32.32C166.83,96.01,169.46,98.64,169.46,101.89z"/>
			<path class="st0" d="M219.07,149.57v13.51h-29.28v-13.51V92.48c0-3.09,2.5-5.6,5.6-5.6h18.09c3.09,0,5.6,2.5,5.6,5.6V149.57z"/>
			<path class="st1" d="M257.51,94.8v8.41c0,1.43-1.15,2.58-2.58,2.58h-13.34c-1.43,0-2.59-1.15-2.59-2.58V94.8
				c0-1.43,1.16-2.59,2.59-2.59h13.34C256.35,92.22,257.51,93.38,257.51,94.8z"/>
			<path class="st0" d="M344.64,89.3v19.87c0,3.63-2.94,6.56-6.57,6.56h-54.78c-3.63,0-6.57-2.93-6.57-6.56V89.3
				c0-3.63,2.94-6.57,6.57-6.57h54.78C341.69,82.73,344.64,85.68,344.64,89.3z"/>
			<path class="st0" d="M240.85,67.26h33.84h24.86h40.1h18.86c1.55,0,2.92,0.96,3.45,2.42c1.26,3.49,3.45,10.42,4.54,18.64
				c1.38,10.53,0.31,51.97,0.05,61.24h-0.05h-81.09c-3.59-3.82-8.71-6.21-14.37-6.21c-5.67,0-10.77,2.39-14.37,6.21h-37.61V92.48
				c0-3.09-2.5-5.6-5.6-5.6h-18.09c-3.09,0-5.6,2.5-5.6,5.6v57.09H99.52c-3.59-3.82-8.7-6.21-14.37-6.21
				c-5.66,0-10.77,2.39-14.37,6.21H48.06l-0.09,0.01c-0.1-1.63-0.16-3.38-0.16-5.26c0-2.78,1.12-9.02,3.37-17.23h50.06
				c2.94,0,5.34-2.39,5.34-5.34V90.39c0-2.94-2.4-5.33-5.34-5.33H67.4c2.68-5.33,5.67-10.65,8.93-15.75
				c0.82-1.28,2.25-2.04,3.77-2.04h64.63h40.1H240.85z M344.64,109.17V89.3c0-3.63-2.94-6.57-6.57-6.57h-54.78
				c-3.63,0-6.57,2.94-6.57,6.57v19.87c0,3.63,2.94,6.56,6.57,6.56h54.78C341.69,115.73,344.64,112.8,344.64,109.17z M257.51,103.22
				V94.8c0-1.43-1.15-2.59-2.58-2.59h-13.34c-1.43,0-2.59,1.16-2.59,2.59v8.41c0,1.43,1.16,2.58,2.59,2.58h13.34
				C256.35,105.8,257.51,104.64,257.51,103.22z M169.46,122.45v-20.56c0-3.25-2.63-5.88-5.88-5.88h-32.32
				c-3.24,0-5.87,2.63-5.87,5.88v20.56c0,3.25,2.63,5.88,5.87,5.88h32.32C166.83,128.33,169.46,125.7,169.46,122.45z"/>
		</g>
		<g>
			<path class="st3" d="M99.52,149.57c3.32,3.53,5.35,8.28,5.35,13.51c0,3.12-0.72,6.08-2.02,8.7c-3.21,6.54-9.92,11.02-17.7,11.02
				c-7.73,0-14.42-4.44-17.65-10.93c-1.33-2.64-2.07-5.63-2.07-8.79c0-5.23,2.03-9.98,5.35-13.51c3.59-3.82,8.71-6.21,14.37-6.21
				C90.83,143.35,95.93,145.74,99.52,149.57z"/>
			<path class="st4" d="M92.66,163.07c0,4.14-3.36,7.5-7.5,7.5s-7.49-3.36-7.49-7.5s3.35-7.49,7.49-7.49S92.66,158.94,92.66,163.07z
				"/>
			<path class="st2" d="M285.41,149.57c3.32,3.53,5.35,8.28,5.35,13.51c0,2.12-0.34,4.16-0.96,6.08
				c-2.56,7.92-9.99,13.64-18.76,13.64c-8.39,0-15.55-5.23-18.4-12.62c-0.86-2.2-1.32-4.6-1.32-7.1c0-5.23,2.02-9.98,5.35-13.51
				c3.59-3.82,8.7-6.21,14.37-6.21C276.7,143.35,281.82,145.74,285.41,149.57z"/>
			<path class="st4" d="M274.68,169.63c-1.08,0.6-2.32,0.94-3.64,0.94c-1.17,0-2.27-0.26-3.26-0.75"/>
			<path class="st4" d="M267.77,169.82c-2.5-1.22-4.23-3.78-4.23-6.75c0-4.14,3.36-7.49,7.5-7.49s7.49,3.35,7.49,7.49
				c0,2.82-1.55,5.27-3.85,6.56"/>
			<line class="st10" x1="274.69" y1="169.63" x2="274.68" y2="169.63"/>
			<line class="st10" x1="267.78" y1="169.82" x2="267.77" y2="169.82"/>
			<path class="st2" d="M67.4,85.06c2.68-5.33,5.67-10.65,8.93-15.75c0.82-1.28,2.25-2.04,3.77-2.04h64.63h40.1h56.01h33.84h24.86
				h40.1h18.86c1.55,0,2.92,0.96,3.45,2.42c1.26,3.49,3.45,10.42,4.54,18.64c1.38,10.53,0.31,51.97,0.05,61.24
				c-0.03,1.18-0.05,1.84-0.05,1.84s-1.99,11.73-46.91,16.09c-6.61,0.64-16.94,1.18-29.78,1.66"/>
			<path class="st2" d="M66.46,171.87c-4.59,0.01-6.72,0.01-8.17,0.01c-0.73,0-1.46-0.19-2.06-0.58c-2.31-1.48-7.31-6.41-8.26-21.72
				c-0.1-1.63-0.16-3.38-0.16-5.26c0-2.78,1.12-9.02,3.37-17.23c3.16-11.5,8.55-26.88,16.21-42.03"/>
			<path class="st2" d="M103.9,171.77c40.88-0.17,100.66-0.58,148.74-1.59"/>
			<line class="st4" x1="182.45" y1="149.57" x2="106.86" y2="149.57"/>
			<line class="st4" x1="248.29" y1="149.57" x2="226.4" y2="149.57"/>
			<line class="st4" x1="366.5" y1="149.57" x2="293.79" y2="149.57"/>
			<line class="st4" x1="62.41" y1="149.57" x2="48.06" y2="149.57"/>
			<path class="st4" d="M219.07,149.57v13.51h-29.28v-13.51V92.48c0-3.09,2.5-5.6,5.6-5.6h18.09c3.09,0,5.6,2.5,5.6,5.6V149.57z"/>
			<path class="st4" d="M67.39,85.06h0.01h33.84c2.94,0,5.34,2.39,5.34,5.33v31.35c0,2.96-2.4,5.34-5.34,5.34H51.18"/>
			<path class="st4" d="M163.58,128.33h-32.32c-3.24,0-5.87-2.63-5.87-5.88v-20.56c0-3.25,2.63-5.88,5.87-5.88h32.32
				c3.25,0,5.88,2.63,5.88,5.88v20.56C169.46,125.7,166.83,128.33,163.58,128.33z"/>
			<path class="st4" d="M338.07,115.73h-54.78c-3.63,0-6.57-2.93-6.57-6.56V89.3c0-3.63,2.94-6.57,6.57-6.57h54.78
				c3.63,0,6.57,2.94,6.57,6.57v19.87C344.64,112.8,341.69,115.73,338.07,115.73z"/>
			<path class="st4" d="M254.93,105.8h-13.34c-1.43,0-2.59-1.15-2.59-2.58V94.8c0-1.43,1.16-2.59,2.59-2.59h13.34
				c1.43,0,2.58,1.16,2.58,2.59v8.41C257.51,104.64,256.35,105.8,254.93,105.8z"/>
			<path class="st4" d="M184.84,67.26v-2.75c0-3.47-2.81-6.29-6.28-6.29h-17.94c-4.4,0-8.61,1.75-11.72,4.85l-4.17,4.18l-0.04,0.04"
				/>
			<path class="st4" d="M339.65,67.26v-2.75c0-3.47-2.81-6.29-6.28-6.29h-17.94c-4.4,0-8.61,1.75-11.72,4.85l-4.17,4.18l-0.04,0.04"
				/>
			<path class="st4" d="M274.69,67.26v-2.63c0-3.33-2.37-6.03-5.3-6.03h-15.14c-3.71,0-7.26,1.68-9.88,4.65l-3.51,4l-0.04,0.04"/>
		</g>
	</g>
</g>
</svg>
