<svg width="18" height="19" viewBox="0 0 18 19" fill="none" xmlns="http://www.w3.org/2000/svg">
<path fill-rule="evenodd" clip-rule="evenodd" d="M9.00335 2C6.80283 2 5.01896 3.79148 5.01896 6.00138C5.01896 8.21128 6.80283 10.0028 9.00335 10.0028C11.2039 10.0028 12.9877 8.21128 12.9877 6.00138C12.9877 3.79148 11.2039 2 9.00335 2ZM9.00359 3.08592C10.607 3.08592 11.9068 4.39129 11.9068 6.00155C11.9068 7.6118 10.607 8.91718 9.00359 8.91718C7.40017 8.91718 6.10034 7.6118 6.10034 6.00155C6.10034 4.39129 7.40017 3.08592 9.00359 3.08592ZM7.37254 11.6155C6.78925 11.656 6.19966 11.7393 5.6181 11.8639C4.49563 12.0951 3.59764 12.5571 3.21543 13.3248C3.07127 13.625 2.99879 13.9465 3.00002 14.2719C2.99958 14.595 3.07147 14.9169 3.21046 15.2113C3.57746 15.9702 4.37085 16.3996 5.44218 16.6377L5.6341 16.6777C6.19986 16.8054 6.78963 16.8913 7.38335 16.9317C7.43392 16.9465 7.55443 16.9603 7.68597 16.967L7.79416 16.971C7.8498 16.9723 7.91293 16.9727 8.00701 16.9727C8.86038 17.0196 9.74507 17.0059 10.6256 16.931C11.0949 16.8989 11.5673 16.8375 12.0358 16.7476L12.3863 16.6748C13.5432 16.4466 14.4094 16.0126 14.7889 15.2122C15.0703 14.618 15.0703 13.9284 14.7891 13.3344C14.4105 12.5361 13.5553 12.1057 12.3775 11.8631C11.9155 11.7644 11.4459 11.6914 10.973 11.6448L10.6273 11.6155C9.54445 11.52 8.45537 11.52 7.37254 11.6155ZM10.5329 12.6971L10.5424 12.6978C11.0851 12.736 11.6246 12.8122 12.1567 12.9258C13.0316 13.1061 13.6252 13.4048 13.8131 13.8009C13.9545 14.0996 13.9545 14.4467 13.8129 14.7456C13.6374 15.1157 13.1042 15.4017 12.3336 15.5764L12.1649 15.6122C11.6222 15.7332 11.0846 15.8113 10.5434 15.8484C9.70369 15.9198 8.86895 15.9327 8.03631 15.8876L7.74111 15.8826C7.65916 15.8784 7.5901 15.8705 7.52609 15.8576C7.01928 15.8194 6.56323 15.7589 6.12044 15.6711L5.85605 15.6151C4.97852 15.4431 4.3796 15.1431 4.18541 14.7416C4.11747 14.5976 4.08117 14.4351 4.08139 14.2705C4.08078 14.1069 4.1166 13.9481 4.18612 13.8032C4.37493 13.4241 5.00963 13.0976 5.83978 12.9266C6.37579 12.8118 6.91495 12.7356 7.45744 12.6979C8.48726 12.6071 9.51303 12.6071 10.5329 12.6971Z" fill="#3F2355"/>
</svg>
