<svg width="14" height="14" viewBox="0 0 14 14" fill="none" xmlns="http://www.w3.org/2000/svg">
<path d="M6.65032 4.98838V2.65981C7.19512 2.51983 7.59893 2.02449 7.59893 1.43659C7.59893 0.740286 7.03248 0.173828 6.33618 0.173828C5.63992 0.173828 5.07346 0.740286 5.07346 1.43659C5.07346 2.02449 5.47727 2.51979 6.02204 2.65977V4.98834C5.36129 5.08778 4.80028 5.49578 4.49088 6.06048L3.10908 4.98629C3.14288 4.89117 3.16144 4.78884 3.16144 4.68229C3.16144 4.18008 2.75284 3.77149 2.25064 3.77149C1.74844 3.77149 1.33984 4.18008 1.33984 4.68229C1.33984 5.18449 1.74844 5.59308 2.25064 5.59308C2.41701 5.59308 2.57295 5.54802 2.70732 5.46982L4.26922 6.68403C4.24618 6.80847 4.23353 6.93647 4.23353 7.06749C4.23353 7.53409 4.3865 7.96551 4.64464 8.31471L2.87863 10.0807C2.75594 10.2034 2.75594 10.4023 2.87863 10.525C2.93999 10.5863 3.02041 10.617 3.10079 10.617C3.18116 10.617 3.26158 10.5863 3.32295 10.525L5.08896 8.75895C5.35824 8.95803 5.67644 9.09453 6.02204 9.14656V11.4803C5.67414 11.6086 5.42538 11.9434 5.42538 12.3352C5.42538 12.8375 5.83397 13.246 6.33618 13.246C6.83838 13.246 7.24697 12.8375 7.24697 12.3352C7.24697 11.9434 6.99821 11.6085 6.65032 11.4803V9.1466C7.66126 8.99451 8.43882 8.12015 8.43882 7.06753C8.43882 6.01483 7.66122 5.14047 6.65032 4.98838ZM2.25064 4.96485C2.09483 4.96485 1.96812 4.8381 1.96812 4.68233C1.96812 4.52656 2.09483 4.39981 2.25064 4.39981C2.40645 4.39981 2.53316 4.52656 2.53316 4.68233C2.53316 4.8381 2.40641 4.96485 2.25064 4.96485ZM5.7017 1.43659C5.7017 1.08672 5.98631 0.802109 6.33613 0.802109C6.68596 0.802109 6.97061 1.08672 6.97061 1.43659C6.97061 1.78646 6.68596 2.07107 6.33613 2.07107C5.98631 2.07107 5.7017 1.78646 5.7017 1.43659ZM6.33618 12.6178C6.18036 12.6178 6.05366 12.491 6.05366 12.3352C6.05366 12.1989 6.15071 12.0848 6.27938 12.0585C6.29781 12.0619 6.31674 12.0639 6.33618 12.0639C6.35561 12.0639 6.37454 12.0619 6.39297 12.0585C6.52164 12.0848 6.61869 12.1989 6.61869 12.3352C6.61869 12.491 6.49195 12.6178 6.33618 12.6178ZM6.33618 8.54181C5.52322 8.54181 4.86185 7.8804 4.86185 7.06745C4.86185 6.92399 4.88284 6.78539 4.92121 6.65417C4.92326 6.64767 4.92518 6.64122 4.92678 6.63465C5.11212 6.03225 5.67376 5.59308 6.33618 5.59308C7.14913 5.59308 7.81054 6.2545 7.81054 7.06745C7.81054 7.88044 7.14913 8.54181 6.33618 8.54181Z" fill="#1B70BB"/>
<path d="M12.5519 4.01562C11.8556 4.01562 11.2892 4.58209 11.2892 5.27839C11.2892 5.31085 11.2908 5.3429 11.2932 5.37473L9.02147 6.14932C8.85724 6.20528 8.76949 6.38384 8.82549 6.54803C8.87001 6.67867 8.99207 6.76089 9.12279 6.76089C9.15643 6.76089 9.1906 6.75544 9.2242 6.74401L11.4959 5.96946C11.7217 6.31343 12.1106 6.5412 12.552 6.5412C13.2482 6.5412 13.8147 5.97474 13.8147 5.27843C13.8146 4.58213 13.2482 4.01562 12.5519 4.01562ZM12.5519 5.91292C12.2021 5.91292 11.9175 5.6283 11.9175 5.27843C11.9175 4.92856 12.2021 4.64395 12.5519 4.64395C12.9018 4.64395 13.1864 4.92856 13.1864 5.27843C13.1864 5.62826 12.9018 5.91292 12.5519 5.91292Z" fill="#1B70BB"/>
<path d="M1.65339 10.4863C0.957083 10.4863 0.390625 11.0528 0.390625 11.7491C0.390625 12.4454 0.957083 13.0118 1.65339 13.0118C2.34965 13.0118 2.9161 12.4454 2.9161 11.7491C2.91615 11.0528 2.34965 10.4863 1.65339 10.4863ZM1.65339 12.3836C1.30352 12.3836 1.01891 12.099 1.01891 11.7491C1.01891 11.3993 1.30356 11.1147 1.65339 11.1147C2.00321 11.1147 2.28782 11.3993 2.28782 11.7491C2.28787 12.099 2.00325 12.3836 1.65339 12.3836Z" fill="#1B70BB"/>
</svg>
