<svg width="21" height="20" viewBox="0 0 21 20" fill="none" xmlns="http://www.w3.org/2000/svg">
<path d="M0 19.6445C0 17.6598 0.788452 15.7563 2.19191 14.3528C3.59536 12.9494 5.49885 12.1609 7.48364 12.1609C9.46842 12.1609 11.3719 12.9494 12.7754 14.3528C14.1788 15.7563 14.9673 17.6598 14.9673 19.6445H13.0964C13.0964 18.156 12.505 16.7283 11.4524 15.6758C10.3998 14.6232 8.97223 14.0318 7.48364 14.0318C5.99505 14.0318 4.56743 14.6232 3.51484 15.6758C2.46225 16.7283 1.87091 18.156 1.87091 19.6445H0ZM7.48364 11.2255C4.3826 11.2255 1.87091 8.71376 1.87091 5.61273C1.87091 2.5117 4.3826 0 7.48364 0C10.5847 0 13.0964 2.5117 13.0964 5.61273C13.0964 8.71376 10.5847 11.2255 7.48364 11.2255ZM7.48364 9.35455C9.55099 9.35455 11.2255 7.68008 11.2255 5.61273C11.2255 3.54537 9.55099 1.87091 7.48364 1.87091C5.41628 1.87091 3.74182 3.54537 3.74182 5.61273C3.74182 7.68008 5.41628 9.35455 7.48364 9.35455Z" fill="#BDBCBD"/>
<path d="M20.5798 5.61261H15.9025V7.48352H20.5798V5.61261Z" fill="#FE5600"/>
<path d="M20.5798 10.2899H14.0316V12.1608H20.5798V10.2899Z" fill="#FE5600"/>
<path d="M20.5798 14.9672H16.838V16.8381H20.5798V14.9672Z" fill="#FE5600"/>
</svg>
