<svg width="28" height="28" viewBox="0 0 28 28" fill="none" xmlns="http://www.w3.org/2000/svg">
<circle cx="13.75" cy="13.75" r="12.5" stroke="#FF5200" stroke-width="2.5"/>
<path d="M18 16.5642C17.9768 15.0843 16.8917 12.8872 14.0022 12.8872C12.3485 12.8872 12.1222 11.8968 12.1048 11.5269C12.1222 11.0658 12.3369 9.99573 13.979 9.99573C15.6849 9.99573 15.8821 11.174 15.8995 11.5382C15.917 12.1017 16.4102 12.5856 16.973 12.5343C17.5532 12.5229 18.0116 12.0505 17.9942 11.4813C17.9652 10.2462 17.1296 8.49875 15.035 8.04909L15.0524 7.04162C15.0582 6.47243 14.594 6.00569 14.0138 6H14.0022C13.4277 6 12.9578 6.45535 12.952 7.01885L12.9403 8.0434C10.8283 8.48168 10.016 10.2519 10.0044 11.5212C10.0276 12.8986 11.1126 14.9477 14.0022 14.9477C15.6326 14.9477 15.8647 16.1089 15.8995 16.5414C15.8531 16.8203 15.5862 17.8392 14.0022 17.8392C12.3949 17.8392 12.1396 16.7805 12.099 16.4674C12.0468 15.8983 11.5478 15.4884 10.9559 15.534C10.3757 15.5852 9.95213 16.0861 10.0044 16.6496C10.0914 17.6229 10.8399 19.3533 12.9461 19.7915V20.9698C12.9461 21.539 13.4161 22 13.9964 22C14.5766 22 15.0524 21.539 15.0524 20.9698V19.7915C15.8183 19.6484 16.5172 19.2683 17.0467 18.7069C17.5761 18.1456 17.9082 17.4325 17.9942 16.6724L18 16.6154V16.5642Z" fill="#FF5200"/>
</svg>
