<svg width="59" height="46" viewBox="0 0 59 46" fill="none" xmlns="http://www.w3.org/2000/svg">
<path d="M59 18.1687L4.06024 18.1687L4.06024 15.1807C4.06024 10.7624 7.64196 7.18072 12.0602 7.18072L51 7.18072C55.4183 7.18072 59 10.7624 59 15.1807L59 18.1687Z" fill="#FB5100"/>
<path d="M6.12109 16.1084H52.8199" stroke="black" stroke-width="2" stroke-linecap="round" stroke-linejoin="round"/>
<path d="M10 4.12048C5.02944 4.12048 1 8.1499 1 13.1205V35.5783C1 40.5489 5.02943 44.5783 9.99999 44.5783H48.9398C53.9103 44.5783 57.9398 40.5489 57.9398 35.5783V13.1205C57.9398 8.14991 53.9103 4.12048 48.9398 4.12048H10Z" stroke="black" stroke-width="2"/>
<circle cx="45.9538" cy="25.0361" r="2.06024" stroke="black" stroke-width="2"/>
<circle cx="45.9538" cy="34.6506" r="2.06024" stroke="black" stroke-width="2"/>
<circle cx="34.9626" cy="25.0361" r="2.06024" stroke="black" stroke-width="2"/>
<circle cx="34.9626" cy="34.6506" r="2.06024" stroke="black" stroke-width="2"/>
<circle cx="23.9772" cy="25.0361" r="2.06024" stroke="black" stroke-width="2"/>
<circle cx="23.9772" cy="34.6506" r="2.06024" stroke="black" stroke-width="2"/>
<circle cx="12.986" cy="25.0361" r="2.06024" stroke="black" stroke-width="2"/>
<circle cx="12.986" cy="34.6506" r="2.06024" stroke="black" stroke-width="2"/>
<rect x="43.2041" y="1" width="2.74699" height="6.86747" rx="1.37349" stroke="black" stroke-width="2"/>
<rect x="12.9863" y="1" width="2.74699" height="6.86747" rx="1.37349" stroke="black" stroke-width="2"/>
</svg>
