<svg width="271" height="122" viewBox="0 0 271 122" fill="none" xmlns="http://www.w3.org/2000/svg">
<g filter="url(#filter0_d)">
<rect x="23.0547" width="232.65" height="83.8006" rx="10" fill="#3F2355"/>
</g>
<path d="M63.9648 24.7988V43.872V62.9451L83.1328 43.872L63.9648 24.7988Z" fill="url(#paint0_linear)"/>
<path d="M88.283 38.7504L80.5426 34.2691L63.9648 24.6602V24.8016L83.1328 43.8747L88.283 38.7504Z" fill="url(#paint1_linear)"/>
<path d="M63.9648 62.9462V63.0842L80.5426 53.4786L88.2796 48.994L83.1328 43.873L63.9648 62.9462Z" fill="url(#paint2_linear)"/>
<path d="M88.2791 38.75L83.1289 43.8743L88.2757 48.9953L97.1199 43.8743L88.2791 38.75Z" fill="url(#paint3_linear)"/>
<path d="M184.64 51.3278C183.918 51.3278 183.264 51.1932 182.667 50.9272C182.073 50.6612 181.573 50.2504 181.167 49.6983H181.05C181.13 50.3447 181.17 50.9608 181.17 51.5399V56.1054H179.496V40.0321H180.858L181.09 41.5505H181.17C181.6 40.9445 182.103 40.5035 182.673 40.2341C183.244 39.9648 183.901 39.8301 184.64 39.8301C186.106 39.8301 187.236 40.3317 188.035 41.3384C188.833 42.3451 189.229 43.7558 189.229 45.5705C189.229 47.392 188.823 48.8094 188.015 49.8161C187.203 50.8262 186.079 51.3278 184.64 51.3278ZM184.398 41.2576C183.267 41.2576 182.452 41.5707 181.949 42.2003C181.445 42.8266 181.184 43.8265 181.17 45.1968V45.5705C181.17 47.1294 181.429 48.2438 181.949 48.9172C182.465 49.5872 183.297 49.9239 184.438 49.9239C185.394 49.9239 186.143 49.5367 186.683 48.7589C187.223 47.9846 187.495 46.9139 187.495 45.5503C187.495 44.1666 187.223 43.106 186.683 42.3653C186.143 41.628 185.378 41.2576 184.398 41.2576Z" fill="#F9F9F9"/>
<path d="M193.104 51.1251H191.43V35.375H193.104V51.1251Z" fill="#F9F9F9"/>
<path d="M202.732 51.1257L202.4 49.5466H202.319C201.769 50.2436 201.219 50.7116 200.668 50.9574C200.121 51.2031 199.437 51.3277 198.615 51.3277C197.518 51.3277 196.659 51.0449 196.038 50.4759C195.417 49.9103 195.105 49.1022 195.105 48.0585C195.105 45.8196 196.89 44.6445 200.46 44.5368L202.336 44.4762V43.7894C202.336 42.9173 202.148 42.2743 201.776 41.8602C201.403 41.446 200.806 41.2373 199.984 41.2373C199.061 41.2373 198.021 41.5201 196.857 42.0891L196.344 40.803C196.89 40.5067 197.484 40.2744 198.135 40.106C198.783 39.9377 199.434 39.8535 200.088 39.8535C201.406 39.8535 202.383 40.1464 203.017 40.7356C203.651 41.3215 203.97 42.2642 203.97 43.5604V51.1324H202.732V51.1257ZM198.947 49.9439C199.991 49.9439 200.806 49.6578 201.403 49.0854C201.997 48.513 202.296 47.7084 202.296 46.6747V45.6714L200.621 45.7421C199.289 45.7892 198.33 45.998 197.743 46.365C197.155 46.732 196.86 47.3043 196.86 48.0821C196.86 48.6881 197.041 49.1527 197.41 49.4692C197.776 49.7857 198.289 49.9439 198.947 49.9439Z" fill="#F9F9F9"/>
<path d="M204.945 40.0293H206.74L209.163 46.3556C209.693 47.8 210.025 48.8437 210.153 49.4834H210.233C210.32 49.14 210.505 48.5508 210.783 47.7158C211.062 46.8808 211.974 44.322 213.521 40.0293H215.316L210.565 52.6617C210.095 53.9108 209.545 54.7963 208.914 55.3181C208.287 55.84 207.515 56.1026 206.599 56.1026C206.089 56.1026 205.583 56.0454 205.086 55.9309V54.5841C205.455 54.6649 205.871 54.7053 206.328 54.7053C207.478 54.7053 208.297 54.0589 208.79 52.7627L209.404 51.1836L204.945 40.0293Z" fill="#F9F9F9"/>
<path d="M153.63 41.0635C154.16 41.5045 155.271 42.4338 155.271 44.198C155.271 45.9151 154.301 46.7265 153.328 47.4942C153.026 47.7938 152.68 48.1204 152.68 48.6321C152.68 49.1405 153.026 49.42 153.281 49.6287L154.113 50.2785C155.13 51.1371 156.056 51.9283 156.056 53.5275C156.056 55.7092 153.952 57.9112 149.976 57.9112C146.621 57.9112 145.004 56.3119 145.004 54.5914C145.004 53.7565 145.42 52.5747 146.785 51.7599C148.218 50.8778 150.161 50.7634 151.201 50.6927C150.875 50.2752 150.506 49.8341 150.506 49.117C150.506 48.7231 150.624 48.4907 150.738 48.2113C150.483 48.2349 150.228 48.2584 149.996 48.2584C147.547 48.2584 146.158 46.4235 146.158 44.6155C146.158 43.5482 146.645 42.3631 147.638 41.5045C148.956 40.4137 150.53 40.2285 151.778 40.2285H156.539L155.059 41.0635H153.63ZM151.989 51.3694C151.805 51.3458 151.687 51.3458 151.459 51.3458C151.251 51.3458 150 51.393 149.03 51.7195C148.52 51.9047 147.04 52.4602 147.04 54.11C147.04 55.7564 148.638 56.9415 151.11 56.9415C153.328 56.9415 154.509 55.8708 154.509 54.4332C154.509 53.2447 153.744 52.6219 151.989 51.3694ZM152.66 46.9588C153.19 46.4235 153.237 45.6828 153.237 45.2653C153.237 43.5954 152.244 40.9962 150.325 40.9962C149.725 40.9962 149.077 41.2958 148.705 41.7638C148.312 42.252 148.195 42.8782 148.195 43.4809C148.195 45.0364 149.097 47.612 151.087 47.612C151.664 47.6086 152.288 47.3292 152.66 46.9588Z" fill="#F9F9F9"/>
<path d="M139.067 50.9975C135.396 50.9975 133.434 48.1256 133.434 45.5297C133.434 42.4962 135.903 39.9004 139.412 39.9004C142.805 39.9004 144.928 42.5636 144.928 45.3681C144.932 48.102 142.831 50.9975 139.067 50.9975ZM141.952 49.1222C142.506 48.3815 142.647 47.4522 142.647 46.5499C142.647 44.5096 141.677 40.6175 138.815 40.6175C138.054 40.6175 137.292 40.9205 136.738 41.4054C135.839 42.2168 135.675 43.2336 135.675 44.2335C135.675 46.5263 136.806 50.3006 139.6 50.3006C140.5 50.3039 141.422 49.8629 141.952 49.1222Z" fill="#F9F9F9"/>
<path d="M126.555 50.9975C122.885 50.9975 120.922 48.1256 120.922 45.5297C120.922 42.4962 123.391 39.9004 126.901 39.9004C130.293 39.9004 132.417 42.5636 132.417 45.3681C132.417 48.102 130.316 50.9975 126.555 50.9975ZM129.441 49.1222C129.994 48.3815 130.135 47.4522 130.135 46.5499C130.135 44.5096 129.165 40.6175 126.304 40.6175C125.542 40.6175 124.78 40.9205 124.227 41.4054C123.328 42.2168 123.163 43.2336 123.163 44.2335C123.163 46.5263 124.294 50.3006 127.089 50.3006C127.984 50.3039 128.91 49.8629 129.441 49.1222Z" fill="#F9F9F9"/>
<path d="M119.159 50.6353L115.84 51.4029C114.495 51.6117 113.287 51.7968 112.012 51.7968C105.604 51.7968 103.168 47.0698 103.168 43.3663C103.168 38.848 106.627 34.6562 112.546 34.6562C113.8 34.6562 115.005 34.8414 116.095 35.1444C117.837 35.6326 118.649 36.2387 119.159 36.5888L117.233 38.4271L116.421 38.6123L117.001 37.6797C116.213 36.912 114.773 35.4912 112.036 35.4912C108.368 35.4912 105.607 38.2857 105.607 42.3629C105.607 46.7398 108.764 50.8642 113.824 50.8642C115.31 50.8642 116.075 50.5612 116.773 50.2818V46.5311L113.27 46.7163L115.126 45.7129H120.048L119.444 46.2954C119.279 46.4368 119.259 46.484 119.212 46.6691C119.189 46.8779 119.165 47.5546 119.165 47.7869V50.6353H119.159Z" fill="#F9F9F9"/>
<path d="M160.964 49.9628C160.199 49.8921 160.038 49.7541 160.038 48.845V48.5891V35.6638C160.041 35.6133 160.045 35.5628 160.051 35.5123C160.145 34.6976 160.377 34.5562 161.098 34.1387H157.776L156.035 34.977H157.81V34.9871V34.977V48.5858V49.3568C157.81 49.8214 157.719 49.8921 157.183 50.589H161.293L162.152 50.0773C161.752 50.0335 161.356 50.0099 160.964 49.9628Z" fill="#F9F9F9"/>
<path d="M170.407 50.179C170.156 50.3171 169.901 50.482 169.649 50.5965C168.888 50.9433 168.102 51.0376 167.411 51.0376C166.677 51.0376 165.522 50.9904 164.345 50.1352C162.711 48.9771 161.996 46.9873 161.996 45.2533C161.996 41.6676 164.902 39.9102 167.274 39.9102C168.102 39.9102 168.958 40.1189 169.649 40.5566C170.8 41.3175 171.102 42.3141 171.26 42.846L165.844 45.0446L164.07 45.1826C164.643 48.1185 166.626 49.8289 168.817 49.8289C169.991 49.8289 170.847 49.4147 171.629 49.0208L170.407 50.179ZM168.243 43.2837C168.68 43.1221 168.911 42.9841 168.911 42.6609C168.911 41.735 167.874 40.6711 166.63 40.6711C165.707 40.6711 163.979 41.3882 163.979 43.8864C163.979 44.2803 164.026 44.6944 164.049 45.1119L168.243 43.2837Z" fill="#F9F9F9"/>
<path d="M172.633 40.0684V41.5936H172.449V40.0684H171.945V39.9102H173.136V40.0684H172.633Z" fill="#F9F9F9"/>
<path d="M174.705 41.5936V40.0516H174.695L174.225 41.5936H174.081L173.608 40.0516H173.601V41.5936H173.434V39.9102H173.722L174.148 41.2704H174.155L174.574 39.9102H174.866V41.5936H174.705Z" fill="#F9F9F9"/>
<path d="M107.777 30.1184H106.623C106.623 29.9602 106.512 29.509 106.294 28.7649H104.63C104.405 29.4955 104.291 29.9467 104.291 30.1184H103.207C103.207 30.0241 103.489 29.2531 104.049 27.802C104.609 26.3543 104.891 25.5563 104.891 25.4082H106.254C106.254 25.5462 106.508 26.3307 107.015 27.7684C107.522 29.206 107.777 29.9871 107.777 30.1184ZM106.109 28.0747C105.7 26.829 105.492 26.159 105.492 26.058H105.435C105.435 26.1523 105.223 26.8256 104.797 28.0747H106.109Z" fill="#F9F9FA"/>
<path d="M112.424 30.1184H111.535C111.535 30.0208 111.206 29.4989 110.545 28.5528C109.854 27.5562 109.458 26.8761 109.364 26.5092H109.307C109.368 27.0377 109.398 27.5158 109.398 27.9401C109.398 28.536 109.415 29.2599 109.448 30.1184H108.562C108.599 29.371 108.616 28.5495 108.616 27.6539C108.616 26.7751 108.599 26.0243 108.562 25.4082H109.633C109.633 25.5361 109.928 26.0445 110.522 26.9367C111.153 27.8828 111.515 28.5259 111.609 28.8659H111.663C111.606 28.3272 111.575 27.8458 111.575 27.4182C111.575 26.765 111.559 26.095 111.525 25.4082H112.428C112.394 26.0075 112.377 26.7549 112.377 27.6539C112.374 28.5629 112.391 29.3811 112.424 30.1184Z" fill="#F9F9FA"/>
<path d="M117.645 27.6026C117.645 28.2861 117.427 28.8854 116.988 29.3972C116.552 29.9089 115.938 30.1648 115.149 30.1648C114.794 30.1648 114.304 30.1513 113.68 30.121C113.71 29.3938 113.727 28.5723 113.727 27.6565C113.727 26.7778 113.71 26.0303 113.68 25.4108H114.31C114.414 25.4108 114.569 25.4075 114.773 25.4007C114.978 25.394 115.112 25.3906 115.173 25.3906C116.038 25.3906 116.669 25.6061 117.058 26.0404C117.448 26.4747 117.645 26.9966 117.645 27.6026ZM116.659 27.7575C116.659 27.2929 116.525 26.9057 116.256 26.5859C115.988 26.2694 115.575 26.1111 115.025 26.1111C114.921 26.1111 114.78 26.1212 114.599 26.1448C114.622 26.6263 114.636 27.1313 114.636 27.6565C114.636 28.2322 114.649 28.8046 114.673 29.3702C114.831 29.4005 114.985 29.4174 115.143 29.4174C115.659 29.4174 116.042 29.2558 116.29 28.9359C116.535 28.6127 116.659 28.2221 116.659 27.7575Z" fill="#F9F9FA"/>
<path d="M122.462 30.1177H121.395C121.117 29.2625 120.902 28.7373 120.754 28.5386C120.607 28.34 120.365 28.239 120.033 28.239C119.892 28.239 119.761 28.239 119.634 28.2423C119.634 28.8618 119.644 29.4881 119.667 30.121H118.664C118.694 29.3938 118.711 28.5723 118.711 27.6565C118.711 26.7778 118.694 26.0303 118.664 25.4108H119.288C119.359 25.4108 119.51 25.4075 119.741 25.4007C119.969 25.394 120.184 25.3906 120.379 25.3906C121.482 25.3906 122.033 25.7677 122.033 26.5252C122.033 27.1245 121.717 27.5454 121.09 27.7811V27.8349C121.331 27.9023 121.546 28.0908 121.727 28.4039C121.905 28.7137 122.153 29.2861 122.462 30.1177ZM121.11 26.7912C121.11 26.3131 120.801 26.0707 120.187 26.0707C119.963 26.0707 119.761 26.0876 119.59 26.1212C119.617 26.4949 119.63 26.9831 119.63 27.5824C119.761 27.5858 119.875 27.5892 119.966 27.5892C120.731 27.5892 121.11 27.3232 121.11 26.7912Z" fill="#F9F9FA"/>
<path d="M127.625 27.6783C127.625 28.419 127.4 29.0318 126.947 29.52C126.494 30.0082 125.937 30.2506 125.27 30.2506C124.636 30.2506 124.105 30.0284 123.676 29.5806C123.25 29.1328 123.035 28.5638 123.035 27.877C123.035 27.1362 123.26 26.5235 123.713 26.0353C124.166 25.5471 124.723 25.3047 125.39 25.3047C126.025 25.3047 126.555 25.5269 126.984 25.9747C127.41 26.4157 127.625 26.9847 127.625 27.6783ZM126.632 27.7827C126.632 27.2777 126.504 26.8703 126.246 26.5572C125.988 26.244 125.672 26.0858 125.293 26.0858C124.941 26.0858 124.646 26.244 124.401 26.5605C124.156 26.877 124.032 27.2743 124.032 27.7591C124.032 28.2608 124.159 28.6682 124.417 28.9846C124.676 29.2978 124.991 29.456 125.367 29.456C125.719 29.456 126.015 29.2978 126.259 28.9813C126.508 28.6614 126.632 28.2608 126.632 27.7827Z" fill="#F9F9FA"/>
<path d="M129.668 30.1184H128.648C128.679 29.371 128.695 28.5495 128.695 27.6539C128.695 26.7751 128.679 26.0243 128.648 25.4082H129.668C129.638 26.0142 129.621 26.765 129.621 27.6539C129.621 28.5629 129.635 29.3844 129.668 30.1184Z" fill="#F9F9FA"/>
<path d="M134.895 27.6026C134.895 28.2861 134.677 28.8854 134.238 29.3972C133.802 29.9089 133.188 30.1648 132.399 30.1648C132.044 30.1648 131.554 30.1513 130.93 30.121C130.96 29.3938 130.977 28.5723 130.977 27.6565C130.977 26.7778 130.96 26.0303 130.93 25.4108H131.56C131.664 25.4108 131.819 25.4075 132.023 25.4007C132.228 25.394 132.362 25.3906 132.423 25.3906C133.288 25.3906 133.919 25.6061 134.308 26.0404C134.698 26.4747 134.895 26.9966 134.895 27.6026ZM133.909 27.7575C133.909 27.2929 133.775 26.9057 133.506 26.5859C133.238 26.2694 132.825 26.1111 132.275 26.1111C132.171 26.1111 132.03 26.1212 131.849 26.1448C131.872 26.6263 131.886 27.1313 131.886 27.6565C131.886 28.2322 131.899 28.8046 131.923 29.3702C132.081 29.4005 132.235 29.4174 132.393 29.4174C132.909 29.4174 133.292 29.2558 133.54 28.9359C133.785 28.6127 133.909 28.2221 133.909 27.7575Z" fill="#F9F9FA"/>
<path d="M141.82 30.1184H140.666C140.666 29.9602 140.555 29.509 140.337 28.7649H138.673C138.448 29.4955 138.334 29.9467 138.334 30.1184H137.25C137.25 30.0241 137.532 29.2531 138.092 27.802C138.652 26.3543 138.934 25.5563 138.934 25.4082H140.296C140.296 25.5462 140.551 26.3307 141.058 27.7684C141.565 29.206 141.82 29.9871 141.82 30.1184ZM140.156 28.0747C139.746 26.829 139.538 26.159 139.538 26.058H139.481C139.481 26.1523 139.27 26.8256 138.844 28.0747H140.156Z" fill="#F9F9FA"/>
<path d="M146.031 26.6465C146.031 27.2222 145.816 27.6498 145.39 27.9225C144.964 28.1986 144.441 28.3332 143.82 28.3332C143.706 28.3332 143.625 28.3299 143.578 28.3265C143.578 28.781 143.592 29.377 143.619 30.121H142.605C142.636 29.4241 142.652 28.6026 142.652 27.6565C142.652 26.7879 142.636 26.0404 142.605 25.4108H143.233C143.32 25.4108 143.491 25.4075 143.746 25.4007C143.998 25.394 144.216 25.3906 144.404 25.3906C144.86 25.3906 145.246 25.495 145.561 25.7004C145.873 25.9091 146.031 26.2222 146.031 26.6465ZM145.102 26.8451C145.102 26.33 144.759 26.0707 144.078 26.0707C143.907 26.0707 143.726 26.0876 143.538 26.1246C143.565 26.5791 143.578 27.0976 143.578 27.6733C143.639 27.6767 143.709 27.6801 143.786 27.6801C144.662 27.6801 145.102 27.4006 145.102 26.8451Z" fill="#F9F9FA"/>
<path d="M150.347 26.6465C150.347 27.2222 150.133 27.6498 149.707 27.9225C149.281 28.1986 148.757 28.3332 148.136 28.3332C148.022 28.3332 147.942 28.3299 147.895 28.3265C147.895 28.781 147.908 29.377 147.935 30.121H146.922C146.952 29.4241 146.969 28.6026 146.969 27.6565C146.969 26.7879 146.952 26.0404 146.922 25.4108H147.549C147.637 25.4108 147.808 25.4075 148.063 25.4007C148.314 25.394 148.532 25.3906 148.72 25.3906C149.177 25.3906 149.562 25.495 149.878 25.7004C150.193 25.9058 150.347 26.2222 150.347 26.6465ZM149.415 26.8451C149.415 26.33 149.073 26.0707 148.391 26.0707C148.22 26.0707 148.039 26.0876 147.851 26.1246C147.878 26.5791 147.892 27.0976 147.892 27.6733C147.952 27.6767 148.022 27.6801 148.1 27.6801C148.979 27.6801 149.415 27.4006 149.415 26.8451Z" fill="#F9F9FA"/>
<path d="M157.414 27.6783C157.414 28.419 157.189 29.0318 156.736 29.52C156.283 30.0082 155.726 30.2506 155.059 30.2506C154.425 30.2506 153.895 30.0284 153.465 29.5806C153.039 29.1328 152.824 28.5638 152.824 27.877C152.824 27.1362 153.049 26.5235 153.502 26.0353C153.955 25.5471 154.512 25.3047 155.18 25.3047C155.814 25.3047 156.344 25.5269 156.773 25.9747C157.199 26.4157 157.414 26.9847 157.414 27.6783ZM156.418 27.7827C156.418 27.2777 156.29 26.8703 156.032 26.5572C155.773 26.244 155.458 26.0858 155.079 26.0858C154.727 26.0858 154.431 26.244 154.186 26.5605C153.941 26.877 153.817 27.2743 153.817 27.7591C153.817 28.2608 153.945 28.6682 154.207 28.9846C154.465 29.2978 154.78 29.456 155.156 29.456C155.508 29.456 155.804 29.2978 156.049 28.9813C156.297 28.6614 156.418 28.2608 156.418 27.7827Z" fill="#F9F9FA"/>
<path d="M162.299 30.1184H161.41C161.41 30.0208 161.081 29.4989 160.42 28.5528C159.729 27.5562 159.333 26.8761 159.239 26.5092H159.182C159.243 27.0377 159.273 27.5158 159.273 27.9401C159.273 28.536 159.29 29.2599 159.323 30.1184H158.438C158.474 29.371 158.491 28.5495 158.491 27.6539C158.491 26.7751 158.474 26.0243 158.438 25.4082H159.508C159.508 25.5361 159.803 26.0445 160.397 26.9367C161.028 27.8828 161.39 28.5259 161.484 28.8659H161.538C161.481 28.3272 161.45 27.8458 161.45 27.4182C161.45 26.765 161.434 26.095 161.4 25.4082H162.303C162.269 26.0075 162.252 26.7549 162.252 27.6539C162.249 28.5629 162.266 29.3811 162.299 30.1184Z" fill="#F9F9FA"/>
<defs>
<filter id="filter0_d" x="0.732422" y="0" width="269.597" height="121.518" filterUnits="userSpaceOnUse" color-interpolation-filters="sRGB">
<feFlood flood-opacity="0" result="BackgroundImageFix"/>
<feColorMatrix in="SourceAlpha" type="matrix" values="0 0 0 0 0 0 0 0 0 0 0 0 0 0 0 0 0 0 127 0"/>
<feOffset dx="-3.84867" dy="19.2433"/>
<feGaussianBlur stdDeviation="9.2368"/>
<feColorMatrix type="matrix" values="0 0 0 0 0 0 0 0 0 0 0 0 0 0 0 0 0 0 0.04 0"/>
<feBlend mode="normal" in2="BackgroundImageFix" result="effect1_dropShadow"/>
<feBlend mode="normal" in="SourceGraphic" in2="effect1_dropShadow" result="shape"/>
</filter>
<linearGradient id="paint0_linear" x1="73.5481" y1="24.7972" x2="73.5481" y2="62.9444" gradientUnits="userSpaceOnUse">
<stop stop-color="#257CB0"/>
<stop offset="0.2863" stop-color="#4A93B5"/>
<stop offset="0.767" stop-color="#78BCBB"/>
<stop offset="1" stop-color="#89CFBD"/>
</linearGradient>
<linearGradient id="paint1_linear" x1="63.9635" y1="34.2675" x2="88.2814" y2="34.2675" gradientUnits="userSpaceOnUse">
<stop stop-color="#52C1AD"/>
<stop offset="1" stop-color="#DEE89A"/>
</linearGradient>
<linearGradient id="paint2_linear" x1="76.1223" y1="43.8722" x2="76.1223" y2="63.0842" gradientUnits="userSpaceOnUse">
<stop stop-color="#EC413D"/>
<stop offset="0.1668" stop-color="#DA4452"/>
<stop offset="0.5748" stop-color="#B0487A"/>
<stop offset="0.8619" stop-color="#954A92"/>
<stop offset="1" stop-color="#8A4A9D"/>
</linearGradient>
<linearGradient id="paint3_linear" x1="90.1245" y1="38.7502" x2="90.1245" y2="48.9961" gradientUnits="userSpaceOnUse">
<stop stop-color="#F58879"/>
<stop offset="0.1194" stop-color="#F69079"/>
<stop offset="0.7128" stop-color="#FCB877"/>
<stop offset="1" stop-color="#FEC874"/>
</linearGradient>
</defs>
</svg>
