<svg width="24" height="24" viewBox="0 0 24 24" fill="none" xmlns="http://www.w3.org/2000/svg">
<circle cx="11.915" cy="11.915" r="10.865" stroke="#FB5100" stroke-width="2.1"/>
<path d="M16.676 10.2412L16.7758 10.6108H17.1587H17.3946C17.5866 10.6108 17.6974 10.7523 17.6974 10.8731V10.8731V14.8673C17.6974 14.9881 17.5865 15.1296 17.3946 15.1296H16.5916H16.0916V15.6296V16.2795C16.0916 16.4003 15.9807 16.5418 15.7888 16.5418C15.5969 16.5418 15.486 16.4003 15.486 16.2795V15.6296V15.1296H14.986H8.41062H7.91062V15.6296V16.2795C7.91062 16.4003 7.79971 16.5418 7.60779 16.5418C7.41588 16.5418 7.30497 16.4003 7.30497 16.2795V15.6296V15.1296H6.80497H6.00204C5.81013 15.1296 5.69922 14.9881 5.69922 14.8673V10.8731C5.69922 10.7523 5.81013 10.6108 6.00204 10.6108H6.23802H6.62086L6.72071 10.2412L7.42473 7.63544C7.42473 7.63544 7.42473 7.63543 7.42473 7.63542C7.45291 7.53119 7.56332 7.43213 7.71965 7.43213H15.677C15.8334 7.43213 15.9438 7.5312 15.9719 7.63542L16.4456 7.50744L15.9719 7.63542L16.676 10.2412ZM8.34254 7.95683H7.95971L7.85985 8.32641L7.41294 9.98035L7.2426 10.6108H7.89563H15.501H16.1541L15.9837 9.98035L15.5368 8.32641L15.437 7.95683H15.0541H8.34254ZM16.5918 14.6049H17.0918V14.1049V11.6355V11.1355H16.5918H16.5358H6.86085H6.80486H6.30486V11.6355V14.1049V14.6049H6.80486H16.5918Z" fill="#644E77" stroke="#FB5100"/>
<path d="M8.30948 12.7094C8.30948 12.8321 8.21003 12.9315 8.08736 12.9315C7.96468 12.9315 7.86523 12.8321 7.86523 12.7094C7.86523 12.5868 7.96468 12.4873 8.08736 12.4873C8.21003 12.4873 8.30948 12.5868 8.30948 12.7094Z" fill="#644E77" stroke="#FB5100"/>
<path d="M15.5302 12.7094C15.5302 12.8321 15.4307 12.9315 15.3081 12.9315C15.1854 12.9315 15.0859 12.8321 15.0859 12.7094C15.0859 12.5868 15.1854 12.4873 15.3081 12.4873C15.4307 12.4873 15.5302 12.5868 15.5302 12.7094Z" fill="#644E77" stroke="#FB5100"/>
</svg>
