<svg width="24" height="24" viewBox="0 0 24 24" fill="none" xmlns="http://www.w3.org/2000/svg">
<path fill-rule="evenodd" clip-rule="evenodd" d="M8.9001 1.99998C8.9001 1.50292 8.49715 1.09998 8.0001 1.09998C7.50304 1.09998 7.1001 1.50292 7.1001 1.99998V3.09998H6.0001C3.84619 3.09998 2.1001 4.84607 2.1001 6.99998V17C2.1001 19.1539 3.84619 20.9 6.0001 20.9H18.0001C20.154 20.9 21.9001 19.1539 21.9001 17V6.99998C21.9001 4.84606 20.154 3.09998 18.0001 3.09998H16.9001V1.99998C16.9001 1.50292 16.4972 1.09998 16.0001 1.09998C15.503 1.09998 15.1001 1.50292 15.1001 1.99998V3.09998H8.9001V1.99998ZM15.1001 5.99998V4.89998H8.9001V5.99998C8.9001 6.49703 8.49715 6.89998 8.0001 6.89998C7.50304 6.89998 7.1001 6.49703 7.1001 5.99998V4.89998H6.0001C4.8403 4.89998 3.9001 5.84018 3.9001 6.99998V8.09998H20.1001V6.99998C20.1001 5.84018 19.1599 4.89998 18.0001 4.89998H16.9001V5.99998C16.9001 6.49703 16.4972 6.89998 16.0001 6.89998C15.503 6.89998 15.1001 6.49703 15.1001 5.99998ZM20.1001 9.89997H3.9001V17C3.9001 18.1598 4.8403 19.1 6.0001 19.1H18.0001C19.1599 19.1 20.1001 18.1598 20.1001 17V9.89997ZM7.5001 13.5C8.05238 13.5 8.5001 13.0523 8.5001 12.5C8.5001 11.9477 8.05238 11.5 7.5001 11.5C6.94781 11.5 6.5001 11.9477 6.5001 12.5C6.5001 13.0523 6.94781 13.5 7.5001 13.5ZM13.0001 12.5C13.0001 13.0523 12.5524 13.5 12.0001 13.5C11.4478 13.5 11.0001 13.0523 11.0001 12.5C11.0001 11.9477 11.4478 11.5 12.0001 11.5C12.5524 11.5 13.0001 11.9477 13.0001 12.5ZM16.5001 13.5C17.0524 13.5 17.5001 13.0523 17.5001 12.5C17.5001 11.9477 17.0524 11.5 16.5001 11.5C15.9478 11.5 15.5001 11.9477 15.5001 12.5C15.5001 13.0523 15.9478 13.5 16.5001 13.5ZM8.5001 16C8.5001 16.5523 8.05238 17 7.5001 17C6.94781 17 6.5001 16.5523 6.5001 16C6.5001 15.4477 6.94781 15 7.5001 15C8.05238 15 8.5001 15.4477 8.5001 16ZM12.0001 17C12.5524 17 13.0001 16.5523 13.0001 16C13.0001 15.4477 12.5524 15 12.0001 15C11.4478 15 11.0001 15.4477 11.0001 16C11.0001 16.5523 11.4478 17 12.0001 17ZM17.5001 16C17.5001 16.5523 17.0524 17 16.5001 17C15.9478 17 15.5001 16.5523 15.5001 16C15.5001 15.4477 15.9478 15 16.5001 15C17.0524 15 17.5001 15.4477 17.5001 16Z" fill="#D1D3D6"/>
</svg>
