<svg width="860" height="684" viewBox="0 0 860 684" fill="none" xmlns="http://www.w3.org/2000/svg">
<mask id="mask0" mask-type="alpha" maskUnits="userSpaceOnUse" x="32" y="0" width="1168" height="826">
<path d="M1199.18 224.074C1213.25 532.875 557.857 985.245 264.289 769.867C-29.2778 554.489 -13.4608 215.106 143.393 117.561C300.246 20.0163 490.298 213.145 678.817 96.6534C867.335 -19.8378 1185.11 -84.7283 1199.18 224.074Z" fill="white"/>
</mask>
<g mask="url(#mask0)">
<path d="M1188.78 245.207C1202.36 543.167 569.89 979.654 286.588 771.838C3.28529 564.021 18.5493 236.554 169.918 142.434C321.287 48.3135 504.693 234.661 686.62 122.26C868.547 9.8587 1175.21 -52.7535 1188.78 245.207Z" fill="#EDFCFF"/>
<path fill-rule="evenodd" clip-rule="evenodd" d="M-18.9828 481.195C131.445 350.961 264.074 311.559 378.903 362.988C551.148 440.132 625.403 583.007 1021.47 599.524C466.345 660.804 131.325 684.369 16.4083 670.22C-98.5084 656.072 -110.305 593.063 -18.9828 481.195Z" fill="#C5EEF6"/>
<path fill-rule="evenodd" clip-rule="evenodd" d="M175.804 715.513C510.886 414.205 774.524 307.059 966.719 394.073C1255.01 524.595 1424.19 617.511 1424.19 617.511C1424.19 617.511 472.062 913.518 452.011 898.582C438.644 888.625 346.575 827.601 175.804 715.513Z" fill="#D8F2F7"/>
<path d="M1245 572.814H-60.8862V1123.47H1245V572.814Z" fill="#AED9E0"/>
<path fill-rule="evenodd" clip-rule="evenodd" d="M168.39 238.143C143.968 305.794 117.965 286.741 117.965 335.425C117.965 384.108 100.272 375.004 100.272 407.199C100.272 439.395 121.57 456.782 132.236 480.807C142.902 504.832 152.504 553.221 173.204 542.776C193.903 532.33 245.727 469.427 215.612 417.751C185.498 366.075 192.251 348.847 210.35 307.689C228.45 266.53 192.813 170.492 168.39 238.143Z" fill="#ABD6C8"/>
<path d="M174.983 298.207C158.381 338.838 154.231 382.675 162.532 429.72C170.832 476.764 170.832 542.145 162.532 625.863" stroke="#32353F"/>
<path d="M164.765 444.584L134.159 416.414" stroke="#32353F"/>
<path d="M158.381 373.92L177.76 356.496" stroke="#32353F"/>
<path d="M168.511 498.103L192.446 473.566" stroke="#32353F"/>
<path fill-rule="evenodd" clip-rule="evenodd" d="M849.408 248.499C824.986 316.15 798.983 297.097 798.983 345.78C798.983 394.463 781.29 385.359 781.29 417.555C781.29 449.751 802.588 467.137 813.254 491.162C823.92 515.187 833.522 563.577 854.222 553.131C874.921 542.686 926.745 479.783 896.63 428.106C866.516 376.43 873.269 359.202 891.368 318.044C909.468 276.886 873.831 180.848 849.408 248.499Z" fill="#ABD6C8"/>
<path d="M855.999 308.566C839.398 349.197 835.248 393.034 843.548 440.079C851.849 487.123 851.849 552.505 843.548 636.222" stroke="#32353F"/>
<path d="M845.783 454.938L815.176 426.768" stroke="#32353F"/>
<path d="M839.398 384.276L858.777 366.852" stroke="#32353F"/>
<path d="M849.529 508.46L873.463 483.924" stroke="#32353F"/>
<path fill-rule="evenodd" clip-rule="evenodd" d="M291.14 393.056C277.554 394.009 258.179 411.192 258.179 439.849C258.179 468.505 247.003 482.022 245.64 491.462C244.276 500.903 247.991 509.492 261.341 523.134C274.69 536.777 268.697 555.325 281.1 559.112C285.57 560.476 293.041 552.795 293.041 539.234C293.041 525.673 323.911 494.299 314.917 479.935C310.32 472.593 299.817 465.368 297.571 457.476C294.475 446.596 306.667 430.189 308.68 411.192C310.704 392.086 298.344 392.551 291.14 393.056Z" fill="#EDFCFF"/>
<path d="M285.569 411.195C276.272 433.948 273.948 458.497 278.597 484.842C283.245 511.187 283.245 547.801 278.597 594.683" stroke="#32353F" stroke-width="0.8"/>
<path d="M279.846 493.164L262.707 477.389" stroke="#32353F" stroke-width="0.8"/>
<path d="M276.272 453.592L287.125 443.834" stroke="#32353F" stroke-width="0.8"/>
<path d="M281.944 523.135L295.348 509.395" stroke="#32353F" stroke-width="0.8"/>
<path fill-rule="evenodd" clip-rule="evenodd" d="M89.5552 588.859C100.455 570.547 116.491 563.211 137.664 566.851C158.837 570.49 168.51 581.2 166.685 598.979C191.158 581.467 208.327 585.547 218.193 611.219C229.583 594.459 243.96 587.005 261.324 588.859C305.845 593.612 299.499 623.316 299.499 628.618C335.682 619.816 354.658 635.011 356.429 674.204C413.301 691.354 424.356 724.044 389.596 772.273C433.856 775.877 456.282 794.074 456.876 826.863C457.47 859.651 386.621 855.187 244.329 813.471L89.5552 588.859Z" fill="#81C4D1"/>
<path fill-rule="evenodd" clip-rule="evenodd" d="M134.158 657.928C141.104 638.208 152.554 631.834 168.511 638.804C178.104 628.723 188.706 628.745 200.319 638.869C217.739 654.055 196.931 671.675 196.931 671.675C212.774 667.235 222.976 670.026 227.536 680.048C233.447 670.972 241.491 668.513 251.67 672.669C271.276 659.686 282.687 665.47 285.905 690.02C328.426 686.562 339.003 700.863 317.637 732.922C293.829 786.741 334.204 799.327 275.967 795.343C237.143 792.686 189.873 746.882 134.158 657.928Z" fill="#EDFCFF"/>
<path fill-rule="evenodd" clip-rule="evenodd" d="M983.274 598.976C976.408 582.921 967.187 575.112 955.61 575.55C938.245 576.207 941.583 598.976 941.583 598.976C938.58 591.345 932.499 588.184 923.341 589.492C917.439 573.244 906.307 569.267 889.943 577.564C877.502 586.562 873.701 598.462 878.543 613.263C864.39 619.058 859.704 628.107 864.482 640.411C851.591 630.082 836.17 629.213 818.218 637.805C811.955 617.734 799.817 610.579 781.805 616.342C754.787 624.985 773.529 655.707 773.529 655.707C755.32 653.387 744.221 659.65 740.233 674.496C727.023 666.282 715.719 665.442 706.324 671.977C692.23 681.779 683.361 709.285 713.4 729.68C694.387 742.936 697.123 756.162 721.607 769.358C758.333 789.151 983.274 598.976 983.274 598.976Z" fill="#EDFCFF"/>
<path fill-rule="evenodd" clip-rule="evenodd" d="M865.317 673.117C808.636 646.409 777.524 648.666 771.979 679.886C758.406 675.107 748.607 672.851 742.583 673.117C719.887 674.118 712.016 692.106 713.539 704.332C691.898 693.47 678.566 695.311 673.542 709.856C662.864 697.476 651.867 696.234 640.551 706.129C623.576 720.972 638.511 743.423 652.19 746.869C643.29 763.833 645.364 779.507 658.411 793.889C637.254 812.216 633.658 831.114 647.622 850.582C661.587 870.049 743.933 817.393 894.659 692.613L865.317 673.117Z" fill="#83C4D0"/>
</g>
<mask id="mask1" mask-type="alpha" maskUnits="userSpaceOnUse" x="4" y="410" width="485" height="228">
<path d="M53.8955 410.879H378.085C438.999 410.879 488.38 460.26 488.38 521.174V619.521C488.38 629.673 480.15 637.903 469.997 637.903H22.3825C12.2301 637.903 4 629.673 4 619.521L4 460.774C4 433.218 26.339 410.879 53.8955 410.879Z" fill="white"/>
</mask>
<g mask="url(#mask1)">
<path d="M53.8955 410.879H378.085C438.999 410.879 488.38 460.26 488.38 521.174V619.521C488.38 629.673 480.15 637.903 469.997 637.903H22.3825C12.2301 637.903 4 629.673 4 619.521L4 460.774C4 433.218 26.339 410.879 53.8955 410.879Z" fill="#FFF6ED"/>
<path d="M492.056 524.85H-1.51465V646.174H492.056V524.85Z" fill="#FFA545" stroke="#914A03" stroke-width="0.84"/>
<path d="M272.385 534.961H253.083C252.068 534.961 251.245 535.784 251.245 536.799C251.245 537.814 252.068 538.637 253.083 538.637H272.385C273.4 538.637 274.223 537.814 274.223 536.799C274.223 535.784 273.4 534.961 272.385 534.961Z" fill="#422907"/>
<path d="M328.452 534.961H309.15C308.135 534.961 307.312 535.784 307.312 536.799C307.312 537.814 308.135 538.637 309.15 538.637H328.452C329.467 538.637 330.29 537.814 330.29 536.799C330.29 535.784 329.467 534.961 328.452 534.961Z" fill="#422907"/>
<path d="M1.50488 447.92H423.603C429.86 447.92 435.406 451.949 437.339 457.9L458.941 524.39V622.81" stroke="#914A03" stroke-width="1.2" stroke-linecap="round"/>
<path fill-rule="evenodd" clip-rule="evenodd" d="M325.695 457.754H409.717C425.462 457.754 438.986 468.942 441.936 484.409L445.562 503.424C446.228 506.914 443.938 510.284 440.448 510.949C440.05 511.025 439.647 511.063 439.242 511.063H319.261C312.662 511.063 307.312 505.714 307.312 499.115V476.136C307.312 465.984 315.542 457.754 325.695 457.754Z" fill="#41290B" stroke="#422907" stroke-width="1.2"/>
<path fill-rule="evenodd" clip-rule="evenodd" d="M160.251 457.754H272.384C278.476 457.754 283.414 462.692 283.414 468.783V500.034C283.414 506.125 278.476 511.063 272.384 511.063H160.251C154.667 511.063 150.141 506.537 150.141 500.953V467.864C150.141 462.28 154.667 457.754 160.251 457.754Z" fill="#41290B"/>
<path fill-rule="evenodd" clip-rule="evenodd" d="M453.161 447.92H492.057L500.329 522.092H479.838C473.315 522.092 467.571 517.794 465.73 511.536L448.752 453.812C448.036 451.377 449.43 448.823 451.865 448.107C452.286 447.983 452.722 447.92 453.161 447.92Z" fill="#41290B"/>
<path fill-rule="evenodd" clip-rule="evenodd" d="M55.4707 457.754H113.376C119.467 457.754 124.405 462.692 124.405 468.783V500.034C124.405 506.125 119.467 511.063 113.376 511.063H55.4707C49.8869 511.063 45.3604 506.537 45.3604 500.953V467.864C45.3604 462.28 49.8869 457.754 55.4707 457.754Z" fill="#41290B"/>
<path d="M454.181 536.799V622.811" stroke="#FFF6EC" stroke-width="0.84"/>
<path d="M285.98 536.799V622.811" stroke="#FFF6EC" stroke-width="0.84"/>
<path d="M136.163 536.799V622.811" stroke="#FFF6EC" stroke-width="0.84"/>
<path d="M211.726 465.811L169.773 498.845" stroke="#FFF6EC" stroke-width="0.84"/>
<path d="M230.109 465.811L188.157 498.845" stroke="#FFF6EC" stroke-width="0.84"/>
<path d="M101.431 465.811L59.4785 498.845" stroke="#FFF6EC" stroke-width="0.84"/>
<path d="M119.813 465.811L77.8604 498.845" stroke="#FFF6EC" stroke-width="0.84"/>
<path opacity="0.0479213" fill-rule="evenodd" clip-rule="evenodd" d="M500.328 522.094L272.253 601.678C258.347 606.531 243.723 609.009 228.994 609.009H-26.1782L-8.47276 699.153L543.675 679.951V524.851L500.328 522.094Z" fill="black"/>
<path d="M444.958 500.561H308.418" stroke="#422907" stroke-width="1.2" stroke-linecap="round"/>
<path d="M367.475 500.557V458.061" stroke="#422907" stroke-width="1.2"/>
</g>
<path fill-rule="evenodd" clip-rule="evenodd" d="M469.997 569.889H479.648C489.039 569.889 496.652 577.502 496.652 586.893C496.652 596.283 489.039 603.896 479.648 603.896H469.997V569.889Z" stroke="#914A03" stroke-width="1.68"/>
<path fill-rule="evenodd" clip-rule="evenodd" d="M469.997 579.08H475.512C480.08 579.08 483.784 582.784 483.784 587.352C483.784 591.921 480.08 595.624 475.512 595.624H469.997V579.08Z" fill="#924A00"/>
<path d="M82.1255 683.86C105.476 683.86 124.405 664.931 124.405 641.581C124.405 618.23 105.476 599.301 82.1255 599.301C58.775 599.301 39.8457 618.23 39.8457 641.581C39.8457 664.931 58.775 683.86 82.1255 683.86Z" fill="#FFF6EC" stroke="#432903" stroke-width="10.92"/>
<path d="M81.6666 664.557C94.1032 664.557 104.185 654.475 104.185 642.038C104.185 629.601 94.1032 619.52 81.6666 619.52C69.2299 619.52 59.1479 629.601 59.1479 642.038C59.1479 654.475 69.2299 664.557 81.6666 664.557Z" fill="#422907"/>
<path d="M354.188 683.86C377.538 683.86 396.467 664.931 396.467 641.581C396.467 618.23 377.538 599.301 354.188 599.301C330.837 599.301 311.908 618.23 311.908 641.581C311.908 664.931 330.837 683.86 354.188 683.86Z" fill="#FFF6EC" stroke="#432903" stroke-width="10.92"/>
<path d="M396.467 639.741C396.467 616.39 377.538 597.461 354.188 597.461C330.837 597.461 311.908 616.39 311.908 639.741" stroke="#C07317" stroke-width="14.28"/>
<path d="M124.405 639.741C124.405 616.39 105.476 597.461 82.1255 597.461C58.775 597.461 39.8457 616.39 39.8457 639.741" stroke="#C07317" stroke-width="14.28"/>
<path d="M353.728 660.881C366.164 660.881 376.246 650.799 376.246 638.362C376.246 625.926 366.164 615.844 353.728 615.844C341.291 615.844 331.209 625.926 331.209 638.362C331.209 650.799 341.291 660.881 353.728 660.881Z" fill="#422907"/>
<path d="M353.728 651.692C361.089 651.692 367.056 645.725 367.056 638.364C367.056 631.004 361.089 625.037 353.728 625.037C346.368 625.037 340.401 631.004 340.401 638.364C340.401 645.725 346.368 651.692 353.728 651.692Z" stroke="#FFF6EB" stroke-width="0.8568"/>
<path d="M81.6662 655.368C89.0267 655.368 94.9935 649.401 94.9935 642.04C94.9935 634.68 89.0267 628.713 81.6662 628.713C74.3057 628.713 68.3389 634.68 68.3389 642.04C68.3389 649.401 74.3057 655.368 81.6662 655.368Z" stroke="#FFF6EB" stroke-width="0.8568"/>
<path d="M290.705 447.922V559.333C290.705 569.485 298.935 577.715 309.087 577.715H351.291C368.257 577.715 384.108 586.172 393.555 600.264L397.75 606.52C404.576 616.702 416.029 622.812 428.287 622.812H439.182" stroke="#924A00" stroke-width="1.2"/>
<path d="M290.705 637.904V447.922" stroke="#914A03" stroke-width="1.2"/>
<path d="M141.57 637.904V447.922" stroke="#914A03" stroke-width="1.2"/>
<path d="M146.984 517.592C146.984 517.592 245.837 517.592 443.541 517.592" stroke="#914A03" stroke-width="1.2" stroke-linecap="round"/>
<path d="M146.984 436.766H437.138" stroke="#914A03" stroke-width="1.2"/>
<path d="M4 616.904V620.441C4 630.086 11.8186 637.904 21.4634 637.904H26.4375" stroke="#422907" stroke-width="7.56" stroke-linecap="round"/>
<path d="M488.38 614.568V619.522C488.38 629.674 480.149 637.904 469.997 637.904H423.109" stroke="#422907" stroke-width="9.24" stroke-linecap="round"/>
<path fill-rule="evenodd" clip-rule="evenodd" d="M114.295 375.033C123.549 378.694 130.239 386.898 131.962 396.7L132.677 400.769H114.295C117.482 396.648 119.075 392.926 119.075 389.601C119.075 386.277 117.482 381.421 114.295 375.033Z" fill="#016D7E"/>
<path fill-rule="evenodd" clip-rule="evenodd" d="M426.99 503.72C428.302 503.817 429.879 503.608 431.719 503.092C434.48 502.319 434.645 500.553 437.061 503.092C438.121 502.872 438.822 502.872 439.164 503.092C439.678 503.423 440.3 504.885 440.195 506.09C440.09 507.296 439.986 509.595 437.544 509.885C435.916 510.078 432.458 510.078 427.17 509.885L426.99 503.72Z" fill="#FFCFC3"/>
<path fill-rule="evenodd" clip-rule="evenodd" d="M303.696 442.82C303.752 441.107 304.04 439.957 304.56 439.37C305.34 438.488 307.579 436.068 307.834 433.24C308.004 431.354 309.001 429.706 310.826 428.294C309.271 427.334 307.977 427.603 306.945 429.1C305.982 430.498 305.464 431.805 305.121 432.346C304.896 432.701 304.56 432.449 304.56 432.166C304.56 431.739 304.365 427.765 304.56 424.352C304.708 421.769 305.163 419.543 304.56 419.353C303.783 419.109 302.893 421.543 302.54 423.924C302.257 425.831 302.061 428.718 301.941 428.718C301.821 428.718 301.713 425.645 301.624 423.381C301.519 420.728 302.047 417.853 301.246 417.798C300.411 417.74 299.606 420.739 299.444 423.381C299.317 425.439 299.439 428.469 299.197 428.469C298.924 428.469 298.792 425.352 298.734 423.381C298.676 421.378 298.612 419.075 297.922 419.075C297.184 419.075 297.049 421.737 296.904 423.924C296.78 425.789 296.734 428.718 296.657 428.718C296.49 428.718 295.835 422.46 295.091 422.46C294.347 422.46 295.049 427.514 294.805 429.1C294.56 430.686 294.56 438.532 296.168 439.002V442.82H303.696Z" fill="#FFCFC3"/>
<path d="M296.3 429.146C298.48 428.522 300.823 428.578 303.327 429.316" stroke="#EEB6A7" stroke-width="0.6"/>
<path d="M297.312 432.842H304.411C302.534 434.296 301.42 436.323 301.07 438.922" stroke="#EEB6A7" stroke-width="0.6"/>
<mask id="mask2" mask-type="alpha" maskUnits="userSpaceOnUse" x="293" y="442" width="135" height="69">
<path d="M384.524 504.109L388.546 510.555H427.333V501.986C409.81 500.458 400.619 499.338 399.76 498.628C398.471 497.563 388.874 470.851 384.524 465.283C381.624 461.571 373.181 459.725 359.194 459.744C346.983 461.149 339.073 462.996 335.465 465.283C331.858 467.571 323.816 472.659 311.34 480.549L306.013 442.84H294.614C293.045 473.284 294.313 491.415 298.417 497.233C302.522 503.052 315.548 500.803 337.496 490.488V510.555H384.524V504.109Z" fill="white"/>
</mask>
<g mask="url(#mask2)">
<path d="M384.524 504.109L388.546 510.555H427.333V501.986C409.81 500.458 400.619 499.338 399.76 498.628C398.471 497.563 388.874 470.851 384.524 465.283C381.624 461.571 373.181 459.725 359.194 459.744C346.983 461.149 339.073 462.996 335.465 465.283C331.858 467.571 323.816 472.659 311.34 480.549L306.013 442.84H294.614C293.045 473.284 294.313 491.415 298.417 497.233C302.522 503.052 315.548 500.803 337.496 490.488V510.555H384.524V504.109Z" fill="#80B765"/>
<path fill-rule="evenodd" clip-rule="evenodd" d="M337.496 490.488L344.387 485.504C349.992 511.566 371.687 524.597 409.473 524.597L412.185 538.656L323.744 532.645L337.496 490.488Z" fill="#72A559"/>
<path fill-rule="evenodd" clip-rule="evenodd" d="M384.468 505.264L383.437 474.498L396.512 506.823H433.145V511.284L384.468 512.081V505.264Z" fill="#72A559"/>
</g>
<path fill-rule="evenodd" clip-rule="evenodd" d="M345.382 457.74C351.811 456.273 356.575 455.868 359.674 456.526C360.97 456.801 362.62 456.877 364.624 456.754C368.967 456.488 372.704 459.792 372.97 464.135C373.01 464.784 372.97 465.434 372.85 466.073C372.626 467.263 372.436 468.311 372.281 469.218C371.49 473.833 371.783 479.688 370.404 479.688C369.025 479.688 370.418 479.281 353.394 470.693C342.045 464.968 339.374 460.65 345.382 457.74Z" fill="#72A559"/>
<path fill-rule="evenodd" clip-rule="evenodd" d="M345.221 434.775C344.511 434.148 335.908 428.599 341.476 421.615C345.188 416.959 351.402 418.031 360.117 424.831C365.124 423.354 368.857 424.635 371.315 428.674C375.003 434.733 369.821 438.272 369.09 442.031C368.014 447.567 366.177 450.653 363.578 451.291C351.813 440.699 345.695 435.193 345.221 434.775Z" fill="#1B172C"/>
<mask id="mask3" mask-type="alpha" maskUnits="userSpaceOnUse" x="336" y="434" width="42" height="36">
<path d="M368.607 459.192L361.946 444.099C363.322 442.588 363.322 438.712 360.49 438.952C357.658 439.192 359.129 441.442 358.709 443.049C358.428 444.12 358.018 443.111 357.477 440.021C355.736 440.385 354.86 439.232 354.852 436.563C350.971 437.203 347.333 436.476 343.938 434.38C343.63 435.264 343.388 435.827 343.21 436.068C342.171 437.479 342.035 436.779 342.021 437.187C341.861 441.888 343.792 447.96 346.249 453.687C347.326 456.197 351.305 457.197 354.885 454.76L356.288 461.484C356.718 463.546 358.075 465.293 359.966 466.22C364.722 468.553 368.242 469.498 370.524 469.054C373.264 468.521 372.625 465.234 368.607 459.192Z" fill="white"/>
</mask>
<g mask="url(#mask3)">
<path d="M367.017 461.243L363.359 445.157C364.998 443.936 365.738 440.131 362.912 439.826C360.086 439.521 361.101 442.011 360.381 443.508C359.902 444.506 359.691 443.437 359.75 440.301C357.971 440.325 357.332 439.027 357.833 436.405C353.901 436.293 350.469 434.885 347.536 432.18C347.065 432.989 346.72 433.495 346.499 433.698C345.21 434.885 345.21 434.172 345.119 434.569C344.064 439.154 344.801 445.482 346.121 451.573C346.699 454.243 350.414 455.984 354.394 454.274L354.487 461.143C354.516 463.248 355.515 465.223 357.194 466.493C361.418 469.691 364.693 471.29 367.017 471.29C369.809 471.29 369.809 467.941 367.017 461.243Z" fill="#FFCFC3"/>
<path fill-rule="evenodd" clip-rule="evenodd" d="M354.102 454.335C355.72 454.244 357.253 453.508 358.702 452.126C357.757 457.375 355.727 461.243 352.612 463.729C349.497 466.216 349.994 463.084 354.102 454.335Z" fill="#EEB6A7"/>
</g>
<path d="M352.211 442.318C353.698 442.607 355.139 441.635 355.428 440.147C355.717 438.66 354.746 437.219 353.258 436.93C351.77 436.641 350.33 437.612 350.04 439.1C349.751 440.588 350.723 442.028 352.211 442.318Z" stroke="#240F16" stroke-width="0.6"/>
<path d="M344.858 442.318C346.346 442.607 347.786 441.635 348.075 440.147C348.365 438.66 347.393 437.219 345.905 436.93C344.417 436.641 342.977 437.612 342.688 439.1C342.399 440.588 343.37 442.028 344.858 442.318Z" stroke="#240F16" stroke-width="0.6"/>
<path d="M348.193 439.623H349.961" stroke="#240F16" stroke-width="0.6"/>
<path d="M355.555 439.418L363.791 438.965" stroke="#240F16" stroke-width="0.6"/>
<path d="M433.099 510.682C432.479 500.691 435.959 494.893 443.541 493.289" stroke="#050505" stroke-width="5"/>
</svg>
