<svg width="24" height="24" viewBox="0 0 24 24" fill="none" xmlns="http://www.w3.org/2000/svg">
<path fill-rule="evenodd" clip-rule="evenodd" d="M8.9001 1.99961C8.9001 1.50255 8.49715 1.09961 8.0001 1.09961C7.50304 1.09961 7.1001 1.50255 7.1001 1.99961V3.09961H5.0001C3.39847 3.09961 2.1001 4.39798 2.1001 5.99961V17.9996C2.1001 19.6012 3.39847 20.8996 5.0001 20.8996H19.0001C20.6017 20.8996 21.9001 19.6012 21.9001 17.9996V5.99961C21.9001 4.39798 20.6017 3.09961 19.0001 3.09961H16.9001V1.99961C16.9001 1.50255 16.4972 1.09961 16.0001 1.09961C15.503 1.09961 15.1001 1.50255 15.1001 1.99961V3.09961H8.9001V1.99961ZM15.1001 5.99961V4.89961H8.9001V5.99961C8.9001 6.49667 8.49715 6.89961 8.0001 6.89961C7.50304 6.89961 7.1001 6.49667 7.1001 5.99961V4.89961H5.0001C4.39258 4.89961 3.9001 5.3921 3.9001 5.99961V8.09961H20.1001V5.99961C20.1001 5.3921 19.6076 4.89961 19.0001 4.89961H16.9001V5.99961C16.9001 6.49667 16.4972 6.89961 16.0001 6.89961C15.503 6.89961 15.1001 6.49667 15.1001 5.99961ZM20.1001 9.89961H3.9001V17.9996C3.9001 18.6071 4.39258 19.0996 5.0001 19.0996H19.0001C19.6076 19.0996 20.1001 18.6071 20.1001 17.9996V9.89961ZM7.5001 13.4996C8.05238 13.4996 8.5001 13.0519 8.5001 12.4996C8.5001 11.9473 8.05238 11.4996 7.5001 11.4996C6.94781 11.4996 6.5001 11.9473 6.5001 12.4996C6.5001 13.0519 6.94781 13.4996 7.5001 13.4996ZM13.0001 12.4996C13.0001 13.0519 12.5524 13.4996 12.0001 13.4996C11.4478 13.4996 11.0001 13.0519 11.0001 12.4996C11.0001 11.9473 11.4478 11.4996 12.0001 11.4996C12.5524 11.4996 13.0001 11.9473 13.0001 12.4996ZM16.5001 13.4996C17.0524 13.4996 17.5001 13.0519 17.5001 12.4996C17.5001 11.9473 17.0524 11.4996 16.5001 11.4996C15.9478 11.4996 15.5001 11.9473 15.5001 12.4996C15.5001 13.0519 15.9478 13.4996 16.5001 13.4996ZM8.5001 15.9996C8.5001 16.5519 8.05238 16.9996 7.5001 16.9996C6.94781 16.9996 6.5001 16.5519 6.5001 15.9996C6.5001 15.4473 6.94781 14.9996 7.5001 14.9996C8.05238 14.9996 8.5001 15.4473 8.5001 15.9996ZM12.0001 16.9996C12.5524 16.9996 13.0001 16.5519 13.0001 15.9996C13.0001 15.4473 12.5524 14.9996 12.0001 14.9996C11.4478 14.9996 11.0001 15.4473 11.0001 15.9996C11.0001 16.5519 11.4478 16.9996 12.0001 16.9996ZM17.5001 15.9996C17.5001 16.5519 17.0524 16.9996 16.5001 16.9996C15.9478 16.9996 15.5001 16.5519 15.5001 15.9996C15.5001 15.4473 15.9478 14.9996 16.5001 14.9996C17.0524 14.9996 17.5001 15.4473 17.5001 15.9996Z" fill="#3F2355"/>
</svg>
