<svg width="50" height="55" viewBox="0 0 50 55" fill="none" xmlns="http://www.w3.org/2000/svg">
<path d="M41.8917 12.0559C45.1972 12.0559 47.8767 9.37636 47.8767 6.07094C47.8767 2.76551 45.1972 0.0859375 41.8917 0.0859375C38.5863 0.0859375 35.9067 2.76551 35.9067 6.07094C35.9067 9.37636 38.5863 12.0559 41.8917 12.0559Z" fill="#FB7333"/>
<path d="M13.4727 28.5856L12.1326 23.1687C12.021 22.7832 11.9978 22.3776 12.0647 21.9819C12.1315 21.5862 12.2868 21.2103 12.5189 20.8829C12.751 20.5555 13.0539 20.2848 13.4051 20.0907C13.7564 19.8966 14.1469 19.784 14.5476 19.7617H42.6352C43.0359 19.784 43.4264 19.8966 43.7776 20.0907C44.1289 20.2848 44.4318 20.5555 44.6639 20.8829C44.896 21.2103 45.0513 21.5862 45.1182 21.9819C45.185 22.3776 45.1617 22.7832 45.0501 23.1687L43.7102 28.5856C43.5904 29.1422 43.2874 29.6426 42.8495 30.0065C42.4116 30.3703 41.8643 30.5766 41.2952 30.5924H15.8877C15.3185 30.5767 14.7711 30.3704 14.3332 30.0065C13.8953 29.6426 13.5923 29.1422 13.4727 28.5856V28.5856Z" stroke="#3F2355" stroke-width="2" stroke-miterlimit="10" stroke-linecap="round"/>
<path d="M19.1641 19.7635L19.6391 18.0386C19.7843 17.5103 20.099 17.0443 20.5349 16.7123C20.9708 16.3803 21.5036 16.2008 22.0516 16.2012H35.1203C35.6665 16.201 36.1977 16.38 36.6323 16.7108C37.067 17.0416 37.3812 17.5057 37.5266 18.0322L38.0078 19.7635" stroke="#3F2355" stroke-width="2" stroke-miterlimit="10" stroke-linecap="round"/>
<path d="M16.9602 30.8932V44.0557C16.9602 44.7188 16.6967 45.3548 16.2279 45.8236C15.7591 46.2925 15.1232 46.5557 14.4602 46.5557H11.6289C10.9659 46.5557 10.3299 46.2925 9.8611 45.8236C9.39226 45.3548 9.12891 44.7188 9.12891 44.0557V28.7246C9.12891 28.0616 9.39226 27.4256 9.8611 26.9567C10.3299 26.4879 10.9659 26.2246 11.6289 26.2246H12.6851" stroke="#3F2355" stroke-width="2" stroke-miterlimit="10" stroke-linecap="round"/>
<path d="M44.8667 26.2256H45.5417C46.2048 26.2256 46.8406 26.4889 47.3094 26.9577C47.7783 27.4265 48.0417 28.0625 48.0417 28.7256V44.0567C48.0417 44.7197 47.7783 45.3557 47.3094 45.8246C46.8406 46.2934 46.2048 46.5567 45.5417 46.5567H42.7104C42.0474 46.5567 41.4116 46.2934 40.9427 45.8246C40.4739 45.3557 40.2104 44.7197 40.2104 44.0567V30.8942" stroke="#3F2355" stroke-width="2" stroke-miterlimit="10" stroke-linecap="round"/>
<path d="M13.2651 7.45752H19.3726C19.8605 7.45738 20.3377 7.60023 20.7455 7.86798C21.1533 8.13574 21.4738 8.51678 21.6676 8.96448L24.3052 15.0601" stroke="#3F2355" stroke-width="2" stroke-miterlimit="10" stroke-linecap="round"/>
<path d="M43.9062 7.45752H37.7981C37.3103 7.4575 36.8332 7.60023 36.4256 7.86798C36.0179 8.13573 35.6974 8.51688 35.5037 8.96448L32.8662 15.0601" stroke="#3F2355" stroke-width="2" stroke-miterlimit="10" stroke-linecap="round"/>
<path d="M34.7497 10.708H22.4185" stroke="#3F2355" stroke-width="2" stroke-miterlimit="10" stroke-linecap="round"/>
<path d="M21.1633 35.5547L16.957 37.6547" stroke="#3F2355" stroke-width="2" stroke-miterlimit="10" stroke-linecap="round"/>
<path d="M40.2039 37.6547L36.0039 35.5547" stroke="#3F2355" stroke-width="2" stroke-miterlimit="10" stroke-linecap="round"/>
<path d="M30.4529 37.2373H26.7217" stroke="#3F2355" stroke-width="2" stroke-miterlimit="10" stroke-linecap="round"/>
<path d="M35.5523 27.5002C36.8347 27.5002 37.8742 26.4607 37.8742 25.1783C37.8742 23.896 36.8347 22.8564 35.5523 22.8564C34.27 22.8564 33.2305 23.896 33.2305 25.1783C33.2305 26.4607 34.27 27.5002 35.5523 27.5002Z" stroke="#FB7333" stroke-width="2" stroke-miterlimit="10" stroke-linecap="round"/>
<path d="M21.6187 27.4992C22.9011 27.4992 23.9406 26.4597 23.9406 25.1773C23.9406 23.895 22.9011 22.8555 21.6187 22.8555C20.3364 22.8555 19.2969 23.895 19.2969 25.1773C19.2969 26.4597 20.3364 27.4992 21.6187 27.4992Z" stroke="#FB7333" stroke-width="2" stroke-miterlimit="10" stroke-linecap="round"/>
<path d="M9.18701 41.2598H12.097" stroke="#3F2355" stroke-width="2" stroke-miterlimit="10" stroke-linecap="round"/>
<path d="M13.3164 35.3076H16.2264" stroke="#3F2355" stroke-width="2" stroke-miterlimit="10" stroke-linecap="round"/>
<path d="M47.4842 41.2598H44.5742" stroke="#3F2355" stroke-width="2" stroke-miterlimit="10" stroke-linecap="round"/>
<path d="M43.3475 35.3066H40.4375" stroke="#3F2355" stroke-width="2" stroke-miterlimit="10" stroke-linecap="round"/>
<path d="M26.7193 30.5942V38.2694C26.7193 39.0062 26.4267 39.7128 25.9057 40.2338C25.3847 40.7548 24.6781 41.0474 23.9413 41.0474C23.2044 41.0474 22.4978 40.7548 21.9768 40.2338C21.4558 39.7128 21.1631 39.0062 21.1631 38.2694V30.5942" stroke="#3F2355" stroke-width="2" stroke-miterlimit="10" stroke-linecap="round"/>
<path d="M36.0133 30.5938V38.2689C36.0133 39.0057 35.7205 39.7123 35.1995 40.2333C34.6785 40.7543 33.9719 41.0469 33.2351 41.0469C32.4983 41.0469 31.7917 40.7543 31.2707 40.2333C30.7497 39.7123 30.457 39.0057 30.457 38.2689V30.5938" stroke="#3F2355" stroke-width="2" stroke-miterlimit="10" stroke-linecap="round"/>
<path d="M7.21312 13.9922H1.29688" stroke="#DBDAE1" stroke-width="2" stroke-miterlimit="10" stroke-linecap="round"/>
<path d="M4.25439 16.9502L4.27689 11.2583" stroke="#DBDAE1" stroke-width="2" stroke-miterlimit="10" stroke-linecap="round"/>
<path d="M37.7097 50.9795H31.7935" stroke="#DBDAE1" stroke-width="2" stroke-miterlimit="10" stroke-linecap="round"/>
<path d="M34.751 53.9394L34.7735 48.2476" stroke="#DBDAE1" stroke-width="2" stroke-miterlimit="10" stroke-linecap="round"/>
</svg>
