<svg width="24" height="24" viewBox="0 0 24 24" fill="none" xmlns="http://www.w3.org/2000/svg">
<path d="M21.2594 2.58837C21.2581 1.58042 20.4409 0.763672 19.4327 0.763672H11.7838C11.2993 0.763672 10.8347 0.95607 10.4921 1.29862L0.535231 11.2534C-0.178353 11.9668 -0.17841 13.1236 0.53506 13.8372L8.18399 21.4862C8.54069 21.8429 9.00827 22.0213 9.47585 22.0213C9.77016 22.0213 10.0613 21.9423 10.3279 21.8009C11.3039 20.9972 9.85996 22.3937 20.7244 11.5314C21.0671 11.1888 21.2596 10.7241 21.2596 10.2395C21.2596 2.48075 21.2597 3.80613 21.2594 2.58837ZM20.3462 10.2394C20.3462 10.4834 20.2511 10.7129 20.0786 10.8854L10.1217 20.8404C9.94914 21.0129 9.71974 21.1079 9.47574 21.1079C9.23173 21.1079 9.00239 21.0128 8.8298 20.8404L1.18099 13.1913C1.00846 13.0188 0.913461 12.7893 0.913461 12.5454C0.913461 12.3014 1.00852 12.072 1.18105 11.8995L11.1379 1.94461C11.3104 1.77213 11.5398 1.67713 11.7838 1.67713H19.4328C19.9364 1.67713 20.3462 2.08693 20.3462 2.59059V10.2394H20.3462Z" fill="#3F2355"/>
<path d="M23.0868 2.5918V11.154C23.0868 11.398 22.9918 11.6275 22.8193 11.8L12.0273 22.59L12.6732 23.2359L23.4651 12.446C23.8078 12.1033 24.0003 11.6386 24.0003 11.154V2.5918H23.0868Z" fill="#FB5100"/>
<path d="M16.2371 3.96094C15.2299 3.96094 14.4102 4.78026 14.4102 5.78786C14.4102 6.79547 15.2299 7.61478 16.2371 7.61478C17.2442 7.61478 18.064 6.79547 18.064 5.78786C18.064 4.78026 17.2442 3.96094 16.2371 3.96094ZM16.2371 6.70132C15.7331 6.70132 15.3236 6.29141 15.3236 5.78786C15.3236 5.28431 15.7331 4.8744 16.2371 4.8744C16.7411 4.8744 17.1505 5.28431 17.1505 5.78786C17.1505 6.29141 16.7411 6.70132 16.2371 6.70132Z" fill="#3F2355"/>
<path d="M5.95312 14.9986L6.63615 15.6999L7.32964 15.0246C8.47581 15.9966 9.84567 15.9369 10.6574 15.1465C11.5715 14.2562 11.4839 13.2361 10.5843 11.8551L12.2786 10.2051C12.6053 10.7928 12.55 11.4455 12.2143 12.1256L13.2683 12.4196C13.7563 11.407 13.6686 10.3868 13.0194 9.48366L13.7287 8.79296L13.0456 8.09159L12.3522 8.76694C11.3288 7.92104 10.1325 7.79628 9.32867 8.57907C8.4618 9.42325 8.57057 10.6071 9.27873 11.76L7.41891 13.5711C6.9466 12.8181 7.0351 12.0103 7.66884 11.1474L6.55363 10.7748C5.81682 11.7841 5.75242 13.1212 6.66238 14.3079L5.95312 14.9986ZM9.79702 14.3261C9.37935 14.7328 8.71774 14.7629 8.08617 14.2878L9.81202 12.6071C10.2221 13.3594 10.262 13.8733 9.79702 14.3261ZM10.1272 9.36754C10.5291 8.97614 11.0877 9.09245 11.6114 9.48834L10.0825 10.9772C9.74982 10.2571 9.76471 9.72056 10.1272 9.36754Z" fill="#3F2355"/>
</svg>
