<svg width="26" height="26" viewBox="0 0 26 26" fill="none" xmlns="http://www.w3.org/2000/svg">
<path d="M12.9998 5.57129C12.0815 5.57129 11.1839 5.84359 10.4204 6.35375C9.65685 6.86392 9.06176 7.58903 8.71035 8.4374C8.35895 9.28577 8.267 10.2193 8.44615 11.1199C8.62529 12.0205 9.06748 12.8478 9.7168 13.4971C10.3661 14.1465 11.1934 14.5886 12.094 14.7678C12.9946 14.9469 13.9282 14.855 14.7765 14.5036C15.6249 14.1522 16.35 13.5571 16.8602 12.7936C17.3703 12.0301 17.6426 11.1324 17.6426 10.2141C17.6426 8.98278 17.1535 7.80185 16.2828 6.93115C15.4121 6.06045 14.2312 5.57129 12.9998 5.57129Z" fill="#644E77"/>
<path d="M13 0C10.4288 0 7.91543 0.762437 5.77759 2.19089C3.63975 3.61935 1.97351 5.64967 0.989572 8.02511C0.00563268 10.4006 -0.251811 13.0144 0.249797 15.5362C0.751405 18.0579 1.98953 20.3743 3.80762 22.1924C5.6257 24.0105 7.94208 25.2486 10.4638 25.7502C12.9856 26.2518 15.5994 25.9944 17.9749 25.0104C20.3503 24.0265 22.3806 22.3602 23.8091 20.2224C25.2376 18.0846 26 15.5712 26 13C25.9961 9.55339 24.6252 6.24907 22.188 3.81195C19.7509 1.37483 16.4466 0.00393224 13 0ZM20.4211 21.2884C20.4026 20.0704 19.9064 18.9085 19.0393 18.0529C18.1723 17.1973 17.0038 16.7166 15.7857 16.7143H10.2143C8.99617 16.7166 7.82771 17.1973 6.96066 18.0529C6.09361 18.9085 5.59737 20.0704 5.57886 21.2884C3.89496 19.7848 2.70747 17.8052 2.17364 15.6118C1.63981 13.4183 1.78481 11.1144 2.58946 9.00515C3.3941 6.89592 4.82042 5.08083 6.67956 3.80024C8.5387 2.51965 10.743 1.83395 13.0005 1.83395C15.258 1.83395 17.4622 2.51965 19.3214 3.80024C21.1805 5.08083 22.6068 6.89592 23.4115 9.00515C24.2161 11.1144 24.3611 13.4183 23.8273 15.6118C23.2935 17.8052 22.106 19.7848 20.4221 21.2884H20.4211Z" fill="#644E77"/>
</svg>
