<svg width="25" height="24" viewBox="0 0 25 24" fill="none" xmlns="http://www.w3.org/2000/svg">
<path d="M12.0039 2C6.48391 2 2.00391 6.48 2.00391 12C2.00391 17.52 6.48391 22 12.0039 22C17.5239 22 22.0039 17.52 22.0039 12C22.0039 6.48 17.5239 2 12.0039 2ZM12.0039 20C7.58391 20 4.00391 16.42 4.00391 12C4.00391 7.58 7.58391 4 12.0039 4C16.4239 4 20.0039 7.58 20.0039 12C20.0039 16.42 16.4239 20 12.0039 20Z" fill="#644E77"/>
<path d="M12.0039 6.00007C10.0739 6.00007 8.50391 7.57007 8.50391 9.50007C8.50391 10.0501 8.95391 10.5001 9.50391 10.5001C10.0539 10.5001 10.5039 10.0501 10.5039 9.50007C10.5039 8.67007 11.1739 8.00007 12.0039 8.00007C12.8339 8.00007 13.5039 8.67007 13.5039 9.50007C13.5039 10.3301 12.8339 11.0001 12.0039 11.0001C11.4539 11.0001 11.0039 11.4501 11.0039 12.0001V14.0001C11.0039 14.5501 11.4539 15.0001 12.0039 15.0001C12.5539 15.0001 13.0039 14.5501 13.0039 14.0001V12.8401C14.8539 12.3001 15.9139 10.3601 15.3739 8.51007C14.9339 7.02007 13.5639 5.99007 12.0039 6.00007Z" fill="#644E77"/>
<path d="M12.0039 18C12.5562 18 13.0039 17.5523 13.0039 17C13.0039 16.4477 12.5562 16 12.0039 16C11.4516 16 11.0039 16.4477 11.0039 17C11.0039 17.5523 11.4516 18 12.0039 18Z" fill="#644E77"/>
</svg>
