<svg width="16" height="12" viewBox="0 0 16 12" fill="none" xmlns="http://www.w3.org/2000/svg">
<path d="M15.4625 3.54075C15.4498 3.459 15.4437 3.41475 15.4437 3.41475L15.4242 3.41925C15.0988 1.8945 13.7465 0.75 12.125 0.75C10.2612 0.75 8.75 2.26125 8.75 4.125C8.75 5.98875 10.2612 7.5 12.125 7.5C12.2922 7.5 12.4527 7.4745 12.6125 7.45125C12.5607 7.62525 12.5075 7.80225 12.422 7.96125C12.3365 8.19225 12.203 8.3925 12.0702 8.59425C11.9592 8.8125 11.7635 8.96025 11.6195 9.147C11.4688 9.3285 11.2633 9.44925 11.1005 9.6C10.9408 9.7575 10.7315 9.83625 10.565 9.94725C10.391 10.047 10.2395 10.1573 10.0775 10.2098C9.9215 10.2743 9.785 10.3297 9.67325 10.3762C9.44675 10.47 9.31775 10.524 9.31775 10.524L9.68075 11.9783C9.68075 11.9783 9.84425 11.9392 10.1285 11.8702C10.2718 11.8342 10.4465 11.7923 10.6453 11.742C10.8485 11.7045 11.0653 11.6017 11.3068 11.508C11.5445 11.4007 11.8212 11.3295 12.0778 11.1578C12.3358 10.9943 12.6335 10.8577 12.896 10.6388C13.1502 10.413 13.457 10.2172 13.6835 9.93075C13.931 9.66225 14.1755 9.38025 14.3652 9.05925C14.585 8.75325 14.7342 8.41725 14.8917 8.085C15.0342 7.75275 15.149 7.413 15.2428 7.083C15.4205 6.4215 15.5 5.793 15.5308 5.25525C15.5563 4.71675 15.5413 4.269 15.5098 3.945C15.4985 3.792 15.4783 3.64275 15.4625 3.54075ZM7.2125 3.54075C7.19975 3.459 7.19375 3.41475 7.19375 3.41475L7.17425 3.41925C6.84875 1.8945 5.4965 0.75 3.875 0.75C2.01125 0.75 0.5 2.26125 0.5 4.125C0.5 5.98875 2.01125 7.5 3.875 7.5C4.04225 7.5 4.20275 7.4745 4.3625 7.45125C4.31075 7.62525 4.2575 7.80225 4.172 7.96125C4.0865 8.19225 3.953 8.3925 3.82025 8.59425C3.70925 8.8125 3.5135 8.96025 3.3695 9.147C3.21875 9.3285 3.01325 9.44925 2.8505 9.6C2.69075 9.7575 2.4815 9.83625 2.315 9.94725C2.141 10.047 1.9895 10.1573 1.8275 10.2098C1.6715 10.2743 1.535 10.3297 1.42325 10.3762C1.1975 10.4685 1.0685 10.5225 1.0685 10.5225L1.4315 11.9767C1.4315 11.9767 1.595 11.9378 1.87925 11.8688C2.0225 11.8328 2.19725 11.7907 2.396 11.7405C2.59925 11.703 2.816 11.6002 3.0575 11.5065C3.29525 11.3992 3.572 11.328 3.8285 11.1562C4.0865 10.9928 4.38425 10.8563 4.64675 10.6373C4.901 10.4115 5.20775 10.2158 5.43425 9.92925C5.68175 9.66075 5.92625 9.37875 6.116 9.05775C6.33575 8.75175 6.485 8.41575 6.6425 8.0835C6.785 7.75125 6.89975 7.4115 6.9935 7.0815C7.17125 6.42 7.25075 5.7915 7.2815 5.25375C7.307 4.71525 7.292 4.2675 7.2605 3.9435C7.2485 3.792 7.22825 3.64275 7.2125 3.54075Z" fill="white"/>
</svg>
