<?xml version="1.0" encoding="utf-8"?>
<!-- Generator: Adobe Illustrator 24.2.0, SVG Export Plug-In . SVG Version: 6.00 Build 0)  -->
<svg version="1.1" id="Layer_1" xmlns="http://www.w3.org/2000/svg" xmlns:xlink="http://www.w3.org/1999/xlink" x="0px" y="0px"
	 viewBox="0 0 130 130" style="enable-background:new 0 0 130 130;" xml:space="preserve">
<style type="text/css">
	.st0{fill:#FFF9EB;}
	.st1{fill:#FB7333;}
	.st2{fill:none;stroke:#3F2355;stroke-width:2;stroke-linecap:round;stroke-miterlimit:10;}
	.st3{fill:none;stroke:#FB7333;stroke-width:2;stroke-linecap:round;stroke-miterlimit:10;}
	.st4{fill:none;stroke:#FFFFFF;stroke-width:2;stroke-linecap:round;stroke-miterlimit:10;}
</style>
<circle class="st0" cx="65" cy="65" r="65"/>
<path class="st1" d="M77.3,53.2c-0.3,0-0.6-0.1-0.9-0.1H63.6c-1.4-0.1-2.8,0.3-4,1.1c-1.2,0.8-2.1,1.9-2.7,3.2l-6.5-0.2v-3.8
	c0-3.4,3.2-6.1,7.1-6.1h12.8C74.1,47.4,77.2,50,77.3,53.2z"/>
<path class="st2" d="M38.5,87.5c5.6,0,10.1-4.4,10.1-9.9c0-5.4-4.5-9.9-10.1-9.9c-5.6,0-10.1,4.4-10.1,9.9
	C28.3,83.1,32.9,87.5,38.5,87.5z"/>
<path class="st2" d="M24.5,66.4c7.1-7.1,18.6-7.3,25.5-0.4c2,2,3.5,4.5,4.3,7.2c0.8,2.7,1,5.6,0.5,8.3H62c3.7,0,7.3-1.2,10.3-3.4
	s5.1-5.3,6.2-8.9l1.3-4.6c0.1-0.2,0-0.4-0.1-0.6c-0.1-0.2-0.3-0.3-0.5-0.4c-0.1,0-0.1,0-0.2,0l-31.3,0.1"/>
<path class="st3" d="M38.5,81.1c1.9,0,3.5-1.5,3.5-3.5c0-1.9-1.5-3.5-3.5-3.5S35,75.7,35,77.7C35,79.6,36.6,81.1,38.5,81.1z"/>
<path class="st2" d="M96.6,87.5c5.6,0,10.1-4.4,10.1-9.9c0-5.4-4.5-9.9-10.1-9.9c-5.6,0-10.1,4.4-10.1,9.9
	C86.5,83.1,91,87.5,96.6,87.5z"/>
<path class="st3" d="M96.6,81.1c1.9,0,3.5-1.5,3.5-3.5c0-1.9-1.5-3.5-3.5-3.5c-1.9,0-3.5,1.5-3.5,3.5C93.1,79.6,94.7,81.1,96.6,81.1
	z"/>
<path class="st2" d="M93,68.4l-1.9-3.9"/>
<path class="st2" d="M61.1,70.7h-7.5"/>
<path class="st2" d="M65.7,69.1v2.8"/>
<path class="st2" d="M70.4,69.1v2.8"/>
<path class="st2" d="M73.7,63.6h5.5c1.1,0,2.2-0.4,3-1.2c0.8-0.8,1.2-1.8,1.3-3v-0.1c0-3.1-2.7-5.7-6.2-6.1c-0.3,0-0.6-0.1-0.9-0.1
	H63.6c-1.4-0.1-2.8,0.3-4,1.1c-1.2,0.8-2.1,1.9-2.7,3.2c-0.2,0.6-0.3,1.2-0.3,1.8v3.8"/>
<path class="st2" d="M83.7,48.8L83.7,48.8c-2.1,1-3.1,3.6-2,5.7l3.8,7.9c1,2.1,3.6,3.1,5.7,2l0,0c2.1-1,3.1-3.6,2-5.7l-3.8-7.9
	C88.4,48.7,85.8,47.8,83.7,48.8z"/>
<path class="st2" d="M100,46.8c-1.2,0-2.3,0.5-3.2,1.3c-0.8,0.8-1.3,2-1.3,3.2l0,0c0,1.2,0.5,2.3,1.3,3.2c0.8,0.8,2,1.3,3.2,1.3h1.5
	c0.4,0,0.7-0.1,1-0.4c0.3-0.3,0.4-0.6,0.4-1l0,0v-6.1c0-0.4-0.1-0.7-0.4-1c-0.3-0.3-0.6-0.4-1-0.4L100,46.8L100,46.8z"/>
<path class="st2" d="M59.9,54.1l-2.8,1.5c-0.3,0.2-0.6,0.4-1,0.6c-6.1,3.2-13.3-1.6-16.5-4.1c-0.2-0.1-0.4-0.3-0.6-0.3
	c-0.2-0.1-0.5-0.1-0.7-0.1c-0.2,0-0.5,0.1-0.7,0.2c-0.2,0.1-0.4,0.3-0.5,0.5c-0.1,0.1-0.1,0.2-0.2,0.2L32,61.3"/>
<path class="st2" d="M70.9,41.7h5.3c0.8,0,1.5,0.2,2.2,0.5c0.7,0.4,1.3,0.9,1.7,1.5l3.6,5.1"/>
<path class="st2" d="M90.2,52.5l4.4-1.2"/>
<path class="st4" d="M60.7,28.8h-8.2"/>
<path class="st4" d="M56.6,32.9l0-7.9"/>
<path class="st4" d="M83.9,94.9h-8.2"/>
<path class="st4" d="M79.8,99l0-7.9"/>
</svg>
