<svg width="21" height="18" viewBox="0 0 21 18" fill="none" xmlns="http://www.w3.org/2000/svg">
<path d="M20.8189 6.36179H15.0249C14.9253 6.36179 14.8438 6.45679 14.8438 6.5729V7.83955C14.8438 7.95566 14.9253 8.05066 15.0249 8.05066H20.8189C20.9185 8.05066 21 7.95566 21 7.83955V6.5729C21 6.45679 20.9185 6.36179 20.8189 6.36179ZM17.7861 9.95065H15.0249C14.9253 9.95065 14.8438 10.0456 14.8438 10.1618V11.4284C14.8438 11.5445 14.9253 11.6395 15.0249 11.6395H17.7861C17.8857 11.6395 17.9672 11.5445 17.9672 11.4284V10.1618C17.9672 10.0456 17.8857 9.95065 17.7861 9.95065ZM10.2335 4H9.25349C9.11317 4 9 4.13194 9 4.29555V10.8399C9 10.9349 9.03848 11.022 9.10411 11.0774L12.4742 13.9433C12.5873 14.0383 12.7458 14.0119 12.8272 13.8799L13.4089 12.9537V12.951C13.4904 12.8191 13.4655 12.6344 13.3523 12.5394L10.4847 10.1222V4.29555C10.487 4.13194 10.3716 4 10.2335 4V4Z" fill="#CAC1D1"/>
<path d="M16.789 12.7261H15.4647C15.3364 12.7261 15.215 12.7929 15.1463 12.9034C14.8553 13.3661 14.5162 13.7943 14.1268 14.1856C13.4555 14.8601 12.6742 15.3895 11.8059 15.7579C10.9055 16.14 9.95014 16.3334 8.96498 16.3334C7.97752 16.3334 7.02215 16.14 6.12405 15.7579C5.25573 15.3895 4.47448 14.8601 3.80319 14.1856C3.13191 13.5111 2.60496 12.7261 2.23839 11.8537C1.85807 10.9513 1.66562 9.99136 1.66562 8.9992C1.66562 8.00704 1.85807 7.04941 2.23839 6.14473C2.60496 5.27227 3.13191 4.48729 3.80319 3.81281C4.47448 3.13832 5.25573 2.60886 6.12405 2.24054C7.02215 1.85841 7.97981 1.66504 8.96498 1.66504C9.95243 1.66504 10.9078 1.85841 11.8059 2.24054C12.6742 2.60886 13.4555 3.13832 14.1268 3.81281C14.5162 4.20415 14.8553 4.63232 15.1463 5.09502C15.215 5.20551 15.3364 5.27227 15.4647 5.27227H16.789C16.9471 5.27227 17.0479 5.10653 16.9769 4.96611C15.4831 1.98042 12.4543 0.0398361 9.07266 0.000702169C4.12165 -0.0614517 0.00917994 4.01078 1.56522e-05 8.98078C-0.00914863 13.96 4.0071 18 8.96268 18C12.3878 18 15.467 16.0525 16.9769 13.0323C17.0479 12.8919 16.9448 12.7261 16.789 12.7261V12.7261Z" fill="#CAC1D1"/>
</svg>
