<svg width="12" height="12" viewBox="0 0 12 12" fill="none" xmlns="http://www.w3.org/2000/svg">
<path d="M9.5 4.5C9.77614 4.5 10 4.27614 10 4C10 3.72386 9.77614 3.5 9.5 3.5V4.5ZM5.5 3.5C5.22386 3.5 5 3.72386 5 4C5 4.27614 5.22386 4.5 5.5 4.5V3.5ZM9.5 3.5H5.5V4.5H9.5V3.5Z" fill="#3F2355"/>
<path d="M6.5 8.5C6.77614 8.5 7 8.27614 7 8C7 7.72386 6.77614 7.5 6.5 7.5V8.5ZM2.5 7.5C2.22386 7.5 2 7.72386 2 8C2 8.27614 2.22386 8.5 2.5 8.5V7.5ZM6.5 7.5H2.5V8.5H6.5V7.5Z" fill="#3F2355"/>
<circle cx="3.5" cy="4" r="1.75" stroke="#3F2355"/>
<circle cx="8.5" cy="8" r="1.75" stroke="#3F2355"/>
</svg>
