<svg width="84" height="47" viewBox="0 0 84 47" fill="none" xmlns="http://www.w3.org/2000/svg">
<path d="M79.5072 35.4268L78.1163 40.3844L68.521 40.3659V41.1291H67.29C68.0456 39.3034 68.0456 37.2525 67.29 35.4268H79.5072Z" fill="white"/>
<path d="M28.4777 15.2671H21.9321C21.6392 15.2672 21.3524 15.351 21.1055 15.5086C20.8585 15.6661 20.6617 15.8909 20.5381 16.1564L17.5622 22.5697C17.4419 22.8313 17.379 23.1157 17.3776 23.4036V28.2905C17.3762 28.5763 17.4578 28.8563 17.6124 29.0966C17.7669 29.3369 17.9879 29.5273 18.2485 29.6446C19.283 30.1364 20.1026 30.9888 20.5534 32.0418C20.683 32.3228 20.8899 32.5611 21.1498 32.7289C21.4097 32.8967 21.712 32.9872 22.0214 32.9897H28.4038C28.831 32.9897 29.2407 32.8202 29.543 32.5185C29.8453 32.2167 30.0156 31.8073 30.0164 31.3802V16.8057C30.0161 16.4411 29.8863 16.0884 29.6501 15.8105C29.414 15.5326 29.0868 15.3477 28.727 15.2886C28.6445 15.2753 28.5612 15.2681 28.4777 15.2671ZM13.6509 24.1084C14.022 24.0517 14.3735 23.9047 14.6745 23.6804C14.9755 23.4562 15.2168 23.1614 15.3773 22.822L19.3256 14.4731C19.3445 14.434 19.3672 14.3969 19.3933 14.3623H30.2687C30.5778 14.368 30.8721 14.4958 31.0872 14.7178C31.3023 14.9398 31.4207 15.238 31.4166 15.5471L31.4628 35.0054C31.4636 35.1591 31.5252 35.3062 31.6342 35.4146C31.7432 35.523 31.8907 35.5839 32.0444 35.5839H53.3983C52.7022 37.3682 52.7209 39.3523 53.4506 41.1232H51.5026V40.3231L19.8426 40.2554C19.3533 40.2554 18.6732 40.1138 18.4639 39.9476C18.8055 37.4857 18.627 35.1685 18.2823 34.2206C17.9069 32.9897 16.242 28.9891 10.5889 28.6167C7.3792 28.4013 3.22166 29.1091 1.52295 33.6452V31.5772H2.07996C2.31803 31.5774 2.54699 31.4856 2.71902 31.321C2.89105 31.1565 2.99285 30.9318 3.00317 30.6939L3.19397 28.8475V28.7983C3.19397 28.3213 2.82468 28.0782 2.08919 28.0782H1.56296C2.2646 26.7149 7.06838 25.1239 13.6509 24.1084Z" fill="white"/>
<path d="M83.3353 23.5547V24.1702H83.1014L83.0122 23.5547H83.3353Z" fill="#644E77"/>
<path d="M82.7725 21.8218H83.1694V22.4373H82.8556L82.7725 21.8218Z" fill="#644E77"/>
<path d="M82.6156 20.7078L82.5264 20.0923H82.8772V20.7078H82.6156Z" fill="#644E77"/>
<path d="M81.9502 26.8444L82.5657 26.7551L82.5349 26.5366C82.5876 26.5369 82.6401 26.542 82.6918 26.552L82.7411 26.8813C82.6721 26.8562 82.5991 26.8437 82.5257 26.8444H81.9502Z" fill="#644E77"/>
<path d="M82.3325 29.4753L81.9971 27.1519H82.5202C82.6081 27.1527 82.6922 27.1879 82.7543 27.2501C82.8165 27.3122 82.8518 27.3963 82.8526 27.4842V29.5645C82.8526 29.6527 82.8176 29.7372 82.7552 29.7995C82.6929 29.8619 82.6084 29.8969 82.5202 29.8969H82.3694C82.3646 29.7558 82.3523 29.6151 82.3325 29.4753Z" fill="white"/>
<path d="M82.9875 30.2232L82.3721 30.2048H82.5198C82.6896 30.2048 82.8524 30.1373 82.9724 30.0173C83.0924 29.8972 83.1599 29.7344 83.1599 29.5647V27.4936C83.1625 27.3594 83.123 27.2278 83.0468 27.1174C82.9706 27.0069 82.8616 26.9232 82.7352 26.8781L82.686 26.5488C82.9034 26.5875 83.1005 26.701 83.2432 26.8695C83.3859 27.0381 83.4653 27.2512 83.4676 27.472V29.5524C83.4676 29.7223 83.4218 29.889 83.3352 30.0352C83.2486 30.1814 83.1242 30.3016 82.9752 30.3832C82.9814 30.3371 82.9845 30.2817 82.9875 30.2232Z" fill="#644E77"/>
<path d="M82.5599 26.7551L81.9444 26.8444L81.9229 26.6905L82.3783 26.6259V26.5366H82.5352L82.5599 26.7551Z" fill="#644E77"/>
<path d="M82.3506 30.5123C82.3506 30.4108 82.3691 30.3061 82.3721 30.2046L82.9876 30.2231C82.9876 30.2815 82.9876 30.3369 82.9876 30.3954C82.8481 30.4721 82.6914 30.5124 82.5322 30.5123H82.3506Z" fill="#644E77"/>
<path d="M82.3661 18.926L82.2769 18.3105H82.5877V18.926H82.3661Z" fill="#644E77"/>
<path d="M82.2456 23.5547H83.0119L83.1011 24.1702H82.3349L82.2456 23.5547Z" fill="#644E77"/>
<path d="M82.5287 26.5364L82.1841 24.1699H82.338L82.6857 26.5518C82.634 26.5418 82.5814 26.5367 82.5287 26.5364Z" fill="#644E77"/>
<path d="M81.7568 30.2044V30.189L82.3169 30.2044H81.7568Z" fill="#644E77"/>
<path d="M82.1815 24.1702L82.0923 23.5547H82.2462L82.3354 24.1702H82.1815Z" fill="#644E77"/>
<path d="M82.372 26.5364L82.0273 24.1699H82.1843L82.529 26.5364H82.372Z" fill="#644E77"/>
<path d="M82.1075 17.095L82.0244 16.4795H82.2029V17.095H82.1075Z" fill="#644E77"/>
<path d="M81.9937 21.8218H82.7722L82.8553 22.4373H82.086L81.9937 21.8218Z" fill="#644E77"/>
<path d="M82.0921 23.5541L81.9321 22.437H82.086L82.246 23.5541H82.0921Z" fill="#644E77"/>
<path d="M81.9873 23.8867L82.0273 24.1698H81.9873V23.8867Z" fill="#644E77"/>
<path d="M81.738 29.8969C81.6945 29.8969 81.6514 29.8883 81.6113 29.8716C81.5711 29.8548 81.5347 29.8303 81.5041 29.7994C81.4734 29.7685 81.4493 29.7318 81.4329 29.6915C81.4165 29.6512 81.4083 29.6081 81.4087 29.5646V27.4935C81.4087 27.4059 81.4433 27.3218 81.505 27.2596C81.5666 27.1973 81.6504 27.1619 81.738 27.1611H81.9965L82.3319 29.4846C82.3517 29.6243 82.364 29.7651 82.3688 29.9062L81.738 29.8969Z" fill="white"/>
<path d="M82.0921 23.5547L82.1813 24.1702H82.0275L81.9875 23.887L81.9844 23.5547H82.0921Z" fill="#644E77"/>
<path d="M81.9692 26.9975L82.7324 26.8867C82.8588 26.9319 82.9678 27.0156 83.044 27.126C83.1202 27.2364 83.1598 27.368 83.1571 27.5022V29.5825C83.1571 29.7523 83.0897 29.9151 82.9696 30.0351C82.8496 30.1552 82.6868 30.2226 82.517 30.2226H82.3693C82.3693 30.121 82.3693 30.0164 82.3693 29.9149H82.5201C82.6082 29.9149 82.6928 29.8798 82.7551 29.8175C82.8174 29.7552 82.8524 29.6706 82.8524 29.5825V27.493C82.8516 27.4051 82.8164 27.321 82.7542 27.2588C82.6921 27.1967 82.608 27.1614 82.5201 27.1606H81.9969L81.9692 26.9975Z" fill="#644E77"/>
<path d="M81.9502 26.8443H82.5195C82.5929 26.8436 82.6659 26.8561 82.7349 26.8812L81.9717 26.992L81.9502 26.8443Z" fill="#644E77"/>
<path d="M81.9504 26.8443L81.4365 26.9181C81.5316 26.869 81.6372 26.8436 81.7443 26.8443H81.9504Z" fill="#644E77"/>
<path d="M81.8394 21.8218H81.9932L82.0856 22.4373H81.9317L81.8394 21.8218Z" fill="#644E77"/>
<path d="M81.9043 26.5366H82.3721L82.3844 26.6259L81.9289 26.6905L81.9043 26.5366Z" fill="#644E77"/>
<path d="M81.4704 26.7577L81.4458 26.5854C81.5396 26.5519 81.6386 26.5353 81.7382 26.5362H81.9043L81.929 26.69L81.4704 26.7577Z" fill="#644E77"/>
<path d="M81.898 15.5994L81.8149 14.9839H82.0396V15.5994H81.898Z" fill="#644E77"/>
<path d="M81.8396 21.8218L81.9319 22.4373H81.8149V21.8218H81.8396Z" fill="#644E77"/>
<path d="M81.7441 20.0923H82.5258L82.615 20.7078H81.8334L81.7441 20.0923Z" fill="#644E77"/>
<path d="M81.8397 21.822L81.6797 20.708H81.8336L81.9936 21.822H81.8397Z" fill="#644E77"/>
<path d="M81.7569 30.2046H82.3724C82.3724 30.3061 82.3724 30.4108 82.3508 30.5123H81.7354C81.7486 30.4103 81.7558 30.3075 81.7569 30.2046Z" fill="#644E77"/>
<path d="M81.6797 20.7078L81.5874 20.0923H81.7443L81.8336 20.7078H81.6797Z" fill="#644E77"/>
<path d="M81.5255 20.708H81.6794L81.8394 21.822H81.8148V22.4375H81.9318L82.0918 23.5546H81.9841L81.9871 23.8869L81.5225 20.708H81.5255Z" fill="#644E77"/>
<path d="M81.6461 13.8054L81.563 13.1899H81.7846V13.8054H81.6461Z" fill="#644E77"/>
<path d="M81.5874 20.0923L81.6797 20.7078H81.5259V20.0923H81.5874Z" fill="#644E77"/>
<path d="M81.4858 18.3105H82.2767L82.366 18.926H81.5782L81.4858 18.3105Z" fill="#644E77"/>
<path d="M81.5877 20.0921L81.4185 18.9258H81.5785L81.7447 20.0921H81.5877Z" fill="#644E77"/>
<path d="M81.2241 27.1057C81.2801 27.0301 81.3514 26.9671 81.4334 26.921L81.9473 26.8472L81.9689 27.001L81.2241 27.1057Z" fill="#644E77"/>
<path d="M81.4177 18.926L81.3315 18.3105H81.4854L81.5777 18.926H81.4177Z" fill="#644E77"/>
<path d="M81.5228 20.7076L81.2612 18.9258H81.4182L81.5874 20.0921H81.5259V20.7076H81.5228Z" fill="#644E77"/>
<path d="M81.3531 26.9332L81.3101 26.6439C81.3578 26.6207 81.4071 26.6012 81.4578 26.5854L81.4824 26.7578L81.9409 26.6901L81.9625 26.8439H81.7501C81.6431 26.8433 81.5375 26.8687 81.4424 26.9178L81.3531 26.9332Z" fill="#644E77"/>
<path d="M81.7381 30.2047C81.5689 30.2039 81.4068 30.1361 81.2875 30.0162C81.1681 29.8962 81.1011 29.7339 81.1011 29.5646V27.4936C81.1013 27.3576 81.1443 27.2251 81.2242 27.115L81.972 27.0073L81.9966 27.1612H81.7381C81.6505 27.162 81.5667 27.1974 81.5051 27.2596C81.4434 27.3219 81.4088 27.4059 81.4088 27.4936V29.5739C81.4084 29.6174 81.4166 29.6605 81.433 29.7008C81.4494 29.7411 81.4735 29.7778 81.5042 29.8087C81.5348 29.8396 81.5712 29.8641 81.6114 29.8809C81.6515 29.8976 81.6946 29.9062 81.7381 29.9062H82.369C82.369 30.0078 82.369 30.1124 82.369 30.214H82.3136L81.7535 30.1986V30.214L81.7381 30.2047Z" fill="#644E77"/>
<path d="M81.3135 11.3987L81.5074 11.3926L81.5227 12.0081L81.3966 12.0111L81.3135 11.3987Z" fill="#644E77"/>
<path d="M81.0889 34.4977C81.2562 34.3363 81.3855 34.1397 81.4674 33.9222L82.2213 31.2202C82.2845 30.9884 82.3277 30.7516 82.3506 30.5124H82.5198C82.6791 30.5125 82.8358 30.4723 82.9753 30.3955C82.9568 30.7295 82.9032 31.0606 82.8153 31.3833L82.0613 34.0884C81.96 34.3906 81.7904 34.6654 81.5659 34.8916C81.4889 34.9777 81.4089 35.07 81.3289 35.1778L81.1443 35.427H81.1166L81.2304 35.0239L81.3535 34.5715L81.0889 34.4977Z" fill="#644E77"/>
<path d="M81.3106 17.095L81.2183 16.4795H82.0245L82.1076 17.095H81.3106Z" fill="#644E77"/>
<path d="M81.3318 18.3103L81.1533 17.0947H81.3103L81.4857 18.3103H81.3318Z" fill="#644E77"/>
<path d="M81.2397 18.7598L81.2613 18.9259H81.2397V18.7598Z" fill="#644E77"/>
<path d="M81.2397 18.3105H81.3321L81.4182 18.926H81.2613L81.2397 18.7598V18.7568V18.3105Z" fill="#644E77"/>
<path d="M81.2121 27.1087L81.1567 26.7364C81.2015 26.7021 81.2489 26.6712 81.2983 26.644L81.3414 26.9333H81.4337C81.3517 26.9794 81.2804 27.0424 81.2244 27.118L81.2121 27.1087Z" fill="#644E77"/>
<path d="M81.0703 9.69092H81.295L81.3165 10.3064H81.1596L81.0703 9.69092Z" fill="#644E77"/>
<path d="M81.1532 17.095L81.064 16.4795H81.2178L81.3102 17.095H81.1532Z" fill="#644E77"/>
<path d="M81.24 18.7565L81 17.0947H81.1539L81.3324 18.3103H81.24V18.7565Z" fill="#644E77"/>
<path d="M80.7936 27.4934C80.7937 27.3494 80.8265 27.2074 80.8894 27.0779C80.9523 26.9484 81.0436 26.8348 81.1567 26.7456L81.2121 27.118C81.1322 27.228 81.0892 27.3605 81.089 27.4965V27.9365H80.7812L80.7936 27.4934Z" fill="#644E77"/>
<path d="M81.7321 30.5124C81.4823 30.51 81.2436 30.409 81.0678 30.2315C80.892 30.054 80.7934 29.8143 80.7935 29.5646V27.9243H81.1012V29.5646C81.1012 29.7338 81.1682 29.8961 81.2876 30.0161C81.407 30.136 81.569 30.2038 81.7382 30.2047H81.7567C81.7546 30.3076 81.7464 30.4104 81.7321 30.5124Z" fill="#644E77"/>
<path d="M81.0024 14.9839H81.8149L81.898 15.5994H81.0886L81.0024 14.9839Z" fill="#644E77"/>
<path d="M42.083 33.2266C42.2688 33.2267 42.4519 33.1816 42.6164 33.0953C42.781 33.009 42.9222 32.8841 43.0278 32.7312C43.3355 32.6284 43.6033 32.4319 43.7937 32.1692C43.9841 31.9065 44.0875 31.5908 44.0895 31.2663V27.9243H80.7933V29.5646C80.7933 29.8143 80.8919 30.054 81.0677 30.2315C81.2434 30.409 81.4822 30.51 81.7319 30.5124C81.7108 30.6963 81.6758 30.8784 81.6273 31.0571L80.8734 33.759C80.8102 33.8729 80.7303 33.9766 80.6364 34.0668L80.5379 34.1806H80.0394L79.8794 34.1345V34.1806H66.6466V34.1622C66.5543 34.0206 66.4558 33.879 66.3389 33.7375C65.7434 32.9557 64.9997 32.2989 64.1502 31.8046C63.3008 31.3103 62.3623 30.9882 61.3883 30.8568C60.4144 30.7253 59.4241 30.787 58.474 31.0384C57.5239 31.2898 56.6327 31.7259 55.8512 32.3219C55.2208 32.7984 54.672 33.3742 54.2263 34.0268H42.083V33.2266Z" fill="white"/>
<path d="M81.0643 16.4793L80.9351 15.5991H81.0889L81.2182 16.4793H81.0643Z" fill="#644E77"/>
<path d="M81.1689 34.6791L80.9812 34.6268L81.0889 34.4976L81.3597 34.5745L81.2304 35.0238L81.1166 35.4269H80.9565L81.0827 34.9807L81.1689 34.6791Z" fill="#644E77"/>
<path d="M80.9072 16.4795H81.0642L81.1534 17.095H80.9996L80.9072 16.4795Z" fill="#644E77"/>
<path d="M80.9567 35.4266H80.7998L80.9783 34.7865L80.8767 34.7557C80.9092 34.7107 80.9441 34.6675 80.9814 34.6265L81.1691 34.6788L81.0829 34.9865L80.9567 35.4266Z" fill="#644E77"/>
<path d="M80.9353 15.5994L80.8491 14.9839H81.003L81.0892 15.5994H80.9353Z" fill="#644E77"/>
<path d="M80.9132 8.55542L80.8301 7.93994H81.0486V8.55542H80.9132Z" fill="#644E77"/>
<path d="M80.9071 16.4793L80.7778 15.5991H80.9348L81.064 16.4793H80.9071Z" fill="#644E77"/>
<path d="M80.9993 17.095H80.8516V16.4795H80.907L80.9993 17.095Z" fill="#644E77"/>
<path d="M80.5353 34.6606L80.8769 34.756L80.8338 34.8114H80.4922L80.5353 34.6606Z" fill="#644E77"/>
<path d="M80.7383 13.1899H81.563L81.6461 13.8054H80.8306L80.7383 13.1899Z" fill="#644E77"/>
<path d="M80.8491 14.9838L80.6768 13.8052H80.8306L81.003 14.9838H80.8491Z" fill="#644E77"/>
<path d="M68.838 41.1291V40.6737L78.3564 40.6922L79.8366 35.4268H80.7967L79.058 41.6154L68.835 41.5969L68.838 41.1291Z" fill="#644E77"/>
<path d="M45.8992 20.108C45.8992 20.3529 45.9965 20.5877 46.1696 20.7608C46.3428 20.9339 46.5776 21.0312 46.8224 21.0312H54.4297C54.6746 21.0312 54.9094 20.9339 55.0825 20.7608C55.2557 20.5877 55.3529 20.3529 55.3529 20.108V12.1468H58.4303L58.4765 20.108C58.4765 20.3529 58.5737 20.5877 58.7469 20.7608C58.92 20.9339 59.1548 21.0312 59.3997 21.0312H76.9961C77.241 21.0312 77.4758 20.9339 77.6489 20.7608C77.8221 20.5877 77.9193 20.3529 77.9193 20.108L77.8578 11.6914H77.8178V11.2236H45.8992V20.108ZM80.7936 27.9245H44.0897V12.9316C44.08 12.5106 43.9039 12.1107 43.5999 11.8194C43.2959 11.5282 42.8889 11.3692 42.468 11.3775H36.7317C36.3108 11.3692 35.9037 11.5282 35.5998 11.8194C35.2958 12.1107 35.1196 12.5106 35.1099 12.9316V27.9245H32.9927L32.965 15.5412C32.9666 15.1855 32.8982 14.8331 32.7636 14.5039C32.629 14.1747 32.4309 13.8753 32.1805 13.6227C31.9302 13.37 31.6326 13.1692 31.3046 13.0316C30.9767 12.894 30.6249 12.8224 30.2692 12.8208H16.6888C16.3744 12.8211 16.0642 12.7497 15.7816 12.6122C15.4989 12.4746 15.2514 12.2744 15.0578 12.0268C14.8527 11.7667 14.7096 11.4633 14.6392 11.1397C14.5688 10.816 14.573 10.4806 14.6515 10.1588C14.6614 10.1131 14.6737 10.0679 14.6885 10.0234H78.7287L81.1567 26.7367C81.0437 26.8258 80.9523 26.9394 80.8894 27.0689C80.8266 27.1984 80.7938 27.3405 80.7936 27.4845V27.9245Z" fill="white"/>
<path d="M80.6924 14.9839H80.8493L80.9355 15.5994H80.7785L80.6924 14.9839Z" fill="#644E77"/>
<path d="M80.6917 14.9839L80.7779 15.5994H80.6855V14.9839H80.6917Z" fill="#644E77"/>
<path d="M80.584 13.1899H80.7379L80.8302 13.8054H80.6763L80.584 13.1899Z" fill="#644E77"/>
<path d="M80.6765 13.8052L80.8488 14.9838H80.6919L80.5195 13.8052H80.6765Z" fill="#644E77"/>
<path d="M80.5781 34.5101H79.938L79.9872 34.3408L80.5781 34.5101Z" fill="#644E77"/>
<path d="M80.5843 13.19L80.415 12.0359L80.5689 12.0298L80.7382 13.19H80.5843Z" fill="#644E77"/>
<path d="M80.5686 12.0298L80.4824 11.4174L81.3133 11.3989L81.3964 12.0113L80.5686 12.0298Z" fill="#644E77"/>
<path d="M80.5347 34.6606L80.5778 34.5098L80.9809 34.6267C80.9436 34.6678 80.9087 34.7109 80.8763 34.756L80.5347 34.6606Z" fill="#644E77"/>
<path d="M80.0391 34.1961H80.5376L80.6361 34.0822C80.73 33.9921 80.8099 33.8883 80.873 33.7745L81.627 31.0725C81.6755 30.8938 81.7104 30.7118 81.7316 30.5278H82.3471C82.3243 30.767 82.281 31.0038 82.2178 31.2356L81.4639 33.9376C81.382 34.1551 81.2527 34.3517 81.0854 34.513L80.0391 34.1961Z" fill="#644E77"/>
<path d="M80.0088 34.8113L80.0888 34.5312L80.5319 34.6605L80.4889 34.8113H80.0088Z" fill="#644E77"/>
<path d="M80.4824 13.5405L80.5193 13.8052H80.4824V13.5405Z" fill="#644E77"/>
<path d="M80.8 35.4267H79.8398L80.0122 34.8112H80.8338L80.8769 34.7559L80.9785 34.7866L80.8 35.4267Z" fill="#644E77"/>
<path d="M80.5197 13.8054L80.4827 13.5408L80.4766 13.1899H80.5843L80.6766 13.8054H80.5197Z" fill="#644E77"/>
<path d="M80.5686 12.0299L80.4148 12.036L80.3286 11.4206L80.4825 11.4175L80.5686 12.0299Z" fill="#644E77"/>
<path d="M80.5845 13.1897H80.4768L80.483 13.5405L80.2583 12.0387L80.4153 12.0356L80.5845 13.1897Z" fill="#644E77"/>
<path d="M80.3196 10.3064L80.2334 9.69092H81.0704L81.1597 10.3064H80.3196Z" fill="#644E77"/>
<path d="M80.1655 10.3062H80.3194L80.4825 11.4171L80.3286 11.4202L80.1655 10.3062Z" fill="#644E77"/>
<path d="M80.2304 12.0388L80.2212 11.7803L80.2581 12.0388H80.2304Z" fill="#644E77"/>
<path d="M80.2178 11.423L80.3286 11.4199L80.4147 12.0354L80.2578 12.0385L80.2209 11.78L80.2178 11.423Z" fill="#644E77"/>
<path d="M80.0859 9.76465L80.166 10.3063H80.0859V9.76465Z" fill="#644E77"/>
<path d="M80.2336 9.69092L80.3198 10.3064H80.166L80.0859 9.76477V9.69092H80.2336Z" fill="#644E77"/>
<path d="M79.9751 7.93994H80.8306L80.9137 8.55542H80.0643L79.9751 7.93994Z" fill="#644E77"/>
<path d="M79.9102 8.55518H80.064L80.2333 9.69073H80.0856V9.76459L79.9102 8.55518Z" fill="#644E77"/>
<path d="M80.039 34.1961H79.8667L79.8759 34.1499L80.039 34.1961Z" fill="#644E77"/>
<path d="M79.8545 34.8113L79.9376 34.5098H80.5777L80.5315 34.6606L80.0884 34.5313L80.0084 34.8113H79.8545Z" fill="#644E77"/>
<path d="M79.8551 34.811H80.009L79.8366 35.4265H79.6797L79.8551 34.811Z" fill="#644E77"/>
<path d="M79.8735 8.28467L79.9105 8.55548H79.8735V8.28467Z" fill="#644E77"/>
<path d="M79.9751 7.93994L80.0643 8.55542H79.9105L79.8735 8.28461V7.93994H79.9751Z" fill="#644E77"/>
<path d="M79.9409 34.5099H79.7778L79.8671 34.2021H80.0394L81.0888 34.5099L80.9811 34.6391L80.578 34.5222L79.9871 34.3529L79.9409 34.5099Z" fill="#644E77"/>
<path d="M79.9379 34.5098L79.8549 34.8113H79.6948L79.7779 34.5098H79.9379Z" fill="#644E77"/>
<path d="M79.6885 5.95172H80.267C80.5219 5.95546 80.767 6.0508 80.9574 6.2203C81.1478 6.38981 81.2709 6.62218 81.3041 6.87494L83.9999 26.1609L83.3844 26.2439L83.0951 24.1729H83.329V23.5574H83.0213L82.8643 22.4403H83.1721V21.8248H82.772L82.6151 20.7231H82.892V20.1077H82.5412L82.3781 18.9413H82.5843V18.3259H82.2766L82.1073 17.0949H82.2027V16.4794H82.0211L81.898 15.5993H82.0365V14.9838H81.8119L81.6611 13.8052H81.7996V13.1897H81.5749L81.4118 12.0111H81.5349V11.3956H81.338L81.1841 10.3031H81.341L81.3226 9.68766H81.0979L80.941 8.55211H81.0456V7.93663H80.824L80.6855 6.95495C80.6738 6.8509 80.6251 6.75451 80.5483 6.68335C80.4715 6.61218 80.3717 6.57097 80.267 6.5672H79.7808L79.6916 5.95172C79.6905 5.95164 79.6895 5.95164 79.6885 5.95172Z" fill="#644E77"/>
<path d="M79.8733 8.28412L79.624 6.57617H79.7779L79.9748 7.93945H79.8733V8.28412Z" fill="#644E77"/>
<path d="M79.5195 35.4265L79.6949 34.811H79.855L79.6796 35.4265H79.5195Z" fill="#644E77"/>
<path d="M79.5656 5.95166H79.6887L79.7779 6.56714H79.621L79.5625 6.15784L79.5656 5.95166Z" fill="#644E77"/>
<path d="M79.5654 6.16748L79.6239 6.57677H79.5654V6.16748Z" fill="#644E77"/>
<path d="M81.4461 26.5859L79.0396 10.0234H79.5073L79.5258 10.1527L79.775 11.8699L80.0305 13.6455L80.292 15.4396L80.5075 16.9352L80.7752 18.7817L81.0337 20.5665L81.286 22.3022L81.5353 24.0224L81.9046 26.5582H81.7384C81.6401 26.5503 81.5411 26.5597 81.4461 26.5859Z" fill="#644E77"/>
<path d="M79.0393 10.0234L81.4458 26.5859C81.3951 26.6016 81.3458 26.6212 81.2981 26.6444L78.8823 10.0265L79.0393 10.0234Z" fill="#644E77"/>
<path d="M78.8917 10.0231L81.3074 26.6409C81.258 26.6681 81.2106 26.699 81.1658 26.7333L78.7378 10.02L78.8917 10.0231Z" fill="#644E77"/>
<path d="M34.3252 1.57255C34.6213 1.5366 34.9201 1.52836 35.2177 1.54793L76.1468 4.29295C76.6498 4.33279 77.1242 4.54291 77.4918 4.88866C77.8594 5.2344 78.0981 5.6951 78.1686 6.19477L78.7256 10.023H14.6885C14.7008 9.99225 14.7131 9.9584 14.7254 9.92147L16.2641 5.74547C16.4754 5.15456 16.8459 4.6335 17.3347 4.23981C17.8234 3.84611 18.4114 3.59507 19.0337 3.51437L34.3252 1.57255Z" fill="white"/>
<path d="M77.4146 11.6847L77.8361 11.6816V12.1463H77.4176L77.4146 11.6847Z" fill="#644E77"/>
<path d="M76.9562 12.1467L76.9531 11.6881L77.4147 11.6851L77.4178 12.1467H76.9562Z" fill="#644E77"/>
<path d="M76.9561 12.1465L77.0145 20.1107L59.4242 20.1046L59.375 12.1465H76.9561Z" fill="#DEDFE0"/>
<path d="M74.3311 2.93868V2.78174L76.2421 2.91099C77.06 2.97242 77.8324 3.31076 78.4321 3.8702C79.0319 4.42964 79.423 5.17677 79.5411 5.98837L79.5657 6.15762V6.56691H79.6241L79.8734 8.27486V8.54567H79.9134L80.0888 9.75508V10.2967H80.1688L80.3289 11.4107H80.2181V11.7677L79.381 6.00683C79.2704 5.22875 78.8974 4.51176 78.3238 3.97453C77.7502 3.4373 77.0104 3.11203 76.2267 3.05255L74.3311 2.93868Z" fill="#644E77"/>
<path d="M74.3311 2.78229V2.62842L76.2544 2.75767C77.1045 2.82115 77.9076 3.17201 78.5318 3.75255C79.1559 4.33309 79.564 5.10875 79.6888 5.95198H79.5657V6.15817L79.5411 5.98891C79.423 5.17731 79.0319 4.43019 78.4321 3.87075C77.8324 3.31131 77.0599 2.97297 76.2421 2.91154L74.3311 2.78229Z" fill="#644E77"/>
<path d="M74.3313 1.68945V2.62805L73.7158 2.58805V1.69253L74.3313 1.68945Z" fill="#644E77"/>
<path d="M74.3313 1.35059V1.6891L73.7158 1.69217V1.35059H74.3313Z" fill="#644E77"/>
<path d="M74.0138 3.3757L73.7061 3.35416V3.26184H74.3215V2.9541L76.2233 3.08027C77.007 3.13975 77.7469 3.46503 78.3205 4.00226C78.8941 4.53949 79.267 5.25648 79.3777 6.03456L80.2147 11.7954V12.0539H80.2455L80.4671 13.5557V13.8203H80.504L80.6763 14.999V15.6144H80.7686L80.8948 16.4946H80.8394V17.11H80.9871L81.2272 18.7718V18.938H81.2518L81.5103 20.7198L81.975 23.8987V24.1819H82.015L82.3596 26.5484H81.8919L81.5226 24.0126L81.2733 22.2923L81.021 20.5567L80.7625 18.7718L80.4947 16.9254L80.2793 15.4298L80.0301 13.6449L79.7716 11.8785L79.5223 10.1613L79.5038 10.0321L78.9684 6.33922L78.9314 6.08072C78.8387 5.40577 78.517 4.78316 78.0201 4.31707C77.5232 3.85099 76.8813 3.56972 76.2018 3.52034L74.0138 3.3757Z" fill="#644E77"/>
<path d="M74.3313 2.93908V3.2622H73.7158V2.896L74.3313 2.93908Z" fill="#644E77"/>
<path d="M74.3313 2.6279V2.78177L73.7158 2.74176V2.58789L74.3313 2.6279Z" fill="#644E77"/>
<path d="M74.3313 2.78219V2.93914L73.7158 2.89606V2.74219L74.3313 2.78219Z" fill="#644E77"/>
<path d="M68.838 40.6737V41.1291H68.6841V40.5198L78.2393 40.5383L79.6796 35.4268H79.8365L78.3563 40.6922L68.838 40.6737Z" fill="#644E77"/>
<path d="M68.8345 41.5969L79.0576 41.6154L80.7963 35.4268H80.9532L79.1745 41.7723L68.6807 41.7508L68.6837 41.1291H68.8376L68.8345 41.5969Z" fill="#644E77"/>
<path d="M78.2389 40.5383L68.6837 40.5198V41.1291H68.5298V40.3659L78.1251 40.3844L79.5191 35.4268H79.6791L78.2389 40.5383Z" fill="#644E77"/>
<path d="M68.6812 41.7508L79.1751 41.7723L80.9538 35.4268H81.1169L79.292 41.9262L68.5273 41.9046L68.5304 41.1291H68.6843L68.6812 41.7508Z" fill="#644E77"/>
<path d="M67.2868 35.4265C67.2011 35.2165 67.1045 35.0111 66.9976 34.811H79.6948L79.5194 35.4265H67.2868Z" fill="#644E77"/>
<path d="M66.6193 35.4268H67.2871C68.0426 37.2525 68.0426 39.3034 67.2871 41.1291H66.6162C67.0259 40.2345 67.2382 39.2622 67.2387 38.2783C67.2392 37.2943 67.028 36.3218 66.6193 35.4268Z" fill="#644E77"/>
<path d="M66.8315 34.5098H79.7781L79.695 34.8175H66.9977C66.9454 34.7098 66.89 34.6082 66.8315 34.5098Z" fill="#644E77"/>
<path d="M66.2959 34.8112V34.5034H66.8314C66.8898 34.6019 66.9452 34.7034 66.9975 34.8112H66.2959Z" fill="#644E77"/>
<path d="M66.6377 34.1958H79.8704L79.7812 34.5035H66.8316C66.7722 34.3978 66.7075 34.2951 66.6377 34.1958Z" fill="#644E77"/>
<path d="M66.8314 34.5099H66.2959V34.2021H66.6375C66.7062 34.3015 66.7699 34.4042 66.8283 34.5099H66.8314Z" fill="#644E77"/>
<path d="M65.936 41.126L66.6223 41.1291H65.936V41.126Z" fill="#644E77"/>
<path d="M66.619 35.4265C66.5205 35.2172 66.4128 35.0111 66.2959 34.811H66.9975C67.1045 35.0111 67.2011 35.2165 67.2868 35.4265H66.619Z" fill="#644E77"/>
<path d="M66.2959 34.811C66.4128 35.0111 66.5205 35.2172 66.619 35.4265H66.2959V34.811Z" fill="#644E77"/>
<path d="M66.1084 34.5098H66.2961V34.8175C66.2377 34.7098 66.1761 34.6082 66.1084 34.5098Z" fill="#644E77"/>
<path d="M65.3907 43.834C73.3457 44.0833 78.3649 44.4495 78.3649 44.8557C78.3649 45.3419 71.1854 45.7789 60.3931 46.0097V45.7758C62.0273 45.7742 63.6152 45.2333 64.9107 44.2371C65.0707 44.1109 65.2338 43.9817 65.3907 43.834Z" fill="#DEDFE0"/>
<path d="M65.7666 35.1251C66.2745 35.9902 66.5662 36.9649 66.6171 37.9667C66.668 38.9685 66.4765 39.9678 66.059 40.8798C66.0221 40.9629 65.9821 41.046 65.939 41.126H63.2432C63.9266 40.4356 64.3373 39.5214 64.3995 38.552C64.4617 37.5826 64.1712 36.6234 63.5817 35.8514C63.266 35.4333 62.8707 35.0819 62.4185 34.8174H65.5697L65.6005 34.8635C65.6589 34.9436 65.7113 35.0297 65.7666 35.1251Z" fill="#DEDFE0"/>
<path d="M65.5693 34.811H66.2956V35.4265H66.6187C67.0279 36.3213 67.2397 37.2938 67.2397 38.2777C67.2397 39.2616 67.0279 40.2341 66.6187 41.1289H65.9355C65.9786 41.0489 66.0186 40.9658 66.0556 40.8827C66.4731 39.9707 66.6646 38.9714 66.6137 37.9696C66.5628 36.9678 66.271 35.993 65.7632 35.128C65.7078 35.0326 65.6555 34.9464 65.597 34.8603L65.5693 34.811Z" fill="#644E77"/>
<path d="M65.5694 34.8112C65.4956 34.7034 65.4279 34.605 65.354 34.5034H66.108C66.1757 34.6019 66.2372 34.7034 66.2957 34.8112H65.5694Z" fill="#644E77"/>
<path d="M65.2031 2.17257V2.01562L73.7152 2.58802V2.74189L65.2031 2.17257Z" fill="#644E77"/>
<path d="M65.2031 2.32364V2.17285L73.7152 2.74217V2.89603L65.2031 2.32364Z" fill="#644E77"/>
<path d="M64.5908 1.73877H65.2063V2.02189L64.5908 1.98188V1.73877Z" fill="#644E77"/>
<path d="M65.2033 2.76639V2.32324L73.7153 2.89563V3.26184L73.7061 3.35416L64.9355 2.76639H65.2033Z" fill="#644E77"/>
<path d="M64.8986 1.73547H64.5908V1.42773H65.2063V1.73547H64.8986Z" fill="#644E77"/>
<path d="M64.5879 2.28369L65.2034 2.3237V2.76684H64.9356H64.9203H64.8956L64.5879 2.7453V2.28369Z" fill="#644E77"/>
<path d="M64.5879 1.97607L65.2034 2.01608V2.17303L64.5879 2.12994V1.97607Z" fill="#644E77"/>
<path d="M64.5879 2.12939L65.2034 2.17248V2.32327L64.5879 2.28326V2.12939Z" fill="#644E77"/>
<path d="M64.5879 2.74512L64.8956 2.76666L64.5879 2.76974V2.74512Z" fill="#644E77"/>
<path d="M64.5324 43.7544C65.4381 43.0686 66.1567 42.1659 66.6219 41.1294H67.2928C67.259 41.2156 67.222 41.2987 67.182 41.3848C66.7632 42.3213 66.1531 43.1599 65.391 43.8467L64.4678 43.819L64.5324 43.7544Z" fill="#644E77"/>
<path d="M64.4619 43.8033L63.3726 43.7725C64.4757 43.1707 65.3697 42.2477 65.936 41.126H66.6223C66.157 42.1624 65.4385 43.0652 64.5327 43.751L64.4619 43.8033Z" fill="#644E77"/>
<path d="M62.4186 34.8116C62.2298 34.7003 62.0322 34.6045 61.8277 34.5254H61.7847H65.3513C65.4252 34.6208 65.4929 34.7193 65.5668 34.8331L62.4186 34.8116Z" fill="#DEDFE0"/>
<path d="M61.7168 34.811H62.4184C62.8707 35.0755 63.266 35.4269 63.5817 35.845C64.1712 36.6171 64.4617 37.5763 64.3995 38.5457C64.3372 39.5151 63.9266 40.4293 63.2432 41.1197H62.797C63.2872 40.7004 63.6601 40.161 63.8794 39.5543C64.0986 38.9477 64.1567 38.2945 64.0478 37.6587C63.939 37.0229 63.6669 36.4262 63.2583 35.9271C62.8497 35.4279 62.3186 35.0434 61.7168 34.811Z" fill="#644E77"/>
<path d="M62.2892 41.12H62.2739H58.4702L58.4395 41.1016L62.2892 41.12Z" fill="white"/>
<path d="M64.591 2.12954L59.0825 1.76025H61.2613L64.591 1.9849V2.12954Z" fill="#644E77"/>
<path d="M61.717 34.8113C61.287 34.6452 60.8301 34.5597 60.3691 34.559V34.5098H61.7847H61.8278C62.0322 34.5889 62.2298 34.6846 62.4187 34.796L61.717 34.8113Z" fill="#644E77"/>
<path d="M62.2738 41.1294C61.7113 41.5065 61.0493 41.7078 60.372 41.7078C59.6948 41.7078 59.0328 41.5065 58.4702 41.1294H62.2738Z" fill="white"/>
<path d="M55.3926 34.5098C55.9758 33.7448 56.7277 33.1247 57.5897 32.6977C58.4517 32.2707 59.4006 32.0483 60.3625 32.0479C60.6467 32.0474 60.9305 32.067 61.2119 32.1063C62.0258 32.2107 62.8109 32.4759 63.5215 32.8864C64.2321 33.2968 64.8539 33.8445 65.351 34.4974H61.7812C60.8694 34.1559 59.8649 34.1559 58.9531 34.4974L55.3926 34.5098Z" fill="#DEDFE0"/>
<path d="M57.0579 39.1384L56.7501 39.2184C56.6047 38.6512 56.5943 38.0578 56.7199 37.4859C56.8455 36.914 57.1036 36.3796 57.4733 35.9256L57.7103 36.1225C57.7943 36.0204 57.8847 35.9238 57.9811 35.8333L58.1288 35.6948C58.178 35.6517 58.2304 35.6117 58.2888 35.5686C58.5431 35.3729 58.8239 35.2144 59.1228 35.0978C59.876 34.8067 60.7078 34.7913 61.4712 35.0543C62.2346 35.3173 62.8804 35.8418 63.2944 36.5351C63.7084 37.2283 63.864 38.0456 63.7336 38.8424C63.6032 39.6393 63.1952 40.3643 62.5818 40.8894L62.431 41.0125L62.2771 41.1202H58.4273C58.3199 41.0488 58.2172 40.9707 58.1196 40.8863C57.9391 40.7323 57.7761 40.5589 57.6334 40.3693C57.6026 40.3262 57.5687 40.2862 57.5256 40.2155C57.5003 40.1818 57.4767 40.1469 57.4549 40.1108L57.4395 40.0893C57.3011 39.8641 57.1895 39.6234 57.1071 39.3723C57.0979 39.2892 57.0763 39.2122 57.0579 39.1384Z" fill="white"/>
<path d="M57.5037 41.1294C57.5776 41.2063 57.6545 41.2771 57.7314 41.3448C58.4328 41.9476 59.3193 42.2921 60.2436 42.3212C61.1679 42.3504 62.0743 42.0623 62.8122 41.5048C62.8768 41.4556 62.9414 41.4033 62.9968 41.354C63.0809 41.2847 63.1601 41.2097 63.2338 41.1294H65.9357C65.3694 42.2512 64.4754 43.1742 63.3723 43.7759C61.4304 43.7236 59.3409 43.6775 57.1313 43.6375C56.4596 43.2339 55.8715 42.7053 55.3988 42.0803C55.1726 41.7813 54.9728 41.4631 54.8018 41.1294H57.5037Z" fill="#DEDFE0"/>
<path d="M61.7171 34.8115H59.0244C59.8904 34.475 60.8511 34.475 61.7171 34.8115Z" fill="#644E77"/>
<path d="M59.3716 11.6851H77.4142L76.9526 11.6881L76.9557 12.1467H59.3747L59.3716 11.6851Z" fill="#644E77"/>
<path d="M58.9622 20.1075L58.916 12.1463H59.3776L59.4238 20.1044H77.0172L76.9587 12.1401H77.4203L77.4788 20.0952C77.4796 20.1564 77.4683 20.2173 77.4455 20.2742C77.4227 20.3311 77.3888 20.3829 77.3459 20.4266C77.303 20.4704 77.2519 20.5052 77.1955 20.5292C77.139 20.5531 77.0784 20.5656 77.0172 20.566H59.4207C59.2993 20.5652 59.1832 20.5166 59.0974 20.4308C59.0116 20.345 58.963 20.2288 58.9622 20.1075Z" fill="#644E77"/>
<path d="M58.9565 34.5096C59.8683 34.168 60.8729 34.168 61.7847 34.5096H58.9565Z" fill="#644E77"/>
<path d="M59.3748 12.1467H58.9132L58.9102 11.6851H59.3718L59.3748 12.1467Z" fill="#644E77"/>
<path d="M58.5007 20.1075L58.4546 12.1463H58.9162L58.9624 20.1075C58.9619 20.1681 58.9735 20.2282 58.9963 20.2844C59.0191 20.3405 59.0528 20.3917 59.0954 20.4348C59.138 20.478 59.1886 20.5123 59.2445 20.5359C59.3003 20.5594 59.3603 20.5718 59.4209 20.5722H77.0173C77.0786 20.5718 77.1392 20.5593 77.1956 20.5353C77.2521 20.5114 77.3032 20.4766 77.3461 20.4328C77.389 20.3891 77.4228 20.3372 77.4456 20.2804C77.4684 20.2235 77.4798 20.1626 77.4789 20.1013L77.4205 12.1463H77.839V11.6816H77.879L77.9405 20.0983C77.9405 20.3431 77.8433 20.5779 77.6701 20.7511C77.497 20.9242 77.2622 21.0215 77.0173 21.0215H59.4209C59.1782 21.0207 58.9455 20.9243 58.7733 20.7533C58.6011 20.5822 58.5032 20.3502 58.5007 20.1075Z" fill="#644E77"/>
<path d="M58.3252 34.8116C58.512 34.6984 58.7087 34.6026 58.913 34.5254H58.9561H60.3686V34.5715C59.9086 34.5718 59.4526 34.6574 59.0238 34.8239L58.3252 34.8116Z" fill="#644E77"/>
<path d="M58.9129 12.1462H58.4513L58.4482 11.583H59.3715V11.6846H58.9098L58.9129 12.1462Z" fill="#644E77"/>
<path d="M58.4512 12.1464H55.377V11.2231H77.8357V11.6817L77.4141 11.6848H59.3714V11.5832H58.4482L58.4512 12.1464Z" fill="#644E77"/>
<path d="M58.4701 41.1293H57.9654L57.9438 41.1108H58.4485L58.4701 41.1293Z" fill="#644E77"/>
<path d="M62.6306 41.2556C61.9538 41.7707 61.1213 42.039 60.2711 42.016C59.4209 41.9931 58.6041 41.6802 57.9561 41.1294H58.47C59.0326 41.5065 59.6945 41.7078 60.3718 41.7078C61.0491 41.7078 61.711 41.5065 62.2736 41.1294H62.7845C62.7352 41.1725 62.686 41.2156 62.6306 41.2556Z" fill="#644E77"/>
<path d="M57.7316 41.3414C57.6547 41.2737 57.5778 41.2029 57.5039 41.126H57.9655C58.6135 41.6768 59.4304 41.9897 60.2806 42.0126C61.1308 42.0356 61.9633 41.7672 62.64 41.2522C62.6954 41.2121 62.7447 41.1691 62.7939 41.126H63.2432C63.1695 41.2062 63.0903 41.2813 63.0063 41.3506C62.9509 41.3999 62.8862 41.4522 62.8216 41.5014C62.0837 42.0588 61.1773 42.3469 60.253 42.3178C59.3287 42.2887 58.4422 41.9441 57.7409 41.3414H57.7316Z" fill="#644E77"/>
<path d="M57.1313 43.6372C59.3409 43.6772 61.4397 43.7234 63.3723 43.7757C62.4112 44.3019 61.3287 44.5662 60.2333 44.5419C59.1378 44.5176 58.0681 44.2056 57.1313 43.6372Z" fill="#DEDFE0"/>
<path d="M57.9659 41.1293H57.5043L57.4858 41.1108H57.9351L57.9659 41.1293Z" fill="#644E77"/>
<path d="M57.4858 35.9254C57.5758 35.817 57.6725 35.7142 57.7751 35.6176L57.8336 35.5623L57.9382 35.4669C57.9936 35.4176 58.0521 35.3715 58.1136 35.3253C58.3955 35.112 58.7064 34.94 59.0368 34.8145H61.7295C62.3313 35.0468 62.8625 35.4313 63.2711 35.9305C63.6797 36.4296 63.9517 37.0263 64.0606 37.6621C64.1694 38.2979 64.1114 38.9511 63.8921 39.5578C63.6729 40.1644 63.2999 40.7038 62.8097 41.1231H62.3019L62.4558 41.0154L62.6066 40.8923C63.2713 40.3252 63.6936 39.5251 63.7869 38.6564C63.8802 37.7876 63.6373 36.9161 63.1082 36.2208C62.6586 35.6301 62.0293 35.2015 61.3149 34.9995C60.6006 34.7974 59.84 34.833 59.1476 35.1007C58.8487 35.2173 58.5679 35.3758 58.3137 35.5715C58.2552 35.6146 58.2029 35.6546 58.1536 35.6977L58.0059 35.8361C57.9095 35.9267 57.8191 36.0233 57.7351 36.1254L57.4858 35.9254Z" fill="#644E77"/>
<path d="M57.5656 35.3896C57.6148 35.3403 57.6733 35.285 57.7379 35.2296L57.9287 35.0757C58.0555 34.9794 58.1881 34.891 58.3257 34.811H59.0243C58.6938 34.9366 58.383 35.1086 58.1011 35.3219C58.0395 35.368 57.9811 35.4142 57.9257 35.4634L57.821 35.5588L57.7626 35.6142C57.6599 35.7108 57.5633 35.8135 57.4733 35.922L57.2363 35.725C57.339 35.6064 57.449 35.4944 57.5656 35.3896Z" fill="#644E77"/>
<path d="M57.5037 41.1296H54.8018C54.8018 41.1296 54.8018 41.1142 54.8018 41.105H57.4975L57.5037 41.1296Z" fill="#DEDFE0"/>
<path d="M64.5908 2.2837L56.6851 1.75439H57.3005H59.0793L64.5878 2.12368L64.5908 2.2837Z" fill="#644E77"/>
<path d="M64.4616 43.8034C63.2354 44.7129 61.7413 45.1881 60.215 45.1541C58.6887 45.1202 57.2172 44.5789 56.0327 43.6157L57.1313 43.6342C58.0681 44.2025 59.1378 44.5145 60.2333 44.5388C61.3287 44.5631 62.4112 44.2989 63.3723 43.7727L64.4616 43.8034Z" fill="#644E77"/>
<path d="M57.4854 41.1107H54.7896C54.7466 41.0276 54.7066 40.9414 54.6665 40.8552C54.2564 39.9421 54.0719 38.9437 54.1287 37.9442C54.1855 36.9448 54.4818 35.9737 54.9928 35.1129C55.0395 35.0271 55.0909 34.9439 55.1466 34.8636L55.1712 34.8267H58.3194C58.1817 34.9066 58.0492 34.995 57.9224 35.0913L57.7316 35.2452C57.667 35.3006 57.6085 35.356 57.5593 35.4052C57.4499 35.5117 57.3472 35.6247 57.2515 35.7437L57.4885 35.9407C57.1188 36.3947 56.8607 36.9291 56.7351 37.501C56.6095 38.0729 56.6198 38.6663 56.7653 39.2335L56.4576 39.3135C56.4822 39.3996 56.5099 39.492 56.5376 39.572C56.6339 39.871 56.7662 40.1573 56.9315 40.4244L56.95 40.449L57.03 40.569C57.07 40.6306 57.11 40.6891 57.1561 40.7506C57.259 40.8767 57.369 40.9969 57.4854 41.1107Z" fill="#DEDFE0"/>
<path d="M56.7622 39.2182L57.0699 39.1382C57.0884 39.212 57.1099 39.289 57.1346 39.3628C57.217 39.614 57.3285 39.8546 57.4669 40.0799L57.4823 40.1014C57.5041 40.1375 57.5277 40.1724 57.5531 40.206C57.5962 40.2768 57.63 40.3168 57.6608 40.3599C57.8035 40.5495 57.9666 40.7228 58.147 40.8769C58.2446 40.9612 58.3474 41.0393 58.4548 41.1108H57.9347C57.739 40.9421 57.5616 40.7533 57.4054 40.5476C57.3657 40.4973 57.3287 40.4449 57.2946 40.3907C57.2577 40.3414 57.2269 40.2922 57.193 40.2399C57.0421 39.9958 56.9212 39.7344 56.833 39.4613C56.8053 39.3813 56.7837 39.3013 56.7622 39.2182Z" fill="#644E77"/>
<path d="M56.7625 39.2183C56.7841 39.3014 56.8056 39.3814 56.8333 39.4614C56.9215 39.7345 57.0424 39.9959 57.1934 40.2399C57.2272 40.2923 57.258 40.3415 57.2949 40.3907C57.329 40.445 57.366 40.4974 57.4057 40.5477C57.5619 40.7534 57.7394 40.9422 57.935 41.1108H57.4857C57.3699 40.9921 57.2609 40.8667 57.1595 40.7354C57.1133 40.6739 57.0733 40.6154 57.0333 40.5538L56.9533 40.4338L56.9349 40.4092C56.7695 40.1421 56.6372 39.8558 56.5409 39.5568C56.5133 39.4768 56.4856 39.3844 56.4609 39.2983L56.7625 39.2183Z" fill="#644E77"/>
<path d="M61.2609 1.75158L54.3184 1.2869C55.3085 1.13253 56.3125 1.0861 57.3127 1.14842C58.4605 1.14842 60.6978 1.14842 63.2243 1.12995H64.8984L72.3056 1.0961L75.3553 1.07764V1.69311H74.3244V1.3546H73.7089V1.69619H72.3026L65.2 1.72696V1.41923H64.5845V1.72696H63.2212L61.2609 1.75158Z" fill="#644E77"/>
<path d="M59.3657 45.7054C57.7528 45.4914 56.2551 44.7529 55.1035 43.6035L56.0267 43.6189C57.2112 44.582 58.6827 45.1233 60.209 45.1573C61.7353 45.1913 63.2295 44.7161 64.4557 43.8066L65.3789 43.8343C65.2219 43.982 65.0711 44.1144 64.8927 44.2436C63.5972 45.2398 62.0092 45.7807 60.3751 45.7823C60.0373 45.779 59.7001 45.7533 59.3657 45.7054Z" fill="#644E77"/>
<path d="M55.3927 34.5098H58.9563H58.9132C58.7089 34.587 58.5122 34.6828 58.3254 34.796H55.1772C55.2449 34.7067 55.3157 34.6082 55.3927 34.5098Z" fill="#DEDFE0"/>
<path d="M54.9155 11.6848V11.2231H55.3771V12.1464H54.9155V11.6848Z" fill="#644E77"/>
<path d="M54.6388 34.5098H55.3928C55.3159 34.6082 55.2451 34.7067 55.1774 34.8175H54.605V34.5713C54.6148 34.55 54.6261 34.5295 54.6388 34.5098Z" fill="#644E77"/>
<path d="M54.9065 42.4496C54.595 42.0406 54.3308 41.5977 54.1187 41.1294H54.8018C54.9729 41.4631 55.1726 41.7813 55.3988 42.0803C55.8716 42.7053 56.4597 43.2339 57.1314 43.6375L56.0328 43.619C55.6125 43.275 55.2345 42.8824 54.9065 42.4496Z" fill="#644E77"/>
<path d="M55.3926 34.51H54.6387C55.0628 33.8632 55.5947 33.2939 56.2112 32.8267C57.66 31.7225 59.488 31.2391 61.2932 31.4826C63.0984 31.7261 64.7329 32.6768 65.8372 34.1254C65.9326 34.2515 66.025 34.3808 66.1081 34.51H65.351C64.8548 33.8554 64.2333 33.306 63.5227 32.8939C62.8121 32.4818 62.0266 32.2152 61.2119 32.1097C60.9305 32.0703 60.6467 32.0508 60.3626 32.0512C59.4006 32.0517 58.4517 32.274 57.5897 32.701C56.7277 33.128 55.9759 33.7481 55.3926 34.5131V34.51Z" fill="#644E77"/>
<path d="M54.8018 41.1293H54.1187V41.1016H54.8018C54.8018 41.1016 54.7988 41.12 54.8018 41.1293Z" fill="#644E77"/>
<path d="M54.6384 34.5098C54.6262 34.5263 54.615 34.5435 54.605 34.5614V34.5098H54.6384Z" fill="#644E77"/>
<path d="M54.4512 34.8118C54.4973 34.7287 54.5496 34.6425 54.605 34.5625V34.8118H54.4512Z" fill="#644E77"/>
<path d="M54.063 35.5804C54.0845 35.5281 54.1061 35.4757 54.1307 35.4265H54.4384V34.811H54.5923V35.5804H54.063Z" fill="#644E77"/>
<path d="M54.605 34.5717C54.5496 34.6517 54.4973 34.7378 54.4512 34.8209V34.5132H54.605V34.5717Z" fill="#644E77"/>
<path d="M54.4543 12.1465L54.4389 20.1107L46.8193 20.0984V12.1465H54.4543Z" fill="#DEDFE0"/>
<path d="M54.4512 34.5098H54.2974V34.8113H54.4512V34.5098Z" fill="#644E77"/>
<path d="M54.4512 34.811C54.3989 34.9034 54.3466 34.9957 54.2974 35.088V34.811H54.4512Z" fill="#644E77"/>
<path d="M54.6052 34.0424H54.2144C54.66 33.3898 55.2088 32.814 55.8392 32.3375C56.6207 31.7416 57.5119 31.3055 58.462 31.0541C59.4121 30.8027 60.4024 30.7409 61.3764 30.8724C62.3503 31.0039 63.2888 31.3259 64.1382 31.8202C64.9877 32.3145 65.7314 32.9713 66.3269 33.7531C66.4346 33.8947 66.5331 34.0362 66.6347 34.1778V34.1963H66.2931V34.504H66.1053C66.0223 34.3748 65.9299 34.2455 65.8345 34.1193C64.7302 32.6707 63.0957 31.7201 61.2905 31.4766C59.4853 31.233 57.6572 31.7165 56.2085 32.8207C55.592 33.2878 55.0601 33.8572 54.636 34.504H54.6021L54.6052 34.0424Z" fill="#644E77"/>
<path d="M59.0822 1.76054L53.8906 1.41279C54.0289 1.35724 54.1721 1.31499 54.3184 1.28662L61.2609 1.7513L59.0822 1.76054Z" fill="#644E77"/>
<path d="M54.2971 35.0884V35.273H54.2017C54.2324 35.2115 54.2724 35.1499 54.2971 35.0884Z" fill="#644E77"/>
<path d="M54.1099 34.1958H54.4514V34.5035H54.2976V34.3435H54.0083L54.1099 34.1958Z" fill="#644E77"/>
<path d="M53.9157 34.5098H54.2973V34.8175H53.7495C53.8018 34.7098 53.8572 34.6082 53.9157 34.5098Z" fill="#644E77"/>
<path d="M54.2974 35.2726V35.088C54.3467 34.9957 54.399 34.9034 54.4513 34.811V35.4265H54.1436C54.1651 35.3742 54.1897 35.325 54.2143 35.2726H54.2974Z" fill="#644E77"/>
<path d="M54.2019 35.2726H53.5249C53.5957 35.1157 53.6695 34.9649 53.7495 34.811H54.2973V35.088C54.2727 35.1495 54.2327 35.2111 54.2019 35.2726Z" fill="#644E77"/>
<path d="M53.5247 35.2729H54.2018C54.1771 35.3253 54.1525 35.3745 54.131 35.4268H53.457C53.4817 35.3745 53.5032 35.3253 53.5247 35.2729Z" fill="#644E77"/>
<path d="M54.1278 34.1682C54.1555 34.1251 54.1832 34.082 54.214 34.042H54.6048V34.5098H54.451V34.202H54.1094L54.1278 34.1682Z" fill="#644E77"/>
<path d="M54.1066 41.1012C53.7164 40.2344 53.511 39.2958 53.5036 38.3453C53.4962 37.3948 53.6869 36.4531 54.0635 35.5804H54.6051V34.811H55.1775L55.1529 34.848C55.0972 34.9282 55.0458 35.0115 54.999 35.0972C54.4881 35.9581 54.1917 36.9292 54.1349 37.9286C54.0782 38.928 54.2626 39.9265 54.6728 40.8396C54.7128 40.9258 54.7528 41.0119 54.7959 41.095L54.1066 41.1012Z" fill="#644E77"/>
<path d="M53.4569 35.4268H54.1309C54.1062 35.476 54.0847 35.5283 54.0632 35.5806H53.3984C53.4169 35.5283 53.4384 35.4945 53.4569 35.4268Z" fill="#644E77"/>
<path d="M54.0569 2.01535C54.1185 1.97842 54.5616 1.73223 56.685 1.75377L64.5908 2.28308V2.74469L54.0508 2.03997V2.02151L54.0569 2.01535Z" fill="#644E77"/>
<path d="M54.4175 42.822C54.0726 42.3666 53.7794 41.8743 53.5435 41.354C53.5096 41.2802 53.4789 41.2033 53.4512 41.1294H54.119C54.558 42.0949 55.2129 42.9466 56.0331 43.619L55.1099 43.6036C54.8613 43.3593 54.63 43.0982 54.4175 42.822Z" fill="#644E77"/>
<path d="M54.2971 34.5097H53.9155C53.9401 34.4635 53.9678 34.4143 54.0017 34.3589H54.291L54.2971 34.5097Z" fill="#644E77"/>
<path d="M53.8911 1.4126L59.0826 1.76034H57.3039H56.6884L53.6572 1.548C53.7286 1.4924 53.8073 1.44684 53.8911 1.4126Z" fill="#644E77"/>
<path d="M54.1091 1.88021L53.4937 1.83097C53.4983 1.77535 53.5146 1.72135 53.5417 1.67254C53.5688 1.62373 53.6059 1.58123 53.6506 1.54785L56.6849 1.75404C54.5615 1.73249 54.1184 1.97868 54.0568 2.01561C54.0886 1.97739 54.1069 1.92984 54.1091 1.88021Z" fill="#644E77"/>
<path d="M54.0633 35.5806C53.6867 36.4533 53.4961 37.395 53.5035 38.3455C53.5109 39.296 53.7162 40.2346 54.1064 41.1014V41.1291H53.4386C52.7089 39.3582 52.6902 37.3741 53.3863 35.5898L54.0633 35.5806Z" fill="#644E77"/>
<path d="M46.822 12.1467V20.1078H54.4415V12.1436L46.822 12.1467ZM46.3604 11.6851H54.9155V20.1078C54.9155 20.2335 54.8655 20.3541 54.7767 20.443C54.6878 20.5318 54.5672 20.5818 54.4415 20.5818H46.8343C46.7086 20.5818 46.588 20.5318 46.4992 20.443C46.4103 20.3541 46.3604 20.2335 46.3604 20.1078V11.6851Z" fill="#644E77"/>
<path d="M46.3572 11.3774V11.6852V11.9929H45.9141V11.3774H46.3572Z" fill="#644E77"/>
<path d="M46.3609 20.1077C46.3609 20.2334 46.4108 20.354 46.4997 20.4428C46.5886 20.5317 46.7091 20.5816 46.8348 20.5816H54.4421C54.5678 20.5816 54.6883 20.5317 54.7772 20.4428C54.8661 20.354 54.916 20.2334 54.916 20.1077V12.1465H55.3776V20.1077C55.3776 20.3526 55.2804 20.5874 55.1072 20.7605C54.9341 20.9337 54.6993 21.0309 54.4544 21.0309H46.8348C46.59 21.0309 46.3552 20.9337 46.182 20.7605C46.0089 20.5874 45.9116 20.3526 45.9116 20.1077V11.9927H46.3732L46.3609 20.1077Z" fill="#644E77"/>
<path d="M54.9158 11.6848H46.3576V11.377H45.9145V11.9925H45.896V11.2231H54.9158V11.6848Z" fill="#644E77"/>
<path d="M36.9345 13.6083C36.6301 13.6083 36.3381 13.7292 36.1228 13.9445C35.9076 14.1597 35.7866 14.4517 35.7866 14.7561V12.9313C35.7985 12.6945 35.901 12.4714 36.0728 12.3081C36.2447 12.1448 36.4728 12.0539 36.7098 12.0542H42.4553C42.6939 12.054 42.9233 12.1462 43.0954 12.3114C43.2675 12.4766 43.369 12.7021 43.3785 12.9405V27.9242H43.2062V14.7561C43.2062 14.4517 43.0852 14.1597 42.87 13.9445C42.6547 13.7292 42.3627 13.6083 42.0583 13.6083H36.9345Z" fill="white"/>
<path d="M43.231 27.9243H43.4033V31.2756C43.4026 31.4591 43.3421 31.6374 43.231 31.7833V27.9243Z" fill="white"/>
<path d="M43.2307 27.9243V31.7833C43.1411 31.9003 43.0255 31.9948 42.893 32.0595C42.7606 32.1241 42.6149 32.157 42.4675 32.1557H36.7313C36.4938 32.156 36.2652 32.0646 36.0933 31.9007C35.9213 31.7368 35.8192 31.5129 35.8081 31.2756V27.9243H43.2307Z" fill="white"/>
<path d="M43.0278 32.725C43.1611 32.5337 43.232 32.3058 43.2309 32.0726V31.7649C43.3421 31.6189 43.4026 31.4406 43.4033 31.2571V27.9243H44.0895V31.2663C44.0863 31.5897 43.9823 31.9041 43.792 32.1655C43.6017 32.427 43.3346 32.6226 43.0278 32.725Z" fill="#644E77"/>
<path d="M41.8096 24.6839V23.0621C41.8096 22.9805 41.842 22.9022 41.8997 22.8445C41.9574 22.7868 42.0357 22.7544 42.1173 22.7544C42.1989 22.7544 42.2772 22.7868 42.3349 22.8445C42.3926 22.9022 42.425 22.9805 42.425 23.0621V24.6839C42.425 24.7655 42.3926 24.8438 42.3349 24.9015C42.2772 24.9592 42.1989 24.9916 42.1173 24.9916C42.0357 24.9916 41.9574 24.9592 41.8997 24.9015C41.842 24.8438 41.8096 24.7655 41.8096 24.6839Z" fill="#644E77"/>
<path d="M42.0829 13.6084C42.3874 13.6084 42.6793 13.7293 42.8946 13.9446C43.1099 14.1599 43.2308 14.4518 43.2308 14.7563V27.9244H35.7866V14.7563C35.7866 14.4518 35.9076 14.1599 36.1228 13.9446C36.3381 13.7293 36.6301 13.6084 36.9345 13.6084H42.0829ZM42.4245 24.687V23.0621C42.4245 22.9805 42.3921 22.9022 42.3344 22.8445C42.2767 22.7868 42.1984 22.7544 42.1168 22.7544C42.0352 22.7544 41.9569 22.7868 41.8992 22.8445C41.8415 22.9022 41.8091 22.9805 41.8091 23.0621V24.6839C41.8091 24.7655 41.8415 24.8438 41.8992 24.9015C41.9569 24.9592 42.0352 24.9916 42.1168 24.9916C42.1984 24.9916 42.2767 24.9592 42.3344 24.9015C42.3921 24.8438 42.4245 24.7655 42.4245 24.6839V24.687Z" fill="white"/>
<path d="M42.0832 34.0421H33.2019C33.148 34.0421 33.0964 34.0207 33.0583 33.9827C33.0202 33.9446 32.9988 33.8929 32.9988 33.839L32.9834 27.9243H35.1006V31.2756C35.1028 31.5544 35.1807 31.8273 35.326 32.0652C35.4712 32.3032 35.6784 32.4972 35.9254 32.6265C36.0247 32.8074 36.1707 32.9582 36.3483 33.0633C36.5259 33.1683 36.7284 33.2237 36.9347 33.2236H42.0832V34.0421Z" fill="white"/>
<path d="M36.9347 33.2264C36.7284 33.2265 36.5258 33.1711 36.3482 33.0661C36.1707 32.9611 36.0246 32.8102 35.9253 32.6294C36.1696 32.7627 36.444 32.8316 36.7223 32.8294H42.4678C42.6588 32.83 42.8485 32.7967 43.0279 32.7309C42.9223 32.8838 42.7811 33.0088 42.6166 33.0951C42.452 33.1814 42.2689 33.2265 42.0831 33.2264H36.9347Z" fill="white"/>
<path d="M36.7314 32.8293C36.4531 32.8315 36.1787 32.7626 35.9344 32.6293C35.8429 32.4612 35.7953 32.2728 35.7959 32.0815V31.2783C35.807 31.5156 35.9091 31.7395 36.0811 31.9035C36.253 32.0674 36.4816 32.1587 36.7191 32.1585H42.4646C42.6119 32.1598 42.7576 32.1268 42.89 32.0622C43.0225 31.9976 43.1381 31.903 43.2278 31.7861V32.0938C43.2289 32.327 43.1579 32.5549 43.0247 32.7462C42.8453 32.812 42.6556 32.8453 42.4646 32.8447L36.7314 32.8293Z" fill="#644E77"/>
<path d="M35.1006 12.9315C35.1054 12.7223 35.1514 12.5161 35.236 12.3247C35.3206 12.1333 35.4422 11.9605 35.5937 11.8161C35.7452 11.6717 35.9237 11.5587 36.1189 11.4834C36.3142 11.4082 36.5224 11.3721 36.7316 11.3775H42.4771C42.898 11.3692 43.3051 11.5281 43.609 11.8194C43.913 12.1107 44.0891 12.5106 44.0988 12.9315V27.9245H43.4126V12.9408C43.403 12.7024 43.3016 12.4769 43.1295 12.3117C42.9573 12.1465 42.728 12.0543 42.4894 12.0545H36.7316C36.4945 12.0542 36.2664 12.1451 36.0946 12.3084C35.9227 12.4716 35.8202 12.6948 35.8084 12.9315V27.9245H35.1006V12.9315Z" fill="#644E77"/>
<path d="M35.9253 32.6265C35.6784 32.4972 35.4712 32.3032 35.3259 32.0652C35.1807 31.8273 35.1028 31.5544 35.1006 31.2756V27.9243H35.7868V32.0788C35.7862 32.2701 35.8339 32.4585 35.9253 32.6265Z" fill="#644E77"/>
<path d="M32.9984 33.839C32.9984 33.8929 33.0198 33.9446 33.0578 33.9827C33.0959 34.0207 33.1476 34.0421 33.2015 34.0421H54.2138C54.183 34.0821 54.1553 34.1252 54.1276 34.1683L54.1092 34.196H33.2015C33.1073 34.196 33.017 34.1588 32.9501 34.0925C32.8833 34.0263 32.8453 33.9363 32.8445 33.8421L32.8291 27.9243H32.983L32.9984 33.839Z" fill="#644E77"/>
<path d="M33.202 34.3499C33.0671 34.3499 32.9376 34.2965 32.8419 34.2013C32.7462 34.1062 32.692 33.9771 32.6912 33.8421L32.6758 27.9243H32.8297L32.845 33.8421C32.8458 33.9363 32.8838 34.0263 32.9507 34.0925C33.0175 34.1588 33.1079 34.196 33.202 34.196H54.1097L54.0082 34.3499H33.202Z" fill="#644E77"/>
<path d="M53.9159 34.5099H32.2666V27.9243H32.6759L32.6913 33.8421C32.6921 33.9771 32.7463 34.1062 32.842 34.2013C32.9377 34.2965 33.0672 34.3499 33.2021 34.3499H54.0083C53.9744 34.4053 53.9467 34.4545 53.9221 34.5007L53.9159 34.5099Z" fill="#644E77"/>
<path d="M32.2663 34.5101H53.9156C53.8571 34.6086 53.8018 34.7101 53.7494 34.8178H32.2324V27.9307H32.2817L32.2663 34.5101Z" fill="#644E77"/>
<path d="M32.2659 14.7835C32.2666 14.3986 32.1189 14.0283 31.8535 13.7495C32.1047 13.9752 32.3052 14.2514 32.4421 14.5601C32.5789 14.8688 32.6489 15.2029 32.6475 15.5405L32.6752 27.9239H32.2659V14.7835Z" fill="#644E77"/>
<path d="M31.8291 13.7251C31.8388 13.7317 31.8471 13.74 31.8537 13.7497L31.8291 13.7251Z" fill="#644E77"/>
<path d="M31.4014 13.4204C31.5411 13.4849 31.669 13.5722 31.7799 13.6789C31.6627 13.5803 31.5359 13.4937 31.4014 13.4204Z" fill="#644E77"/>
<path d="M30.2689 14.3589H19.4058C19.446 14.2997 19.4959 14.2477 19.5535 14.2051H30.2689C30.6188 14.2108 30.9522 14.3548 31.1961 14.6057C31.4401 14.8565 31.5747 15.1938 31.5706 15.5437L31.6168 35.002C31.6168 35.058 31.6279 35.1135 31.6494 35.1652C31.6709 35.2169 31.7025 35.2639 31.7423 35.3034C31.782 35.3429 31.8292 35.3741 31.8811 35.3952C31.933 35.4164 31.9885 35.4271 32.0446 35.4267H53.4569C53.4385 35.479 53.4169 35.5282 53.3985 35.5805H32.0446C31.8908 35.5805 31.7434 35.5197 31.6344 35.4113C31.5254 35.3029 31.4637 35.1557 31.4629 35.002L31.4168 15.5437C31.4209 15.2346 31.3024 14.9365 31.0873 14.7145C30.8722 14.4924 30.578 14.3646 30.2689 14.3589Z" fill="#644E77"/>
<path d="M29.5179 23.4312H29.5549C29.6365 23.4312 29.7148 23.4636 29.7725 23.5213C29.8302 23.579 29.8626 23.6573 29.8626 23.7389C29.8626 23.8205 29.8302 23.8988 29.7725 23.9565C29.7148 24.0142 29.6365 24.0466 29.5549 24.0466H29.0933V23.7727L29.1917 23.7389C29.3317 23.6755 29.4465 23.5672 29.5179 23.4312Z" fill="#644E77"/>
<path d="M29.5179 23.4312C29.4465 23.5672 29.3317 23.6755 29.1917 23.7389H29.0933V23.4312H29.5179Z" fill="#644E77"/>
<path d="M29.1917 23.7393L29.0933 23.7731V23.7393H29.1917Z" fill="#644E77"/>
<path d="M29.0935 24.0469V31.3741C29.0927 31.5564 29.0197 31.7309 28.8905 31.8596C28.7614 31.9882 28.5865 32.0604 28.4042 32.0604H22.0217C21.891 32.0555 21.7641 32.0144 21.6554 31.9416C21.5467 31.8687 21.4604 31.7671 21.4062 31.648C20.8611 30.3916 19.8763 29.3773 18.6366 28.7953C18.5417 28.7486 18.4622 28.6757 18.4076 28.5851C18.353 28.4945 18.3257 28.3901 18.3289 28.2844V24.0469H29.0935ZM28.478 24.9916H27.0717C27.0258 24.9783 26.9775 24.9757 26.9305 24.9843C26.8835 24.9928 26.8391 25.0122 26.8009 25.0409C26.7627 25.0695 26.7316 25.1067 26.7103 25.1494C26.6889 25.1922 26.6778 25.2393 26.6778 25.2871C26.6778 25.3348 26.6889 25.3819 26.7103 25.4247C26.7316 25.4674 26.7627 25.5046 26.8009 25.5332C26.8391 25.5619 26.8835 25.5813 26.9305 25.5898C26.9775 25.5984 27.0258 25.5959 27.0717 25.5825H28.478C28.5239 25.5959 28.5723 25.5984 28.6193 25.5898C28.6663 25.5813 28.7106 25.5619 28.7489 25.5332C28.7871 25.5046 28.8181 25.4674 28.8395 25.4247C28.8608 25.3819 28.872 25.3348 28.872 25.2871C28.872 25.2393 28.8608 25.1922 28.8395 25.1494C28.8181 25.1067 28.7871 25.0695 28.7489 25.0409C28.7106 25.0122 28.6663 24.9928 28.6193 24.9843C28.5723 24.9757 28.5239 24.9783 28.478 24.9916Z" fill="white"/>
<path d="M18.646 23.7393H29.1091V23.7731C29.0509 23.7892 28.9909 23.7975 28.9306 23.7977H18.923C18.8276 23.798 18.7332 23.778 18.646 23.7393Z" fill="#644E77"/>
<path d="M28.6533 15.7441H28.7303C28.9583 15.7441 29.177 15.8345 29.3385 15.9954C29.5 16.1564 29.5911 16.3747 29.5919 16.6027V23.1175C29.5914 23.1951 29.5779 23.2721 29.5519 23.3453V16.8058C29.5524 16.551 29.4623 16.3044 29.2977 16.1099C29.1331 15.9154 28.9047 15.7858 28.6533 15.7441Z" fill="#644E77"/>
<path d="M28.4868 24.9913C28.5327 24.9779 28.581 24.9754 28.628 24.984C28.675 24.9925 28.7194 25.0119 28.7576 25.0406C28.7958 25.0692 28.8268 25.1064 28.8482 25.1491C28.8696 25.1918 28.8807 25.239 28.8807 25.2867C28.8807 25.3345 28.8696 25.3816 28.8482 25.4244C28.8268 25.4671 28.7958 25.5043 28.7576 25.5329C28.7194 25.5616 28.675 25.581 28.628 25.5895C28.581 25.5981 28.5327 25.5955 28.4868 25.5822H27.0804C27.0346 25.5955 26.9862 25.5981 26.9392 25.5895C26.8922 25.581 26.8478 25.5616 26.8096 25.5329C26.7714 25.5043 26.7404 25.4671 26.719 25.4244C26.6976 25.3816 26.6865 25.3345 26.6865 25.2867C26.6865 25.239 26.6976 25.1918 26.719 25.1491C26.7404 25.1064 26.7714 25.0692 26.8096 25.0406C26.8478 25.0119 26.8922 24.9925 26.9392 24.984C26.9862 24.9754 27.0346 24.9779 27.0804 24.9913H28.4868Z" fill="#644E77"/>
<path d="M19.6367 14.0513H30.269C30.6597 14.0569 31.0322 14.2172 31.305 14.4969C31.5778 14.7767 31.7287 15.1531 31.7246 15.5438L31.7708 35.0021C31.7707 35.0379 31.7779 35.0733 31.7917 35.1064C31.8055 35.1395 31.8257 35.1695 31.8512 35.1946C31.8766 35.2198 31.9068 35.2397 31.9401 35.2531C31.9733 35.2666 32.0088 35.2733 32.0446 35.2729H53.5247C53.5032 35.3252 53.4816 35.3744 53.457 35.4267H32.0446C31.9886 35.4271 31.9331 35.4165 31.8812 35.3953C31.8293 35.3741 31.7821 35.3429 31.7424 35.3034C31.7026 35.264 31.671 35.217 31.6495 35.1653C31.628 35.1136 31.6169 35.0581 31.6169 35.0021L31.5707 15.5438C31.5748 15.1939 31.4402 14.8566 31.1962 14.6057C30.9523 14.3548 30.6189 14.2108 30.269 14.2051H19.5566L19.6797 14.1097L19.6367 14.0513Z" fill="#644E77"/>
<path d="M30.269 14.051H19.6366L19.2827 13.5894H30.269C30.7818 13.5942 31.2717 13.8024 31.6312 14.1682C31.9907 14.5341 32.1903 15.0276 32.1862 15.5404L32.2169 27.9238V34.8109H53.7493C53.6693 34.9617 53.5955 35.1187 53.5247 35.2726H32.0446C32.0088 35.273 31.9732 35.2663 31.94 35.2528C31.9068 35.2394 31.8766 35.2195 31.8511 35.1943C31.8256 35.1691 31.8054 35.1392 31.7916 35.1061C31.7778 35.073 31.7707 35.0376 31.7707 35.0017L31.7245 15.5435C31.7287 15.1528 31.5778 14.7763 31.305 14.4966C31.0322 14.2169 30.6596 14.0566 30.269 14.051Z" fill="#644E77"/>
<path d="M19.4644 14.079L19.4428 14.0513H19.6367L19.6798 14.1067L19.5567 14.2021H19.332C19.3709 14.1558 19.4154 14.1144 19.4644 14.079Z" fill="#644E77"/>
<path d="M19.2275 14.3589C19.2548 14.3029 19.2901 14.2511 19.3322 14.2051H19.5537C19.4962 14.2477 19.4463 14.2997 19.406 14.3589H19.2275Z" fill="#644E77"/>
<path d="M19.3321 14.2052H19.1382C19.172 14.153 19.2112 14.1045 19.2551 14.0605H19.449L19.4705 14.0882C19.4198 14.1214 19.3732 14.1607 19.3321 14.2052Z" fill="#644E77"/>
<path d="M19.2153 13.5007C19.454 13.3507 19.7305 13.2718 20.0124 13.273H30.7524C30.9749 13.2726 31.1947 13.3221 31.3956 13.4176C31.5301 13.4909 31.6569 13.5775 31.7741 13.6761L31.8233 13.7223L31.848 13.7469C32.1133 14.0256 32.261 14.396 32.2603 14.7809V27.9213H32.2111L32.1803 15.5379C32.1836 15.0267 31.9845 14.5348 31.6265 14.1699C31.2684 13.8049 30.7805 13.5964 30.2693 13.5899H19.283L19.2153 13.5007Z" fill="#644E77"/>
<path d="M19.215 13.5L19.2827 13.5892H19.0889L19.215 13.5Z" fill="#644E77"/>
<path d="M19.4398 14.051L19.0859 13.5894H19.2798L19.6337 14.051H19.4398Z" fill="#644E77"/>
<path d="M19.061 14.3374C19.0836 14.2916 19.1093 14.2474 19.1379 14.2051H19.3318C19.2897 14.2511 19.2544 14.3029 19.2272 14.3589H19.0518L19.061 14.3374Z" fill="#644E77"/>
<path d="M19.2149 13.5008L18.9287 13.1284H30.2688C30.6627 13.1281 31.0502 13.2276 31.3952 13.4177C31.1942 13.3221 30.9745 13.2727 30.752 13.2731H20.0119C19.73 13.2718 19.4536 13.3508 19.2149 13.5008Z" fill="#644E77"/>
<path d="M19.2491 14.051L18.8921 13.5894H19.086L19.4399 14.051H19.2491Z" fill="#644E77"/>
<path d="M18.9285 13.128L18.8115 12.9741H30.2686C30.9447 12.979 31.5912 13.2521 32.066 13.7333C32.5409 14.2145 32.8054 14.8646 32.8013 15.5407L32.829 27.924H32.6751L32.6474 15.5407C32.6488 15.203 32.5788 14.8689 32.442 14.5602C32.3052 14.2515 32.1046 13.9753 31.8534 13.7496C31.8469 13.7399 31.8385 13.7316 31.8288 13.725L31.7796 13.6788C31.6687 13.5722 31.5408 13.4848 31.4011 13.4203C31.0561 13.2303 30.6686 13.1307 30.2748 13.1311L18.9285 13.128Z" fill="#644E77"/>
<path d="M18.7354 13.1284H18.9292L19.2154 13.5008L19.0892 13.59L18.7354 13.1284Z" fill="#644E77"/>
<path d="M19.2488 14.051H18.1748L18.2271 13.9402C18.2874 13.8159 18.3607 13.6983 18.4456 13.5894H18.8826L19.2488 14.051Z" fill="#644E77"/>
<path d="M18.7412 12.8848L18.8089 12.974H18.6304L18.7412 12.8848Z" fill="#644E77"/>
<path d="M18.7131 13.1006L18.7343 13.1279H18.6797L18.7131 13.1006Z" fill="#644E77"/>
<path d="M18.4458 13.59C18.517 13.4923 18.5985 13.4025 18.6889 13.3223L18.8951 13.59H18.4458Z" fill="#644E77"/>
<path d="M18.2676 13.59C18.384 13.4157 18.5261 13.2601 18.6892 13.1284H18.7446L19.0985 13.59H18.8831L18.6769 13.3223C18.5864 13.4025 18.5049 13.4923 18.4338 13.59H18.2676Z" fill="#644E77"/>
<path d="M18.6456 23.7389C18.511 23.6744 18.4024 23.5658 18.3379 23.4312H29.1087V23.7389H18.6456Z" fill="#644E77"/>
<path d="M18.6795 13.1282H18.4487C18.5041 13.0759 18.5626 13.0266 18.6211 12.9805H18.8026L18.9196 13.1343H18.7257L18.7042 13.1066L18.6795 13.1282Z" fill="#644E77"/>
<path d="M18.0703 13.59C18.1749 13.4196 18.3022 13.2643 18.4488 13.1284H18.6796C18.5166 13.2601 18.3744 13.4157 18.258 13.59H18.0703Z" fill="#644E77"/>
<path d="M18.3997 22.9509L21.3756 16.5438C21.4252 16.4381 21.504 16.3486 21.6026 16.2859C21.7013 16.2233 21.8157 16.19 21.9326 16.1899H28.4782C28.512 16.1899 28.5459 16.1899 28.5797 16.1899C28.7248 16.2142 28.8564 16.2896 28.9507 16.4025C29.0449 16.5154 29.0956 16.6583 29.0936 16.8054V23.431H18.3228C18.3138 23.4176 18.3066 23.4032 18.3013 23.3879C18.302 23.2368 18.3356 23.0877 18.3997 22.9509Z" fill="#DEDFE0"/>
<path d="M29.0936 24.0466H18.3013V23.4312H18.3228C18.3873 23.5658 18.4959 23.6744 18.6305 23.7389C18.7177 23.7777 18.8121 23.7976 18.9075 23.7974H28.9151C28.9755 23.7971 29.0355 23.7889 29.0936 23.7727V24.0466Z" fill="#644E77"/>
<path d="M18.3014 23.3883C18.2633 23.3026 18.2437 23.2098 18.2437 23.116C18.2437 23.0222 18.2633 22.9294 18.3014 22.8436L21.1818 16.2581C21.2498 16.105 21.3607 15.975 21.5011 15.8838C21.6414 15.7926 21.8053 15.744 21.9727 15.7441H28.6537C28.9057 15.7851 29.1348 15.9144 29.3 16.109C29.4652 16.3035 29.5558 16.5506 29.5554 16.8058V23.3453C29.5463 23.3753 29.5339 23.4041 29.5185 23.4314H29.0938V16.8058C29.0958 16.6588 29.0451 16.5158 28.9508 16.4029C28.8565 16.29 28.7249 16.2146 28.5799 16.1904C28.546 16.1904 28.5122 16.1904 28.4783 16.1904H21.9327C21.8159 16.1904 21.7014 16.2237 21.6028 16.2863C21.5041 16.349 21.4254 16.4385 21.3757 16.5443L18.3999 22.9514C18.3357 23.0881 18.3021 23.2373 18.3014 23.3883Z" fill="#644E77"/>
<path d="M17.9596 24.0466C17.878 24.0466 17.7997 24.0142 17.742 23.9565C17.6843 23.8988 17.6519 23.8205 17.6519 23.7389C17.6519 23.6573 17.6843 23.579 17.742 23.5213C17.7997 23.4636 17.878 23.4312 17.9596 23.4312H18.3135V24.0466H17.9596Z" fill="#644E77"/>
<path d="M19.1381 14.2051H18.1011L18.1749 14.0513H19.2489C19.2066 14.0985 19.1695 14.15 19.1381 14.2051Z" fill="#644E77"/>
<path d="M18.1011 14.2051H19.1382C19.1096 14.2474 19.0839 14.2916 19.0612 14.3374V14.3589H18.0396L18.1011 14.2051Z" fill="#644E77"/>
<path d="M18.1014 14.2051H17.9321L18.006 14.0513H18.1722L18.1014 14.2051Z" fill="#644E77"/>
<path d="M18.0889 13.8756C18.1377 13.7764 18.1932 13.6808 18.2551 13.5894H18.4459C18.361 13.6983 18.2877 13.8159 18.2274 13.9402L18.1751 14.051H18.0059L18.0889 13.8756Z" fill="#644E77"/>
<path d="M17.9321 14.2051H18.1014L18.0275 14.3589H17.8613L17.9321 14.2051Z" fill="#644E77"/>
<path d="M18.0057 14.051H17.8364L17.9503 13.8078C17.9872 13.734 18.0272 13.6601 18.0703 13.5894H18.2549C18.193 13.6808 18.1375 13.7764 18.0888 13.8756L18.0057 14.051Z" fill="#644E77"/>
<path d="M17.8336 14.0513H18.006L17.9321 14.2051H17.7598L17.8336 14.0513Z" fill="#644E77"/>
<path d="M17.8613 14.3589H17.689L17.7597 14.2051H17.9321L17.8613 14.3589Z" fill="#644E77"/>
<path d="M17.3779 23.3975C17.3793 23.1095 17.4422 22.8252 17.5626 22.5636L20.5384 16.1565C20.662 15.8909 20.8589 15.6661 21.1058 15.5086C21.3527 15.351 21.6395 15.2673 21.9324 15.2671H28.478C28.5615 15.2682 28.6448 15.2754 28.7273 15.2886C29.0871 15.3477 29.4143 15.5327 29.6505 15.8105C29.8866 16.0884 30.0164 16.4411 30.0167 16.8058V23.7391H29.8628C29.8628 23.6575 29.8304 23.5792 29.7727 23.5215C29.715 23.4638 29.6367 23.4314 29.5551 23.4314H29.5182C29.5336 23.4041 29.546 23.3752 29.5551 23.3452C29.5811 23.2721 29.5946 23.1951 29.5951 23.1175V16.6027C29.5943 16.3747 29.5032 16.1563 29.3417 15.9954C29.1802 15.8344 28.9614 15.7441 28.7334 15.7441H21.9601C21.7927 15.744 21.6289 15.7925 21.4885 15.8837C21.3481 15.975 21.2372 16.105 21.1693 16.258L18.2888 22.8436C18.2507 22.9293 18.2311 23.0221 18.2311 23.1159C18.2311 23.2098 18.2507 23.3025 18.2888 23.3883V23.4314H17.9596C17.8779 23.4314 17.7997 23.4638 17.742 23.5215C17.6842 23.5792 17.6518 23.6575 17.6518 23.7391H17.3902L17.3779 23.3975Z" fill="#644E77"/>
<path d="M17.3779 28.2845V23.7393H17.6518C17.6518 23.8209 17.6843 23.8991 17.742 23.9569C17.7997 24.0146 17.878 24.047 17.9596 24.047H18.3135V28.2845C18.3103 28.3903 18.3377 28.4946 18.3922 28.5852C18.4468 28.6758 18.5263 28.7488 18.6212 28.7954C19.8609 29.3775 20.8457 30.3918 21.3908 31.6481C21.445 31.7672 21.5313 31.8689 21.64 31.9417C21.7487 32.0145 21.8756 32.0557 22.0063 32.0605H28.3888C28.5711 32.0605 28.746 31.9883 28.8751 31.8597C29.0043 31.7311 29.0773 31.5565 29.0781 31.3742V24.047H29.5397C29.6214 24.047 29.6996 24.0146 29.7573 23.9569C29.8151 23.8991 29.8475 23.8209 29.8475 23.7393H30.0013V31.3742C30.0005 31.8014 29.8303 32.2107 29.528 32.5125C29.2256 32.8142 28.8159 32.9837 28.3888 32.9837H22.0217C21.7123 32.9812 21.41 32.8908 21.1501 32.7229C20.8902 32.5551 20.6834 32.3168 20.5538 32.0359C20.1029 30.9828 19.2834 30.1305 18.2488 29.6386C17.9883 29.5213 17.7673 29.331 17.6127 29.0906C17.4581 28.8503 17.3766 28.5703 17.3779 28.2845Z" fill="#644E77"/>
<path d="M14.6513 10.1588C14.5728 10.4806 14.5686 10.816 14.639 11.1397C14.7094 11.4633 14.8525 11.7667 15.0576 12.0268C15.2512 12.2744 15.4987 12.4746 15.7814 12.6122C16.064 12.7497 16.3742 12.8211 16.6886 12.8208H30.269C30.9857 12.8265 31.6708 13.116 32.1744 13.6259C32.6779 14.1358 32.9589 14.8245 32.9556 15.5412L32.9833 27.9245H32.8294L32.8017 15.5412C32.8058 14.8651 32.5414 14.215 32.0665 13.7338C31.5916 13.2526 30.9451 12.9795 30.269 12.9746H18.812L18.7443 12.8854L18.6304 12.9746H16.6886C16.3511 12.9751 16.018 12.8985 15.7145 12.7508C15.4111 12.6031 15.1454 12.3881 14.9375 12.1222C14.717 11.8448 14.563 11.5205 14.4872 11.1743C14.4115 10.8281 14.416 10.4692 14.5005 10.125C14.5005 10.0911 14.5005 10.0573 14.5282 10.0234H14.6883C14.6735 10.0679 14.6612 10.1131 14.6513 10.1588Z" fill="#644E77"/>
<path d="M14.6883 10.0231H14.5283C14.5425 9.9708 14.56 9.91941 14.5806 9.86926L16.1193 5.69018C16.3403 5.07348 16.7274 4.52984 17.2378 4.11928C17.7483 3.70873 18.3623 3.44724 19.0121 3.36368L34.3097 1.42186C34.6159 1.38326 34.925 1.37398 35.2329 1.39416L76.162 4.13918C76.6988 4.18297 77.2047 4.40831 77.5962 4.77806C77.9878 5.14782 78.2417 5.63994 78.3162 6.17333L78.8917 10.0231H78.7378L78.1808 6.19487C78.1103 5.69521 77.8715 5.2345 77.504 4.88876C77.1364 4.54302 76.662 4.33289 76.1589 4.29305L35.2298 1.54803C34.9322 1.52846 34.6335 1.53671 34.3374 1.57265L19.0398 3.51448C18.4174 3.59517 17.8294 3.84621 17.3407 4.23991C16.8519 4.63361 16.4815 5.15466 16.2701 5.74557L14.7314 9.92157C14.715 9.9585 14.7007 9.99236 14.6883 10.0231Z" fill="#644E77"/>
<path d="M14.8148 12.2176C14.5801 11.9222 14.4163 11.5768 14.3363 11.2081C14.2563 10.8394 14.262 10.4573 14.3532 10.0911C14.3532 10.0696 14.3532 10.0481 14.3717 10.0234H14.5286C14.5286 10.0573 14.5101 10.0911 14.5009 10.125C14.4164 10.4692 14.4118 10.8281 14.4876 11.1743C14.5633 11.5205 14.7174 11.8448 14.9379 12.1222C15.1457 12.3881 15.4115 12.6031 15.7149 12.7508C16.0183 12.8985 16.3514 12.9751 16.6889 12.9746H18.6307C18.5723 13.0208 18.5138 13.07 18.4584 13.1224H16.6982C16.3361 13.1246 15.9783 13.0443 15.652 12.8875C15.3256 12.7307 15.0393 12.5016 14.8148 12.2176Z" fill="#644E77"/>
<path d="M14.3711 10.0232C14.3883 9.95323 14.4099 9.88436 14.4357 9.81705L15.9744 5.63797C16.2034 4.99335 16.6068 4.425 17.1399 3.99627C17.6729 3.56755 18.3146 3.29531 18.9933 3.20992L34.2879 1.26809C34.6042 1.22799 34.9237 1.21872 35.2419 1.2404L76.171 3.98542C76.7424 4.03023 77.2817 4.26778 77.7004 4.65915C78.1192 5.05051 78.3926 5.5725 78.4759 6.13958L79.0391 10.014H78.8914L78.3313 6.1642C78.2568 5.63081 78.0029 5.13869 77.6113 4.76894C77.2198 4.39918 76.7139 4.17384 76.1771 4.13006L35.248 1.38504C34.9401 1.36486 34.631 1.37413 34.3248 1.41273L19.0272 3.35456C18.3774 3.43811 17.7634 3.6996 17.2529 4.11016C16.7425 4.52071 16.3554 5.06435 16.1344 5.68105L14.5957 9.86013C14.5751 9.91028 14.5576 9.96167 14.5434 10.014L14.3711 10.0232Z" fill="#644E77"/>
<path d="M14.4359 9.81714C14.41 9.88446 14.3885 9.95332 14.3712 10.0233H14.0143L13.9004 9.99563C13.9257 9.88041 13.9597 9.76726 14.0019 9.65712L15.5406 5.47804C15.8014 4.75735 16.2549 4.12202 16.8518 3.64126C17.4487 3.1605 18.166 2.85274 18.9257 2.75148L34.2234 0.809661C34.5684 0.767092 34.9166 0.756789 35.2635 0.778886L53.7832 2.00984L54.0448 2.0283L64.5848 2.73302V2.75764H64.9325L73.7031 3.34542L74.0108 3.36696L76.1988 3.51468C76.8783 3.56405 77.5202 3.84532 78.0171 4.31141C78.514 4.77749 78.8357 5.40011 78.9284 6.07505L78.9654 6.33355L79.5008 10.0264H79.0362L78.473 6.15199C78.3897 5.5849 78.1162 5.06292 77.6975 4.67155C77.2787 4.28019 76.7395 4.04264 76.168 3.99782L35.2389 1.2528C34.9208 1.23112 34.6013 1.2404 34.2849 1.2805L18.9904 3.22232C18.3124 3.3072 17.6712 3.57852 17.1382 4.0061C16.6052 4.43368 16.2013 5.00075 15.9715 5.64422L14.4359 9.81714Z" fill="#644E77"/>
<path d="M14.3531 10.0909C14.262 10.457 14.2562 10.8392 14.3362 11.2079C14.4163 11.5766 14.58 11.922 14.8147 12.2174C15.0364 12.5036 15.3204 12.7354 15.6452 12.8954C15.9699 13.0554 16.3268 13.1392 16.6889 13.1406H18.4491C18.3025 13.2765 18.1751 13.4318 18.0706 13.6022H16.6889C16.2514 13.5977 15.8206 13.4943 15.4287 13.2998C15.0368 13.1053 14.694 12.8247 14.4259 12.479C14.1577 12.1333 13.9712 11.7315 13.8803 11.3036C13.7893 10.8756 13.7963 10.4327 13.9007 10.0078L14.0146 10.0355H14.3716C14.3624 10.0478 14.3593 10.0694 14.3531 10.0909Z" fill="#644E77"/>
<path d="M16.6883 14.0512C16.1879 14.0525 15.6938 13.9395 15.2437 13.7208C14.7936 13.5022 14.3993 13.1836 14.091 12.7895C13.7702 12.3859 13.5457 11.9145 13.4348 11.411C13.3238 10.9076 13.3294 10.3854 13.4509 9.88441C13.4818 9.7515 13.5219 9.62091 13.5709 9.49359L15.1096 5.31759C15.3994 4.5151 15.9049 3.80809 16.5706 3.27437C17.2362 2.74065 18.0362 2.40091 18.8825 2.29253L34.1801 0.3507C34.4263 0.32237 34.674 0.307986 34.9218 0.307617C35.051 0.307617 35.1772 0.307617 35.3065 0.307617L53.6599 1.53857C53.6152 1.57195 53.5781 1.61445 53.551 1.66326C53.524 1.71207 53.5076 1.76607 53.503 1.82169L54.1185 1.87093C54.1163 1.92056 54.0979 1.96811 54.0661 2.00633V2.02479L53.8046 2.00633L35.2849 0.775379C34.938 0.753282 34.5898 0.763584 34.2448 0.806152L18.9317 2.75105C18.172 2.8523 17.4547 3.16007 16.8578 3.64083C16.2609 4.12159 15.8074 4.75692 15.5466 5.47761L14.0079 9.65669C13.9657 9.76683 13.9317 9.87998 13.9064 9.9952C13.802 10.4201 13.795 10.863 13.8859 11.2909C13.9768 11.7189 14.1633 12.1207 14.4315 12.4664C14.6996 12.8121 15.0425 13.0927 15.4343 13.2872C15.8262 13.4817 16.257 13.5851 16.6945 13.5896H18.0762C18.0331 13.6604 17.9931 13.7342 17.9562 13.8081L17.8423 14.0512H16.6883Z" fill="#644E77"/>
<path d="M13.9591 12.8855C13.6246 12.4643 13.3904 11.9725 13.2742 11.4473C13.158 10.9221 13.1628 10.3774 13.2882 9.85433C13.3201 9.71397 13.3623 9.57614 13.4144 9.44196L14.9531 5.26596C15.2517 4.43692 15.7735 3.7065 16.461 3.15531C17.1485 2.60413 17.9749 2.2536 18.849 2.14243L34.1467 0.200601C34.5295 0.153755 34.9158 0.142423 35.3007 0.16675L53.885 1.3977C53.799 1.43143 53.7183 1.47701 53.6449 1.5331L35.2915 0.302154C35.1622 0.302154 35.036 0.302154 34.9068 0.302154C34.659 0.302522 34.4113 0.316906 34.1651 0.345237L18.8829 2.29322C18.0371 2.40213 17.2378 2.74212 16.5727 3.2758C15.9077 3.80949 15.4026 4.51621 15.1131 5.31828L13.5744 9.49428C13.5253 9.6216 13.4852 9.7522 13.4544 9.88511C13.3328 10.3861 13.3273 10.9083 13.4382 11.4117C13.5492 11.9152 13.7736 12.3866 14.0945 12.7902C14.4028 13.1843 14.797 13.5029 15.2472 13.7215C15.6973 13.9402 16.1914 14.0532 16.6918 14.0519H17.8397L17.7658 14.2057H16.6918C16.1657 14.2093 15.6457 14.0921 15.172 13.8632C14.6983 13.6344 14.2833 13.2999 13.9591 12.8855Z" fill="#644E77"/>
<path d="M13.3009 9.85384C13.1737 10.376 13.1669 10.9202 13.281 11.4453C13.3951 11.9704 13.6271 12.4628 13.9594 12.8851C14.2821 13.2974 14.6946 13.6306 15.1654 13.8594C15.6363 14.0881 16.1532 14.2064 16.6768 14.2053H17.7508L17.6769 14.3591H16.6768C16.1296 14.3604 15.5894 14.237 15.0972 13.9981C14.605 13.7591 14.1738 13.4111 13.8363 12.9805C13.4876 12.5407 13.2438 12.0272 13.1232 11.479C13.0027 10.9308 13.0088 10.3624 13.1409 9.81691C13.1733 9.67032 13.2165 9.52632 13.2701 9.38608L14.8088 5.21316C15.1181 4.35788 15.6571 3.60439 16.3667 3.03544C17.0762 2.4665 17.9289 2.1041 18.8309 1.98807L34.1255 0.0462424C34.5186 -0.000513932 34.9151 -0.0118434 35.3103 0.0123911L54.3131 1.28642C54.1668 1.3148 54.0236 1.35705 53.8853 1.4126L35.3011 0.181647C34.9162 0.15732 34.5298 0.168652 34.147 0.215498L18.8494 2.15732C17.9753 2.2685 17.1488 2.61902 16.4614 3.17021C15.7739 3.7214 15.252 4.45182 14.9534 5.28086L13.4147 9.45686C13.3675 9.58635 13.3295 9.71901 13.3009 9.85384Z" fill="#644E77"/>
<path d="M11.7064 43.9541C10.445 44.4503 9.05527 44.5174 7.75195 44.1449C8.9152 44.0772 10.2416 44.0156 11.7064 43.9541Z" fill="#644E77"/>
<path d="M9.43475 44.9979C10.7455 44.9955 12.0277 44.6151 13.1276 43.9023C20.0425 43.65 29.6531 43.4961 40.2485 43.4961C45.517 43.4961 50.5393 43.5361 55.103 43.6038C56.2546 44.7531 57.7523 45.4917 59.3652 45.7056C59.7038 45.7521 60.0451 45.7757 60.3869 45.7764V46.0103C54.5399 46.1396 47.6373 46.2165 40.2424 46.2165C19.19 46.2165 2.12598 45.601 2.12598 44.8563C2.12598 44.6316 3.63389 44.4224 6.30813 44.2408C7.27323 44.7382 8.34286 44.9988 9.42859 45.0009L9.43475 44.9979Z" fill="#DEDFE0"/>
<path d="M7.58547 40.6215L7.44083 40.8892L7.41006 40.8646C7.37593 40.8406 7.34306 40.815 7.31158 40.7876C7.25927 40.7446 7.20695 40.7015 7.15771 40.6553L7.36698 40.4307L7.50546 40.5507C7.53071 40.5758 7.55742 40.5995 7.58547 40.6215Z" fill="#644E77"/>
<path d="M7.11813 44.5881C6.84307 44.4887 6.57477 44.3715 6.31494 44.2373L7.75208 44.145C9.05539 44.5175 10.4451 44.4504 11.7065 43.9542L13.1344 43.9019C12.0345 44.6146 10.7523 44.995 9.44156 44.9974C8.64898 44.9994 7.86233 44.8608 7.11813 44.5881Z" fill="#644E77"/>
<path d="M6.22217 37.2426C6.24063 37.1811 6.25602 37.1226 6.28064 37.061C6.26525 37.1195 6.24063 37.1811 6.22217 37.2426Z" fill="#644E77"/>
<path d="M6.10239 37.8153L6.41013 37.843C6.41013 37.8061 6.41013 37.7661 6.41013 37.7291V37.683C6.41013 37.6245 6.43167 37.566 6.44706 37.5045C6.46245 37.4429 6.47476 37.3968 6.4963 37.3291C6.51784 37.2614 6.53323 37.2121 6.55169 37.1567C6.75775 36.5899 7.12726 36.0969 7.61351 35.74C8.09975 35.3831 8.6809 35.1785 9.28345 35.1519C9.88601 35.1253 10.4829 35.278 10.9987 35.5906C11.5145 35.9033 11.926 36.3618 12.1812 36.9083C12.4364 37.4548 12.5238 38.0647 12.4323 38.6609C12.3409 39.2571 12.0747 39.8128 11.6675 40.2577C11.2603 40.7026 10.7303 41.0168 10.1445 41.1605C9.55871 41.3042 8.94347 41.2709 8.37658 41.065L8.19809 40.9973L8.13346 40.9665L7.95805 40.8804C7.87804 40.8342 7.80418 40.788 7.70571 40.7234C7.6766 40.706 7.64883 40.6865 7.62262 40.6649L7.59492 40.6465L7.41951 40.8896L7.56415 40.6219C7.53522 40.602 7.50747 40.5804 7.48106 40.5572L7.34258 40.4372L7.13332 40.6619C6.75233 40.3 6.46083 39.8543 6.28189 39.3603C6.10296 38.8662 6.0415 38.3372 6.10239 37.8153Z" fill="white"/>
<path d="M6.10254 37.815C6.10254 37.7503 6.121 37.6857 6.13023 37.6242C6.13947 37.5626 6.15485 37.498 6.17024 37.4334C6.18442 37.3689 6.20188 37.3052 6.22256 37.2426C6.24102 37.181 6.25949 37.1195 6.28103 37.061C6.50895 36.4376 6.91653 35.8958 7.45229 35.5039C7.98805 35.1121 8.62794 34.8878 9.2911 34.8595C9.95425 34.8312 10.6109 35.0001 11.1781 35.3448C11.7453 35.6896 12.1976 36.1947 12.4779 36.7964C12.7581 37.3982 12.8537 38.0694 12.7525 38.7254C12.6514 39.3814 12.3581 39.9928 11.9096 40.4821C11.4612 40.9715 10.8778 41.317 10.2331 41.4749C9.58836 41.6328 8.91131 41.5961 8.28748 41.3693C8.20439 41.3386 8.12438 41.3078 8.04436 41.2709C7.97181 41.2397 7.90093 41.2048 7.83202 41.1662C7.74586 41.117 7.66277 41.0678 7.58276 41.0124C7.53982 40.9865 7.4987 40.9577 7.45966 40.9262L7.63507 40.6831L7.66277 40.7016C7.68898 40.7231 7.71675 40.7426 7.74586 40.76C7.84433 40.8246 7.91819 40.8708 7.9982 40.917L8.17361 41.0031L8.23824 41.0339L8.41673 41.1016C8.79276 41.2385 9.19208 41.2999 9.59186 41.2824C9.99165 41.2649 10.3841 41.1689 10.7467 40.9997C11.1094 40.8305 11.4351 40.5915 11.7054 40.2964C11.9757 40.0013 12.1852 39.6559 12.3219 39.2798C12.4613 38.9023 12.5251 38.5011 12.5094 38.099C12.4938 37.697 12.3991 37.3019 12.2308 36.9364C12.0625 36.5709 11.8238 36.2422 11.5285 35.9689C11.2331 35.6957 10.8868 35.4833 10.5093 35.3438C10.1319 35.2044 9.73067 35.1407 9.32859 35.1563C8.92651 35.172 8.53145 35.2666 8.16596 35.435C7.80048 35.6033 7.47172 35.8419 7.19846 36.1373C6.9252 36.4327 6.7128 36.779 6.57338 37.1564C6.55491 37.2118 6.53337 37.2703 6.51798 37.3287C6.5026 37.3872 6.48106 37.4518 6.46875 37.5042C6.45644 37.5565 6.44413 37.6242 6.43182 37.6826V37.7288C6.43182 37.7657 6.43182 37.8057 6.43182 37.8427L6.10254 37.815Z" fill="#644E77"/>
<path d="M6.17036 37.4335C6.17036 37.4981 6.14266 37.5597 6.13035 37.6243C6.11805 37.6889 6.10881 37.7504 6.10266 37.8151L5.79492 37.7874C5.79492 37.7351 5.79492 37.6797 5.81646 37.6274V37.5781C5.83185 37.4981 5.84724 37.4273 5.86262 37.3596C5.87817 37.2858 5.89769 37.2129 5.92109 37.1411C5.92109 37.0888 5.9611 37.018 5.98572 36.9503C6.2167 36.3233 6.61498 35.7715 7.13734 35.3548C7.65971 34.9381 8.28621 34.6724 8.94888 34.5865C9.61155 34.5006 10.2851 34.5978 10.8964 34.8676C11.5078 35.1374 12.0335 35.5694 12.4167 36.1169C12.7999 36.6643 13.0259 37.3062 13.0701 37.9729C13.1144 38.6397 12.9752 39.3058 12.6677 39.8991C12.3601 40.4923 11.896 40.99 11.3257 41.3382C10.7554 41.6864 10.1006 41.8717 9.43238 41.8741C9.004 41.8726 8.57914 41.7966 8.17681 41.6495C8.08449 41.6156 7.99524 41.5818 7.90908 41.5418L7.866 41.5202L7.66904 41.4218C7.57369 41.3693 7.48124 41.3118 7.39208 41.2494C7.34635 41.2222 7.30217 41.1924 7.25975 41.1602L7.20436 41.1171C7.16552 41.0898 7.12851 41.06 7.09358 41.0279C7.0388 40.9856 6.98641 40.9404 6.93663 40.8924L7.14589 40.6678C7.19513 40.714 7.24744 40.757 7.29976 40.8001C7.33123 40.8275 7.3641 40.8531 7.39824 40.8771L7.42901 40.9017C7.46804 40.9332 7.50917 40.9619 7.5521 40.9879C7.63212 41.0432 7.7152 41.0925 7.80137 41.1417C7.87028 41.1803 7.94116 41.2152 8.01371 41.2463C8.09372 41.2833 8.17373 41.314 8.25682 41.3448C8.88066 41.5716 9.55771 41.6083 10.2024 41.4504C10.8471 41.2925 11.4305 40.947 11.879 40.4576C12.3274 39.9682 12.6207 39.3569 12.7219 38.7009C12.823 38.0449 12.7274 37.3736 12.4472 36.7719C12.167 36.1702 11.7147 35.6651 11.1475 35.3203C10.5803 34.9756 9.9236 34.8067 9.26044 34.835C8.59729 34.8633 7.9574 35.0875 7.42164 35.4794C6.88588 35.8712 6.47829 36.4131 6.25037 37.0365C6.22575 37.098 6.21037 37.1565 6.1919 37.2181C6.18071 37.2894 6.17352 37.3613 6.17036 37.4335Z" fill="#644E77"/>
<path d="M6.10218 37.8149C6.04398 38.3386 6.10881 38.8686 6.29153 39.3628C6.47424 39.857 6.76979 40.3017 7.15464 40.6615L6.94538 40.8861C6.99516 40.9341 7.04755 40.9794 7.10233 41.0216C7.13726 41.0537 7.17427 41.0835 7.21311 41.1108L7.2685 41.1539C7.31092 41.1861 7.3551 41.2159 7.40083 41.2431C7.48999 41.3055 7.58244 41.363 7.67779 41.4155L7.87475 41.5139L7.91783 41.5355C8.004 41.5755 8.09324 41.6093 8.18556 41.6432C8.58789 41.7903 9.01275 41.8663 9.44113 41.8678C10.1112 41.867 10.7683 41.6825 11.3408 41.3344C11.9134 40.9863 12.3796 40.4879 12.6887 39.8933C12.9978 39.2988 13.1379 38.6309 13.094 37.9623C13.05 37.2936 12.8236 36.6498 12.4393 36.1009C12.0551 35.5519 11.5277 35.1188 10.9145 34.8486C10.3012 34.5785 9.6257 34.4816 8.96127 34.5685C8.29685 34.6554 7.66897 34.9228 7.1459 35.3417C6.62283 35.7605 6.22458 36.3147 5.99447 36.944C5.96985 37.0117 5.94523 37.0825 5.92985 37.1348C5.90644 37.2066 5.88692 37.2795 5.87137 37.3533C5.87137 37.421 5.8406 37.4918 5.82521 37.5718V37.6211C5.82521 37.6734 5.80983 37.7288 5.80367 37.7811L6.10218 37.8149ZM11.3337 32.965C12.634 33.4417 13.7085 34.3882 14.3455 35.6179C14.9825 36.8477 15.1358 38.2714 14.7751 39.6085C14.4144 40.9456 13.5658 42.0991 12.3968 42.8416C11.2277 43.5841 9.82295 43.8618 8.45932 43.6198C7.0957 43.3779 5.87217 42.634 5.02989 41.5346C4.18762 40.4352 3.78771 39.0603 3.90899 37.6807C4.03027 36.3011 4.66394 35.0169 5.6851 34.0814C6.70626 33.1459 8.04082 32.6268 9.42574 32.6265C10.0797 32.6261 10.7287 32.7407 11.343 32.965H11.3337Z" fill="#DEDFE0"/>
<path d="M11.5527 32.3862C12.7327 32.8154 13.7542 33.5935 14.4814 34.6171C15.2085 35.6408 15.607 36.8615 15.6237 38.117C15.6404 39.3726 15.2746 40.6035 14.5749 41.6461C13.8752 42.6887 12.8747 43.4937 11.7065 43.9541C10.2417 44.0156 8.91536 44.0772 7.75211 44.1449C7.61055 44.1049 7.46899 44.0618 7.32743 44.0095C5.78609 43.4492 4.53046 42.2995 3.83676 40.8135C3.14307 39.3274 3.06812 37.6266 3.62842 36.0852C4.18873 34.5439 5.33837 33.2883 6.82446 32.5946C8.31054 31.9009 10.0113 31.8259 11.5527 32.3862ZM7.53669 43.4309C8.64869 43.8347 9.86042 43.8734 10.996 43.5416C12.1315 43.2098 13.1317 42.5247 13.8514 41.5858C14.571 40.6469 14.9727 39.503 14.9981 38.3202C15.0234 37.1375 14.6711 35.9775 13.9923 35.0086C13.3135 34.0397 12.3436 33.3124 11.2233 32.9322C10.103 32.5521 8.89072 32.5389 7.76245 32.8946C6.63418 33.2504 5.64866 33.9564 4.94898 34.9104C4.2493 35.8643 3.87189 37.0164 3.87154 38.1994C3.87252 39.342 4.22466 40.4566 4.88024 41.3924C5.53582 42.3281 6.46318 43.0398 7.53669 43.4309Z" fill="#644E77"/>
<path d="M15.8296 40.5234C15.3278 41.9175 14.3803 43.1073 13.1338 43.9085L11.7059 43.9608C13.0531 43.4313 14.1718 42.4462 14.8675 41.1769C15.5632 39.9076 15.7917 38.4345 15.5132 37.0141C15.2348 35.5937 14.467 34.3159 13.3436 33.4032C12.2202 32.4905 10.8123 32.0007 9.36498 32.019C7.91766 32.0373 6.52259 32.5626 5.42263 33.5034C4.32267 34.4443 3.58749 35.741 3.34506 37.168C3.10264 38.595 3.36833 40.0619 4.09588 41.3132C4.82343 42.5645 5.96675 43.521 7.32683 44.0162C7.46839 44.0685 7.60995 44.1116 7.75151 44.1516L6.31438 44.2439C4.84924 43.4835 3.71034 42.2166 3.1097 40.679C2.50905 39.1415 2.48758 37.438 3.04928 35.8858C3.16401 35.5684 3.30184 35.2598 3.46165 34.9626C4.23992 33.5296 5.50674 32.4237 7.03163 31.8459C8.55652 31.2681 10.2381 31.257 11.7706 31.8144C13.1765 32.3269 14.3745 33.2883 15.1794 34.5498C15.9843 35.8114 16.3512 37.3029 16.2235 38.7939C16.2235 38.8678 16.2235 38.9385 16.202 39.0124C16.1354 39.5285 16.0104 40.0354 15.8296 40.5234Z" fill="#644E77"/>
<path d="M1.69552 29.0135V30.6538H2.06788L2.23714 29.0259H1.69552V29.0135ZM3.1819 28.8597L2.9911 30.7061C2.98078 30.944 2.87898 31.1686 2.70695 31.3332C2.53492 31.4978 2.30596 31.5895 2.06788 31.5893H1.53857V28.1396L1.56319 28.0903H2.08019C2.81569 28.0903 3.18497 28.3334 3.18497 28.8104L3.1819 28.8597Z" fill="#644E77"/>
<path d="M13.6512 23.9546C13.9973 23.9008 14.3251 23.7633 14.6061 23.5542C14.8871 23.345 15.1128 23.0705 15.2638 22.7545L19.1905 14.4055C19.1974 14.3889 19.2068 14.3733 19.2182 14.3594H19.3967C19.3706 14.394 19.3479 14.4311 19.329 14.4702L15.3807 22.8191C15.2204 23.1594 14.9787 23.4551 14.6771 23.6799C14.3755 23.9048 14.0232 24.052 13.6512 24.1085C7.06873 25.124 2.26494 26.715 1.5633 28.0906H1.39404C1.99105 26.6504 6.86254 25.0009 13.6512 23.9546Z" fill="#644E77"/>
<path d="M1.38477 31.577V28.1088V28.0903H1.55402L1.5294 28.1396V31.577H1.38477Z" fill="#644E77"/>
<path d="M18.144 34.2633C17.7655 33.0324 16.1314 29.1364 10.5952 28.7702C7.37012 28.5548 3.25259 29.2811 1.62773 33.8448H1.3877V31.5891H1.54156V33.6479C3.24028 29.1118 7.38858 28.4163 10.6075 28.6194C16.2514 28.9949 17.9163 33.0016 18.301 34.2233C18.6456 35.1712 18.8241 37.4977 18.4825 39.9503C18.6918 40.1227 19.3719 40.2581 19.8612 40.2581L51.5212 40.3258V41.1259H51.3674V40.4796L19.8458 40.4181C19.3534 40.4181 18.5564 40.2735 18.3348 40.0334C18.3163 40.0119 18.3102 40.0026 18.3102 39.9934C18.6487 37.6177 18.4918 35.2296 18.144 34.2633Z" fill="#644E77"/>
<path d="M1.23975 28.0903H1.39361V28.1088V31.577H1.24282L1.23975 28.0903Z" fill="#644E77"/>
<path d="M17.9991 34.3157C17.6329 33.1371 16.0327 29.2842 10.5857 28.9242C7.44682 28.7149 3.36929 29.4073 1.77521 33.8972L1.73828 33.9988H1.43054H1.23975V31.5892H1.39054V33.8449H1.63057C3.25543 29.2811 7.37296 28.5549 10.5981 28.7703C16.1373 29.1365 17.7683 33.0448 18.1469 34.2634C18.4946 35.2297 18.6515 37.6178 18.313 39.9904C18.313 39.9904 18.313 40.0089 18.3377 40.0304C18.5592 40.2705 19.3563 40.4089 19.8486 40.4151L51.3579 40.4797V41.129H51.1948V40.6336L19.8394 40.569C19.4332 40.569 18.5069 40.4489 18.2146 40.1351C18.1784 40.0998 18.1555 40.053 18.1499 40.0027V39.9689C18.4915 37.6301 18.3377 35.2574 17.9991 34.3157Z" fill="#644E77"/>
<path d="M15.251 22.7545C15.1001 23.0705 14.8743 23.345 14.5933 23.5542C14.3124 23.7633 13.9846 23.9008 13.6385 23.9546C6.86827 25.0009 1.99063 26.6504 1.39361 28.0906H1.23975V28.0537C1.8306 26.5396 6.68978 24.8717 13.617 23.8008C13.9383 23.7515 14.2427 23.6242 14.5035 23.43C14.7642 23.2358 14.9734 22.9806 15.1126 22.6868L19.0516 14.3594H19.227C19.2156 14.3733 19.2062 14.3889 19.1993 14.4055L15.251 22.7545Z" fill="#644E77"/>
<path d="M1.24037 28.0903L1.23114 31.577H0.769531V28.0903H1.24037Z" fill="#644E77"/>
<path d="M10.5737 28.9247C16.0207 29.2847 17.6209 33.1376 17.9871 34.3162C18.3257 35.2579 18.4795 37.6306 18.1441 39.9694V40.0032C18.1497 40.0535 18.1725 40.1002 18.2087 40.1355C18.5165 40.4433 19.4397 40.5633 19.8336 40.5695L51.1951 40.6341V41.5573L19.8336 41.4927C19.5628 41.4927 18.1687 41.4403 17.5409 40.7633C17.4342 40.6503 17.3519 40.5167 17.299 40.3706C17.246 40.2245 17.2236 40.0691 17.2332 39.914V39.8709C17.5686 37.5505 17.384 35.3318 17.1224 34.6393V34.6086C16.8147 33.5746 15.4022 30.1802 10.5307 29.8571C10.2229 29.8356 9.91519 29.8263 9.60745 29.8263C5.87767 29.8263 3.49578 31.4327 2.52948 34.6086L2.4864 34.744C2.46976 34.7995 2.43556 34.8481 2.38895 34.8825C2.34234 34.9169 2.28583 34.9352 2.2279 34.9348H0.590735C0.515648 34.9348 0.443636 34.9049 0.390541 34.8518C0.337446 34.7988 0.307617 34.7267 0.307617 34.6517V31.5897H1.23083V33.9993H1.42163H1.72937L1.76629 33.8977C3.36961 29.4078 7.44713 28.7246 10.5737 28.9247Z" fill="#644E77"/>
<path d="M14.2666 22.2929L18.0179 14.3594H19.0396L15.1006 22.6868C14.9614 22.9806 14.7522 23.2358 14.4915 23.43C14.2308 23.6242 13.9263 23.7515 13.605 23.8008C6.67779 24.8717 1.81861 26.5396 1.22775 28.0537V28.0906H0.772302V31.5773H0.307617V27.9429L0.326081 27.8783C1.11389 25.1825 8.90273 23.5946 13.4757 22.8899C13.6459 22.8614 13.8067 22.7923 13.9444 22.6883C14.0821 22.5844 14.1926 22.4487 14.2666 22.2929Z" fill="#644E77"/>
<path d="M16.9722 34.6424C16.6644 33.633 15.2888 30.3156 10.5097 29.9986C6.32444 29.7247 3.68097 31.2819 2.6562 34.6424L2.6162 34.7778C2.59135 34.8664 2.5382 34.9444 2.46485 35C2.39151 35.0555 2.302 35.0856 2.20998 35.0855H0.591284C0.475388 35.0855 0.364239 35.0395 0.282288 34.9575C0.200337 34.8756 0.154297 34.7644 0.154297 34.6485V27.9214L0.178916 27.8352C0.988267 25.0656 8.84173 23.4499 13.4516 22.7391C13.5991 22.7153 13.7385 22.6561 13.858 22.5666C13.9776 22.4771 14.0736 22.3599 14.1379 22.2252L17.8615 14.3594H18.0308L14.2671 22.2929C14.192 22.4502 14.0796 22.5869 13.9396 22.691C13.7996 22.795 13.6363 22.8633 13.464 22.8899C8.89097 23.5946 1.10213 25.1825 0.314322 27.8783L0.295856 27.9429V34.6393C0.295856 34.7144 0.325685 34.7864 0.37878 34.8395C0.431875 34.8926 0.503886 34.9224 0.578974 34.9224H2.20383C2.26176 34.9229 2.31827 34.9045 2.36488 34.8701C2.41149 34.8357 2.44568 34.7871 2.46233 34.7316L2.50541 34.5962C3.47171 31.4204 5.8536 29.814 9.58338 29.814C9.89112 29.814 10.1989 29.814 10.5066 29.8447C15.3781 30.1679 16.7844 33.5622 17.0983 34.5962V34.627C17.3599 35.3317 17.5446 37.5505 17.2091 39.8585V39.9016C17.1996 40.0567 17.222 40.2121 17.2749 40.3582C17.3278 40.5043 17.4102 40.638 17.5169 40.751C18.1323 41.428 19.5387 41.4772 19.8095 41.4803L51.1957 41.5572V41.1295H51.3495V41.7111L19.8372 41.6496C19.5479 41.6496 18.1016 41.5911 17.4338 40.871C17.3109 40.7427 17.216 40.5903 17.1551 40.4234C17.0942 40.2566 17.0686 40.0789 17.0799 39.9016V39.8493C17.4122 37.5566 17.2337 35.3717 16.9752 34.6793L16.9722 34.6424Z" fill="#644E77"/>
<path d="M2.66193 34.6424C3.6867 31.2819 6.33016 29.7186 10.5154 29.9987C15.2884 30.3064 16.6702 33.633 16.9779 34.6424V34.6763C17.2364 35.3687 17.4149 37.5536 17.0825 39.8463V39.8986C17.0712 40.0759 17.0968 40.2536 17.1577 40.4204C17.2187 40.5873 17.3136 40.7397 17.4364 40.868C18.1042 41.5881 19.5506 41.6435 19.8398 41.6465L51.3553 41.7112V41.1295H51.5091V41.8681L19.8368 41.8004C19.529 41.8004 18.0365 41.7389 17.3226 40.9726C17.1855 40.8291 17.0798 40.6587 17.012 40.4723C16.9442 40.2858 16.9158 40.0873 16.9287 39.8894V39.8309C16.9656 39.5816 16.9964 39.3323 17.0179 39.0892C17.0179 39.0031 17.0364 38.92 17.0425 38.8369C17.2087 36.9535 17.0425 35.3071 16.8363 34.7286V34.6917C16.5286 33.7007 15.193 30.4633 10.5154 30.1525C6.41325 29.8817 3.8221 31.4081 2.82195 34.6855L2.78195 34.8209C2.77284 34.8519 2.76046 34.8818 2.74502 34.9102C2.6959 35.0044 2.62152 35.0831 2.53021 35.1374C2.4389 35.1918 2.33427 35.2196 2.22802 35.2179H0.590856C0.513263 35.2179 0.436432 35.2026 0.364746 35.1729C0.29306 35.1432 0.227924 35.0997 0.173058 35.0448C0.118192 34.99 0.0746688 34.9248 0.0449755 34.8531C0.0152821 34.7815 0 34.7046 0 34.627V27.8568L0.0246196 27.7706C0.858589 24.9118 8.77668 23.2807 13.4235 22.5637C13.5459 22.5449 13.6618 22.4963 13.7611 22.4223C13.8603 22.3483 13.9399 22.251 13.9928 22.139L17.6857 14.3379H17.858L14.1344 22.2037C14.0701 22.3384 13.9741 22.4556 13.8545 22.5451C13.735 22.6346 13.5956 22.6938 13.4481 22.7176C8.83207 23.4285 0.984761 25.0349 0.17541 27.8137L0.150791 27.8999V34.6178C0.150791 34.7337 0.196831 34.8449 0.278782 34.9268C0.360733 35.0088 0.471884 35.0548 0.58778 35.0548H2.21263C2.30465 35.0549 2.39416 35.0248 2.4675 34.9692C2.54085 34.9137 2.594 34.8357 2.61885 34.7471L2.66193 34.6424Z" fill="#644E77"/>
</svg>
