<svg width="25" height="23" viewBox="0 0 25 23" fill="none" xmlns="http://www.w3.org/2000/svg">
<path d="M11.5432 2.98528C10.2767 1.71286 8.55679 0.995434 6.76154 0.990746C4.96628 0.986057 3.24264 1.69449 1.96956 2.96028C0.703764 4.23336 -0.00466525 5.957 2.31232e-05 7.75226C0.0047115 9.54751 0.722134 11.2674 1.99456 12.5339L11.8015 22.3429C11.9969 22.5382 12.2618 22.6479 12.538 22.6479C12.8143 22.6479 13.0792 22.5382 13.2745 22.3429L23.0315 12.5922C24.2966 11.3192 25.0047 9.59603 25 7.80129C24.9953 6.00654 24.2783 4.28707 23.0065 3.0207C22.3789 2.38928 21.633 1.88773 20.8115 1.54472C19.9899 1.20171 19.1089 1.02396 18.2186 1.02164C17.3283 1.01932 16.4464 1.19247 15.623 1.53119C14.7997 1.86991 14.0513 2.36756 13.4204 2.9957L12.4891 3.9291L11.5432 2.98528ZM21.5543 11.1213L12.5411 20.1323L3.46758 11.0609C2.58638 10.1852 2.08878 8.99558 2.0841 7.7533C2.07941 6.51101 2.56801 5.31767 3.44258 4.43539C4.3244 3.55963 5.51788 3.06988 6.76067 3.07378C8.00347 3.07769 9.19385 3.57494 10.0701 4.45622L11.7578 6.14384C11.8559 6.24199 11.9726 6.31954 12.1011 6.37193C12.2297 6.42433 12.3673 6.45052 12.5061 6.44897C12.6449 6.44742 12.7819 6.41815 12.9093 6.36289C13.0366 6.30763 13.1515 6.22749 13.2474 6.12717L14.8934 4.46872C15.3308 4.03398 15.8496 3.68974 16.4202 3.45568C16.9908 3.22163 17.6019 3.10235 18.2186 3.10467C18.8353 3.10699 19.4455 3.23087 20.0143 3.46922C20.5831 3.70756 21.0993 4.0557 21.5335 4.49373C22.4147 5.37002 22.912 6.5604 22.9159 7.80319C22.9198 9.04598 22.43 10.2395 21.5543 11.1213Z" fill="#644E77"/>
</svg>
