<svg id="Layer_1" data-name="Layer 1" xmlns="http://www.w3.org/2000/svg" viewBox="0 0 571.71 383.86"><defs><style>.cls-1{fill:#dedfe0;}.cls-2{fill:#fff;}.cls-3{fill:#3f2355;}.cls-4{fill:none;stroke:#3f2355;stroke-linecap:round;stroke-linejoin:round;stroke-width:1.41px;}</style></defs><ellipse class="cls-1" cx="302.22" cy="310.45" rx="162.1" ry="7.85"/><path class="cls-2" d="M436,254.85l-.91,3.4h-3.28c.22-1.09.45-2.27.68-3.4Z"/><path class="cls-2" d="M418.22,270.19a38.84,38.84,0,0,0,9.25-3.93,25.94,25.94,0,0,1-42.56,15.22c4.3-1.47,10.78-3.69,17-5.78a3.93,3.93,0,0,0-.82,2.42,4.05,4.05,0,1,0,5.15-3.89C411.69,272.36,416.38,270.78,418.22,270.19Z"/><path class="cls-2" d="M408.14,247.67a16.62,16.62,0,0,1,14,13.57c-1.91,1.39-12.18,8.37-32.93,13.4-12.33,3-21.83.95-27.51-5.78l7.43-6Zm10.18,10.14a3,3,0,1,0-3,3A3,3,0,0,0,418.32,257.81Zm-14.73,3.71a.7.7,0,1,0-.5-1.31l-13.32,5.14a.7.7,0,0,0,.26,1.36.8.8,0,0,0,.26,0Zm-4-2.7a.7.7,0,1,0-.52-1.31l-14,5.4a.71.71,0,0,0-.41.91.72.72,0,0,0,.66.46.56.56,0,0,0,.25,0Zm-3.48-2.67a.71.71,0,0,0,.4-.92.7.7,0,0,0-.91-.4l-15.73,6a.71.71,0,0,0-.42.92.73.73,0,0,0,.67.45.59.59,0,0,0,.25-.05Zm-9.56,14.21a3,3,0,1,0-3,3A3,3,0,0,0,386.58,270.36Z"/><path class="cls-2" d="M415.91,240.09a5.16,5.16,0,0,0-3.59.06l-35,13.57a25.91,25.91,0,0,1,38.59-13.63Z"/><path class="cls-2" d="M351.55,268.31l1.27,1.37-4.46,4.15a2.37,2.37,0,0,1-1.49.64c-3.5.23-15.22.94-19.7.44S318,273,316,271.06A38,38,0,0,0,323.31,261c.42-.83.83-1.63,1.21-2.4a16.25,16.25,0,0,0,27,9.74Z"/><path class="cls-2" d="M368.67,235.92a43,43,0,0,0-8.65,26,3.69,3.69,0,0,0,0,.58,2.11,2.11,0,0,0,.09.38l-7.33,6.81-1.27-1.37A16.26,16.26,0,0,0,346.26,241Z"/><path class="cls-1" d="M339.16,248.68a6.08,6.08,0,1,1-6.08,6.08A6.08,6.08,0,0,1,339.16,248.68Z"/><path class="cls-2" d="M343.36,241.68a14.85,14.85,0,1,1-17.6,14.6,2.35,2.35,0,0,1,0-.27,42.25,42.25,0,0,0,3.48-9.29,14.79,14.79,0,0,1,2.62-2.44h0Zm3.28,13.08a7.49,7.49,0,1,0-7.48,7.48A7.49,7.49,0,0,0,346.64,254.76Z"/><path class="cls-2" d="M422.93,177.53a18.42,18.42,0,0,0,.94,4.16q-3.36-2.46-6.85-4.57A48.45,48.45,0,0,1,422.93,177.53Z"/><path class="cls-2" d="M445.49,194.53a3.69,3.69,0,0,1-.92,3.1,4.24,4.24,0,0,1-2.13,1.37,110.15,110.15,0,0,0-16.27-15.58,17.73,17.73,0,0,1-1.79-5.65,20.54,20.54,0,0,1,7.48,2.7C439.9,185.66,445,190.92,445.49,194.53Z"/><path class="cls-2" d="M459.38,242.93c.21.4.34.86.16,1-.74.51-4.54-.46-9.09-5.79-5-5.87-12.79-15-18.37-18.85,1.95-.67,3.69-1.3,5.24-1.89,3-1.13,5.24-2.09,7-2.9C447.06,219.84,456,237.11,459.38,242.93Z"/><path class="cls-2" d="M441.81,211.57c-3,1.32-7.3,3-13.59,5.12-3.53,1.17-7.67,2.46-12.52,3.85l-.26.08c-8.84,2.53-20,5.43-34.13,8.65l-10.06,2.29-28.6,6.51c-5.46-2.79-20.59-12.56-15.16-32.59,2.26-8.32,10.41-15.24,22.36-19C371.31,179.75,406.57,182.91,441.81,211.57Z"/><path class="cls-2" d="M234.1,104.79,232,104.6a.46.46,0,0,0-.2,0,4.18,4.18,0,0,0-3.18,4.44,3.77,3.77,0,0,0,3.06,3.68,2.72,2.72,0,0,1-2,.19c-1.79-.58-2.58-3.15-1.74-5.71s3-4.17,4.76-3.59A2.63,2.63,0,0,1,234.1,104.79Z"/><path class="cls-2" d="M243.19,107.07a2.8,2.8,0,1,1,0,5.6,2.46,2.46,0,0,1-.72-.1v0h-.2a2.81,2.81,0,0,1,.61-5.44Z"/><path class="cls-2" d="M240.32,106.79a4.2,4.2,0,0,0-.6,5.46l-5.39-.54-.28,0q-.31,0-.63-.06c-1.73-.2-3.33-.75-3.36-2.61a2.78,2.78,0,0,1,2-3l3.08.29h.13Z"/><path class="cls-2" d="M234,116.29a7.52,7.52,0,0,1,2.44-.23,13.3,13.3,0,0,1-2.16,2.92,22,22,0,0,0-2.15,2.74,21.17,21.17,0,0,0-2,6,.71.71,0,0,0,.35.73l-1.28.12c-3.73-2.12-12.44-7-14.5-8.07a4.58,4.58,0,0,1-.86-.57.71.71,0,0,0,.5-.36,71.41,71.41,0,0,1,4.95-8.11,12,12,0,0,1,4.94-4.28c-.51,2.15-1.25,7.19,2.28,8.83C229.08,117.2,231.91,116.67,234,116.29Z"/><circle class="cls-2" cx="147.68" cy="281.02" r="3.37"/><circle class="cls-2" cx="165.05" cy="263.3" r="3.37"/><path class="cls-2" d="M147.23,257.6a5.7,5.7,0,1,1-5.69,5.7A5.71,5.71,0,0,1,147.23,257.6Z"/><path class="cls-2" d="M130.09,259.46a4.08,4.08,0,1,1-4.07,4.07A4.07,4.07,0,0,1,130.09,259.46Z"/><circle class="cls-2" cx="147.68" cy="246.16" r="3.37"/><path class="cls-2" d="M147.23,237.92a25.38,25.38,0,1,1-25.37,25.38A25.41,25.41,0,0,1,147.23,237.92Zm22.6,25.38a4.78,4.78,0,1,0-4.78,4.78A4.79,4.79,0,0,0,169.83,263.3Zm-15.49,0a7.11,7.11,0,1,0-7.11,7.11A7.12,7.12,0,0,0,154.34,263.3Zm-1.88-17.14a4.78,4.78,0,1,0-4.78,4.78A4.79,4.79,0,0,0,152.46,246.16Zm0,34.86a4.78,4.78,0,1,0-4.78,4.78A4.79,4.79,0,0,0,152.46,281Zm-18.3-17.49a4.07,4.07,0,1,0-4.07,4.08A4.07,4.07,0,0,0,134.16,263.53Z"/><path class="cls-2" d="M186.35,232.61c2.26,4,4.46,7.91,6.35,11.26-5-.19-7.57-2.49-14.43-8.52-1.63-1.43-3.48-3.06-5.63-4.89-8.62-7.33-21-9.11-30.27-9.11-.74,0-1.45,0-2.15,0a1.38,1.38,0,0,0-.64,0l-.13,0a51.27,51.27,0,0,0-9,1.05l-.11,0c-.61.19-1.19.37-1.75.51,5.27-6.64,12.92-11.8,20.29-13.52s20-.14,24.67.51C177,216.12,181.9,224.73,186.35,232.61Z"/><path class="cls-2" d="M169.82,203.64c.71,1.17,1.67,2.82,2.81,4.8-5.38-.73-17-2-24.08-.33-8.18,1.9-16.69,7.87-22.15,15.42a29.22,29.22,0,0,1-3.94.61c6.58-24.62,36.34-27.1,40.92-27.33A25,25,0,0,1,169.82,203.64Z"/><path class="cls-2" d="M176.74,166.13a2.87,2.87,0,0,1,.43,2.22c-.35,1.67-4,11.59-6.66,18.47a29.36,29.36,0,0,1-5.24.24l-.64,0c-1.53-.1-2-.18-2.31-.65-.7-1-1.13-3.4-1.29-7.27,0-.43,0-.85,0-1.26v-.2a21,21,0,0,1,5-13.06,8.51,8.51,0,0,1,3.58-.86h.21a14.19,14.19,0,0,1,2.48.19C174.47,164.28,176,165,176.74,166.13Z"/><path class="cls-2" d="M446.05,209.47c-.48.28-1.11.62-1.91,1h0l-.9.44c-35.85-29.43-71.88-32.67-93.81-25.78-12.41,3.89-20.9,11.18-23.28,20-5.21,19.23,8,29.61,14.49,33.43-39.85,9-72.7,16.22-89.16,18.43-22.4,3-33.44,1.72-43.79-14.08S190,212.36,186.89,204.56c-4.69-11.73-4.38-22.13.94-30.88,5-8.22,9.75-14.72,13.94-20.45,2.3-3.15,4.48-6.13,6.42-9,4.33-6.43,6.95-12.54,5.72-20,3,1.6,10.4,5.78,13.62,7.6-4.53,9-25.34,52.61-17,76.81,8.49,24.61,20.17,34.44,40.25,34,17.09-.39,44.28-14,44.28-29.32,0-7.81-5.64-17.83-8.32-22,6.19-4,30.18-18.41,55.83-22.4,19.26-3,44.46-4.24,69,9.18a92.32,92.32,0,0,1,15.08,10.31,109.21,109.21,0,0,1,12.18,12C441.28,203.21,443.69,206.22,446.05,209.47Z"/><path class="cls-2" d="M325.72,245.66a24.09,24.09,0,0,1-1.43,4.61c-1,2.61-2.52,5.61-4.25,9a33.68,33.68,0,0,1-7.09,9.53,20.17,20.17,0,0,1-4,2.83,16.62,16.62,0,0,1-13.27,1.23c-15.25-4.91-24.67-6.25-34-6.25-4.74,0-9.46.35-14.9.75-3.62.26-7.72.55-12.34.79-23,1.18-28.55-8.52-34.38-18.78l-.77-1.34c-2.32-4-5.94-10.46-9.78-17.26-6.4-11.35-13.65-24.21-16.57-29.06a29.86,29.86,0,0,0-8.39-8.63,6.16,6.16,0,0,1-1.65-2.59c.45.07.95.12,1.48.16l.59,0a38.37,38.37,0,0,0,7.13-.41,1.8,1.8,0,0,0,1.42-1.16c.69-1.78,6.68-17.45,7.22-20.07a6.49,6.49,0,0,0-1-5,8,8,0,0,0-3.14-2.63c.5-.28.8-.47.84-.5a1.83,1.83,0,0,0,.48-.48s2.45-3.53,4.44-6.17c6.88-9.08,21.66-26.67,27-33,2.7,8,.45,13.88-4.26,20.89-1.9,2.82-4,5.77-6.34,8.89-4.23,5.8-9,12.36-14.11,20.7-5.95,9.81-6.36,21.3-1.22,34.17,3.19,7.95,10.63,22.92,21.14,39C217,263.77,231.39,263.37,252,260.61,266.32,258.67,292.93,253,325.72,245.66Z"/><path class="cls-2" d="M199.31,100.71c1.32-11.83,3.76-13.08,5.94-13.3a43.12,43.12,0,0,0-2.59,26.52c-.62,0-1.15.06-1.56.07C200.25,112.52,198.47,108.39,199.31,100.71Z"/><path class="cls-2" d="M220.19,89.16a71.38,71.38,0,0,0,9.22,9.71c-4.67,1.12-10.85,3.28-13.73,7.17-1.09,1.49-1.86,2.68-2.48,3.64-1.65,2.56-1.95,3-4.7,3.55a42.84,42.84,0,0,1-4.41.6,41.83,41.83,0,0,1,2.73-26.51c.47,0,1,0,1.59,0,2.22,0,5.2.1,8.75.3A4.19,4.19,0,0,1,220.19,89.16Z"/><path class="cls-3" d="M460.6,242.24c1,1.81,0,2.63-.26,2.83a2.33,2.33,0,0,1-1.34.36c-2.24,0-5.94-2.09-9.63-6.41-4.92-5.78-13.61-16-19-19.19l1.68-.57c5.58,3.84,13.37,13,18.37,18.85,4.55,5.33,8.35,6.3,9.09,5.79.18-.11,0-.57-.16-1-3.38-5.82-12.32-23.09-15.09-28.46.46-.2.89-.41,1.28-.6C448.36,219.29,457.24,236.45,460.6,242.24Z"/><path class="cls-3" d="M450.17,208.9a1.83,1.83,0,0,1-.29,2.44,19.93,19.93,0,0,1-4.11,2.44,1.21,1.21,0,0,0-.2.09l-.85-1.65a.92.92,0,0,0-.17-.22l-1.32-1.08.9-.44h0c.8-.39,1.43-.73,1.91-1-2.36-3.25-4.77-6.26-7.22-9.06l.84-.75.11.12a3.91,3.91,0,0,0,2.17.67,3.82,3.82,0,0,0,1.47-.3C445.75,202.91,448,205.83,450.17,208.9Z"/><path class="cls-3" d="M446.89,194.34a5.1,5.1,0,0,1-1.28,4.24,5.85,5.85,0,0,1-2.19,1.57c-.31-.39-.64-.77-1-1.15a4.24,4.24,0,0,0,2.13-1.37,3.69,3.69,0,0,0,.92-3.1c-.5-3.61-5.59-8.87-13.63-14.06a20.54,20.54,0,0,0-7.48-2.7,8.33,8.33,0,0,1-.09-.88.7.7,0,0,0-.53-.67,23,23,0,0,1,8.87,3.06C437.63,182.52,446.12,188.76,446.89,194.34Z"/><path class="cls-3" d="M444.72,212.22l.85,1.65c-.39.19-.82.4-1.28.6-.38-.74-.65-1.25-.76-1.48l-1.72-1.42c.51-.23,1-.44,1.42-.65l1.32,1.08A.92.92,0,0,1,444.72,212.22Z"/><path class="cls-3" d="M443.53,213c.11.23.38.74.76,1.48-1.73.81-4,1.77-7,2.9-1.55.59-3.29,1.22-5.24,1.89a11.24,11.24,0,0,0-3.13-1.63.67.67,0,0,0-.42,0l-.31-.94c6.29-2.08,10.63-3.8,13.59-5.12Z"/><path class="cls-3" d="M442.44,199c.34.38.67.76,1,1.15a3.82,3.82,0,0,1-1.47.3,3.91,3.91,0,0,1-2.17-.67l-.11-.12a.74.74,0,0,1,0-.88.71.71,0,0,1,1-.11A2.15,2.15,0,0,0,442.44,199Z"/><path class="cls-3" d="M442.44,199a2.15,2.15,0,0,1-1.77-.33.71.71,0,0,0-1,.11.74.74,0,0,0,0,.88l-.84.75a109.21,109.21,0,0,0-12.18-12l.75-.89.43.43a.77.77,0,0,0,.49.19.7.7,0,0,0,.49-1.21,13.64,13.64,0,0,1-2.64-3.55A110.15,110.15,0,0,1,442.44,199Z"/><path class="cls-3" d="M443.23,210.92c-.43.21-.91.42-1.42.65-35.24-28.66-70.5-31.82-92-25.09-12,3.76-20.1,10.68-22.36,19-5.43,20,9.7,29.8,15.16,32.59l-2,.46c-6.48-3.82-19.7-14.2-14.49-33.43,2.38-8.78,10.87-16.07,23.28-20C371.35,178.25,407.38,181.49,443.23,210.92Z"/><path class="cls-3" d="M421.76,222.58a43.39,43.39,0,1,1-56.47,60.08,1.59,1.59,0,0,1-.12-.27l4.35.22A39.71,39.71,0,1,0,416,224.26c-8.86,2.54-20,5.41-33.92,8.58l-7.49,1.72a39.27,39.27,0,0,0-10.86,24.95l-3.62,3.36a2.11,2.11,0,0,1-.09-.38,3.69,3.69,0,0,1,0-.58,43,43,0,0,1,8.65-26L346.26,241a17.49,17.49,0,0,0-2.17-.64l0-.09a.72.72,0,0,0,.79-.44.69.69,0,0,0-.39-.91c-.15-.06-.83-.34-1.86-.87l28.6-6.51,10.06-2.29c14.11-3.22,25.29-6.12,34.13-8.65l.26-.08c4.85-1.39,9-2.68,12.52-3.85l.31.94a.74.74,0,0,0-.45.48.69.69,0,0,0,.48.87,8.36,8.36,0,0,1,1.84.85C427.86,220.68,425,221.6,421.76,222.58Z"/><path class="cls-3" d="M437.44,253.71a.73.73,0,0,1,.13.61l-1.29,4.82a.71.71,0,0,1-.68.53h-4.12c.09-.45.18-.92.29-1.42h3.28l.91-3.4h-3.51c.1-.49.19-1,.29-1.42h4.14A.69.69,0,0,1,437.44,253.71Z"/><path class="cls-1" d="M437.57,254.32a.73.73,0,0,0-.13-.61.69.69,0,0,0-.56-.28h-4.14c.23-1.15.43-2.21.6-3.07a3.54,3.54,0,0,0-2.11-3.93l-10.51-4.36a27.33,27.33,0,0,0-45.08,12.3l-10.74,4.16a.88.88,0,0,0-.23.14l-.9.84a39.27,39.27,0,0,1,10.86-24.95l7.49-1.72c13.93-3.17,25.06-6,33.92-8.58a39.71,39.71,0,1,1-46.52,58.35c6,.33,10.1.57,10.21.58h0a.93.93,0,0,0,.23,0l3.38-1.15a27.33,27.33,0,0,0,45.68-17,6.35,6.35,0,0,0,2-3.3c.12-.58.27-1.26.43-2h4.12a.71.71,0,0,0,.68-.53Z"/><path class="cls-3" d="M431.23,246.43a3.54,3.54,0,0,1,2.11,3.93c-.17.86-.37,1.92-.6,3.07h-.87a.68.68,0,0,0-.68.56c.28-1.46.55-2.84.76-3.91a2.13,2.13,0,0,0-1.26-2.35l-10.61-4.4a.69.69,0,0,0,.76-.18.71.71,0,0,0,0-1l-.09-.08Z"/><path class="cls-3" d="M431.87,253.43h.87c-.1.46-.19.93-.29,1.42h-.58a.71.71,0,0,1-.7-.72.45.45,0,0,1,0-.12s0,0,0,0A.68.68,0,0,1,431.87,253.43Z"/><path class="cls-3" d="M431.87,254.85h.58c-.23,1.13-.46,2.31-.68,3.4h-.87a.72.72,0,0,0-.69.57c.31-1.49.65-3.2,1-4.81a.45.45,0,0,0,0,.12A.71.71,0,0,0,431.87,254.85Z"/><path class="cls-1" d="M430.69,247.73a2.13,2.13,0,0,1,1.26,2.35c-.21,1.07-.48,2.45-.76,3.91,0,0,0,0,0,0-.32,1.61-.66,3.32-1,4.81-.2,1-.39,1.86-.54,2.57A5.22,5.22,0,0,1,428,264a.67.67,0,0,0-.22.19c-2.28,2-6.26,3.43-10,4.63-2.07.67-7.75,2.59-14.12,4.75-1.48.5-3,1-4.52,1.54l-.51-1.62c16.92-5.25,24.35-11.13,24.71-11.43a.69.69,0,0,0,.25-.67c-2.36-13.62-15.35-15.15-15.48-15.16a.73.73,0,0,0-.33,0l-39.28,15.29a.93.93,0,0,0-.19.11l-4.17,3.37L363,263.69a1.83,1.83,0,0,0,.66-1.67v-.11c0-.14,0-.28,0-.41l1.83-1.69,10.92-4.24,36.38-14.11a3.77,3.77,0,0,1,2.82,0l4.43,1.83Z"/><path class="cls-3" d="M430.9,258.25h.87c-.11.5-.2,1-.29,1.42h-.58a.7.7,0,0,1-.7-.71.61.61,0,0,1,0-.14A.72.72,0,0,1,430.9,258.25Z"/><path class="cls-3" d="M431.58,148.35c.91,2-.72,5.1-2.25,6.09l-1.27.85c-3.79,2.58-13.88,9.44-18.51,11.15A19.37,19.37,0,0,1,403,168a10.73,10.73,0,0,1-3.29-.59c-2.11-.64-8.25-2-8.31-2a1.84,1.84,0,0,1-.27-3.51,1.58,1.58,0,0,1,.31-.09c.19,0,19-3.73,35.88-14.65a2.43,2.43,0,0,1,.49-.22C429.87,146.4,431.11,147.31,431.58,148.35ZM408.28,163c3.82-1.42,12.57-7.25,16.64-10a119.08,119.08,0,0,1-25.3,10.6c.45.12.86.23,1.18.33C402.68,164.49,403.53,164.75,408.28,163Z"/><path class="cls-3" d="M430.9,259.67h.58c-.16.76-.31,1.44-.43,2a6.35,6.35,0,0,1-2,3.3,2.13,2.13,0,0,0,0-.25v-.08a.73.73,0,0,0-.7-.74.76.76,0,0,0-.37.1,5.22,5.22,0,0,0,1.64-2.63c.15-.71.34-1.59.54-2.57a.61.61,0,0,0,0,.14A.7.7,0,0,0,430.9,259.67Z"/><path class="cls-3" d="M432.08,219.26l-1.68.57a8.36,8.36,0,0,0-1.84-.85.69.69,0,0,1-.48-.87.74.74,0,0,1,.45-.48.67.67,0,0,1,.42,0A11.24,11.24,0,0,1,432.08,219.26Z"/><path class="cls-3" d="M429.1,264.66v.08a2.13,2.13,0,0,1,0,.25,10.77,10.77,0,0,1-1.6,1.27c.09-.55.17-1.1.23-1.66a.71.71,0,0,1,.11-.39A1.3,1.3,0,0,0,428,264a.76.76,0,0,1,.37-.1A.73.73,0,0,1,429.1,264.66Z"/><path class="cls-3" d="M428.81,187a.7.7,0,0,1-.49,1.21.77.77,0,0,1-.49-.19l-.43-.43a15.91,15.91,0,0,1-3.53-5.87c.77.55,1.53,1.13,2.3,1.73A13.64,13.64,0,0,0,428.81,187Z"/><path class="cls-3" d="M428,264a1.3,1.3,0,0,1-.22.19A.67.67,0,0,1,428,264Z"/><path class="cls-3" d="M427.47,266.26a10.77,10.77,0,0,0,1.6-1.27,27.33,27.33,0,0,1-45.68,17l1.52-.52a25.94,25.94,0,0,0,42.56-15.22Z"/><path class="cls-3" d="M427.81,264.21a.71.71,0,0,0-.11.39c-.06.56-.14,1.11-.23,1.66a38.84,38.84,0,0,1-9.25,3.93c-1.84.59-6.53,2.17-12,4a4,4,0,0,0-1.1-.15,4,4,0,0,0-1.2.18l-.23-.67c6.37-2.16,12.05-4.08,14.12-4.75C421.55,267.64,425.53,266.21,427.81,264.21Z"/><path class="cls-3" d="M427.4,187.56l-.75.89a92.32,92.32,0,0,0-15.08-10.31l.53-.95a.66.66,0,0,0,.44.1,43.12,43.12,0,0,1,4.48-.17q3.5,2.12,6.85,4.57A15.91,15.91,0,0,0,427.4,187.56Z"/><path class="cls-3" d="M426.17,183.42c-.77-.6-1.53-1.18-2.3-1.73a18.42,18.42,0,0,1-.94-4.16l1.45.24A17.73,17.73,0,0,0,426.17,183.42Z"/><path class="cls-3" d="M424.29,176.89a8.33,8.33,0,0,0,.09.88l-1.45-.24c0-.34-.05-.55-.05-.59a.7.7,0,0,1,.68-.73.45.45,0,0,1,.2,0A.7.7,0,0,1,424.29,176.89Z"/><path class="cls-3" d="M423.76,176.22a.45.45,0,0,0-.2,0,.7.7,0,0,0-.68.73s0,.25.05.59a48.45,48.45,0,0,0-5.91-.41c-.78-.48-1.57-.94-2.36-1.39A47.69,47.69,0,0,1,423.76,176.22Z"/><path class="cls-3" d="M423.6,261.41a.69.69,0,0,1-.25.67c-.36.3-7.79,6.18-24.71,11.43-2.78.86-5.81,1.7-9.11,2.51a46.13,46.13,0,0,1-10.66,1.36c-8.09,0-14.46-2.76-18.73-8.19a.72.72,0,0,1,.11-1l3.9-3.14,4.17-3.37a.93.93,0,0,1,.19-.11l39.28-15.29a.73.73,0,0,1,.33,0C408.25,246.26,421.24,247.79,423.6,261.41Zm-1.47-.17a16.62,16.62,0,0,0-14-13.57l-39,15.18-7.43,6c5.68,6.73,15.18,8.74,27.51,5.78C410,269.61,420.22,262.63,422.13,261.24Z"/><path class="cls-3" d="M420.81,242.15a.71.71,0,0,1,0,1,.69.69,0,0,1-.76.18.62.62,0,0,1-.23-.14h0a26.09,26.09,0,0,0-3.91-3.08l.28.09,4.52,1.88Z"/><path class="cls-3" d="M420.72,242.07l-4.52-1.88-.28-.09h0a25.91,25.91,0,0,0-38.59,13.63l-1.68.65a27.33,27.33,0,0,1,45.08-12.3Z"/><path class="cls-3" d="M420.08,243.33l-4.43-1.83a3.77,3.77,0,0,0-2.82,0l-36.38,14.11h0a.75.75,0,0,0,.46-.49c.12-.46.26-.91.41-1.36l35-13.57a5.16,5.16,0,0,1,3.59-.06h0a26.09,26.09,0,0,1,3.91,3.08h0A.62.62,0,0,0,420.08,243.33Z"/><path class="cls-3" d="M415.29,254.79a3,3,0,1,1-3,3A3,3,0,0,1,415.29,254.79Zm1.61,3a1.61,1.61,0,1,0-1.61,1.61A1.61,1.61,0,0,0,416.9,257.81Z"/><path class="cls-3" d="M417,177.12a43.12,43.12,0,0,0-4.48.17.66.66,0,0,1-.44-.1.69.69,0,0,1-.33-.53.7.7,0,0,1,.63-.77c.12,0,1-.11,2.26-.16C415.45,176.18,416.24,176.64,417,177.12Z"/><path class="cls-3" d="M414.66,175.73c-1.3.05-2.14.14-2.26.16a.7.7,0,0,0-.63.77.69.69,0,0,0,.33.53l-.53.95c-24.52-13.42-49.72-12.18-69-9.18-25.65,4-49.64,18.45-55.83,22.4,2.68,4.14,8.32,14.16,8.32,22,0,15.36-27.19,28.93-44.28,29.32-20.08.44-31.76-9.39-40.25-34-8.36-24.2,12.45-67.81,17-76.81-3.22-1.82-10.63-6-13.62-7.6,1.23,7.44-1.39,13.55-5.72,20-1.94,2.88-4.12,5.86-6.42,9-4.19,5.73-9,12.23-13.94,20.45-5.32,8.75-5.63,19.15-.94,30.88,3.12,7.8,10.43,22.51,20.79,38.32S229.07,260,251.47,257c16.46-2.21,49.31-9.4,89.16-18.43a30.78,30.78,0,0,0,3.35,1.72l.13,0,0,.09a16.64,16.64,0,0,0-3.48-.37,16.36,16.36,0,0,0-15.28,10.68l-1-.42a24.09,24.09,0,0,0,1.43-4.61c-32.79,7.36-59.4,13-73.76,15-20.57,2.76-35,3.16-47.35-15.71-10.51-16.05-18-31-21.14-39-5.14-12.87-4.73-24.36,1.22-34.17,5.08-8.34,9.88-14.9,14.11-20.7,2.29-3.12,4.44-6.07,6.34-8.89,4.71-7,7-12.86,4.26-20.89-5.35,6.33-20.13,23.92-27,33-2,2.64-4.41,6.14-4.44,6.17a1.83,1.83,0,0,1-.48.48s-.34.22-.84.5a8,8,0,0,1,3.14,2.63,6.49,6.49,0,0,1,1,5c-.54,2.62-6.53,18.29-7.22,20.07a1.8,1.8,0,0,1-1.42,1.16,38.37,38.37,0,0,1-7.13.41l-.59,0c-.53,0-1-.09-1.48-.16a6.16,6.16,0,0,0,1.65,2.59,29.86,29.86,0,0,1,8.39,8.63c2.92,4.85,10.17,17.71,16.57,29.06,3.84,6.8,7.46,13.22,9.78,17.26l.77,1.34c5.83,10.26,11.36,20,34.38,18.78,4.62-.24,8.72-.53,12.34-.79,5.44-.4,10.16-.75,14.9-.75,9.34,0,18.76,1.34,34,6.25A16.62,16.62,0,0,0,309,271.67l.57,1a.72.72,0,0,0-.23.67,4.59,4.59,0,0,0,1,1.84,19.44,19.44,0,0,1-9.07,2.24,22.63,22.63,0,0,1-6.63-1c-22.31-7.19-31.28-6.54-47.55-5.35-3.63.27-7.75.56-12.41.8-25.29,1.28-31.64-9.86-37.77-20.63l-.75-1.34c-.42-.71-.87-1.5-1.36-2.36a16.72,16.72,0,0,1-8.61-1.53,42.6,42.6,0,1,1-62.39-18.29,15.46,15.46,0,0,1-3.94.06,1.83,1.83,0,0,1-1.21-.78,1.8,1.8,0,0,1-.28-1.39c2.63-13.13,11.39-22.92,25.33-28.31a65.71,65.71,0,0,1,16.58-3.94c-2.42-4.52-3.72-12.48-2.92-15.89a24.22,24.22,0,0,1,6.25-15.64,2,2,0,0,1,.28-.23,11.59,11.59,0,0,1,5.64-1.54,14.54,14.54,0,0,0,5.64-2c.65-.93,2.6-3.72,4.31-6,7.86-10.36,25.87-31.67,28.73-35-1.59.26-3.06.43-4.3.52l-.08-1.13.17,0a.71.71,0,0,0,.51-.86c-.15-.57-.29-1.13-.4-1.7a42.84,42.84,0,0,0,4.41-.6c2.75-.54,3.05-1,4.7-3.55.62-1,1.39-2.15,2.48-3.64,2.88-3.89,9.06-6.05,13.73-7.17a71.38,71.38,0,0,1-9.22-9.71,4.19,4.19,0,0,0-3-1.56c-3.55-.2-6.53-.3-8.75-.3-.58,0-1.12,0-1.59,0,.22-.52.45-1,.69-1.55a.7.7,0,0,0-.34-.94.77.77,0,0,0-.3-.06l0-1.13c3-.08,7.2.1,10.53.28a7.94,7.94,0,0,1,5.7,3c.27.34.58.73.92,1.14h0a.72.72,0,0,0,.2.36l.72.72c.82,1,1.74,2,2.74,3.05a41.68,41.68,0,0,0,6.06,5.4,2.41,2.41,0,0,1-.94,4.35l-1,.2a4.13,4.13,0,0,0-1.45.33h0c-3.64.88-9.4,2.71-11.67,5.78-1,1.39-1.77,2.54-2.35,3.45-1.59,2.46-2.58,3.82-5.13,4.67a1.1,1.1,0,0,1,.16.15h0a1.81,1.81,0,0,1,.33.5.54.54,0,0,0,.05.11,9.09,9.09,0,0,0,1.28,2,.7.7,0,0,0,.36.75.74.74,0,0,0,.46.06,4.58,4.58,0,0,0,.86.57c2.06,1,10.77,6,14.5,8.07l1.7.95a1.84,1.84,0,0,1,.72,2.45c-.26.5-26.2,50.48-17.57,75.49,9.19,26.64,21.31,31.85,36.7,31.52,17-.39,40.69-13.38,40.69-25.64,0-7.55-6.78-18.84-8.69-21.36a1.85,1.85,0,0,1,.42-2.63l.18-.12c2.67-1.8,29.15-19.3,58.71-23.89,14.55-2.27,27.28-2.58,39.09-.91a98.09,98.09,0,0,1,10.08,2c1.25.31,2.51.65,3.75,1A91.87,91.87,0,0,1,414.66,175.73Zm-222,68.14c-1.89-3.35-4.09-7.23-6.35-11.26-4.45-7.88-9.31-16.49-12.82-22.62l1.74.27a.72.72,0,0,0,.82-.59.71.71,0,0,0-.58-.81c-.17,0-1.24-.21-2.88-.42-1.14-2-2.1-3.63-2.81-4.8a25,25,0,0,0-6.44-6.83c-4.58.23-34.34,2.71-40.92,27.33a29.22,29.22,0,0,0,3.94-.61c-.38.53-.75,1.06-1.09,1.61a.7.7,0,0,0,.2,1,.67.67,0,0,0,.38.11.69.69,0,0,0,.6-.32c.64-1,1.34-2,2.08-2.9.56-.14,1.14-.32,1.75-.51l.11,0a51.27,51.27,0,0,1,9-1.05l.13,0a1.38,1.38,0,0,1,.64,0c.7,0,1.41,0,2.15,0,9.29,0,21.65,1.78,30.27,9.11,2.15,1.83,4,3.46,5.63,4.89C185.13,241.38,187.74,243.68,192.7,243.87Zm-6.54,19.43a38.55,38.55,0,0,0-7.08-22.37c-1-.85-2.06-1.79-3.23-2.82-1.63-1.42-3.46-3-5.59-4.85-8.59-7.31-21.39-8.56-30.14-8.23a38.93,38.93,0,1,0,46,38.27Zm-9-95a2.87,2.87,0,0,0-.43-2.22c-.75-1.09-2.27-1.85-4.43-2.23a14.19,14.19,0,0,0-2.48-.19h-.21a8.51,8.51,0,0,0-3.58.86,21,21,0,0,0-5,13.06v.2c0,.41,0,.83,0,1.26.16,3.87.59,6.32,1.29,7.27.35.47.78.55,2.31.65l.64,0a29.36,29.36,0,0,0,5.24-.24C173.14,179.94,176.82,170,177.17,168.35Z"/><path class="cls-3" d="M409.55,149.06a4.68,4.68,0,0,1-1.66,5.66,1.86,1.86,0,0,1-.53.3l-16.62,5.73-8.65,3a1.89,1.89,0,0,1-.88.08,1.84,1.84,0,0,1-1.45-1.22,1.82,1.82,0,0,1,1.14-2.33l24.93-8.61a1,1,0,0,0,.31-1.25c-.78-2-4.76-4.27-6.6-4.1-2.46.19-11.69.24-19.84.28-4.4,0-8.2,0-10.25.08-1.05,0-2.06,0-3.08,0-4.59,0-8.93,0-14.79,2.23-.73.28-1.48.58-2.28.91-7.31,3-18.38,7.48-44.29,5.36-16.34-1.34-25,3.4-29.31,7.62a19.23,19.23,0,0,0-6,14.68c.24,4.77,1.33,7.76,3.21,8.9s4.87.69,9-1.24a1.84,1.84,0,0,1,1.55,3.33l-.4.18a19.41,19.41,0,0,1-7.71,2,8.22,8.22,0,0,1-4.33-1.13c-3-1.84-4.69-5.72-5-11.87a22.87,22.87,0,0,1,7.13-17.51c4.89-4.74,14.44-10.08,32.15-8.64,25.05,2.05,35.21-2.08,42.62-5.1.82-.33,1.59-.65,2.34-.94,6.5-2.5,11.39-2.48,16.12-2.47h3c2.08-.05,5.89-.06,10.3-.08,7.68,0,17.24-.09,19.56-.28C402.54,142.36,408.14,145.44,409.55,149.06Z"/><path class="cls-3" d="M406.2,274.23a4,4,0,1,1-5.15,3.89,3.93,3.93,0,0,1,.82-2.42Zm1.54,3.89a2.64,2.64,0,1,0-2.64,2.64A2.64,2.64,0,0,0,407.74,278.12Z"/><path class="cls-1" d="M406.14,150.4a1,1,0,0,1-.31,1.25l-24.93,8.61a1.82,1.82,0,0,0-1.14,2.33,1.84,1.84,0,0,0,1.45,1.22l-.09.61c-11.81-1.67-24.54-1.36-39.09.91-29.56,4.59-56,22.09-58.71,23.89l-.26-.58.4-.18a1.84,1.84,0,0,0-1.55-3.33c-4.14,1.93-7.17,2.35-9,1.24s-3-4.13-3.21-8.9a19.23,19.23,0,0,1,6-14.68c4.35-4.22,13-9,29.31-7.62,25.91,2.12,37-2.39,44.29-5.36.8-.33,1.55-.63,2.28-.91,5.86-2.25,10.2-2.24,14.79-2.23,1,0,2,0,3.08,0,2.05,0,5.85-.06,10.25-.08,8.15,0,17.38-.09,19.84-.28C401.38,146.13,405.36,148.41,406.14,150.4Z"/><path class="cls-3" d="M405.1,274.08a4,4,0,0,1,1.1.15l-4.33,1.47a4,4,0,0,1,2-1.44A4,4,0,0,1,405.1,274.08Z"/><path class="cls-3" d="M404,260.61a.71.71,0,0,1-.41.91l-13.3,5.14a.8.8,0,0,1-.26,0,.7.7,0,0,1-.26-1.36l13.32-5.14A.71.71,0,0,1,404,260.61Z"/><path class="cls-3" d="M403.67,273.59l.23.67a4,4,0,0,0-2,1.44c-6.18,2.09-12.66,4.31-17,5.78-.3-.25-.59-.53-.88-.8a.7.7,0,0,0-.75-.14c3.74-1.28,9.81-3.36,15.87-5.41C400.67,274.6,402.19,274.09,403.67,273.59Z"/><path class="cls-3" d="M400,257.9a.71.71,0,0,1-.4.92l-14,5.41a.56.56,0,0,1-.25,0,.72.72,0,0,1-.66-.46.71.71,0,0,1,.41-.91l14-5.4A.71.71,0,0,1,400,257.9Z"/><path class="cls-1" d="M398.64,273.51l.51,1.62c-6.06,2.05-12.13,4.13-15.87,5.41l-3.6,1.23-11-.61-.15-.27a1.83,1.83,0,0,0-2.49-.72,1.8,1.8,0,0,0-.76.81c-10.75-.56-25.24-1.24-35.53-1.46-12.1-.26-16.55-3.22-18.15-5A25.63,25.63,0,0,0,315,272c2.39,2.39,7.64,3.78,12.07,4.28,4.59.52,16.42-.19,19.94-.42a3.78,3.78,0,0,0,2.35-1l11.8-10.95a1.61,1.61,0,0,0,1,.16,2,2,0,0,0,.91-.38l1.11,1.37-3.9,3.14a.72.72,0,0,0-.11,1c4.27,5.43,10.64,8.19,18.73,8.19A46.13,46.13,0,0,0,389.53,276C392.83,275.21,395.86,274.37,398.64,273.51Z"/><path class="cls-3" d="M396.54,255.23a.71.71,0,0,1-.4.92l-15.74,6a.59.59,0,0,1-.25.05.73.73,0,0,1-.67-.45.71.71,0,0,1,.42-.92l15.73-6A.7.7,0,0,1,396.54,255.23Z"/><path class="cls-3" d="M383.55,267.34a3,3,0,1,1-3,3A3,3,0,0,1,383.55,267.34Zm1.61,3a1.62,1.62,0,0,0-3.23,0,1.62,1.62,0,1,0,3.23,0Z"/><path class="cls-3" d="M384,280.68c.29.27.58.55.88.8l-1.52.52q-.17-.13-.33-.3a.71.71,0,0,1,0-1,1,1,0,0,1,.25-.17A.7.7,0,0,1,384,280.68Z"/><path class="cls-3" d="M383.06,281.7q.17.17.33.3L380,283.15a.93.93,0,0,1-.23,0h0c-.11,0-4.18-.25-10.21-.58-.3-.47-.59-1-.86-1.45l11,.61,3.6-1.23a1,1,0,0,0-.25.17A.71.71,0,0,0,383.06,281.7Z"/><path class="cls-3" d="M375.64,254.37l1.68-.65c-.15.45-.29.9-.41,1.36a.75.75,0,0,1-.46.49.85.85,0,0,1-.23,0l-.18,0a.71.71,0,0,1-.5-.87C375.57,254.6,375.6,254.48,375.64,254.37Z"/><path class="cls-3" d="M376.45,255.57h0l-10.92,4.24-1.83,1.69c0-.67,0-1.33.07-2l.9-.84a.88.88,0,0,1,.23-.14l10.74-4.16c0,.11-.07.23-.1.34a.71.71,0,0,0,.5.87l.18,0A.85.85,0,0,0,376.45,255.57Z"/><path class="cls-3" d="M368.66,281.16c.27.49.56,1,.86,1.45l-4.35-.22a1.77,1.77,0,0,1,.09-1.41Z"/><path class="cls-3" d="M368.51,280.89l.15.27-3.4-.18a1.8,1.8,0,0,1,.76-.81A1.83,1.83,0,0,1,368.51,280.89Z"/><path class="cls-3" d="M365.26,281a1.77,1.77,0,0,0-.09,1.41c-10.74-.56-25.2-1.25-35.47-1.46-12.86-.28-17.63-3.58-19.38-5.73.43-.23.85-.46,1.26-.71,1.6,1.81,6.05,4.77,18.15,5C340,279.74,354.51,280.42,365.26,281Z"/><path class="cls-3" d="M360.15,262.87l3.62-3.36c0,.66-.07,1.32-.07,2l-2.59,2.41A1.82,1.82,0,0,1,360.15,262.87Z"/><path class="cls-3" d="M363.7,262a1.83,1.83,0,0,1-.66,1.67,2,2,0,0,1-.91.38,1.61,1.61,0,0,1-1-.16l2.59-2.41c0,.13,0,.27,0,.41Z"/><path class="cls-3" d="M361.11,263.91l-11.8,10.95a3.78,3.78,0,0,1-2.35,1c-3.52.23-15.35.94-19.94.42-4.43-.5-9.68-1.89-12.07-4.28.36-.32.71-.63,1-1,2,1.92,6.73,3.34,11.18,3.85s16.2-.21,19.7-.44a2.37,2.37,0,0,0,1.49-.64l4.46-4.15,7.33-6.81A1.82,1.82,0,0,0,361.11,263.91Z"/><path class="cls-3" d="M346.26,241a16.26,16.26,0,1,1-21.74,17.55c.44-.89.86-1.74,1.25-2.56a2.35,2.35,0,0,0,0,.27,14.86,14.86,0,1,0,17.6-14.6Z"/><path class="cls-3" d="M344.51,238.94a.69.69,0,0,1,.39.91.72.72,0,0,1-.79.44l-.13,0a30.78,30.78,0,0,1-3.35-1.72l2-.46C343.68,238.6,344.36,238.88,344.51,238.94Z"/><path class="cls-3" d="M339.16,247.27a7.49,7.49,0,1,1-7.49,7.49A7.49,7.49,0,0,1,339.16,247.27Zm6.07,7.49a6.08,6.08,0,1,0-6.07,6.07A6.08,6.08,0,0,0,345.23,254.76Z"/><path class="cls-3" d="M344.09,240.38a17.49,17.49,0,0,1,2.17.64l-2.9.66a14.76,14.76,0,0,0-11.49,2.6h0l-2.32.52-.21-.23A16.15,16.15,0,0,1,340.61,240,16.64,16.64,0,0,1,344.09,240.38Z"/><path class="cls-3" d="M340.61,241.42a14.65,14.65,0,0,1,2.75.26l-11.49,2.6A14.75,14.75,0,0,1,340.61,241.42Z"/><path class="cls-3" d="M329.55,244.8l2.32-.52a14.79,14.79,0,0,0-2.62,2.44A15.22,15.22,0,0,0,329.55,244.8Z"/><path class="cls-3" d="M329.34,244.57l.21.23a15.22,15.22,0,0,1-.3,1.92,14.77,14.77,0,0,0-3.48,9.29c-.39.82-.81,1.67-1.25,2.56a14.44,14.44,0,0,1-.17-2.29,16.1,16.1,0,0,1,5-11.71Z"/><path class="cls-3" d="M329.25,246.72a42.25,42.25,0,0,1-3.48,9.29A14.77,14.77,0,0,1,329.25,246.72Z"/><path class="cls-3" d="M324.29,250.27l1,.42a16.42,16.42,0,0,0-1,5.59,14.44,14.44,0,0,0,.17,2.29c-.38.77-.79,1.57-1.21,2.4A38,38,0,0,1,316,271.06a3,3,0,0,1-.85-1.3.69.69,0,0,0-.86-.48.74.74,0,0,0-.22.1l-1.11-.54a33.68,33.68,0,0,0,7.09-9.53C321.77,255.88,323.25,252.88,324.29,250.27Z"/><path class="cls-3" d="M316,271.06c-.33.33-.68.64-1,1a4.34,4.34,0,0,1-1.16-1.87.71.71,0,0,1,.27-.77.74.74,0,0,1,.22-.1.69.69,0,0,1,.86.48A3,3,0,0,0,316,271.06Z"/><path class="cls-3" d="M313,268.84l1.11.54a.71.71,0,0,0-.27.77A4.34,4.34,0,0,0,315,272a25.63,25.63,0,0,1-3.37,2.47,3.68,3.68,0,0,1-.86-1.41.72.72,0,0,0-.82-.55.67.67,0,0,0-.34.16l-.57-1A20.17,20.17,0,0,0,313,268.84Z"/><path class="cls-3" d="M310.72,273.08a3.68,3.68,0,0,0,.86,1.41c-.41.25-.83.48-1.26.71a4.59,4.59,0,0,1-1-1.84.72.72,0,0,1,.23-.67.67.67,0,0,1,.34-.16A.72.72,0,0,1,310.72,273.08Z"/><path class="cls-3" d="M246.2,54.44c.18.17,4.47,4.26,1.65,15.74-1.19,6-4.06,8.28-4.18,8.37a.7.7,0,0,1-.43.15.76.76,0,0,1-.4-.13l-3.5-2.37a.71.71,0,0,1-.23-.9c.43-.86,1.31-3.38.26-4.73a4,4,0,0,0-3.52-1.31.68.68,0,0,1-.68-.29.71.71,0,0,1,0-.74c.25-.46,6.21-11.14,10.2-13.85A.69.69,0,0,1,246.2,54.44Zm.26,15.44c2.13-8.65.06-12.7-.84-13.95-3,2.47-7.12,9.29-8.65,11.92a5,5,0,0,1,3.51,1.85c1.42,1.81.61,4.49.14,5.66l2.55,1.73A14.27,14.27,0,0,0,246.46,69.88Z"/><path class="cls-3" d="M243.19,105.66a4.21,4.21,0,1,1,0,8.42,4,4,0,0,1-1.21-.18l.36,0,.13-1.36a2.46,2.46,0,0,0,.72.1,2.8,2.8,0,1,0,0-5.6h-.31v0a.72.72,0,0,0,.7-.64.68.68,0,0,0-.47-.72Z"/><path class="cls-3" d="M243.1,105.67a.68.68,0,0,1,.47.72.72.72,0,0,1-.7.64h-.07l-2.48-.24A4.14,4.14,0,0,1,243.1,105.67Z"/><path class="cls-3" d="M242.93,105.62a.48.48,0,0,1,.17,0,4.14,4.14,0,0,0-2.78,1.12l-5.09-.48a.53.53,0,0,0,.21,0,.7.7,0,0,0,.47-.87,2.27,2.27,0,0,0-.16-.46Z"/><path class="cls-3" d="M242.87,107v0a2.81,2.81,0,0,0-.61,5.44l-2.55-.27a4.2,4.2,0,0,1,.6-5.46l2.48.24Z"/><path class="cls-3" d="M242.47,112.53v0l-.2,0Z"/><path class="cls-3" d="M242.47,112.57l-.13,1.36-.36,0a4.19,4.19,0,0,1-2.26-1.65l2.55.27Z"/><path class="cls-3" d="M239.72,112.25A4.19,4.19,0,0,0,242,113.9l-7.78-.78-.26,0-.27,0,.17-.15a.69.69,0,0,0,.29-.57.71.71,0,0,0-.71-.71h0q.32,0,.63.06l.28,0Z"/><path class="cls-3" d="M239.26,72.47c.24,2-2.18,4.69-3.76,5.93s-6.94,8.51-8.91,11.23a.74.74,0,0,1-.52.29h0a.67.67,0,0,1-.5-.21l-.61-.61L224,88h0a.72.72,0,0,1,.14-.56c.06-.08,6.63-8.72,7.81-11.18l.47-1c1.09-2.44,2.59-5.78,5.52-4.46A2.11,2.11,0,0,1,239.26,72.47Zm-4.63,4.82c1.64-1.28,3.36-3.54,3.22-4.64,0-.19-.09-.4-.5-.59-1.53-.68-2.44,1-3.66,3.76-.16.37-.32.73-.48,1.06-1.08,2.27-6.15,9-7.58,10.94l.3.31C227.59,85.86,232.94,78.63,234.63,77.29Z"/><path class="cls-3" d="M237.8,115.73c.19,1-.82,2.25-2.48,4.17a20.2,20.2,0,0,0-2,2.54A19.56,19.56,0,0,0,231.5,128a.72.72,0,0,1-.7.59h-.12a.69.69,0,0,1-.23-.09.71.71,0,0,1-.35-.73,21.17,21.17,0,0,1,2-6,22,22,0,0,1,2.15-2.74,13.3,13.3,0,0,0,2.16-2.92,7.52,7.52,0,0,0-2.44.23c-2.06.38-4.89.91-7.49-.29-3.53-1.64-2.79-6.68-2.28-8.83a12,12,0,0,0-4.94,4.28,71.41,71.41,0,0,0-4.95,8.11.71.71,0,0,1-.5.36,6.29,6.29,0,0,1-.82-.81.66.66,0,0,1,.06-.2,72.84,72.84,0,0,1,5.08-8.31c2.46-3.33,5.49-5.38,7.2-4.86a.71.71,0,0,1,.43.35.68.68,0,0,1,0,.54c0,.07-2,6.55,1.28,8.09,2.18,1,4.65.55,6.64.18,1.47-.27,2.63-.48,3.43-.05A1.22,1.22,0,0,1,237.8,115.73Z"/><path class="cls-3" d="M235.91,105.41a.7.7,0,0,1-.47.87.53.53,0,0,1-.21,0h-.13a.69.69,0,0,1-.54-.49,3.52,3.52,0,0,0-.46-1l1.65.16A2.27,2.27,0,0,1,235.91,105.41Z"/><path class="cls-3" d="M235.75,105l-1.65-.16a2.63,2.63,0,0,0-1.41-1.17c-1.8-.58-3.93,1-4.76,3.59s-.05,5.13,1.74,5.71a2.72,2.72,0,0,0,2-.19h0a9.33,9.33,0,0,0,1.94.34,4.81,4.81,0,0,1-3.24,1.38,3.64,3.64,0,0,1-1.18-.19c-2.53-.82-3.73-4.18-2.66-7.48a6.9,6.9,0,0,1,3.73-4.34h0l1.45-.33a3.67,3.67,0,0,1,1.35.18A4.29,4.29,0,0,1,235.75,105Z"/><path class="cls-3" d="M235.1,106.3,232,106a2.78,2.78,0,0,0-2,3c0,1.86,1.63,2.41,3.36,2.61h0a.67.67,0,0,0-.5.21,4.62,4.62,0,0,1-1.2.88h0a3.77,3.77,0,0,1-3.06-3.68,4.18,4.18,0,0,1,3.18-4.44.46.46,0,0,1,.2,0l2.07.19a3.52,3.52,0,0,1,.46,1A.69.69,0,0,0,235.1,106.3Z"/><path class="cls-3" d="M234.13,112.35a.69.69,0,0,1-.29.57l-.17.15s0,0,0,0a9.33,9.33,0,0,1-1.94-.34,4.62,4.62,0,0,0,1.2-.88.67.67,0,0,1,.5-.21A.71.71,0,0,1,234.13,112.35Z"/><path class="cls-3" d="M231.78,102.1l-1.45.33A4.13,4.13,0,0,1,231.78,102.1Z"/><path class="cls-3" d="M224.91,89.1l-.72-.72A.72.72,0,0,1,224,88Z"/><path class="cls-3" d="M213.81,119.92a.74.74,0,0,1-.46-.06.7.7,0,0,1-.36-.75A6.29,6.29,0,0,0,213.81,119.92Z"/><path class="cls-3" d="M207.17,84.83a.7.7,0,0,1,.34.94c-.24.52-.47,1-.69,1.55q-.93,0-1.56.09h0c.31-.75.64-1.49,1-2.23a.7.7,0,0,1,.64-.41A.77.77,0,0,1,207.17,84.83Z"/><path class="cls-3" d="M206.84,83.64l0,1.13a.7.7,0,0,0-.64.41c-.34.74-.67,1.48-1,2.23-2.18.22-4.62,1.47-5.94,13.3-.84,7.68.94,11.81,1.79,13.29.41,0,.94,0,1.56-.07.13.65.3,1.3.46,1.95a.71.71,0,0,0,.69.53l.08,1.13c-2.22.17-3.71.13-3.81.13a1.79,1.79,0,0,1-1.31-.61c-.19-.2-4.4-5.08-3.11-16.75,1.05-9.49,3-16,9.24-16.56C205.45,83.7,206.11,83.66,206.84,83.64Z"/><path class="cls-3" d="M205.26,87.41q.63-.07,1.56-.09a41.83,41.83,0,0,0-2.73,26.51c-.52,0-1,.08-1.43.1a43.12,43.12,0,0,1,2.59-26.52Z"/><path class="cls-3" d="M204.49,115.53a.71.71,0,0,1-.51.86l-.17,0a.71.71,0,0,1-.69-.53c-.16-.65-.33-1.3-.46-1.95.44,0,.91-.05,1.43-.1C204.2,114.4,204.34,115,204.49,115.53Z"/><path class="cls-1" d="M179.08,240.93a38.55,38.55,0,0,1,7.08,22.37,38.93,38.93,0,1,1-46-38.27c8.75-.33,21.55.92,30.14,8.23,2.13,1.81,4,3.43,5.59,4.85C177,239.14,178.08,240.08,179.08,240.93ZM174,263.3a26.79,26.79,0,1,0-26.79,26.79A26.82,26.82,0,0,0,174,263.3Z"/><path class="cls-3" d="M175.51,208.86a.71.71,0,0,1,.58.81.72.72,0,0,1-.82.59l-1.74-.27-.9-1.55C174.27,208.65,175.34,208.83,175.51,208.86Z"/><path class="cls-3" d="M172.63,208.44l.9,1.55c-4.63-.65-17.37-2.2-24.67-.51s-15,6.88-20.29,13.52c-.78.22-1.51.39-2.17.53,5.46-7.55,14-13.52,22.15-15.42C155.64,206.46,167.25,207.71,172.63,208.44Z"/><path class="cls-3" d="M165.05,258.52a4.78,4.78,0,1,1-4.78,4.78A4.79,4.79,0,0,1,165.05,258.52Zm3.37,4.78a3.37,3.37,0,1,0-3.37,3.36A3.38,3.38,0,0,0,168.42,263.3Z"/><path class="cls-3" d="M147.23,236.51a26.79,26.79,0,1,1-26.79,26.79A26.82,26.82,0,0,1,147.23,236.51Zm25.38,26.79a25.38,25.38,0,1,0-25.38,25.38A25.41,25.41,0,0,0,172.61,263.3Z"/><path class="cls-3" d="M147.23,256.19a7.11,7.11,0,1,1-7.11,7.11A7.12,7.12,0,0,1,147.23,256.19Zm5.7,7.11a5.7,5.7,0,1,0-5.7,5.7A5.71,5.71,0,0,0,152.93,263.3Z"/><path class="cls-3" d="M147.68,241.38a4.78,4.78,0,1,1-4.78,4.78A4.79,4.79,0,0,1,147.68,241.38Zm3.37,4.78a3.37,3.37,0,1,0-3.37,3.36A3.38,3.38,0,0,0,151.05,246.16Z"/><path class="cls-3" d="M147.68,276.24A4.78,4.78,0,1,1,142.9,281,4.79,4.79,0,0,1,147.68,276.24Zm3.37,4.78a3.37,3.37,0,1,0-3.37,3.37A3.38,3.38,0,0,0,151.05,281Z"/><path class="cls-3" d="M128.57,223c-.74.95-1.44,1.91-2.08,2.9a.69.69,0,0,1-.6.32.67.67,0,0,1-.38-.11.7.7,0,0,1-.2-1c.34-.55.71-1.08,1.09-1.61C127.06,223.39,127.79,223.22,128.57,223Z"/><path class="cls-4" d="M134.16,263.53a4.07,4.07,0,1,1-4.07-4.07A4.07,4.07,0,0,1,134.16,263.53Z"/></svg>