<svg width="41" height="41" viewBox="0 0 41 41" fill="none" xmlns="http://www.w3.org/2000/svg">
<g opacity="0.4">
<g opacity="0.4">
<path opacity="0.4" d="M24.6613 10.7461L11.7401 31.2461H3.04309V12.8582C3.04309 11.6779 3.97491 10.7461 5.15521 10.7461H24.6613Z" fill="white"/>
</g>
<g opacity="0.4">
<path opacity="0.4" d="M34.8491 10.7461L21.9279 31.2461H16.5854L29.5067 10.7461H34.8491Z" fill="white"/>
</g>
</g>
<g opacity="0.4">
<g opacity="0.4">
<path opacity="0.4" d="M34.9736 22.4862V24.0392C34.9736 23.3559 34.4145 22.7968 33.6691 22.7968H7.32969C6.64636 22.7968 6.02515 23.3559 6.02515 24.0392V22.4862C6.02515 21.8029 6.58424 21.1816 7.32969 21.1816H33.6691C34.3524 21.1816 34.9736 21.7407 34.9736 22.4862Z" fill="white"/>
</g>
</g>
<g opacity="0.1">
<g opacity="0.1">
<path opacity="0.1" d="M34.9736 25.4082V26.9612C34.9736 27.6446 34.4145 28.2037 33.6691 28.2037H7.32969C6.64636 28.2037 6.02515 27.6446 6.02515 26.9612V25.4082C6.02515 26.0915 6.58424 26.7128 7.32969 26.7128H33.6691C34.3524 26.7128 34.9736 26.0915 34.9736 25.4082Z" fill="black"/>
</g>
</g>
<path d="M15.9021 35.7168H25.0339V39.7547H15.9021V35.7168Z" fill="white"/>
<path d="M25.3453 3.35431V7.82704H23.109V3.47855H17.8908V7.82704H15.6544V3.35431C15.6544 2.17401 16.5862 1.24219 17.7665 1.24219H23.2332C24.4135 1.24219 25.3453 2.17401 25.3453 3.35431Z" fill="#F0F7FE"/>
<g opacity="0.1">
<g opacity="0.1">
<path opacity="0.1" d="M15.6544 5.7793H17.8908V7.82929H15.6544V5.7793Z" fill="black"/>
</g>
</g>
<g opacity="0.1">
<g opacity="0.1">
<path opacity="0.1" d="M23.109 5.7793H25.3454V7.82929H23.109V5.7793Z" fill="black"/>
</g>
</g>
<path d="M5.40442 22.4863V27.0211C5.40442 28.0772 6.27412 28.9469 7.33018 28.9469H33.6696C34.7256 28.9469 35.5953 28.0772 35.5953 27.0211V22.4863C35.5953 21.4302 34.7256 20.5605 33.6696 20.5605H7.33018C6.27412 20.5605 5.40442 21.4302 5.40442 22.4863ZM34.3529 22.4863V27.0211C34.3529 27.3939 34.0423 27.7045 33.6696 27.7045H7.33018C6.95745 27.7045 6.64684 27.3939 6.64684 27.0211V22.4863C6.64684 22.1136 6.95745 21.803 7.33018 21.803H33.6696C34.0423 21.803 34.3529 22.1136 34.3529 22.4863Z" fill="#3F2355"/>
<path d="M38.5769 12.8583C38.5769 11.3674 37.3345 10.125 35.8436 10.125H31.1224C30.7496 10.125 30.5011 10.3735 30.5011 10.7462C30.5011 11.1189 30.7496 11.3674 31.1224 11.3674H35.8436C36.6511 11.3674 37.3345 12.0508 37.3345 12.8583V30.625H3.66479V12.8583C3.66479 12.0508 4.34812 11.3674 5.1557 11.3674H9.87691C10.2496 11.3674 10.4981 11.1189 10.4981 10.7462C10.4981 10.3735 10.2496 10.125 9.87691 10.125H5.1557C3.66479 10.125 2.42236 11.3674 2.42236 12.8583V33.6068C2.42236 35.0977 3.66479 36.3402 5.1557 36.3402H15.2815V39.1356H13.1072C12.7345 39.1356 12.486 39.3841 12.486 39.7568C12.486 40.1296 12.7345 40.378 13.1072 40.378H27.8921C28.2648 40.378 28.5133 40.1296 28.5133 39.7568C28.5133 39.3841 28.2648 39.1356 27.8921 39.1356H25.7178V36.3402H35.8436C37.3345 36.3402 38.5769 35.0977 38.5769 33.6068C38.5769 0.371967 38.5769 18.4492 38.5769 12.8583ZM24.4754 39.1356H16.5239V36.3402H24.4133V39.1356H24.4754ZM35.8436 35.0977C26.5875 35.0977 15.3436 35.0977 5.1557 35.0977C4.34812 35.0977 3.66479 34.4144 3.66479 33.6068V31.9296H37.3345V33.6068C37.3345 34.4144 36.6511 35.0977 35.8436 35.0977Z" fill="#3F2355"/>
<path d="M20.4997 32.6133C20.0027 32.6133 19.63 32.986 19.63 33.483C19.63 33.98 20.0027 34.3527 20.4997 34.3527C20.9967 34.3527 21.3694 33.98 21.3694 33.483C21.3694 32.986 20.9967 32.6133 20.4997 32.6133ZM20.4997 33.8557C20.2512 33.8557 20.127 33.6694 20.127 33.483C20.127 33.2966 20.3133 33.1103 20.4997 33.1103C20.6861 33.1103 20.8724 33.2966 20.8724 33.483C20.8724 33.6694 20.6861 33.8557 20.4997 33.8557Z" fill="#3F2355"/>
<path d="M8.94474 25.8428C9.1311 26.1534 9.50383 26.2155 9.81444 26.0913L10.2493 25.8428V26.3398C10.2493 26.7125 10.4978 26.961 10.8705 26.961C11.2432 26.961 11.4917 26.7125 11.4917 26.3398V25.8428L11.9266 26.0913C12.2372 26.2777 12.6099 26.1534 12.7963 25.8428C12.9826 25.5322 12.8584 25.1595 12.5478 24.9731L12.1129 24.7246L12.5478 24.4762C12.8584 24.2898 12.9205 23.9171 12.7963 23.6065C12.6099 23.2959 12.2372 23.2337 11.9266 23.358L11.4917 23.6065V23.1095C11.4917 22.7368 11.2432 22.4883 10.8705 22.4883C10.4978 22.4883 10.2493 22.7368 10.2493 23.1095V23.6065L9.81444 23.358C9.50383 23.1716 9.1311 23.2959 8.94474 23.6065C8.75838 23.9171 8.88262 24.2898 9.19322 24.4762L9.62807 24.7246L9.19322 24.9731C8.88262 25.1595 8.75838 25.5322 8.94474 25.8428Z" fill="#3F2355"/>
<path d="M15.406 25.8428C15.5923 26.1534 15.9651 26.2155 16.2757 26.0913L16.7105 25.8428V26.3398C16.7105 26.7125 16.959 26.961 17.3317 26.961C17.7045 26.961 17.9529 26.7125 17.9529 26.3398V25.8428L18.3878 26.0913C18.6984 26.2777 19.0711 26.1534 19.2575 25.8428C19.4438 25.5322 19.3196 25.1595 19.009 24.9731L18.5741 24.7246L19.009 24.4762C19.3196 24.2898 19.3817 23.9171 19.2575 23.6065C19.0711 23.2959 18.6984 23.2337 18.3878 23.358L17.9529 23.6065V23.1095C17.9529 22.7368 17.7045 22.4883 17.3317 22.4883C16.959 22.4883 16.7105 22.7368 16.7105 23.1095V23.6065L16.2757 23.358C15.9651 23.1716 15.5923 23.2959 15.406 23.6065C15.2196 23.9171 15.3438 24.2898 15.6544 24.4762L16.0893 24.7246L15.6544 24.9731C15.2817 25.1595 15.2196 25.5322 15.406 25.8428Z" fill="#3F2355"/>
<path d="M21.8039 25.8428C21.9902 26.1534 22.363 26.2155 22.6736 26.0913L23.1084 25.8428V26.3398C23.1084 26.7125 23.3569 26.961 23.7296 26.961C24.1024 26.961 24.3508 26.7125 24.3508 26.3398V25.8428L24.7857 26.0913C25.0963 26.2777 25.469 26.1534 25.6554 25.8428C25.8418 25.5322 25.7175 25.1595 25.4069 24.9731L24.9721 24.7246L25.4069 24.4762C25.7175 24.2898 25.7796 23.9171 25.6554 23.6065C25.469 23.2959 25.0963 23.2337 24.7857 23.358L24.3508 23.6065V23.1095C24.3508 22.7368 24.1024 22.4883 23.7296 22.4883C23.3569 22.4883 23.1084 22.7368 23.1084 23.1095V23.6065L22.6736 23.358C22.363 23.1716 21.9902 23.2959 21.8039 23.6065C21.6175 23.9171 21.7418 24.2898 22.0524 24.4762L22.4872 24.7246L22.0524 24.9731C21.7418 25.1595 21.6175 25.5322 21.8039 25.8428Z" fill="#3F2355"/>
<path d="M28.2027 25.8428C28.389 26.1534 28.7618 26.2155 29.0724 26.0913L29.5072 25.8428V26.3398C29.5072 26.7125 29.7557 26.961 30.1284 26.961C30.5012 26.961 30.7496 26.7125 30.7496 26.3398V25.8428L31.1845 26.0913C31.4951 26.2777 31.8678 26.1534 32.0542 25.8428C32.2406 25.5322 32.1163 25.1595 31.8057 24.9731L31.3709 24.7246L31.8057 24.4762C32.1163 24.2898 32.1784 23.9171 32.0542 23.6065C31.8678 23.2959 31.4951 23.2337 31.1845 23.358L30.7496 23.6065V23.1095C30.7496 22.7368 30.5012 22.4883 30.1284 22.4883C29.7557 22.4883 29.5072 22.7368 29.5072 23.1095V23.6065L29.0724 23.358C28.7618 23.1716 28.389 23.2959 28.2027 23.6065C28.0163 23.9171 28.1406 24.2898 28.4512 24.4762L28.886 24.7246L28.4512 24.9731C28.1406 25.1595 28.0784 25.5322 28.2027 25.8428Z" fill="#3F2355"/>
<path d="M14.5361 19.0711H26.4013C27.5816 19.0711 28.5755 18.0772 28.5755 16.8969C28.5755 14.1635 28.5755 12.2378 28.5755 9.44231C28.5755 8.262 27.5816 7.26806 26.4013 7.26806H25.9665V3.35443C25.9665 1.86352 24.724 0.621094 23.2331 0.621094H17.7665C16.2755 0.621094 15.0331 1.86352 15.0331 3.35443V7.20594H14.5983C13.418 7.20594 12.424 8.19988 12.424 9.38019V16.8347C12.3619 18.0772 13.3558 19.0711 14.5361 19.0711ZM27.3952 16.8969C27.3952 17.3938 26.9604 17.8287 26.4634 17.8287H14.5361C14.0392 17.8287 13.6043 17.3938 13.6043 16.8969V16.1514H27.3952V16.8969ZM16.2755 3.35443C16.2755 2.54685 16.9589 1.86352 17.7665 1.86352H23.2331C24.0407 1.86352 24.724 2.54685 24.724 3.35443V7.20594H23.7301V3.47867C23.7301 3.10594 23.4816 2.85746 23.1089 2.85746H17.8907C17.518 2.85746 17.2695 3.10594 17.2695 3.47867V7.20594H16.2755V3.35443ZM18.5119 4.09988H22.4877V7.20594H18.5119V4.09988ZM14.5361 8.44837H26.4013C26.8983 8.44837 27.3331 8.88321 27.3331 9.38019V14.909H13.6043V9.38019C13.6043 8.88321 14.0392 8.44837 14.5361 8.44837Z" fill="#3F2355"/>
</svg>
