<svg width="225" height="128" viewBox="0 0 225 128" fill="none" xmlns="http://www.w3.org/2000/svg">
<path d="M221.858 81.6296C221.706 106.254 203.495 120.851 181.722 125.758C152.692 132.301 136.348 112.297 106.559 109.473C76.9512 106.667 2.20703 129.731 2.20703 70.2074C2.20703 29.8016 82.4444 2.66989 106.559 3.42148C141.489 4.51014 222.178 29.5387 221.858 81.6296Z" fill="#FF9BB9" fill-opacity="0.1"/>
<path d="M25.4029 11.4527C18.5747 9.20679 13.4938 15.1959 13.4938 19.2007C12.9625 18.8553 10.9718 18.503 9.26338 19.8125C7.0194 21.5326 7.77358 24.5292 7.77358 24.5292H3.26595C1.9843 24.5292 0.945312 25.5682 0.945312 26.8498C0.945312 28.1315 1.9843 29.1705 3.26595 29.1705H18.5747H54.7893H73.239C74.5206 29.1705 75.5596 28.1315 75.5596 26.8498C75.5596 25.5682 74.5206 24.5292 73.239 24.5292H70.097C70.097 20.7218 69.8799 17.2579 65.3793 13.7242C61.2823 10.5074 55.079 13.2308 54.7893 13.7242C55.0211 10.2903 50.3571 5.87943 47.6258 5.87943C47.6258 3.71676 46.153 0.472651 42.4115 0.472656C38.67 0.472662 37.4526 2.93591 36.8247 4.46539C35.3349 2.09471 31.6042 3.34244 31.6042 5.87943C27.6376 3.59199 23.6648 7.83428 25.4029 11.4527Z" fill="#FF9BB9"/>
<path d="M193.213 41.5997C188.992 41.5997 187.222 45.0758 186.865 46.8138C186.563 46.6207 185.744 46.4496 184.886 47.3104C184.029 48.1711 184.309 49.3243 184.556 49.7933H178.489C177.666 49.7933 177 50.4603 177 51.283C177 52.1058 177.656 52.7728 178.479 52.7728H219.23C220.053 52.7728 220.709 52.1058 220.709 51.283C220.709 50.4603 221.376 49.7933 222.199 49.7933H223.117C223.799 49.7933 224.351 49.2406 224.351 48.5587C224.351 47.8777 223.8 47.3252 223.119 47.3242L216.47 47.3139C215.236 47.3119 214.236 46.3105 214.236 45.0758C214.236 44.2481 213.988 42.9239 212.422 42.9239C211.169 42.9239 210.526 43.4757 210.361 43.7515C210.493 41.8314 208.053 40.0272 206.816 39.3651C206.569 38.5374 206.734 36.7994 203.683 36.3856C201.243 36.0545 199.918 37.6822 199.561 38.5374C198.11 38.2064 197.363 38.9512 197.17 39.3651C194.862 38.9016 193.57 40.6617 193.213 41.5997Z" fill="#FFB8CD"/>
<path d="M114.499 96.5758L118.118 93.7386L120.191 96.8694L115.991 99.3507L114.499 96.5758Z" fill="#DFDDFE"/>
<path d="M109.909 98.819C110.611 97.3342 113.131 96.6252 114.302 96.4563C114.969 97.396 115.914 98.8908 115.869 99.5428C115.499 104.901 115.217 105.792 116.47 108.953C116.267 109.715 115.041 111.27 114.073 110.676C112.318 109.602 109.031 100.675 109.909 98.819Z" fill="#C3CFFF"/>
<path d="M130.936 69.9898C129.361 69.8428 127.656 67.8453 127 66.865L129.641 64.5742C129.82 64.758 130.428 65.1992 131.43 65.4933C132.682 65.8609 134.505 67.8745 134.505 68.426C134.505 68.9774 132.904 70.1737 130.936 69.9898Z" fill="#FFC6EC"/>
<path d="M46.6854 95.1322L64.7769 76.4904C65.1924 76.0623 65.741 75.7879 66.3331 75.712L210.647 57.2312L49.2511 99.5201C46.6683 100.197 44.8268 97.0474 46.6854 95.1322Z" fill="#3C56C6"/>
<path d="M192.477 65.5132L65.1536 115.623C63.1598 116.408 61.1094 114.613 61.6244 112.534L69.5359 80.5845C69.7918 79.5513 70.6442 78.774 71.697 78.6139L191.108 60.4526C194.216 59.9799 195.401 64.3623 192.477 65.5132Z" fill="#3C56C6"/>
<path d="M84.9583 112.133C82.0034 104.863 74.632 90.8433 70.6556 80.8513C70.0429 79.3119 71.0514 77.6432 72.6898 77.3997L199.889 58.4936C202.907 58.0452 204.155 62.2231 201.385 63.4975L90.3617 114.568C88.5208 115.415 85.7217 114.011 84.9583 112.133Z" fill="#6386FF"/>
<path d="M60.8008 115.653L69.5706 80.8299C69.8283 79.8065 70.6906 79.0331 71.7335 78.8687C126.664 70.2089 153.339 66.0836 208.869 57.3277L67.4586 75.5672C66.2581 75.722 65.318 76.6741 65.1787 77.8761L60.8008 115.653Z" fill="#3C56C6"/>
<path d="M114.598 27.6208C114.255 28.3415 114.098 29.8197 113.688 33.3044L105.488 29.8197C105.932 29.1258 108.255 27.8496 107.038 26.2296C105.516 24.2046 104.28 22.6607 103.233 17.1107C102.187 11.5607 105.8 6.83748 110.936 5.76187C116.071 4.68626 118.971 11.7408 118.924 12.7424C118.876 13.7439 120.873 17.0695 121.263 17.8595C121.616 18.576 120.319 19.4265 119.828 19.4993C119.97 21.3625 120.13 24.4619 119.418 25.6489C118.803 26.6738 115.026 26.7198 114.598 27.6208Z" fill="#FFC6EC"/>
<path d="M101.318 13.4155C100.456 16.2386 104.31 22.6191 106.345 25.4565L107.309 25.1054C107.502 23.5006 108.949 23.2606 109.564 17.726C111.227 9.1178 117.171 13.8255 118.811 7.68291C119.324 5.76307 117.376 2.96827 114.301 2.96827C111.227 2.96827 109.774 4.44507 107.309 5.63305C102.822 7.79523 102.395 9.88671 101.318 13.4155Z" fill="#92A9F8"/>
<path d="M116.396 57.96C111.088 52.5688 108.993 47.1121 106.617 44.0838C106.617 39.7803 112.024 36.4332 114.727 38.3458C115.372 38.8023 116.148 40.9522 117.23 43.7168L121.071 51.9595C125.149 58.7863 130.907 64.4217 130.907 64.9425C130.907 65.7075 128.45 66.8551 127.221 67.3333C124.272 65.1816 119.06 60.6653 116.396 57.96Z" fill="#ABBDF8"/>
<path d="M92.2948 66.1006C92.5958 58.6552 97.5105 46.627 101.392 38.0217C105.274 29.4163 105.697 29.6163 105.697 29.6163C106.291 29.7596 112.392 32.0161 113.916 33.101C115.822 34.4571 114.38 32.8723 116.151 37.4057C117.922 41.9392 116.357 48.4606 116.151 50.2616C115.946 52.0626 111.873 55.0581 111.642 57.0842C111.087 61.9381 111.642 62.8238 111.642 68.1534C108.72 71.2883 99.8999 72.8696 95.2522 73.4829C94.2902 73.2218 91.9939 73.5461 92.2948 66.1006Z" fill="#D6DFFF"/>
<path d="M143.006 73.484C141.001 73.6412 136.071 68.9887 135.025 67.8584L137.289 64.9915C137.555 65.191 139.301 66.7073 140.623 66.8682C142.275 67.0692 145.918 69.3846 146.045 70.1021C146.172 70.8196 145.512 73.2874 143.006 73.484Z" fill="#FFC6EC"/>
<path d="M119.636 59.3376C115.311 56.4686 107.868 45.1473 105.492 42.1189C105.492 37.8155 110.899 34.4683 113.602 36.381C114.843 37.2587 118.676 46.0291 124.087 52.5244C131.287 59.7729 137.919 64.7573 138.495 65.2821C139.06 65.7978 136.239 67.8787 135.01 68.3569C132.061 66.2052 123.961 62.2065 119.636 59.3376Z" fill="#D6DFFF"/>
<path d="M112.872 82.9108C107.16 81.6612 95.4483 81.6808 93.3984 72.4565C99.343 72.4565 106.937 68.5618 111.642 67.127C113.692 68.5618 126.11 73.3521 129.886 75.9413C137.06 80.8609 140.34 84.7447 140.34 87.0104C140.34 89.2762 129.131 107.805 127.539 108.032C126.266 108.213 124.886 106.748 124.356 105.992C126.099 100.026 129.177 88.0024 127.539 87.6399C125.493 87.1867 119.431 84.3456 112.872 82.9108Z" fill="#3956C6"/>
<path d="M122.762 110.524L124.354 106.219L127.765 107.805L125.491 112.11L122.762 110.524Z" fill="#FFC6EC"/>
<path d="M120.033 114.83C119.851 113.199 121.624 111.281 122.534 110.525C123.595 110.979 125.186 111.759 125.49 112.338C127.992 117.096 128.219 118.002 130.948 120.042C131.176 120.797 130.948 122.76 129.811 122.76C127.752 122.76 120.26 116.869 120.033 114.83Z" fill="#C3CFFF"/>
</svg>
