<svg width="14" height="16" viewBox="0 0 14 16" fill="none" xmlns="http://www.w3.org/2000/svg">
<path d="M7.33074 9.71469V11.2468C6.66725 11.0122 5.95716 10.9403 5.2601 11.037C4.56304 11.1337 3.89936 11.3963 3.32481 11.8026C2.75025 12.209 2.28158 12.7473 1.95816 13.3723C1.63474 13.9973 1.46601 14.6908 1.46615 15.3945L1.89468e-07 15.3938C-0.000227336 14.4987 0.20447 13.6153 0.598407 12.8115C0.992344 12.0077 1.56507 11.3047 2.27269 10.7564C2.98031 10.2082 3.80405 9.82915 4.68079 9.64846C5.55753 9.46776 6.464 9.4909 7.33074 9.71469ZM5.86459 8.79689C3.43445 8.79689 1.46615 6.82858 1.46615 4.39844C1.46615 1.9683 3.43445 0 5.86459 0C8.29473 0 10.263 1.9683 10.263 4.39844C10.263 6.82858 8.29473 8.79689 5.86459 8.79689ZM5.86459 7.33074C7.48468 7.33074 8.79688 6.01854 8.79688 4.39844C8.79688 2.77835 7.48468 1.46615 5.86459 1.46615C4.2445 1.46615 2.93229 2.77835 2.93229 4.39844C2.93229 6.01854 4.2445 7.33074 5.86459 7.33074Z" fill="#BDBCBD"/>
<path d="M12.7026 11.2739L10.1112 13.8653L8.55634 12.3105L7.51904 13.3471L10.1112 15.9392L13.7399 12.3105L12.7026 11.2739Z" fill="#FB5100"/>
</svg>
