<svg width="51" height="44" viewBox="0 0 51 44" fill="none" xmlns="http://www.w3.org/2000/svg">
<path d="M29 -9.61651e-07C31.8891 -1.08794e-06 34.7499 0.569046 37.419 1.67465C40.0882 2.78025 42.5135 4.40076 44.5563 6.44365C46.5992 8.48654 48.2197 10.9118 49.3253 13.581C50.431 16.2501 51 19.1109 51 22C51 24.8891 50.431 27.7499 49.3253 30.419C48.2197 33.0882 46.5992 35.5135 44.5563 37.5563C42.5135 39.5992 40.0882 41.2197 37.419 42.3253C34.7499 43.431 31.8891 44 29 44L29 22L29 -9.61651e-07Z" fill="#FAB799"/>
<path d="M17 5C19.2325 5 21.4431 5.43972 23.5056 6.29405C25.5682 7.14838 27.4422 8.40059 29.0208 9.97918C30.5994 11.5578 31.8516 13.4318 32.706 15.4944C33.5603 17.5569 34 19.7675 34 22C34 24.2325 33.5603 26.4431 32.706 28.5056C31.8516 30.5682 30.5994 32.4422 29.0208 34.0208C27.4422 35.5994 25.5682 36.8516 23.5056 37.706C21.4431 38.5603 19.2325 39 17 39L17 22L17 5Z" fill="#FB5100"/>
</svg>
