<svg width="25" height="28" viewBox="0 0 25 28" fill="none" xmlns="http://www.w3.org/2000/svg">
<path d="M12.7806 1H12.2194C11.543 1 10.8942 1.26872 10.4159 1.74705C9.93758 2.22537 9.66886 2.87412 9.66886 3.55057V3.78012C9.6684 4.2274 9.55033 4.66669 9.3265 5.05393C9.10266 5.44117 8.78093 5.76273 8.39358 5.98637L7.8452 6.30519C7.45747 6.52905 7.01764 6.6469 6.56992 6.6469C6.1222 6.6469 5.68237 6.52905 5.29463 6.30519L5.10334 6.20317C4.51806 5.86555 3.82274 5.77396 3.17 5.94851C2.51727 6.12305 1.96046 6.54946 1.6218 7.13413L1.34124 7.61874C1.00363 8.20401 0.912035 8.89933 1.08658 9.55207C1.26112 10.2048 1.68753 10.7616 2.2722 11.1003L2.46349 11.2278C2.84898 11.4504 3.16952 11.7699 3.39324 12.1547C3.61697 12.5395 3.73609 12.9762 3.73878 13.4213V14.0717C3.74056 14.5211 3.62356 14.9631 3.39961 15.3527C3.17566 15.7424 2.85272 16.066 2.46349 16.2907L2.2722 16.4055C1.68753 16.7441 1.26112 17.3009 1.08658 17.9537C0.912035 18.6064 1.00363 19.3017 1.34124 19.887L1.6218 20.3716C1.96046 20.9563 2.51727 21.3827 3.17 21.5572C3.82274 21.7318 4.51806 21.6402 5.10334 21.3026L5.29463 21.2005C5.68237 20.9767 6.1222 20.8588 6.56992 20.8588C7.01764 20.8588 7.45747 20.9767 7.8452 21.2005L8.39358 21.5194C8.78093 21.743 9.10266 22.0646 9.3265 22.4518C9.55033 22.839 9.6684 23.2783 9.66886 23.7256V23.9552C9.66886 24.6316 9.93758 25.2804 10.4159 25.7587C10.8942 26.237 11.543 26.5057 12.2194 26.5057H12.7806C13.457 26.5057 14.1058 26.237 14.5841 25.7587C15.0624 25.2804 15.3311 24.6316 15.3311 23.9552V23.7256C15.3316 23.2783 15.4497 22.839 15.6735 22.4518C15.8973 22.0646 16.2191 21.743 16.6064 21.5194L17.1548 21.2005C17.5425 20.9767 17.9824 20.8588 18.4301 20.8588C18.8778 20.8588 19.3176 20.9767 19.7054 21.2005L19.8967 21.3026C20.4819 21.6402 21.1773 21.7318 21.83 21.5572C22.4827 21.3827 23.0395 20.9563 23.3782 20.3716L23.6588 19.8742C23.9964 19.289 24.088 18.5936 23.9134 17.9409C23.7389 17.2882 23.3125 16.7314 22.7278 16.3927L22.5365 16.2907C22.1473 16.066 21.8243 15.7424 21.6004 15.3527C21.3764 14.9631 21.2594 14.5211 21.2612 14.0717V13.434C21.2594 12.9846 21.3764 12.5427 21.6004 12.153C21.8243 11.7633 22.1473 11.4398 22.5365 11.215L22.7278 11.1003C23.3125 10.7616 23.7389 10.2048 23.9134 9.55207C24.088 8.89933 23.9964 8.20401 23.6588 7.61874L23.3782 7.13413C23.0395 6.54946 22.4827 6.12305 21.83 5.94851C21.1773 5.77396 20.4819 5.86555 19.8967 6.20317L19.7054 6.30519C19.3176 6.52905 18.8778 6.6469 18.4301 6.6469C17.9824 6.6469 17.5425 6.52905 17.1548 6.30519L16.6064 5.98637C16.2191 5.76273 15.8973 5.44117 15.6735 5.05393C15.4497 4.66669 15.3316 4.2274 15.3311 3.78012V3.55057C15.3311 2.87412 15.0624 2.22537 14.5841 1.74705C14.1058 1.26872 13.457 1 12.7806 1V1Z" stroke="#644E77" stroke-width="2" stroke-linecap="round" stroke-linejoin="round"/>
<path d="M12.4997 17.579C14.6127 17.579 16.3255 15.8661 16.3255 13.7531C16.3255 11.6401 14.6127 9.92725 12.4997 9.92725C10.3867 9.92725 8.67383 11.6401 8.67383 13.7531C8.67383 15.8661 10.3867 17.579 12.4997 17.579Z" stroke="#644E77" stroke-width="2" stroke-linecap="round" stroke-linejoin="round"/>
</svg>
