<svg width="385" height="385" viewBox="0 0 385 385" fill="none" xmlns="http://www.w3.org/2000/svg">
<path d="M197.593 171.69H187.405L169.873 0H215.125L197.593 171.69Z" fill="url(#paint0_linear_1_2267)"/>
<path d="M187.405 213.309H197.593L215.125 384.999H169.873L187.405 213.309Z" fill="url(#paint1_linear_1_2267)"/>
<path d="M213.309 197.594V187.406L384.999 169.874V215.126L213.309 197.594Z" fill="url(#paint2_linear_1_2267)"/>
<path d="M171.69 187.406V197.594L0 215.126V169.874L171.69 187.406Z" fill="url(#paint3_linear_1_2267)"/>
<path d="M210.78 181.406L203.594 174.14L312.578 40.3577L344.642 72.4212L210.78 181.406Z" fill="url(#paint4_linear_1_2267)"/>
<path d="M174.138 203.596L181.403 210.783L72.419 344.644L40.3555 312.58L174.138 203.596Z" fill="url(#paint5_linear_1_2267)"/>
<path d="M203.596 210.783L210.782 203.596L344.644 312.58L312.58 344.644L203.596 210.783Z" fill="url(#paint6_linear_1_2267)"/>
<path d="M181.403 174.139L174.138 181.404L40.3555 72.4197L72.419 40.3562L181.403 174.139Z" fill="url(#paint7_linear_1_2267)"/>
<path d="M121.463 31.8274C119.567 29.932 118.146 28.3525 118.067 25.5884C117.988 23.2192 118.62 20.85 118.62 18.4018C118.62 16.9012 116.251 16.9012 116.251 18.4018C116.172 21.4817 115.224 24.7197 115.935 27.7997C116.487 30.1689 118.067 31.8274 119.804 33.4858C120.831 34.5915 122.568 32.933 121.463 31.8274Z" fill="#FB5100"/>
<path d="M128.411 73.4456C128.096 74.2353 126.99 74.8671 126.279 75.341C125.41 75.8938 124.542 76.4466 123.673 76.9204C122.409 77.7102 123.594 79.7635 124.858 78.9738C126.911 77.7102 129.754 76.4466 130.702 74.0774C131.255 72.6558 128.964 72.024 128.411 73.4456Z" fill="#FB5100"/>
<path d="M83.2391 63.1801C82.3704 64.2857 81.6596 65.7073 82.4494 67.1288C83.2391 68.6293 84.4237 68.4714 85.7663 68.5503C85.6083 69.8139 84.7396 71.0775 84.5817 72.2621C84.4237 73.4467 84.7396 74.3154 85.5294 75.1842C86.556 76.2898 88.2145 74.6313 87.1878 73.5257C86.3191 72.578 87.5037 70.7616 87.8196 69.8139C88.0565 68.9452 88.1355 68.1555 87.9776 67.2867C87.8986 66.8919 87.5037 66.576 87.1878 66.497C86.0822 66.2601 84.1868 66.7339 84.8976 64.9965C85.3714 63.9698 87.5827 62.1534 88.6883 63.1011C89.794 64.1278 91.4524 62.4693 90.3468 61.4426C87.9776 59.0734 84.9766 60.9688 83.2391 63.1801Z" fill="#FB5100"/>
<path d="M270.882 34.1956C271.04 34.2745 271.198 34.2745 271.356 34.3535C271.593 34.4325 271.83 34.4325 272.067 34.3535C272.146 34.3535 272.146 34.4325 272.225 34.4325C272.303 34.5115 272.382 34.5115 272.303 34.4325C272.382 34.5115 272.382 34.5115 272.461 34.5904C272.935 35.0643 273.725 35.0643 274.12 34.5904C274.594 34.1166 274.594 33.4058 274.12 32.932C273.33 32.0633 272.067 31.5894 270.882 31.9053C269.776 32.3002 269.776 33.8797 270.882 34.1956Z" fill="#FB5100"/>
<path d="M274.516 65.3133C273.015 65.8661 270.883 66.9717 268.987 67.2876C270.488 65.7871 272.699 64.2076 274.2 63.8917C275.7 63.4969 275.068 61.2066 273.568 61.6015C271.673 62.0753 270.33 63.3389 268.83 64.5235C267.487 65.4712 266.381 66.3399 265.671 67.8404C265.355 68.4722 265.592 69.341 266.381 69.5779C268.277 70.0517 270.409 69.4989 272.383 68.7092C271.673 69.4199 270.962 70.1307 270.646 70.6835C269.856 72.0261 269.066 73.6845 269.066 75.343C269.145 76.8435 271.515 76.8435 271.436 75.343C271.278 71.5522 276.174 69.8938 276.095 66.4189C276.016 65.7081 275.226 64.9974 274.516 65.3133Z" fill="#FB5100"/>
<path d="M292.363 109.538V103.773C292.363 102.272 289.994 102.272 289.994 103.773V109.538C289.994 111.117 292.363 111.117 292.363 109.538Z" fill="#FB5100"/>
<path d="M300.181 128.887C299.47 128.887 298.759 129.203 298.285 129.756C297.891 130.23 297.812 130.941 298.285 131.414C298.68 131.809 299.549 131.888 299.944 131.414C300.023 131.335 300.023 131.335 300.102 131.256C300.102 131.256 300.102 131.256 300.181 131.256C300.813 131.256 301.365 130.704 301.365 130.072C301.286 129.44 300.813 128.887 300.181 128.887Z" fill="#FB5100"/>
<path d="M79.3694 146.419C79.1324 145.866 78.7376 145.471 78.0268 145.155C77.395 144.839 76.6842 144.839 75.9735 144.681C75.0258 144.523 74.1571 144.208 73.2094 144.208C71.7089 144.208 71.7089 146.577 73.2094 146.577C74.1571 146.577 75.1048 146.893 75.9735 147.051C76.6053 147.13 77.395 147.13 77.2371 147.919C77.0791 148.946 78.3427 150.131 79.2114 149.104C79.4483 148.788 79.7642 148.472 79.9222 148.077C80.554 147.366 80.0801 146.656 79.3694 146.419Z" fill="#FB5100"/>
<path d="M120.829 118.7L119.803 119.726C119.329 120.2 119.329 120.911 119.803 121.385C120.276 121.859 120.987 121.859 121.461 121.385C121.777 121.069 122.172 120.674 122.488 120.358C122.962 119.884 122.962 119.174 122.488 118.7C122.093 118.305 121.303 118.305 120.829 118.7Z" fill="#FB5100"/>
<path d="M331.456 29.4596C328.85 30.4073 325.928 32.0657 325.059 34.9088C324.19 37.6729 327.112 39.1734 329.403 39.6473C330.903 39.9632 331.535 37.6729 330.034 37.357C329.324 37.1991 328.613 37.0411 327.981 36.6462C327.112 36.0144 327.349 35.4616 327.902 34.6719C328.929 33.2504 330.508 32.3816 332.167 31.8288C333.509 31.197 332.877 28.9068 331.456 29.4596Z" fill="#FB5100"/>
<path d="M337.614 57.9676C337.062 57.6517 336.272 57.8097 335.956 58.3625C335.798 58.6784 335.64 59.0733 335.403 59.3892C335.087 59.942 335.245 60.6528 335.798 61.0477C336.351 61.3636 337.141 61.2056 337.456 60.6528C337.614 60.3369 337.772 59.942 338.009 59.6261C338.325 59.0733 338.167 58.3625 337.614 57.9676Z" fill="#FB5100"/>
<path d="M327.504 128.887C326.004 128.887 326.004 131.256 327.504 131.256C329.084 131.256 329.084 128.887 327.504 128.887Z" fill="#FB5100"/>
<path d="M315.898 178.244C315.74 179.192 315.661 180.218 315.503 181.245C315.345 182.114 315.266 183.456 314.634 184.088C313.529 185.115 315.187 186.773 316.293 185.747C318.109 184.167 317.793 181.087 318.188 178.876C318.425 177.375 316.135 176.743 315.898 178.244Z" fill="#FB5100"/>
<path d="M271.357 166.637C270.962 166.558 270.646 166.4 270.251 166.321C270.172 166.321 270.093 166.242 270.093 166.242C270.251 166.4 269.54 166.4 270.093 166.242C270.014 166.163 269.935 166.163 269.856 166.084C269.935 166.163 270.014 166.163 270.093 166.163C270.409 166.005 270.804 165.61 271.12 165.373C271.515 165.136 271.909 164.978 272.304 164.741C273.726 164.109 272.462 162.135 271.12 162.688C269.54 163.399 266.539 165.057 267.803 167.189C268.356 168.058 269.382 168.453 270.33 168.69C271.199 168.927 272.225 168.927 272.067 170.032C271.909 171.533 274.279 171.533 274.437 170.032C274.752 167.979 273.094 167.11 271.357 166.637Z" fill="#FB5100"/>
<path d="M105.035 205.097C104.403 205.65 102.982 205.255 102.192 205.255C100.691 205.255 100.691 207.625 102.192 207.625C103.771 207.625 105.43 207.941 106.693 206.756C107.878 205.729 106.141 204.071 105.035 205.097Z" fill="#FB5100"/>
<path d="M160.871 102.668C160.239 102.826 159.844 103.537 160.081 104.09C160.239 104.722 160.871 104.958 161.424 104.958C161.424 104.958 161.503 104.959 161.503 105.037C161.74 105.116 161.819 105.274 161.977 105.353C162.292 105.669 162.608 105.985 163.003 106.222C163.477 106.617 164.188 106.696 164.662 106.222C165.057 105.827 165.136 104.958 164.662 104.564C163.477 103.616 162.45 102.273 160.871 102.668Z" fill="#FB5100"/>
<path d="M174.85 17.2173C174.771 16.6645 174.218 16.3486 173.744 16.3486C172.639 16.2696 171.454 16.8224 170.585 17.5332C170.112 17.9281 169.796 18.5599 170.191 19.1917C170.506 19.6655 171.296 19.9814 171.849 19.5865C172.165 19.3496 172.56 19.1127 172.955 18.9547C173.034 18.9547 173.034 18.9547 173.113 18.8758C173.429 19.1127 173.902 19.2706 174.218 19.1127C174.85 18.9547 175.166 18.3229 175.008 17.6911C174.929 17.4542 174.929 17.2963 174.85 17.2173Z" fill="#FB5100"/>
<path d="M42.1723 29.9341C40.6718 29.8552 39.3292 30.487 37.8287 30.487C36.1703 30.487 34.5118 30.5659 32.9323 29.7762C31.7477 29.1444 30.4841 30.7239 31.5108 31.6716C31.5898 31.7505 31.7477 31.9085 31.8267 31.9875C32.1426 32.2244 32.4585 32.3034 32.7744 32.3034C33.959 32.7772 35.1436 32.8562 36.5651 32.8562C37.5128 32.8562 38.5395 32.9352 39.4872 32.7772C40.4349 32.6193 41.2246 32.2244 42.1723 32.3034C43.6728 32.3823 43.6728 30.0131 42.1723 29.9341Z" fill="#FB5100"/>
<path d="M37.3538 108.038C35.4584 109.302 33.0102 110.17 32.0625 112.461C31.8256 113.092 32.2995 113.724 32.8523 113.882C33.563 114.04 34.0369 113.645 34.2738 113.092C34.5897 112.382 35.6164 111.908 36.1692 111.513C36.9589 111.039 37.7487 110.644 38.4594 110.091C39.802 109.223 38.6174 107.169 37.3538 108.038Z" fill="#FB5100"/>
<path d="M51.4127 193.172C49.8332 192.935 48.4907 191.908 46.9112 192.066C46.2794 192.145 45.7266 192.54 45.7266 193.251C45.7266 193.804 46.2794 194.514 46.9112 194.435C48.2537 194.278 49.5173 195.304 50.7809 195.462C51.4127 195.541 52.0445 195.304 52.2024 194.672C52.4394 194.12 52.0445 193.251 51.4127 193.172Z" fill="#FB5100"/>
<path d="M294.338 225.79C292.601 226.026 291.732 227.369 290.547 228.554C289.442 229.659 288.573 230.765 288.02 232.265C286.756 232.66 287.388 234.793 288.81 234.477C288.968 234.477 289.126 234.398 289.205 234.398C289.6 234.319 289.915 233.924 289.994 233.608C290.31 232.344 291.021 231.476 291.89 230.528C292.443 229.975 293.39 228.396 294.18 228.238C295.839 228.001 295.839 225.553 294.338 225.79Z" fill="#FB5100"/>
<path d="M300.26 264.881C299.55 264.565 298.839 264.17 298.128 263.854C297.575 263.538 296.864 263.696 296.47 264.249C296.154 264.802 296.312 265.591 296.864 265.907C297.575 266.223 298.286 266.618 298.997 266.934C299.55 267.25 300.26 267.092 300.655 266.539C300.971 265.986 300.813 265.196 300.26 264.881Z" fill="#FB5100"/>
<path d="M329.637 218.997C328.689 220.655 327.346 221.998 326.162 223.498C325.214 224.683 326.873 226.341 327.82 225.157C329.163 223.577 330.584 221.998 331.69 220.181C332.48 218.918 330.427 217.733 329.637 218.997Z" fill="#FB5100"/>
<path d="M356.173 116.645C354.91 117.908 355.305 119.567 355.305 121.146C355.305 122.647 357.674 122.647 357.674 121.146C357.674 120.356 357.279 118.856 357.832 118.303C358.937 117.197 357.279 115.539 356.173 116.645Z" fill="#FB5100"/>
<path d="M49.5181 259.984H44.7797C43.2792 259.984 43.2792 262.353 44.7797 262.353H49.5181C51.0976 262.353 51.0976 259.984 49.5181 259.984Z" fill="#FB5100"/>
<path d="M84.6597 256.429C84.6597 260.536 85.4495 264.8 83.2382 268.433C82.4484 269.776 84.5018 270.96 85.2915 269.618C87.7397 265.511 87.0289 260.93 87.0289 256.35C87.0289 254.928 84.6597 254.928 84.6597 256.429Z" fill="#FB5100"/>
<path d="M81.1059 296.311C79.6053 296.311 79.6053 298.68 81.1059 298.68C82.6853 298.68 82.6853 296.311 81.1059 296.311Z" fill="#FB5100"/>
<circle cx="192" cy="192" r="25" fill="#81DB0F"/>
<path d="M188.955 196.231L184.722 191.999L183.281 193.43L188.955 199.104L201.134 186.924L199.703 185.493L188.955 196.231Z" fill="white"/>
<defs>
<linearGradient id="paint0_linear_1_2267" x1="192.49" y1="208.927" x2="192.49" y2="34.2107" gradientUnits="userSpaceOnUse">
<stop stop-color="white"/>
<stop offset="0.9952" stop-color="#644E77" stop-opacity="0"/>
</linearGradient>
<linearGradient id="paint1_linear_1_2267" x1="192.49" y1="176.053" x2="192.49" y2="350.769" gradientUnits="userSpaceOnUse">
<stop stop-color="white"/>
<stop offset="0.9952" stop-color="#644E77" stop-opacity="0"/>
</linearGradient>
<linearGradient id="paint2_linear_1_2267" x1="176.053" y1="192.49" x2="350.769" y2="192.49" gradientUnits="userSpaceOnUse">
<stop stop-color="white"/>
<stop offset="0.9952" stop-color="#644E77" stop-opacity="0"/>
</linearGradient>
<linearGradient id="paint3_linear_1_2267" x1="208.927" y1="192.49" x2="34.2107" y2="192.49" gradientUnits="userSpaceOnUse">
<stop stop-color="white"/>
<stop offset="0.9952" stop-color="#644E77" stop-opacity="0"/>
</linearGradient>
<linearGradient id="paint4_linear_1_2267" x1="180.866" y1="204.114" x2="304.409" y2="80.5714" gradientUnits="userSpaceOnUse">
<stop stop-color="white"/>
<stop offset="0.9952" stop-color="#644E77" stop-opacity="0"/>
</linearGradient>
<linearGradient id="paint5_linear_1_2267" x1="204.112" y1="180.868" x2="80.5693" y2="304.411" gradientUnits="userSpaceOnUse">
<stop stop-color="white"/>
<stop offset="0.9952" stop-color="#644E77" stop-opacity="0"/>
</linearGradient>
<linearGradient id="paint6_linear_1_2267" x1="180.868" y1="180.868" x2="304.411" y2="304.411" gradientUnits="userSpaceOnUse">
<stop stop-color="white"/>
<stop offset="0.9952" stop-color="#644E77" stop-opacity="0"/>
</linearGradient>
<linearGradient id="paint7_linear_1_2267" x1="204.112" y1="204.113" x2="80.5693" y2="80.5699" gradientUnits="userSpaceOnUse">
<stop stop-color="white"/>
<stop offset="0.9952" stop-color="#644E77" stop-opacity="0"/>
</linearGradient>
</defs>
</svg>
