<svg width="410" height="323" viewBox="0 0 410 323" fill="none" xmlns="http://www.w3.org/2000/svg">
<mask id="mask0" mask-type="alpha" maskUnits="userSpaceOnUse" x="0" y="-1" width="410" height="324">
<path d="M405.315 112.616C380.229 8.46881 300.032 -16.9891 236.905 10.0155C173.777 37.0201 198.936 98.7597 89.4386 102.977C-20.0593 107.193 -56.113 265.878 139.575 313.211C335.262 360.543 430.401 216.764 405.315 112.616Z" fill="white"/>
</mask>
<g mask="url(#mask0)">
<path d="M405.315 112.616C380.229 8.46881 300.032 -16.9891 236.905 10.0155C173.777 37.0201 198.936 98.7597 89.4386 102.977C-20.0593 107.193 -56.113 265.878 139.575 313.211C335.262 360.543 430.401 216.764 405.315 112.616Z" fill="#EDFCFF"/>
<path d="M303.106 57.5665C293.03 57.5665 284.861 49.3981 284.861 39.3218C284.861 29.2455 293.03 21.0771 303.106 21.0771C313.182 21.0771 321.351 29.2455 321.351 39.3218C321.351 49.3981 313.182 57.5665 303.106 57.5665Z" fill="#FFE29E"/>
<path fill-rule="evenodd" clip-rule="evenodd" d="M401.801 67.7457C381.014 62.1596 367.498 62.8151 361.255 69.7123C351.89 80.0581 359.429 94.9277 368.875 97.2591C359.071 97.7033 353.726 102.712 352.841 112.285C346.732 97.8 335.888 90.9692 320.307 91.7931C296.936 93.0288 289.226 112.01 289.226 122.062C284.418 110.212 276.727 106.423 266.154 110.695C250.295 117.102 257.101 135.41 263.738 139.537C256.767 140.916 254.116 144.899 255.786 151.487C243.489 140.013 229.183 139.617 212.868 150.299C212.159 140.791 208.712 136.354 202.524 136.989C207.116 131.662 208.136 126.591 205.582 121.774C201.751 114.549 187.231 109.272 179.933 121.774C171.061 117.879 163.718 119.655 157.904 127.101C152.963 115.907 144.758 110.968 133.289 112.285C116.085 114.262 112.256 132.491 112.256 132.491C106.167 126.126 98.7716 125.164 90.0695 129.606C95.4938 116.288 94.5983 106.951 87.383 101.597C76.56 93.5653 36.3665 92.0626 44.6652 119.555C50.1977 137.884 73.8441 160.641 115.605 187.827L212.868 207.346H419.886L414.783 69.7123L401.801 67.7457Z" fill="white"/>
<path fill-rule="evenodd" clip-rule="evenodd" d="M-18.7118 99.4119C47.5358 93.1534 81.4159 106.196 82.9284 138.539C103.192 132.227 120.804 131.271 135.764 135.673C158.782 142.445 175.503 152.866 180.05 178.364C226.111 161.184 261.759 167.658 286.995 197.785C327.632 150.066 370.171 133.774 414.611 148.911C459.052 164.047 447.907 193.724 381.177 237.944H-26.6489L-18.7118 99.4119Z" fill="#CFE3E7"/>
<path d="M-18.708 239.727H427.487V363.074H-18.708V239.727Z" fill="#AED9E0"/>
<path fill-rule="evenodd" clip-rule="evenodd" d="M-24.9376 238.114C35.2107 173.962 89.2061 150.613 137.049 168.067C208.812 194.249 399.402 238.114 414.158 238.114C423.995 238.114 277.63 238.114 -24.9376 238.114Z" fill="#ADD9E1"/>
<path fill-rule="evenodd" clip-rule="evenodd" d="M505.793 238.114C445.645 173.962 391.649 150.613 343.807 168.067C272.043 194.249 81.4533 238.114 66.6978 238.114C56.8607 238.114 203.226 238.114 505.793 238.114Z" fill="#D7F2F7"/>
<path fill-rule="evenodd" clip-rule="evenodd" d="M326.297 295.915L75.7668 239.727H-1.4996C49.7564 325.954 115.203 362.559 194.84 349.541C274.478 336.524 318.296 318.648 326.297 295.915Z" fill="#F4DDAA"/>
<path fill-rule="evenodd" clip-rule="evenodd" d="M355.639 127.846C362.554 146.999 369.915 141.605 369.915 155.388C369.915 169.171 374.925 166.593 374.925 175.708C374.925 184.824 368.895 189.746 365.875 196.548C362.855 203.35 360.137 217.05 354.276 214.093C348.416 211.135 333.744 193.326 342.27 178.696C350.796 164.065 348.884 159.188 343.76 147.535C338.635 135.882 348.725 108.692 355.639 127.846Z" fill="#ABD6C8"/>
<path d="M353.774 144.845C358.474 156.349 359.649 168.76 357.299 182.079C354.949 195.398 354.949 213.909 357.299 237.611" stroke="#32353F" stroke-width="0.9"/>
<path d="M356.676 186.285L365.341 178.309" stroke="#32353F" stroke-width="0.9"/>
<path d="M358.474 166.288L352.988 161.355" stroke="#32353F" stroke-width="0.9"/>
<path d="M355.607 201.447L348.831 194.501" stroke="#32353F" stroke-width="0.9"/>
<path fill-rule="evenodd" clip-rule="evenodd" d="M317.286 169.236C321.56 169.536 327.655 174.942 327.655 183.956C327.655 192.971 331.17 197.223 331.599 200.193C332.028 203.162 330.859 205.864 326.66 210.156C322.46 214.447 324.346 220.282 320.444 221.473C319.038 221.903 316.688 219.486 316.688 215.22C316.688 210.954 306.977 201.085 309.806 196.566C311.252 194.257 314.556 191.984 315.263 189.501C316.237 186.079 312.401 180.918 311.768 174.942C311.131 168.931 315.019 169.077 317.286 169.236Z" fill="#EDFCFF"/>
<path d="M319.024 174.941C321.949 182.099 322.68 189.821 321.218 198.109C319.755 206.396 319.755 217.914 321.218 232.662" stroke="#32353F" stroke-width="0.8"/>
<path d="M320.851 200.725L326.243 195.762" stroke="#32353F" stroke-width="0.8"/>
<path d="M321.949 188.27L318.535 185.201" stroke="#32353F" stroke-width="0.8"/>
<path d="M320.195 210.154L315.979 205.832" stroke="#32353F" stroke-width="0.8"/>
<path fill-rule="evenodd" clip-rule="evenodd" d="M70.8787 129.451C77.7932 148.604 85.155 143.21 85.155 156.993C85.155 170.776 90.1642 168.198 90.1642 177.314C90.1642 186.429 84.1344 191.351 81.1146 198.153C78.0949 204.955 75.3763 218.655 69.5159 215.698C63.6555 212.74 48.9833 194.931 57.5093 180.301C66.0352 165.67 64.1234 160.793 58.9991 149.14C53.8747 137.487 63.9641 110.297 70.8787 129.451Z" fill="#EDFCFF"/>
<path d="M69.0134 146.458C73.7135 157.961 74.8885 170.372 72.5385 183.691C70.1884 197.011 70.1884 215.521 72.5385 239.223" stroke="#32353F" stroke-width="0.9"/>
<path d="M71.9154 187.895L80.5807 179.919" stroke="#32353F" stroke-width="0.9"/>
<path d="M73.7135 167.888L68.227 162.955" stroke="#32353F" stroke-width="0.9"/>
<path d="M70.8491 203.045L64.0727 196.098" stroke="#32353F" stroke-width="0.9"/>
<path fill-rule="evenodd" clip-rule="evenodd" d="M32.5177 176.207C36.7916 176.507 42.8866 181.912 42.8866 190.927C42.8866 199.942 46.4021 204.194 46.8311 207.163C47.2601 210.133 46.0914 212.835 41.8919 217.127C37.6924 221.418 39.5777 227.253 35.6762 228.444C34.27 228.874 31.9196 226.457 31.9196 222.191C31.9196 217.925 22.2087 208.056 25.0382 203.537C26.4842 201.228 29.788 198.955 30.4945 196.472C31.4686 193.049 27.6332 187.888 27.0001 181.912C26.3633 175.902 30.2515 176.048 32.5177 176.207Z" fill="#EDFCFF"/>
<path d="M34.2569 181.906C37.1815 189.064 37.9126 196.786 36.4503 205.074C34.9881 213.361 34.9881 224.879 36.4503 239.627" stroke="#32353F" stroke-width="0.8"/>
<path d="M36.0641 207.697L41.4558 202.735" stroke="#32353F" stroke-width="0.8"/>
<path d="M37.1815 195.245L33.7676 192.176" stroke="#32353F" stroke-width="0.8"/>
<path d="M35.4184 217.125L31.202 212.802" stroke="#32353F" stroke-width="0.8"/>
<path opacity="0.365746" fill-rule="evenodd" clip-rule="evenodd" d="M381.233 239.723H76.8762C252.838 271.682 354.29 278.568 381.233 260.382C408.176 242.197 408.176 235.31 381.233 239.723Z" fill="#9FCDD6"/>
<path fill-rule="evenodd" clip-rule="evenodd" d="M4.5928 217.297C10.287 215.381 14.1431 216.379 16.1611 220.293C17.36 225.102 19.1162 227.395 21.4298 227.169C26.0259 225.291 29.5452 225.969 31.9877 229.203C31.5996 223.115 33.8688 219.708 38.7953 218.981C46.1851 217.892 48.3364 223.406 48.3364 228.374C48.1917 223.748 50.0144 221.491 53.8045 221.603C52.8087 216.404 54.1483 213.654 57.8231 213.353C63.3353 212.902 64.2147 215.457 64.2147 222.348C68.9349 222.071 71.684 224.17 72.462 228.644C76.5816 226.731 80.7741 227.927 85.0395 232.232C89.3659 229.247 93.6199 229.384 97.8014 232.643C104.763 231.491 110.477 233.292 114.943 238.046L11.7338 238.244L4.5928 218.124" fill="#7EC4D2"/>
<path fill-rule="evenodd" clip-rule="evenodd" d="M393.82 217.297C388.126 215.381 384.27 216.379 382.252 220.293C381.053 225.102 379.297 227.395 376.983 227.169C372.387 225.291 368.868 225.969 366.425 229.203C366.813 223.115 364.544 219.708 359.617 218.981C352.228 217.892 350.076 223.406 350.076 228.374C350.221 223.748 348.398 221.491 344.608 221.603C345.604 216.404 344.264 213.654 340.59 213.353C335.078 212.902 334.198 215.457 334.198 222.348C329.478 222.071 326.729 224.17 325.951 228.644C321.831 226.731 317.639 227.927 313.373 232.232C309.047 229.247 304.793 229.384 300.611 232.643C293.65 231.491 287.936 233.292 283.47 238.046L386.679 238.244L393.82 218.124" fill="#7EC4D2"/>
</g>
<path fill-rule="evenodd" clip-rule="evenodd" d="M216.01 255.035C209.259 255.035 203.786 260.622 203.786 267.519C203.786 274.41 209.259 280.002 216.01 280.002C222.76 280.002 228.233 274.41 228.233 267.519C228.233 260.622 222.76 255.035 216.01 255.035Z" fill="#5F6260"/>
<path fill-rule="evenodd" clip-rule="evenodd" d="M242.611 233.518C238.836 231.316 208.217 224.343 208.217 224.343C208.217 224.343 178.258 198.153 153.092 196.685C128.874 195.27 97.9465 197.198 87.1597 199.149L87.3577 198.975L73.5939 200.792C73.5939 200.792 72.6441 202.004 73.0001 203.215C73.3566 204.427 75.4923 206.244 73.1187 211.336L73.3247 211.155C70.2609 216.217 67.8469 221.728 66.0899 225.2C65.3518 226.656 56.0231 234.13 52.4283 253.959C49.9252 267.764 60.5175 275.192 60.5175 275.192L255.254 275.25L258.61 261.421C258.61 261.421 253.037 243.98 251.958 242.332C250.879 240.677 246.386 235.72 242.611 233.518Z" fill="#FAFAFA"/>
<path fill-rule="evenodd" clip-rule="evenodd" d="M53.7557 266.676C56.2473 272.233 60.3915 275.14 60.3915 275.14L255.128 275.198L257.156 266.839H55.1339C54.6382 266.839 54.1812 266.781 53.7557 266.676Z" fill="#644E77"/>
<path fill-rule="evenodd" clip-rule="evenodd" d="M244.278 265.757C244.278 268.14 246.169 270.068 248.502 270.068H256.321L258.478 261.441H248.502C246.169 261.441 244.278 263.375 244.278 265.757Z" fill="#FB7333"/>
<path fill-rule="evenodd" clip-rule="evenodd" d="M250.592 240.449C246.887 236.249 242.7 235.229 242.7 235.229C236.589 236.33 247.374 245.505 249.531 246.058C251.688 246.606 252.992 245.435 252.992 245.435L252.543 244.002C252.133 242.697 251.491 241.462 250.592 240.449Z" fill="#FB7333"/>
<path fill-rule="evenodd" clip-rule="evenodd" d="M79.6058 249.796C70.374 249.796 62.8798 257.444 62.8798 266.875C62.8798 276.318 70.374 283.966 79.6058 283.966C88.8518 283.966 96.3409 276.318 96.3409 266.875C96.3409 257.444 88.8518 249.796 79.6058 249.796Z" fill="#3F2355"/>
<path fill-rule="evenodd" clip-rule="evenodd" d="M79.538 255.035C72.8601 255.035 67.4382 260.569 67.4382 267.391C67.4382 274.218 72.8601 279.752 79.538 279.752C86.2268 279.752 91.6447 274.218 91.6447 267.391C91.6447 260.569 86.2268 255.035 79.538 255.035Z" fill="#897999"/>
<path fill-rule="evenodd" clip-rule="evenodd" d="M91.1701 265.426L83.3707 266.743C83.422 266.987 83.4546 267.232 83.4546 267.488C83.4546 267.669 83.422 267.861 83.3981 268.036L91.1239 269.353C90.8096 271.176 90.0989 272.859 89.0824 274.304L82.7929 269.72C82.551 270.087 82.239 270.401 81.8939 270.675L86.3763 277.088C84.9605 278.137 83.3159 278.877 81.5288 279.215L80.259 271.438C80.0126 271.496 79.7605 271.52 79.4952 271.52C79.3001 271.52 79.1182 271.496 78.9362 271.467L77.6562 279.279C75.8291 279.005 74.131 278.318 72.669 277.292L77.2227 270.774C76.8593 270.518 76.533 270.186 76.2723 269.807L69.8379 274.502C68.7593 273.028 67.9983 271.304 67.6629 269.422L75.6015 268.071C75.5833 267.873 75.5502 267.687 75.5502 267.488C75.5502 267.226 75.5833 266.958 75.6295 266.714L67.6167 265.356C67.9088 263.446 68.6332 261.681 69.693 260.166L76.3841 265.036C76.6403 264.687 76.9523 264.372 77.3111 264.133L72.5315 257.289C74.0129 256.217 75.7401 255.494 77.6077 255.209L78.9647 263.51C79.1416 263.481 79.3184 263.452 79.4952 263.452C79.7468 263.452 79.9847 263.481 80.2265 263.533L81.5779 255.273C83.4049 255.623 85.0808 256.397 86.5143 257.492L81.8152 264.226C82.1454 264.477 82.4483 264.78 82.6908 265.129L89.2273 260.364C90.2249 261.85 90.898 263.568 91.1701 265.426ZM79.3834 253.875C72.1733 253.875 66.3047 259.869 66.3047 267.232C66.3047 274.613 72.1733 280.607 79.3834 280.607C86.6033 280.607 92.4764 274.613 92.4764 267.232C92.4764 259.869 86.6033 253.875 79.3834 253.875Z" fill="#AFA5BB"/>
<path fill-rule="evenodd" clip-rule="evenodd" d="M79.6643 262.019C77.0101 262.019 74.8584 264.215 74.8584 266.929C74.8584 269.638 77.0101 271.834 79.6643 271.834C82.3184 271.834 84.4701 269.638 84.4701 266.929C84.4701 264.215 82.3184 262.019 79.6643 262.019Z" fill="#D4D0DD"/>
<path fill-rule="evenodd" clip-rule="evenodd" d="M71.9645 224.162C68.4843 224.016 67.4382 229.55 67.4382 229.55L212.339 235.003L220.238 233.051C218.631 231.106 205.316 229.848 205.316 229.848L71.9645 224.162Z" fill="white"/>
<path fill-rule="evenodd" clip-rule="evenodd" d="M192.873 239.112C192.847 240.166 192.829 241.308 192.809 242.502C192.665 251.467 192.447 265.011 187.899 267.108C186.437 267.778 170.249 267.812 115.115 266.741C113.474 266.741 112.168 265.331 112.262 263.659L114.512 223.634L189.869 227.374C190.525 228.055 193.072 231.242 192.873 239.112ZM190.601 226.081L190.419 225.941L113.232 221.828L113.094 223.471L110.808 264.032C110.686 266.199 112.338 268.028 114.458 268.086C130.572 268.506 151.4 269.607 161.137 269.607C177.616 269.607 186.784 269.216 188.486 268.43C193.855 265.954 194.065 252.964 194.233 242.525C194.253 241.337 194.271 240.201 194.297 239.152C194.543 229.354 190.762 226.215 190.601 226.081Z" fill="#644E77"/>
<path fill-rule="evenodd" clip-rule="evenodd" d="M216.228 250.082C206.996 250.082 199.502 257.731 199.502 267.162C199.502 276.604 206.996 284.253 216.228 284.253C225.473 284.253 232.963 276.604 232.963 267.162C232.963 257.731 225.473 250.082 216.228 250.082Z" fill="#3F2355"/>
<path fill-rule="evenodd" clip-rule="evenodd" d="M216.008 253.875C208.937 253.875 203.196 259.735 203.196 266.958C203.196 274.187 208.937 280.048 216.008 280.048C223.089 280.048 228.826 274.187 228.826 266.958C228.826 259.735 223.089 253.875 216.008 253.875Z" fill="#897999"/>
<path fill-rule="evenodd" clip-rule="evenodd" d="M228.061 265.426L220.262 266.743C220.313 266.987 220.346 267.232 220.346 267.488C220.346 267.669 220.313 267.861 220.289 268.036L228.015 269.353C227.7 271.176 226.99 272.859 225.973 274.304L219.684 269.72C219.442 270.087 219.13 270.401 218.786 270.675L223.267 277.088C221.852 278.137 220.207 278.877 218.42 279.215L217.15 271.438C216.904 271.496 216.652 271.52 216.386 271.52C216.191 271.52 216.009 271.496 215.827 271.467L214.547 279.279C212.72 279.005 211.022 278.318 209.56 277.292L214.113 270.774C213.75 270.518 213.424 270.186 213.163 269.807L206.729 274.502C205.65 273.028 204.889 271.304 204.553 269.422L212.493 268.071C212.474 267.873 212.441 267.687 212.441 267.488C212.441 267.226 212.474 266.958 212.521 266.714L204.508 265.356C204.8 263.446 205.524 261.681 206.584 260.166L213.275 265.036C213.531 264.687 213.843 264.372 214.202 264.133L209.423 257.289C210.903 256.217 212.631 255.494 214.499 255.209L215.856 263.51C216.033 263.481 216.209 263.452 216.386 263.452C216.638 263.452 216.876 263.481 217.118 263.533L218.468 255.273C220.295 255.623 221.972 256.397 223.405 257.492L218.706 264.226C219.036 264.477 219.339 264.78 219.582 265.129L226.118 260.364C227.116 261.85 227.789 263.568 228.061 265.426ZM216.275 253.875C209.064 253.875 203.196 259.869 203.196 267.232C203.196 274.613 209.064 280.607 216.275 280.607C223.494 280.607 229.368 274.613 229.368 267.232C229.368 259.869 223.494 253.875 216.275 253.875Z" fill="#AFA5BB"/>
<path fill-rule="evenodd" clip-rule="evenodd" d="M215.992 262.019C213.338 262.019 211.186 264.215 211.186 266.929C211.186 269.638 213.338 271.834 215.992 271.834C218.647 271.834 220.798 269.638 220.798 266.929C220.798 264.215 218.647 262.019 215.992 262.019Z" fill="#D4D0DD"/>
<path fill-rule="evenodd" clip-rule="evenodd" d="M61.4796 234.646H58.7045L57.2807 237.279L56.0349 240.233L61.5298 240.128C62.5286 240.11 63.4344 239.528 63.8811 238.613C64.7738 236.79 63.4755 234.646 61.4796 234.646Z" fill="#FB7333"/>
<path fill-rule="evenodd" clip-rule="evenodd" d="M59.1998 241.637L55.6541 241.701L54.6456 244.305L53.7557 247.229L59.25 247.124C60.2494 247.101 61.1547 246.519 61.6019 245.604C62.4946 243.781 61.1963 241.637 59.1998 241.637Z" fill="#ED6C0D"/>
<path fill-rule="evenodd" clip-rule="evenodd" d="M132.202 231.784C132.182 232.273 131.794 232.652 131.319 232.652V233.089L131.282 232.652L120.483 232.197C120.248 232.186 120.03 232.087 119.87 231.906C119.71 231.731 119.628 231.498 119.638 231.259L119.689 229.972C119.709 229.489 120.095 229.11 120.606 229.11H120.607L131.408 229.558C131.643 229.57 131.861 229.675 132.019 229.85C132.179 230.03 132.263 230.257 132.253 230.496L132.202 231.784ZM131.442 228.69L120.571 228.236C119.635 228.236 118.873 228.982 118.836 229.937L118.784 231.224C118.765 231.696 118.928 232.151 119.242 232.5C119.351 232.617 119.489 232.698 119.623 232.78L119.401 232.768C125.299 236.182 131.96 233.409 131.96 233.409H131.901C132.55 233.17 133.025 232.564 133.056 231.824L133.107 230.531C133.125 230.059 132.962 229.605 132.648 229.261C132.333 228.912 131.906 228.708 131.442 228.69Z" fill="#897999"/>
<path fill-rule="evenodd" clip-rule="evenodd" d="M92.3764 202.459C92.3764 202.459 86.8039 202.639 79.434 220.266L200.32 225.037C200.32 225.037 175.244 205.028 165.358 202.639C155.471 200.257 132.462 197.501 92.3764 202.459Z" fill="#E3F0F5"/>
<path fill-rule="evenodd" clip-rule="evenodd" d="M91.9707 203.181C92.0066 203.165 92.0425 203.149 92.0783 203.149C92.0425 203.149 92.0072 203.165 91.9707 203.181ZM92.0907 203.133C92.7056 202.958 93.3165 202.782 93.9242 202.607C93.3165 202.782 92.7056 202.958 92.0907 203.133Z" fill="#DAE8E6"/>
<path fill-rule="evenodd" clip-rule="evenodd" d="M80.0773 219.726C86.8608 203.963 91.9336 203.346 92.0288 203.34C106.838 201.505 120.568 200.579 132.836 200.579C150.054 200.579 160.226 202.414 164.758 203.509C172.865 205.466 191.761 219.79 197.656 224.363L80.0773 219.726ZM165.089 202.081C160.497 200.969 150.2 199.111 132.836 199.111C120.51 199.111 106.722 200.043 91.9193 201.878C91.3021 201.895 85.6771 202.582 78.338 220.128C78.2456 220.349 78.2662 220.606 78.3928 220.81C78.5189 221.013 78.7356 221.142 78.9718 221.153L199.858 225.924H199.886C200.187 225.924 200.458 225.732 200.561 225.441C200.669 225.143 200.574 224.806 200.328 224.608C199.301 223.786 175.015 204.476 165.089 202.081Z" fill="#644E77"/>
<path fill-rule="evenodd" clip-rule="evenodd" d="M187.229 224.665L199.093 224.851L188.128 216.591L187.229 224.665Z" fill="#3F2355"/>
<path fill-rule="evenodd" clip-rule="evenodd" d="M184.881 224.625L186.02 219.481C186.02 219.481 184.701 217.279 181.586 216.79C178.469 216.3 175.114 216.545 174.754 219.481C174.395 222.423 175.474 224.869 177.032 224.869C178.589 224.869 179.189 225.359 179.189 225.359L181.825 230.741C181.825 230.741 188.896 233.799 188.296 229.762L184.881 224.625Z" fill="#3F2355"/>
<path fill-rule="evenodd" clip-rule="evenodd" d="M116.487 200.247L113.071 221.538L123.737 222.214L123.317 199.693L116.487 200.247Z" fill="#644E77"/>
<path fill-rule="evenodd" clip-rule="evenodd" d="M252.888 202.543L252.831 202.449L252.888 202.543L255.792 201.442L256.637 202.298L255.792 201.442L252.888 202.543Z" fill="#82939C"/>
</svg>
