<svg id="Layer_1" data-name="Layer 1" xmlns="http://www.w3.org/2000/svg" viewBox="0 0 571.71 383.86"><defs><style>.cls-1{fill:#dedfe0;}.cls-2{fill:#fff;}.cls-3{fill:#3f2355;}</style></defs><ellipse class="cls-1" cx="376.42" cy="321.75" rx="141.97" ry="5.98"/><ellipse class="cls-1" cx="118.74" cy="321.75" rx="45.09" ry="5.98"/><path class="cls-2" d="M229,201l8.92-8.88c-.43,1.9-.86,3.82-1.3,5.74a2.44,2.44,0,0,0,.41,2l-6.18,2.37Z"/><path class="cls-2" d="M478.64,126.61a2.87,2.87,0,1,1-2.87,2.88A2.88,2.88,0,0,1,478.64,126.61Z"/><path class="cls-2" d="M488.6,189.8a2.87,2.87,0,1,1-2.88,2.86A2.86,2.86,0,0,1,488.6,189.8Z"/><path class="cls-2" d="M356.91,172.61a2.87,2.87,0,1,1-2.87,2.88A2.88,2.88,0,0,1,356.91,172.61Z"/><path class="cls-2" d="M387.54,172.61a2.87,2.87,0,1,1-2.87,2.88A2.88,2.88,0,0,1,387.54,172.61Z"/><path class="cls-3" d="M515.57,190.09a8.8,8.8,0,0,1-7.24,11.68l-4.88.59v-2.14a2.34,2.34,0,0,0-4.49-.93l-.09,0a2.42,2.42,0,0,1,1.94-1.49l6.94-.84A4,4,0,0,0,511,191.7c-1.31-3.7-3.11-8.76-5.24-14.64l1.17-.43a1.17,1.17,0,0,0,1.13.87,1.65,1.65,0,0,0,.31,0,1.17,1.17,0,0,0,.82-1.43l-3.88-14.34C509.59,173.32,513.31,183.74,515.57,190.09Z"/><path class="cls-3" d="M513.7,221.23a10.61,10.61,0,0,1-2.86,14.48l-30.29,21.13a2.45,2.45,0,0,1-1.38.43h-7.51v-4.82h1.77v2.41a1.17,1.17,0,1,0,2.34,0v-2.41h2.64l29.67-20.7a5.78,5.78,0,0,0,1.56-7.91l-8-12.53h-.5v-.06a2.35,2.35,0,0,0,2.34-2.35v-2.35a2.38,2.38,0,0,1,1.51,1Z"/><path class="cls-2" d="M511,191.7a4,4,0,0,1-3.27,5.28l-6.94.84a2.42,2.42,0,0,0-1.94,1.49l-17.15,2.09-40.81-44.29a1.32,1.32,0,0,0-.77-.41c-44.09-5.93-169,13.31-174.25,14.13a1.28,1.28,0,0,0-1,.92l-1.44,5.52-2.73,10.51-2.49,9.6h-.46l-.93-1.77a2.37,2.37,0,0,0-2.08-1.24h-12.4c.72-3.11,1.42-6.18,2.13-9.2a.4.4,0,0,0,0-.15c3.67-15.59,7.39-29.67,11.43-39.38l41.8-4.62,12.81-1.42,11.3-1.25,11.07-1.22L344,135.9l11.08-1.22,10.45-1.16,12.07-1.33,10.1-1.12,70.49-7.79,6.47,22.05a2.42,2.42,0,0,0,2.31,1.74h0l27.63-.47c4,10.74,8,21.54,11.17,30.46C507.91,182.94,509.71,188,511,191.7Zm-17.21,1a5.21,5.21,0,1,0-5.21,5.21A5.23,5.23,0,0,0,493.81,192.66Z"/><path class="cls-2" d="M509.64,223.84a5.78,5.78,0,0,1-1.56,7.91l-29.67,20.7h-2.64V211.31h25.84Z"/><path class="cls-3" d="M509.21,176a1.17,1.17,0,0,1-.82,1.43,1.65,1.65,0,0,1-.31,0,1.17,1.17,0,0,1-1.13-.87l-8.51-31.4a2.53,2.53,0,0,0,.24-1.1,2.17,2.17,0,0,0-.11-.69c2.3,6.13,4.59,12.31,6.73,18.18l0,.07Z"/><path class="cls-3" d="M498.44,145.23l8.51,31.4-1.17.43c-3.21-8.92-7.15-19.72-11.17-30.46l1.7,0A2.43,2.43,0,0,0,498.44,145.23Z"/><path class="cls-3" d="M493.41,117.72l11.89,43.9c-2.14-5.87-4.43-12.05-6.73-18.18a1,1,0,0,0-.09-.24c-.73-1.93-1.42-3.8-2.12-5.62l-5-18.38h-2.14c-.32-.8-.62-1.58-.93-2.34h4A1.18,1.18,0,0,1,493.41,117.72Z"/><path class="cls-3" d="M503.45,206.55v2.35a2.34,2.34,0,1,1-4.68,0v-2.41h4.17A2.22,2.22,0,0,1,503.45,206.55Z"/><path class="cls-3" d="M503.45,202.36v4.19a2.22,2.22,0,0,0-.51-.06h-4.17v-4.82l.39,0a2.39,2.39,0,0,0,2.24,1Z"/><path class="cls-3" d="M503.45,200.22v2.14l-2.05.25a2.39,2.39,0,0,1-2.24-1l2.09-.25a1.17,1.17,0,0,0,1-1.31,1.2,1.2,0,0,0-1.3-1l-2,.24a2.34,2.34,0,0,1,4.49.93Z"/><path class="cls-3" d="M502.27,200.07a1.17,1.17,0,0,1-1,1.31l-2.09.25a2.28,2.28,0,0,1-.39-.85v-.56a2.21,2.21,0,0,1,.19-.93l2-.24A1.2,1.2,0,0,1,502.27,200.07Z"/><path class="cls-3" d="M501.11,211.25v.06H475.77V208.9a1.16,1.16,0,0,0-.57-1l-1.8-1.09a2.44,2.44,0,0,1,1.2-.32h24.17v2.41A2.35,2.35,0,0,0,501.11,211.25Z"/><path class="cls-3" d="M499.16,201.63l-.39,0v-.89A2.28,2.28,0,0,0,499.16,201.63Z"/><path class="cls-3" d="M498.87,199.31l.09,0a2.21,2.21,0,0,0-.19.93v.54a2.21,2.21,0,0,1,0-.25A2.52,2.52,0,0,1,498.87,199.31Z"/><path class="cls-3" d="M481.72,201.4l17.15-2.09a2.52,2.52,0,0,0-.15,1.2,2.21,2.21,0,0,0,0,.25v.91l-17.32,2.12h-.14a1.33,1.33,0,0,1-.94-.41L439.43,159c-42.44-5.48-162,12.47-172.49,14.06l-.82,3.18-1.41.19a1.17,1.17,0,0,0-1,.95l-.3-.08,1.44-5.52a1.28,1.28,0,0,1,1-.92c5.27-.82,130.16-20.06,174.25-14.13a1.32,1.32,0,0,1,.77.41Z"/><path class="cls-2" d="M498.77,201.67v4.82H481.31V203.8h.14Z"/><path class="cls-3" d="M498.68,144.13a2.53,2.53,0,0,1-.24,1.1l-.83-3.06a2.3,2.3,0,0,1,.87,1,1,1,0,0,1,.09.24A2.17,2.17,0,0,1,498.68,144.13Z"/><path class="cls-3" d="M497.61,142.17l.83,3.06a2.43,2.43,0,0,1-2.13,1.35l-1.7,0L494,145c-.41-1.08-.81-2.15-1.2-3.2l3.42-.06h0A2.42,2.42,0,0,1,497.61,142.17Z"/><path class="cls-3" d="M498.48,143.2a2.3,2.3,0,0,0-.87-1l-1.25-4.59C497.06,139.4,497.75,141.27,498.48,143.2Z"/><path class="cls-3" d="M496.36,137.58l1.25,4.59a2.42,2.42,0,0,0-1.34-.42h0l-3.42.06c-3.34-8.85-6.3-16.49-8.85-22.86l1.14-.46a1.19,1.19,0,0,0,1.08.71h3.07Q492.45,127.18,496.36,137.58Z"/><path class="cls-3" d="M494,145l.6,1.59-27.63.47h0a2.42,2.42,0,0,1-2.31-1.74l-6.47-22.05,1.9-.21a2.39,2.39,0,0,0,2.25-2.4,2.49,2.49,0,0,0-.16-.87.44.44,0,0,1,.07.19l6.52,22.22,24.07-.4C493.2,142.86,493.6,143.93,494,145Z"/><path class="cls-2" d="M492.81,141.81l-24.07.4L462.22,120a.44.44,0,0,0-.07-.19s0,0,0,0l-13.3-45.24a2.54,2.54,0,0,0-2.39-1.8h-29a4.58,4.58,0,0,0-.46-9.13v-.34h41.33c2,5.36,8.81,23,16,34.39,1.87,3,5.12,10.16,9.59,21.28C486.51,125.32,489.47,133,492.81,141.81Zm-9-12.32a5.21,5.21,0,1,0-5.21,5.21A5.21,5.21,0,0,0,483.85,129.49Z"/><path class="cls-3" d="M488.6,187.45a5.21,5.21,0,1,1-5.21,5.21A5.23,5.23,0,0,1,488.6,187.45Zm2.86,5.21a2.87,2.87,0,1,0-2.86,2.88A2.86,2.86,0,0,0,491.46,192.66Z"/><path class="cls-3" d="M489.25,119.2h-3.07a1.19,1.19,0,0,1-1.08-.71A1.34,1.34,0,0,1,485,118a1.17,1.17,0,0,1,1.16-1.17h2.14C488.63,117.62,488.93,118.4,489.25,119.2Z"/><path class="cls-3" d="M488.32,116.86h-2.14A1.17,1.17,0,0,0,485,118a1.34,1.34,0,0,0,.08.46L484,119c-4.47-11.12-7.72-18.33-9.59-21.28-7.2-11.34-14-29-16-34.39H415.3a5.44,5.44,0,0,0-3.93,1.7,4.42,4.42,0,0,0-1.26,3.31,4.82,4.82,0,0,0,1.38,3.1,4.67,4.67,0,0,0,3.34,1.36h1.73l.47,0,.46,0h29a2.54,2.54,0,0,1,2.39,1.8l13.3,45.24a2.41,2.41,0,0,0-4.56,1.55l.57,1.94-70.49,7.79-.13-1.23a1.19,1.19,0,0,0,1.18-1.17v-2.56l35.95-4V77.57h-9.84a9.49,9.49,0,0,1-6.77-2.79,9.69,9.69,0,0,1-2.77-6.2,9.25,9.25,0,0,1,2.57-6.91,10.28,10.28,0,0,1,7.44-3.21h8.79a8.33,8.33,0,0,0-7.79-5.36H388.72V50.69a1.18,1.18,0,0,0-1.18-1.17V48.28H416.3a13.17,13.17,0,0,1,12.83,10.18H460a2.52,2.52,0,0,1,2.32,1.6c.34.94,8,22.27,16.13,35C480.45,98.25,483.75,105.54,488.32,116.86Zm-31.56,1.72-12.05-41H429.49v44Z"/><path class="cls-3" d="M478.64,124.28a5.21,5.21,0,1,1-5.21,5.21A5.21,5.21,0,0,1,478.64,124.28Zm2.87,5.21a2.87,2.87,0,1,0-2.87,2.86A2.88,2.88,0,0,0,481.51,129.49Z"/><path class="cls-2" d="M481.31,203.8v2.69H474.6a2.44,2.44,0,0,0-1.2.32L440.78,187a1.1,1.1,0,0,0-.59-.17H411.46a25.13,25.13,0,0,0-1.95-12.4c-5.83-12.41-23-10.9-54.24-8.17l-9.53.82c-32.89,2.77-71.79,8-79.62,9.09l.82-3.18C277.42,171.44,397,153.49,439.43,159l40.94,44.42A1.33,1.33,0,0,0,481.31,203.8Z"/><path class="cls-3" d="M475.77,252.45v2.41a1.17,1.17,0,1,1-2.34,0v-2.41Z"/><path class="cls-3" d="M475.77,211.31v41.14h-2.34V211a2.32,2.32,0,0,0,1.17.3Z"/><path class="cls-3" d="M475.77,208.9v2.41H474.6a2.32,2.32,0,0,1-1.17-.3v-1.45l-1.25-.75a2.41,2.41,0,0,1,1.22-2l1.8,1.09A1.16,1.16,0,0,1,475.77,208.9Z"/><path class="cls-2" d="M473.43,211v41.44h-1.77v-4.81a2.33,2.33,0,0,0-1.91-2.29l-3.34-.63-2.35-7.41,2.58-4.55a2.32,2.32,0,0,0,0-2.35l-6.33-10.75a2.33,2.33,0,0,0-2-1.15h-5.23l-4.21-4.1V208.9a2.34,2.34,0,0,0-1.11-2l-12.07-7.48a2.33,2.33,0,0,0-2.74.2l-2.8,2.34-8-1.72-2.44-4.64a2.36,2.36,0,0,0-2.08-1.25H405a2.35,2.35,0,0,0-2.06,1.24l-2.09,3.94-7.11,2.73L389,199.09a2.39,2.39,0,0,0-2.47-.1l-11.7,6.63a2.34,2.34,0,0,0-1.14,2.53l1.09,5.07-4.55,5.54-5.44-.2a2.36,2.36,0,0,0-2.08,1.11l-6.6,10.68a2.36,2.36,0,0,0,0,2.47l2.48,4-1.77,7.42L353,245.93a2.33,2.33,0,0,0-1.38,2.13v4.39H308.77v-4.8a2.32,2.32,0,0,0-1.91-2.29l-3.34-.64-2.35-7.4,2.58-4.57a2.31,2.31,0,0,0,0-2.34l-6.33-10.74a2.34,2.34,0,0,0-2-1.16h-5.24l-4.21-4.1V208.9a2.37,2.37,0,0,0-1.11-2l-12.07-7.47a2.33,2.33,0,0,0-2.74.19l-2.8,2.35-8-1.74-.28-.52h.08a1.31,1.31,0,0,0,1.2-.93l2.49-9.58H439.86l32.32,19.6v.09A2.4,2.4,0,0,0,473.43,211Z"/><path class="cls-3" d="M473.43,209.56V211a2.4,2.4,0,0,1-1.25-2.11v-.09Z"/><path class="cls-3" d="M440.78,187l32.62,19.77a2.41,2.41,0,0,0-1.22,2l-32.32-19.6H410.14a1.17,1.17,0,0,0,1.15-1c0-.07.1-.57.17-1.37h28.73A1.1,1.1,0,0,1,440.78,187Z"/><path class="cls-3" d="M471.66,257.27v5.54a2.34,2.34,0,0,1-1.86,2.29l-4.05.86-1.54,8.58,2.17,1.77a2.33,2.33,0,0,1,.55,3l-6.47,11.34a2.35,2.35,0,0,1-2,1.18h-4.73l-5.56,5.92.12,3.89a2.34,2.34,0,0,1-1.1,2.05l-10.75,6.77a2.28,2.28,0,0,1-2.39.06l-4.83-2.72-7.7,2.56-1.37,3.54a2.32,2.32,0,0,1-2.18,1.49H405.27a2.32,2.32,0,0,1-1.87-.93l-3.47-4.63L393,308.16l-3.86,2.14a2.35,2.35,0,0,1-2.35-.05l-11.23-6.84a2.35,2.35,0,0,1-1.11-2.22l.4-4.25-5.9-5.28-4.9-.44a2.33,2.33,0,0,1-1.77-1.09l-6.85-11a2.35,2.35,0,0,1,.21-2.76l3.61-4.24-2.85-7.6-3.2-1.07a2.34,2.34,0,0,1-1.61-2.22v-4H354a2.4,2.4,0,0,0,2.33-1.81v4.12l2.67.89a2.32,2.32,0,0,1,1.44,1.4l3.75,9.94a2.33,2.33,0,0,1-.42,2.34l-3.4,4,5.32,8.53,4.52.4a2.43,2.43,0,0,1,1.35.59l7.35,6.58a2.34,2.34,0,0,1,.77,2l-.37,4,8.81,5.36,3.45-1.92a2.35,2.35,0,0,1,1.68-.23l8.63,2.05a2.4,2.4,0,0,1,1.33.87l3.27,4.36h9.89l1.19-3.06a2.33,2.33,0,0,1,1.44-1.37l9.71-3.25a2.31,2.31,0,0,1,1.89.19l4.53,2.55,8.43-5.31-.1-3.53a2.32,2.32,0,0,1,.63-1.66l6.92-7.37a2.36,2.36,0,0,1,1.71-.74h4.38l4.83-8.43-1.71-1.4a2.32,2.32,0,0,1-.82-2.23l2.05-11.48a2.38,2.38,0,0,1,1.83-1.88l3.74-.79v-5.45a2.41,2.41,0,0,0,2.34,1.81Z"/><path class="cls-3" d="M471.66,252.45v4.82h-2.34a2.41,2.41,0,0,1-2.34-1.81v-1.2a2.41,2.41,0,0,1,2.34-1.81Z"/><path class="cls-3" d="M471.66,247.64v4.81h-2.34a2.41,2.41,0,0,0-2.34,1.81v-4.67l-2.81-.53a2.31,2.31,0,0,1-1.79-1.59l-3.1-9.72a2.42,2.42,0,0,1,.19-1.86l2.44-4.27-5-8.43h-4.85a2.36,2.36,0,0,1-1.63-.66l-5.59-5.45a2.32,2.32,0,0,1-.71-1.67V210.2l-9.53-5.9-2.39,2a2.35,2.35,0,0,1-2,.5l-10.16-2.21a2.36,2.36,0,0,1-1.58-1.2l-2.28-4.34h-9.85l-1.84,3.45-2.05-1.09h0l-1.66-1.87,2.09-3.94a2.35,2.35,0,0,1,2.06-1.24h12.66a2.36,2.36,0,0,1,2.08,1.25l2.44,4.64,8,1.72,2.8-2.34a2.33,2.33,0,0,1,2.74-.2l12.07,7.48a2.34,2.34,0,0,1,1.11,2v5.51l4.21,4.1h5.23a2.33,2.33,0,0,1,2,1.15l6.33,10.75a2.32,2.32,0,0,1,0,2.35l-2.58,4.55,2.35,7.41,3.34.63A2.33,2.33,0,0,1,471.66,247.64Z"/><path class="cls-1" d="M467,255.46v5.45l-3.74.79a2.38,2.38,0,0,0-1.83,1.88l-2.05,11.48a2.32,2.32,0,0,0,.82,2.23l1.71,1.4-4.83,8.43h-4.38a2.36,2.36,0,0,0-1.71.74l-6.92,7.37a2.32,2.32,0,0,0-.63,1.66l.1,3.53-8.43,5.31-4.53-2.55a2.31,2.31,0,0,0-1.89-.19L419,306.24a2.33,2.33,0,0,0-1.44,1.37l-1.19,3.06h-9.89l-3.27-4.36a2.4,2.4,0,0,0-1.33-.87l-8.63-2.05a2.35,2.35,0,0,0-1.68.23l-3.45,1.92-8.81-5.36.37-4a2.34,2.34,0,0,0-.77-2l-7.35-6.58a2.43,2.43,0,0,0-1.35-.59l-4.52-.4-5.32-8.53,3.4-4a2.33,2.33,0,0,0,.42-2.34l-3.75-9.94a2.32,2.32,0,0,0-1.44-1.4l-2.67-.89v-4.12a2.41,2.41,0,0,0,.08-.6,2.47,2.47,0,0,0-.08-.6v-4.69L359.8,248a2.38,2.38,0,0,0,1.31-1.59l2.26-9.5a2.42,2.42,0,0,0-.29-1.78l-2.23-3.56,5.12-8.29,5.24.19a2.38,2.38,0,0,0,1.89-.86l6-7.29a2.37,2.37,0,0,0,.49-2l-1-4.51,8.95-5.06,4.54,3.06a2.36,2.36,0,0,0,2.14.24l9.06-3.48a2.27,2.27,0,0,0,1.23-1.09h0l1.84-3.45h9.85l2.28,4.34a2.36,2.36,0,0,0,1.58,1.2l10.16,2.21a2.35,2.35,0,0,0,2-.5l2.39-2,9.53,5.9v5.21a2.32,2.32,0,0,0,.71,1.67l5.59,5.45a2.36,2.36,0,0,0,1.63.66h4.85l5,8.43-2.44,4.27a2.42,2.42,0,0,0-.19,1.86l3.1,9.72a2.31,2.31,0,0,0,1.79,1.59l2.81.53v4.67a2.47,2.47,0,0,0-.08.6A2.41,2.41,0,0,0,467,255.46Zm-10.31-.6a45,45,0,1,0-45,45A45.08,45.08,0,0,0,456.67,254.86Z"/><path class="cls-3" d="M467,254.26v1.2a2.41,2.41,0,0,1-.08-.6A2.47,2.47,0,0,1,467,254.26Z"/><path class="cls-3" d="M462.15,119.8a2.49,2.49,0,0,1,.16.87,2.39,2.39,0,0,1-2.25,2.4l-1.9.21-.57-1.94a2.41,2.41,0,0,1,4.56-1.55S462.16,119.79,462.15,119.8Z"/><polygon class="cls-2" points="444.71 77.57 456.76 118.58 429.49 121.6 429.49 77.57 444.71 77.57"/><path class="cls-3" d="M411.63,209.83a45,45,0,1,1-45,45A45.08,45.08,0,0,1,411.63,209.83Zm42.7,45a42.7,42.7,0,1,0-42.7,42.7A42.75,42.75,0,0,0,454.33,254.86Z"/><path class="cls-2" d="M424.67,77.57v44.56l-35.95,4v-73H416.3a8.33,8.33,0,0,1,7.79,5.36H415.3a10.28,10.28,0,0,0-7.44,3.21,9.25,9.25,0,0,0-2.57,6.91,9.69,9.69,0,0,0,2.77,6.2,9.49,9.49,0,0,0,6.77,2.79Z"/><path class="cls-3" d="M411.63,238.25A16.62,16.62,0,1,1,395,254.86,16.64,16.64,0,0,1,411.63,238.25Zm14.28,16.61a14.28,14.28,0,1,0-14.28,14.28A14.29,14.29,0,0,0,425.91,254.86Z"/><path class="cls-3" d="M417,63.62a4.58,4.58,0,0,1,.46,9.13h-.93a4.58,4.58,0,0,1,.47-9.13Zm2.32,4.57A2.33,2.33,0,1,0,417,70.52,2.32,2.32,0,0,0,419.35,68.19Z"/><path class="cls-3" d="M417.49,72.75l-.46,0-.47,0Z"/><path class="cls-3" d="M409.51,174.47a25.13,25.13,0,0,1,1.95,12.4h-2.37a22.92,22.92,0,0,0-1.69-11.4c-5.14-10.94-21.76-9.48-51.93-6.84-3,.27-6.22.55-9.54.82-34.52,2.91-75.68,8.54-80.45,9.21l.64-2.45c7.83-1.07,46.73-6.32,79.62-9.09l9.53-.82C386.49,163.57,403.68,162.06,409.51,174.47Z"/><path class="cls-3" d="M409.09,186.87h2.37c-.07.8-.16,1.3-.17,1.37a1.17,1.17,0,0,1-1.15,1h-.21a1.19,1.19,0,0,1-.95-1.36A7.17,7.17,0,0,0,409.09,186.87Z"/><path class="cls-3" d="M410.14,189.21H262.74l.61-2.34H409.09a7.17,7.17,0,0,1-.11,1,1.19,1.19,0,0,0,.95,1.36Z"/><path class="cls-1" d="M407.4,175.47a22.92,22.92,0,0,1,1.69,11.4H263.35l2.13-8.21c4.77-.67,45.93-6.3,80.45-9.21,3.32-.27,6.5-.55,9.54-.82C385.64,166,402.26,164.53,407.4,175.47Zm-14.65,0a5.21,5.21,0,1,0-5.21,5.21A5.21,5.21,0,0,0,392.75,175.49Zm-30.63,0a.57.57,0,0,0,0-.13,5.19,5.19,0,0,0-5.07-5.08h-.13a5.21,5.21,0,0,0-5.21,5.21.53.53,0,0,0,0,.12,5.19,5.19,0,0,0,5.08,5.08h.12A5.22,5.22,0,0,0,362.12,175.49Z"/><path class="cls-3" d="M404.54,202.5h0a2.27,2.27,0,0,1-1.23,1.09l-9.06,3.48a2.36,2.36,0,0,1-2.14-.24l-4.54-3.06-8.95,5.06,1,4.51a2.37,2.37,0,0,1-.49,2l-6,7.29a2.38,2.38,0,0,1-1.89.86l-5.24-.19-5.12,8.29,2.23,3.56a2.42,2.42,0,0,1,.29,1.78l-2.26,9.5A2.38,2.38,0,0,1,359.8,248l-3.51,1.56v4.69a2.4,2.4,0,0,0-2.33-1.81h-2.35v-4.39a2.33,2.33,0,0,1,1.38-2.13l3.83-1.72,1.77-7.42-2.48-4a2.36,2.36,0,0,1,0-2.47l6.6-10.68a2.36,2.36,0,0,1,2.08-1.11l5.44.2,4.55-5.54-1.09-5.07a2.34,2.34,0,0,1,1.14-2.53l11.7-6.63a2.39,2.39,0,0,1,2.47.1l4.72,3.18,7.11-2.73,1.66,1.87h0Z"/><path class="cls-3" d="M387.54,170.28a5.21,5.21,0,1,1-5.21,5.21A5.21,5.21,0,0,1,387.54,170.28Zm2.87,5.21a2.87,2.87,0,1,0-2.87,2.86A2.88,2.88,0,0,0,390.41,175.49Z"/><path class="cls-3" d="M388.72,126.11v2.56a1.19,1.19,0,0,1-1.18,1.17,1.17,1.17,0,0,1-1.17-1.17v-2.3Z"/><polygon class="cls-3" points="388.71 53.1 388.71 126.11 386.37 126.37 386.37 53.1 388.71 53.1"/><path class="cls-3" d="M388.72,50.69V53.1h-2.35V50.69a1.17,1.17,0,0,1,1.17-1.17A1.18,1.18,0,0,1,388.72,50.69Z"/><path class="cls-3" d="M387.54,129.84l.13,1.23-10.1,1.12-.13-1.24a1.16,1.16,0,0,0,1.16-1.16v-2.56l7.77-.86v2.3A1.17,1.17,0,0,0,387.54,129.84Z"/><path class="cls-3" d="M387.54,48.28v1.24a1.17,1.17,0,0,0-1.17,1.17V53.1H292.94l16.33,8.26a2.4,2.4,0,0,1,.89,3.54L293.68,88.37l-2.32,48.5,4.68-.52,0,.81a1.17,1.17,0,0,0,1.14,1.2h.27l.3,2.67-41.8,4.62c-4,9.71-7.76,23.79-11.43,39.38a.4.4,0,0,1,0,.15c-.71,3-1.41,6.09-2.13,9.2h-.26a2.32,2.32,0,0,0-2.06,1.24l-2.08,3.94-.93.36a2.44,2.44,0,0,1-.41-2c.44-1.92.87-3.84,1.3-5.74L229,201l-2.88-1.94a2.27,2.27,0,0,0-1.64-.37l15.49-15.41c3.83-16.26,7.74-30.91,12.08-40.84a2.56,2.56,0,0,1,2-1.49l32.44-3.58,2.39-50a2.46,2.46,0,0,1,.44-1.27l15.28-21.76-16.89-8.53a2.41,2.41,0,0,1-1.32-2.15v-3a2.41,2.41,0,0,1,2.41-2.41Z"/><path class="cls-2" d="M386.37,53.1v73.27l-7.77.86V64.74a1.16,1.16,0,0,0-1.16-1.17H319a1.18,1.18,0,0,0-1,.55l-8.57,13.54L302,89.32l-4.64,7.32a1.11,1.11,0,0,0-.18.59l-.1,3.22-.32,10.48-.3,10.47L296,136.35l-4.68.52,2.32-48.5L310.16,64.9a2.4,2.4,0,0,0-.89-3.54L292.94,53.1Z"/><path class="cls-3" d="M378.6,127.23v2.56a1.17,1.17,0,0,1-2.33,0v-2.31Z"/><path class="cls-3" d="M378.6,121.42v5.81l-2.33.25V122.6h1.17A1.17,1.17,0,0,0,378.6,121.42Z"/><path class="cls-3" d="M378.6,110.94v10.48a1.16,1.16,0,0,0-1.16-1.17h-1.17v-8.14h1.17A1.16,1.16,0,0,0,378.6,110.94Z"/><path class="cls-3" d="M378.6,100.45v10.49a1.17,1.17,0,0,0-1.16-1.18h-1.17v-8.14h1.17A1.16,1.16,0,0,0,378.6,100.45Z"/><path class="cls-3" d="M378.6,90v10.48a1.18,1.18,0,0,0-1.16-1.18h-1.17V91.14h1.17A1.16,1.16,0,0,0,378.6,90Z"/><path class="cls-3" d="M378.6,79.47V90a1.17,1.17,0,0,0-1.16-1.17h-1.17V80.64h1.17A1.16,1.16,0,0,0,378.6,79.47Z"/><path class="cls-3" d="M378.6,64.74V79.47a1.16,1.16,0,0,0-1.16-1.16h-1.17V65.92h-9.74V64.75a1.17,1.17,0,0,0-1.17-1.17h12.08A1.16,1.16,0,0,1,378.6,64.74Z"/><path class="cls-3" d="M377.44,78.31a1.17,1.17,0,0,1,0,2.33h-1.17V78.31Z"/><path class="cls-3" d="M377.44,88.8a1.17,1.17,0,0,1,0,2.34h-1.17V88.8Z"/><path class="cls-3" d="M377.44,99.27a1.18,1.18,0,0,1,1.16,1.18,1.16,1.16,0,0,1-1.16,1.17h-1.17V99.27Z"/><path class="cls-3" d="M377.44,109.76a1.18,1.18,0,0,1,0,2.35h-1.17v-2.35Z"/><path class="cls-3" d="M377.44,120.25a1.18,1.18,0,0,1,0,2.35h-1.17v-2.35Z"/><path class="cls-3" d="M377.44,131l.13,1.24-12.07,1.33-.14-1.23a1.16,1.16,0,0,0,1.17-1.16v-2.57l9.74-1.08v2.31A1.16,1.16,0,0,0,377.44,131Z"/><polygon class="cls-2" points="376.27 122.6 376.27 127.48 366.53 128.56 366.53 122.6 376.27 122.6"/><rect class="cls-3" x="366.53" y="120.25" width="9.74" height="2.34"/><rect class="cls-2" x="366.53" y="112.11" width="9.74" height="8.14"/><rect class="cls-3" x="366.53" y="109.76" width="9.74" height="2.34"/><rect class="cls-2" x="366.53" y="101.62" width="9.74" height="8.14"/><rect class="cls-3" x="366.53" y="99.27" width="9.74" height="2.34"/><rect class="cls-2" x="366.53" y="91.14" width="9.74" height="8.13"/><rect class="cls-3" x="366.53" y="88.8" width="9.74" height="2.34"/><rect class="cls-2" x="366.53" y="80.64" width="9.74" height="8.15"/><rect class="cls-3" x="366.53" y="78.31" width="9.74" height="2.34"/><rect class="cls-2" x="366.53" y="65.92" width="9.74" height="12.39"/><path class="cls-3" d="M366.53,128.56v2.57a1.17,1.17,0,0,1-2.34,0v-2.31Z"/><polygon class="cls-3" points="366.53 122.6 366.53 128.56 364.19 128.82 364.19 122.6 366.53 122.6"/><rect class="cls-3" x="364.19" y="120.25" width="2.34" height="2.34"/><rect class="cls-3" x="364.19" y="112.11" width="2.34" height="8.14"/><rect class="cls-3" x="364.19" y="109.76" width="2.34" height="2.34"/><rect class="cls-3" x="364.19" y="101.62" width="2.34" height="8.14"/><rect class="cls-3" x="364.19" y="99.27" width="2.34" height="2.34"/><rect class="cls-3" x="364.19" y="91.14" width="2.34" height="8.13"/><rect class="cls-3" x="364.19" y="88.8" width="2.34" height="2.34"/><rect class="cls-3" x="364.19" y="80.64" width="2.34" height="8.15"/><rect class="cls-3" x="364.19" y="78.31" width="2.34" height="2.34"/><rect class="cls-3" x="364.19" y="65.92" width="2.34" height="12.39"/><path class="cls-3" d="M366.53,64.75v1.17h-2.34V64.75a1.17,1.17,0,0,1,2.34,0Z"/><path class="cls-3" d="M365.36,132.29l.14,1.23-10.45,1.16-.14-1.24a1.17,1.17,0,0,0,.94-1.15v-2.55l8.34-.92v2.31A1.17,1.17,0,0,0,365.36,132.29Z"/><path class="cls-3" d="M365.36,63.57h0a1.17,1.17,0,0,0-1.17,1.17v1.17h-8.34V64.75a1.17,1.17,0,0,0-1.17-1.17h10.68Z"/><polygon class="cls-2" points="364.19 122.6 364.19 128.82 355.85 129.74 355.85 122.6 364.19 122.6"/><rect class="cls-3" x="355.85" y="120.25" width="8.34" height="2.34"/><rect class="cls-2" x="355.85" y="112.11" width="8.34" height="8.14"/><rect class="cls-3" x="355.85" y="109.76" width="8.34" height="2.34"/><rect class="cls-2" x="355.85" y="101.62" width="8.34" height="8.14"/><rect class="cls-3" x="355.85" y="99.27" width="8.34" height="2.34"/><rect class="cls-2" x="355.85" y="91.14" width="8.34" height="8.13"/><rect class="cls-3" x="355.85" y="88.8" width="8.34" height="2.34"/><rect class="cls-2" x="355.85" y="80.64" width="8.34" height="8.15"/><rect class="cls-3" x="355.85" y="78.31" width="8.34" height="2.34"/><rect class="cls-2" x="355.85" y="65.92" width="8.34" height="12.39"/><path class="cls-3" d="M362.11,175.36a.57.57,0,0,1,0,.13,5.22,5.22,0,0,1-5.21,5.21h-.12l.12-2.34a2.87,2.87,0,0,0,2.87-2.86Z"/><path class="cls-3" d="M362.11,175.36l-2.33.13a2.88,2.88,0,0,0-2.87-2.88l.13-2.33A5.19,5.19,0,0,1,362.11,175.36Z"/><path class="cls-3" d="M357,170.28l-.13,2.33a2.88,2.88,0,0,0-2.87,2.88l-2.33.12a.53.53,0,0,1,0-.12,5.21,5.21,0,0,1,5.21-5.21Z"/><path class="cls-3" d="M356.91,178.35l-.12,2.34a5.19,5.19,0,0,1-5.08-5.08l2.33-.12A2.87,2.87,0,0,0,356.91,178.35Z"/><path class="cls-3" d="M356.29,254.26a2.47,2.47,0,0,1,.08.6,2.41,2.41,0,0,1-.08.6Z"/><path class="cls-3" d="M356.29,254.26v1.2a2.4,2.4,0,0,1-2.33,1.81h-2.35v-4.82H354A2.4,2.4,0,0,1,356.29,254.26Z"/><path class="cls-3" d="M355.85,129.74v2.55a1.17,1.17,0,0,1-.94,1.15l-.23,0a1.17,1.17,0,0,1-1.17-1.17V130Z"/><polygon class="cls-3" points="355.85 122.6 355.85 129.74 353.51 130 353.51 122.6 355.85 122.6"/><rect class="cls-3" x="353.51" y="120.25" width="2.34" height="2.34"/><rect class="cls-3" x="353.51" y="112.11" width="2.34" height="8.14"/><rect class="cls-3" x="353.51" y="109.76" width="2.34" height="2.34"/><rect class="cls-3" x="353.51" y="101.62" width="2.34" height="8.14"/><rect class="cls-3" x="353.51" y="99.27" width="2.34" height="2.34"/><rect class="cls-3" x="353.51" y="91.14" width="2.34" height="8.13"/><rect class="cls-3" x="353.51" y="88.8" width="2.34" height="2.34"/><rect class="cls-3" x="353.51" y="80.64" width="2.34" height="8.15"/><rect class="cls-3" x="353.51" y="78.31" width="2.34" height="2.34"/><rect class="cls-3" x="353.51" y="65.92" width="2.34" height="12.39"/><path class="cls-3" d="M355.85,64.75v1.17h-2.34V64.75a1.17,1.17,0,1,1,2.34,0Z"/><path class="cls-3" d="M354.91,133.44l.14,1.24L344,135.9l-.13-1.22a1.17,1.17,0,0,0,.93-1.15V131l8.74-1v2.29a1.17,1.17,0,0,0,1.17,1.17Z"/><path class="cls-3" d="M354.68,63.57h0a1.17,1.17,0,0,0-1.17,1.17v1.17h-8.74V64.75a1.17,1.17,0,0,0-1.17-1.17h11.08Z"/><polygon class="cls-2" points="353.51 122.6 353.51 130 344.77 130.96 344.77 122.6 353.51 122.6"/><rect class="cls-3" x="344.77" y="120.25" width="8.74" height="2.34"/><rect class="cls-2" x="344.77" y="112.11" width="8.74" height="8.14"/><rect class="cls-3" x="344.77" y="109.76" width="8.74" height="2.34"/><rect class="cls-2" x="344.77" y="101.62" width="8.74" height="8.14"/><rect class="cls-3" x="344.77" y="99.27" width="8.74" height="2.34"/><rect class="cls-2" x="344.77" y="91.14" width="8.74" height="8.13"/><rect class="cls-3" x="344.77" y="88.8" width="8.74" height="2.34"/><rect class="cls-2" x="344.77" y="80.64" width="8.74" height="8.15"/><rect class="cls-3" x="344.77" y="78.31" width="8.74" height="2.34"/><rect class="cls-2" x="344.77" y="65.92" width="8.74" height="12.39"/><rect class="cls-3" x="308.77" y="252.45" width="42.84" height="4.82"/><path class="cls-3" d="M344.77,131v2.57a1.17,1.17,0,0,1-.93,1.15l-.24,0a1.17,1.17,0,0,1-1.17-1.17v-2.31Z"/><polygon class="cls-3" points="344.77 122.6 344.77 130.96 342.43 131.22 342.43 122.6 344.77 122.6"/><rect class="cls-3" x="342.43" y="120.25" width="2.34" height="2.34"/><rect class="cls-3" x="342.43" y="112.11" width="2.34" height="8.14"/><rect class="cls-3" x="342.43" y="109.76" width="2.34" height="2.34"/><rect class="cls-3" x="342.43" y="101.62" width="2.34" height="8.14"/><rect class="cls-3" x="342.43" y="99.27" width="2.34" height="2.34"/><rect class="cls-3" x="342.43" y="91.14" width="2.34" height="8.13"/><rect class="cls-3" x="342.43" y="88.8" width="2.34" height="2.34"/><rect class="cls-3" x="342.43" y="80.64" width="2.34" height="8.15"/><rect class="cls-3" x="342.43" y="78.31" width="2.34" height="2.34"/><rect class="cls-3" x="342.43" y="65.92" width="2.34" height="12.39"/><path class="cls-3" d="M344.77,64.75v1.17h-2.34V64.75a1.17,1.17,0,0,1,2.34,0Z"/><path class="cls-3" d="M343.84,134.68l.13,1.22-11.07,1.23-.13-1.24a1.16,1.16,0,0,0,.94-1.14v-2.56l8.72-1v2.31a1.17,1.17,0,0,0,1.17,1.17Z"/><path class="cls-3" d="M343.6,63.57h0a1.17,1.17,0,0,0-1.17,1.17v1.17h-8.72V64.75a1.17,1.17,0,0,0-1.17-1.17H343.6Z"/><polygon class="cls-2" points="342.43 122.6 342.43 131.22 333.71 132.19 333.71 122.6 342.43 122.6"/><rect class="cls-3" x="333.71" y="120.25" width="8.71" height="2.34"/><rect class="cls-2" x="333.71" y="112.11" width="8.71" height="8.14"/><rect class="cls-3" x="333.71" y="109.76" width="8.71" height="2.34"/><rect class="cls-2" x="333.71" y="101.62" width="8.71" height="8.14"/><rect class="cls-3" x="333.71" y="99.27" width="8.71" height="2.34"/><rect class="cls-2" x="333.71" y="91.14" width="8.71" height="8.13"/><rect class="cls-3" x="333.71" y="88.8" width="8.71" height="2.34"/><rect class="cls-2" x="333.71" y="80.64" width="8.71" height="8.15"/><rect class="cls-3" x="333.71" y="78.31" width="8.71" height="2.34"/><rect class="cls-2" x="333.71" y="65.92" width="8.71" height="12.39"/><path class="cls-3" d="M333.71,132.19v2.56a1.16,1.16,0,0,1-.94,1.14l-.23,0a1.16,1.16,0,0,1-1.17-1.16v-2.3Z"/><polygon class="cls-3" points="333.71 122.6 333.71 132.19 331.37 132.45 331.37 122.6 333.71 122.6"/><rect class="cls-3" x="331.37" y="120.25" width="2.34" height="2.34"/><rect class="cls-3" x="331.37" y="112.11" width="2.34" height="8.14"/><rect class="cls-3" x="331.37" y="109.76" width="2.34" height="2.34"/><rect class="cls-3" x="331.37" y="101.62" width="2.34" height="8.14"/><rect class="cls-3" x="331.37" y="99.27" width="2.34" height="2.34"/><rect class="cls-3" x="331.37" y="91.14" width="2.34" height="8.13"/><rect class="cls-3" x="331.37" y="88.8" width="2.34" height="2.34"/><rect class="cls-3" x="331.37" y="80.64" width="2.34" height="8.15"/><rect class="cls-3" x="331.37" y="78.31" width="2.34" height="2.34"/><rect class="cls-3" x="331.37" y="65.92" width="2.34" height="12.39"/><path class="cls-3" d="M333.71,64.75v1.17h-2.34V64.75a1.17,1.17,0,0,1,2.34,0Z"/><path class="cls-3" d="M332.77,135.89l.13,1.24-11.07,1.22-.14-1.22a1.18,1.18,0,0,0,.94-1.15v-2.57l8.74-1v2.3a1.16,1.16,0,0,0,1.17,1.16Z"/><path class="cls-3" d="M332.54,63.57h0a1.17,1.17,0,0,0-1.17,1.17v1.17h-8.74V64.75a1.17,1.17,0,0,0-1.17-1.17h11.08Z"/><polygon class="cls-2" points="331.37 122.6 331.37 132.45 322.63 133.41 322.63 122.6 331.37 122.6"/><rect class="cls-3" x="322.63" y="120.25" width="8.74" height="2.34"/><rect class="cls-2" x="322.63" y="112.11" width="8.74" height="8.14"/><rect class="cls-3" x="322.63" y="109.76" width="8.74" height="2.34"/><rect class="cls-2" x="322.63" y="101.62" width="8.74" height="8.14"/><rect class="cls-3" x="322.63" y="99.27" width="8.74" height="2.34"/><rect class="cls-2" x="322.63" y="91.14" width="8.74" height="8.13"/><rect class="cls-3" x="322.63" y="88.8" width="8.74" height="2.34"/><rect class="cls-2" x="322.63" y="80.64" width="8.74" height="8.15"/><rect class="cls-3" x="322.63" y="78.31" width="8.74" height="2.34"/><rect class="cls-2" x="322.63" y="65.92" width="8.74" height="12.39"/><path class="cls-3" d="M322.63,133.41V136a1.18,1.18,0,0,1-.94,1.15l-.23,0a1.17,1.17,0,0,1-1.18-1.17v-2.31Z"/><polygon class="cls-3" points="322.63 122.6 322.63 133.41 320.28 133.68 320.28 122.6 322.63 122.6"/><rect class="cls-3" x="320.28" y="120.25" width="2.34" height="2.34"/><rect class="cls-3" x="320.28" y="112.11" width="2.34" height="8.14"/><rect class="cls-3" x="320.28" y="109.76" width="2.34" height="2.34"/><rect class="cls-3" x="320.28" y="101.62" width="2.34" height="8.14"/><rect class="cls-3" x="320.28" y="99.27" width="2.34" height="2.34"/><rect class="cls-3" x="320.28" y="91.14" width="2.34" height="8.13"/><rect class="cls-3" x="320.28" y="88.8" width="2.34" height="2.34"/><rect class="cls-3" x="320.28" y="80.64" width="2.34" height="8.15"/><rect class="cls-3" x="320.28" y="78.31" width="2.34" height="2.34"/><rect class="cls-3" x="320.28" y="65.92" width="2.34" height="12.39"/><path class="cls-3" d="M322.63,64.75v1.17h-2.35V64.75a1.18,1.18,0,0,1,2.35,0Z"/><path class="cls-3" d="M321.69,137.13l.14,1.22-11.3,1.25-.14-1.24a1.17,1.17,0,0,0,1.17-1.17v-2.55l8.72-1V136a1.17,1.17,0,0,0,1.18,1.17Z"/><path class="cls-3" d="M321.46,63.57h0a1.17,1.17,0,0,0-1.18,1.17v1.17h-.64l-7.86,12.39h-.22a1.16,1.16,0,0,0-1.17-1.16,1.14,1.14,0,0,0-1,.51L318,64.12a1.18,1.18,0,0,1,1-.55Z"/><polygon class="cls-2" points="320.28 122.6 320.28 133.68 311.56 134.64 311.56 122.6 320.28 122.6"/><rect class="cls-3" x="311.56" y="120.25" width="8.72" height="2.34"/><rect class="cls-2" x="311.56" y="112.11" width="8.72" height="8.14"/><rect class="cls-3" x="311.56" y="109.76" width="8.72" height="2.34"/><rect class="cls-2" x="311.56" y="101.62" width="8.72" height="8.14"/><rect class="cls-3" x="311.56" y="99.27" width="8.72" height="2.34"/><rect class="cls-2" x="311.56" y="91.14" width="8.72" height="8.13"/><rect class="cls-3" x="311.56" y="88.8" width="8.72" height="2.34"/><rect class="cls-2" x="311.56" y="80.64" width="8.72" height="8.15"/><polygon class="cls-3" points="320.28 78.31 320.28 80.64 311.56 80.64 311.56 78.65 311.78 78.31 320.28 78.31"/><polygon class="cls-3" points="311.78 78.31 311.56 78.65 311.56 78.32 311.56 78.31 311.78 78.31"/><path class="cls-3" d="M311.56,134.64v2.55a1.17,1.17,0,1,1-2.34,0v-2.3Z"/><polygon class="cls-3" points="311.56 122.6 311.56 134.64 309.22 134.89 309.22 122.6 311.56 122.6"/><rect class="cls-3" x="309.22" y="120.25" width="2.34" height="2.34"/><rect class="cls-3" x="309.22" y="112.11" width="2.34" height="8.14"/><rect class="cls-3" x="309.22" y="109.76" width="2.34" height="2.34"/><rect class="cls-3" x="309.22" y="101.62" width="2.34" height="8.14"/><rect class="cls-3" x="309.22" y="99.27" width="2.34" height="2.34"/><rect class="cls-3" x="309.22" y="91.14" width="2.34" height="8.13"/><rect class="cls-3" x="309.22" y="88.8" width="2.34" height="2.34"/><polygon class="cls-3" points="311.56 80.64 311.56 88.8 309.22 88.8 309.22 82.34 310.3 80.64 311.56 80.64"/><polygon class="cls-3" points="311.56 78.65 311.56 80.64 310.3 80.64 311.56 78.65"/><path class="cls-3" d="M311.56,78.32v.33l-1.26,2h-.63a1.13,1.13,0,0,1-.45-.09V78.39a1.33,1.33,0,0,1,.45-.08h1.89Z"/><path class="cls-3" d="M311.56,78.31h-1.89a1.33,1.33,0,0,0-.45.08v-.07a1.15,1.15,0,0,1,.21-.66,1.14,1.14,0,0,1,1-.51A1.16,1.16,0,0,1,311.56,78.31Z"/><path class="cls-3" d="M310.39,138.36l.14,1.24L297.72,141l-.3-2.67a1.19,1.19,0,0,0,.94-1.12l0-1.14,10.83-1.2v2.3A1.17,1.17,0,0,0,310.39,138.36Z"/><path class="cls-3" d="M310.3,80.64l-1.08,1.7V80.55a1.13,1.13,0,0,0,.45.09Z"/><path class="cls-3" d="M302,89.32l7.4-11.66a1.15,1.15,0,0,0-.21.66v.07a1.17,1.17,0,0,0-.72,1.08,1.15,1.15,0,0,0,.72,1.08v1.79l-4.09,6.46H303a1.14,1.14,0,0,0-1,.52Z"/><polygon class="cls-2" points="309.22 122.6 309.22 134.89 298.39 136.09 298.79 122.6 309.22 122.6"/><polygon class="cls-3" points="309.22 120.25 309.22 122.6 298.79 122.6 298.86 120.25 309.22 120.25"/><polygon class="cls-2" points="309.22 112.11 309.22 120.25 298.86 120.25 299.1 112.11 309.22 112.11"/><polygon class="cls-3" points="309.22 109.76 309.22 112.11 299.1 112.11 299.18 109.76 309.22 109.76"/><polygon class="cls-2" points="309.22 101.62 309.22 109.76 299.18 109.76 299.42 101.62 309.22 101.62"/><polygon class="cls-3" points="309.22 99.28 309.22 101.62 299.42 101.62 299.49 99.28 309.22 99.28"/><polygon class="cls-2" points="309.22 91.14 309.22 99.28 299.49 99.28 299.54 97.62 303.65 91.14 309.22 91.14"/><polygon class="cls-3" points="309.22 88.8 309.22 91.14 303.65 91.14 305.13 88.8 309.22 88.8"/><polygon class="cls-2" points="309.22 82.34 309.22 88.8 305.13 88.8 309.22 82.34"/><path class="cls-3" d="M309.22,78.39v2.16a1.15,1.15,0,0,1-.72-1.08A1.17,1.17,0,0,1,309.22,78.39Z"/><path class="cls-3" d="M308.77,257.27v5.55a2.33,2.33,0,0,1-1.86,2.29l-4.06.85-1.54,8.58,2.17,1.78a2.33,2.33,0,0,1,.55,3l-6.47,11.32a2.33,2.33,0,0,1-2,1.19h-4.74l-5.56,5.92.12,3.9a2.37,2.37,0,0,1-1.09,2.05l-10.74,6.75a2.3,2.3,0,0,1-2.4.06l-4.84-2.72-7.7,2.56-1.36,3.54a2.32,2.32,0,0,1-2.18,1.49H242.38a2.33,2.33,0,0,1-1.87-.93L237,309.8l-6.92-1.63-3.86,2.12a2.33,2.33,0,0,1-2.35-.05l-11.22-6.83a2.34,2.34,0,0,1-1.12-2.23l.42-4.24-5.9-5.27-4.92-.45a2.37,2.37,0,0,1-1.77-1.09l-6.84-11a2.35,2.35,0,0,1-.31-1.65,2.4,2.4,0,0,1,.51-1.11l3.62-4.25-1.3-3.44,1.92-1.56,2.07,5.47-4.52,5.29,6.84,11,5.68.53,7.36,6.57-.52,5.42,11.22,6.83,4.65-2.56,8.62,2,4,5.3H255l1.76-4.57,9.72-3.24,5.76,3.24L283,301.69l-.14-4.87,6.92-7.36h5.74L302,278.13l-3.24-2.65L300.83,264l5.59-1.17v-5.55Z"/><rect class="cls-3" x="306.42" y="252.45" width="2.34" height="4.82"/><path class="cls-3" d="M308.77,247.65v4.8h-2.35v-4.8l-4.7-.88-3.1-9.71,3.1-5.46-6.33-10.74H289.2l-5.61-5.46v-6.5l-12.07-7.48-3.67,3.09-10.16-2.22-1.36-2.57H259l.28.52,8,1.74,2.8-2.35a2.33,2.33,0,0,1,2.74-.19l12.07,7.47a2.37,2.37,0,0,1,1.11,2v5.51l4.21,4.1h5.24a2.34,2.34,0,0,1,2,1.16l6.33,10.74a2.31,2.31,0,0,1,0,2.34l-2.58,4.57,2.35,7.4,3.34.64A2.32,2.32,0,0,1,308.77,247.65Z"/><path class="cls-3" d="M306.42,257.27v5.55L300.83,264l-2.07,11.49,3.24,2.65-6.47,11.33h-5.74l-6.92,7.36.14,4.87-10.73,6.76-5.76-3.24-9.72,3.24L255,313H242.38l-4-5.3-8.62-2-4.65,2.56-11.22-6.83.52-5.42-7.36-6.57-5.68-.53-6.84-11,4.52-5.29L197,267.16l.27-.23a1.32,1.32,0,0,0,.41-1.45l1-.4,2.53,6.73a2.35,2.35,0,0,1-.41,2.34l-3.4,4,5.32,8.52,4.53.41a2.34,2.34,0,0,1,1.34.59l7.36,6.57a2.34,2.34,0,0,1,.77,2l-.38,4,8.81,5.36,3.46-1.91a2.27,2.27,0,0,1,1.67-.23l8.62,2a2.47,2.47,0,0,1,1.33.88l3.28,4.36h9.88l1.19-3.06a2.32,2.32,0,0,1,1.44-1.38l9.73-3.25a2.38,2.38,0,0,1,1.88.19l4.54,2.55,8.42-5.3-.1-3.53a2.34,2.34,0,0,1,.63-1.67l6.92-7.37a2.36,2.36,0,0,1,1.71-.74h4.38l4.82-8.42-1.7-1.39a2.33,2.33,0,0,1-.83-2.23l2.06-11.48a2.36,2.36,0,0,1,1.83-1.89l3.74-.78v-4.71a2.41,2.41,0,0,0,2,1.06Z"/><path class="cls-3" d="M306.42,252.45v4.82h-.33a2.41,2.41,0,0,1-2-1.06v-2.7a2.41,2.41,0,0,1,2-1.06Z"/><path class="cls-3" d="M306.42,247.65v4.8h-.33a2.41,2.41,0,0,0-2,1.06v-3.92l-2.81-.53a2.32,2.32,0,0,1-1.79-1.59l-3.1-9.71a2.37,2.37,0,0,1,.19-1.86l2.43-4.28-5-8.43H289.2a2.36,2.36,0,0,1-1.64-.65l-5.6-5.47a2.35,2.35,0,0,1-.7-1.67v-5.2l-9.52-5.89-2.39,2a2.35,2.35,0,0,1-2,.49l-10.16-2.22a2.36,2.36,0,0,1-1.56-1.2l-1.49-2.8a2.41,2.41,0,0,0,.82-.86h1.38l1.36,2.57,10.16,2.22,3.67-3.09,12.07,7.48v6.5l5.61,5.46h6.19l6.33,10.74-3.1,5.46,3.1,9.71Z"/><path class="cls-3" d="M305.13,88.8l-1.48,2.34H303A1.17,1.17,0,0,1,301.84,90a1.19,1.19,0,0,1,.2-.65,1.14,1.14,0,0,1,1-.52Z"/><path class="cls-1" d="M304.09,256.21v4.71l-3.74.78a2.36,2.36,0,0,0-1.83,1.89l-2.06,11.48a2.33,2.33,0,0,0,.83,2.23l1.7,1.39-4.82,8.42h-4.38a2.36,2.36,0,0,0-1.71.74l-6.92,7.37a2.34,2.34,0,0,0-.63,1.67l.1,3.53-8.42,5.3-4.54-2.55a2.38,2.38,0,0,0-1.88-.19l-9.73,3.25a2.32,2.32,0,0,0-1.44,1.38l-1.19,3.06h-9.88l-3.28-4.36a2.47,2.47,0,0,0-1.33-.88l-8.62-2a2.27,2.27,0,0,0-1.67.23l-3.46,1.91-8.81-5.36.38-4a2.34,2.34,0,0,0-.77-2l-7.36-6.57a2.34,2.34,0,0,0-1.34-.59l-4.53-.41-5.32-8.52,3.4-4a2.35,2.35,0,0,0,.41-2.34l-2.53-6.73-1.21-3.2a2.37,2.37,0,0,0-1.45-1.4l-2.67-.9v-10L196.9,248a2.38,2.38,0,0,0,1.33-1.6l2.24-9.49a2.35,2.35,0,0,0-.29-1.77l-2.1-3.38,8.41-8.36,1.83.07a2.35,2.35,0,0,0,1.89-.86l6-7.29a2.31,2.31,0,0,0,.47-2v-.07l8.91-8.86,3.63,2.44a2.38,2.38,0,0,0,2.15.24l9.06-3.49a2.3,2.3,0,0,0,1.23-1.09l.82-1.55h10.36a2.28,2.28,0,0,0,1.29-.38l1.49,2.8a2.36,2.36,0,0,0,1.56,1.2l10.16,2.22a2.35,2.35,0,0,0,2-.49l2.39-2,9.52,5.89v5.2a2.35,2.35,0,0,0,.7,1.67l5.6,5.47a2.36,2.36,0,0,0,1.64.65h4.85l5,8.43-2.43,4.28a2.37,2.37,0,0,0-.19,1.86l3.1,9.71a2.32,2.32,0,0,0,1.79,1.59l2.81.53v3.92a2.42,2.42,0,0,0-.42,1.35A2.4,2.4,0,0,0,304.09,256.21Zm-10.31-1.36a45,45,0,1,0-45,45A45.06,45.06,0,0,0,293.78,254.85Z"/><path class="cls-2" d="M304.09,253.51v2.7a2.4,2.4,0,0,1-.42-1.35A2.42,2.42,0,0,1,304.09,253.51Z"/><path class="cls-3" d="M303.65,91.14l-4.11,6.48-.05,1.65h-1.11a1.18,1.18,0,0,0-1.17,1.18h-.1l.1-3.22a1.11,1.11,0,0,1,.18-.59L302,89.32h0a1.19,1.19,0,0,0-.2.65A1.17,1.17,0,0,0,303,91.14Z"/><path class="cls-3" d="M299.49,99.27l-.07,2.35h-1a1.17,1.17,0,0,1-1.17-1.17,1.18,1.18,0,0,1,1.17-1.18Z"/><path class="cls-3" d="M299.42,101.62l-.24,8.14h-.8a1.17,1.17,0,0,0-1.17,1.18h-.42l.32-10.48h.1a1.17,1.17,0,0,0,1.17,1.17Z"/><path class="cls-3" d="M299.18,109.76l-.08,2.35h-.72a1.18,1.18,0,0,1,0-2.35Z"/><path class="cls-3" d="M299.1,112.11l-.24,8.14h-.48a1.17,1.17,0,0,0-1.17,1.17l-.72,0,.3-10.47h.42a1.17,1.17,0,0,0,1.17,1.17Z"/><path class="cls-3" d="M298.86,120.25l-.07,2.35h-.41a1.18,1.18,0,0,1,0-2.35Z"/><path class="cls-3" d="M298.79,122.6l-.4,13.49-2.35.26.45-14.95.72,0a1.17,1.17,0,0,0,1.17,1.18Z"/><path class="cls-3" d="M296,136.35l2.35-.26,0,1.14a1.19,1.19,0,0,1-.94,1.12h-.27a1.17,1.17,0,0,1-1.14-1.2Z"/><path class="cls-3" d="M292.62,254.85A43.87,43.87,0,1,1,248.75,211,43.88,43.88,0,0,1,292.62,254.85Zm-1.17,0a42.7,42.7,0,1,0-42.7,42.7A42.74,42.74,0,0,0,291.45,254.85Z"/><path class="cls-3" d="M248.75,209.84a45,45,0,1,1-45,45A45.06,45.06,0,0,1,248.75,209.84Zm0,88.88a43.86,43.86,0,1,0-43.87-43.87A43.88,43.88,0,0,0,248.75,298.72Z"/><path class="cls-2" d="M248.75,212.17a42.69,42.69,0,1,1-42.7,42.68A42.74,42.74,0,0,1,248.75,212.17Zm16.61,42.68a16.62,16.62,0,1,0-16.61,16.63A16.62,16.62,0,0,0,265.36,254.85Z"/><path class="cls-3" d="M266.12,176.21l-.64,2.45-.45.06a1.18,1.18,0,0,1-1.32-1,1.15,1.15,0,0,1,0-.37,1.17,1.17,0,0,1,1-.95Z"/><path class="cls-3" d="M265.48,178.66l-2.13,8.21h-1.41a1.18,1.18,0,0,0-1.15.94l-.1,0,2.73-10.51.3.08a1.15,1.15,0,0,0,0,.37,1.18,1.18,0,0,0,1.32,1Z"/><path class="cls-3" d="M264.18,254.85a15.44,15.44,0,1,1-15.43-15.43A15.45,15.45,0,0,1,264.18,254.85Zm-1.17,0a14.27,14.27,0,1,0-14.26,14.28A14.28,14.28,0,0,0,263,254.85Z"/><path class="cls-3" d="M263.35,186.87l-.61,2.34h-.8a1.17,1.17,0,0,1-1.17-1.17,1.64,1.64,0,0,1,0-.23,1.18,1.18,0,0,1,1.15-.94Z"/><path class="cls-3" d="M262.74,189.21l-2.49,9.58a1.31,1.31,0,0,1-1.2.93H259l-1.23-2.34h.46l2.49-9.6.1,0a1.64,1.64,0,0,0,0,.23,1.17,1.17,0,0,0,1.17,1.17Z"/><path class="cls-3" d="M248.75,238.26a16.61,16.61,0,1,1-16.62,16.59A16.62,16.62,0,0,1,248.75,238.26Zm0,32a15.44,15.44,0,1,0-15.45-15.45A15.45,15.45,0,0,0,248.75,270.3Z"/><path class="cls-2" d="M248.75,240.59a14.27,14.27,0,1,1-14.28,14.26A14.28,14.28,0,0,1,248.75,240.59Z"/><polygon class="cls-3" points="257.74 197.38 258.97 199.72 256.32 199.72 255.09 197.38 257.74 197.38"/><path class="cls-3" d="M257.74,197.38h-2.65l-.36-.68h-.33a2.44,2.44,0,0,0-1.56-.56h-10.9c.13-.59.27-1.18.39-1.77h12.4a2.37,2.37,0,0,1,2.08,1.24Z"/><path class="cls-3" d="M255.09,197.38l1.24,2.34H255a2.34,2.34,0,0,0,.3-1.17,2.32,2.32,0,0,0-.3-1.17Z"/><path class="cls-3" d="M254.73,196.7l.36.68H255a2.42,2.42,0,0,0-.55-.68Z"/><path class="cls-3" d="M255,197.38a2.32,2.32,0,0,1,.3,1.17,2.34,2.34,0,0,1-.3,1.17h-1.27l-.36-.67h-1.53a1,1,0,0,1-.13-.5,1.18,1.18,0,0,1,1.18-1.17Z"/><path class="cls-3" d="M255,197.38h-2.11a1.18,1.18,0,0,0-1.18,1.17,1,1,0,0,0,.13.5h-8.3l-1,1.91h-2.65l2.24-4.26H254.4A2.42,2.42,0,0,1,255,197.38Z"/><path class="cls-3" d="M253.68,199.72H255a2.41,2.41,0,0,1-.82.86Z"/><path class="cls-3" d="M254.4,196.7H242.07L239.83,201H239a2.59,2.59,0,0,1-1.95-1,.33.33,0,0,1-.06-.1l.93-.36,2.08-3.94a2.32,2.32,0,0,1,2.06-1.24h.26c-.12.59-.26,1.18-.39,1.77h10.9A2.44,2.44,0,0,1,254.4,196.7Z"/><path class="cls-2" d="M253.68,199.72l.45.86a2.28,2.28,0,0,1-1.29.38H242.48l1-1.91h8.3a1.15,1.15,0,0,0,1.05.67Z"/><path class="cls-2" d="M253.68,199.72h-.84a1.15,1.15,0,0,1-1.05-.67h1.53Z"/><path class="cls-3" d="M239.59,201.42l.24-.46h2.65l-.82,1.55a2.3,2.3,0,0,1-1.23,1.09l-9.06,3.49a2.38,2.38,0,0,1-2.15-.24l-3.63-2.44,1.69-1.69,3.25,2.18Z"/><path class="cls-3" d="M239.83,201l-.24.46-9.06,3.48-3.25-2.18L229,201l1.85,1.24,6.18-2.37a.33.33,0,0,0,.06.1,2.59,2.59,0,0,0,1.95,1Z"/><path class="cls-3" d="M226.09,199.1,229,201l-1.69,1.68-2.5-1.68-6.13,3.45,5.8-5.76A2.27,2.27,0,0,1,226.09,199.1Z"/><path class="cls-3" d="M224.78,201l2.5,1.68-1.69,1.69-.92-.62L217,208.1l.62-.42a1.18,1.18,0,0,0,.3-1.62l-.35-.52,1.05-1Z"/><polygon class="cls-2" points="225.59 204.41 216.68 213.27 215.76 209 217.03 208.1 224.68 203.79 225.59 204.41"/><path class="cls-3" d="M224.45,198.73l-5.8,5.76-1.27.73-1.32-1.93,7.57-4.29A2.26,2.26,0,0,1,224.45,198.73Z"/><polygon class="cls-3" points="217.38 205.22 218.65 204.49 217.6 205.54 217.38 205.22"/><path class="cls-3" d="M218,206.06a1.18,1.18,0,0,1-.3,1.62l-.62.42-1.3.74,0,.16-2.09,1.46-.17-.83,4.1-4.09Z"/><polygon class="cls-3" points="217.6 205.54 213.5 209.63 213.14 207.97 215.36 206.42 215.33 206.37 217.38 205.22 217.6 205.54"/><polygon class="cls-3" points="217.38 205.22 215.33 206.37 214 204.43 216.06 203.29 217.38 205.22"/><polygon class="cls-2" points="215.73 208.84 217.03 208.1 215.76 209 215.73 208.84"/><path class="cls-3" d="M216.69,213.34a2.31,2.31,0,0,1-.47,2l-6,7.29a2.35,2.35,0,0,1-1.89.86l-1.83-.07,2.1-2.09,8.09-8Z"/><polygon class="cls-3" points="215.76 209 216.68 213.27 208.59 221.32 208.41 221.14 214.41 213.84 213.68 210.46 215.76 209"/><path class="cls-3" d="M216.06,203.29,214,204.43l-.07-.11a3.65,3.65,0,0,0-5.13-.91l-41.1,29.28-1.16-2.06,40.91-29.13a6,6,0,0,1,8.42,1.51Z"/><polygon class="cls-3" points="215.33 206.37 215.36 206.42 213.14 207.97 213.08 207.65 215.33 206.37"/><path class="cls-3" d="M215.33,206.37l-2.25,1.28.06.33-2.07,1.44-.28-1.28a2.33,2.33,0,0,1,1.14-2.53l2.07-1.18Z"/><polygon class="cls-3" points="213.68 210.46 214.41 213.84 208.41 221.14 202.16 220.91 204.43 218.65 207.34 218.75 211.89 213.22 211.6 211.9 213.68 210.46"/><path class="cls-2" d="M214,204.43l-2.07,1.18a2.33,2.33,0,0,0-1.14,2.53l.28,1.28-40.54,28.34-2.83-5.07,41.1-29.28a3.65,3.65,0,0,1,5.13.91Z"/><polygon class="cls-3" points="213.5 209.63 213.68 210.46 211.6 211.9 211.53 211.58 213.5 209.63"/><polygon class="cls-3" points="213.14 207.97 213.5 209.63 211.53 211.58 211.07 209.42 213.14 207.97"/><polygon class="cls-3" points="211.6 211.9 211.89 213.22 207.34 218.75 204.43 218.65 210.28 212.83 211.6 211.9"/><polygon class="cls-3" points="211.53 211.58 211.6 211.9 210.28 212.83 211.53 211.58"/><path class="cls-3" d="M211.07,209.42l.46,2.16-1.25,1.25-8.2,5.74h-.21a2.31,2.31,0,0,0-2.07,1.11l-.53.86-27.59,19.28-1.15-2.05Z"/><polygon class="cls-3" points="208.59 221.32 206.49 223.41 203.07 223.29 197.96 231.57 198.08 231.77 196.37 233.47 195.2 231.58 201.17 221.89 202.16 220.91 208.41 221.14 208.59 221.32"/><polygon class="cls-2" points="206.49 223.41 198.08 231.77 197.96 231.57 203.07 223.29 206.49 223.41"/><polygon class="cls-3" points="204.43 218.65 202.16 220.91 201.79 220.9 201.17 221.89 194.06 228.97 199.27 220.53 202.08 218.57 204.43 218.65"/><polygon class="cls-3" points="202.16 220.91 201.17 221.89 201.79 220.9 202.16 220.91"/><path class="cls-3" d="M202.08,218.57l-2.81,2,.53-.86a2.31,2.31,0,0,1,2.07-1.11Z"/><path class="cls-3" d="M201.17,221.89l-6,9.69,1.17,1.89-1.7,1.7-1.46-2.36a2.36,2.36,0,0,1,0-2.47l.85-1.37Z"/><path class="cls-3" d="M200.18,235.15a2.35,2.35,0,0,1,.29,1.77l-2.24,9.49a2.38,2.38,0,0,1-1.33,1.6l-3.51,1.56v10l2.67.9a2.37,2.37,0,0,1,1.45,1.4l1.21,3.2-1,.4a1.48,1.48,0,0,0-.23-.4,1.3,1.3,0,0,0-1.39-.42l-.74-2-4.26-1.44v-13.2l4.89-2.19,2.24-9.49-1.82-2.91,1.71-1.7Z"/><polygon class="cls-2" points="199.27 220.53 194.06 228.97 175.79 247.14 171.68 239.81 199.27 220.53"/><path class="cls-3" d="M196.37,233.47l1.82,2.91L196,245.87l-4.89,2.19v13.2l4.26,1.44.74,2a1.2,1.2,0,0,0-.46.24l-1.49,1.22-.59-1.56-3.22-1.08a2.36,2.36,0,0,1-1.59-2.22v-13.2a2.32,2.32,0,0,1,1.39-2.14l3.83-1.71,1.76-7.41-1-1.63Z"/><path class="cls-3" d="M197.68,265.48a1.32,1.32,0,0,1-.41,1.45l-.27.23-.94-2.5a1.3,1.3,0,0,1,1.39.42A1.48,1.48,0,0,1,197.68,265.48Z"/><path class="cls-3" d="M196.06,264.66l.94,2.5-1.92,1.56-1-2.6,1.49-1.22A1.2,1.2,0,0,1,196.06,264.66Z"/><path d="M194.11,266.12l1,2.6L190,272.86a9.83,9.83,0,0,0-.76-1.69l-.41-.74Z"/><path class="cls-3" d="M193.21,232.81l1.46,2.36-16.43,16.34,10.6,18.92-2.13,1.72a1.33,1.33,0,0,0-.31,1.66l-1.08.29a3.67,3.67,0,0,0-.27-.57L167,241.29l1.09-.6.1.15a1.17,1.17,0,0,0,1.63.29l1.88-1.32,4.11,7.33L194.06,229l-.85,1.37A2.36,2.36,0,0,0,193.21,232.81Z"/><path class="cls-3" d="M190,272.86a9.62,9.62,0,0,1-1.11,8.43,91.29,91.29,0,0,1-27.19,27.48l-.07.05a83.05,83.05,0,0,1-10,5.51,8.12,8.12,0,0,1-3.23.75c-1.87,0-3.76.07-5.67.07-24.35,0-51.76-3.53-83.55-10.75a4.87,4.87,0,0,1-2.36-8.21l69.06-68.47-7.71-19.09A8.39,8.39,0,0,1,122,198.1l13.07-6.92a8.39,8.39,0,0,1,11.19,3.3l20.27,36.15-2.08,1.48a1.16,1.16,0,0,0-.36,1.47l-1.09.61-20.94-37.35a3.55,3.55,0,0,0-4.73-1.4l-13.07,6.92a3.58,3.58,0,0,0-1.62,4.48l7.84,19.38.16.15a2.44,2.44,0,0,1,.7,2l30.15,74.77a86.56,86.56,0,0,0,23.37-24.47,5,5,0,0,0,.45-4.55l1.08-.29a.86.86,0,0,0,.13.2,1.34,1.34,0,0,0,1,.48,1.3,1.3,0,0,0,.83-.3ZM157.38,305.8l-29.54-73.23L60.22,299.62c33.92,7.77,62.72,11.23,88.06,10.64a3.4,3.4,0,0,0,1.32-.31A79.72,79.72,0,0,0,157.38,305.8Z"/><path class="cls-3" d="M190,272.86l-1.63,1.33a1.3,1.3,0,0,1-.83.3,1.34,1.34,0,0,1-1-.48.86.86,0,0,1-.13-.2,1.33,1.33,0,0,1,.31-1.66l2.13-1.72.41.74A9.83,9.83,0,0,1,190,272.86Z"/><path class="cls-2" d="M185.32,274.1a5,5,0,0,1-.45,4.55,86.56,86.56,0,0,1-23.37,24.47l-30.15-74.77a2.44,2.44,0,0,0-.7-2l-.16-.15-7.84-19.38a3.58,3.58,0,0,1,1.62-4.48l13.07-6.92a3.55,3.55,0,0,1,4.73,1.4L163,234.19l4,7.1,18.07,32.24A3.67,3.67,0,0,1,185.32,274.1Z"/><path class="cls-3" d="M171.68,239.81l-1.88,1.32a1.17,1.17,0,0,1-1.63-.29l-.1-.15a1.17,1.17,0,0,1,.39-1.48l2.07-1.45Z"/><path class="cls-3" d="M167.7,232.69l2.83,5.07-2.07,1.45a1.17,1.17,0,0,0-.39,1.48l-1.09.6-4-7.1,1.09-.61a.7.7,0,0,0,.09.17,1.17,1.17,0,0,0,1.63.27Z"/><path class="cls-3" d="M167.7,232.69,165.82,234a1.17,1.17,0,0,1-1.63-.27.7.7,0,0,1-.09-.17,1.16,1.16,0,0,1,.36-1.47l2.08-1.48Z"/><path class="cls-2" d="M127.84,232.57l29.54,73.23A79.72,79.72,0,0,1,149.6,310a3.4,3.4,0,0,1-1.32.31c-25.34.59-54.14-2.87-88.06-10.64Z"/></svg>