<svg width="14" height="26" viewBox="0 0 14 26" fill="none" xmlns="http://www.w3.org/2000/svg">
<path fill-rule="evenodd" clip-rule="evenodd" d="M13.2888 24.9121C13.2017 24.9994 13.0982 25.0686 12.9843 25.1159C12.8704 25.1632 12.7483 25.1875 12.625 25.1875C12.5017 25.1875 12.3796 25.1632 12.2657 25.1159C12.1518 25.0686 12.0483 24.9994 11.9613 24.9121L0.711254 13.6621C0.623948 13.575 0.554682 13.4715 0.50742 13.3576C0.460157 13.2437 0.435829 13.1216 0.435829 12.9983C0.435829 12.875 0.460158 12.7529 0.50742 12.639C0.554682 12.5251 0.623948 12.4217 0.711254 12.3346L11.9613 1.08458C12.1373 0.908539 12.3761 0.809643 12.625 0.809643C12.874 0.809643 13.1127 0.908539 13.2888 1.08458C13.4648 1.26061 13.5637 1.49937 13.5637 1.74833C13.5637 1.99728 13.4648 2.23604 13.2888 2.41208L2.70063 12.9983L13.2888 23.5846C13.3761 23.6717 13.4453 23.7751 13.4926 23.889C13.5399 24.0029 13.5642 24.125 13.5642 24.2483C13.5642 24.3716 13.5399 24.4937 13.4926 24.6076C13.4453 24.7215 13.3761 24.825 13.2888 24.9121Z" fill="black"/>
</svg>
