<svg width="14" height="26" viewBox="0 0 14 26" fill="none" xmlns="http://www.w3.org/2000/svg">
<path fill-rule="evenodd" clip-rule="evenodd" d="M0.293712 25.7062C0.38658 25.7994 0.496903 25.8732 0.618362 25.9236C0.739821 25.9741 0.87003 26 1.00153 26C1.13303 26 1.26324 25.9741 1.3847 25.9236C1.50616 25.8732 1.61648 25.7994 1.70935 25.7062L13.7063 13.7077C13.7994 13.6148 13.8733 13.5044 13.9237 13.383C13.9741 13.2615 14 13.1313 14 12.9997C14 12.8682 13.9741 12.738 13.9237 12.6165C13.8733 12.495 13.7994 12.3847 13.7063 12.2918L1.70935 0.293227C1.52163 0.105476 1.26702 -1.08138e-06 1.00153 -1.10459e-06C0.73605 -1.1278e-06 0.48144 0.105476 0.293714 0.293227C0.105989 0.480978 0.000525642 0.735624 0.000525619 1.00114C0.000525596 1.26666 0.105989 1.52131 0.293714 1.70906L11.5848 12.9997L0.293712 24.2904C0.200609 24.3833 0.126742 24.4936 0.0763423 24.6151C0.0259422 24.7366 9.90666e-08 24.8668 8.75688e-08 24.9983C7.6071e-08 25.1298 0.0259422 25.2601 0.0763422 25.3816C0.126742 25.503 0.200609 25.6134 0.293712 25.7062V25.7062Z" fill="black"/>
</svg>
