<svg width="25" height="24" viewBox="0 0 25 24" fill="none" xmlns="http://www.w3.org/2000/svg">
<g clip-path="url(#clip0)">
<path d="M13.5343 6.99983C13.6662 6.99907 13.7971 7.02429 13.9193 7.07406C14.0415 7.12382 14.1526 7.19715 14.2463 7.28983C14.3403 7.38279 14.4149 7.49339 14.4658 7.61525C14.5168 7.73711 14.543 7.86782 14.543 7.99983C14.543 8.13184 14.5168 8.26254 14.4658 8.3844C14.4149 8.50626 14.3403 8.61687 14.2463 8.70983L10.9267 11.9998L14.1159 15.3098C14.3027 15.4972 14.4076 15.7506 14.4076 16.0148C14.4076 16.279 14.3027 16.5325 14.1159 16.7198C14.0227 16.8136 13.9118 16.8879 13.7896 16.9387C13.6674 16.9895 13.5363 17.0156 13.4039 17.0156C13.2715 17.0156 13.1404 16.9895 13.0182 16.9387C12.896 16.8879 12.7851 16.8136 12.6918 16.7198L8.82066 12.7198C8.63691 12.5329 8.53398 12.2816 8.53398 12.0198C8.53398 11.7581 8.63691 11.5068 8.82066 11.3198L12.8322 7.31983C12.9223 7.22289 13.0306 7.14471 13.1511 7.08978C13.2716 7.03486 13.4018 7.00428 13.5343 6.99983Z" fill="#F5F7FA"/>
</g>
<defs>
<clipPath id="clip0">
<rect width="24.0694" height="24" fill="white" transform="translate(24.0703 24) rotate(-180)"/>
</clipPath>
</defs>
</svg>
