<svg width="25" height="24" viewBox="0 0 25 24" fill="none" xmlns="http://www.w3.org/2000/svg">
<path d="M10.5361 17.0002C10.4041 17.0009 10.2732 16.9757 10.151 16.9259C10.0288 16.8762 9.91771 16.8029 9.824 16.7102C9.73 16.6172 9.65539 16.5066 9.60447 16.3847C9.55356 16.2629 9.52734 16.1322 9.52734 16.0002C9.52734 15.8682 9.55356 15.7375 9.60447 15.6156C9.65539 15.4937 9.73 15.3831 9.824 15.2902L13.1436 12.0002L9.95437 8.69017C9.76758 8.50281 9.66274 8.24936 9.66274 7.98517C9.66274 7.72099 9.76758 7.46754 9.95437 7.28017C10.0476 7.18644 10.1585 7.11205 10.2807 7.06128C10.403 7.01051 10.534 6.98438 10.6664 6.98438C10.7988 6.98438 10.9299 7.01051 11.0521 7.06128C11.1743 7.11205 11.2853 7.18644 11.3785 7.28017L15.2496 11.2802C15.4334 11.4671 15.5363 11.7184 15.5363 11.9802C15.5363 12.2419 15.4334 12.4932 15.2496 12.6802L11.2381 16.6802C11.1481 16.7771 11.0397 16.8553 10.9192 16.9102C10.7987 16.9651 10.6685 16.9957 10.5361 17.0002Z" fill="#F5F7FA"/>
</svg>
