<svg width="60" height="60" viewBox="0 0 60 60" fill="none" xmlns="http://www.w3.org/2000/svg">
<g clip-path="url(#clip0)">
<path d="M54 44.5C51.9839 44.5059 50.1055 45.524 49 47.21V42.5C50.1046 42.5 51 41.6046 51 40.5V36.5C51.0018 36.3829 50.9779 36.2668 50.93 36.16C50.93 36.16 50.93 36.16 50.93 36.1C50.91 36.0386 50.8796 35.9811 50.84 35.93C48.7521 33.1475 45.4787 31.5071 42 31.5H34C32.3431 31.5 31 32.8431 31 34.5V38.18C26.59 34.85 19 28.86 13 24.04V18.5C13 17.9477 12.5523 17.5 12 17.5C11.4477 17.5 11 17.9477 11 18.5V22.44L5.87 18.33C5.95367 18.0612 5.99747 17.7815 6 17.5V12.5C6 10.8431 4.65685 9.5 3 9.5C1.34315 9.5 2e-08 10.8431 0 12.5V17.5C0 19.1569 1.34315 20.5 3 20.5C3.61172 20.4986 4.20839 20.3101 4.71 19.96C10.21 24.39 25.11 36.32 31.02 40.69C31.1175 41.7121 31.9732 42.4944 33 42.5V43.63L30.91 43.13C29.4098 41.4732 27.285 40.5196 25.05 40.5L5.84 25.66L1.76 22.5C1.3234 22.1642 0.697457 22.2447 0.36 22.68C0.192358 22.8909 0.116937 23.1606 0.150821 23.4279C0.184705 23.6952 0.325027 23.9376 0.54 24.1L3.54 26.37C1.37 28.29 1.1 31.5 1 33.35C0.52 38.5 1.34 42.87 3.41 46.21C7 52 13.65 53.39 18.79 53.5C21.1994 56.5359 25.4519 57.3822 28.84 55.5H50.73C51.6976 56.1483 52.8353 56.4962 54 56.5C57.3137 56.5 60 53.8137 60 50.5C60 47.1863 57.3137 44.5 54 44.5ZM2 17.5V12.5C2 11.9477 2.44772 11.5 3 11.5C3.55228 11.5 4 11.9477 4 12.5V17.5C4 18.0523 3.55228 18.5 3 18.5C2.44772 18.5 2 18.0523 2 17.5ZM47.77 49.17L48.14 49.26C48.0534 49.6678 48.0065 50.0831 48 50.5C48.0019 51.5538 48.2812 52.5885 48.81 53.5H31.22C33.0598 51.257 33.5242 48.1868 32.43 45.5C36.11 46.43 43.27 48.13 47.77 49.17ZM49 40.5H33V37.5H49V40.5ZM33 34.5C33 33.9477 33.4477 33.5 34 33.5H42C44.0565 33.5016 46.0505 34.2074 47.65 35.5H33V34.5ZM35 42.5H47V46.94C43.33 46.09 38.48 44.94 35 44.11V42.5ZM5.11 45.16C3.28 42.16 2.54 38.27 2.94 33.51C3.13 31.28 3.48 28.84 5.12 27.64L22.36 40.95C19.1505 42.072 17.0008 45.1 17 48.5C17.0032 49.5285 17.2035 50.5469 17.59 51.5C13.17 51.16 8 49.75 5.11 45.16ZM20.11 51.95L20.03 51.85C18.8163 50.0514 18.6682 47.7377 19.6427 45.799C20.6172 43.8604 22.5625 42.5989 24.73 42.5C24.8197 42.5099 24.9103 42.5099 25 42.5C27.8459 42.4958 30.3032 44.4913 30.883 47.2775C31.4629 50.0636 30.0058 52.8738 27.3945 54.0053C24.7833 55.1369 21.7364 54.2783 20.1 51.95H20.11ZM54 54.5C51.7909 54.5 50 52.7091 50 50.5C50 48.2909 51.7909 46.5 54 46.5C56.2091 46.5 58 48.2909 58 50.5C58 52.7091 56.2091 54.5 54 54.5Z" fill="#3F2355"/>
<path d="M13.2899 46.6497C11.604 46.1351 10.1102 45.1288 8.99991 43.7597C6.99991 41.1597 6.73991 37.3097 6.87991 34.5497C6.91029 33.9974 6.48719 33.5251 5.93491 33.4947C5.38262 33.4643 4.91029 33.8874 4.87991 34.4397C4.71991 37.5497 5.02991 41.8897 7.40991 44.9797C8.77074 46.6446 10.594 47.8694 12.6499 48.4997C12.7518 48.5397 12.8604 48.56 12.9699 48.5597C13.5222 48.6481 14.0415 48.272 14.1299 47.7197C14.2183 47.1674 13.8422 46.6481 13.2899 46.5597V46.6497Z" fill="#3F2355"/>
<path d="M25 45.5C23.3431 45.5 22 46.8431 22 48.5C22 50.1568 23.3431 51.5 25 51.5C26.6568 51.5 28 50.1568 28 48.5C28 46.8431 26.6568 45.5 25 45.5ZM25 49.5C24.4477 49.5 24 49.0523 24 48.5C24 47.9477 24.4477 47.5 25 47.5C25.5523 47.5 26 47.9477 26 48.5C26 49.0523 25.5523 49.5 25 49.5Z" fill="#3F2355"/>
<path d="M54 51.5C54.5523 51.5 55 51.0523 55 50.5C55 49.9477 54.5523 49.5 54 49.5C53.4477 49.5 53 49.9477 53 50.5C53 51.0523 53.4477 51.5 54 51.5Z" fill="#3F2355"/>
<path d="M22 5.5H23C23.5523 5.5 24 5.05229 24 4.5C24 3.94772 23.5523 3.5 23 3.5H22C21.4477 3.5 21 3.94772 21 4.5C21 5.05229 21.4477 5.5 22 5.5Z" fill="#FB5100"/>
<path d="M38.2501 13.0401C38.4388 13.2788 38.7258 13.4187 39.0301 13.4201C39.2603 13.4182 39.4829 13.337 39.6601 13.1901C40.0827 12.8407 40.1452 12.2162 39.8001 11.7901C39.3501 11.2301 38.8701 10.6901 38.3901 10.1801C38.2024 9.99076 37.9468 9.88428 37.6801 9.88428C37.4135 9.88428 37.1579 9.99076 36.9701 10.1801C36.7808 10.3678 36.6743 10.6234 36.6743 10.8901C36.6743 11.1567 36.7808 11.4123 36.9701 11.6001C37.4001 12.0401 37.8301 12.5001 38.2501 13.0401Z" fill="#FB5100"/>
<path d="M42.7804 21.7503C42.9704 22.3803 43.1404 23.0303 43.2904 23.6703C43.3992 24.1315 43.8168 24.453 44.2904 24.4403H44.5204C45.0551 24.3118 45.3856 23.7757 45.2604 23.2403C45.1004 22.5603 44.9204 21.8703 44.7104 21.2403C44.6247 20.8782 44.3449 20.5936 43.9843 20.5017C43.6237 20.4098 43.2418 20.5257 42.9932 20.8027C42.7446 21.0796 42.6703 21.4716 42.8004 21.8203L42.7804 21.7503Z" fill="#FB5100"/>
<path d="M41.36 18.06C41.5254 18.4073 41.8753 18.6289 42.26 18.63C42.408 18.6301 42.5544 18.5994 42.69 18.54C43.1897 18.3052 43.4046 17.7098 43.17 17.21C42.87 16.56 42.54 15.93 42.17 15.32C41.8939 14.8395 41.2805 14.6739 40.8 14.95C40.3195 15.2262 40.1539 15.8395 40.43 16.32C40.77 16.87 41.08 17.5 41.36 18.06Z" fill="#FB5100"/>
<path d="M26.8497 5.99984C27.4897 6.12984 28.1197 6.29984 28.7397 6.48984C28.8256 6.50449 28.913 6.50785 28.9997 6.49984C29.435 6.49813 29.8191 6.21506 29.9497 5.79984C30.0313 5.54657 30.0086 5.27122 29.8866 5.03474C29.7646 4.79827 29.5534 4.62016 29.2997 4.53985C28.6197 4.32985 27.9297 4.14985 27.2197 3.99985C26.6816 3.88878 26.1547 4.2326 26.0397 4.76985C25.9717 5.04137 26.0207 5.32896 26.1746 5.56273C26.3285 5.7965 26.5734 5.95504 26.8497 5.99984Z" fill="#FB5100"/>
<path d="M32.3197 8.02033C32.8897 8.34033 33.4397 8.68033 33.9797 9.02033C34.1469 9.13704 34.3458 9.19985 34.5497 9.20033C34.986 9.1993 35.3712 8.91555 35.5016 8.4992C35.632 8.08286 35.4774 7.63004 35.1197 7.38033C34.5297 6.97033 33.9097 6.59033 33.2897 6.24033C33.0576 6.11158 32.7839 6.08034 32.5289 6.15349C32.2738 6.22664 32.0582 6.39818 31.9297 6.63033C31.7912 6.86506 31.7546 7.14613 31.8282 7.40851C31.9018 7.6709 32.0793 7.89188 32.3197 8.02033Z" fill="#FB5100"/>
<path d="M43.9396 27.5896V28.0596V28.5596C43.9551 28.825 44.0755 29.0733 44.2744 29.2497C44.4733 29.4261 44.7343 29.516 44.9996 29.4996H45.0596C45.3269 29.4842 45.5768 29.3623 45.7535 29.1612C45.9301 28.9601 46.0188 28.6966 45.9996 28.4296V27.9396C45.9996 27.7896 45.9996 27.6096 45.9996 27.4196C45.9808 27.1383 45.8441 26.878 45.6232 26.7028C45.4024 26.5277 45.1178 26.4538 44.8396 26.4996C44.2902 26.5523 43.8874 27.0401 43.9396 27.5896Z" fill="#FB5100"/>
<path d="M20 9.5H21C21.5523 9.51381 22.0112 9.07728 22.025 8.525C22.0388 7.97272 21.6023 7.51381 21.05 7.5H20C19.4477 7.5 19 7.94771 19 8.5C19 9.05228 19.4477 9.5 20 9.5Z" fill="#FB5100"/>
<path d="M29.7402 11.12C29.435 11.5738 29.5508 12.1885 30.0002 12.5C30.5235 12.8731 31.0213 13.2806 31.4902 13.72C31.6761 13.8891 31.9189 13.9819 32.1702 13.98C32.4474 13.9792 32.7117 13.8633 32.9002 13.66C33.2879 13.27 33.2879 12.6401 32.9002 12.25C32.3708 11.757 31.8096 11.2994 31.2202 10.88C30.9984 10.6982 30.7092 10.6203 30.4261 10.6662C30.1429 10.7121 29.8931 10.8774 29.7402 11.12Z" fill="#FB5100"/>
<path d="M38.4396 24.4402C38.9679 24.2941 39.2801 23.75 39.1396 23.2202C38.9596 22.5302 38.7396 21.8502 38.5096 21.2202C38.3219 20.6983 37.7465 20.4275 37.2246 20.6152C36.7027 20.803 36.4319 21.3783 36.6196 21.9002C36.8396 22.5102 37.0396 23.1402 37.2096 23.7702C37.3303 24.2195 37.7448 24.5262 38.2096 24.5102C38.2893 24.4983 38.3668 24.4748 38.4396 24.4402Z" fill="#FB5100"/>
<path d="M24.7802 10.0902C25.4017 10.2491 26.0129 10.4461 26.6102 10.6802C26.7276 10.7282 26.8534 10.752 26.9802 10.7502C27.4589 10.7466 27.868 10.4042 27.9558 9.93356C28.0436 9.46293 27.7855 8.9961 27.3402 8.82017C26.6697 8.55948 25.9853 8.33581 25.2902 8.15017C24.9437 8.05907 24.5748 8.15976 24.3227 8.41433C24.0705 8.6689 23.9733 9.03866 24.0677 9.38433C24.162 9.73 24.4337 9.99907 24.7802 10.0902Z" fill="#FB5100"/>
<path d="M34.2198 15.2602C33.7777 15.5848 33.6795 16.205 33.9998 16.6502C34.3698 17.1702 34.7098 17.7302 34.9998 18.3002C35.1766 18.6147 35.509 18.8096 35.8698 18.8102C36.0404 18.8099 36.2084 18.7687 36.3598 18.6902C36.5929 18.56 36.7643 18.3419 36.8357 18.0845C36.907 17.8272 36.8725 17.552 36.7398 17.3202C36.3898 16.6902 35.9998 16.0802 35.6098 15.5102C35.2945 15.058 34.6728 14.9462 34.2198 15.2602Z" fill="#FB5100"/>
<path d="M38.9999 29.5002H39.0499C39.5826 29.4735 40.0006 29.0335 39.9999 28.5002C39.9999 28.1702 39.9999 27.8202 39.9199 27.5002C39.8947 27.2344 39.7643 26.9898 39.5577 26.8208C39.3511 26.6517 39.0854 26.5723 38.8199 26.6002C38.2746 26.658 37.8775 27.1443 37.9299 27.6902C37.9299 28.0202 37.9799 28.3402 37.9999 28.6402C38.0702 29.1372 38.498 29.5051 38.9999 29.5002Z" fill="#FB5100"/>
<path d="M33 29.4999H33.06C33.3273 29.4845 33.5772 29.3626 33.7538 29.1615C33.9305 28.9604 34.0192 28.6969 34 28.4299C34 28.4299 34 28.0399 33.88 27.3699C33.8027 26.8176 33.2923 26.4326 32.74 26.5099C32.1877 26.5872 31.8027 27.0976 31.88 27.6499C31.96 28.1999 31.98 28.5399 31.98 28.5599C32.0121 29.0964 32.4626 29.5116 33 29.4999Z" fill="#FB5100"/>
<path d="M23.3098 12.3502C22.7878 12.1679 22.217 12.4433 22.0348 12.9652C21.8525 13.4871 22.1278 14.0579 22.6498 14.2402C23.2401 14.4409 23.8122 14.6919 24.3598 14.9902C24.8459 15.2484 25.4493 15.0651 25.7098 14.5802C25.9695 14.0967 25.791 13.4941 25.3098 13.2302C24.6674 12.8844 23.9987 12.5901 23.3098 12.3502Z" fill="#FB5100"/>
<path d="M28.7601 15.8802C28.5136 15.6212 28.1476 15.5134 27.8 15.5974C27.4524 15.6813 27.1761 15.9444 27.075 16.2874C26.9739 16.6303 27.0635 17.0012 27.3101 17.2602C27.7441 17.7144 28.1451 18.1989 28.5101 18.7102C28.6967 18.9724 28.9982 19.1287 29.3201 19.1302C29.5313 19.1271 29.7367 19.0609 29.9101 18.9402C30.1254 18.7841 30.2696 18.5486 30.3109 18.2859C30.3522 18.0232 30.2871 17.7549 30.1301 17.5402C29.7114 16.9566 29.2537 16.402 28.7601 15.8802Z" fill="#FB5100"/>
<path d="M30.9996 23.8699C31.139 24.2993 31.5488 24.582 31.9996 24.5599C32.0987 24.5791 32.2006 24.5791 32.2996 24.5599C32.8229 24.3925 33.1131 23.8344 32.9497 23.3099C32.7297 22.6199 32.4797 21.9599 32.2197 21.3099C32.0043 20.7991 31.4155 20.5595 30.9046 20.7749C30.3938 20.9903 30.1543 21.5791 30.3696 22.0899C30.6096 22.6299 30.8296 23.2399 30.9996 23.8699Z" fill="#FB5100"/>
<path d="M18 13.5H18.94H19C19.5523 13.5166 20.0134 13.0823 20.03 12.53C20.0466 11.9777 19.6123 11.5166 19.06 11.5C18.71 11.5 18.36 11.5 18 11.5C17.4477 11.5 17 11.9477 17 12.5C17 13.0523 17.4477 13.5 18 13.5Z" fill="#FB5100"/>
</g>
<defs>
<clipPath id="clip0">
<rect width="60" height="60" fill="white"/>
</clipPath>
</defs>
</svg>
