<svg width="74" height="56" viewBox="0 0 74 56" fill="none" xmlns="http://www.w3.org/2000/svg">
<path d="M72.4626 35.9388C72.4638 37.0757 72.241 38.2016 71.8068 39.2524C71.3727 40.3031 70.7358 41.258 69.9325 42.0624C69.1291 42.8669 68.1752 43.5052 67.1251 43.9408C66.075 44.3764 64.9493 44.6008 63.8124 44.6012H53.7876C54.2019 44.0579 54.5801 43.4879 54.9199 42.8951L55.0211 42.7172V27.0493H72.4657L72.4626 35.9388Z" fill="white"/>
<path d="M72.4597 26.7363H55.0151V27.0432H72.4597V26.7363Z" fill="#644E77"/>
<path d="M72.4567 26.7331L55.0153 26.7423L55.0122 26.4355L72.4567 26.4263V26.5091V26.7331Z" fill="#644E77"/>
<path d="M72.4598 26.3557V26.4263H55.0122V24.8583L70.8948 24.7847C71.3094 24.7847 71.7069 24.9491 72.0003 25.2419C72.2937 25.5348 72.459 25.932 72.4598 26.3465V26.3557Z" fill="#DEDFE0"/>
<path d="M72.8676 24.3826C73.3557 24.8668 73.6457 25.5157 73.6808 26.2023H73.2174C73.18 25.6126 72.9192 25.0594 72.4882 24.6552C72.0573 24.2511 71.4885 24.0263 70.8976 24.0267L55.0181 24.0973V23.637L70.8976 23.5664C71.2637 23.5651 71.6264 23.6366 71.9646 23.7767C72.3028 23.9169 72.6098 24.1228 72.8676 24.3826Z" fill="#644E77"/>
<path d="M72.1069 25.1408C72.3935 25.4244 72.5697 25.8008 72.604 26.2025H72.4598V26.3559C72.459 25.9414 72.2937 25.5442 72.0003 25.2513C71.7069 24.9585 71.3094 24.7941 70.8948 24.7941L55.0122 24.8677V24.7112L70.8948 24.6406C71.1199 24.6399 71.3428 24.6838 71.5508 24.7696C71.7589 24.8555 71.9478 24.9816 72.1069 25.1408Z" fill="#644E77"/>
<path d="M70.8978 24.6402L55.0151 24.7108V24.5574L70.8947 24.4868C71.3647 24.4859 71.8177 24.6619 72.1639 24.9797C72.5101 25.2974 72.7241 25.7338 72.7634 26.2021H72.6069C72.5686 25.7753 72.3719 25.3784 72.0556 25.0893C71.7393 24.8003 71.3263 24.6401 70.8978 24.6402Z" fill="#644E77"/>
<path d="M72.2174 25.0329C72.0433 24.859 71.8365 24.7213 71.609 24.6276C71.3816 24.5338 71.1378 24.486 70.8918 24.4867L55.0122 24.5572V24.097L70.8979 24.0264C71.4898 24.0244 72.0601 24.2485 72.4924 24.6528C72.9247 25.0571 73.1863 25.6112 73.2238 26.202H72.7666C72.7286 25.7593 72.5338 25.3447 72.2174 25.0329Z" fill="#644E77"/>
<path d="M72.8676 24.3823C72.6098 24.1225 72.3028 23.9165 71.9646 23.7764C71.6264 23.6362 71.2637 23.5648 70.8976 23.5661L55.0181 23.6366V23.4832L70.8976 23.4126C71.2845 23.4106 71.668 23.4855 72.0257 23.633C72.3834 23.7805 72.7082 23.9976 72.9812 24.2718C73.499 24.7853 73.8064 25.4736 73.8434 26.2019H73.6869C73.6502 25.5145 73.358 24.8655 72.8676 24.3823Z" fill="#644E77"/>
<path d="M70.8978 23.4132L55.0182 23.4838V23.358H54.3462L70.8978 23.2598C71.6936 23.2587 72.4595 23.5636 73.0369 24.1113C73.6143 24.659 73.9591 25.4077 74 26.2025H73.8466C73.8096 25.4742 73.5021 24.7859 72.9844 24.2724C72.7114 23.9982 72.3866 23.781 72.0289 23.6335C71.6712 23.486 71.2877 23.4111 70.9008 23.4132H70.8978Z" fill="#644E77"/>
<path d="M69.0566 0.178104C69.1718 0.292667 69.2369 0.448264 69.2376 0.610765C69.2376 0.77353 69.173 0.929627 69.0579 1.04472C68.9428 1.15981 68.7867 1.22447 68.6239 1.22447H65.2486L53.2629 23.3577C52.8395 23.3761 52.4129 23.416 51.9864 23.4712L51.79 23.5019L64.5152 0.000130044H68.6116C68.694 -0.00156463 68.7758 0.013319 68.8522 0.0438944C68.9286 0.0744698 68.9981 0.120112 69.0566 0.178104Z" fill="#644E77"/>
<path d="M63.8126 45.9755C66.4736 45.9738 69.025 44.9156 70.906 43.0335C72.787 41.1513 73.8436 38.5993 73.8436 35.9383V26.5088H73.997V35.9383C73.9983 37.2767 73.7357 38.6022 73.2245 39.839C72.7133 41.0759 71.9633 42.1999 71.0175 43.1468C70.0718 44.0938 68.9487 44.8451 67.7124 45.3578C66.4762 45.8705 65.151 46.1346 63.8126 46.135H52.4775L52.6095 45.9969L52.6248 45.9816L63.8126 45.9755Z" fill="#644E77"/>
<path d="M63.8128 45.822C66.4331 45.8204 68.9454 44.7784 70.7977 42.925C72.6499 41.0716 73.6904 38.5586 73.6904 35.9383V26.5088H73.8438V35.9383C73.8446 37.2564 73.5858 38.5618 73.0821 39.7798C72.5784 40.9979 71.8398 42.1048 70.9083 43.0375C69.9769 43.9701 68.8708 44.7101 67.6534 45.2152C66.4359 45.7204 65.1309 45.9808 63.8128 45.9816H52.625L52.7109 45.8865C52.7299 45.8685 52.7473 45.849 52.7631 45.8282L63.8128 45.822Z" fill="#644E77"/>
<path d="M70.7998 42.9223C69.8847 43.8436 68.7961 44.5743 67.5967 45.072C66.3974 45.5698 65.1113 45.8247 63.8128 45.822H52.7661C53.0392 45.5152 53.3 45.2083 53.5517 44.9015H63.8158C66.1914 44.899 68.4689 43.9536 70.1478 42.273C71.8267 40.5923 72.7698 38.3139 72.7698 35.9383V27.0396H73.2301V26.5088H73.6903V35.9383C73.6938 37.2357 73.4401 38.5209 72.944 39.7196C72.4478 40.9183 71.7191 42.0068 70.7998 42.9223Z" fill="#644E77"/>
<path d="M70.149 42.2722C69.3188 43.1071 68.3314 43.7694 67.2438 44.2208C66.1562 44.6721 64.99 44.9036 63.8125 44.9019H53.5483L53.668 44.7484H63.8125C66.1479 44.7468 68.3872 43.8179 70.038 42.166C71.6888 40.514 72.6161 38.2742 72.6161 35.9387V27.04H72.7695V35.9387C72.7731 37.1152 72.5433 38.2808 72.0935 39.3679C71.6437 40.455 70.9828 41.4421 70.149 42.2722Z" fill="#644E77"/>
<path d="M63.8125 44.595C64.9488 44.5946 66.074 44.3704 67.1237 43.9352C68.1734 43.4999 69.1271 42.8622 69.9303 42.0584C70.7336 41.2546 71.3706 40.3004 71.8051 39.2504C72.2396 38.2004 72.463 37.0751 72.4626 35.9387V27.04H72.6161V35.9387C72.6169 37.0956 72.3898 38.2414 71.9478 39.3105C71.5058 40.3797 70.8576 41.3513 70.0401 42.1699C69.2226 42.9886 68.2519 43.6382 67.1833 44.0816C66.1148 44.5251 64.9694 44.7538 63.8125 44.7546H53.668L53.7876 44.6012L63.8125 44.595Z" fill="#644E77"/>
<path d="M55.0122 23.4839V23.6373H54.8588V23.5023L54.2573 23.487L55.0122 23.4839Z" fill="#644E77"/>
<path d="M55.0152 26.7422H54.8618V27.049H55.0152V26.7422Z" fill="#644E77"/>
<path d="M54.8616 26.7422V27.049H54.7081L54.7051 26.7422H54.8616Z" fill="#644E77"/>
<path d="M54.8584 26.4355H55.0118L55.0149 26.7424H54.8615L54.8584 26.4355Z" fill="#644E77"/>
<path d="M54.8585 26.4355L54.8616 26.7424H54.7051V26.4355H54.8585Z" fill="#644E77"/>
<path d="M55.0118 24.8677H54.8584V26.4357H55.0118V24.8677Z" fill="#644E77"/>
<path d="M54.8585 24.8677H54.7051V26.4357H54.8585V24.8677Z" fill="#644E77"/>
<path d="M55.0118 24.7109H54.8584V24.8674H55.0118V24.7109Z" fill="#644E77"/>
<path d="M54.8585 24.7109H54.7051V24.8674H54.8585V24.7109Z" fill="#644E77"/>
<path d="M55.0118 24.5576H54.8584V24.711H55.0118V24.5576Z" fill="#644E77"/>
<path d="M54.8585 24.5576V24.711H54.7051V24.5607L54.8585 24.5576Z" fill="#644E77"/>
<path d="M55.0118 24.0972H54.8584V24.5574H55.0118V24.0972Z" fill="#644E77"/>
<path d="M54.8585 24.0972V24.5574L54.7051 24.5605V24.0972H54.8585Z" fill="#644E77"/>
<path d="M55.0118 23.6367H54.8584V24.097H55.0118V23.6367Z" fill="#644E77"/>
<path d="M54.7053 23.6521L54.3984 23.6429V23.6398L54.8587 23.6367V24.097H54.7053V23.6521Z" fill="#644E77"/>
<path d="M54.7053 26.4355H54.248V26.7424H54.7053V26.4355Z" fill="#644E77"/>
<path d="M54.7049 24.8677V26.4357H54.2477L54.2446 24.8707L54.7049 24.8677Z" fill="#644E77"/>
<path d="M54.7053 24.0972V24.5605H54.4015L54.3984 24.1002L54.7053 24.0972Z" fill="#644E77"/>
<path d="M54.7053 23.6528V24.0977L54.3984 24.1008V23.6436L54.7053 23.6528Z" fill="#644E77"/>
<path d="M55.0147 27.04V42.7079L54.9135 42.8859C54.5737 43.4787 54.1955 44.0486 53.7812 44.592H53.5879C54.0253 44.0251 54.424 43.4295 54.7815 42.8091L54.8613 42.668V27.04H55.0147Z" fill="#644E77"/>
<path d="M54.2477 24.7138L54.2446 24.1001H54.3981L54.4011 24.5604H54.7049V24.7107L54.2477 24.7138Z" fill="#644E77"/>
<path d="M54.2573 23.6402V23.4868H54.871V23.6218H54.2573V23.6402Z" fill="#644E77"/>
<path d="M54.2446 23.6396H54.3981V24.0969H54.2446V23.6396Z" fill="#644E77"/>
<path d="M54.1899 27.0493V26.4355H54.2482V26.7424H54.7055L54.7085 27.0493H54.2482H54.1899Z" fill="#644E77"/>
<path d="M54.2446 24.8703V24.1001L54.2477 24.7138L54.7049 24.7107V24.8672L54.2446 24.8703Z" fill="#644E77"/>
<path d="M54.0913 23.6373V23.4839H54.2478V23.6373H54.0913Z" fill="#644E77"/>
<path d="M54.0883 23.4837V23.3364H54.3277H54.9997V23.4684H54.0791L54.0883 23.4837Z" fill="#644E77"/>
<path d="M54.0977 24.871V23.6436H54.2511V24.871H54.0977Z" fill="#644E77"/>
<path d="M53.5944 44.6012H53.4072C53.87 44.0119 54.2904 43.3905 54.6653 42.7417L54.7236 42.6343V27.0493H54.877V42.6773L54.7973 42.8184C54.4368 43.439 54.0349 44.0346 53.5944 44.6012Z" fill="#644E77"/>
<path d="M53.7879 44.6011L53.6683 44.7545H53.478L53.5946 44.6011H53.7879Z" fill="#644E77"/>
<path d="M53.4777 44.7544H53.668L53.5483 44.9078H53.355L53.4777 44.7544Z" fill="#644E77"/>
<path d="M53.4778 44.7545H53.2783C53.3213 44.7023 53.3612 44.6532 53.398 44.6011H53.5944L53.4778 44.7545Z" fill="#644E77"/>
<path d="M54.0916 23.6369C53.7602 23.6369 53.4258 23.6369 53.0913 23.6645L53.1772 23.508C53.4841 23.4896 53.7909 23.4804 54.0978 23.4835L54.0916 23.6369Z" fill="#644E77"/>
<path d="M54.088 23.4837C53.7812 23.4837 53.4743 23.4837 53.1675 23.5083L53.2534 23.3518C53.5909 23.3303 53.9223 23.3272 54.2537 23.3334H54.0788L54.088 23.4837Z" fill="#644E77"/>
<path d="M53.3552 44.9078H53.1558L53.2785 44.7544H53.478L53.3552 44.9078Z" fill="#644E77"/>
<path d="M53.4069 44.6011C53.37 44.6532 53.3301 44.7023 53.2872 44.7545H52.0874L52.2193 44.6011H53.4069Z" fill="#644E77"/>
<path d="M52.5695 24.6341L53.1003 23.6644C53.4348 23.6429 53.7693 23.6337 54.1007 23.6368V24.8642H54.2479V26.4261H54.1896V27.0398H54.7082V42.6248L54.6499 42.7322C54.275 43.381 53.8546 44.0024 53.3918 44.5917H52.2104C52.7945 43.9142 53.3172 43.1861 53.7723 42.4161L53.7938 42.3793V24.5482H53.6342C53.2783 24.585 52.9223 24.585 52.5695 24.6341Z" fill="#644E77"/>
<path d="M52.7625 45.8286C52.7468 45.8495 52.7294 45.869 52.7104 45.8869L52.6245 45.982H52.4097C52.4588 45.9329 52.5079 45.8808 52.5539 45.8286H52.7625Z" fill="#644E77"/>
<path d="M52.6093 45.9973L52.4774 46.1354H52.2656C52.3147 46.0832 52.3638 46.0341 52.4098 45.9819H52.6246L52.6093 45.9973Z" fill="#644E77"/>
<path d="M52.7629 45.8286H52.5542L52.5972 45.7826C52.861 45.5003 53.1096 45.2088 53.352 44.9111H53.5453C53.2968 45.2241 53.036 45.531 52.7629 45.8286Z" fill="#644E77"/>
<path d="M52.4868 45.6782L52.6004 45.7795V45.7826H52.5973L52.4868 45.6782Z" fill="#644E77"/>
<path d="M52.4098 45.982H52.2012L52.3485 45.8286H52.554C52.508 45.8808 52.4589 45.9329 52.4098 45.982Z" fill="#644E77"/>
<path d="M52.4866 45.6779L52.146 45.3711L52.2503 45.2575L52.5909 45.5644C52.7842 45.3496 52.9745 45.1317 53.1555 44.9077H53.355C53.1126 45.2146 52.864 45.4969 52.6001 45.7792L52.4866 45.6779Z" fill="#644E77"/>
<path d="M52.3821 45.7915L52.0415 45.4846L52.1458 45.3711L52.4864 45.6779L52.5969 45.7823L52.554 45.8283H52.3484L52.3821 45.7915Z" fill="#644E77"/>
<path d="M52.2659 46.1354H52.0542L52.2015 45.9819H52.4101C52.3641 46.0341 52.315 46.0832 52.2659 46.1354Z" fill="#644E77"/>
<path d="M53.7726 42.4258C53.3174 43.1958 52.7947 43.9239 52.2107 44.6014H52.0112C52.6207 43.9009 53.166 43.1471 53.6406 42.3491V24.7174C53.2601 24.7174 52.8735 24.7542 52.4868 24.7972L52.5758 24.6345C52.9287 24.5947 53.2847 24.5732 53.6345 24.564H53.794V42.3951L53.7726 42.4258Z" fill="#644E77"/>
<path d="M52.2505 45.2546L52.1462 45.3681L52.0418 45.4817L52.3825 45.7885L52.3487 45.8253H52.0234V44.9048H53.1557C52.9747 45.1288 52.7844 45.3467 52.5911 45.5614L52.2505 45.2546Z" fill="#644E77"/>
<path d="M52.0111 44.6011H52.2106L52.0786 44.7545H51.873L52.0111 44.6011Z" fill="#644E77"/>
<path d="M52.1801 24.8337L52.4869 24.7969L52.398 24.9626L52.1985 24.9841C51.7536 25.0454 51.3056 25.1252 50.8545 25.2295L50.9527 25.0546C51.3618 24.9626 51.771 24.8889 52.1801 24.8337Z" fill="#644E77"/>
<path d="M52.1491 24.6803C52.2903 24.6619 52.4284 24.6466 52.5695 24.6343L52.4806 24.7969L52.1737 24.8337C51.7646 24.889 51.3554 24.9626 50.9463 25.0547L51.0414 24.8736C51.4127 24.7938 51.7809 24.7294 52.1491 24.6803Z" fill="#644E77"/>
<path d="M51.8022 44.6008C52.4356 43.8911 52.9997 43.1226 53.4869 42.3055V24.8733C53.1278 24.8733 52.7627 24.9163 52.3975 24.9623L52.4865 24.7966C52.8732 24.7536 53.2598 24.726 53.6403 24.7168V42.3485C53.1657 43.1465 52.6203 43.9003 52.0109 44.6008H51.8022Z" fill="#644E77"/>
<path d="M52.0263 23.7691C51.8852 23.7875 51.7471 23.809 51.606 23.8336L51.698 23.6648L52.0049 23.6188C52.3935 23.5635 52.7832 23.5267 53.174 23.5083L53.1003 23.6648C52.7352 23.6863 52.3823 23.72 52.0263 23.7691Z" fill="#644E77"/>
<path d="M51.873 45.9818V44.9845L52.0817 44.7544H53.2815L53.1588 44.9078H52.0265V45.8284H52.3517L52.2044 45.9818H51.873Z" fill="#644E77"/>
<path d="M51.6978 23.6646L51.7898 23.4958L51.9862 23.4651C52.4127 23.4099 52.8392 23.37 53.2627 23.3516L53.1768 23.5081C52.7881 23.5265 52.3984 23.5633 52.0077 23.6185L51.6978 23.6646Z" fill="#644E77"/>
<path d="M51.873 44.9849V44.7578H52.0817L51.873 44.9849Z" fill="#644E77"/>
<path d="M52.0538 46.1355H51.7163V45.1444L51.8022 45.0523L51.8268 45.0247L51.8697 44.9756V45.9729H52.2011L52.0538 46.1355Z" fill="#644E77"/>
<path d="M51.8727 44.7546L51.7192 44.9234V44.6963C51.7499 44.6656 51.7775 44.6319 51.8052 44.5981H52.0138L51.8727 44.7546Z" fill="#644E77"/>
<path d="M51.8268 45.034L51.8022 45.0616L51.7163 45.1536V44.9266L51.8697 44.7578V44.9849L51.8268 45.034Z" fill="#644E77"/>
<path d="M51.6061 23.8333C51.7473 23.8088 51.8853 23.7873 52.0265 23.7689C52.3824 23.7198 52.7353 23.686 53.0913 23.6646L52.5696 24.6342C52.4285 24.6342 52.2904 24.6618 52.1492 24.6802C51.781 24.7293 51.4128 24.7938 51.0415 24.8735L51.6061 23.8333Z" fill="#644E77"/>
<path d="M51.8022 44.6011C51.7746 44.6348 51.747 44.6686 51.7163 44.6993V44.6011H51.8022Z" fill="#644E77"/>
<path d="M51.5658 44.8374C51.0398 45.417 50.4682 45.9537 49.8566 46.4422C49.6116 44.9375 48.9815 43.5217 48.0277 42.3324C47.0739 41.1431 45.8287 40.2206 44.4131 39.6546L52.3912 24.9503C52.7564 24.9043 53.1215 24.8767 53.4805 24.8613V42.2936C52.9934 43.1106 52.4293 43.8792 51.7959 44.5888H51.71V44.687L51.5965 44.8128L51.5658 44.8374Z" fill="white"/>
<path d="M51.7164 44.6995V44.9266L51.6949 44.9511C51.1029 45.6019 50.4551 46.1995 49.7586 46.737C49.5637 45.2023 48.9591 43.7485 48.0082 42.5282C47.0574 41.308 45.7954 40.3663 44.355 39.8021L44.4286 39.6641C45.8442 40.23 47.0894 41.1525 48.0432 42.3418C48.9971 43.5311 49.6271 44.9469 49.8722 46.4516C50.4788 45.9595 51.0452 45.4198 51.566 44.8376L51.5905 44.813L51.7164 44.6995Z" fill="#644E77"/>
<path d="M51.7133 44.929V45.1438C51.1405 45.7651 50.5153 46.3359 49.8446 46.8499L49.6329 47.0126L49.5991 46.7487C49.4139 45.2361 48.821 43.8024 47.8838 42.6008C46.9465 41.3993 45.7003 40.4752 44.2783 39.9274L44.352 39.7954C45.7924 40.3595 47.0544 41.3012 48.0052 42.5215C48.956 43.7418 49.5607 45.1956 49.7556 46.7303C50.452 46.1928 51.0999 45.5952 51.6919 44.9444L51.7133 44.929Z" fill="#644E77"/>
<path d="M44.0883 40.2897C44.0338 40.3842 43.9549 40.4625 43.86 40.5165C43.7651 40.5704 43.6575 40.598 43.5483 40.5965C43.4856 40.5968 43.4234 40.5864 43.3642 40.5658C43.3267 40.5561 43.2906 40.5416 43.2568 40.5229C43.1859 40.4846 43.1232 40.4327 43.0723 40.3702C43.0214 40.3077 42.9834 40.2358 42.9603 40.1586C42.9372 40.0813 42.9295 40.0003 42.9378 39.9202C42.946 39.84 42.9699 39.7622 43.0082 39.6913L43.0819 39.5532L43.2783 39.5992L43.5207 39.6637L43.6158 39.6913C43.8429 39.7588 44.0607 39.8355 44.2786 39.9214L44.0883 40.2897Z" fill="#644E77"/>
<path d="M43.7013 39.412L43.6031 39.3844L43.3515 39.3169L43.2349 39.2893L50.8479 25.2294C51.2989 25.125 51.7469 25.0453 52.1919 24.9839L52.3913 24.9624L44.4132 39.6667C44.2014 39.5716 43.9468 39.4857 43.7013 39.412Z" fill="#644E77"/>
<path d="M51.7164 45.1441V46.126H52.0539C51.2717 46.9276 50.402 47.6388 49.4611 48.2463L48.7522 48.6944V47.8566C48.7592 46.2245 48.2379 44.6339 47.2662 43.3225C46.2944 42.0112 44.9244 41.0495 43.3608 40.5812C43.42 40.6018 43.4823 40.6122 43.545 40.6119C43.6541 40.6134 43.7617 40.5858 43.8567 40.5318C43.9516 40.4779 44.0304 40.3996 44.085 40.305L44.2753 39.9521C45.6978 40.4995 46.9447 41.4235 47.8825 42.625C48.8203 43.8266 49.4137 45.2606 49.5991 46.7735L49.6329 47.0374L49.8446 46.8747C50.5174 46.353 51.1437 45.774 51.7164 45.1441Z" fill="#644E77"/>
<path d="M43.6583 39.5594C43.8946 39.63 44.1247 39.7128 44.3518 39.8049L44.2781 39.9368C44.0603 39.8509 43.8424 39.7742 43.6153 39.7067L43.5202 39.6791L43.2809 39.6208L43.0845 39.5747L43.1612 39.4336L43.3177 39.4704L43.5662 39.5379L43.6583 39.5594Z" fill="#644E77"/>
<path d="M43.7018 39.4118C43.9473 39.4855 44.1897 39.5714 44.426 39.6665L44.3523 39.8046C44.1253 39.7125 43.8951 39.6297 43.6589 39.5591L43.5637 39.5315L43.3152 39.464L43.1587 39.4271L43.2354 39.2891L43.352 39.3167L43.6036 39.3842L43.7018 39.4118Z" fill="#644E77"/>
<path d="M41.2437 53.4079C42.2766 53.4107 43.2893 53.1213 44.1649 52.5732L44.9381 52.5947C43.8893 53.4219 42.5917 53.8706 41.2559 53.8682L41.2437 53.4079Z" fill="#644E77"/>
<path d="M51.6977 23.6646L51.6056 23.8333C47.9664 24.4255 44.1338 26.3741 40.7308 29.3566C40.7124 29.3076 40.6909 29.2615 40.6694 29.2124C44.1184 26.1961 48.0063 24.2353 51.6977 23.6646Z" fill="#644E77"/>
<path d="M41.2407 52.9474C40.4979 52.9507 39.7639 52.7871 39.0928 52.4688C40.5247 52.4892 41.9005 52.5158 43.2199 52.5485C42.594 52.8141 41.9207 52.9498 41.2407 52.9474Z" fill="#DEDFE0"/>
<path d="M41.2437 53.4077V53.868C39.8237 53.8723 38.4489 53.3684 37.3682 52.4473H38.1384C39.0537 53.0716 40.1357 53.4063 41.2437 53.4077Z" fill="#644E77"/>
<path d="M51.0412 24.8733C47.6658 25.5944 44.137 27.5122 40.9979 30.3659C40.9861 30.3788 40.9727 30.3901 40.958 30.3997C40.9508 30.0435 40.8737 29.6921 40.731 29.3656C44.1339 26.3738 47.9665 24.4253 51.6058 23.8423L51.0412 24.8733Z" fill="#644E77"/>
<path d="M40.998 30.3662C44.1371 27.5125 47.6597 25.5946 51.0412 24.8735L50.9461 25.0546C47.6321 25.7849 44.1954 27.6812 41.1023 30.4797L40.9673 30.6025V30.449C40.9688 30.4337 40.9688 30.4183 40.9673 30.403C40.9789 30.3919 40.9892 30.3796 40.998 30.3662Z" fill="#644E77"/>
<path d="M51.7903 23.4956L51.6982 23.6644C48.016 24.2351 44.119 26.1959 40.67 29.2215C40.6424 29.1754 40.6178 29.1294 40.5933 29.0834C44.0975 26.021 48.0436 24.0479 51.7903 23.4956Z" fill="#644E77"/>
<path d="M40.9611 30.4456V30.599H40.731C40.8077 30.5315 40.8844 30.464 40.955 30.3965C40.9587 30.4126 40.9608 30.429 40.9611 30.4456Z" fill="#644E77"/>
<path d="M40.6117 29.4761C40.7379 29.784 40.8045 30.113 40.808 30.4457H40.1943C40.1975 30.3946 40.1975 30.3434 40.1943 30.2923H40.6577C40.6406 30.0486 40.5878 29.8088 40.5012 29.5804L40.6117 29.4761Z" fill="#644E77"/>
<path d="M40.7311 29.3662C40.8739 29.6927 40.951 30.0441 40.9582 30.4003C40.8876 30.4678 40.8109 30.5353 40.7342 30.6028H40.0039L40.1942 30.4494H40.8079C40.8043 30.1167 40.7377 29.7876 40.6115 29.4797L40.7311 29.3662Z" fill="#644E77"/>
<path d="M40.731 29.3659L40.6113 29.4764C40.593 29.427 40.5714 29.3788 40.5469 29.3321C40.5868 29.2923 40.6267 29.2585 40.6696 29.2217C40.6911 29.2708 40.7126 29.3168 40.731 29.3659Z" fill="#644E77"/>
<path d="M40.67 29.2216C40.6271 29.2584 40.5872 29.2922 40.5473 29.332C40.5258 29.2829 40.4982 29.2339 40.4736 29.1848L40.5933 29.0835C40.6179 29.1295 40.6424 29.1878 40.67 29.2216Z" fill="#644E77"/>
<path d="M40.4917 29.584C40.5783 29.8124 40.6311 30.0522 40.6482 30.2959H40.1848C40.1752 30.1649 40.1515 30.0352 40.1143 29.9092C40.2032 29.8356 40.2922 29.7589 40.3751 29.6822L40.4917 29.584Z" fill="#644E77"/>
<path d="M40.6114 29.4763L40.4917 29.5836C40.4733 29.5342 40.4518 29.4861 40.4272 29.4394C40.4671 29.3995 40.507 29.3658 40.5469 29.332C40.5715 29.3787 40.593 29.4268 40.6114 29.4763Z" fill="#644E77"/>
<path d="M40.5473 29.3323C40.5074 29.3661 40.4675 29.3999 40.4276 29.4397C40.4087 29.389 40.384 29.3406 40.354 29.2955L40.4737 29.1851C40.4982 29.2342 40.5197 29.2833 40.5473 29.3323Z" fill="#644E77"/>
<path d="M40.3292 50.5692L40.231 50.8607C39.8238 50.7216 39.4492 50.501 39.1301 50.2125C38.8109 49.9239 38.5538 49.5734 38.3745 49.1823L38.6537 49.0564C38.6443 49.0386 38.6361 49.0202 38.6292 49.0012L38.6139 48.9613C38.601 48.9344 38.5897 48.9067 38.5801 48.8785C38.4929 48.6496 38.4362 48.4102 38.4113 48.1666C38.4113 48.0684 38.396 47.9702 38.396 47.8597C38.3948 47.2957 38.5609 46.7439 38.8734 46.2743C39.1859 45.8047 39.6307 45.4384 40.1515 45.2217C40.6723 45.005 41.2456 44.9477 41.799 45.057C42.3524 45.1663 42.8609 45.4373 43.2602 45.8357C43.6595 46.2341 43.9316 46.742 44.0421 47.2952C44.1526 47.8483 44.0965 48.4218 43.8809 48.9431C43.6653 49.4643 43.2999 49.9099 42.831 50.2234C42.3621 50.5369 41.8107 50.7042 41.2466 50.7042C41.0926 50.7023 40.9388 50.69 40.7864 50.6674H40.7526L40.5532 50.6245L40.3292 50.5692Z" fill="white"/>
<path d="M40.2741 29.5746L40.0654 29.7618C40.0471 29.7104 40.0256 29.6602 40.001 29.6115L40.1697 29.4611L40.3539 29.2954C40.3838 29.3405 40.4085 29.3889 40.4275 29.4396L40.2741 29.5746Z" fill="#644E77"/>
<path d="M40.2279 50.8607L40.1297 51.1491C40.2187 51.1798 40.3046 51.2043 40.412 51.2319C40.5194 51.2596 40.5716 51.2688 40.6575 51.281H40.7097C40.8843 51.3078 41.0607 51.3212 41.2374 51.3209C41.9372 51.3216 42.6208 51.1102 43.198 50.7145C43.7751 50.3189 44.2189 49.7575 44.4705 49.1046C44.7222 48.4516 44.7701 47.7377 44.6078 47.057C44.4455 46.3763 44.0807 45.7607 43.5615 45.2916C43.0423 44.8224 42.3931 44.5216 41.6995 44.4289C41.0059 44.3362 40.3005 44.4558 39.6763 44.7722C39.0521 45.0885 38.5384 45.5866 38.203 46.2008C37.8676 46.815 37.7263 47.5164 37.7976 48.2125C37.8261 48.5067 37.8942 48.7958 38.0002 49.0717C38.014 49.118 38.0314 49.1632 38.0523 49.2067L38.0891 49.2957L38.3714 49.1699C38.5494 49.5633 38.8059 49.9162 39.1251 50.2069C39.4443 50.4977 39.8196 50.7201 40.2279 50.8607ZM46.322 47.8689C46.3217 48.8669 46.0277 49.8428 45.4766 50.675C44.9254 51.5071 44.1416 52.1586 43.2228 52.5483C41.9033 52.5177 40.5276 52.4911 39.0956 52.4686C38.2185 52.0611 37.4763 51.4113 36.9565 50.5957C36.4367 49.7801 36.1611 48.8329 36.1621 47.8658C36.1629 46.5191 36.6976 45.2277 37.649 44.2746C38.6003 43.3215 39.8908 42.7845 41.2374 42.7812C42.5851 42.7812 43.8776 43.3166 44.8306 44.2696C45.7835 45.2225 46.3189 46.515 46.3189 47.8627L46.322 47.8689Z" fill="#DEDFE0"/>
<path d="M40.1143 29.9155C40.1516 30.0415 40.1752 30.1711 40.1849 30.3022H39.7246V30.2439C39.786 30.1968 39.8473 30.1477 39.9087 30.0966C39.9732 30.0413 40.0437 29.98 40.1143 29.9155Z" fill="#644E77"/>
<path d="M40.0654 29.7616L40.2741 29.5745L40.4275 29.4395C40.4521 29.4861 40.4736 29.5343 40.492 29.5837L40.3753 29.688C40.2925 29.7647 40.2035 29.8414 40.1145 29.9151C40.1028 29.8626 40.0864 29.8112 40.0654 29.7616Z" fill="#644E77"/>
<path d="M40.0652 29.7617C40.0862 29.8113 40.1026 29.8626 40.1143 29.9151C40.0437 29.9796 39.9731 30.041 39.8995 30.0993C39.8259 30.1576 39.7768 30.2005 39.7154 30.2465C39.7089 30.1904 39.6976 30.135 39.6816 30.0808C39.7246 30.0502 39.7645 30.0164 39.8044 29.9826L40.0652 29.7617Z" fill="#644E77"/>
<path d="M39.7247 30.305H40.185C40.1881 30.3561 40.1881 30.4074 40.185 30.4584H39.5713C39.5713 30.4247 39.5713 30.3909 39.5713 30.3572C39.6173 30.3234 39.6664 30.2835 39.7124 30.2437L39.7247 30.305Z" fill="#644E77"/>
<path d="M40.0005 29.6113C40.0252 29.66 40.0467 29.7103 40.065 29.7617L39.8042 29.9826C39.7643 30.0164 39.7244 30.0501 39.6814 30.0808C39.6697 30.0263 39.6533 29.9729 39.6323 29.9212L39.706 29.8629C39.8072 29.7801 39.9054 29.6972 40.0005 29.6113Z" fill="#644E77"/>
<path d="M39.6816 30.0811C39.6976 30.1352 39.7089 30.1907 39.7154 30.2468C39.6693 30.2866 39.6202 30.3265 39.5742 30.3603C39.5705 30.3016 39.5633 30.2432 39.5527 30.1854L39.6816 30.0811Z" fill="#644E77"/>
<path d="M39.6817 30.081L39.5529 30.1853C39.5412 30.1301 39.5258 30.0758 39.5068 30.0226C39.5508 29.9915 39.5929 29.9577 39.6326 29.9214C39.6536 29.973 39.67 30.0264 39.6817 30.081Z" fill="#644E77"/>
<path d="M40.1937 30.4548L40.0035 30.6082H39.4297V30.467L39.577 30.3535C39.577 30.3873 39.577 30.421 39.577 30.4548H40.1937Z" fill="#644E77"/>
<path d="M39.5533 30.1851C39.5638 30.2429 39.571 30.3013 39.5747 30.36L39.4275 30.4735C39.4284 30.4179 39.4233 30.3623 39.4121 30.3078C39.4615 30.2697 39.5087 30.2287 39.5533 30.1851Z" fill="#644E77"/>
<path d="M39.5068 30.0225C39.5258 30.0756 39.5412 30.1299 39.5528 30.1851C39.5079 30.2245 39.4608 30.2614 39.4117 30.2956C39.4055 30.2384 39.3942 30.1819 39.3779 30.1268L39.5068 30.0225Z" fill="#644E77"/>
<path d="M41.2437 52.9475C41.9236 52.9499 42.5969 52.8141 43.2229 52.5486L44.1649 52.5731C43.2559 53.138 42.2028 53.4276 41.1328 53.4069C40.0628 53.3862 39.0217 53.0561 38.1353 52.4565H39.0957C39.7668 52.7749 40.5009 52.9385 41.2437 52.9352V52.9475Z" fill="#644E77"/>
<path d="M41.2406 44.7085C41.6552 44.7085 42.0658 44.7902 42.4489 44.9488C42.832 45.1075 43.18 45.3401 43.4732 45.6333C43.7664 45.9265 43.999 46.2746 44.1577 46.6577C44.3164 47.0408 44.3981 47.4513 44.3981 47.866C44.3981 48.2806 44.3164 48.6912 44.1577 49.0743C43.999 49.4574 43.7664 49.8055 43.4732 50.0987C43.18 50.3919 42.832 50.6245 42.4489 50.7832C42.0658 50.9418 41.6552 51.0235 41.2406 51.0235C41.07 51.0227 40.8998 51.0093 40.7312 50.9836H40.7036C40.6238 50.9836 40.5471 50.9529 40.4704 50.9345C40.3936 50.9161 40.3077 50.8916 40.2279 50.8639L40.3261 50.5724L40.5471 50.6369L40.7465 50.6798H40.7803C40.9327 50.7024 41.0865 50.7147 41.2406 50.7167C41.8037 50.716 42.3541 50.5484 42.8221 50.235C43.29 49.9216 43.6545 49.4765 43.8695 48.956C44.0844 48.4354 44.1402 47.8628 44.0297 47.3105C43.9193 46.7583 43.6475 46.2512 43.2489 45.8534C42.8502 45.4555 42.3425 45.1849 41.79 45.0756C41.2375 44.9663 40.665 45.0233 40.1449 45.2394C39.6248 45.4555 39.1805 45.821 38.8681 46.2896C38.5557 46.7582 38.3893 47.3089 38.3899 47.8721C38.3899 47.9703 38.3899 48.0685 38.4052 48.179C38.4301 48.4227 38.4868 48.662 38.574 48.8909C38.5836 48.9191 38.5949 48.9468 38.6078 48.9737L38.6231 49.0136C38.63 49.0326 38.6382 49.051 38.6477 49.0689L38.3684 49.1947L38.3316 49.1118C38.3136 49.0751 38.2983 49.0371 38.2856 48.9983C38.1887 48.7437 38.1258 48.4776 38.0984 48.2066C38.0984 48.0992 38.083 47.9918 38.083 47.8844C38.081 47.4683 38.1612 47.0559 38.3189 46.6709C38.4767 46.2859 38.7089 45.9358 39.0022 45.6407C39.2956 45.3456 39.6443 45.1114 40.0284 44.9514C40.4125 44.7914 40.8245 44.7089 41.2406 44.7085Z" fill="#644E77"/>
<path d="M38.1232 29.0225C38.4297 29.0229 38.7282 29.1198 38.9766 29.2993C39.225 29.4789 39.4106 29.732 39.5071 30.0228L39.3783 30.1271C39.3013 29.8535 39.1371 29.6124 38.9105 29.4407C38.684 29.269 38.4075 29.176 38.1232 29.1759H30.8447V29.0225H38.1232Z" fill="#644E77"/>
<path d="M38.1202 28.8809C38.4495 28.8814 38.7708 28.9824 39.0412 29.1705C39.3115 29.3586 39.518 29.6248 39.633 29.9334C39.5932 29.9697 39.5511 30.0035 39.5071 30.0346C39.4106 29.7438 39.225 29.4907 38.9766 29.3112C38.7282 29.1316 38.4297 29.0348 38.1232 29.0343H30.8447V28.8809H38.1202Z" fill="#644E77"/>
<path d="M38.1202 28.4087C38.516 28.4078 38.9038 28.5208 39.2373 28.734C39.5707 28.9473 39.8359 29.2519 40.0012 29.6116C39.9061 29.6975 39.8079 29.7803 39.6943 29.8632L39.6207 29.9215C39.5057 29.6129 39.2992 29.3467 39.0289 29.1586C38.7586 28.9706 38.4372 28.8695 38.1079 28.869H30.8447V28.4087H38.1202Z" fill="#644E77"/>
<path d="M40.1699 29.461L40.0011 29.6113C39.8359 29.2516 39.5707 28.947 39.2372 28.7338C38.9037 28.5205 38.516 28.4076 38.1201 28.4085H31.0073V27.9604H38.1324C38.5917 27.9606 39.0421 28.0862 39.4353 28.3236C39.8284 28.561 40.1493 28.9012 40.3632 29.3075L40.1699 29.461Z" fill="#644E77"/>
<path d="M38.1232 27.7949C38.6033 27.7962 39.0744 27.9257 39.4876 28.1701C39.9009 28.4145 40.2413 28.7648 40.4737 29.185L40.354 29.2954C40.14 28.8891 39.8192 28.5489 39.4261 28.3115C39.0329 28.0741 38.5825 27.9485 38.1232 27.9483H31.0073V27.7949H38.1324H38.1232Z" fill="#644E77"/>
<path d="M38.1201 27.6538C38.6229 27.655 39.1164 27.7891 39.5507 28.0423C39.985 28.2956 40.3447 28.6591 40.5934 29.096L40.4737 29.1973C40.2413 28.7772 39.9009 28.4268 39.4876 28.1824C39.0744 27.938 38.6033 27.8085 38.1232 27.8072H31.0073V27.6538H38.1201Z" fill="#644E77"/>
<path d="M41.2437 51.0235C41.8685 51.0235 42.4792 50.8382 42.9986 50.4909C43.5179 50.1437 43.9226 49.6502 44.1614 49.0729C44.4002 48.4956 44.4624 47.8604 44.3401 47.2477C44.2178 46.6351 43.9164 46.0725 43.4742 45.6311C43.032 45.1898 42.4688 44.8896 41.8559 44.7684C41.243 44.6473 40.608 44.7107 40.0311 44.9506C39.4543 45.1905 38.9616 45.5962 38.6154 46.1163C38.2691 46.6363 38.085 47.2474 38.0862 47.8721C38.0862 47.9795 38.0862 48.0869 38.1015 48.1943C38.129 48.4653 38.1919 48.7315 38.2887 48.986C38.3014 49.0249 38.3168 49.0628 38.3348 49.0995L38.3716 49.1824L38.0893 49.3082L38.0525 49.2192C38.0316 49.1757 38.0141 49.1305 38.0003 49.0842C37.8943 48.8082 37.8262 48.5192 37.7978 48.225C37.7245 47.5275 37.8645 46.8242 38.1993 46.2079C38.5341 45.5916 39.0479 45.0913 39.6729 44.773C40.2979 44.4548 41.0047 44.3335 41.7 44.4253C42.3953 44.5171 43.0465 44.8176 43.5675 45.2871C44.0885 45.7566 44.4549 46.3731 44.6182 47.0551C44.7816 47.7372 44.7344 48.4528 44.4826 49.1074C44.2309 49.762 43.7866 50.3249 43.2083 50.7218C42.6301 51.1187 41.9451 51.3309 41.2437 51.3304C41.067 51.3306 40.8906 51.3172 40.7159 51.2905H40.6638C40.5778 51.2905 40.4981 51.2598 40.4183 51.2414C40.3385 51.223 40.225 51.1892 40.136 51.1585L40.2342 50.8701C40.314 50.8977 40.3937 50.9192 40.4766 50.9407C40.5594 50.9621 40.63 50.9775 40.7098 50.9898H40.7374C40.9051 51.0133 41.0743 51.0245 41.2437 51.0235Z" fill="#644E77"/>
<path d="M41.2373 42.3276C42.4424 42.3258 43.6152 42.717 44.5778 43.442C45.5404 44.1669 46.2403 45.186 46.5713 46.3447C46.9024 47.5034 46.8465 48.7385 46.4122 49.8625C45.9779 50.9866 45.1888 51.9383 44.1647 52.5734L43.2226 52.5489C44.3023 52.0919 45.1907 51.2756 45.7373 50.2384C46.2838 49.2013 46.455 48.007 46.2216 46.8581C45.9883 45.7092 45.3649 44.6763 44.457 43.9345C43.5492 43.1927 42.4128 42.7876 41.2404 42.7879C40.2355 42.7882 39.2532 43.0867 38.418 43.6455C37.5828 44.2043 36.9321 44.9983 36.5484 45.9271C36.1647 46.8559 36.0651 47.8776 36.2624 48.863C36.4596 49.8484 36.9447 50.7531 37.6564 51.4626C38.0743 51.8802 38.5625 52.2208 39.0986 52.4691H38.1381C37.1584 51.8037 36.4176 50.8419 36.0243 49.7247C35.6311 48.6076 35.6061 47.3938 35.953 46.2614C36.3 45.129 37.0006 44.1375 37.9521 43.4324C38.9036 42.7272 40.056 42.3454 41.2404 42.343L41.2373 42.3276Z" fill="#644E77"/>
<path d="M47.2425 47.8657C47.2452 48.654 47.0915 49.435 46.7902 50.1635C46.4889 50.8919 46.0461 51.5534 45.4874 52.1095C45.3147 52.2825 45.1312 52.4444 44.9381 52.5943L44.1648 52.5728C45.1746 51.9424 45.9536 51.0025 46.3858 49.8934C46.8181 48.7842 46.8804 47.5651 46.5636 46.4176C46.2467 45.2702 45.5676 44.2558 44.6275 43.5256C43.6873 42.7954 42.5364 42.3885 41.3463 42.3655C40.1561 42.3425 38.9903 42.7046 38.0227 43.3979C37.055 44.0912 36.3372 45.0786 35.9762 46.2129C35.6152 47.3473 35.6304 48.5679 36.0194 49.6929C36.4085 50.8179 37.1506 51.7872 38.1352 52.4562H37.365C37.2392 52.3519 37.1195 52.2414 37.0029 52.1248C36.1631 51.2861 35.5909 50.2173 35.3584 49.0535C35.126 47.8896 35.2438 46.6829 35.697 45.586C36.1502 44.4891 36.9185 43.5512 37.9046 42.8909C38.8908 42.2305 40.0506 41.8773 41.2375 41.876C42.0255 41.8756 42.8059 42.0304 43.5341 42.3317C44.2623 42.633 44.924 43.0748 45.4813 43.6319C46.0387 44.189 46.4809 44.8505 46.7825 45.5785C47.0842 46.3065 47.2395 47.0869 47.2395 47.8749L47.2425 47.8657Z" fill="#644E77"/>
<path d="M30.9982 27.9512H30.8447V28.4114H30.9982V27.9512Z" fill="#644E77"/>
<path d="M30.9982 27.7979H30.8447V27.9513H30.9982V27.7979Z" fill="#644E77"/>
<path d="M30.9982 27.6445H30.8447V27.798H30.9982V27.6445Z" fill="#644E77"/>
<path d="M30.8443 27.6445H30.6909V27.798H30.8443V27.6445Z" fill="#644E77"/>
<path d="M30.8443 27.9513V28.4116H30.6909V27.7979H30.8443V27.9513Z" fill="#644E77"/>
<path d="M30.8443 28.8719V29.0253H30.6909V28.4116H30.8443V28.8719Z" fill="#644E77"/>
<path d="M30.8444 29.0254V29.1788H30.5376V29.0254H30.691H30.8444Z" fill="#644E77"/>
<path d="M30.691 27.6445H30.5376V27.798H30.691V27.6445Z" fill="#644E77"/>
<path d="M30.691 27.7979V28.4116H30.5376V27.9513V27.7979H30.691Z" fill="#644E77"/>
<path d="M30.691 28.4116V29.0253H30.5376V28.8719V28.4116H30.691Z" fill="#644E77"/>
<path d="M30.5373 28.875H16.2656V29.0284H30.5373V28.875Z" fill="#644E77"/>
<path d="M30.5377 27.7979H30.3843V27.9513H30.5377V27.7979Z" fill="#644E77"/>
<path d="M30.5377 27.9512H30.3843V28.4114H30.5377V27.9512Z" fill="#644E77"/>
<path d="M30.5377 27.6445H30.3843V27.798H30.5377V27.6445Z" fill="#644E77"/>
<path d="M30.5373 28.8719L16.2656 28.878V28.4178H16.4191L30.3839 28.4116H30.5373V28.8719Z" fill="#644E77"/>
<path d="M30.3843 27.9541H16.4194V28.4144H30.3843V27.9541Z" fill="#644E77"/>
<path d="M30.3843 27.8008H16.4194V27.9542H30.3843V27.8008Z" fill="#644E77"/>
<path d="M30.3843 27.6445V27.798L16.4194 27.8041V27.6537L30.3843 27.6445Z" fill="#644E77"/>
<path d="M30.393 27.3622V27.6537H16.4282V27.3683C16.4282 26.8263 16.6435 26.3065 17.0268 25.9233C17.41 25.54 17.9298 25.3247 18.4719 25.3247H28.3525C28.6206 25.3243 28.8861 25.3768 29.1338 25.4792C29.3816 25.5816 29.6067 25.7319 29.7963 25.9215C29.9858 26.111 30.1361 26.3361 30.2385 26.5839C30.3409 26.8317 30.3934 27.0972 30.393 27.3653V27.3622Z" fill="#DEDFE0"/>
<path d="M30.2185 25.4841C30.4664 25.7298 30.663 26.0224 30.7968 26.3448C30.9306 26.6672 30.9989 27.013 30.9979 27.362V27.6535H30.691V27.3712C30.691 26.7484 30.4438 26.151 30.0037 25.7103C29.5635 25.2696 28.9665 25.0216 28.3436 25.0208H26.4473V24.7139H28.3436C28.692 24.7122 29.0373 24.7799 29.3592 24.9132C29.6812 25.0465 29.9733 25.2427 30.2185 25.4902V25.4841Z" fill="#644E77"/>
<path d="M30.7003 27.3621V27.6536H30.3934V27.3713C30.3939 27.1033 30.3413 26.8377 30.2389 26.59C30.1365 26.3422 29.9862 26.1171 29.7967 25.9275C29.6071 25.738 29.382 25.5877 29.1343 25.4853C28.8865 25.3829 28.621 25.3304 28.3529 25.3308H26.4565V25.0239H28.3529C28.9736 25.0247 29.5688 25.271 30.0086 25.7091C30.4484 26.1472 30.6971 26.7414 30.7003 27.3621Z" fill="#644E77"/>
<path d="M26.447 25.0146H26.1401V25.3215H26.447V25.0146Z" fill="#644E77"/>
<path d="M26.447 24.708H26.1401V25.0149H26.447V24.708Z" fill="#644E77"/>
<path d="M26.1407 25.0176H20.8721V25.3244H26.1407V25.0176Z" fill="#644E77"/>
<path d="M25.8302 23.9869V24.708H21.1875V23.9899C21.1875 23.8142 21.2573 23.6456 21.3816 23.5213C21.5059 23.397 21.6745 23.3271 21.8503 23.3271H25.1766C25.3502 23.3296 25.516 23.4 25.6382 23.5234C25.7605 23.6468 25.8294 23.8132 25.8302 23.9869Z" fill="#DEDFE0"/>
<path d="M25.0511 36.6873C28.8806 36.2516 36.0026 34.9352 40.6821 31.0474C40.8632 30.9001 41.0381 30.7405 41.2038 30.5933C44.2232 27.85 47.6016 25.9905 50.8481 25.2295L43.2351 39.2894C42.5533 39.1161 41.852 39.0315 41.1485 39.0378C38.9322 39.0433 36.7985 39.8802 35.1695 41.383C33.5405 42.8859 32.5348 44.9453 32.3511 47.154H21.0927C20.9082 44.9469 19.9011 42.8896 18.2711 41.3901C16.641 39.8906 14.507 39.0584 12.2922 39.0584C10.0773 39.0584 7.94336 39.8906 6.31331 41.3901C4.68326 42.8896 3.67616 44.9469 3.49169 47.154H1.54932C1.59534 45.9481 1.83776 43.2325 3.01914 40.8268C3.42186 40.0193 3.98236 39.3008 4.66752 38.7137C5.35268 38.1265 6.14859 37.6827 7.00821 37.4084C7.68711 37.1935 8.39494 37.0838 9.10707 37.0832C14.7777 37.0954 22.1636 37.0218 25.0511 36.6873Z" fill="white"/>
<path d="M25.8304 23.9866C25.8304 23.8124 25.7618 23.6452 25.6395 23.5212C25.5172 23.3971 25.351 23.3262 25.1768 23.3238H21.8382C21.6641 23.327 21.4981 23.3987 21.3764 23.5233C21.2547 23.6479 21.1869 23.8155 21.1877 23.9897V24.7108H25.8457L25.8304 23.9866ZM26.1372 24.7077V25.0146H20.8809V23.9897C20.8809 23.7325 20.983 23.4859 21.1649 23.304C21.3467 23.1222 21.5933 23.02 21.8505 23.02H25.1768C25.3042 23.0196 25.4305 23.0444 25.5483 23.093C25.6662 23.1416 25.7732 23.213 25.8633 23.3031C25.9535 23.3932 26.0249 23.5003 26.0734 23.6181C26.122 23.736 26.1468 23.8622 26.1464 23.9897L26.1372 24.7077Z" fill="#644E77"/>
<path d="M26.073 23.0816C26.1932 23.2025 26.288 23.3462 26.3518 23.5043C26.4156 23.6624 26.447 23.8317 26.4443 24.0022V24.7233H26.1374V23.9868C26.1383 23.731 26.0376 23.4853 25.8576 23.3035C25.6776 23.1218 25.4328 23.0188 25.177 23.0172H21.8384C21.5829 23.0204 21.3389 23.1244 21.1596 23.3066C20.9804 23.4887 20.8802 23.7343 20.8811 23.9899V24.711H20.5742V23.9899C20.5742 23.6513 20.7087 23.3266 20.9481 23.0873C21.1875 22.8479 21.5122 22.7134 21.8507 22.7134H25.177C25.5124 22.7136 25.8343 22.8459 26.073 23.0816Z" fill="#644E77"/>
<path d="M20.8718 25.0176H20.5649V25.3244H20.8718V25.0176Z" fill="#644E77"/>
<path d="M20.8718 25.0178H20.5649V24.7109H20.8687L20.8718 25.0178Z" fill="#644E77"/>
<path d="M17.3704 47.8781C17.3705 48.9478 17.033 49.9902 16.406 50.8569C15.779 51.7235 14.8945 52.3702 13.8785 52.7048C12.9119 52.7447 11.9944 52.7846 11.1352 52.8276C10.2047 52.6106 9.3542 52.1357 8.68132 51.4574C8.00844 50.779 7.54045 49.9247 7.33105 48.9925C7.12165 48.0602 7.17934 47.0878 7.49748 46.1869C7.81562 45.2859 8.38133 44.4929 9.12969 43.8989C9.87805 43.3048 10.7787 42.9338 11.7284 42.8284C12.678 42.723 13.6381 42.8874 14.4985 43.3029C15.359 43.7184 16.0848 44.368 16.5928 45.1773C17.1008 45.9865 17.3703 46.9226 17.3704 47.8781ZM15.7533 47.8781C15.7533 47.4233 15.6637 46.9729 15.4896 46.5528C15.3154 46.1326 15.0602 45.7509 14.7385 45.4295C14.4167 45.108 14.0348 44.8531 13.6145 44.6794C13.1942 44.5056 12.7438 44.4164 12.289 44.4168C12.2552 44.4168 12.2215 44.4168 12.1877 44.4168C12.1097 44.4169 12.0318 44.422 11.9545 44.4321C11.816 44.4432 11.6786 44.4648 11.5433 44.4966C11.4967 44.5038 11.4506 44.5141 11.4053 44.5272H11.3623C11.2967 44.5439 11.2321 44.5644 11.169 44.5886L11.0217 44.6438C10.9798 44.6575 10.9388 44.6739 10.8989 44.6929L10.856 44.7113L10.9787 44.9937C10.5862 45.1722 10.2345 45.4294 9.94528 45.7492C9.65606 46.069 9.43549 46.4448 9.29718 46.8532L9.00874 46.755C8.97805 46.844 8.95351 46.9299 8.92896 47.0219C8.90441 47.114 8.8952 47.1754 8.87986 47.2552C8.87986 47.2828 8.87986 47.3104 8.87986 47.3319C8.86412 47.4108 8.85489 47.4908 8.85225 47.5712C8.84055 47.6731 8.83542 47.7756 8.8369 47.8781C8.8377 48.7948 9.20117 49.6739 9.84795 50.3236C10.4947 50.9733 11.3723 51.3406 12.289 51.3455C13.2075 51.3447 14.0882 50.9794 14.7378 50.3299C15.3873 49.6804 15.7525 48.7997 15.7533 47.8811V47.8781Z" fill="#DEDFE0"/>
<path d="M16.1123 27.3681C16.1123 26.7447 16.3599 26.1468 16.8007 25.706C17.2415 25.2652 17.8394 25.0176 18.4628 25.0176H20.5739V25.3244H18.472C17.93 25.3244 17.4102 25.5397 17.0269 25.923C16.6437 26.3063 16.4284 26.8261 16.4284 27.3681V27.6534H16.1215L16.1123 27.3681Z" fill="#644E77"/>
<path d="M16.4191 27.9575H16.2656V28.4178H16.4191V27.9575Z" fill="#644E77"/>
<path d="M16.4191 27.8042H16.2656V27.9576H16.4191V27.8042Z" fill="#644E77"/>
<path d="M16.4191 27.6538H16.2656V27.8042H16.4191V27.6538Z" fill="#644E77"/>
<path d="M16.2657 27.6538H16.1123V27.8042H16.2657V27.6538Z" fill="#644E77"/>
<path d="M16.2657 27.6504H16.1123V27.6535H16.2657V27.6504Z" fill="#644E77"/>
<path d="M16.1123 27.8042H16.2657V27.9576V28.4179H16.1123V27.8042Z" fill="#644E77"/>
<path d="M16.2657 28.8778V29.0312H16.1123V28.4205V28.4175H16.2657V28.8778Z" fill="#644E77"/>
<path d="M16.1124 28.4175H15.959V28.4205H16.1124V28.4175Z" fill="#644E77"/>
<path d="M15.959 27.9607V27.8042H16.1124V28.4179H15.959V27.9607Z" fill="#644E77"/>
<path d="M15.8057 27.3713C15.8057 26.6663 16.0855 25.9901 16.5838 25.4912C17.0821 24.9924 17.7579 24.7118 18.463 24.7109H20.5741V25.0178H18.4722C17.8488 25.0178 17.251 25.2654 16.8102 25.7062C16.3694 26.147 16.1217 26.7449 16.1217 27.3683V27.6536H15.8149L15.8057 27.3713Z" fill="#644E77"/>
<path d="M16.1124 27.6538H15.959V27.8042H16.1124V27.6538Z" fill="#644E77"/>
<path d="M15.959 28.8807V28.4204H16.1124V29.031H15.959V28.8807Z" fill="#644E77"/>
<path d="M16.2658 29.1847H15.959V29.0312H16.1124H16.2658V29.1847Z" fill="#644E77"/>
<path d="M15.959 29.185H16.2658V29.0315L30.5375 29.0254V29.1788L15.959 29.188V29.185Z" fill="#644E77"/>
<path d="M15.9591 28.4175H15.8057V28.4205H15.9591V28.4175Z" fill="#644E77"/>
<path d="M15.9591 27.8042H15.8057V27.9607H15.9591V27.8042Z" fill="#644E77"/>
<path d="M15.8057 27.8038V27.6504H16.1125V27.6535H15.9591V27.8038H15.8057Z" fill="#644E77"/>
<path d="M15.9591 27.9604H15.8057V28.4177H15.9591V27.9604Z" fill="#644E77"/>
<path d="M12.2891 52.9623C12.8284 52.9634 13.3642 52.8763 13.8755 52.7046L15.1029 52.6616C14.2512 53.1661 13.279 53.4311 12.2891 53.4288V52.9623Z" fill="#644E77"/>
<path d="M13.8784 52.7051C13.3671 52.8768 12.8313 52.9639 12.2919 52.9628C11.9034 52.9633 11.5161 52.918 11.1382 52.8278C11.982 52.7849 12.9026 52.745 13.8784 52.7051Z" fill="#DEDFE0"/>
<path d="M30.8352 55.1263C15.6031 55.1263 3.25537 54.531 3.25537 53.7823C3.25537 53.4754 5.42788 53.1686 9.08555 52.9446C10.0416 53.5576 11.1534 53.8835 12.2891 53.8835C13.6147 53.8854 14.903 53.4448 15.9498 52.6316C20.2457 52.4966 25.3487 52.4137 30.8291 52.4106C33.0814 52.4106 35.2692 52.4106 37.3619 52.4475C38.4427 53.3686 39.8174 53.8725 41.2375 53.8682C42.5733 53.8707 43.8708 53.422 44.9197 52.5948C52.9899 52.828 58.3935 53.2576 58.3935 53.7547C58.412 54.5064 46.0642 55.1201 30.8352 55.1263Z" fill="#DEDFE0"/>
<path d="M12.2892 53.4293C11.4711 53.4318 10.6628 53.2515 9.92334 52.9015L11.1323 52.834C11.5103 52.9241 11.8975 52.9695 12.2861 52.969L12.2892 53.4293Z" fill="#644E77"/>
<path d="M11.0616 44.9756L10.9849 45.0093L11.0616 44.9756Z" fill="#644E77"/>
<path d="M9.29721 46.8683C9.43552 46.4599 9.6561 46.0842 9.94532 45.7643C10.2345 45.4445 10.5863 45.1873 10.9788 45.0088L11.0984 45.2911L11.1475 45.2696C11.1782 45.2696 11.2058 45.242 11.2457 45.2297L11.3869 45.1776C11.4329 45.1591 11.4789 45.1469 11.5188 45.1346H11.5618C11.5978 45.1224 11.6347 45.1132 11.6722 45.107C11.7874 45.0805 11.9043 45.062 12.0221 45.0517C12.0824 45.0486 12.1428 45.0486 12.2031 45.0517H12.289C13.0451 45.0517 13.7701 45.3521 14.3047 45.8867C14.8393 46.4213 15.1397 47.1464 15.1397 47.9024C15.1397 48.6584 14.8393 49.3835 14.3047 49.9181C13.7701 50.4527 13.0451 50.7531 12.289 50.7531C11.5338 50.7522 10.8096 50.4521 10.2753 49.9183C9.74095 49.3845 9.43999 48.6607 9.43837 47.9055C9.43414 47.8216 9.43414 47.7377 9.43837 47.6538C9.44061 47.594 9.44779 47.5345 9.45985 47.4759V47.4053C9.45985 47.3409 9.48439 47.2734 9.49974 47.2089C9.51508 47.1445 9.53963 47.0647 9.56418 46.9911L9.25732 46.8929L9.29721 46.8683Z" fill="white"/>
<path d="M12.2889 53.8833C11.1501 53.8851 10.0348 53.5591 9.07617 52.9443L9.92615 52.8952C10.7417 53.2788 11.6384 53.458 12.5387 53.4173C13.439 53.3767 14.3159 53.1175 15.0935 52.662L15.9527 52.6313C14.9051 53.4453 13.6156 53.8859 12.2889 53.8833Z" fill="#644E77"/>
<path d="M10.3221 29.8906V30.5043H7.52056C7.51859 30.2904 7.57029 30.0794 7.67092 29.8906H10.3221Z" fill="#644E77"/>
<path d="M10.2672 33.8828V34.4965L7.52393 34.4996V33.8859L10.2672 33.8828Z" fill="#644E77"/>
<path d="M10.267 31.9253V32.539L7.51758 32.5421V31.9284L10.267 31.9253Z" fill="#644E77"/>
<path d="M9.22021 47.1109C9.23908 47.0298 9.26265 46.9499 9.29079 46.8716C9.26931 46.9514 9.24783 47.0281 9.22021 47.1109Z" fill="#644E77"/>
<path d="M15.4469 47.8815C15.4469 48.7189 15.1143 49.522 14.5221 50.1142C13.93 50.7063 13.1268 51.039 12.2894 51.039C11.452 51.039 10.6489 50.7063 10.0567 50.1142C9.46458 49.522 9.13191 48.7189 9.13191 47.8815C9.12725 47.7936 9.12725 47.7055 9.13191 47.6176C9.13537 47.5445 9.14358 47.4718 9.15646 47.3997C9.15501 47.3773 9.15501 47.3547 9.15646 47.3322C9.15646 47.2586 9.18408 47.1819 9.20249 47.1113C9.22397 47.0284 9.24545 46.9517 9.27307 46.872L9.57992 46.9701C9.55537 47.0438 9.53389 47.1144 9.51548 47.188C9.49707 47.2617 9.48479 47.32 9.47559 47.3844V47.455C9.46354 47.5136 9.45635 47.5731 9.45411 47.6329C9.44989 47.7168 9.44989 47.8007 9.45411 47.8846C9.45573 48.6398 9.75669 49.3636 10.291 49.8974C10.8254 50.4312 11.5495 50.7313 12.3048 50.7321C13.0608 50.7321 13.7859 50.4318 14.3205 49.8972C14.8551 49.3626 15.1554 48.6375 15.1554 47.8815C15.1554 47.1255 14.8551 46.4004 14.3205 45.8658C13.7859 45.3312 13.0608 45.0308 12.3048 45.0308H12.2188C12.1585 45.0277 12.0981 45.0277 12.0378 45.0308C11.9201 45.0411 11.8032 45.0596 11.688 45.0861C11.6505 45.0923 11.6135 45.1015 11.5775 45.1137H11.5346C11.4947 45.1137 11.4486 45.1382 11.4026 45.1567L11.2615 45.2088C11.2216 45.2088 11.194 45.2364 11.1633 45.2487L11.1142 45.2702L10.9945 44.9879L11.0712 44.9541L11.1449 44.9234L11.3014 44.8651L11.4609 44.816C11.51 44.816 11.5622 44.7884 11.6143 44.7792C11.7415 44.7493 11.8708 44.7288 12.001 44.7179C12.0735 44.7132 12.1463 44.7132 12.2188 44.7179H12.2894C12.7046 44.7179 13.1157 44.7997 13.4992 44.9588C13.8826 45.1179 14.231 45.351 14.5243 45.6448C14.8176 45.9387 15.05 46.2875 15.2083 46.6713C15.3667 47.0551 15.4477 47.4663 15.4469 47.8815Z" fill="#644E77"/>
<path d="M15.4468 47.8813C15.4468 47.0439 15.1141 46.2408 14.522 45.6487C13.9299 45.0565 13.1267 44.7238 12.2893 44.7238H12.2034C12.1308 44.7192 12.0581 44.7192 11.9855 44.7238C11.8553 44.7348 11.7261 44.7553 11.5989 44.7852C11.5467 44.7852 11.4946 44.8098 11.4455 44.822L11.2859 44.8711L11.1294 44.9294L11.0558 44.9601L10.9791 44.9939L10.8563 44.7116L10.8993 44.6932C10.9391 44.6742 10.9801 44.6578 11.022 44.6441L11.1693 44.5888C11.2325 44.5646 11.297 44.5441 11.3626 44.5275H11.4056C11.4509 44.5143 11.497 44.5041 11.5437 44.4968C11.6789 44.465 11.8164 44.4434 11.9548 44.4323C12.0322 44.4222 12.1101 44.4171 12.188 44.417C12.2218 44.417 12.2556 44.417 12.2893 44.417C13.2081 44.417 14.0893 44.782 14.739 45.4317C15.3887 46.0814 15.7537 46.9625 15.7537 47.8813C15.7537 48.8001 15.3887 49.6813 14.739 50.331C14.0893 50.9807 13.2081 51.3457 12.2893 51.3457C11.3715 51.3441 10.4918 50.979 9.84251 50.3303C9.19326 49.6816 8.82739 48.8022 8.82496 47.8844C8.82348 47.7819 8.8286 47.6794 8.8403 47.5776C8.84294 47.4972 8.85217 47.4171 8.86791 47.3382C8.86791 47.3167 8.86791 47.2891 8.86791 47.2615C8.86791 47.1817 8.8986 47.1019 8.91701 47.0283C8.93542 46.9547 8.96611 46.8503 8.99679 46.7613L9.28523 46.8595C9.25709 46.9379 9.23353 47.0178 9.21466 47.0989C9.19625 47.1694 9.1809 47.2462 9.16863 47.3198C9.16717 47.3423 9.16717 47.3648 9.16863 47.3873C9.15574 47.4593 9.14754 47.5321 9.14408 47.6052C9.13942 47.6931 9.13942 47.7812 9.14408 47.8691C9.14408 48.7065 9.47675 49.5096 10.0689 50.1018C10.661 50.6939 11.4642 51.0266 12.3016 51.0266C13.139 51.0266 13.9421 50.6939 14.5343 50.1018C15.1264 49.5096 15.4591 48.7065 15.4591 47.8691L15.4468 47.8813Z" fill="#644E77"/>
<path d="M9.0858 35.8709C8.56153 35.8703 8.03845 35.9207 7.52393 36.0213V35.8678C8.03845 35.7672 8.56153 35.7169 9.0858 35.7175C13.7162 35.7175 21.9214 35.6592 24.8917 35.3155C28.4635 34.9074 35.0178 33.7168 39.4119 30.2954C39.4231 30.3499 39.4283 30.4055 39.4273 30.4611C34.9933 33.861 28.4758 35.0485 24.9101 35.4567C21.9306 35.8126 13.7162 35.8678 9.0858 35.8709Z" fill="#644E77"/>
<path d="M9.0858 36.3314C8.56094 36.3313 8.03749 36.3858 7.52393 36.4941V36.0215C8.03845 35.9209 8.56153 35.8706 9.0858 35.8712C13.7162 35.8712 21.9306 35.8129 24.9101 35.4692C28.4758 35.0611 34.9933 33.8735 39.4273 30.4736V30.6148H40.0011C35.5947 34.1559 28.9943 35.4692 24.9654 35.9325C21.8877 36.2823 13.4891 36.3284 9.0858 36.3314Z" fill="#644E77"/>
<path d="M10.3222 29.8907H7.68635C7.74966 29.7774 7.82927 29.674 7.92262 29.5838C8.04289 29.4619 8.18624 29.3653 8.3443 29.2994C8.50235 29.2335 8.67195 29.1998 8.84318 29.2003L15.9713 29.188H30.5499H38.1352C38.4195 29.1881 38.696 29.2811 38.9225 29.4528C39.1491 29.6245 39.3133 29.8656 39.3903 30.1392C34.9961 33.5606 28.4479 34.7543 24.87 35.1655C21.9059 35.5061 13.7037 35.5613 9.07945 35.5644C8.55536 35.5643 8.03242 35.6136 7.51758 35.7117V34.4996H10.2608V33.8859H7.51758V32.5419H10.2792V31.9282H7.51758V30.5075H10.3191L10.3222 29.8907Z" fill="white"/>
<path d="M7.52393 36.4943C8.03749 36.386 8.56094 36.3315 9.0858 36.3317C13.4891 36.3317 21.8877 36.2826 24.9623 35.9266C28.9974 35.4633 35.5978 34.15 39.998 30.6089H40.7283C40.6486 30.6795 40.5657 30.75 40.4798 30.8175C35.877 34.6532 28.8194 35.9573 25.0083 36.39C22.1393 36.7214 14.7626 36.795 9.08273 36.7981C8.56686 36.7984 8.05251 36.8539 7.54847 36.9638L7.52393 36.8533V36.4943Z" fill="#644E77"/>
<path d="M7.49951 29.8937C7.61541 29.6379 7.80275 29.421 8.03901 29.2691C8.27527 29.1172 8.55038 29.0368 8.83125 29.0376H15.9594V29.191H8.83125C8.66002 29.1906 8.49042 29.2243 8.33237 29.2902C8.17431 29.356 8.03096 29.4527 7.91069 29.5746C7.81734 29.6648 7.73773 29.7681 7.67442 29.8814L7.49951 29.8937Z" fill="#644E77"/>
<path d="M9.0858 35.7178C8.56153 35.7172 8.03845 35.7676 7.52393 35.8681V35.7117C8.03876 35.6136 8.5617 35.5643 9.0858 35.5644C13.7101 35.5644 21.9122 35.5061 24.8764 35.1655C28.4481 34.7543 35.0025 33.5606 39.3782 30.127C39.3944 30.1821 39.4057 30.2386 39.4119 30.2957C35.0025 33.7171 28.4635 34.8985 24.8917 35.3158C21.9214 35.6595 13.7162 35.7147 9.0858 35.7178Z" fill="#644E77"/>
<path d="M6.84863 29.8814C6.98069 29.459 7.2442 29.0897 7.60077 28.8276C7.95733 28.5654 8.38832 28.4239 8.8309 28.4238H15.8056H15.9591V28.881H8.8309C8.50919 28.8813 8.19487 28.9775 7.92812 29.1573C7.66137 29.3371 7.45433 29.5924 7.33346 29.8906H6.91921L6.84863 29.8814Z" fill="#644E77"/>
<path d="M7.79677 29.4637C7.66924 29.5871 7.56526 29.7327 7.48992 29.8933H7.32422C7.44509 29.5952 7.65213 29.3399 7.91888 29.16C8.18563 28.9802 8.49995 28.884 8.82165 28.8838H15.9713V29.0341H8.84313C8.64885 29.0321 8.45612 29.069 8.27638 29.1428C8.09664 29.2166 7.93355 29.3257 7.79677 29.4637Z" fill="#644E77"/>
<path d="M7.52354 36.0215V36.494L7.37012 36.5278V36.0552L7.52354 36.0215Z" fill="#644E77"/>
<path d="M7.52354 35.8682V36.0216L7.37012 36.0553V35.8988L7.52354 35.8682Z" fill="#644E77"/>
<path d="M7.52354 34.4995V35.7116L7.37012 35.7423V34.4995H7.52354Z" fill="#644E77"/>
<path d="M7.52354 33.8857H7.37012V34.4994H7.52354V33.8857Z" fill="#644E77"/>
<path d="M7.51768 32.542L7.52382 33.886H7.3704L7.36426 32.542H7.51768Z" fill="#644E77"/>
<path d="M7.52061 31.9282H7.36719V32.5419H7.52061V31.9282Z" fill="#644E77"/>
<path d="M7.52061 30.5073H7.36719V31.928H7.52061V30.5073Z" fill="#644E77"/>
<path d="M7.37943 30.498C7.37802 30.2862 7.42306 30.0767 7.51137 29.8843H7.68628C7.58565 30.0731 7.53395 30.2841 7.53592 30.498H7.37943Z" fill="#644E77"/>
<path d="M7.37939 35.8991V35.7426L7.53282 35.7119V35.8684L7.37939 35.8991Z" fill="#644E77"/>
<path d="M7.37933 36.5278V36.6935H6.76562C6.95894 36.6291 7.16146 36.5739 7.37933 36.5278Z" fill="#644E77"/>
<path d="M7.37933 36.0552V36.5277C7.17067 36.5738 6.96815 36.629 6.76562 36.6934V36.5523H7.2259V36.1012L7.37933 36.0552Z" fill="#644E77"/>
<path d="M7.3795 34.4995V35.7423L7.22607 35.776V34.4995H7.3795Z" fill="#644E77"/>
<path d="M7.37022 33.8857H7.2168V34.4994H7.37022V33.8857Z" fill="#644E77"/>
<path d="M7.36388 32.542L7.37001 33.886H7.21659L7.21045 32.542H7.36388Z" fill="#644E77"/>
<path d="M7.2168 35.9383V35.7818L7.37022 35.748V35.9045L7.2168 35.9383Z" fill="#644E77"/>
<path d="M7.36729 31.9282H7.21387V32.5419H7.36729V31.9282Z" fill="#644E77"/>
<path d="M7.36729 30.5073H7.21387V31.928H7.36729V30.5073Z" fill="#644E77"/>
<path d="M7.21395 30.498C7.21173 30.2874 7.25245 30.0786 7.33363 29.8843H7.49933C7.41101 30.0767 7.36597 30.2862 7.36738 30.498H7.21395Z" fill="#644E77"/>
<path d="M7.3795 36.0551L7.22607 36.0889V35.9385L7.3795 35.9048V36.0551Z" fill="#644E77"/>
<path d="M7.2167 36.0889V36.5522H6.76562V36.2239C6.90985 36.1656 7.07248 36.1257 7.2167 36.0889Z" fill="#644E77"/>
<path d="M7.21645 33.8857H6.92188V34.4994H7.21645V33.8857Z" fill="#644E77"/>
<path d="M7.21382 31.9282H6.99902V32.5419H7.21382V31.9282Z" fill="#644E77"/>
<path d="M6.91895 30.5073V29.8936H7.33319C7.25202 30.0879 7.2113 30.2967 7.21352 30.5073H6.91895Z" fill="#644E77"/>
<path d="M12.2891 42.3423C13.5053 42.3423 14.6877 42.7425 15.654 43.4811C16.6203 44.2196 17.3168 45.2556 17.6361 46.4291C17.9555 47.6027 17.8798 48.8487 17.4209 49.975C16.962 51.1014 16.1453 52.0455 15.0968 52.6617L13.8694 52.7047C15.0345 52.3205 16.0212 51.5276 16.647 50.4724C17.2729 49.4172 17.4956 48.1711 17.2741 46.9645C17.0525 45.7578 16.4016 44.6722 15.4417 43.9082C14.4818 43.1442 13.2778 42.7535 12.0522 42.8083C10.8266 42.8632 9.66227 43.3598 8.77444 44.2065C7.8866 45.0532 7.33527 46.1926 7.22235 47.4142C7.10943 48.6359 7.44256 49.8571 8.16016 50.8521C8.87776 51.8472 9.93132 52.5488 11.1261 52.8274L9.91711 52.8949C8.7783 52.357 7.85668 51.4472 7.30409 50.3155C6.7515 49.1837 6.60089 47.8975 6.8771 46.6687C7.1533 45.4399 7.83983 44.3418 8.82358 43.5554C9.80733 42.769 11.0296 42.3411 12.2891 42.3423Z" fill="#644E77"/>
<path d="M6.91905 29.8935V30.5072H7.2259V31.9279H7.01111V32.5416H7.2259V33.8856H6.91905V34.4993H7.2259V35.7758C7.07248 35.8106 6.91905 35.8505 6.76562 35.8955V30.498C6.76607 30.2898 6.79815 30.0828 6.86075 29.8843L6.91905 29.8935Z" fill="#644E77"/>
<path d="M6.76562 36.2114V36.0549C6.91905 36.0088 7.07248 35.969 7.2259 35.9321V36.0886C7.07248 36.1254 6.90985 36.1653 6.76562 36.2114Z" fill="#644E77"/>
<path d="M7.21663 35.9387C7.0632 35.9755 6.90977 36.0154 6.75635 36.0615V35.9019C6.90977 35.8548 7.0632 35.815 7.21663 35.7822V35.9387Z" fill="#644E77"/>
<path d="M8.83063 28.4237C8.28046 28.4245 7.753 28.6432 7.36368 29.0319C6.97435 29.4207 6.75487 29.9478 6.75325 30.498V35.8955C6.67653 35.9139 6.59675 35.9385 6.52004 35.963C6.44333 35.9875 6.36968 36.0121 6.29297 36.0428V30.498C6.29459 29.8257 6.56257 29.1815 7.03821 28.7065C7.51385 28.2314 8.15838 27.9642 8.83063 27.9634H15.8054V28.4206L8.83063 28.4237Z" fill="#644E77"/>
<path d="M6.76594 36.2119V36.5525H6.30566V36.3776C6.40999 36.3377 6.51739 36.3009 6.61252 36.2671L6.76594 36.2119Z" fill="#644E77"/>
<path d="M17.8308 47.8785C17.8301 46.8864 17.563 45.9126 17.0574 45.0589C16.5519 44.2053 15.8264 43.503 14.9568 43.0253C14.0872 42.5477 13.1053 42.3123 12.1137 42.3437C11.1221 42.3751 10.157 42.6722 9.31937 43.2038C8.48171 43.7355 7.80215 44.4823 7.35163 45.3662C6.90111 46.2502 6.69615 47.2389 6.75816 48.2291C6.82017 49.2193 7.14688 50.1747 7.70416 50.9955C8.26144 51.8163 9.02887 52.4725 9.92631 52.8955L9.07633 52.9446C7.98568 52.2469 7.15018 51.2149 6.69474 50.0029C6.2393 48.791 6.18839 47.4641 6.54964 46.2208C6.91089 44.9775 7.66488 43.8846 8.69887 43.1054C9.73285 42.3262 10.9913 41.9026 12.286 41.8979C13.5367 41.8986 14.756 42.2903 15.773 43.0183C16.79 43.7464 17.5539 44.7742 17.9577 45.9579C18.3615 47.1417 18.3851 48.4221 18.025 49.6199C17.665 50.8176 16.9394 51.8729 15.9498 52.6378L15.0906 52.6684C15.9273 52.1804 16.6208 51.4809 17.1018 50.6402C17.5827 49.7995 17.8341 48.8471 17.8308 47.8785Z" fill="#644E77"/>
<path d="M6.56942 36.1104L6.7566 36.0552V36.2117L6.61545 36.2546C6.50805 36.2884 6.40065 36.3252 6.30859 36.3651V36.2055L6.56942 36.1104Z" fill="#644E77"/>
<path d="M6.76594 36.0556L6.57876 36.1108L6.30566 36.2059V36.0433C6.38238 36.0126 6.45602 35.9881 6.53273 35.9635C6.60945 35.939 6.68923 35.9144 6.76594 35.896V36.0556Z" fill="#644E77"/>
<path d="M6.15186 36.6936V36.4266C6.20191 36.4035 6.25312 36.383 6.30528 36.3652V36.5524H6.76556V36.7058L6.15186 36.6936Z" fill="#644E77"/>
<path d="M6.15192 30.4981C6.15274 29.7849 6.43662 29.1012 6.94121 28.5972C7.4458 28.0932 8.12982 27.8101 8.84301 27.8101H15.8177V27.9604H8.83074C8.15849 27.9612 7.51396 28.2284 7.03832 28.7035C6.56268 29.1786 6.2947 29.8228 6.29307 30.495V36.0398C6.24083 36.055 6.18959 36.0735 6.13965 36.0951L6.15192 30.4981Z" fill="#644E77"/>
<path d="M6.29649 36.3651C6.24433 36.3829 6.19312 36.4034 6.14307 36.4265V36.2608C6.19216 36.2424 6.24433 36.2209 6.29649 36.2056V36.3651Z" fill="#644E77"/>
<path d="M6.29649 36.2056C6.24433 36.2056 6.19216 36.2424 6.14307 36.2608V36.0982C6.193 36.0766 6.24425 36.0582 6.29649 36.043V36.2056Z" fill="#644E77"/>
<path d="M6.76566 36.6932H7.37937V36.5275L7.53279 36.4937V36.8589H5.99854V36.4998C6.04836 36.4762 6.0996 36.4557 6.15196 36.4385V36.7054L6.76566 36.6932Z" fill="#644E77"/>
<path d="M6.15196 36.2612V36.4269C6.0996 36.4442 6.04836 36.4647 5.99854 36.4883V36.3257C6.03843 36.3011 6.09059 36.2827 6.15196 36.2612Z" fill="#644E77"/>
<path d="M6.82097 28.4883C7.08445 28.2238 7.39772 28.0142 7.7427 27.8714C8.08767 27.7287 8.45751 27.6557 8.83085 27.6567H15.8056V27.8102H8.83085C8.11766 27.8102 7.43363 28.0933 6.92904 28.5973C6.42445 29.1013 6.14057 29.785 6.13976 30.4982V36.0982C6.08739 36.1155 6.03615 36.136 5.98633 36.1596V30.4982C5.98588 30.1247 6.05941 29.7548 6.20266 29.4098C6.34591 29.0648 6.55606 28.7516 6.82097 28.4883Z" fill="#644E77"/>
<path d="M6.15196 36.2613C6.0998 36.2827 6.04763 36.3012 5.99854 36.3257V36.16C6.04836 36.1364 6.0996 36.1159 6.15196 36.0986V36.2613Z" fill="#644E77"/>
<path d="M7.54827 36.9578C7.3304 37.0069 7.11254 37.0652 6.89774 37.1327C6.00181 37.4214 5.17268 37.8864 4.45915 38.5003C3.74562 39.1142 3.16212 39.8647 2.74297 40.7075C1.47567 43.2789 1.26701 46.1879 1.23326 47.3171V47.4766H3.78013V47.3355C3.91646 45.1726 4.87177 43.1429 6.45167 41.6595C8.03157 40.176 10.1173 39.3503 12.2845 39.3503C14.4517 39.3503 16.5375 40.176 18.1174 41.6595C19.6973 43.1429 20.6526 45.1726 20.7889 47.3355V47.4797H32.6211V47.3355C32.7641 45.1759 33.7215 43.1512 35.2998 41.6703C36.8781 40.1894 38.9597 39.3627 41.124 39.3573C41.7752 39.351 42.4246 39.4263 43.0571 39.5813L42.9835 39.7194C42.9452 39.7904 42.9213 39.8681 42.913 39.9483C42.9048 40.0285 42.9125 40.1095 42.9355 40.1867C42.9586 40.2639 42.9967 40.3358 43.0476 40.3983C43.0984 40.4608 43.1611 40.5127 43.232 40.551C43.2659 40.5697 43.302 40.5842 43.3394 40.594L43.2198 40.5602L43.0326 40.5111C41.9082 40.2189 40.7319 40.1884 39.5939 40.4217C38.4559 40.6551 37.3865 41.1463 36.4679 41.8574C35.5494 42.5686 34.806 43.4808 34.295 44.5241C33.784 45.5673 33.519 46.7139 33.5202 47.8755V48.3819H19.8653V47.8755C19.8856 46.8644 19.704 45.8593 19.3311 44.9191C18.9581 43.979 18.4014 43.1227 17.6935 42.4004C16.9855 41.6781 16.1406 41.1043 15.2081 40.7125C14.2757 40.3208 13.2744 40.119 12.263 40.119C11.2516 40.119 10.2504 40.3208 9.31796 40.7125C8.3855 41.1043 7.54057 41.6781 6.83262 42.4004C6.12468 43.1227 5.56794 43.979 5.19502 44.9191C4.8221 45.8593 4.64048 46.8644 4.66079 47.8755V48.3819H0.321911V47.9553C0.321911 47.7866 0.183828 43.8435 1.92981 40.2994C2.78443 38.5805 4.23014 37.2274 6.00174 36.4883V36.8596H7.53599L7.54827 36.9578Z" fill="#644E77"/>
<path d="M6.9438 37.2797C7.63797 37.0568 8.36272 36.944 9.09176 36.9452C14.7747 36.9452 22.1575 36.8685 25.048 36.5371C28.8622 36.1013 35.9505 34.7911 40.5993 30.9278C40.7312 30.8204 40.8601 30.71 40.9829 30.6026L41.1179 30.4798C44.1864 27.6813 47.6477 25.785 50.9617 25.0547L50.8635 25.2296C47.617 25.9783 44.2386 27.8501 41.2191 30.5934C41.0534 30.7468 40.8785 30.9002 40.6975 31.0475C36.018 34.9353 28.896 36.264 25.0665 36.6874C22.179 37.0219 14.7931 37.0955 9.11017 37.0986C8.39805 37.0992 7.69021 37.2089 7.01131 37.4239C6.15169 37.6981 5.35578 38.142 4.67062 38.7291C3.98546 39.3162 3.42496 40.0347 3.02224 40.8422C1.84086 43.2479 1.59845 45.9636 1.55242 47.1695H3.49786C3.68233 44.9623 4.68943 42.9051 6.31948 41.4056C7.94953 39.9061 10.0835 39.0738 12.2984 39.0738C14.5132 39.0738 16.6472 39.9061 18.2773 41.4056C19.9073 42.9051 20.9144 44.9623 21.0989 47.1695H32.3573C32.5409 44.9608 33.5467 42.9013 35.1757 41.3985C36.8047 39.8956 38.9383 39.0587 41.1547 39.0533C41.8582 39.0469 42.5595 39.1315 43.2413 39.3049L43.1646 39.443C42.5064 39.2844 41.8317 39.205 41.1547 39.2067C38.9521 39.2112 36.8332 40.0516 35.2264 41.5582C33.6196 43.0648 32.6446 45.1251 32.4984 47.3229H20.9547C20.8127 45.122 19.8377 43.0578 18.2279 41.5501C16.6182 40.0424 14.4947 39.2044 12.2892 39.2067C10.0873 39.2112 7.96929 40.0513 6.36304 41.5573C4.75679 43.0633 3.7821 45.1229 3.63594 47.3198H1.38672C1.42047 46.117 1.63834 43.2909 2.87802 40.7716C3.28889 39.9481 3.86021 39.2149 4.55841 38.6152C5.25662 38.0156 6.06763 37.5615 6.9438 37.2797Z" fill="#644E77"/>
<path d="M12.2888 39.2064C14.4918 39.2056 16.6126 40.043 18.2207 41.5486C19.8289 43.0542 20.804 45.1152 20.9482 47.3135H32.492C32.6381 45.1157 33.6131 43.0553 35.22 41.5487C36.8268 40.0422 38.9456 39.2017 41.1482 39.1972C41.8252 39.1956 42.5 39.2749 43.1581 39.4335L43.0814 39.5747C42.4489 39.4196 41.7995 39.3443 41.1482 39.3507C38.984 39.356 36.9024 40.1827 35.3241 41.6636C33.7458 43.1445 32.7884 45.1693 32.6454 47.3288V47.473H20.8132V47.3288C20.6769 45.1659 19.7215 43.1362 18.1416 41.6528C16.5617 40.1693 14.476 39.3436 12.3088 39.3436C10.1416 39.3436 8.05584 40.1693 6.47594 41.6528C4.89604 43.1362 3.94073 45.1659 3.8044 47.3288V47.47H1.24219V47.3104C1.27594 46.1812 1.4846 43.2722 2.7519 40.7008C3.17104 39.858 3.75455 39.1075 4.46808 38.4936C5.18161 37.8797 6.01074 37.4147 6.90667 37.126C7.12146 37.0585 7.33933 37.0002 7.5572 36.9511C8.06123 36.8412 8.57558 36.7857 9.09145 36.7854C14.7713 36.7854 22.148 36.7087 25.0171 36.3773C28.8128 35.9446 35.8704 34.6405 40.4885 30.8049C40.5744 30.7373 40.6573 30.6668 40.7371 30.5962H40.9703C40.8475 30.7036 40.7187 30.8141 40.5867 30.9215C35.9348 34.7909 28.8588 36.1011 25.0324 36.5522C22.1541 36.8836 14.7713 36.9572 9.07611 36.9603C8.34706 36.9591 7.62231 37.0719 6.92815 37.2948C6.05171 37.5769 5.24053 38.0315 4.54231 38.6317C3.84408 39.2319 3.27291 39.9657 2.86236 40.7898C1.63496 43.3091 1.40482 46.1352 1.37106 47.338H3.61722C3.75912 45.1346 4.73444 43.0678 6.34507 41.5575C7.95571 40.0472 10.0809 39.2066 12.2888 39.2064Z" fill="#644E77"/>
<path d="M12.2888 40.2807C14.3052 40.2806 16.2391 41.0812 17.6655 42.5065C19.0918 43.9317 19.894 45.865 19.8956 47.8814V48.3877H33.5505V47.8752C33.5493 46.7135 33.8144 45.567 34.3254 44.5238C34.8364 43.4805 35.5797 42.5683 36.4983 41.8571C37.4169 41.1459 38.4862 40.6548 39.6242 40.4214C40.7622 40.188 41.9386 40.2186 43.0629 40.5108L43.2501 40.5599L43.3698 40.5936C44.9333 41.0619 46.3033 42.0236 47.2751 43.335C48.2469 44.6463 48.7682 46.2369 48.7612 47.8691V48.7068L49.47 48.2588C50.4109 47.6512 51.2806 46.94 52.0629 46.1385H52.2746C51.4599 46.9948 50.545 47.75 49.5498 48.3877L48.6077 48.986V47.8691C48.6143 46.2703 48.1035 44.7122 47.1517 43.4275C46.2 42.1428 44.8582 41.2004 43.3268 40.7409L43.2348 40.7164L43.0261 40.6581C42.4165 40.5019 41.7897 40.4225 41.1604 40.4218C39.185 40.4259 37.2917 41.2131 35.8956 42.6108C34.4996 44.0086 33.7148 45.9028 33.7132 47.8783V48.538H19.7514V47.8783C19.7506 46.8994 19.5569 45.9302 19.1813 45.0262C18.8058 44.1222 18.2558 43.3011 17.5627 42.6097C16.8697 41.9184 16.0472 41.3704 15.1423 40.9971C14.2373 40.6238 13.2677 40.4325 12.2888 40.4341C10.3141 40.4381 8.42159 41.225 7.02615 42.6222C5.6307 44.0194 4.84617 45.9128 4.84455 47.8875V48.5472H0.180406L0.155857 47.9581C0.155857 47.7893 0.0177743 43.8033 1.7791 40.2285C2.65924 38.4567 4.15645 37.0675 5.98911 36.3223V36.4849C4.21699 37.2248 2.77121 38.579 1.91719 40.2991C0.171199 43.8432 0.303146 47.7862 0.309283 47.955L0.321557 48.3969H4.68192V47.8906C4.68273 45.8731 5.48433 43.9384 6.91063 42.5115C8.33692 41.0847 10.2713 40.2823 12.2888 40.2807Z" fill="#644E77"/>
<path d="M4.8417 47.8877C4.84332 45.9125 5.62827 44.0186 7.02438 42.6213C8.42049 41.2241 10.3138 40.4376 12.289 40.4343C14.2644 40.4343 16.159 41.2188 17.5561 42.6154C18.9532 44.0119 19.7385 45.9062 19.7393 47.8816V48.5413H33.7011V47.8755C33.7027 45.9 34.4876 44.0057 35.8836 42.608C37.2796 41.2102 39.1729 40.423 41.1484 40.419C41.7777 40.4197 42.4044 40.499 43.014 40.6552L43.2227 40.7136L43.3148 40.7381C44.8462 41.1975 46.1879 42.14 47.1397 43.4247C48.0915 44.7094 48.6022 46.2674 48.5957 47.8663V48.9832L49.5377 48.3848C50.533 47.7472 51.4478 46.992 52.2626 46.1356H52.4866C51.6375 47.0435 50.6789 47.8423 49.6328 48.5137L48.4576 49.2624V47.8663C48.4637 46.2998 47.9629 44.7735 47.0298 43.5152C46.0968 42.257 44.7817 41.3344 43.281 40.8854L43.192 40.8608L42.9895 40.8056C42.388 40.6509 41.7694 40.5726 41.1484 40.5724C39.2131 40.5757 37.358 41.3463 35.9901 42.7154C34.6222 44.0844 33.8531 45.9401 33.8515 47.8755V48.6886H19.5829V47.8755C19.6028 46.9048 19.4288 45.94 19.0711 45.0374C18.7134 44.1349 18.1792 43.3128 17.4998 42.6193C16.8204 41.9258 16.0094 41.3749 15.1144 40.9988C14.2194 40.6226 13.2583 40.4289 12.2875 40.4289C11.3166 40.4289 10.3555 40.6226 9.46051 40.9988C8.56549 41.3749 7.75452 41.9258 7.07511 42.6193C6.3957 43.3128 5.8615 44.1349 5.50382 45.0374C5.14613 45.94 4.97215 46.9048 4.99205 47.8755V48.6886H0.0333302L0.00264554 47.9491C0.00264554 47.7803 -0.138505 43.7637 1.64123 40.1489C2.54657 38.3232 4.09532 36.8968 5.98932 36.1445V36.3102C4.15352 37.06 2.65587 38.4561 1.77932 40.2349C0.0179885 43.8097 0.149934 47.7957 0.156071 47.9645L0.18062 48.5536H4.8417V47.8877Z" fill="#644E77"/>
</svg>
