<svg width="24" height="24" viewBox="0 0 24 24" fill="none" xmlns="http://www.w3.org/2000/svg">
<path d="M17.0437 14.7415C16.8287 14.549 16.4985 14.5677 16.307 14.7822C15.2186 15.9983 13.6492 16.6954 12 16.6954C10.3513 16.6954 8.78141 15.9983 7.69306 14.7822C7.50054 14.5677 7.17132 14.549 6.95637 14.7415C6.74141 14.9335 6.72367 15.2632 6.91567 15.4782C8.20176 16.915 10.055 17.7389 12 17.7389C13.9456 17.7389 15.7988 16.9145 17.0844 15.4782C17.2764 15.2632 17.2581 14.9335 17.0437 14.7415Z" fill="#A4ABB6"/>
<path d="M12 0C5.3833 0 0 5.3833 0 12C0 18.6167 5.3833 24 12 24C18.6167 24 24 18.6167 24 12C24 5.3833 18.6167 0 12 0ZM12 22.9565C5.95826 22.9565 1.04348 18.0417 1.04348 12C1.04348 5.95826 5.95826 1.04348 12 1.04348C18.0417 1.04348 22.9565 5.95826 22.9565 12C22.9565 18.0417 18.0417 22.9565 12 22.9565Z" fill="#A4ABB6"/>
<path d="M16.1739 8.34766C14.7355 8.34766 13.5652 9.51792 13.5652 10.9564C13.5652 11.2444 13.799 11.4781 14.087 11.4781C14.375 11.4781 14.6087 11.2444 14.6087 10.9564C14.6087 10.0934 15.311 9.39113 16.1739 9.39113C17.0369 9.39113 17.7391 10.0934 17.7391 10.9564C17.7391 11.2444 17.9729 11.4781 18.2609 11.4781C18.5489 11.4781 18.7826 11.2444 18.7826 10.9564C18.7826 9.51792 17.6123 8.34766 16.1739 8.34766Z" fill="#A4ABB6"/>
<path d="M9.39129 10.9564C9.39129 11.2444 9.62503 11.4781 9.91303 11.4781C10.201 11.4781 10.4348 11.2444 10.4348 10.9564C10.4348 9.51792 9.26451 8.34766 7.82607 8.34766C6.38764 8.34766 5.21738 9.51792 5.21738 10.9564C5.21738 11.2444 5.45112 11.4781 5.73912 11.4781C6.02712 11.4781 6.26085 11.2444 6.26085 10.9564C6.26085 10.0934 6.96312 9.39113 7.82607 9.39113C8.68903 9.39113 9.39129 10.0934 9.39129 10.9564Z" fill="#A4ABB6"/>
</svg>
