<svg width="69" height="40" viewBox="0 0 69 40" fill="none" xmlns="http://www.w3.org/2000/svg">
<path d="M37.4969 34.8047C37.9768 34.8047 38.3659 34.4121 38.3659 33.9278C38.3659 33.4434 37.9768 33.0508 37.4969 33.0508C37.017 33.0508 36.6279 33.4434 36.6279 33.9278C36.6279 34.4121 37.017 34.8047 37.4969 34.8047Z" fill="#DEDFE0"/>
<path d="M43.8905 33.0508C44.0623 33.0508 44.2303 33.1022 44.3732 33.1986C44.5161 33.2949 44.6275 33.4319 44.6933 33.5922C44.7591 33.7524 44.7763 33.9287 44.7427 34.0989C44.7092 34.269 44.6265 34.4252 44.5049 34.5479C44.3834 34.6705 44.2286 34.7541 44.06 34.7879C43.8914 34.8217 43.7167 34.8044 43.5579 34.738C43.3991 34.6716 43.2634 34.5592 43.1679 34.415C43.0725 34.2708 43.0215 34.1012 43.0215 33.9278C43.0211 33.8125 43.0433 33.6983 43.0869 33.5917C43.1304 33.4851 43.1944 33.3883 43.2752 33.3068C43.3559 33.2253 43.4519 33.1607 43.5575 33.1168C43.6631 33.0728 43.7762 33.0504 43.8905 33.0508Z" fill="#DEDFE0"/>
<path d="M50.2537 34.8047C50.7337 34.8047 51.1227 34.4121 51.1227 33.9278C51.1227 33.4434 50.7337 33.0508 50.2537 33.0508C49.7738 33.0508 49.3848 33.4434 49.3848 33.9278C49.3848 34.4121 49.7738 34.8047 50.2537 34.8047Z" fill="#DEDFE0"/>
<path d="M63.0107 33.0508C63.1827 33.0502 63.351 33.1012 63.4942 33.1972C63.6375 33.2932 63.7493 33.43 63.8155 33.5902C63.8817 33.7504 63.8993 33.9268 63.8661 34.0971C63.8329 34.2674 63.7504 34.4239 63.629 34.5469C63.5075 34.6698 63.3527 34.7536 63.1841 34.7877C63.0154 34.8217 62.8406 34.8045 62.6816 34.7383C62.5227 34.672 62.3868 34.5596 62.2912 34.4153C62.1956 34.271 62.1445 34.1013 62.1445 33.9278C62.1445 33.6957 62.2357 33.473 62.3981 33.3086C62.5604 33.1443 62.7807 33.0515 63.0107 33.0508Z" fill="#DEDFE0"/>
<path d="M56.6336 34.8047C57.1135 34.8047 57.5026 34.4121 57.5026 33.9278C57.5026 33.4434 57.1135 33.0508 56.6336 33.0508C56.1537 33.0508 55.7646 33.4434 55.7646 33.9278C55.7646 34.4121 56.1537 34.8047 56.6336 34.8047Z" fill="#DEDFE0"/>
<path d="M62.5009 29.9528C63.2836 29.9453 64.0507 30.1742 64.7035 30.6102C65.3563 31.0461 65.8651 31.669 66.1643 32.399C66.4636 33.129 66.5397 33.9326 66.3829 34.7066C66.2261 35.4805 65.8436 36.1895 65.2844 36.7423C65.1517 36.8781 65.0093 37.0038 64.8583 37.1186C59.367 36.5188 47.8376 36.1058 34.503 36.1058H34.2648C33.8721 35.5074 33.6479 34.8126 33.6162 34.0956C33.5845 33.3787 33.7464 32.6665 34.0847 32.0351C34.4229 31.4038 34.9248 30.8771 35.5366 30.5114C36.1485 30.1456 36.8473 29.9545 37.5585 29.9585L62.5009 29.9528ZM63.88 33.9275C63.88 33.7541 63.8291 33.5845 63.7336 33.4403C63.6381 33.2961 63.5024 33.1837 63.3436 33.1173C63.1848 33.0509 63.0101 33.0335 62.8415 33.0674C62.673 33.1012 62.5181 33.1847 62.3966 33.3074C62.2751 33.43 62.1923 33.5863 62.1588 33.7564C62.1252 33.9265 62.1425 34.1029 62.2082 34.2631C62.274 34.4234 62.3854 34.5603 62.5283 34.6567C62.6712 34.7531 62.8392 34.8045 63.011 34.8045C63.1252 34.8045 63.2382 34.7818 63.3436 34.7377C63.449 34.6937 63.5448 34.6291 63.6255 34.5476C63.7062 34.4662 63.7702 34.3695 63.8139 34.2631C63.8575 34.1567 63.88 34.0427 63.88 33.9275ZM57.5029 33.9275C57.5029 33.7541 57.4519 33.5845 57.3564 33.4403C57.2609 33.2961 57.1252 33.1837 56.9664 33.1173C56.8077 33.0509 56.6329 33.0335 56.4644 33.0674C56.2958 33.1012 56.141 33.1847 56.0194 33.3074C55.8979 33.43 55.8151 33.5863 55.7816 33.7564C55.7481 33.9265 55.7653 34.1029 55.8311 34.2631C55.8968 34.4234 56.0082 34.5603 56.1511 34.6567C56.294 34.7531 56.462 34.8045 56.6339 34.8045C56.748 34.8045 56.861 34.7818 56.9664 34.7377C57.0719 34.6937 57.1677 34.6291 57.2484 34.5476C57.329 34.4662 57.3931 34.3695 57.4367 34.2631C57.4804 34.1567 57.5029 34.0427 57.5029 33.9275ZM51.1229 33.9275C51.1229 33.7541 51.0719 33.5845 50.9765 33.4403C50.881 33.2961 50.7453 33.1837 50.5865 33.1173C50.4277 33.0509 50.253 33.0335 50.0844 33.0674C49.9158 33.1012 49.761 33.1847 49.6395 33.3074C49.5179 33.43 49.4352 33.5863 49.4017 33.7564C49.3681 33.9265 49.3853 34.1029 49.4511 34.2631C49.5169 34.4234 49.6282 34.5603 49.7712 34.6567C49.9141 34.7531 50.0821 34.8045 50.2539 34.8045C50.4844 34.8045 50.7054 34.7121 50.8684 34.5476C51.0314 34.3832 51.1229 34.1601 51.1229 33.9275ZM44.7429 33.9275C44.7429 33.7539 44.6919 33.5843 44.5963 33.44C44.5007 33.2957 44.3648 33.1833 44.2059 33.117C44.0469 33.0507 43.872 33.0335 43.7034 33.0676C43.5348 33.1017 43.3799 33.1855 43.2585 33.3084C43.1371 33.4313 43.0546 33.5879 43.0213 33.7582C42.9881 33.9285 43.0057 34.1049 43.0719 34.2651C43.1381 34.4253 43.25 34.562 43.3932 34.6581C43.5365 34.7541 43.7048 34.805 43.8768 34.8045C44.105 34.8015 44.3229 34.7077 44.483 34.5435C44.6431 34.3793 44.7325 34.1579 44.7317 33.9275H44.7429ZM38.3658 33.9275C38.3658 33.7541 38.3148 33.5845 38.2193 33.4403C38.1239 33.2961 37.9881 33.1837 37.8293 33.1173C37.6706 33.0509 37.4958 33.0335 37.3273 33.0674C37.1587 33.1012 37.0039 33.1847 36.8824 33.3074C36.7608 33.43 36.6781 33.5863 36.6445 33.7564C36.611 33.9265 36.6282 34.1029 36.694 34.2631C36.7598 34.4234 36.8711 34.5603 37.014 34.6567C37.1569 34.7531 37.3249 34.8045 37.4968 34.8045C37.7273 34.8045 37.9483 34.7121 38.1113 34.5476C38.2742 34.3832 38.3658 34.1601 38.3658 33.9275Z" fill="white"/>
<path d="M16.7002 26.1L13.9868 32.3775C10.0035 31.8343 6.10993 30.434 4.24023 27.523C4.40282 27.4409 10.2698 24.3857 16.7002 26.1Z" fill="#DEDFE0"/>
<path d="M24.4846 32.0348L24.0081 32.1395C21.7656 32.626 17.8412 32.9004 13.998 32.3771L16.7003 26.0996C16.8292 26.1336 16.9582 26.1675 17.0871 26.2071C23.7782 28.1648 24.4846 32.0348 24.4846 32.0348Z" fill="#DEDFE0"/>
<path d="M68.0647 27.2229C68.2127 27.5093 68.2844 27.8296 68.273 28.1524C68.2616 28.4752 68.1674 28.7895 67.9996 29.0646C67.8319 29.3397 67.5962 29.5662 67.3158 29.7218C67.0354 29.8775 66.7197 29.9571 66.3996 29.9529H33.1768C42.0711 27.7717 54.5732 24.6372 60.4514 23.1633L60.8102 23.0728L62.8789 22.5608C63.5928 22.3834 64.3452 22.4572 65.0119 22.77C65.6786 23.0827 66.2196 23.6157 66.5454 24.2808L68.0647 27.2229Z" fill="#DEDFE0"/>
<path d="M62.3916 12.637L63.7539 22.3319L60.8106 23.0731L60.4518 23.1636C54.5652 24.6403 42.0716 27.7748 33.1772 29.9531C29.3257 30.898 26.1525 31.6505 24.4874 32.0352C24.4874 32.0352 23.781 28.1765 17.1012 26.2076C16.9722 26.168 16.8433 26.134 16.7143 26.1001C10.2671 24.3857 4.4057 27.441 4.25433 27.5146C3.91417 26.9877 3.64636 26.4167 3.45824 25.8172C3.14436 24.787 3.13384 23.687 3.42795 22.6509C3.72206 21.6148 4.30813 20.6872 5.1149 19.981C8.87111 16.6372 16.804 13.4744 21.1741 12.1901L21.746 12.0401L21.973 11.9807C27.156 10.6143 29.1098 12.7389 29.1098 12.7389C29.0928 11.7498 29.1359 10.7607 29.2388 9.77695L32.07 8.92826C32.1364 8.90764 32.2063 8.9008 32.2754 8.90812C32.3445 8.91544 32.4114 8.93679 32.4722 8.97087C32.5329 9.00495 32.5862 9.05108 32.6288 9.10646C32.6715 9.16185 32.7026 9.22537 32.7203 9.29319C33.2529 11.2735 35.5851 18.2723 42.0436 17.8848C50.1727 17.1011 55.0305 13.1547 59.0615 10.9566C59.383 10.7826 59.7412 10.689 60.106 10.6837C60.4708 10.6784 60.8315 10.7616 61.1578 10.9263C61.4841 11.091 61.7665 11.3323 61.9812 11.63C62.1959 11.9277 62.3366 12.273 62.3916 12.637Z" fill="white"/>
<path d="M29.2389 9.77655C29.1386 10.7623 29.0983 11.7534 29.1184 12.7441C29.1184 12.7441 27.1562 10.6196 21.9816 11.986L21.7461 12.0397C22.2282 7.48226 27.7785 2.90783 30.5452 0.896434C30.6387 0.827029 30.7522 0.790535 30.8682 0.79256C30.9843 0.794586 31.0965 0.83502 31.1875 0.907648C31.2786 0.980276 31.3435 1.08108 31.3723 1.19456C31.4011 1.30804 31.3922 1.42792 31.3469 1.53578C30.255 4.16604 29.545 6.94158 29.2389 9.77655Z" fill="#DEDFE0"/>
<path d="M11.7296 37.6447V37.6221L12.1922 36.5499C18.0788 36.267 25.8042 36.1029 34.2613 36.1001C34.6179 36.6538 35.1061 37.1087 35.6813 37.4234C36.2566 37.7381 36.9007 37.9027 37.555 37.9021H62.503C63.3518 37.903 64.178 37.626 64.8577 37.1129C67.0469 37.3505 68.2775 37.6192 68.2775 37.9021C68.2775 38.8979 53.1545 39.7042 34.4996 39.7042C15.8447 39.7042 0.72168 38.8979 0.72168 37.9021C0.72168 37.5825 2.28864 37.2798 5.03572 37.0223C5.57928 37.1891 6.13652 37.3065 6.70079 37.3731C7.79682 37.5174 9.63849 37.5994 11.7296 37.6447Z" fill="#DEDFE0"/>
<path d="M64.8551 37.1129C64.1755 37.626 63.3493 37.903 62.5005 37.9021H37.5525C36.8981 37.9027 36.254 37.7381 35.6788 37.4234C35.1035 37.1087 34.6154 36.6538 34.2588 36.1001H34.4971C47.8344 36.1001 59.3638 36.5131 64.8551 37.1129Z" fill="white"/>
<path d="M12.1926 36.5498L11.73 37.622V37.6446C9.6389 37.5994 7.80564 37.5173 6.7012 37.3617C6.13693 37.2951 5.57969 37.1777 5.03613 37.0109C6.91144 36.8412 9.33896 36.6828 12.1926 36.5498Z" fill="#DEDFE0"/>
<path d="M60.8099 23.073L63.7504 22.3346L62.3909 12.6369C62.3381 12.2718 62.199 11.9249 61.9855 11.6255C61.7719 11.326 61.4901 11.0828 61.1639 10.9164C60.8376 10.7499 60.4765 10.6652 60.1109 10.6692C59.7453 10.6732 59.3861 10.7659 59.0635 10.9395C55.0326 13.1376 50.1888 17.084 42.0456 17.8677C35.5984 18.2552 33.255 11.2705 32.7224 9.2761C32.7047 9.20828 32.6735 9.14477 32.6309 9.08938C32.5883 9.03399 32.535 8.98787 32.4742 8.95378C32.4135 8.9197 32.3466 8.89835 32.2774 8.89103C32.2083 8.88371 32.1385 8.89056 32.072 8.91117L29.2409 9.75986L29.168 9.78249" stroke="#644E77" stroke-width="1.12126" stroke-linecap="round" stroke-linejoin="round"/>
<path d="M33.1768 29.9526C42.0711 27.7715 54.5732 24.637 60.4514 23.1631" stroke="#644E77" stroke-width="1.12126" stroke-linecap="round" stroke-linejoin="round"/>
<path d="M21.7455 12.0397C22.2276 7.48226 27.7778 2.90783 30.5445 0.896434C30.638 0.827029 30.7515 0.790535 30.8676 0.79256C30.9837 0.794586 31.0958 0.83502 31.1869 0.907648C31.278 0.980276 31.3429 1.08108 31.3717 1.19456C31.4005 1.30804 31.3915 1.42792 31.3462 1.53578C30.2544 4.16604 29.5444 6.94158 29.2383 9.77655C29.138 10.7623 29.0977 11.7534 29.1177 12.7441C29.1177 12.7441 27.1555 10.6196 21.9809 11.986L21.7455 12.0397ZM21.7455 12.0397L21.1624 12.2038C16.7923 13.4797 8.85939 16.6509 5.10318 19.9948C4.29641 20.701 3.71034 21.6285 3.41623 22.6646C3.12212 23.7007 3.13264 24.8007 3.44652 25.8309C3.63464 26.4304 3.90245 27.0014 4.24261 27.5283C6.11231 30.4393 10.0059 31.8396 13.9892 32.3828C17.8267 32.9062 21.7427 32.6318 23.9992 32.1452L24.4757 32.0405C26.138 31.6671 29.3112 30.9089 33.1655 29.9584" stroke="#644E77" stroke-width="1.12126" stroke-linecap="round" stroke-linejoin="round"/>
<path d="M33.6201 11.788L36.9783 8.26308L39.8908 7.17676" stroke="#644E77" stroke-width="1.12126" stroke-linecap="round" stroke-linejoin="round"/>
<path d="M62.5003 29.9528H66.3995C66.7195 29.957 67.0352 29.8774 67.3156 29.7218C67.596 29.5661 67.8317 29.3396 67.9994 29.0645C68.1672 28.7895 68.2614 28.4752 68.2728 28.1523C68.2842 27.8295 68.2125 27.5092 68.0645 27.2228L66.5452 24.2778C66.2194 23.6128 65.6784 23.0798 65.0117 22.7671C64.345 22.4543 63.5926 22.3805 62.8787 22.5578L60.81 23.0727L60.4512 23.1632" stroke="#644E77" stroke-width="1.12126" stroke-linecap="round" stroke-linejoin="round"/>
<path d="M33.1709 29.9526H33.1765H37.555" stroke="#644E77" stroke-width="1.12126" stroke-linecap="round" stroke-linejoin="round"/>
<path d="M64.8553 37.1129C64.1757 37.6261 63.3495 37.903 62.5007 37.9022H37.5527C36.5081 37.9022 35.5064 37.4834 34.7678 36.738C34.0292 35.9926 33.6143 34.9817 33.6143 33.9275C33.6143 32.8734 34.0292 31.8624 34.7678 31.117C35.5064 30.3716 36.5081 29.9528 37.5527 29.9528H62.5007C63.2834 29.9453 64.0505 30.1742 64.7033 30.6102C65.3561 31.0461 65.8649 31.669 66.1641 32.399C66.4634 33.129 66.5395 33.9326 66.3827 34.7066C66.2259 35.4805 65.8434 36.1895 65.2842 36.7423C65.1515 36.8781 65.0091 37.0038 64.8581 37.1186L64.8553 37.1129Z" stroke="#644E77" stroke-width="1.12126" stroke-linecap="round" stroke-linejoin="round"/>
<path d="M4.24805 27.5228C4.39942 27.4408 10.2664 24.3855 16.708 26.1084C16.837 26.1423 16.9659 26.1762 17.0949 26.2159C23.7748 28.1961 24.4812 32.0435 24.4812 32.0435" stroke="#644E77" stroke-width="0.560629" stroke-linecap="round" stroke-linejoin="round"/>
<path d="M16.7117 26.0996L13.9982 32.3771L12.193 36.5498L11.7305 37.622" stroke="#644E77" stroke-width="0.560629" stroke-linecap="round" stroke-linejoin="round"/>
<path d="M0.72168 33.5737C0.72168 33.5737 1.8093 36.0151 5.03572 37.0222C5.57928 37.189 6.13652 37.3064 6.70079 37.373C7.79682 37.5173 9.63849 37.5994 11.7296 37.6559C17.2378 37.7747 24.484 37.6333 24.484 37.6333" stroke="#644E77" stroke-width="1.12126" stroke-linecap="round" stroke-linejoin="round"/>
<path d="M30.332 15.2705C30.332 15.2705 34.3181 22.3429 41.6708 22.06C49.0234 21.7771 59.1568 16.0966 59.1568 16.0966" stroke="#644E77" stroke-width="0.560629" stroke-linecap="round" stroke-linejoin="round"/>
<path d="M37.4969 34.8047C37.9768 34.8047 38.3659 34.4121 38.3659 33.9278C38.3659 33.4434 37.9768 33.0508 37.4969 33.0508C37.017 33.0508 36.6279 33.4434 36.6279 33.9278C36.6279 34.4121 37.017 34.8047 37.4969 34.8047Z" stroke="#644E77" stroke-width="0.560629" stroke-linecap="round" stroke-linejoin="round"/>
<path d="M44.7311 33.9278C44.7311 34.1013 44.6801 34.271 44.5845 34.4153C44.4889 34.5596 44.353 34.672 44.194 34.7383C44.0351 34.8045 43.8602 34.8217 43.6916 34.7877C43.5229 34.7536 43.3681 34.6698 43.2467 34.5469C43.1253 34.4239 43.0427 34.2674 43.0095 34.0971C42.9763 33.9268 42.9939 33.7504 43.0601 33.5902C43.1263 33.43 43.2381 33.2932 43.3814 33.1972C43.5247 33.1012 43.693 33.0502 43.8649 33.0508C43.9789 33.0508 44.0918 33.0735 44.1971 33.1176C44.3023 33.1617 44.3979 33.2263 44.4784 33.3078C44.5589 33.3893 44.6226 33.486 44.666 33.5924C44.7094 33.6988 44.7315 33.8127 44.7311 33.9278V33.9278Z" stroke="#644E77" stroke-width="0.560629" stroke-linecap="round" stroke-linejoin="round"/>
<path d="M50.2537 34.8047C50.7337 34.8047 51.1227 34.4121 51.1227 33.9278C51.1227 33.4434 50.7337 33.0508 50.2537 33.0508C49.7738 33.0508 49.3848 33.4434 49.3848 33.9278C49.3848 34.4121 49.7738 34.8047 50.2537 34.8047Z" stroke="#644E77" stroke-width="0.560629" stroke-linecap="round" stroke-linejoin="round"/>
<path d="M56.6336 34.8047C57.1135 34.8047 57.5026 34.4121 57.5026 33.9278C57.5026 33.4434 57.1135 33.0508 56.6336 33.0508C56.1537 33.0508 55.7646 33.4434 55.7646 33.9278C55.7646 34.4121 56.1537 34.8047 56.6336 34.8047Z" stroke="#644E77" stroke-width="0.560629" stroke-linecap="round" stroke-linejoin="round"/>
<path d="M63.8796 33.9278C63.8796 34.1012 63.8286 34.2708 63.7331 34.415C63.6376 34.5592 63.5019 34.6716 63.3431 34.738C63.1843 34.8044 63.0096 34.8217 62.8411 34.7879C62.6725 34.754 62.5177 34.6705 62.3961 34.5479C62.2746 34.4252 62.1918 34.269 62.1583 34.0988C62.1248 33.9287 62.142 33.7524 62.2078 33.5922C62.2735 33.4319 62.3849 33.2949 62.5278 33.1986C62.6707 33.1022 62.8387 33.0508 63.0106 33.0508C63.1247 33.0508 63.2377 33.0735 63.3431 33.1175C63.4486 33.1616 63.5443 33.2262 63.625 33.3076C63.7057 33.3891 63.7697 33.4858 63.8134 33.5922C63.8571 33.6986 63.8796 33.8126 63.8796 33.9278V33.9278Z" stroke="#644E77" stroke-width="0.560629" stroke-linecap="round" stroke-linejoin="round"/>
</svg>
