<svg width="67" height="67" viewBox="0 0 67 67" fill="none" xmlns="http://www.w3.org/2000/svg">
<path d="M9.3987 41.5132C7.57256 41.5132 6.08691 42.9988 6.08691 44.825C6.08691 46.6511 7.57256 48.1368 9.3987 48.1368C11.2248 48.1368 12.7105 46.6511 12.7105 44.825C12.7105 42.9988 11.2248 41.5132 9.3987 41.5132ZM9.3987 46.1737C8.65503 46.1737 8.04993 45.5688 8.04993 44.825C8.04993 44.0812 8.6549 43.4762 9.3987 43.4762C10.1425 43.4762 10.7475 44.0812 10.7475 44.825C10.7475 45.5688 10.1425 46.1737 9.3987 46.1737Z" fill="#FB5100"/>
<path d="M18.6702 41.5132C16.844 41.5132 15.3584 42.9988 15.3584 44.825C15.3584 46.6511 16.844 48.1368 18.6702 48.1368C20.4963 48.1368 21.982 46.651 21.982 44.825C21.982 42.9988 20.4963 41.5132 18.6702 41.5132ZM18.6702 46.1737C17.9265 46.1737 17.3214 45.5688 17.3214 44.825C17.3214 44.0812 17.9264 43.4762 18.6702 43.4762C19.414 43.4762 20.019 44.0813 20.019 44.825C20.019 45.5687 19.4139 46.1737 18.6702 46.1737Z" fill="#FB5100"/>
<path d="M27.9417 41.5132C26.1155 41.5132 24.6299 42.9988 24.6299 44.825C24.6299 46.6511 26.1155 48.1368 27.9417 48.1368C29.7678 48.1368 31.2535 46.651 31.2535 44.825C31.2535 42.9988 29.7678 41.5132 27.9417 41.5132ZM27.9418 46.1737C27.1981 46.1737 26.593 45.5687 26.593 44.825C26.593 44.0812 27.198 43.4762 27.9418 43.4762C28.6856 43.4762 29.2906 44.0813 29.2906 44.825C29.2906 45.5687 28.6855 46.1737 27.9418 46.1737Z" fill="#FB5100"/>
<path d="M66.0823 40.5322C64.8721 39.341 62.9182 39.3565 61.7271 40.5665C59.3865 42.9441 56.1304 44.3079 52.7942 44.3079H51.6031L49.0068 38.9131C53.6491 37.0031 56.9951 34.1912 58.7239 30.7281C58.9142 30.3472 58.8312 29.8724 58.5225 29.5786C58.5223 29.5784 58.5221 29.5781 58.5219 29.578C55.9034 27.0902 52.2676 23.2261 45.2959 20.709C44.7864 20.525 44.2235 20.7889 44.0393 21.2988C43.8553 21.8086 44.1194 22.3713 44.6292 22.5553C48.9962 24.1319 52.3048 26.379 55.3875 29.3079H30.7894L28.4325 25.8697L32.6984 21.5348C33.17 21.0555 33.8264 20.7807 34.4988 20.7807C36.4488 20.7807 38.4122 20.975 40.3343 21.3584C40.8659 21.4651 41.3828 21.1195 41.4888 20.5879C41.5948 20.0563 41.2499 19.5394 40.7181 19.4334C38.67 19.0248 36.5773 18.8177 34.4987 18.8177C33.3036 18.8177 32.1375 19.3062 31.2992 20.1581L29.7386 21.744L28.0865 20.263L30.1135 18.2032C30.4936 17.8167 30.4887 17.1953 30.1024 16.8151C29.7159 16.435 29.0944 16.4398 28.7143 16.8263L23.2177 22.4119C22.8376 22.7983 22.8426 23.4197 23.2288 23.7999C23.6154 24.1803 24.237 24.1748 24.6169 23.7888L26.708 21.6639L28.3601 23.1448L26.4717 25.0639L24.0882 27.4095C24.0276 27.4692 23.9474 27.502 23.8623 27.502H12.7567L12.1982 26.5711C11.7824 25.8783 11.0222 25.4478 10.2142 25.4478H1.61088C0.722606 25.4477 0 26.1703 0 27.0587V30.1892C0 30.6436 0.118166 31.0928 0.341936 31.4883L4.72023 39.2274C2.47311 39.5363 0.736084 41.4677 0.736084 43.7985V45.8518C0.736084 48.3967 2.80641 50.4672 5.35149 50.4672H16.3801C16.9221 50.4672 17.3616 50.0278 17.3616 49.4856C17.3616 48.9435 16.9222 48.504 16.3801 48.504H5.35149C3.88901 48.504 2.69911 47.3141 2.69911 45.8517V43.7983C2.69911 42.3359 3.88901 41.1461 5.35149 41.1461H31.989C33.4515 41.1461 34.6414 42.3359 34.6414 43.7983V45.8517C34.6414 47.3141 33.4515 48.504 31.989 48.504H20.9604C20.4184 48.504 19.9788 48.9435 19.9788 49.4856C19.9788 50.0278 20.4183 50.4672 20.9604 50.4672H31.989C34.5339 50.4672 36.6044 48.3969 36.6044 45.8518V43.7985C36.6044 42.8118 36.2921 41.8972 35.7627 41.1462H40.2577C40.2879 41.1462 40.3182 41.1448 40.3483 41.142C40.4816 41.1297 43.4981 40.8384 47.1604 39.6029L49.4247 44.308H43.6123C41.9141 44.308 40.5326 45.6895 40.5326 47.3877C40.5326 49.0858 41.9143 50.4673 43.6123 50.4673H52.7942C57.77 50.4673 62.6258 48.4336 66.1166 44.8875C67.3078 43.6774 67.2923 41.7238 66.0823 40.5322ZM23.8622 29.4649V29.4648C24.4657 29.4648 25.035 29.2317 25.4651 28.8084L27.0187 27.2794L28.8968 30.0192L24.6102 32.8366C24.4546 32.9388 24.253 33.0009 24.0614 33.0009H16.4552C16.2027 33.0009 15.9728 32.8616 15.8514 32.6591L13.9348 29.4651H23.8622V29.4649ZM40.2076 39.1832C37.623 39.1832 7.87459 39.1832 6.9506 39.1832L2.05057 30.5216C1.99325 30.4205 1.96315 30.3056 1.96315 30.1892V27.4107H10.2142C10.3367 27.4107 10.4519 27.476 10.5149 27.5809L12.0098 30.0721L14.168 33.6689C14.6459 34.4653 15.521 34.9639 16.4552 34.9639H24.0614C24.6565 34.9639 25.2255 34.7812 25.6885 34.4771L30.566 31.2713H56.1261C51.571 37.8466 40.9531 39.1031 40.2076 39.1832ZM64.7178 43.5103C61.5937 46.6839 57.2477 48.504 52.7944 48.504H43.6126C42.9969 48.504 42.4959 48.0032 42.4959 47.3874C42.4959 46.7717 42.9967 46.2708 43.6126 46.2708C44.5117 46.2708 51.8995 46.2708 52.7944 46.2708C56.6531 46.2708 60.4191 44.6936 63.1263 41.9434C63.5581 41.5045 64.2667 41.4993 64.7054 41.931C65.1439 42.3632 65.1495 43.0715 64.7178 43.5103Z" fill="#3F2355"/>
</svg>
