<svg width="370" height="256" viewBox="0 0 370 256" fill="none" xmlns="http://www.w3.org/2000/svg">
<path d="M14.681 9.54353L8.54437 21.3788C8.1093 22.2179 8.60517 23.2396 9.53475 23.4194L13.2039 24.1291C13.9705 24.2773 14.7122 23.7787 14.8627 23.0139L17.3301 10.4689C17.6459 8.8635 15.4341 8.09089 14.681 9.54353Z" fill="url(#paint0_linear)"/>
<path d="M48.7591 9.54353L42.6225 21.3788C42.1874 22.2179 42.6833 23.2396 43.6129 23.4194L47.282 24.1291C48.0486 24.2773 48.7904 23.7787 48.9408 23.0139L51.4083 10.4689C51.724 8.8635 49.5123 8.09089 48.7591 9.54353Z" fill="url(#paint1_linear)"/>
<path d="M82.8372 9.53962L76.7006 21.3749C76.2655 22.214 76.7614 23.2357 77.691 23.4155L81.3601 24.1252C82.1267 24.2734 82.8685 23.7748 83.0189 23.01L85.4864 10.465C85.8022 8.8596 83.5904 8.08698 82.8372 9.53962Z" fill="url(#paint2_linear)"/>
<path d="M116.927 9.54353L110.79 21.3788C110.355 22.2179 110.851 23.2396 111.781 23.4194L115.45 24.1291C116.217 24.2773 116.958 23.7787 117.109 23.0139L119.576 10.4689C119.892 8.8635 117.68 8.09089 116.927 9.54353Z" fill="url(#paint3_linear)"/>
<path d="M151.005 9.53962L144.869 21.3749C144.434 22.214 144.929 23.2357 145.859 23.4155L149.528 24.1252C150.295 24.2734 151.036 23.7748 151.187 23.01L153.654 10.465C153.97 8.8596 151.758 8.08698 151.005 9.53962Z" fill="url(#paint4_linear)"/>
<path d="M185.083 9.54353L178.947 21.3788C178.512 22.2179 179.008 23.2396 179.937 23.4194L183.606 24.1291C184.373 24.2773 185.115 23.7787 185.265 23.0139L187.732 10.4689C188.048 8.8635 185.836 8.09089 185.083 9.54353Z" fill="url(#paint5_linear)"/>
<path d="M219.161 9.54353L213.025 21.3788C212.59 22.2179 213.086 23.2396 214.015 23.4194L217.684 24.1291C218.451 24.2773 219.193 23.7787 219.343 23.0139L221.811 10.4689C222.126 8.8635 219.915 8.09089 219.161 9.54353Z" fill="url(#paint6_linear)"/>
<path d="M253.247 9.53962L247.111 21.3749C246.676 22.214 247.172 23.2357 248.101 23.4155L251.77 24.1252C252.537 24.2734 253.279 23.7748 253.429 23.01L255.897 10.465C256.212 8.8596 254.001 8.08698 253.247 9.53962Z" fill="url(#paint7_linear)"/>
<path d="M287.341 9.54353L281.205 21.3788C280.769 22.2179 281.265 23.2396 282.195 23.4194L285.864 24.1291C286.631 24.2773 287.372 23.7787 287.523 23.0139L289.99 10.4689C290.306 8.8635 288.094 8.09089 287.341 9.54353Z" fill="url(#paint8_linear)"/>
<path d="M321.443 9.53962L315.306 21.3749C314.871 22.214 315.367 23.2357 316.296 23.4155L319.966 24.1252C320.732 24.2734 321.474 23.7748 321.624 23.01L324.092 10.465C324.408 8.8596 322.196 8.08698 321.443 9.53962Z" fill="url(#paint9_linear)"/>
<path d="M355.54 9.54353L349.404 21.3788C348.969 22.2179 349.465 23.2396 350.394 23.4194L354.063 24.1291C354.83 24.2773 355.572 23.7787 355.722 23.0139L358.19 10.4689C358.505 8.8635 356.294 8.09089 355.54 9.54353Z" fill="url(#paint10_linear)"/>
<path d="M14.681 55.3385L8.54437 67.1738C8.1093 68.0129 8.60517 69.0346 9.53475 69.2143L13.2039 69.924C13.9705 70.0723 14.7122 69.5736 14.8627 68.8088L17.3301 56.2639C17.6459 54.6584 15.4341 53.8858 14.681 55.3385Z" fill="url(#paint11_linear)"/>
<path d="M48.7591 55.3424L42.6225 67.1777C42.1874 68.0168 42.6833 69.0385 43.6129 69.2183L47.282 69.9279C48.0486 70.0762 48.7904 69.5775 48.9408 68.8127L51.4083 56.2678C51.724 54.6623 49.5123 53.8897 48.7591 55.3424Z" fill="url(#paint12_linear)"/>
<path d="M82.8372 55.3385L76.7006 67.1738C76.2655 68.0129 76.7614 69.0346 77.691 69.2143L81.3601 69.924C82.1267 70.0723 82.8685 69.5736 83.0189 68.8088L85.4864 56.2639C85.8022 54.6584 83.5904 53.8858 82.8372 55.3385Z" fill="url(#paint13_linear)"/>
<path d="M116.927 55.3424L110.79 67.1777C110.355 68.0168 110.851 69.0385 111.781 69.2183L115.45 69.9279C116.217 70.0762 116.958 69.5775 117.109 68.8127L119.576 56.2678C119.892 54.6623 117.68 53.8897 116.927 55.3424Z" fill="url(#paint14_linear)"/>
<path d="M151.005 55.3385L144.869 67.1738C144.434 68.0129 144.929 69.0346 145.859 69.2143L149.528 69.924C150.295 70.0723 151.036 69.5736 151.187 68.8088L153.654 56.2639C153.97 54.6584 151.758 53.8858 151.005 55.3385Z" fill="url(#paint15_linear)"/>
<path d="M185.083 55.3424L178.947 67.1777C178.512 68.0168 179.008 69.0385 179.937 69.2183L183.606 69.9279C184.373 70.0762 185.115 69.5775 185.265 68.8127L187.732 56.2678C188.048 54.6623 185.836 53.8897 185.083 55.3424Z" fill="url(#paint16_linear)"/>
<path d="M219.161 55.3424L213.025 67.1777C212.59 68.0168 213.086 69.0385 214.015 69.2183L217.684 69.9279C218.451 70.0762 219.193 69.5775 219.343 68.8127L221.811 56.2678C222.126 54.6623 219.915 53.8897 219.161 55.3424Z" fill="url(#paint17_linear)"/>
<path d="M253.247 55.3385L247.111 67.1738C246.676 68.0129 247.172 69.0346 248.101 69.2143L251.77 69.924C252.537 70.0723 253.279 69.5736 253.429 68.8088L255.897 56.2639C256.212 54.6584 254.001 53.8858 253.247 55.3385Z" fill="url(#paint18_linear)"/>
<path d="M287.341 55.3424L281.205 67.1777C280.769 68.0168 281.265 69.0385 282.195 69.2183L285.864 69.9279C286.631 70.0762 287.372 69.5775 287.523 68.8127L289.99 56.2678C290.306 54.6623 288.094 53.8897 287.341 55.3424Z" fill="url(#paint19_linear)"/>
<path d="M321.443 55.3385L315.306 67.1738C314.871 68.0129 315.367 69.0346 316.296 69.2143L319.966 69.924C320.732 70.0723 321.474 69.5736 321.624 68.8088L324.092 56.2639C324.408 54.6584 322.196 53.8858 321.443 55.3385Z" fill="url(#paint20_linear)"/>
<path d="M355.54 55.3424L349.404 67.1777C348.969 68.0168 349.465 69.0385 350.394 69.2183L354.063 69.9279C354.83 70.0762 355.572 69.5775 355.722 68.8127L358.19 56.2678C358.505 54.6623 356.294 53.8897 355.54 55.3424Z" fill="url(#paint21_linear)"/>
<path d="M14.681 101.135L8.54437 112.971C8.1093 113.81 8.60517 114.831 9.53475 115.011L13.2039 115.721C13.9705 115.869 14.7122 115.37 14.8627 114.606L17.3301 102.061C17.6459 100.455 15.4341 99.6827 14.681 101.135Z" fill="url(#paint22_linear)"/>
<path d="M48.7591 101.135L42.6225 112.971C42.1874 113.81 42.6833 114.831 43.6129 115.011L47.282 115.721C48.0486 115.869 48.7904 115.37 48.9408 114.606L51.4083 102.061C51.724 100.455 49.5123 99.6827 48.7591 101.135Z" fill="url(#paint23_linear)"/>
<path d="M82.8372 101.131L76.7006 112.967C76.2655 113.806 76.7614 114.828 77.691 115.007L81.3601 115.717C82.1267 115.865 82.8685 115.367 83.0189 114.602L85.4864 102.057C85.8022 100.451 83.5904 99.6788 82.8372 101.131Z" fill="url(#paint24_linear)"/>
<path d="M116.927 101.135L110.79 112.971C110.355 113.81 110.851 114.831 111.781 115.011L115.45 115.721C116.217 115.869 116.958 115.37 117.109 114.606L119.576 102.061C119.892 100.455 117.68 99.6827 116.927 101.135Z" fill="url(#paint25_linear)"/>
<path d="M151.005 101.131L144.869 112.967C144.434 113.806 144.929 114.828 145.859 115.007L149.528 115.717C150.295 115.865 151.036 115.367 151.187 114.602L153.654 102.057C153.97 100.451 151.758 99.6788 151.005 101.131Z" fill="url(#paint26_linear)"/>
<path d="M185.083 101.135L178.947 112.971C178.512 113.81 179.008 114.831 179.937 115.011L183.606 115.721C184.373 115.869 185.115 115.37 185.265 114.606L187.732 102.061C188.048 100.455 185.836 99.6827 185.083 101.135Z" fill="url(#paint27_linear)"/>
<path d="M219.161 101.135L213.025 112.971C212.59 113.81 213.086 114.831 214.015 115.011L217.684 115.721C218.451 115.869 219.193 115.37 219.343 114.606L221.811 102.061C222.126 100.455 219.915 99.6827 219.161 101.135Z" fill="url(#paint28_linear)"/>
<path d="M253.247 101.131L247.111 112.967C246.676 113.806 247.172 114.828 248.101 115.007L251.77 115.717C252.537 115.865 253.279 115.367 253.429 114.602L255.897 102.057C256.212 100.451 254.001 99.6788 253.247 101.131Z" fill="url(#paint29_linear)"/>
<path d="M287.341 101.135L281.205 112.971C280.769 113.81 281.265 114.831 282.195 115.011L285.864 115.721C286.631 115.869 287.372 115.37 287.523 114.606L289.99 102.061C290.306 100.455 288.094 99.6827 287.341 101.135Z" fill="url(#paint30_linear)"/>
<path d="M321.443 101.131L315.306 112.967C314.871 113.806 315.367 114.828 316.296 115.007L319.966 115.717C320.732 115.865 321.474 115.367 321.624 114.602L324.092 102.057C324.408 100.451 322.196 99.6788 321.443 101.131Z" fill="url(#paint31_linear)"/>
<path d="M355.54 101.135L349.404 112.971C348.969 113.81 349.465 114.831 350.394 115.011L354.063 115.721C354.83 115.869 355.572 115.37 355.722 114.606L358.19 102.061C358.505 100.455 356.294 99.6827 355.54 101.135Z" fill="url(#paint32_linear)"/>
<path d="M14.681 146.93L8.54437 158.766C8.1093 159.605 8.60517 160.626 9.53475 160.806L13.2039 161.516C13.9705 161.664 14.7122 161.165 14.8627 160.401L17.3301 147.856C17.6459 146.25 15.4341 145.478 14.681 146.93Z" fill="url(#paint33_linear)"/>
<path d="M48.7591 146.934L42.6225 158.769C42.1874 159.609 42.6833 160.63 43.6129 160.81L47.282 161.52C48.0486 161.668 48.7904 161.169 48.9408 160.405L51.4083 147.86C51.724 146.254 49.5123 145.482 48.7591 146.934Z" fill="url(#paint34_linear)"/>
<path d="M82.8372 146.93L76.7006 158.766C76.2655 159.605 76.7614 160.626 77.691 160.806L81.3601 161.516C82.1267 161.664 82.8685 161.165 83.0189 160.401L85.4864 147.856C85.8022 146.25 83.5904 145.478 82.8372 146.93Z" fill="url(#paint35_linear)"/>
<path d="M116.927 146.934L110.79 158.769C110.355 159.609 110.851 160.63 111.781 160.81L115.45 161.52C116.217 161.668 116.958 161.169 117.109 160.405L119.576 147.86C119.892 146.254 117.68 145.482 116.927 146.934Z" fill="url(#paint36_linear)"/>
<path d="M151.005 146.93L144.869 158.766C144.434 159.605 144.929 160.626 145.859 160.806L149.528 161.516C150.295 161.664 151.036 161.165 151.187 160.401L153.654 147.856C153.97 146.25 151.758 145.478 151.005 146.93Z" fill="url(#paint37_linear)"/>
<path d="M185.083 146.934L178.947 158.769C178.512 159.609 179.008 160.63 179.937 160.81L183.606 161.52C184.373 161.668 185.115 161.169 185.265 160.405L187.732 147.86C188.048 146.254 185.836 145.482 185.083 146.934Z" fill="url(#paint38_linear)"/>
<path d="M219.161 146.934L213.025 158.769C212.59 159.609 213.086 160.63 214.015 160.81L217.684 161.52C218.451 161.668 219.193 161.169 219.343 160.405L221.811 147.86C222.126 146.254 219.915 145.482 219.161 146.934Z" fill="url(#paint39_linear)"/>
<path d="M253.247 146.93L247.111 158.766C246.676 159.605 247.172 160.626 248.101 160.806L251.77 161.516C252.537 161.664 253.279 161.165 253.429 160.401L255.897 147.856C256.212 146.25 254.001 145.478 253.247 146.93Z" fill="url(#paint40_linear)"/>
<path d="M287.341 146.934L281.205 158.769C280.769 159.609 281.265 160.63 282.195 160.81L285.864 161.52C286.631 161.668 287.372 161.169 287.523 160.405L289.99 147.86C290.306 146.254 288.094 145.482 287.341 146.934Z" fill="url(#paint41_linear)"/>
<path d="M321.443 146.93L315.306 158.766C314.871 159.605 315.367 160.626 316.296 160.806L319.966 161.516C320.732 161.664 321.474 161.165 321.624 160.401L324.092 147.856C324.408 146.25 322.196 145.478 321.443 146.93Z" fill="url(#paint42_linear)"/>
<path d="M355.54 146.934L349.404 158.769C348.969 159.609 349.465 160.63 350.394 160.81L354.063 161.52C354.83 161.668 355.572 161.169 355.722 160.405L358.19 147.86C358.505 146.254 356.294 145.482 355.54 146.934Z" fill="url(#paint43_linear)"/>
<path d="M14.681 192.731L8.54437 204.566C8.1093 205.405 8.60517 206.427 9.53475 206.607L13.2039 207.317C13.9705 207.465 14.7122 206.966 14.8627 206.201L17.3301 193.656C17.6459 192.051 15.4341 191.278 14.681 192.731Z" fill="url(#paint44_linear)"/>
<path d="M48.7591 192.731L42.6225 204.566C42.1874 205.405 42.6833 206.427 43.6129 206.607L47.282 207.317C48.0486 207.465 48.7904 206.966 48.9408 206.201L51.4083 193.656C51.724 192.051 49.5123 191.278 48.7591 192.731Z" fill="url(#paint45_linear)"/>
<path d="M82.8372 192.727L76.7006 204.562C76.2655 205.402 76.7614 206.423 77.691 206.603L81.3601 207.313C82.1267 207.461 82.8685 206.962 83.0189 206.197L85.4864 193.653C85.8022 192.047 83.5904 191.274 82.8372 192.727Z" fill="url(#paint46_linear)"/>
<path d="M116.927 192.731L110.79 204.566C110.355 205.405 110.851 206.427 111.781 206.607L115.45 207.317C116.217 207.465 116.958 206.966 117.109 206.201L119.576 193.656C119.892 192.051 117.68 191.278 116.927 192.731Z" fill="url(#paint47_linear)"/>
<path d="M151.005 192.727L144.869 204.562C144.434 205.402 144.929 206.423 145.859 206.603L149.528 207.313C150.295 207.461 151.036 206.962 151.187 206.197L153.654 193.653C153.97 192.047 151.758 191.274 151.005 192.727Z" fill="url(#paint48_linear)"/>
<path d="M185.083 192.731L178.947 204.566C178.512 205.405 179.008 206.427 179.937 206.607L183.606 207.317C184.373 207.465 185.115 206.966 185.265 206.201L187.732 193.656C188.048 192.051 185.836 191.278 185.083 192.731Z" fill="url(#paint49_linear)"/>
<path d="M219.161 192.731L213.025 204.566C212.59 205.405 213.086 206.427 214.015 206.607L217.684 207.317C218.451 207.465 219.193 206.966 219.343 206.201L221.811 193.656C222.126 192.051 219.915 191.278 219.161 192.731Z" fill="url(#paint50_linear)"/>
<path d="M253.247 192.727L247.111 204.562C246.676 205.402 247.172 206.423 248.101 206.603L251.77 207.313C252.537 207.461 253.279 206.962 253.429 206.197L255.897 193.653C256.212 192.047 254.001 191.274 253.247 192.727Z" fill="url(#paint51_linear)"/>
<path d="M287.341 192.731L281.205 204.566C280.769 205.405 281.265 206.427 282.195 206.607L285.864 207.317C286.631 207.465 287.372 206.966 287.523 206.201L289.99 193.656C290.306 192.051 288.094 191.278 287.341 192.731Z" fill="url(#paint52_linear)"/>
<path d="M321.443 192.727L315.306 204.562C314.871 205.402 315.367 206.423 316.296 206.603L319.966 207.313C320.732 207.461 321.474 206.962 321.624 206.197L324.092 193.653C324.408 192.047 322.196 191.274 321.443 192.727Z" fill="url(#paint53_linear)"/>
<path d="M355.54 192.731L349.404 204.566C348.969 205.405 349.465 206.427 350.394 206.607L354.063 207.317C354.83 207.465 355.572 206.966 355.722 206.201L358.19 193.656C358.505 192.051 356.294 191.278 355.54 192.731Z" fill="url(#paint54_linear)"/>
<path d="M14.681 238.524L8.54437 250.359C8.1093 251.198 8.60517 252.22 9.53475 252.4L13.2039 253.11C13.9705 253.258 14.7122 252.759 14.8627 251.994L17.3301 239.449C17.6459 237.844 15.4341 237.071 14.681 238.524Z" fill="url(#paint55_linear)"/>
<path d="M48.7591 238.528L42.6225 250.363C42.1874 251.202 42.6833 252.224 43.6129 252.404L47.282 253.113C48.0486 253.262 48.7904 252.763 48.9408 251.998L51.4083 239.453C51.724 237.848 49.5123 237.075 48.7591 238.528Z" fill="url(#paint56_linear)"/>
<path d="M82.8372 238.524L76.7006 250.359C76.2655 251.198 76.7614 252.22 77.691 252.4L81.3601 253.11C82.1267 253.258 82.8685 252.759 83.0189 251.994L85.4864 239.449C85.8022 237.844 83.5904 237.071 82.8372 238.524Z" fill="url(#paint57_linear)"/>
<path d="M116.927 238.528L110.79 250.363C110.355 251.202 110.851 252.224 111.781 252.404L115.45 253.113C116.217 253.262 116.958 252.763 117.109 251.998L119.576 239.453C119.892 237.848 117.68 237.075 116.927 238.528Z" fill="url(#paint58_linear)"/>
<path d="M151.005 238.524L144.869 250.359C144.434 251.198 144.929 252.22 145.859 252.4L149.528 253.11C150.295 253.258 151.036 252.759 151.187 251.994L153.654 239.449C153.97 237.844 151.758 237.071 151.005 238.524Z" fill="url(#paint59_linear)"/>
<path d="M185.083 238.528L178.947 250.363C178.512 251.202 179.008 252.224 179.937 252.404L183.606 253.113C184.373 253.262 185.115 252.763 185.265 251.998L187.732 239.453C188.048 237.848 185.836 237.075 185.083 238.528Z" fill="url(#paint60_linear)"/>
<path d="M219.161 238.528L213.025 250.363C212.59 251.202 213.086 252.224 214.015 252.404L217.684 253.113C218.451 253.262 219.193 252.763 219.343 251.998L221.811 239.453C222.126 237.848 219.915 237.075 219.161 238.528Z" fill="url(#paint61_linear)"/>
<path d="M253.247 238.524L247.111 250.359C246.676 251.198 247.172 252.22 248.101 252.4L251.77 253.11C252.537 253.258 253.279 252.759 253.429 251.994L255.897 239.449C256.212 237.844 254.001 237.071 253.247 238.524Z" fill="url(#paint62_linear)"/>
<path d="M287.341 238.528L281.205 250.363C280.769 251.202 281.265 252.224 282.195 252.404L285.864 253.113C286.631 253.262 287.372 252.763 287.523 251.998L289.99 239.453C290.306 237.848 288.094 237.075 287.341 238.528Z" fill="url(#paint63_linear)"/>
<path d="M321.443 238.524L315.306 250.359C314.871 251.198 315.367 252.22 316.296 252.4L319.966 253.11C320.732 253.258 321.474 252.759 321.624 251.994L324.092 239.449C324.408 237.844 322.196 237.071 321.443 238.524Z" fill="url(#paint64_linear)"/>
<path d="M355.54 238.528L349.404 250.363C348.969 251.202 349.465 252.224 350.394 252.404L354.063 253.113C354.83 253.262 355.572 252.763 355.722 251.998L358.19 239.453C358.505 237.848 356.294 237.075 355.54 238.528Z" fill="url(#paint65_linear)"/>
<defs>
<linearGradient id="paint0_linear" x1="10.0744" y1="5.84454" x2="19.0218" y2="21.9329" gradientUnits="userSpaceOnUse">
<stop offset="0.317708" stop-color="#FF7468"/>
<stop offset="0.447917" stop-color="#FE8E86" stop-opacity="0.6"/>
<stop offset="1" stop-color="white" stop-opacity="0"/>
</linearGradient>
<linearGradient id="paint1_linear" x1="44.1525" y1="5.84454" x2="53.1" y2="21.9329" gradientUnits="userSpaceOnUse">
<stop offset="0.317708" stop-color="#FF7468"/>
<stop offset="0.447917" stop-color="#FE8E86" stop-opacity="0.6"/>
<stop offset="1" stop-color="white" stop-opacity="0"/>
</linearGradient>
<linearGradient id="paint2_linear" x1="78.2307" y1="5.84063" x2="87.1781" y2="21.929" gradientUnits="userSpaceOnUse">
<stop offset="0.317708" stop-color="#FF7468"/>
<stop offset="0.447917" stop-color="#FE8E86" stop-opacity="0.6"/>
<stop offset="1" stop-color="white" stop-opacity="0"/>
</linearGradient>
<linearGradient id="paint3_linear" x1="112.321" y1="5.84454" x2="121.268" y2="21.9329" gradientUnits="userSpaceOnUse">
<stop offset="0.317708" stop-color="white"/>
<stop offset="0.447917" stop-color="white" stop-opacity="0.80916"/>
<stop offset="1" stop-color="white" stop-opacity="0"/>
</linearGradient>
<linearGradient id="paint4_linear" x1="146.399" y1="5.84063" x2="155.346" y2="21.929" gradientUnits="userSpaceOnUse">
<stop offset="0.317708" stop-color="white"/>
<stop offset="0.447917" stop-color="white" stop-opacity="0.80916"/>
<stop offset="1" stop-color="white" stop-opacity="0"/>
</linearGradient>
<linearGradient id="paint5_linear" x1="180.477" y1="5.84454" x2="189.424" y2="21.9329" gradientUnits="userSpaceOnUse">
<stop offset="0.317708" stop-color="white"/>
<stop offset="0.447917" stop-color="white" stop-opacity="0.80916"/>
<stop offset="1" stop-color="white" stop-opacity="0"/>
</linearGradient>
<linearGradient id="paint6_linear" x1="214.555" y1="5.84454" x2="223.502" y2="21.9329" gradientUnits="userSpaceOnUse">
<stop offset="0.317708" stop-color="white"/>
<stop offset="0.447917" stop-color="white" stop-opacity="0.80916"/>
<stop offset="1" stop-color="white" stop-opacity="0"/>
</linearGradient>
<linearGradient id="paint7_linear" x1="248.641" y1="5.84063" x2="257.588" y2="21.929" gradientUnits="userSpaceOnUse">
<stop offset="0.317708" stop-color="white"/>
<stop offset="0.447917" stop-color="white" stop-opacity="0.80916"/>
<stop offset="1" stop-color="white" stop-opacity="0"/>
</linearGradient>
<linearGradient id="paint8_linear" x1="282.735" y1="5.84454" x2="291.682" y2="21.9329" gradientUnits="userSpaceOnUse">
<stop offset="0.317708" stop-color="white"/>
<stop offset="0.447917" stop-color="white" stop-opacity="0.80916"/>
<stop offset="1" stop-color="white" stop-opacity="0"/>
</linearGradient>
<linearGradient id="paint9_linear" x1="316.836" y1="5.84063" x2="325.784" y2="21.929" gradientUnits="userSpaceOnUse">
<stop offset="0.317708" stop-color="white"/>
<stop offset="0.447917" stop-color="white" stop-opacity="0.80916"/>
<stop offset="1" stop-color="white" stop-opacity="0"/>
</linearGradient>
<linearGradient id="paint10_linear" x1="350.934" y1="5.84454" x2="359.881" y2="21.9329" gradientUnits="userSpaceOnUse">
<stop offset="0.317708" stop-color="white"/>
<stop offset="0.447917" stop-color="white" stop-opacity="0.80916"/>
<stop offset="1" stop-color="white" stop-opacity="0"/>
</linearGradient>
<linearGradient id="paint11_linear" x1="10.0744" y1="51.6395" x2="19.0218" y2="67.7278" gradientUnits="userSpaceOnUse">
<stop offset="0.317708" stop-color="#FF7468"/>
<stop offset="0.447917" stop-color="#FE8E86" stop-opacity="0.6"/>
<stop offset="1" stop-color="white" stop-opacity="0"/>
</linearGradient>
<linearGradient id="paint12_linear" x1="44.1525" y1="51.6434" x2="53.1" y2="67.7317" gradientUnits="userSpaceOnUse">
<stop offset="0.317708" stop-color="#FF7468"/>
<stop offset="0.447917" stop-color="#FE8E86" stop-opacity="0.6"/>
<stop offset="1" stop-color="white" stop-opacity="0"/>
</linearGradient>
<linearGradient id="paint13_linear" x1="78.2307" y1="51.6395" x2="87.1781" y2="67.7278" gradientUnits="userSpaceOnUse">
<stop offset="0.317708" stop-color="#FF7468"/>
<stop offset="0.447917" stop-color="#FE8E86" stop-opacity="0.6"/>
<stop offset="1" stop-color="white" stop-opacity="0"/>
</linearGradient>
<linearGradient id="paint14_linear" x1="112.321" y1="51.6434" x2="121.268" y2="67.7317" gradientUnits="userSpaceOnUse">
<stop offset="0.317708" stop-color="white"/>
<stop offset="0.447917" stop-color="white" stop-opacity="0.80916"/>
<stop offset="1" stop-color="white" stop-opacity="0"/>
</linearGradient>
<linearGradient id="paint15_linear" x1="146.399" y1="51.6395" x2="155.346" y2="67.7278" gradientUnits="userSpaceOnUse">
<stop offset="0.317708" stop-color="white"/>
<stop offset="0.447917" stop-color="white" stop-opacity="0.80916"/>
<stop offset="1" stop-color="white" stop-opacity="0"/>
</linearGradient>
<linearGradient id="paint16_linear" x1="180.477" y1="51.6434" x2="189.424" y2="67.7317" gradientUnits="userSpaceOnUse">
<stop offset="0.317708" stop-color="white"/>
<stop offset="0.447917" stop-color="white" stop-opacity="0.80916"/>
<stop offset="1" stop-color="white" stop-opacity="0"/>
</linearGradient>
<linearGradient id="paint17_linear" x1="214.555" y1="51.6434" x2="223.502" y2="67.7317" gradientUnits="userSpaceOnUse">
<stop offset="0.317708" stop-color="white"/>
<stop offset="0.447917" stop-color="white" stop-opacity="0.80916"/>
<stop offset="1" stop-color="white" stop-opacity="0"/>
</linearGradient>
<linearGradient id="paint18_linear" x1="248.641" y1="51.6395" x2="257.588" y2="67.7278" gradientUnits="userSpaceOnUse">
<stop offset="0.317708" stop-color="white"/>
<stop offset="0.447917" stop-color="white" stop-opacity="0.80916"/>
<stop offset="1" stop-color="white" stop-opacity="0"/>
</linearGradient>
<linearGradient id="paint19_linear" x1="282.735" y1="51.6434" x2="291.682" y2="67.7317" gradientUnits="userSpaceOnUse">
<stop offset="0.317708" stop-color="white"/>
<stop offset="0.447917" stop-color="white" stop-opacity="0.80916"/>
<stop offset="1" stop-color="white" stop-opacity="0"/>
</linearGradient>
<linearGradient id="paint20_linear" x1="316.836" y1="51.6395" x2="325.784" y2="67.7278" gradientUnits="userSpaceOnUse">
<stop offset="0.317708" stop-color="white"/>
<stop offset="0.447917" stop-color="white" stop-opacity="0.80916"/>
<stop offset="1" stop-color="white" stop-opacity="0"/>
</linearGradient>
<linearGradient id="paint21_linear" x1="350.934" y1="51.6434" x2="359.881" y2="67.7317" gradientUnits="userSpaceOnUse">
<stop offset="0.317708" stop-color="white"/>
<stop offset="0.447917" stop-color="white" stop-opacity="0.80916"/>
<stop offset="1" stop-color="white" stop-opacity="0"/>
</linearGradient>
<linearGradient id="paint22_linear" x1="10.0744" y1="97.4363" x2="19.0218" y2="113.525" gradientUnits="userSpaceOnUse">
<stop offset="0.317708" stop-color="#FF7468"/>
<stop offset="0.447917" stop-color="#FE8E86" stop-opacity="0.6"/>
<stop offset="1" stop-color="white" stop-opacity="0"/>
</linearGradient>
<linearGradient id="paint23_linear" x1="44.1525" y1="97.4363" x2="53.1" y2="113.525" gradientUnits="userSpaceOnUse">
<stop offset="0.317708" stop-color="#FF7468"/>
<stop offset="0.447917" stop-color="#FE8E86" stop-opacity="0.6"/>
<stop offset="1" stop-color="white" stop-opacity="0"/>
</linearGradient>
<linearGradient id="paint24_linear" x1="78.2307" y1="97.4324" x2="87.1781" y2="113.521" gradientUnits="userSpaceOnUse">
<stop offset="0.317708" stop-color="#FF7468"/>
<stop offset="0.447917" stop-color="#FE8E86" stop-opacity="0.6"/>
<stop offset="1" stop-color="white" stop-opacity="0"/>
</linearGradient>
<linearGradient id="paint25_linear" x1="112.321" y1="97.4363" x2="121.268" y2="113.525" gradientUnits="userSpaceOnUse">
<stop offset="0.317708" stop-color="white"/>
<stop offset="0.447917" stop-color="white" stop-opacity="0.80916"/>
<stop offset="1" stop-color="white" stop-opacity="0"/>
</linearGradient>
<linearGradient id="paint26_linear" x1="146.399" y1="97.4324" x2="155.346" y2="113.521" gradientUnits="userSpaceOnUse">
<stop offset="0.317708" stop-color="white"/>
<stop offset="0.447917" stop-color="white" stop-opacity="0.80916"/>
<stop offset="1" stop-color="white" stop-opacity="0"/>
</linearGradient>
<linearGradient id="paint27_linear" x1="180.477" y1="97.4363" x2="189.424" y2="113.525" gradientUnits="userSpaceOnUse">
<stop offset="0.317708" stop-color="white"/>
<stop offset="0.447917" stop-color="white" stop-opacity="0.80916"/>
<stop offset="1" stop-color="white" stop-opacity="0"/>
</linearGradient>
<linearGradient id="paint28_linear" x1="214.555" y1="97.4363" x2="223.502" y2="113.525" gradientUnits="userSpaceOnUse">
<stop offset="0.317708" stop-color="white"/>
<stop offset="0.447917" stop-color="white" stop-opacity="0.80916"/>
<stop offset="1" stop-color="white" stop-opacity="0"/>
</linearGradient>
<linearGradient id="paint29_linear" x1="248.641" y1="97.4324" x2="257.588" y2="113.521" gradientUnits="userSpaceOnUse">
<stop offset="0.317708" stop-color="white"/>
<stop offset="0.447917" stop-color="white" stop-opacity="0.80916"/>
<stop offset="1" stop-color="white" stop-opacity="0"/>
</linearGradient>
<linearGradient id="paint30_linear" x1="282.735" y1="97.4363" x2="291.682" y2="113.525" gradientUnits="userSpaceOnUse">
<stop offset="0.317708" stop-color="white"/>
<stop offset="0.447917" stop-color="white" stop-opacity="0.80916"/>
<stop offset="1" stop-color="white" stop-opacity="0"/>
</linearGradient>
<linearGradient id="paint31_linear" x1="316.836" y1="97.4324" x2="325.784" y2="113.521" gradientUnits="userSpaceOnUse">
<stop offset="0.317708" stop-color="white"/>
<stop offset="0.447917" stop-color="white" stop-opacity="0.80916"/>
<stop offset="1" stop-color="white" stop-opacity="0"/>
</linearGradient>
<linearGradient id="paint32_linear" x1="350.934" y1="97.4363" x2="359.881" y2="113.525" gradientUnits="userSpaceOnUse">
<stop offset="0.317708" stop-color="white"/>
<stop offset="0.447917" stop-color="white" stop-opacity="0.80916"/>
<stop offset="1" stop-color="white" stop-opacity="0"/>
</linearGradient>
<linearGradient id="paint33_linear" x1="10.0744" y1="143.231" x2="19.0218" y2="159.32" gradientUnits="userSpaceOnUse">
<stop offset="0.317708" stop-color="#FF7468"/>
<stop offset="0.447917" stop-color="#FE8E86" stop-opacity="0.6"/>
<stop offset="1" stop-color="white" stop-opacity="0"/>
</linearGradient>
<linearGradient id="paint34_linear" x1="44.1525" y1="143.235" x2="53.1" y2="159.323" gradientUnits="userSpaceOnUse">
<stop offset="0.317708" stop-color="#FF7468"/>
<stop offset="0.447917" stop-color="#FE8E86" stop-opacity="0.6"/>
<stop offset="1" stop-color="white" stop-opacity="0"/>
</linearGradient>
<linearGradient id="paint35_linear" x1="78.2307" y1="143.231" x2="87.1781" y2="159.32" gradientUnits="userSpaceOnUse">
<stop offset="0.317708" stop-color="#FF7468"/>
<stop offset="0.447917" stop-color="#FE8E86" stop-opacity="0.6"/>
<stop offset="1" stop-color="white" stop-opacity="0"/>
</linearGradient>
<linearGradient id="paint36_linear" x1="112.321" y1="143.235" x2="121.268" y2="159.323" gradientUnits="userSpaceOnUse">
<stop offset="0.317708" stop-color="white"/>
<stop offset="0.447917" stop-color="white" stop-opacity="0.80916"/>
<stop offset="1" stop-color="white" stop-opacity="0"/>
</linearGradient>
<linearGradient id="paint37_linear" x1="146.399" y1="143.231" x2="155.346" y2="159.32" gradientUnits="userSpaceOnUse">
<stop offset="0.317708" stop-color="white"/>
<stop offset="0.447917" stop-color="white" stop-opacity="0.80916"/>
<stop offset="1" stop-color="white" stop-opacity="0"/>
</linearGradient>
<linearGradient id="paint38_linear" x1="180.477" y1="143.235" x2="189.424" y2="159.323" gradientUnits="userSpaceOnUse">
<stop offset="0.317708" stop-color="white"/>
<stop offset="0.447917" stop-color="white" stop-opacity="0.80916"/>
<stop offset="1" stop-color="white" stop-opacity="0"/>
</linearGradient>
<linearGradient id="paint39_linear" x1="214.555" y1="143.235" x2="223.502" y2="159.323" gradientUnits="userSpaceOnUse">
<stop offset="0.317708" stop-color="white"/>
<stop offset="0.447917" stop-color="white" stop-opacity="0.80916"/>
<stop offset="1" stop-color="white" stop-opacity="0"/>
</linearGradient>
<linearGradient id="paint40_linear" x1="248.641" y1="143.231" x2="257.588" y2="159.32" gradientUnits="userSpaceOnUse">
<stop offset="0.317708" stop-color="white"/>
<stop offset="0.447917" stop-color="white" stop-opacity="0.80916"/>
<stop offset="1" stop-color="white" stop-opacity="0"/>
</linearGradient>
<linearGradient id="paint41_linear" x1="282.735" y1="143.235" x2="291.682" y2="159.323" gradientUnits="userSpaceOnUse">
<stop offset="0.317708" stop-color="white"/>
<stop offset="0.447917" stop-color="white" stop-opacity="0.80916"/>
<stop offset="1" stop-color="white" stop-opacity="0"/>
</linearGradient>
<linearGradient id="paint42_linear" x1="316.836" y1="143.231" x2="325.784" y2="159.32" gradientUnits="userSpaceOnUse">
<stop offset="0.317708" stop-color="white"/>
<stop offset="0.447917" stop-color="white" stop-opacity="0.80916"/>
<stop offset="1" stop-color="white" stop-opacity="0"/>
</linearGradient>
<linearGradient id="paint43_linear" x1="350.934" y1="143.235" x2="359.881" y2="159.323" gradientUnits="userSpaceOnUse">
<stop offset="0.317708" stop-color="white"/>
<stop offset="0.447917" stop-color="white" stop-opacity="0.80916"/>
<stop offset="1" stop-color="white" stop-opacity="0"/>
</linearGradient>
<linearGradient id="paint44_linear" x1="10.0744" y1="189.032" x2="19.0218" y2="205.12" gradientUnits="userSpaceOnUse">
<stop offset="0.317708" stop-color="#FF7468"/>
<stop offset="0.447917" stop-color="#FE8E86" stop-opacity="0.6"/>
<stop offset="1" stop-color="white" stop-opacity="0"/>
</linearGradient>
<linearGradient id="paint45_linear" x1="44.1525" y1="189.032" x2="53.1" y2="205.12" gradientUnits="userSpaceOnUse">
<stop offset="0.317708" stop-color="#FF7468"/>
<stop offset="0.447917" stop-color="#FE8E86" stop-opacity="0.6"/>
<stop offset="1" stop-color="white" stop-opacity="0"/>
</linearGradient>
<linearGradient id="paint46_linear" x1="78.2307" y1="189.028" x2="87.1781" y2="205.116" gradientUnits="userSpaceOnUse">
<stop offset="0.317708" stop-color="#FF7468"/>
<stop offset="0.447917" stop-color="#FE8E86" stop-opacity="0.6"/>
<stop offset="1" stop-color="white" stop-opacity="0"/>
</linearGradient>
<linearGradient id="paint47_linear" x1="112.321" y1="189.032" x2="121.268" y2="205.12" gradientUnits="userSpaceOnUse">
<stop offset="0.317708" stop-color="#FF7468"/>
<stop offset="0.447917" stop-color="#FE8E86" stop-opacity="0.6"/>
<stop offset="1" stop-color="white" stop-opacity="0"/>
</linearGradient>
<linearGradient id="paint48_linear" x1="146.399" y1="189.028" x2="155.346" y2="205.116" gradientUnits="userSpaceOnUse">
<stop offset="0.317708" stop-color="#FF7468"/>
<stop offset="0.447917" stop-color="#FE8E86" stop-opacity="0.6"/>
<stop offset="1" stop-color="white" stop-opacity="0"/>
</linearGradient>
<linearGradient id="paint49_linear" x1="180.477" y1="189.032" x2="189.424" y2="205.12" gradientUnits="userSpaceOnUse">
<stop offset="0.317708" stop-color="#FF7468"/>
<stop offset="0.447917" stop-color="#FE8E86" stop-opacity="0.6"/>
<stop offset="1" stop-color="white" stop-opacity="0"/>
</linearGradient>
<linearGradient id="paint50_linear" x1="214.555" y1="189.032" x2="223.502" y2="205.12" gradientUnits="userSpaceOnUse">
<stop offset="0.317708" stop-color="#FF7468"/>
<stop offset="0.447917" stop-color="#FE8E86" stop-opacity="0.6"/>
<stop offset="1" stop-color="white" stop-opacity="0"/>
</linearGradient>
<linearGradient id="paint51_linear" x1="248.641" y1="189.028" x2="257.588" y2="205.116" gradientUnits="userSpaceOnUse">
<stop offset="0.317708" stop-color="#FF7468"/>
<stop offset="0.447917" stop-color="#FE8E86" stop-opacity="0.6"/>
<stop offset="1" stop-color="white" stop-opacity="0"/>
</linearGradient>
<linearGradient id="paint52_linear" x1="282.735" y1="189.032" x2="291.682" y2="205.12" gradientUnits="userSpaceOnUse">
<stop offset="0.317708" stop-color="#FF7468"/>
<stop offset="0.447917" stop-color="#FE8E86" stop-opacity="0.6"/>
<stop offset="1" stop-color="white" stop-opacity="0"/>
</linearGradient>
<linearGradient id="paint53_linear" x1="316.836" y1="189.028" x2="325.784" y2="205.116" gradientUnits="userSpaceOnUse">
<stop offset="0.317708" stop-color="#FF7468"/>
<stop offset="0.447917" stop-color="#FE8E86" stop-opacity="0.6"/>
<stop offset="1" stop-color="white" stop-opacity="0"/>
</linearGradient>
<linearGradient id="paint54_linear" x1="350.934" y1="189.032" x2="359.881" y2="205.12" gradientUnits="userSpaceOnUse">
<stop offset="0.317708" stop-color="#FF7468"/>
<stop offset="0.447917" stop-color="#FE8E86" stop-opacity="0.6"/>
<stop offset="1" stop-color="white" stop-opacity="0"/>
</linearGradient>
<linearGradient id="paint55_linear" x1="10.0744" y1="234.825" x2="19.0218" y2="250.913" gradientUnits="userSpaceOnUse">
<stop offset="0.317708" stop-color="#FF7468"/>
<stop offset="0.447917" stop-color="#FE8E86" stop-opacity="0.6"/>
<stop offset="1" stop-color="white" stop-opacity="0"/>
</linearGradient>
<linearGradient id="paint56_linear" x1="44.1525" y1="234.829" x2="53.1" y2="250.917" gradientUnits="userSpaceOnUse">
<stop offset="0.317708" stop-color="#FF7468"/>
<stop offset="0.447917" stop-color="#FE8E86" stop-opacity="0.6"/>
<stop offset="1" stop-color="white" stop-opacity="0"/>
</linearGradient>
<linearGradient id="paint57_linear" x1="78.2307" y1="234.825" x2="87.1781" y2="250.913" gradientUnits="userSpaceOnUse">
<stop offset="0.317708" stop-color="#FF7468"/>
<stop offset="0.447917" stop-color="#FE8E86" stop-opacity="0.6"/>
<stop offset="1" stop-color="white" stop-opacity="0"/>
</linearGradient>
<linearGradient id="paint58_linear" x1="112.321" y1="234.829" x2="121.268" y2="250.917" gradientUnits="userSpaceOnUse">
<stop offset="0.317708" stop-color="#FF7468"/>
<stop offset="0.447917" stop-color="#FE8E86" stop-opacity="0.6"/>
<stop offset="1" stop-color="white" stop-opacity="0"/>
</linearGradient>
<linearGradient id="paint59_linear" x1="146.399" y1="234.825" x2="155.346" y2="250.913" gradientUnits="userSpaceOnUse">
<stop offset="0.317708" stop-color="#FF7468"/>
<stop offset="0.447917" stop-color="#FE8E86" stop-opacity="0.6"/>
<stop offset="1" stop-color="white" stop-opacity="0"/>
</linearGradient>
<linearGradient id="paint60_linear" x1="180.477" y1="234.829" x2="189.424" y2="250.917" gradientUnits="userSpaceOnUse">
<stop offset="0.317708" stop-color="#FF7468"/>
<stop offset="0.447917" stop-color="#FE8E86" stop-opacity="0.6"/>
<stop offset="1" stop-color="white" stop-opacity="0"/>
</linearGradient>
<linearGradient id="paint61_linear" x1="214.555" y1="234.829" x2="223.502" y2="250.917" gradientUnits="userSpaceOnUse">
<stop offset="0.317708" stop-color="#FF7468"/>
<stop offset="0.447917" stop-color="#FE8E86" stop-opacity="0.6"/>
<stop offset="1" stop-color="white" stop-opacity="0"/>
</linearGradient>
<linearGradient id="paint62_linear" x1="248.641" y1="234.825" x2="257.588" y2="250.913" gradientUnits="userSpaceOnUse">
<stop offset="0.317708" stop-color="#FF7468"/>
<stop offset="0.447917" stop-color="#FE8E86" stop-opacity="0.6"/>
<stop offset="1" stop-color="white" stop-opacity="0"/>
</linearGradient>
<linearGradient id="paint63_linear" x1="282.735" y1="234.829" x2="291.682" y2="250.917" gradientUnits="userSpaceOnUse">
<stop offset="0.317708" stop-color="#FF7468"/>
<stop offset="0.447917" stop-color="#FE8E86" stop-opacity="0.6"/>
<stop offset="1" stop-color="white" stop-opacity="0"/>
</linearGradient>
<linearGradient id="paint64_linear" x1="316.836" y1="234.825" x2="325.784" y2="250.913" gradientUnits="userSpaceOnUse">
<stop offset="0.317708" stop-color="#FF7468"/>
<stop offset="0.447917" stop-color="#FE8E86" stop-opacity="0.6"/>
<stop offset="1" stop-color="white" stop-opacity="0"/>
</linearGradient>
<linearGradient id="paint65_linear" x1="350.934" y1="234.829" x2="359.881" y2="250.917" gradientUnits="userSpaceOnUse">
<stop offset="0.317708" stop-color="#FF7468"/>
<stop offset="0.447917" stop-color="#FE8E86" stop-opacity="0.6"/>
<stop offset="1" stop-color="white" stop-opacity="0"/>
</linearGradient>
</defs>
</svg>
