<svg width="129" height="128" viewBox="0 0 129 128" fill="none" xmlns="http://www.w3.org/2000/svg">
<rect x="0.910156" y="0.714844" width="127.445" height="127.176" fill="#FB7333"/>
<path d="M83.4478 70.3478C87.7199 65.6451 87.2898 59.606 87.2762 59.5371V52.6484V41.1673C87.2762 39.8998 86.2642 38.8711 85.0122 38.8711H71.4282C68.931 38.8711 66.9002 40.9308 66.9002 43.4635V59.5371C66.9002 60.8046 67.9122 61.8333 69.1642 61.8333H71.4282H76.1328C76.0853 62.7564 75.8543 63.9275 75.1615 65.0389C74.0114 66.8782 71.8448 68.1342 68.7182 68.7679L66.9002 69.1353V75.6107H69.1642C75.4649 75.6107 80.2714 73.8403 83.4478 70.3478ZM58.528 70.3478C62.8024 65.6451 62.37 59.606 62.3564 59.5371V52.6484V41.1673C62.3564 39.8998 61.3444 38.8711 60.0924 38.8711H46.5085C44.0113 38.8711 41.9805 40.9308 41.9805 43.4635V59.5371C41.9805 60.8046 42.9925 61.8333 44.2445 61.8333H46.5085H51.213C51.1655 62.7564 50.9346 63.9275 50.2418 65.0389C49.0917 66.8782 46.925 68.1342 43.7985 68.7679L41.9805 69.1353V75.6107H44.2445C50.5452 75.6107 55.3516 73.8403 58.528 70.3478Z" fill="white"/>
</svg>
