<svg width="1260" height="10" viewBox="0 0 1260 10" fill="none" xmlns="http://www.w3.org/2000/svg">
<path d="M0 5L7.5 9.33013V0.669873L0 5ZM16.3636 5.75H27.2727V4.25H16.3636V5.75ZM38.1818 5.75H49.0909V4.25H38.1818V5.75ZM60 5.75H70.9091V4.25H60V5.75ZM81.8182 5.75H92.7273V4.25H81.8182V5.75ZM103.636 5.75H114.545V4.25H103.636V5.75ZM125.455 5.75H136.364V4.25H125.455V5.75ZM147.273 5.75H158.182V4.25H147.273V5.75ZM169.091 5.75H180V4.25H169.091V5.75ZM190.909 5.75H201.818V4.25H190.909V5.75ZM212.727 5.75H223.636V4.25H212.727V5.75ZM234.545 5.75H240V4.25H234.545V5.75Z" fill="#3F2355"/>
<path d="M340 5H580" stroke="#3F2355" stroke-width="1.5" stroke-dasharray="10.5 10.5"/>
<path d="M680 5H920" stroke="#3F2355" stroke-width="1.5" stroke-dasharray="10.5 10.5"/>
<path d="M1260 5L1252.5 0.669873V9.33013L1260 5ZM1020 5.75H1025.45V4.25H1020V5.75ZM1036.36 5.75H1047.27V4.25H1036.36V5.75ZM1058.18 5.75H1069.09V4.25H1058.18V5.75ZM1080 5.75H1090.91V4.25H1080V5.75ZM1101.82 5.75H1112.73V4.25H1101.82V5.75ZM1123.64 5.75H1134.55V4.25H1123.64V5.75ZM1145.45 5.75H1156.36V4.25H1145.45V5.75ZM1167.27 5.75H1178.18V4.25H1167.27V5.75ZM1189.09 5.75H1200V4.25H1189.09V5.75ZM1210.91 5.75H1221.82V4.25H1210.91V5.75ZM1232.73 5.75H1243.64V4.25H1232.73V5.75Z" fill="#3F2355"/>
</svg>
