<svg width="10" height="1191" viewBox="0 0 10 1191" fill="none" xmlns="http://www.w3.org/2000/svg">
<path d="M5 0L0.669872 7.5L9.33013 7.5L5 0ZM4.25 16.0714L4.25 26.7857L5.75 26.7857L5.75 16.0714L4.25 16.0714ZM4.25 37.5L4.25 48.2143L5.75 48.2143L5.75 37.5L4.25 37.5ZM4.25 58.9286L4.25 69.6429L5.75 69.6429L5.75 58.9286L4.25 58.9286ZM4.25 80.3572L4.25 91.0714L5.75 91.0714L5.75 80.3572L4.25 80.3572ZM4.25 101.786L4.25 112.5L5.75 112.5L5.75 101.786L4.25 101.786ZM4.24999 123.214L4.24999 133.929L5.74999 133.929L5.74999 123.214L4.24999 123.214ZM4.24999 144.643L4.24999 150L5.74999 150L5.74999 144.643L4.24999 144.643Z" fill="#3F2355"/>
<path d="M5 342L4.99999 492" stroke="#3F2355" stroke-width="1.5" stroke-dasharray="10.5 10.5"/>
<path d="M5 694L4.99999 844" stroke="#3F2355" stroke-width="1.5" stroke-dasharray="10.5 10.5"/>
<path d="M5 1191L9.33013 1183.5L0.669873 1183.5L5 1191ZM5.75 1174.93L5.75 1164.21L4.25 1164.21L4.25 1174.93L5.75 1174.93ZM5.75 1153.5L5.75 1142.79L4.25 1142.79L4.25 1153.5L5.75 1153.5ZM5.75 1132.07L5.75 1121.36L4.25 1121.36L4.25 1132.07L5.75 1132.07ZM5.75 1110.64L5.75 1099.93L4.25 1099.93L4.25 1110.64L5.75 1110.64ZM5.75 1089.21L5.75 1078.5L4.25 1078.5L4.25 1089.21L5.75 1089.21ZM5.75 1067.79L5.75 1057.07L4.25 1057.07L4.25 1067.79L5.75 1067.79ZM5.75 1046.36L5.75 1041L4.25 1041L4.25 1046.36L5.75 1046.36Z" fill="#3F2355"/>
</svg>
