<?xml version="1.0" encoding="utf-8"?>
<!-- Generator: Adobe Illustrator 24.2.0, SVG Export Plug-In . SVG Version: 6.00 Build 0)  -->
<svg version="1.1" id="Layer_1" xmlns="http://www.w3.org/2000/svg" xmlns:xlink="http://www.w3.org/1999/xlink" x="0px" y="0px"
	 viewBox="0 0 18.3 12.4" style="enable-background:new 0 0 18.3 12.4;" xml:space="preserve">
<style type="text/css">
	.st0{fill:#3F2355;}
</style>
<path class="st0" d="M17.2,5.2H1.1c-0.5,0-1,0.4-1,0.9v0.1c0,0.5,0.4,0.9,1,0.9h16.1c0.5,0,1-0.4,1-0.9V6.1
	C18.2,5.6,17.7,5.2,17.2,5.2z"/>
<path class="st0" d="M17.2,10.2H1.1c-0.5,0-1,0.4-1,1v0.1c0,0.5,0.4,1,1,1h16.1c0.5,0,1-0.4,1-1v-0.1C18.2,10.6,17.7,10.2,17.2,10.2
	z"/>
<path class="st0" d="M17.2,0.2H1.1c-0.5,0-1,0.4-1,0.9v0.1c0,0.5,0.4,0.9,1,0.9h16.1c0.5,0,1-0.4,1-0.9V1.1
	C18.2,0.6,17.7,0.2,17.2,0.2z"/>
</svg>
