<svg width="24" height="25" viewBox="0 0 24 25" fill="none" xmlns="http://www.w3.org/2000/svg">
<path d="M8 25L16 25C20.4183 25 24 21.4183 24 17L24 9C24 4.58172 20.4183 1 16 1L8 1C3.58172 1 0 4.58172 0 9L0 17C0 21.4183 3.58172 25 8 25Z" fill="#F1F3F5"/>
<path d="M16.011 7.5402L7.57631 16.6933C7.30144 16.9916 7.31832 17.4543 7.61401 17.7268L7.67036 17.7787C7.96605 18.0512 8.42859 18.0303 8.70346 17.732L17.1382 8.57887C17.413 8.28059 17.3962 7.81789 17.1005 7.54541L17.0441 7.49348C16.7484 7.22099 16.2859 7.24191 16.011 7.5402Z" fill="#3F2355"/>
<path d="M17.4583 16.2537L8.27641 7.85034C7.97719 7.57649 7.51455 7.59495 7.24308 7.89157L7.19134 7.94811C6.91987 8.24473 6.94237 8.70718 7.24159 8.98103L16.4235 17.3844C16.7227 17.6582 17.1854 17.6398 17.4568 17.3432L17.5086 17.2866C17.78 16.99 17.7575 16.5275 17.4583 16.2537Z" fill="#3F2355"/>
</svg>
