<svg width="79" height="49" viewBox="0 0 79 49" fill="none" xmlns="http://www.w3.org/2000/svg">
<path d="M76.2251 36.1787H66.7842V35.4639H75.9688C75.9785 35.7228 76.068 35.9725 76.2251 36.1787Z" fill="#644E77"/>
<path d="M75.9619 35.4639H77.0308V36.1787H76.2249C76.0655 35.9733 75.9736 35.7236 75.9619 35.4639Z" fill="#644E77"/>
<path d="M46.857 20.5674C46.857 21.0422 47.0457 21.4976 47.3814 21.8334C47.7172 22.1692 48.1726 22.3578 48.6474 22.3578H66.339C66.8138 22.3578 67.2692 22.1692 67.605 21.8334C67.9407 21.4976 68.1294 21.0422 68.1294 20.5674V16.3729C68.1276 14.5248 67.3922 12.753 66.0847 11.4468C64.7773 10.1406 63.0047 9.40692 61.1566 9.40692H48.6474C48.1723 9.40782 47.7169 9.5972 47.3812 9.9335C47.0456 10.2698 46.857 10.7255 46.857 11.2007V20.5674ZM22.2939 36.1786H42.0624V35.4637H37.4634V10.2465C37.4625 9.95434 37.346 9.67442 37.1395 9.46784C36.9329 9.26127 36.653 9.14482 36.3608 9.14393H23.3998C23.1071 9.14393 22.8263 9.25998 22.619 9.46665C22.4117 9.67333 22.2948 9.95376 22.2939 10.2465V35.4637H13.1126V7.4176C13.1144 5.91792 13.7112 4.48022 14.7719 3.4201C15.8327 2.35999 17.2707 1.76408 18.7704 1.76318H59.3595C63.7602 1.76854 67.9791 3.51908 71.0909 6.63086C74.2026 9.74263 75.9532 13.9616 75.9585 18.3623V35.4031C75.9568 35.4266 75.9568 35.4503 75.9585 35.4739H66.7773V36.1887H76.2182C76.3311 36.3443 76.477 36.4731 76.6454 36.5657C76.8139 36.6584 77.0007 36.7127 77.1926 36.7248V39.6076H65.0071C64.9565 36.7137 63.7714 33.9555 61.707 31.9268C59.6426 29.8982 56.8641 28.7615 53.9697 28.7615C51.0754 28.7615 48.2968 29.8982 46.2324 31.9268C44.168 33.9555 42.9829 36.7137 42.9323 39.6076H12.9238V36.1786H22.2939Z" fill="white"/>
<path d="M61.1565 10.4795C62.7191 10.4813 64.2172 11.1028 65.3221 12.2077C66.427 13.3126 67.0486 14.8107 67.0503 16.3733V20.5677C67.0495 20.7579 66.9735 20.9401 66.839 21.0746C66.7045 21.2091 66.5224 21.285 66.3322 21.2859H48.6474C48.4572 21.285 48.275 21.2091 48.1405 21.0746C48.006 20.9401 47.9301 20.7579 47.9292 20.5677V11.201C47.9292 11.0103 48.0048 10.8272 48.1393 10.692C48.2739 10.5568 48.4566 10.4804 48.6474 10.4795H61.1565Z" fill="#DEDFE0"/>
<path d="M59.2586 44.9282C70.3179 45.2452 77.7155 45.8184 77.7155 46.4725C77.7155 47.2311 67.8566 47.8819 53.8874 48.1584L53.8672 47.0861C55.8743 47.0835 57.804 46.3112 59.2586 44.9282Z" fill="#DEDFE0"/>
<path d="M53.8639 33.1543C55.2699 33.1594 56.6306 33.6526 57.7134 34.5496C58.7962 35.4465 59.534 36.6916 59.8007 38.0722C60.0674 39.4527 59.8465 40.883 59.1757 42.1188C58.5049 43.3545 57.4259 44.319 56.1229 44.8475C54.6023 44.8138 53.0243 44.7801 51.4025 44.7565C50.1395 44.1872 49.1093 43.203 48.4829 41.9674C47.8566 40.7317 47.6718 39.319 47.9593 37.9638C48.2468 36.6087 48.9893 35.3926 50.0634 34.5177C51.1375 33.6428 52.4786 33.1617 53.8639 33.1543ZM53.8639 43.2021C54.92 43.2003 55.9323 42.7797 56.6788 42.0326C57.4253 41.2855 57.845 40.2728 57.8459 39.2167C57.848 38.9906 57.8289 38.7648 57.7886 38.5423L57.4514 38.6064C57.4531 38.621 57.4531 38.6357 57.4514 38.6502C57.3581 38.04 57.1111 37.4636 56.7336 36.9752C56.3561 36.4868 55.8605 36.1025 55.2935 35.8584L55.4284 35.5381C54.8861 35.3149 54.3013 35.2142 53.7156 35.2432C53.13 35.2722 52.5579 35.4302 52.0404 35.7059C51.5229 35.9816 51.0726 36.3681 50.7218 36.838C50.371 37.3078 50.1283 37.8494 50.011 38.4239C49.8937 38.9984 49.9048 39.5918 50.0434 40.1615C50.1819 40.7313 50.4447 41.2634 50.8127 41.7199C51.1808 42.1764 51.6451 42.5459 52.1726 42.8021C52.7 43.0583 53.2775 43.1949 53.8639 43.2021Z" fill="white"/>
<path d="M57.4916 39.0884C57.4949 39.131 57.4949 39.1739 57.4916 39.2165C57.491 39.5657 57.441 39.913 57.3433 40.2483C57.4402 39.9129 57.489 39.5656 57.4882 39.2165C57.495 39.176 57.495 39.1322 57.4916 39.0884Z" fill="white"/>
<path d="M57.4883 38.9775C57.4883 38.9438 57.4883 38.9067 57.4883 38.8696C57.4849 38.9067 57.4883 38.9438 57.4883 38.9775Z" fill="white"/>
<path d="M57.3328 40.2988C57.2793 40.4657 57.2151 40.6291 57.1406 40.7877C57.2151 40.6291 57.2793 40.4657 57.3328 40.2988Z" fill="#644E77"/>
<path d="M56.9722 41.0951C57.0295 41.0006 57.0834 40.9029 57.1374 40.7983C57.0876 40.9001 57.0325 40.9992 56.9722 41.0951Z" fill="#644E77"/>
<path d="M56.1329 44.8439C57.2051 44.8675 58.2504 44.8911 59.2653 44.9248C57.7705 46.3377 55.7807 47.1071 53.7242 47.0673C51.6677 47.0276 49.7091 46.1819 48.27 44.7124L51.4091 44.7529C52.1499 45.0826 52.9494 45.2606 53.7601 45.2762C54.5709 45.2918 55.3766 45.1449 56.1295 44.8439H56.1329Z" fill="#644E77"/>
<path d="M53.8637 45.2828C53.014 45.2852 52.1736 45.1058 51.3989 44.7568C53.0241 44.7804 54.6021 44.8142 56.1194 44.8479C55.4026 45.1371 54.6366 45.2848 53.8637 45.2828Z" fill="#DEDFE0"/>
<path d="M53.8636 42.8449C53.3254 42.8456 52.7938 42.7266 52.3073 42.4965C51.8208 42.2664 51.3916 41.931 51.0508 41.5145C50.7099 41.098 50.466 40.6109 50.3367 40.0885C50.2074 39.5661 50.196 39.0215 50.3032 38.4941C50.4104 37.9667 50.6336 37.4698 50.9566 37.0393C51.2796 36.6089 51.6943 36.2557 52.1707 36.0053C52.6471 35.755 53.1732 35.6137 53.711 35.5919C54.2487 35.57 54.7845 35.668 55.2797 35.8788C55.8467 36.1229 56.3423 36.5072 56.7198 36.9956C57.0973 37.484 57.3443 38.0604 57.4376 38.6706C57.4529 38.7383 57.463 38.8071 57.468 38.8763C57.468 38.9134 57.468 38.9505 57.468 38.9842C57.4713 39.0212 57.4713 39.0585 57.468 39.0955C57.468 39.1393 57.468 39.1831 57.468 39.2236C57.4687 39.5726 57.4199 39.92 57.323 40.2554C57.323 40.2554 57.323 40.2891 57.323 40.3059C57.2695 40.4728 57.2053 40.6362 57.1308 40.7948C57.0768 40.8994 57.0229 40.9971 56.9656 41.0915C56.643 41.626 56.1881 42.0681 55.6447 42.3753C55.1012 42.6824 54.4878 42.8441 53.8636 42.8449Z" fill="white"/>
<path d="M48.27 44.7158C48.9991 45.4635 49.8706 46.0576 50.8331 46.4629C51.7956 46.8683 52.8295 47.0768 53.8738 47.076L53.8941 48.1482C49.5108 48.2359 44.7094 48.2797 39.6889 48.2797C18.6796 48.2797 1.64893 47.4705 1.64893 46.4758C1.64893 45.4812 18.6796 44.6753 39.6889 44.6753C42.6392 44.6719 45.5119 44.6854 48.27 44.7158Z" fill="#DEDFE0"/>
<path d="M47.7946 39.2171C47.7955 40.3897 48.1361 41.5369 48.7752 42.52C49.4142 43.5031 50.3244 44.28 51.3956 44.7569L48.2565 44.7164C47.1632 43.6028 46.4263 42.1888 46.1399 40.6548C45.8534 39.1207 46.0303 37.5361 46.648 36.103C47.2657 34.6699 48.2962 33.4532 49.6081 32.6081C50.9201 31.763 52.454 31.3278 54.0143 31.3579C55.5745 31.3881 57.0905 31.8822 58.3688 32.7774C59.6471 33.6725 60.6299 34.9281 61.1918 36.384C61.7537 37.8399 61.8692 39.4302 61.5237 40.952C61.1782 42.4738 60.3872 43.8583 59.2518 44.9288C58.2402 44.8951 57.1916 44.8715 56.1194 44.8479C57.1427 44.4382 58.0351 43.7576 58.7009 42.8791C59.3666 42.0006 59.7805 40.9574 59.8982 39.8614C60.0158 38.7654 59.8328 37.6581 59.3687 36.6583C58.9046 35.6585 58.177 34.8039 57.264 34.1864C56.351 33.5688 55.287 33.2116 54.1863 33.153C53.0856 33.0944 51.9897 33.3367 51.0163 33.8538C50.0429 34.3709 49.2287 35.1434 48.6611 36.0883C48.0935 37.0332 47.7939 38.1148 47.7946 39.2171Z" fill="#644E77"/>
<path d="M50.2527 39.2165C50.2518 40.0077 50.51 40.7774 50.988 41.4079C51.4659 42.0385 52.1372 42.4952 52.8992 42.7081C53.6612 42.9211 54.472 42.8786 55.2076 42.5872C55.9432 42.2958 56.5631 41.7716 56.9725 41.0945C56.6121 41.6913 56.0876 42.1718 55.4617 42.4788C54.8357 42.7857 54.1347 42.9062 53.4422 42.8258C52.7497 42.7454 52.0949 42.4676 51.5559 42.0254C51.0169 41.5832 50.6165 40.9953 50.4023 40.3318C50.1881 39.6684 50.1693 38.9573 50.348 38.2835C50.5268 37.6096 50.8955 37.0013 51.4104 36.5312C51.9252 36.0611 52.5643 35.749 53.2516 35.6321C53.9389 35.5151 54.6453 35.5983 55.2867 35.8717C54.7356 35.6385 54.1353 35.5453 53.5394 35.6005C52.9435 35.6557 52.3706 35.8577 51.8717 36.1882C51.3729 36.5188 50.9637 36.9677 50.6805 37.4949C50.3974 38.0222 50.2493 38.6113 50.2493 39.2097L50.2527 39.2165Z" fill="#644E77"/>
<path d="M48.6474 21.2825H66.3389C66.5291 21.2816 66.7112 21.2057 66.8457 21.0712C66.9802 20.9367 67.0562 20.7545 67.0571 20.5643V16.3733C67.0553 14.8107 66.4338 13.3126 65.3288 12.2077C64.2239 11.1028 62.7258 10.4813 61.1633 10.4795H48.6541C48.4633 10.4804 48.2807 10.5568 48.1461 10.692C48.0115 10.8272 47.9359 11.0102 47.9359 11.201V20.5677C47.9377 20.7562 48.0131 20.9365 48.146 21.0701C48.279 21.2036 48.4589 21.2799 48.6474 21.2825ZM48.6474 21.8186C48.315 21.8177 47.9965 21.6853 47.7614 21.4503C47.5264 21.2153 47.394 20.8967 47.3931 20.5643V11.201C47.3931 10.8681 47.5251 10.5487 47.7602 10.3129C47.9954 10.0772 48.3144 9.94425 48.6474 9.94336H61.1565C62.8618 9.94336 64.4973 10.6208 65.7032 11.8266C66.909 13.0325 67.5864 14.668 67.5864 16.3733V20.5677C67.5864 20.9004 67.4543 21.2194 67.2191 21.4546C66.9838 21.6899 66.6648 21.822 66.3321 21.822L48.6474 21.8186Z" fill="#644E77"/>
<path d="M66.3389 22.3547H48.6473C48.1725 22.3547 47.7171 22.1661 47.3813 21.8303C47.0456 21.4946 46.8569 21.0392 46.8569 20.5643V11.201C46.8569 10.7258 47.0455 10.2701 47.3811 9.9338C47.7168 9.5975 48.1722 9.40812 48.6473 9.40723H61.1565C63.0035 9.40901 64.7742 10.1435 66.0802 11.4495C67.3862 12.7555 68.1207 14.5263 68.1225 16.3732V20.5677C68.1216 21.0408 67.9335 21.4943 67.5993 21.8291C67.2651 22.164 66.812 22.3529 66.3389 22.3547ZM48.6473 9.94333C48.3144 9.94423 47.9953 10.0771 47.7602 10.3129C47.5251 10.5486 47.393 10.868 47.393 11.201V20.5677C47.3939 20.9001 47.5264 21.2186 47.7614 21.4536C47.9964 21.6887 48.3149 21.8211 48.6473 21.822H66.3389C66.6704 21.8202 66.9877 21.6873 67.2214 21.4522C67.4552 21.2172 67.5864 20.8992 67.5864 20.5677V16.3732C67.5864 14.6679 66.909 13.0325 65.7031 11.8266C64.4973 10.6208 62.8618 9.94333 61.1565 9.94333H48.6473Z" fill="#644E77"/>
<path d="M42.0624 35.4639H37.4634V36.1787H42.0624V35.4639Z" fill="#644E77"/>
<path d="M37.4634 35.4639H37.106V36.1787H37.4634V35.4639Z" fill="#644E77"/>
<path d="M33.7512 24.354H34.1086C34.1322 24.3544 34.1557 24.3501 34.1775 24.3413C34.1994 24.3325 34.2193 24.3193 34.236 24.3026C34.2527 24.286 34.2658 24.2661 34.2746 24.2442C34.2835 24.2223 34.2878 24.1988 34.2873 24.1753V20.8035C34.2878 20.7798 34.2835 20.7562 34.2747 20.7341C34.2659 20.712 34.2528 20.6919 34.2362 20.675C34.2195 20.658 34.1997 20.6446 34.1778 20.6354C34.1559 20.6262 34.1324 20.6214 34.1086 20.6214H33.7512C33.7275 20.6214 33.7039 20.6262 33.682 20.6354C33.6601 20.6446 33.6403 20.658 33.6236 20.675C33.607 20.6919 33.5939 20.712 33.5851 20.7341C33.5763 20.7562 33.5721 20.7798 33.5725 20.8035V24.1753C33.572 24.1988 33.5764 24.2223 33.5852 24.2442C33.594 24.2661 33.6071 24.286 33.6238 24.3026C33.6405 24.3193 33.6604 24.3325 33.6823 24.3413C33.7042 24.3501 33.7276 24.3544 33.7512 24.354ZM36.3609 9.85547C36.4629 9.85547 36.5606 9.89596 36.6327 9.96805C36.7048 10.0401 36.7453 10.1379 36.7453 10.2398V35.4571H23.0122V10.2466C23.0131 10.1443 23.0543 10.0466 23.127 9.97459C23.1996 9.9026 23.2977 9.86221 23.4 9.86221L36.3609 9.85547Z" fill="white"/>
<path d="M34.1084 20.8174H33.751V24.179H34.1084V20.8174Z" fill="#644E77"/>
<path d="M33.751 20.8168V24.1886H34.1084V20.8168H33.751ZM34.1084 20.6348C34.1322 20.6348 34.1557 20.6395 34.1776 20.6487C34.1995 20.6579 34.2193 20.6713 34.236 20.6883C34.2526 20.7052 34.2657 20.7253 34.2745 20.7474C34.2833 20.7695 34.2876 20.7931 34.2871 20.8168V24.1886C34.2876 24.2122 34.2833 24.2356 34.2744 24.2575C34.2656 24.2794 34.2525 24.2993 34.2358 24.316C34.2191 24.3327 34.1992 24.3458 34.1773 24.3546C34.1554 24.3634 34.132 24.3677 34.1084 24.3673H33.751C33.7274 24.3677 33.704 24.3634 33.6821 24.3546C33.6602 24.3458 33.6403 24.3327 33.6236 24.316C33.6069 24.2993 33.5938 24.2794 33.585 24.2575C33.5761 24.2356 33.5718 24.2122 33.5723 24.1886V20.8168C33.5719 20.7931 33.5761 20.7695 33.5849 20.7474C33.5937 20.7253 33.6068 20.7052 33.6234 20.6883C33.6401 20.6713 33.6599 20.6579 33.6818 20.6487C33.7037 20.6395 33.7272 20.6348 33.751 20.6348H34.1084Z" fill="#644E77"/>
<path d="M22.2939 10.2471C22.2948 9.95436 22.4117 9.67393 22.6191 9.46726C22.8264 9.26058 23.1071 9.14453 23.3999 9.14453H36.3609C36.653 9.14542 36.9329 9.26187 37.1395 9.46844C37.3461 9.67502 37.4625 9.95495 37.4634 10.2471V35.4643H36.7452V10.2471C36.7452 10.1451 36.7047 10.0474 36.6327 9.97529C36.5606 9.90321 36.4628 9.86271 36.3609 9.86271H23.3999C23.2976 9.86271 23.1995 9.9031 23.1269 9.97509C23.0543 10.0471 23.013 10.1448 23.0121 10.2471V35.4643H22.2939V10.2471Z" fill="#644E77"/>
<path d="M37.1061 35.4639V36.182H22.6548V35.4639H23.0122H36.7453H37.1061Z" fill="#644E77"/>
<path d="M22.6513 35.4639H22.2939V36.1787H22.6513V35.4639Z" fill="#644E77"/>
<path d="M22.294 35.4639V36.182H12.9341V35.8213H13.1128V35.4639H22.294Z" fill="#644E77"/>
<path d="M13.1127 35.4639V35.8213H12.934H12.2192V35.4639H13.1127Z" fill="#644E77"/>
<path d="M12.9339 36.1787H12.6372V39.5977H12.9339V36.1787Z" fill="#644E77"/>
<path d="M12.9339 39.5977H12.6372V40.4945H12.9339V39.5977Z" fill="#644E77"/>
<path d="M12.934 35.8218V36.1826H12.6373V36.0038H12.2192V35.8218H12.934Z" fill="#644E77"/>
<path d="M12.6373 36.0034H12.2192V36.1788H12.6373V36.0034Z" fill="#644E77"/>
<path d="M12.6373 39.5977H12.2192V40.4945H12.6373V39.5977Z" fill="#644E77"/>
<path d="M12.6373 40.4946H12.2192V41.378H12.6373V40.4946Z" fill="#644E77"/>
<path d="M12.934 40.4945V39.5976H42.9426C42.9931 36.7037 44.1782 33.9455 46.2426 31.9168C48.3071 29.8882 51.0856 28.7515 53.98 28.7515C56.8743 28.7515 59.6528 29.8882 61.7173 31.9168C63.7817 33.9455 64.9668 36.7037 65.0173 39.5976H77.2096V36.7148C77.0177 36.7027 76.8308 36.6484 76.6624 36.5558C76.4939 36.4631 76.348 36.3343 76.2351 36.1787H77.041V35.4639L77.7592 34.9918C78.116 35.093 78.4301 35.3077 78.654 35.6033C78.8779 35.899 78.9994 36.2596 79 36.6305V39.6853C78.9991 40.1372 78.8189 40.5703 78.4991 40.8895C78.1792 41.2087 77.7458 41.388 77.2939 41.388H63.0853L63.1798 40.4035C63.207 40.1425 63.2193 39.8802 63.2168 39.6179C63.1706 37.196 62.176 34.8889 60.4469 33.1925C58.7178 31.4961 56.3922 30.5458 53.9698 30.5458C51.5475 30.5458 49.2219 31.4961 47.4928 33.1925C45.7636 34.8889 44.7691 37.196 44.7228 39.6179C44.722 39.8802 44.7344 40.1424 44.7599 40.4035L44.8577 41.388H12.2192H12.6373V40.4945H12.934Z" fill="#644E77"/>
<path d="M11.3223 35.8214V7.41783C11.3329 5.44854 12.1221 3.5634 13.5174 2.17372C14.9128 0.784048 16.8011 0.0026419 18.7704 0H59.3595C64.2353 0.00624702 68.9097 1.94617 72.3571 5.39425C75.8045 8.84232 77.7436 13.517 77.749 18.3929V35.0088L77.0308 35.4808H75.9619C75.9602 35.4573 75.9602 35.4336 75.9619 35.41V18.376C75.9566 13.9747 74.2056 9.75526 71.0931 6.64339C67.9806 3.53152 63.7608 1.78137 59.3595 1.77691H18.7704C17.2731 1.77779 15.8371 2.37185 14.7767 3.42905C13.7164 4.48626 13.118 5.92049 13.1127 7.41783V35.4505H12.2192V35.8079H11.3223V35.8214Z" fill="#644E77"/>
<path d="M12.2158 35.8218H11.501V36.0038H12.2158V35.8218Z" fill="#644E77"/>
<path d="M11.501 40.4946V40.3024H11.5617V37.079H11.501V36.0034H12.2192V36.1821H12.6373V39.5977H12.2192V40.4946H11.501Z" fill="#644E77"/>
<path d="M11.5617 37.0791H11.501V40.3025H11.5617V37.0791Z" fill="#644E77"/>
<path d="M11.5007 37.0895V40.3129H1.42597C1.38024 40.3129 1.33497 40.3037 1.29293 40.2857C1.25088 40.2677 1.21293 40.2414 1.18139 40.2082C1.14985 40.1751 1.12538 40.1359 1.10946 40.0931C1.09354 40.0502 1.08651 40.0045 1.0888 39.9588V31.4722H4.2987V35.6801C4.2987 36.0512 4.44612 36.4071 4.70854 36.6695C4.97095 36.932 5.32686 37.0794 5.69797 37.0794L11.5007 37.0895Z" fill="white"/>
<path d="M6.06245 27.7256C6.07955 27.7252 6.09658 27.7282 6.11251 27.7344C6.12845 27.7406 6.14297 27.75 6.15523 27.7619C6.16749 27.7739 6.17723 27.7882 6.18388 27.8039C6.19053 27.8197 6.19395 27.8366 6.19394 27.8538V30.3994H1.07227V27.8538C1.07226 27.8366 1.07568 27.8197 1.08233 27.8039C1.08898 27.7882 1.09872 27.7739 1.11098 27.7619C1.12324 27.75 1.13776 27.7406 1.1537 27.7344C1.16963 27.7282 1.18666 27.7252 1.20376 27.7256H6.06245Z" fill="#DEDFE0"/>
<path d="M5.69859 37.0895C5.32748 37.0895 4.97157 36.9421 4.70915 36.6797C4.44674 36.4172 4.29932 36.0613 4.29932 35.6902V31.4722H5.37153V35.6801C5.37153 35.7695 5.40705 35.8553 5.47029 35.9185C5.53352 35.9818 5.61928 36.0173 5.7087 36.0173H11.5115V37.0895H5.69859Z" fill="#644E77"/>
<path d="M4.37646 30.936C4.44697 30.7766 4.56224 30.6411 4.70829 30.5459C4.85433 30.4507 5.02486 30.4 5.19917 30.3999V30.936H4.37646Z" fill="#644E77"/>
<path d="M4.29932 31.2997C4.29901 31.1742 4.32544 31.05 4.37687 30.9355H5.19957V31.4717H4.29932V31.2997Z" fill="#644E77"/>
<path d="M4.37657 30.936H1.07227V30.3999H5.19928C5.02497 30.4 4.85444 30.4507 4.7084 30.5459C4.56235 30.6411 4.44708 30.7766 4.37657 30.936Z" fill="#644E77"/>
<path d="M4.29902 31.4717H1.07227V30.9355H4.37657C4.32515 31.05 4.29871 31.1742 4.29902 31.2997V31.4717Z" fill="#644E77"/>
<path d="M1.07568 30.3999H0.57666V30.936H1.07568V30.3999Z" fill="#644E77"/>
<path d="M1.07568 30.9355H0.57666V31.4717H1.07568V30.9355Z" fill="#644E77"/>
<path d="M0.536133 30.9358V27.854C0.536133 27.6752 0.607182 27.5037 0.733647 27.3772C0.860112 27.2507 1.03163 27.1797 1.21048 27.1797H6.06916C6.24801 27.1797 6.41954 27.2507 6.546 27.3772C6.67247 27.5037 6.74351 27.6752 6.74351 27.854V30.457C6.74263 30.5837 6.6919 30.705 6.6023 30.7946C6.5127 30.8842 6.39144 30.9349 6.26473 30.9358H5.21274V30.3997H6.22426V27.854C6.22427 27.8369 6.22085 27.82 6.2142 27.8042C6.20755 27.7884 6.19781 27.7742 6.18555 27.7622C6.1733 27.7503 6.15877 27.7409 6.14283 27.7347C6.1269 27.7284 6.10987 27.7255 6.09277 27.7259H1.20374C1.18663 27.7255 1.16961 27.7284 1.15367 27.7347C1.13774 27.7409 1.12321 27.7503 1.11095 27.7622C1.0987 27.7742 1.08896 27.7884 1.08231 27.8042C1.07566 27.82 1.07224 27.8369 1.07224 27.854V30.3997H0.590082V30.9358H0.536133Z" fill="#644E77"/>
<path d="M1.42629 41.378C1.04772 41.3771 0.684951 41.2261 0.417574 40.9581C0.150198 40.6901 4.13712e-05 40.3269 4.24241e-05 39.9484V27.8539C-0.00129132 27.6948 0.0288352 27.5371 0.0886886 27.3897C0.148542 27.2423 0.236942 27.1081 0.348805 26.995C0.460669 26.8819 0.59379 26.792 0.740513 26.7305C0.887236 26.669 1.04467 26.6372 1.20375 26.6367H6.06244C6.38141 26.6376 6.68706 26.7647 6.91261 26.9903C7.13815 27.2158 7.26526 27.5215 7.26615 27.8404V30.4434C7.26615 30.7117 7.15958 30.969 6.96988 31.1587C6.78018 31.3484 6.5229 31.4549 6.25463 31.4549H5.20264V30.9188H6.25463C6.38134 30.9179 6.5026 30.8672 6.5922 30.7776C6.6818 30.688 6.73253 30.5668 6.73341 30.44V27.8371C6.73341 27.6582 6.66237 27.4867 6.5359 27.3602C6.40944 27.2338 6.23791 27.1627 6.05906 27.1627H1.20375C1.02491 27.1627 0.853382 27.2338 0.726918 27.3602C0.600453 27.4867 0.529406 27.6582 0.529406 27.8371V30.9188H0.590097V31.4549H1.08574V39.9315C1.08346 39.9772 1.09049 40.0228 1.1064 40.0657C1.12232 40.1086 1.1468 40.1478 1.17834 40.1809C1.20988 40.214 1.24782 40.2404 1.28987 40.2584C1.33192 40.2763 1.37718 40.2856 1.42292 40.2855H11.4977V40.4777H12.2159V41.3611L1.42629 41.378Z" fill="#644E77"/>
</svg>
