<svg width="16" height="16" viewBox="0 0 16 16" fill="none" xmlns="http://www.w3.org/2000/svg">
<path d="M4.36341 2.18181C4.36341 1.79604 4.51666 1.42607 4.78944 1.15329C5.06222 0.880511 5.43219 0.727264 5.81796 0.727264H10.1816C10.5674 0.727264 10.9373 0.880511 11.2101 1.15329C11.4829 1.42607 11.6361 1.79604 11.6361 2.18181V3.63636H14.5452C14.7381 3.63636 14.9231 3.71298 15.0595 3.84937C15.1959 3.98576 15.2725 4.17074 15.2725 4.36363C15.2725 4.55651 15.1959 4.7415 15.0595 4.87789C14.9231 5.01428 14.7381 5.0909 14.5452 5.0909H13.7678L13.1372 13.9214C13.1111 14.2884 12.9469 14.6319 12.6777 14.8826C12.4085 15.1333 12.0542 15.2727 11.6863 15.2727H4.31251C3.94461 15.2727 3.59037 15.1333 3.32115 14.8826C3.05193 14.6319 2.88772 14.2884 2.8616 13.9214L2.23251 5.0909H1.45432C1.26144 5.0909 1.07645 5.01428 0.940064 4.87789C0.803674 4.7415 0.727051 4.55651 0.727051 4.36363C0.727051 4.17074 0.803674 3.98576 0.940064 3.84937C1.07645 3.71298 1.26144 3.63636 1.45432 3.63636H4.36341V2.18181ZM5.81796 3.63636H10.1816V2.18181H5.81796V3.63636ZM3.68996 5.0909L4.31323 13.8182H11.6871L12.3103 5.0909H3.68996ZM6.54523 6.54545C6.73812 6.54545 6.9231 6.62207 7.05949 6.75846C7.19588 6.89485 7.27251 7.07983 7.27251 7.27272V11.6364C7.27251 11.8292 7.19588 12.0142 7.05949 12.1506C6.9231 12.287 6.73812 12.3636 6.54523 12.3636C6.35235 12.3636 6.16736 12.287 6.03097 12.1506C5.89458 12.0142 5.81796 11.8292 5.81796 11.6364V7.27272C5.81796 7.07983 5.89458 6.89485 6.03097 6.75846C6.16736 6.62207 6.35235 6.54545 6.54523 6.54545ZM9.45432 6.54545C9.64721 6.54545 9.83219 6.62207 9.96858 6.75846C10.105 6.89485 10.1816 7.07983 10.1816 7.27272V11.6364C10.1816 11.8292 10.105 12.0142 9.96858 12.1506C9.83219 12.287 9.64721 12.3636 9.45432 12.3636C9.26144 12.3636 9.07645 12.287 8.94006 12.1506C8.80367 12.0142 8.72705 11.8292 8.72705 11.6364V7.27272C8.72705 7.07983 8.80367 6.89485 8.94006 6.75846C9.07645 6.62207 9.26144 6.54545 9.45432 6.54545Z" fill="#FF0000"/>
</svg>
