<?xml version="1.0" encoding="utf-8"?>
<!-- Generator: Adobe Illustrator 25.0.0, SVG Export Plug-In . SVG Version: 6.00 Build 0)  -->
<svg version="1.1" id="Layer_1" xmlns="http://www.w3.org/2000/svg" xmlns:xlink="http://www.w3.org/1999/xlink" x="0px" y="0px"
	 viewBox="0 0 415 256" style="enable-background:new 0 0 415 256;" xml:space="preserve">
<style type="text/css">
	.st0{fill:#FFFFFF;}
	.st1{fill:#DEDFE0;}
	.st2{fill:none;stroke:#3F2355;stroke-width:4;stroke-linecap:round;stroke-linejoin:round;stroke-miterlimit:10;}
	.st3{fill:none;stroke:#3F2355;stroke-width:3;stroke-linecap:round;stroke-linejoin:round;stroke-miterlimit:10;}
	.st4{fill:none;stroke:#3F2355;stroke-width:2;stroke-linecap:round;stroke-linejoin:round;stroke-miterlimit:10;}
	.st5{fill-rule:evenodd;clip-rule:evenodd;fill:#3F2355;}
	.st6{fill:#3F2355;}
	.st7{fill:none;stroke:#3F2355;stroke-width:2;stroke-miterlimit:10;}
	.st8{fill:none;stroke:#3F2355;stroke-width:4;stroke-miterlimit:10;}
	.st9{fill:none;stroke:#3F2355;stroke-width:3;stroke-miterlimit:10;}
	.st10{fill:none;stroke:#000000;stroke-miterlimit:10;}
	.st11{fill:#3F2254;}
	.st12{fill:#DEDEDF;}
	.st13{fill:#EBECE6;}
</style>
<g>
	<ellipse class="st1" cx="224.36" cy="195.04" rx="138.75" ry="6.49"/>
	<g id="XMLID_16_">
		<g>
			<path class="st1" d="M114.88,99.41v8.47c0,1.75,1.41,3.16,3.15,3.16h15.71c1.75,0,3.16-1.41,3.16-3.16v-8.47
				c0-1.74-1.41-3.15-3.16-3.15h-15.71C116.29,96.26,114.88,97.67,114.88,99.41z"/>
			<path class="st0" d="M160.32,147.28v13.2h28.75v-13.2V90.81c0-3.33-2.7-6.02-6.01-6.02h-16.72c-3.33,0-6.02,2.7-6.02,6.02V147.28
				z"/>
			<path class="st0" d="M284.5,93.59v24.05c0,2.59,2.1,4.7,4.68,4.7h38.84c2.59,0,4.7-2.11,4.7-4.7V93.59c0-2.59-2.11-4.7-4.7-4.7
				h-38.84C286.6,88.9,284.5,91.01,284.5,93.59z"/>
			<path class="st0" d="M217.52,93.59v24.05c0,2.59,2.1,4.7,4.7,4.7h38.83c2.6,0,4.7-2.11,4.7-4.7V93.59c0-2.59-2.1-4.7-4.7-4.7
				h-38.83C219.62,88.9,217.52,91.01,217.52,93.59z"/>
			<path class="st0" d="M226.53,164.31c-5.29,0-9.59,4.3-9.59,9.6s4.29,9.59,9.59,9.59c5.3,0,9.6-4.29,9.6-9.59
				S231.84,164.31,226.53,164.31z"/>
			<path class="st0" d="M275.33,164.31c-5.29,0-9.59,4.3-9.59,9.6s4.29,9.59,9.59,9.59c5.3,0,9.6-4.29,9.6-9.59
				S280.63,164.31,275.33,164.31z"/>
			<path class="st1" d="M275.33,154.38c10.08,0,18.36,7.62,19.41,17.4c0.08,0.71,0.12,1.41,0.12,2.13
				c0,10.78-8.74,19.52-19.53,19.52c-10.78,0-19.52-8.74-19.52-19.52c0-0.72,0.04-1.42,0.12-2.13
				C256.98,161.99,265.26,154.38,275.33,154.38z M275.33,183.49c5.3,0,9.6-4.29,9.6-9.59s-4.29-9.6-9.6-9.6
				c-5.29,0-9.59,4.3-9.59,9.6S270.03,183.49,275.33,183.49z"/>
			<path class="st1" d="M226.53,154.38c10.08,0,18.36,7.62,19.41,17.4c0.08,0.71,0.12,1.41,0.12,2.13
				c0,10.78-8.74,19.52-19.53,19.52c-10.78,0-19.52-8.74-19.52-19.52c0-0.72,0.04-1.42,0.12-2.13
				C208.19,161.99,216.47,154.38,226.53,154.38z M226.53,183.49c5.3,0,9.6-4.29,9.6-9.59s-4.29-9.6-9.6-9.6
				c-5.29,0-9.59,4.3-9.59,9.6S221.24,183.49,226.53,183.49z"/>
			<path class="st0" d="M279.31,63.77v0.34c13.04,0,24.88,0,34.52,0v-3.76c0-3.25-2.64-5.88-5.89-5.88h-13.09
				c-4.65,0-9.08,1.99-12.15,5.48L279.31,63.77z"/>
			<path class="st0" d="M182.23,63.77v0.34c10.96,0,22.65,0,34.52,0v-3.76c0-3.25-2.64-5.88-5.89-5.88h-13.1
				c-4.64,0-9.07,1.99-12.15,5.48L182.23,63.77z"/>
			<path class="st0" d="M92.4,147.28v13.43c0,5.12,3.53,9.61,8.53,10.66c1.2,0.25,2.54,0.4,4.08,0.4h31.89c17.59,0,41.61,0,70.23,0
				c1.05-9.78,9.34-17.4,19.4-17.4c10.08,0,18.36,7.62,19.41,17.4c3.34,0,6.66,0,9.98,0c1.05-9.78,9.34-17.4,19.4-17.4
				c10.08,0,18.36,7.62,19.41,17.4c44.67,0,61.59,0,61.59,0v-24.5H189.07v13.2h-28.75v-13.2H92.4z"/>
			<path class="st0" d="M98.92,75.41h0.01c6.24-7.59,15.22-11.3,18.7-11.3c1.99,0,29.54,0,64.6,0c10.96,0,22.65,0,34.52,0
				c21.35,0,43.26,0,62.55,0c13.04,0,24.88,0,34.52,0c13.86,0,23.15,0,24.95,0c5.16,0,10.23,1.16,12.88,2.91
				c2,1.32,4.27,3.1,4.67,7.58v0.82v71.87H189.07V90.81c0-3.33-2.7-6.02-6.01-6.02h-16.72c-3.33,0-6.02,2.7-6.02,6.02v56.47H92.4
				V93.3C92.4,85.92,95.17,79.96,98.92,75.41z M118.03,111.04h15.71c1.75,0,3.16-1.41,3.16-3.16v-8.47c0-1.74-1.41-3.15-3.16-3.15
				h-15.71c-1.74,0-3.15,1.41-3.15,3.15v8.47C114.88,109.62,116.29,111.04,118.03,111.04z M222.22,122.34h38.83
				c2.6,0,4.7-2.11,4.7-4.7V93.59c0-2.59-2.1-4.7-4.7-4.7h-38.83c-2.6,0-4.7,2.11-4.7,4.7v24.05
				C217.52,120.23,219.62,122.34,222.22,122.34z M289.19,122.34h38.84c2.59,0,4.7-2.11,4.7-4.7V93.59c0-2.59-2.11-4.7-4.7-4.7
				h-38.84c-2.59,0-4.68,2.11-4.68,4.7v24.05C284.5,120.23,286.6,122.34,289.19,122.34z"/>
		</g>
		<g>
			<path class="st2" d="M136.9,171.78c17.59,0,41.61,0,70.23,0"/>
			<path class="st2" d="M294.74,171.78c44.67,0,61.59,0,61.59,0v-24.5V75.41v-0.82c-0.4-4.48-2.67-6.26-4.67-7.58
				c-2.65-1.75-7.72-2.91-12.88-2.91c-1.79,0-11.09,0-24.95,0c-9.64,0-21.48,0-34.52,0c-19.29,0-41.21,0-62.55,0
				c-11.87,0-23.57,0-34.52,0c-35.05,0-62.61,0-64.6,0c-3.48,0-12.46,3.72-18.7,11.3h-0.01c-3.75,4.55-6.52,10.51-6.52,17.89v53.98
				v13.43c0,5.12,3.53,9.61,8.53,10.66c1.2,0.25,2.54,0.4,4.08,0.4"/>
			<path class="st10" d="M245.95,171.78c3.34,0,6.66,0,9.98,0"/>
			<line class="st4" x1="92.4" y1="147.28" x2="152.71" y2="147.28"/>
			<line class="st4" x1="196.67" y1="147.28" x2="356.33" y2="147.28"/>
			<path class="st4" d="M222.22,122.34h38.83c2.6,0,4.7-2.11,4.7-4.7V93.59c0-2.59-2.1-4.7-4.7-4.7h-38.83c-2.6,0-4.7,2.11-4.7,4.7
				v24.05C217.52,120.23,219.62,122.34,222.22,122.34z"/>
			<path class="st4" d="M289.19,122.34h38.84c2.59,0,4.7-2.11,4.7-4.7V93.59c0-2.59-2.11-4.7-4.7-4.7h-38.84
				c-2.59,0-4.68,2.11-4.68,4.7v24.05C284.5,120.23,286.6,122.34,289.19,122.34z"/>
			<path class="st4" d="M160.32,147.28v13.2h28.75v-13.2V90.81c0-3.33-2.7-6.02-6.01-6.02h-16.72c-3.33,0-6.02,2.7-6.02,6.02V147.28
				z"/>
			<path class="st2" d="M255.92,171.78c-0.08,0.71-0.12,1.41-0.12,2.13c0,10.78,8.74,19.52,19.52,19.52
				c10.79,0,19.53-8.74,19.53-19.52c0-0.72-0.04-1.42-0.12-2.13c-1.05-9.78-9.34-17.4-19.41-17.4
				C265.26,154.38,256.98,161.99,255.92,171.78z"/>
			<path class="st4" d="M265.74,173.91c0,5.29,4.29,9.59,9.59,9.59c5.3,0,9.6-4.29,9.6-9.59s-4.29-9.6-9.6-9.6
				C270.03,164.31,265.74,168.61,265.74,173.91z"/>
			<path class="st2" d="M207.13,171.78c-0.08,0.71-0.12,1.41-0.12,2.13c0,10.78,8.74,19.52,19.52,19.52
				c10.79,0,19.53-8.74,19.53-19.52c0-0.72-0.04-1.42-0.12-2.13c-1.05-9.78-9.34-17.4-19.41-17.4
				C216.47,154.38,208.19,161.99,207.13,171.78z"/>
			<path class="st4" d="M216.95,173.91c0,5.29,4.29,9.59,9.59,9.59c5.3,0,9.6-4.29,9.6-9.59s-4.29-9.6-9.6-9.6
				C221.24,164.31,216.95,168.61,216.95,173.91z"/>
			<path class="st4" d="M313.83,64.1v-3.76c0-3.25-2.64-5.88-5.89-5.88h-13.09c-4.65,0-9.08,1.99-12.15,5.48l-3.39,3.83"/>
			<path class="st4" d="M216.75,64.1v-3.76c0-3.25-2.64-5.88-5.89-5.88h-13.1c-4.64,0-9.07,1.99-12.15,5.48l-3.38,3.83"/>
			<path class="st4" d="M118.03,111.04h15.71c1.75,0,3.16-1.41,3.16-3.16v-8.47c0-1.74-1.41-3.15-3.16-3.15h-15.71
				c-1.74,0-3.15,1.41-3.15,3.15v8.47C114.88,109.62,116.29,111.04,118.03,111.04z"/>
			<polyline class="st2" points="136.9,171.78 105.01,171.78 51.88,171.78 			"/>
			<polyline class="st2" points="51.88,164.01 51.88,171.78 51.88,193.43 			"/>
		</g>
	</g>
</g>
</svg>
