<svg width="20" height="22" viewBox="0 0 20 22" fill="none" xmlns="http://www.w3.org/2000/svg">
<path fill-rule="evenodd" clip-rule="evenodd" d="M9.99998 0.0999756C7.01764 0.0999756 4.59998 2.51764 4.59998 5.49998V7.60646C4.28966 7.61224 4.00925 7.62317 3.75629 7.64384C3.20038 7.68926 2.6983 7.78614 2.22941 8.02505C1.49558 8.39896 0.898957 8.99558 0.525051 9.72941C0.28614 10.1983 0.189258 10.7004 0.143838 11.2563C0.0999575 11.7934 0.0999658 12.4542 0.0999759 13.2623V13.2623V13.3V15.7V15.7377V15.7377C0.0999658 16.5457 0.0999575 17.2066 0.143838 17.7437C0.189258 18.2996 0.28614 18.8017 0.525051 19.2705C0.898957 20.0044 1.49558 20.601 2.22941 20.9749C2.6983 21.2138 3.20038 21.3107 3.75629 21.3561C4.29337 21.4 4.95422 21.4 5.76227 21.4H5.79998H14.2H14.2377C15.0457 21.4 15.7066 21.4 16.2437 21.3561C16.7996 21.3107 17.3017 21.2138 17.7705 20.9749C18.5044 20.601 19.101 20.0044 19.4749 19.2705C19.7138 18.8017 19.8107 18.2996 19.8561 17.7437C19.9 17.2066 19.9 16.5457 19.9 15.7377V15.7V13.3V13.2623C19.9 12.4542 19.9 11.7934 19.8561 11.2563C19.8107 10.7004 19.7138 10.1983 19.4749 9.72941C19.101 8.99558 18.5044 8.39896 17.7705 8.02505C17.3017 7.78614 16.7996 7.68926 16.2437 7.64384C15.9907 7.62317 15.7103 7.61224 15.4 7.60646V5.49998C15.4 2.51764 12.9823 0.0999756 9.99998 0.0999756ZM13.6 7.59998V5.49998C13.6 3.51175 11.9882 1.89998 9.99998 1.89998C8.01175 1.89998 6.39998 3.51175 6.39998 5.49998V7.59998H13.6ZM3.0466 9.62886C3.21944 9.54079 3.45827 9.47418 3.90287 9.43786C4.35798 9.40068 4.94505 9.39998 5.79998 9.39998H14.2C15.0549 9.39998 15.642 9.40068 16.0971 9.43786C16.5417 9.47418 16.7805 9.54079 16.9534 9.62886C17.3485 9.8302 17.6698 10.1515 17.8711 10.5466C17.9592 10.7194 18.0258 10.9583 18.0621 11.4029C18.0993 11.858 18.1 12.445 18.1 13.3V15.7C18.1 16.5549 18.0993 17.142 18.0621 17.5971C18.0258 18.0417 17.9592 18.2805 17.8711 18.4534C17.6698 18.8485 17.3485 19.1698 16.9534 19.3711C16.7805 19.4592 16.5417 19.5258 16.0971 19.5621C15.642 19.5993 15.0549 19.6 14.2 19.6H5.79998C4.94505 19.6 4.35798 19.5993 3.90287 19.5621C3.45827 19.5258 3.21944 19.4592 3.0466 19.3711C2.65146 19.1698 2.3302 18.8485 2.12886 18.4534C2.04079 18.2805 1.97419 18.0417 1.93786 17.5971C1.90068 17.142 1.89998 16.5549 1.89998 15.7V13.3C1.89998 12.445 1.90068 11.858 1.93786 11.4029C1.97419 10.9583 2.04079 10.7194 2.12886 10.5466C2.3302 10.1515 2.65146 9.8302 3.0466 9.62886Z" fill="#D1D3D6"/>
</svg>
