<svg width="33" height="33" viewBox="0 0 33 33" fill="none" xmlns="http://www.w3.org/2000/svg">
<g clip-path="url(#clip0)">
<path d="M30.2502 0H10.4502C8.93206 0.00187989 7.70208 1.23186 7.7002 2.75V15.4H8.8002V2.75C8.8002 1.83879 9.53899 1.1 10.4502 1.1H24.2002V3.85C24.2021 5.36814 25.4321 6.59812 26.9502 6.6H29.7002V28.05C29.7002 28.9612 28.9614 29.7 28.0502 29.7H19.8002V30.8H30.2502C31.7683 30.7981 32.9983 29.5681 33.0002 28.05V2.75C32.9983 1.23186 31.7683 0.00187989 30.2502 0ZM26.9502 5.5C26.039 5.5 25.3002 4.76121 25.3002 3.85V1.87773L28.9225 5.5H26.9502ZM31.9002 28.05C31.9002 28.9612 31.1614 29.7 30.2502 29.7H30.236C30.5999 29.2268 30.798 28.647 30.8002 28.05V6.05C30.8002 6.03792 30.794 6.02744 30.7929 6.01536C30.7903 5.96729 30.7809 5.91948 30.765 5.8741C30.7588 5.85637 30.7545 5.83945 30.7468 5.82227C30.7202 5.76238 30.6831 5.70786 30.6369 5.66113L26.0779 1.1H30.2502C31.1614 1.1 31.9002 1.83879 31.9002 2.75V28.05Z" fill="white"/>
<path d="M10.4497 14.3V15.4H21.9997V17.05H16.4997V18.15H21.9997V19.8H19.7997V20.9H21.9997V22.55H19.7997V23.65H21.9997V25.3H18.6997V26.4H28.0497V25.3H23.0997V23.65H28.0497V22.55H23.0997V20.9H28.0497V19.8H23.0997V18.15H28.0497V17.05H23.0997V15.4H28.0497V14.3H23.0997V12.65H28.0497V11.55H10.4497V12.65H21.9997V14.3H10.4497Z" fill="white"/>
<path d="M18.6997 27.5002H28.0497V28.6002H18.6997V27.5002Z" fill="white"/>
<path d="M16.5 3.84961H23.1V4.94961H16.5V3.84961Z" fill="white"/>
<path d="M16.5 6.05029H19.8V7.15029H16.5V6.05029Z" fill="white"/>
<path d="M20.9004 6.05029H23.1004V7.15029H20.9004V6.05029Z" fill="white"/>
<path d="M16.5 8.25H23.1V9.35H16.5V8.25Z" fill="white"/>
<path d="M18.15 29.7001H17.6V23.1001H18.15C18.4537 23.1001 18.7 22.8539 18.7 22.5501V19.8001C18.7 19.56 18.5442 19.3476 18.3149 19.2754L9.51489 16.5254C9.40774 16.4915 9.29226 16.4915 9.18511 16.5254L0.385107 19.2754C0.155762 19.3476 0 19.56 0 19.8001V22.5501C0 22.8539 0.246265 23.1001 0.55 23.1001H1.1V29.7001H0.55C0.246265 29.7001 0 29.9464 0 30.2501V32.4501C0 32.7539 0.246265 33.0001 0.55 33.0001H18.15C18.4537 33.0001 18.7 32.7539 18.7 32.4501V30.2501C18.7 29.9464 18.4537 29.7001 18.15 29.7001ZM16.5 29.7001H15.4V23.1001H16.5V29.7001ZM13.2 29.7001V23.1001H14.3V29.7001H13.2ZM8.8 29.7001V23.1001H9.9V29.7001H8.8ZM4.4 29.7001V23.1001H5.5V29.7001H4.4ZM6.6 23.1001H7.7V29.7001H6.6V23.1001ZM11 23.1001H12.1V29.7001H11V23.1001ZM1.1 20.2043L9.35 17.6265L17.6 20.2043V22.0001H1.1V20.2043ZM2.2 23.1001H3.3V29.7001H2.2V23.1001ZM17.6 31.9001H1.1V30.8001H17.6V31.9001Z" fill="white"/>
<path d="M10.45 19.7997C10.45 20.4072 9.95747 20.8997 9.35 20.8997C8.74253 20.8997 8.25 20.4072 8.25 19.7997C8.25 19.1922 8.74253 18.6997 9.35 18.6997C9.95747 18.6997 10.45 19.1922 10.45 19.7997Z" fill="white"/>
<path d="M12.0997 2.75024V3.85024C11.1885 3.85024 10.4497 4.58904 10.4497 5.50024C10.4497 6.41145 11.1885 7.15024 12.0997 7.15024H13.1997C13.5034 7.15024 13.7497 7.39651 13.7497 7.70024C13.7497 8.00398 13.5034 8.25024 13.1997 8.25024H10.9997V9.35024H12.0997V10.4502H13.1997V9.35024C14.1109 9.35024 14.8497 8.61145 14.8497 7.70024C14.8497 6.78904 14.1109 6.05024 13.1997 6.05024H12.0997C11.796 6.05024 11.5497 5.80398 11.5497 5.50024C11.5497 5.19651 11.796 4.95024 12.0997 4.95024H14.2997V3.85024H13.1997V2.75024H12.0997Z" fill="white"/>
</g>
<defs>
<clipPath id="clip0">
<rect width="33" height="33" fill="white"/>
</clipPath>
</defs>
</svg>
