<svg width="129" height="129" viewBox="0 0 129 129" fill="none" xmlns="http://www.w3.org/2000/svg">
<path d="M98.2299 54.2133V97.2641C98.2299 99.318 96.5322 101.039 94.4582 100.999C92.4487 100.961 90.8307 99.3362 90.8307 97.3367V96.2107H90.8132V59.0034C90.8132 56.9803 89.157 55.3402 87.114 55.3402H61.9022L37.0469 55.6663V45.6115V44.4792C37.0469 42.4545 38.7063 40.8136 40.7517 40.8167L59.7101 40.842C60.4541 40.8428 61.1606 41.1642 61.6463 41.7225L68.5534 49.6688C69.0399 50.2279 69.748 50.5501 70.4927 50.5501H94.5315C96.5737 50.5501 98.2299 52.1902 98.2299 54.2133Z" fill="#FB5100"/>
<path d="M111 51.4677V85.649C111 87.7518 109.279 89.4559 107.156 89.4559H74.4732C72.3497 89.4559 70.6289 87.7518 70.6289 85.649V42.8778C70.6289 40.7749 72.3497 39.0708 74.4732 39.0708H98.4809L111 51.4677Z" fill="white"/>
<path d="M111 51.4677H102.325C100.201 51.4677 98.4805 49.7636 98.4805 47.6607V39.0708L111 51.4677Z" fill="#CCCCCC"/>
<path d="M111 79.4375V85.6498C111 87.7518 109.278 89.4567 107.155 89.4567H90.814V59.0026C90.814 58.0866 90.4743 57.2472 89.9121 56.6044L111 79.4375Z" fill="#CCCCCC"/>
<path d="M94.3571 86.4845C89.4107 86.4845 82.0259 85.341 72.2632 83.0581C59.0604 79.9713 44.6304 75.5129 37.2041 73.1305C30.2778 70.9084 24.9168 65.5245 22.8619 58.7286C21.4066 53.9164 21.7957 49.1643 24.0181 44.604C26.825 38.845 32.5744 33.4074 41.1059 28.442C41.2079 28.3827 41.3403 28.4167 41.4001 28.5178C41.4599 28.6189 41.4264 28.7499 41.3236 28.8092C22.3053 39.8778 21.0111 51.1226 23.2741 58.607C25.2884 65.2686 30.5457 70.5467 37.3373 72.7262C44.7572 75.107 59.1744 79.5615 72.3628 82.6451C79.5675 84.3295 85.5433 85.4042 90.1244 85.8401C95.4998 86.351 99.0036 85.9925 100.541 84.774C101.213 84.241 101.499 83.5564 101.417 82.6791C101.406 82.5622 101.493 82.458 101.611 82.4477C101.732 82.4366 101.834 82.5227 101.845 82.6396C101.94 83.6559 101.592 84.4858 100.809 85.1057C99.6487 86.0249 97.4925 86.4845 94.3571 86.4845Z" fill="white"/>
<path d="M94.5307 101H33.3301C31.2871 101 29.6309 99.3599 29.6309 97.3367V49.2685C29.6309 47.2438 31.2903 45.6029 33.3356 45.606L37.0468 45.6115L52.2933 45.6313C53.0373 45.6321 53.7438 45.9535 54.2294 46.5126L61.1366 54.4589C61.623 55.018 62.3311 55.3402 63.0759 55.3402H87.1147C89.1577 55.3402 90.8139 56.9803 90.8139 59.0034V96.2107H90.8315V97.3367C90.8307 99.3599 92.4869 101 94.5307 101Z" fill="#FF6C77"/>
<path d="M90.8139 59.0026V85.2936L84.6762 89.4567L78.8583 93.4019L74.7182 96.2099H33.3301C31.2871 96.2099 29.6309 94.5698 29.6309 92.5466V49.2685C29.6309 47.2438 31.2903 45.6029 33.3356 45.606L37.0468 45.6115L52.2941 45.6321C53.0381 45.6321 53.7454 45.9543 54.2294 46.5126L61.1374 54.4589C61.623 55.0188 62.3311 55.3402 63.0767 55.3402H87.1155C88.1976 55.3402 89.1728 55.8013 89.849 56.5357L89.9136 56.606C90.4742 57.248 90.8139 58.0866 90.8139 59.0026Z" fill="#EC3925"/>
<path d="M94.5307 101H33.3301C31.2871 101 29.6309 99.3599 29.6309 97.3368V92.5475C29.6309 94.5706 31.2871 96.2107 33.3301 96.2107H69.6984C72.9678 96.2107 76.1615 95.2323 78.8575 93.4027L84.6754 89.4575L90.8139 85.2952V96.2115H90.8315V97.3376C90.8315 99.3591 92.4877 101 94.5307 101Z" fill="#FB5100"/>
<path d="M43.9297 8L78.8093 13.1849L48.0818 19.1295L43.9297 8Z" fill="white"/>
<path d="M45.6641 26.8697L47.5117 17.6007L78.8093 13.1849L49.8218 23.7916L45.6641 26.8697Z" fill="#CCCCCC"/>
<path d="M78.8093 13.1849L49.5267 23.0422L45.6641 26.8697L50.3329 25.1617L53.7953 34.4402L78.8093 13.1849Z" fill="white"/>
<path d="M102.292 83.4122C102.635 83.0724 102.635 82.5214 102.292 82.1815C101.949 81.8417 101.392 81.8417 101.049 82.1815C100.706 82.5214 100.706 83.0724 101.049 83.4122C101.392 83.752 101.949 83.752 102.292 83.4122Z" fill="white"/>
<path d="M103.578 83.1035C103.748 82.0613 103.034 81.0793 101.981 80.9101C100.929 80.741 99.9371 81.4487 99.7663 82.4909C99.5955 83.5332 100.31 84.5152 101.363 84.6843C102.415 84.8535 103.407 84.1457 103.578 83.1035Z" stroke="white" stroke-width="1.3271" stroke-miterlimit="10"/>
</svg>
