<svg width="50" height="42" viewBox="0 0 50 42" fill="none" xmlns="http://www.w3.org/2000/svg">
<path d="M45.3125 11.6253H43.4172C43.784 10.346 43.8486 8.99902 43.606 7.6905C43.3635 6.38198 42.8203 5.14767 42.0194 4.08485C41.2185 3.02203 40.1817 2.15975 38.9907 1.56596C37.7997 0.972162 36.4871 0.663086 35.1562 0.663086C33.8254 0.663086 32.5128 0.972162 31.3218 1.56596C30.1308 2.15975 29.094 3.02203 28.2931 4.08485C27.4922 5.14767 26.949 6.38198 26.7065 7.6905C26.4639 8.99902 26.5285 10.346 26.8953 11.6253H4.6875C3.65188 11.6265 2.65903 12.0385 1.92673 12.7707C1.19444 13.503 0.782491 14.4959 0.78125 15.5315V37.4065C0.782491 38.4421 1.19444 39.435 1.92673 40.1673C2.65903 40.8996 3.65188 41.3115 4.6875 41.3128H45.3125C46.3481 41.3115 47.341 40.8996 48.0733 40.1673C48.8056 39.435 49.2175 38.4421 49.2188 37.4065V15.5315C49.2175 14.4959 48.8056 13.503 48.0733 12.7707C47.341 12.0385 46.3481 11.6265 45.3125 11.6253ZM35.1562 2.25026C36.5469 2.25026 37.9063 2.66264 39.0626 3.43524C40.2189 4.20785 41.1201 5.30598 41.6523 6.59077C42.1845 7.87557 42.3237 9.28932 42.0524 10.6532C41.7811 12.0172 41.1114 13.27 40.1281 14.2534C39.1448 15.2367 37.8919 15.9064 36.528 16.1777C35.1641 16.449 33.7503 16.3097 32.4655 15.7775C31.1807 15.2454 30.0826 14.3442 29.31 13.1879C28.5374 12.0316 28.125 10.6722 28.125 9.28152C28.1273 7.41741 28.8688 5.6303 30.1869 4.31218C31.505 2.99406 33.2921 2.25254 35.1562 2.25026ZM30.2344 16.3128C31.6757 17.3295 33.3963 17.8753 35.1602 17.8753C36.924 17.8753 38.6446 17.3295 40.0859 16.3128H42.9688C43.3832 16.3128 43.7806 16.4774 44.0736 16.7704C44.3666 17.0634 44.5312 17.4609 44.5312 17.8753C44.5312 18.2897 44.3666 18.6871 44.0736 18.9801C43.7806 19.2731 43.3832 19.4378 42.9688 19.4378H27.3438C26.9293 19.4378 26.5319 19.2731 26.2389 18.9801C25.9459 18.6871 25.7812 18.2897 25.7812 17.8753C25.7812 17.4609 25.9459 17.0634 26.2389 16.7704C26.5319 16.4774 26.9293 16.3128 27.3438 16.3128H30.2344ZM47.6562 37.4065C47.6562 38.0281 47.4093 38.6243 46.9698 39.0638C46.5302 39.5033 45.9341 39.7503 45.3125 39.7503H4.6875C4.0659 39.7503 3.46976 39.5033 3.03022 39.0638C2.59068 38.6243 2.34375 38.0281 2.34375 37.4065V15.5315C2.34375 14.9099 2.59068 14.3138 3.03022 13.8742C3.46976 13.4347 4.0659 13.1878 4.6875 13.1878H27.5109C27.7936 13.7441 28.136 14.268 28.532 14.7503H27.3438C26.5149 14.7503 25.7201 15.0795 25.134 15.6656C24.548 16.2516 24.2188 17.0465 24.2188 17.8753C24.2188 18.7041 24.548 19.4989 25.134 20.085C25.7201 20.671 26.5149 21.0003 27.3438 21.0003H42.9688C43.7976 21.0003 44.5924 20.671 45.1785 20.085C45.7645 19.4989 46.0938 18.7041 46.0938 17.8753C46.0938 17.0465 45.7645 16.2516 45.1785 15.6656C44.5924 15.0795 43.7976 14.7503 42.9688 14.7503H41.7805C42.1765 14.268 42.5189 13.7441 42.8016 13.1878H45.3125C45.9341 13.1878 46.5302 13.4347 46.9698 13.8742C47.4093 14.3138 47.6562 14.9099 47.6562 15.5315V37.4065Z" fill="white"/>
<path d="M21.0938 14.75H5.46875C5.05435 14.75 4.65692 14.9146 4.3639 15.2076C4.07087 15.5007 3.90625 15.8981 3.90625 16.3125V31.9375C3.90625 32.3519 4.07087 32.7493 4.3639 33.0424C4.65692 33.3354 5.05435 33.5 5.46875 33.5H21.0938C21.5082 33.5 21.9056 33.3354 22.1986 33.0424C22.4916 32.7493 22.6562 32.3519 22.6562 31.9375V16.3125C22.6562 15.8981 22.4916 15.5007 22.1986 15.2076C21.9056 14.9146 21.5082 14.75 21.0938 14.75ZM17.9688 31.9375H14.0625V27.25H15.625C16.2466 27.25 16.8427 27.4969 17.2823 27.9365C17.7218 28.376 17.9688 28.9721 17.9688 29.5938V31.9375ZM10.9375 23.3438V23.3391C11.8184 23.2974 12.653 22.9322 13.2812 22.3133C13.9095 22.9322 14.7441 23.2974 15.625 23.3391V23.3438C15.625 23.9654 15.3781 24.5615 14.9385 25.001C14.499 25.4406 13.9029 25.6875 13.2812 25.6875C12.6596 25.6875 12.0635 25.4406 11.624 25.001C11.1844 24.5615 10.9375 23.9654 10.9375 23.3438ZM15.625 21.7555C15.2797 21.7276 14.9475 21.6113 14.6601 21.4178C14.3728 21.2243 14.1401 20.9602 13.9844 20.6508C13.9122 20.5297 13.8098 20.4294 13.6872 20.3598C13.5647 20.2902 13.4261 20.2536 13.2852 20.2536C13.1442 20.2536 13.0056 20.2902 12.8831 20.3598C12.7605 20.4294 12.6581 20.5297 12.5859 20.6508C12.4295 20.9613 12.1956 21.2261 11.9068 21.4196C11.618 21.6132 11.2841 21.7289 10.9375 21.7555V20.2188C10.9375 20.0115 11.0198 19.8128 11.1663 19.6663C11.3128 19.5198 11.5115 19.4375 11.7188 19.4375H14.8438C15.051 19.4375 15.2497 19.5198 15.3962 19.6663C15.5427 19.8128 15.625 20.0115 15.625 20.2188V21.7555ZM10.9375 27.25H12.5V31.9375H8.59375V29.5938C8.59375 28.9721 8.84068 28.376 9.28022 27.9365C9.71976 27.4969 10.3159 27.25 10.9375 27.25ZM19.5312 31.9375V29.5938C19.5295 28.681 19.2082 27.7976 18.6231 27.097C18.038 26.3964 17.226 25.9229 16.3281 25.7586C16.8809 25.0748 17.1841 24.223 17.1875 23.3438V20.2188C17.1875 19.5971 16.9406 19.001 16.501 18.5615C16.0615 18.1219 15.4654 17.875 14.8438 17.875H11.7188C11.0971 17.875 10.501 18.1219 10.0615 18.5615C9.62193 19.001 9.375 19.5971 9.375 20.2188V23.3438C9.37842 24.223 9.68156 25.0748 10.2344 25.7586C9.3365 25.9229 8.52451 26.3964 7.93938 27.097C7.35426 27.7976 7.03295 28.681 7.03125 29.5938V31.9375H5.46875V16.3125H21.0938V31.9375H19.5312Z" fill="white"/>
<path d="M33.5936 14.7498C33.8008 14.7498 33.9994 14.6674 34.1459 14.5209L40.3959 8.27093C40.5424 8.12442 40.6247 7.92574 40.6247 7.71858C40.6247 7.51142 40.5424 7.31275 40.3959 7.16624L38.8334 5.60374C38.6869 5.45728 38.4882 5.375 38.2811 5.375C38.0739 5.375 37.8752 5.45728 37.7287 5.60374L33.5936 9.7389L32.5834 8.72874C32.4369 8.58228 32.2382 8.5 32.0311 8.5C31.8239 8.5 31.6252 8.58228 31.4787 8.72874L29.9162 10.2912C29.7698 10.4377 29.6875 10.6364 29.6875 10.8436C29.6875 11.0507 29.7698 11.2494 29.9162 11.3959L33.0412 14.5209C33.1877 14.6674 33.3864 14.7498 33.5936 14.7498ZM32.0311 10.3858L33.0412 11.3959C33.1877 11.5424 33.3864 11.6247 33.5936 11.6247C33.8007 11.6247 33.9994 11.5424 34.1459 11.3959L38.2811 7.26077L38.7389 7.71858L33.5936 12.8639L31.5733 10.8436L32.0311 10.3858Z" fill="white"/>
<path d="M22.6562 35.8438H3.90625V37.4062H22.6562V35.8438Z" fill="white"/>
<path d="M43.75 22.5625H26.5625C26.3553 22.5625 26.1566 22.6448 26.0101 22.7913C25.8636 22.9378 25.7812 23.1365 25.7812 23.3438V26.4688C25.7812 26.676 25.8636 26.8747 26.0101 27.0212C26.1566 27.1677 26.3553 27.25 26.5625 27.25H43.75C43.9572 27.25 44.1559 27.1677 44.3024 27.0212C44.4489 26.8747 44.5312 26.676 44.5312 26.4688V23.3438C44.5312 23.1365 44.4489 22.9378 44.3024 22.7913C44.1559 22.6448 43.9572 22.5625 43.75 22.5625ZM42.9688 25.6875H27.3438V24.125H42.9688V25.6875Z" fill="white"/>
<path d="M43.75 31.9375H26.5625C26.3553 31.9375 26.1566 32.0198 26.0101 32.1663C25.8636 32.3128 25.7812 32.5115 25.7812 32.7188V35.8438C25.7812 36.051 25.8636 36.2497 26.0101 36.3962C26.1566 36.5427 26.3553 36.625 26.5625 36.625H43.75C43.9572 36.625 44.1559 36.5427 44.3024 36.3962C44.4489 36.2497 44.5312 36.051 44.5312 35.8438V32.7188C44.5312 32.5115 44.4489 32.3128 44.3024 32.1663C44.1559 32.0198 43.9572 31.9375 43.75 31.9375ZM42.9688 35.0625H27.3438V33.5H42.9688V35.0625Z" fill="white"/>
<path d="M41.4062 28.8125H25.7812V30.375H41.4062V28.8125Z" fill="white"/>
<path d="M44.5312 28.8125H42.9688V30.375H44.5312V28.8125Z" fill="white"/>
</svg>
