<?xml version="1.0"?>
<svg xmlns="http://www.w3.org/2000/svg" xmlns:xlink="http://www.w3.org/1999/xlink" xmlns:svgjs="http://svgjs.com/svgjs" version="1.1" width="512" height="512" x="0" y="0" viewBox="0 0 512 512" style="enable-background:new 0 0 512 512" xml:space="preserve" class=""><g><g xmlns="http://www.w3.org/2000/svg"><path d="m489.5 143.5h-118.763v-34.83c0-12.406-10.094-22.5-22.5-22.5h-104.896c-4.143 0-7.5 3.357-7.5 7.5s3.357 7.5 7.5 7.5h44.442v145h-230.283v-145h150.606c4.143 0 7.5-3.357 7.5-7.5s-3.357-7.5-7.5-7.5h-150.606v-24.389c7.636-6.425 12.5-16.044 12.5-26.781 0-19.299-15.701-35-35-35s-35 15.701-35 35c0 10.737 4.864 20.356 12.5 26.781v437.719c0 6.893 5.607 12.5 12.5 12.5h20c6.893 0 12.5-5.607 12.5-12.5v-118.33h210.542v39.517c-.015 1.518.161 3.065.553 4.612 2.001 7.896 8.818 13.201 16.964 13.201h59.526c4.143 0 7.5-3.357 7.5-7.5s-3.357-7.5-7.5-7.5h-59.526c-1.608 0-2.206-1.025-2.424-1.886-.03-.18-.042-.049-.093-.794.012-.706.313-1.47 1.326-2.019l37.481-20.302h175.151v17.501c0 4.136-3.364 7.5-7.5 7.5h-109.351c-4.143 0-7.5 3.357-7.5 7.5s3.357 7.5 7.5 7.5h109.351c12.406 0 22.5-10.094 22.5-22.5v-250c0-12.406-10.094-22.5-22.5-22.5zm-186.717 37.67h52.954v25h-52.954zm67.954 97.33h48.348c4.143 0 7.5-3.357 7.5-7.5s-3.357-7.5-7.5-7.5h-48.348v-25h126.263v25h-43.021c-4.143 0-7.5 3.357-7.5 7.5s3.357 7.5 7.5 7.5h43.021v25h-126.263zm126.263-55h-126.263v-25h126.263zm-141.263-57.33h-52.954v-25h52.954zm-52.954 55h52.954v25h-52.954zm67.954 97.33h126.263v25h-126.263zm118.763-160c4.136 0 7.5 3.364 7.5 7.5v17.5h-126.263v-25zm-141.263-57.33c4.136 0 7.5 3.364 7.5 7.5v17.5h-52.954v-25zm-52.954 160h.012s.008 0 .012 0h60.43v25h-232.694c-4.143 0-7.5 3.357-7.5 7.5s3.357 7.5 7.5 7.5h232.694v25h-298.237v-25h30.563c4.143 0 7.5-3.357 7.5-7.5s-3.357-7.5-7.5-7.5h-30.563v-25zm-260.283-246.17c11.028 0 20 8.972 20 20s-8.972 20-20 20-20-8.972-20-20 8.972-20 20-20zm-7.5 482v-427.818c2.418.53 4.925.818 7.5.818s5.082-.288 7.5-.818v427.818zm30-155.83h298.237v17.5c0 2.563-1.294 4.827-3.26 6.181l-1.394.755c-.878.362-1.838.564-2.845.564h-290.738zm225.542 61.291v-21.291h39.307l-5.939 3.217c-.024.013-.049.026-.073.04zm66.5-18.961c5.593-3.094 5.308-2.748 11.144-6.099 6.054-4.037 10.052-10.925 10.052-18.731v-.17h126.262v25z" fill="#fb5100" data-original="#000000" class=""/><path d="m80.303 116.17h-.01c-4.142 0-7.495 3.357-7.495 7.5s3.363 7.5 7.505 7.5c4.143 0 7.5-3.357 7.5-7.5s-3.358-7.5-7.5-7.5z" fill="#fb5100" data-original="#000000" class=""/><path d="m111.136 136.17h-.01c-4.142 0-7.495 3.357-7.495 7.5s3.363 7.5 7.505 7.5c4.143 0 7.5-3.357 7.5-7.5s-3.358-7.5-7.5-7.5z" fill="#fb5100" data-original="#000000" class=""/><path d="m141.969 116.17h-.01c-4.142 0-7.495 3.357-7.495 7.5s3.363 7.5 7.505 7.5c4.143 0 7.5-3.357 7.5-7.5s-3.358-7.5-7.5-7.5z" fill="#fb5100" data-original="#000000" class=""/><path d="m203.636 116.17h-.01c-4.142 0-7.495 3.357-7.495 7.5s3.363 7.5 7.505 7.5c4.143 0 7.5-3.357 7.5-7.5s-3.358-7.5-7.5-7.5z" fill="#fb5100" data-original="#000000" class=""/><path d="m234.469 151.17c4.143 0 7.5-3.357 7.5-7.5s-3.357-7.5-7.5-7.5h-.01c-4.142 0-7.495 3.357-7.495 7.5s3.363 7.5 7.505 7.5z" fill="#fb5100" data-original="#000000" class=""/><path d="m80.303 156.17h-.01c-4.142 0-7.495 3.357-7.495 7.5s3.363 7.5 7.505 7.5c4.143 0 7.5-3.357 7.5-7.5s-3.358-7.5-7.5-7.5z" fill="#fb5100" data-original="#000000" class=""/><path d="m111.136 176.17h-.01c-4.142 0-7.495 3.357-7.495 7.5s3.363 7.5 7.505 7.5c4.143 0 7.5-3.357 7.5-7.5s-3.358-7.5-7.5-7.5z" fill="#fb5100" data-original="#000000" class=""/><path d="m141.969 156.17h-.01c-4.142 0-7.495 3.357-7.495 7.5s3.363 7.5 7.505 7.5c4.143 0 7.5-3.357 7.5-7.5s-3.358-7.5-7.5-7.5z" fill="#fb5100" data-original="#000000" class=""/><path d="m203.636 156.17h-.01c-4.142 0-7.495 3.357-7.495 7.5s3.363 7.5 7.505 7.5c4.143 0 7.5-3.357 7.5-7.5s-3.358-7.5-7.5-7.5z" fill="#fb5100" data-original="#000000" class=""/><path d="m234.469 191.17c4.143 0 7.5-3.357 7.5-7.5s-3.357-7.5-7.5-7.5h-.01c-4.142 0-7.495 3.357-7.495 7.5s3.363 7.5 7.505 7.5z" fill="#fb5100" data-original="#000000" class=""/><path d="m80.303 196.17h-.01c-4.142 0-7.495 3.357-7.495 7.5s3.363 7.5 7.505 7.5c4.143 0 7.5-3.357 7.5-7.5s-3.358-7.5-7.5-7.5z" fill="#fb5100" data-original="#000000" class=""/><path d="m111.136 216.17h-.01c-4.142 0-7.495 3.357-7.495 7.5s3.363 7.5 7.505 7.5c4.143 0 7.5-3.357 7.5-7.5s-3.358-7.5-7.5-7.5z" fill="#fb5100" data-original="#000000" class=""/><path d="m172.785 136.17h-.01c-4.142 0-7.495 3.357-7.495 7.5s3.363 7.5 7.505 7.5c4.143 0 7.5-3.357 7.5-7.5s-3.357-7.5-7.5-7.5z" fill="#fb5100" data-original="#000000" class=""/><path d="m172.785 176.17h-.01c-4.142 0-7.495 3.357-7.495 7.5s3.363 7.5 7.505 7.5c4.143 0 7.5-3.357 7.5-7.5s-3.357-7.5-7.5-7.5z" fill="#fb5100" data-original="#000000" class=""/><path d="m172.785 216.17h-.01c-4.142 0-7.495 3.357-7.495 7.5s3.363 7.5 7.505 7.5c4.143 0 7.5-3.357 7.5-7.5s-3.357-7.5-7.5-7.5z" fill="#fb5100" data-original="#000000" class=""/><path d="m141.969 196.17h-.01c-4.142 0-7.495 3.357-7.495 7.5s3.363 7.5 7.505 7.5c4.143 0 7.5-3.357 7.5-7.5s-3.358-7.5-7.5-7.5z" fill="#fb5100" data-original="#000000" class=""/><path d="m203.636 196.17h-.01c-4.142 0-7.495 3.357-7.495 7.5s3.363 7.5 7.505 7.5c4.143 0 7.5-3.357 7.5-7.5s-3.358-7.5-7.5-7.5z" fill="#fb5100" data-original="#000000" class=""/><path d="m265.285 116.302h-.01c-4.142 0-7.495 3.357-7.495 7.5s3.363 7.5 7.505 7.5c4.143 0 7.5-3.357 7.5-7.5s-3.357-7.5-7.5-7.5z" fill="#fb5100" data-original="#000000" class=""/><path d="m265.285 156.302h-.01c-4.142 0-7.495 3.357-7.495 7.5s3.363 7.5 7.505 7.5c4.143 0 7.5-3.357 7.5-7.5s-3.357-7.5-7.5-7.5z" fill="#fb5100" data-original="#000000" class=""/><path d="m265.285 196.302h-.01c-4.142 0-7.495 3.357-7.495 7.5s3.363 7.5 7.505 7.5c4.143 0 7.5-3.357 7.5-7.5s-3.357-7.5-7.5-7.5z" fill="#fb5100" data-original="#000000" class=""/><path d="m234.469 231.17c4.143 0 7.5-3.357 7.5-7.5s-3.357-7.5-7.5-7.5h-.01c-4.142 0-7.495 3.357-7.495 7.5s3.363 7.5 7.505 7.5z" fill="#fb5100" data-original="#000000" class=""/></g></g></svg>
