<svg width="881" height="724" viewBox="0 0 881 724" fill="none" xmlns="http://www.w3.org/2000/svg">
<mask id="mask0" mask-type="alpha" maskUnits="userSpaceOnUse" x="0" y="0" width="881" height="724">
<rect width="881" height="724" rx="10" fill="white"/>
</mask>
<g mask="url(#mask0)">
<mask id="mask1" mask-type="alpha" maskUnits="userSpaceOnUse" x="16" y="9" width="1037" height="817">
<path d="M1042.68 294.265C979.135 30.4543 775.994 -34.0317 616.089 34.3722C456.183 102.776 519.913 259.165 242.55 269.847C-34.8132 280.528 -126.139 682.484 369.547 802.38C865.233 922.276 1106.22 558.075 1042.68 294.265Z" fill="white"/>
</mask>
<g mask="url(#mask1)">
<path d="M1042.68 294.265C979.134 30.4543 775.993 -34.0317 616.087 34.3722C456.182 102.776 519.912 259.165 242.549 269.847C-34.8148 280.528 -126.141 682.484 369.546 802.38C865.232 922.276 1106.22 558.075 1042.68 294.265Z" fill="#EDFCFF"/>
<path d="M783.797 154.841C758.273 154.841 737.582 134.15 737.582 108.626C737.582 83.1022 758.273 62.4111 783.797 62.4111C809.321 62.4111 830.012 83.1022 830.012 108.626C830.012 134.15 809.321 154.841 783.797 154.841Z" fill="#FFE29E"/>
<path fill-rule="evenodd" clip-rule="evenodd" d="M1033.82 180.616C981.168 166.466 946.932 168.127 931.117 185.598C907.395 211.804 926.492 249.469 950.421 255.375C925.586 256.5 912.048 269.188 909.806 293.437C894.331 256.745 866.861 239.442 827.395 241.529C768.195 244.659 748.666 292.739 748.666 318.201C736.485 288.186 717.004 278.588 690.223 289.408C650.052 305.638 667.29 352.013 684.104 362.468C666.445 365.959 659.731 376.049 663.96 392.736C632.812 363.671 596.574 362.668 555.246 389.727C553.452 365.643 544.718 354.405 529.045 356.013C540.678 342.52 543.26 329.673 536.791 317.472C527.088 299.171 490.306 285.804 471.82 317.472C449.347 307.607 430.747 312.105 416.021 330.966C403.504 302.61 382.72 290.1 353.668 293.437C310.09 298.443 300.393 344.618 300.393 344.618C284.969 328.495 266.235 326.059 244.192 337.31C257.932 303.575 255.664 279.926 237.387 266.363C209.972 246.018 108.16 242.212 129.181 311.852C143.195 358.279 203.093 415.924 308.874 484.788L555.246 534.229H1079.63L1066.71 185.598L1033.82 180.616Z" fill="white"/>
<path fill-rule="evenodd" clip-rule="evenodd" d="M-31.3668 260.828C136.442 244.975 222.261 278.011 226.093 359.938C277.421 343.949 322.033 341.529 359.929 352.678C418.234 369.831 460.587 396.231 472.107 460.817C588.78 417.3 679.079 433.698 743.003 510.011C845.939 389.136 953.691 347.869 1066.26 386.21C1178.83 424.551 1150.6 499.726 981.569 611.736H-51.4717L-31.3668 260.828Z" fill="#CFE3E7"/>
<path d="M-31.3593 616.227H1098.87V928.671H-31.3593V616.227Z" fill="#AED9E0"/>
<path fill-rule="evenodd" clip-rule="evenodd" d="M-47.1621 612.151C105.196 449.65 241.969 390.506 363.157 434.719C544.938 501.038 1027.71 612.151 1065.09 612.151C1090 612.151 719.255 612.151 -47.1621 612.151Z" fill="#ADD9E1"/>
<path fill-rule="evenodd" clip-rule="evenodd" d="M1297.2 612.151C1144.84 449.65 1008.07 390.506 886.881 434.719C705.1 501.038 222.327 612.151 184.95 612.151C160.032 612.151 530.782 612.151 1297.2 612.151Z" fill="#D7F2F7"/>
<path fill-rule="evenodd" clip-rule="evenodd" d="M842.53 758.554L207.926 616.227H12.2069C142.041 834.645 307.82 927.367 509.545 894.392C711.27 861.418 822.265 816.138 842.53 758.554Z" fill="#F4DDAA"/>
<path fill-rule="evenodd" clip-rule="evenodd" d="M916.881 332.836C934.396 381.352 953.043 367.689 953.043 402.602C953.043 437.515 965.732 430.986 965.732 454.075C965.732 477.165 950.458 489.634 942.809 506.863C935.16 524.092 928.273 558.795 913.429 551.304C898.584 543.813 861.419 498.702 883.015 461.642C904.612 424.583 899.769 412.228 886.789 382.711C873.809 353.194 899.366 284.32 916.881 332.836Z" fill="#ABD6C8"/>
<path fill-rule="evenodd" clip-rule="evenodd" d="M819.711 437.666C830.537 438.425 845.976 452.118 845.976 474.952C845.976 497.787 854.881 508.557 855.967 516.08C857.054 523.602 854.094 530.446 843.456 541.317C832.819 552.188 837.594 566.968 827.712 569.985C824.15 571.073 818.196 564.952 818.196 554.146C818.196 543.34 793.598 518.34 800.765 506.894C804.428 501.044 812.796 495.287 814.586 488.998C817.054 480.329 807.338 467.255 805.735 452.118C804.122 436.894 813.97 437.263 819.711 437.666Z" fill="#EDFCFF"/>
<path d="M824.145 452.115C831.553 470.246 833.405 489.807 829.701 510.8C825.997 531.792 825.997 560.967 829.701 598.325" stroke="#32353F" stroke-width="0.8"/>
<path d="M828.713 517.435L842.371 504.865" stroke="#32353F" stroke-width="0.8"/>
<path d="M831.553 485.901L822.906 478.126" stroke="#32353F" stroke-width="0.8"/>
<path d="M827.045 541.314L816.365 530.365" stroke="#32353F" stroke-width="0.8"/>
<path fill-rule="evenodd" clip-rule="evenodd" d="M195.549 336.91C213.063 385.426 231.711 371.762 231.711 406.676C231.711 441.589 244.4 435.06 244.4 458.149C244.4 481.238 229.126 493.707 221.477 510.937C213.828 528.166 206.941 562.869 192.097 555.378C177.252 547.887 140.086 502.776 161.683 465.716C183.28 428.656 178.437 416.301 165.457 386.785C152.477 357.268 178.034 288.394 195.549 336.91Z" fill="#EDFCFF"/>
<path d="M190.816 379.985C202.721 409.123 205.698 440.561 199.745 474.299C193.792 508.037 193.792 554.926 199.745 614.964" stroke="#32353F" stroke-width="0.9"/>
<path d="M198.144 484.959L220.093 464.756" stroke="#32353F" stroke-width="0.9"/>
<path d="M202.721 434.284L188.824 421.789" stroke="#32353F" stroke-width="0.9"/>
<path d="M195.463 523.341L178.298 505.744" stroke="#32353F" stroke-width="0.9"/>
<path fill-rule="evenodd" clip-rule="evenodd" d="M98.3754 455.335C109.201 456.094 124.64 469.787 124.64 492.621C124.64 515.456 133.545 526.226 134.632 533.749C135.719 541.271 132.758 548.115 122.121 558.986C111.483 569.857 116.259 584.637 106.376 587.654C102.814 588.741 96.8606 582.621 96.8606 571.815C96.8606 561.009 72.2624 536.009 79.4295 524.563C83.0925 518.713 91.4611 512.956 93.2508 506.667C95.7181 497.997 86.0028 484.924 84.3991 469.787C82.7862 454.563 92.6351 454.932 98.3754 455.335Z" fill="#EDFCFF"/>
<path d="M102.814 469.785C110.222 487.916 112.074 507.477 108.37 528.47C104.666 549.462 104.666 578.637 108.37 615.995" stroke="#32353F" stroke-width="0.8"/>
<path d="M107.375 535.103L121.032 522.533" stroke="#32353F" stroke-width="0.8"/>
<path d="M110.222 503.573L101.575 495.797" stroke="#32353F" stroke-width="0.8"/>
<path d="M105.703 558.986L95.0227 548.037" stroke="#32353F" stroke-width="0.8"/>
<path opacity="0.365746" fill-rule="evenodd" clip-rule="evenodd" d="M981.671 616.228H210.722C656.44 697.181 913.423 714.625 981.671 668.559C1049.92 622.494 1049.92 605.05 981.671 616.228Z" fill="#9FCDD6"/>
<path fill-rule="evenodd" clip-rule="evenodd" d="M27.6592 559.422C42.0829 554.568 51.8506 557.097 56.9623 567.01C59.9991 579.194 64.4477 585 70.3081 584.429C81.9501 579.672 90.8647 581.389 97.0517 589.58C96.0687 574.159 101.817 565.528 114.296 563.689C133.014 560.93 138.464 574.896 138.464 587.481C138.097 575.762 142.714 570.045 152.315 570.329C149.792 557.16 153.186 550.195 162.494 549.432C176.457 548.288 178.684 554.762 178.684 572.216C190.641 571.516 197.604 576.832 199.575 588.165C210.01 583.319 220.63 586.349 231.434 597.253C242.393 589.692 253.169 590.04 263.761 598.295C281.395 595.377 295.868 599.939 307.18 611.981L45.7477 612.482L27.6592 561.516" fill="#7EC4D2"/>
<path fill-rule="evenodd" clip-rule="evenodd" d="M1013.56 559.422C999.141 554.568 989.373 557.097 984.261 567.01C981.225 579.194 976.776 585 970.916 584.429C959.274 579.672 950.359 581.389 944.172 589.58C945.155 574.159 939.407 565.528 926.928 563.689C908.209 560.93 902.76 574.896 902.76 587.481C903.126 575.762 898.509 570.045 888.909 570.329C891.431 557.16 888.038 550.195 878.73 549.432C864.767 548.288 862.539 554.762 862.539 572.216C850.583 571.516 843.619 576.832 841.649 588.165C831.214 583.319 820.594 586.349 809.789 597.253C798.83 589.692 788.055 590.04 777.463 598.295C759.829 595.377 745.356 599.939 734.043 611.981L995.476 612.482L1013.56 561.516" fill="#7EC4D2"/>
</g>
<path fill-rule="evenodd" clip-rule="evenodd" d="M578.153 655.03C561.053 655.03 547.19 669.181 547.19 686.651C547.19 704.107 561.053 718.272 578.153 718.272C595.253 718.272 609.115 704.107 609.115 686.651C609.115 669.181 595.253 655.03 578.153 655.03Z" fill="#5F6260"/>
<path fill-rule="evenodd" clip-rule="evenodd" d="M645.551 600.534C635.988 594.956 558.43 577.294 558.43 577.294C558.43 577.294 482.543 510.953 418.795 507.234C357.451 503.649 279.109 508.533 251.786 513.476L252.287 513.033L217.423 517.637C217.423 517.637 215.017 520.706 215.919 523.775C216.822 526.844 222.232 531.448 216.219 544.345L216.741 543.887C208.98 556.71 202.865 570.668 198.415 579.463C196.545 583.152 172.915 602.083 163.809 652.311C157.469 687.281 184.3 706.095 184.3 706.095L677.576 706.242L686.076 671.213C686.076 671.213 671.961 627.035 669.229 622.859C666.495 618.668 655.113 606.111 645.551 600.534Z" fill="#FAFAFA"/>
<path fill-rule="evenodd" clip-rule="evenodd" d="M167.172 684.542C173.483 698.619 183.981 705.982 183.981 705.982L677.257 706.129L682.393 684.955H170.663C169.407 684.955 168.25 684.808 167.172 684.542Z" fill="#644E77"/>
<path fill-rule="evenodd" clip-rule="evenodd" d="M649.774 682.196C649.774 688.231 654.566 693.115 660.474 693.115H680.281L685.746 671.262H660.474C654.566 671.262 649.774 676.161 649.774 682.196Z" fill="#FB7333"/>
<path fill-rule="evenodd" clip-rule="evenodd" d="M665.784 618.083C656.399 607.445 645.795 604.862 645.795 604.862C630.314 607.651 657.633 630.891 663.098 632.293C668.561 633.68 671.866 630.714 671.866 630.714L670.727 627.084C669.688 623.779 668.061 620.651 665.784 618.083Z" fill="#FB7333"/>
<path fill-rule="evenodd" clip-rule="evenodd" d="M232.661 641.75C209.276 641.75 190.293 661.124 190.293 685.014C190.293 708.932 209.276 728.306 232.661 728.306C256.081 728.306 275.052 708.932 275.052 685.014C275.052 661.124 256.081 641.75 232.661 641.75Z" fill="#3F2355"/>
<path fill-rule="evenodd" clip-rule="evenodd" d="M232.503 655.03C215.587 655.03 201.853 669.048 201.853 686.327C201.853 703.62 215.587 717.638 232.503 717.638C249.446 717.638 263.17 703.62 263.17 686.327C263.17 669.048 249.446 655.03 232.503 655.03Z" fill="#897999"/>
<path fill-rule="evenodd" clip-rule="evenodd" d="M261.95 681.339L242.194 684.674C242.324 685.294 242.406 685.914 242.406 686.563C242.406 687.02 242.324 687.507 242.263 687.95L261.833 691.285C261.037 695.903 259.237 700.167 256.662 703.827L240.73 692.214C240.117 693.144 239.327 693.941 238.453 694.634L249.807 710.88C246.221 713.536 242.055 715.41 237.528 716.266L234.312 696.567C233.688 696.715 233.049 696.774 232.377 696.774C231.883 696.774 231.422 696.715 230.961 696.641L227.719 716.428C223.091 715.735 218.789 713.993 215.086 711.396L226.62 694.885C225.7 694.236 224.874 693.395 224.213 692.436L207.915 704.328C205.182 700.595 203.255 696.228 202.405 691.462L222.514 688.038C222.468 687.537 222.384 687.064 222.384 686.563C222.384 685.899 222.468 685.22 222.585 684.6L202.288 681.162C203.028 676.322 204.863 671.852 207.548 668.015L224.496 680.351C225.145 679.465 225.936 678.669 226.844 678.064L214.738 660.726C218.49 658.011 222.865 656.181 227.596 655.458L231.033 676.485C231.481 676.411 231.929 676.337 232.377 676.337C233.014 676.337 233.617 676.411 234.229 676.544L237.652 655.62C242.28 656.506 246.526 658.468 250.157 661.242L238.253 678.3C239.09 678.934 239.857 679.701 240.471 680.587L257.029 668.517C259.556 672.279 261.261 676.632 261.95 681.339ZM232.094 652.079C213.83 652.079 198.965 667.263 198.965 685.914C198.965 704.609 213.83 719.792 232.094 719.792C250.382 719.792 265.259 704.609 265.259 685.914C265.259 667.263 250.382 652.079 232.094 652.079Z" fill="#AFA5BB"/>
<path fill-rule="evenodd" clip-rule="evenodd" d="M232.807 672.736C226.084 672.736 220.634 678.299 220.634 685.175C220.634 692.036 226.084 697.599 232.807 697.599C239.53 697.599 244.981 692.036 244.981 685.175C244.981 678.299 239.53 672.736 232.807 672.736Z" fill="#D4D0DD"/>
<path fill-rule="evenodd" clip-rule="evenodd" d="M213.318 576.832C204.503 576.463 201.853 590.481 201.853 590.481L568.894 604.292L588.902 599.349C584.83 594.42 551.105 591.233 551.105 591.233L213.318 576.832Z" fill="white"/>
<path fill-rule="evenodd" clip-rule="evenodd" d="M519.557 614.705C519.489 617.376 519.445 620.268 519.395 623.293C519.028 646.002 518.476 680.309 506.958 685.621C503.253 687.317 462.249 687.406 322.593 684.691C318.434 684.691 315.127 681.12 315.365 676.885L321.064 575.5L511.948 584.973C513.609 586.699 520.062 594.771 519.557 614.705ZM513.802 581.697L513.34 581.343L317.823 570.926L317.472 575.087L311.682 677.83C311.374 683.319 315.557 687.952 320.927 688.1C361.745 689.162 414.503 691.951 439.168 691.951C480.91 691.951 504.133 690.962 508.444 688.97C522.044 682.699 522.576 649.794 523.002 623.352C523.051 620.342 523.097 617.465 523.164 614.809C523.787 589.99 514.21 582.037 513.802 581.697Z" fill="#644E77"/>
<path fill-rule="evenodd" clip-rule="evenodd" d="M578.72 642.487C555.335 642.487 536.352 661.861 536.352 685.75C536.352 709.669 555.335 729.043 578.72 729.043C602.139 729.043 621.111 709.669 621.111 685.75C621.111 661.861 602.139 642.487 578.72 642.487Z" fill="#3F2355"/>
<path fill-rule="evenodd" clip-rule="evenodd" d="M578.192 652.079C560.281 652.079 545.739 666.923 545.739 685.22C545.739 703.532 560.281 718.376 578.192 718.376C596.131 718.376 610.662 703.532 610.662 685.22C610.662 666.923 596.131 652.079 578.192 652.079Z" fill="#897999"/>
<path fill-rule="evenodd" clip-rule="evenodd" d="M608.724 681.339L588.968 684.674C589.097 685.294 589.181 685.914 589.181 686.563C589.181 687.02 589.097 687.507 589.038 687.95L608.607 691.285C607.81 695.903 606.011 700.167 603.436 703.827L587.504 692.214C586.892 693.144 586.101 693.941 585.229 694.634L596.581 710.88C592.995 713.536 588.829 715.41 584.303 716.266L581.086 696.567C580.462 696.715 579.823 696.774 579.151 696.774C578.657 696.774 578.196 696.715 577.735 696.641L574.493 716.428C569.865 715.735 565.563 713.993 561.86 711.396L573.393 694.885C572.475 694.236 571.648 693.395 570.988 692.436L554.689 704.328C551.957 700.595 550.029 696.228 549.178 691.462L569.288 688.038C569.242 687.537 569.158 687.064 569.158 686.563C569.158 685.899 569.242 685.22 569.359 684.6L549.063 681.162C549.802 676.322 551.637 671.852 554.322 668.015L571.271 680.351C571.92 679.465 572.71 678.669 573.619 678.064L561.512 660.726C565.263 658.011 569.638 656.181 574.37 655.458L577.808 676.485C578.256 676.411 578.704 676.337 579.151 676.337C579.789 676.337 580.391 676.411 581.004 676.544L584.425 655.62C589.053 656.506 593.3 658.468 596.931 661.242L585.028 678.3C585.865 678.934 586.632 679.701 587.246 680.587L603.803 668.517C606.33 672.279 608.035 676.632 608.724 681.339ZM578.868 652.079C560.605 652.079 545.739 667.263 545.739 685.914C545.739 704.609 560.605 719.792 578.868 719.792C597.155 719.792 612.035 704.609 612.035 685.914C612.035 667.263 597.155 652.079 578.868 652.079Z" fill="#AFA5BB"/>
<path fill-rule="evenodd" clip-rule="evenodd" d="M578.145 672.736C571.422 672.736 565.972 678.299 565.972 685.175C565.972 692.036 571.422 697.599 578.145 697.599C584.868 697.599 590.317 692.036 590.317 685.175C590.317 678.299 584.868 672.736 578.145 672.736Z" fill="#D4D0DD"/>
<path fill-rule="evenodd" clip-rule="evenodd" d="M186.748 603.385H179.718L176.112 610.054L172.956 617.535L186.875 617.27C189.405 617.225 191.699 615.75 192.831 613.433C195.092 608.815 191.803 603.385 186.748 603.385Z" fill="#FB7333"/>
<path fill-rule="evenodd" clip-rule="evenodd" d="M180.962 621.094L171.981 621.256L169.426 627.852L167.172 635.259L181.089 634.993C183.621 634.934 185.914 633.459 187.047 631.142C189.308 626.524 186.019 621.094 180.962 621.094Z" fill="#ED6C0D"/>
<path fill-rule="evenodd" clip-rule="evenodd" d="M365.889 596.143C365.84 597.383 364.856 598.342 363.652 598.342V599.449L363.56 598.342L336.206 597.191C335.611 597.161 335.059 596.911 334.653 596.453C334.248 596.011 334.04 595.42 334.065 594.815L334.195 591.554C334.244 590.33 335.224 589.371 336.517 589.371H336.52L363.878 590.507C364.473 590.536 365.027 590.802 365.427 591.245C365.833 591.702 366.044 592.277 366.019 592.882L365.889 596.143ZM363.966 588.308L336.429 587.157C334.058 587.157 332.127 589.046 332.033 591.466L331.902 594.727C331.853 595.922 332.266 597.073 333.061 597.958C333.338 598.253 333.688 598.46 334.026 598.667L333.465 598.637C348.404 607.284 365.277 600.26 365.277 600.26H365.128C366.771 599.655 367.974 598.121 368.052 596.247L368.182 592.971C368.227 591.776 367.815 590.625 367.019 589.754C366.223 588.869 365.139 588.352 363.966 588.308Z" fill="#897999"/>
<path fill-rule="evenodd" clip-rule="evenodd" d="M264.978 521.859C264.978 521.859 250.863 522.316 232.194 566.967L538.405 579.051C538.405 579.051 474.886 528.366 449.843 522.316C424.8 516.281 366.518 509.302 264.978 521.859Z" fill="#E3F0F5"/>
<path fill-rule="evenodd" clip-rule="evenodd" d="M263.987 523.685C264.078 523.644 264.169 523.604 264.26 523.604C264.169 523.604 264.08 523.644 263.987 523.685ZM264.291 523.564C265.848 523.12 267.396 522.675 268.935 522.231C267.396 522.675 265.848 523.12 264.291 523.564Z" fill="#DAE8E6"/>
<path fill-rule="evenodd" clip-rule="evenodd" d="M233.857 565.597C251.04 525.668 263.89 524.104 264.131 524.089C301.642 519.441 336.421 517.095 367.497 517.095C411.11 517.095 436.877 521.743 448.357 524.517C468.892 529.475 516.757 565.759 531.69 577.342L233.857 565.597ZM449.197 520.902C437.564 518.084 411.48 513.377 367.497 513.377C336.275 513.377 301.35 515.738 263.853 520.386C262.29 520.43 248.042 522.171 229.451 566.615C229.217 567.176 229.269 567.825 229.59 568.341C229.91 568.858 230.459 569.182 231.057 569.212L537.267 581.297H537.338C538.099 581.297 538.787 580.81 539.049 580.072C539.32 579.319 539.08 578.464 538.458 577.962C535.855 575.881 474.34 526.967 449.197 520.902Z" fill="#644E77"/>
<path fill-rule="evenodd" clip-rule="evenodd" d="M505.281 578.097L535.333 578.569L507.557 557.646L505.281 578.097Z" fill="#3F2355"/>
<path fill-rule="evenodd" clip-rule="evenodd" d="M499.323 577.995L502.207 564.966C502.207 564.966 498.868 559.389 490.976 558.149C483.081 556.91 474.583 557.529 473.671 564.966C472.762 572.418 475.495 578.615 479.441 578.615C483.385 578.615 484.904 579.854 484.904 579.854L491.582 593.489C491.582 593.489 509.492 601.235 507.974 591.01L499.323 577.995Z" fill="#3F2355"/>
<path fill-rule="evenodd" clip-rule="evenodd" d="M326.095 516.256L317.442 570.188L344.459 571.899L343.396 514.854L326.095 516.256Z" fill="#644E77"/>
<path fill-rule="evenodd" clip-rule="evenodd" d="M671.595 522.069L671.452 521.832L671.595 522.069L678.951 519.28L681.091 521.449L678.951 519.28L671.595 522.069Z" fill="#82939C"/>
</g>
</svg>
