<svg width="28" height="28" viewBox="0 0 28 28" fill="none" xmlns="http://www.w3.org/2000/svg">
<path d="M14 26.25C10.7511 26.25 7.63526 24.9594 5.33794 22.6621C3.04062 20.3647 1.75 17.2489 1.75 14C1.75 10.7511 3.04062 7.63526 5.33794 5.33794C7.63526 3.04062 10.7511 1.75 14 1.75C17.2489 1.75 20.3647 3.04062 22.6621 5.33794C24.9594 7.63526 26.25 10.7511 26.25 14C26.25 17.2489 24.9594 20.3647 22.6621 22.6621C20.3647 24.9594 17.2489 26.25 14 26.25ZM14 28C17.713 28 21.274 26.525 23.8995 23.8995C26.525 21.274 28 17.713 28 14C28 10.287 26.525 6.72601 23.8995 4.10051C21.274 1.475 17.713 0 14 0C10.287 0 6.72601 1.475 4.10051 4.10051C1.475 6.72601 0 10.287 0 14C0 17.713 1.475 21.274 4.10051 23.8995C6.72601 26.525 10.287 28 14 28Z" fill="#FF1F00"/>
<path d="M12.2539 19.25C12.2539 19.0201 12.2992 18.7926 12.3871 18.5803C12.4751 18.3679 12.604 18.175 12.7665 18.0125C12.929 17.85 13.1219 17.7211 13.3342 17.6332C13.5465 17.5452 13.7741 17.5 14.0039 17.5C14.2337 17.5 14.4613 17.5452 14.6736 17.6332C14.8859 17.7211 15.0788 17.85 15.2413 18.0125C15.4038 18.175 15.5328 18.3679 15.6207 18.5803C15.7086 18.7926 15.7539 19.0201 15.7539 19.25C15.7539 19.7141 15.5695 20.1592 15.2413 20.4874C14.9132 20.8156 14.468 21 14.0039 21C13.5398 21 13.0947 20.8156 12.7665 20.4874C12.4383 20.1592 12.2539 19.7141 12.2539 19.25ZM12.4254 8.74121C12.4021 8.52043 12.4255 8.29722 12.494 8.08606C12.5625 7.8749 12.6747 7.6805 12.8232 7.51549C12.9717 7.35047 13.1533 7.21853 13.3561 7.12821C13.5589 7.03788 13.7784 6.99121 14.0004 6.99121C14.2224 6.99121 14.4419 7.03788 14.6447 7.12821C14.8475 7.21853 15.0291 7.35047 15.1776 7.51549C15.3261 7.6805 15.4383 7.8749 15.5068 8.08606C15.5753 8.29722 15.5987 8.52043 15.5754 8.74121L14.9629 14.8785C14.9423 15.1196 14.832 15.3442 14.6538 15.5078C14.4755 15.6715 14.2424 15.7623 14.0004 15.7623C13.7584 15.7623 13.5253 15.6715 13.347 15.5078C13.1688 15.3442 13.0585 15.1196 13.0379 14.8785L12.4254 8.74121Z" fill="#FF1F00"/>
</svg>
