<svg width="69" height="40" viewBox="0 0 69 40" fill="none" xmlns="http://www.w3.org/2000/svg">
<g clip-path="url(#clip0)">
<path d="M41.392 2.52881C41.6612 2.52881 41.9194 2.63632 42.1098 2.8277C42.3001 3.01908 42.4071 3.27865 42.4071 3.5493C42.4071 3.81995 42.3001 4.07952 42.1098 4.2709C41.9194 4.46228 41.6612 4.56979 41.392 4.56979L41.0724 4.51623C40.8447 4.43899 40.6516 4.28306 40.5276 4.07617C40.4035 3.86928 40.3565 3.62485 40.3949 3.38637C40.4332 3.14789 40.5545 2.93082 40.7371 2.77379C40.9197 2.61676 41.1518 2.52995 41.392 2.52881Z" fill="#DEDFE0"/>
<path d="M38.9519 2.52881H41.3922C41.1519 2.52995 40.9198 2.61676 40.7372 2.77379C40.5546 2.93082 40.4333 3.14789 40.395 3.38637C40.3566 3.62485 40.4037 3.86928 40.5277 4.07617C40.6518 4.28306 40.8448 4.43899 41.0725 4.51622L38.7521 4.13321L37.4466 3.91893C37.3458 3.90334 37.2515 3.85896 37.175 3.79106C37.0985 3.72316 37.043 3.6346 37.0151 3.53591C36.9484 3.36607 36.9495 3.17695 37.0179 3.00785C37.0864 2.83875 37.217 2.70268 37.3827 2.62791C37.4937 2.56346 37.6195 2.5293 37.7477 2.52881H38.9519Z" fill="white"/>
<path d="M65.1717 33.5313C65.1877 34.1446 65.1237 34.6616 64.3298 34.6937H63.7091C63.6269 33.8598 63.4953 33.0316 63.3148 32.2135L63.2988 32.0903C63.4747 32.0903 63.6212 32.0903 63.7411 32.0715C65.1877 32.0421 65.1557 32.9206 65.1717 33.5313Z" fill="white"/>
<path d="M63.7357 35.0561C63.7704 35.5669 63.622 36.0734 63.3174 36.4837C57.4404 35.948 47.5247 35.6025 36.2849 35.6025C28.2713 35.6025 20.9317 35.7793 15.2385 36.0766L14.3887 35.932C14.3887 35.932 14.9481 33.5535 20.612 33.8615C33.8259 34.2901 59.3479 34.665 63.6984 34.6972C63.7223 34.8204 63.7303 34.9383 63.7357 35.0561Z" fill="#DEDFE0"/>
<path d="M14.3997 35.9288C9.36991 35.0235 6.36748 33.6735 5.04342 32.4897C2.49921 32.4897 0.575738 31.3701 0.581066 30.1032C0.581066 28.7639 1.87848 28.8925 1.87848 28.8925C1.87848 28.8925 3.38369 30.6281 6.43674 30.8531C9.29798 31.062 53.0371 32.1924 62.3827 32.104C62.7477 32.104 63.0594 32.104 63.3125 32.0879L63.3284 32.2111C63.5089 33.0292 63.6406 33.8575 63.7227 34.6914C59.3723 34.6619 33.8503 34.2842 20.6364 33.8557C14.9592 33.5503 14.3997 35.9288 14.3997 35.9288Z" fill="white"/>
<path d="M62.3688 32.1062C53.0445 32.2027 9.29743 31.0643 6.43619 30.8554C3.38314 30.6304 1.87793 28.8948 1.87793 28.8948C1.95321 28.6069 2.06232 28.3291 2.20295 28.0671C2.20295 28.0671 27.5118 24.2959 52.0881 24.9869C60.6798 24.9092 62.1877 28.2493 62.3688 32.1062Z" fill="white"/>
<path d="M63.2988 32.0905C63.0324 32.0905 62.734 32.1039 62.369 32.1065C62.1878 28.2496 60.68 24.9015 52.0883 24.9872C27.504 24.2961 2.20312 28.0674 2.20312 28.0674C3.33536 25.9247 6.19926 25.1747 6.19926 25.1747C6.19926 25.1747 13.363 23.3533 22.7166 22.0114C23.9421 21.8346 25.2076 21.6659 26.497 21.5132C37.6329 20.174 42.4815 20.2383 42.4815 20.2383C42.6884 20.5297 42.9477 20.7795 43.2461 20.9749C44.9112 22.1025 44.5276 22.0757 47.0185 21.9445C49.5094 21.8132 54.3581 21.9445 57.1101 21.9445C59.8621 21.9445 62.4889 25.5497 63.2988 32.0905Z" fill="#DEDFE0"/>
<path d="M42.4955 20.2385C42.4955 20.2385 37.6362 20.185 26.511 21.5135C25.2215 21.6661 23.9561 21.8349 22.7306 22.0117L15.0207 22.7081C9.79111 23.0268 11.2564 20.951 11.2564 20.951C11.4562 20.8572 11.664 20.7635 11.8744 20.6698C13.4693 19.9751 15.1087 19.389 16.7817 18.9154C19.0623 18.2762 21.3743 17.7558 23.7083 17.3565C31.1678 16.0333 37.9079 15.1012 40.1911 16.8208C41.9707 18.1654 41.8268 19.285 42.4955 20.2385Z" fill="white"/>
<path d="M11.2375 20.9507C11.2375 20.9507 9.77221 23.0265 15.0018 22.7078L22.7117 22.0114C13.3581 23.3506 6.19434 25.1746 6.19434 25.1746C6.19434 25.1746 6.66055 23.2702 9.59105 21.7515C10.1239 21.4837 10.6567 21.2159 11.2375 20.9507Z" fill="white"/>
<path d="M16.7627 18.9153C15.0897 19.389 13.4503 19.9751 11.8555 20.6697C14.0081 14.9271 17.2343 10.0604 21.8192 6.29713C23.2329 5.91824 24.7011 5.78776 26.159 5.91143C26.7765 5.96926 27.3853 6.09869 27.9732 6.29713C23.1512 9.21665 19.5201 13.5504 16.7627 18.9153Z" fill="white"/>
<path d="M38.4052 0.915702C38.5021 0.938791 38.593 0.982645 38.6716 1.04427C29.3792 1.88263 26.1504 5.86549 26.1504 5.86549V5.91638C24.6925 5.79271 23.2243 5.92319 21.8105 6.30208C22.4268 5.79496 23.0662 5.31016 23.7287 4.84768C23.7287 4.84768 25.3618 1.99512 30.3277 1.07105C34.2652 0.18984 37.233 0.653213 38.4052 0.915702Z" fill="white"/>
<path d="M38.9517 2.1567V2.52901H37.7475C37.6194 2.5295 37.4935 2.56366 37.3826 2.62811C37.2169 2.70288 37.0862 2.83895 37.0178 3.00805C36.9493 3.17715 36.9483 3.36627 37.0149 3.53611C37.0428 3.6348 37.0983 3.72336 37.1748 3.79126C37.2513 3.85916 37.3456 3.90354 37.4465 3.91913L38.7519 4.13341L38.68 4.56999C38.3816 5.29318 37.7928 5.37353 36.9643 5.37353H29.6274C29.0599 5.6628 28.5085 5.97351 27.9703 6.2976C27.3851 6.09885 26.779 5.96854 26.1641 5.90922V5.85833C26.1641 5.85833 29.3796 1.8835 38.6853 1.03711C38.7691 1.10391 38.8367 1.18905 38.8828 1.28606C38.929 1.38306 38.9526 1.48937 38.9517 1.59691V2.1567Z" fill="#DEDFE0"/>
<path d="M63.3175 36.4833C66.8741 36.8047 68.9521 37.1931 68.9521 37.6109C68.9521 38.7225 54.3262 39.6224 36.285 39.6224C18.2438 39.6224 3.61523 38.7225 3.61523 37.6109C3.61523 36.9949 8.14419 36.4431 15.2493 36.0762C18.1911 36.5349 21.1584 36.8086 24.1341 36.8958C35.2327 37.2895 57.8881 37.6538 60.4137 37.6083C61.9269 37.5815 62.8433 37.1208 63.3175 36.4833Z" fill="#DEDFE0"/>
<path d="M63.3173 36.4833C62.843 37.1207 61.9266 37.5814 60.4134 37.6082C57.8878 37.6537 35.2324 37.2895 24.1338 36.8957C21.1581 36.8086 18.1908 36.5348 15.249 36.0761C20.9315 35.7788 28.2711 35.6021 36.2954 35.6021C47.5245 35.6021 57.4403 35.9503 63.3173 36.4833Z" fill="#DEDFE0"/>
<path d="M1.87793 28.895C1.87793 28.895 3.38314 30.6307 6.43619 30.8557C9.29743 31.0646 53.0365 32.1949 62.3821 32.1065C62.7471 32.1065 63.0588 32.1065 63.3119 32.0904C63.4877 32.0904 63.6343 32.0904 63.7541 32.0717C65.2007 32.0422 65.1688 32.9207 65.1848 33.5314C65.2007 34.1421 65.1368 34.6617 64.3429 34.6939H63.7222C59.3717 34.6644 33.8497 34.2868 20.6358 33.8582C14.9719 33.5502 14.4125 35.9287 14.4125 35.9287" stroke="#644E77" stroke-linecap="round" stroke-linejoin="round"/>
<path d="M2.20312 28.0671C2.20312 28.0671 27.512 24.2959 52.0883 24.9869C60.6799 24.9012 62.1878 28.2493 62.369 32.1063" stroke="#644E77" stroke-linecap="round" stroke-linejoin="round"/>
<path d="M22.7197 22.0114C23.9452 21.8347 25.2107 21.6659 26.5001 21.5132C37.636 20.174 42.4846 20.2383 42.4846 20.2383" stroke="#644E77" stroke-width="0.270588" stroke-linecap="round" stroke-linejoin="round"/>
<path d="M6.19434 25.1779C6.19434 25.1779 13.3581 23.3566 22.7117 22.0146" stroke="#644E77" stroke-width="0.270588" stroke-linecap="round" stroke-linejoin="round"/>
<path d="M63.7094 34.6944C63.7227 34.8176 63.7307 34.9381 63.7361 35.056C63.7708 35.5668 63.6224 36.0733 63.3178 36.4836C62.8436 37.1211 61.9271 37.5818 60.4139 37.6086C57.8884 37.6541 35.2329 37.2898 24.1343 36.8961C21.1587 36.8089 18.1913 36.5352 15.2496 36.0765L14.3997 35.9318C9.36991 35.0265 6.36748 33.6766 5.04342 32.4927C2.49921 32.4927 0.575738 31.3731 0.581066 30.1062C0.581066 28.767 1.87848 28.8955 1.87848 28.8955C1.95376 28.6077 2.06287 28.3298 2.2035 28.0679C3.33574 25.9251 6.19964 25.1752 6.19964 25.1752C6.19964 25.1752 6.66053 23.2708 9.59103 21.7521C10.1079 21.4842 10.6567 21.2164 11.2294 20.9486C11.4293 20.8548 11.6371 20.7611 11.8475 20.6673C13.4423 19.9727 15.0818 19.3866 16.7548 18.9129C19.0354 18.2737 21.3474 17.7534 23.6814 17.3541C31.1409 16.0309 37.881 15.0988 40.1642 16.8184C41.9704 18.1576 41.8159 19.2826 42.4952 20.2441C42.7021 20.5355 42.9615 20.7853 43.2598 20.9807C44.9249 22.1083 44.5413 22.0815 47.0322 21.9503C49.5231 21.8191 54.3718 21.9503 57.1238 21.9503C59.8758 21.9503 62.4893 25.5555 63.2991 32.0963L63.3151 32.2195C63.4954 33.0359 63.627 33.8623 63.7094 34.6944Z" stroke="#644E77" stroke-linecap="round" stroke-linejoin="round"/>
<path d="M21.8192 6.29736C17.2343 10.0472 14.0081 14.9274 11.8555 20.67" stroke="#644E77" stroke-width="0.541176" stroke-linecap="round" stroke-linejoin="round"/>
<path d="M38.6768 1.04448C38.5983 0.982857 38.5074 0.939003 38.4104 0.915914C37.2382 0.648068 34.2704 0.190052 30.3329 1.05787C25.367 1.99533 23.7472 4.83986 23.7472 4.83986C23.083 5.30234 22.4436 5.78714 21.8291 6.29426" stroke="#644E77" stroke-width="0.541176" stroke-linecap="round" stroke-linejoin="round"/>
<path d="M38.952 2.15624V1.60716C38.9528 1.49963 38.9293 1.39331 38.8831 1.29631C38.8369 1.1993 38.7694 1.11416 38.6855 1.04736" stroke="#644E77" stroke-width="0.541176" stroke-linecap="round" stroke-linejoin="round"/>
<path d="M38.6792 4.56934C38.3808 5.29252 37.7921 5.37287 36.9635 5.37287H29.6266C29.0592 5.66215 28.5077 5.97285 27.9696 6.29694C23.1502 9.21646 19.5191 13.5502 16.7617 18.9152" stroke="#644E77" stroke-width="0.541176" stroke-linecap="round" stroke-linejoin="round"/>
<path d="M41.4561 2.52881H37.7477C37.6195 2.5293 37.4937 2.56346 37.3827 2.62791C37.217 2.70268 37.0864 2.83875 37.0179 3.00785C36.9495 3.17695 36.9484 3.36607 37.0151 3.53591C37.043 3.6346 37.0985 3.72316 37.175 3.79106C37.2515 3.85896 37.3458 3.90334 37.4466 3.91893L38.7521 4.13321L41.0725 4.51623L41.3922 4.56979" stroke="#644E77" stroke-width="0.270588" stroke-linecap="round" stroke-linejoin="round"/>
<path d="M41.392 2.52881C41.6612 2.52881 41.9194 2.63632 42.1098 2.8277C42.3001 3.01908 42.4071 3.27865 42.4071 3.5493C42.4071 3.81995 42.3001 4.07952 42.1098 4.2709C41.9194 4.46228 41.6612 4.56979 41.392 4.56979C41.2833 4.56989 41.1752 4.55179 41.0724 4.51623C40.8447 4.43899 40.6516 4.28306 40.5276 4.07617C40.4035 3.86928 40.3565 3.62485 40.3949 3.38637C40.4332 3.14789 40.5545 2.93082 40.7371 2.77379C40.9197 2.61676 41.1518 2.52995 41.392 2.52881V2.52881Z" stroke="#644E77" stroke-width="0.270588" stroke-linecap="round" stroke-linejoin="round"/>
<path d="M21.8184 6.29713C23.2321 5.91824 24.7003 5.78775 26.1582 5.91143C26.7757 5.96926 27.3845 6.09869 27.9724 6.29713" stroke="#644E77" stroke-width="0.270588" stroke-linecap="round" stroke-linejoin="round"/>
<path d="M26.1689 5.85833C26.1689 5.85833 29.3845 1.8835 38.6902 1.03711" stroke="#644E77" stroke-width="0.270588" stroke-linecap="round" stroke-linejoin="round"/>
<path d="M11.2368 20.9507C11.2368 20.9507 9.77157 23.0265 15.0012 22.7078L22.7111 22.0114" stroke="#644E77" stroke-width="0.270588" stroke-linecap="round" stroke-linejoin="round"/>
</g>
<defs>
<clipPath id="clip0">
<rect width="69" height="39.6412" fill="white"/>
</clipPath>
</defs>
</svg>
