<svg width="67" height="67" viewBox="0 0 67 67" fill="none" xmlns="http://www.w3.org/2000/svg">
<g clip-path="url(#clip0)">
<path d="M62.8272 41.5307C61.5726 38.579 49.4094 33.2289 43.4847 30.9229C41.9163 32.1528 38.8843 34.7048 39.3025 35.0738C39.7207 35.4427 33.2035 39.8396 29.8926 41.992C41.3936 43.0681 64.0819 44.4825 62.8272 41.5307Z" fill="#FA9566" stroke="#FA9566"/>
<path d="M65.4177 42.5618C62.178 38.1985 57.8776 34.7354 52.9234 32.5006C50.4156 31.4256 47.8986 30.4641 45.6342 29.6498C45.6173 29.6197 45.6153 29.5865 45.5959 29.5573C43.8968 27.1017 41.9814 24.8025 39.8734 22.6878C39.4348 22.2646 38.7386 22.2707 38.3077 22.7011C37.8773 23.132 37.8712 23.8282 38.2944 24.2668C39.5846 25.5651 40.8001 26.9356 41.9354 28.3714C39.0995 27.4288 37.1954 26.8809 37.1576 26.8696C36.8887 26.7924 36.6014 26.8195 36.3515 26.9443L34.5312 27.8541L31.6202 26.885C31.0344 26.6902 30.401 27.0071 30.2063 27.5929C30.0115 28.1787 30.3285 28.812 30.9143 29.0068L34.2644 30.1232C34.5445 30.2188 34.8517 30.1978 35.1165 30.0644L36.9623 29.1387C37.7326 29.3621 39.5304 29.9136 41.8756 30.7018C41.183 31.6832 40.4372 32.6268 39.6418 33.527H36.0611C35.735 33.527 35.4109 33.574 35.0986 33.6676L25.4494 36.5633C24.8672 36.7386 24.2472 36.7422 23.6629 36.574L11.3385 32.9847C10.5702 25.2217 9.23218 18.4967 6.24495 11.2898C5.99448 10.7265 5.71766 10.057 5.15385 10.3075C4.59054 10.5575 5.4276 10.7258 5.67807 11.2896C5.68574 11.3065 5.82427 11.625 6.04304 12.1699L6.02822 12.1765L1.56168 15.5261C1.20438 15.7945 1.04132 16.2494 1.14713 16.6834C1.25294 17.1174 1.60718 17.4466 2.0478 17.5207L8.24615 18.5538C9.60124 23.0397 9.94945 28.3458 9.94945 32.655L9.39075 32.495C9.19139 32.4382 8.98539 32.4096 8.77786 32.4101H5.84532C4.57662 32.406 3.41577 33.1237 2.85196 34.2605L2.43434 35.0958L0.647316 36.8557C0.117752 37.3883 -0.107671 38.152 0.0487448 38.8871L0.934589 42.8777C0.351864 43.2892 0.00427369 43.9568 0.00120672 44.6698V46.9501C0.00427369 47.927 0.649872 48.7857 1.58785 49.0597L5.61428 54.6973C4.25765 54.6564 2.9225 54.3456 1.68702 53.7828C1.15797 53.4812 0.484255 53.6596 0.17398 54.1836C-0.136807 54.7075 0.0298318 55.3838 0.54815 55.7038C2.44303 56.5927 4.51886 57.0282 6.61156 56.9766C9.03293 57.0476 11.4165 56.3627 13.431 55.0168C15.6515 56.3719 18.2175 57.0527 20.8178 56.9766C22.8558 57.0006 24.882 56.6602 26.8004 55.9716C28.7203 56.6607 30.7481 57.0011 32.7882 56.9766C35.3987 57.0553 37.9754 56.3683 40.2005 54.9999C42.4272 56.3683 45.005 57.0553 47.617 56.9766C49.6494 56.998 51.6695 56.6576 53.5823 55.9716C55.3386 56.655 57.2095 56.996 59.0941 56.9766C61.8278 57.0834 64.5063 56.1873 66.6261 54.4576C66.9241 54.1923 67.058 53.7879 66.9773 53.3974C66.8965 53.0064 66.6133 52.6884 66.2345 52.5632C65.8558 52.438 65.4387 52.5238 65.1407 52.7891C64.3586 53.4603 63.441 53.9556 62.4509 54.2408C63.6936 52.6261 64.7394 50.8687 65.5665 49.006C66.4247 48.685 66.9957 47.8666 67.0003 46.9501V44.6698C66.9962 43.695 66.3531 42.8378 65.4177 42.5618ZM2.57692 16.4924L6.24495 13.9155C6.44124 14.4624 6.64264 16.533 6.86499 17.2041L2.57692 16.4924ZM2.23447 46.9501L2.21096 44.6933H2.23447L17.8392 44.6877C17.8495 44.6877 17.8587 44.6933 17.8684 44.6933C17.8786 44.6933 17.8873 44.6877 17.8975 44.6877H22.2981C22.3114 44.6877 22.3216 44.6959 22.3349 44.6959C22.4187 44.6959 22.5005 44.6893 22.5844 44.6877L64.5804 44.6734C64.6418 44.6852 64.7041 44.6918 64.7665 44.6933V46.9266L2.23447 46.9501ZM52.0437 34.5555C56.0691 36.3767 59.6344 39.0782 62.4775 42.4601H31.8814C35.3379 40.7277 38.4278 38.3452 40.9821 35.4434C40.9923 35.4331 41 35.4219 41.0097 35.4117C42.1256 34.1721 43.1474 32.8518 44.0685 31.4614C46.4929 32.3186 49.2732 33.366 52.0437 34.5529V34.5555ZM5.84532 34.6434H8.77786L23.0541 38.723C24.0473 39.0067 25.1013 38.9995 26.0904 38.7025L35.7396 35.8073C35.8439 35.7766 35.9523 35.7608 36.0611 35.7603H37.495C34.0063 39.0608 28.8394 42.4601 22.3339 42.4601H18.3294L14.19 38.3207C14.0674 38.1985 13.9181 38.1065 13.7535 38.0518L4.9375 35.1126C5.14554 34.8172 5.48444 34.6424 5.84532 34.6434ZM3.64784 37.0356L12.7976 40.0862L15.172 42.4601H3.12748L2.22425 38.4403L3.64784 37.0356ZM40.9039 52.76C40.8727 52.7411 40.84 52.7237 40.8068 52.7089C40.7459 52.668 40.6815 52.6342 40.6136 52.6072C40.4827 52.5519 40.3421 52.5243 40.2005 52.5269C40.0589 52.5243 39.9189 52.5514 39.7885 52.6061C39.718 52.6337 39.651 52.669 39.5887 52.7109C39.556 52.7257 39.5243 52.7426 39.4936 52.761C35.8163 55.7559 29.0173 54.6763 27.331 53.7665C27.2973 53.7486 27.2605 53.7486 27.2272 53.7338C27.0933 53.6765 26.9497 53.6469 26.804 53.6469C26.7314 53.6463 26.6593 53.653 26.5883 53.6668C26.5147 53.6816 26.4431 53.7036 26.3741 53.7327C26.3394 53.7486 26.3015 53.747 26.2622 53.7665C24.3586 54.797 17.7401 55.7237 14.0975 52.761C14.0597 52.738 14.0203 52.7176 13.9805 52.6987C13.9186 52.6578 13.8527 52.6235 13.7837 52.5959C13.7182 52.5719 13.6508 52.5545 13.5818 52.5438C13.5117 52.5305 13.4407 52.5243 13.3696 52.5243C13.2291 52.532 13.0905 52.5622 12.9597 52.6138C12.8917 52.6445 12.8268 52.6818 12.7665 52.7257C12.7281 52.7457 12.6908 52.7682 12.655 52.7927C11.4144 53.8171 9.89833 54.4499 8.29788 54.6114L4.40385 49.1599H63.0193C62.0343 51.2894 60.6102 53.1858 58.8406 54.7254C57.2335 54.7545 55.6397 54.4325 54.1696 53.7828C54.1297 53.766 54.0888 53.7511 54.0469 53.7384C53.8465 53.6504 53.6247 53.6208 53.4079 53.6535C53.3313 53.6688 53.2566 53.6918 53.1846 53.7225C53.1437 53.7322 53.1033 53.7445 53.0644 53.7593C51.165 54.7924 44.5464 55.7191 40.9039 52.76Z" fill="#3F2355"/>
<path d="M6.09128 9.95888C5.89868 9.44127 5.32293 9.1778 4.80532 9.3704C4.28771 9.563 4.02423 10.1387 4.21683 10.6564L6.09128 9.95888ZM2.28418 15.9888L1.68023 15.1918C1.38729 15.4138 1.23973 15.7786 1.29595 16.1418C1.35217 16.505 1.60311 16.8081 1.94946 16.9312L2.28418 15.9888ZM6.18482 13.0331L7.11921 12.6769L6.18482 13.0331ZM4.21683 10.6564C4.54829 11.5471 4.89685 12.462 5.25044 13.3894L7.11921 12.6769C6.76524 11.7485 6.41949 10.841 6.09128 9.95888L4.21683 10.6564ZM2.88813 16.7859L6.78877 13.8301L5.58088 12.2361L1.68023 15.1918L2.88813 16.7859ZM5.25044 13.3894C5.94896 15.2214 6.51173 16.6955 7.11252 18.3752L8.99568 17.7016C8.38672 15.9991 7.81647 14.5056 7.11921 12.6769L5.25044 13.3894ZM7.11252 18.3752C8.05049 20.9975 8.85889 24.1653 9.36787 26.9306C9.62218 28.3123 9.79883 29.5779 9.88093 30.6128C9.96597 31.6849 9.93907 32.3983 9.85314 32.742L11.7934 33.2271C11.9652 32.54 11.9608 31.5402 11.8747 30.4546C11.7856 29.3319 11.5974 27.9953 11.3348 26.5686C10.81 23.717 9.97608 20.4425 8.99568 17.7016L7.11252 18.3752ZM1.94946 16.9312L7.71938 18.9807L8.38882 17.0961L2.6189 15.0465L1.94946 16.9312Z" fill="#FB7333"/>
</g>
<defs>
<clipPath id="clip0">
<rect width="67" height="67" fill="white"/>
</clipPath>
</defs>
</svg>
