<svg width="10" height="16" viewBox="0 0 10 16" fill="none" xmlns="http://www.w3.org/2000/svg">
<path d="M1.63402 15.8392C1.42564 15.8404 1.21908 15.8006 1.02617 15.722C0.833257 15.6435 0.657798 15.5277 0.509851 15.3814C0.361448 15.2346 0.243657 15.06 0.163274 14.8676C0.0828898 14.6752 0.0415039 14.4689 0.0415039 14.2604C0.0415039 14.052 0.0828898 13.8457 0.163274 13.6533C0.243657 13.4609 0.361448 13.2863 0.509851 13.1395L5.75069 7.94538L0.715685 2.71967C0.420787 2.42387 0.255263 2.02372 0.255263 1.60664C0.255263 1.18955 0.420787 0.789409 0.715685 0.493608C0.862876 0.345632 1.03799 0.228181 1.23094 0.148029C1.42388 0.0678771 1.63083 0.0266113 1.83985 0.0266113C2.04887 0.0266113 2.25582 0.0678771 2.44876 0.148029C2.64171 0.228181 2.81683 0.345632 2.96402 0.493608L9.07568 6.80867C9.36579 7.10379 9.52829 7.50056 9.52829 7.91381C9.52829 8.32705 9.36579 8.72383 9.07568 9.01894L2.74235 15.334C2.60023 15.487 2.42912 15.6105 2.23888 15.6972C2.04865 15.7839 1.84307 15.8322 1.63402 15.8392Z" fill="#F5F7FA"/>
</svg>
