<svg width="10" height="16" viewBox="0 0 10 16" fill="none" xmlns="http://www.w3.org/2000/svg">
<path d="M8.36745 0.0503129C8.57583 0.0491112 8.78239 0.0889348 8.9753 0.167502C9.16821 0.246069 9.34367 0.361834 9.49162 0.508157C9.64002 0.654923 9.75781 0.829535 9.83819 1.02192C9.91858 1.21431 9.95996 1.42066 9.95996 1.62908C9.95996 1.83749 9.91858 2.04385 9.83819 2.23624C9.75781 2.42862 9.64002 2.60324 9.49161 2.75L4.25078 7.94414L9.28578 13.1699C9.58068 13.4657 9.7462 13.8658 9.7462 14.2829C9.7462 14.7 9.58068 15.1001 9.28578 15.3959C9.13859 15.5439 8.96347 15.6613 8.77053 15.7415C8.57758 15.8216 8.37063 15.8629 8.16161 15.8629C7.95259 15.8629 7.74564 15.8216 7.5527 15.7415C7.35976 15.6613 7.18464 15.5439 7.03745 15.3959L0.925783 9.08085C0.635674 8.78574 0.473176 8.38897 0.473176 7.97572C0.473176 7.56247 0.635674 7.1657 0.925783 6.87058L7.25912 0.555517C7.40123 0.402484 7.57235 0.279046 7.76258 0.192333C7.95282 0.105619 8.1584 0.05735 8.36745 0.0503129Z" fill="#F5F7FA"/>
</svg>
