<svg width="28" height="26" viewBox="0 0 28 26" fill="none" xmlns="http://www.w3.org/2000/svg">
<path d="M13.2962 17.4375L11.9062 23.4389H15.3915L14.0015 17.4375H13.2962Z" fill="#D8E2F1"/>
<path d="M17.1408 17.4375H13.5859L14.976 23.4389H18.5308L17.1408 17.4375Z" fill="#B9CBEA"/>
<path d="M24.957 3.45689C24.957 2.49264 24.1753 1.71094 23.211 1.71094H4.17955C3.2153 1.71094 2.43359 2.49264 2.43359 3.45689V16.364L3.58909 17.0447H24.957V3.45689Z" fill="#CBE2FF"/>
<path d="M24.4295 3.45689V17.0447H26.1536L27.9993 16.364V3.45689C27.9993 2.49264 27.2176 1.71094 26.2534 1.71094H22.6836C23.6479 1.71094 24.4295 2.49264 24.4295 3.45689Z" fill="#BED8FB"/>
<path d="M24.957 17.5096V16.3633H2.43359V17.5096C2.43359 18.4738 3.2153 19.2555 4.17955 19.2555H23.211C24.1753 19.2555 24.957 18.4739 24.957 17.5096Z" fill="#F4FBFF"/>
<path d="M27.9993 17.5096V16.3633H24.4295V17.5096C24.4295 18.4738 23.6478 19.2555 22.6836 19.2555H26.2534C27.2176 19.2555 27.9993 18.4739 27.9993 17.5096Z" fill="#E4F6FF"/>
<path d="M16.5206 22.6152H11.0665C9.76127 22.6152 8.70312 23.6733 8.70312 24.9786C8.70312 25.2745 8.94298 25.5143 9.2389 25.5143H18.4678L18.8839 24.9786C18.8839 23.6733 17.8258 22.6152 16.5206 22.6152Z" fill="#F4FBFF"/>
<path d="M19.3657 22.6152H16.1055C17.4107 22.6152 18.4688 23.6733 18.4688 24.9786V25.5143H21.1932C21.4891 25.5143 21.729 25.2745 21.729 24.9786C21.729 23.6733 20.6709 22.6152 19.3657 22.6152Z" fill="#E4F6FF"/>
<path d="M25.3336 6.2897H16.4974C16.2637 6.2897 16.0742 6.10021 16.0742 5.86653C16.0742 5.63285 16.2637 5.44336 16.4974 5.44336H25.3336C25.5673 5.44336 25.7567 5.63285 25.7567 5.86653C25.7567 6.10021 25.5674 6.2897 25.3336 6.2897Z" fill="#F4FBFF"/>
<path d="M25.3336 8.98306H16.4974C16.2637 8.98306 16.0742 8.79357 16.0742 8.55989C16.0742 8.32621 16.2637 8.13672 16.4974 8.13672H25.3336C25.5673 8.13672 25.7567 8.32621 25.7567 8.55989C25.7567 8.79357 25.5674 8.98306 25.3336 8.98306Z" fill="#F4FBFF"/>
<path d="M20.4135 11.6803H16.4974C16.2637 11.6803 16.0742 11.4908 16.0742 11.2572C16.0742 11.0234 16.2637 10.834 16.4974 10.834H20.4135C20.6472 10.834 20.8367 11.0235 20.8367 11.2572C20.8367 11.4908 20.6472 11.6803 20.4135 11.6803Z" fill="#F4FBFF"/>
<path d="M10.7617 12.4258L11.934 11.2535L14.3895 13.709L13.2172 14.8813L10.7617 12.4258Z" fill="#4A80AA"/>
<path d="M18.37 16.9485L14.8594 13.438C14.6583 13.2368 14.3321 13.2368 14.1309 13.438L12.9477 14.6212C12.7466 14.8223 12.7466 15.1485 12.9477 15.3497L16.4583 18.8602C16.9862 19.3881 17.842 19.3881 18.3699 18.8602C18.8979 18.3323 18.8979 17.4764 18.37 16.9485Z" fill="#CC9675"/>
<path d="M7.10527 14.7008C11.0294 14.7008 14.2105 11.5196 14.2105 7.59551C14.2105 3.67137 11.0294 0.490234 7.10527 0.490234C3.18114 0.490234 0 3.67137 0 7.59551C0 11.5196 3.18114 14.7008 7.10527 14.7008Z" fill="#B9CBEA"/>
<path d="M7.10456 13.1603C10.1783 13.1603 12.67 10.6685 12.67 7.59479C12.67 4.52105 10.1783 2.0293 7.10456 2.0293C4.03082 2.0293 1.53906 4.52105 1.53906 7.59479C1.53906 10.6685 4.03082 13.1603 7.10456 13.1603Z" fill="#F4FBFF"/>
<path d="M8.29465 10.1898C8.15465 10.1722 8.04937 10.0536 8.04877 9.91253L8.04336 8.62891L6.08209 8.63716L6.08751 9.92079C6.08811 10.0619 5.98382 10.1814 5.84398 10.2001C5.84398 10.2001 5.48184 11.4379 7.07451 11.4311C8.66723 11.4244 8.29465 10.1898 8.29465 10.1898Z" fill="#FFCBBE"/>
<path d="M10.0116 10.5629C9.56222 10.3651 8.71391 10.2399 8.29626 10.1875L8.29374 10.1906C7.66724 10.9743 6.4767 10.9778 5.8456 10.1978C5.42845 10.2538 4.58117 10.3861 4.1335 10.5877C3.66822 10.7973 3.40036 11.2553 3.39062 11.7359C5.48991 13.6204 8.67661 13.63 10.7869 11.7646C10.7953 11.2326 10.4998 10.7778 10.0116 10.5629Z" fill="#407093"/>
<path d="M8.59327 4.62283C8.59327 4.31335 8.34241 4.0625 8.03294 4.0625H6.16902C5.41986 4.0625 4.8125 4.66986 4.8125 5.41902V6.4286L5.27581 6.7838H8.89837L9.36168 6.00357V5.37237C9.36168 5.0629 9.11083 4.81204 8.80135 4.81204H8.78248C8.67798 4.81204 8.59327 4.72733 8.59327 4.62283Z" fill="#4A80AA"/>
<path d="M9.36168 6.00311L8.47279 5.91977C8.09561 5.88439 7.71712 5.97221 7.39402 6.17013C7.11856 6.33884 6.80187 6.42814 6.47888 6.42814H4.8125V7.23309C4.8125 7.396 4.94457 7.52807 5.10748 7.52807C5.15812 7.52807 5.20067 7.56712 5.20384 7.61765C5.26509 8.60475 6.08459 9.38651 7.08712 9.38651C8.09058 9.38651 8.91062 8.60333 8.9682 7.61497C8.97105 7.56597 9.01223 7.52802 9.06134 7.52802H9.06615C9.2318 7.52802 9.36584 7.3937 9.36469 7.22838C9.36168 6.78421 9.36168 6.00311 9.36168 6.00311Z" fill="#FFDDCE"/>
</svg>
