<svg width="20" height="14" viewBox="0 0 20 14" fill="none" xmlns="http://www.w3.org/2000/svg">
<path d="M5.09321 5.02935L5.27432 4.96447L6.80836 2.08832C7.09648 1.54781 7.5261 1.09578 8.05128 0.780583C8.57646 0.465382 9.17743 0.298861 9.78994 0.298828H13.6541C14.3632 0.299083 15.0543 0.522424 15.6294 0.937222C16.2045 1.35202 16.6346 1.93725 16.8587 2.61002L17.5899 4.80363C18.2025 5.06184 18.7253 5.49501 19.0929 6.04892C19.4605 6.60284 19.6565 7.25288 19.6564 7.91766V9.42197C19.6564 10.3816 19.0861 11.206 18.2643 11.5777C18.1581 12.1865 17.8465 12.7404 17.3815 13.1473C16.9164 13.5542 16.326 13.7895 15.7086 13.814C15.0911 13.8385 14.484 13.6507 13.9881 13.2819C13.4923 12.9131 13.1378 12.3856 12.9837 11.7872H7.40711C7.25298 12.3856 6.89848 12.9131 6.40268 13.2819C5.90687 13.6507 5.29968 13.8385 4.68224 13.814C4.06481 13.7895 3.4744 13.5542 3.00936 13.1473C2.54433 12.7404 2.23274 12.1865 2.1265 11.5777C1.71162 11.3905 1.3596 11.0874 1.11266 10.7051C0.865731 10.3227 0.734381 9.87716 0.734375 9.42197V8.96378C0.734375 7.53517 1.63452 6.26063 2.9807 5.78082L5.02158 5.05503V5.02935H5.09321ZM15.5774 3.03712C15.4429 2.63337 15.1848 2.28217 14.8396 2.03328C14.4944 1.7844 14.0797 1.65044 13.6541 1.6504H12.2228V5.02935H16.241L15.576 3.03712H15.5774ZM6.77187 5.02935H10.8712V1.6504H9.78994C9.4224 1.65027 9.06174 1.75006 8.74653 1.93909C8.43133 2.12811 8.17344 2.39927 8.00045 2.72356L6.77052 5.02935H6.77187ZM16.9533 11.1114C16.9533 10.753 16.8109 10.4092 16.5574 10.1557C16.304 9.90226 15.9602 9.75986 15.6017 9.75986C15.2433 9.75986 14.8995 9.90226 14.646 10.1557C14.3925 10.4092 14.2501 10.753 14.2501 11.1114C14.2501 11.4699 14.3925 11.8137 14.646 12.0671C14.8995 12.3206 15.2433 12.463 15.6017 12.463C15.9602 12.463 16.304 12.3206 16.5574 12.0671C16.8109 11.8137 16.9533 11.4699 16.9533 11.1114ZM4.7891 9.75986C4.43064 9.75986 4.08687 9.90226 3.8334 10.1557C3.57993 10.4092 3.43753 10.753 3.43753 11.1114C3.43753 11.4699 3.57993 11.8137 3.8334 12.0671C4.08687 12.3206 4.43064 12.463 4.7891 12.463C5.14756 12.463 5.49134 12.3206 5.74481 12.0671C5.99828 11.8137 6.14068 11.4699 6.14068 11.1114C6.14068 10.753 5.99828 10.4092 5.74481 10.1557C5.49134 9.90226 5.14756 9.75986 4.7891 9.75986Z" fill="#FB5100"/>
</svg>
