<svg width="22" height="22" viewBox="0 0 22 22" fill="none" xmlns="http://www.w3.org/2000/svg">
<path d="M0 11C0 4.92488 4.92488 0 11 0C17.0751 0 22 4.92488 22 11C22 17.0751 17.0751 22 11 22C4.92488 22 0 17.0751 0 11Z" fill="#F5F7FA"/>
<path d="M10.9994 8.07552C11.8945 8.07552 12.4983 8.46217 12.8425 8.78525L14.1878 7.47176C13.3616 6.70377 12.2864 6.23242 10.9994 6.23242C9.13513 6.23242 7.52505 7.30226 6.74121 8.85936L8.28245 10.0563C8.66905 8.90702 9.73889 8.07552 10.9994 8.07552Z" fill="#EA4335"/>
<path d="M15.576 11.1054C15.576 10.7134 15.5442 10.4274 15.4753 10.1309H11V11.8998H13.627C13.574 12.3394 13.288 13.0014 12.6524 13.4463L14.1566 14.6115C15.057 13.78 15.576 12.5565 15.576 11.1054Z" fill="#4285F4"/>
<path d="M8.28838 11.9419C8.18773 11.6453 8.12948 11.3275 8.12948 10.9991C8.12948 10.6707 8.18773 10.3529 8.28306 10.0564L6.74183 8.85938C6.41879 9.50553 6.2334 10.2311 6.2334 10.9991C6.2334 11.767 6.41879 12.4927 6.74183 13.1388L8.28838 11.9419Z" fill="#FBBC05"/>
<path d="M11 15.7673C12.287 15.7673 13.3674 15.3436 14.1566 14.6127L12.6524 13.4475C12.2499 13.7282 11.7097 13.9242 11 13.9242C9.73948 13.9242 8.66964 13.0926 8.28831 11.9434L6.74707 13.1403C7.53091 14.6974 9.13572 15.7673 11 15.7673Z" fill="#34A853"/>
</svg>
