<svg width="25" height="25" viewBox="0 0 25 25" fill="none" xmlns="http://www.w3.org/2000/svg">
<rect x="0.5" y="0.5" width="24" height="24" rx="12" fill="white" stroke="#3F2355"/>
<path fill-rule="evenodd" clip-rule="evenodd" d="M17.3438 10.3438C17.8854 10.3438 18.3542 10.5365 18.75 10.9219C19.1458 11.3073 19.3438 11.7812 19.3438 12.3438V16.3438H16.6562V19H8.65625V16.3438H6V12.3438C6 11.7812 6.19271 11.3073 6.57812 10.9219C6.96354 10.5365 7.4375 10.3438 8 10.3438H17.3438ZM15.3438 17.6562V14.3438H10V17.6562H15.3438ZM17.3281 13C17.5052 13 17.6615 12.9323 17.7969 12.7969C17.9323 12.6615 18 12.5052 18 12.3281C18 12.151 17.9323 11.9948 17.7969 11.8594C17.6615 11.724 17.5052 11.6562 17.3281 11.6562C17.151 11.6562 16.9948 11.724 16.8594 11.8594C16.724 11.9948 16.6562 12.151 16.6562 12.3281C16.6562 12.5052 16.724 12.6615 16.8594 12.7969C16.9948 12.9323 17.151 13 17.3281 13ZM16.6562 7V9.65625H8.65625V7H16.6562Z" fill="#3F2355"/>
<mask id="mask0" mask-type="alpha" maskUnits="userSpaceOnUse" x="6" y="7" width="14" height="12">
<path fill-rule="evenodd" clip-rule="evenodd" d="M17.3438 10.3438C17.8854 10.3438 18.3542 10.5365 18.75 10.9219C19.1458 11.3073 19.3438 11.7812 19.3438 12.3438V16.3438H16.6562V19H8.65625V16.3438H6V12.3438C6 11.7812 6.19271 11.3073 6.57812 10.9219C6.96354 10.5365 7.4375 10.3438 8 10.3438H17.3438ZM15.3438 17.6562V14.3438H10V17.6562H15.3438ZM17.3281 13C17.5052 13 17.6615 12.9323 17.7969 12.7969C17.9323 12.6615 18 12.5052 18 12.3281C18 12.151 17.9323 11.9948 17.7969 11.8594C17.6615 11.724 17.5052 11.6562 17.3281 11.6562C17.151 11.6562 16.9948 11.724 16.8594 11.8594C16.724 11.9948 16.6562 12.151 16.6562 12.3281C16.6562 12.5052 16.724 12.6615 16.8594 12.7969C16.9948 12.9323 17.151 13 17.3281 13ZM16.6562 7V9.65625H8.65625V7H16.6562Z" fill="white"/>
</mask>
<g mask="url(#mask0)">
<rect x="-23" y="-23" width="72" height="72" fill="#3F2355"/>
</g>
</svg>
