<?xml version="1.0" encoding="utf-8"?>
<!-- Generator: Adobe Illustrator 24.2.0, SVG Export Plug-In . SVG Version: 6.00 Build 0)  -->
<svg version="1.1" id="Layer_1" xmlns="http://www.w3.org/2000/svg" xmlns:xlink="http://www.w3.org/1999/xlink" x="0px" y="0px"
	 viewBox="0 0 19.2 44.5" style="enable-background:new 0 0 19.2 44.5;" xml:space="preserve">
<style type="text/css">
	.st0{fill-rule:evenodd;clip-rule:evenodd;fill:#828385;}
	.st1{fill:#828385;}
	.st2{fill-rule:evenodd;clip-rule:evenodd;fill:#FFFFFF;}
	.st3{fill:#FFFFFF;}
</style>
<path class="st0" d="M11.8,0c-0.1,0-0.1,0-0.2,0s-0.1,0-0.2,0H5.3C2.5,0,0.2,2.2,0.2,5v11.9c0,2.9,2.2,5.2,5.1,5.2h8.8
	c2.7,0,5-2.4,5-5.2V6.7c0-0.2-0.1-0.4-0.2-0.6l-5.6-5.8C13.1,0.1,12.9,0,12.7,0H11.8z M10.7,1.7l-5.4,0C3.4,1.7,1.9,3.2,1.9,5v11.9
	c0,2,1.5,3.5,3.4,3.5h8.8c1.8,0,3.3-1.6,3.3-3.5l0-9.8l0,0l-0.9,0c-0.4,0-0.9,0-1.5,0c-2.3,0-4.2-1.4-4.4-3.1l0-0.2V1.7z M16,5.5
	l-0.9,0c-1.3,0-2.4-0.8-2.4-1.8V2.1L16,5.5z"/>
<path class="st0" d="M6.2,10c0-1.7,1.3-3,3-3c1.7,0,3,1.3,3,3c0,0.9-0.4,1.6-0.9,2.2c0,0,0,0,0,0c-0.5,0.5-1.2,0.8-2,0.8
	c-0.8,0-1.5-0.3-2-0.8c0,0,0,0,0,0C6.5,11.6,6.2,10.9,6.2,10z M7.8,11.9c0.4,0.3,0.9,0.5,1.4,0.5c0.5,0,1-0.2,1.4-0.5
	C10.3,11.4,9.8,11,9.2,11C8.6,11,8,11.4,7.8,11.9z M8.7,9.9V9.7c0-0.3,0.2-0.5,0.5-0.5s0.5,0.2,0.5,0.5v0.2c0,0.3-0.2,0.5-0.5,0.5
	S8.7,10.2,8.7,9.9z M10.1,10.6c0.4,0.2,0.7,0.4,1,0.8c0.3-0.4,0.5-0.9,0.5-1.4c0-1.3-1.1-2.3-2.3-2.3c-1.3,0-2.3,1.1-2.3,2.3
	c0,0.5,0.2,1,0.5,1.4c0.2-0.4,0.6-0.6,1-0.8C8.1,10.4,8,10.1,8,9.9V9.7C8,9,8.5,8.5,9.2,8.5c0.6,0,1.2,0.5,1.2,1.2v0.2
	C10.4,10.1,10.3,10.4,10.1,10.6z"/>
<path class="st1" d="M12.3,14.5H6.1c-0.2,0-0.4,0.2-0.4,0.4c0,0.2,0.2,0.4,0.4,0.4h6.2c0.2,0,0.4-0.2,0.4-0.4
	C12.7,14.6,12.5,14.5,12.3,14.5z"/>
<path class="st1" d="M12.3,15.9H6.1c-0.2,0-0.4,0.2-0.4,0.4c0,0.2,0.2,0.4,0.4,0.4h6.2c0.2,0,0.4-0.2,0.4-0.4
	C12.7,16,12.5,15.9,12.3,15.9z"/>
<path class="st2" d="M11.8,22.3c-0.1,0-0.1,0-0.2,0s-0.1,0-0.2,0H5.3c-2.8,0-5.1,2.2-5.1,5v11.9c0,2.9,2.2,5.2,5.1,5.2h8.8
	c2.7,0,5-2.4,5-5.2V29c0-0.2-0.1-0.4-0.2-0.6l-5.6-5.8c-0.2-0.2-0.4-0.3-0.6-0.3H11.8z M10.7,24l-5.4,0c-1.9,0-3.4,1.5-3.4,3.3v11.9
	c0,2,1.5,3.5,3.4,3.5h8.8c1.8,0,3.3-1.6,3.3-3.5l0-9.8l0,0l-0.9,0c-0.4,0-0.9,0-1.5,0c-2.3,0-4.2-1.4-4.4-3.1l0-0.2V24z M15.9,27.8
	l-0.9,0c-1.3,0-2.4-0.8-2.4-1.8v-1.6L15.9,27.8z"/>
<path class="st2" d="M6.2,32.3c0-1.7,1.3-3,3-3c1.7,0,3,1.3,3,3c0,0.9-0.4,1.6-0.9,2.2c0,0,0,0,0,0c-0.5,0.5-1.2,0.8-2,0.8
	c-0.8,0-1.5-0.3-2-0.8c0,0,0,0,0,0C6.5,34,6.2,33.2,6.2,32.3z M7.7,34.2c0.4,0.3,0.9,0.5,1.4,0.5c0.5,0,1-0.2,1.4-0.5
	c-0.3-0.5-0.8-0.8-1.4-0.8C8.6,33.4,8,33.7,7.7,34.2z M8.6,32.2V32c0-0.3,0.2-0.5,0.5-0.5s0.5,0.2,0.5,0.5v0.2
	c0,0.3-0.2,0.5-0.5,0.5S8.6,32.5,8.6,32.2z M10.1,32.9c0.4,0.2,0.7,0.4,1,0.8c0.3-0.4,0.5-0.9,0.5-1.4c0-1.3-1.1-2.3-2.3-2.3
	c-1.3,0-2.3,1.1-2.3,2.3c0,0.5,0.2,1,0.5,1.4c0.2-0.4,0.6-0.6,1-0.8C8.1,32.7,8,32.5,8,32.2V32c0-0.6,0.5-1.2,1.2-1.2
	c0.6,0,1.2,0.5,1.2,1.2v0.2C10.3,32.5,10.2,32.7,10.1,32.9z"/>
<path class="st3" d="M12.3,36.8H6.1c-0.2,0-0.4,0.2-0.4,0.4s0.2,0.4,0.4,0.4h6.2c0.2,0,0.4-0.2,0.4-0.4S12.5,36.8,12.3,36.8z"/>
<path class="st3" d="M12.3,38.2H6.1c-0.2,0-0.4,0.2-0.4,0.4c0,0.2,0.2,0.4,0.4,0.4h6.2c0.2,0,0.4-0.2,0.4-0.4
	C12.7,38.4,12.5,38.2,12.3,38.2z"/>
</svg>
