<svg width="16" height="16" viewBox="0 0 16 16" fill="none" xmlns="http://www.w3.org/2000/svg">
<path d="M12.667 13.333H3.33366C3.15685 13.333 2.98728 13.4032 2.86225 13.5283C2.73723 13.6533 2.66699 13.8229 2.66699 13.9997C2.66699 14.1765 2.73723 14.3461 2.86225 14.4711C2.98728 14.5961 3.15685 14.6663 3.33366 14.6663H12.667C12.8438 14.6663 13.0134 14.5961 13.1384 14.4711C13.2634 14.3461 13.3337 14.1765 13.3337 13.9997C13.3337 13.8229 13.2634 13.6533 13.1384 13.5283C13.0134 13.4032 12.8438 13.333 12.667 13.333Z" fill="#FB5100"/>
<path d="M3.33353 12.0002H3.39353L6.17353 11.7469C6.47806 11.7166 6.76289 11.5824 6.9802 11.3669L12.9802 5.3669C13.2131 5.12088 13.3389 4.79257 13.3302 4.45392C13.3214 4.11527 13.1788 3.7939 12.9335 3.56023L11.1069 1.73356C10.8685 1.50963 10.5561 1.38114 10.2291 1.37253C9.90211 1.36393 9.58339 1.47581 9.33353 1.6869L3.33353 7.6869C3.11804 7.90421 2.98387 8.18903 2.95353 8.49356L2.66686 11.2736C2.65788 11.3712 2.67055 11.4696 2.70397 11.5618C2.73739 11.654 2.79073 11.7377 2.8602 11.8069C2.92249 11.8687 2.99637 11.9176 3.07759 11.9507C3.15882 11.9839 3.24579 12.0007 3.33353 12.0002ZM10.1802 2.6669L12.0002 4.4869L10.6669 5.7869L8.8802 4.00023L10.1802 2.6669ZM4.24686 8.6069L8.0002 4.88023L9.8002 6.68023L6.06687 10.4136L4.06686 10.6002L4.24686 8.6069Z" fill="#FB5100"/>
</svg>
