<?xml version="1.0" encoding="utf-8"?>
<!-- Generator: Adobe Illustrator 24.2.0, SVG Export Plug-In . SVG Version: 6.00 Build 0)  -->
<svg version="1.1" id="Layer_1" xmlns="http://www.w3.org/2000/svg" xmlns:xlink="http://www.w3.org/1999/xlink" x="0px" y="0px"
	 viewBox="0 0 19.8 40" style="enable-background:new 0 0 19.8 40;" xml:space="preserve">
<style type="text/css">
	.st0{fill:none;stroke:#AAABAD;stroke-width:1.5;stroke-linecap:round;stroke-linejoin:round;}
	.st1{fill:none;stroke:#FFFFFF;stroke-width:1.5;stroke-linecap:round;stroke-linejoin:round;}
</style>
<g>
	<path class="st0" d="M0.9,2.9v14c0,1.1,0.9,2,2,2h14c1.1,0,2-0.9,2-2v-14c0-1.1-0.9-2-2-2h-14C1.8,0.9,0.9,1.8,0.9,2.9z"/>
	<path class="st0" d="M4.9,11.9v3h9v-3H4.9z"/>
	<path class="st0" d="M4.9,4.9v3h5v-3H4.9z"/>
</g>
<g>
	<path class="st1" d="M0.9,23v14c0,1.1,0.9,2,2,2h14c1.1,0,2-0.9,2-2V23c0-1.1-0.9-2-2-2h-14C1.8,21,0.9,21.8,0.9,23z"/>
	<path class="st1" d="M4.9,32v3h9v-3H4.9z"/>
	<path class="st1" d="M4.9,25v3h5v-3H4.9z"/>
</g>
</svg>
