<?xml version="1.0" encoding="utf-8"?>
<!-- Generator: Adobe Illustrator 24.2.0, SVG Export Plug-In . SVG Version: 6.00 Build 0)  -->
<svg version="1.1" id="Layer_1" xmlns="http://www.w3.org/2000/svg" xmlns:xlink="http://www.w3.org/1999/xlink" x="0px" y="0px"
	 viewBox="0 0 18.3 41" style="enable-background:new 0 0 18.3 41;" xml:space="preserve">
<style type="text/css">
	.st0{fill-rule:evenodd;clip-rule:evenodd;fill:#AAABAD;}
	.st1{fill-rule:evenodd;clip-rule:evenodd;fill:#FFFFFF;}
</style>
<path class="st0" d="M5.3,20.5c-0.4,0-0.8,0-1.2-0.1l-0.2,0c-2.4-0.5-3.7-2.3-3.7-5.1V5.7c0-0.3,0-0.7,0.1-1
	c0.3-2.7,2.2-4.2,5.1-4.2H13c3.2,0,5.1,1.9,5.1,5.1v0.1v9.6c0,3.3-1.9,5.2-5.1,5.2H5.3z M5.3,1.9c-2.5,0-3.7,1.3-3.7,3.8v9.6
	c0,2.5,1.2,3.8,3.7,3.8H13c2.5,0,3.7-1.3,3.7-3.8V5.7c0-2.5-1.2-3.8-3.7-3.8H5.3z M13.4,14.7c0-0.4-0.3-0.7-0.7-0.7H5.5
	c-0.4,0-0.7,0.3-0.7,0.7c0,0.4,0.3,0.7,0.7,0.7h7.2C13.1,15.4,13.4,15.1,13.4,14.7z M12.7,9.8c0.3,0,0.5,0.1,0.7,0.3
	c0.1,0.2,0.1,0.5,0,0.8c-0.1,0.2-0.4,0.4-0.7,0.3H5.5c-0.4,0-0.6-0.4-0.6-0.7s0.3-0.7,0.6-0.7H12.7z M8.9,6.3c0-0.4-0.3-0.7-0.6-0.7
	H5.5c-0.4,0-0.6,0.4-0.6,0.7c0,0.4,0.3,0.7,0.6,0.7h2.7C8.6,6.9,8.9,6.6,8.9,6.3z"/>
<path class="st1" d="M5.3,40.9c-0.4,0-0.8,0-1.2-0.1l-0.2,0c-2.4-0.5-3.7-2.3-3.7-5.1v-9.6c0-0.3,0-0.7,0.1-1
	c0.3-2.7,2.2-4.2,5.1-4.2h7.7c3.2,0,5.1,1.9,5.1,5.1v0.1v9.6c0,3.3-1.9,5.2-5.1,5.2H5.3z M5.3,22.4c-2.5,0-3.7,1.3-3.7,3.8v9.6
	c0,2.5,1.2,3.8,3.7,3.8H13c2.5,0,3.7-1.3,3.7-3.8v-9.6c0-2.5-1.2-3.8-3.7-3.8H5.3z M13.5,35.2c0-0.4-0.3-0.7-0.7-0.7H5.6
	c-0.4,0-0.7,0.3-0.7,0.7s0.3,0.7,0.7,0.7h7.2C13.2,35.9,13.5,35.6,13.5,35.2z M12.8,30.2c0.3,0,0.5,0.1,0.7,0.3
	c0.1,0.2,0.1,0.5,0,0.8c-0.1,0.2-0.4,0.4-0.7,0.3H5.6c-0.4,0-0.6-0.4-0.6-0.7c0-0.4,0.3-0.7,0.6-0.7H12.8z M9,26.7
	C9,26.3,8.7,26,8.3,26H5.6c-0.4,0-0.6,0.4-0.6,0.7c0,0.4,0.3,0.7,0.6,0.7h2.7C8.7,27.4,9,27.1,9,26.7z"/>
</svg>
