<?xml version="1.0" encoding="utf-8"?>
<!-- Generator: Adobe Illustrator 24.2.0, SVG Export Plug-In . SVG Version: 6.00 Build 0)  -->
<svg version="1.1" id="Layer_1" xmlns="http://www.w3.org/2000/svg" xmlns:xlink="http://www.w3.org/1999/xlink" x="0px" y="0px"
	 viewBox="0 0 24 37.2" style="enable-background:new 0 0 24 37.2;" xml:space="preserve">
<style type="text/css">
	.st0{fill-rule:evenodd;clip-rule:evenodd;fill:#828385;}
	.st1{fill-rule:evenodd;clip-rule:evenodd;fill:#FFFFFF;}
</style>
<path class="st0" d="M3,11.4c0,1.8,0.5,3.5,1.5,5c0.3,0,15,0,15,0c1-1.5,1.5-3.2,1.5-5c0-1-0.2-2-0.5-2.9l-1.4,0.8
	c-0.5,0.3-1.1,0.1-1.4-0.4c-0.3-0.5-0.1-1.1,0.4-1.4l1.5-0.9c-1.4-2.3-3.8-3.9-6.7-4.2v1.9c0,0.6-0.4,1-1,1c-0.6,0-1-0.4-1-1V2.4
	C8.2,2.8,5.8,4.4,4.3,6.7l1.5,0.9c0.5,0.3,0.6,0.9,0.4,1.4C6,9.4,5.3,9.5,4.9,9.3L3.5,8.5C3.2,9.4,3,10.4,3,11.4z M20.8,18
	c-0.2,0.3-0.5,0.4-0.8,0.4H4c-0.3,0-0.6-0.1-0.8-0.4C1.8,16.1,1,13.8,1,11.4c0-6.1,4.9-11,11-11c6.1,0,11,4.9,11,11
	C23,13.8,22.2,16.1,20.8,18z M12.9,12.8c-0.8,0.8-2,0.8-2.8,0c-0.8-0.8-0.8-2,0-2.8c1.4-1.4,4.8-2.5,4.8-2.5
	c0.5-0.2,0.8,0.1,0.6,0.6C15.5,8,14.4,11.4,12.9,12.8z"/>
<path class="st1" d="M3.1,29.7c0,1.8,0.5,3.5,1.5,5c0.3,0,15,0,15,0c1-1.5,1.5-3.2,1.5-5c0-1-0.2-2-0.5-2.9l-1.4,0.8
	c-0.5,0.3-1.1,0.1-1.4-0.4c-0.3-0.5-0.1-1.1,0.4-1.4l1.5-0.9c-1.4-2.3-3.8-3.9-6.7-4.2v1.9c0,0.6-0.4,1-1,1c-0.6,0-1-0.4-1-1v-1.9
	c-2.8,0.3-5.2,1.9-6.7,4.2L6,25.9c0.5,0.3,0.6,0.9,0.4,1.4c-0.3,0.5-0.9,0.6-1.4,0.4l-1.4-0.8C3.3,27.7,3.1,28.7,3.1,29.7z
	 M20.9,36.3c-0.2,0.3-0.5,0.4-0.8,0.4h-16c-0.3,0-0.6-0.1-0.8-0.4c-1.4-1.9-2.2-4.2-2.2-6.6c0-6.1,4.9-11,11-11c6.1,0,11,4.9,11,11
	C23.1,32.2,22.3,34.5,20.9,36.3z M13,31.2c-0.8,0.8-2,0.8-2.8,0c-0.8-0.8-0.8-2,0-2.8c1.4-1.4,4.8-2.5,4.8-2.5
	c0.5-0.2,0.8,0.1,0.6,0.6C15.6,26.4,14.5,29.7,13,31.2z"/>
</svg>
