<?xml version="1.0" encoding="utf-8"?>
<!-- Generator: Adobe Illustrator 24.2.0, SVG Export Plug-In . SVG Version: 6.00 Build 0)  -->
<svg version="1.1" id="Layer_1" xmlns="http://www.w3.org/2000/svg" xmlns:xlink="http://www.w3.org/1999/xlink" x="0px" y="0px"
	 viewBox="0 0 19.4 41.2" style="enable-background:new 0 0 19.4 41.2;" xml:space="preserve">
<style type="text/css">
	.st0{fill-rule:evenodd;clip-rule:evenodd;fill:#828385;}
	.st1{fill-rule:evenodd;clip-rule:evenodd;fill:#FFFFFF;}
</style>
<path class="st0" d="M10.3,0.2H9.1C8.4,0.2,7.7,0.5,7.2,1C6.8,1.4,6.5,2,6.5,2.6l0,0.2c0,0.6-0.5,1.1-1.1,1.1c-0.1,0-0.3,0-0.4-0.1
	L4.8,3.7C3.5,3,1.9,3.4,1.2,4.7l-0.6,1c-0.7,1.2-0.3,2.6,0.8,3.4l0.2,0.1c0.4,0.2,0.6,0.6,0.6,1c0,0.4-0.2,0.7-0.5,0.9l-0.1,0.1
	c-1.2,0.7-1.6,2.1-1,3.3l0.1,0.2l0.6,1.1c0.3,0.6,0.9,1,1.6,1.2c0.6,0.2,1.2,0.1,1.8-0.1l0.2-0.1c0.3-0.2,0.6-0.2,0.9-0.1
	c0.3,0.1,0.5,0.3,0.7,0.5c0.1,0.1,0.1,0.3,0.1,0.4l0,0.1c0,1.4,1.2,2.5,2.6,2.5h1.2c1.4,0,2.5-1,2.6-2.4l0-0.2
	c0-0.3,0.1-0.6,0.3-0.8c0.2-0.2,0.5-0.3,0.8-0.3c0.1,0,0.3,0,0.4,0.1l0.1,0.1c1.1,0.6,2.7,0.3,3.4-0.8l0.1-0.2l0.7-1.1
	c0.4-0.6,0.5-1.3,0.3-2c-0.2-0.6-0.5-1.1-1-1.4l-0.2-0.1c-0.3-0.2-0.5-0.4-0.6-0.7c-0.1-0.3,0-0.6,0.1-0.8c0.1-0.1,0.2-0.3,0.3-0.4
	l0.3-0.2c1-0.7,1.4-2.1,0.9-3.2l-0.1-0.1c0,0,0-0.1,0-0.1l-0.6-1c-0.7-1.2-2.2-1.6-3.4-1l-0.2,0.1c-0.3,0.2-0.6,0.2-0.9,0.1
	c-0.3-0.1-0.5-0.3-0.7-0.5C13,3.2,13,3.1,12.9,2.9l0-0.1c0-0.6-0.2-1.3-0.7-1.8C11.7,0.5,11,0.2,10.3,0.2z M9.1,1.7h1.2
	c0.3,0,0.6,0.1,0.8,0.3c0.2,0.2,0.3,0.5,0.3,0.8l0,0.3c0,0.4,0.2,0.7,0.3,1c0.3,0.6,0.9,1,1.6,1.2c0.7,0.2,1.4,0.1,2-0.3l0.1-0.1
	l0.1,0c0.5-0.2,1.1,0,1.3,0.5l0.6,1l0,0l0.1,0.1c0.2,0.5,0,1.1-0.5,1.4L17,8.1c-0.3,0.2-0.6,0.5-0.8,0.8c-0.3,0.6-0.4,1.3-0.3,1.9
	c0.2,0.6,0.5,1.1,1.1,1.5l0.3,0.2c0.2,0.1,0.4,0.4,0.4,0.6c0.1,0.3,0,0.6-0.1,0.8L16.9,15l-0.1,0.1c-0.3,0.4-0.9,0.6-1.4,0.4
	l-0.3-0.2c-0.4-0.2-0.7-0.2-1-0.2c-0.7,0-1.4,0.3-1.9,0.7c-0.5,0.5-0.8,1.1-0.8,1.8l0,0.1c0,0.6-0.5,1-1.1,1H9.1
	c-0.6,0-1.1-0.4-1.1-1l0-0.4c0-0.4-0.2-0.7-0.3-1c-0.3-0.6-0.9-1-1.6-1.2c-0.7-0.2-1.4-0.1-2,0.3l-0.1,0.1c-0.2,0.1-0.5,0.1-0.8,0
	c-0.3-0.1-0.5-0.3-0.7-0.5L1.8,14l-0.1-0.1c-0.2-0.5,0-1.1,0.5-1.4l0.2-0.1c0.7-0.5,1.2-1.3,1.2-2.1c0-0.9-0.4-1.7-1.2-2.1L2.1,7.9
	C1.7,7.6,1.5,7,1.8,6.5l0.6-1c0.3-0.6,1-0.7,1.6-0.4l0.2,0.1C4.6,5.2,5,5.3,5.3,5.3c1.4,0,2.5-1,2.6-2.4l0-0.3C8,2.4,8.1,2.2,8.3,2
	C8.5,1.8,8.8,1.7,9.1,1.7z M9.7,6.9c-1.8,0-3.3,1.5-3.3,3.3s1.5,3.3,3.3,3.3c1.8,0,3.3-1.5,3.3-3.3S11.5,6.9,9.7,6.9z M9.7,8.4
	c1,0,1.9,0.8,1.9,1.8S10.7,12,9.7,12s-1.9-0.8-1.9-1.8S8.7,8.4,9.7,8.4z"/>
<path class="st1" d="M10.3,21H9.1c-0.7,0-1.4,0.3-1.9,0.8c-0.4,0.4-0.7,1-0.8,1.6l0,0.2c0,0.6-0.5,1.1-1.1,1.1c-0.1,0-0.3,0-0.4-0.1
	l-0.1-0.1c-1.2-0.7-2.8-0.3-3.6,1l-0.6,1c-0.7,1.2-0.3,2.6,0.8,3.4L1.5,30c0.4,0.2,0.6,0.6,0.6,1c0,0.4-0.2,0.7-0.5,0.9L1.5,32
	c-1.2,0.7-1.6,2.1-1,3.3l0.1,0.2l0.6,1.1c0.3,0.6,0.9,1,1.6,1.2c0.6,0.2,1.2,0.1,1.8-0.1l0.2-0.1c0.3-0.2,0.6-0.2,0.9-0.1
	c0.3,0.1,0.5,0.3,0.7,0.5c0.1,0.1,0.1,0.3,0.1,0.4l0,0.1c0,1.4,1.2,2.5,2.6,2.5h1.2c1.4,0,2.5-1,2.6-2.4l0-0.2
	c0-0.3,0.1-0.6,0.3-0.8c0.2-0.2,0.5-0.3,0.8-0.3c0.1,0,0.3,0,0.4,0.1l0.1,0.1c1.1,0.6,2.7,0.3,3.4-0.8l0.1-0.2l0.7-1.1
	c0.4-0.6,0.5-1.3,0.3-2c-0.2-0.6-0.5-1.1-1-1.4L17.9,32c-0.3-0.2-0.5-0.4-0.6-0.7c-0.1-0.3,0-0.6,0.1-0.8c0.1-0.1,0.2-0.3,0.3-0.4
	l0.3-0.2c1-0.7,1.4-2.1,0.9-3.2l-0.1-0.1c0,0,0-0.1,0-0.1l-0.6-1c-0.7-1.2-2.2-1.6-3.4-1l-0.2,0.1c-0.3,0.2-0.6,0.2-0.9,0.1
	c-0.3-0.1-0.5-0.3-0.7-0.5C13,24,13,23.9,13,23.7l0-0.1c0-0.6-0.2-1.3-0.7-1.8C11.7,21.3,11,21,10.3,21z M9.1,22.5h1.2
	c0.3,0,0.6,0.1,0.8,0.3c0.2,0.2,0.3,0.5,0.3,0.8l0,0.3c0,0.4,0.2,0.7,0.3,1c0.3,0.6,0.9,1,1.6,1.2c0.7,0.2,1.4,0.1,2-0.3l0.1-0.1
	l0.1,0c0.5-0.2,1.1,0,1.3,0.5l0.6,1l0,0l0.1,0.1c0.2,0.5,0,1.1-0.5,1.4L17,28.9c-0.3,0.2-0.6,0.5-0.8,0.8c-0.3,0.6-0.4,1.3-0.3,1.9
	c0.2,0.6,0.5,1.1,1.1,1.5l0.3,0.2c0.2,0.1,0.4,0.4,0.4,0.6c0.1,0.3,0,0.6-0.1,0.8l-0.6,1.1l-0.1,0.1c-0.3,0.4-0.9,0.6-1.4,0.4
	l-0.3-0.2c-0.4-0.2-0.7-0.2-1-0.2c-0.7,0-1.4,0.3-1.9,0.7c-0.5,0.5-0.8,1.1-0.8,1.8l0,0.1c0,0.6-0.5,1-1.1,1H9.1
	c-0.6,0-1.1-0.4-1.1-1l0-0.4c0-0.4-0.2-0.7-0.3-1c-0.3-0.6-0.9-1-1.6-1.2c-0.7-0.2-1.4-0.1-2,0.3l-0.1,0.1c-0.2,0.1-0.5,0.1-0.8,0
	c-0.3-0.1-0.5-0.3-0.7-0.5l-0.6-1.1l-0.1-0.1c-0.2-0.5,0-1.1,0.5-1.4l0.2-0.1c0.7-0.5,1.2-1.3,1.2-2.1c0-0.9-0.4-1.7-1.2-2.1
	l-0.3-0.2c-0.5-0.3-0.6-1-0.3-1.5l0.6-1c0.3-0.6,1-0.7,1.6-0.4l0.2,0.1C4.6,26,5,26.1,5.3,26.1c1.4,0,2.5-1,2.6-2.4l0-0.3
	c0-0.2,0.1-0.5,0.3-0.7C8.5,22.6,8.8,22.5,9.1,22.5z M9.7,27.7c-1.8,0-3.3,1.5-3.3,3.3c0,1.8,1.5,3.3,3.3,3.3c1.8,0,3.3-1.5,3.3-3.3
	C13,29.2,11.6,27.7,9.7,27.7z M9.7,29.2c1,0,1.9,0.8,1.9,1.8s-0.8,1.8-1.9,1.8S7.9,32,7.9,31S8.7,29.2,9.7,29.2z"/>
</svg>
