<svg width="18" height="18" viewBox="0 0 18 18" fill="none" xmlns="http://www.w3.org/2000/svg">
<g clip-path="url(#clip0)">
<path d="M16.3125 16.3208C16.3125 16.6192 16.194 16.9053 15.983 17.1163C15.772 17.3273 15.4859 17.4458 15.1875 17.4458H2.8125C2.51413 17.4458 2.22798 17.3273 2.017 17.1163C1.80603 16.9053 1.6875 16.6192 1.6875 16.3208V1.6958C1.6875 1.39743 1.80603 1.11128 2.017 0.900305C2.22798 0.689327 2.51413 0.570801 2.8125 0.570801H10.7842C11.0824 0.570864 11.3684 0.689287 11.5793 0.900051L15.9833 5.30405C16.194 5.51495 16.3124 5.80089 16.3125 6.09905V16.3208Z" stroke="#3F2355" stroke-linecap="round" stroke-linejoin="round"/>
<path d="M16.3125 6.1958H11.8125C11.5141 6.1958 11.228 6.07727 11.017 5.86629C10.806 5.65531 10.6875 5.36917 10.6875 5.0708V0.570801" stroke="#3F2355" stroke-linecap="round" stroke-linejoin="round"/>
<path d="M7.25175 7.21289L5.65275 9.34439C5.60438 9.4088 5.54273 9.46208 5.47198 9.5006C5.40124 9.53913 5.32304 9.56201 5.24269 9.5677C5.16233 9.57339 5.08169 9.56175 5.00622 9.53358C4.93075 9.5054 4.86222 9.46135 4.80525 9.40439L3.9375 8.53739" stroke="#3F2355" stroke-linecap="round" stroke-linejoin="round"/>
<path d="M7.25175 12.2754L5.65275 14.4069C5.60438 14.4713 5.54273 14.5246 5.47198 14.5631C5.40124 14.6016 5.32304 14.6245 5.24269 14.6302C5.16233 14.6359 5.08169 14.6243 5.00622 14.5961C4.93075 14.5679 4.86222 14.5238 4.80525 14.4669L3.9375 13.5991" stroke="#3F2355" stroke-linecap="round" stroke-linejoin="round"/>
<path d="M9.5625 9.5708H12.9375" stroke="#3F2355" stroke-linecap="round" stroke-linejoin="round"/>
<path d="M9.5625 14.0708H12.9375" stroke="#3F2355" stroke-linecap="round" stroke-linejoin="round"/>
</g>
<defs>
<clipPath id="clip0">
<rect width="18" height="18" fill="white"/>
</clipPath>
</defs>
</svg>
