<svg width="18" height="19" viewBox="0 0 18 19" fill="none" xmlns="http://www.w3.org/2000/svg">
<path fill-rule="evenodd" clip-rule="evenodd" d="M8.49811 2.01611C10.2825 2.01611 11.739 3.42156 11.8207 5.18579L11.8244 5.34236V6.04211C11.8244 6.35277 11.5725 6.60461 11.2619 6.60461C10.9771 6.60461 10.7417 6.393 10.7045 6.11844L10.6994 6.04211V5.34236C10.6994 4.17019 9.78284 3.21181 8.62743 3.14485L8.49811 3.14111H4.84186C3.67032 3.14111 2.71205 4.05771 2.64509 5.21305L2.64136 5.34236V13.6899C2.64136 14.8619 3.55778 15.8204 4.7126 15.8874L4.84186 15.8911H8.50561C9.67363 15.8911 10.6289 14.9779 10.6956 13.8269L10.6994 13.6981V12.9909C10.6994 12.6802 10.9512 12.4284 11.2619 12.4284C11.5466 12.4284 11.782 12.64 11.8192 12.9145L11.8244 12.9909V13.6981C11.8244 15.4765 10.4243 16.9284 8.66637 17.0123L8.50561 17.0161H4.84186C3.05802 17.0161 1.60174 15.6105 1.51998 13.8464L1.51636 13.6899V5.34236C1.51636 3.55807 2.92168 2.10151 4.68534 2.01973L4.84186 2.01611H8.49811ZM16.7425 9.10626C16.8515 9.20885 16.9195 9.35446 16.9195 9.51596C16.9195 9.67831 16.8508 9.82459 16.7408 9.92726L14.5576 12.1015C14.3375 12.3207 13.9813 12.32 13.7621 12.0998C13.5628 11.8997 13.5453 11.5872 13.7091 11.3673L13.7637 11.3043L14.9938 10.0785H7.32628C7.01562 10.0785 6.76378 9.82663 6.76378 9.51596C6.76378 9.23119 6.97539 8.99585 7.24995 8.9586L7.32628 8.95346H14.995L13.7638 7.7283C13.5637 7.52904 13.5448 7.21658 13.7077 6.99601L13.762 6.9328C13.9613 6.73266 14.2737 6.71381 14.4943 6.87671L14.5575 6.93103L16.7425 9.10626Z" fill="#3F2355"/>
</svg>
