<svg width="14" height="14" viewBox="0 0 14 14" fill="none" xmlns="http://www.w3.org/2000/svg">
<path d="M6.99894 9.33406C7.13524 9.33433 7.26733 9.28686 7.37228 9.1999L10.8723 6.28323C10.9914 6.18422 11.0663 6.04193 11.0805 5.88769C11.0948 5.73344 11.0471 5.57986 10.9481 5.46073C10.8491 5.3416 10.7068 5.26669 10.5526 5.25247C10.3983 5.23825 10.2447 5.28588 10.1256 5.3849L6.99894 7.99823L3.87228 5.47823C3.81261 5.42977 3.74395 5.39359 3.67025 5.37175C3.59656 5.34992 3.51927 5.34286 3.44284 5.351C3.3664 5.35913 3.29233 5.38228 3.22488 5.41913C3.15742 5.45599 3.09791 5.50581 3.04978 5.56573C2.99635 5.62571 2.95589 5.69607 2.93093 5.77242C2.90597 5.84876 2.89704 5.92944 2.90471 6.00939C2.91238 6.08934 2.93647 6.16685 2.97549 6.23706C3.0145 6.30727 3.0676 6.36866 3.13144 6.4174L6.63144 9.2349C6.73941 9.30811 6.8688 9.34303 6.99894 9.33406Z" fill="#AAABAD"/>
</svg>
