<svg width="20" height="20" viewBox="0 0 20 20" fill="none" xmlns="http://www.w3.org/2000/svg">
<path d="M15.8583 7.9202C16.028 7.75214 16.2572 7.65787 16.4961 7.65787C16.7349 7.65787 16.9641 7.75214 17.1339 7.9202C17.2177 8.00272 17.2842 8.10109 17.3296 8.20957C17.375 8.31806 17.3984 8.43449 17.3984 8.5521C17.3984 8.66971 17.375 8.78615 17.3296 8.89463C17.2842 9.00312 17.2177 9.10148 17.1339 9.18401L12.0369 14.1793C11.8668 14.3471 11.6374 14.4412 11.3984 14.4412C11.1595 14.4412 10.9301 14.3471 10.76 14.1793L5.66302 9.18401C5.57922 9.10148 5.51268 9.00312 5.46725 8.89463C5.42183 8.78615 5.39844 8.66971 5.39844 8.5521C5.39844 8.43449 5.42183 8.31806 5.46725 8.20957C5.51268 8.10109 5.57922 8.00272 5.66302 7.9202C5.83275 7.75214 6.06195 7.65787 6.3008 7.65787C6.53965 7.65787 6.76884 7.75214 6.93857 7.9202L11.4004 12.0168L15.8583 7.9202Z" fill="#3F2355"/>
</svg>
