<svg width="55" height="55" viewBox="0 0 55 55" fill="none" xmlns="http://www.w3.org/2000/svg">
<path d="M53.0366 21.5712C52.6992 21.4704 52.2978 21.3613 51.8386 21.2486C52.3973 20.259 52.3863 19.0466 51.8098 18.0674C51.2333 17.0881 50.1785 16.4903 49.042 16.4988H46.5342L44.5058 11.2137C44.0224 9.96734 42.898 9.08353 41.5727 8.90845C36.901 8.39313 32.2014 8.17302 27.502 8.24939C24.0721 8.24939 21.006 8.32911 18.3214 8.47758C18.3214 8.40149 18.3361 8.32821 18.3361 8.2512C18.3372 4.92708 16.5444 1.86104 13.6468 0.231894C13.1003 -0.0794782 12.4296 -0.0771173 11.8854 0.237978C11.3411 0.553164 11.0053 1.13368 11.0033 1.7626V6.4162C11.0061 6.91745 10.8014 7.39745 10.4378 7.74251C10.0689 8.08339 9.5806 8.26546 9.07854 8.24939C8.07168 8.14369 7.31428 7.28349 7.33698 6.27137V1.7626C7.34006 1.14186 7.01253 0.566331 6.47723 0.252053C5.93231 -0.0722138 5.25581 -0.0810219 4.70271 0.22917C1.82118 1.83207 0.0250438 4.86125 0.00116198 8.1584C-0.0227199 11.4555 1.72919 14.5105 4.58711 16.155V38.8408C1.72819 40.4856 -0.0242636 43.5418 0.000253928 46.84C0.0247714 50.1383 1.82236 53.1681 4.70534 54.7703C5.25844 55.0758 5.93194 55.0653 6.47532 54.7428C7.01108 54.4292 7.33934 53.854 7.33689 53.2332V48.7244C7.31273 47.7158 8.06451 46.8565 9.06746 46.7464C9.57116 46.7182 10.0643 46.8988 10.4306 47.2456C10.7969 47.5925 11.0042 48.0751 11.0033 48.5796V53.235C11 53.8621 11.334 54.4425 11.8778 54.7547C12.4204 55.0761 13.0938 55.0813 13.6413 54.7684C17.7587 52.4598 19.4573 47.4071 17.5708 43.08H39.4178V45.8298C39.4178 47.3484 40.6489 48.5796 42.1675 48.5796H48.5837C50.1023 48.5796 51.3334 47.3484 51.3334 45.8298V42.9114C52.4282 42.5244 53.1618 41.4914 53.1666 40.3303V38.3284C54.2614 37.9414 54.995 36.9084 54.9998 35.7473V24.2065C55.0067 22.9883 54.2057 21.9132 53.0366 21.5712ZM53.1667 24.2065V32.9975H42.8853C42.357 30.8485 41.2658 28.879 39.7239 27.2917C39.2153 26.8337 38.555 26.5806 37.8706 26.5813H17.1334C16.4495 26.5805 15.7894 26.8333 15.281 27.2908C14.6865 27.8382 14.1721 28.4668 13.753 29.1579V21.5712C17.7713 21.2477 22.3855 21.0818 27.502 21.0818C43.2748 21.0818 50.2464 22.6528 52.5132 23.3274C52.9026 23.4419 53.1692 23.8005 53.1667 24.2065ZM40.976 32.9975H14.0281C14.4774 31.3659 15.3282 29.8729 16.5029 28.6547C16.6759 28.4989 16.9007 28.4133 17.1335 28.4145H37.8706C38.1025 28.4142 38.3264 28.5001 38.4984 28.6556C39.6741 29.8731 40.5259 31.3658 40.976 32.9975ZM49.042 18.332C49.5995 18.3306 50.1027 18.6661 50.3159 19.1812C50.5291 19.6963 50.41 20.2892 50.0146 20.6821C49.9558 20.7312 49.8926 20.7748 49.8258 20.8122C49.296 20.7105 48.7094 20.6087 48.0732 20.508L47.2382 18.332H49.042ZM27.502 10.0826C32.1223 10.0062 36.7428 10.2205 41.3362 10.7242C41.9967 10.8129 42.5565 11.2541 42.7973 11.8754L45.9962 20.2109C39.8577 19.5033 33.6807 19.1818 27.502 19.2485C22.3993 19.2485 17.7861 19.4126 13.753 19.7316V16.1871C15.9517 14.9241 17.5223 12.7996 18.0849 10.3273C20.8109 10.1669 23.9612 10.0826 27.502 10.0826ZM12.8364 53.1149V48.5797C12.8379 47.5722 12.4247 46.6085 11.6938 45.9149C10.9629 45.2213 9.97896 44.8591 8.97293 44.9133C6.98883 45.0627 5.46638 46.7351 5.50361 48.7245V53.115C3.15729 51.7603 1.7479 49.2234 1.83725 46.5156C1.95748 43.8295 3.51661 41.4169 5.91614 40.2039C6.22524 40.0481 6.4203 39.7315 6.4203 39.3853V15.6106C6.42011 15.265 6.22552 14.9489 5.91705 14.793C3.51742 13.5803 1.95802 11.1681 1.83725 8.48221C1.74799 5.77439 3.15738 3.23747 5.5037 1.88274V6.27328C5.4712 8.26564 6.99945 9.9371 8.98673 10.0827C9.9905 10.1329 10.9708 9.76893 11.6986 9.07581C12.4264 8.38269 12.8377 7.42124 12.8365 6.4163V1.88092C15.1769 3.23629 16.5836 5.76776 16.4986 8.47095C16.4136 11.1741 14.8505 13.6122 12.4295 14.8178C12.1162 14.9731 11.9185 15.2931 11.9199 15.6428V39.357C11.9186 39.7067 12.1163 40.0267 12.4295 40.182C14.8487 41.3882 16.4102 43.8252 16.4952 46.527C16.5802 49.2286 15.1749 51.759 12.8364 53.1149ZM49.5003 45.8298C49.5003 46.336 49.09 46.7464 48.5838 46.7464H42.1676C41.6614 46.7464 41.251 46.336 41.251 45.8298V43.08H49.5004V45.8298H49.5003ZM50.4169 41.2468H16.5029C15.7607 40.2564 14.8253 39.4269 13.7531 38.8087V38.4971H51.3335V40.3303C51.3335 40.8365 50.9232 41.2468 50.4169 41.2468ZM52.2501 36.6639H13.7531V34.8307H53.1668V35.7473C53.1667 36.2535 52.7564 36.6639 52.2501 36.6639Z" fill="#FB5100"/>
<path d="M46.7498 31.1643H48.583C50.1016 31.1643 51.3327 29.9332 51.3327 28.4146C51.3327 26.8959 50.1016 25.6648 48.583 25.6648H45.8332C44.8207 25.6648 44 26.4856 44 27.498V28.4146C44 29.9332 45.2311 31.1643 46.7498 31.1643ZM45.8332 27.4979H48.583C49.0892 27.4979 49.4995 27.9082 49.4995 28.4145C49.4995 28.9207 49.0892 29.3311 48.583 29.3311H46.7498C46.2435 29.3311 45.8332 28.9207 45.8332 28.4145V27.4979Z" fill="#FB5100"/>
<path d="M24.752 23.8315C24.752 24.3378 25.1623 24.7481 25.6685 24.7481H29.3349C29.8411 24.7481 30.2515 24.3378 30.2515 23.8315C30.2515 23.3253 29.8411 22.9149 29.3349 22.9149H25.6685C25.1623 22.9149 24.752 23.3253 24.752 23.8315Z" fill="#FB5100"/>
<path d="M20.1683 14.6655C20.4114 14.6654 20.6445 14.5689 20.8164 14.3969L21.733 13.4803C22.0803 13.1207 22.0754 12.549 21.7218 12.1954C21.3682 11.8418 20.7966 11.8369 20.4369 12.1843L19.5203 13.1009C19.2583 13.363 19.1799 13.7572 19.3217 14.0996C19.4636 14.4421 19.7977 14.6655 20.1683 14.6655Z" fill="#FB5100"/>
<path d="M21.3543 17.1468C21.7122 17.5047 22.2924 17.5047 22.6503 17.1468L26.3167 13.4804C26.664 13.1207 26.6591 12.5491 26.3055 12.1955C25.9519 11.8419 25.3803 11.837 25.0206 12.1844L21.3543 15.8507C20.9965 16.2087 20.9965 16.7888 21.3543 17.1468Z" fill="#FB5100"/>
</svg>
