<svg width="55" height="55" viewBox="0 0 55 55" fill="none" xmlns="http://www.w3.org/2000/svg">
<g clip-path="url(#clip0_204_165)">
<path d="M53.7802 9.27483L28.1227 0.108168C27.7176 -0.0348353 27.2757 -0.0348353 26.8705 0.108168L1.21946 9.27483C0.492433 9.5369 0.0078125 10.2267 0.0078125 10.9995C0.0078125 11.7724 0.492433 12.4622 1.21946 12.7243L13.7503 17.2013V22.9167C13.7503 26.4807 26.0932 26.5833 27.5003 26.5833C28.9074 26.5833 41.2503 26.4807 41.2503 22.9167V17.2013L44.0003 16.225V18.3333C44.0003 19.3459 44.8211 20.1667 45.8336 20.1667H47.667C48.6795 20.1667 49.5003 19.3459 49.5003 18.3333V15.5833C49.4976 15.1589 49.3952 14.7409 49.2015 14.3633L53.7848 12.7243C54.5118 12.4622 54.9964 11.7724 54.9964 10.9995C54.9964 10.2267 54.5118 9.5369 53.7848 9.27483H53.7802ZM39.417 20.9C35.9254 19.3105 28.5682 19.25 27.5003 19.25C26.4324 19.25 19.0752 19.3105 15.5836 20.9V12.914C16.1336 12.2082 20.4566 11 27.5003 11C34.544 11 38.867 12.2082 39.417 12.914V20.9ZM27.5003 24.75C20.717 24.75 16.4572 23.6298 15.6606 22.9167C16.4572 22.2035 20.7188 21.0833 27.5003 21.0833C34.2818 21.0833 38.5434 22.2035 39.34 22.9167C38.5434 23.6298 34.2836 24.75 27.5003 24.75V24.75ZM44.4302 14.1213L41.2503 15.2552V12.8333C41.2503 9.26933 28.9074 9.16667 27.5003 9.16667C26.0932 9.16667 13.7503 9.26933 13.7503 12.8333V15.2543L1.83363 11L27.5131 1.83333L45.8336 8.38017V13.002C45.254 13.208 44.76 13.602 44.4302 14.1213ZM47.667 18.3333H45.8336V15.5833C45.8336 15.0771 46.244 14.6667 46.7503 14.6667C47.2566 14.6667 47.667 15.0771 47.667 15.5833V18.3333ZM47.667 12.9653V9.03558L53.167 11L47.667 12.9653Z" fill="white"/>
<path d="M52.25 28.4167C52.195 28.4165 52.14 28.4214 52.0859 28.4313C43.9526 29.6958 35.7308 30.304 27.5 30.25C19.2692 30.304 11.0474 29.6958 2.91408 28.4313C2.85987 28.4221 2.805 28.4172 2.75 28.4167C2.10833 28.4167 0 29.1436 0 38.5C0 47.8564 2.10833 48.5833 2.75 48.5833C2.80504 48.5822 2.85991 48.5766 2.91408 48.5668C9.16364 47.5769 15.4719 47.0018 21.7974 46.8453L20.0081 51.1372C19.7332 51.8244 19.9003 52.6096 20.4313 53.1252C20.9622 53.6409 21.7519 53.7851 22.4308 53.4902L23.1321 53.1905L23.4355 53.8881C23.7221 54.5645 24.3866 55.0028 25.1213 55H25.1442C25.8843 54.9942 26.5478 54.5425 26.8244 53.856L28.4167 50.0445L30.0034 53.8413C30.2776 54.5343 30.944 54.9923 31.6892 55H31.7167C32.4463 55.003 33.1072 54.5701 33.396 53.9L33.7022 53.1969L34.3924 53.493C35.0743 53.794 35.8706 53.6506 36.4046 53.1307C36.9386 52.6108 37.1033 51.8186 36.8207 51.1289L35.0662 46.9214C40.7693 47.1233 46.4547 47.6744 52.0905 48.5714C52.1432 48.5801 52.1966 48.5841 52.25 48.5833C52.8917 48.5833 55 47.8564 55 38.5C55 29.1436 52.8917 28.4167 52.25 28.4167V28.4167ZM30.4333 32.0558C30.814 33.4555 31.0357 34.8937 31.0943 36.3431C29.0158 35.3766 26.5781 35.6032 24.7133 36.9362C24.6664 35.2901 24.4555 33.6527 24.0836 32.0485C25.194 32.0717 26.3328 32.0833 27.5 32.0833C28.5019 32.0833 29.4745 32.0723 30.4333 32.0558V32.0558ZM28.4167 46.75C25.8854 46.75 23.8333 44.698 23.8333 42.1667C23.8333 39.6354 25.8854 37.5833 28.4167 37.5833C30.948 37.5833 33 39.6354 33 42.1667C32.997 44.6967 30.9467 46.747 28.4167 46.75V46.75ZM2.75 30.7083C3.45236 33.2434 3.76152 35.8712 3.66667 38.5C3.76152 41.1288 3.45236 43.7566 2.75 46.2917C2.04764 43.7566 1.73848 41.1288 1.83333 38.5C1.73848 35.8712 2.04764 33.2434 2.75 30.7083ZM4.60167 46.4475C5.10308 44.9937 5.5 42.5608 5.5 38.5C5.5 34.4392 5.10308 32.0063 4.60075 30.5507C10.4258 31.3551 16.2906 31.8396 22.1687 32.0017C22.7185 34.1226 22.9702 36.3097 22.9167 38.5C22.9167 38.6329 22.9167 38.7594 22.9112 38.8868C21.8111 40.7124 21.7003 42.9681 22.616 44.8928L22.5757 44.99C16.5616 45.1374 10.5607 45.6246 4.60167 46.4493V46.4475ZM25.1231 53.1667L24.4539 51.6267C24.2527 51.1642 23.7157 50.9513 23.2522 51.15L21.7094 51.832L23.859 46.6785C24.7415 47.5728 25.8674 48.188 27.0967 48.4477L25.1231 53.1667ZM33.5812 51.15C33.1177 50.9513 32.5807 51.1642 32.3794 51.6267L31.7011 53.1511L29.7357 48.4458C30.966 48.186 32.0928 47.5705 32.9762 46.6757L35.1212 51.8091L33.5812 51.15ZM52.0667 46.7042C46.1774 45.7978 40.2389 45.2468 34.2833 45.0542L34.2182 44.8965C35.3711 42.4673 34.8768 39.576 32.9826 37.6677C32.9755 35.7666 32.756 33.8723 32.3281 32.0201C38.938 31.8721 45.5313 31.2958 52.0667 30.2949C52.492 31.0172 53.1667 33.8745 53.1667 38.5C53.1667 43.1255 52.4874 45.9818 52.0667 46.7042V46.7042Z" fill="white"/>
</g>
<defs>
<clipPath id="clip0_204_165">
<rect width="55" height="55" fill="white"/>
</clipPath>
</defs>
</svg>
