<svg width="55" height="55" viewBox="0 0 55 55" fill="none" xmlns="http://www.w3.org/2000/svg">
<g clip-path="url(#clip0_204_188)">
<path d="M25.3296 37.3039C25.7488 36.8839 25.7488 36.2041 25.3296 35.7841C24.91 35.3653 24.2302 35.3653 23.8102 35.7841C23.3914 36.2041 23.3914 36.8839 23.8102 37.3039C24.2302 37.7227 24.91 37.7227 25.3296 37.3039Z" fill="white"/>
<path d="M20.2432 11.8131C20.2432 18.3268 25.5425 23.6265 32.0562 23.6265C38.5699 23.6265 43.8693 18.3268 43.8693 11.8131C43.8693 5.29934 38.5699 0 32.0562 0C25.5425 0 20.2432 5.29934 20.2432 11.8131V11.8131ZM41.7217 11.8131C41.7217 17.1426 37.3858 21.4785 32.0562 21.4785C26.7267 21.4785 22.3908 17.1426 22.3908 11.8131C22.3908 6.48392 26.7267 2.14802 32.0562 2.14802C37.3858 2.14802 41.7217 6.48392 41.7217 11.8131Z" fill="white"/>
<path d="M12.4245 54.6824C12.8407 55.102 13.5184 55.1066 13.9401 54.6912L19.1467 49.5618C20.0313 48.6772 20.3003 47.3676 19.9113 46.2292L21.0312 45.1491C21.6342 44.5667 22.4281 44.2457 23.2674 44.2457H37.544C40.0768 44.2457 42.4707 43.273 44.2856 41.5068C44.3602 41.4342 43.7187 42.19 54.0253 29.8717C55.5539 28.0631 55.3253 25.3474 53.515 23.817C51.7161 22.301 49.0214 22.5187 47.4885 24.2962L41.1514 30.8095C40.3512 29.8247 39.131 29.2108 37.8125 29.2108H25.8371C24.133 28.4979 22.3249 28.137 20.4593 28.137C15.2879 28.137 10.7724 30.5254 8.34915 35.0036C7.32822 34.8102 6.25149 35.119 5.47687 35.8936L0.368037 41.0175C-0.0490621 41.4359 -0.0499013 42.1127 0.366359 42.5324L12.4245 54.6824ZM20.4589 30.2846C22.1038 30.2846 23.6941 30.6157 25.1867 31.2686C25.3227 31.3282 25.4691 31.3588 25.6172 31.3588H37.8125C38.977 31.3588 39.9606 32.3084 39.9606 33.5064C39.9606 34.691 38.9971 35.6544 37.8125 35.6544H29.0505C28.4576 35.6544 27.9767 36.1353 27.9767 36.7282C27.9767 37.3216 28.4576 37.802 29.0505 37.802H37.8125C40.1813 37.802 42.1082 35.8751 42.1082 33.5064C42.1082 33.3176 42.0947 33.1304 42.0704 32.945C48.2006 26.6436 49.065 25.7582 49.1019 25.7141C49.8673 24.8107 51.226 24.6961 52.1299 25.4582C53.0346 26.2231 53.1491 27.581 52.3816 28.4895L42.7493 40.0046C41.3428 41.3549 39.4961 42.0981 37.544 42.0981H23.2674C21.8684 42.0981 20.5441 42.6331 19.5395 43.6036L18.6268 44.4844L10.2135 36.0715C12.1798 32.3827 15.8695 30.2846 20.4589 30.2846V30.2846ZM6.99672 37.4114C7.35088 37.0572 7.89471 36.9934 8.32649 37.2603C8.51238 37.3736 7.97863 36.8877 17.6281 46.5238C18.0574 46.953 18.0343 47.637 17.634 48.0373L13.1953 52.4101L2.6432 41.7775L6.99672 37.4114Z" fill="white"/>
<path d="M30.7684 5.36984V6.62827C29.5184 7.07139 28.6204 8.2652 28.6204 9.66546C28.6204 11.4417 30.0656 12.8873 31.8422 12.8873C32.4343 12.8873 32.916 13.369 32.916 13.9611C32.916 14.5532 32.4343 15.0349 31.8422 15.0349C31.3836 15.0349 30.888 14.7466 30.4478 14.2225C30.066 13.7685 29.3887 13.7101 28.9347 14.0916C28.4807 14.4734 28.4219 15.1507 28.8038 15.6047C29.3778 16.2874 30.053 16.7633 30.7684 17.0033V18.2567C30.7684 18.85 31.2493 19.3305 31.8422 19.3305C32.4351 19.3305 32.916 18.85 32.916 18.2567V16.9983C34.1661 16.5547 35.064 15.3609 35.064 13.9611C35.064 12.1844 33.6189 10.7393 31.8422 10.7393C31.2501 10.7393 30.7684 10.2575 30.7684 9.66546C30.7684 9.07338 31.2501 8.59124 31.8422 8.59124C32.2228 8.59124 32.6244 8.78552 33.0037 9.15269C33.4301 9.56517 34.1098 9.55384 34.5223 9.12793C34.9348 8.7016 34.9235 8.02182 34.4976 7.60934C33.9525 7.08188 33.407 6.78353 32.916 6.62072V5.36984C32.916 4.7765 32.4351 4.29562 31.8422 4.29562C31.2493 4.29562 30.7684 4.7765 30.7684 5.36984V5.36984Z" fill="white"/>
</g>
<defs>
<clipPath id="clip0_204_188">
<rect width="54.8926" height="55" fill="white"/>
</clipPath>
</defs>
</svg>
