<svg width="60" height="53" viewBox="0 0 60 53" fill="none" xmlns="http://www.w3.org/2000/svg">
<path d="M52.227 53H7.35287C6.83695 53 6.42188 52.5849 6.42188 52.069V23.5184C6.42188 23.0024 6.83695 22.5874 7.35287 22.5874C7.8688 22.5874 8.28387 23.0024 8.28387 23.5184V51.138H51.296V23.5184C51.296 23.0024 51.7111 22.5874 52.227 22.5874C52.7429 22.5874 53.158 23.0024 53.158 23.5184V52.069C53.158 52.5849 52.7391 53 52.227 53Z" fill="#FB5100"/>
<path d="M56.7037 27.4518C56.0636 27.4518 55.4468 27.2385 54.9348 26.8351L29.7901 7.05134L4.64534 26.8351C3.40013 27.8126 1.59244 27.5993 0.61489 26.354C0.141633 25.7528 -0.0717212 25.0002 0.0213787 24.2399C0.110599 23.4796 0.494636 22.7969 1.09591 22.3236L29.2159 0.200747C29.5534 -0.0669155 30.0306 -0.0669155 30.3681 0.200747L58.4881 22.3236C59.7333 23.3011 59.9467 25.1088 58.9691 26.354C58.4958 26.9553 57.8131 27.3394 57.0528 27.4286C56.9364 27.4441 56.8201 27.4518 56.7037 27.4518V27.4518ZM29.7901 4.9372C29.9918 4.9372 30.1974 5.00315 30.3642 5.13504L56.0869 25.3687C56.3002 25.5355 56.564 25.6092 56.8317 25.5782C57.0994 25.5472 57.3399 25.4114 57.5067 25.2019C57.8519 24.7636 57.7743 24.1274 57.336 23.786L29.7901 2.11705L2.24414 23.786C2.03078 23.9528 1.89889 24.1934 1.86786 24.461C1.83683 24.7287 1.91053 24.9925 2.07733 25.2058C2.42258 25.6442 3.05488 25.7179 3.49323 25.3765L29.2159 5.1428C29.3827 5.00315 29.5883 4.9372 29.7901 4.9372V4.9372Z" fill="#FB5100"/>
<path d="M47.4209 15.7329C46.905 15.7329 46.4899 15.3178 46.4899 14.8019V4.0993H41.8737V9.70469C41.8737 10.2206 41.4586 10.6357 40.9427 10.6357C40.4268 10.6357 40.0117 10.2206 40.0117 9.70469V3.1683C40.0117 2.65237 40.4268 2.2373 40.9427 2.2373H47.4209C47.9368 2.2373 48.3519 2.65237 48.3519 3.1683V14.8019C48.3519 15.3178 47.9368 15.7329 47.4209 15.7329Z" fill="#FB5100"/>
<path d="M39.527 48.1898C38.3788 48.1898 37.2965 47.7437 36.4819 46.929L28.2852 38.7324C27.9206 38.3677 27.9206 37.7781 28.2852 37.4174C28.6498 37.0566 29.2395 37.0527 29.6002 37.4174L37.7969 45.614C38.2585 46.0756 38.8714 46.3317 39.5231 46.3317C40.1748 46.3317 40.7877 46.0756 41.2494 45.614C41.711 45.1524 41.967 44.5395 41.967 43.8878C41.967 43.2361 41.711 42.6232 41.2494 42.1616L33.0566 33.9571C32.6919 33.5925 32.6919 33.0029 33.0566 32.6421C33.4212 32.2775 34.0108 32.2775 34.3716 32.6421L42.5683 40.8388C43.3829 41.6534 43.829 42.7318 43.829 43.8839C43.829 45.036 43.3829 46.1144 42.5683 46.929C41.7575 47.7398 40.6752 48.1898 39.527 48.1898Z" fill="#FB5100"/>
<path d="M39.7056 44.9933C39.4689 44.9933 39.2284 44.9041 39.0461 44.7218L30.8184 36.4941C30.4538 36.1294 30.4538 35.5398 30.8184 35.179C31.183 34.8144 31.7727 34.8144 32.1334 35.179L40.3611 43.4067C40.7258 43.7714 40.7258 44.361 40.3611 44.7218C40.1827 44.9041 39.9461 44.9933 39.7056 44.9933V44.9933Z" fill="#FB5100"/>
<path d="M27.192 34.6166C26.9554 34.6166 26.7149 34.5274 26.5325 34.3451L18.6656 26.4781L17.4243 25.9506C17.3273 25.9118 17.2419 25.8536 17.1644 25.7837L17.0596 25.6906C16.982 25.6208 16.92 25.5394 16.8695 25.4501L16.1054 24.0692C16.0084 23.8907 15.9696 23.689 15.9967 23.4873L16.0316 23.2274C16.0588 23.0257 16.1519 22.8433 16.2954 22.6998L18.3397 20.6555C18.4833 20.512 18.6695 20.4189 18.8673 20.3917L19.1272 20.3568C19.3289 20.3296 19.5307 20.3646 19.7091 20.4654L21.0901 21.2296C21.1793 21.28 21.2608 21.3421 21.3306 21.4197L21.4237 21.5244C21.4935 21.602 21.5478 21.6874 21.5905 21.7843L22.1181 23.0257L29.985 30.8887C30.3496 31.2534 30.3496 31.843 29.985 32.2038C29.6203 32.5684 29.0307 32.5684 28.67 32.2038L20.675 24.2127C20.5897 24.1273 20.5237 24.0304 20.4772 23.9179L19.9768 22.7386L19.2824 22.3546L17.9984 23.6386L18.3824 24.3329L19.5617 24.8372C19.6703 24.8838 19.7712 24.9497 19.8565 25.0351L27.8476 33.0261C28.2122 33.3908 28.2122 33.9804 27.8476 34.3412C27.6691 34.5235 27.4286 34.6166 27.192 34.6166V34.6166Z" fill="#FB5100"/>
<path d="M21.8663 48.1743C21.1603 48.1743 20.4582 48.0541 19.7871 47.8136C19.5 47.7088 19.2828 47.4722 19.2013 47.1774C19.1199 46.8826 19.1936 46.5684 19.3914 46.3356L21.9012 43.3758L20.5164 41.9909L17.5566 44.5008C17.3238 44.6986 17.0096 44.7684 16.7148 44.6908C16.42 44.6133 16.1833 44.3921 16.0786 44.1051C15.6907 43.0228 15.6131 41.8552 15.8536 40.7302C16.1019 39.5703 16.676 38.5152 17.5178 37.6734C18.3595 36.8317 19.4147 36.2575 20.5745 36.0093C21.5017 35.8114 22.4598 35.827 23.3714 36.0558L31.7504 27.6768C31.5215 26.7652 31.5021 25.8071 31.7039 24.88C31.9521 23.7201 32.5262 22.665 33.368 21.8232C34.2098 20.9814 35.2649 20.4073 36.4248 20.159C37.5497 19.9185 38.7174 19.9961 39.7997 20.384C40.0867 20.4888 40.304 20.7254 40.3854 21.0202C40.463 21.315 40.3932 21.6292 40.1953 21.862L37.6855 24.8218L39.0704 26.2066L42.0302 23.6968C42.2629 23.499 42.5771 23.4292 42.872 23.5067C43.1668 23.5843 43.4034 23.8054 43.5081 24.0925C43.8961 25.1748 43.9736 26.3424 43.7331 27.4674C43.4849 28.6272 42.9107 29.6824 42.069 30.5241C41.2272 31.3659 40.1721 31.94 39.0122 32.1883C38.0851 32.3861 37.1269 32.3706 36.2153 32.1418L27.8363 40.5207C28.0652 41.4323 28.0846 42.3905 27.8829 43.3176C27.6346 44.4775 27.0605 45.5326 26.2187 46.3744C25.3769 47.2162 24.3218 47.7903 23.1619 48.0385C22.7314 48.1278 22.2969 48.1743 21.8663 48.1743V48.1743ZM21.8508 46.3123H21.8547C22.9757 46.3123 24.0813 45.874 24.8998 45.0594C26.0674 43.8917 26.4631 42.1306 25.9045 40.575C25.7843 40.2376 25.8657 39.8574 26.1217 39.6014L35.2921 30.4349C35.5481 30.1789 35.9244 30.0936 36.2657 30.2177C37.8213 30.7763 39.5824 30.3806 40.7501 29.213C41.5686 28.3945 42.0069 27.2889 42.003 26.164L39.6173 28.1889C39.2488 28.5031 38.698 28.4798 38.3566 28.1385L35.7576 25.5394C35.4162 25.1981 35.3929 24.6472 35.7071 24.2787L37.7321 21.893H37.7282C36.6071 21.893 35.5016 22.3314 34.683 23.146C33.5154 24.3136 33.1197 26.0747 33.6783 27.6303C33.7986 27.9678 33.7133 28.3479 33.4611 28.604L24.2947 37.7743C24.0386 38.0303 23.6624 38.1157 23.321 37.9915C21.7654 37.4329 20.0043 37.8286 18.8367 38.9962C18.0182 39.8147 17.5798 40.9203 17.5837 42.0452L19.9694 40.0203C20.3379 39.7061 20.8888 39.7294 21.2301 40.0708L23.8292 42.6698C24.1705 43.0112 24.1938 43.562 23.8796 43.9305L21.8508 46.3123Z" fill="#FB5100"/>
</svg>
