<svg width="59" height="50" viewBox="0 0 59 50" fill="none" xmlns="http://www.w3.org/2000/svg">
<path d="M13.2052 14.467V14.1509H11.3184V14.467C11.3184 15.0075 11.3325 15.5481 11.3599 16.0858L13.2448 15.9896C13.2193 15.483 13.2052 14.9764 13.2052 14.467Z" fill="#FB5100"/>
<path d="M13.398 17.817L11.5234 18.0312C12.0631 22.7831 13.7197 27.4274 16.3131 31.4604L17.8999 30.4397C15.4621 26.6481 13.9065 22.2831 13.398 17.817Z" fill="#FB5100"/>
<path d="M34.7773 4.91693C33.1433 6.0207 31.231 6.60372 29.248 6.60372C27.265 6.60372 25.3537 6.02071 23.7197 4.91787L22.6641 6.48203C24.6112 7.79618 26.8876 8.49052 29.248 8.49052C31.6084 8.49052 33.8848 7.79618 35.8329 6.48108L34.7773 4.91693Z" fill="#FB5100"/>
<path d="M8.49057 32.0755H6.60377C6.60377 35.7161 3.64057 38.6793 0 38.6793V40.5661C3.64057 40.5661 6.60377 43.5293 6.60377 47.1698H8.49057C8.49057 43.5293 11.4538 40.5661 15.0943 40.5661V38.6793C11.4538 38.6793 8.49057 35.7161 8.49057 32.0755ZM7.54717 43.2972C6.73585 41.7217 5.44811 40.434 3.87264 39.6227C5.44811 38.8113 6.73585 37.5236 7.54717 35.9481C8.35849 37.5236 9.64623 38.8113 11.2217 39.6227C9.64623 40.434 8.35849 41.7217 7.54717 43.2972Z" fill="#FB5100"/>
<path d="M51.8884 7.54717H50.0818C48.2951 3.10283 43.9215 0 38.9658 0C36.6262 0 34.4262 0.633019 32.6035 1.82925C30.5856 3.15755 27.9092 3.15755 25.8903 1.82925C24.0686 0.633019 21.8686 0 19.5281 0C12.9224 0 7.54883 5.37358 7.54883 11.9792V14.467C7.54883 21.2311 9.48279 27.8123 13.1403 33.5019C15.1083 36.5632 16.5535 39.9057 17.4366 43.4358L18.463 47.5434C18.8234 48.9906 20.1168 50 21.6073 50C23.2252 50 24.5743 48.8387 24.813 47.2387L26.929 33.1274C27.1035 31.9717 28.0781 31.1321 29.2469 31.1321C30.4158 31.1321 31.3903 31.9717 31.5639 33.1274L33.68 47.2387C33.9196 48.8387 35.2686 50 36.8866 50C38.3771 50 39.6705 48.9906 40.0309 47.5434L41.0583 43.4358C41.9413 39.9047 43.3875 36.5623 45.3554 33.5019C47.5054 30.1566 49.0781 26.4208 49.9979 22.5434C49.9969 22.5764 50.0017 22.6085 50.0017 22.6415H51.8884C51.8884 19.0009 54.8517 16.0377 58.4922 16.0377V14.1509C54.8517 14.1509 51.8884 11.1877 51.8884 7.54717ZM43.7677 32.4811C41.6875 35.717 40.1611 39.2491 39.2281 42.9792L38.1998 47.0868C38.0498 47.6915 37.5092 48.1132 36.8866 48.1132C36.2101 48.1132 35.6469 47.6274 35.5469 46.9585L33.4309 32.8472C33.1177 30.7594 31.3573 29.2453 29.2469 29.2453C27.1366 29.2453 25.3762 30.7594 25.063 32.8472L22.9469 46.9585C22.8479 47.6274 22.2837 48.1132 21.6073 48.1132C20.9847 48.1132 20.4441 47.6915 20.2922 47.0868L19.2649 42.9792C18.3328 39.2481 16.8054 35.716 14.7252 32.4811C11.2649 27.0972 9.43562 20.8679 9.43562 14.467V11.9792C9.43562 6.41415 13.963 1.88679 19.5281 1.88679C21.4988 1.88679 23.3403 2.41226 24.8535 3.4066C26.1752 4.27547 27.6545 4.71698 29.2469 4.71698C30.8394 4.71698 32.3186 4.27547 33.6394 3.4066C35.1535 2.41226 36.9951 1.88679 38.9658 1.88679C43.9432 1.88679 48.2375 5.59528 48.9451 10.4377L48.9847 11.0519C47.8149 12.9094 45.7507 14.1509 43.3979 14.1509V16.0377C45.613 16.0377 47.5724 17.1377 48.7705 18.816C48.1337 23.6538 46.4054 28.3774 43.7677 32.4811ZM50.9451 18.7689C50.1337 17.1934 48.846 15.9057 47.2705 15.0943C48.846 14.283 50.1337 12.9953 50.9451 11.4198C51.7564 12.9953 53.0441 14.283 54.6196 15.0943C53.0441 15.9057 51.7564 17.1934 50.9451 18.7689Z" fill="#FB5100"/>
</svg>
