<svg width="55" height="55" viewBox="0 0 55 55" fill="none" xmlns="http://www.w3.org/2000/svg">
<g clip-path="url(#clip0_1_162)">
<path d="M53.9577 44.4623C52.0229 41.0692 48.4767 40.434 47.7847 40.3414C47.7443 40.3359 47.704 40.3332 47.6627 40.3332H37.96L37.5759 39.9492C38.07 39.7768 38.5429 39.5514 38.981 39.2782C39.4311 38.9978 39.8133 38.6825 40.1515 38.3552L43.7444 39.3818L44.2476 37.6192L41.3733 36.798C41.7527 36.15 41.991 35.5405 42.1239 35.0987C42.1496 35.0125 42.1633 34.9236 42.1633 34.8338V32.9502L44.3576 32.0098L43.6363 30.3252L42.1633 30.9567V30.251C42.1633 30.0851 42.1184 29.9219 42.0323 29.7789L39.2826 25.1961C39.1378 24.9541 38.8885 24.7928 38.6089 24.758C38.333 24.7277 38.0498 24.8194 37.8491 25.0201L35.3679 27.5013H34.8308V15.9653L36.1268 14.6693H37.3028L39.8215 16.3485C40.2431 16.6299 40.8114 16.5153 41.0928 16.0946L42.9259 13.3449C43.1312 13.0369 43.1312 12.6364 42.9259 12.3284L39.2597 6.829C39.0892 6.57328 38.8032 6.42021 38.4971 6.42021H35.7474C35.4 6.42021 35.0829 6.61636 34.927 6.92707L33.3478 10.0865H23.4819L21.9017 6.92707C21.7468 6.61636 21.4297 6.42021 21.0823 6.42021H17.416C17.12 6.42021 16.8423 6.5632 16.6709 6.80425L12.088 13.2202C11.8277 13.5841 11.869 14.0836 12.1852 14.4008L14.0183 16.2339C14.3272 16.5437 14.8111 16.5895 15.175 16.3485L17.6937 14.6693H19.7863L20.1657 15.0488V25.0119C17.746 25.8908 11.1394 28.9064 8.30993 36.3415C6.64086 40.7282 7.01116 44.8235 7.62617 47.5062L5.50065 46.2304V43.0829C5.50065 42.0343 4.91772 41.0921 3.98099 40.6237C3.04242 40.1545 1.93887 40.2553 1.10022 40.8841C0.411873 41.401 0.00125122 42.2232 0.00125122 43.0829V49.4989C0.00125122 49.8151 0.1644 50.1084 0.432038 50.2761L7.76458 54.859C7.91031 54.9497 8.07804 54.9983 8.25036 54.9983H26.5817H30.248H49.4959C49.638 54.9983 49.7791 54.9653 49.9056 54.902L53.5719 53.0689C53.7378 52.9864 53.8734 52.8553 53.9632 52.694C54.0586 52.5235 56.251 48.4796 53.9577 44.4623ZM29.3323 45.8271L23.9044 45.8097L23.8989 47.6428L29.3314 47.6602V53.1651H27.4983C27.4983 51.1432 25.8539 49.4989 23.832 49.4989H21.9989C21.9989 44.9509 18.2987 41.2498 13.7498 41.2498H12.8332V43.0829H13.7498C17.2868 43.0829 20.1657 45.9609 20.1657 49.4989V50.4154C20.1657 50.9214 20.5754 51.332 21.0823 51.332H23.832C24.843 51.332 25.6651 52.1542 25.6651 53.1651H8.51341L1.83439 48.9911V43.0829C1.83439 42.796 1.97095 42.522 2.2001 42.3496C2.48423 42.137 2.84261 42.104 3.16066 42.2635C3.47779 42.4221 3.66752 42.7282 3.66752 43.0829V46.7492C3.66752 47.0709 3.83708 47.3697 4.11206 47.5347L8.69489 50.2844C9.02761 50.4842 9.45106 50.453 9.75078 50.2046C10.0496 49.9562 10.1605 49.5474 10.0267 49.1827C9.34107 47.3165 7.96805 42.3927 10.023 36.9923C10.1577 36.6376 10.3108 36.304 10.4639 35.9713L10.4657 35.9722C13.5518 29.2656 20.0768 26.9403 21.3545 26.5425C21.7386 26.4243 21.9989 26.0696 21.9989 25.6681V14.6693C21.9989 14.4264 21.9026 14.1927 21.7303 14.0213L20.8137 13.1047C20.6423 12.9324 20.4095 12.8362 20.1657 12.8362H17.416C17.2355 12.8362 17.0577 12.8903 16.9073 12.9902L14.7827 14.4063L14.0302 13.6538L17.8881 8.25335H20.5159L22.096 11.4128C22.2509 11.7235 22.5681 11.9196 22.9154 11.9196H33.9142C34.2616 11.9196 34.5788 11.7235 34.7346 11.4128L36.3138 8.25335H38.0067L41.0616 12.8362L40.0763 14.3146L38.0892 12.9902C37.9389 12.8903 37.7611 12.8362 37.5805 12.8362H35.7474C35.5036 12.8362 35.2708 12.9324 35.0994 13.1047L33.2662 14.9379C33.0939 15.1093 32.9977 15.343 32.9977 15.5859V27.5013H30.6274L28.1463 25.0201C27.9465 24.8194 27.6651 24.725 27.3864 24.758C27.106 24.7928 26.8576 24.9541 26.7128 25.1961L23.9631 29.7789C23.8769 29.9219 23.832 30.0851 23.832 30.251V30.9567L22.36 30.3261L21.6387 32.0108L23.832 32.9502V34.3957V34.8338C23.832 34.9236 23.8457 35.0125 23.8714 35.0987C24.0401 35.6596 24.3728 36.4864 24.964 37.3259L21.6772 38.5587L22.3215 40.2755L26.3122 38.7787C26.5285 38.9528 26.7623 39.1206 27.0152 39.2782C27.7182 39.7163 28.5065 40.0298 29.3323 40.204V45.8271V45.8271ZM52.4766 51.5666L49.2796 53.1651H40.9901L40.3302 51.1835V48.86L41.5034 47.1002C41.6492 46.8802 41.8948 46.7492 42.1578 46.7492C42.5538 46.7492 42.7573 47.0104 42.826 47.1222C42.8957 47.2349 43.0378 47.5337 42.8609 47.8866L42.2596 49.0892C42.0836 49.442 42.1523 49.8682 42.4319 50.1469L43.3485 51.0634C43.5199 51.2358 43.7527 51.332 43.9965 51.332H48.5793V49.4989H44.3759L44.1954 49.3183L44.5015 48.707C44.9103 47.8894 44.8663 46.9361 44.386 46.1589C43.9057 45.3816 43.0717 44.916 42.1578 44.916C41.2807 44.916 40.4659 45.3523 39.9783 46.0819L38.6511 48.0736C38.5512 48.2248 38.4971 48.4017 38.4971 48.5823V51.332C38.4971 51.4301 38.5136 51.5281 38.5447 51.6216L39.0589 53.1651H35.7474V46.7492H33.9142V53.1651H31.1645V46.7464V39.4166C31.1645 38.9437 30.8043 38.5477 30.3332 38.5037C29.6623 38.4414 29.0326 38.2618 28.4506 37.9758L29.654 37.5248L29.0097 35.8081L26.7549 36.6541C26.1601 35.952 25.8329 35.2096 25.6651 34.6936V34.3948V33.7348L28.0537 34.7586L28.775 33.074L25.6651 31.7422V30.5048L27.6797 27.1465L29.6 29.0658C29.7714 29.2381 30.0042 29.3344 30.248 29.3344H33.9142H35.7474C35.9912 29.3344 36.224 29.2381 36.3954 29.0658L38.3156 27.1465L40.3302 30.5048V31.7422L37.2194 33.0749L37.9407 34.7596L40.3302 33.7357V34.6936C40.1927 35.1161 39.9462 35.6917 39.5365 36.2728L37.8326 35.7861L37.3294 37.5487L37.9875 37.7366C37.2881 38.1664 36.5072 38.4258 35.6631 38.5046C35.3093 38.5376 35.0059 38.7723 34.8858 39.1059C34.7648 39.4405 34.8482 39.8135 35.0994 40.0646L36.9325 41.8978C37.1039 42.0701 37.3367 42.1663 37.5805 42.1663H47.5977C48.122 42.2461 50.8927 42.7859 52.3666 45.3706C53.8752 48.0149 52.8441 50.7582 52.4766 51.5666Z" fill="#FB5100"/>
<path d="M54.1484 12.0947C52.4976 7.50726 47.1394 0.511102 39.1378 0.0418194C33.6988 -0.285395 29.5587 3.95465 27.578 5.98943C27.5395 6.02884 27.501 6.06825 27.4644 6.10583C27.413 6.05359 27.3608 5.99859 27.3049 5.94085C25.3544 3.91523 21.2647 -0.30831 15.8597 0.0198217C7.85807 0.489104 2.49981 7.48435 0.849075 12.0727C-1.35527 18.2045 0.779416 26.0393 6.70686 33.568L8.14862 32.4342C2.61988 25.4133 0.587853 18.2174 2.57497 12.6923C4.05981 8.56223 8.85254 2.26633 15.9669 1.84929C20.5589 1.59174 24.2243 5.38449 25.985 7.21305C26.3214 7.56134 26.5936 7.84273 26.7953 8.02146C26.9062 8.12045 27.0409 8.19102 27.1848 8.22677L27.2792 8.24968C27.5716 8.32209 27.8832 8.24602 28.1087 8.04437C28.3039 7.87114 28.567 7.60167 28.8924 7.26712C30.6824 5.42849 34.4193 1.61098 39.0305 1.87129C46.1458 2.28924 50.9376 8.58515 52.4225 12.7152C54.6818 18.9955 51.7433 27.3739 44.5629 35.1271L45.9075 36.3727C53.5627 28.1071 56.6433 19.0313 54.1484 12.0947Z" fill="#FB5100"/>
<path d="M25.6651 15.5859H23.832V17.419H25.6651V15.5859Z" fill="#FB5100"/>
<path d="M31.1646 15.5859H29.3314V17.419H31.1646V15.5859Z" fill="#FB5100"/>
<path d="M29.3314 19.2522H25.6652V21.0853H29.3314V19.2522Z" fill="#FB5100"/>
<path d="M31.1646 31.1675H29.3314V33.0007H31.1646V31.1675Z" fill="#FB5100"/>
<path d="M36.6639 31.1675H34.8308V33.0007H36.6639V31.1675Z" fill="#FB5100"/>
<path d="M33.9143 33.9172H32.0811V35.7504H33.9143V33.9172Z" fill="#FB5100"/>
</g>
<defs>
<clipPath id="clip0_1_162">
<rect width="55" height="55" fill="white"/>
</clipPath>
</defs>
</svg>
